<?xml version="1.0" encoding="UTF-8" standalone="no"?>
<!-- Created with Inkscape (http://www.inkscape.org/) -->

<svg
   xmlns:dc="http://purl.org/dc/elements/1.1/"
   xmlns:cc="http://creativecommons.org/ns#"
   xmlns:rdf="http://www.w3.org/1999/02/22-rdf-syntax-ns#"
   xmlns:svg="http://www.w3.org/2000/svg"
   xmlns="http://www.w3.org/2000/svg"
   xmlns:sodipodi="http://sodipodi.sourceforge.net/DTD/sodipodi-0.dtd"
   xmlns:inkscape="http://www.inkscape.org/namespaces/inkscape"
   width="1250"
   height="150"
   viewBox="0 0 1250 150"
   id="svg19419"
   version="1.1"
   inkscape:version="0.48.3.1 r9886"
   sodipodi:docname="Nouveau document 6"
   style="width:100%;">
  <defs
     id="defs19421" />
  <sodipodi:namedview
     id="base"
     pagecolor="#ffffff"
     bordercolor="#666666"
     borderopacity="1.0"
     inkscape:pageopacity="0.0"
     inkscape:pageshadow="2"
     inkscape:zoom="0.7"
     inkscape:cx="333.65821"
     inkscape:cy="304.38002"
     inkscape:document-units="px"
     inkscape:current-layer="layer1"
     showgrid="false"
     inkscape:window-width="1600"
     inkscape:window-height="854"
     inkscape:window-x="0"
     inkscape:window-y="24"
     inkscape:window-maximized="1" />
  <metadata
     id="metadata19424">
    <rdf:RDF>
      <cc:Work
         rdf:about="">
        <dc:format>image/svg+xml</dc:format>
        <dc:type
           rdf:resource="http://purl.org/dc/dcmitype/StillImage" />
        <dc:title></dc:title>
      </cc:Work>
    </rdf:RDF>
  </metadata>
  <g
     inkscape:label="Calque 1"
     inkscape:groupmode="layer"
     id="layer1"
     transform="translate(0,-902.36215)">
    <line
       style="fill:none;stroke:#fac768;stroke-miterlimit:10"
       stroke-miterlimit="10"
       x1="326.82858"
       y1="1002.9568"
       x2="1040.8285"
       y2="1002.9568"
       id="line19024" />
    <line
       style="fill:none;stroke:#fac768;stroke-miterlimit:10"
       stroke-miterlimit="10"
       x1="1103.8285"
       y1="1003.9568"
       x2="1226.8285"
       y2="1003.9568"
       id="line19026" />
    <text
       y="1037.6266"
       x="632.8374"
       style="opacity:0.6"
       id="text19030">
      <tspan
         style="font-size:15px;letter-spacing:3;font-family:HelveticaLTStd-Roman"
         x="632.8374"
         y="1037.6266"
         font-size="15"
         letter-spacing="3"
         id="tspan19032">Renouvelable</tspan>
      <tspan
         style="font-size:15px;font-family:HelveticaLTStd-Roman"
         x="729.8374"
         y="1037.6266"
         font-size="15"
         id="tspan19034" />
    </text>
    <text
       y="1037.6266"
       x="1103.8497"
       style="font-size:15px;opacity:0.6;font-family:HelveticaLTStd-Roman"
       font-size="15"
       id="text19038">Non renouvelable</text>
    <path
       style="fill:#b11b4a"
       inkscape:connector-curvature="0"
       d="m 1039.1286,1004.9568 c 0.1,-0.5 0.3,-1 0.5,-1.6 0.2,-0.5 0.5,-1.1 0.8,-1.6 0.3,-0.5 0.7,-1.1 1,-1.6 0.4,-0.49997 0.8,-0.99997 1.2,-1.49997 0.4,-0.49998 0.9,-0.89998 1.3,-1.39998 0.5,-0.4 0.9,-0.8 1.4,-1.2 0.2,-0.1 0.4,-0.2 0.6,-0.3 0.2,0 0.4,-0.1 0.6,-0.1 0.2,0 0.4,0 0.6,0.1 0.2,0.1 0.3,0.2 0.5,0.4 0.1,0.1 0.1,0.1 0.2,0.2 0.1,0 0.1,0.1 0.2,0.1 0,0 0,0 0.1,0 0,0 0,-0.1 0.1,-0.1 0,0 0.1,-0.1 0.1,-0.1 0,0 0.1,-0.1 0.1,-0.1 0.1,-0.1 0.3,-0.1 0.4,-0.1 0.2,0 0.3,0 0.5,0 0.3,0 0.6,0.1 0.9,0.2 0.3,0.1 0.5,0.3 0.8,0.5 0.5,0.5 0.9,1.1 1.2,1.7 0.3,0.69998 0.4,1.39998 0.4,2.19995 0,0.7 -0.1,1.4 -0.3,2.2 -0.2,0.7 -0.4,1.4 -0.8,2.1 -0.4,0.7 -0.7,1.3 -1.2,1.9 -0.4,0.6 -0.9,1.1 -1.5,1.6 -0.5,0.5 -1.1,0.9 -1.7,1.2 -0.6,0.3 -1.3,0.6 -1.9,0.8 -0.7,0.2 -1.4,0.3 -2,0.3 -0.6,0 -1.2,-0.1 -1.7,-0.3 -0.5,-0.2 -0.9,-0.5 -1.3,-0.8 -0.4,-0.4 -0.6,-0.8 -0.8,-1.3 -0.2,-0.5 -0.3,-1 -0.3,-1.6 0,-0.3 0,-0.5 0,-0.8 -0.1,-0.5 0,-0.8 0,-1 z m 1.8,0.7 c -0.1,0.3 -0.1,0.6 -0.1,0.9 0,0.4 0.1,0.7 0.2,1 0.1,0.3 0.3,0.5 0.6,0.7 0.2,0.2 0.5,0.3 0.9,0.4 0.4,0.1 0.7,0.1 1.1,0.1 0.5,0 1,-0.1 1.4,-0.2 0.5,-0.1 1,-0.4 1.4,-0.7 0.5,-0.3 0.9,-0.6 1.4,-1 0.5,-0.4 0.8,-0.9 1.2,-1.4 0.4,-0.5 0.7,-1.1 1,-1.7 0.3,-0.6 0.5,-1.2 0.7,-1.9 0.1,-0.2 0.1,-0.5 0.1,-0.8 0,-0.3 0,-0.5 0,-0.8 0,-0.39997 0,-0.79997 -0.1,-1.09997 -0.1,-0.4 -0.2,-0.69998 -0.4,-0.99998 -0.2,-0.3 -0.5,-0.5 -0.8,-0.7 -0.3,-0.2 -0.7,-0.2 -1.2,-0.2 -0.1,0 -0.1,0 -0.2,0.1 0,0.1 -0.1,0.1 -0.1,0.2 0,0.1 -0.1,0.2 -0.1,0.2 0,0 -0.1,0.2 -0.2,0.2 -0.1,0.1 -0.2,0.1 -0.3,0.2 -0.1,0 -0.2,0.1 -0.4,0.1 -0.1,0 -0.2,0 -0.3,-0.1 -0.1,-0.1 -0.2,-0.1 -0.3,-0.2 0,0 -0.1,-0.1 -0.1,-0.1 0,0 -0.1,0 -0.1,0 -0.1,0 -0.1,0 -0.2,0.1 -0.1,0.1 -0.2,0.1 -0.3,0.2 -0.1,0.1 -0.2,0.2 -0.3,0.2 -0.1,0.1 -0.2,0.2 -0.2,0.2 -0.5,0.49998 -0.9,0.99998 -1.4,1.59995 -0.5,0.6 -0.9,1.1 -1.3,1.7 -0.4,0.6 -0.7,1.2 -1,1.8 -0.3,0.6 -0.5,1.4 -0.6,2 z"
       id="path19040" />
    <path
       style="fill:#b11b4a"
       inkscape:connector-curvature="0"
       d="m 1092.0286,1004.9568 c 0.1,-0.5 0.3,-1 0.5,-1.6 0.2,-0.5 0.5,-1.1 0.8,-1.6 0.3,-0.5 0.7,-1.1 1,-1.6 0.4,-0.49997 0.8,-0.99997 1.2,-1.49997 0.4,-0.49998 0.9,-0.89998 1.3,-1.39998 0.5,-0.4 0.9,-0.8 1.4,-1.2 0.2,-0.1 0.4,-0.2 0.6,-0.3 0.2,0 0.4,-0.1 0.6,-0.1 0.2,0 0.4,0 0.6,0.1 0.2,0.1 0.3,0.2 0.5,0.4 0.1,0.1 0.1,0.1 0.2,0.2 0.1,0 0.1,0.1 0.2,0.1 0,0 0,0 0.1,0 0,0 0,-0.1 0.1,-0.1 0,0 0.1,-0.1 0.1,-0.1 0,0 0.1,-0.1 0.1,-0.1 0.1,-0.1 0.3,-0.1 0.4,-0.1 0.2,0 0.3,0 0.5,0 0.3,0 0.6,0.1 0.9,0.2 0.3,0.1 0.5,0.3 0.8,0.5 0.5,0.5 0.9,1.1 1.2,1.7 0.3,0.69998 0.4,1.39998 0.4,2.19995 0,0.7 -0.1,1.4 -0.3,2.2 -0.2,0.7 -0.4,1.4 -0.8,2.1 -0.4,0.7 -0.7,1.3 -1.2,1.9 -0.4,0.6 -0.9,1.1 -1.5,1.6 -0.5,0.5 -1.1,0.9 -1.7,1.2 -0.6,0.3 -1.3,0.6 -1.9,0.8 -0.7,0.2 -1.4,0.3 -2,0.3 -0.6,0 -1.2,-0.1 -1.7,-0.3 -0.5,-0.2 -0.9,-0.5 -1.3,-0.8 -0.4,-0.4 -0.6,-0.8 -0.8,-1.3 -0.2,-0.5 -0.3,-1 -0.3,-1.6 0,-0.3 0,-0.5 0,-0.8 -0.2,-0.5 -0.1,-0.8 0,-1 z m 1.7,0.7 c -0.1,0.3 -0.1,0.6 -0.1,0.9 0,0.4 0.1,0.7 0.2,1 0.1,0.3 0.3,0.5 0.6,0.7 0.2,0.2 0.5,0.3 0.9,0.4 0.4,0.1 0.7,0.1 1.1,0.1 0.5,0 1,-0.1 1.4,-0.2 0.5,-0.1 1,-0.4 1.4,-0.7 0.5,-0.3 0.9,-0.6 1.4,-1 0.5,-0.4 0.8,-0.9 1.2,-1.4 0.4,-0.5 0.7,-1.1 1,-1.7 0.3,-0.6 0.5,-1.2 0.7,-1.9 0.1,-0.2 0.1,-0.5 0.1,-0.8 0,-0.3 0,-0.5 0,-0.8 0,-0.39997 0,-0.79997 -0.1,-1.09997 -0.1,-0.4 -0.2,-0.69998 -0.4,-0.99998 -0.2,-0.3 -0.5,-0.5 -0.8,-0.7 -0.3,-0.2 -0.7,-0.2 -1.2,-0.2 -0.1,0 -0.1,0 -0.2,0.1 0,0.1 -0.1,0.1 -0.1,0.2 0,0.1 -0.1,0.2 -0.1,0.2 0,0 -0.1,0.2 -0.2,0.2 -0.1,0.1 -0.2,0.1 -0.3,0.2 -0.1,0 -0.2,0.1 -0.4,0.1 -0.1,0 -0.2,0 -0.3,-0.1 -0.1,-0.1 -0.2,-0.1 -0.3,-0.2 0,0 -0.1,-0.1 -0.1,-0.1 0,0 -0.1,0 -0.1,0 -0.1,0 -0.1,0 -0.2,0.1 -0.1,0.1 -0.2,0.1 -0.3,0.2 -0.1,0.1 -0.2,0.2 -0.3,0.2 -0.1,0.1 -0.2,0.2 -0.2,0.2 -0.5,0.49998 -0.9,0.99998 -1.4,1.59995 -0.5,0.6 -0.9,1.1 -1.3,1.7 -0.4,0.6 -0.7,1.2 -1,1.8 -0.3,0.6 -0.5,1.4 -0.6,2 z"
       id="path19042" />
    <path
       style="fill:#b11b4a"
       inkscape:connector-curvature="0"
       d="m 1225.0286,1004.9568 c 0.1,-0.5 0.3,-1 0.5,-1.6 0.2,-0.5 0.5,-1.1 0.8,-1.6 0.3,-0.5 0.7,-1.1 1,-1.6 0.4,-0.49997 0.8,-0.99997 1.2,-1.49997 0.4,-0.49998 0.9,-0.89998 1.3,-1.39998 0.5,-0.4 0.9,-0.8 1.4,-1.2 0.2,-0.1 0.4,-0.2 0.6,-0.3 0.2,-0.1 0.4,-0.1 0.6,-0.1 0.2,0 0.4,0 0.6,0.1 0.2,0.1 0.3,0.2 0.5,0.4 0.1,0.1 0.1,0.1 0.2,0.2 0.1,0 0.1,0.1 0.2,0.1 0,0 0,0 0.1,0 0,0 0,-0.1 0.1,-0.1 0,0 0.1,-0.1 0.1,-0.1 0,0 0.1,-0.1 0.1,-0.1 0.1,-0.1 0.3,-0.1 0.4,-0.1 0.2,0 0.3,0 0.5,0 0.3,0 0.6,0.1 0.9,0.2 0.3,0.1 0.5,0.3 0.8,0.5 0.5,0.5 0.9,1.1 1.2,1.7 0.3,0.69998 0.4,1.39998 0.4,2.19995 0,0.7 -0.1,1.4 -0.3,2.2 -0.2,0.7 -0.4,1.4 -0.8,2.1 -0.3,0.7 -0.7,1.3 -1.2,1.9 -0.5,0.6 -0.9,1.1 -1.5,1.6 -0.5,0.5 -1.1,0.9 -1.7,1.2 -0.6,0.3 -1.3,0.6 -1.9,0.8 -0.7,0.2 -1.4,0.3 -2,0.3 -0.6,0 -1.2,-0.1 -1.7,-0.3 -0.5,-0.2 -0.9,-0.5 -1.3,-0.8 -0.4,-0.4 -0.6,-0.8 -0.8,-1.3 -0.2,-0.5 -0.3,-1 -0.3,-1.6 0,-0.3 0,-0.5 0,-0.8 -0.1,-0.5 0,-0.8 0,-1 z m 1.8,0.7 c -0.1,0.3 -0.1,0.6 -0.1,0.9 0,0.4 0.1,0.7 0.2,1 0.1,0.3 0.3,0.5 0.6,0.7 0.2,0.2 0.5,0.3 0.9,0.4 0.3,0.1 0.7,0.1 1.1,0.1 0.5,0 1,-0.1 1.4,-0.2 0.4,-0.1 1,-0.4 1.4,-0.7 0.5,-0.3 0.9,-0.6 1.4,-1 0.4,-0.4 0.8,-0.9 1.2,-1.4 0.4,-0.5 0.7,-1.1 1,-1.7 0.3,-0.6 0.5,-1.2 0.7,-1.9 0.1,-0.2 0.1,-0.5 0.1,-0.8 0,-0.3 0,-0.5 0,-0.8 0,-0.39997 0,-0.79997 -0.1,-1.09997 -0.1,-0.3 -0.2,-0.69998 -0.4,-0.99998 -0.2,-0.3 -0.5,-0.5 -0.8,-0.7 -0.3,-0.2 -0.7,-0.2 -1.2,-0.2 -0.1,0 -0.1,0 -0.2,0.1 0,0.1 -0.1,0.1 -0.1,0.2 0,0.1 -0.1,0.2 -0.1,0.2 0,0 -0.1,0.2 -0.2,0.2 -0.1,0.1 -0.2,0.1 -0.3,0.2 -0.1,0 -0.2,0.1 -0.4,0.1 -0.1,0 -0.2,0 -0.3,-0.1 -0.1,-0.1 -0.2,-0.1 -0.3,-0.2 0,0 -0.1,-0.1 -0.1,-0.1 0,0 -0.1,0 -0.1,0 -0.1,0 -0.1,0 -0.2,0.1 -0.1,0.1 -0.2,0.1 -0.3,0.2 -0.1,0.1 -0.2,0.2 -0.3,0.2 -0.1,0.1 -0.2,0.2 -0.2,0.2 -0.5,0.49998 -0.9,0.99998 -1.4,1.59995 -0.5,0.6 -0.9,1.1 -1.3,1.7 -0.4,0.6 -0.7,1.2 -1,1.8 -0.3,0.6 -0.5,1.4 -0.6,2 z"
       id="path19044" />
    <text
       y="955.84027"
       x="20.974083"
       style="opacity:0.6"
       id="text19048">
      <tspan
         style="font-size:12px;font-family:HelveticaLTStd-BoldObl"
         x="20.974083"
         y="955.84027"
         font-size="12"
         id="tspan19050">Part</tspan>
      <tspan
         style="font-size:12px;font-family:HelveticaLTStd-BoldObl"
         x="47.874077"
         y="955.84027"
         font-size="12"
         id="tspan19052" />
      <tspan
         style="font-size:12px;font-family:HelveticaLTStd-BoldObl"
         x="52.174061"
         y="955.84027"
         font-size="12"
         id="tspan19054">des</tspan>
      <tspan
         style="font-size:12px;font-family:HelveticaLTStd-BoldObl"
         x="74.974083"
         y="955.84027"
         font-size="12"
         id="tspan19056" />
      <tspan
         style="font-size:12px;font-family:HelveticaLTStd-BoldObl"
         x="79.274071"
         y="955.84027"
         font-size="12"
         id="tspan19058">énergies</tspan>
      <tspan
         style="font-size:12px;font-family:HelveticaLTStd-BoldObl"
         x="135.07407"
         y="955.84027"
         font-size="12"
         id="tspan19060" />
      <tspan
         style="font-size:12px;font-family:HelveticaLTStd-BoldObl"
         x="139.47406"
         y="955.84027"
         font-size="12"
         id="tspan19062">renouvelables</tspan>
      <tspan
         style="font-size:12px;font-family:HelveticaLTStd-BoldObl"
         x="230.47406"
         y="955.84027"
         font-size="12"
         id="tspan19064" />
      <tspan
         style="font-size:12px;font-family:HelveticaLTStd-BoldObl"
         x="234.77406"
         y="955.84027"
         font-size="12"
         id="tspan19066">dans</tspan>
      <tspan
         style="font-size:12px;font-family:HelveticaLTStd-BoldObl"
         x="20.974083"
         y="977.84027"
         font-size="12"
         id="tspan19068">la consommation finale en 2012. (%)</tspan>
    </text>
    <path
       style="fill:none;stroke:#fac768;stroke-miterlimit:10"
       inkscape:connector-curvature="0"
       stroke-miterlimit="10"
       d="M 326.92857,1002.9568 H 17.328576 c -6.6,0 -12.4999999,-5.89995 -12.4999999,-12.49995 v -55.3 c 0,-6.6 5.8999999,-12.2 12.4999999,-12.2 h 25.4"
       id="path19070" />
    <path
       style="fill:#b11b4a"
       inkscape:connector-curvature="0"
       d="m 41.128576,924.75685 c 0.1,-0.5 0.3,-1 0.5,-1.6 0.2,-0.5 0.5,-1.1 0.8,-1.6 0.3,-0.5 0.7,-1.1 1,-1.6 0.4,-0.5 0.8,-1 1.2,-1.5 0.4,-0.5 0.9,-0.9 1.3,-1.4 0.5,-0.4 0.9,-0.8 1.4,-1.2 0.2,-0.1 0.4,-0.2 0.6,-0.3 0.2,0 0.4,-0.1 0.6,-0.1 0.2,0 0.4,0 0.6,0.1 0.2,0.1 0.3,0.2 0.5,0.4 0.1,0.1 0.1,0.1 0.2,0.2 0.1,0 0.1,0.1 0.2,0.1 0,0 0,0 0.1,0 0.1,0 0,-0.1 0.1,-0.1 0,0 0.1,-0.1 0.1,-0.1 0,0 0.1,-0.1 0.1,-0.1 0.1,-0.1 0.3,-0.1 0.4,-0.1 0.2,0 0.3,0 0.5,0 0.3,0 0.6,0.1 0.9,0.2 0.3,0.1 0.5,0.3 0.8,0.5 0.5,0.5 0.9,1.1 1.2,1.7 0.3,0.7 0.4,1.4 0.4,2.2 0,0.7 -0.1,1.4 -0.3,2.2 -0.2,0.7 -0.4,1.4 -0.8,2.1 -0.4,0.7 -0.7,1.3 -1.2,1.9 -0.5,0.6 -0.9,1.1 -1.5,1.6 -0.5,0.5 -1.1,0.9 -1.7,1.2 -0.6,0.3 -1.3,0.6 -1.9,0.8 -0.7,0.2 -1.4,0.3 -2,0.3 -0.6,0 -1.2,-0.1 -1.7,-0.3 -0.5,-0.2 -0.9,-0.5 -1.3,-0.8 -0.4,-0.4 -0.6,-0.8 -0.8,-1.3 -0.2,-0.5 -0.3,-1 -0.3,-1.6 0,-0.3 0,-0.5 0,-0.8 -0.2,-0.5 -0.1,-0.8 0,-1 z m 1.7,0.7 c -0.1,0.3 -0.1,0.6 -0.1,0.9 0,0.4 0.1,0.7 0.2,1 0.1,0.3 0.3,0.5 0.6,0.7 0.2,0.2 0.5,0.3 0.9,0.4 0.3,0.1 0.7,0.1 1.1,0.1 0.5,0 1,-0.1 1.4,-0.2 0.5,-0.1 1,-0.4 1.4,-0.7 0.5,-0.3 0.9,-0.6 1.4,-1 0.4,-0.4 0.8,-0.9 1.2,-1.4 0.4,-0.5 0.7,-1.1 1,-1.7 0.3,-0.6 0.5,-1.2 0.7,-1.9 0.1,-0.2 0.1,-0.5 0.1,-0.8 0,-0.3 0,-0.5 0,-0.8 0,-0.4 0,-0.8 -0.1,-1.1 -0.1,-0.4 -0.2,-0.7 -0.4,-1 -0.2,-0.3 -0.5,-0.5 -0.8,-0.7 -0.3,-0.2 -0.7,-0.2 -1.2,-0.2 -0.1,0 -0.1,0 -0.2,0.1 0,0.1 -0.1,0.1 -0.1,0.2 0,0.1 -0.1,0.2 -0.1,0.2 0,0.1 -0.1,0.2 -0.2,0.2 -0.1,0.1 -0.2,0.1 -0.3,0.2 -0.1,0 -0.2,0.1 -0.4,0.1 -0.1,0 -0.2,0 -0.3,-0.1 -0.1,-0.1 -0.2,-0.1 -0.3,-0.2 0,0 -0.1,-0.1 -0.1,-0.1 0,0 -0.1,0 -0.1,0 -0.1,0 -0.1,0 -0.2,0.1 -0.1,0.1 -0.2,0.1 -0.3,0.2 -0.1,0.1 -0.2,0.2 -0.3,0.2 -0.1,0.1 -0.2,0.2 -0.2,0.2 -0.5,0.5 -0.9,1 -1.4,1.6 -0.5,0.6 -0.9,1.1 -1.3,1.7 -0.4,0.6 -0.7,1.2 -1,1.8 -0.3,0.8 -0.5,1.4 -0.6,2 z"
       id="path19072" />
    <text
       y="1031.9729"
       x="20.974266"
       style="font-size:12px;letter-spacing:1;fill:#b01b4a;font-family:HelveticaLTStd-BoldObl"
       font-size="12"
       letter-spacing="1"
       id="text19078">Source : Bloomberg 2014</text>
  </g>
</svg>
