<?xml version="1.0" encoding="utf-8"?>
<!-- Generator: Adobe Illustrator 18.1.1, SVG Export Plug-In . SVG Version: 6.00 Build 0)  -->
<svg version="1.1" id="Calque_1" xmlns="http://www.w3.org/2000/svg" xmlns:xlink="http://www.w3.org/1999/xlink" x="0px" y="0px"
	 viewBox="0 0 23.3 23.3" enable-background="new 0 0 23.3 23.3" xml:space="preserve">
<g id="nucléaire_3_">
	<g>
		<path fill="#704897" d="M15.9,9.4C15.9,9.4,15.9,9.4,15.9,9.4C15.9,9.4,15.9,9.3,15.9,9.4l-2.8-0.1c0,0,0,0-0.1,0c0,0,0,0,0,0.1
			c0,1.7-0.1,3.4-0.5,4.9c-0.5-2.2-0.8-4.7-0.8-7.2c0,0,0-0.1,0-0.1c0,0-0.1,0-0.1,0H7.8c0,0-0.1,0-0.1,0c0,0,0,0.1,0,0.1
			c0,2.8-0.3,5.5-0.9,8c0,0,0,0.1,0,0.1c0,0,0.1,0,0.1,0l9.7,0h0c0.1,0,0.1,0,0.1-0.1c0,0,0,0,0,0C16.1,13.4,15.9,11.5,15.9,9.4z"/>
		<path fill="#704897" d="M13.3,9.2C13.3,9.2,13.3,9.2,13.3,9.2C13.3,9.2,13.3,9.2,13.3,9.2C13.2,9.2,13.2,9.2,13.3,9.2
			C13.2,9.2,13.2,9.2,13.3,9.2C13.2,9.2,13.3,9.2,13.3,9.2z"/>
	</g>
	<circle fill="none" stroke="#704897" stroke-width="0.4606" stroke-miterlimit="10" cx="11.7" cy="11.7" r="11.3"/>
</g>
</svg>
