<?xml version="1.0" encoding="utf-8"?>
<!-- Generator: Adobe Illustrator 18.1.1, SVG Export Plug-In . SVG Version: 6.00 Build 0)  -->
<svg version="1.1" id="Calque_1" xmlns="http://www.w3.org/2000/svg" xmlns:xlink="http://www.w3.org/1999/xlink" x="0px" y="0px"
	 viewBox="0 0 23.3 23.3" enable-background="new 0 0 23.3 23.3" xml:space="preserve">
<g>
	<path fill="#EBDE28" d="M11.7,7.4"/>
	<path fill="#E7E13C" d="M14.7,8.2c0.1,0,0.1,0,0.2,0l0,0c0.3,0,0.5-0.2,0.6-0.4l0.3-1c0-0.1,0-0.1-0.1-0.2c-0.1,0-0.1-0.1-0.2,0
		l-0.9,0.5c-0.1,0.1-0.2,0.2-0.3,0.3c0,0.1,0,0.3,0,0.4C14.4,8.1,14.6,8.2,14.7,8.2L14.7,8.2z M14.7,8.2"/>
	<path fill="#E7E13C" d="M17.9,10.4c0-0.1-0.1-0.1-0.1-0.1l-1-0.2c-0.1,0-0.3,0-0.4,0.1c-0.1,0.1-0.2,0.2-0.3,0.4
		c0,0.2,0,0.3,0.1,0.4c0.1,0.2,0.3,0.3,0.5,0.3c0.1,0,0.2,0,0.3-0.1l0.9-0.5C17.8,10.5,17.9,10.5,17.9,10.4L17.9,10.4z M17.9,10.4"
		/>
	<path fill="#E7E13C" d="M16.5,13.6c-0.1-0.1-0.2-0.2-0.4-0.2c0,0-0.1,0-0.1,0c-0.3,0-0.5,0.2-0.6,0.5c0,0.2,0,0.3,0.1,0.4
		c0.1,0.1,0.2,0.2,0.4,0.2l1,0.1c0,0,0,0,0,0c0.1,0,0.1,0,0.1-0.1c0-0.1,0-0.1,0-0.2L16.5,13.6z M16.5,13.6"/>
	<path fill="#E7E13C" d="M13.4,15.6c-0.1,0-0.3,0.1-0.4,0.1c-0.1,0.1-0.2,0.2-0.2,0.4c0,0.2,0,0.3,0.1,0.4l0.7,0.8
		c0,0,0.1,0.1,0.1,0.1c0,0,0,0,0.1,0c0.1,0,0.1-0.1,0.1-0.1l0-1c0-0.2,0-0.3-0.1-0.4C13.7,15.7,13.5,15.6,13.4,15.6L13.4,15.6z
		 M13.4,15.6"/>
	<path fill="#E7E13C" d="M10,15.6C10,15.6,10,15.6,10,15.6c-0.2,0-0.3,0.1-0.4,0.2c-0.1,0.1-0.2,0.3-0.2,0.4l0,1
		c0,0.1,0,0.1,0.1,0.1c0,0,0,0,0.1,0c0,0,0.1,0,0.1-0.1l0.7-0.8c0.1-0.1,0.2-0.3,0.1-0.4C10.5,15.9,10.3,15.6,10,15.6L10,15.6z
		 M10,15.6"/>
	<path fill="#E7E13C" d="M7.7,13.5c-0.1-0.1-0.2-0.1-0.4-0.1c-0.2,0-0.3,0.1-0.5,0.2l-0.6,0.8c0,0.1,0,0.1,0,0.2
		c0,0.1,0.1,0.1,0.1,0.1c0,0,0,0,0,0l1-0.1c0.1,0,0.3-0.1,0.4-0.2C8,14.1,8,13.7,7.7,13.5L7.7,13.5z M7.7,13.5"/>
	<path fill="#E7E13C" d="M6.8,11.2c0,0,0.1,0,0.1,0c0.2,0,0.3-0.1,0.4-0.3c0.1-0.1,0.1-0.3,0.1-0.4C7.3,10.2,7,10,6.8,10
		c0,0-0.1,0-0.1,0l-1,0.2c-0.1,0-0.1,0.1-0.1,0.1c0,0.1,0,0.1,0.1,0.2l0.9,0.5C6.5,11.2,6.6,11.2,6.8,11.2L6.8,11.2z M6.8,11.2"/>
	<path fill="#E7E13C" d="M7.9,7.8C8,8,8.1,8.1,8.2,8.2c0.1,0,0.2,0.1,0.3,0.1c0.2,0,0.4-0.1,0.5-0.3C9,7.8,9.1,7.6,9,7.5
		c0-0.1-0.1-0.3-0.3-0.3L7.8,6.7c-0.1,0-0.1,0-0.2,0c-0.1,0-0.1,0.1-0.1,0.2L7.9,7.8z M7.9,7.8"/>
	<path fill="#E7E13C" d="M11.7,7.1L11.7,7.1c0.1,0,0.1,0,0.2,0C12,7,12.1,6.9,12.2,6.7c0.1-0.1,0.1-0.3,0-0.4l-0.4-1
		c0-0.1-0.1-0.1-0.2-0.1c-0.1,0-0.1,0-0.2,0.1l-0.4,1c-0.1,0.1-0.1,0.3,0,0.4C11.2,6.9,11.4,7.1,11.7,7.1L11.7,7.1z M11.7,7.1"/>
	<circle fill="#E7E13C" cx="11.7" cy="11.7" r="2.9"/>
	<circle fill="none" stroke="#E7E13C" stroke-width="0.4496" stroke-miterlimit="10" cx="11.7" cy="11.7" r="11.4"/>
</g>
</svg>
