<?xml version="1.0" encoding="utf-8"?>
<!-- Generator: Adobe Illustrator 18.1.1, SVG Export Plug-In . SVG Version: 6.00 Build 0)  -->
<svg version="1.1" id="Calque_1" xmlns="http://www.w3.org/2000/svg" xmlns:xlink="http://www.w3.org/1999/xlink" x="0px" y="0px"
	 viewBox="0 0 23.3 23.3" enable-background="new 0 0 23.3 23.3" xml:space="preserve">
<g opacity="0.1">
	<path fill="#EBDE28" d="M11.7,7.7"/>
	<path fill="#E7E13C" d="M14.7,8.6c0.1,0,0.1,0,0.2,0l0,0c0.3,0,0.5-0.2,0.6-0.4l0.3-1c0-0.1,0-0.1-0.1-0.2c-0.1,0-0.1-0.1-0.2,0
		l-0.9,0.5c-0.1,0.1-0.2,0.2-0.3,0.3c0,0.1,0,0.3,0,0.4C14.4,8.4,14.6,8.5,14.7,8.6L14.7,8.6z M14.7,8.6"/>
	<path fill="#E7E13C" d="M17.9,10.8c0-0.1-0.1-0.1-0.1-0.1l-1-0.2c-0.1,0-0.3,0-0.4,0.1c-0.1,0.1-0.2,0.2-0.3,0.4
		c0,0.2,0,0.3,0.1,0.4c0.1,0.2,0.3,0.3,0.5,0.3c0.1,0,0.2,0,0.3-0.1l0.9-0.5C17.8,10.9,17.9,10.8,17.9,10.8L17.9,10.8z M17.9,10.8"
		/>
	<path fill="#E7E13C" d="M16.5,14c-0.1-0.1-0.2-0.2-0.4-0.2c0,0-0.1,0-0.1,0c-0.3,0-0.5,0.2-0.6,0.5c0,0.2,0,0.3,0.1,0.4
		c0.1,0.1,0.2,0.2,0.4,0.2l1,0.1c0,0,0,0,0,0c0.1,0,0.1,0,0.1-0.1c0-0.1,0-0.1,0-0.2L16.5,14z M16.5,14"/>
	<path fill="#E7E13C" d="M13.4,16c-0.1,0-0.3,0.1-0.4,0.1c-0.1,0.1-0.2,0.2-0.2,0.4c0,0.2,0,0.3,0.1,0.4l0.7,0.8
		c0,0,0.1,0.1,0.1,0.1c0,0,0,0,0.1,0c0.1,0,0.1-0.1,0.1-0.1l0-1c0-0.2,0-0.3-0.1-0.4C13.7,16,13.5,16,13.4,16L13.4,16z M13.4,16"/>
	<path fill="#E7E13C" d="M10,16C10,16,10,16,10,16c-0.2,0-0.3,0.1-0.4,0.2c-0.1,0.1-0.2,0.3-0.2,0.4l0,1c0,0.1,0,0.1,0.1,0.1
		c0,0,0,0,0.1,0c0,0,0.1,0,0.1-0.1l0.7-0.8c0.1-0.1,0.2-0.3,0.1-0.4C10.5,16.2,10.3,16,10,16L10,16z M10,16"/>
	<path fill="#E7E13C" d="M7.7,13.9c-0.1-0.1-0.2-0.1-0.4-0.1c-0.2,0-0.3,0.1-0.5,0.2l-0.6,0.8c0,0.1,0,0.1,0,0.2
		c0,0.1,0.1,0.1,0.1,0.1c0,0,0,0,0,0l1-0.1c0.1,0,0.3-0.1,0.4-0.2C8,14.5,8,14.1,7.7,13.9L7.7,13.9z M7.7,13.9"/>
	<path fill="#E7E13C" d="M6.8,11.6c0,0,0.1,0,0.1,0c0.2,0,0.3-0.1,0.4-0.3c0.1-0.1,0.1-0.3,0.1-0.4c-0.1-0.3-0.3-0.5-0.6-0.5
		c0,0-0.1,0-0.1,0l-1,0.2c-0.1,0-0.1,0.1-0.1,0.1c0,0.1,0,0.1,0.1,0.2l0.9,0.5C6.5,11.5,6.6,11.6,6.8,11.6L6.8,11.6z M6.8,11.6"/>
	<path fill="#E7E13C" d="M7.9,8.2c0,0.1,0.1,0.3,0.3,0.3c0.1,0,0.2,0.1,0.3,0.1c0.2,0,0.4-0.1,0.5-0.3C9,8.2,9.1,8,9,7.9
		c0-0.1-0.1-0.3-0.3-0.3L7.8,7C7.8,7,7.7,7,7.6,7c-0.1,0-0.1,0.1-0.1,0.2L7.9,8.2z M7.9,8.2"/>
	<path fill="#E7E13C" d="M11.7,7.4L11.7,7.4c0.1,0,0.1,0,0.2,0c0.1-0.1,0.3-0.2,0.3-0.3c0.1-0.1,0.1-0.3,0-0.4l-0.4-1
		c0-0.1-0.1-0.1-0.2-0.1c-0.1,0-0.1,0-0.2,0.1l-0.4,1c-0.1,0.1-0.1,0.3,0,0.4C11.2,7.3,11.4,7.4,11.7,7.4L11.7,7.4z M11.7,7.4"/>
	<circle fill="#E7E13C" cx="11.7" cy="12" r="2.9"/>
	<circle fill="none" stroke="#E7E13C" stroke-width="0.4496" stroke-miterlimit="10" cx="11.7" cy="11.7" r="11.4"/>
</g>
</svg>
