<?xml version="1.0" encoding="utf-8"?>
<!-- Generator: Adobe Illustrator 16.0.0, SVG Export Plug-In . SVG Version: 6.00 Build 0)  -->
<!DOCTYPE svg PUBLIC "-//W3C//DTD SVG 1.1//EN" "http://www.w3.org/Graphics/SVG/1.1/DTD/svg11.dtd">
<svg version="1.1" xmlns="http://www.w3.org/2000/svg" xmlns:xlink="http://www.w3.org/1999/xlink" x="0px" y="0px" width="52.15px"
	 height="50.988px" viewBox="0 0 52.15 50.988" enable-background="new 0 0 52.15 50.988" xml:space="preserve">
<g id="Calque_8">
</g>
<g id="Calque_5">
</g>
<g id="Calque_9" display="none">
</g>
<g id="Calque_7">
	<g>
		<path fill="#FEFDFD" d="M26.063,50.988c8.105,0,16.209-0.008,24.313,0.011c0.959,0.003,1.782-0.681,1.781-1.782
			C52.148,33.398,52.15,17.58,52.15,1.762C52.15,0.674,51.479,0,50.392,0C34.174,0,17.956,0,1.738,0C0.66,0,0,0.664,0,1.746
			C-0.001,17.574-0.001,33.4,0,49.229c0,0.177-0.001,0.354,0.043,0.528c0.201,0.77,0.826,1.231,1.68,1.231
			C9.836,50.988,17.949,50.988,26.063,50.988z"/>
		<path fill-rule="evenodd" clip-rule="evenodd" fill="#E62415" d="M26.063,50.988c-8.113,0-16.227,0-24.34,0
			c-0.854,0-1.479-0.462-1.68-1.231C-0.001,49.582,0,49.405,0,49.229C-0.001,33.4-0.001,17.574,0,1.746C0,0.664,0.66,0,1.738,0
			c16.218,0,32.436,0,48.653,0c1.087,0,1.759,0.674,1.759,1.762c0,15.818-0.002,31.637,0.006,47.455
			c0.001,1.102-0.822,1.785-1.781,1.782C42.271,50.98,34.168,50.988,26.063,50.988z M21.635,28.805
			c-0.9,0.061-1.73,0.126-2.557,0.226c-1.553,0.187-3.078,0.486-4.535,1.071c-1.65,0.664-3.1,1.596-4.119,3.104
			c-1.68,2.482-1.313,5.484,0.932,7.464c1.432,1.262,3.164,1.85,5.008,2.155c1.593,0.264,3.195,0.279,4.801,0.117
			c1.971-0.197,3.85-0.69,5.582-1.67c1.67-0.943,3.029-2.208,3.809-3.987c1.001-2.282,0.932-4.519-0.502-6.622
			c-0.754-1.105-1.791-1.938-2.813-2.779c-0.683-0.564-1.436-1.045-2.063-1.676c-0.74-0.746-0.844-1.761-0.281-2.652
			c0.19-0.303,0.43-0.564,0.68-0.816c0.492-0.502,1.072-0.9,1.596-1.367c2.281-2.041,2.948-4.557,2.181-7.471
			c-0.421-1.6-1.432-2.828-2.683-3.871c-0.07-0.059-0.138-0.121-0.248-0.219c0.914,0,1.764-0.003,2.614,0.002
			c0.147,0,0.271-0.033,0.397-0.113c0.844-0.537,1.693-1.066,2.539-1.602c0.059-0.037,0.145-0.055,0.158-0.148
			c-3.127,0-6.242-0.027-9.357,0.01c-1.919,0.023-3.783,0.397-5.563,1.149c-2.107,0.892-3.785,2.266-4.762,4.374
			c-1.186,2.557-1.107,5.073,0.517,7.418c1.585,2.288,3.895,3.157,6.608,3.092c0.366-0.008,0.73-0.044,1.135-0.069
			C19.782,25.783,20.35,27.34,21.635,28.805z M41.178,24.934c0.701,0,1.403-0.005,2.104,0.004c0.161,0.002,0.212-0.037,0.21-0.205
			c-0.011-0.612-0.014-1.225,0-1.838c0.004-0.195-0.041-0.255-0.247-0.253c-1.358,0.01-2.716-0.001-4.074,0.011
			c-0.221,0.002-0.278-0.053-0.276-0.275c0.012-1.357,0.002-2.717,0.01-4.074c0.001-0.186-0.047-0.241-0.235-0.237
			c-0.585,0.013-1.173,0.013-1.757,0c-0.205-0.005-0.271,0.044-0.27,0.261c0.011,1.35,0,2.698,0.011,4.048
			c0.002,0.222-0.058,0.279-0.278,0.278c-1.35-0.011-2.697-0.002-4.047-0.01c-0.189-0.002-0.262,0.032-0.256,0.242
			c0.016,0.604,0.016,1.207,0,1.811c-0.006,0.209,0.063,0.244,0.252,0.243c1.35-0.009,2.699,0.001,4.049-0.01
			c0.217-0.001,0.282,0.05,0.28,0.275c-0.011,1.349-0.001,2.698-0.011,4.048c-0.002,0.223,0.037,0.311,0.285,0.301
			c0.568-0.021,1.137-0.02,1.705-0.002c0.229,0.008,0.273-0.068,0.271-0.282c-0.01-1.367-0.001-2.733-0.008-4.101
			c-0.002-0.183,0.04-0.242,0.23-0.238C39.811,24.941,40.494,24.934,41.178,24.934z"/>
		<path fill-rule="evenodd" clip-rule="evenodd" fill="#FEFDFD" d="M21.635,28.805c-1.285-1.465-1.853-3.021-0.926-4.882
			c-0.404,0.025-0.769,0.062-1.135,0.069c-2.714,0.065-5.023-0.804-6.608-3.092c-1.624-2.345-1.702-4.861-0.517-7.418
			c0.977-2.108,2.654-3.482,4.762-4.374c1.779-0.752,3.644-1.126,5.563-1.149c3.115-0.037,6.23-0.01,9.357-0.01
			c-0.014,0.094-0.1,0.111-0.158,0.148c-0.846,0.535-1.695,1.064-2.539,1.602c-0.126,0.08-0.25,0.113-0.397,0.113
			c-0.851-0.005-1.7-0.002-2.614-0.002c0.11,0.098,0.178,0.16,0.248,0.219c1.251,1.043,2.262,2.271,2.683,3.871
			c0.768,2.914,0.101,5.43-2.181,7.471c-0.523,0.467-1.104,0.865-1.596,1.367c-0.25,0.252-0.489,0.514-0.68,0.816
			c-0.563,0.892-0.459,1.906,0.281,2.652c0.627,0.631,1.38,1.111,2.063,1.676c1.021,0.842,2.059,1.674,2.813,2.779
			c1.434,2.104,1.503,4.34,0.502,6.622c-0.779,1.779-2.139,3.044-3.809,3.987c-1.732,0.979-3.611,1.473-5.582,1.67
			c-1.605,0.162-3.208,0.146-4.801-0.117c-1.844-0.306-3.576-0.894-5.008-2.155c-2.244-1.979-2.611-4.981-0.932-7.464
			c1.02-1.508,2.469-2.439,4.119-3.104c1.457-0.585,2.982-0.885,4.535-1.071C19.904,28.931,20.734,28.865,21.635,28.805z
			 M21.428,41.129c1.457-0.015,2.902-0.213,4.241-0.918c1.911-1.007,2.843-2.998,2.362-5.07c-0.219-0.943-0.783-1.676-1.459-2.334
			c-0.932-0.906-2-1.643-3.039-2.414c-0.289-0.215-0.582-0.297-0.933-0.301c-1.023-0.012-2.04,0.072-3.05,0.222
			c-1.26,0.187-2.48,0.501-3.605,1.124c-2.479,1.373-2.979,3.75-2.238,5.76c0.506,1.374,1.539,2.271,2.818,2.906
			C18.059,40.865,19.705,41.109,21.428,41.129z M25.635,17.849c-0.01-0.895-0.199-1.993-0.539-3.062
			c-0.48-1.505-1.164-2.899-2.369-3.968c-1.188-1.054-2.556-1.423-4.096-0.927c-1.557,0.504-2.469,1.596-2.801,3.184
			c-0.277,1.33-0.15,2.647,0.168,3.951c0.374,1.534,0.975,2.963,2.061,4.141c1.109,1.205,2.471,1.787,4.109,1.463
			c1.431-0.283,2.56-1.021,3.127-2.439C25.564,19.516,25.639,18.803,25.635,17.849z"/>
		<path fill-rule="evenodd" clip-rule="evenodd" fill="#FEFDFD" d="M41.178,24.934c-0.684,0-1.367,0.008-2.051-0.004
			c-0.19-0.004-0.232,0.056-0.23,0.238c0.007,1.367-0.002,2.733,0.008,4.101c0.002,0.214-0.043,0.29-0.271,0.282
			c-0.568-0.018-1.137-0.02-1.705,0.002c-0.248,0.01-0.287-0.078-0.285-0.301c0.01-1.35,0-2.699,0.011-4.048
			c0.002-0.226-0.063-0.276-0.28-0.275c-1.35,0.011-2.699,0.001-4.049,0.01c-0.189,0.001-0.258-0.034-0.252-0.243
			c0.016-0.604,0.016-1.207,0-1.811c-0.006-0.21,0.066-0.244,0.256-0.242c1.35,0.008,2.697-0.001,4.047,0.01
			c0.221,0.001,0.28-0.057,0.278-0.278c-0.011-1.35,0-2.698-0.011-4.048c-0.002-0.217,0.064-0.266,0.27-0.261
			c0.584,0.013,1.172,0.013,1.757,0c0.188-0.004,0.236,0.052,0.235,0.237c-0.008,1.357,0.002,2.717-0.01,4.074
			c-0.002,0.223,0.056,0.277,0.276,0.275c1.358-0.012,2.716-0.001,4.074-0.011c0.206-0.002,0.251,0.058,0.247,0.253
			c-0.014,0.613-0.011,1.226,0,1.838c0.002,0.168-0.049,0.207-0.21,0.205C42.581,24.929,41.879,24.934,41.178,24.934z"/>
		<path fill-rule="evenodd" clip-rule="evenodd" fill="#E62415" d="M21.428,41.129c-1.723-0.02-3.369-0.264-4.902-1.025
			c-1.279-0.635-2.313-1.532-2.818-2.906c-0.74-2.01-0.24-4.387,2.238-5.76c1.125-0.623,2.346-0.938,3.605-1.124
			c1.01-0.149,2.026-0.233,3.05-0.222c0.351,0.004,0.644,0.086,0.933,0.301c1.039,0.771,2.107,1.508,3.039,2.414
			c0.676,0.658,1.24,1.391,1.459,2.334c0.48,2.072-0.451,4.063-2.362,5.07C24.33,40.916,22.885,41.114,21.428,41.129z"/>
		<path fill-rule="evenodd" clip-rule="evenodd" fill="#E62415" d="M25.635,17.849c0.004,0.954-0.07,1.667-0.34,2.343
			c-0.567,1.418-1.696,2.156-3.127,2.439c-1.639,0.324-3-0.258-4.109-1.463c-1.086-1.178-1.687-2.606-2.061-4.141
			c-0.318-1.304-0.445-2.621-0.168-3.951c0.332-1.588,1.244-2.68,2.801-3.184c1.54-0.496,2.908-0.127,4.096,0.927
			c1.205,1.068,1.889,2.463,2.369,3.968C25.436,15.855,25.625,16.954,25.635,17.849z"/>
	</g>
</g>
<g id="Calque_6">
</g>
</svg>
