<?xml version="1.0" encoding="utf-8"?>
<!-- Generator: Adobe Illustrator 16.0.0, SVG Export Plug-In . SVG Version: 6.00 Build 0)  -->
<!DOCTYPE svg PUBLIC "-//W3C//DTD SVG 1.1//EN" "http://www.w3.org/Graphics/SVG/1.1/DTD/svg11.dtd">
<svg version="1.1" xmlns="http://www.w3.org/2000/svg" xmlns:xlink="http://www.w3.org/1999/xlink" x="0px" y="0px"
	 width="65.502px" height="44px" viewBox="0 0 65.502 44" enable-background="new 0 0 65.502 44" xml:space="preserve">
<g id="Calque_8">
</g>
<g id="Calque_5">
</g>
<g id="Calque_9" display="none">
</g>
<g id="Calque_7">
	<path fill="#D6D6D6" stroke="#686868" stroke-miterlimit="10" d="M42.687,12.958c0,4.438-3.597,8.035-8.035,8.035h-3.743
		c-4.438,0-8.035-3.598-8.035-8.035V9.087c0-4.438,3.597-8.035,8.035-8.035h3.743c4.438,0,8.035,3.597,8.035,8.035V12.958z"/>
	<path fill="#D6D6D6" stroke="#686868" stroke-miterlimit="10" d="M42.687,34.899c0,4.438-3.597,8.035-8.035,8.035h-3.743
		c-4.438,0-8.035-3.598-8.035-8.035v-3.871c0-4.438,3.597-8.035,8.035-8.035h3.743c4.438,0,8.035,3.597,8.035,8.035V34.899z"/>
	<path fill="#D6D6D6" stroke="#686868" stroke-miterlimit="10" d="M20.874,34.899c0,4.438-3.598,8.035-8.036,8.035H9.095
		c-4.438,0-8.036-3.598-8.036-8.035v-3.871c0-4.438,3.598-8.035,8.036-8.035h3.743c4.438,0,8.036,3.597,8.036,8.035V34.899z"/>
	<path fill="#D6D6D6" stroke="#686868" stroke-miterlimit="10" d="M64.501,34.899c0,4.438-3.598,8.035-8.037,8.035h-3.743
		c-4.437,0-8.035-3.598-8.035-8.035v-3.871c0-4.438,3.598-8.035,8.035-8.035h3.743c4.438,0,8.037,3.597,8.037,8.035V34.899z"/>
	<line fill="none" stroke="#686868" stroke-miterlimit="10" x1="32.78" y1="6.74" x2="32.78" y2="16.486"/>
	<path opacity="0.7" fill="#FFFFFF" stroke="#231F20" stroke-miterlimit="10" d="M28.119,15.803"/>
	<polyline fill="none" stroke="#686868" stroke-miterlimit="10" points="28.246,11.343 32.849,6.74 37.314,11.106 	"/>
	<line fill="none" stroke="#686868" stroke-miterlimit="10" x1="32.782" y1="37.837" x2="32.782" y2="28.091"/>
	<polyline fill="none" stroke="#686868" stroke-miterlimit="10" points="37.314,33.234 32.712,37.837 28.246,33.471 	"/>
</g>
<g id="Calque_6">
</g>
</svg>
