<?xml version="1.0" encoding="utf-8"?>
<!-- Generator: Adobe Illustrator 16.0.0, SVG Export Plug-In . SVG Version: 6.00 Build 0)  -->
<!DOCTYPE svg PUBLIC "-//W3C//DTD SVG 1.1//EN" "http://www.w3.org/Graphics/SVG/1.1/DTD/svg11.dtd">
<svg version="1.1" id="Calque_1" xmlns="http://www.w3.org/2000/svg" xmlns:xlink="http://www.w3.org/1999/xlink" x="0px" y="0px"
	 width="1030px" height="841.89px" viewBox="0 0 1030 841.89" enable-background="new 0 0 1030 841.89" xml:space="preserve">
<defs>
  <style type="text/css">
    @font-face {
	    font-family: 'Roboto';
	    src: url('../../fonts/roboto/Roboto-Thin.eot');
	    src: url('../../fonts/roboto/Roboto-Thin.eot?#iefix') format('embedded-opentype'),
	         url('../../fonts/roboto/Roboto-Thin.woff') format('woff'),
	         url('../../fonts/roboto/Roboto-Thin.ttf') format('truetype'),
	         url('../../fonts/roboto/Roboto-Thin.svg#Roboto') format('svg');
	}
  </style>
</defs>

<rect x="239.487" y="157.997" fill="none" width="175.063" height="91.51"/>
<text transform="matrix(1 0 0 1 248.5627 173.9917)" fill="#717070" font-family="'Roboto'" letter-spacing="1px" font-size="29">Architecture</text>
<text transform="matrix(1 0 0 1 248.6541 199.1909)" fill="#717070" font-family="'Roboto'" letter-spacing="1px" font-size="29">&amp; ingénierie</text>
<rect x="418.488" y="156.997" fill="none" width="216.062" height="91.51"/>
<text transform="matrix(1 0 0 1 466.1575 172.9917)" fill="#717070" font-family="'Roboto'" letter-spacing="1px" font-size="29">Industrie</text>
<text transform="matrix(1 0 0 1 425.2332 198.1929)" fill="#717070" font-family="'Roboto'" letter-spacing="1px" font-size="27">pharmaceutique</text>
<rect x="829.885" y="158.515" fill="none" width="183.5" height="48.991"/>
<text transform="matrix(1 0 0 1 870.3928 174.5112)" enable-background="new    "><tspan x="0" y="0" fill="#717070" font-family="'Roboto'" letter-spacing="1px" font-size="27">Activités</tspan><tspan x="-7.336" y="27" fill="#717070" font-family="'Roboto'" font-size="27" letter-spacing="1px">juridiques</tspan></text>
<text transform="matrix(1 0 0 1 841.8958 231.7114)" fill="#717070" font-family="'Roboto'" letter-spacing="1px" font-size="27">&amp; comptables</text>
<line fill="none" stroke="#717070" stroke-width="0.5" stroke-miterlimit="10" x1="95.75" y1="227.045" x2="95.75" y2="690"/>
<line fill="none" stroke="#717070" stroke-width="0.5" stroke-miterlimit="10" x1="325.406" y1="217.255" x2="325.406" y2="757.462"/>
<line fill="none" stroke="#717070" stroke-width="0.5" stroke-miterlimit="10" x1="525.334" y1="212.596" x2="525.334" y2="765.087"/>
<line fill="none" x1="921.203" y1="208" x2="921.203" y2="767.38"/>
<rect x="-265.019" y="153.742" fill="none" width="287.25" height="67"/>
<ellipse fill="#64BBAE" cx="325.508" cy="810.544" rx="16.624" ry="5.428"/>
<ellipse fill="#F05F59" cx="525.885" cy="810.591" rx="16" ry="5.414"/>
<polygon fill="#F05F59" points="541.572,778.402 541.572,811.031 509.885,810.994 509.885,778.402 "/>
<ellipse fill="#E05B5A" cx="525.791" cy="778.79" rx="15.904" ry="4.729"/>
<ellipse fill="#F09748" cx="724.961" cy="810.59" rx="14.924" ry="4.983"/>
<polygon fill="#F09748" points="740,780 740,810.152 710,810.117 710,780 "/>
<ellipse fill="#E06C3A" cx="725.053" cy="780.088" rx="15.016" ry="4.573"/>
<ellipse fill="#64BBAE" cx="921.437" cy="810.912" rx="13.948" ry="4.594"/>
<rect x="907.527" y="782.519" fill="#64BBAE" width="27.869" height="28.395"/>
<ellipse fill="#46B2A0" cx="921.442" cy="782.803" rx="13.954" ry="4.214"/>
<rect x="308.884" y="777.367" fill="#64BBAE" width="33.362" height="33.812"/>
<ellipse fill="#46B2A0" cx="325.54" cy="777.346" rx="16.658" ry="4.979"/>
<line fill="none" stroke="#717070" stroke-width="0.5" stroke-miterlimit="10" x1="725.408" y1="212.596" x2="725.408" y2="766.505"/>
<line fill="none" stroke="#717070" stroke-width="0.5" stroke-miterlimit="10" x1="920.399" y1="255.543" x2="920.399" y2="772.504"/>
<rect x="623.33" y="151.309" fill="none" width="201.996" height="96.875"/>
<text transform="matrix(1 0 0 1 616.8586 174.3042)" fill="#717070" font-family="'Roboto'" letter-spacing="1px" font-size="29">Autres industries</text>
<text transform="matrix(1 0 0 1 627.6721 199.5034)" fill="#717070" font-family="'Roboto'" letter-spacing="1px" font-size="27">manufacturières</text>
<g id="Calque_3">
	<ellipse fill="#F09748" cx="96.042" cy="807.99" rx="45.042" ry="14.662"/>
	<polygon fill="#F09748" points="141,718 141,808.871 51,808.763 51,718 	"/>
	<ellipse fill="#E06C3A" cx="96" cy="718.309" rx="45" ry="13.444"/>
</g>
<g id="Calque_1_1_">
	<g>
		<path fill="#D36058" d="M304.102,16.347v117.106h45.346V16.347H304.102z M313.097,110.443h-6.459v-8.955h6.459V110.443z
			 M313.136,94.612h-6.459v-8.96h6.459V94.612z M313.177,78.775h-6.46V69.82h6.46V78.775z M313.215,62.939h-6.459v-8.956h6.459
			V62.939z M313.247,47.108h-6.46v-8.96h6.46V47.108z M313.287,31.272h-6.459v-8.956h6.459V31.272z M323.857,110.443h-6.459v-8.955
			h6.459V110.443z M323.872,94.612h-6.437v-8.96h6.437V94.612z M323.936,78.775h-6.459V69.82h6.459V78.775z M323.97,62.939h-6.454
			v-8.956h6.454V62.939z M324.009,47.108h-6.459v-8.96h6.459V47.108z M324.048,31.272h-6.459v-8.956h6.459V31.272z M334.674,110.443
			h-6.438v-8.955h6.438V110.443z M334.713,94.612h-6.443v-8.96h6.443V94.612z M334.763,78.775h-6.454V69.82h6.454V78.775z
			 M334.803,62.939h-6.454v-8.956h6.454V62.939z M334.848,47.108h-6.465v-8.96h6.465V47.108z M334.881,31.272h-6.459v-8.956h6.459
			V31.272z M345.648,110.443h-6.459v-8.955h6.459V110.443z M345.662,94.612h-6.431v-8.96h6.431V94.612z M345.72,78.775h-6.459V69.82
			h6.459V78.775z M345.76,62.939h-6.455v-8.956h6.455V62.939z M345.799,47.108h-6.46v-8.96h6.46V47.108z M345.838,31.272h-6.459
			v-8.956h6.459V31.272z"/>
		
			<line fill="none" stroke="#D36058" stroke-width="1.4392" stroke-miterlimit="10" x1="309.843" y1="22.215" x2="309.843" y2="114.272"/>
		
			<line fill="none" stroke="#D36058" stroke-width="1.4726" stroke-miterlimit="10" x1="320.546" y1="16.931" x2="320.546" y2="113.311"/>
		
			<line fill="none" stroke="#D36058" stroke-width="1.4392" stroke-miterlimit="10" x1="342.426" y1="18.646" x2="342.426" y2="110.702"/>
		
			<line fill="none" stroke="#D36058" stroke-width="1.4392" stroke-miterlimit="10" x1="331.486" y1="22.215" x2="331.486" y2="114.272"/>
	</g>
	<path fill="#C6C6C6" d="M838.865,86.559L849.1,70.296l10.258,16.263c0.611,0.941,1.856,1.233,2.812,0.639
		c0.952-0.596,1.231-1.87,0.634-2.812l-11.821-18.758h27.913v60.684h-6.627c-3.963,0-7.171,3.209-7.171,7.187h35.721
		c0-3.978-3.208-7.187-7.169-7.187l0,0h-6.611V65.627h27.897l-11.812,18.758c-0.604,0.942-0.312,2.217,0.639,2.812
		c0.335,0.199,0.706,0.303,1.078,0.303c0.674,0,1.338-0.319,1.719-0.941l10.26-16.263l10.248,16.263
		c0.596,0.941,1.855,1.233,2.807,0.639c0.957-0.596,1.233-1.87,0.639-2.812l-11.82-18.758h0.156c1.74,0,3.141-1.4,3.141-3.15
		s-1.398-3.156-3.141-3.156h-23.222c-1.301-1.908-3.233-3.341-5.515-4.029c-0.318-3.67-3.393-6.549-7.145-6.549
		c-3.754,0-6.826,2.879-7.146,6.549c-2.278,0.688-4.219,2.121-5.514,4.029h-23.22c-1.741,0-3.158,1.406-3.158,3.156
		s1.417,3.15,3.158,3.15h0.153L835.42,84.386"/>
	<path fill="#1E1E1C" d="M833.05,90.761c0,8.854,7.194,16.066,16.051,16.066c8.878,0,16.075-7.212,16.075-16.066
		c0-0.611-0.487-1.087-1.087-1.087l0,0h-29.953"/>
	<path fill="#1E1E1C" d="M931.795,89.674h-29.97c-0.585,0-1.087,0.476-1.087,1.087c0,8.854,7.212,16.066,16.077,16.066
		c8.854,0,16.055-7.212,16.055-16.066C932.87,90.149,932.392,89.674,931.795,89.674L931.795,89.674z"/>
	<g>
		<g>
			<path fill="#D36058" d="M988.698,69.155l-42.893,0.132c-1.475,0-2.675,1.207-2.648,2.681l0.186,58.958
				c-0.013,1.484,1.188,2.675,2.675,2.675l42.883-0.136c1.468,0,2.676-1.19,2.664-2.675l-0.188-58.958
				C991.375,70.348,990.185,69.155,988.698,69.155L988.698,69.155z M954.049,128.219h-5.367l-0.011-5.343l5.352-0.01
				L954.049,128.219z M954.012,117.494l-5.355,0.015l-0.024-5.355h5.366L954.012,117.494z M953.971,106.774l-5.354,0.012
				l-0.015-5.342l5.355-0.027L953.971,106.774z M964.763,128.192h-5.357l-0.024-5.357l5.355-0.011L964.763,128.192z
				 M964.736,117.457l-5.372,0.011l-0.012-5.341l5.353-0.026L964.736,117.457z M964.696,106.749l-5.369,0.025v-5.367l5.354-0.017
				L964.696,106.749z M975.471,128.155l-5.341,0.012l-0.017-5.358l5.355-0.025L975.471,128.155L975.471,128.155z M975.444,117.431
				h-5.354l-0.026-5.33l5.367-0.025L975.444,117.431z M975.419,106.706l-5.356,0.026l-0.027-5.367l5.357-0.016L975.419,106.706z
				 M986.195,128.113l-5.372,0.011v-5.341l5.357-0.026L986.195,128.113z M986.162,117.405h-5.365l-0.013-5.33l5.367-0.026
				L986.162,117.405z M986.127,106.665l-5.356,0.026l-0.025-5.367l5.367-0.012L986.127,106.665z M986.073,90.6l-37.514,0.109
				l-0.053-16.066l37.523-0.118L986.073,90.6z"/>
		</g>
		<g>
			<path fill="#D36058" d="M988.698,69.155l-42.893,0.132c-1.475,0-2.675,1.207-2.648,2.681l0.186,58.958
				c-0.013,1.484,1.188,2.675,2.675,2.675l42.883-0.136c1.468,0,2.676-1.19,2.664-2.675l-0.188-58.958
				C991.375,70.348,990.185,69.155,988.698,69.155L988.698,69.155z M954.049,128.219h-5.367l-0.011-5.343l5.352-0.01
				L954.049,128.219z M954.012,117.494l-5.355,0.015l-0.024-5.355h5.366L954.012,117.494z M953.971,106.774l-5.354,0.012
				l-0.015-5.342l5.355-0.027L953.971,106.774z M964.763,128.192h-5.357l-0.024-5.357l5.355-0.011L964.763,128.192z
				 M964.736,117.457l-5.372,0.011l-0.012-5.341l5.353-0.026L964.736,117.457z M964.696,106.749l-5.369,0.025v-5.367l5.354-0.017
				L964.696,106.749z M975.471,128.155l-5.341,0.012l-0.017-5.358l5.355-0.025L975.471,128.155L975.471,128.155z M975.444,117.431
				h-5.354l-0.026-5.33l5.367-0.025L975.444,117.431z M975.419,106.706l-5.356,0.026l-0.027-5.367l5.357-0.016L975.419,106.706z
				 M986.195,128.113l-5.372,0.011v-5.341l5.357-0.026L986.195,128.113z M986.162,117.405h-5.365l-0.013-5.33l5.367-0.026
				L986.162,117.405z M986.127,106.665l-5.356,0.026l-0.025-5.367l5.367-0.012L986.127,106.665z M986.073,90.6l-37.514,0.109
				l-0.053-16.066l37.523-0.118L986.073,90.6z"/>
		</g>
	</g>
	<rect x="18.025" y="158.202" fill="none" width="155.161" height="67.296"/>
	<text transform="matrix(1 0 0 1 66.6653 174.1968)" enable-background="new    "><tspan x="0" y="0" fill="#717070" font-family="'Roboto'" letter-spacing="1px" font-size="29">R&amp;D</tspan><tspan x="-44.888" y="34.8" fill="#717070" font-family="'Roboto'" letter-spacing="1px" font-size="29">scientifique</tspan></text>
	<g>
		<g>
			<g>
				<path fill="none" stroke="#FFFFFF" stroke-width="20.6427" stroke-miterlimit="10" d="M146.395,119.41"/>
			</g>
			<g>
				<rect x="146" y="54" fill="#6DA5AA" width="23" height="71"/>
			</g>
			<g>
				<ellipse fill="#6DA5AA" cx="158.295" cy="122.658" rx="10.459" ry="8.11"/>
			</g>
			<g>
				<path fill="#C6C6C6" d="M158.374,134.169c-8.526,0-15.459-9.169-15.459-16.169h5.621c0,7,4.413,10.294,9.838,10.294
					c5.422,0,9.835-3.294,9.835-10.294h5.623C173.831,125,166.897,134.169,158.374,134.169z"/>
			</g>
		</g>
		<polyline fill="none" stroke="#C6C6C6" stroke-width="5.7632" stroke-miterlimit="10" points="145.674,119.05 145.674,25.68 
			170.86,25.68 170.86,120.279 		"/>
		<path fill="#C6C6C6" d="M178.785,22.077c0,3.383-3.182,6.124-7.104,6.124h-27.579c-3.923,0-7.102-2.741-7.102-6.124l0,0
			c0-3.381,3.179-6.123,7.102-6.123h27.579C175.604,15.954,178.785,18.696,178.785,22.077L178.785,22.077z"/>
		<g>
			<rect x="84" y="54" fill="#D45F58" width="21" height="71"/>
		</g>
		<g>
			<ellipse fill="#D45F58" cx="94.901" cy="122.658" rx="10.46" ry="8.11"/>
		</g>
		<g>
			<path fill="#C6C6C6" d="M94.979,134.169c-8.524,0-15.46-9.169-15.46-16.169h5.623c0,7,4.413,10.294,9.838,10.294
				c5.422,0,9.835-3.294,9.835-10.294h5.623C110.437,125,103.503,134.169,94.979,134.169z"/>
		</g>
		<polyline fill="none" stroke="#C6C6C6" stroke-width="5.7632" stroke-miterlimit="10" points="82.278,119.05 82.278,25.68 
			107.464,25.68 107.464,120.279 		"/>
		<path fill="#C6C6C6" d="M115.389,22.077c0,3.383-3.18,6.124-7.103,6.124H80.708c-3.921,0-7.104-2.741-7.104-6.124l0,0
			c0-3.381,3.184-6.123,7.104-6.123h27.578C112.209,15.954,115.389,18.696,115.389,22.077L115.389,22.077z"/>
		<g>
			<g>
				<rect x="19" y="54" fill="#8ECDD4" width="24" height="71"/>
			</g>
			<g>
				<rect x="19" y="54" fill="#8DCCD4" width="24" height="71"/>
			</g>
		</g>
		<g>
			<g>
				<path fill="#8ECDD4" d="M41.965,122.658c0,4.479-4.683,8.11-10.46,8.11c-5.773,0-10.46-3.63-10.46-8.11
					c0-4.48,4.687-8.116,10.46-8.116C37.283,114.542,41.965,118.177,41.965,122.658z"/>
			</g>
			<g>
				<path fill="#8DCCD4" d="M41.965,122.658c0,4.479-4.683,8.11-10.46,8.11c-5.773,0-10.46-3.63-10.46-8.11
					c0-4.48,4.687-8.116,10.46-8.116C37.283,114.542,41.965,118.177,41.965,122.658z"/>
			</g>
		</g>
		<g>
			<path fill="#C6C6C6" d="M31.584,134.169c-8.526,0-15.46-9.169-15.46-16.169h5.623c0,7,4.413,10.294,9.838,10.294
				c5.422,0,9.835-3.294,9.835-10.294h5.623C47.042,125,40.107,134.169,31.584,134.169z"/>
		</g>
		<polyline fill="none" stroke="#C6C6C6" stroke-width="5.7632" stroke-miterlimit="10" points="18.884,119.05 18.884,25.68 
			44.07,25.68 44.07,119.265 		"/>
		<path fill="#C6C6C6" d="M51.994,22.077c0,3.383-3.181,6.124-7.104,6.124H17.313c-3.921,0-7.102-2.741-7.102-6.124l0,0
			c0-3.381,3.18-6.123,7.102-6.123h27.579C48.815,15.954,51.994,18.696,51.994,22.077L51.994,22.077z"/>
	</g>
	<g>
		<g>
			<g>
				<path fill="#8ECDD4" d="M513,114h17v0.226c0,0.007,1.465,0.014,1.578,0.014c9.635,0,18.068-7.812,18.068-17.445
					s-8.751-17.447-18.391-17.447c-0.109,0-1.26,0.012-1.26,0.012V77h-17"/>
				<path fill="#F5F5F5" d="M513,77h-19v0.365c-12,0.175-17.118,9.907-17.118,19.431c0,9.526,5.118,17.251,17.118,17.431V114h19"/>
			</g>
		</g>
	</g>
	<g>
		<g>
			<g>
				<path fill="#8ECDD4" d="M554.549,53.95l-16.797-15.444l-0.343,0.371c-0.077-0.078-0.149-0.156-0.232-0.239
					c-7.088-6.513-18.133-6.052-24.65,1.043c-6.528,7.091-6.06,18.126,1.035,24.654c0.078,0.078,0.168,0.13,0.254,0.208
					l-0.336,0.362l16.799,15.444"/>
				<path fill="#F5F5F5" d="M530.278,80.349l14.403,13.245l0.336-0.367c7.106,6.293,17.951,5.766,24.4-1.247
					c6.447-7.012,6.052-17.868-0.807-24.419l0.344-0.371l-14.406-13.24"/>
			</g>
		</g>
	</g>
	<g>
		<g>
			<path fill="#8DCCD4" d="M763.014,80.485l-1.904-46.714h-9.671l-2.276,46.714h-6.017l0.021-9.094l-15.642,8.4l0.019-8.933
				l-15.908,8.447v-7.914l-15.62,8.4v-8.933l-19.954,10.567v52.017h52.22v-14.363h27.131v14.363h11.812V80.485H763.014z
				 M697.309,97.527h-13.748V88.55h13.748V97.527z M717.469,97.527h-13.748V88.55h13.748V97.527z M737.621,97.527h-13.742V88.55
				h13.742V97.527z M757.795,97.527h-13.746V88.55h13.746V97.527z"/>
			<g>
				<g>
					<g>
						<defs>
							<rect id="SVGID_1_" x="681.763" y="-0.486" width="92.383" height="137.311"/>
						</defs>
						<clipPath id="SVGID_2_">
							<use xlink:href="#SVGID_1_"  overflow="visible"/>
						</clipPath>
						<path clip-path="url(#SVGID_2_)" fill="#8DCCD4" d="M731.893,13.464"/>
					</g>
				</g>
				<g>
					<g>
						<defs>
							<rect id="SVGID_3_" x="681.763" y="-0.486" width="92.383" height="137.311"/>
						</defs>
						<clipPath id="SVGID_4_">
							<use xlink:href="#SVGID_3_"  overflow="visible"/>
						</clipPath>
						<path clip-path="url(#SVGID_4_)" fill="#8DCCD4" d="M701.932,10.665"/>
					</g>
				</g>
			</g>
		</g>
		<g>
			<path fill="#8DCCD4" d="M763.014,80.485l-1.904-46.714h-9.671l-2.276,46.714h-6.017l0.021-9.094l-15.642,8.4l0.019-8.933
				l-15.908,8.447v-7.914l-15.62,8.4v-8.933l-19.954,10.567v52.017h52.22v-14.363h27.131v14.363h11.812V80.485H763.014z
				 M697.309,97.527h-13.748V88.55h13.748V97.527z M717.469,97.527h-13.748V88.55h13.748V97.527z M737.621,97.527h-13.742V88.55
				h13.742V97.527z M757.795,97.527h-13.746V88.55h13.746V97.527z"/>
			<g>
				<g>
					<g>
						<defs>
							<rect id="SVGID_5_" x="681.763" y="-0.486" width="92.383" height="137.311"/>
						</defs>
						<clipPath id="SVGID_6_">
							<use xlink:href="#SVGID_5_"  overflow="visible"/>
						</clipPath>
						<path clip-path="url(#SVGID_6_)" fill="#010101" d="M731.893,13.464"/>
					</g>
				</g>
				<g>
					<g>
						<defs>
							<rect id="SVGID_7_" x="681.763" y="-0.486" width="92.383" height="137.311"/>
						</defs>
						<clipPath id="SVGID_8_">
							<use xlink:href="#SVGID_7_"  overflow="visible"/>
						</clipPath>
						<path clip-path="url(#SVGID_8_)" fill="#010101" d="M701.932,10.665"/>
					</g>
				</g>
			</g>
		</g>
	</g>
</g>
</svg>
