<?xml version="1.0" encoding="utf-8"?>
<!-- Generator: Adobe Illustrator 16.0.0, SVG Export Plug-In . SVG Version: 6.00 Build 0)  -->
<!DOCTYPE svg PUBLIC "-//W3C//DTD SVG 1.1//EN" "http://www.w3.org/Graphics/SVG/1.1/DTD/svg11.dtd">
<svg version="1.1" id="Calque_1" xmlns="http://www.w3.org/2000/svg" xmlns:xlink="http://www.w3.org/1999/xlink" x="0px" y="0px"
	 width="616.258px" height="300px" viewBox="0 0 616.258 300" enable-background="new 0 0 616.258 300" xml:space="preserve">
<polygon fill="#6BBBAE" points="66.303,52.818 66.303,281.932 10.303,281.669 10.303,52.818 "/>
<ellipse fill="#50B29F" cx="38.096" cy="53.093" rx="28.125" ry="12.44"/>
<ellipse fill="#6BBBAE" cx="38.096" cy="282.045" rx="28.125" ry="12.439"/>
<ellipse fill="#F28B32" cx="38.096" cy="41.237" rx="28.125" ry="12.44"/>
<polygon fill="#F28B32" points="66.303,21.818 66.303,41.26 10.303,41.237 10.303,21.818 "/>
<ellipse fill="#DC6E2D" cx="38.096" cy="22.285" rx="28.125" ry="12.44"/>
<line opacity="0.7" fill="none" stroke="#000000" stroke-width="0.5" stroke-miterlimit="10" enable-background="new    " x1="82.272" y1="84.677" x2="161.704" y2="84.677"/>
<text transform="matrix(1 0 0 1 179.7039 84.6768)" opacity="0.7" enable-background="new    " font-family="'Roboto'" letter-spacing="1px" font-size="21">Nombre de brevets déposés  : 0</text>
<line opacity="0.7" fill="none" stroke="#000000" stroke-width="0.5" stroke-miterlimit="10" enable-background="new    " x1="82.274" y1="33.677" x2="161.704" y2="33.677"/>
<text transform="matrix(1 0 0 1 179.7039 33.6768)" opacity="0.7" enable-background="new    "><tspan x="0" y="0" font-family="'Roboto'" letter-spacing="1px" font-size="21">Autres titres de propriété intellectuelle déposés</tspan><tspan x="0" y="25.2" font-family="'Roboto-Light'" font-size="21">(ex : modèles, marques, dessins) : 48</tspan></text>
</svg>
