<?xml version="1.0" encoding="utf-8"?>
<!-- Generator: Adobe Illustrator 16.0.0, SVG Export Plug-In . SVG Version: 6.00 Build 0)  -->
<!DOCTYPE svg PUBLIC "-//W3C//DTD SVG 1.1//EN" "http://www.w3.org/Graphics/SVG/1.1/DTD/svg11.dtd">
<svg version="1.1" id="Calque_1" xmlns="http://www.w3.org/2000/svg" xmlns:xlink="http://www.w3.org/1999/xlink" x="0px" y="0px"
	 width="911px" height="251px" viewBox="29.5 156.5 911 251" enable-background="new 29.5 156.5 911 251" xml:space="preserve">
<rect x="478.111" y="161.957" fill="#CF6155" width="16.178" height="40.745"/>
<path fill="#CF6155" d="M428.123,161.957c-3.791,0-6.854,3.066-6.854,6.847v33.898h13.672v-40.745H428.123z"/>
<rect x="498.858" y="161.957" fill="#CF6155" width="16.261" height="40.745"/>
<rect x="439.504" y="161.957" fill="#CF6155" width="14.839" height="40.745"/>
<rect x="458.909" y="161.957" fill="#CF6155" width="14.633" height="40.745"/>
<rect x="519.685" y="161.957" fill="#CF6155" width="16.267" height="40.745"/>
<path fill="#CF6155" d="M559.895,168.804c0-3.781-3.071-6.847-6.854-6.847h-12.528v40.745h19.384v-33.898H559.895z"/>
<g>
	<path fill="#FFFFFF" d="M153.124,194.958c0,4.838-3.917,8.76-8.763,8.76c-4.837,0-8.763-3.922-8.763-8.76
		c0-4.841,3.926-8.767,8.763-8.767C149.207,186.192,153.124,190.118,153.124,194.958z"/>
</g>
<g>
	<path fill="#FFFFFF" d="M205.71,194.958c0,4.838-3.921,8.76-8.767,8.76c-4.838,0-8.759-3.922-8.759-8.76
		c0-4.841,3.921-8.767,8.759-8.767C201.79,186.192,205.71,190.118,205.71,194.958z"/>
</g>
<g>
	<rect x="146" y="186" fill="#FFFFFF" width="51" height="18"/>
</g>
<g>
	<circle fill="#FFFFFF" cx="241.442" cy="194.958" r="8.762"/>
</g>
<g>
	<path fill="#FFFFFF" d="M302.792,194.958c0,4.838-3.925,8.76-8.763,8.76c-4.841,0-8.767-3.922-8.767-8.76
		c0-4.841,3.926-8.767,8.767-8.767C298.867,186.192,302.792,190.118,302.792,194.958z"/>
</g>
<g>
	<rect x="244" y="186" fill="#FFFFFF" width="47" height="18"/>
</g>
<g>
	<path fill="#FFFFFF" d="M430.374,206.125v162.932c0,3.782,3.067,6.846,6.847,6.846h106.723c3.778,0,6.847-3.062,6.847-6.846
		V206.125H430.374z M536.804,305.993c0,3.786-3.062,6.853-6.846,6.853h-78.753c-3.783,0-6.852-3.064-6.852-6.853v-40.515
		c0-3.782,3.067-6.848,6.852-6.848h78.753c3.783,0,6.846,3.066,6.846,6.848V305.993z"/>
	<path fill="#85CAD1" d="M473.542,293.271c-2.318-1.395-4-2.316-4-2.316C470.747,291.967,472.094,292.758,473.542,293.271z"/>
	<path fill="#85CAD1" d="M469.537,290.954L469.537,290.954L469.537,290.954z"/>
	<path fill="#F46F61" d="M503.708,261.417c-6.205,0-11.444,4.898-13.127,11.616c-1.687-6.718-6.921-11.616-13.123-11.616
		c-7.565,0-13.7,7.284-13.7,16.268c0,5.478,2.284,10.318,5.778,13.269l0,0c0,0,1.687,0.923,4.005,2.315
		c4.076,2.451,10.119,6.347,12.47,9.235c1.214,1.491,3.996,6.563,3.996,6.563s4.047-7.475,7.993-9.988
		c2.69-1.721,7.732-4.041,11.051-6.418c4.904-2.473,8.354-8.249,8.354-14.978C517.404,268.701,511.27,261.417,503.708,261.417z
		 M500.913,288.816h-7.189h-0.883v8.517h-5.824v-8.007v-0.51h-8.072v-5.385h8.072v-6.995v-1.075h3.135h0.857h1.832v1.379v6.69h8.072
		V288.816z"/>
	<g>
		
			<image overflow="visible" opacity="0.7" enable-background="new    " width="235" height="124" xlink:href="8DBF59792D8C8BD6.png"  transform="matrix(1 0 0 1 640 277)">
		</image>
		<g>
			<g>
				<path fill="#90CCD5" d="M750,379h60v-1.006c0,0.005,0.479,0.042,0.771,0.042c25.328,0,45.819-20.533,45.819-45.862
					c0-25.333-20.468-45.871-45.796-45.871c-0.293,0-0.796,0.038-0.796,0.042V285h-60"/>
				<path fill="#FFFFFF" d="M750,285h-52v1.35c-25,0.465-45.001,20.784-45.001,45.824c0,25.036,20.001,45.354,45.001,45.82V379h52"
					/>
			</g>
		</g>
	</g>
	<g>
		
			<image overflow="visible" opacity="0.7" enable-background="new    " width="198" height="192" xlink:href="8DBF59792D8C8BDA.png"  transform="matrix(1 0 0 1 733 164)">
		</image>
		<g>
			<g>
				<path fill="#90CCD5" d="M867.792,219.551l-44.164-40.599l-0.895,0.972c-0.209-0.197-0.394-0.415-0.606-0.615
					c-18.651-17.145-47.667-15.923-64.807,2.724c-17.145,18.65-15.927,47.67,2.725,64.811c0.213,0.2,0.447,0.359,0.665,0.557
					l-0.879,0.949l44.164,40.602"/>
				<path fill="#FFFFFF" d="M803.995,288.951l37.854,34.804l0.883-0.958c18.667,16.523,47.192,15.151,64.141-3.285
					c16.944-18.429,15.915-46.967-2.117-64.183l0.893-0.975l-37.854-34.803"/>
			</g>
		</g>
	</g>
	<g>
		<circle fill="#FFFFFF" cx="47.28" cy="194.958" r="8.763"/>
	</g>
	<g>
		<path fill="none" stroke="#FFFFFF" stroke-width="10" stroke-miterlimit="10" d="M53.783,342.907"/>
	</g>
	<g>
		<rect x="56" y="238" fill="#F46F61" width="38" height="112"/>
	</g>
	<g>
		<path fill="#F46F61" d="M88.84,347.996c0,7.025-7.34,12.721-16.399,12.721c-9.051,0-16.398-5.695-16.398-12.721
			s7.348-12.727,16.398-12.727C81.5,335.271,88.84,340.971,88.84,347.996z"/>
	</g>
	<g>
		<path fill="#FFFFFF" d="M108.633,194.958c0,4.838-3.93,8.76-8.767,8.76c-4.837,0-8.767-3.922-8.767-8.76
			c0-4.841,3.93-8.767,8.767-8.767C104.703,186.191,108.633,190.118,108.633,194.958z"/>
	</g>
	<g>
		<rect x="51" y="186" fill="#FFFFFF" width="52" height="18"/>
	</g>
	<g>
		<polygon fill="#FFFFFF" points="99,340 87.987,340 88.84,203.342 55.657,203.069 57.142,340 47,340 47,191 99,191 		"/>
	</g>
	<g>
		<path fill="#FFFFFF" d="M72.567,365.346c-13.365,0-24.241-7.346-24.241-25.346h8.816c0,10,6.918,16.132,15.425,16.132
			c8.499,0,15.42-6.132,15.42-16.132h8.812C96.799,358,85.928,365.346,72.567,365.346z"/>
	</g>
	<g>
		<path fill="none" stroke="#FFFFFF" stroke-width="10" stroke-miterlimit="10" d="M150.864,342.907"/>
	</g>
	<g>
		<rect x="150" y="238" fill="#CF6155" width="43" height="112"/>
	</g>
	<g>
		<path fill="#CF6155" d="M185.921,347.996c0,7.025-7.34,12.721-16.395,12.721c-9.056,0-16.403-5.695-16.403-12.721
			s7.348-12.727,16.403-12.727C178.582,335.271,185.921,340.971,185.921,347.996z"/>
	</g>
	<g>
		<polygon fill="#FFFFFF" points="193,340 184,340 184,199 153.124,199 154.224,340 146,340 146,191 193,191 		"/>
	</g>
	<g>
		<path fill="#FFFFFF" d="M169.644,365.346c-13.361,0-24.232-7.346-24.232-25.346h8.812c0,10,6.917,16.132,15.42,16.132
			S185.064,350,185.064,340h8.816C193.88,358,183.009,365.346,169.644,365.346z"/>
	</g>
	<g>
		<path fill="none" stroke="#FFFFFF" stroke-width="10" stroke-miterlimit="10" d="M247.949,342.907"/>
	</g>
	<g>
		<rect x="248" y="238" fill="#6FA4AA" width="39" height="112"/>
	</g>
	<g>
		<path fill="#6FA4AA" d="M283.002,347.996c0,7.025-7.339,12.721-16.398,12.721c-9.052,0-16.399-5.695-16.399-12.721
			s7.348-12.727,16.399-12.727C275.664,335.271,283.002,340.971,283.002,347.996z"/>
	</g>
	<g>
		<polygon fill="#FFFFFF" points="291,340 283,340 283,199 253,199 253,340 242.493,340 241.442,191 291,191 		"/>
	</g>
	<g>
		<path fill="#FFFFFF" d="M266.725,365.346c-13.361,0-24.232-7.346-24.232-25.346h8.816c0,10,6.913,16.132,15.416,16.132
			S282.149,350,282.149,340h8.813C290.962,358,280.09,365.346,266.725,365.346z"/>
	</g>
</g>
</svg>
