<?xml version="1.0" encoding="utf-8"?>
<!-- Generator: Adobe Illustrator 16.0.0, SVG Export Plug-In . SVG Version: 6.00 Build 0)  -->
<!DOCTYPE svg PUBLIC "-//W3C//DTD SVG 1.1//EN" "http://www.w3.org/Graphics/SVG/1.1/DTD/svg11.dtd">
<svg version="1.1" id="Calque_1" xmlns="http://www.w3.org/2000/svg" xmlns:xlink="http://www.w3.org/1999/xlink" x="0px" y="0px"
	 width="82px" height="248.375px" viewBox="0 0 82 248.375" enable-background="new 0 0 82 248.375" xml:space="preserve">
<g id="Bio_thérapie">
	<g>
		<path fill="#FFFFFF" d="M17.144,100.889v67.153c0,1.56,1.264,2.823,2.822,2.823h43.985c1.559,0,2.822-1.264,2.822-2.823v-67.153
			H17.144z M61.01,142.051c0,1.561-1.264,2.823-2.822,2.823H25.729c-1.559,0-2.823-1.265-2.823-2.823v-16.699
			c0-1.56,1.264-2.823,2.823-2.823h32.458c1.56,0,2.822,1.264,2.822,2.823V142.051L61.01,142.051z"/>
		<path fill="#85C9D0" d="M34.937,136.807c-0.956-0.574-1.649-0.955-1.651-0.955C33.783,136.27,34.338,136.595,34.937,136.807z"/>
		<path fill="#85C9D0" d="M33.286,135.852L33.286,135.852L33.286,135.852z"/>
		<path fill="#85C9D0" d="M47.369,123.678c-2.559,0-4.717,2.021-5.41,4.788c-0.694-2.768-2.853-4.788-5.41-4.788
			c-3.118,0-5.645,3.002-5.645,6.704c0,2.259,0.941,4.253,2.382,5.47l0,0c0.001,0,0.695,0.381,1.651,0.955
			c1.68,1.01,4.169,2.615,5.14,3.808c0.5,0.614,1.646,2.704,1.646,2.704s1.667-3.08,3.292-4.117
			c1.109-0.708,3.188-1.665,4.555-2.645c2.022-1.02,3.443-3.399,3.443-6.175C53.014,126.68,50.486,123.678,47.369,123.678z
			 M46.217,134.97h-2.963h-0.363v3.511h-2.403v-3.301v-0.21h-3.326v-2.218h3.326v-2.883v-0.443h1.293h0.355h0.754v0.569v2.757h3.326
			V134.97z"/>
		<rect x="36.818" y="82.685" fill="#CF6155" width="6.668" height="16.793"/>
		<path fill="#CF6155" d="M16.214,82.685c-1.56,0-2.823,1.263-2.823,2.822v13.972h5.634V82.686L16.214,82.685L16.214,82.685z"/>
		<rect x="45.369" y="82.685" fill="#CF6155" width="6.704" height="16.793"/>
		<rect x="20.907" y="82.685" fill="#CF6155" width="6.116" height="16.793"/>
		<rect x="28.904" y="82.685" fill="#CF6155" width="6.033" height="16.793"/>
		<rect x="53.954" y="82.685" fill="#CF6155" width="6.703" height="16.793"/>
		<path fill="#CF6155" d="M70.525,85.506c0-1.559-1.264-2.822-2.823-2.822h-5.163v16.793h7.986V85.506z"/>
	</g>
	<g>
		<g>
			<g>
				<path fill="#90CBD4" d="M33,247.5h14v-0.309c0.068,0,0.134,0.01,0.202,0.01c5.912,0,10.704-4.792,10.704-10.703
					c0-5.912-4.792-10.705-10.704-10.705c-0.068,0-0.134,0.009-0.202,0.01V225.5H33"/>
				<path fill="#FFFFFF" d="M33,225.5H21v0.304c-5.817,0.109-10.502,4.852-10.502,10.694S15.183,247.082,21,247.191v0.309h12"/>
			</g>
		</g>
	</g>
	<g>
		<g>
			<g>
				<path fill="#90CBD4" d="M60.532,210.215l-10.308-9.475l-0.209,0.227c-0.049-0.046-0.092-0.097-0.142-0.144
					c-4.353-4-11.124-3.716-15.124,0.635c-4.001,4.353-3.717,11.125,0.636,15.125c0.05,0.046,0.104,0.084,0.155,0.13l-0.205,0.223
					l10.307,9.475"/>
				<path fill="#FFFFFF" d="M45.643,226.411l8.834,8.122l0.207-0.225c4.355,3.856,11.014,3.537,14.969-0.767
					c3.955-4.301,3.714-10.961-0.494-14.979l0.208-0.227l-8.834-8.122"/>
			</g>
		</g>
	</g>
	<g>
		<g>
			<g>
				<circle fill="#FFFFFF" cx="3.708" cy="3.268" r="2.708"/>
			</g>
			<g>
				<path fill="none" stroke="#FFFFFF" stroke-width="10" stroke-miterlimit="10" d="M5.718,48.987"/>
			</g>
			<g>
				<g>
					<rect x="6" y="16.5" fill="#90CBD4" width="12" height="34"/>
				</g>
				<g>
					<ellipse fill="#90CBD4" cx="11.484" cy="50.56" rx="5.067" ry="3.931"/>
				</g>
				<g>
					<circle fill="#FFFFFF" cx="19.958" cy="3.268" r="2.708"/>
				</g>
				<g>
					<rect x="4" y="0.5" fill="#FFFFFF" width="16" height="6"/>
				</g>
				<g>
					<polygon fill="#FFFFFF" points="19,48.5 16,48.5 16,4.5 7,4.5 7,48.5 4,48.5 4,1.5 19,1.5 					"/>
				</g>
				<g>
					<path fill="#FFFFFF" d="M11.521,56.333c-4.129,0-7.489-3.833-7.489-7.833h2.724c0,3,2.137,4.985,4.765,4.985
						c2.627,0,4.765-1.985,4.765-4.985h2.724C19.01,52.5,15.65,56.333,11.521,56.333z"/>
				</g>
			</g>
		</g>
		<g>
			<circle fill="#FFFFFF" cx="33.708" cy="3.268" r="2.708"/>
		</g>
		<g>
			<path fill="none" stroke="#FFFFFF" stroke-width="10" stroke-miterlimit="10" d="M35.718,48.987"/>
		</g>
		<g>
			<rect x="36" y="16.5" fill="#CF6155" width="12" height="34"/>
		</g>
		<g>
			<ellipse fill="#CF6155" cx="41.484" cy="50.56" rx="5.067" ry="3.931"/>
		</g>
		<g>
			<circle fill="#FFFFFF" cx="49.958" cy="3.268" r="2.708"/>
		</g>
		<g>
			<rect x="34" y="0.5" fill="#FFFFFF" width="16" height="6"/>
		</g>
		<g>
			<polygon fill="#FFFFFF" points="49,48.5 46,48.5 46,4.5 37,4.5 37,48.5 34,48.5 34,1.5 49,1.5 			"/>
		</g>
		<g>
			<path fill="#FFFFFF" d="M41.521,56.333c-4.129,0-7.489-3.833-7.489-7.833h2.724c0,3,2.137,4.985,4.765,4.985
				c2.627,0,4.765-1.985,4.765-4.985h2.724C49.01,52.5,45.65,56.333,41.521,56.333z"/>
		</g>
		<g>
			<circle fill="#FFFFFF" cx="63.708" cy="3.268" r="2.708"/>
		</g>
		<g>
			<path fill="none" stroke="#FFFFFF" stroke-width="10" stroke-miterlimit="10" d="M65.718,48.987"/>
		</g>
		<g>
			<rect x="66" y="16.5" fill="#70A4AA" width="12" height="34"/>
		</g>
		<g>
			<ellipse fill="#70A4AA" cx="71.484" cy="50.56" rx="5.066" ry="3.931"/>
		</g>
		<g>
			<circle fill="#FFFFFF" cx="79.958" cy="3.268" r="2.708"/>
		</g>
		<g>
			<rect x="64" y="0.5" fill="#FFFFFF" width="16" height="6"/>
		</g>
		<g>
			<polygon fill="#FFFFFF" points="79,48.5 76,48.5 76,4.5 67,4.5 67,48.5 64,48.5 64,1.5 79,1.5 			"/>
		</g>
		<g>
			<path fill="#FFFFFF" d="M71.521,56.333c-4.129,0-7.489-3.833-7.489-7.833h2.724c0,3,2.137,4.985,4.766,4.985
				c2.627,0,4.765-1.985,4.765-4.985h2.724C79.01,52.5,75.65,56.333,71.521,56.333z"/>
		</g>
	</g>
</g>
</svg>
