<?xml version="1.0" encoding="utf-8"?>
<!-- Generator: Adobe Illustrator 18.0.0, SVG Export Plug-In . SVG Version: 6.00 Build 0)  -->
<!DOCTYPE svg PUBLIC "-//W3C//DTD SVG 1.0//EN" "http://www.w3.org/TR/2001/REC-SVG-20010904/DTD/svg10.dtd">
<svg version="1.0" id="Calque_1" xmlns="http://www.w3.org/2000/svg" xmlns:xlink="http://www.w3.org/1999/xlink" x="0px" y="0px"
	 viewBox="0 0 75.1 33.6" enable-background="new 0 0 75.1 33.6" xml:space="preserve">
<g>
	<g>
		<g>
			<path fill="#CD9490" d="M73.6,25.1c0,0.3-0.6,0.6-1.3,0.6H1.5c-0.7,0-1.3-0.2-1.3-0.6v-0.2c0-0.3,0.6-0.6,1.3-0.6h70.8
				c0.7,0,1.3,0.2,1.3,0.6V25.1z"/>
			<g>
				<polyline fill="#F8F2AB" points="0.9,17.3 14.8,17.3 13.7,14.5 2.2,14.4 				"/>
				<g>
					<defs>
						<rect id="SVGID_1_" x="0" y="17.3" width="17.2" height="2"/>
					</defs>
					<clipPath id="SVGID_2_">
						<use xlink:href="#SVGID_1_"  overflow="visible"/>
					</clipPath>
					<g clip-path="url(#SVGID_2_)">
						<circle fill="#E62142" cx="0.8" cy="17.3" r="0.5"/>
						<circle fill="#F8F2AB" cx="1.8" cy="17.3" r="0.5"/>
						<circle fill="#E62142" cx="2.8" cy="17.3" r="0.5"/>
						<circle fill="#F8F2AB" cx="3.8" cy="17.3" r="0.5"/>
						<circle fill="#E62142" cx="4.8" cy="17.3" r="0.5"/>
						<circle fill="#F8F2AB" cx="5.8" cy="17.3" r="0.5"/>
						<circle fill="#E62142" cx="6.8" cy="17.3" r="0.5"/>
						<circle fill="#F8F2AB" cx="7.8" cy="17.3" r="0.5"/>
						<circle fill="#E62142" cx="8.8" cy="17.3" r="0.5"/>
						<circle fill="#F8F2AB" cx="9.8" cy="17.3" r="0.5"/>
						<circle fill="#E62142" cx="10.8" cy="17.3" r="0.5"/>
						<circle fill="#F8F2AB" cx="11.8" cy="17.3" r="0.5"/>
						<circle fill="#E62142" cx="12.8" cy="17.3" r="0.5"/>
						<circle fill="#F8F2AB" cx="13.8" cy="17.3" r="0.5"/>
						<circle fill="#E62142" cx="14.7" cy="17.3" r="0.5"/>
					</g>
				</g>
				<polygon fill="#E62142" points="14.1,14.5 15.3,17.3 14.2,17.3 13.3,14.4 12.4,14.4 13.2,17.3 12.2,17.3 11.6,14.4 10.8,14.4 
					11.2,17.3 10.3,17.3 10,14.4 9.1,14.4 9.2,17.3 8.3,17.3 8.3,14.4 7.5,14.4 7.3,17.3 6.3,17.3 6.7,14.4 5.9,14.4 5.3,17.3 
					4.3,17.3 5,14.4 4.2,14.4 3.3,17.3 2.3,17.3 3.4,14.4 2.6,14.4 1.3,17.3 0.3,17.3 1.7,14.4 				"/>
			</g>
			<g>
				<polyline fill="#F8F2AB" points="58.9,17.3 72.7,17.3 71.7,14.5 60.2,14.4 				"/>
				<g>
					<defs>
						<rect id="SVGID_3_" x="58" y="17.3" width="17.2" height="2"/>
					</defs>
					<clipPath id="SVGID_4_">
						<use xlink:href="#SVGID_3_"  overflow="visible"/>
					</clipPath>
					<g clip-path="url(#SVGID_4_)">
						<circle fill="#E62142" cx="58.8" cy="17.3" r="0.5"/>
						<circle fill="#F8F2AB" cx="59.8" cy="17.3" r="0.5"/>
						<circle fill="#E62142" cx="60.8" cy="17.3" r="0.5"/>
						<circle fill="#F8F2AB" cx="61.8" cy="17.3" r="0.5"/>
						<circle fill="#E62142" cx="62.7" cy="17.3" r="0.5"/>
						<circle fill="#F8F2AB" cx="63.7" cy="17.3" r="0.5"/>
						<circle fill="#E62142" cx="64.7" cy="17.3" r="0.5"/>
						<circle fill="#F8F2AB" cx="65.7" cy="17.3" r="0.5"/>
						<circle fill="#E62142" cx="66.7" cy="17.3" r="0.5"/>
						<circle fill="#F8F2AB" cx="67.7" cy="17.3" r="0.5"/>
						<circle fill="#E62142" cx="68.7" cy="17.3" r="0.5"/>
						<circle fill="#F8F2AB" cx="69.7" cy="17.3" r="0.5"/>
						<circle fill="#E62142" cx="70.7" cy="17.3" r="0.5"/>
						<circle fill="#F8F2AB" cx="71.7" cy="17.3" r="0.5"/>
						<circle fill="#E62142" cx="72.7" cy="17.3" r="0.5"/>
					</g>
				</g>
				<polygon fill="#E62142" points="72.1,14.5 73.2,17.3 72.2,17.3 71.2,14.4 70.4,14.4 71.2,17.3 70.2,17.3 69.6,14.4 68.7,14.4 
					69.2,17.3 68.2,17.3 67.9,14.4 67.1,14.4 67.2,17.3 66.2,17.3 66.3,14.4 65.5,14.4 65.2,17.3 64.2,17.3 64.6,14.4 63.8,14.4 
					63.2,17.3 62.2,17.3 63,14.4 62.2,14.4 61.2,17.3 60.2,17.3 61.3,14.4 60.5,14.4 59.2,17.3 58.3,17.3 59.7,14.4 				"/>
			</g>
			<path fill="#EFAAA2" d="M70.2,32.1c0,0.8-0.6,1.5-1.3,1.5H4.6c-0.7,0-1.3-0.7-1.3-1.5V1.5C3.3,0.7,3.9,0,4.6,0h64.3
				c0.7,0,1.3,0.7,1.3,1.5V32.1z"/>
			<g>
				<rect x="6.7" y="14.6" fill="#E8F4F5" width="24.8" height="9.9"/>
			</g>
			<g>
				<defs>
					<rect id="SVGID_5_" x="6.7" y="14.6" width="24.8" height="9.9"/>
				</defs>
				<clipPath id="SVGID_6_">
					<use xlink:href="#SVGID_5_"  overflow="visible"/>
				</clipPath>
				<g clip-path="url(#SVGID_6_)">
					<polygon fill="#FFFFFE" points="-22.8,24.9 -18.1,25.3 13.1,13.8 8.4,13.4 					"/>
					<polygon fill="#FFFFFE" points="-16.9,25.4 -12.2,25.7 19,14.2 14.3,13.9 					"/>
					<polygon fill="#FFFFFE" points="5.1,24.9 9.8,25.3 41.1,13.8 36.4,13.4 					"/>
					<polygon fill="#FFFFFE" points="11,25.4 15.7,25.7 47,14.2 42.3,13.9 					"/>
				</g>
			</g>
			<g>
				<rect x="41.8" y="14.7" fill="#E8F4F5" width="24.8" height="9.9"/>
			</g>
			<g>
				<defs>
					<rect id="SVGID_7_" x="41.8" y="14.7" width="24.8" height="9.9"/>
				</defs>
				<clipPath id="SVGID_8_">
					<use xlink:href="#SVGID_7_"  overflow="visible"/>
				</clipPath>
				<g clip-path="url(#SVGID_8_)">
					<polygon fill="#FFFFFE" points="12.3,25 17,25.4 48.2,13.8 43.5,13.5 					"/>
					<polygon fill="#FFFFFE" points="18.2,25.4 22.9,25.8 54.1,14.3 49.4,13.9 					"/>
					<polygon fill="#FFFFFE" points="40.2,25 44.9,25.4 76.2,13.8 71.5,13.5 					"/>
					<polygon fill="#FFFFFE" points="46.1,25.4 50.8,25.8 82.1,14.3 77.3,13.9 					"/>
				</g>
			</g>
			<rect x="33.4" y="16.6" fill="#EAF5F6" width="6.6" height="14.1"/>
			<path fill="#CD9490" d="M71.9,5.8c0,1.3-0.6,2.3-1.3,2.3H2.3C1.6,8.2,1,7.1,1,5.8V5c0-1.3,0.6-2.3,1.3-2.3h68.3
				c0.7,0,1.3,1,1.3,2.3V5.8z"/>
			<circle fill="#8D826A" cx="33.6" cy="24" r="0.4"/>
			<path fill="#E62142" d="M52.1,8.3c0,0.6-1,1-2.2,1H24.5c-1.2,0-2.2-0.5-2.2-1V2.4c0-0.6,1-1,2.2-1h25.4c1.2,0,2.2,0.5,2.2,1V8.3z
				"/>
			<text transform="matrix(1 0 0 1 29.3882 6.8183)" fill="#F8F2AB" font-family="'AvenirNext-Bold'" font-size="4.6067">Chez Lili</text>
			<path fill="#CD9490" d="M9.3,24.3c0,0.1-0.1,0.2-0.2,0.2l0,0c-0.1,0-0.2-0.1-0.2-0.2v-9.7c0-0.1,0.1-0.2,0.2-0.2l0,0
				c0.1,0,0.2,0.1,0.2,0.2V24.3z"/>
			<path fill="#CD9490" d="M11.9,24.3c0,0.1-0.1,0.2-0.2,0.2l0,0c-0.1,0-0.2-0.1-0.2-0.2v-9.7c0-0.1,0.1-0.2,0.2-0.2l0,0
				c0.1,0,0.2,0.1,0.2,0.2V24.3z"/>
			<path fill="#CD9490" d="M14.5,24.3c0,0.1-0.1,0.2-0.2,0.2l0,0c-0.1,0-0.2-0.1-0.2-0.2v-9.7c0-0.1,0.1-0.2,0.2-0.2l0,0
				c0.1,0,0.2,0.1,0.2,0.2V24.3z"/>
			<path fill="#CD9490" d="M17.1,24.3c0,0.1-0.1,0.2-0.2,0.2l0,0c-0.1,0-0.2-0.1-0.2-0.2v-9.7c0-0.1,0.1-0.2,0.2-0.2l0,0
				c0.1,0,0.2,0.1,0.2,0.2V24.3z"/>
			<path fill="#CD9490" d="M19.6,24.3c0,0.1-0.1,0.2-0.2,0.2l0,0c-0.1,0-0.2-0.1-0.2-0.2v-9.7c0-0.1,0.1-0.2,0.2-0.2l0,0
				c0.1,0,0.2,0.1,0.2,0.2V24.3z"/>
			<path fill="#CD9490" d="M22.2,24.3c0,0.1-0.1,0.2-0.2,0.2l0,0c-0.1,0-0.2-0.1-0.2-0.2v-9.7c0-0.1,0.1-0.2,0.2-0.2l0,0
				c0.1,0,0.2,0.1,0.2,0.2V24.3z"/>
			<path fill="#CD9490" d="M24.8,24.3c0,0.1-0.1,0.2-0.2,0.2l0,0c-0.1,0-0.2-0.1-0.2-0.2v-9.7c0-0.1,0.1-0.2,0.2-0.2l0,0
				c0.1,0,0.2,0.1,0.2,0.2V24.3z"/>
			<path fill="#CD9490" d="M27.3,24.3c0,0.1-0.1,0.2-0.2,0.2l0,0c-0.1,0-0.2-0.1-0.2-0.2v-9.7c0-0.1,0.1-0.2,0.2-0.2l0,0
				c0.1,0,0.2,0.1,0.2,0.2V24.3z"/>
			<path fill="#CD9490" d="M29.9,24.3c0,0.1-0.1,0.2-0.2,0.2l0,0c-0.1,0-0.2-0.1-0.2-0.2v-9.7c0-0.1,0.1-0.2,0.2-0.2l0,0
				c0.1,0,0.2,0.1,0.2,0.2V24.3z"/>
			<g>
				<rect x="41.1" y="14.6" fill="#E8F4F5" width="24.8" height="9.9"/>
			</g>
			<g>
				<defs>
					<rect id="SVGID_9_" x="41.1" y="14.6" width="24.8" height="9.9"/>
				</defs>
				<clipPath id="SVGID_10_">
					<use xlink:href="#SVGID_9_"  overflow="visible"/>
				</clipPath>
				<g clip-path="url(#SVGID_10_)">
					<polygon fill="#FFFFFE" points="11.6,24.9 16.3,25.3 47.5,13.8 42.8,13.4 					"/>
					<polygon fill="#FFFFFE" points="17.5,25.4 22.2,25.7 53.4,14.2 48.7,13.9 					"/>
					<polygon fill="#FFFFFE" points="39.5,24.9 44.2,25.3 75.5,13.8 70.8,13.4 					"/>
					<polygon fill="#FFFFFE" points="45.4,25.4 50.1,25.7 81.4,14.2 76.6,13.9 					"/>
				</g>
			</g>
			<path fill="#CD9490" d="M43.7,24.3c0,0.1-0.1,0.2-0.2,0.2l0,0c-0.1,0-0.2-0.1-0.2-0.2v-9.7c0-0.1,0.1-0.2,0.2-0.2l0,0
				c0.1,0,0.2,0.1,0.2,0.2V24.3z"/>
			<path fill="#CD9490" d="M46.3,24.3c0,0.1-0.1,0.2-0.2,0.2l0,0c-0.1,0-0.2-0.1-0.2-0.2v-9.7c0-0.1,0.1-0.2,0.2-0.2l0,0
				c0.1,0,0.2,0.1,0.2,0.2V24.3z"/>
			<path fill="#CD9490" d="M48.9,24.3c0,0.1-0.1,0.2-0.2,0.2l0,0c-0.1,0-0.2-0.1-0.2-0.2v-9.7c0-0.1,0.1-0.2,0.2-0.2l0,0
				c0.1,0,0.2,0.1,0.2,0.2V24.3z"/>
			<path fill="#CD9490" d="M51.5,24.3c0,0.1-0.1,0.2-0.2,0.2l0,0c-0.1,0-0.2-0.1-0.2-0.2v-9.7c0-0.1,0.1-0.2,0.2-0.2l0,0
				c0.1,0,0.2,0.1,0.2,0.2V24.3z"/>
			<path fill="#CD9490" d="M54,24.3c0,0.1-0.1,0.2-0.2,0.2l0,0c-0.1,0-0.2-0.1-0.2-0.2v-9.7c0-0.1,0.1-0.2,0.2-0.2l0,0
				c0.1,0,0.2,0.1,0.2,0.2V24.3z"/>
			<path fill="#CD9490" d="M56.6,24.3c0,0.1-0.1,0.2-0.2,0.2l0,0c-0.1,0-0.2-0.1-0.2-0.2v-9.7c0-0.1,0.1-0.2,0.2-0.2l0,0
				c0.1,0,0.2,0.1,0.2,0.2V24.3z"/>
			<path fill="#CD9490" d="M59.2,24.3c0,0.1-0.1,0.2-0.2,0.2l0,0c-0.1,0-0.2-0.1-0.2-0.2v-9.7c0-0.1,0.1-0.2,0.2-0.2l0,0
				c0.1,0,0.2,0.1,0.2,0.2V24.3z"/>
			<path fill="#CD9490" d="M61.7,24.3c0,0.1-0.1,0.2-0.2,0.2l0,0c-0.1,0-0.2-0.1-0.2-0.2v-9.7c0-0.1,0.1-0.2,0.2-0.2l0,0
				c0.1,0,0.2,0.1,0.2,0.2V24.3z"/>
			<path fill="#CD9490" d="M64.3,24.3c0,0.1-0.1,0.2-0.2,0.2l0,0c-0.1,0-0.2-0.1-0.2-0.2v-9.7c0-0.1,0.1-0.2,0.2-0.2l0,0
				c0.1,0,0.2,0.1,0.2,0.2V24.3z"/>
			<g>
				<polyline fill="#F8F2AB" points="29.7,17.3 43.6,17.3 42.5,14.5 31.1,14.4 				"/>
				<g>
					<defs>
						<rect id="SVGID_11_" x="28.8" y="17.3" width="17.2" height="2"/>
					</defs>
					<clipPath id="SVGID_12_">
						<use xlink:href="#SVGID_11_"  overflow="visible"/>
					</clipPath>
					<g clip-path="url(#SVGID_12_)">
						<circle fill="#E62142" cx="29.6" cy="17.3" r="0.5"/>
						<circle fill="#F8F2AB" cx="30.6" cy="17.3" r="0.5"/>
						<circle fill="#E62142" cx="31.6" cy="17.3" r="0.5"/>
						<circle fill="#F8F2AB" cx="32.6" cy="17.3" r="0.5"/>
						<circle fill="#E62142" cx="33.6" cy="17.3" r="0.5"/>
						<circle fill="#F8F2AB" cx="34.6" cy="17.3" r="0.5"/>
						<circle fill="#E62142" cx="35.6" cy="17.3" r="0.5"/>
						<circle fill="#F8F2AB" cx="36.6" cy="17.3" r="0.5"/>
						<circle fill="#E62142" cx="37.6" cy="17.3" r="0.5"/>
						<circle fill="#F8F2AB" cx="38.6" cy="17.3" r="0.5"/>
						<circle fill="#E62142" cx="39.6" cy="17.3" r="0.5"/>
						<circle fill="#F8F2AB" cx="40.6" cy="17.3" r="0.5"/>
						<circle fill="#E62142" cx="41.6" cy="17.3" r="0.5"/>
						<circle fill="#F8F2AB" cx="42.6" cy="17.3" r="0.5"/>
						<circle fill="#E62142" cx="43.6" cy="17.3" r="0.5"/>
					</g>
				</g>
				<polygon fill="#E62142" points="42.9,14.5 44.1,17.3 43,17.3 42.1,14.4 41.3,14.4 42.1,17.3 41.1,17.3 40.4,14.4 39.6,14.4 
					40.1,17.3 39.1,17.3 38.8,14.4 38,14.4 38.1,17.3 37.1,17.3 37.1,14.4 36.3,14.4 36.1,17.3 35.1,17.3 35.5,14.4 34.7,14.4 
					34.1,17.3 33.1,17.3 33.9,14.4 33,14.4 32.1,17.3 31.1,17.3 32.2,14.4 31.4,14.4 30.1,17.3 29.1,17.3 30.6,14.4 				"/>
			</g>
			<path fill="#CD9490" d="M72.5,14.2c0,0.3-0.6,0.6-1.3,0.6H2.3c-0.7,0-1.3-0.2-1.3-0.6V14c0-0.3,0.6-0.6,1.3-0.6h68.8
				c0.7,0,1.3,0.2,1.3,0.6V14.2z"/>
			<path fill="#CD9490" d="M31.7,25.1c0,0.3-0.2,0.6-0.5,0.6H6.7c-0.3,0-0.5-0.2-0.5-0.6v-0.2c0-0.3,0.2-0.6,0.5-0.6h24.6
				c0.3,0,0.5,0.2,0.5,0.6V25.1z"/>
			<path fill="#CD9490" d="M67,25.1c0,0.3-0.2,0.6-0.5,0.6H41.3c-0.3,0-0.5-0.2-0.5-0.6v-0.2c0-0.3,0.2-0.6,0.5-0.6h25.2
				c0.3,0,0.5,0.2,0.5,0.6V25.1z"/>
		</g>
	</g>
</g>
</svg>
