<?xml version="1.0" encoding="utf-8"?>
<!-- Generator: Adobe Illustrator 16.0.0, SVG Export Plug-In . SVG Version: 6.00 Build 0)  -->
<!DOCTYPE svg PUBLIC "-//W3C//DTD SVG 1.1//EN" "http://www.w3.org/Graphics/SVG/1.1/DTD/svg11.dtd">
<svg version="1.1" id="Calque_1" xmlns="http://www.w3.org/2000/svg" xmlns:xlink="http://www.w3.org/1999/xlink" x="0px" y="0px"
	 width="226.301px" height="229.013px" viewBox="0 0 226.301 229.013" enable-background="new 0 0 226.301 229.013"
	 xml:space="preserve">
<path fill="#2739E0" d="M74.833,44.245c-2.74-1.452-3.258-3.665-4.26-6.408c-0.5-1.371-1.195-4.009-3.047-4.145
	c-0.641-0.048-2.701,1.587-3.756,1.713c-1.608,0.191-2.795-0.966-4.214-0.804c-3.647,0.419-0.444,5.67,0.065,7.651
	c0.863,3.358,0.256,7.029,0.727,10.477c0.22,1.617,0.403,3.528,1.046,5.049c0.54,1.278,1.801,2.334,1.811,3.661
	c-0.34,0.028-0.667,0.108-0.988,0.206c-1.069,0.324-2.07,0.855-3.199,0.433c-1.688-0.632-1.489-2.466-3.898-1.875
	c0.061,0.442-0.172,1.075-0.085,1.507c-1.464-0.687-3.781-0.792-5.157-1.29c-1.015-0.367-0.748-1.001-2.114-0.988
	c-0.821,0.007-1.674,1.193-2.423,1.264c-3.196,0.306-5.651-6.353-6.637-9.185c-1.786-0.445-2.304,0.842-3.642,1.54
	c-1.363,0.71-2.723,0.458-4.233,0.777c-3.219,0.682-4.339,1.841-7.882,0.995c-2.943-0.703-6.097-1.3-8.955,0.007
	c-1.191,0.545-3.531,1.48-4.47,2.174c-1.025,0.756-0.916,2.232-2.344,2.686c0.046,4.712,5.57,0.89,7.4,3.824
	c2.139,3.429-4.85-0.583-6.149,1.661c1.066,0.807,1.538,1.491,2.666,2.158c1.154,0.683,2.851,0.267,2.594,2.273
	c-1.196,0.177-5.994-1.05-6.628,0.027c-0.478,0.814,2.072,3.741,2.652,4.497c0.911,1.186,2.133,3.712,3.22,4.478
	c2.769,1.948,2.286-1.041,3.213-2.593c3.534-0.013,7.069,2.681,9.764,4.628c1.705,1.231,3.803,1.682,4.946,3.483
	c0.957,1.509,0.473,4.284,2.364,5.01c1.712,0.659,1.185-3.292,1.976-3.95c0.79-0.659,0,0.526,1.186,0.79
	c0.574,0.128,1.115,1.486,1.369,2.345c0.57-0.035,1.612-0.023,2.621,0.121c1.19,0.17,2.337,0.525,2.612,1.215
	c0.034,0.083,0.057,0.163,0.076,0.241c0.484,1.99-3.493,2.297-1.213,4.046c1.926,1.476,9.722-3.5,8.716,1.211
	c-1.041-0.014-2.084,0.136-3.081,0.343c-0.87,2.364,1.326,4.262,0.178,6.499c-3.153-0.228-0.844,2.807-0.23,3.846
	c1.258,2.131,1.241,4.916,2.715,6.92c1.324,1.799,3.602,2.625,5.294,4.081c0.162,0.14,0.321,0.283,0.471,0.437
	c0.874,0.89,1.447,1.87,1.869,2.902c0.958,2.347,1.126,4.967,2.22,7.436c0.766,1.73,2.339,3.043-0.317,4.219
	c-1.149,0.51-2.894-0.142-4.046-0.336c-2.382-0.402-5.372-1.099-2.867,2.148c1.36,1.764,3.494,2.185,5.203,3.096
	c2.369,1.264,1.993,3.076,3.884,4.871c1.958,1.857,3.076,1.885,3.766,4.668c0.006,0.023,0.013,0.049,0.019,0.072
	c-0.392,0.266-0.755,0.578-1.119,0.888c-0.18-0.67-0.406-1.278-0.741-1.751c-0.9-1.268-2.041-1.164-3.102-2.15
	c-0.886-0.823-1.222-2.242-1.91-3.141c-0.732,0.863-0.373,2.579-0.849,3.93c-0.209,0.592-0.708,1.243-1.136,1.889
	c-0.297,0.448-0.561,0.894-0.662,1.312c-0.901,3.703,0.237,8.782,0.762,12.346c-3.162,0.275-4.333,4.885-4.45,7.42
	c-0.198,4.283,0.007,8.073-1.508,12.116c-0.879,2.345-1.485,5.327-3.029,7.374c-1.65,2.187-4.445,2.142-6.51,3.951
	c-2.479,2.172-1.539,3.255,0.994,4.543c2.514,1.277,2.7,1.365,4.273,3.635c1.542,2.225,2.523,1.16,4.739,2.41
	c2.275,1.284,3.415,4.261,5.795,5.485c1.021,0.524,2.056,0.633,3.096,0.657c1.343,0.031,2.693-0.079,4.029,0.382
	c0.831,0.287,1.455,0.778,2.019,1.347c0.933,0.938,1.702,2.089,2.978,2.882c2.334,1.45,4.579,1.345,7.307,1.312v-0.311V45.033
	C75.969,44.787,75.36,44.523,74.833,44.245z"/>
<path fill="#FFFFFF" d="M143.51,19.621c-1.311-2.226-2.039-4.986-3.886-6.88c-1.401-1.438-3.519-2.178-5.003-3.338
	c-2.161-1.687-2.729-2.067-5.801-1.917c-2.376,0.116-4.638,0.472-6.842,1.389c-4.394,1.827-8.647,4.155-9.225,9.101
	c-0.03,0.26-0.065,0.523-0.097,0.784c-0.071,0.6-0.14,1.199-0.22,1.8c-0.298,2.221-0.699,4.422-1.486,6.39
	c-1.105,2.757-2.968,5.054-6.361,6.302c-0.546,0.2-1.102,0.34-1.664,0.455c-1.819,0.373-3.694,0.479-5.441,1.501
	c-1.949,1.142-3.381,2.594-5.327,3.826c-5.523,3.499,2.768,3.155,5.24,5.012c-1.797-0.05-3.532,0.329-5.251,0.807
	c-1.122,0.312-2.236,0.666-3.355,0.973c-1.677,0.46-3.362,0.814-5.099,0.755c-2.038-0.069-4.824-0.688-7.078-1.547v167.847
	c0.021,0,0.041,0,0.062,0c3.074,0,4.541-1.68,7.111-2.221c3.582-0.754,6.351,0.98,9.04,2.804c1.129,0.765,2.243,1.599,3.397,2.255
	c2.15,1.227,3.88,1.484,5.663,3.312c0.46,0.473,0.878,1.032,1.294,1.597c0.834,1.132,1.655,2.322,2.787,3.041
	c4.543,2.887,10.563,0.393,15.08-0.65c2.378-0.547,9.787,1.349,9.696-2.413c-0.006-0.251-0.046-0.526-0.122-0.83
	c-0.25-0.99-1.263-1.565-1.533-2.635c-0.266-1.052-0.228-2.916-0.278-4.005c-0.021-0.438-0.031-0.865-0.03-1.281
	c0.005-2.08,0.305-3.886,1.166-5.596c0.345-0.684,0.779-1.352,1.32-2.016c1.715-2.103,3.255-2.503,5.723-2.904
	c2.837-0.462,4.457-2.408,7.112-3.218c1.874-0.573,4.377-1.176,6.511-1.05V25.775C148.014,24.026,145.298,22.658,143.51,19.621z"/>
<path fill="#D62B47" d="M151.538,197.174c0.005,0.001,0.01,0.002,0.015,0.004c3.216,0.585,5.563,3.232,8.604,3.902
	c3.557,0.783,7.714-1.335,10.562,1.823c0.384,0.427,0.154,1.259,0.779,1.855c0.457,0.438,1.241,0.558,1.782,0.813
	c0.124,0.052,0.239,0.109,0.33,0.188c1.149,0.995,0.867,3.119,2.627,3.119c0.79,0,0.79,0,0.79,0c2.307,0,4.26-0.368,6.585,0.106
	c3.21,0.655,2.981-0.251,5.523-2.075c1.749-1.254,4.04-1.455,6.065-1.902c2.549-0.563,3.02-1.375,4.201-3.438
	c2.376-4.146,3.524-6.56,7.651-8.985c2.217-1.305,7.685-5.018,7.684-8.443c-0.002-0.488-0.114-0.971-0.363-1.439
	c-1.306-2.456-4.161-1.269-6.268-1.379c-2.206-0.116-4.123-1.217-5.531-2.898c-1.33-1.59-2.624-4.506-2.647-6.586l0,0v-0.001
	c-0.021-2.005,1.247-2.953,1.36-4.719c0.017-0.253,0.009-0.521-0.029-0.812c-0.367-2.812-2.387-2-3.753-4.149
	c-0.405-0.639-0.579-1.21-0.579-1.726c0-0.129,0.011-0.254,0.031-0.376c0.041-0.245,0.123-0.476,0.236-0.696
	c0.057-0.11,0.122-0.218,0.194-0.322c0.507-0.736,1.369-1.342,2.29-1.884c2.809-1.653,4.14-1.258,3.951-5.34
	c-0.014-0.29-0.042-0.577-0.082-0.863c-0.28-2-1.151-3.908-1.711-5.768c-0.063-0.212-0.17-0.483-0.302-0.798
	c-0.661-1.568-1.982-4.193-2.039-5.797c-0.022-0.641,0.157-1.119,0.663-1.3c0.069-0.335,0.104-0.646,0.113-0.938
	c0.061-2.047-1.193-3.18-1.397-5.336c-0.015-0.15-0.017-0.311-0.01-0.477c0.064-1.498,0.902-3.592,0.89-5.368
	c-0.009-1.185-0.396-2.228-1.645-2.858c-1.575-0.799-5.703,0.289-6.663,1.266c-1.683,1.713-1.161,3.966-4.108,4.777
	c-0.074-1.479-0.165-2.868-0.188-4.191c-0.008-0.441-0.008-0.874,0.002-1.301c0.045-1.891,0.302-3.641,1.031-5.3
	c0.61-1.39,1.554-2.716,2.994-4.005c2.272-2.033,3.738-5.107,6.203-7.238c2.274-1.967,4.56-1.514,4.628-4.688
	c-0.962,0.104-1.78,0.248-2.331-0.752h-0.04c1.317,0,0.511-1.777,1.627-2.396c1.808-1.002,1.216,0.053,2.45,0.47
	c0.072,0.024,0.148,0.091,0.235,0.108c1.034,0.221,2.003,0.075,2.9-0.301c1.13-0.473,2.148-1.265,3.051-2.043
	c-0.037-0.29-0.051-0.559-0.044-0.809c0.042-1.782,1.08-2.718,1.679-4.729c0.245-0.824,0.29-1.66,0.272-2.5
	c-0.018-0.843-0.097-1.691-0.099-2.538c-0.001-0.564,0.031-1.129,0.141-1.691c0.724-3.729,2.227-7.181,3.117-10.851
	c0.704-2.905,1.615-5.143,3.474-7.643c0.545-0.733,0.682-1.224,1.248-1.836c0.764-0.828,1.404-0.515,1.9-1.403
	c0.071-0.127,0.139-0.279,0.204-0.461c1.459-4.106-6.021-4.045-8.459-3.165c-0.325-0.028-0.481-0.274-0.752-0.508
	c-0.537-0.465,0,0-0.79-0.461c-0.138-0.08-0.445-0.327-0.82-0.635c-0.807-0.663-1.925-1.615-2.341-1.826
	c-1.164-0.589-4.39-0.363-5.774-0.561c-1.467-0.209-2.28-0.301-2.913-0.614c-0.729-0.359-1.216-1.012-2.17-2.488
	c-1.95-3.022-2.907-2.433-6.194-3.366c-1.567-0.445-2.083-1.463-3.492-2.171c-1.053-0.53-1.97-0.458-3.16-0.712
	c-2.094-0.447-4.054-1.806-6.051-2.45c-1.631-0.527-3.67-0.104-5.432-0.309c-0.406-0.047-0.798-0.129-1.166-0.262
	c-0.734-0.267-1.355-0.719-1.881-1.276c-1.093-1.16-1.765-2.786-2.122-4.209c-0.443-1.766,0.073-4.781-1.587-5.987
	c-2.305-1.673-3.969,1.461-5.997,2.389c-1.989,0.91-3.153,0.467-4.031-0.535c-0.066-0.075-0.131-0.153-0.194-0.234
	c-0.662-0.855-1.173-2.022-1.793-3.115c-0.401-0.709-0.85-1.388-1.417-1.927c-0.657-0.625-1.351-1.164-2.059-1.663
	c-0.192-0.136-0.389-0.264-0.583-0.395v171.294C150.931,197.087,151.241,197.122,151.538,197.174z"/>
</svg>
