<?xml version="1.0" encoding="utf-8"?>
<!-- Generator: Adobe Illustrator 18.0.0, SVG Export Plug-In . SVG Version: 6.00 Build 0)  -->
<!DOCTYPE svg PUBLIC "-//W3C//DTD SVG 1.0//EN" "http://www.w3.org/TR/2001/REC-SVG-20010904/DTD/svg10.dtd">
<svg version="1.0" id="Calque_1" xmlns="http://www.w3.org/2000/svg" xmlns:xlink="http://www.w3.org/1999/xlink" x="0px" y="0px" width="235" height="112"
	 viewBox="0 0 235 112" enable-background="new 0 0 235 112" xml:space="preserve">
<g>
	<g>
		<path fill="#D8C5B2" d="M-24.5-35.2v175h286v-175H-24.5z M78.5,87.8c-4.9,7.7-13.6,13-23.2,13H8.5v-13v-78h41.9
			c14.9,0,27.5,12,27.5,26.7c0,6.2-2.4,11.6-6,16.1c6.3,5,10.5,12.7,10.5,21c0,5-1.7,9.9-4.3,13.9 M8.5,87.8 M120.5,87.8v13h-24v-13
			v-78h24V87.8z M217.2,87.1c-8.4,8.1-19.9,13-32.5,13s-24.1-5-32.5-13c-8.6-8.3-13.9-19.8-13.9-32.6c0-25.2,20.7-45.8,46.4-45.8
			c25.7,0,46.5,20.6,46.5,45.8C231.2,67.3,225.8,78.9,217.2,87.1z"/>
	</g>
	<g>
		<path fill="none" stroke="#F9EFE1" stroke-width="3" stroke-miterlimit="10" d="M183.7,33.6c-12.2,0-22.1,9.8-22.1,21.8
			c0,11.9,9.9,21.8,22.1,21.8c12.3,0,22.2-9.9,22.2-21.8C205.9,43.4,196,33.6,183.7,33.6z"/>
		<path fill="none" stroke="#F9EFE1" stroke-width="3" stroke-miterlimit="10" d="M49.1,66.3H32v16h17.1c4.5,0,8.1-3.6,8.1-8
			C57.2,69.9,53.4,66.3,49.1,66.3z"/>
		<path fill="none" stroke="#F9EFE1" stroke-width="3" stroke-miterlimit="10" d="M52.6,38.3c0-4.4-3.6-8-8.1-8H32v16h12.6
			C49,46.3,52.6,42.7,52.6,38.3z"/>
		<path fill="none" stroke="#F9EFE1" stroke-width="3" stroke-miterlimit="10" d="M77.5,88.5c2.6-4.1,4-9,4-14
			c0-8.3-4.2-16.1-10.5-21.1c3.6-4.5,6-10,6-16.2c0-14.6-12.6-26.9-27.5-26.9H8v78.5 M33,29.3h11.6c4.5,0,8.1,3.6,8.1,8
			c0,4.4-3.6,8-8.1,8H33V29.3z M49.1,81.3H33v-16h16.1c4.2,0,8.1,3.6,8.1,8C57.2,77.7,53.6,81.3,49.1,81.3z"/>
		<polyline fill="none" stroke="#F9EFE1" stroke-width="3" stroke-miterlimit="10" points="120,88.8 120,10.3 96,10.3 96,88.8 		"/>
		<path fill="none" stroke="#F9EFE1" stroke-width="3" stroke-miterlimit="10" d="M216.2,88.1c8.6-8.3,14-19.8,14-32.6
			c0-25.2-20.8-45.8-46.5-45.8c-25.7,0-46.4,20.6-46.4,45.8c0,12.8,5.3,24.3,13.9,32.6 M183.7,77.2c-12.2,0-22.1-9.9-22.1-21.8
			c0-12.1,9.9-21.8,22.1-21.8c12.3,0,22.2,9.8,22.2,21.8C205.9,67.4,196,77.2,183.7,77.2z"/>
		<path fill="none" stroke="#F9EFE1" stroke-width="3" stroke-miterlimit="10" d="M8,88.8v12.5h46.2c9.7,0,18.4-5,23.2-12.8"/>
		<polyline fill="none" stroke="#F9EFE1" stroke-width="3" stroke-miterlimit="10" points="96,88.8 96,101.3 120,101.3 120,88.8 		
			"/>
		<path fill="none" stroke="#F9EFE1" stroke-width="3" stroke-miterlimit="10" d="M151.2,88.1c8.4,8.1,19.8,13,32.5,13
			s24.2-5,32.5-13"/>
	</g>
</g>
</svg>
