<?xml version="1.0" encoding="utf-8"?>
<!-- Generator: Adobe Illustrator 18.0.0, SVG Export Plug-In . SVG Version: 6.00 Build 0)  -->
<!DOCTYPE svg PUBLIC "-//W3C//DTD SVG 1.0//EN" "http://www.w3.org/TR/2001/REC-SVG-20010904/DTD/svg10.dtd">
<svg version="1.0" id="Calque_1" xmlns="http://www.w3.org/2000/svg" xmlns:xlink="http://www.w3.org/1999/xlink" x="0px" y="0px" width="272" height="257"
	 viewBox="0 0 272 257" enable-background="new 0 0 272 257" xml:space="preserve">
<g>
	<path fill="#D8C5B2" d="M0,0v257h272V0H0z M241,96.2c0.9,2.5,0.8,5.8,0.8,5.8c0,1.2-1.3,2-2.4,4h-8.2c-1.1,2-0.3,3.4-0.3,3.4
		l-4.2,4.2c-3.4,3.5-4.9,7.2-4.9,7.2c-0.4,2.1-1.3,3.5-1.3,3.5c-1.2,0.9-2.5,1.9-2.5,1.9l-3.6,6.6l-0.3,4.9
		c-0.9,4.9,2.3,3.6,2.3,3.6c1,0.9,1.8,0,1.8,0l3.4-4.9c2.3-3.5,4-1.6,4-1.6c0.5,0.5,2.1,0.7,2.1,0.7c2.1,0,2,5.2,2,5.2
		c0.1,4.2,1.2,4.7,1.2,4.7c2.6,0.5,3.2,1.7,3.2,1.7c2.1,3.1-1.7,1.8-1.7,1.8c-3.3,1.4-1.2,4.2-1.2,4.2l4.2,8.8
		c2.3,4-1.6,5.9-1.6,5.9c-4,3.4-3.4,6.2-3.4,6.2c-0.7,3.9,2.5,4.2,2.5,4.2c2.7,0.1,2.1,3.5,2.1,3.5c-0.8,4.2,0.1,8.2,0.1,8.2
		c0.3,3.4,3.6,5.9,3.6,5.9l6.5,0.3c3.1,0,3.5,1.7,3.5,1.7l1,5.1c0.9,4-2.7,4.9-2.7,4.9c-3.3,1.8-9.9,7.5-9.9,7.5
		c-4.8,4-5.1,6.1-5.1,6.1c0.3,3.5-2.3,2.6-2.3,2.6c-1.6,0-3.6,1.8-3.6,1.8c-1,3-5.6,1.7-5.6,1.7c-6,0.3-4.8-0.8-4.8-0.8l-2.7-2.2
		l-3.1,0.1l-2.1-1.8c-2.1-2.2-4.2-1.7-4.2-1.7c-3.8-0.5-2.6-1.4-2.6-1.4c-5.6,0-4,1.2-4,1.2c-0.1,3.3-3.8,1.7-3.8,1.7l-5.6-4
		c-4.9,0.9-7.3-1.2-7.3-1.2c-4.9-2.5-7.1,2.1-7.1,2.1c-4.9,6.5-10.6,6-10.6,6c-3.3,1-4.5,4.7-4.5,4.7c0.8,2.7-1.5,4.8-1.5,4.8
		c-1.7,4-0.8,4.2-0.8,4.2v10.1l-7.8-0.7c-4.7,0-10.4,0.7-10.4,0.7c-3.5,0.4-5.4-0.9-5.4-0.9l-4.7-4.8c-5.6,2.3-13.1-6.4-13.1-6.4
		c-5.1-0.3-7,2.2-7,2.2c-3.2,2.7-5.1,2.3-5.1,2.3c-5.2-0.3-8.3-1.7-8.3-1.7c-4.4-3.5-8.8-3.1-8.8-3.1c-5.6-0.1-7.7-3.9-7.7-3.9
		c-1.7-3.3-4.7-2.6-4.7-2.6l-3.1-0.6c-7.7-2.7-11.8-11.2-11.8-11.2l4.2,0.8l4.9-5.8c0,0,1.8-8.3,1.8-8.7c0-0.4,2.3-8.1,2.3-8.1
		s-0.6,3.5,0.3-0.6c0.9-4.2,2.1-8.2,2.1-8.2l3.4-3.9l-2.3-2.5l-0.5-5.3c0,0,0,0,0.9-3.1c0.9-3.1,2.5-9.5,2.5-9.5
		c-0.1-3.4,0.8-2.9,0.8-2.9c1.6-0.1,2.2,2.1,2.2,2.1c2.3,4.7,3.5,4.2,3.5,4.2c0.4-6.2-3.8-9-5.6-9.9c0.1,0-0.1-0.3-0.9-1
		c-2.1-1.8-0.7-3.7-0.7-3.7l1.4-4.6c1.3-3.2-0.5-6.1-0.5-6.1l-0.4-2.8c-7.4-1.3-13.7-8-13.7-8c-2.5-2.7-3.8-8-3.5-8.4
		c0.3-0.4,0-6.2,0-6.2h3.3c4.7,0,2.9-4,2.9-4c-2.3-3.5-13.3-2.4-13.3-2.4c0-1.2,0.8-4.5,1.2-4.5c0.1-1.6,0.2-1.3,0.2-1.3
		c1.2-2.2-3.5-2.9-3.5-2.9c-2.6,0-2.9-1.3-2.9-1.3c-2-1.9-4.3-0.4-4.3-0.4c-3.1,1.4-3.4-1.3-3.4-1.3c-0.3-0.6-1-1.2-1.6-1.8l0,0
		c-1.4-1.1-3.2-2-3.2-2l-4.7-1.9l-5.7-2.8c-2.2-0.7-5.3,1.1-5.3,1.1c-2.1,0.7-2.3-1.2-2.3-1.2l-3.5-4.5c-1.8-1.7,1.3-1.2,1.3-1.2
		c2.6-0.1,3-0.2,3-0.2c1.2-0.8-0.8-0.3-0.8-0.3h-2.2l0.8-3.1c0.6-2.2-2.1-4.7-2.1-4.7c-2.3-0.1-1.4-1.2-1.4-1.2
		c1.4-2.3,1.7-4.2,1.7-4.2l1,0.1l1.7-1.2c1.7-0.8,4.9-1,4.9-1l7.8,0.6l1-1.4l5.3-0.1l0.6-1.6l1.8-1.3l1.3,1l6,0.5l7.7,7.3l3.1-0.9
		c2.3-1.4,3.9-0.4,3.9-0.4c1.3,1.7,2.3,0.7,2.3,0.7l2.3-1.1c1.4-0.9,2.5,0.1,2.5,0.1l1.8,2.9H75l1.3-2.3C74.1,71.3,74,68,74,68
		c-0.6-2.6-2-14.4-2-14.4c-2.7-1.8-3.4-7.8-3.4-7.8c0-2.3,1.3-3.5,1.3-3.5l1.7,1c2.3,1,4-0.3,4-0.3l2.3,1.6v3.3l4.8,3.9l3.2,0.1
		c3.6,0.3,6.8,2.9,6.8,2.9c5.2,2.9,10.4-1.3,10.4-1.3c4.7-2.6,3.9-7.8,3.9-7.8c3.1-3.6,10.9-5.7,10.9-5.7c4.2-0.3,9.1-3.9,9.1-3.9
		l4.1-4.1l2.3-16.9c2.3-6.2,8.5-5.4,8.5-5.4c5.2-1,9-2.7,9-2.7l0.9-1l1,6.2c0.3,4,7.1,3.4,7.1,3.4l3.4,6.6l3.3,0.2l4.4,1.9
		c6,1.9,6.9,6.8,6.9,6.8c0.8,6.6,4.5,7,4.5,7c5.6,0.9,5.6-4.1,5.6-4.1h0.7v2.8c0,2.7,2.3,6.4,2.3,6.4l6.2,3c4.7,3.6,6.4,1.7,6.4,1.7
		c3-1.4,5.4,0.4,5.4,0.4c3.4-0.4,6.9,0.4,6.9,0.4c6.8,2.3,6.9,5.5,6.9,5.5c0,2.5,2,2.5,2,2.5l2.7,0.1c3.5,0,4.9,0.8,4.9,0.8
		l15.5,4.3c2.1,0.5,1.3,4.1,1.3,4.1c-2.1,3.3-5.3,8-5.3,8c-4.3,8.1-3.5,21.5-3.5,21.5c0.1,0.2,0.2,0.6,0.3,0.6 M41,96"/>
	<g>
		<path fill="none" stroke="#F9EFE1" stroke-width="3" stroke-linejoin="round" stroke-miterlimit="10" d="M241,96.1
			c-0.1-0.2-0.2-0.5-0.3-0.7c0,0-0.8-13.5,3.5-21.5c0,0,3.3-4.8,5.3-8c0,0,0.8-3.6-1.3-4.1l-15.5-4.3c0,0-1.4-0.8-4.9-0.8l-2.7-0.1
			c0,0-1.9,0-1.9-2.5c0,0-0.1-3.1-6.9-5.5c0,0-3.5-0.8-6.9-0.4c0,0-2.3-1.8-5.3-0.4c0,0-1.7,1.9-6.4-1.7l-6.1-3c0,0-2.1-3.6-2.1-6.4
			v-3.3h-1.2c0,0,0,5.3-5.6,4.4c0,0-3.8-0.2-4.5-6.8c0,0-0.9-4.8-6.9-6.8l-4.4-1.9l-3.3-0.2l-3.4-6.6c0,0-6.9,0.6-7.1-3.4L152,6
			l-0.9,1c0,0-3.8,1.7-9,2.7c0,0-6.2-0.9-8.5,5.4l-2.3,16.9l-4.1,4.1c0,0-4.9,3.6-9.1,3.9c0,0-7.8,2.1-10.9,5.7c0,0,0.8,5.2-3.9,7.8
			c0,0-5.2,4.2-10.4,1.3c0,0-3.1-2.6-6.8-2.9L83,51.7l-4.5-3.9v-3.3L75.9,43c0,0-1.9,1.3-4.3,0.3l-1.7-1c0,0-1.3,1.2-1.3,3.5
			c0,0,0.7,6,3.4,7.8c0,0,1.3,11.7,2,14.3c0,0,0.1,3.2,2.4,3.6l-1.3,2h-5.3l-1.8-2.6c0,0-1-0.7-2.5,0.2l-2.3,1.1c0,0-1,1-2.3-0.7
			c0,0-1.6-1.1-3.9,0.4l-3.1,0.9L46,65.4l-6-0.5l-1.3-1l-1.8,1.3l-0.6,1.6L31,66.8l-1,1.4l-7.8-0.7c0,0-3.3,0.3-4.9,1l-1.7,1.2
			l-1-0.1c0,0-0.3,1.8-1.7,4.2c0,0-0.9,1,1.4,1.2c0,0,2.7,2.4,2.1,4.6l-0.8,2.9h2.2c0,0,1.9-0.2,0.8,0.6c0,0-0.4,0.3-3,0.4
			c0,0-3.1-0.4-1.3,1.2l3.5,4.5c0,0,0.3,1.9,2.3,1.2c0,0,3.1-1.7,5.3-1.1l5.7,2.8l4.7,1.9c0,0,1.7,0.8,3.2,2"/>
		<path fill="none" stroke="#F9EFE1" stroke-width="3" stroke-linejoin="round" stroke-miterlimit="10" d="M38.9,96.1
			c0.7,0.5,1.3,1.2,1.6,1.8c0,0,0.3,2.7,3.4,1.3c0,0,2.3-1.5,4.3,0.4c0,0,0.3,1.3,2.9,1.3c0,0,4.7,0.6,3.5,2.9c0,0-0.1-0.2-0.2,1.3
			c-0.4,0-1.2,3.2-1.2,4.4c0,0,10.9-1.2,13.3,2.3c0,0,1.8,3.7-2.9,3.7h-3.3c0,0,0.3,6,0,6.4c-0.3,0.4,1,6,3.5,8.7
			c0,0,6.2,6.7,13.7,8l0.4,2.8c0,0,1.8,2.9,0.5,6.1l-1.4,4.6c0,0-1.4,1.9,0.7,3.7c0.8,0.7,1,1,0.9,1c1.8,0.9,6,3.7,5.6,9.9
			c0,0-1.2,0.5-3.5-4.2c0,0-0.7-2.2-2.2-2.1c0,0-0.9-0.5-0.8,2.9c0,0-1.6,6.4-2.5,9.5c-0.9,3.1-0.9,3.1-0.9,3.1l0.5,5.3l2.3,2.5
			l-3.4,3.9c0,0-1.2,4-2.1,8.2c-0.9,4.2-0.3,0.7-0.3,0.7s-2.3,7.7-2.3,8.1c0,0.4-1.8,8.7-1.8,8.7l-4.9,5.8l-4.2-0.8
			c0,0,4.2,8.5,11.8,11.2l3.1,0.6c0,0,3-0.6,4.7,2.6c0,0,2.1,3.8,7.7,3.9c0,0,4.4-0.4,8.8,3.1c0,0,3.1,1.4,8.3,1.7
			c0,0,1.8,0.4,5.1-2.3c0,0,2-2.5,7-2.2c0,0,7.5,8.7,13.1,6.4l4.7,4.8c0,0,1.9,1.3,5.5,0.9c0,0,5.8-0.7,10.5-0.7l8,0.7v-10.1
			c0,0-1.1-0.1,0.6-4.2c0,0,2-2.1,1.2-4.8c0,0,1.2-3.6,4.5-4.7c0,0,5.6,0.5,10.6-6c0,0,2.2-4.6,7.1-2.1c0,0,2.4,2.1,7.3,1.2l5.6,4
			c0,0,3.6,1.6,3.8-1.7c0,0-1.6-1.2,4-1.2c0,0-1.2,0.9,2.6,1.4c0,0,2.1-0.5,4.2,1.7l2.1,1.8l3.1-0.1l2.7,2.2c0,0-1.2,1,4.8,0.8
			c0,0,4.6,1.3,5.6-1.7c0,0,2.1-1.8,3.6-1.8c0,0,2.6,0.9,2.3-2.6c0,0,0.3-2.1,5.1-6.1c0,0,6.6-5.7,9.9-7.5c0,0,3.6-0.9,2.7-4.9
			l-1-5.1c0,0-0.4-1.7-3.5-1.7l-6.5-0.3c0,0-3.4-2.5-3.6-5.9c0,0-0.9-4-0.1-8.2c0,0,0.7-3.4-2.1-3.5c0,0-3.1-0.3-2.5-4.2
			c0,0-0.7-2.9,3.4-6.2c0,0,3.9-1.8,1.6-5.9l-4.2-8.8c0,0-2.1-2.7,1.2-4.2c0,0,3.8,1.3,1.7-1.8c0,0-0.6-1.2-3.2-1.7
			c0,0-1-0.5-1.2-4.7c0,0,0.1-5.2-2-5.2c0,0-1.6-0.1-2.1-0.7c0,0-1.7-1.9-4,1.6l-3.4,4.9c0,0-0.8,0.9-1.8,0c0,0-3.3,1.3-2.3-3.6
			l0.3-4.9l3.6-6.6c0,0,1.3-1,2.5-2c0,0,0.9-1.4,1.3-3.5c0,0,1.6-3.8,4.9-7.3l4.2-4.3c0,0-0.8-1.7,0.3-3.7h8.2c1-2,2.4-2.6,2.4-3.7
			c0,0,0.1-3-0.8-5.5"/>
	</g>
</g>
</svg>
