<?xml version="1.0" encoding="utf-8"?>
<!-- Generator: Adobe Illustrator 18.0.0, SVG Export Plug-In . SVG Version: 6.00 Build 0)  -->
<!DOCTYPE svg PUBLIC "-//W3C//DTD SVG 1.0//EN" "http://www.w3.org/TR/2001/REC-SVG-20010904/DTD/svg10.dtd">
<svg version="1.0" id="Calque_1" xmlns="http://www.w3.org/2000/svg" xmlns:xlink="http://www.w3.org/1999/xlink" x="0px" y="0px"
	 viewBox="0 0 115.5 25" enable-background="new 0 0 115.5 25" xml:space="preserve">
<g>
	<g>
		<path fill="#C6591E" d="M0.8,12.2L0,2.4l2.2-0.2l0.7,7.8L7,9.7l0.2,1.9L0.8,12.2z"/>
		<path fill="#C6591E" d="M15.1,1.3l0.1,1.9l-4.9,0.3l0.1,2l4.4-0.3L15,7.1l-4.4,0.3l0.1,2l5-0.4l0.1,1.9l-7.2,0.5L8.1,1.8L15.1,1.3
			z"/>
		<path fill="#C6591E" d="M23.4,2.8c-0.2,0.2-0.3,0.4-0.3,0.7c0,0.3,0.2,0.5,0.4,0.7c0.3,0.2,0.9,0.3,1.8,0.5
			c0.9,0.2,1.7,0.5,2.2,0.9c0.5,0.4,0.8,1.1,0.9,2c0,0.9-0.3,1.6-0.9,2.2c-0.6,0.6-1.5,0.9-2.6,0.9c-1.5,0.1-3-0.4-4.3-1.5l1.2-1.7
			c1.1,0.9,2.1,1.3,3,1.2c0.4,0,0.7-0.1,0.9-0.3c0.2-0.2,0.3-0.4,0.3-0.7c0-0.3-0.1-0.5-0.4-0.7c-0.3-0.2-0.7-0.3-1.5-0.5
			c-1.2-0.2-2-0.5-2.5-0.9c-0.5-0.4-0.8-1.1-0.9-2c0-0.9,0.3-1.7,0.9-2.2c0.6-0.5,1.5-0.8,2.5-0.9c0.7,0,1.3,0,2,0.2
			c0.7,0.2,1.2,0.5,1.8,0.9l-1,1.6c-0.9-0.6-1.8-0.9-2.7-0.8C23.9,2.5,23.6,2.6,23.4,2.8z"/>
		<path fill="#C6591E" d="M37.2,10.1l-1-2.1l-4.1,0.1l-0.8,2.1L29,10.3l3.9-9.9L35,0.3l4.5,9.6L37.2,10.1z M34.1,3.3l-1.1,2.9
			l2.4-0.1L34.1,3.3z"/>
		<path fill="#C6591E" d="M43.6,6.4L46,0.1l2.4,0l-3.8,9.9l-1.8,0l-4.1-9.7l2.4,0L43.6,6.4z"/>
		<path fill="#C6591E" d="M49.6,0l2.2,0l0.1,9.8l-2.2,0L49.6,0z"/>
		<path fill="#C6591E" d="M61.3,0l0,1.9l-4.9,0l0,2l4.4,0l0,1.9l-4.4,0l0,2l5,0l0,1.9l-7.2,0l0-9.8L61.3,0z"/>
		<path fill="#C6591E" d="M62.8,9.8l0-1.5L68,2l-5-0.1l0-1.9L71,0.1l0,1.5L65.8,8L71,8l0,1.9L62.8,9.8z"/>
		<path fill="#C6591E" d="M80.3,6.6L83,0.5l2.4,0.1l-4.3,9.6l-1.8-0.1l-3.6-9.9L78,0.3L80.3,6.6z"/>
		<path fill="#C6591E" d="M94.2,9.5c-1,0.9-2.3,1.3-3.7,1.3c-1.4-0.1-2.6-0.6-3.6-1.6c-0.9-1-1.4-2.2-1.3-3.7
			c0.1-1.4,0.6-2.6,1.7-3.5c1-0.9,2.3-1.3,3.7-1.3c1.4,0.1,2.6,0.6,3.6,1.6c0.9,1,1.4,2.2,1.3,3.7C95.8,7.4,95.2,8.6,94.2,9.5z
			 M93.6,5.9c0-0.9-0.2-1.6-0.7-2.3c-0.5-0.6-1.2-1-2-1c-0.8,0-1.5,0.2-2.1,0.8c-0.6,0.6-0.9,1.3-1,2.2c0,0.9,0.2,1.6,0.7,2.3
			c0.5,0.6,1.2,1,2,1s1.5-0.2,2.1-0.8C93.3,7.4,93.6,6.7,93.6,5.9z"/>
		<path fill="#C6591E" d="M100.2,8.7c0.3,0.5,0.8,0.7,1.4,0.8c0.6,0,1.1-0.1,1.5-0.6c0.4-0.4,0.6-1,0.7-1.8l0.4-5.4l2.2,0.2
			l-0.4,5.5c-0.1,1.4-0.6,2.5-1.4,3.2c-0.8,0.7-1.9,1-3.1,0.9c-1.2-0.1-2.2-0.5-2.9-1.4c-0.7-0.8-1-1.9-0.9-3.3L98,1.3l2.2,0.2
			l-0.4,5.4C99.7,7.6,99.8,8.2,100.2,8.7z"/>
		<path fill="#C6591E" d="M110.8,4.2c-0.2,0.2-0.3,0.4-0.4,0.7c0,0.3,0.1,0.5,0.3,0.7c0.2,0.2,0.8,0.4,1.7,0.8
			c0.9,0.3,1.6,0.7,2.1,1.2c0.5,0.5,0.7,1.2,0.6,2.1c-0.1,0.9-0.5,1.6-1.2,2c-0.7,0.5-1.6,0.7-2.7,0.6c-1.5-0.1-2.9-0.8-4-2.1
			l1.4-1.5c1,1,1.9,1.6,2.8,1.6c0.4,0,0.7,0,1-0.2c0.2-0.2,0.4-0.4,0.4-0.7c0-0.3-0.1-0.5-0.3-0.7c-0.2-0.2-0.7-0.4-1.4-0.7
			c-1.1-0.4-1.9-0.8-2.4-1.3c-0.5-0.5-0.7-1.2-0.6-2.1c0.1-0.9,0.5-1.6,1.2-2.1c0.7-0.4,1.6-0.6,2.6-0.5c0.7,0.1,1.3,0.2,1.9,0.5
			c0.6,0.3,1.2,0.6,1.6,1.1l-1.2,1.5c-0.8-0.7-1.6-1.1-2.5-1.2C111.3,4,111,4,110.8,4.2z"/>
	</g>
</g>
<line fill="none" stroke="#F9EFE1" stroke-width="4" stroke-linecap="round" stroke-miterlimit="10" x1="39.3" y1="22.9" x2="74.6" y2="22.9"/>
</svg>
