<?xml version="1.0" encoding="utf-8"?>
<!-- Generator: Adobe Illustrator 18.0.0, SVG Export Plug-In . SVG Version: 6.00 Build 0)  -->
<!DOCTYPE svg PUBLIC "-//W3C//DTD SVG 1.0//EN" "http://www.w3.org/TR/2001/REC-SVG-20010904/DTD/svg10.dtd">
<svg version="1.0" id="Calque_1" xmlns="http://www.w3.org/2000/svg" xmlns:xlink="http://www.w3.org/1999/xlink" x="0px" y="0px"
	 viewBox="0 0 70.5 42.9" enable-background="new 0 0 70.5 42.9" xml:space="preserve">
<g>
	<g>
		<path fill="#CDBE95" d="M68.8,36.1c0,0.8-0.6,1.5-1.3,1.5h-64c-0.7,0-1.3-0.7-1.3-1.5V5.7c0-0.8,0.6-1.5,1.3-1.5h64
			c0.7,0,1.3,0.7,1.3,1.5V36.1z"/>
		<g>
			<rect x="5.6" y="16.9" fill="#E8F4F5" width="22.3" height="17.9"/>
		</g>
		<g>
			<defs>
				<rect id="SVGID_1_" x="5.6" y="16.8" width="22.3" height="17.9"/>
			</defs>
			<clipPath id="SVGID_2_">
				<use xlink:href="#SVGID_1_"  overflow="visible"/>
			</clipPath>
			<g clip-path="url(#SVGID_2_)">
				<polygon fill="#FFFFFE" points="-20.9,35.5 -16.7,36.2 11.4,15.3 7.2,14.7 				"/>
				<polygon fill="#FFFFFE" points="-15.6,36.3 -11.4,36.9 16.7,16.1 12.5,15.4 				"/>
				<polygon fill="#FFFFFE" points="4.2,35.5 8.5,36.2 36.5,15.3 32.3,14.7 				"/>
				<polygon fill="#FFFFFE" points="9.5,36.3 13.7,36.9 41.8,16.1 37.6,15.4 				"/>
			</g>
		</g>
		<g>
			<rect x="42.9" y="16.9" fill="#E8F4F5" width="22.3" height="17.9"/>
		</g>
		<g>
			<defs>
				<rect id="SVGID_3_" x="42.9" y="16.8" width="22.3" height="17.9"/>
			</defs>
			<clipPath id="SVGID_4_">
				<use xlink:href="#SVGID_3_"  overflow="visible"/>
			</clipPath>
			<g clip-path="url(#SVGID_4_)">
				<polygon fill="#FFFFFE" points="16.4,35.5 20.7,36.2 48.7,15.3 44.5,14.7 				"/>
				<polygon fill="#FFFFFE" points="21.7,36.3 26,36.9 54,16.1 49.8,15.4 				"/>
				<polygon fill="#FFFFFE" points="41.6,35.5 45.8,36.2 73.8,15.3 69.6,14.7 				"/>
				<polygon fill="#FFFFFE" points="46.8,36.3 51.1,36.9 79.1,16.1 74.9,15.4 				"/>
			</g>
		</g>
		<g>
			<defs>
				<rect id="SVGID_5_" x="2.2" y="14.3" width="67.5" height="28.6"/>
			</defs>
			<clipPath id="SVGID_6_">
				<use xlink:href="#SVGID_5_"  overflow="visible"/>
			</clipPath>
			<g clip-path="url(#SVGID_6_)">
				<defs>
					<rect id="SVGID_7_" x="3.1" y="14" width="69" height="15.1"/>
				</defs>
				<clipPath id="SVGID_8_">
					<use xlink:href="#SVGID_7_"  overflow="visible"/>
				</clipPath>
				<g clip-path="url(#SVGID_8_)">
					<polyline fill="#F8F2AB" points="4.5,18.8 29.2,18.8 27.3,13.9 6.9,13.8 					"/>
					<g>
						<defs>
							<rect id="SVGID_9_" x="2.9" y="18.8" width="30.6" height="3.5"/>
						</defs>
						<clipPath id="SVGID_10_">
							<use xlink:href="#SVGID_9_"  overflow="visible"/>
						</clipPath>
						<g clip-path="url(#SVGID_10_)">
							<ellipse fill="#47A035" cx="4.4" cy="18.9" rx="0.9" ry="0.9"/>
							<ellipse fill="#F8F2AB" cx="6.1" cy="18.9" rx="0.9" ry="0.9"/>
							<ellipse fill="#47A035" cx="7.9" cy="18.9" rx="0.9" ry="0.9"/>
							<ellipse fill="#F8F2AB" cx="9.7" cy="18.9" rx="0.9" ry="0.9"/>
							<ellipse fill="#47A035" cx="11.5" cy="18.9" rx="0.9" ry="0.9"/>
							<ellipse fill="#F8F2AB" cx="13.2" cy="18.9" rx="0.9" ry="0.9"/>
							<ellipse fill="#47A035" cx="15" cy="18.9" rx="0.9" ry="0.9"/>
							<ellipse fill="#F8F2AB" cx="16.8" cy="18.9" rx="0.9" ry="0.9"/>
							<ellipse fill="#47A035" cx="18.6" cy="18.9" rx="0.9" ry="0.9"/>
							<ellipse fill="#F8F2AB" cx="20.3" cy="18.9" rx="0.9" ry="0.9"/>
							<ellipse fill="#47A035" cx="22.1" cy="18.9" rx="0.9" ry="0.9"/>
							<ellipse fill="#F8F2AB" cx="23.9" cy="18.9" rx="0.9" ry="0.9"/>
							<ellipse fill="#47A035" cx="25.6" cy="18.9" rx="0.9" ry="0.9"/>
							<ellipse fill="#F8F2AB" cx="27.4" cy="18.9" rx="0.9" ry="0.9"/>
							<ellipse fill="#47A035" cx="29.2" cy="18.9" rx="0.9" ry="0.9"/>
						</g>
					</g>
					<polygon fill="#47A035" points="28.1,13.9 30.1,18.8 28.3,18.8 26.5,13.8 25.1,13.8 26.5,18.8 24.7,18.8 23.6,13.8 22.1,13.8 
						22.9,18.8 21.2,18.8 20.7,13.8 19.2,13.8 19.4,18.8 17.6,18.8 17.8,13.8 16.3,13.8 15.9,18.8 14.1,18.8 14.8,13.8 13.4,13.8 
						12.3,18.8 10.6,18.8 11.9,13.8 10.4,13.8 8.8,18.8 7,18.8 8.9,13.8 7.5,13.8 5.2,18.8 3.5,18.8 6,13.8 					"/>
				</g>
				<g clip-path="url(#SVGID_8_)">
					<polyline fill="#F8F2AB" points="42.1,18.8 66.9,18.8 65,13.9 44.6,13.8 					"/>
					<g>
						<defs>
							<rect id="SVGID_11_" x="40.5" y="18.8" width="30.7" height="3.5"/>
						</defs>
						<clipPath id="SVGID_12_">
							<use xlink:href="#SVGID_11_"  overflow="visible"/>
						</clipPath>
						<g clip-path="url(#SVGID_12_)">
							<ellipse fill="#47A035" cx="42" cy="18.9" rx="0.9" ry="0.9"/>
							<ellipse fill="#F8F2AB" cx="43.8" cy="18.9" rx="0.9" ry="0.9"/>
							<ellipse fill="#47A035" cx="45.5" cy="18.9" rx="0.9" ry="0.9"/>
							<ellipse fill="#F8F2AB" cx="47.3" cy="18.9" rx="0.9" ry="0.9"/>
							<ellipse fill="#47A035" cx="49.1" cy="18.9" rx="0.9" ry="0.9"/>
							<ellipse fill="#F8F2AB" cx="50.9" cy="18.9" rx="0.9" ry="0.9"/>
							<ellipse fill="#47A035" cx="52.7" cy="18.9" rx="0.9" ry="0.9"/>
							<ellipse fill="#F8F2AB" cx="54.5" cy="18.9" rx="0.9" ry="0.9"/>
							<ellipse fill="#47A035" cx="56.2" cy="18.9" rx="0.9" ry="0.9"/>
							<ellipse fill="#F8F2AB" cx="58" cy="18.9" rx="0.9" ry="0.9"/>
							<ellipse fill="#47A035" cx="59.8" cy="18.9" rx="0.9" ry="0.9"/>
							<ellipse fill="#F8F2AB" cx="61.6" cy="18.9" rx="0.9" ry="0.9"/>
							<ellipse fill="#47A035" cx="63.4" cy="18.9" rx="0.9" ry="0.9"/>
							<ellipse fill="#F8F2AB" cx="65.1" cy="18.9" rx="0.9" ry="0.9"/>
							<ellipse fill="#47A035" cx="66.9" cy="18.9" rx="0.9" ry="0.9"/>
						</g>
					</g>
					<polygon fill="#47A035" points="65.8,13.9 67.8,18.8 66,18.8 64.3,13.8 62.8,13.8 64.2,18.8 62.5,18.8 61.3,13.8 59.8,13.8 
						60.7,18.8 58.9,18.8 58.4,13.8 56.9,13.8 57.1,18.8 55.3,18.8 55.4,13.8 54,13.8 53.5,18.8 51.8,18.8 52.5,13.8 51,13.8 
						50,18.8 48.2,18.8 49.6,13.8 48.1,13.8 46.4,18.8 44.6,18.8 46.6,13.8 45.1,13.8 42.8,18.8 41.1,18.8 43.7,13.8 					"/>
				</g>
			</g>
		</g>
		<rect x="30.6" y="20.8" fill="#EAF5F6" stroke="#AB9C7D" stroke-width="6" stroke-miterlimit="10" width="9.7" height="14"/>
		<path fill="#8D826A" d="M70.5,10c0,0.5-0.6,0.9-1.3,0.9h-68C0.6,10.9,0,10.5,0,10V9.7c0-0.5,0.6-0.9,1.3-0.9h68
			c0.7,0,1.3,0.4,1.3,0.9V10z"/>
		<path fill="#8D826A" d="M70.5,6.8c0,0.5-0.6,0.9-1.3,0.9h-68C0.6,7.8,0,7.3,0,6.8V6.5C0,6,0.6,5.6,1.3,5.6h68
			c0.7,0,1.3,0.4,1.3,0.9V6.8z"/>
		<path fill="#B3C908" d="M44.5,8.5c0,0.7-0.6,1.3-1.3,1.3H28.7c-0.7,0-1.3-0.6-1.3-1.3V1.3C27.5,0.6,28,0,28.7,0h14.5
			c0.7,0,1.3,0.6,1.3,1.3V8.5z"/>
		<text transform="matrix(1 0 0 1 32.5664 7.2119)" fill="#47A035" font-family="'AvenirNext-Bold'" font-size="6.2918">BIO</text>
		<circle fill="#8D826A" cx="32.4" cy="28.1" r="0.7"/>
	</g>
</g>
</svg>
