<?xml version="1.0" encoding="utf-8"?>
<!-- Generator: Adobe Illustrator 18.0.0, SVG Export Plug-In . SVG Version: 6.00 Build 0)  -->
<!DOCTYPE svg PUBLIC "-//W3C//DTD SVG 1.0//EN" "http://www.w3.org/TR/2001/REC-SVG-20010904/DTD/svg10.dtd">
<svg version="1.0" id="Calque_1" xmlns="http://www.w3.org/2000/svg" xmlns:xlink="http://www.w3.org/1999/xlink" x="0px" y="0px"
	 viewBox="0 0 36.9 36.9" enable-background="new 0 0 36.9 36.9" xml:space="preserve">
<path fill="#D8C5B2" d="M0,18.4c0,10.2,8.3,18.4,18.4,18.4c10.2,0,18.4-8.3,18.4-18.4C36.9,8.3,28.6,0,18.4,0C8.3,0,0,8.3,0,18.4z
	 M33.1,18.4c0,8.1-6.5,14.6-14.6,14.6c-8.1,0-14.6-6.5-14.6-14.6S10.4,3.8,18.4,3.8C26.5,3.8,33.1,10.4,33.1,18.4z M10.8,14.6v7.7
	h7.7v4.8l8.6-8.6l-8.6-8.6v4.8H10.8z"/>
</svg>
