<?xml version="1.0" encoding="utf-8"?>
<!-- Generator: Adobe Illustrator 18.0.0, SVG Export Plug-In . SVG Version: 6.00 Build 0)  -->
<!DOCTYPE svg PUBLIC "-//W3C//DTD SVG 1.0//EN" "http://www.w3.org/TR/2001/REC-SVG-20010904/DTD/svg10.dtd">
<svg version="1.0" id="Calque_1" xmlns="http://www.w3.org/2000/svg" xmlns:xlink="http://www.w3.org/1999/xlink" x="0px" y="0px"
	 viewBox="0 0 71.2 29" enable-background="new 0 0 71.2 29" xml:space="preserve">
<g>
	<g>
		<g>
			<rect x="54.2" y="11.5" fill="#B3DCDE" width="15.8" height="17.5"/>
			<rect x="1.4" y="11.5" fill="#B3DCDE" width="15.8" height="17.5"/>
			<rect x="17.2" y="0" fill="#B3DCDE" width="37.2" height="11.2"/>
			<rect x="17.1" y="10.9" fill="#B3DCDE" width="37.3" height="18.1"/>
			<rect x="19.3" y="15.1" fill="#E8F4F5" width="5.1" height="12.3"/>
			<rect x="25" y="15.1" fill="#E8F4F5" width="5.1" height="12.3"/>
			<rect x="41.4" y="15.1" fill="#E8F4F5" width="5.1" height="12.3"/>
			<rect x="19.3" y="3.6" fill="#E8F4F5" width="5.1" height="5.3"/>
			<rect x="25" y="3.6" fill="#E8F4F5" width="5.1" height="5.3"/>
			<rect x="41.4" y="3.6" fill="#E8F4F5" width="5.1" height="5.3"/>
			<rect x="47.1" y="3.6" fill="#E8F4F5" width="5.1" height="5.3"/>
			<rect x="32.2" y="19.8" fill="#E8F4F5" width="3.3" height="7.5"/>
			<rect x="35.8" y="19.8" fill="#E8F4F5" width="3.3" height="7.5"/>
			<path fill="#E8F4F5" d="M24.4,27.4h-5.1V15h5.1V27.4z M19.4,27.3h5V15.1h-5V27.3z"/>
			<g>
				<defs>
					<rect id="SVGID_1_" x="25" y="15.1" width="5.1" height="12.3"/>
				</defs>
				<clipPath id="SVGID_2_">
					<use xlink:href="#SVGID_1_"  overflow="visible"/>
				</clipPath>
				<g clip-path="url(#SVGID_2_)">
					
						<rect x="22.1" y="13.1" transform="matrix(-0.9136 -0.4066 0.4066 -0.9136 34.8496 49.2809)" fill="#FFFFFE" width="1.1" height="15.7"/>
					
						<rect x="23.3" y="13.6" transform="matrix(-0.9136 -0.4067 0.4067 -0.9136 36.9269 50.795)" fill="#FFFFFE" width="1.1" height="15.7"/>
					
						<rect x="27.8" y="13.1" transform="matrix(-0.9135 -0.4068 0.4068 -0.9135 45.7596 51.6047)" fill="#FFFFFE" width="1.1" height="15.7"/>
					
						<rect x="29" y="13.6" transform="matrix(-0.9136 -0.4067 0.4067 -0.9136 47.8439 53.1154)" fill="#FFFFFE" width="1.1" height="15.7"/>
				</g>
			</g>
			<g>
				<defs>
					<rect id="SVGID_3_" x="41.4" y="15.1" width="5.1" height="12.3"/>
				</defs>
				<clipPath id="SVGID_4_">
					<use xlink:href="#SVGID_3_"  overflow="visible"/>
				</clipPath>
				<g clip-path="url(#SVGID_4_)">
					
						<rect x="38.5" y="13.1" transform="matrix(-0.9136 -0.4066 0.4066 -0.9136 66.2077 55.9439)" fill="#FFFFFE" width="1.1" height="15.7"/>
					
						<rect x="39.7" y="13.6" transform="matrix(-0.9136 -0.4067 0.4067 -0.9136 68.2851 57.4587)" fill="#FFFFFE" width="1.1" height="15.7"/>
					
						<rect x="44.2" y="13.1" transform="matrix(-0.9136 -0.4066 0.4066 -0.9136 77.125 58.2636)" fill="#FFFFFE" width="1.1" height="15.7"/>
					
						<rect x="45.4" y="13.6" transform="matrix(-0.9136 -0.4067 0.4067 -0.9136 79.2007 59.7802)" fill="#FFFFFE" width="1.1" height="15.7"/>
				</g>
			</g>
			<rect x="47.1" y="15.1" fill="#E8F4F5" width="5.1" height="12.3"/>
			<g>
				<defs>
					<rect id="SVGID_5_" x="47.1" y="15.1" width="5" height="12.3"/>
				</defs>
				<clipPath id="SVGID_6_">
					<use xlink:href="#SVGID_5_"  overflow="visible"/>
				</clipPath>
				<g clip-path="url(#SVGID_6_)">
					<polygon fill="#FFFFFE" points="41.1,27.9 42.1,28.3 48.4,14 47.5,13.6 					"/>
					<polygon fill="#FFFFFE" points="42.3,28.4 43.3,28.8 49.6,14.5 48.7,14.1 					"/>
					<polygon fill="#FFFFFE" points="46.8,27.9 47.7,28.3 54.1,14 53.1,13.6 					"/>
					<polygon fill="#FFFFFE" points="48,28.4 48.9,28.8 55.3,14.5 54.3,14.1 					"/>
				</g>
			</g>
			<rect x="57" y="15.1" fill="#E8F4F5" width="5.1" height="12.3"/>
			<g>
				<defs>
					<rect id="SVGID_7_" x="57" y="15.1" width="5.1" height="12.3"/>
				</defs>
				<clipPath id="SVGID_8_">
					<use xlink:href="#SVGID_7_"  overflow="visible"/>
				</clipPath>
				<g clip-path="url(#SVGID_8_)">
					
						<rect x="54.1" y="13.1" transform="matrix(-0.9137 -0.4065 0.4065 -0.9137 96.0038 62.2674)" fill="#FFFFFE" width="1.1" height="15.7"/>
					
						<rect x="55.3" y="13.6" transform="matrix(-0.9136 -0.4065 0.4065 -0.9136 98.0813 63.7833)" fill="#FFFFFE" width="1.1" height="15.7"/>
					
						<rect x="59.8" y="13.1" transform="matrix(-0.9136 -0.4066 0.4066 -0.9136 106.9132 64.5951)" fill="#FFFFFE" width="1.1" height="15.7"/>
					
						<rect x="61" y="13.6" transform="matrix(-0.9136 -0.4067 0.4067 -0.9136 108.9902 66.1119)" fill="#FFFFFE" width="1.1" height="15.7"/>
				</g>
			</g>
			<rect x="62.7" y="15.1" fill="#E8F4F5" width="5.1" height="12.3"/>
			<g>
				<defs>
					<rect id="SVGID_9_" x="62.7" y="15.1" width="5.1" height="12.3"/>
				</defs>
				<clipPath id="SVGID_10_">
					<use xlink:href="#SVGID_9_"  overflow="visible"/>
				</clipPath>
				<g clip-path="url(#SVGID_10_)">
					
						<rect x="59.8" y="13.1" transform="matrix(-0.9137 -0.4065 0.4065 -0.9137 106.9672 64.6565)" fill="#FFFFFE" width="1.1" height="15.7"/>
					
						<rect x="61" y="13.7" transform="matrix(-0.9136 -0.4066 0.4066 -0.9136 109.0419 66.1762)" fill="#FFFFFE" width="1.1" height="15.7"/>
					
						<rect x="65.5" y="13.1" transform="matrix(-0.9136 -0.4066 0.4066 -0.9136 117.876 66.9855)" fill="#FFFFFE" width="1.1" height="15.7"/>
					
						<rect x="66.7" y="13.7" transform="matrix(-0.9137 -0.4064 0.4064 -0.9137 119.9673 68.4855)" fill="#FFFFFE" width="1.1" height="15.7"/>
				</g>
			</g>
			<rect x="4.2" y="15.1" fill="#E8F4F5" width="5.1" height="12.3"/>
			<g>
				<defs>
					<rect id="SVGID_11_" x="4.2" y="15.1" width="5.1" height="12.3"/>
				</defs>
				<clipPath id="SVGID_12_">
					<use xlink:href="#SVGID_11_"  overflow="visible"/>
				</clipPath>
				<g clip-path="url(#SVGID_12_)">
					
						<rect x="1.3" y="13.1" transform="matrix(-0.9136 -0.4066 0.4066 -0.9136 -5.0462 40.8036)" fill="#FFFFFE" width="1.1" height="15.7"/>
					
						<rect x="2.5" y="13.6" transform="matrix(-0.9136 -0.4067 0.4067 -0.9136 -2.9664 42.3159)" fill="#FFFFFE" width="1.1" height="15.7"/>
					
						<rect x="7" y="13.1" transform="matrix(-0.9136 -0.4066 0.4066 -0.9136 5.8709 43.1236)" fill="#FFFFFE" width="1.1" height="15.7"/>
					
						<rect x="8.2" y="13.6" transform="matrix(-0.9136 -0.4067 0.4067 -0.9136 7.9507 44.636)" fill="#FFFFFE" width="1.1" height="15.7"/>
				</g>
			</g>
			<rect x="9.9" y="15.1" fill="#E8F4F5" width="5.1" height="12.3"/>
			<g>
				<defs>
					<rect id="SVGID_13_" x="9.9" y="15.1" width="5.1" height="12.3"/>
				</defs>
				<clipPath id="SVGID_14_">
					<use xlink:href="#SVGID_13_"  overflow="visible"/>
				</clipPath>
				<g clip-path="url(#SVGID_14_)">
					
						<rect x="7" y="13.1" transform="matrix(-0.9136 -0.4066 0.4066 -0.9136 5.9302 43.136)" fill="#FFFFFE" width="1.1" height="15.7"/>
					
						<rect x="8.2" y="13.6" transform="matrix(-0.9136 -0.4065 0.4065 -0.9136 8.0127 44.6486)" fill="#FFFFFE" width="1.1" height="15.7"/>
					
						<rect x="12.7" y="13.1" transform="matrix(-0.9136 -0.4066 0.4066 -0.9136 16.846 45.4558)" fill="#FFFFFE" width="1.1" height="15.7"/>
					
						<rect x="13.9" y="13.6" transform="matrix(-0.9136 -0.4067 0.4067 -0.9136 18.9252 46.9688)" fill="#FFFFFE" width="1.1" height="15.7"/>
				</g>
			</g>
			<g>
				<defs>
					<rect id="SVGID_15_" x="19.3" y="15.1" width="5.1" height="12.3"/>
				</defs>
				<clipPath id="SVGID_16_">
					<use xlink:href="#SVGID_15_"  overflow="visible"/>
				</clipPath>
				<g clip-path="url(#SVGID_16_)">
					
						<rect x="16.5" y="13.1" transform="matrix(-0.9136 -0.4066 0.4066 -0.9136 23.9903 46.9735)" fill="#FFFFFE" width="1.1" height="15.7"/>
					
						<rect x="17.7" y="13.6" transform="matrix(-0.9136 -0.4067 0.4067 -0.9136 26.0678 48.4869)" fill="#FFFFFE" width="1.1" height="15.7"/>
					
						<rect x="22.2" y="13.1" transform="matrix(-0.9136 -0.4066 0.4066 -0.9136 34.9064 49.2937)" fill="#FFFFFE" width="1.1" height="15.7"/>
					
						<rect x="23.4" y="13.6" transform="matrix(-0.9136 -0.4067 0.4067 -0.9136 36.9848 50.8073)" fill="#FFFFFE" width="1.1" height="15.7"/>
				</g>
			</g>
			<path fill="#94B8B4" d="M71.2,14c0,0.2-0.6,0.4-1.3,0.4H1.3C0.6,14.4,0,14.2,0,14v-0.1c0-0.2,0.6-0.4,1.3-0.4h68.7
				c0.7,0,1.3,0.2,1.3,0.4V14z"/>
			<path fill="#94B8B4" d="M71.2,12.9c0,0.2-0.6,0.4-1.3,0.4H1.3c-0.7,0-1.3-0.2-1.3-0.4v-0.1c0-0.2,0.6-0.4,1.3-0.4h68.7
				c0.7,0,1.3,0.2,1.3,0.4V12.9z"/>
			<path fill="#94B8B4" d="M56,1.2c0,0.2-0.3,0.4-0.7,0.4H16.4c-0.4,0-0.7-0.2-0.7-0.4V1c0-0.2,0.3-0.4,0.7-0.4h38.8
				C55.6,0.7,56,0.8,56,1V1.2z"/>
			<path fill="#94B8B4" d="M56,2.4c0,0.2-0.3,0.4-0.7,0.4H16.4c-0.4,0-0.7-0.2-0.7-0.4V2.3c0-0.2,0.3-0.4,0.7-0.4h38.8
				c0.4,0,0.7,0.2,0.7,0.4V2.4z"/>
			<text transform="matrix(1 0 0 1 37.3912 14.3594)" fill="#E62142" font-family="'AvenirNext-Bold'" font-size="5.9384">MARCHÉ</text>
			<text transform="matrix(1 0 0 1 16.0123 14.3594)" fill="#E62142" font-family="'AvenirNext-Bold'" font-size="5.9384">SUPER</text>
			<g>
				<defs>
					<rect id="SVGID_17_" x="19.2" y="3.6" width="5.8" height="5.2"/>
				</defs>
				<clipPath id="SVGID_18_">
					<use xlink:href="#SVGID_17_"  overflow="visible"/>
				</clipPath>
				<g clip-path="url(#SVGID_18_)">
					<defs>
						<rect id="SVGID_19_" x="19.3" y="-0.8" width="5.1" height="12.3"/>
					</defs>
					<clipPath id="SVGID_20_">
						<use xlink:href="#SVGID_19_"  overflow="visible"/>
					</clipPath>
					<g clip-path="url(#SVGID_20_)">
						
							<rect x="16.5" y="-2.7" transform="matrix(-0.9136 -0.4066 0.4066 -0.9136 30.4312 16.6605)" fill="#FFFFFE" width="1.1" height="15.7"/>
						
							<rect x="17.7" y="-2.2" transform="matrix(-0.9136 -0.4067 0.4067 -0.9136 32.5106 18.1746)" fill="#FFFFFE" width="1.1" height="15.7"/>
						
							<rect x="22.2" y="-2.7" transform="matrix(-0.9136 -0.4066 0.4066 -0.9136 41.3479 18.9809)" fill="#FFFFFE" width="1.1" height="15.7"/>
						
							<rect x="23.4" y="-2.2" transform="matrix(-0.9136 -0.4067 0.4067 -0.9136 43.4276 20.495)" fill="#FFFFFE" width="1.1" height="15.7"/>
					</g>
				</g>
			</g>
			<g>
				<defs>
					<rect id="SVGID_21_" x="24.9" y="3.6" width="5.8" height="5.2"/>
				</defs>
				<clipPath id="SVGID_22_">
					<use xlink:href="#SVGID_21_"  overflow="visible"/>
				</clipPath>
				<g clip-path="url(#SVGID_22_)">
					<defs>
						<rect id="SVGID_23_" x="25" y="-0.8" width="5.1" height="12.3"/>
					</defs>
					<clipPath id="SVGID_24_">
						<use xlink:href="#SVGID_23_"  overflow="visible"/>
					</clipPath>
					<g clip-path="url(#SVGID_24_)">
						
							<rect x="22.1" y="-2.7" transform="matrix(-0.9137 -0.4065 0.4065 -0.9137 41.1759 18.9402)" fill="#FFFFFE" width="1.1" height="15.7"/>
						
							<rect x="23.3" y="-2.2" transform="matrix(-0.9136 -0.4065 0.4065 -0.9136 43.2563 20.4542)" fill="#FFFFFE" width="1.1" height="15.7"/>
						
							<rect x="27.8" y="-2.7" transform="matrix(-0.9136 -0.4066 0.4066 -0.9136 52.0904 21.2638)" fill="#FFFFFE" width="1.1" height="15.7"/>
						
							<rect x="29" y="-2.2" transform="matrix(-0.9136 -0.4065 0.4065 -0.9136 54.1743 22.7726)" fill="#FFFFFE" width="1.1" height="15.7"/>
					</g>
				</g>
			</g>
			<g>
				<defs>
					<rect id="SVGID_25_" x="41.3" y="3.6" width="5.8" height="5.2"/>
				</defs>
				<clipPath id="SVGID_26_">
					<use xlink:href="#SVGID_25_"  overflow="visible"/>
				</clipPath>
				<g clip-path="url(#SVGID_26_)">
					<defs>
						<rect id="SVGID_27_" x="41.3" y="-0.8" width="5.1" height="12.3"/>
					</defs>
					<clipPath id="SVGID_28_">
						<use xlink:href="#SVGID_27_"  overflow="visible"/>
					</clipPath>
					<g clip-path="url(#SVGID_28_)">
						
							<rect x="38.5" y="-2.7" transform="matrix(-0.9136 -0.4066 0.4066 -0.9136 72.5321 25.6075)" fill="#FFFFFE" width="1.1" height="15.7"/>
						
							<rect x="39.7" y="-2.2" transform="matrix(-0.9136 -0.4067 0.4067 -0.9136 74.6112 27.123)" fill="#FFFFFE" width="1.1" height="15.7"/>
						
							<rect x="44.2" y="-2.7" transform="matrix(-0.9136 -0.4066 0.4066 -0.9136 83.4488 27.9274)" fill="#FFFFFE" width="1.1" height="15.7"/>
						
							<rect x="45.4" y="-2.2" transform="matrix(-0.9136 -0.4065 0.4065 -0.9136 85.5336 29.4342)" fill="#FFFFFE" width="1.1" height="15.7"/>
					</g>
				</g>
			</g>
			<g>
				<defs>
					<rect id="SVGID_29_" x="47.1" y="3.6" width="5.7" height="5.2"/>
				</defs>
				<clipPath id="SVGID_30_">
					<use xlink:href="#SVGID_29_"  overflow="visible"/>
				</clipPath>
				<g clip-path="url(#SVGID_30_)">
					<defs>
						<rect id="SVGID_31_" x="47.2" y="-0.8" width="5" height="12.3"/>
					</defs>
					<clipPath id="SVGID_32_">
						<use xlink:href="#SVGID_31_"  overflow="visible"/>
					</clipPath>
					<g clip-path="url(#SVGID_32_)">
						<polygon fill="#FFFFFE" points="41.2,12 42.2,12.5 48.5,-1.8 47.5,-2.3 						"/>
						<polygon fill="#FFFFFE" points="42.4,12.6 43.4,13 49.6,-1.3 48.7,-1.7 						"/>
						<polygon fill="#FFFFFE" points="46.9,12 47.8,12.5 54.1,-1.8 53.1,-2.3 						"/>
						<polygon fill="#FFFFFE" points="48,12.6 49,13 55.3,-1.3 54.3,-1.7 						"/>
					</g>
				</g>
			</g>
		</g>
	</g>
</g>
</svg>
