<?xml version="1.0" encoding="utf-8"?>
<!-- Generator: Adobe Illustrator 18.0.0, SVG Export Plug-In . SVG Version: 6.00 Build 0)  -->
<!DOCTYPE svg PUBLIC "-//W3C//DTD SVG 1.0//EN" "http://www.w3.org/TR/2001/REC-SVG-20010904/DTD/svg10.dtd">
<svg version="1.0" id="Calque_1" xmlns="http://www.w3.org/2000/svg" xmlns:xlink="http://www.w3.org/1999/xlink" x="0px" y="0px"
	 viewBox="0 0 74.3 42" enable-background="new 0 0 74.3 42" xml:space="preserve">
<g>
	<g>
		<rect x="9.4" y="23.9" fill="#5A3215" width="14.5" height="10.3"/>
		<rect x="50.3" y="23.9" fill="#5A3215" width="14.5" height="10.3"/>
		<path fill="#5A3215" d="M7.6,39.9c0,0.5-0.5,0.9-1.2,0.9l0,0c-0.7,0-1.2-0.4-1.2-0.9V18.1c0-0.5,0.5-0.9,1.2-0.9l0,0
			c0.7,0,1.2,0.4,1.2,0.9V39.9z"/>
		<path fill="#5A3215" d="M10.4,39.9c0,0.5-0.5,0.9-1.2,0.9l0,0c-0.7,0-1.2-0.4-1.2-0.9V18.1c0-0.5,0.5-0.9,1.2-0.9l0,0
			c0.7,0,1.2,0.4,1.2,0.9V39.9z"/>
		<path fill="#5A3215" d="M13.3,39.9c0,0.5-0.5,0.9-1.2,0.9l0,0c-0.7,0-1.2-0.4-1.2-0.9V18.1c0-0.5,0.5-0.9,1.2-0.9l0,0
			c0.7,0,1.2,0.4,1.2,0.9V39.9z"/>
		<path fill="#5A3215" d="M16.1,39.9c0,0.5-0.5,0.9-1.2,0.9l0,0c-0.7,0-1.2-0.4-1.2-0.9V18.1c0-0.5,0.5-0.9,1.2-0.9l0,0
			c0.7,0,1.2,0.4,1.2,0.9V39.9z"/>
		<path fill="#5A3215" d="M18.9,39.9c0,0.5-0.5,0.9-1.2,0.9l0,0c-0.7,0-1.2-0.4-1.2-0.9V18.1c0-0.5,0.5-0.9,1.2-0.9l0,0
			c0.7,0,1.2,0.4,1.2,0.9V39.9z"/>
		<path fill="#5A3215" d="M21.7,39.9c0,0.5-0.5,0.9-1.2,0.9l0,0c-0.7,0-1.2-0.4-1.2-0.9V18.1c0-0.5,0.5-0.9,1.2-0.9l0,0
			c0.7,0,1.2,0.4,1.2,0.9V39.9z"/>
		<path fill="#5A3215" d="M24.5,39.9c0,0.5-0.5,0.9-1.2,0.9l0,0c-0.7,0-1.2-0.4-1.2-0.9V18.1c0-0.5,0.5-0.9,1.2-0.9l0,0
			c0.7,0,1.2,0.4,1.2,0.9V39.9z"/>
		<path fill="#5A3215" d="M27.4,39.9c0,0.5-0.5,0.9-1.2,0.9l0,0c-0.7,0-1.2-0.4-1.2-0.9V18.1c0-0.5,0.5-0.9,1.2-0.9l0,0
			c0.7,0,1.2,0.4,1.2,0.9V39.9z"/>
		<path fill="#5A3215" d="M30.2,39.9c0,0.5-0.5,0.9-1.2,0.9l0,0c-0.7,0-1.2-0.4-1.2-0.9V18.1c0-0.5,0.5-0.9,1.2-0.9l0,0
			c0.7,0,1.2,0.4,1.2,0.9V39.9z"/>
		<path fill="#5A3215" d="M33,39.9c0,0.5-0.5,0.9-1.2,0.9l0,0c-0.7,0-1.2-0.4-1.2-0.9V18.1c0-0.5,0.5-0.9,1.2-0.9l0,0
			c0.7,0,1.2,0.4,1.2,0.9V39.9z"/>
		<path fill="#5A3215" d="M35.8,39.9c0,0.5-0.5,0.9-1.2,0.9l0,0c-0.7,0-1.2-0.4-1.2-0.9V18.1c0-0.5,0.5-0.9,1.2-0.9l0,0
			c0.7,0,1.2,0.4,1.2,0.9V39.9z"/>
		<path fill="#5A3215" d="M38.6,39.9c0,0.5-0.5,0.9-1.2,0.9l0,0c-0.7,0-1.2-0.4-1.2-0.9V18.1c0-0.5,0.5-0.9,1.2-0.9l0,0
			c0.7,0,1.2,0.4,1.2,0.9V39.9z"/>
		<path fill="#5A3215" d="M41.5,39.9c0,0.5-0.5,0.9-1.2,0.9l0,0c-0.7,0-1.2-0.4-1.2-0.9V18.1c0-0.5,0.5-0.9,1.2-0.9l0,0
			c0.7,0,1.2,0.4,1.2,0.9V39.9z"/>
		<path fill="#5A3215" d="M44.3,39.9c0,0.5-0.5,0.9-1.2,0.9l0,0c-0.7,0-1.2-0.4-1.2-0.9V18.1c0-0.5,0.5-0.9,1.2-0.9l0,0
			c0.7,0,1.2,0.4,1.2,0.9V39.9z"/>
		<path fill="#5A3215" d="M47.1,39.9c0,0.5-0.5,0.9-1.2,0.9l0,0c-0.7,0-1.2-0.4-1.2-0.9V18.1c0-0.5,0.5-0.9,1.2-0.9l0,0
			c0.7,0,1.2,0.4,1.2,0.9V39.9z"/>
		<path fill="#5A3215" d="M49.9,39.9c0,0.5-0.5,0.9-1.2,0.9l0,0c-0.7,0-1.2-0.4-1.2-0.9V18.1c0-0.5,0.5-0.9,1.2-0.9l0,0
			c0.7,0,1.2,0.4,1.2,0.9V39.9z"/>
		<path fill="#5A3215" d="M52.7,39.9c0,0.5-0.5,0.9-1.2,0.9l0,0c-0.7,0-1.2-0.4-1.2-0.9V18.1c0-0.5,0.5-0.9,1.2-0.9l0,0
			c0.7,0,1.2,0.4,1.2,0.9V39.9z"/>
		<path fill="#5A3215" d="M55.6,39.9c0,0.5-0.5,0.9-1.2,0.9l0,0c-0.7,0-1.2-0.4-1.2-0.9V18.1c0-0.5,0.5-0.9,1.2-0.9l0,0
			c0.7,0,1.2,0.4,1.2,0.9V39.9z"/>
		<path fill="#5A3215" d="M58.4,39.9c0,0.5-0.5,0.9-1.2,0.9l0,0c-0.7,0-1.2-0.4-1.2-0.9V18.1c0-0.5,0.5-0.9,1.2-0.9l0,0
			c0.7,0,1.2,0.4,1.2,0.9V39.9z"/>
		<path fill="#5A3215" d="M61.2,39.9c0,0.5-0.5,0.9-1.2,0.9l0,0c-0.7,0-1.2-0.4-1.2-0.9V18.1c0-0.5,0.5-0.9,1.2-0.9l0,0
			c0.7,0,1.2,0.4,1.2,0.9V39.9z"/>
		<path fill="#5A3215" d="M64,39.9c0,0.5-0.5,0.9-1.2,0.9l0,0c-0.7,0-1.2-0.4-1.2-0.9V18.1c0-0.5,0.5-0.9,1.2-0.9l0,0
			c0.7,0,1.2,0.4,1.2,0.9V39.9z"/>
		<path fill="#5A3215" d="M66.9,39.9c0,0.5-0.5,0.9-1.2,0.9l0,0c-0.7,0-1.2-0.4-1.2-0.9V18.1c0-0.5,0.5-0.9,1.2-0.9l0,0
			c0.7,0,1.2,0.4,1.2,0.9V39.9z"/>
		<path fill="#5A3215" d="M69.7,39.9c0,0.5-0.5,0.9-1.2,0.9l0,0c-0.7,0-1.2-0.4-1.2-0.9V18.1c0-0.5,0.5-0.9,1.2-0.9l0,0
			c0.7,0,1.2,0.4,1.2,0.9V39.9z"/>
		<path fill="#311D13" d="M45.5,39.5c0,0.8-0.4,1.4-0.8,1.4H30.4c-0.5,0-0.8-0.6-0.8-1.4V25.7c0-0.8,0.4-1.4,0.8-1.4h14.3
			c0.5,0,0.8,0.6,0.8,1.4V39.5z"/>
		<g>
			<defs>
				<rect id="SVGID_1_" x="-4.5" y="-3.2" width="90.7" height="20.6"/>
			</defs>
			<clipPath id="SVGID_2_">
				<use xlink:href="#SVGID_1_"  overflow="visible"/>
			</clipPath>
			<g clip-path="url(#SVGID_2_)">
				<g>
					<path fill="#311D13" d="M5,18.1c-0.2,0.3-1,0.4-1.7,0.2l0,0c-0.7-0.2-1.1-0.5-0.8-0.7c4.3-4.1,9.6-5.6,10.1-9.9
						c0-0.2,0.4-0.4,1-0.4l0,0c0.5,0,0.9,0.2,0.9,0.4C14,11.9,9.2,13.5,5,18.1z"/>
					<path fill="#311D13" d="M8,18.6c-0.2,0.3-1,0.4-1.7,0.3l0,0c-0.7-0.1-1.1-0.5-0.9-0.8c4.2-4.7,8.9-6.2,9.4-10.5
						c0-0.2,0.4-0.5,1-0.5l0,0c0.5,0,0.9,0.2,0.9,0.4C16.2,12,12,13.5,8,18.6z"/>
					<path fill="#311D13" d="M11,19.2c-0.2,0.3-1,0.5-1.7,0.4l0,0c-0.7-0.1-1.1-0.5-0.9-0.8c4-5.2,8.2-6.8,8.6-11.1
						c0-0.2,0.4-0.5,0.9-0.5l0,0c0.5,0,0.9,0.2,0.9,0.5C18.5,12,14.8,13.6,11,19.2z"/>
					<path fill="#311D13" d="M14,19.6c-0.2,0.3-1,0.5-1.7,0.4l0,0c-0.7-0.1-1.1-0.5-0.9-0.8c3.8-5.7,7.4-7.3,7.7-11.6
						c0-0.2,0.4-0.5,0.9-0.5l0,0c0.5,0,0.9,0.2,0.9,0.5C20.7,12,17.6,13.6,14,19.6z"/>
					<path fill="#311D13" d="M17,20c-0.2,0.4-0.9,0.6-1.7,0.5l0,0c-0.7-0.1-1.2-0.5-1-0.8C18,13.6,21,12,21.3,7.6
						c0-0.2,0.4-0.5,0.9-0.5l0,0c0.5,0,0.9,0.2,0.9,0.5C22.9,12,20.3,13.6,17,20z"/>
					<path fill="#311D13" d="M20.1,20.3c-0.2,0.4-0.9,0.6-1.6,0.6l0,0c-0.7-0.1-1.2-0.5-1-0.8c3.2-6.5,5.8-8.1,6-12.5
						c0-0.2,0.4-0.5,0.9-0.5l0,0c0.5,0,0.9,0.2,0.9,0.5C25.1,12,23,13.6,20.1,20.3z"/>
					<path fill="#311D13" d="M23.2,20.6c-0.1,0.4-0.9,0.7-1.6,0.6l0,0c-0.7-0.1-1.2-0.5-1-0.9c2.9-6.8,4.9-8.4,5.1-12.8
						c0-0.2,0.4-0.5,0.9-0.5l0,0c0.5,0,0.9,0.2,0.9,0.5C27.3,12,25.7,13.5,23.2,20.6z"/>
					<path fill="#311D13" d="M26.3,20.9c-0.1,0.4-0.8,0.7-1.6,0.7l0,0c-0.7-0.1-1.2-0.5-1.1-0.9c2.5-7.1,4-8.7,4.1-13.1
						c0-0.2,0.4-0.5,0.9-0.5l0,0c0.5,0,0.9,0.2,0.9,0.5C29.5,12,28.4,13.5,26.3,20.9z"/>
					<path fill="#311D13" d="M29.4,21c-0.1,0.4-0.8,0.8-1.5,0.7l0,0c-0.7,0-1.3-0.4-1.2-0.9c2-7.3,3.1-8.9,3.2-13.3
						c0-0.3,0.4-0.5,0.9-0.5l0,0c0.5,0,0.9,0.2,0.9,0.5C31.7,12,30.9,13.6,29.4,21z"/>
					<path fill="#311D13" d="M32.5,21.2c-0.1,0.4-0.7,0.8-1.5,0.7l0,0c-0.8,0-1.3-0.4-1.2-0.8c1.4-7.5,2.2-9.1,2.3-13.5
						c0-0.3,0.4-0.5,0.9-0.5l0,0c0.5,0,0.9,0.2,0.9,0.5C33.9,12,33.4,13.6,32.5,21.2z"/>
					<path fill="#311D13" d="M35.7,21.2c0,0.4-0.6,0.8-1.4,0.8l0,0c-0.8,0-1.3-0.4-1.3-0.8c0.8-7.6,1.3-9.2,1.3-13.6
						c0-0.3,0.4-0.5,0.9-0.5l0,0c0.5,0,0.9,0.2,0.9,0.5C36.1,12,36,13.6,35.7,21.2z"/>
					<path fill="#311D13" d="M38.8,21.2c0,0.4-0.6,0.8-1.3,0.8l0,0c-0.8,0-1.4-0.4-1.3-0.8c0.2-7.6,0.3-9.2,0.3-13.7
						c0-0.3,0.4-0.5,0.9-0.5l0,0c0.5,0,0.9,0.2,0.9,0.5C38.3,12,38.5,13.6,38.8,21.2z"/>
					<path fill="#311D13" d="M41.9,21.2c0.1,0.4-0.5,0.8-1.3,0.8l0,0c-0.8,0-1.4-0.3-1.4-0.8c-0.4-7.6-0.6-9.2-0.6-13.7
						c0-0.3,0.4-0.5,0.9-0.5l0,0c0.5,0,0.9,0.2,0.9,0.5C40.5,12,41,13.6,41.9,21.2z"/>
					<path fill="#311D13" d="M45,21.1c0.1,0.4-0.5,0.8-1.2,0.8l0,0c-0.8,0-1.4-0.3-1.5-0.7c-1-7.6-1.5-9.2-1.6-13.6
						c0-0.3,0.4-0.5,0.9-0.5l0,0c0.5,0,0.9,0.2,0.9,0.5C42.7,12,43.5,13.6,45,21.1z"/>
					<path fill="#311D13" d="M48.1,20.9c0.1,0.4-0.4,0.8-1.1,0.9l0,0c-0.7,0-1.4-0.3-1.5-0.7C43.9,13.6,43,12,42.9,7.6
						c0-0.3,0.4-0.5,0.9-0.5l0,0c0.5,0,0.9,0.2,0.9,0.5C44.9,12,46.1,13.5,48.1,20.9z"/>
					<path fill="#311D13" d="M51.2,20.7c0.1,0.4-0.3,0.8-1.1,0.9l0,0c-0.7,0.1-1.5-0.3-1.6-0.7c-2.1-7.3-3.3-8.9-3.5-13.3
						c0-0.3,0.4-0.5,0.9-0.5l0,0c0.5,0,0.9,0.2,0.9,0.5C47.1,12,48.7,13.5,51.2,20.7z"/>
					<path fill="#311D13" d="M54.3,20.4c0.2,0.4-0.3,0.8-1,0.9l0,0c-0.7,0.1-1.5-0.2-1.6-0.6c-2.6-7.1-4.2-8.7-4.4-13.1
						c0-0.3,0.4-0.5,0.9-0.5l0,0c0.5,0,0.9,0.2,0.9,0.5C49.3,12,51.4,13.6,54.3,20.4z"/>
					<path fill="#311D13" d="M57.4,20.1c0.2,0.4-0.3,0.8-1,0.8l0,0c-0.7,0.1-1.5-0.2-1.6-0.6c-3-6.8-5.1-8.4-5.3-12.8
						c0-0.3,0.4-0.5,0.9-0.5l0,0c0.5,0,0.9,0.2,0.9,0.5C51.5,12,54.1,13.6,57.4,20.1z"/>
					<path fill="#311D13" d="M60.5,19.7c0.2,0.3-0.2,0.7-1,0.8l0,0c-0.7,0.1-1.5-0.1-1.7-0.5c-3.3-6.5-6-8.1-6.3-12.5
						c0-0.3,0.4-0.5,0.9-0.5l0,0c0.5,0,0.9,0.2,0.9,0.5C53.7,12,56.9,13.6,60.5,19.7z"/>
					<path fill="#311D13" d="M63.5,19.3c0.2,0.3-0.2,0.7-0.9,0.8l0,0c-0.7,0.1-1.5-0.1-1.7-0.4C57.3,13.6,54,12,53.8,7.5
						c0-0.3,0.4-0.5,0.9-0.5l0,0c0.5,0,0.9,0.2,0.9,0.5C55.9,12,59.6,13.6,63.5,19.3z"/>
					<path fill="#311D13" d="M66.5,18.8c0.2,0.3-0.2,0.7-0.9,0.8l0,0c-0.7,0.1-1.5,0-1.7-0.4c-3.9-5.6-7.7-7.3-8-11.7
						c0-0.3,0.4-0.5,0.9-0.5l0,0c0.5,0,0.9,0.2,0.9,0.5C58.2,11.9,62.4,13.6,66.5,18.8z"/>
					<path fill="#311D13" d="M69.5,18.2c0.2,0.3-0.1,0.6-0.8,0.8l0,0c-0.7,0.1-1.5,0-1.7-0.3c-4.1-5.1-8.5-6.8-8.9-11.2
						c0-0.3,0.4-0.5,0.9-0.5l0,0c0.5,0,0.9,0.2,0.9,0.5C60.4,11.9,65.2,13.5,69.5,18.2z"/>
					<path fill="#311D13" d="M72.5,17.6c0.3,0.2-0.1,0.6-0.8,0.7l0,0c-0.7,0.2-1.5,0.1-1.7-0.2c-4.3-4.6-9.2-6.2-9.7-10.6
						c0-0.3,0.4-0.5,0.9-0.5l0,0c0.5,0,0.9,0.2,1,0.5C62.7,11.9,68.1,13.5,72.5,17.6z"/>
					<path fill="#311D13" d="M63.1,8.5c0.1,0.2-0.3,0.3-0.8,0.3C45.6,8.9,28.9,8.9,12.3,8.8c-0.5,0-0.9-0.1-0.8-0.3c0,0,0-0.1,0-0.1
						c0.1-0.2,0.5-0.3,1-0.3c16.5,0,33,0,49.5-0.1c0.5,0,1,0.1,1,0.3C63.1,8.4,63.1,8.4,63.1,8.5z"/>
				</g>
			</g>
		</g>
		<g>
			<rect x="51.4" y="24.6" fill="#E8F4F5" width="5.6" height="9.3"/>
		</g>
		<g>
			<defs>
				<rect id="SVGID_3_" x="51.4" y="24.6" width="5.6" height="9.3"/>
			</defs>
			<clipPath id="SVGID_4_">
				<use xlink:href="#SVGID_3_"  overflow="visible"/>
			</clipPath>
			<g clip-path="url(#SVGID_4_)">
				<polygon fill="#FFFFFE" points="44.8,34.3 45.8,34.6 52.9,23.7 51.8,23.4 				"/>
				<polygon fill="#FFFFFE" points="46.1,34.7 47.2,35 54.2,24.2 53.2,23.8 				"/>
				<polygon fill="#FFFFFE" points="51.1,34.3 52.2,34.6 59.2,23.7 58.2,23.4 				"/>
				<polygon fill="#FFFFFE" points="52.4,34.7 53.5,35 60.6,24.2 59.5,23.8 				"/>
			</g>
		</g>
		<g>
			<rect x="58.1" y="24.6" fill="#E8F4F5" width="5.6" height="9.3"/>
		</g>
		<g>
			<defs>
				<rect id="SVGID_5_" x="58.1" y="24.6" width="5.6" height="9.3"/>
			</defs>
			<clipPath id="SVGID_6_">
				<use xlink:href="#SVGID_5_"  overflow="visible"/>
			</clipPath>
			<g clip-path="url(#SVGID_6_)">
				<polygon fill="#FFFFFE" points="51.4,34.3 52.5,34.6 59.6,23.7 58.5,23.4 				"/>
				<polygon fill="#FFFFFE" points="52.7,34.7 53.8,35 60.9,24.2 59.8,23.8 				"/>
				<polygon fill="#FFFFFE" points="57.7,34.3 58.8,34.6 65.9,23.7 64.8,23.4 				"/>
				<polygon fill="#FFFFFE" points="59.1,34.7 60.1,35 67.2,24.2 66.2,23.8 				"/>
			</g>
		</g>
		<g>
			<rect x="10.6" y="24.6" fill="#E8F4F5" width="5.6" height="9.3"/>
		</g>
		<g>
			<defs>
				<rect id="SVGID_7_" x="10.6" y="24.6" width="5.6" height="9.3"/>
			</defs>
			<clipPath id="SVGID_8_">
				<use xlink:href="#SVGID_7_"  overflow="visible"/>
			</clipPath>
			<g clip-path="url(#SVGID_8_)">
				<polygon fill="#FFFFFE" points="4,34.3 5,34.6 12.1,23.7 11,23.4 				"/>
				<polygon fill="#FFFFFE" points="5.3,34.7 6.4,35 13.4,24.2 12.4,23.8 				"/>
				<polygon fill="#FFFFFE" points="10.3,34.3 11.4,34.6 18.4,23.7 17.4,23.4 				"/>
				<polygon fill="#FFFFFE" points="11.6,34.7 12.7,35 19.8,24.2 18.7,23.8 				"/>
			</g>
		</g>
		<g>
			<rect x="17.3" y="24.6" fill="#E8F4F5" width="5.6" height="9.3"/>
		</g>
		<g>
			<defs>
				<rect id="SVGID_9_" x="17.3" y="24.6" width="5.6" height="9.3"/>
			</defs>
			<clipPath id="SVGID_10_">
				<use xlink:href="#SVGID_9_"  overflow="visible"/>
			</clipPath>
			<g clip-path="url(#SVGID_10_)">
				<polygon fill="#FFFFFE" points="10.6,34.3 11.7,34.6 18.8,23.7 17.7,23.4 				"/>
				<polygon fill="#FFFFFE" points="11.9,34.7 13,35 20.1,24.2 19,23.8 				"/>
				<polygon fill="#FFFFFE" points="16.9,34.3 18,34.6 25.1,23.7 24,23.4 				"/>
				<polygon fill="#FFFFFE" points="18.3,34.7 19.3,35 26.4,24.2 25.4,23.8 				"/>
			</g>
		</g>
		<path fill="#311D13" d="M72.8,17.6c0,0.4-0.6,0.7-1.3,0.7H3.2c-0.7,0-1.3-0.3-1.3-0.7v-0.2c0-0.4,0.6-0.7,1.3-0.7h68.3
			c0.7,0,1.3,0.3,1.3,0.7V17.6z"/>
		<path fill="#311D13" d="M72.8,19.6c0,0.4-0.6,0.7-1.3,0.7H3.2c-0.7,0-1.3-0.3-1.3-0.7v-0.2c0-0.4,0.6-0.7,1.3-0.7h68.3
			c0.7,0,1.3,0.3,1.3,0.7V19.6z"/>
		<path fill="#311D13" d="M24.6,23.8c0,0.4-0.1,0.7-0.3,0.7H9.2c-0.2,0-0.3-0.3-0.3-0.7v-0.2c0-0.4,0.1-0.7,0.3-0.7h15.1
			c0.2,0,0.3,0.3,0.3,0.7V23.8z"/>
		<path fill="#311D13" d="M24.6,34.4c0,0.4-0.1,0.7-0.3,0.7H9.2c-0.2,0-0.3-0.3-0.3-0.7v-0.2c0-0.4,0.1-0.7,0.3-0.7h15.1
			c0.2,0,0.3,0.3,0.3,0.7V34.4z"/>
		<rect x="17.8" y="3.5" fill="#311D13" width="5.4" height="10.4"/>
		<path fill="#311D13" d="M10.6,33.5c0,0.2-0.1,0.3-0.3,0.3l0,0c-0.2,0-0.3-0.1-0.3-0.3v-9.6c0-0.2,0.1-0.3,0.3-0.3l0,0
			c0.2,0,0.3,0.1,0.3,0.3V33.5z"/>
		<path fill="#311D13" d="M23.8,33.5c0,0.2-0.1,0.3-0.3,0.3l0,0c-0.2,0-0.3-0.1-0.3-0.3v-9.6c0-0.2,0.1-0.3,0.3-0.3l0,0
			c0.2,0,0.3,0.1,0.3,0.3V33.5z"/>
		<path fill="#311D13" d="M64.4,33.5c0,0.2-0.1,0.3-0.3,0.3l0,0c-0.2,0-0.3-0.1-0.3-0.3v-9.6c0-0.2,0.1-0.3,0.3-0.3l0,0
			c0.2,0,0.3,0.1,0.3,0.3V33.5z"/>
		<path fill="#5A3215" d="M31.8,38.2c0,0.1-0.3,0.1-0.6,0l0,0c-0.3-0.1-0.4-0.3-0.4-0.4L35.3,26c0-0.1,0.3-0.1,0.6,0l0,0
			c0.3,0.1,0.4,0.3,0.4,0.4L31.8,38.2z"/>
		<path fill="#5A3215" d="M43,38.2c0,0.1,0.3,0.1,0.6,0l0,0c0.3-0.1,0.4-0.3,0.4-0.4L39.5,26c0-0.1-0.3-0.1-0.6,0l0,0
			c-0.3,0.1-0.4,0.3-0.4,0.4L43,38.2z"/>
		<path fill="#5A3215" d="M30.6,27.7c-0.1,0-0.3-0.2-0.3-0.5l0,0c0-0.3,0.1-0.5,0.3-0.5l13.7-0.1c0.1,0,0.3,0.2,0.3,0.5l0,0
			c0,0.3-0.1,0.5-0.3,0.5L30.6,27.7z"/>
		<path fill="#5A3215" d="M30.6,38c-0.1,0-0.3-0.2-0.3-0.5l0,0c0-0.3,0.1-0.5,0.3-0.5l13.7-0.1c0.1,0,0.3,0.2,0.3,0.5l0,0
			c0,0.3-0.1,0.5-0.3,0.5L30.6,38z"/>
		<g>
			<circle fill="#B3C908" cx="12" cy="37.5" r="2.1"/>
			<circle fill="#B3C908" cx="9.7" cy="38.7" r="2.1"/>
			<circle fill="#B3C908" cx="7.2" cy="39.9" r="2.1"/>
			<circle fill="#B3C908" cx="9.9" cy="40.1" r="2.1"/>
			<circle fill="#B3C908" cx="13.7" cy="40.1" r="2.1"/>
			<circle fill="#B3C908" cx="15.6" cy="38.2" r="2.1"/>
			<circle fill="#B3C908" cx="17.4" cy="40.1" r="2.1"/>
		</g>
		<g>
			<circle fill="#B3C908" cx="18.6" cy="37.5" r="2.1"/>
			<circle fill="#B3C908" cx="16.2" cy="38.7" r="2.1"/>
			<circle fill="#B3C908" cx="13.8" cy="39.9" r="2.1"/>
			<circle fill="#B3C908" cx="16.5" cy="40.1" r="2.1"/>
			<circle fill="#B3C908" cx="20.3" cy="40.1" r="2.1"/>
			<circle fill="#B3C908" cx="22.1" cy="38.2" r="2.1"/>
			<circle fill="#B3C908" cx="24" cy="40.1" r="2.1"/>
		</g>
		<circle fill="#B3C908" cx="45.9" cy="40.8" r="1"/>
		<circle fill="#B3C908" cx="67.5" cy="41" r="1"/>
		<g>
			<circle fill="#B3C908" cx="53.5" cy="37.5" r="2.1"/>
			<circle fill="#B3C908" cx="51.1" cy="38.7" r="2.1"/>
			<circle fill="#B3C908" cx="48.7" cy="39.9" r="2.1"/>
			<circle fill="#B3C908" cx="51.4" cy="40.1" r="2.1"/>
			<circle fill="#B3C908" cx="55.2" cy="40.1" r="2.1"/>
			<circle fill="#B3C908" cx="57.1" cy="38.2" r="2.1"/>
			<circle fill="#B3C908" cx="58.9" cy="40.1" r="2.1"/>
		</g>
		<g>
			<circle fill="#B3C908" cx="60" cy="37.5" r="2.1"/>
			<circle fill="#B3C908" cx="57.7" cy="38.7" r="2.1"/>
			<circle fill="#B3C908" cx="55.2" cy="39.9" r="2.1"/>
			<circle fill="#B3C908" cx="58" cy="40.1" r="2.1"/>
			<circle fill="#B3C908" cx="61.7" cy="40.1" r="2.1"/>
			<circle fill="#B3C908" cx="63.6" cy="38.2" r="2.1"/>
			<circle fill="#B3C908" cx="65.4" cy="40.1" r="2.1"/>
		</g>
		<circle fill="#B3C908" cx="49.5" cy="37.5" r="1"/>
		<circle fill="#B3C908" cx="14.4" cy="36.7" r="1"/>
		<circle fill="#B3C908" cx="5.2" cy="39.5" r="1"/>
		<circle fill="#B3C908" cx="3.6" cy="40.8" r="1"/>
		<circle fill="#B3C908" cx="5.2" cy="40.8" r="1"/>
		<rect x="49.1" y="23.2" fill="#5A3215" width="1.4" height="11.3"/>
		<path fill="#311D13" d="M65.4,23.8c0,0.4-0.1,0.7-0.3,0.7H50c-0.2,0-0.3-0.3-0.3-0.7v-0.2c0-0.4,0.1-0.7,0.3-0.7h15.1
			c0.2,0,0.3,0.3,0.3,0.7V23.8z"/>
		<path fill="#311D13" d="M65.4,34.4c0,0.4-0.1,0.7-0.3,0.7H50c-0.2,0-0.3-0.3-0.3-0.7v-0.2c0-0.4,0.1-0.7,0.3-0.7h15.1
			c0.2,0,0.3,0.3,0.3,0.7V34.4z"/>
		<path fill="#311D13" d="M51.4,33.5c0,0.2-0.1,0.3-0.3,0.3l0,0c-0.2,0-0.3-0.1-0.3-0.3v-9.6c0-0.2,0.1-0.3,0.3-0.3l0,0
			c0.2,0,0.3,0.1,0.3,0.3V33.5z"/>
		<rect x="37" y="25.1" fill="#311D13" width="0.4" height="13.6"/>
		<rect x="0" y="0" fill="none" width="74.3" height="42"/>
	</g>
</g>
</svg>
