<?xml version="1.0" encoding="UTF-8" standalone="no"?>
<!-- Generator: Adobe Illustrator 18.1.1, SVG Export Plug-In . SVG Version: 6.00 Build 0)  -->

<svg
   xmlns:dc="http://purl.org/dc/elements/1.1/"
   xmlns:cc="http://creativecommons.org/ns#"
   xmlns:rdf="http://www.w3.org/1999/02/22-rdf-syntax-ns#"
   xmlns:svg="http://www.w3.org/2000/svg"
   xmlns="http://www.w3.org/2000/svg"
   xmlns:sodipodi="http://sodipodi.sourceforge.net/DTD/sodipodi-0.dtd"
   xmlns:inkscape="http://www.inkscape.org/namespaces/inkscape"
   version="1.1"
   id="Calque_1"
   x="0px"
   y="0px"
   viewBox="0 0 55 55"
   enable-background="new 0 0 226.8 283.5"
   xml:space="preserve"
   inkscape:version="0.48.3.1 r9886"
   width="100%"
   height="100%"
   sodipodi:docname="Eollien.svg"><metadata
   id="metadata19"><rdf:RDF><cc:Work
       rdf:about=""><dc:format>image/svg+xml</dc:format><dc:type
         rdf:resource="http://purl.org/dc/dcmitype/StillImage" /></cc:Work></rdf:RDF></metadata><defs
   id="defs17" /><sodipodi:namedview
   pagecolor="#ffffff"
   bordercolor="#666666"
   borderopacity="1"
   objecttolerance="10"
   gridtolerance="10"
   guidetolerance="10"
   inkscape:pageopacity="0"
   inkscape:pageshadow="2"
   inkscape:window-width="1600"
   inkscape:window-height="854"
   id="namedview15"
   showgrid="false"
   inkscape:zoom="2.3545284"
   inkscape:cx="142.65553"
   inkscape:cy="93.56895"
   inkscape:window-x="0"
   inkscape:window-y="24"
   inkscape:window-maximized="1"
   inkscape:current-layer="Calque_1" />
<g
   id="eolien"
   transform="translate(-85.367414,-114.67678)">
	<g
   id="éolien_3_">
		<path
   d="m 114.6,142.3 c 0,-0.9 -0.7,-1.6 -1.6,-1.6 -0.9,0 -1.6,0.7 -1.6,1.6 0,0.9 0.7,1.6 1.6,1.6 0.9,0 1.6,-0.7 1.6,-1.6 z"
   id="path5"
   inkscape:connector-curvature="0"
   style="fill:#ee8e1a" />
		<path
   d="m 111,139.9 c 0.6,-0.4 1.2,-0.7 2,-0.7 0.8,0 1.5,0.3 2,0.7 -0.3,-3.3 -1.2,-11.3 -2,-11.3 -0.8,-0.1 -1.6,7.9 -2,11.3 z"
   id="path7"
   inkscape:connector-curvature="0"
   style="fill:#ee8e1a" />
		<path
   d="m 111.9,145.4 0,0 c 0,0 0,0 0,0 0,0 0,-0.1 0,0 0,-0.1 0,-0.1 0,0 -1.2,-0.5 -2,-1.6 -2,-3 0,-0.2 0,-0.3 0,-0.5 -2.7,1.9 -9.3,6.7 -8.8,7.4 0.4,0.7 7.7,-2.5 10.8,-3.9 z"
   id="path9"
   inkscape:connector-curvature="0"
   style="fill:#ee8e1a" />
		<path
   d="m 116.2,141.9 c 0,0.2 0,0.3 0,0.5 0,1.4 -0.8,2.5 -2,3 0,0 0,0 0,0 l 0,0 c 3.1,1.4 10.4,4.7 10.8,3.9 0.5,-0.7 -6.1,-5.5 -8.8,-7.4 z"
   id="path11"
   inkscape:connector-curvature="0"
   style="fill:#ee8e1a" />
	</g>
	<circle
   stroke-miterlimit="10"
   cx="113"
   cy="141.8"
   r="24.799999"
   id="circle13"
   d="m 137.8,141.8 c 0,13.69666 -11.10334,24.8 -24.8,24.8 -13.696661,0 -24.799999,-11.10334 -24.799999,-24.8 0,-13.69666 11.103338,-24.8 24.799999,-24.8 13.69666,0 24.8,11.10334 24.8,24.8 z"
   sodipodi:cx="113"
   sodipodi:cy="141.8"
   sodipodi:rx="24.799999"
   sodipodi:ry="24.799999"
   style="fill:none;stroke:#ee8e1a;stroke-miterlimit:10" />
</g>
</svg>