<?xml version="1.0" encoding="UTF-8" standalone="no"?>
<!-- Generator: Adobe Illustrator 18.1.1, SVG Export Plug-In . SVG Version: 6.00 Build 0)  -->

<svg
   xmlns:dc="http://purl.org/dc/elements/1.1/"
   xmlns:cc="http://creativecommons.org/ns#"
   xmlns:rdf="http://www.w3.org/1999/02/22-rdf-syntax-ns#"
   xmlns:svg="http://www.w3.org/2000/svg"
   xmlns="http://www.w3.org/2000/svg"
   xmlns:sodipodi="http://sodipodi.sourceforge.net/DTD/sodipodi-0.dtd"
   xmlns:inkscape="http://www.inkscape.org/namespaces/inkscape"
   version="1.1"
   id="Calque_1"
   x="0px"
   y="0px"
   viewBox="0 0 55 55"
   enable-background="new 0 0 226.8 283.5"
   xml:space="preserve"
   inkscape:version="0.48.3.1 r9886"
   width="100%"
   height="100%"
   sodipodi:docname="Geo.svg"><metadata
   id="metadata14"><rdf:RDF><cc:Work
       rdf:about=""><dc:format>image/svg+xml</dc:format><dc:type
         rdf:resource="http://purl.org/dc/dcmitype/StillImage" /></cc:Work></rdf:RDF></metadata><defs
   id="defs12" /><sodipodi:namedview
   pagecolor="#ffffff"
   bordercolor="#666666"
   borderopacity="1"
   objecttolerance="10"
   gridtolerance="10"
   guidetolerance="10"
   inkscape:pageopacity="0"
   inkscape:pageshadow="2"
   inkscape:window-width="1600"
   inkscape:window-height="854"
   id="namedview10"
   showgrid="false"
   inkscape:zoom="3.329806"
   inkscape:cx="50.741227"
   inkscape:cy="52.604107"
   inkscape:window-x="0"
   inkscape:window-y="24"
   inkscape:window-maximized="1"
   inkscape:current-layer="Calque_1" />
<g
   id="géothermique_3_"
   transform="translate(-85.89089,-114.97987)">
	<path
   d="m 113.7,129.8 c -6.6,0 -12,5.4 -12,12 0,6.6 5.4,12 12,12 6.6,0 12,-5.4 12,-12 0,-6.6 -5.4,-12 -12,-12 z m -0.3,13.1 c 0,0 -2,-6.7 1.9,-11.5 1.8,0.4 7.8,1.3 9.3,9 -2.2,1.9 -8.2,3.5 -11.2,2.5 z"
   id="path4"
   inkscape:connector-curvature="0"
   style="fill:#e41a3c" />
	<path
   d="m 115.2,141.2 c 0,0 -0.6,-1.9 0.6,-3.3 0.5,0.1 2.2,0.4 2.7,2.6 -0.7,0.6 -2.4,1 -3.3,0.7 z"
   id="path6"
   inkscape:connector-curvature="0"
   style="fill:#e41a3c" />
	<circle
   stroke-miterlimit="10"
   cx="113.7"
   cy="141.8"
   r="25.200001"
   id="circle8"
   d="m 138.9,141.8 c 0,13.91758 -11.28243,25.2 -25.2,25.2 -13.917579,0 -25.200004,-11.28242 -25.200004,-25.2 0,-13.91757 11.282425,-25.2 25.200004,-25.2 13.91757,0 25.2,11.28243 25.2,25.2 z"
   sodipodi:cx="113.7"
   sodipodi:cy="141.8"
   sodipodi:rx="25.200001"
   sodipodi:ry="25.200001"
   style="fill:none;stroke:#e41a3c;stroke-miterlimit:10" />
</g>
</svg>