<?xml version="1.0" encoding="UTF-8" standalone="no"?>
<!-- Generator: Adobe Illustrator 18.1.1, SVG Export Plug-In . SVG Version: 6.00 Build 0)  -->

<svg
   xmlns:dc="http://purl.org/dc/elements/1.1/"
   xmlns:cc="http://creativecommons.org/ns#"
   xmlns:rdf="http://www.w3.org/1999/02/22-rdf-syntax-ns#"
   xmlns:svg="http://www.w3.org/2000/svg"
   xmlns="http://www.w3.org/2000/svg"
   xmlns:sodipodi="http://sodipodi.sourceforge.net/DTD/sodipodi-0.dtd"
   xmlns:inkscape="http://www.inkscape.org/namespaces/inkscape"
   version="1.1"
   id="Calque_1"
   x="0px"
   y="0px"
   viewBox="0 0 55 55"
   enable-background="new 0 0 226.8 283.5"
   xml:space="preserve"
   inkscape:version="0.48.3.1 r9886"
   width="100%"
   height="100%"
   sodipodi:docname="Hydro.svg"><metadata
   id="metadata12"><rdf:RDF><cc:Work
       rdf:about=""><dc:format>image/svg+xml</dc:format><dc:type
         rdf:resource="http://purl.org/dc/dcmitype/StillImage" /></cc:Work></rdf:RDF></metadata><defs
   id="defs10" /><sodipodi:namedview
   pagecolor="#ffffff"
   bordercolor="#666666"
   borderopacity="1"
   objecttolerance="10"
   gridtolerance="10"
   guidetolerance="10"
   inkscape:pageopacity="0"
   inkscape:pageshadow="2"
   inkscape:window-width="640"
   inkscape:window-height="480"
   id="namedview8"
   showgrid="false"
   inkscape:zoom="6.659612"
   inkscape:cx="15.170166"
   inkscape:cy="39.861185"
   inkscape:window-x="0"
   inkscape:window-y="24"
   inkscape:window-maximized="0"
   inkscape:current-layer="Calque_1" />
<g
   id="hydrolique_3_"
   transform="translate(-85.89089,-115.13003)">
	<path
   d="m 122.2,145.3 c -0.1,-1.3 -0.4,-2.6 -1.1,-3.7 l -6.7,-11.7 c -0.2,-0.4 -0.8,-0.4 -1,0 l -6.7,11.7 c -1.4,2.5 -1.5,5.6 0,8.3 2.3,4 7.4,5.4 11.4,3.1 2.6,-1.5 4.1,-4.1 4.2,-6.9 v -0.8 z"
   id="path4"
   inkscape:connector-curvature="0"
   style="fill:#3f70b6" />
	<circle
   stroke-miterlimit="10"
   cx="113.4"
   cy="141.8"
   r="25"
   id="circle6"
   d="m 138.4,141.8 c 0,13.80712 -11.19288,25 -25,25 -13.807117,0 -24.999998,-11.19288 -24.999998,-25 0,-13.80712 11.192881,-25 24.999998,-25 13.80712,0 25,11.19288 25,25 z"
   sodipodi:cx="113.4"
   sodipodi:cy="141.8"
   sodipodi:rx="25"
   sodipodi:ry="25"
   style="fill:none;stroke:#3f70b6;stroke-miterlimit:10" />
</g>
</svg>