<?xml version="1.0" encoding="UTF-8" standalone="no"?>
<!-- Created with Inkscape (http://www.inkscape.org/) -->

<svg
   xmlns:dc="http://purl.org/dc/elements/1.1/"
   xmlns:cc="http://creativecommons.org/ns#"
   xmlns:rdf="http://www.w3.org/1999/02/22-rdf-syntax-ns#"
   xmlns:svg="http://www.w3.org/2000/svg"
   xmlns="http://www.w3.org/2000/svg"
   xmlns:sodipodi="http://sodipodi.sourceforge.net/DTD/sodipodi-0.dtd"
   xmlns:inkscape="http://www.inkscape.org/namespaces/inkscape"
   width="16"
   height="16"
   id="svg4501"
   version="1.1"
   inkscape:version="0.48.3.1 r9886"
   sodipodi:docname="Nouveau document 3">
  <defs
     id="defs4503" />
  <sodipodi:namedview
     id="base"
     pagecolor="#ffffff"
     bordercolor="#666666"
     borderopacity="1.0"
     inkscape:pageopacity="0.0"
     inkscape:pageshadow="2"
     inkscape:zoom="7.9195959"
     inkscape:cx="8.1521352"
     inkscape:cy="24.602344"
     inkscape:document-units="px"
     inkscape:current-layer="layer1"
     showgrid="false"
     inkscape:window-width="1600"
     inkscape:window-height="854"
     inkscape:window-x="0"
     inkscape:window-y="24"
     inkscape:window-maximized="1" />
  <metadata
     id="metadata4506">
    <rdf:RDF>
      <cc:Work
         rdf:about="">
        <dc:format>image/svg+xml</dc:format>
        <dc:type
           rdf:resource="http://purl.org/dc/dcmitype/StillImage" />
        <dc:title></dc:title>
      </cc:Work>
    </rdf:RDF>
  </metadata>
  <g
     inkscape:label="Calque 1"
     inkscape:groupmode="layer"
     id="layer1"
     transform="translate(0,-1036.3622)">
    <path
       id="path3317"
       d="m 1.1182105,1046.0583 c 0.1,-0.5 0.3,-1 0.5,-1.6 0.2,-0.5 0.5,-1.1 0.8,-1.6 0.3,-0.5 0.7,-1.1 1,-1.6 0.4000001,-0.5 0.8000001,-1 1.2000001,-1.5 0.4,-0.5 0.9,-0.9 1.3,-1.4 0.5,-0.4 0.9,-0.8 1.4,-1.2 0.2,-0.1 0.4,-0.2 0.6,-0.3 0.2,0 0.4,-0.1 0.6,-0.1 0.2,0 0.4,0 0.6,0.1 0.2,0.1 0.3,0.2 0.5,0.4 0.1,0.1 0.1,0.1 0.2000003,0.2 0.1,0 0.1,0.1 0.2000001,0.1 0,0 0,0 0.1,0 0.1,0 0,-0.1 0.1,-0.1 0,0 0.1,-0.1 0.1,-0.1 0,0 0.1,-0.1 0.1,-0.1 0.1,-0.1 0.3,-0.1 0.4,-0.1 0.2,0 0.3,0 0.5,0 0.3,0 0.6,0.1 0.9,0.2 0.3,0.1 0.5,0.3 0.8,0.5 0.5,0.5 0.9,1.1 1.2,1.7 0.3,0.7 0.4,1.4 0.4,2.2 0,0.7 -0.1,1.4 -0.3,2.2 -0.2,0.7 -0.4,1.4 -0.8,2.1 -0.3,0.7 -0.7,1.3 -1.2,1.9 -0.4,0.6 -0.9,1.1 -1.5,1.6 -0.6,0.5 -1.1000004,0.9 -1.7000004,1.2 -0.6,0.3 -1.3,0.6 -1.9,0.8 -0.6,0.2 -1.4,0.3 -2,0.3 -0.6,0 -1.2,-0.1 -1.7000001,-0.3 -0.5,-0.2 -0.9,-0.5 -1.3,-0.8 -0.4,-0.4 -0.6,-0.8 -0.8,-1.3 -0.2,-0.5 -0.3,-1 -0.3,-1.6 0,-0.3 0,-0.5 0,-0.8 0,-0.3 -0.1,-0.8 0,-1 z m 1.7,0.7 c -0.1,0.3 -0.1,0.6 -0.1,0.9 0,0.4 0.1,0.7 0.2,1 0.1,0.3 0.3,0.5 0.6,0.7 0.2000001,0.2 0.5000001,0.3 0.9000001,0.4 0.3,0.1 0.7,0.1 1.1,0.1 0.5,0 1,-0.1 1.4,-0.2 0.5,-0.1 1,-0.4 1.4,-0.7 0.5,-0.3 0.9,-0.6 1.4,-1 0.4000004,-0.4 0.8000004,-0.9 1.2000004,-1.4 0.4,-0.5 0.7,-1.1 1,-1.7 0.3,-0.6 0.5,-1.2 0.7,-1.9 0.1,-0.2 0.1,-0.5 0.1,-0.8 0,-0.3 0,-0.5 0,-0.8 0,-0.4 0,-0.8 -0.1,-1.1 -0.1,-0.3 -0.2,-0.7 -0.4,-1 -0.2,-0.3 -0.5,-0.5 -0.8,-0.7 -0.3,-0.2 -0.7,-0.2 -1.2,-0.2 -0.1,0 -0.1,0 -0.2,0.1 0,0.1 -0.1000001,0.1 -0.1000001,0.2 0,0.1 -0.1,0.2 -0.1,0.2 0,0.1 -0.1000003,0.2 -0.2000003,0.2 -0.1,0.1 -0.2,0.1 -0.3,0.2 -0.1,0 -0.2,0.1 -0.4,0.1 -0.1,0 -0.2,0 -0.3,-0.1 -0.1,-0.1 -0.2,-0.1 -0.3,-0.2 0,0 -0.1,-0.1 -0.1,-0.1 0,0 -0.1,0 -0.1,0 -0.1,0 -0.1,0 -0.2,0.1 -0.1,0.1 -0.2,0.1 -0.3,0.2 -0.1,0.1 -0.2,0.2 -0.3,0.2 -0.1,0.1 -0.2,0.2 -0.2,0.2 -0.5,0.5 -0.9,1 -1.4,1.6 -0.5,0.6 -0.9,1.1 -1.3,1.7 -0.4,0.6 -0.7,1.2 -1.0000001,1.8 -0.3,0.6 -0.4,1.4 -0.6,2 z"
       inkscape:connector-curvature="0"
       style="fill:#b11b4a" />
  </g>
</svg>
