<?xml version="1.0" encoding="utf-8"?>
<!-- Generator: Adobe Illustrator 18.1.1, SVG Export Plug-In . SVG Version: 6.00 Build 0)  -->
<svg version="1.1" id="Calque_1" xmlns="http://www.w3.org/2000/svg" xmlns:xlink="http://www.w3.org/1999/xlink" x="0px" y="0px"
	 viewBox="0 0 361.7 346.5" enable-background="new 0 0 361.7 346.5" xml:space="preserve">
<circle id="_x32_5_x25_" opacity="0.3" fill="none" stroke="#FBEDD8" stroke-width="9.113149e-02" stroke-linecap="round" stroke-linejoin="round" stroke-miterlimit="10" cx="186" cy="172.6" r="34.1"/>
<circle id="_x35_0_x25_" opacity="0.3" fill="none" stroke="#FBEDD8" stroke-width="9.113149e-02" stroke-linecap="round" stroke-linejoin="round" stroke-miterlimit="10" cx="186" cy="172.6" r="68.3"/>
<circle id="_x37_5_x25_" opacity="0.3" fill="none" stroke="#FBEDD8" stroke-width="9.113149e-02" stroke-linecap="round" stroke-linejoin="round" stroke-miterlimit="10" cx="186" cy="172.6" r="102.4"/>
<g opacity="0.3">
	<g>
		<path fill="#FCEED7" d="M94.5,75.6c0,0-0.6,0.6-1.7,1.7c-1.1,1.1-2.9,2.8-4.9,5c-4.1,4.4-10,11.3-15.9,21
			c-1.5,2.4-2.9,5.1-4.4,7.8c-1.4,2.8-2.9,5.7-4.2,8.9c-2.7,6.3-5.2,13.3-7.1,21C52.4,156.5,51,174.7,54,194
			c0.3,2.4,0.9,4.8,1.3,7.3c0.5,2.4,1.2,4.9,1.8,7.3c1.4,4.9,3,9.8,5,14.7c1.9,4.9,4.3,9.7,6.9,14.5c2.7,4.7,5.6,9.5,8.9,13.9
			c1.6,2.3,3.4,4.5,5.2,6.7l0.7,0.8l0.7,0.8l1.4,1.6c1,1.1,1.9,2.2,2.9,3.2c1,1,2,2,3,3.1c0.5,0.5,1,1,1.5,1.5L95,271
			c1.1,1,2.1,2,3.2,3c1.1,0.9,2.3,1.9,3.4,2.8l1.7,1.4l1.8,1.3c1.2,0.9,2.4,1.8,3.6,2.7c1.2,0.8,2.5,1.7,3.7,2.5l1.9,1.3l1.9,1.2
			c1.3,0.8,2.6,1.6,3.9,2.3c1.3,0.7,2.7,1.4,4,2.2c1.3,0.7,2.7,1.4,4.1,2c1.4,0.6,2.7,1.4,4.1,1.9c22.4,10,48.4,13.8,73.9,10
			c1.6-0.2,3.2-0.5,4.8-0.8l2.4-0.4c0.8-0.1,1.6-0.4,2.4-0.5c1.6-0.4,3.2-0.7,4.7-1.1l4.7-1.3c1.6-0.4,3.1-1,4.6-1.5
			c1.5-0.5,3.1-1,4.6-1.6l4.5-1.8l4.5-2c5.9-2.8,11.7-5.9,17.1-9.6c0.7-0.4,1.4-0.9,2.1-1.3l2-1.4c1.3-1,2.7-1.9,4-2.9l3.8-3.1
			l0.9-0.8l0.9-0.8l1.9-1.6c2.5-2.1,4.8-4.5,7.1-6.8c1.1-1.2,2.2-2.4,3.3-3.6c0.5-0.6,1.1-1.2,1.7-1.8l1.6-1.9
			c4.3-5,8-10.3,11.5-15.9c3.5-5.5,6.4-11.4,9-17.3c2.6-5.9,4.7-12.1,6.4-18.3c3.4-12.5,4.8-25.3,4.6-38c-0.1-1.6-0.1-3.2-0.2-4.7
			c-0.1-1.6-0.3-3.1-0.4-4.7c-0.1-1.6-0.3-3.1-0.5-4.7c-0.2-1.6-0.4-3.1-0.7-4.6c-1-6.2-2.5-12.2-4.2-18.1
			c-3.7-11.7-8.8-22.8-15.3-32.8c-3.1-5-6.8-9.7-10.4-14.2c-3.8-4.4-7.7-8.6-11.9-12.4c-4.1-3.9-8.5-7.3-12.9-10.6
			c-1.1-0.8-2.3-1.5-3.4-2.3c-1.1-0.7-2.2-1.6-3.4-2.2c-2.3-1.4-4.6-2.8-6.9-4.1c-9.3-5.1-18.9-9-28.5-11.6
			c-19.1-5.3-37.5-5.9-53.4-3.9c-16,2-29.4,6.6-39.8,11.4c-10.5,4.8-18.1,9.9-23,13.6c-1.3,0.9-2.4,1.7-3.3,2.5
			c-0.9,0.7-1.7,1.4-2.3,1.9c-1.2,1-1.9,1.5-1.9,1.5s0.6-0.5,1.9-1.5c0.6-0.5,1.4-1.1,2.3-1.9c0.9-0.8,2-1.6,3.3-2.5
			c4.9-3.7,12.5-8.8,23-13.7c10.4-4.9,23.9-9.6,39.9-11.6c15.9-2.1,34.5-1.5,53.6,3.7c9.6,2.6,19.2,6.4,28.7,11.5
			c2.4,1.2,4.7,2.7,7,4c1.2,0.7,2.3,1.5,3.4,2.2c1.1,0.8,2.3,1.5,3.4,2.3c4.5,3.3,8.9,6.7,13.1,10.6c4.3,3.8,8.2,8,12,12.4
			c3.7,4.5,7.4,9.2,10.5,14.2c6.6,10,11.8,21.2,15.6,33c1.8,6,3.3,12,4.4,18.3c0.3,1.5,0.5,3.1,0.7,4.7c0.2,1.6,0.4,3.1,0.5,4.7
			c0.1,1.6,0.3,3.2,0.4,4.8c0.1,1.6,0.1,3.2,0.2,4.8c0.3,12.8-1.1,25.8-4.4,38.4c-1.7,6.3-3.7,12.6-6.3,18.6c-2.6,6-5.5,12-9,17.6
			c-3.5,5.6-7.3,11.1-11.6,16.2l-1.6,1.9c-0.5,0.6-1.1,1.2-1.7,1.9c-1.1,1.2-2.2,2.5-3.4,3.7c-2.4,2.3-4.7,4.8-7.2,6.9l-1.8,1.7
			l-0.9,0.8l-1,0.8l-3.9,3.1c-1.3,1-2.7,2-4,3l-2,1.5c-0.7,0.5-1.4,0.9-2.1,1.4c-5.5,3.8-11.3,6.9-17.3,9.8l-4.5,2.1l-4.6,1.8
			c-1.5,0.6-3.1,1.2-4.7,1.7c-1.6,0.5-3.1,1.1-4.7,1.5L221,305c-1.6,0.4-3.2,0.8-4.8,1.2c-0.8,0.2-1.6,0.4-2.4,0.5l-2.4,0.4
			c-1.6,0.3-3.2,0.7-4.8,0.8c-25.9,4-52.5,0.2-75.4-9.8c-1.4-0.6-2.8-1.3-4.2-2c-1.4-0.7-2.8-1.3-4.2-2.1c-1.4-0.7-2.7-1.5-4.1-2.2
			c-1.3-0.8-2.6-1.6-4-2.4l-2-1.2l-1.9-1.3c-1.3-0.8-2.5-1.7-3.8-2.5c-1.2-0.9-2.4-1.8-3.7-2.7l-1.8-1.4l-1.7-1.4
			c-1.2-1-2.3-1.9-3.5-2.9c-1.1-1-2.2-2-3.3-3l-1.6-1.5c-0.5-0.5-1.1-1.1-1.6-1.6c-1-1.1-2.1-2.1-3.1-3.2c-1-1.1-2-2.2-2.9-3.2
			l-1.4-1.6l-0.7-0.8l-0.7-0.8c-1.8-2.3-3.7-4.5-5.3-6.8c-3.5-4.6-6.4-9.4-9.2-14.2c-2.6-4.9-5.1-9.8-7.1-14.8c-2.1-5-3.7-10-5.2-15
			c-0.7-2.5-1.3-5-1.9-7.5c-0.5-2.5-1.1-5-1.4-7.5c-3.2-19.8-1.8-38.5,2-54.3c1.9-7.9,4.4-15.2,7.2-21.7c1.3-3.3,2.9-6.3,4.3-9.2
			c1.6-2.8,3-5.6,4.5-8.1c6.1-10,12-17.1,16.3-21.7c2.1-2.4,3.8-4,4.9-5.1c1.1-1.1,1.7-1.7,1.7-1.7c0.8-0.8,2.1-0.8,2.9,0
			C95.3,73.5,95.3,74.8,94.5,75.6L94.5,75.6z"/>
		<g>
			<path fill="#FCEED7" d="M98.6,69.2c-3.5,1.4-8.2,2.6-11.7,2.7l5.5,2.9l2.4,5.8C95.1,77.1,96.9,72.5,98.6,69.2z"/>
		</g>
	</g>
</g>
<line opacity="0.3" fill="none" stroke="#FCEED7" stroke-width="9.113149e-02" stroke-linecap="round" stroke-linejoin="round" stroke-miterlimit="10" x1="186.2" y1="172.7" x2="185.8" y2="37"/>
<line opacity="0.3" fill="none" stroke="#FCEED7" stroke-width="9.113149e-02" stroke-linecap="round" stroke-linejoin="round" stroke-miterlimit="10" x1="186.2" y1="172.7" x2="271.9" y2="67.6"/>
<line opacity="0.3" fill="none" stroke="#FCEED7" stroke-width="9.113149e-02" stroke-linecap="round" stroke-linejoin="round" stroke-miterlimit="10" x1="186.2" y1="172.7" x2="100.4" y2="68"/>
<line opacity="0.3" fill="none" stroke="#FCEED7" stroke-width="9.113149e-02" stroke-linecap="round" stroke-linejoin="round" stroke-miterlimit="10" x1="186.2" y1="172.7" x2="137" y2="299"/>
<line opacity="0.3" fill="none" stroke="#FCEED7" stroke-width="9.113149e-02" stroke-linecap="round" stroke-linejoin="round" stroke-miterlimit="10" x1="186.2" y1="172.7" x2="66.5" y2="236.4"/>
<line opacity="0.3" fill="none" stroke="#FCEED7" stroke-width="9.113149e-02" stroke-linecap="round" stroke-linejoin="round" stroke-miterlimit="10" x1="186.2" y1="172.7" x2="232.1" y2="301.4"/>
<line opacity="0.3" fill="none" stroke="#FCEED7" stroke-width="9.113149e-02" stroke-linecap="round" stroke-linejoin="round" stroke-miterlimit="10" x1="186.2" y1="172.7" x2="319.3" y2="147.4"/>
<line opacity="0.3" fill="none" stroke="#FCEED7" stroke-width="9.113149e-02" stroke-linecap="round" stroke-linejoin="round" stroke-miterlimit="10" x1="186.2" y1="172.7" x2="305.5" y2="236.8"/>
<line opacity="0.3" fill="none" stroke="#FCEED7" stroke-width="9.113149e-02" stroke-linecap="round" stroke-linejoin="round" stroke-miterlimit="10" x1="53" y1="147.4" x2="186.2" y2="172.7"/>
<g id="Années" opacity="0.3">
	<rect x="181" y="0" fill="none" width="9.6" height="29.7"/>
	
		<text transform="matrix(4.489659e-11 -1 1 4.489659e-11 187.5926 26.3778)" fill="#FFFFFF" font-family="'Helvetica-Bold'" font-size="9.1131">2012</text>
</g>
<g id="Années_1_" opacity="0.3">
	
		<rect x="270.8" y="45.4" transform="matrix(0.6383 -0.7698 0.7698 0.6383 65.0569 239.2394)" fill="none" width="32.6" height="10"/>
	
		<text transform="matrix(0.6383 -0.7698 0.7698 0.6383 280.8477 60.871)" fill="#FFFFFF" font-family="'Helvetica-Bold'" font-size="9.5688">2013</text>
</g>
<g id="Années_2_" opacity="0.3">
	
		<rect x="325" y="138.5" transform="matrix(0.9838 -0.1795 0.1795 0.9838 -20.2361 63.9238)" fill="none" width="36" height="10.5"/>
	
		<text transform="matrix(0.9838 -0.1795 0.1795 0.9838 330.9642 147.9561)" fill="#FFFFFF" font-family="'Helvetica-Bold'" font-size="10.0245" letter-spacing="1">2014</text>
</g>
<g id="Années_3_" opacity="0.3">
	
		<rect x="308.5" y="242" transform="matrix(0.8839 0.4677 -0.4677 0.8839 153.7991 -124.5894)" fill="none" width="38.7" height="11"/>
	
		<text transform="matrix(0.8839 0.4677 -0.4677 0.8839 315.1859 243.0815)" fill="#FFFFFF" font-family="'Helvetica-Bold'" font-size="10.4801" letter-spacing="1">2015</text>
</g>
<g id="Années_4_" opacity="0.3">
	
		<rect x="219.2" y="318.9" transform="matrix(0.3351 0.9422 -0.9422 0.3351 465.5473 -10.4965)" fill="none" width="42" height="11.5"/>
	
		<text transform="matrix(0.3351 0.9422 -0.9422 0.3351 233.582 312.3063)" fill="#FFFFFF" font-family="'Helvetica-Bold'" font-size="10.9358" letter-spacing="1">2016</text>
</g>
<g id="Années_5_" opacity="0.3">
	
		<rect x="106" y="317.8" transform="matrix(0.3584 -0.9336 0.9336 0.3584 -220.0314 327.314)" fill="none" width="44.3" height="12"/>
	
		<text transform="matrix(0.3584 -0.9336 0.9336 0.3584 125.0296 337.9552)" fill="#FFFFFF" font-family="'Helvetica-Bold'" font-size="11.3914" letter-spacing="1">2017</text>
</g>
<g id="Années_6_" opacity="0.3">
	
		<rect x="19.5" y="243.3" transform="matrix(0.8811 -0.473 0.473 0.8811 -112.9413 49.9775)" fill="none" width="46.8" height="12.4"/>
	
		<text transform="matrix(0.8811 -0.473 0.473 0.8811 30.8197 258.6668)" fill="#FFFFFF" font-family="'Helvetica-Bold'" font-size="11.8471" letter-spacing="1">2018</text>
</g>
<g id="Années_7_" opacity="0.3">
	
		<rect x="0.8" y="137.4" transform="matrix(0.9842 0.1773 -0.1773 0.9842 25.8965 -2.2316)" fill="none" width="49.4" height="12.9"/>
	
		<text transform="matrix(0.9842 0.1773 -0.1773 0.9842 9.7298 143.4192)" fill="#FFFFFF" font-family="'Helvetica-Bold'" font-size="12.3027" letter-spacing="1">2019</text>
</g>
<g id="Années_8_" opacity="0.3">
	
		<rect x="57.1" y="42.6" transform="matrix(0.6469 0.7625 -0.7625 0.6469 66.2104 -44.4929)" fill="none" width="48.2" height="13.4"/>
	
		<text transform="matrix(0.6469 0.7625 -0.7625 0.6469 68.8439 38.5798)" fill="#FFFFFF" font-family="'Helvetica-Bold'" font-size="12.7584" letter-spacing="1">2020</text>
</g>
</svg>
