<?xml version="1.0" encoding="UTF-8" standalone="no"?>
<!-- Generator: Adobe Illustrator 18.1.1, SVG Export Plug-In . SVG Version: 6.00 Build 0)  -->

<svg
   xmlns:dc="http://purl.org/dc/elements/1.1/"
   xmlns:cc="http://creativecommons.org/ns#"
   xmlns:rdf="http://www.w3.org/1999/02/22-rdf-syntax-ns#"
   xmlns:svg="http://www.w3.org/2000/svg"
   xmlns="http://www.w3.org/2000/svg"
   xmlns:sodipodi="http://sodipodi.sourceforge.net/DTD/sodipodi-0.dtd"
   xmlns:inkscape="http://www.inkscape.org/namespaces/inkscape"
   version="1.1"
   id="Calque_1"
   x="0px"
   y="0px"
   viewBox="0 0 361.7 346.5"
   enable-background="new 0 0 361.7 346.5"
   xml:space="preserve"
   inkscape:version="0.48.3.1 r9886"
   width="100%"
   height="100%"
   sodipodi:docname="Radar-old.svg"><metadata
   id="metadata83"><rdf:RDF><cc:Work
       rdf:about=""><dc:format>image/svg+xml</dc:format><dc:type
         rdf:resource="http://purl.org/dc/dcmitype/StillImage" /></cc:Work></rdf:RDF></metadata><defs
   id="defs81" /><sodipodi:namedview
   pagecolor="#000000"
   bordercolor="#666666"
   borderopacity="1"
   objecttolerance="10"
   gridtolerance="10"
   guidetolerance="10"
   inkscape:pageopacity="1"
   inkscape:pageshadow="2"
   inkscape:window-width="640"
   inkscape:window-height="480"
   id="namedview79"
   showgrid="false"
   inkscape:zoom="0.68109668"
   inkscape:cx="180.85"
   inkscape:cy="173.25"
   inkscape:window-x="875"
   inkscape:window-y="184"
   inkscape:window-maximized="0"
   inkscape:current-layer="Calque_1" />
<circle
   id="_x32_5_x25_"
   opacity="0.3"
   fill="none"
   stroke="#FBEDD8"
   stroke-width="9.113149e-02"
   stroke-linecap="round"
   stroke-linejoin="round"
   stroke-miterlimit="10"
   cx="186"
   cy="172.6"
   r="34.1" />
<circle
   id="_x35_0_x25_"
   opacity="0.3"
   fill="none"
   stroke="#FBEDD8"
   stroke-width="9.113149e-02"
   stroke-linecap="round"
   stroke-linejoin="round"
   stroke-miterlimit="10"
   cx="186"
   cy="172.6"
   r="68.3" />
<circle
   id="_x37_5_x25_"
   opacity="0.3"
   fill="none"
   stroke="#FBEDD8"
   stroke-width="9.113149e-02"
   stroke-linecap="round"
   stroke-linejoin="round"
   stroke-miterlimit="10"
   cx="186"
   cy="172.6"
   r="102.4" />

<line
   opacity="0.3"
   fill="none"
   stroke="#FCEED7"
   stroke-width="9.113149e-02"
   stroke-linecap="round"
   stroke-linejoin="round"
   stroke-miterlimit="10"
   x1="186.2"
   y1="172.7"
   x2="185.8"
   y2="37"
   id="line16" />
<line
   opacity="0.3"
   fill="none"
   stroke="#FCEED7"
   stroke-width="9.113149e-02"
   stroke-linecap="round"
   stroke-linejoin="round"
   stroke-miterlimit="10"
   x1="186.2"
   y1="172.7"
   x2="271.9"
   y2="67.6"
   id="line18" />
<line
   opacity="0.3"
   fill="none"
   stroke="#FCEED7"
   stroke-width="9.113149e-02"
   stroke-linecap="round"
   stroke-linejoin="round"
   stroke-miterlimit="10"
   x1="186.2"
   y1="172.7"
   x2="100.4"
   y2="68"
   id="line20" />
<line
   opacity="0.3"
   fill="none"
   stroke="#FCEED7"
   stroke-width="9.113149e-02"
   stroke-linecap="round"
   stroke-linejoin="round"
   stroke-miterlimit="10"
   x1="186.2"
   y1="172.7"
   x2="137"
   y2="299"
   id="line22" />
<line
   opacity="0.3"
   fill="none"
   stroke="#FCEED7"
   stroke-width="9.113149e-02"
   stroke-linecap="round"
   stroke-linejoin="round"
   stroke-miterlimit="10"
   x1="186.2"
   y1="172.7"
   x2="66.5"
   y2="236.4"
   id="line24" />
<line
   opacity="0.3"
   fill="none"
   stroke="#FCEED7"
   stroke-width="9.113149e-02"
   stroke-linecap="round"
   stroke-linejoin="round"
   stroke-miterlimit="10"
   x1="186.2"
   y1="172.7"
   x2="232.1"
   y2="301.4"
   id="line26" />
<line
   opacity="0.3"
   fill="none"
   stroke="#FCEED7"
   stroke-width="9.113149e-02"
   stroke-linecap="round"
   stroke-linejoin="round"
   stroke-miterlimit="10"
   x1="186.2"
   y1="172.7"
   x2="319.3"
   y2="147.4"
   id="line28" />
<line
   opacity="0.3"
   fill="none"
   stroke="#FCEED7"
   stroke-width="9.113149e-02"
   stroke-linecap="round"
   stroke-linejoin="round"
   stroke-miterlimit="10"
   x1="186.2"
   y1="172.7"
   x2="305.5"
   y2="236.8"
   id="line30" />
<line
   opacity="0.3"
   fill="none"
   stroke="#FCEED7"
   stroke-width="9.113149e-02"
   stroke-linecap="round"
   stroke-linejoin="round"
   stroke-miterlimit="10"
   x1="53"
   y1="147.4"
   x2="186.2"
   y2="172.7"
   id="line32" />
<g
   id="Années"
   opacity="0.3">
	<rect
   x="181"
   y="0"
   fill="none"
   width="9.6"
   height="29.7"
   id="rect35" />
	
		<text
   transform="matrix(4.489659e-11 -1 1 4.489659e-11 187.5926 26.3778)"
   fill="#FFFFFF"
   font-family="'Helvetica-Bold'"
   font-size="9.1131"
   id="text37">2012</text>

</g>
<g
   id="Années_1_"
   opacity="0.3">
	
		<rect
   x="270.8"
   y="45.4"
   transform="matrix(0.6383 -0.7698 0.7698 0.6383 65.0569 239.2394)"
   fill="none"
   width="32.6"
   height="10"
   id="rect40" />
	
		<text
   transform="matrix(0.6383 -0.7698 0.7698 0.6383 280.8477 60.871)"
   fill="#FFFFFF"
   font-family="'Helvetica-Bold'"
   font-size="9.5688"
   id="text42">2013</text>

</g>
<g
   id="Années_2_"
   opacity="0.3">
	
		<rect
   x="325"
   y="138.5"
   transform="matrix(0.9838 -0.1795 0.1795 0.9838 -20.2361 63.9238)"
   fill="none"
   width="36"
   height="10.5"
   id="rect45" />
	
		<text
   transform="matrix(0.9838 -0.1795 0.1795 0.9838 330.9642 147.9561)"
   fill="#FFFFFF"
   font-family="'Helvetica-Bold'"
   font-size="10.0245"
   letter-spacing="1"
   id="text47">2014</text>

</g>
<g
   id="Années_3_"
   opacity="0.3">
	
		<rect
   x="308.5"
   y="242"
   transform="matrix(0.8839 0.4677 -0.4677 0.8839 153.7991 -124.5894)"
   fill="none"
   width="38.7"
   height="11"
   id="rect50" />
	
		<text
   transform="matrix(0.8839 0.4677 -0.4677 0.8839 315.1859 243.0815)"
   fill="#FFFFFF"
   font-family="'Helvetica-Bold'"
   font-size="10.4801"
   letter-spacing="1"
   id="text52">2015</text>

</g>
<g
   id="Années_4_"
   opacity="0.3">
	
		<rect
   x="219.2"
   y="318.9"
   transform="matrix(0.3351 0.9422 -0.9422 0.3351 465.5473 -10.4965)"
   fill="none"
   width="42"
   height="11.5"
   id="rect55" />
	
		<text
   transform="matrix(0.3351 0.9422 -0.9422 0.3351 233.582 312.3063)"
   fill="#FFFFFF"
   font-family="'Helvetica-Bold'"
   font-size="10.9358"
   letter-spacing="1"
   id="text57">2016</text>

</g>
<g
   id="Années_5_"
   opacity="0.3">
	
		<rect
   x="106"
   y="317.8"
   transform="matrix(0.3584 -0.9336 0.9336 0.3584 -220.0314 327.314)"
   fill="none"
   width="44.3"
   height="12"
   id="rect60" />
	
		<text
   transform="matrix(0.3584 -0.9336 0.9336 0.3584 125.0296 337.9552)"
   fill="#FFFFFF"
   font-family="'Helvetica-Bold'"
   font-size="11.3914"
   letter-spacing="1"
   id="text62">2017</text>

</g>
<g
   id="Années_6_"
   opacity="0.3">
	
		<rect
   x="19.5"
   y="243.3"
   transform="matrix(0.8811 -0.473 0.473 0.8811 -112.9413 49.9775)"
   fill="none"
   width="46.8"
   height="12.4"
   id="rect65" />
	
		<text
   transform="matrix(0.8811 -0.473 0.473 0.8811 30.8197 258.6668)"
   fill="#FFFFFF"
   font-family="'Helvetica-Bold'"
   font-size="11.8471"
   letter-spacing="1"
   id="text67">2018</text>

</g>
<g
   id="Années_7_"
   opacity="0.3">
	
		<rect
   x="0.8"
   y="137.4"
   transform="matrix(0.9842 0.1773 -0.1773 0.9842 25.8965 -2.2316)"
   fill="none"
   width="49.4"
   height="12.9"
   id="rect70" />
	
		<text
   transform="matrix(0.9842 0.1773 -0.1773 0.9842 9.7298 143.4192)"
   fill="#FFFFFF"
   font-family="'Helvetica-Bold'"
   font-size="12.3027"
   letter-spacing="1"
   id="text72">2019</text>

</g>
<g
   id="Années_8_"
   opacity="0.3">
	
		<rect
   x="57.1"
   y="42.6"
   transform="matrix(0.6469 0.7625 -0.7625 0.6469 66.2104 -44.4929)"
   fill="none"
   width="48.2"
   height="13.4"
   id="rect75" />
	
		<text
   transform="matrix(0.6469 0.7625 -0.7625 0.6469 68.8439 38.5798)"
   fill="#FFFFFF"
   font-family="'Helvetica-Bold'"
   font-size="12.7584"
   letter-spacing="1"
   id="text77">2020</text>

</g>
<g
   transform="translate(-533.56776,-254.30203)"
   id="France"><g
     style="display:none"
     id="courbe_5_"
     display="none"><circle
       d="m 721.7,427 c 0,0.93888 -0.76112,1.7 -1.7,1.7 -0.93888,0 -1.7,-0.76112 -1.7,-1.7 0,-0.93888 0.76112,-1.7 1.7,-1.7 0.93888,0 1.7,0.76112 1.7,1.7 z"
       style="fill:#e82d48;display:inline"
       sodipodi:ry="1.7"
       sodipodi:rx="1.7"
       sodipodi:cy="427"
       sodipodi:cx="720"
       id="géothermique_5_"
       display="inline"
       cx="720"
       cy="427"
       r="1.7" /><circle
       d="m 721,427 c 0,0.55228 -0.44772,1 -1,1 -0.55228,0 -1,-0.44772 -1,-1 0,-0.55228 0.44772,-1 1,-1 0.55228,0 1,0.44772 1,1 z"
       style="fill:#eded29;display:inline"
       sodipodi:ry="1"
       sodipodi:rx="1"
       sodipodi:cy="427"
       sodipodi:cx="720"
       id="solaire_4_"
       display="inline"
       cx="720"
       cy="427"
       r="1" /><polygon
       style="fill:none;stroke:#ef8e18;stroke-width:0.9113;stroke-miterlimit:10;display:inline"
       id="éolien_5_"
       display="inline"
       stroke-miterlimit="10"
       points="664.9,416.6 684.6,383.5 720,388.2 745.2,395.6 761.7,418.9 757.9,447.4 736.9,474.7 699.5,479.1 670.5,453.2 " /><polygon
       style="fill:none;stroke:#2e78e5;stroke-width:0.9113;stroke-miterlimit:10;display:inline"
       id="hydrolique_5_"
       display="inline"
       stroke-miterlimit="10"
       points="709.6,425.1 714,419.3 720.3,413.7 728,416.6 731.6,424.6 730.4,432.6 723.5,436.8 716.2,436.7 710.4,432.1 " /><polygon
       style="fill:none;stroke:#30e245;stroke-width:0.9113;stroke-miterlimit:10;display:inline"
       id="biomasse_4_"
       display="inline"
       stroke-miterlimit="10"
       points="684.6,420.3 697.4,399.1 720.1,392.2 743.1,398.1 755.7,420.3 751.2,443.8 732,460.9 706.5,461.4 687.5,444.3 " /><polygon
       style="fill:none;stroke:#9c30e2;stroke-width:0.9113;stroke-miterlimit:10;display:inline"
       id="nucléaire_5_"
       display="inline"
       stroke-miterlimit="10"
       points="681.6,419.8 695.3,396.6 719.9,369.7 753.1,385.9 769.6,417.4 758.5,447.7 735.2,469.9 704.3,466.9 682.9,447.7 " /></g><g
     id="Radar_1_"><circle
       d="m 754.00002,426.79999 c 0,18.83291 -15.26709,34.1 -34.1,34.1 -18.8329,0 -34.09999,-15.26709 -34.09999,-34.1 0,-18.83291 15.26709,-34.1 34.09999,-34.1 18.83291,0 34.1,15.26709 34.1,34.1 z"
       style="opacity:0.6;fill:none;stroke:#fbedd7;stroke-width:0.09113149;stroke-linecap:round;stroke-linejoin:round;stroke-miterlimit:10"
       sodipodi:ry="34.099998"
       sodipodi:rx="34.099998"
       sodipodi:cy="426.79999"
       sodipodi:cx="719.90002"
       id="_x32_5_x25__3_"
       stroke-miterlimit="10"
       cx="719.90002"
       cy="426.79999"
       r="34.099998" /><circle
       d="m 788.20003,426.79999 c 0,37.72105 -30.57896,68.3 -68.30001,68.3 -37.72105,0 -68.3,-30.57895 -68.3,-68.3 0,-37.72105 30.57895,-68.30001 68.3,-68.30001 37.72105,0 68.30001,30.57896 68.30001,68.30001 z"
       style="opacity:0.6;fill:none;stroke:#fbedd7;stroke-width:0.09113149;stroke-linecap:round;stroke-linejoin:round;stroke-miterlimit:10"
       sodipodi:ry="68.300003"
       sodipodi:rx="68.300003"
       sodipodi:cy="426.79999"
       sodipodi:cx="719.90002"
       id="_x35_0_x25__3_"
       stroke-miterlimit="10"
       cx="719.90002"
       cy="426.79999"
       r="68.300003" /><circle
       d="m 822.30003,426.79999 c 0,56.55396 -45.84605,102.4 -102.40001,102.4 -56.55395,0 -102.4,-45.84604 -102.4,-102.4 0,-56.55396 45.84605,-102.4 102.4,-102.4 56.55396,0 102.40001,45.84604 102.40001,102.4 z"
       style="opacity:0.6;fill:none;stroke:#fbedd7;stroke-width:0.09113149;stroke-linecap:round;stroke-linejoin:round;stroke-miterlimit:10"
       sodipodi:ry="102.4"
       sodipodi:rx="102.4"
       sodipodi:cy="426.79999"
       sodipodi:cx="719.90002"
       id="_x37_5_x25__3_"
       stroke-miterlimit="10"
       cx="719.90002"
       cy="426.79999"
       r="102.4" /><g
       style="opacity:0.3"
       id="g286"><g
         id="g288"><path
           style="fill:#fceed7"
           inkscape:connector-curvature="0"
           d="m 628.4,329.9 c 0,0 -0.6,0.6 -1.7,1.7 -1.1,1.1 -2.9,2.8 -4.9,5 -4.1,4.4 -10,11.3 -15.9,21 -1.5,2.4 -2.9,5.1 -4.4,7.8 -1.4,2.8 -2.9,5.7 -4.2,8.9 -2.7,6.3 -5.2,13.3 -7.1,21 -3.8,15.4 -5.2,33.6 -2.2,52.9 0.3,2.4 0.9,4.8 1.3,7.3 0.5,2.4 1.2,4.9 1.8,7.3 1.4,4.9 3,9.8 5,14.7 1.9,4.9 4.3,9.7 6.9,14.5 2.7,4.7 5.6,9.5 8.9,13.9 1.6,2.3 3.4,4.5 5.2,6.7 l 0.7,0.8 0.7,0.8 1.4,1.6 c 1,1.1 1.9,2.2 2.9,3.2 1,1 2,2 3,3.1 0.5,0.5 1,1 1.5,1.5 l 1.6,1.5 c 1.1,1 2.1,2 3.2,3 1.1,0.9 2.3,1.9 3.4,2.8 l 1.7,1.4 1.8,1.3 c 1.2,0.9 2.4,1.8 3.6,2.7 1.2,0.8 2.5,1.7 3.7,2.5 l 1.9,1.3 1.9,1.2 c 1.3,0.8 2.6,1.6 3.9,2.3 1.3,0.7 2.7,1.4 4,2.2 1.3,0.7 2.7,1.4 4.1,2 1.4,0.6 2.7,1.4 4.1,1.9 22.4,10 48.4,13.8 73.9,10 1.6,-0.2 3.2,-0.5 4.8,-0.8 l 2.4,-0.4 c 0.8,-0.1 1.6,-0.4 2.4,-0.5 1.6,-0.4 3.2,-0.7 4.7,-1.1 l 4.7,-1.3 c 1.6,-0.4 3.1,-1 4.6,-1.5 1.5,-0.5 3.1,-1 4.6,-1.6 l 4.5,-1.8 4.5,-2 c 5.9,-2.8 11.7,-5.9 17.1,-9.6 0.7,-0.4 1.4,-0.9 2.1,-1.3 l 2,-1.4 c 1.3,-1 2.7,-1.9 4,-2.9 l 3.8,-3.1 0.9,-0.8 0.9,-0.8 1.9,-1.6 c 2.5,-2.1 4.8,-4.5 7.1,-6.8 1.1,-1.2 2.2,-2.4 3.3,-3.6 0.5,-0.6 1.1,-1.2 1.7,-1.8 l 1.6,-1.9 c 4.3,-5 8,-10.3 11.5,-15.9 3.5,-5.5 6.4,-11.4 9,-17.3 2.6,-5.9 4.7,-12.1 6.4,-18.3 3.4,-12.5 4.8,-25.3 4.6,-38 -0.1,-1.6 -0.1,-3.2 -0.2,-4.7 -0.1,-1.6 -0.3,-3.1 -0.4,-4.7 -0.1,-1.6 -0.3,-3.1 -0.5,-4.7 -0.2,-1.6 -0.4,-3.1 -0.7,-4.6 -1,-6.2 -2.5,-12.2 -4.2,-18.1 -3.7,-11.7 -8.8,-22.8 -15.3,-32.8 -3.1,-5 -6.8,-9.7 -10.4,-14.2 -3.8,-4.4 -7.7,-8.6 -11.9,-12.4 -4.1,-3.9 -8.5,-7.3 -12.9,-10.6 -1.1,-0.8 -2.3,-1.5 -3.4,-2.3 -1.1,-0.7 -2.2,-1.6 -3.4,-2.2 -2.3,-1.4 -4.6,-2.8 -6.9,-4.1 -9.3,-5.1 -18.9,-9 -28.5,-11.6 -19.1,-5.3 -37.5,-5.9 -53.4,-3.9 -16,2 -29.4,6.6 -39.8,11.4 -10.5,4.8 -18.1,9.9 -23,13.6 -1.3,0.9 -2.4,1.7 -3.3,2.5 -0.9,0.7 -1.7,1.4 -2.3,1.9 -1.2,1 -1.9,1.5 -1.9,1.5 0,0 0.6,-0.5 1.9,-1.5 0.6,-0.5 1.4,-1.1 2.3,-1.9 0.9,-0.8 2,-1.6 3.3,-2.5 4.9,-3.7 12.5,-8.8 23,-13.7 10.4,-4.9 23.9,-9.6 39.9,-11.6 15.9,-2.1 34.5,-1.5 53.6,3.7 9.6,2.6 19.2,6.4 28.7,11.5 2.4,1.2 4.7,2.7 7,4 1.2,0.7 2.3,1.5 3.4,2.2 1.1,0.8 2.3,1.5 3.4,2.3 4.5,3.3 8.9,6.7 13.1,10.6 4.3,3.8 8.2,8 12,12.4 3.7,4.5 7.4,9.2 10.5,14.2 6.6,10 11.8,21.2 15.6,33 1.8,6 3.3,12 4.4,18.3 0.3,1.5 0.5,3.1 0.7,4.7 0.2,1.6 0.4,3.1 0.5,4.7 0.1,1.6 0.3,3.2 0.4,4.8 0.1,1.6 0.1,3.2 0.2,4.8 0.3,12.8 -1.1,25.8 -4.4,38.4 -1.7,6.3 -3.7,12.6 -6.3,18.6 -2.6,6 -5.5,12 -9,17.6 -3.5,5.6 -7.3,11.1 -11.6,16.2 l -1.6,1.9 c -0.5,0.6 -1.1,1.2 -1.7,1.9 -1.1,1.2 -2.2,2.5 -3.4,3.7 -2.4,2.3 -4.7,4.8 -7.2,6.9 l -1.8,1.7 -0.9,0.8 -1,0.8 -3.9,3.1 c -1.3,1 -2.7,2 -4,3 l -2,1.5 c -0.7,0.5 -1.4,0.9 -2.1,1.4 -5.5,3.8 -11.3,6.9 -17.3,9.8 l -4.5,2.1 -4.6,1.8 c -1.5,0.6 -3.1,1.2 -4.7,1.7 -1.6,0.5 -3.1,1.1 -4.7,1.5 l -4.8,1.4 c -1.6,0.4 -3.2,0.8 -4.8,1.2 -0.8,0.2 -1.6,0.4 -2.4,0.5 l -2.4,0.4 c -1.6,0.3 -3.2,0.7 -4.8,0.8 -25.9,4 -52.5,0.2 -75.4,-9.8 -1.4,-0.6 -2.8,-1.3 -4.2,-2 -1.4,-0.7 -2.8,-1.3 -4.2,-2.1 -1.4,-0.7 -2.7,-1.5 -4.1,-2.2 -1.3,-0.8 -2.6,-1.6 -4,-2.4 l -2,-1.2 -1.9,-1.3 c -1.3,-0.8 -2.5,-1.7 -3.8,-2.5 -1.2,-0.9 -2.4,-1.8 -3.7,-2.7 l -1.8,-1.4 -1.7,-1.4 c -1.2,-1 -2.3,-1.9 -3.5,-2.9 -1.1,-1 -2.2,-2 -3.3,-3 l -1.6,-1.5 c -0.5,-0.5 -1.1,-1.1 -1.6,-1.6 -1,-1.1 -2.1,-2.1 -3.1,-3.2 -1,-1.1 -2,-2.2 -2.9,-3.2 l -1.4,-1.6 -0.7,-0.8 -0.7,-0.8 c -1.8,-2.3 -3.7,-4.5 -5.3,-6.8 -3.5,-4.6 -6.4,-9.4 -9.2,-14.2 -2.6,-4.9 -5.1,-9.8 -7.1,-14.8 -2.1,-5 -3.7,-10 -5.2,-15 -0.7,-2.5 -1.3,-5 -1.9,-7.5 -0.5,-2.5 -1.1,-5 -1.4,-7.5 -3.2,-19.8 -1.8,-38.5 2,-54.3 1.9,-7.9 4.4,-15.2 7.2,-21.7 1.3,-3.3 2.9,-6.3 4.3,-9.2 1.6,-2.8 3,-5.6 4.5,-8.1 6.1,-10 12,-17.1 16.3,-21.7 2.1,-2.4 3.8,-4 4.9,-5.1 1.1,-1.1 1.7,-1.7 1.7,-1.7 0.8,-0.8 2.1,-0.8 2.9,0 0.8,0.8 0.3,2 -0.5,2.8 l 0,0 z"
           id="path290" /><g
           id="g292"><path
             style="fill:#fceed7"
             inkscape:connector-curvature="0"
             d="m 632.5,323.5 c -3.5,1.4 -8.2,2.6 -11.7,2.7 l 5.5,2.9 2.4,5.8 c 0.3,-3.6 2,-8.1 3.8,-11.4 z"
             id="path294" /></g></g></g><line
       style="opacity:0.6;fill:none;stroke:#fceed7;stroke-width:0.09113149;stroke-linecap:round;stroke-linejoin:round;stroke-miterlimit:10"
       stroke-miterlimit="10"
       x1="720.09998"
       y1="426.89999"
       x2="719.70001"
       y2="291.29999"
       id="line296" /><line
       style="opacity:0.6;fill:none;stroke:#fceed7;stroke-width:0.09113149;stroke-linecap:round;stroke-linejoin:round;stroke-miterlimit:10"
       stroke-miterlimit="10"
       x1="720.09998"
       y1="426.89999"
       x2="805.79999"
       y2="321.89999"
       id="line298" /><line
       style="opacity:0.6;fill:none;stroke:#fceed7;stroke-width:0.09113149;stroke-linecap:round;stroke-linejoin:round;stroke-miterlimit:10"
       stroke-miterlimit="10"
       x1="720.09998"
       y1="426.89999"
       x2="634.29999"
       y2="322.29999"
       id="line300" /><line
       style="opacity:0.6;fill:none;stroke:#fceed7;stroke-width:0.09113149;stroke-linecap:round;stroke-linejoin:round;stroke-miterlimit:10"
       stroke-miterlimit="10"
       x1="720.09998"
       y1="426.89999"
       x2="670.90002"
       y2="553.29999"
       id="line302" /><line
       style="opacity:0.6;fill:none;stroke:#fceed7;stroke-width:0.09113149;stroke-linecap:round;stroke-linejoin:round;stroke-miterlimit:10"
       stroke-miterlimit="10"
       x1="720.09998"
       y1="426.89999"
       x2="600.40002"
       y2="490.60001"
       id="line304" /><line
       style="opacity:0.6;fill:none;stroke:#fceed7;stroke-width:0.09113149;stroke-linecap:round;stroke-linejoin:round;stroke-miterlimit:10"
       stroke-miterlimit="10"
       x1="720.09998"
       y1="426.89999"
       x2="766"
       y2="555.70001"
       id="line306" /><line
       style="opacity:0.6;fill:none;stroke:#fceed7;stroke-width:0.09113149;stroke-linecap:round;stroke-linejoin:round;stroke-miterlimit:10"
       stroke-miterlimit="10"
       x1="720.09998"
       y1="426.89999"
       x2="853.20001"
       y2="401.60001"
       id="line308" /><line
       style="opacity:0.6;fill:none;stroke:#fceed7;stroke-width:0.09113149;stroke-linecap:round;stroke-linejoin:round;stroke-miterlimit:10"
       stroke-miterlimit="10"
       x1="720.09998"
       y1="426.89999"
       x2="839.40002"
       y2="491.10001"
       id="line310" /><line
       style="opacity:0.6;fill:none;stroke:#fceed7;stroke-width:0.09113149;stroke-linecap:round;stroke-linejoin:round;stroke-miterlimit:10"
       stroke-miterlimit="10"
       x1="586.90002"
       y1="401.60001"
       x2="720.09998"
       y2="426.89999"
       id="line312" /></g><g
     style="display:none"
     id="Texte_1_"
     display="none"><text
       style="font-size:9.11310005px;opacity:0.5;fill:#fceed7;display:inline;font-family:Helvetica"
       transform="translate(723.1114,320.7466)"
       display="inline"
       font-size="9.1131"
       id="text315">75 %</text>
<text
       style="font-size:9.11310005px;opacity:0.5;fill:#fceed7;display:inline;font-family:Helvetica"
       transform="translate(723.3204,354.8926)"
       display="inline"
       font-size="9.1131"
       id="text317">50 %</text>
<text
       style="font-size:9.11310005px;opacity:0.5;fill:#fceed7;display:inline;font-family:Helvetica"
       transform="translate(723.3204,389.0386)"
       display="inline"
       font-size="9.1131"
       id="text319">25 %</text>
<text
       style="font-size:18px;letter-spacing:1;fill:#ffffff;display:inline;font-family:Helvetica-Light"
       id="Titre_4_"
       transform="translate(679.2866,208.3764)"
       display="inline"
       font-size="18"
       letter-spacing="1">FRANCE</text>
<g
       style="opacity:0.3;display:inline"
       id="Années_26_"
       display="inline"><rect
         style="fill:none"
         x="714.90002"
         y="254.2"
         width="9.6000004"
         height="29.700001"
         id="rect323" /><text
         style="font-size:9.11310005px;fill:#ffffff;font-family:Helvetica-Bold"
         transform="matrix(0,-1,1,0,721.4855,280.6238)"
         font-size="9.1131"
         id="text325">2012</text>
</g><g
       style="opacity:0.3;display:inline"
       id="Années_25_"
       display="inline"><rect
         style="fill:none"
         x="804.70001"
         y="299.60001"
         transform="matrix(0.6383,-0.7698,0.7698,0.6383,62.4374,742.1561)"
         width="32.599998"
         height="10"
         id="rect328" /><text
         style="font-size:9.56879997px;fill:#ffffff;font-family:Helvetica-Bold"
         transform="matrix(0.6383,-0.7697,0.7697,0.6383,814.7026,315.0996)"
         font-size="9.5688"
         id="text330">2013</text>
</g><g
       style="opacity:0.3;display:inline"
       id="Années_24_"
       display="inline"><rect
         style="fill:none"
         x="858.90002"
         y="392.79999"
         transform="matrix(0.9838,-0.1795,0.1795,0.9838,-57.2056,163.9011)"
         width="36"
         height="10.5"
         id="rect333" /><text
         style="font-size:10.02449989px;letter-spacing:1;fill:#ffffff;font-family:Helvetica-Bold"
         transform="matrix(0.9837,-0.1795,0.1795,0.9837,864.7964,402.194)"
         font-size="10.0245"
         letter-spacing="1"
         id="text335">2014</text>
</g><g
       style="opacity:0.3;display:inline"
       id="Années_23_"
       display="inline"><rect
         style="fill:none"
         x="842.40002"
         y="496.20001"
         transform="matrix(0.8839,0.4677,-0.4677,0.8839,334.692,-344.7629)"
         width="38.700001"
         height="11"
         id="rect338" /><text
         style="font-size:10.48009968px;letter-spacing:1;fill:#ffffff;font-family:Helvetica-Bold"
         transform="matrix(0.8839,0.4677,-0.4677,0.8839,849.1199,497.3181)"
         font-size="10.4801"
         letter-spacing="1"
         id="text340">2015</text>
</g><g
       style="opacity:0.3;display:inline"
       id="Années_22_"
       display="inline"><rect
         style="fill:none"
         x="753.09998"
         y="573.09998"
         transform="matrix(0.3351,0.9422,-0.9422,0.3351,1060.0758,-344.4738)"
         width="42"
         height="11.5"
         id="rect343" /><text
         style="font-size:10.9357996px;letter-spacing:1;fill:#ffffff;font-family:Helvetica-Bold"
         transform="matrix(0.3351,0.9422,-0.9422,0.3351,767.5195,566.5239)"
         font-size="10.9358"
         letter-spacing="1"
         id="text345">2016</text>
</g><g
       style="opacity:0.3;display:inline"
       id="Années_21_"
       display="inline"><rect
         style="fill:none"
         x="639.90002"
         y="572"
         transform="matrix(0.3584,-0.9336,0.9336,0.3584,-114.842,988.8635)"
         width="44.299999"
         height="12"
         id="rect348" /><text
         style="font-size:11.39140034px;letter-spacing:1;fill:#ffffff;font-family:Helvetica-Bold"
         transform="matrix(0.3584,-0.9336,0.9336,0.3584,658.955,592.1974)"
         font-size="11.3914"
         letter-spacing="1"
         id="text350">2017</text>
</g><g
       style="opacity:0.3;display:inline"
       id="Années_20_"
       display="inline"><rect
         style="fill:none"
         x="553.40002"
         y="497.60001"
         transform="matrix(0.8811,-0.473,0.473,0.8811,-169.6997,332.7489)"
         width="46.799999"
         height="12.4"
         id="rect353" /><text
         style="font-size:11.84710026px;letter-spacing:1;fill:#ffffff;font-family:Helvetica-Bold"
         transform="matrix(0.8811,-0.473,0.473,0.8811,564.7006,512.8906)"
         font-size="11.8471"
         letter-spacing="1"
         id="text355">2018</text>
</g><g
       style="opacity:0.3;display:inline"
       id="Années_19_"
       display="inline"><rect
         style="fill:none"
         x="534.59998"
         y="391.60001"
         transform="matrix(0.9842,0.1773,-0.1773,0.9842,79.4197,-92.8444)"
         width="49.400002"
         height="12.9"
         id="rect358" /><text
         style="font-size:12.30270004px;letter-spacing:1;fill:#ffffff;font-family:Helvetica-Bold"
         transform="matrix(0.9842,0.1773,-0.1773,0.9842,543.6035,397.6198)"
         font-size="12.3027"
         letter-spacing="1"
         id="text360">2019</text>
</g><g
       style="opacity:0.3;display:inline"
       id="Années_18_"
       display="inline"><rect
         style="fill:none"
         x="591"
         y="296.79999"
         transform="matrix(0.6469,0.7625,-0.7625,0.6469,448.5727,-361.8425)"
         width="48.200001"
         height="13.4"
         id="rect363" /><text
         style="font-size:12.75839996px;letter-spacing:1;fill:#ffffff;font-family:Helvetica-Bold"
         transform="matrix(0.647,0.7625,-0.7625,0.647,602.7408,292.7932)"
         font-size="12.7584"
         letter-spacing="1"
         id="text365">2020</text>
</g><line
       style="fill:none;stroke:#ff9700;stroke-miterlimit:10;display:inline"
       display="inline"
       stroke-miterlimit="10"
       x1="700.20001"
       y1="220.60001"
       x2="739.20001"
       y2="220.60001"
       id="line367" /></g></g></svg>