<?xml version="1.0" encoding="UTF-8" standalone="no"?>
<!-- Created with Inkscape (http://www.inkscape.org/) -->

<svg
   xmlns:dc="http://purl.org/dc/elements/1.1/"
   xmlns:cc="http://creativecommons.org/ns#"
   xmlns:rdf="http://www.w3.org/1999/02/22-rdf-syntax-ns#"
   xmlns:svg="http://www.w3.org/2000/svg"
   xmlns="http://www.w3.org/2000/svg"
   xmlns:sodipodi="http://sodipodi.sourceforge.net/DTD/sodipodi-0.dtd"
   xmlns:inkscape="http://www.inkscape.org/namespaces/inkscape"
   width="450"
   height="770"
   id="svg3628"
   version="1.1"
   inkscape:version="0.48.3.1 r9886"
   sodipodi:docname="New document 2">
  <defs
     id="defs3630" />
  <sodipodi:namedview
     id="base"
     pagecolor="#ffffff"
     bordercolor="#666666"
     borderopacity="1.0"
     inkscape:pageopacity="0.0"
     inkscape:pageshadow="2"
     inkscape:zoom="0.35"
     inkscape:cx="384.7584"
     inkscape:cy="446.46267"
     inkscape:document-units="px"
     inkscape:current-layer="layer1"
     showgrid="false"
     inkscape:window-width="1600"
     inkscape:window-height="854"
     inkscape:window-x="0"
     inkscape:window-y="24"
     inkscape:window-maximized="1" />
  <metadata
     id="metadata3633">
    <rdf:RDF>
      <cc:Work
         rdf:about="">
        <dc:format>image/svg+xml</dc:format>
        <dc:type
           rdf:resource="http://purl.org/dc/dcmitype/StillImage" />
        <dc:title></dc:title>
      </cc:Work>
    </rdf:RDF>
  </metadata>
  <g
     inkscape:label="Layer 1"
     inkscape:groupmode="layer"
     id="layer1"
     transform="translate(0,-282.36218)">
    <g
       transform="translate(-311.76583,250.63157)"
       id="Légende">
      <rect
         style="fill:#b66c00;stroke:#002333;stroke-width:5;stroke-miterlimit:10"
         x="387"
         y="607.40002"
         stroke-miterlimit="10"
         width="22.200001"
         height="12.7"
         id="rect183" />
      <rect
         style="fill:#db8100;stroke:#002333;stroke-width:5;stroke-miterlimit:10"
         x="387"
         y="594.70001"
         stroke-miterlimit="10"
         width="22.200001"
         height="12.7"
         id="rect185" />
      <rect
         style="fill:#ff9700;stroke:#002333;stroke-width:5;stroke-miterlimit:10"
         x="387"
         y="582"
         stroke-miterlimit="10"
         width="22.200001"
         height="12.7"
         id="rect187" />
      <rect
         style="fill:#ffa420;stroke:#002333;stroke-width:5;stroke-miterlimit:10"
         x="387"
         y="569.20001"
         stroke-miterlimit="10"
         width="22.200001"
         height="12.7"
         id="rect189" />
      <rect
         style="fill:#ffb140;stroke:#002333;stroke-width:5;stroke-miterlimit:10"
         x="387"
         y="556.5"
         stroke-miterlimit="10"
         width="22.200001"
         height="12.7"
         id="rect191" />
      <rect
         style="fill:#ffbe60;stroke:#002333;stroke-width:5;stroke-miterlimit:10"
         x="387"
         y="543.79999"
         stroke-miterlimit="10"
         width="22.200001"
         height="12.7"
         id="rect193" />
      <rect
         style="fill:#ffcb80;stroke:#002333;stroke-width:5;stroke-miterlimit:10"
         x="387"
         y="531.09998"
         stroke-miterlimit="10"
         width="22.200001"
         height="12.7"
         id="rect195" />
      <rect
         style="fill:#ffd89f;stroke:#002333;stroke-width:5;stroke-miterlimit:10"
         x="387"
         y="518.40002"
         stroke-miterlimit="10"
         width="22.200001"
         height="12.7"
         id="rect197" />
      <rect
         style="fill:#ffe5bf;stroke:#002333;stroke-width:5;stroke-miterlimit:10"
         x="387"
         y="505.70001"
         stroke-miterlimit="10"
         width="22.200001"
         height="12.7"
         id="rect199" />
      <rect
         style="fill:#fff2df;stroke:#002333;stroke-width:5;stroke-miterlimit:10"
         x="387"
         y="492.89999"
         stroke-miterlimit="10"
         width="22.200001"
         height="12.7"
         id="rect201" />
      <g
         id="g203">
        <text
           transform="translate(389.0745,649.1344)"
           id="text205">
          <tspan
             style="font-size:14px;fill:#fceed7;font-family:RotisSerifStd"
             x="0"
             y="0"
             font-size="14"
             id="tspan207">Énergie renouvelable</tspan>
          <tspan
             style="font-size:14px;fill:#fceed7;font-family:RotisSerifStd"
             x="0"
             y="20"
             font-size="14"
             id="tspan209">production initiale</tspan>
          <tspan
             style="font-size:14px;fill:#fceed7;font-family:RotisSerifStd"
             x="0"
             y="40"
             font-size="14"
             id="tspan211">(hors imports exports)</tspan>
        </text>
      </g>
      <rect
         style="fill:none"
         x="345.10001"
         y="605.70001"
         width="26.200001"
         height="18.799999"
         id="rect213" />
      <text
         style="font-size:14px;fill:#fceed7;font-family:Helvetica"
         transform="translate(345.4481,617.6829)"
         font-size="14"
         id="text215">0 %</text>
      <text
         style="font-size:14px;fill:#fceed7;font-family:Helvetica"
         transform="translate(328.3257,503.2469)"
         font-size="14"
         id="text217">100 %</text>
      <g
         id="g219">
        <g
           id="g221">
          <line
             style="fill:none;stroke:#ff9700;stroke-width:0.2;stroke-miterlimit:10"
             stroke-miterlimit="10"
             x1="381.89999"
             y1="617.20001"
             x2="381.89999"
             y2="500.29999"
             id="line223" />
          <g
             id="g225">
            <path
               style="fill:#ff9700"
               inkscape:connector-curvature="0"
               d="m 381.9,501.2 -1.8,1.1 0,-0.1 1.2,-2.9 c 0.2,-1 0.5,-2 0.7,-3.1 0.2,1 0.5,2 0.7,3.1 l 1.2,2.9 0,0.1 -2,-1.1 z"
               id="path227" />
          </g>
        </g>
      </g>
    </g>
    <g
       transform="translate(-311.76583,250.63157)"
       id="Titre">
      <g
         id="g331">
        <path
           style="fill:#fceed7"
           inkscape:connector-curvature="0"
           d="m 538.9,68.3 h 4.5 V 86 h 10.8 v 3.9 H 538.9 V 68.3 z"
           id="path333" />
        <path
           style="fill:#fceed7"
           inkscape:connector-curvature="0"
           d="m 555.4,75.1 c 1,-0.3 1.7,-0.8 2.1,-1.5 0.2,-0.4 0.3,-0.9 0.3,-1.3 h -2.4 v -3.9 h 4.3 v 3.1 c 0,1.5 -0.4,2.6 -1.1,3.5 -0.7,0.9 -1.8,1.4 -3.1,1.7 v -1.6 z"
           id="path335" />
        <path
           style="fill:#fceed7"
           inkscape:connector-curvature="0"
           d="m 614.5,74.2 c 0.8,0.4 1.4,1 1.8,1.8 v -7.6 h 4.2 V 90 h -4.1 v -2.2 c -0.6,0.9 -1.3,1.6 -2,2.1 -0.7,0.5 -1.7,0.6 -2.8,0.6 -1.9,0 -3.4,-0.8 -4.7,-2.3 -1.3,-1.5 -1.9,-3.4 -1.9,-5.8 0,-2.7 0.6,-4.9 1.9,-6.4 1.3,-1.5 2.9,-2.3 5,-2.3 0.9,-0.1 1.8,0.1 2.6,0.5 z m 1,11.4 c 0.6,-0.9 0.9,-2 0.9,-3.4 0,-2 -0.5,-3.3 -1.5,-4.2 -0.6,-0.5 -1.3,-0.8 -2.1,-0.8 -1.2,0 -2.1,0.5 -2.7,1.4 -0.6,0.9 -0.9,2.1 -0.9,3.4 0,1.5 0.3,2.7 0.9,3.5 0.6,0.8 1.5,1.3 2.6,1.3 1.1,0 2.2,-0.3 2.8,-1.2 z"
           id="path337" />
        <path
           style="fill:#fceed7"
           inkscape:connector-curvature="0"
           d="m 627.7,93 0.5,0 c 0.4,0 0.8,0 1.2,0 0.4,0 0.7,-0.2 0.9,-0.3 0.2,-0.2 0.5,-0.5 0.7,-1 0.2,-0.5 0.3,-0.8 0.3,-1 L 625.4,74 h 4.6 l 3.5,11.8 3.3,-11.8 h 4.4 l -5.5,15.7 c -1.1,3 -1.9,4.9 -2.5,5.6 -0.6,0.7 -1.8,1.1 -3.7,1.1 -0.4,0 -0.7,0 -0.9,0 -0.2,0 -0.6,0 -1,-0.1 V 93 z"
           id="path339" />
        <path
           style="fill:#fceed7"
           inkscape:connector-curvature="0"
           d="m 649.2,84.8 c 0.1,0.7 0.3,1.3 0.6,1.6 0.5,0.6 1.5,0.8 2.9,0.8 0.8,0 1.5,-0.1 2,-0.4 0.5,-0.3 0.7,-0.6 0.7,-1.1 0,-0.5 -0.2,-0.8 -0.6,-1.1 -0.4,-0.3 -1.8,-0.7 -4.4,-1.3 -1.8,-0.4 -3.1,-1 -3.8,-1.7 -0.7,-0.7 -1.1,-1.6 -1.1,-2.9 0,-1.5 0.6,-2.7 1.7,-3.8 1.2,-1.1 2.8,-1.6 4.9,-1.6 2,0 3.6,0.4 4.9,1.2 1.3,0.8 2,2.2 2.2,4.1 H 655 c -0.1,-0.5 -0.2,-1 -0.5,-1.3 -0.5,-0.6 -1.2,-0.8 -2.4,-0.8 -0.9,0 -1.6,0.1 -1.9,0.4 -0.3,0.3 -0.6,0.6 -0.6,1 0,0.5 0.2,0.8 0.6,1 0.4,0.2 1.9,0.6 4.4,1.2 1.7,0.4 2.9,1 3.7,1.8 0.8,0.8 1.2,1.8 1.2,3 0,1.6 -0.6,2.9 -1.8,3.9 -1.2,1 -3,1.5 -5.5,1.5 -2.5,0 -4.4,-0.5 -5.6,-1.6 -1.2,-1.1 -1.8,-2.4 -1.8,-4.1 h 4.4 z"
           id="path341" />
        <path
           style="fill:#fceed7"
           inkscape:connector-curvature="0"
           d="m 668.7,84.8 c 0.1,0.7 0.3,1.3 0.6,1.6 0.5,0.6 1.5,0.8 2.9,0.8 0.8,0 1.5,-0.1 2,-0.4 0.5,-0.3 0.7,-0.6 0.7,-1.1 0,-0.5 -0.2,-0.8 -0.6,-1.1 -0.4,-0.3 -1.8,-0.7 -4.4,-1.3 -1.8,-0.4 -3.1,-1 -3.8,-1.7 -0.7,-0.7 -1.1,-1.6 -1.1,-2.9 0,-1.5 0.6,-2.7 1.7,-3.8 1.2,-1.1 2.8,-1.6 4.9,-1.6 2,0 3.6,0.4 4.9,1.2 1.3,0.8 2,2.2 2.2,4.1 h -4.2 c -0.1,-0.5 -0.2,-1 -0.5,-1.3 -0.5,-0.6 -1.2,-0.8 -2.4,-0.8 -0.9,0 -1.6,0.1 -1.9,0.4 -0.3,0.3 -0.6,0.6 -0.6,1 0,0.5 0.2,0.8 0.6,1 0.4,0.2 1.9,0.6 4.4,1.2 1.7,0.4 2.9,1 3.7,1.8 0.8,0.8 1.2,1.8 1.2,3 0,1.6 -0.6,2.9 -1.8,3.9 -1.2,1 -3,1.5 -5.5,1.5 -2.5,0 -4.4,-0.5 -5.6,-1.6 -1.2,-1.1 -1.8,-2.4 -1.8,-4.1 h 4.4 z"
           id="path343" />
        <path
           style="fill:#fceed7"
           inkscape:connector-curvature="0"
           d="m 695.4,74.3 c 1.1,0.5 2,1.3 2.8,2.4 0.7,0.9 1.1,2 1.3,3.3 0.1,0.7 0.2,1.8 0.1,3.2 H 688 c 0.1,1.6 0.6,2.7 1.7,3.4 0.6,0.4 1.4,0.6 2.3,0.6 1,0 1.7,-0.2 2.3,-0.7 0.3,-0.3 0.6,-0.6 0.9,-1.1 h 4.3 c -0.1,0.9 -0.6,1.9 -1.5,2.9 -1.4,1.6 -3.4,2.3 -6,2.3 -2.1,0 -4,-0.7 -5.6,-2 -1.6,-1.3 -2.4,-3.4 -2.4,-6.4 0,-2.8 0.7,-4.9 2.2,-6.4 1.5,-1.5 3.4,-2.2 5.7,-2.2 1.2,-0.1 2.4,0.2 3.5,0.7 z m -6.2,3.6 c -0.6,0.6 -1,1.4 -1.1,2.5 h 7.2 c -0.1,-1.1 -0.4,-1.9 -1.1,-2.5 -0.7,-0.6 -1.5,-0.9 -2.5,-0.9 -1.1,0 -1.9,0.3 -2.5,0.9 z m 7.4,-10.5 -4.5,4.4 h -3 l 2.8,-4.4 h 4.7 z"
           id="path345" />
        <path
           style="fill:#fceed7"
           inkscape:connector-curvature="0"
           d="m 715.7,74.3 c 1.1,0.5 2,1.3 2.8,2.4 0.7,0.9 1.1,2 1.3,3.3 0.1,0.7 0.2,1.8 0.1,3.2 h -11.6 c 0.1,1.6 0.6,2.7 1.7,3.4 0.6,0.4 1.4,0.6 2.3,0.6 1,0 1.7,-0.2 2.3,-0.7 0.3,-0.3 0.6,-0.6 0.9,-1.1 h 4.3 c -0.1,0.9 -0.6,1.9 -1.5,2.9 -1.4,1.6 -3.4,2.3 -6,2.3 -2.1,0 -4,-0.7 -5.6,-2 -1.6,-1.3 -2.4,-3.4 -2.4,-6.4 0,-2.8 0.7,-4.9 2.2,-6.4 1.5,-1.5 3.4,-2.2 5.7,-2.2 1.1,-0.1 2.3,0.2 3.5,0.7 z m -6.3,3.6 c -0.6,0.6 -1,1.4 -1.1,2.5 h 7.2 c -0.1,-1.1 -0.4,-1.9 -1.1,-2.5 -0.7,-0.6 -1.5,-0.9 -2.5,-0.9 -1.1,0 -1.9,0.3 -2.5,0.9 z"
           id="path347" />
        <path
           style="fill:#fceed7"
           inkscape:connector-curvature="0"
           d="m 610.5,98.9 c 0.4,0.2 0.8,0.6 1.1,1 v -4.5 h 2.5 v 12.7 h -2.4 v -1.3 c -0.3,0.6 -0.7,1 -1.2,1.2 -0.5,0.2 -1,0.4 -1.7,0.4 -1.1,0 -2,-0.4 -2.8,-1.3 -0.7,-0.9 -1.1,-2 -1.1,-3.4 0,-1.6 0.4,-2.9 1.1,-3.8 0.7,-0.9 1.7,-1.4 3,-1.4 0.6,0 1.1,0.2 1.5,0.4 z m 0.6,6.7 c 0.4,-0.5 0.5,-1.2 0.5,-2 0,-1.1 -0.3,-2 -0.9,-2.5 -0.4,-0.3 -0.8,-0.4 -1.2,-0.4 -0.7,0 -1.2,0.3 -1.6,0.8 -0.3,0.5 -0.5,1.2 -0.5,2 0,0.9 0.2,1.6 0.5,2.1 0.3,0.5 0.9,0.8 1.6,0.8 0.7,0 1.3,-0.3 1.6,-0.8 z"
           id="path349" />
        <path
           style="fill:#fceed7"
           inkscape:connector-curvature="0"
           d="m 624.2,98.9 c 0.7,0.3 1.2,0.8 1.6,1.4 0.4,0.6 0.6,1.2 0.7,1.9 0.1,0.4 0.1,1.1 0.1,1.9 h -6.8 c 0,0.9 0.4,1.6 1,2 0.4,0.2 0.8,0.4 1.4,0.4 0.6,0 1,-0.1 1.4,-0.4 0.2,-0.2 0.4,-0.4 0.5,-0.6 h 2.5 c -0.1,0.6 -0.4,1.1 -0.9,1.7 -0.8,0.9 -2,1.4 -3.5,1.4 -1.2,0 -2.3,-0.4 -3.3,-1.2 -1,-0.8 -1.4,-2 -1.4,-3.8 0,-1.6 0.4,-2.9 1.3,-3.7 0.9,-0.9 2,-1.3 3.4,-1.3 0.6,-0.1 1.3,0.1 2,0.3 z m -3.7,2.2 c -0.3,0.4 -0.6,0.8 -0.7,1.5 h 4.2 c 0,-0.7 -0.3,-1.1 -0.7,-1.5 -0.4,-0.3 -0.9,-0.5 -1.5,-0.5 -0.4,-0.1 -0.9,0.1 -1.3,0.5 z"
           id="path351" />
        <path
           style="fill:#fceed7"
           inkscape:connector-curvature="0"
           d="m 631.7,105.1 c 0.1,0.4 0.2,0.7 0.3,0.9 0.3,0.3 0.9,0.5 1.7,0.5 0.5,0 0.9,-0.1 1.2,-0.2 0.3,-0.1 0.4,-0.4 0.4,-0.6 0,-0.3 -0.1,-0.5 -0.3,-0.6 -0.2,-0.1 -1.1,-0.4 -2.6,-0.7 -1.1,-0.3 -1.8,-0.6 -2.3,-1 -0.4,-0.4 -0.7,-1 -0.7,-1.7 0,-0.9 0.3,-1.6 1,-2.2 0.7,-0.6 1.6,-0.9 2.9,-0.9 1.2,0 2.1,0.2 2.9,0.7 0.8,0.5 1.2,1.3 1.3,2.4 H 635 c 0,-0.3 -0.1,-0.6 -0.3,-0.7 -0.3,-0.3 -0.7,-0.5 -1.4,-0.5 -0.5,0 -0.9,0.1 -1.1,0.2 -0.2,0.2 -0.3,0.4 -0.3,0.6 0,0.3 0.1,0.5 0.4,0.6 0.2,0.1 1.1,0.4 2.6,0.7 1,0.2 1.7,0.6 2.2,1 0.5,0.5 0.7,1.1 0.7,1.8 0,0.9 -0.3,1.7 -1,2.3 -0.7,0.6 -1.8,0.9 -3.2,0.9 -1.5,0 -2.6,-0.3 -3.3,-0.9 -0.7,-0.6 -1.1,-1.4 -1.1,-2.4 h 2.5 z"
           id="path353" />
        <path
           style="fill:#fceed7"
           inkscape:connector-curvature="0"
           d="m 341.4,120.3 c 1.1,0.5 2,1.3 2.8,2.4 0.7,0.9 1.1,2 1.3,3.3 0.1,0.7 0.2,1.8 0.1,3.2 H 334 c 0.1,1.6 0.6,2.7 1.7,3.4 0.6,0.4 1.4,0.6 2.3,0.6 1,0 1.7,-0.2 2.3,-0.7 0.3,-0.3 0.6,-0.6 0.9,-1.1 h 4.3 c -0.1,0.9 -0.6,1.9 -1.5,2.9 -1.4,1.6 -3.4,2.3 -6,2.3 -2.1,0 -4,-0.7 -5.6,-2 -1.6,-1.3 -2.4,-3.4 -2.4,-6.4 0,-2.8 0.7,-4.9 2.2,-6.4 1.5,-1.5 3.4,-2.2 5.7,-2.2 1.1,-0.1 2.3,0.2 3.5,0.7 z m -6.3,3.6 c -0.6,0.6 -1,1.4 -1.1,2.5 h 7.2 c -0.1,-1.1 -0.4,-1.9 -1.1,-2.5 -0.7,-0.6 -1.5,-0.9 -2.5,-0.9 -1.1,0 -1.9,0.3 -2.5,0.9 z m 7.4,-10.5 -4.5,4.4 h -3 l 2.8,-4.4 h 4.7 z"
           id="path355" />
        <path
           style="fill:#fceed7"
           inkscape:connector-curvature="0"
           d="m 363.7,120.9 c 1,0.9 1.6,2.3 1.6,4.3 V 136 H 361 v -9.7 c 0,-0.8 -0.1,-1.5 -0.3,-1.9 -0.4,-0.8 -1.2,-1.2 -2.3,-1.2 -1.4,0 -2.4,0.6 -2.9,1.8 -0.3,0.6 -0.4,1.4 -0.4,2.4 v 8.6 h -4.2 v -16 h 4 v 2.3 c 0.5,-0.8 1,-1.4 1.5,-1.8 0.9,-0.6 1.9,-1 3.3,-1 1.6,0.1 3,0.5 4,1.4 z"
           id="path357" />
        <path
           style="fill:#fceed7"
           inkscape:connector-curvature="0"
           d="m 536.2,120.9 c 1,0.9 1.6,2.3 1.6,4.3 V 136 h -4.3 v -9.7 c 0,-0.8 -0.1,-1.5 -0.3,-1.9 -0.4,-0.8 -1.2,-1.2 -2.3,-1.2 -1.4,0 -2.4,0.6 -2.9,1.8 -0.3,0.6 -0.4,1.4 -0.4,2.4 v 8.6 h -4.2 v -16 h 4 v 2.3 c 0.5,-0.8 1,-1.4 1.5,-1.8 0.9,-0.6 1.9,-1 3.3,-1 1.6,0.1 3,0.5 4,1.4 z"
           id="path359" />
        <path
           style="fill:#fceed7"
           inkscape:connector-curvature="0"
           d="m 382.5,120.3 c 1.1,0.5 2,1.3 2.8,2.4 0.7,0.9 1.1,2 1.3,3.3 0.1,0.7 0.2,1.8 0.1,3.2 H 375 c 0.1,1.6 0.6,2.7 1.7,3.4 0.6,0.4 1.4,0.6 2.3,0.6 1,0 1.7,-0.2 2.3,-0.7 0.3,-0.3 0.6,-0.6 0.9,-1.1 h 4.3 c -0.1,0.9 -0.6,1.9 -1.5,2.9 -1.4,1.6 -3.4,2.3 -6,2.3 -2.1,0 -4,-0.7 -5.6,-2 -1.6,-1.3 -2.4,-3.4 -2.4,-6.4 0,-2.8 0.7,-4.9 2.2,-6.4 1.5,-1.5 3.4,-2.2 5.7,-2.2 1.2,-0.1 2.5,0.2 3.6,0.7 z m -6.3,3.6 c -0.6,0.6 -1,1.4 -1.1,2.5 h 7.2 c -0.1,-1.1 -0.4,-1.9 -1.1,-2.5 -0.7,-0.6 -1.5,-0.9 -2.5,-0.9 -1.1,0 -1.9,0.3 -2.5,0.9 z"
           id="path361" />
        <path
           style="fill:#fceed7"
           inkscape:connector-curvature="0"
           d="m 400.9,119.6 c 0.1,0 0.2,0 0.4,0 v 4.3 c -0.3,0 -0.5,0 -0.7,-0.1 -0.2,-0.1 -0.4,0 -0.5,0 -1.7,0 -2.8,0.5 -3.4,1.6 -0.3,0.6 -0.5,1.6 -0.5,2.8 v 7.6 H 392 v -16 h 4 v 2.8 c 0.6,-1.1 1.2,-1.8 1.7,-2.2 0.8,-0.7 1.8,-1 3,-1 0,0.2 0.1,0.2 0.2,0.2 z"
           id="path363" />
        <path
           style="fill:#fceed7"
           inkscape:connector-curvature="0"
           d="m 414.4,119.9 c 1,0.4 1.8,1.2 2.5,2.3 V 120 h 4.1 v 15.1 c 0,2.1 -0.3,3.6 -1,4.7 -1.2,1.8 -3.5,2.7 -6.9,2.7 -2,0 -3.7,-0.4 -5,-1.2 -1.3,-0.8 -2,-2 -2.1,-3.6 h 4.5 c 0.1,0.5 0.3,0.8 0.6,1.1 0.4,0.4 1.2,0.6 2.3,0.6 1.5,0 2.5,-0.5 3,-1.5 0.3,-0.6 0.5,-1.7 0.5,-3.3 v -1 c -0.4,0.7 -0.8,1.2 -1.3,1.5 -0.8,0.6 -1.9,1 -3.2,1 -2.1,0 -3.7,-0.7 -4.9,-2.2 -1.2,-1.5 -1.8,-3.4 -1.8,-5.9 0,-2.4 0.6,-4.4 1.8,-6 1.2,-1.6 2.9,-2.4 5,-2.4 0.6,0 1.3,0.1 1.9,0.3 z m 1.4,11.5 c 0.7,-0.7 1,-1.9 1,-3.5 0,-1.5 -0.3,-2.7 -1,-3.5 -0.7,-0.8 -1.5,-1.2 -2.6,-1.2 -1.5,0 -2.5,0.7 -3,2.1 -0.3,0.7 -0.4,1.6 -0.4,2.7 0,0.9 0.2,1.8 0.5,2.5 0.6,1.3 1.6,2 3,2 1,0 1.8,-0.4 2.5,-1.1 z"
           id="path365" />
        <path
           style="fill:#fceed7"
           inkscape:connector-curvature="0"
           d="m 431.7,118.1 h -4.2 v -3.9 h 4.2 v 3.9 z m -4.2,1.9 h 4.2 v 16 h -4.2 v -16 z"
           id="path367" />
        <path
           style="fill:#fceed7"
           inkscape:connector-curvature="0"
           d="m 449.1,120.3 c 1.1,0.5 2,1.3 2.8,2.4 0.7,0.9 1.1,2 1.3,3.3 0.1,0.7 0.2,1.8 0.1,3.2 h -11.6 c 0.1,1.6 0.6,2.7 1.7,3.4 0.6,0.4 1.4,0.6 2.3,0.6 1,0 1.7,-0.2 2.3,-0.7 0.3,-0.3 0.6,-0.6 0.9,-1.1 h 4.3 c -0.1,0.9 -0.6,1.9 -1.5,2.9 -1.4,1.6 -3.4,2.3 -6,2.3 -2.1,0 -4,-0.7 -5.6,-2 -1.6,-1.3 -2.4,-3.4 -2.4,-6.4 0,-2.8 0.7,-4.9 2.2,-6.4 1.5,-1.5 3.4,-2.2 5.7,-2.2 1.1,-0.1 2.4,0.2 3.5,0.7 z m -6.3,3.6 c -0.6,0.6 -1,1.4 -1.1,2.5 h 7.2 c -0.1,-1.1 -0.4,-1.9 -1.1,-2.5 -0.7,-0.6 -1.5,-0.9 -2.5,-0.9 -1,0 -1.9,0.3 -2.5,0.9 z"
           id="path369" />
        <path
           style="fill:#fceed7"
           inkscape:connector-curvature="0"
           d="m 461.8,130.8 c 0.1,0.7 0.3,1.3 0.6,1.6 0.5,0.6 1.5,0.8 2.9,0.8 0.8,0 1.5,-0.1 2,-0.4 0.5,-0.3 0.7,-0.6 0.7,-1.1 0,-0.5 -0.2,-0.8 -0.6,-1.1 -0.4,-0.3 -1.8,-0.7 -4.4,-1.3 -1.8,-0.4 -3.1,-1 -3.8,-1.7 -0.7,-0.7 -1.1,-1.6 -1.1,-2.9 0,-1.5 0.6,-2.7 1.7,-3.8 1.2,-1.1 2.8,-1.6 4.9,-1.6 2,0 3.6,0.4 4.9,1.2 1.3,0.8 2,2.2 2.2,4.1 h -4.2 c -0.1,-0.5 -0.2,-1 -0.5,-1.3 -0.5,-0.6 -1.2,-0.8 -2.4,-0.8 -0.9,0 -1.6,0.1 -1.9,0.4 -0.3,0.3 -0.6,0.6 -0.6,1 0,0.5 0.2,0.8 0.6,1 0.4,0.2 1.9,0.6 4.4,1.2 1.7,0.4 2.9,1 3.7,1.8 0.8,0.8 1.2,1.8 1.2,3 0,1.6 -0.6,2.9 -1.8,3.9 -1.2,1 -3,1.5 -5.5,1.5 -2.5,0 -4.4,-0.5 -5.6,-1.6 -1.2,-1.1 -1.8,-2.4 -1.8,-4.1 h 4.4 z"
           id="path371" />
        <path
           style="fill:#fceed7"
           inkscape:connector-curvature="0"
           d="m 498.5,119.6 c 0.1,0 0.2,0 0.4,0 v 4.3 c -0.3,0 -0.5,0 -0.7,-0.1 -0.2,-0.1 -0.4,0 -0.5,0 -1.7,0 -2.8,0.5 -3.4,1.6 -0.3,0.6 -0.5,1.6 -0.5,2.8 v 7.6 h -4.2 v -16 h 4 v 2.8 c 0.6,-1.1 1.2,-1.8 1.7,-2.2 0.8,-0.7 1.8,-1 3,-1 0.1,0.2 0.1,0.2 0.2,0.2 z"
           id="path373" />
        <path
           style="fill:#fceed7"
           inkscape:connector-curvature="0"
           d="m 514.6,120.3 c 1.1,0.5 2,1.3 2.8,2.4 0.7,0.9 1.1,2 1.3,3.3 0.1,0.7 0.2,1.8 0.1,3.2 h -11.6 c 0.1,1.6 0.6,2.7 1.7,3.4 0.6,0.4 1.4,0.6 2.3,0.6 1,0 1.7,-0.2 2.3,-0.7 0.3,-0.3 0.6,-0.6 0.9,-1.1 h 4.3 c -0.1,0.9 -0.6,1.9 -1.5,2.9 -1.4,1.6 -3.4,2.3 -6,2.3 -2.1,0 -4,-0.7 -5.6,-2 -1.6,-1.3 -2.4,-3.4 -2.4,-6.4 0,-2.8 0.7,-4.9 2.2,-6.4 1.5,-1.5 3.4,-2.2 5.7,-2.2 1.2,-0.1 2.4,0.2 3.5,0.7 z m -6.2,3.6 c -0.6,0.6 -1,1.4 -1.1,2.5 h 7.2 c -0.1,-1.1 -0.4,-1.9 -1.1,-2.5 -0.7,-0.6 -1.5,-0.9 -2.5,-0.9 -1.1,0 -1.9,0.3 -2.5,0.9 z"
           id="path375" />
        <path
           style="fill:#fceed7"
           inkscape:connector-curvature="0"
           d="m 555.7,134 c -1.3,1.7 -3.4,2.5 -6.1,2.5 -2.7,0 -4.8,-0.8 -6.1,-2.5 -1.3,-1.7 -2,-3.7 -2,-6 0,-2.3 0.7,-4.3 2,-6 1.3,-1.7 3.4,-2.5 6.1,-2.5 2.7,0 4.8,0.8 6.1,2.5 1.3,1.7 2,3.7 2,6 0,2.3 -0.7,4.3 -2,6 z m -3.4,-2.3 c 0.7,-0.9 1,-2.1 1,-3.7 0,-1.6 -0.3,-2.8 -1,-3.7 -0.7,-0.9 -1.6,-1.3 -2.8,-1.3 -1.2,0 -2.2,0.4 -2.8,1.3 -0.6,0.9 -1,2.1 -1,3.7 0,1.6 0.3,2.8 1,3.7 0.7,0.9 1.6,1.3 2.8,1.3 1.2,0 2.2,-0.5 2.8,-1.3 z"
           id="path377" />
        <path
           style="fill:#fceed7"
           inkscape:connector-curvature="0"
           d="m 567.5,120 v 9.6 c 0,0.9 0.1,1.6 0.3,2.1 0.4,0.8 1.1,1.2 2.2,1.2 1.4,0 2.4,-0.6 2.9,-1.7 0.3,-0.6 0.4,-1.5 0.4,-2.5 V 120 h 4.2 v 16 h -4.1 v -2.3 c 0,0 -0.1,0.2 -0.3,0.4 -0.2,0.2 -0.3,0.5 -0.6,0.6 -0.7,0.6 -1.3,1 -1.9,1.2 -0.6,0.2 -1.3,0.3 -2.1,0.3 -2.4,0 -3.9,-0.8 -4.8,-2.5 -0.5,-0.9 -0.7,-2.3 -0.7,-4.1 V 120 h 4.5 z"
           id="path379" />
        <path
           style="fill:#fceed7"
           inkscape:connector-curvature="0"
           d="m 594.1,120 h 4.5 l -5.8,16 h -4.4 l -5.7,-16 h 4.7 l 3.3,11.8 3.4,-11.8 z"
           id="path381" />
        <path
           style="fill:#fceed7"
           inkscape:connector-curvature="0"
           d="m 613.7,120.3 c 1.1,0.5 2,1.3 2.8,2.4 0.7,0.9 1.1,2 1.3,3.3 0.1,0.7 0.2,1.8 0.1,3.2 h -11.6 c 0.1,1.6 0.6,2.7 1.7,3.4 0.6,0.4 1.4,0.6 2.3,0.6 1,0 1.7,-0.2 2.3,-0.7 0.3,-0.3 0.6,-0.6 0.9,-1.1 h 4.3 c -0.1,0.9 -0.6,1.9 -1.5,2.9 -1.4,1.6 -3.4,2.3 -6,2.3 -2.1,0 -4,-0.7 -5.6,-2 -1.6,-1.3 -2.4,-3.4 -2.4,-6.4 0,-2.8 0.7,-4.9 2.2,-6.4 1.5,-1.5 3.4,-2.2 5.7,-2.2 1.1,-0.1 2.4,0.2 3.5,0.7 z m -6.2,3.6 c -0.6,0.6 -1,1.4 -1.1,2.5 h 7.2 c -0.1,-1.1 -0.4,-1.9 -1.1,-2.5 -0.7,-0.6 -1.5,-0.9 -2.5,-0.9 -1.1,0 -2,0.3 -2.5,0.9 z"
           id="path383" />
        <path
           style="fill:#fceed7"
           inkscape:connector-curvature="0"
           d="m 627.5,135.9 h -4.2 v -21.6 h 4.2 v 21.6 z"
           id="path385" />
        <path
           style="fill:#fceed7"
           inkscape:connector-curvature="0"
           d="m 640.6,126.2 c 0.8,-0.1 1.3,-0.2 1.7,-0.4 0.6,-0.3 0.9,-0.6 0.9,-1.2 0,-0.7 -0.2,-1.1 -0.7,-1.4 -0.5,-0.2 -1.1,-0.4 -2,-0.4 -1,0 -1.7,0.2 -2.1,0.7 -0.3,0.4 -0.5,0.8 -0.6,1.5 h -4 c 0.1,-1.4 0.5,-2.5 1.2,-3.4 1.1,-1.4 3,-2.1 5.7,-2.1 1.8,0 3.3,0.3 4.7,1 1.4,0.7 2,2 2,3.9 v 7.3 c 0,0.5 0,1.1 0,1.8 0,0.5 0.1,0.9 0.2,1.1 0.1,0.2 0.3,0.4 0.6,0.5 v 0.6 h -4.5 c -0.1,-0.3 -0.2,-0.6 -0.3,-0.9 -0.1,-0.3 -0.1,-0.6 -0.1,-1 -0.6,0.6 -1.2,1.2 -2,1.6 -0.9,0.5 -1.9,0.8 -3.1,0.8 -1.5,0 -2.7,-0.4 -3.6,-1.2 -0.9,-0.8 -1.4,-2 -1.4,-3.5 0,-2 0.8,-3.4 2.3,-4.3 0.8,-0.5 2.1,-0.8 3.7,-1 l 1.4,0 z m 2.6,2 c -0.3,0.2 -0.5,0.3 -0.8,0.4 -0.3,0.1 -0.6,0.2 -1.1,0.3 l -1,0.2 c -0.9,0.2 -1.5,0.3 -1.9,0.6 -0.7,0.4 -1,1 -1,1.8 0,0.7 0.2,1.2 0.6,1.5 0.4,0.3 0.9,0.5 1.5,0.5 0.9,0 1.8,-0.3 2.5,-0.8 0.8,-0.5 1.2,-1.5 1.2,-2.9 v -1.6 z"
           id="path387" />
        <path
           style="fill:#fceed7"
           inkscape:connector-curvature="0"
           d="m 667.5,121.9 c 1.2,1.5 1.8,3.5 1.8,5.9 0,2.5 -0.6,4.5 -1.8,6.2 -1.2,1.7 -2.8,2.4 -4.9,2.4 -1.3,0 -2.4,-0.3 -3.2,-0.8 -0.5,-0.3 -1,-0.9 -1.6,-1.6 v 2 h -4.1 v -21.6 h 4.2 v 7.7 c 0.5,-0.7 1.1,-1.3 1.8,-1.7 0.8,-0.5 1.7,-0.7 2.9,-0.7 2.1,-0.1 3.7,0.7 4.9,2.2 z m -3.4,9.7 c 0.6,-0.9 0.9,-2 0.9,-3.4 0,-1.1 -0.1,-2.1 -0.4,-2.8 -0.6,-1.4 -1.6,-2.1 -3.1,-2.1 -1.5,0 -2.6,0.7 -3.1,2.1 -0.3,0.7 -0.4,1.7 -0.4,2.8 0,1.4 0.3,2.5 0.9,3.4 0.6,0.9 1.5,1.3 2.8,1.3 0.9,0 1.7,-0.4 2.4,-1.3 z"
           id="path389" />
        <path
           style="fill:#fceed7"
           inkscape:connector-curvature="0"
           d="m 679.3,135.9 h -4.2 v -21.6 h 4.2 v 21.6 z"
           id="path391" />
        <path
           style="fill:#fceed7"
           inkscape:connector-curvature="0"
           d="m 696.7,120.3 c 1.1,0.5 2,1.3 2.8,2.4 0.7,0.9 1.1,2 1.3,3.3 0.1,0.7 0.2,1.8 0.1,3.2 h -11.6 c 0.1,1.6 0.6,2.7 1.7,3.4 0.6,0.4 1.4,0.6 2.3,0.6 1,0 1.7,-0.2 2.3,-0.7 0.3,-0.3 0.6,-0.6 0.9,-1.1 h 4.3 c -0.1,0.9 -0.6,1.9 -1.5,2.9 -1.4,1.6 -3.4,2.3 -6,2.3 -2.1,0 -4,-0.7 -5.6,-2 -1.6,-1.3 -2.4,-3.4 -2.4,-6.4 0,-2.8 0.7,-4.9 2.2,-6.4 1.5,-1.5 3.4,-2.2 5.7,-2.2 1.1,-0.1 2.4,0.2 3.5,0.7 z m -6.2,3.6 c -0.6,0.6 -1,1.4 -1.1,2.5 h 7.2 c -0.1,-1.1 -0.4,-1.9 -1.1,-2.5 -0.7,-0.6 -1.5,-0.9 -2.5,-0.9 -1.1,0 -2,0.3 -2.5,0.9 z"
           id="path393" />
        <path
           style="fill:#fceed7"
           inkscape:connector-curvature="0"
           d="m 709.5,130.8 c 0.1,0.7 0.3,1.3 0.6,1.6 0.5,0.6 1.5,0.8 2.9,0.8 0.8,0 1.5,-0.1 2,-0.4 0.5,-0.3 0.7,-0.6 0.7,-1.1 0,-0.5 -0.2,-0.8 -0.6,-1.1 -0.4,-0.3 -1.8,-0.7 -4.4,-1.3 -1.8,-0.4 -3.1,-1 -3.8,-1.7 -0.7,-0.7 -1.1,-1.6 -1.1,-2.9 0,-1.5 0.6,-2.7 1.7,-3.8 1.2,-1.1 2.8,-1.6 4.9,-1.6 2,0 3.6,0.4 4.9,1.2 1.3,0.8 2,2.2 2.2,4.1 h -4.2 c -0.1,-0.5 -0.2,-1 -0.5,-1.3 -0.5,-0.6 -1.2,-0.8 -2.4,-0.8 -0.9,0 -1.6,0.1 -1.9,0.4 -0.3,0.3 -0.6,0.6 -0.6,1 0,0.5 0.2,0.8 0.6,1 0.4,0.2 1.9,0.6 4.4,1.2 1.7,0.4 2.9,1 3.7,1.8 0.8,0.8 1.2,1.8 1.2,3 0,1.6 -0.6,2.9 -1.8,3.9 -1.2,1 -3,1.5 -5.5,1.5 -2.5,0 -4.4,-0.5 -5.6,-1.6 -1.2,-1.1 -1.8,-2.4 -1.8,-4.1 h 4.4 z"
           id="path395" />
      </g>
      <rect
         style="fill:none"
         x="242.60001"
         y="265.79999"
         width="6.5999999"
         height="0"
         id="rect397" />
      <line
         style="fill:none;stroke:#ff9700;stroke-miterlimit:10"
         stroke-miterlimit="10"
         x1="720.59998"
         y1="156.5"
         x2="539.70001"
         y2="156.5"
         id="line399" />
      <circle
         d="m 599.70001,80 c 0,9.941125 -8.05887,18 -18,18 -9.94112,0 -18,-8.058875 -18,-18 0,-9.941125 8.05888,-18 18,-18 9.94113,0 18,8.058875 18,18 z"
         style="fill:none;stroke:#ff9700;stroke-width:2.50609994;stroke-miterlimit:10"
         sodipodi:ry="18"
         sodipodi:rx="18"
         sodipodi:cy="80"
         sodipodi:cx="581.70001"
         stroke-miterlimit="10"
         cx="581.70001"
         cy="80"
         r="18"
         id="circle401" />
    </g>
    <g
       transform="translate(-311.76583,250.63157)"
       id="Texte_1_">
      <rect
         style="fill:none"
         x="329.70001"
         y="176.5"
         width="390.89999"
         height="61.5"
         id="rect404" />
      <text
         transform="translate(329.6887,189.8004)"
         id="text406">
        <tspan
           style="font-size:16px;fill:#fceed7;font-family:RotisSerifStd"
           x="0"
           y="0"
           font-size="16"
           id="tspan408">En</tspan>
        <tspan
           style="font-size:16px;letter-spacing:1;fill:#fceed7;font-family:RotisSerifStd"
           x="19.1"
           y="0"
           font-size="16"
           letter-spacing="1"
           id="tspan410" />
        <tspan
           style="font-size:16px;fill:#fceed7;font-family:RotisSerifStd"
           x="25.200001"
           y="0"
           font-size="16"
           id="tspan412">dehors</tspan>
        <tspan
           style="font-size:16px;letter-spacing:1;fill:#fceed7;font-family:RotisSerifStd"
           x="74.199997"
           y="0"
           font-size="16"
           letter-spacing="1"
           id="tspan414" />
        <tspan
           style="font-size:16px;fill:#fceed7;font-family:RotisSerifStd"
           x="80.199997"
           y="0"
           font-size="16"
           id="tspan416">des</tspan>
        <tspan
           style="font-size:16px;letter-spacing:1;fill:#fceed7;font-family:RotisSerifStd"
           x="104.3"
           y="0"
           font-size="16"
           letter-spacing="1"
           id="tspan418" />
        <tspan
           style="font-size:16px;fill:#fceed7;font-family:RotisSerifStd"
           x="110.3"
           y="0"
           font-size="16"
           id="tspan420">énergies</tspan>
        <tspan
           style="font-size:16px;letter-spacing:1;fill:#fceed7;font-family:RotisSerifStd"
           x="171.60001"
           y="0"
           font-size="16"
           letter-spacing="1"
           id="tspan422" />
        <tspan
           style="font-size:16px;fill:#fceed7;font-family:RotisSerifStd"
           x="177.7"
           y="0"
           font-size="16"
           id="tspan424">fossiles</tspan>
        <tspan
           style="font-size:16px;letter-spacing:1;fill:#fceed7;font-family:RotisSerifStd"
           x="232.39999"
           y="0"
           font-size="16"
           letter-spacing="1"
           id="tspan426" />
        <tspan
           style="font-size:16px;fill:#fceed7;font-family:RotisSerifStd"
           x="238.5"
           y="0"
           font-size="16"
           id="tspan428">telles</tspan>
        <tspan
           style="font-size:16px;letter-spacing:1;fill:#fceed7;font-family:RotisSerifStd"
           x="277.70001"
           y="0"
           font-size="16"
           letter-spacing="1"
           id="tspan430" />
        <tspan
           style="font-size:16px;fill:#fceed7;font-family:RotisSerifStd"
           x="283.70001"
           y="0"
           font-size="16"
           id="tspan432">que</tspan>
        <tspan
           style="font-size:16px;letter-spacing:1;fill:#fceed7;font-family:RotisSerifStd"
           x="310.20001"
           y="0"
           font-size="16"
           letter-spacing="1"
           id="tspan434" />
        <tspan
           style="font-size:16px;fill:#fceed7;font-family:RotisSerifStd"
           x="316.20001"
           y="0"
           font-size="16"
           id="tspan436">le</tspan>
        <tspan
           style="font-size:16px;letter-spacing:1;fill:#fceed7;font-family:RotisSerifStd"
           x="329.39999"
           y="0"
           font-size="16"
           letter-spacing="1"
           id="tspan438" />
        <tspan
           style="font-size:16px;fill:#fceed7;font-family:RotisSerifStd"
           x="335.5"
           y="0"
           font-size="16"
           id="tspan440">pétrole,</tspan>
        <tspan
           style="font-size:16px;fill:#fceed7;font-family:RotisSerifStd"
           x="0"
           y="22"
           font-size="16"
           id="tspan442">la</tspan>
        <tspan
           style="font-size:16px;fill:#fceed7;font-family:RotisSerifStd"
           x="13.8"
           y="22"
           font-size="16"
           id="tspan444" />
        <tspan
           style="font-size:16px;fill:#fceed7;font-family:RotisSerifStd"
           x="18.799999"
           y="22"
           font-size="16"
           id="tspan446">nature</tspan>
        <tspan
           style="font-size:16px;fill:#fceed7;font-family:RotisSerifStd"
           x="66.699997"
           y="22"
           font-size="16"
           id="tspan448" />
        <tspan
           style="font-size:16px;fill:#fceed7;font-family:RotisSerifStd"
           x="71.699997"
           y="22"
           font-size="16"
           id="tspan450">possède</tspan>
        <tspan
           style="font-size:16px;fill:#fceed7;font-family:RotisSerifStd"
           x="128.89999"
           y="22"
           font-size="16"
           id="tspan452" />
        <tspan
           style="font-size:16px;fill:#fceed7;font-family:RotisSerifStd"
           x="134"
           y="22"
           font-size="16"
           id="tspan454">d’autres</tspan>
        <tspan
           style="font-size:16px;fill:#fceed7;font-family:RotisSerifStd"
           x="192.89999"
           y="22"
           font-size="16"
           id="tspan456" />
        <tspan
           style="font-size:16px;fill:#fceed7;font-family:RotisSerifStd"
           x="198"
           y="22"
           font-size="16"
           id="tspan458">énergies</tspan>
        <tspan
           style="font-size:16px;fill:#fceed7;font-family:RotisSerifStd"
           x="259.29999"
           y="22"
           font-size="16"
           id="tspan460" />
        <tspan
           style="font-size:16px;fill:#fceed7;font-family:RotisSerifStd"
           x="264.29999"
           y="22"
           font-size="16"
           id="tspan462">inépuisables</tspan>
        <tspan
           style="font-size:16px;fill:#fceed7;font-family:RotisSerifStd"
           x="355.79999"
           y="22"
           font-size="16"
           id="tspan464" />
        <tspan
           style="font-size:16px;fill:#fceed7;font-family:RotisSerifStd"
           x="360.89999"
           y="22"
           font-size="16"
           id="tspan466">:</tspan>
        <tspan
           style="font-size:16px;fill:#fceed7;font-family:RotisSerifStd"
           x="366.39999"
           y="22"
           font-size="16"
           id="tspan468" />
        <tspan
           style="font-size:16px;fill:#fceed7;font-family:RotisSerifStd"
           x="371.5"
           y="22"
           font-size="16"
           id="tspan470">les</tspan>
        <tspan
           style="font-size:16px;fill:#fceed7;font-family:RotisSerifStd"
           x="0"
           y="44"
           font-size="16"
           id="tspan472">énergies renouvelables.</tspan>
      </text>
      <rect
         style="fill:none"
         x="329.70001"
         y="253"
         width="390.89999"
         height="17.1"
         id="rect474" />
      <text
         style="font-size:16px;fill:#fceed7;font-family:RotisSerifStd"
         transform="translate(328.7288,266.3292)"
         font-size="16"
         id="text476">Voulez-vous en savoir plus ?</text>
      <rect
         style="fill:none"
         x="329.70001"
         y="285.10001"
         width="390.89999"
         height="40.299999"
         id="rect478" />
      <text
         transform="translate(328.7288,298.4597)"
         id="text480">
        <tspan
           style="font-size:16px;fill:#fceed7;font-family:RotisSerifStd"
           x="0"
           y="0"
           font-size="16"
           id="tspan482">Embarquez</tspan>
        <tspan
           style="font-size:16px;letter-spacing:11;fill:#fceed7;font-family:RotisSerifStd"
           x="81.400002"
           y="0"
           font-size="16"
           letter-spacing="11"
           id="tspan484" />
        <tspan
           style="font-size:16px;fill:#fceed7;font-family:RotisSerifStd"
           x="97.5"
           y="0"
           font-size="16"
           id="tspan486">dans</tspan>
        <tspan
           style="font-size:16px;letter-spacing:11;fill:#fceed7;font-family:RotisSerifStd"
           x="131.89999"
           y="0"
           font-size="16"
           letter-spacing="11"
           id="tspan488" />
        <tspan
           style="font-size:16px;fill:#fceed7;font-family:RotisSerifStd"
           x="148"
           y="0"
           font-size="16"
           id="tspan490">cette</tspan>
        <tspan
           style="font-size:16px;letter-spacing:11;fill:#fceed7;font-family:RotisSerifStd"
           x="183.5"
           y="0"
           font-size="16"
           letter-spacing="11"
           id="tspan492" />
        <tspan
           style="font-size:16px;fill:#fceed7;font-family:RotisSerifStd"
           x="199.60001"
           y="0"
           font-size="16"
           id="tspan494">odyssée</tspan>
        <tspan
           style="font-size:16px;letter-spacing:11;fill:#fceed7;font-family:RotisSerifStd"
           x="256.79999"
           y="0"
           font-size="16"
           letter-spacing="11"
           id="tspan496" />
        <tspan
           style="font-size:16px;fill:#fceed7;font-family:RotisSerifStd"
           x="273"
           y="0"
           font-size="16"
           id="tspan498">énergétique</tspan>
        <tspan
           style="font-size:16px;letter-spacing:11;fill:#fceed7;font-family:RotisSerifStd"
           x="359.5"
           y="0"
           font-size="16"
           letter-spacing="11"
           id="tspan500" />
        <tspan
           style="font-size:16px;fill:#fceed7;font-family:RotisSerifStd"
           x="375.60001"
           y="0"
           font-size="16"
           id="tspan502">de</tspan>
        <tspan
           style="font-size:16px;fill:#fceed7;font-family:RotisSerifStd"
           x="1"
           y="22"
           font-size="16"
           id="tspan504">l’Union Européenne ...</tspan>
      </text>
    </g>
    <g
       transform="translate(-311.76583,250.63157)"
       id="Sources">
      <g
         id="g507">
        <rect
           style="fill:none"
           x="328.89999"
           y="717.09998"
           width="419"
           height="32.5"
           id="rect509" />
        <text
           style="font-size:12px;fill:#fceed7;font-family:RotisSerifStd-Italic"
           transform="translate(328.8542,725.4291)"
           font-size="12"
           id="text511">Sources : Eurostat septembre 2014</text>
      </g>
      <rect
         style="fill:none"
         x="328.89999"
         y="734"
         width="411.5"
         height="43"
         id="rect513" />
      <text
         style="font-size:12px;fill:#fceed7;font-family:RotisSerifStd-Italic"
         transform="translate(328.8542,742.3873)"
         font-size="12"
         id="text515">http://ec.europa.eu/energy.bservatory/contries/countries-fr.htm</text>
    </g>
  </g>
</svg>
