<?xml version="1.0" encoding="UTF-8" standalone="no"?>
<!-- Created with Inkscape (http://www.inkscape.org/) -->

<svg
   xmlns:dc="http://purl.org/dc/elements/1.1/"
   xmlns:cc="http://creativecommons.org/ns#"
   xmlns:rdf="http://www.w3.org/1999/02/22-rdf-syntax-ns#"
   xmlns:svg="http://www.w3.org/2000/svg"
   xmlns="http://www.w3.org/2000/svg"
   xmlns:sodipodi="http://sodipodi.sourceforge.net/DTD/sodipodi-0.dtd"
   xmlns:inkscape="http://www.inkscape.org/namespaces/inkscape"
   width="320"
   height="125"
   id="svg3248"
   version="1.1"
   inkscape:version="0.48.3.1 r9886"
   sodipodi:docname="New document 2">
  <defs
     id="defs3250" />
  <sodipodi:namedview
     id="base"
     pagecolor="#ffffff"
     bordercolor="#666666"
     borderopacity="1.0"
     inkscape:pageopacity="0.0"
     inkscape:pageshadow="2"
     inkscape:zoom="0.49497475"
     inkscape:cx="283.88799"
     inkscape:cy="378.65378"
     inkscape:document-units="px"
     inkscape:current-layer="layer1"
     showgrid="false"
     inkscape:window-width="1919"
     inkscape:window-height="1058"
     inkscape:window-x="1601"
     inkscape:window-y="0"
     inkscape:window-maximized="1" />
  <metadata
     id="metadata3253">
    <rdf:RDF>
      <cc:Work
         rdf:about="">
        <dc:format>image/svg+xml</dc:format>
        <dc:type
           rdf:resource="http://purl.org/dc/dcmitype/StillImage" />
        <dc:title></dc:title>
      </cc:Work>
    </rdf:RDF>
  </metadata>
  <g
     inkscape:label="Layer 1"
     inkscape:groupmode="layer"
     id="layer1"
     transform="translate(0,-927.36215)">
    <g
       id="Titre"
       transform="translate(-86.607141,915.48361)">
      <g
         id="g316">
        <path
           d="m 133,55.6 -0.5,8 h -23 v -1.4 c 0.4,0 0.9,-0.1 1.4,-0.2 0.5,-0.1 0.9,-0.1 1.1,-0.2 0.4,-0.2 0.7,-0.4 0.9,-0.7 0.2,-0.3 0.2,-0.7 0.2,-1.1 V 42.4 c 0,-0.4 -0.1,-0.8 -0.2,-1 -0.1,-0.2 -0.4,-0.5 -0.9,-0.7 -0.4,-0.2 -0.8,-0.3 -1.3,-0.4 -0.5,-0.1 -0.9,-0.2 -1.2,-0.2 v -1.4 h 13.7 V 40 c -0.4,0 -0.8,0.1 -1.3,0.1 -0.5,0 -1,0.2 -1.3,0.3 -0.5,0.2 -0.8,0.4 -0.9,0.7 -0.1,0.3 -0.2,0.7 -0.2,1.1 v 16.4 c 0,0.8 0.1,1.4 0.2,1.8 0.1,0.4 0.3,0.8 0.6,1 0.3,0.2 0.7,0.4 1.3,0.4 0.6,0 1.3,0.1 2.3,0.1 0.9,0 1.8,-0.1 2.7,-0.2 0.9,-0.1 1.5,-0.4 1.9,-0.7 0.6,-0.6 1.2,-1.4 1.8,-2.5 0.6,-1.1 1.1,-2.1 1.5,-3 h 1.2 z"
           id="path318"
           inkscape:connector-curvature="0"
           style="fill:#fceed7" />
        <path
           d="m 134.7,47.7 c 1.3,-0.6 2.4,-1.4 3.1,-2.2 0.7,-0.8 1.2,-1.9 1.3,-3.1 h -1 c -0.7,0 -1.3,-0.1 -1.8,-0.2 -0.5,-0.1 -0.8,-0.4 -1.1,-0.7 -0.3,-0.3 -0.5,-0.6 -0.6,-0.9 -0.1,-0.3 -0.2,-0.7 -0.2,-1.1 0,-0.8 0.3,-1.4 0.9,-2 0.6,-0.6 1.3,-0.8 2.1,-0.8 1.3,0 2.3,0.4 3,1.3 0.7,0.9 1,2 1,3.6 0,1.4 -0.6,2.8 -1.8,4.3 -1.2,1.4 -2.6,2.5 -4.3,3.3 l -0.6,-1.5 z"
           id="path320"
           inkscape:connector-curvature="0"
           style="fill:#fceed7" />
        <path
           d="m 183.1,43.8 c 2.1,1.9 3.8,4.2 5,6.9 1.2,2.7 1.8,5.8 1.8,9.3 0,3.1 -0.5,6 -1.6,8.8 -1.1,2.8 -2.5,5.2 -4.5,7.2 -2.1,2.1 -4.5,3.7 -7.2,4.9 -2.8,1.2 -6.1,1.8 -9.9,1.8 -3.1,0 -6,-0.5 -8.8,-1.5 -2.8,-1 -5.2,-2.5 -7.3,-4.4 -2.1,-1.9 -3.7,-4.2 -4.9,-6.9 -1.2,-2.7 -1.8,-5.7 -1.8,-9.1 0,-3.5 0.6,-6.6 1.8,-9.4 1.2,-2.8 2.8,-5.2 4.9,-7.3 2.1,-2 4.5,-3.5 7.3,-4.6 2.8,-1.1 5.8,-1.6 9,-1.6 3.2,0 6.2,0.5 8.9,1.6 2.7,1.1 5.3,2.5 7.3,4.3 z m -7.7,30.4 c 0.9,-1.8 1.5,-3.9 1.9,-6.2 0.4,-2.3 0.6,-4.9 0.6,-7.8 0,-2.5 -0.2,-4.9 -0.5,-7.2 -0.3,-2.3 -0.9,-4.4 -1.8,-6.2 -0.9,-1.8 -2,-3.3 -3.4,-4.4 -1.4,-1.1 -3.2,-1.6 -5.3,-1.6 -3.6,0 -6.4,1.7 -8.2,5.1 -1.9,3.4 -2.8,8.3 -2.8,14.5 0,2.7 0.2,5.2 0.6,7.5 0.4,2.4 1.1,4.4 1.9,6.2 0.9,1.8 2,3.2 3.4,4.2 1.4,1 3.1,1.5 5.1,1.5 2,0 3.7,-0.5 5.1,-1.5 1.4,-1 2.6,-2.3 3.4,-4.1 z"
           id="path322"
           inkscape:connector-curvature="0"
           style="fill:#ff9700" />
        <path
           d="m 214.9,63.2 -8.7,0.5 -0.3,-0.2 v -1.6 l -0.1,0 c -0.6,0.6 -1.3,1.2 -2.3,1.6 -1,0.5 -2,0.7 -3,0.7 -2.4,0 -4.3,-0.9 -5.8,-2.6 -1.5,-1.7 -2.3,-4 -2.3,-6.8 0,-2.5 0.9,-4.6 2.6,-6.4 1.7,-1.8 3.8,-2.7 6.2,-2.7 1,0 1.9,0.1 2.7,0.3 0.8,0.2 1.5,0.5 2,0.8 V 41 c 0,-0.4 -0.1,-0.8 -0.3,-1.2 -0.2,-0.4 -0.4,-0.7 -0.7,-0.9 -0.4,-0.3 -0.8,-0.4 -1.4,-0.6 -0.6,-0.2 -1.1,-0.2 -1.6,-0.2 v -1.3 l 9.5,-0.5 0.3,0.3 v 23 c 0,0.4 0.1,0.8 0.2,1.1 0.1,0.3 0.4,0.5 0.7,0.7 0.2,0.1 0.6,0.2 1.1,0.3 0.5,0.1 0.9,0.1 1.2,0.1 v 1.4 z m -9,-3.1 v -9.9 c -0.1,-0.3 -0.2,-0.6 -0.3,-0.9 -0.1,-0.3 -0.3,-0.6 -0.6,-0.9 -0.2,-0.2 -0.5,-0.5 -0.9,-0.7 -0.4,-0.2 -0.8,-0.3 -1.3,-0.3 -1.2,0 -2.1,0.7 -2.9,2 -0.7,1.3 -1.1,3.2 -1.1,5.6 0,0.9 0.1,1.8 0.2,2.6 0.1,0.8 0.4,1.4 0.7,2.1 0.3,0.6 0.8,1.1 1.3,1.5 0.5,0.4 1.2,0.5 1.9,0.5 0.7,0 1.3,-0.1 1.8,-0.4 0.4,-0.4 0.8,-0.8 1.2,-1.2 z"
           id="path324"
           inkscape:connector-curvature="0"
           style="fill:#fceed7" />
        <path
           d="m 235.9,47.4 c -0.5,0.1 -1,0.3 -1.5,0.6 -0.5,0.3 -0.9,0.8 -1.2,1.5 -1,2.1 -2,4.4 -3.1,6.8 -1.1,2.4 -2.2,5 -3.6,7.8 -0.7,1.6 -1.4,2.8 -2.1,3.8 -0.7,1 -1.3,1.7 -1.9,2.2 -0.6,0.5 -1.1,0.8 -1.7,1 -0.6,0.2 -1.1,0.3 -1.7,0.3 -1.1,0 -2,-0.3 -2.7,-0.9 -0.7,-0.6 -1,-1.3 -1,-2.1 0,-0.3 0,-0.6 0.1,-0.9 0.1,-0.3 0.2,-0.6 0.5,-0.9 0.2,-0.3 0.5,-0.5 0.9,-0.7 0.4,-0.2 0.8,-0.3 1.3,-0.3 0.7,0 1.3,0.2 1.9,0.7 0.6,0.5 1.2,1.1 1.9,1.9 0.4,-0.4 0.9,-1 1.4,-1.7 0.6,-0.8 1,-1.6 1.3,-2.4 -1.4,-2.9 -2.6,-5.5 -3.7,-7.6 -1.1,-2.1 -2.3,-4.5 -3.6,-7.2 -0.3,-0.6 -0.7,-1 -1.2,-1.3 -0.5,-0.3 -1,-0.5 -1.6,-0.6 v -1.3 h 10.8 v 1.3 c -0.4,0 -0.9,0.1 -1.4,0.3 -0.5,0.2 -0.8,0.4 -0.8,0.6 0,0.1 0,0.2 0.1,0.3 0.1,0.1 0.1,0.3 0.2,0.5 0.4,0.8 1,2 1.7,3.4 0.7,1.5 1.6,3.2 2.6,5.1 0.7,-1.7 1.3,-3.1 1.9,-4.3 0.5,-1.2 1,-2.4 1.5,-3.5 0.1,-0.3 0.2,-0.5 0.2,-0.7 0,-0.2 0,-0.3 0,-0.3 0,-0.2 -0.1,-0.4 -0.3,-0.6 -0.2,-0.2 -0.4,-0.3 -0.7,-0.4 -0.3,-0.1 -0.6,-0.2 -0.8,-0.3 -0.2,-0.1 -0.5,-0.1 -0.7,-0.1 v -1.3 h 7.3 v 1.3 z"
           id="path326"
           inkscape:connector-curvature="0"
           style="fill:#fceed7" />
        <path
           d="m 244.4,64.1 c -1.1,0 -2.2,-0.2 -3.3,-0.5 -1.1,-0.3 -1.9,-0.7 -2.5,-1.1 l -0.5,1.2 h -1.4 l -0.2,-6.6 h 1.3 c 0.2,0.5 0.5,1.1 0.9,1.8 0.4,0.7 0.9,1.3 1.4,1.8 0.6,0.5 1.2,1 1.9,1.3 0.7,0.3 1.5,0.5 2.3,0.5 1.1,0 1.9,-0.2 2.4,-0.6 0.5,-0.4 0.8,-1.1 0.8,-1.9 0,-0.5 -0.1,-0.9 -0.4,-1.2 -0.3,-0.3 -0.6,-0.6 -1,-0.8 -0.5,-0.2 -1,-0.4 -1.5,-0.6 -0.5,-0.2 -1.2,-0.4 -2,-0.6 -0.8,-0.2 -1.5,-0.5 -2,-0.7 -0.5,-0.2 -1.2,-0.6 -1.8,-1.1 -0.5,-0.5 -0.9,-1 -1.3,-1.7 -0.4,-0.7 -0.5,-1.4 -0.5,-2.3 0,-1.7 0.7,-3 2.1,-4 1.4,-1 3.2,-1.5 5.5,-1.5 1.1,0 2,0.1 2.9,0.3 0.9,0.2 1.6,0.5 2.3,0.7 l 0.4,-1 h 1.3 l 0.3,6 h -1.2 c -0.4,-1.2 -1.1,-2.3 -2.1,-3.2 -1,-0.9 -2.1,-1.3 -3.2,-1.3 -0.9,0 -1.6,0.2 -2.1,0.6 -0.5,0.4 -0.8,0.9 -0.8,1.6 0,0.9 0.4,1.5 1.1,1.9 0.8,0.4 1.8,0.8 3.2,1.1 2.1,0.5 3.6,1.3 4.6,2.2 1,0.9 1.5,2.1 1.5,3.6 0,1.9 -0.8,3.4 -2.3,4.5 -1.5,1.1 -3.6,1.6 -6.1,1.6 z"
           id="path328"
           inkscape:connector-curvature="0"
           style="fill:#fceed7" />
        <path
           d="m 262.9,64.1 c -1.1,0 -2.2,-0.2 -3.3,-0.5 -1.1,-0.3 -1.9,-0.7 -2.5,-1.1 l -0.5,1.2 h -1.4 L 255,57.1 h 1.3 c 0.2,0.5 0.5,1.1 0.9,1.8 0.4,0.7 0.9,1.3 1.4,1.8 0.6,0.5 1.2,1 1.9,1.3 0.7,0.3 1.5,0.5 2.3,0.5 1.1,0 1.9,-0.2 2.4,-0.6 0.5,-0.4 0.8,-1.1 0.8,-1.9 0,-0.5 -0.1,-0.9 -0.4,-1.2 -0.3,-0.3 -0.6,-0.6 -1,-0.8 -0.5,-0.2 -1,-0.4 -1.5,-0.6 -0.5,-0.2 -1.2,-0.4 -2,-0.6 -0.8,-0.2 -1.5,-0.5 -2,-0.7 -0.5,-0.2 -1.2,-0.6 -1.8,-1.1 -0.5,-0.5 -0.9,-1 -1.3,-1.7 -0.4,-0.7 -0.5,-1.4 -0.5,-2.3 0,-1.7 0.7,-3 2.1,-4 1.4,-1 3.2,-1.5 5.5,-1.5 1.1,0 2,0.1 2.9,0.3 0.9,0.2 1.6,0.5 2.3,0.7 l 0.4,-1 h 1.3 l 0.3,6 h -1.2 c -0.4,-1.2 -1.1,-2.3 -2.1,-3.2 -1,-0.9 -2.1,-1.3 -3.2,-1.3 -0.9,0 -1.6,0.2 -2.1,0.6 -0.5,0.4 -0.8,0.9 -0.8,1.6 0,0.9 0.4,1.5 1.1,1.9 0.8,0.4 1.8,0.8 3.2,1.1 2.1,0.5 3.6,1.3 4.6,2.2 1,0.9 1.5,2.1 1.5,3.6 0,1.9 -0.8,3.4 -2.3,4.5 -1.5,1.1 -3.7,1.6 -6.1,1.6 z"
           id="path330"
           inkscape:connector-curvature="0"
           style="fill:#fceed7" />
        <path
           d="m 292.1,59.3 c -0.4,0.7 -0.9,1.3 -1.5,1.9 -0.6,0.6 -1.2,1.1 -2,1.5 -0.8,0.4 -1.6,0.8 -2.4,1 -0.8,0.2 -1.7,0.3 -2.8,0.3 -1.7,0 -3.2,-0.2 -4.5,-0.7 -1.3,-0.5 -2.3,-1.2 -3.1,-2 -0.8,-0.8 -1.4,-1.8 -1.8,-2.9 -0.4,-1.1 -0.6,-2.4 -0.6,-3.7 0,-1.2 0.2,-2.3 0.7,-3.4 0.5,-1.1 1.1,-2.1 1.9,-2.9 0.8,-0.8 1.8,-1.5 3,-2 1.2,-0.5 2.6,-0.8 4.1,-0.8 1.6,0 3,0.2 4,0.6 1,0.4 1.9,0.9 2.6,1.7 0.7,0.7 1.2,1.5 1.5,2.4 0.3,0.9 0.5,1.9 0.5,2.9 v 1.1 h -11.9 c 0,2.4 0.5,4.2 1.4,5.5 0.9,1.3 2.4,1.9 4.4,1.9 1.1,0 2.1,-0.3 3,-0.9 0.9,-0.6 1.6,-1.4 2.2,-2.3 l 1.3,0.8 z m -4.4,-21.4 c 0,0.5 -0.1,1 -0.4,1.3 -0.3,0.3 -0.6,0.7 -1.2,1 -0.6,0.4 -1.5,0.9 -2.7,1.6 -1.2,0.7 -2.6,1.5 -4.2,2.5 l -0.7,-0.7 c 1,-1.4 1.8,-2.5 2.4,-3.3 0.6,-0.8 1,-1.5 1.5,-2.1 0.5,-0.7 1,-1.2 1.4,-1.5 0.4,-0.3 1,-0.4 1.7,-0.4 0.6,0 1.1,0.2 1.5,0.5 0.4,0.3 0.7,0.7 0.7,1.1 z m -2.3,14.8 c 0,-0.7 0,-1.4 -0.1,-2.2 -0.1,-0.8 -0.2,-1.3 -0.4,-1.8 -0.2,-0.6 -0.5,-1 -0.8,-1.2 -0.3,-0.2 -0.8,-0.4 -1.3,-0.4 -0.9,0 -1.6,0.5 -2.2,1.4 -0.6,0.9 -0.8,2.4 -0.9,4.3 l 5.7,-0.1 z"
           id="path332"
           inkscape:connector-curvature="0"
           style="fill:#fceed7" />
        <path
           d="m 312.7,59.3 c -0.4,0.7 -0.9,1.3 -1.5,1.9 -0.6,0.6 -1.2,1.1 -2,1.5 -0.8,0.4 -1.6,0.8 -2.4,1 -0.8,0.2 -1.7,0.3 -2.8,0.3 -1.7,0 -3.2,-0.2 -4.5,-0.7 -1.3,-0.5 -2.3,-1.2 -3.1,-2 -0.8,-0.8 -1.4,-1.8 -1.8,-2.9 -0.4,-1.1 -0.6,-2.4 -0.6,-3.7 0,-1.2 0.2,-2.3 0.7,-3.4 0.5,-1.1 1.1,-2.1 1.9,-2.9 0.8,-0.8 1.8,-1.5 3,-2 1.2,-0.5 2.6,-0.8 4.1,-0.8 1.6,0 3,0.2 4,0.6 1,0.4 1.9,0.9 2.6,1.7 0.7,0.7 1.2,1.5 1.5,2.4 0.3,0.9 0.5,1.9 0.5,2.9 v 1.1 h -11.9 c 0,2.4 0.5,4.2 1.4,5.5 0.9,1.3 2.4,1.9 4.4,1.9 1.1,0 2.1,-0.3 3,-0.9 0.9,-0.6 1.6,-1.4 2.2,-2.3 l 1.3,0.8 z M 306,52.7 c 0,-0.7 0,-1.4 -0.1,-2.2 -0.1,-0.8 -0.2,-1.3 -0.4,-1.8 -0.2,-0.6 -0.5,-1 -0.8,-1.2 -0.3,-0.2 -0.8,-0.4 -1.3,-0.4 -0.9,0 -1.6,0.5 -2.2,1.4 -0.6,0.9 -0.8,2.4 -0.9,4.3 l 5.7,-0.1 z"
           id="path334"
           inkscape:connector-curvature="0"
           style="fill:#fceed7" />
        <path
           d="m 204.5,91.1 -4.1,0.2 -0.1,-0.1 v -0.8 l -0.1,0 c -0.3,0.3 -0.6,0.6 -1.1,0.8 -0.5,0.2 -0.9,0.3 -1.4,0.3 -1.1,0 -2,-0.4 -2.8,-1.2 -0.7,-0.8 -1.1,-1.9 -1.1,-3.2 0,-1.2 0.4,-2.2 1.2,-3 0.8,-0.8 1.8,-1.3 2.9,-1.3 0.5,0 0.9,0.1 1.3,0.2 0.4,0.1 0.7,0.2 1,0.4 v -2.7 c 0,-0.2 0,-0.4 -0.1,-0.6 -0.1,-0.2 -0.2,-0.3 -0.3,-0.4 -0.2,-0.1 -0.4,-0.2 -0.6,-0.3 -0.3,-0.1 -0.5,-0.1 -0.8,-0.1 v -0.6 l 4.5,-0.2 0.1,0.1 v 10.9 c 0,0.2 0,0.4 0.1,0.5 0.1,0.1 0.2,0.3 0.3,0.3 0.1,0.1 0.3,0.1 0.5,0.1 0.2,0 0.4,0 0.6,0 v 0.7 z m -4.3,-1.5 v -4.7 c 0,-0.1 -0.1,-0.3 -0.2,-0.4 -0.1,-0.2 -0.2,-0.3 -0.3,-0.4 -0.1,-0.1 -0.3,-0.2 -0.4,-0.3 -0.2,-0.1 -0.4,-0.1 -0.6,-0.1 -0.6,0 -1,0.3 -1.4,0.9 -0.4,0.6 -0.5,1.5 -0.5,2.7 0,0.4 0,0.9 0.1,1.2 0.1,0.4 0.2,0.7 0.3,1 0.2,0.3 0.4,0.5 0.6,0.7 0.3,0.2 0.6,0.2 0.9,0.2 0.3,0 0.6,-0.1 0.8,-0.2 0.3,-0.2 0.5,-0.3 0.7,-0.6 z"
           id="path336"
           inkscape:connector-curvature="0"
           style="fill:#fceed7" />
        <path
           d="m 214,89.3 c -0.2,0.3 -0.4,0.6 -0.7,0.9 -0.3,0.3 -0.6,0.5 -0.9,0.7 -0.4,0.2 -0.7,0.4 -1.1,0.5 -0.4,0.1 -0.8,0.2 -1.3,0.2 -0.8,0 -1.5,-0.1 -2.1,-0.3 -0.6,-0.2 -1.1,-0.5 -1.5,-0.9 -0.4,-0.4 -0.7,-0.9 -0.9,-1.4 -0.2,-0.5 -0.3,-1.1 -0.3,-1.7 0,-0.6 0.1,-1.1 0.3,-1.6 0.2,-0.5 0.5,-1 0.9,-1.4 0.4,-0.4 0.9,-0.7 1.4,-1 0.6,-0.2 1.2,-0.4 1.9,-0.4 0.8,0 1.4,0.1 1.9,0.3 0.5,0.2 0.9,0.4 1.2,0.8 0.3,0.3 0.5,0.7 0.7,1.1 0.1,0.4 0.2,0.9 0.2,1.4 V 87 h -5.6 c 0,1.1 0.2,2 0.7,2.6 0.4,0.6 1.1,0.9 2.1,0.9 0.5,0 1,-0.1 1.4,-0.4 0.4,-0.3 0.8,-0.6 1.1,-1.1 l 0.6,0.3 z m -3.2,-3.2 c 0,-0.3 0,-0.7 0,-1 0,-0.3 -0.1,-0.6 -0.2,-0.9 -0.1,-0.3 -0.2,-0.5 -0.4,-0.6 -0.2,-0.1 -0.4,-0.2 -0.6,-0.2 -0.4,0 -0.8,0.2 -1,0.6 -0.3,0.4 -0.4,1.1 -0.4,2.1 l 2.6,0 z"
           id="path338"
           inkscape:connector-curvature="0"
           style="fill:#fceed7" />
        <path
           d="m 218.6,91.6 c -0.5,0 -1.1,-0.1 -1.6,-0.2 -0.5,-0.1 -0.9,-0.3 -1.2,-0.5 l -0.2,0.6 H 215 l -0.1,-3.1 h 0.6 c 0.1,0.2 0.2,0.5 0.4,0.8 0.2,0.3 0.4,0.6 0.7,0.8 0.3,0.2 0.6,0.5 0.9,0.6 0.3,0.2 0.7,0.3 1.1,0.3 0.5,0 0.9,-0.1 1.1,-0.3 0.2,-0.2 0.4,-0.5 0.4,-0.9 0,-0.2 -0.1,-0.4 -0.2,-0.5 -0.1,-0.1 -0.3,-0.3 -0.5,-0.4 -0.2,-0.1 -0.5,-0.2 -0.7,-0.3 -0.3,-0.1 -0.6,-0.2 -1,-0.3 -0.4,-0.1 -0.7,-0.2 -1,-0.3 -0.3,-0.1 -0.5,-0.3 -0.8,-0.5 -0.2,-0.2 -0.4,-0.5 -0.6,-0.8 -0.1,-0.3 -0.2,-0.7 -0.2,-1.1 0,-0.8 0.3,-1.4 1,-1.9 0.7,-0.5 1.5,-0.7 2.6,-0.7 0.5,0 1,0.1 1.4,0.2 0.4,0.1 0.8,0.2 1.1,0.3 l 0.2,-0.5 h 0.6 l 0.1,2.8 h -0.6 c -0.2,-0.6 -0.5,-1.1 -1,-1.5 -0.5,-0.4 -1,-0.6 -1.5,-0.6 -0.4,0 -0.8,0.1 -1,0.3 -0.2,0.2 -0.4,0.4 -0.4,0.7 0,0.4 0.2,0.7 0.5,0.9 0.4,0.2 0.9,0.4 1.5,0.5 1,0.3 1.7,0.6 2.2,1 0.5,0.4 0.7,1 0.7,1.7 0,0.9 -0.4,1.6 -1.1,2.1 -0.7,0.5 -1.6,0.8 -2.8,0.8 z"
           id="path340"
           inkscape:connector-curvature="0"
           style="fill:#fceed7" />
        <path
           d="m 258,80 h -1.3 c -0.3,-0.9 -0.9,-1.9 -1.8,-2.9 -0.8,-1 -1.7,-1.5 -2.5,-1.7 -0.4,-0.1 -0.8,-0.1 -1.5,-0.1 -0.7,0 -1.1,0 -1.6,0 h -3.6 v 9.6 h 2.6 c 0.6,0 1.2,-0.1 1.8,-0.2 0.6,-0.1 1,-0.4 1.4,-0.9 0.3,-0.3 0.5,-0.7 0.8,-1.4 0.3,-0.7 0.5,-1.3 0.5,-1.8 h 1.3 V 91 h -1.3 c -0.1,-0.5 -0.2,-1.1 -0.5,-1.9 -0.3,-0.8 -0.6,-1.3 -0.8,-1.5 -0.4,-0.4 -0.8,-0.7 -1.4,-0.9 -0.6,-0.2 -1.1,-0.2 -1.8,-0.2 h -2.6 v 7.2 c 0,0.8 0.1,1.3 0.2,1.8 0.1,0.5 0.3,0.8 0.6,1 0.3,0.2 0.7,0.4 1.2,0.4 0.5,0 1.2,0.1 2.1,0.1 0.4,0 0.9,0 1.5,0 0.6,0 1.1,0 1.5,-0.1 0.5,-0.1 1,-0.1 1.4,-0.3 0.4,-0.2 0.7,-0.3 1,-0.5 0.6,-0.6 1.2,-1.5 1.9,-2.6 0.7,-1.1 1.2,-2.1 1.4,-2.6 h 1.3 l -0.5,7.8 h -23.4 v -1.4 c 0.3,0 0.8,-0.1 1.3,-0.1 0.5,0 1,-0.2 1.2,-0.2 0.4,-0.2 0.7,-0.4 0.9,-0.7 0.2,-0.3 0.2,-0.7 0.2,-1.1 V 77.4 c 0,-0.4 -0.1,-0.8 -0.2,-1 -0.1,-0.2 -0.4,-0.5 -0.9,-0.7 -0.3,-0.1 -0.7,-0.3 -1.3,-0.4 -0.6,-0.1 -1,-0.2 -1.2,-0.2 V 73.7 H 258 V 80 z"
           id="path342"
           inkscape:connector-curvature="0"
           style="fill:#ff9700" />
        <path
           d="m 284.9,98.6 h -10.6 v -1.3 c 0.2,0 0.5,-0.1 0.8,-0.1 0.3,0 0.6,-0.1 0.7,-0.2 0.2,-0.1 0.4,-0.3 0.5,-0.6 0.1,-0.3 0.2,-0.6 0.2,-1.1 v -8.2 c 0,-1.2 -0.2,-2.1 -0.7,-2.7 -0.5,-0.6 -1.1,-0.9 -1.9,-0.9 -0.5,0 -0.9,0.1 -1.3,0.2 -0.4,0.1 -0.8,0.3 -1.2,0.6 -0.3,0.2 -0.6,0.5 -0.8,0.7 -0.2,0.2 -0.4,0.5 -0.5,0.7 v 9.4 c 0,0.4 0.1,0.8 0.2,1 0.1,0.2 0.3,0.5 0.6,0.6 0.2,0.1 0.4,0.2 0.7,0.3 0.3,0.1 0.6,0.1 0.8,0.2 v 1.3 h -10.7 v -1.3 c 0.3,0 0.6,-0.1 0.9,-0.1 0.3,0 0.6,-0.1 0.8,-0.2 0.4,-0.1 0.6,-0.3 0.8,-0.6 0.2,-0.3 0.2,-0.6 0.2,-1.1 V 85.1 c 0,-0.4 -0.1,-0.7 -0.3,-1.1 -0.2,-0.4 -0.4,-0.6 -0.7,-0.9 -0.2,-0.1 -0.5,-0.3 -0.8,-0.4 -0.3,-0.1 -0.7,-0.2 -1.1,-0.2 v -1.3 l 8.4,-0.5 0.3,0.3 v 2.5 h 0.1 c 0.3,-0.3 0.7,-0.6 1.2,-1.1 0.5,-0.5 0.9,-0.7 1.3,-1 0.4,-0.3 1,-0.5 1.7,-0.7 0.7,-0.2 1.5,-0.3 2.2,-0.3 1.9,0 3.3,0.5 4.3,1.6 1,1.1 1.4,2.5 1.4,4.3 v 8.6 c 0,0.4 0.1,0.8 0.2,1 0.1,0.2 0.4,0.5 0.7,0.6 0.2,0.1 0.4,0.2 0.7,0.2 0.3,0 0.6,0.1 0.9,0.2 v 1.7 z"
           id="path344"
           inkscape:connector-curvature="0"
           style="fill:#ff9700" />
        <path
           d="m 305.4,94.4 c -0.4,0.7 -0.9,1.3 -1.5,1.9 -0.6,0.6 -1.2,1.1 -2,1.5 -0.8,0.4 -1.6,0.8 -2.4,1 -0.8,0.2 -1.7,0.3 -2.8,0.3 -1.7,0 -3.2,-0.2 -4.5,-0.7 -1.3,-0.5 -2.3,-1.2 -3.1,-2 -0.8,-0.8 -1.4,-1.8 -1.8,-2.9 -0.4,-1.1 -0.6,-2.4 -0.6,-3.7 0,-1.2 0.2,-2.3 0.7,-3.4 0.5,-1.1 1.1,-2.1 1.9,-2.9 0.8,-0.8 1.8,-1.5 3,-2 1.2,-0.5 2.6,-0.8 4.1,-0.8 1.6,0 3,0.2 4,0.6 1,0.4 1.9,0.9 2.6,1.7 0.7,0.7 1.2,1.5 1.5,2.4 0.3,0.9 0.5,1.9 0.5,2.9 v 1.1 h -11.9 c 0,2.4 0.5,4.2 1.4,5.5 0.9,1.3 2.4,1.9 4.4,1.9 1.1,0 2.1,-0.3 3,-0.9 0.9,-0.6 1.6,-1.4 2.2,-2.3 l 1.3,0.8 z m -6.7,-6.7 c 0,-0.7 0,-1.4 -0.1,-2.2 -0.1,-0.8 -0.2,-1.3 -0.4,-1.8 -0.2,-0.6 -0.5,-1 -0.8,-1.2 -0.3,-0.2 -0.8,-0.4 -1.3,-0.4 -0.9,0 -1.6,0.5 -2.2,1.4 -0.6,0.9 -0.8,2.4 -0.9,4.3 l 5.7,-0.1 z"
           id="path346"
           inkscape:connector-curvature="0"
           style="fill:#ff9700" />
        <path
           d="m 324.6,84.3 c 0,0.9 -0.3,1.7 -0.8,2.3 -0.5,0.6 -1.3,1 -2.2,1 -0.9,0 -1.6,-0.2 -2.2,-0.6 -0.6,-0.4 -0.9,-1.1 -0.9,-1.9 0,-0.4 0,-0.7 0.1,-1 0.1,-0.2 0.1,-0.4 0.2,-0.6 -0.5,0 -1.1,0.2 -1.7,0.6 -0.6,0.3 -1.1,0.8 -1.6,1.4 v 9.7 c 0,0.4 0.1,0.8 0.2,1 0.1,0.2 0.3,0.5 0.7,0.6 0.3,0.1 0.7,0.2 1.3,0.3 0.6,0.1 1,0.1 1.3,0.1 v 1.3 h -11.8 v -1.3 c 0.3,0 0.6,-0.1 0.9,-0.1 0.3,0 0.6,-0.1 0.8,-0.2 0.4,-0.1 0.6,-0.3 0.8,-0.6 0.2,-0.3 0.2,-0.6 0.2,-1.1 V 85.1 c 0,-0.4 -0.1,-0.8 -0.3,-1.1 -0.2,-0.3 -0.4,-0.6 -0.7,-0.8 -0.2,-0.1 -0.5,-0.3 -0.8,-0.4 -0.3,-0.1 -0.7,-0.2 -1.1,-0.2 v -1.3 l 8.4,-0.5 0.3,0.3 v 2.5 h 0.1 c 0.8,-0.9 1.7,-1.7 2.6,-2.2 0.9,-0.5 1.9,-0.8 2.8,-0.8 1.1,0 2,0.3 2.6,1 0.6,0.7 0.8,1.7 0.8,2.7 z"
           id="path348"
           inkscape:connector-curvature="0"
           style="fill:#ff9700" />
        <path
           d="m 345.5,83.1 h -3.9 c 0.5,0.5 0.8,1.1 1,1.6 0.2,0.5 0.3,1.2 0.3,1.8 0,0.8 -0.2,1.6 -0.7,2.3 -0.5,0.7 -1,1.3 -1.7,1.7 -0.7,0.5 -1.6,0.8 -2.5,1.1 -0.9,0.3 -2,0.4 -3.1,0.4 H 332 c -0.1,0.1 -0.3,0.3 -0.5,0.5 -0.2,0.2 -0.3,0.5 -0.3,0.7 0,0.5 0.2,0.9 0.6,1.1 0.4,0.2 1.2,0.3 2.2,0.3 1.1,0 2.1,0.1 3.2,0.1 1.1,0 1.9,0.1 2.3,0.1 0.7,0 1.4,0.2 2,0.4 0.6,0.2 1.2,0.6 1.7,0.9 0.5,0.4 1,0.9 1.3,1.6 0.3,0.7 0.5,1.4 0.5,2.2 0,0.9 -0.2,1.7 -0.6,2.5 -0.4,0.8 -1.1,1.5 -2,2 -0.9,0.6 -2,1.1 -3.3,1.4 -1.3,0.3 -2.9,0.5 -4.8,0.5 -3.1,0 -5.4,-0.4 -7,-1.1 -1.6,-0.7 -2.4,-1.9 -2.4,-3.4 0,-0.9 0.4,-1.7 1.3,-2.3 0.9,-0.6 2.2,-0.9 4,-1 v -0.2 c -1.1,-0.4 -1.9,-0.8 -2.5,-1.5 -0.6,-0.7 -0.9,-1.3 -0.9,-2.1 0,-0.5 0.1,-0.9 0.4,-1.3 0.3,-0.4 0.5,-0.6 0.9,-0.9 0.3,-0.2 0.7,-0.4 1.2,-0.6 0.5,-0.2 0.9,-0.3 1.2,-0.4 v -0.2 c -1.6,-0.6 -2.7,-1.3 -3.5,-2.1 -0.8,-0.8 -1.1,-1.9 -1.1,-3.1 0,-1.7 0.8,-3.1 2.4,-4.1 1.6,-1 3.6,-1.5 6,-1.5 0.8,0 1.6,0.1 2.3,0.2 0.7,0.1 1.3,0.3 1.7,0.4 h 6.8 v 2 z m -5.3,18.1 c 0,-0.4 -0.1,-0.8 -0.3,-1.2 -0.2,-0.4 -0.7,-0.7 -1.5,-1 -0.4,-0.1 -1.1,-0.1 -2.1,-0.1 -1,0 -2.3,0 -4,0 -0.4,0.4 -0.8,0.8 -1,1.2 -0.2,0.4 -0.4,1.1 -0.4,1.7 0,0.3 0.1,0.6 0.2,1 0.1,0.4 0.4,0.7 0.8,1 0.4,0.3 0.9,0.6 1.4,0.8 0.5,0.2 1.3,0.3 2.3,0.3 1.5,0 2.7,-0.3 3.5,-0.9 0.7,-0.5 1.1,-1.5 1.1,-2.8 z m -2.9,-14.8 c 0,-1.4 -0.2,-2.5 -0.7,-3.3 -0.4,-0.8 -1.1,-1.2 -2,-1.2 -0.5,0 -0.9,0.1 -1.2,0.3 -0.3,0.2 -0.6,0.5 -0.8,0.9 -0.2,0.4 -0.3,0.9 -0.4,1.4 -0.1,0.5 -0.1,1.1 -0.1,1.6 0,1.3 0.2,2.3 0.7,3.1 0.5,0.8 1.1,1.2 1.9,1.2 0.8,0 1.5,-0.4 1.9,-1.1 0.4,-0.7 0.7,-1.5 0.7,-2.9 z"
           id="path350"
           inkscape:connector-curvature="0"
           style="fill:#ff9700" />
        <path
           d="m 357.7,98.6 h -11.1 v -1.3 c 0.3,0 0.6,-0.1 0.9,-0.1 0.3,0 0.5,-0.1 0.8,-0.2 0.4,-0.1 0.6,-0.3 0.8,-0.6 0.2,-0.3 0.2,-0.6 0.2,-1 V 85.1 c 0,-0.4 -0.1,-0.8 -0.3,-1.1 -0.2,-0.3 -0.4,-0.6 -0.7,-0.7 -0.2,-0.1 -0.5,-0.3 -1,-0.4 -0.5,-0.1 -0.8,-0.2 -1.2,-0.2 v -1.3 l 8.6,-0.5 0.3,0.3 v 14 c 0,0.4 0.1,0.8 0.3,1 0.2,0.2 0.4,0.5 0.8,0.6 0.2,0.1 0.5,0.2 0.8,0.3 0.3,0.1 0.6,0.1 0.9,0.2 v 1.3 z m -2.6,-24 c 0,0.9 -0.3,1.6 -1,2.3 -0.7,0.7 -1.5,0.9 -2.4,0.9 -0.9,0 -1.8,-0.3 -2.5,-0.9 -0.7,-0.6 -1,-1.4 -1,-2.3 0,-0.9 0.3,-1.7 1,-2.3 0.7,-0.6 1.5,-0.9 2.5,-0.9 1,0 1.8,0.3 2.4,0.9 0.6,0.6 1,1.4 1,2.3 z"
           id="path352"
           inkscape:connector-curvature="0"
           style="fill:#ff9700" />
        <path
           d="m 378.2,94.4 c -0.4,0.7 -0.9,1.3 -1.5,1.9 -0.6,0.6 -1.2,1.1 -2,1.5 -0.8,0.4 -1.6,0.8 -2.4,1 -0.8,0.2 -1.7,0.3 -2.8,0.3 -1.7,0 -3.2,-0.2 -4.5,-0.7 -1.3,-0.5 -2.3,-1.2 -3.1,-2 -0.8,-0.8 -1.4,-1.8 -1.8,-2.9 -0.4,-1.1 -0.6,-2.4 -0.6,-3.7 0,-1.2 0.2,-2.3 0.7,-3.4 0.5,-1.1 1.1,-2.1 1.9,-2.9 0.8,-0.8 1.8,-1.5 3,-2 1.2,-0.5 2.6,-0.8 4.1,-0.8 1.6,0 3,0.2 4,0.6 1,0.4 1.9,0.9 2.6,1.7 0.7,0.7 1.2,1.5 1.5,2.4 0.3,0.9 0.5,1.9 0.5,2.9 v 1.1 h -11.9 c 0,2.4 0.5,4.2 1.4,5.5 0.9,1.3 2.4,1.9 4.4,1.9 1.1,0 2.1,-0.3 3,-0.9 0.9,-0.6 1.6,-1.4 2.2,-2.3 l 1.3,0.8 z m -6.7,-6.7 c 0,-0.7 0,-1.4 -0.1,-2.2 -0.1,-0.8 -0.2,-1.3 -0.4,-1.8 -0.2,-0.6 -0.5,-1 -0.8,-1.2 -0.3,-0.2 -0.8,-0.4 -1.3,-0.4 -0.9,0 -1.6,0.5 -2.2,1.4 -0.6,0.9 -0.8,2.4 -0.9,4.3 l 5.7,-0.1 z"
           id="path354"
           inkscape:connector-curvature="0"
           style="fill:#ff9700" />
        <path
           d="m 388.1,99.2 c -1.1,0 -2.2,-0.2 -3.3,-0.5 -1.1,-0.3 -1.9,-0.7 -2.5,-1.1 l -0.5,1.2 h -1.4 l -0.2,-6.6 h 1.3 c 0.2,0.5 0.5,1.1 0.9,1.8 0.4,0.7 0.9,1.3 1.4,1.8 0.6,0.5 1.2,1 1.9,1.3 0.7,0.3 1.5,0.5 2.3,0.5 1.1,0 1.9,-0.2 2.4,-0.6 0.5,-0.4 0.8,-1.1 0.8,-1.9 0,-0.5 -0.1,-0.9 -0.4,-1.2 -0.3,-0.3 -0.6,-0.6 -1,-0.8 -0.5,-0.2 -1,-0.4 -1.5,-0.6 -0.5,-0.2 -1.2,-0.4 -2,-0.6 -0.8,-0.2 -1.5,-0.5 -2,-0.7 -0.5,-0.2 -1.2,-0.6 -1.8,-1.1 -0.5,-0.5 -0.9,-1 -1.3,-1.7 -0.4,-0.7 -0.5,-1.4 -0.5,-2.3 0,-1.7 0.7,-3 2.1,-4 1.4,-1 3.2,-1.5 5.5,-1.5 1.1,0 2,0.1 2.9,0.3 0.9,0.2 1.6,0.5 2.3,0.7 l 0.4,-1 h 1.3 l 0.3,6 h -1.2 c -0.4,-1.2 -1.1,-2.3 -2.1,-3.2 -1,-0.9 -2.1,-1.3 -3.2,-1.3 -0.9,0 -1.6,0.2 -2.1,0.6 -0.5,0.4 -0.8,0.9 -0.8,1.6 0,0.9 0.4,1.5 1.1,1.9 0.8,0.4 1.8,0.8 3.2,1.1 2.1,0.5 3.6,1.3 4.6,2.2 1,0.9 1.5,2.1 1.5,3.6 0,1.9 -0.8,3.4 -2.3,4.5 -1.5,1.1 -3.7,1.6 -6.1,1.6 z"
           id="path356"
           inkscape:connector-curvature="0"
           style="fill:#ff9700" />
        <path
           d="M 119.6,133.6 H 110 c -1.7,-2.5 -3,-4.5 -4.1,-6 -1.1,-1.5 -2.5,-3.2 -4.1,-5.2 h -1 v 7.6 c 0,0.4 0.1,0.8 0.2,1.1 0.1,0.3 0.5,0.5 0.9,0.7 0.2,0.1 0.6,0.2 1,0.3 0.4,0.1 0.9,0.2 1.2,0.2 v 1.4 H 91 v -1.4 c 0.3,0 0.8,-0.1 1.3,-0.1 0.5,0 1,-0.1 1.2,-0.2 0.4,-0.2 0.7,-0.4 0.9,-0.7 0.2,-0.3 0.2,-0.7 0.2,-1.1 v -17.6 c 0,-0.4 -0.1,-0.8 -0.2,-1.1 -0.1,-0.3 -0.4,-0.5 -0.9,-0.7 -0.4,-0.2 -0.8,-0.3 -1.3,-0.4 -0.5,-0.1 -0.9,-0.2 -1.2,-0.2 v -1.4 h 14 c 3.1,0 5.5,0.5 7.1,1.5 1.6,1 2.4,2.5 2.4,4.4 0,1.7 -0.5,3.1 -1.5,4.2 -1,1.1 -2.5,1.9 -4.6,2.5 0.8,1 1.7,2.2 2.8,3.6 1.1,1.4 2.2,2.7 3.3,4.2 0.4,0.5 0.9,1 1.5,1.7 0.6,0.7 1.2,1.1 1.7,1.2 0.3,0.1 0.6,0.2 1,0.2 0.4,0 0.7,0.1 0.9,0.1 v 1.2 z m -12,-18.6 c 0,-1.7 -0.5,-2.9 -1.4,-3.6 -0.9,-0.7 -2.3,-1.2 -4,-1.2 h -1.4 v 10.4 h 1.3 c 1.7,0 3.1,-0.5 4,-1.4 0.9,-0.9 1.5,-2.2 1.5,-4.2 z"
           id="path358"
           inkscape:connector-curvature="0"
           style="fill:#ff9700" />
        <path
           d="m 138.4,129.4 c -0.4,0.7 -0.9,1.3 -1.5,1.9 -0.6,0.6 -1.2,1.1 -2,1.5 -0.8,0.4 -1.6,0.8 -2.4,1 -0.8,0.2 -1.7,0.3 -2.8,0.3 -1.7,0 -3.2,-0.2 -4.5,-0.7 -1.3,-0.5 -2.3,-1.2 -3.1,-2 -0.8,-0.8 -1.4,-1.8 -1.8,-2.9 -0.4,-1.1 -0.6,-2.4 -0.6,-3.7 0,-1.2 0.2,-2.3 0.7,-3.4 0.5,-1.1 1.1,-2.1 1.9,-2.9 0.8,-0.8 1.8,-1.5 3,-2 1.2,-0.5 2.6,-0.8 4.1,-0.8 1.6,0 3,0.2 4,0.6 1,0.4 1.9,0.9 2.6,1.7 0.7,0.7 1.2,1.5 1.5,2.4 0.3,0.9 0.5,1.9 0.5,2.9 v 1.1 h -12 c 0,2.4 0.5,4.2 1.4,5.5 0.9,1.3 2.4,1.9 4.4,1.9 1.1,0 2.1,-0.3 3,-0.9 0.9,-0.6 1.6,-1.4 2.2,-2.3 l 1.4,0.8 z m -6.7,-6.7 c 0,-0.7 0,-1.4 -0.1,-2.2 -0.1,-0.8 -0.2,-1.3 -0.4,-1.8 -0.2,-0.6 -0.5,-1 -0.8,-1.2 -0.3,-0.2 -0.8,-0.4 -1.3,-0.4 -0.9,0 -1.6,0.5 -2.2,1.4 -0.6,0.9 -0.8,2.4 -0.9,4.3 l 5.7,-0.1 z"
           id="path360"
           inkscape:connector-curvature="0"
           style="fill:#ff9700" />
        <path
           d="m 163.3,133.6 h -10.6 v -1.3 c 0.2,0 0.5,-0.1 0.8,-0.1 0.3,0 0.6,-0.1 0.7,-0.2 0.2,-0.1 0.4,-0.3 0.5,-0.6 0.1,-0.3 0.2,-0.6 0.2,-1.1 v -8.2 c 0,-1.2 -0.2,-2.1 -0.7,-2.7 -0.5,-0.6 -1.1,-0.9 -1.9,-0.9 -0.5,0 -0.9,0.1 -1.3,0.2 -0.4,0.1 -0.8,0.3 -1.2,0.6 -0.3,0.2 -0.6,0.5 -0.8,0.7 -0.2,0.2 -0.4,0.5 -0.5,0.7 v 9.4 c 0,0.4 0.1,0.8 0.2,1 0.1,0.2 0.3,0.5 0.6,0.6 0.2,0.1 0.4,0.2 0.7,0.3 0.3,0.1 0.6,0.1 0.8,0.2 v 1.3 h -10.7 v -1.3 c 0.3,0 0.6,-0.1 0.9,-0.1 0.3,0 0.6,-0.1 0.8,-0.2 0.4,-0.1 0.6,-0.3 0.8,-0.6 0.2,-0.3 0.2,-0.6 0.2,-1.1 V 120 c 0,-0.4 -0.1,-0.7 -0.3,-1.1 -0.2,-0.4 -0.4,-0.6 -0.7,-0.9 -0.2,-0.1 -0.5,-0.3 -0.8,-0.4 -0.3,-0.1 -0.7,-0.2 -1.1,-0.2 v -1.3 l 8.4,-0.5 0.3,0.3 v 2.5 h 0.1 c 0.3,-0.3 0.7,-0.6 1.2,-1.1 0.5,-0.5 0.9,-0.7 1.3,-1 0.4,-0.3 1,-0.5 1.7,-0.7 0.7,-0.2 1.5,-0.3 2.2,-0.3 1.9,0 3.3,0.5 4.3,1.6 1,1.1 1.4,2.5 1.4,4.3 v 8.6 c 0,0.4 0.1,0.8 0.2,1 0.1,0.2 0.4,0.5 0.7,0.6 0.2,0.1 0.4,0.2 0.7,0.2 0.3,0 0.6,0.1 0.9,0.2 v 1.8 z"
           id="path362"
           inkscape:connector-curvature="0"
           style="fill:#ff9700" />
        <path
           d="m 182.9,118.2 c 0.9,0.8 1.5,1.8 2,2.9 0.5,1.1 0.7,2.3 0.7,3.7 0,1.3 -0.2,2.5 -0.7,3.7 -0.5,1.2 -1.1,2.1 -2,3 -0.9,0.9 -2,1.6 -3.3,2 -1.3,0.4 -2.8,0.7 -4.4,0.7 -1.4,0 -2.7,-0.2 -3.9,-0.6 -1.2,-0.4 -2.3,-1 -3.2,-1.8 -0.9,-0.8 -1.6,-1.8 -2.1,-2.9 -0.5,-1.1 -0.8,-2.4 -0.8,-3.9 0,-1.4 0.2,-2.7 0.7,-3.8 0.5,-1.1 1.1,-2.1 2,-2.9 0.9,-0.8 1.9,-1.5 3.2,-1.9 1.3,-0.4 2.7,-0.7 4.3,-0.7 1.6,0 3.1,0.2 4.3,0.7 1.2,0.5 2.3,1 3.2,1.8 z m -4.5,12.2 c 0.3,-0.7 0.4,-1.5 0.6,-2.4 0.2,-0.9 0.2,-2 0.2,-3.3 0,-0.8 -0.1,-1.8 -0.2,-2.8 -0.1,-1 -0.3,-1.9 -0.5,-2.5 -0.3,-0.7 -0.7,-1.3 -1.2,-1.7 -0.5,-0.4 -1.1,-0.6 -1.9,-0.6 -0.8,0 -1.5,0.2 -2,0.7 -0.5,0.5 -0.9,1 -1.2,1.8 -0.2,0.7 -0.4,1.5 -0.5,2.3 -0.1,0.8 -0.1,1.8 -0.1,2.8 0,1.3 0,2.3 0.1,3.2 0.1,0.9 0.3,1.7 0.6,2.5 0.3,0.7 0.7,1.3 1.2,1.7 0.5,0.4 1.1,0.6 1.9,0.6 0.7,0 1.3,-0.2 1.8,-0.6 0.5,-0.4 0.9,-0.9 1.2,-1.7 z"
           id="path364"
           inkscape:connector-curvature="0"
           style="fill:#ff9700" />
        <path
           d="m 210.7,133.2 -8.4,0.5 -0.3,-0.2 v -2.3 h 0 c -0.4,0.4 -0.8,0.7 -1.2,1.1 -0.4,0.3 -0.8,0.7 -1.4,0.9 -0.6,0.3 -1.2,0.6 -1.7,0.7 -0.5,0.2 -1.3,0.2 -2.3,0.2 -1.8,0 -3.1,-0.5 -4.1,-1.6 -0.9,-1.1 -1.4,-2.6 -1.4,-4.5 v -7.9 c 0,-0.5 -0.1,-0.8 -0.3,-1.1 -0.2,-0.3 -0.4,-0.5 -0.7,-0.8 -0.2,-0.2 -0.5,-0.3 -0.9,-0.4 -0.4,-0.1 -0.7,-0.1 -1,-0.1 v -1.3 l 8.5,-0.5 0.2,0.3 v 11.7 c 0,1.2 0.2,2.1 0.7,2.7 0.5,0.6 1.1,0.9 1.9,0.9 0.8,0 1.6,-0.2 2.2,-0.7 0.6,-0.5 1.1,-0.9 1.5,-1.4 v -9.5 c 0,-0.4 -0.1,-0.8 -0.2,-1.1 -0.1,-0.3 -0.4,-0.6 -0.7,-0.8 -0.2,-0.1 -0.5,-0.2 -0.9,-0.3 -0.4,-0.1 -0.8,-0.1 -1.2,-0.1 v -1.3 l 8.5,-0.5 0.3,0.3 v 13.6 c 0,0.4 0.1,0.8 0.2,1 0.2,0.3 0.4,0.5 0.7,0.7 0.2,0.1 0.5,0.2 0.9,0.3 0.4,0.1 0.7,0.1 1.1,0.1 v 1.4 z"
           id="path366"
           inkscape:connector-curvature="0"
           style="fill:#ff9700" />
        <path
           d="m 232.2,117.4 c -0.5,0.1 -1,0.3 -1.5,0.6 -0.5,0.3 -0.9,0.8 -1.2,1.5 -0.8,1.7 -1.6,3.4 -2.4,5.2 -0.8,1.8 -1.6,3.4 -2.3,5.1 -0.2,0.5 -0.5,1.1 -0.8,1.9 -0.3,0.8 -0.5,1.5 -0.7,2.1 h -3.2 c -1.3,-3.1 -2.5,-5.7 -3.5,-7.8 -1,-2.1 -2,-4.3 -3,-6.6 -0.2,-0.6 -0.6,-1 -1.2,-1.3 -0.6,-0.3 -1.1,-0.5 -1.6,-0.6 v -1.3 h 10.8 v 1.3 c -0.4,0 -0.9,0.1 -1.4,0.3 -0.5,0.2 -0.8,0.4 -0.8,0.6 0,0.1 0,0.2 0.1,0.3 0,0.1 0.1,0.3 0.2,0.5 0.4,0.9 0.9,2.2 1.7,3.8 0.8,1.7 1.6,3.4 2.4,5.3 0.6,-1.3 1.1,-2.5 1.7,-3.8 0.5,-1.2 1.2,-2.8 2,-4.7 0.1,-0.3 0.2,-0.5 0.2,-0.7 0,-0.2 0,-0.3 0,-0.4 0,-0.2 -0.1,-0.4 -0.3,-0.6 -0.2,-0.2 -0.4,-0.3 -0.7,-0.4 -0.3,-0.1 -0.6,-0.2 -0.8,-0.3 -0.3,-0.1 -0.5,-0.1 -0.7,-0.1 V 116 h 7.3 v 1.4 z"
           id="path368"
           inkscape:connector-curvature="0"
           style="fill:#ff9700" />
        <path
           d="m 251.5,129.4 c -0.4,0.7 -0.9,1.3 -1.5,1.9 -0.6,0.6 -1.2,1.1 -2,1.5 -0.8,0.4 -1.6,0.8 -2.4,1 -0.8,0.2 -1.7,0.3 -2.8,0.3 -1.7,0 -3.2,-0.2 -4.5,-0.7 -1.3,-0.5 -2.3,-1.2 -3.1,-2 -0.8,-0.8 -1.4,-1.8 -1.8,-2.9 -0.4,-1.1 -0.6,-2.4 -0.6,-3.7 0,-1.2 0.2,-2.3 0.7,-3.4 0.5,-1.1 1.1,-2.1 1.9,-2.9 0.8,-0.8 1.8,-1.5 3,-2 1.2,-0.5 2.6,-0.8 4.1,-0.8 1.6,0 3,0.2 4,0.6 1,0.4 1.9,0.9 2.6,1.7 0.7,0.7 1.2,1.5 1.5,2.4 0.3,0.9 0.5,1.9 0.5,2.9 v 1.1 h -11.9 c 0,2.4 0.5,4.2 1.4,5.5 0.9,1.3 2.4,1.9 4.4,1.9 1.1,0 2.1,-0.3 3,-0.9 0.9,-0.6 1.6,-1.4 2.2,-2.3 l 1.3,0.8 z m -6.7,-6.7 c 0,-0.7 0,-1.4 -0.1,-2.2 -0.1,-0.8 -0.2,-1.3 -0.4,-1.8 -0.2,-0.6 -0.5,-1 -0.8,-1.2 -0.3,-0.2 -0.8,-0.4 -1.3,-0.4 -0.9,0 -1.6,0.5 -2.2,1.4 -0.6,0.9 -0.8,2.4 -0.9,4.3 l 5.7,-0.1 z"
           id="path370"
           inkscape:connector-curvature="0"
           style="fill:#ff9700" />
        <path
           d="m 263.9,133.6 h -11.1 v -1.3 c 0.3,0 0.6,-0.1 0.9,-0.1 0.3,0 0.5,-0.1 0.8,-0.2 0.4,-0.1 0.6,-0.3 0.8,-0.6 0.2,-0.3 0.2,-0.6 0.2,-1 v -19.5 c 0,-0.4 -0.1,-0.9 -0.3,-1.2 -0.2,-0.3 -0.4,-0.7 -0.7,-0.9 -0.2,-0.2 -0.6,-0.3 -1.1,-0.4 -0.5,-0.1 -0.9,-0.2 -1.3,-0.2 v -1.3 l 8.9,-0.5 0.3,0.3 v 23.5 c 0,0.4 0.1,0.8 0.2,1.1 0.1,0.3 0.4,0.5 0.7,0.6 0.2,0.1 0.5,0.2 0.7,0.3 0.3,0.1 0.6,0.1 0.9,0.2 v 1.2 z"
           id="path372"
           inkscape:connector-curvature="0"
           style="fill:#ff9700" />
        <path
           d="m 285.6,133.2 c -0.5,0.2 -1.1,0.4 -1.8,0.6 -0.7,0.2 -1.4,0.3 -2.2,0.3 -1.4,0 -2.5,-0.2 -3.2,-0.6 -0.7,-0.4 -1.1,-1 -1.4,-1.8 h -0.1 c -0.4,0.4 -0.8,0.7 -1.2,1 -0.4,0.3 -0.8,0.5 -1.2,0.7 -0.6,0.3 -1.1,0.5 -1.6,0.6 -0.5,0.1 -1.2,0.2 -2.1,0.2 -1.4,0 -2.5,-0.4 -3.5,-1.2 -1,-0.8 -1.4,-1.9 -1.4,-3.2 0,-0.8 0.1,-1.4 0.3,-1.9 0.2,-0.5 0.5,-1 0.9,-1.4 0.4,-0.4 0.8,-0.7 1.2,-0.9 0.5,-0.2 1,-0.5 1.5,-0.7 1.1,-0.4 2.3,-0.8 3.8,-1.2 1.5,-0.4 2.6,-0.8 3.2,-1.1 v -1.7 c 0,-0.3 0,-0.7 -0.1,-1.2 -0.1,-0.5 -0.1,-0.9 -0.3,-1.2 -0.2,-0.4 -0.4,-0.7 -0.8,-0.9 -0.4,-0.2 -0.8,-0.4 -1.4,-0.4 -0.5,0 -0.9,0.1 -1.3,0.2 -0.3,0.1 -0.6,0.3 -0.8,0.4 0,0.2 0.1,0.6 0.3,1.1 0.2,0.5 0.2,0.9 0.2,1.4 0,0.2 -0.1,0.4 -0.2,0.7 -0.1,0.3 -0.3,0.5 -0.5,0.7 -0.3,0.2 -0.6,0.4 -0.9,0.5 -0.3,0.1 -0.8,0.2 -1.5,0.2 -1,0 -1.7,-0.2 -2.2,-0.7 -0.5,-0.5 -0.8,-1.1 -0.8,-1.9 0,-0.7 0.3,-1.2 0.8,-1.8 0.5,-0.6 1.2,-1 1.9,-1.3 0.7,-0.4 1.6,-0.6 2.5,-0.8 0.9,-0.2 1.9,-0.3 2.7,-0.3 1.1,0 2.2,0.1 3.1,0.2 0.9,0.1 1.8,0.4 2.6,0.8 0.7,0.4 1.3,1 1.7,1.8 0.4,0.8 0.6,1.8 0.6,3 0,1.3 0,2.9 -0.1,4.7 -0.1,1.8 -0.1,3 -0.1,3.6 0,0.5 0.1,0.9 0.2,1.2 0.1,0.3 0.4,0.5 0.7,0.7 0.2,0.1 0.5,0.1 0.9,0.2 0.4,0.1 0.8,0 1.2,0 v 1.4 z m -8.7,-9.1 c -0.7,0.2 -1.3,0.5 -2,0.8 -0.6,0.3 -1.2,0.6 -1.6,0.9 -0.4,0.3 -0.8,0.7 -1,1.3 -0.2,0.5 -0.4,1.1 -0.4,1.8 0,0.9 0.2,1.6 0.6,2 0.4,0.4 0.9,0.6 1.5,0.6 0.6,0 1.2,-0.1 1.6,-0.4 0.4,-0.3 0.8,-0.6 1.1,-1 l 0.2,-6 z"
           id="path374"
           inkscape:connector-curvature="0"
           style="fill:#ff9700" />
        <path
           d="m 308,125 c 0,2.6 -0.9,4.8 -2.6,6.6 -1.7,1.8 -3.9,2.6 -6.6,2.6 -1,0 -1.9,-0.1 -2.7,-0.2 -0.8,-0.1 -1.4,-0.3 -1.9,-0.5 -0.5,-0.2 -1,-0.4 -1.3,-0.7 -0.3,-0.3 -0.6,-0.4 -0.8,-0.5 l -2.5,2.3 -1,-0.4 c 0.1,-0.9 0.1,-1.8 0.1,-2.8 0,-1 0.1,-2.4 0.1,-4.1 v -16.5 c 0,-0.4 -0.1,-0.9 -0.3,-1.2 -0.2,-0.3 -0.4,-0.7 -0.7,-0.9 -0.2,-0.1 -0.5,-0.3 -1,-0.4 -0.5,-0.1 -0.8,-0.2 -1.2,-0.2 v -1.3 l 8.7,-0.5 0.3,0.3 V 118 h 0.1 c 0.9,-0.8 1.7,-1.4 2.6,-1.8 0.9,-0.4 1.8,-0.6 2.7,-0.6 2.5,0 4.4,0.8 5.8,2.5 1.5,1.8 2.2,4 2.2,6.9 z m -6.3,0.2 c 0,-0.9 -0.1,-1.7 -0.2,-2.6 -0.1,-0.9 -0.4,-1.6 -0.7,-2.2 -0.3,-0.6 -0.7,-1.1 -1.2,-1.5 -0.5,-0.4 -1.2,-0.6 -1.9,-0.6 -0.7,0 -1.3,0.1 -1.8,0.4 -0.5,0.2 -0.9,0.6 -1.3,1 V 130 c 0.1,0.2 0.2,0.5 0.4,0.9 0.2,0.4 0.4,0.7 0.6,0.9 0.3,0.3 0.6,0.5 0.9,0.7 0.3,0.2 0.8,0.2 1.3,0.2 1.2,0 2.1,-0.7 2.8,-2 0.7,-1.3 1.1,-3.1 1.1,-5.5 z"
           id="path376"
           inkscape:connector-curvature="0"
           style="fill:#ff9700" />
        <path
           d="m 321,133.6 h -11.1 v -1.3 c 0.3,0 0.6,-0.1 0.9,-0.1 0.3,0 0.5,-0.1 0.8,-0.2 0.4,-0.1 0.6,-0.3 0.8,-0.6 0.2,-0.3 0.2,-0.6 0.2,-1 v -19.5 c 0,-0.4 -0.1,-0.9 -0.3,-1.2 -0.2,-0.3 -0.4,-0.7 -0.7,-0.9 -0.2,-0.2 -0.6,-0.3 -1.1,-0.4 -0.5,-0.1 -0.9,-0.2 -1.3,-0.2 v -1.3 l 8.9,-0.5 0.3,0.3 v 23.5 c 0,0.4 0.1,0.8 0.2,1.1 0.1,0.3 0.4,0.5 0.7,0.6 0.2,0.1 0.5,0.2 0.7,0.3 0.3,0.1 0.6,0.1 0.9,0.2 v 1.2 z"
           id="path378"
           inkscape:connector-curvature="0"
           style="fill:#ff9700" />
        <path
           d="m 341.5,129.4 c -0.4,0.7 -0.9,1.3 -1.5,1.9 -0.6,0.6 -1.2,1.1 -2,1.5 -0.8,0.4 -1.6,0.8 -2.4,1 -0.8,0.2 -1.7,0.3 -2.8,0.3 -1.7,0 -3.2,-0.2 -4.5,-0.7 -1.3,-0.5 -2.3,-1.2 -3.1,-2 -0.8,-0.8 -1.4,-1.8 -1.8,-2.9 -0.4,-1.1 -0.6,-2.4 -0.6,-3.7 0,-1.2 0.2,-2.3 0.7,-3.4 0.5,-1.1 1.1,-2.1 1.9,-2.9 0.8,-0.8 1.8,-1.5 3,-2 1.2,-0.5 2.6,-0.8 4.1,-0.8 1.6,0 3,0.2 4,0.6 1,0.4 1.9,0.9 2.6,1.7 0.7,0.7 1.2,1.5 1.5,2.4 0.3,0.9 0.5,1.9 0.5,2.9 v 1.1 h -11.9 c 0,2.4 0.5,4.2 1.4,5.5 0.9,1.3 2.4,1.9 4.4,1.9 1.1,0 2.1,-0.3 3,-0.9 0.9,-0.6 1.6,-1.4 2.2,-2.3 l 1.3,0.8 z m -6.7,-6.7 c 0,-0.7 0,-1.4 -0.1,-2.2 -0.1,-0.8 -0.2,-1.3 -0.4,-1.8 -0.2,-0.6 -0.5,-1 -0.8,-1.2 -0.3,-0.2 -0.8,-0.4 -1.3,-0.4 -0.9,0 -1.6,0.5 -2.2,1.4 -0.6,0.9 -0.8,2.4 -0.9,4.3 l 5.7,-0.1 z"
           id="path380"
           inkscape:connector-curvature="0"
           style="fill:#ff9700" />
        <path
           d="m 351.4,134.2 c -1.1,0 -2.2,-0.2 -3.3,-0.5 -1.1,-0.3 -1.9,-0.7 -2.5,-1.1 l -0.5,1.2 h -1.4 l -0.2,-6.6 h 1.3 c 0.2,0.5 0.5,1.1 0.9,1.8 0.4,0.7 0.9,1.3 1.4,1.8 0.6,0.5 1.2,1 1.9,1.3 0.7,0.3 1.5,0.5 2.3,0.5 1.1,0 1.9,-0.2 2.4,-0.6 0.5,-0.4 0.8,-1.1 0.8,-1.9 0,-0.5 -0.1,-0.9 -0.4,-1.2 -0.3,-0.3 -0.6,-0.6 -1,-0.8 -0.5,-0.2 -1,-0.4 -1.5,-0.6 -0.5,-0.2 -1.2,-0.4 -2,-0.6 -0.8,-0.2 -1.5,-0.5 -2,-0.7 -0.5,-0.2 -1.2,-0.6 -1.8,-1.1 -0.5,-0.5 -0.9,-1 -1.3,-1.7 -0.4,-0.7 -0.5,-1.4 -0.5,-2.3 0,-1.7 0.7,-3 2.1,-4 1.4,-1 3.2,-1.5 5.5,-1.5 1.1,0 2,0.1 2.9,0.3 0.9,0.2 1.6,0.5 2.3,0.7 l 0.4,-1 h 1.3 l 0.3,6 h -1.2 c -0.4,-1.2 -1.1,-2.3 -2.1,-3.2 -1,-0.9 -2.1,-1.3 -3.2,-1.3 -0.9,0 -1.6,0.2 -2.1,0.6 -0.5,0.4 -0.8,0.9 -0.8,1.6 0,0.9 0.4,1.5 1.1,1.9 0.8,0.4 1.8,0.8 3.2,1.1 2.1,0.5 3.6,1.3 4.6,2.2 1,0.9 1.5,2.1 1.5,3.6 0,1.9 -0.8,3.4 -2.3,4.5 -1.5,1.1 -3.7,1.6 -6.1,1.6 z"
           id="path382"
           inkscape:connector-curvature="0"
           style="fill:#ff9700" />
      </g>
    </g>
  </g>
</svg>
