<?xml version="1.0" encoding="utf-8"?>
<!-- Generator: Adobe Illustrator 16.0.0, SVG Export Plug-In . SVG Version: 6.00 Build 0)  -->
<!DOCTYPE svg PUBLIC "-//W3C//DTD SVG 1.1//EN" "http://www.w3.org/Graphics/SVG/1.1/DTD/svg11.dtd">
<svg version="1.1" id="Calque_1" xmlns="http://www.w3.org/2000/svg" xmlns:xlink="http://www.w3.org/1999/xlink" x="0px" y="0px"
	 width="885px" height="290px" viewBox="34.5 117.5 885 290" enable-background="new 34.5 117.5 885 290" xml:space="preserve">
<g>
	<g>
		
			<image overflow="visible" opacity="0.65" enable-background="new    " width="207" height="262" xlink:href="263BD69225E2BDC4.png"  transform="matrix(1 0 0 1 384 153)">
		</image>
		<g>
			<g>
				<path fill="#90CCD5" d="M554.477,292.443c0-3.492-0.979-10.354-1.029-10.629c-0.17-0.931-0.518-2.879-0.596-3.112
					C549.262,267.998,534,246.517,488,173.989v-0.446c0,0.077,0.054,0.147,0,0.221c-0.05-0.074,0-0.145,0-0.221v0.446
					c-51,72.528-62.464,94.007-66.043,104.713c-0.075,0.233-1.531,10.249-1.531,13.741c0,38.131,29.574,69.072,67.574,69.884v0.073
					v-0.032v0.032v-0.073C526,361.518,554.477,330.574,554.477,292.443z"/>
			</g>
			<defs>
				<filter id="Adobe_OpacityMaskFilter" filterUnits="userSpaceOnUse" x="420.426" y="173.543" width="134.051" height="188.857">
					<feColorMatrix  type="matrix" values="1 0 0 0 0  0 1 0 0 0  0 0 1 0 0  0 0 0 1 0"/>
				</filter>
			</defs>
			<mask maskUnits="userSpaceOnUse" x="420.426" y="173.543" width="134.051" height="188.857" id="SVGID_1_">
				<g filter="url(#Adobe_OpacityMaskFilter)">
					
						<image overflow="visible" enable-background="new    " width="139" height="194" xlink:href="263BD69225E2BDC4.jpeg"  transform="matrix(1 0 0 1 418 171)">
					</image>
				</g>
			</mask>
			<g mask="url(#SVGID_1_)">
				<path fill="#E4EEEF" d="M554.477,292.443c0-3.492-0.979-10.354-1.029-10.629c-0.17-0.931-0.518-2.879-0.596-3.112
					C549.262,267.998,534,246.517,488,173.989v-0.446c0,0.077,0.054,0.147,0,0.221c-0.05-0.074,0-0.145,0-0.221v0.446
					c-51,72.528-62.464,94.007-66.043,104.713c-0.075,0.233-1.531,10.249-1.531,13.741c0,38.131,29.574,69.072,67.574,69.884v0.073
					v-0.032v0.032v-0.073C526,361.518,554.477,330.574,554.477,292.443z"/>
			</g>
		</g>
	</g>
	<g>
		<path fill="#BA4C40" d="M876.12,171.719l-0.233,0.938l-0.121-0.938c-0.157,0.172-0.338,0.341-0.485,0.513
			c-0.013-0.004-0.052-0.025-0.062-0.025c-0.133,0-0.271,0.205-0.386,0.502c-23.038,26.91-3.967,48.054,0.408,52.292l-0.009,0.792
			c0,0,0.614-0.143,0.885-0.386c0.268,0.244,0.883,0.386,0.883,0.386v-0.792C882,220.711,900.498,199.1,876.12,171.719z"/>
		<path fill="#BA4C40" d="M913.015,211.446l-0.624,0.69l0.616-0.701c-0.239,0.012-0.456,0.049-0.694,0.066
			c-0.009-0.008,0-0.033-0.009-0.043c-0.106-0.095-0.347-0.033-0.638,0.106c-36.87,3.2-35.221,32.987-34.44,39.36l-0.527,0.583
			c0,0,0.229,0.013,0.611,0.027c0.058,0.38,0.099,0.603,0.099,0.603l0.521-0.593C884.428,251.592,914.887,249.769,913.015,211.446z"
			/>
		<path fill="#BA4C40" d="M835.914,211.88l0.641,0.7l-0.658-0.69c0,0.24,0.019,0.461,0.011,0.701
			c-0.011,0.008-0.034-0.002-0.042,0.008c-0.107,0.097-0.066,0.339,0.05,0.654c0.004,37.377,30.082,38.93,36.553,38.827l0.547,0.595
			c0,0,0.036-0.232,0.077-0.612c0.391-0.017,0.612-0.031,0.612-0.031l-0.546-0.587C873.77,244.917,874.597,214.125,835.914,211.88z"
			/>
		<path fill="#BA4C40" d="M913.568,247.153l-0.634,0.695l0.62-0.701c-0.234,0.006-0.445,0.044-0.681,0.058
			c-0.01-0.01,0-0.035-0.01-0.045c-0.107-0.097-0.344-0.033-0.637,0.099c-36.57,2.803-35.435,32.969-34.759,39.427l-0.538,0.588
			c0,0,0.229,0.017,0.604,0.035c0.053,0.383,0.086,0.609,0.086,0.609l0.528-0.594C884.586,287.451,914.784,285.971,913.568,247.153z
			"/>
		<path fill="#BA4C40" d="M836.758,247.106l0.628,0.703l-0.641-0.693c-0.009,0.244,0.004,0.472-0.005,0.713
			c-0.008,0.006-0.036,0-0.049,0.006c-0.1,0.101-0.065,0.345,0.041,0.661c-0.731,37.931,29.201,38.922,35.646,38.691l0.53,0.592
			c0,0,0.045-0.232,0.094-0.619c0.385-0.026,0.609-0.043,0.609-0.043l-0.533-0.588C873.819,279.897,875.25,248.636,836.758,247.106z
			"/>
		<path fill="#BA4C40" d="M913.015,280.968l-0.624,0.69l0.616-0.701c-0.239,0.014-0.456,0.047-0.694,0.066
			c-0.009-0.01,0-0.035-0.009-0.045c-0.106-0.096-0.347-0.031-0.638,0.109c-36.87,3.195-35.221,32.98-34.44,39.355l-0.527,0.584
			c0,0,0.229,0.017,0.611,0.029c0.058,0.379,0.099,0.603,0.099,0.603l0.521-0.595C884.428,321.114,914.887,319.295,913.015,280.968z
			"/>
		<path fill="#BA4C40" d="M835.914,281.398l0.641,0.705l-0.658-0.691c0,0.24,0.019,0.463,0.011,0.703
			c-0.011,0.006-0.034-0.004-0.042,0c-0.107,0.102-0.066,0.345,0.05,0.654c0.004,37.39,30.082,38.936,36.553,38.832l0.547,0.596
			c0,0,0.036-0.227,0.077-0.611c0.391-0.018,0.612-0.033,0.612-0.033l-0.546-0.588C873.77,314.438,874.597,283.648,835.914,281.398z
			"/>
		<path fill="#BA4C40" d="M913.015,315.73l-0.624,0.688l0.616-0.704c-0.239,0.017-0.456,0.054-0.694,0.07
			c-0.009-0.013,0-0.033-0.009-0.046c-0.106-0.09-0.347-0.028-0.638,0.107c-36.87,3.2-35.221,32.985-34.44,39.354l-0.527,0.595
			c0,0,0.229,0.009,0.611,0.024c0.058,0.377,0.099,0.604,0.099,0.604l0.521-0.596C884.428,355.869,914.887,354.059,913.015,315.73z"
			/>
		<path fill="#BA4C40" d="M835.914,316.16l0.641,0.708l-0.658-0.699c0,0.244,0.019,0.468,0.011,0.708
			c-0.011,0.004-0.034-0.005-0.042,0.004c-0.107,0.1-0.066,0.34,0.05,0.652c0.004,37.385,30.082,38.936,36.553,38.832l0.547,0.596
			c0,0,0.036-0.232,0.077-0.611c0.391-0.018,0.612-0.033,0.612-0.033l-0.546-0.588C873.77,349.2,874.597,318.41,835.914,316.16z"/>
		<rect x="872" y="363" fill="#BA4C40" width="10" height="23"/>
	</g>
	<g>
		<path fill="#BA4C40" d="M745.794,169.197l0.206,0.932v-0.932c0,0.173-1.019,0.339-1.176,0.512
			c-0.008-0.004-0.391-0.024-0.397-0.024c-0.133,0-0.443,0.201-0.56,0.502c-23.037,26.91-4.057,48.053,0.316,52.293l-0.05,0.79
			c0,0,0.665-0.143,0.932-0.391c0.268,0.248,0.935,0.391,0.935,0.391v-0.79C750,218.191,770.171,196.578,745.794,169.197z"/>
		<path fill="#BA4C40" d="M781.879,208.924l-0.627,0.692l0.614-0.703c-0.239,0.014-0.454,0.047-0.693,0.068
			c-0.008-0.01,0-0.035-0.008-0.046c-0.107-0.093-0.344-0.033-0.638,0.106c-36.871,3.201-35.219,32.985-34.44,39.361l-0.528,0.583
			c0,0,0.23,0.015,0.611,0.027c0.059,0.381,0.1,0.606,0.1,0.606l0.521-0.596C753.289,249.068,783.748,247.249,781.879,208.924z"/>
		<path fill="#BA4C40" d="M704.774,209.357l0.642,0.704l-0.658-0.693c0,0.242,0.018,0.461,0.009,0.704
			c-0.009,0.006-0.032-0.005-0.042,0.001c-0.105,0.099-0.064,0.344,0.051,0.656c0.004,37.381,30.083,38.932,36.554,38.831
			l0.546,0.593c0,0,0.037-0.231,0.078-0.612c0.389-0.016,0.612-0.033,0.612-0.033l-0.547-0.583
			C742.631,242.397,743.457,211.601,704.774,209.357z"/>
		<path fill="#BA4C40" d="M782.43,244.632l-0.628,0.696l0.62-0.706c-0.24,0.01-0.451,0.047-0.687,0.061
			c-0.01-0.01,0-0.035-0.01-0.043c-0.103-0.1-0.343-0.035-0.638,0.098c-36.563,2.803-35.433,32.971-34.758,39.429l-0.537,0.585
			c0,0,0.229,0.02,0.607,0.035c0.05,0.382,0.082,0.609,0.082,0.609l0.528-0.594C753.447,284.93,783.646,283.448,782.43,244.632z"/>
		<path fill="#BA4C40" d="M705.622,244.584l0.625,0.702l-0.642-0.692c-0.005,0.244,0.004,0.469-0.005,0.712
			c-0.008,0.006-0.036-0.004-0.049,0.006c-0.1,0.102-0.065,0.348,0.041,0.662c-0.729,37.928,29.202,38.922,35.647,38.693
			l0.528,0.593c0,0,0.05-0.232,0.096-0.621c0.385-0.027,0.611-0.044,0.611-0.044l-0.537-0.587
			C742.684,277.375,744.111,246.116,705.622,244.584z"/>
		<path fill="#BA4C40" d="M781.879,278.448l-0.627,0.688l0.614-0.703c-0.239,0.017-0.454,0.051-0.693,0.068
			c-0.008-0.01,0-0.035-0.008-0.043c-0.107-0.095-0.344-0.031-0.638,0.108c-36.871,3.196-35.219,32.981-34.44,39.352l-0.528,0.588
			c0,0,0.23,0.021,0.611,0.028c0.059,0.381,0.1,0.604,0.1,0.604l0.521-0.596C753.289,318.592,783.748,316.771,781.879,278.448z"/>
		<path fill="#BA4C40" d="M704.774,278.878l0.642,0.707l-0.658-0.692c0,0.239,0.018,0.46,0.009,0.701
			c-0.009,0.008-0.032-0.002-0.042,0c-0.105,0.104-0.064,0.347,0.051,0.655c0.004,37.384,30.083,38.938,36.554,38.832l0.546,0.595
			c0,0,0.037-0.23,0.078-0.611c0.389-0.017,0.612-0.032,0.612-0.032l-0.547-0.587C742.631,311.919,743.457,281.127,704.774,278.878z
			"/>
		<path fill="#BA4C40" d="M781.879,313.204l-0.627,0.69l0.614-0.703c-0.239,0.018-0.454,0.05-0.693,0.066
			c-0.008-0.009,0-0.029-0.008-0.042c-0.107-0.091-0.344-0.028-0.638,0.107c-36.871,3.2-35.219,32.985-34.44,39.356l-0.528,0.586
			c0,0,0.23,0.014,0.611,0.029c0.059,0.381,0.1,0.604,0.1,0.604l0.521-0.596C753.289,353.348,783.748,351.536,781.879,313.204z"/>
		<path fill="#BA4C40" d="M704.774,313.639l0.642,0.707l-0.658-0.699c0,0.246,0.018,0.465,0.009,0.713c-0.009,0-0.032-0.01-0.042,0
			c-0.105,0.099-0.064,0.339,0.051,0.652c0.004,37.385,30.083,38.936,36.554,38.831l0.546,0.591c0,0,0.037-0.227,0.078-0.606
			c0.389-0.017,0.612-0.033,0.612-0.033l-0.547-0.587C742.631,346.674,743.457,315.889,704.774,313.639z"/>
		<rect x="741" y="360" fill="#BA4C40" width="9" height="21"/>
	</g>
	<g>
		<path fill="#F46F61" d="M809.676,123.804l-0.008,1.217l-0.008-1.217c-0.199,0.223-0.364,0.444-0.563,0.668
			c-0.008-0.002-0.023-0.033-0.036-0.033c-0.17,0-0.336,0.268-0.483,0.655c-30.083,35.137-5.177,62.756,0.538,68.287l-0.009,1.036
			c0,0,0.216-0.188,0.562-0.506c0.348,0.317,0.562,0.506,0.562,0.506l-0.008-1.036C816.011,187.782,841.508,159.559,809.676,123.804
			z"/>
		<path fill="#F46F61" d="M858.455,175.678l-0.818,0.908l0.807-0.92c-0.317,0.021-0.59,0.064-0.905,0.086
			c-0.008-0.012,0-0.043-0.008-0.054c-0.142-0.126-0.454-0.043-0.835,0.137c-48.15,4.18-45.997,43.075-44.973,51.396l-0.694,0.767
			c0,0,0.303,0.017,0.803,0.033c0.071,0.497,0.125,0.792,0.125,0.792l0.681-0.778C821.128,228.106,860.899,225.73,858.455,175.678z"
			/>
		<path fill="#F46F61" d="M757.767,176.244l0.842,0.92l-0.861-0.901c0,0.313,0.018,0.604,0.018,0.916
			c-0.018,0.01-0.051-0.006-0.062,0.002c-0.136,0.133-0.082,0.449,0.065,0.86c0.014,48.816,39.282,50.838,47.738,50.704l0.706,0.777
			c0,0,0.051-0.299,0.107-0.798c0.505-0.021,0.803-0.042,0.803-0.042l-0.719-0.768C807.203,219.388,808.278,179.18,757.767,176.244z
			"/>
		<path fill="#F46F61" d="M859.179,222.313l-0.825,0.909l0.812-0.922c-0.312,0.013-0.587,0.058-0.896,0.077
			c-0.014-0.013,0-0.043-0.014-0.058c-0.131-0.128-0.445-0.045-0.826,0.13c-47.754,3.656-46.27,43.05-45.393,51.487l-0.704,0.766
			c0,0,0.295,0.021,0.79,0.043c0.066,0.501,0.117,0.802,0.117,0.802l0.686-0.776C821.332,274.936,860.759,273.004,859.179,222.313z"
			/>
		<path fill="#F46F61" d="M758.875,222.245l0.814,0.92l-0.836-0.901c-0.008,0.322,0,0.613-0.008,0.928
			c-0.009,0.01-0.046,0-0.059,0.01c-0.137,0.133-0.091,0.453,0.05,0.862c-0.951,49.534,38.134,50.83,46.555,50.533l0.69,0.772
			c0,0,0.059-0.306,0.125-0.813c0.5-0.028,0.798-0.059,0.798-0.059l-0.703-0.762C807.27,265.07,809.135,224.25,758.875,222.245z"/>
		<path fill="#F46F61" d="M858.455,266.468l-0.818,0.904l0.807-0.916c-0.317,0.016-0.59,0.06-0.905,0.087
			c-0.008-0.017,0-0.044-0.008-0.059c-0.142-0.124-0.454-0.04-0.835,0.141c-48.15,4.176-45.997,43.068-44.973,51.396l-0.694,0.761
			c0,0,0.303,0.017,0.803,0.032c0.071,0.496,0.125,0.795,0.125,0.795l0.681-0.777C821.128,318.895,860.899,316.521,858.455,266.468z
			"/>
		<path fill="#F46F61" d="M757.767,267.035l0.842,0.919l-0.861-0.905c0,0.316,0.018,0.604,0.018,0.916
			c-0.018,0.01-0.051-0.004-0.062,0.006c-0.136,0.13-0.082,0.449,0.065,0.856c0.014,48.813,39.282,50.84,47.738,50.707l0.706,0.774
			c0,0,0.051-0.295,0.107-0.8c0.505-0.017,0.803-0.041,0.803-0.041l-0.719-0.766C807.203,310.178,808.278,269.968,757.767,267.035z"
			/>
		<path fill="#F46F61" d="M858.455,311.859l-0.818,0.91l0.807-0.922c-0.317,0.021-0.59,0.062-0.905,0.088
			c-0.008-0.014,0-0.043-0.008-0.06c-0.142-0.123-0.454-0.041-0.835,0.142c-48.15,4.176-45.997,43.073-44.973,51.396l-0.694,0.767
			c0,0,0.303,0.016,0.803,0.031c0.071,0.496,0.125,0.795,0.125,0.795l0.681-0.781C821.128,364.286,860.899,361.914,858.455,311.859z
			"/>
		<path fill="#F46F61" d="M757.767,312.428l0.842,0.922l-0.861-0.91c0,0.318,0.018,0.604,0.018,0.918
			c-0.018,0.01-0.051,0-0.062,0.01c-0.136,0.128-0.082,0.445,0.065,0.852c0.014,48.82,39.282,50.848,47.738,50.711l0.706,0.776
			c0,0,0.051-0.302,0.107-0.798c0.505-0.021,0.803-0.042,0.803-0.042l-0.719-0.769C807.203,355.57,808.278,315.357,757.767,312.428z
			"/>
		<rect x="804" y="373" fill="#F46F61" width="10" height="29"/>
	</g>
	<g>
		<g>
			<path fill="#F46F61" d="M60.584,296.861c-5.244,10.431-1.038,23.145,9.397,28.392l91.33,45.914
				c10.431,5.242,23.145,1.042,28.392-9.397l58.133-115.633c5.247-10.435,1.04-23.146-9.397-28.394l-91.328-45.914
				c-10.434-5.247-23.149-1.04-28.396,9.394L60.584,296.861z"/>
			<polygon fill="#F46F61" points="318.32,272.49 188.667,337.348 225.105,268.126 317.103,249.676 			"/>
		</g>
		
			<ellipse transform="matrix(0.1372 0.9905 -0.9905 0.1372 539.1193 -96.1794)" fill="#F46F61" cx="324.77" cy="261.381" rx="26.193" ry="10.968"/>
		<path fill="#F46F61" d="M112.088,203.481c-3.845-5.569-5.551-12.296-7.847-18.585c-3.215-8.788-10.53-15.647-19.538-18.191
			c-16.571-4.685-25.335,9.069-27.351,23.083c-4.808,33.389,15.345,62.161,25.651,92.188c3.208,9.347-11.325,14.142-14.527,4.809
			c-7.242-21.094-19.122-40.264-23.832-62.222c-3.64-16.973-4.732-34.789,1.168-51.351c6.181-17.351,24.654-24.805,41.88-21.519
			c9.493,1.813,18.525,8.445,24.292,16.005c6.359,8.328,7.143,19.06,12.939,27.446C130.535,203.263,117.696,211.601,112.088,203.481
			L112.088,203.481z"/>
	</g>
</g>
</svg>
