<?xml version="1.0" encoding="utf-8"?>
<!-- Generator: Adobe Illustrator 16.0.0, SVG Export Plug-In . SVG Version: 6.00 Build 0)  -->
<!DOCTYPE svg PUBLIC "-//W3C//DTD SVG 1.1//EN" "http://www.w3.org/Graphics/SVG/1.1/DTD/svg11.dtd">
<svg version="1.1" id="Calque_1" xmlns="http://www.w3.org/2000/svg" xmlns:xlink="http://www.w3.org/1999/xlink" x="0px" y="0px"
	 width="960px" height="560px" viewBox="0 0 960 560" enable-background="new 0 0 960 560" xml:space="preserve">
<ellipse fill="#F18A31" cx="112.776" cy="320.581" rx="51.806" ry="23.052"/>
<rect x="60.969" y="316.098" fill="#F18A31" width="103.765" height="4.061"/>
<ellipse fill="#DC6E2C" cx="112.468" cy="315.111" rx="52.114" ry="23.051"/>
<ellipse fill="#EB6155" cx="112.468" cy="254.865" rx="52.114" ry="23.049"/>
<rect x="60.354" y="246.675" fill="#EB6155" width="104.38" height="8.226"/>
<ellipse fill="#DB5C56" cx="112.468" cy="247.542" rx="52.114" ry="23.051"/>
<ellipse fill="#6BBAAD" cx="112.776" cy="195.571" rx="51.806" ry="23.049"/>
<rect x="60.969" y="186.389" fill="#6BBAAD" width="103.765" height="6.9"/>
<ellipse fill="#51B19E" cx="112.468" cy="186.394" rx="52.114" ry="23.051"/>
<ellipse fill="#F18A31" cx="112.776" cy="138.992" rx="51.806" ry="23.05"/>
<polygon fill="#F18A31" points="164.734,127.098 164.734,138.723 60.969,138.711 60.969,127.098 "/>
<ellipse fill="#DC6E2C" cx="112.468" cy="127.963" rx="52.114" ry="23.051"/>
<line opacity="0.7" fill="none" stroke="#1D1D1B" stroke-width="0.5" stroke-miterlimit="10" enable-background="new    " x1="194.845" y1="128.956" x2="312.815" y2="128.956"/>
<line opacity="0.7" fill="none" stroke="#1D1D1B" stroke-width="0.5" stroke-miterlimit="10" enable-background="new    " x1="194.845" y1="196.157" x2="312.815" y2="196.157"/>
<line opacity="0.7" fill="none" stroke="#1D1D1B" stroke-width="0.5" stroke-miterlimit="10" enable-background="new    " x1="196.698" y1="251.721" x2="314.667" y2="251.721"/>
<rect x="328.255" y="115.832" fill="none" width="436.679" height="22.543"/>
<text transform="matrix(1 0 0 1 328.2534 131.3555)" opacity="0.7" fill="#1D1D1B" enable-background="new    " font-family="'Roboto-Light'" font-size="24">Connaissance sans application directe : 7</text>
<rect x="328.875" y="181.5" fill="none" width="605.604" height="21.951"/>
<text transform="matrix(1 0 0 1 327.8716 200.0254)" opacity="0.7" fill="#1D1D1B" enable-background="new    " font-family="'Roboto-Light'" font-size="24">Application directe dans nouveaux produits ou procédés : 7</text>
<rect x="328.255" y="235.617" fill="none" width="406.724" height="23.164"/>
<text transform="matrix(1 0 0 1 328.2534 257.1436)" opacity="0.7" fill="#1D1D1B" enable-background="new    " font-family="'Roboto-Light'" font-size="24">Produits et procédés mis sur le marché : 6</text>
<rect x="329.028" y="303.229" fill="none" width="110.25" height="24.091"/>
<text transform="matrix(1 0 0 1 324.0259 318.7549)" opacity="0.7" fill="#1D1D1B" enable-background="new    " font-family="'Roboto-Light'" font-size="24"> Autres débouchés : 1</text>
<line opacity="0.7" fill="none" stroke="#1D1D1B" stroke-width="0.5" stroke-miterlimit="10" enable-background="new    " x1="194.845" y1="315.272" x2="312.815" y2="315.272"/>
<g opacity="0.7">
	<path fill="none" stroke="#1D1D1B" stroke-width="0.5" stroke-miterlimit="10" d="M146.842,417.682
		c-18.984,0-34.374-15.393-34.374-34.374"/>
	
		<line fill="none" stroke="#1D1D1B" stroke-width="0.5" stroke-miterlimit="10" x1="112.468" y1="383.308" x2="112.468" y2="359.644"/>
	
		<line fill="none" stroke="#1D1D1B" stroke-width="0.5" stroke-miterlimit="10" x1="146.842" y1="417.682" x2="312.971" y2="417.682"/>
</g>
<rect x="327.695" y="399.903" fill="none" width="732.532" height="71.34"/>
<text transform="matrix(1 0 0 1 327.6948 415.4287)" opacity="0.7" fill="#1D1D1B" enable-background="new    " font-family="'Roboto-Light'" font-size="20.3824"> </text>
<text transform="matrix(1 0 0 1 325.0278 423.8887)" opacity="0.7" fill="#1D1D1B" enable-background="new    " font-family="'Roboto-Light'" font-size="24"> Nombre de projets de R&amp;D aboutis entre 2006 et 2011 : 21</text>
</svg>
