<?xml version="1.0" encoding="utf-8"?>
<!-- Generator: Adobe Illustrator 16.0.0, SVG Export Plug-In . SVG Version: 6.00 Build 0)  -->
<!DOCTYPE svg PUBLIC "-//W3C//DTD SVG 1.1//EN" "http://www.w3.org/Graphics/SVG/1.1/DTD/svg11.dtd">
<svg version="1.1" id="Calque_1" xmlns="http://www.w3.org/2000/svg" xmlns:xlink="http://www.w3.org/1999/xlink" x="0px" y="0px"
	 width="1800.18px" height="924.092px" viewBox="0 0 1800.18 924.092" enable-background="new 0 0 1800.18 924.092"
	 xml:space="preserve">
	<defs>
  <style type="text/css">
    @font-face {
	    font-family: 'Roboto';
	    src: url('../../fonts/roboto/Roboto-Thin.eot');
	    src: url('../../fonts/roboto/Roboto-Thin.eot?#iefix') format('embedded-opentype'),
	         url('../../fonts/roboto/Roboto-Thin.woff') format('woff'),
	         url('../../fonts/roboto/Roboto-Thin.ttf') format('truetype'),
	         url('../../fonts/roboto/Roboto-Thin.svg#Roboto') format('svg');
	}
  </style>
</defs>
<g id="Calque_1_1_">
	
		<line fill="none" stroke="#706F6F" stroke-width="0.5" stroke-miterlimit="10" x1="257.757" y1="224.236" x2="257.757" y2="286.053"/>
	
		<line fill="none" stroke="#706F6F" stroke-width="0.5" stroke-miterlimit="10" x1="853.757" y1="224.365" x2="853.757" y2="427.236"/>
	
		<line fill="none" stroke="#706F6F" stroke-width="0.5" stroke-miterlimit="10" x1="1255.757" y1="248.24" x2="1255.757" y2="670.236"/>
	
		<line fill="none" stroke="#706F6F" stroke-width="0.5" stroke-miterlimit="10" x1="1506.757" y1="252.546" x2="1506.757" y2="766.236"/>
	
		<line fill="none" stroke="#706F6F" stroke-width="0.5" stroke-miterlimit="10" x1="1717.757" y1="225.486" x2="1717.757" y2="765.486"/>
	<rect x="751.68" y="184.544" fill="none" width="201.996" height="96.875"/>
	<text transform="matrix(1 0 0 1 726.7166 200.54)" fill="#706F6F" font-family="'Roboto'" letter-spacing="1px" font-size="30">Commerce de gros</text>
	<rect x="115.097" y="184.236" fill="none" width="287.25" height="67"/>
	<text transform="matrix(1 0 0 1 63.6687 200.2324)" fill="#706F6F" font-family="'Roboto'" letter-spacing="1px" font-size="30">Culture et production animale</text>
	<rect x="1427.179" y="183.662" fill="none" width="160.167" height="62.574"/>
	<text transform="matrix(1 0 0 1 1479.3528 199.6582)" enable-background="new    "><tspan x="0" y="0" fill="#706F6F" font-family="'Roboto'" letter-spacing="1px" font-size="30">R&amp;D</tspan><tspan x="-46.436" y="36" fill="#706F6F" font-family="'Roboto'" letter-spacing="1px" font-size="30">scientifique</tspan></text>
	<rect x="1139.525" y="184.505" fill="none" width="237.821" height="188.766"/>
	<text transform="matrix(1 0 0 1 1095.4719 200.502)" fill="#706F6F" font-family="'Roboto'" letter-spacing="1px" font-size="30">Réparation de machines</text>
	<text transform="matrix(1 0 0 1 1145.0754 225.7012)" fill="#706F6F" font-family="'Roboto'" letter-spacing="1px" font-size="30">&amp; d&apos;équipements</text>
	<rect x="1674.513" y="183.4" fill="none" width="90.833" height="40.836"/>
	<text transform="matrix(1 0 0 1 1666.6584 199.3965)" fill="#706F6F" font-family="'Roboto'" letter-spacing="1px" font-size="30">Holding</text>
</g>
<g id="Calque_4">
	<path fill="#F09748" d="M519.991,830.014c0,45.684-113.425,82.723-253.323,82.723c-139.909,0-253.321-37.039-253.321-82.723
		c0-45.688,113.413-82.727,253.321-82.727C406.567,747.288,519.991,784.327,519.991,830.014z"/>
	<polygon fill="#F09748" points="519.346,372.236 519.346,829.274 12.346,828.747 12.346,372.236 	"/>
	<path fill="#E06C3A" d="M521.175,375.215c0,41.899-113.687,75.869-253.91,75.869c-140.23,0-253.919-33.97-253.919-75.869
		c0-41.894,113.688-75.863,253.919-75.863C407.489,299.352,521.175,333.321,521.175,375.215z"/>
	<path fill="#64BBAE" d="M1023.559,827.3c0,30.15-74.889,54.603-167.258,54.603c-92.367,0-167.248-24.451-167.248-54.603
		c0-30.153,74.881-54.606,167.248-54.606C948.67,772.693,1023.559,797.146,1023.559,827.3z"/>
	<ellipse fill="#F05F59" cx="1253.389" cy="833.197" rx="61.896" ry="21.539"/>
	<polygon fill="#F05F59" points="1315.815,706.646 1315.815,833.062 1191.744,832.915 1191.744,706.646 	"/>
	<path fill="#E05B5A" d="M1315.284,706.673c0,10.396-27.813,18.812-62.109,18.812c-34.295,0-62.109-8.418-62.109-18.812
		c0-10.388,27.814-18.813,62.109-18.813S1315.284,696.286,1315.284,706.673z"/>
	<path fill="#F09748" d="M1529.18,833.787c0,3.84-9.586,6.949-21.414,6.949c-11.83,0-21.419-3.109-21.419-6.949
		c0-3.838,9.589-6.952,21.419-6.952C1519.594,826.834,1529.18,829.949,1529.18,833.787z"/>
	<polygon fill="#F09748" points="1529.346,791.236 1529.346,833.974 1486.346,833.926 1486.346,791.236 	"/>
	<path fill="#E06C3A" d="M1529.346,791.275c0,3.518-9.59,6.373-21.414,6.373c-11.832,0-21.419-2.855-21.419-6.373
		c0-3.521,9.588-6.373,21.419-6.373C1519.756,784.902,1529.346,787.755,1529.346,791.275z"/>
	<path fill="#64BBAE" d="M1740.496,832.871c0,3.792-9.33,6.865-20.843,6.865c-11.517,0-20.847-3.073-20.847-6.865
		c0-3.793,9.33-6.867,20.847-6.867C1731.166,826.003,1740.496,829.078,1740.496,832.871z"/>
	<rect x="1698.865" y="790.443" fill="#64BBAE" width="41.647" height="42.43"/>
	<path fill="#46B2A0" d="M1740.513,790.867c0,3.473-9.339,6.297-20.854,6.297c-11.515,0-20.852-2.824-20.852-6.297
		c0-3.479,9.336-6.297,20.852-6.297C1731.175,784.57,1740.513,787.388,1740.513,790.867z"/>
	<rect x="689.053" y="493.506" fill="#64BBAE" width="334.171" height="340.188"/>
	<path fill="#46B2A0" d="M1024.231,493.302c0,27.657-75.047,50.078-167.577,50.078c-92.56,0-167.601-22.421-167.601-50.078
		c0-27.645,75.042-50.065,167.601-50.065C949.184,443.236,1024.231,465.657,1024.231,493.302z"/>
</g>
<g id="Calque_3">
	<g>
		<g>
			<path fill="#010202" d="M288.08,66.982c-7.415,0-12.213-6.366-12.412-6.637l-0.266-0.355l-3.674-9.89l2.862-1.117
				c8.188-3.198,10.723-5.943,13.931-9.419c1.257-1.362,2.558-2.77,4.272-4.301c5.131-4.582,10.088-12.856,10.137-12.939
				l5.963-10.009l-0.155,11.65c-0.042,3.171-0.718,31.227-11.355,39.526C294.411,65.807,291.281,66.982,288.08,66.982z
				 M280.928,56.916c0.807,0.933,3.593,3.818,7.152,3.818c1.775,0,3.611-0.731,5.458-2.172c4.73-3.689,7.101-14.593,8.178-23.705
				c-1.472,1.796-3.094,3.578-4.76,5.065c-1.49,1.332-2.688,2.626-3.844,3.878c-3.086,3.347-6.021,6.526-13.408,9.82L280.928,56.916
				z"/>
		</g>
		<g>
			<path fill="#010202" d="M219.187,65.051c-10.639-8.3-11.312-36.355-11.355-39.526l-0.154-11.65l5.961,10.01
				c0.051,0.082,5.007,8.357,10.139,12.938c1.716,1.531,3.015,2.94,4.271,4.302c3.208,3.476,5.743,6.221,13.931,9.418l2.861,1.117
				l-3.673,9.891l-0.266,0.356c-0.199,0.27-4.997,6.635-12.412,6.635C225.29,68.543,222.16,67.369,219.187,65.051z M236.866,55.182
				c-7.388-3.294-10.322-6.473-13.409-9.819c-1.156-1.252-2.354-2.548-3.844-3.879c-1.666-1.488-3.287-3.27-4.76-5.064
				c1.077,9.11,3.446,20.015,8.179,23.704c1.846,1.441,3.683,2.171,5.459,2.171c3.56,0,6.345-2.885,7.151-3.818L236.866,55.182z"/>
		</g>
		<path fill="#FFFFFF" d="M292.346,96.986c0,6.766-5.484,12.25-12.25,12.25h-45.501c-6.765,0-12.25-5.484-12.25-12.25v-0.5
			c0-6.766,5.484-12.25,12.25-12.25h45.501c6.765,0,12.25,5.484,12.25,12.25V96.986z"/>
		<path fill="#010202" d="M324.915,56.236h-31.924c-5.586-3-8.62-5.27-8.62-5.27c-7.602-2.745-15.025-3.424-21.025-3.245v0.515h-14
			v-0.532c-5-0.142-12.109,0.593-19.496,3.263c0,0-1.939,2.27-7.525,5.27h-31.927c0,0-1.995,24,23.545,28h5.188
			c0,0-0.798,8.292,0,15.827c0,0,0.716,7.715,5.503,16.044c0,0,2.712,18.421,2.712,26.353v13.086c0,0,0.979,7.108,7.612,8.695
			c0,0,9.043,3.995,20.152,3.995h2.33l0.005-3h0.424l0.006,3h2.329c11.109,0,20.339-3.995,20.339-3.995
			c6.637-1.587,7.803-8.695,7.803-8.695v-13.086c0-7.931,2.523-26.371,2.523-26.371c4.787-8.328,5.859-16.026,5.859-16.026
			c0.797-7.535-0.545-15.827-0.545-15.827h5.188C326.91,80.236,324.915,56.236,324.915,56.236z M236.353,97.158
			c-1.857,3.354-5.403,4.943-7.919,3.55c-2.518-1.396-3.05-5.245-1.189-8.599c1.856-3.354,5.403-4.944,7.921-3.551
			C237.68,89.954,238.212,93.803,236.353,97.158z M286.719,100.708c-2.516,1.393-6.062-0.197-7.92-3.55
			c-1.859-3.355-1.327-7.204,1.188-8.6c2.518-1.393,6.063,0.197,7.921,3.551C289.769,95.464,289.237,99.312,286.719,100.708z"/>
		<path fill="#91CDD6" d="M279.74,155.867c0,0-1.009-0.13-1.268-6.378l-8.16-8.854c-6.51-6.77-5.944-30.725-5.944-30.725
			c-0.263-12.759,7.636-23.174,7.636-23.174c6.769-9.634,4.598-13.018,4.598-13.018c-0.52-6.249-9.012-10.154-9.012-10.154
			c-1.69-0.691-2.243-1.104-4.243-1.353v0.025h-0.517c-1.621,0-2.13,0-2.13,0h-6.25c0,0-1.691-0.899-7.42,1.444
			c0,0-8.397,3.847-8.918,10.097c0,0-2.244,3.354,4.524,12.987c0,0,7.86,10.402,7.601,23.16c0,0,0.544,23.948-5.964,30.718
			l-8.178,8.849c-0.259,6.249-0.976,6.377-0.976,6.377s1.73,2.075,7.677,3.339c3.122-4.878,8.827-8.158,15.369-8.158
			c6.432,0,12.057,3.171,15.21,7.915C278.355,157.691,279.74,155.867,279.74,155.867z"/>
		<path fill="#71A5AB" d="M258.165,148.708c-6.542,0-11.519,4.097-14.643,10.195c2.536,0.675,4.823,1.167,10.823,1.19v0.143h9
			v-0.162c4-0.139,7.465-0.731,9.79-1.475C269.981,152.671,264.597,148.708,258.165,148.708z"/>
	</g>
	<path fill="#D36058" d="M842.103,113.917h-21.249c-0.073,0-0.149,0.015-0.226,0.036v11.075c0,0.43-0.339,0.783-0.769,0.783h-22.842
		c-0.444,0-0.787-0.354-0.787-0.783v-11.075c-0.072-0.021-0.142-0.036-0.226-0.036h-21.25c-0.423,0-0.775,0.35-0.775,0.779v51.473
		c0,0.422,0.353,0.775,0.775,0.775h67.347c0.431,0,0.78-0.353,0.78-0.775v-51.473C842.882,114.266,842.532,113.917,842.103,113.917
		L842.103,113.917z M813.031,143.804c-0.438,0-0.778,0.35-0.778,0.787v14.767h-7.634v-14.767c0-0.437-0.342-0.787-0.778-0.787
		h-3.864l8.459-11.565l8.459,11.565H813.031z"/>
	<path fill="#D36058" d="M923.683,113.917h-21.25c-0.083,0-0.149,0.015-0.218,0.036v11.075c0,0.43-0.351,0.783-0.779,0.783h-22.842
		c-0.438,0-0.783-0.354-0.783-0.783v-11.075c-0.069-0.021-0.146-0.036-0.225-0.036h-21.25c-0.431,0-0.78,0.35-0.78,0.779v51.473
		c0,0.422,0.35,0.775,0.78,0.775h67.347c0.437,0,0.783-0.353,0.783-0.775v-51.473C924.465,114.266,924.118,113.917,923.683,113.917
		L923.683,113.917z M894.606,143.804c-0.436,0-0.779,0.35-0.779,0.787v14.767h-7.641v-14.767c0-0.437-0.338-0.787-0.775-0.787
		h-3.867l8.467-11.565l8.459,11.565H894.606z"/>
	<path fill="#D36058" d="M884.93,49.821h-21.25c-0.08,0-0.156,0.012-0.227,0.04v11.075c0,0.422-0.338,0.779-0.765,0.779h-22.852
		c-0.431,0-0.78-0.357-0.78-0.779V49.861c-0.069-0.028-0.143-0.04-0.218-0.04h-21.258c-0.423,0-0.778,0.354-0.778,0.776v51.473
		c0,0.43,0.355,0.779,0.778,0.779h67.348c0.437,0,0.787-0.349,0.787-0.779V50.597C885.717,50.174,885.366,49.821,884.93,49.821
		L884.93,49.821z M855.858,79.706c-0.433,0-0.78,0.349-0.78,0.787v14.771h-7.632V80.492c0-0.438-0.35-0.787-0.78-0.787h-3.863
		l8.46-11.566l8.46,11.566L855.858,79.706L855.858,79.706z"/>
	
		<line fill="none" stroke="#D36058" stroke-width="0.663" stroke-miterlimit="10" x1="868.808" y1="114.171" x2="919.796" y2="114.171"/>
	
		<line fill="none" stroke="#D36058" stroke-width="0.663" stroke-miterlimit="10" x1="786.217" y1="114.171" x2="837.201" y2="114.171"/>
	
		<line fill="none" stroke="#D36058" stroke-width="0.663" stroke-miterlimit="10" x1="825.319" y1="50.196" x2="876.304" y2="50.196"/>
	<path fill="#91CDD6" d="M1203.531,147.097c-4.352,4.339-4.352,11.376,0,15.724c2.17,2.165,5.036,3.252,7.858,3.252
		c2.862,0,5.72-1.087,7.897-3.252l36.517-36.557l-15.719-15.728L1203.531,147.097z"/>
	<path fill="#BCE0E4" d="M1294.861,79.347l15.905-8.228l8.333-16.117l-7.753-7.754l-16.122,8.328L1287,71.48l-19.383,19.383
		l7.861,7.866L1294.861,79.347z"/>
	<path fill="#D36058" d="M1298.339,121.59l-1.485-0.144c-2.717,0-5.289,0.542-7.717,1.439l-45.69-45.685
		c0.911-2.417,1.45-4.994,1.45-7.713l-0.141-1.484c-0.797-11.593-10.321-20.755-22.102-20.755c-3.44,0-6.671,0.834-9.563,2.207
		l14.787,14.822c0.788,0.76,1.336,1.703,1.656,2.641c0.988,2.645,0.477,5.723-1.656,7.83c-1.458,1.444-3.339,2.169-5.223,2.169
		c-0.91,0-1.77-0.178-2.566-0.503c-0.986-0.367-1.921-0.87-2.682-1.667l-14.786-14.787c-1.407,2.903-2.241,6.123-2.241,9.527
		c0,11.817,9.197,21.34,20.755,22.137l1.521,0.148c2.718,0,5.286-0.583,7.683-1.448l45.685,45.677
		c-0.87,2.4-1.449,4.962-1.449,7.681l0.146,1.521c0.797,11.568,10.326,20.769,22.136,20.769c3.406,0,6.63-0.833,9.528-2.246
		l-14.781-14.782c-0.797-0.762-1.304-1.712-1.703-2.645c-0.941-2.645-0.435-5.733,1.703-7.825c1.45-1.449,3.333-2.173,5.253-2.173
		c0.87,0,1.74,0.181,2.573,0.498c0.941,0.361,1.884,0.877,2.645,1.675l14.818,14.782c1.377-2.899,2.21-6.124,2.21-9.574
		C1319.1,131.916,1309.933,122.387,1298.339,121.59L1298.339,121.59z"/>
	<g>
		<g>
			<g>
				<path fill="#D36058" d="M1704.61,85.333c0,0-0.039,0.954,0.896,0.954c1.167,0,10.804-0.015,10.804-0.015l0.011-8.854
					c0,0-0.15-1.453,1.27-1.453h4.481c1.681,0,1.568,1.453,1.568,1.453l-0.01,8.834h10.567c1.19,0,1.146-1.201,1.146-1.201V68.73
					l-14.91-13.26l-15.824,13.26V85.333z"/>
				<path fill="#D36058" d="M1698.781,67.49c0,0,1.34,2.479,4.271,0l17.514-14.812l16.416,14.726c3.39,2.45,4.661,0,4.661,0
					l-21.077-19.093L1698.781,67.49z"/>
			</g>
			<g>
				<path fill="#D36058" d="M1704.61,85.333c0,0-0.039,0.954,0.896,0.954c1.167,0,10.804-0.015,10.804-0.015l0.011-8.854
					c0,0-0.15-1.453,1.27-1.453h4.481c1.681,0,1.568,1.453,1.568,1.453l-0.01,8.834h10.567c1.19,0,1.146-1.201,1.146-1.201V68.73
					l-14.91-13.26l-15.824,13.26V85.333z"/>
				<path fill="#D36058" d="M1698.781,67.49c0,0,1.34,2.479,4.271,0l17.514-14.812l16.416,14.726c3.39,2.45,4.661,0,4.661,0
					l-21.077-19.093L1698.781,67.49z"/>
			</g>
		</g>
		<g>
			<g>
				<path fill="#B3B3B3" d="M1650.61,164.734c0,0-0.039,0.959,0.905,0.959c1.167,0,10.8-0.02,10.8-0.02l0.021-8.854
					c0,0-0.16-1.447,1.269-1.447h4.479c1.67,0,1.571,1.447,1.571,1.447l-0.019,8.834h10.566c1.201,0,1.144-1.201,1.144-1.201
					v-16.327l-14.91-13.255l-15.824,13.255L1650.61,164.734L1650.61,164.734z"/>
				<path fill="#B3B3B3" d="M1644.785,146.891c0,0,1.343,2.479,4.279,0l17.505-14.809l16.421,14.722c3.385,2.444,4.666,0,4.666,0
					l-21.087-19.094L1644.785,146.891z"/>
			</g>
			<g>
				<path fill="#C6C6C6" d="M1650.61,164.734c0,0-0.039,0.959,0.905,0.959c1.167,0,10.8-0.02,10.8-0.02l0.021-8.854
					c0,0-0.16-1.447,1.269-1.447h4.479c1.67,0,1.571,1.447,1.571,1.447l-0.019,8.834h10.566c1.201,0,1.144-1.201,1.144-1.201
					v-16.327l-14.91-13.255l-15.824,13.255L1650.61,164.734L1650.61,164.734z"/>
				<path fill="#C6C6C6" d="M1644.785,146.891c0,0,1.343,2.479,4.279,0l17.505-14.809l16.421,14.722c3.385,2.444,4.666,0,4.666,0
					l-21.087-19.094L1644.785,146.891z"/>
			</g>
		</g>
		<g>
			<g>
				<path fill="#C6C6C6" d="M1703.811,164.734c0,0-0.034,0.959,0.9,0.959c1.166,0,10.805-0.02,10.805-0.02l0.01-8.854
					c0,0-0.149-1.447,1.27-1.447h4.486c1.671,0,1.564,1.447,1.564,1.447l-0.011,8.834h10.566c1.191,0,1.148-1.201,1.148-1.201
					v-16.327l-14.915-13.255l-15.825,13.255L1703.811,164.734L1703.811,164.734z"/>
				<path fill="#C6C6C6" d="M1697.988,146.891c0,0,1.331,2.479,4.27,0l17.51-14.809l16.426,14.722c3.379,2.444,4.666,0,4.666,0
					l-21.092-19.094L1697.988,146.891z"/>
			</g>
			<g>
				<path fill="#C6C6C6" d="M1703.811,164.734c0,0-0.034,0.959,0.9,0.959c1.166,0,10.805-0.02,10.805-0.02l0.01-8.854
					c0,0-0.149-1.447,1.27-1.447h4.486c1.671,0,1.564,1.447,1.564,1.447l-0.011,8.834h10.566c1.191,0,1.148-1.201,1.148-1.201
					v-16.327l-14.915-13.255l-15.825,13.255L1703.811,164.734L1703.811,164.734z"/>
				<path fill="#C6C6C6" d="M1697.988,146.891c0,0,1.331,2.479,4.27,0l17.51-14.809l16.426,14.722c3.379,2.444,4.666,0,4.666,0
					l-21.092-19.094L1697.988,146.891z"/>
			</g>
		</g>
		<g>
			<g>
				<path fill="#FFFFFF" d="M1757.806,165.523c0,0-0.044,0.959,0.896,0.959c1.167,0,10.802-0.015,10.802-0.015l0.019-8.858
					c0,0-0.146-1.448,1.27-1.448h4.478c1.671,0,1.574,1.448,1.574,1.448l-0.021,8.834h10.568c1.195,0,1.147-1.195,1.147-1.195
					v-16.324l-14.911-13.268l-15.819,13.268L1757.806,165.523L1757.806,165.523z"/>
				<path fill="#FFFFFF" d="M1751.973,147.679c0,0,1.346,2.479,4.273,0l17.51-14.808l16.426,14.722c3.389,2.443,4.662,0,4.662,0
					l-21.088-19.088L1751.973,147.679z"/>
			</g>
			<g>
				<path fill="#C6C6C6" d="M1757.806,165.523c0,0-0.044,0.959,0.896,0.959c1.167,0,10.802-0.015,10.802-0.015l0.019-8.858
					c0,0-0.146-1.448,1.27-1.448h4.478c1.671,0,1.574,1.448,1.574,1.448l-0.021,8.834h10.568c1.195,0,1.147-1.195,1.147-1.195
					v-16.324l-14.911-13.268l-15.819,13.268L1757.806,165.523L1757.806,165.523z"/>
				<path fill="#C6C6C6" d="M1751.973,147.679c0,0,1.346,2.479,4.273,0l17.51-14.808l16.426,14.722c3.389,2.443,4.662,0,4.662,0
					l-21.088-19.088L1751.973,147.679z"/>
			</g>
		</g>
		<g>
			<g>
				
					<line fill="none" stroke="#D3574C" stroke-width="1.102" stroke-linecap="round" stroke-linejoin="round" x1="1719.485" y1="90.474" x2="1719.495" y2="91.852"/>
				
					<line fill="none" stroke="#D3574C" stroke-width="1.102" stroke-linecap="round" stroke-linejoin="round" stroke-dasharray="2.9171,2.9171" x1="1719.518" y1="94.769" x2="1719.687" y2="116.646"/>
				
					<line fill="none" stroke="#D3574C" stroke-width="1.102" stroke-linecap="round" stroke-linejoin="round" x1="1719.698" y1="118.104" x2="1719.707" y2="119.482"/>
			</g>
		</g>
		<g>
			<g>
				
					<line fill="none" stroke="#D3574C" stroke-width="0.7964" stroke-linecap="round" stroke-linejoin="round" x1="1775.381" y1="106.71" x2="1775.389" y2="107.706"/>
				
					<line fill="none" stroke="#D3574C" stroke-width="0.7964" stroke-linecap="round" stroke-linejoin="round" stroke-dasharray="1.8803,1.8803" x1="1775.405" y1="109.586" x2="1775.487" y2="119.927"/>
				
					<line fill="none" stroke="#D3574C" stroke-width="0.7964" stroke-linecap="round" stroke-linejoin="round" x1="1775.494" y1="120.867" x2="1775.502" y2="121.863"/>
			</g>
		</g>
		<g>
			<g>
				
					<line fill="none" stroke="#D3574C" stroke-width="0.7646" stroke-linecap="round" stroke-linejoin="round" x1="1667.199" y1="107.898" x2="1667.207" y2="108.854"/>
				
					<line fill="none" stroke="#D3574C" stroke-width="0.7646" stroke-linecap="round" stroke-linejoin="round" stroke-dasharray="1.722,1.722" x1="1667.221" y1="110.576" x2="1667.296" y2="120.046"/>
				
					<line fill="none" stroke="#D3574C" stroke-width="0.7646" stroke-linecap="round" stroke-linejoin="round" x1="1667.303" y1="120.907" x2="1667.311" y2="121.863"/>
			</g>
		</g>
		<g>
			<g>
				
					<line fill="none" stroke="#D3574C" stroke-width="1.0593" stroke-linecap="round" stroke-linejoin="round" x1="1774.386" y1="107.064" x2="1773.062" y2="107.074"/>
				
					<line fill="none" stroke="#D3574C" stroke-width="1.0593" stroke-linecap="round" stroke-linejoin="round" stroke-dasharray="2.6953,2.6953" x1="1770.366" y1="107.096" x2="1669.295" y2="107.896"/>
				
					<line fill="none" stroke="#D3574C" stroke-width="1.0593" stroke-linecap="round" stroke-linejoin="round" x1="1667.948" y1="107.906" x2="1666.623" y2="107.917"/>
			</g>
		</g>
	</g>
	<g>
		<path fill="none" stroke="#FFFFFF" stroke-width="3.5818" stroke-miterlimit="10" d="M1505.413,827.438"/>
	</g>
	<g>
		<path fill="none" stroke="#FFFFFF" stroke-width="3.5818" stroke-miterlimit="10" d="M1494.413,827.438"/>
	</g>
	<g>
		<g>
			<g>
				<path fill="none" stroke="#FFFFFF" stroke-width="20.3573" stroke-miterlimit="10" d="M1558.639,151.241"/>
			</g>
			<g>
				<rect x="1558.346" y="87.236" fill="#6DA5AA" width="22" height="69"/>
			</g>
			<g>
				<ellipse fill="#6DA5AA" cx="1570.375" cy="154.443" rx="10.314" ry="7.998"/>
			</g>
			<g>
				<path fill="#C6C6C6" d="M1570.451,166.182c-8.407,0-15.246-9.946-15.246-15.946h5.546c0,6,4.352,10.152,9.7,10.152
					s9.699-4.152,9.699-10.152h5.545C1585.696,156.236,1578.858,166.182,1570.451,166.182z"/>
			</g>
		</g>
		<polyline fill="none" stroke="#C6C6C6" stroke-width="5.6835" stroke-miterlimit="10" points="1557.928,150.885 1557.928,58.806 
			1582.766,58.806 1582.766,152.097 		"/>
		<path fill="#C6C6C6" d="M1590.58,55.253c0,3.336-3.136,6.039-7.004,6.039h-27.196c-3.868,0-7.005-2.703-7.005-6.039l0,0
			c0-3.335,3.137-6.038,7.005-6.038h27.196C1587.445,49.215,1590.58,51.918,1590.58,55.253L1590.58,55.253z"/>
		<g>
			<rect x="1496.346" y="87.236" fill="#D45F58" width="22" height="69"/>
		</g>
		<g>
			<ellipse fill="#D45F58" cx="1507.856" cy="154.443" rx="10.314" ry="7.998"/>
		</g>
		<g>
			<path fill="#C6C6C6" d="M1507.934,166.182c-8.409,0-15.247-9.946-15.247-15.946h5.545c0,6,4.353,10.152,9.702,10.152
				c5.347,0,9.699-4.152,9.699-10.152h5.544C1523.178,156.236,1516.34,166.182,1507.934,166.182z"/>
		</g>
		<polyline fill="none" stroke="#C6C6C6" stroke-width="5.6835" stroke-miterlimit="10" points="1495.408,150.885 1495.408,58.806 
			1520.246,58.806 1520.246,152.097 		"/>
		<path fill="#C6C6C6" d="M1528.062,55.253c0,3.336-3.136,6.039-7.004,6.039h-27.197c-3.868,0-7.004-2.703-7.004-6.039l0,0
			c0-3.335,3.136-6.038,7.004-6.038h27.197C1524.926,49.215,1528.062,51.918,1528.062,55.253L1528.062,55.253z"/>
		<g>
			<g>
				<rect x="1433.346" y="87.236" fill="#8ECDD4" width="23" height="69"/>
			</g>
			<g>
				<rect x="1433.346" y="87.236" fill="#8DCCD4" width="23" height="69"/>
			</g>
		</g>
		<g>
			<g>
				<path fill="#8ECDD4" d="M1455.653,154.443c0,4.418-4.618,7.998-10.314,7.998c-5.694,0-10.315-3.58-10.315-7.998
					s4.621-8.003,10.315-8.003C1451.034,146.44,1455.653,150.025,1455.653,154.443z"/>
			</g>
			<g>
				<path fill="#8DCCD4" d="M1455.653,154.443c0,4.418-4.618,7.998-10.314,7.998c-5.694,0-10.315-3.58-10.315-7.998
					s4.621-8.003,10.315-8.003C1451.034,146.44,1455.653,150.025,1455.653,154.443z"/>
			</g>
		</g>
		<g>
			<path fill="#C6C6C6" d="M1445.416,166.182c-8.409,0-15.247-9.946-15.247-15.946h5.545c0,6,4.351,10.152,9.702,10.152
				c5.348,0,9.698-4.152,9.698-10.152h5.544C1460.658,156.236,1453.821,166.182,1445.416,166.182z"/>
		</g>
		<polyline fill="none" stroke="#C6C6C6" stroke-width="5.6835" stroke-miterlimit="10" points="1432.891,150.885 1432.891,58.806 
			1457.729,58.806 1457.729,151.097 		"/>
		<path fill="#C6C6C6" d="M1465.543,55.253c0,3.336-3.137,6.039-7.005,6.039h-27.195c-3.869,0-7.005-2.703-7.005-6.039l0,0
			c0-3.335,3.137-6.038,7.005-6.038h27.195C1462.407,49.215,1465.543,51.918,1465.543,55.253L1465.543,55.253z"/>
	</g>
</g>
</svg>
