<?xml version="1.0" encoding="utf-8"?>
<!-- Generator: Adobe Illustrator 16.0.0, SVG Export Plug-In . SVG Version: 6.00 Build 0)  -->
<!DOCTYPE svg PUBLIC "-//W3C//DTD SVG 1.1//EN" "http://www.w3.org/Graphics/SVG/1.1/DTD/svg11.dtd">
<svg version="1.1" id="Calque_1" xmlns="http://www.w3.org/2000/svg" xmlns:xlink="http://www.w3.org/1999/xlink" x="0px" y="0px"
	 width="618.227px" height="313.273px" viewBox="0 0 618.227 313.273" enable-background="new 0 0 618.227 313.273"
	 xml:space="preserve">
	<defs>
  <style type="text/css">
    @font-face {
	    font-family: 'Roboto';
	    src: url('../../fonts/roboto/Roboto-Thin.eot');
	    src: url('../../fonts/roboto/Roboto-Thin.eot?#iefix') format('embedded-opentype'),
	         url('../../fonts/roboto/Roboto-Thin.woff') format('woff'),
	         url('../../fonts/roboto/Roboto-Thin.ttf') format('truetype'),
	         url('../../fonts/roboto/Roboto-Thin.svg#Roboto') format('svg');
	}
  </style>
</defs>
<polygon fill="#6BBBAE" points="62.061,186.606 62.061,300.912 6.061,300.78 6.061,186.606 "/>
<ellipse fill="#50B29F" cx="33.854" cy="186.88" rx="28.125" ry="12.44"/>
<ellipse fill="#6BBBAE" cx="33.854" cy="300.833" rx="28.125" ry="12.44"/>
<polygon fill="#F28B32" points="62.061,19.606 62.061,171.934 6.061,171.759 6.061,19.606 "/>
<ellipse fill="#DC6E2D" cx="33.854" cy="19.88" rx="28.125" ry="12.44"/>
<ellipse fill="#F28B32" cx="33.854" cy="171.833" rx="28.125" ry="12.44"/>
<line opacity="0.7" fill="none" stroke="#000000" stroke-width="0.5" stroke-miterlimit="10" enable-background="new    " x1="88.5" y1="217.016" x2="167.931" y2="217.016"/>
<text transform="matrix(1 0 0 1 185.9302 217.0164)" opacity="0.7" enable-background="new    " font-family="'Roboto'" letter-spacing="1px" font-size="21">Nombre de brevets déposés : 5</text>
<line opacity="0.7" fill="none" stroke="#000000" stroke-width="0.5" stroke-miterlimit="10" enable-background="new    " x1="88.5" y1="161.531" x2="167.93" y2="161.531"/>
<text transform="matrix(1 0 0 1 185.9302 161.53)" opacity="0.7" enable-background="new    "><tspan x="0" y="0" font-family="'Roboto'" letter-spacing="1px" font-size="21">Autres titres de propriété intellectuelle déposés</tspan><tspan x="0" y="25.2" font-family="'Roboto'" letter-spacing="1px" font-size="21">(ex : modèles, marques, dessins) : 10</tspan></text>
</svg>
