<?xml version="1.0" encoding="utf-8"?>
<!-- Generator: Adobe Illustrator 16.0.0, SVG Export Plug-In . SVG Version: 6.00 Build 0)  -->
<!DOCTYPE svg PUBLIC "-//W3C//DTD SVG 1.1//EN" "http://www.w3.org/Graphics/SVG/1.1/DTD/svg11.dtd">
<svg version="1.1" id="Calque_1" xmlns="http://www.w3.org/2000/svg" xmlns:xlink="http://www.w3.org/1999/xlink" x="0px" y="0px"
	 width="92.125px" height="279.25px" viewBox="0 0 92.125 279.25" enable-background="new 0 0 92.125 279.25" xml:space="preserve">
<g id="Vegepolys">
	<g>
		<g>
			<g>
				<path fill="#90CBD4" d="M61.74,122.777c0-0.825-0.212-2.445-0.225-2.51c-0.04-0.221-0.15-0.681-0.17-0.735
					c-0.848-2.528-4.347-7.603-15.347-24.733v-0.105c0,0.019,0.013,0.035,0,0.053c-0.012-0.018,0-0.034,0-0.053v0.105
					c-12,17.131-14.715,22.204-15.561,24.733c-0.019,0.055-0.382,2.421-0.382,3.245c0,9.007,6.941,16.315,15.941,16.508v0.018
					v-0.009v0.009v-0.018C55,139.092,61.74,131.783,61.74,122.777z"/>
			</g>
			<defs>
				<filter id="Adobe_OpacityMaskFilter" filterUnits="userSpaceOnUse" x="30.057" y="94.693" width="31.684" height="44.609">
					<feColorMatrix  type="matrix" values="1 0 0 0 0  0 1 0 0 0  0 0 1 0 0  0 0 0 1 0"/>
				</filter>
			</defs>
			<mask maskUnits="userSpaceOnUse" x="30.057" y="94.693" width="31.684" height="44.609" id="SVGID_2_">
				<g filter="url(#Adobe_OpacityMaskFilter)">
					
						<image overflow="visible" enable-background="new    " width="36" height="49" xlink:href="BFF54278F18C7629.jpg"  transform="matrix(1 0 0 1 28 92.625)">
					</image>
				</g>
			</mask>
			<g mask="url(#SVGID_2_)">
				<path fill="#E5EEEF" d="M61.74,122.777c0-0.825-0.212-2.445-0.225-2.51c-0.04-0.221-0.15-0.681-0.17-0.735
					c-0.848-2.528-4.347-7.603-15.347-24.733v-0.105c0,0.019,0.013,0.035,0,0.053c-0.012-0.018,0-0.034,0-0.053v0.105
					c-12,17.131-14.715,22.204-15.561,24.733c-0.019,0.055-0.382,2.421-0.382,3.245c0,9.007,6.941,16.315,15.941,16.508v0.018
					v-0.009v0.009v-0.018C55,139.092,61.74,131.783,61.74,122.777z"/>
			</g>
		</g>
	</g>
	<g>
		<path fill="#70A4AA" d="M70.06,187.6l-0.003,0.37l-0.003-0.37c-0.061,0.068-0.109,0.135-0.17,0.202
			c-0.005-0.001-0.008-0.01-0.013-0.01c-0.052,0-0.102,0.081-0.146,0.199c-9.135,10.67-1.57,19.055,0.164,20.735l-0.003,0.313
			c0,0,0.065-0.056,0.171-0.153c0.105,0.098,0.17,0.153,0.17,0.153l-0.002-0.313C71.981,207.025,79.725,198.457,70.06,187.6z"/>
		<path fill="#70A4AA" d="M84.871,203.352l-0.249,0.274l0.244-0.278c-0.097,0.006-0.182,0.021-0.275,0.027
			c-0.002-0.004,0-0.014-0.003-0.018c-0.043-0.039-0.137-0.014-0.253,0.041c-14.621,1.27-13.966,13.08-13.655,15.606l-0.21,0.231
			c0,0,0.091,0.007,0.242,0.012c0.022,0.15,0.038,0.24,0.038,0.24l0.207-0.236C73.535,219.271,85.612,218.549,84.871,203.352z"/>
		<path fill="#70A4AA" d="M54.297,203.523l0.255,0.278l-0.261-0.274c-0.001,0.097,0.005,0.184,0.004,0.279
			c-0.005,0.002-0.015-0.002-0.019,0.002c-0.041,0.039-0.024,0.135,0.021,0.26c0.002,14.822,11.93,15.438,14.495,15.396l0.216,0.235
			c0,0,0.016-0.091,0.031-0.242c0.153-0.006,0.244-0.013,0.244-0.013l-0.219-0.232C69.309,216.624,69.635,204.415,54.297,203.523z"
			/>
		<path fill="#70A4AA" d="M85.09,217.512l-0.251,0.275l0.246-0.279c-0.094,0.004-0.178,0.018-0.271,0.023
			c-0.004-0.004,0-0.014-0.004-0.019c-0.041-0.038-0.136-0.014-0.252,0.04c-14.501,1.11-14.05,13.073-13.782,15.635l-0.214,0.232
			c0,0,0.09,0.006,0.239,0.014c0.021,0.15,0.035,0.242,0.035,0.242l0.208-0.236C73.598,233.49,85.57,232.902,85.09,217.512z"/>
		<path fill="#70A4AA" d="M54.633,217.492l0.248,0.279l-0.254-0.274c-0.003,0.099,0.001,0.187-0.002,0.282
			c-0.004,0.003-0.015,0-0.021,0.002c-0.04,0.041-0.025,0.138,0.018,0.263c-0.29,15.04,11.579,15.435,14.136,15.343l0.21,0.234
			c0,0,0.019-0.092,0.037-0.246c0.152-0.009,0.242-0.018,0.242-0.018l-0.213-0.232C69.329,230.494,69.895,218.1,54.633,217.492z"/>
		<path fill="#70A4AA" d="M84.871,230.919l-0.249,0.274l0.244-0.278c-0.097,0.006-0.182,0.021-0.275,0.026
			c-0.002-0.004,0-0.014-0.003-0.018c-0.043-0.038-0.137-0.013-0.253,0.042c-14.621,1.269-13.966,13.079-13.655,15.606l-0.21,0.231
			c0,0,0.091,0.005,0.242,0.011c0.022,0.15,0.038,0.24,0.038,0.24l0.207-0.236C73.535,246.838,85.612,246.117,84.871,230.919z"/>
		<path fill="#70A4AA" d="M54.297,231.091l0.255,0.279l-0.261-0.274c-0.001,0.096,0.005,0.184,0.004,0.278
			c-0.005,0.003-0.015-0.001-0.019,0.001c-0.041,0.04-0.024,0.136,0.021,0.26c0.002,14.823,11.93,15.438,14.495,15.397l0.216,0.235
			c0,0,0.016-0.091,0.031-0.242c0.153-0.006,0.244-0.014,0.244-0.014l-0.219-0.231C69.309,244.191,69.635,231.982,54.297,231.091z"
			/>
		<path fill="#70A4AA" d="M84.871,244.703l-0.249,0.273l0.244-0.278c-0.097,0.006-0.182,0.02-0.275,0.026
			c-0.002-0.004,0-0.013-0.003-0.017c-0.043-0.038-0.137-0.013-0.253,0.042c-14.621,1.27-13.966,13.079-13.655,15.605l-0.21,0.232
			c0,0,0.091,0.005,0.242,0.012c0.022,0.149,0.038,0.239,0.038,0.239l0.207-0.235C73.535,260.621,85.612,259.9,84.871,244.703z"/>
		<path fill="#70A4AA" d="M54.297,244.875l0.255,0.279l-0.261-0.274c-0.001,0.097,0.005,0.183,0.004,0.278
			c-0.005,0.003-0.015-0.001-0.019,0.001c-0.041,0.04-0.024,0.136,0.021,0.26c0.002,14.823,11.93,15.438,14.495,15.397l0.216,0.234
			c0,0,0.016-0.091,0.031-0.242c0.153-0.007,0.244-0.013,0.244-0.013l-0.219-0.231C69.309,257.975,69.635,245.766,54.297,244.875z"
			/>
		<rect x="69" y="263.625" fill="#70A4AA" width="3" height="8"/>
	</g>
	<g>
		<path fill="#70A4AA" d="M18.06,186.6l-0.003,0.37l-0.003-0.37c-0.061,0.068-0.109,0.135-0.17,0.202
			c-0.005-0.001-0.008-0.01-0.013-0.01c-0.052,0-0.102,0.081-0.146,0.199c-9.135,10.67-1.57,19.055,0.164,20.735l-0.003,0.313
			c0,0,0.065-0.056,0.171-0.153c0.105,0.098,0.17,0.153,0.17,0.153l-0.002-0.313C19.981,206.025,27.725,197.457,18.06,186.6z"/>
		<path fill="#70A4AA" d="M32.871,202.352l-0.249,0.274l0.244-0.278c-0.097,0.006-0.182,0.021-0.275,0.027
			c-0.002-0.004,0-0.014-0.003-0.018c-0.043-0.039-0.137-0.014-0.253,0.041c-14.621,1.27-13.966,13.08-13.655,15.606l-0.21,0.231
			c0,0,0.091,0.007,0.242,0.012c0.022,0.15,0.038,0.24,0.038,0.24l0.207-0.236C21.535,218.271,33.612,217.549,32.871,202.352z"/>
		<path fill="#70A4AA" d="M2.297,202.523l0.255,0.278l-0.261-0.274c-0.001,0.097,0.005,0.184,0.004,0.279
			c-0.005,0.002-0.015-0.002-0.019,0.002c-0.041,0.039-0.024,0.135,0.021,0.26c0.002,14.822,11.93,15.438,14.495,15.396l0.216,0.235
			c0,0,0.016-0.091,0.031-0.242c0.153-0.006,0.244-0.013,0.244-0.013l-0.219-0.232C17.309,215.624,17.635,203.415,2.297,202.523z"/>
		<path fill="#70A4AA" d="M33.09,216.512l-0.251,0.275l0.246-0.279c-0.094,0.004-0.178,0.018-0.271,0.023
			c-0.004-0.004,0-0.014-0.004-0.019c-0.041-0.038-0.136-0.014-0.252,0.04c-14.501,1.11-14.05,13.073-13.782,15.635l-0.214,0.232
			c0,0,0.09,0.006,0.239,0.014c0.021,0.15,0.035,0.242,0.035,0.242l0.208-0.236C21.598,232.49,33.57,231.902,33.09,216.512z"/>
		<path fill="#70A4AA" d="M2.633,216.492l0.248,0.279l-0.254-0.274c-0.003,0.099,0.001,0.187-0.002,0.282
			c-0.004,0.003-0.015,0-0.021,0.002c-0.04,0.041-0.025,0.138,0.018,0.263c-0.29,15.04,11.579,15.435,14.136,15.343l0.21,0.234
			c0,0,0.019-0.092,0.037-0.246c0.152-0.009,0.242-0.018,0.242-0.018l-0.213-0.232C17.329,229.494,17.895,217.1,2.633,216.492z"/>
		<path fill="#70A4AA" d="M32.871,229.919l-0.249,0.274l0.244-0.278c-0.097,0.006-0.182,0.021-0.275,0.026
			c-0.002-0.004,0-0.014-0.003-0.018c-0.043-0.038-0.137-0.013-0.253,0.042c-14.621,1.269-13.966,13.079-13.655,15.606l-0.21,0.231
			c0,0,0.091,0.007,0.242,0.011c0.022,0.15,0.038,0.24,0.038,0.24l0.207-0.236C21.535,245.838,33.612,245.117,32.871,229.919z"/>
		<path fill="#70A4AA" d="M2.297,230.091l0.255,0.279l-0.261-0.274c-0.001,0.096,0.005,0.184,0.004,0.278
			c-0.005,0.003-0.015-0.001-0.019,0.001c-0.041,0.04-0.024,0.136,0.021,0.26c0.002,14.824,11.93,15.438,14.495,15.397l0.216,0.235
			c0,0,0.016-0.091,0.031-0.242c0.153-0.006,0.244-0.014,0.244-0.014l-0.219-0.231C17.309,243.191,17.635,230.982,2.297,230.091z"/>
		<path fill="#70A4AA" d="M32.871,243.703l-0.249,0.273l0.244-0.278c-0.097,0.006-0.182,0.02-0.275,0.026
			c-0.002-0.004,0-0.013-0.003-0.017c-0.043-0.038-0.137-0.013-0.253,0.042c-14.621,1.27-13.966,13.079-13.655,15.605l-0.21,0.232
			c0,0,0.091,0.005,0.242,0.012c0.022,0.149,0.038,0.239,0.038,0.239l0.207-0.235C21.535,259.621,33.612,258.9,32.871,243.703z"/>
		<path fill="#70A4AA" d="M2.297,243.875l0.255,0.279l-0.261-0.274c-0.001,0.097,0.005,0.183,0.004,0.278
			c-0.005,0.003-0.015-0.001-0.019,0.001c-0.041,0.04-0.024,0.136,0.021,0.26c0.002,14.823,11.93,15.438,14.495,15.397l0.216,0.234
			c0,0,0.016-0.091,0.031-0.242c0.153-0.007,0.244-0.013,0.244-0.013l-0.219-0.231C17.309,256.975,17.635,244.766,2.297,243.875z"/>
		<rect x="17" y="262.625" fill="#70A4AA" width="3" height="8"/>
	</g>
	<g>
		<path fill="#90CBD4" d="M43.895,168.6l-0.004,0.483l-0.004-0.483c-0.079,0.088-0.145,0.176-0.222,0.265
			c-0.006-0.001-0.011-0.013-0.017-0.013c-0.067,0-0.132,0.104-0.191,0.26c-11.929,13.934-2.052,24.884,0.214,27.078l-0.003,0.41
			c0,0,0.085-0.074,0.223-0.201c0.139,0.127,0.224,0.201,0.224,0.201l-0.003-0.41C46.404,193.969,56.516,182.777,43.895,168.6z"/>
		<path fill="#90CBD4" d="M63.236,189.17l-0.324,0.357l0.318-0.363c-0.125,0.008-0.235,0.025-0.359,0.035
			c-0.003-0.006,0-0.018-0.004-0.023c-0.057-0.049-0.18-0.017-0.331,0.055c-19.093,1.658-18.237,17.08-17.831,20.381l-0.275,0.303
			c0,0,0.119,0.007,0.317,0.014c0.029,0.196,0.05,0.313,0.05,0.313l0.271-0.308C48.434,209.958,64.205,209.018,63.236,189.17z"/>
		<path fill="#90CBD4" d="M23.311,189.395l0.332,0.364l-0.34-0.358c-0.002,0.125,0.006,0.24,0.005,0.363
			c-0.006,0.004-0.019,0-0.023,0.002c-0.054,0.051-0.032,0.178,0.026,0.34c0.003,19.357,15.577,20.16,18.93,20.106l0.28,0.308
			c0,0,0.021-0.117,0.042-0.315c0.2-0.008,0.318-0.017,0.318-0.017l-0.286-0.305C42.914,206.502,43.34,190.559,23.311,189.395z"/>
		<path fill="#90CBD4" d="M63.521,207.662l-0.326,0.359l0.32-0.365c-0.123,0.006-0.231,0.021-0.354,0.031
			c-0.003-0.006,0-0.019-0.004-0.023c-0.055-0.051-0.178-0.02-0.329,0.052c-18.937,1.45-18.348,17.071-17.999,20.416l-0.278,0.304
			c0,0,0.117,0.008,0.313,0.019c0.026,0.198,0.045,0.317,0.045,0.317l0.271-0.309C48.515,228.527,64.149,227.761,63.521,207.662z"/>
		<path fill="#90CBD4" d="M23.749,207.635l0.323,0.364l-0.331-0.356c-0.004,0.127,0.001,0.242-0.002,0.368
			c-0.006,0.005-0.021-0.001-0.025,0.003c-0.053,0.053-0.035,0.18,0.021,0.344c-0.38,19.641,15.12,20.153,18.46,20.035l0.272,0.308
			c0,0,0.022-0.121,0.049-0.322c0.199-0.012,0.316-0.022,0.316-0.022l-0.278-0.304C42.94,224.615,43.679,208.43,23.749,207.635z"/>
		<path fill="#90CBD4" d="M63.236,225.17l-0.324,0.357l0.318-0.363c-0.125,0.008-0.235,0.025-0.359,0.035
			c-0.003-0.006,0-0.018-0.004-0.023c-0.057-0.049-0.18-0.017-0.331,0.055c-19.093,1.658-18.237,17.08-17.831,20.381l-0.275,0.303
			c0,0,0.119,0.007,0.317,0.014c0.029,0.196,0.05,0.313,0.05,0.313l0.271-0.308C48.434,245.958,64.205,245.018,63.236,225.17z"/>
		<path fill="#90CBD4" d="M23.311,225.395l0.332,0.364l-0.34-0.358c-0.002,0.125,0.006,0.24,0.005,0.363
			c-0.006,0.004-0.019,0-0.023,0.002c-0.054,0.051-0.032,0.178,0.026,0.34c0.003,19.357,15.577,20.16,18.93,20.106l0.28,0.308
			c0,0,0.021-0.117,0.042-0.315c0.2-0.008,0.318-0.017,0.318-0.017l-0.286-0.305C42.914,242.502,43.34,226.559,23.311,225.395z"/>
		<path fill="#90CBD4" d="M63.236,243.17l-0.324,0.357l0.318-0.363c-0.125,0.008-0.235,0.025-0.359,0.035
			c-0.003-0.006,0-0.018-0.004-0.023c-0.057-0.049-0.18-0.017-0.331,0.055c-19.093,1.658-18.237,17.08-17.831,20.381l-0.275,0.304
			c0,0,0.119,0.007,0.317,0.014c0.029,0.196,0.05,0.313,0.05,0.313l0.271-0.309C48.434,263.958,64.205,263.018,63.236,243.17z"/>
		<path fill="#90CBD4" d="M23.311,243.395l0.332,0.364l-0.34-0.358c-0.002,0.125,0.006,0.24,0.005,0.363
			c-0.006,0.004-0.019,0-0.023,0.002c-0.054,0.051-0.032,0.178,0.026,0.34c0.003,19.357,15.577,20.16,18.93,20.106l0.28,0.308
			c0,0,0.021-0.117,0.042-0.315c0.2-0.008,0.318-0.017,0.318-0.017l-0.286-0.305C42.914,260.502,43.34,244.559,23.311,243.395z"/>
		<rect x="42" y="267.625" fill="#90CBD4" width="4" height="11"/>
	</g>
	<g>
		<g>
			<path fill="#FFFFFF" d="M85.398,46.224c1.612,3.208,0.318,7.118-2.891,8.731L54.425,69.074c-3.208,1.613-7.117,0.319-8.729-2.89
				L27.819,30.627c-1.613-3.209-0.319-7.118,2.89-8.731L58.792,7.778c3.208-1.613,7.118-0.32,8.731,2.889L85.398,46.224z"/>
			<polygon fill="#FFFFFF" points="6.146,38.73 46.015,58.673 34.81,37.389 6.521,31.715 			"/>
		</g>
		
			<ellipse transform="matrix(0.1372 -0.9905 0.9905 0.1372 -31.368 34.5385)" fill="#FFFFFF" cx="4.142" cy="35.275" rx="8.054" ry="3.373"/>
		<path fill="#FFFFFF" d="M69.562,17.51c1.183-1.712,1.706-3.781,2.412-5.714c0.988-2.702,3.238-4.812,6.009-5.594
			c5.096-1.44,7.79,2.789,8.409,7.098c1.479,10.267-4.719,19.114-7.888,28.347c-0.986,2.874,3.482,4.349,4.467,1.479
			c2.228-6.486,5.88-12.381,7.328-19.133c1.119-5.219,1.455-10.697-0.358-15.791c-1.9-5.335-7.581-7.627-12.879-6.616
			c-2.919,0.557-5.695,2.597-7.47,4.921c-1.955,2.561-2.195,5.86-3.979,8.439C63.89,17.444,67.837,20.007,69.562,17.51L69.562,17.51
			z"/>
	</g>
</g>
</svg>
