<?xml version="1.0" encoding="utf-8"?>
<!-- Generator: Adobe Illustrator 16.0.0, SVG Export Plug-In . SVG Version: 6.00 Build 0)  -->
<!DOCTYPE svg PUBLIC "-//W3C//DTD SVG 1.1//EN" "http://www.w3.org/Graphics/SVG/1.1/DTD/svg11.dtd">
<svg version="1.1" id="Calque_1" xmlns="http://www.w3.org/2000/svg" xmlns:xlink="http://www.w3.org/1999/xlink" x="0px" y="0px"
	 width="1181.768px" height="989.803px" viewBox="0 0 1181.768 989.803" enable-background="new 0 0 1181.768 989.803"
	 xml:space="preserve">
<defs>
  <style type="text/css">
    @font-face {
	    font-family: 'Roboto';
	    src: url('../../fonts/roboto/Roboto-Thin.eot');
	    src: url('../../fonts/roboto/Roboto-Thin.eot?#iefix') format('embedded-opentype'),
	         url('../../fonts/roboto/Roboto-Thin.woff') format('woff'),
	         url('../../fonts/roboto/Roboto-Thin.ttf') format('truetype'),
	         url('../../fonts/roboto/Roboto-Thin.svg#Roboto') format('svg');
	}
  </style>
</defs>
<rect x="351.487" y="231.997" fill="none" width="175.063" height="91.51"/>
<text transform="matrix(1 0 0 1 332.3313 247.9922)" enable-background="new    "><tspan x="0" y="0" fill="#717070" font-family="'Roboto'" letter-spacing="1px" font-size="30">Programmation</tspan><tspan x="207.671" y="0" fill="#717070" font-family="'Roboto'" letter-spacing="1px" font-size="21"> </tspan></text>
<text transform="matrix(1 0 0 1 354.1804 280.1929)" fill="#717070" font-family="'Roboto'" letter-spacing="1px" font-size="30">informatique</text>
<rect x="530.488" y="232.997" fill="none" width="216.062" height="91.51"/>
<text transform="matrix(1 0 0 1 580.0442 248.9932)" fill="#717070" font-family="'Roboto'" letter-spacing="1px" font-size="30">Industrie</text>
<text transform="matrix(1 0 0 1 556.6794 277.1934)" fill="#717070" font-family="'Roboto'" letter-spacing="1px" font-size="30">informatique</text>
<text transform="matrix(1 0 0 1 540.9026 307.394)" fill="#717070" font-family="'Roboto'" letter-spacing="1px" font-size="30">&amp;  électronique</text>
<rect x="941.884" y="234.515" fill="none" width="183.5" height="48.991"/>
<text transform="matrix(1 0 0 1 972.885 250.5117)" enable-background="new    "><tspan x="0" y="0" fill="#717070" font-family="'Roboto'" letter-spacing="1px" font-size="30">Industrie</tspan><tspan x="0" y="36" fill="#717070" font-family="'Roboto'" letter-spacing="1px" font-size="30">chimique</tspan></text>
<line fill="none" stroke="#717070" stroke-width="0.5" stroke-miterlimit="10" x1="-10.359" y1="269.742" x2="-10.359" y2="331.559"/>
<line fill="none" stroke="#717070" stroke-width="0.5" stroke-miterlimit="10" x1="161.75" y1="267.381" x2="161.75" y2="663.506"/>
<line fill="none" stroke="#717070" stroke-width="0.5" stroke-miterlimit="10" x1="437.406" y1="293.255" x2="437.406" y2="833.463"/>
<line fill="none" stroke="#717070" stroke-width="0.4881" stroke-miterlimit="10" x1="637.334" y1="316.506" x2="637.334" y2="841.088"/>
<line fill="none" stroke="#717070" stroke-width="0.5" stroke-miterlimit="10" x1="1033.203" y1="295.401" x2="1033.203" y2="843.381"/>
<rect x="483.564" y="230.05" fill="none" width="201.996" height="96.875"/>
<rect x="-153.019" y="229.742" fill="none" width="287.25" height="67"/>
<text transform="matrix(1 0 0 1 3.6511 248.2383)" fill="#717070" font-family="'Roboto'" letter-spacing="1px" font-size="30">Architecture &amp; ingénierie</text>
<rect x="871.406" y="230.011" fill="none" width="237.821" height="188.769"/>
<g>
	<path fill="none" stroke="#FFFFFF" stroke-width="3.5818" stroke-miterlimit="10" d="M1237.297,872.943"/>
</g>
<g>
	<path fill="none" stroke="#FFFFFF" stroke-width="3.5818" stroke-miterlimit="10" d="M1226.297,872.943"/>
</g>
<g id="Calque_3">
	<path fill="#F09748" d="M251.884,884.309c0,16.056-39.849,29.065-89.002,29.065c-49.154,0-88.998-13.013-88.998-29.065
		c0-16.049,39.844-29.062,88.998-29.062C212.035,855.246,251.884,868.26,251.884,884.309z"/>
	<polygon fill="#F09748" points="251.884,705.506 251.884,885.553 73.884,885.342 73.884,705.506 	"/>
	<path fill="#E06C3A" d="M252.3,706.523c0,14.721-39.942,26.651-89.208,26.651s-89.208-11.934-89.208-26.651
		c0-14.719,39.942-26.652,89.208-26.652S252.3,691.807,252.3,706.523z"/>
	<ellipse fill="#64BBAE" cx="437.508" cy="886.544" rx="16.624" ry="5.428"/>
	<ellipse fill="#F05F59" cx="637.884" cy="886.592" rx="16" ry="5.414"/>
	<polygon fill="#F05F59" points="653.572,854.402 653.572,887.031 621.884,886.994 621.884,854.402 	"/>
	<ellipse fill="#E05B5A" cx="637.791" cy="854.79" rx="15.903" ry="4.729"/>
	<ellipse fill="#F09748" cx="836.96" cy="886.59" rx="14.924" ry="4.984"/>
	<polygon fill="#F09748" points="851.884,855.506 851.884,886.152 821.884,886.117 821.884,855.506 	"/>
	<path fill="#E06C3A" d="M852.069,856.088c0,2.525-6.724,4.573-15.014,4.573c-8.296,0-15.021-2.048-15.021-4.573
		c0-2.521,6.726-4.571,15.021-4.571C845.345,851.517,852.069,853.564,852.069,856.088z"/>
	<ellipse fill="#64BBAE" cx="1033.436" cy="886.912" rx="13.948" ry="4.594"/>
	<rect x="1019.528" y="858.519" fill="#64BBAE" width="27.869" height="28.396"/>
	<ellipse fill="#46B2A0" cx="1033.442" cy="858.804" rx="13.955" ry="4.214"/>
	<rect x="420.884" y="853.367" fill="#64BBAE" width="33.361" height="33.812"/>
	<ellipse fill="#46B2A0" cx="437.539" cy="853.346" rx="16.658" ry="4.979"/>
</g>
<g>
	<g>
		
			<line fill="none" stroke="#D4584D" stroke-width="1.2443" stroke-linecap="round" stroke-linejoin="round" x1="637.823" y1="131.882" x2="637.843" y2="133.437"/>
		
			<line fill="none" stroke="#D4584D" stroke-width="1.2443" stroke-linecap="round" stroke-linejoin="round" stroke-dasharray="3.2926,3.2926" x1="637.865" y1="136.73" x2="638.066" y2="161.424"/>
		
			<line fill="none" stroke="#D4584D" stroke-width="1.2443" stroke-linecap="round" stroke-linejoin="round" x1="638.073" y1="163.07" x2="638.09" y2="164.626"/>
	</g>
</g>
<g>
	<rect x="426.503" y="157.737" fill="#EAE9EA" width="21.931" height="12.064"/>
	<path fill="#1F1F1D" d="M486.153,156.629c0,2.35-1.938,4.246-4.347,4.246h-88.677c-2.399,0-4.337-1.896-4.337-4.246V99.563
		c0-2.34,1.944-4.236,4.337-4.236h88.677c2.408,0,4.347,1.896,4.347,4.236V156.629z"/>
	<path fill="#F6F6F6" d="M486.396,153.165v3.28c0,3.247-1.947,5.873-4.337,5.873h-89.173c-2.399,0-4.349-2.626-4.349-5.873v-3.28"/>
	<rect x="392.047" y="98.457" fill="#BDE0E4" width="90.856" height="51.335"/>
	<rect x="420.955" y="169.113" fill="#F6F6F6" width="33.021" height="2.324"/>
	<rect x="407.106" y="98.457" fill="#FFFFFF" width="58.803" height="51.335"/>
	<rect x="411.445" y="142.556" fill="#E9E8E8" width="50.371" height="1.2"/>
	<rect x="411.324" y="144.607" fill="#E9E8E8" width="50.362" height="1.208"/>
	<rect x="411.319" y="146.772" fill="#E9E8E8" width="24.219" height="1.208"/>
	<rect x="411.006" y="134.238" fill="#E9E8E8" width="50.36" height="1.2"/>
	<rect x="410.882" y="136.28" fill="#E9E8E8" width="50.379" height="1.208"/>
	<rect x="410.882" y="138.454" fill="#E9E8E8" width="24.228" height="1.2"/>
	<rect x="411.445" y="125.039" fill="#E9E8E8" width="50.371" height="1.2"/>
	<rect x="411.324" y="127.09" fill="#E9E8E8" width="50.362" height="1.2"/>
	<rect x="411.319" y="129.254" fill="#E9E8E8" width="24.219" height="1.208"/>
	<rect x="411.445" y="115.403" fill="#E9E8E8" width="50.371" height="1.2"/>
	<rect x="411.324" y="117.451" fill="#E9E8E8" width="50.362" height="1.208"/>
	<rect x="411.319" y="119.615" fill="#E9E8E8" width="24.219" height="1.208"/>
	<rect x="411.445" y="105.323" fill="#E9E8E8" width="50.371" height="1.208"/>
	<rect x="411.324" y="107.383" fill="#E9E8E8" width="50.362" height="1.191"/>
	<rect x="411.319" y="109.547" fill="#E9E8E8" width="24.219" height="1.208"/>
</g>
<g>
	<g>
		<path fill="#F6F6F6" d="M435.178,175.792h-21.813c-1.308,0-2.375,1.065-2.375,2.383v22.601c0,1.318,1.067,2.383,2.375,2.383
			h47.074c1.309,0,2.375-1.065,2.375-2.383v-22.601c0-1.317-1.066-2.383-2.375-2.383l0,0h-21.805H435.178z M445.179,181.546
			c0-0.327,0.259-0.604,0.604-0.604h3.296c0.32,0,0.605,0.269,0.605,0.604v2.945c0,0.328-0.277,0.604-0.605,0.604h-3.296
			c-0.335,0-0.604-0.269-0.604-0.604V181.546z M445.179,188.002v2.945c0,0.323-0.277,0.604-0.613,0.604h-3.28
			c-0.335,0-0.604-0.268-0.604-0.604v-2.945c0-0.344,0.269-0.612,0.604-0.612h3.28C444.902,187.394,445.179,187.658,445.179,188.002
			L445.179,188.002z M442.066,180.942c0.335,0,0.612,0.269,0.612,0.604v2.945c0,0.328-0.277,0.604-0.612,0.604h-3.282
			c-0.334,0-0.604-0.269-0.604-0.604v-2.945c0-0.327,0.269-0.604,0.604-0.604H442.066z M438.266,188.002v2.945
			c0,0.323-0.271,0.604-0.606,0.604h-3.288c-0.324,0-0.604-0.268-0.604-0.604v-2.945c0-0.344,0.269-0.612,0.604-0.612h3.288
			C437.995,187.394,438.266,187.658,438.266,188.002L438.266,188.002z M431.175,181.546c0-0.327,0.269-0.604,0.61-0.604h3.272
			c0.335,0,0.62,0.269,0.62,0.604v2.945c0,0.328-0.277,0.604-0.62,0.604h-3.272c-0.345,0-0.61-0.269-0.61-0.604V181.546z
			 M431.353,188.002v2.945c0,0.323-0.269,0.604-0.613,0.604h-3.277c-0.335,0-0.612-0.268-0.612-0.604v-2.945
			c0-0.344,0.269-0.612,0.612-0.612h3.277C431.073,187.394,431.353,187.658,431.353,188.002L431.353,188.002z M417.173,184.482
			v-2.945c0-0.327,0.274-0.604,0.609-0.604h3.281c0.335,0,0.604,0.269,0.604,0.604v2.945c0,0.328-0.263,0.604-0.604,0.604h-3.281
			C417.448,185.087,417.173,184.814,417.173,184.482L417.173,184.482z M422.163,197.386c0,0.344-0.269,0.613-0.604,0.613h-3.288
			c-0.327,0-0.604-0.264-0.604-0.613v-2.937c0-0.335,0.269-0.604,0.604-0.604h3.288c0.336,0,0.604,0.265,0.604,0.604V197.386z
			 M424.44,190.943c0,0.319-0.277,0.604-0.622,0.604h-3.271c-0.335,0-0.612-0.269-0.612-0.604v-2.945
			c0-0.344,0.269-0.613,0.612-0.613h3.271c0.345,0,0.622,0.265,0.622,0.613V190.943z M424.171,184.482v-2.945
			c0-0.327,0.282-0.604,0.617-0.604h3.271c0.345,0,0.622,0.269,0.622,0.604v2.945c0,0.328-0.271,0.604-0.622,0.604h-3.271
			C424.454,185.087,424.171,184.814,424.171,184.482L424.171,184.482z M449.495,197.386c0,0.344-0.269,0.613-0.604,0.613h-23.248
			c-0.335,0-0.612-0.264-0.612-0.613v-2.937c0-0.335,0.271-0.604,0.612-0.604h23.248c0.327,0,0.604,0.265,0.604,0.604V197.386z
			 M452.092,190.943c0,0.319-0.271,0.604-0.614,0.604h-3.271c-0.335,0-0.609-0.269-0.609-0.604v-2.945
			c0-0.344,0.269-0.613,0.609-0.613h3.271c0.337,0,0.614,0.265,0.614,0.613V190.943z M452.183,184.482v-2.945
			c0-0.327,0.26-0.604,0.604-0.604h3.288c0.335,0,0.604,0.269,0.604,0.604v2.945c0,0.328-0.26,0.604-0.604,0.604h-3.288
			C452.448,185.087,452.183,184.814,452.183,184.482L452.183,184.482z M456.871,197.386c0,0.344-0.269,0.613-0.604,0.613h-3.288
			c-0.327,0-0.612-0.264-0.612-0.613v-2.937c0-0.335,0.271-0.604,0.612-0.604h3.288c0.328,0,0.604,0.265,0.604,0.604V197.386z"/>
	</g>
	<g>
		<path fill="#F6F6F6" d="M435.178,175.792h-21.813c-1.308,0-2.375,1.065-2.375,2.383v22.601c0,1.318,1.067,2.383,2.375,2.383
			h47.074c1.309,0,2.375-1.065,2.375-2.383v-22.601c0-1.317-1.066-2.383-2.375-2.383l0,0h-21.805H435.178z M445.179,181.546
			c0-0.327,0.259-0.604,0.604-0.604h3.296c0.32,0,0.605,0.269,0.605,0.604v2.945c0,0.328-0.277,0.604-0.605,0.604h-3.296
			c-0.335,0-0.604-0.269-0.604-0.604V181.546z M445.179,188.002v2.945c0,0.323-0.277,0.604-0.613,0.604h-3.28
			c-0.335,0-0.604-0.268-0.604-0.604v-2.945c0-0.344,0.269-0.612,0.604-0.612h3.28C444.902,187.394,445.179,187.658,445.179,188.002
			L445.179,188.002z M442.066,180.942c0.335,0,0.612,0.269,0.612,0.604v2.945c0,0.328-0.277,0.604-0.612,0.604h-3.282
			c-0.334,0-0.604-0.269-0.604-0.604v-2.945c0-0.327,0.269-0.604,0.604-0.604H442.066z M438.266,188.002v2.945
			c0,0.323-0.271,0.604-0.606,0.604h-3.288c-0.324,0-0.604-0.268-0.604-0.604v-2.945c0-0.344,0.269-0.612,0.604-0.612h3.288
			C437.995,187.394,438.266,187.658,438.266,188.002L438.266,188.002z M431.175,181.546c0-0.327,0.269-0.604,0.61-0.604h3.272
			c0.335,0,0.62,0.269,0.62,0.604v2.945c0,0.328-0.277,0.604-0.62,0.604h-3.272c-0.345,0-0.61-0.269-0.61-0.604V181.546z
			 M431.353,188.002v2.945c0,0.323-0.269,0.604-0.613,0.604h-3.277c-0.335,0-0.612-0.268-0.612-0.604v-2.945
			c0-0.344,0.269-0.612,0.612-0.612h3.277C431.073,187.394,431.353,187.658,431.353,188.002L431.353,188.002z M417.173,184.482
			v-2.945c0-0.327,0.274-0.604,0.609-0.604h3.281c0.335,0,0.604,0.269,0.604,0.604v2.945c0,0.328-0.263,0.604-0.604,0.604h-3.281
			C417.448,185.087,417.173,184.814,417.173,184.482L417.173,184.482z M422.163,197.386c0,0.344-0.269,0.613-0.604,0.613h-3.288
			c-0.327,0-0.604-0.264-0.604-0.613v-2.937c0-0.335,0.269-0.604,0.604-0.604h3.288c0.336,0,0.604,0.265,0.604,0.604V197.386z
			 M424.44,190.943c0,0.319-0.277,0.604-0.622,0.604h-3.271c-0.335,0-0.612-0.269-0.612-0.604v-2.945
			c0-0.344,0.269-0.613,0.612-0.613h3.271c0.345,0,0.622,0.265,0.622,0.613V190.943z M424.171,184.482v-2.945
			c0-0.327,0.282-0.604,0.617-0.604h3.271c0.345,0,0.622,0.269,0.622,0.604v2.945c0,0.328-0.271,0.604-0.622,0.604h-3.271
			C424.454,185.087,424.171,184.814,424.171,184.482L424.171,184.482z M449.495,197.386c0,0.344-0.269,0.613-0.604,0.613h-23.248
			c-0.335,0-0.612-0.264-0.612-0.613v-2.937c0-0.335,0.271-0.604,0.612-0.604h23.248c0.327,0,0.604,0.265,0.604,0.604V197.386z
			 M452.092,190.943c0,0.319-0.271,0.604-0.614,0.604h-3.271c-0.335,0-0.609-0.269-0.609-0.604v-2.945
			c0-0.344,0.269-0.613,0.609-0.613h3.271c0.337,0,0.614,0.265,0.614,0.613V190.943z M452.183,184.482v-2.945
			c0-0.327,0.26-0.604,0.604-0.604h3.288c0.335,0,0.604,0.269,0.604,0.604v2.945c0,0.328-0.26,0.604-0.604,0.604h-3.288
			C452.448,185.087,452.183,184.814,452.183,184.482L452.183,184.482z M456.871,197.386c0,0.344-0.269,0.613-0.604,0.613h-3.288
			c-0.327,0-0.612-0.264-0.612-0.613v-2.937c0-0.335,0.271-0.604,0.612-0.604h3.288c0.328,0,0.604,0.265,0.604,0.604V197.386z"/>
	</g>
</g>
<path fill="#F8E4F0" d="M432.888,198.342c-1.754-3.507-3.8-1.46-5.253,0c-1.459-3.507-4.967,0-4.967,0
	c-0.579-3.213-3.51-2.047-4.675-0.009c-1.753-5.838-4.623,0-4.623,0s-2.509,6.024-0.483,10.076
	c1.903,3.792,16.938,3.666,18.54,1.167C432.888,207.68,433.76,205.633,432.888,198.342z"/>
<path fill="#F8E4F0" d="M432.593,201.84c0,0,1.189-1.468,2.056-1.468c1.459,0-0.444,8.327-3.213,9.204
	C428.65,210.448,432.593,201.84,432.593,201.84z"/>
<path fill="#F8E4F0" d="M441.655,198.636c1.752-3.507,3.792-1.46,5.251,0c1.467-3.507,4.966,0,4.966,0
	c0.579-3.214,3.499-2.056,4.665-0.008c1.757-5.848,4.634,0,4.634,0s2.509,6.007,0.483,10.076
	c-1.902,3.791-16.938,3.648-18.549,1.162C441.655,207.974,440.773,205.922,441.655,198.636z"/>
<path fill="#F8E4F0" d="M441.948,202.134c0,0-1.189-1.459-2.048-1.459c-1.459,0,0.438,8.327,3.205,9.195
	C445.892,210.738,441.948,202.134,441.948,202.134z"/>
<g>
	<g>
		
			<line fill="none" stroke="#D4584D" stroke-width="0.8805" stroke-linecap="round" stroke-linejoin="round" x1="627.058" y1="172.275" x2="626.742" y2="173.332"/>
		
			<line fill="none" stroke="#D4584D" stroke-width="0.8805" stroke-linecap="round" stroke-linejoin="round" stroke-dasharray="2.1214,2.1214" x1="626.156" y1="175.371" x2="620.522" y2="194.717"/>
		
			<line fill="none" stroke="#D4584D" stroke-width="0.8805" stroke-linecap="round" stroke-linejoin="round" x1="620.226" y1="195.736" x2="619.918" y2="196.792"/>
	</g>
</g>
<g>
	<g>
		
			<line fill="none" stroke="#D4584D" stroke-width="0.8805" stroke-linecap="round" stroke-linejoin="round" x1="646.681" y1="172.065" x2="646.92" y2="173.137"/>
		
			<line fill="none" stroke="#D4584D" stroke-width="0.8805" stroke-linecap="round" stroke-linejoin="round" stroke-dasharray="2.1223,2.1223" x1="647.382" y1="175.213" x2="651.787" y2="194.891"/>
		
			<line fill="none" stroke="#D4584D" stroke-width="0.8805" stroke-linecap="round" stroke-linejoin="round" x1="652.021" y1="195.926" x2="652.25" y2="196.999"/>
	</g>
</g>
<g>
	<rect x="632.759" y="125.593" fill="#EAE9EA" width="11.017" height="6.069"/>
	<path fill="#1F1F1D" d="M662.74,125.04c0,1.18-0.974,2.138-2.188,2.138h-44.586c-1.205,0-2.181-0.958-2.181-2.138V96.356
		c0-1.171,0.968-2.137,2.181-2.137h44.586c1.205,0,2.188,0.966,2.188,2.137V125.04z"/>
	<path fill="#FFFFFF" d="M662.863,123.295v1.659c0,1.626-0.973,2.946-2.186,2.946h-44.818c-1.203,0-2.195-1.319-2.195-2.946v-1.659"
		/>
	<rect x="615.431" y="95.795" fill="#BDE0E4" width="45.683" height="25.805"/>
	<rect x="629.97" y="131.316" fill="#FFFFFF" width="16.595" height="1.159"/>
	<rect x="623.006" y="95.795" fill="#FFFFFF" width="29.56" height="25.805"/>
	<rect x="623.006" y="95.795" fill="#6EA6AA" width="29.56" height="4.118"/>
	<rect x="624.21" y="101.485" fill="#12100F" width="3.878" height="1.212"/>
	<rect x="629.97" y="101.485" fill="#12100F" width="3.879" height="1.212"/>
	<rect x="635.845" y="101.485" fill="#12100F" width="3.88" height="1.212"/>
	<rect x="641.844" y="101.485" fill="#12100F" width="3.871" height="1.212"/>
	<rect x="647.597" y="101.485" fill="#12100F" width="3.879" height="1.212"/>
	<rect x="628.031" y="104.456" fill="#8FCED5" width="19.508" height="12.113"/>
	<rect x="625.184" y="117.968" fill="#E9E8E8" width="25.318" height="0.603"/>
	<rect x="625.127" y="118.996" fill="#E9E8E8" width="25.313" height="0.606"/>
	<rect x="625.127" y="120.085" fill="#E9E8E8" width="12.171" height="0.615"/>
	<path fill="#12100F" d="M650.022,106.877c0.266,0,0.48,0.22,0.48,0.488c0,0.268-0.218,0.487-0.48,0.487
		c-0.271,0-0.485-0.219-0.485-0.487C649.534,107.097,649.75,106.877,650.022,106.877z"/>
	<path fill="#12100F" d="M650.022,110.03c0.266,0,0.48,0.219,0.48,0.487s-0.218,0.482-0.48,0.482c-0.271,0-0.485-0.214-0.485-0.482
		S649.75,110.03,650.022,110.03z"/>
	<path fill="#12100F" d="M650.022,113.302c0.266,0,0.48,0.215,0.48,0.483c0,0.268-0.218,0.487-0.48,0.487
		c-0.271,0-0.485-0.219-0.485-0.487C649.534,113.517,649.75,113.302,650.022,113.302z"/>
</g>
<g>
	<rect x="625.184" y="166.668" fill="#FFFFFF" width="26.159" height="7.67"/>
	<rect x="637.389" y="158.037" fill="#FFFFFF" width="1.121" height="10.384"/>
	<path fill="none" stroke="#FFFFFF" stroke-width="1.3212" stroke-miterlimit="10" d="M637.948,154.294
		c1.032,0,1.874,0.837,1.874,1.873s-0.842,1.874-1.874,1.874c-1.029,0-1.872-0.838-1.872-1.874S636.918,154.294,637.948,154.294z"/>
	<rect x="628.533" y="167.712" fill="#E9E8E8" width="21.999" height="1.42"/>
	<rect x="625.784" y="167.712" fill="#8FCED5" width="1.536" height="1.42"/>
	<rect x="628.533" y="170.505" fill="#BDE0E4" width="6.246" height="1.741"/>
	<rect x="635.714" y="170.505" fill="#BDE0E4" width="4.856" height="1.741"/>
	<rect x="641.78" y="170.505" fill="#BDE0E4" width="4.599" height="1.741"/>
	<rect x="647.473" y="170.505" fill="#12100F" width="0.462" height="1.741"/>
	<rect x="648.281" y="170.505" fill="#12100F" width="0.453" height="1.741"/>
	
		<path fill="none" stroke="#D4584D" stroke-width="1.7614" stroke-linecap="round" stroke-linejoin="round" stroke-miterlimit="10" d="
		M644.584,146.934c2.861,1.567,4.784,4.464,4.784,7.769c0,3.429-2.068,6.416-5.125,7.95"/>
	
		<path fill="none" stroke="#D4584D" stroke-width="1.7614" stroke-linecap="round" stroke-linejoin="round" stroke-miterlimit="10" d="
		M631.778,146.934c-2.863,1.567-4.787,4.464-4.787,7.769c0,3.429,2.071,6.416,5.125,7.95"/>
	
		<path fill="none" stroke="#D4584D" stroke-width="1.3212" stroke-linecap="round" stroke-linejoin="round" stroke-miterlimit="10" d="
		M632.823,150.041c-1.729,0.961-2.887,2.706-2.887,4.695c0,2.071,1.247,3.87,3.078,4.794"/>
	
		<path fill="none" stroke="#D4584D" stroke-width="1.3212" stroke-linecap="round" stroke-linejoin="round" stroke-miterlimit="10" d="
		M643.109,150.041c1.728,0.961,2.896,2.706,2.896,4.695c0,2.071-1.255,3.87-3.097,4.794"/>
</g>
<g>
	<rect x="612.344" y="189.865" fill="#FFFFFF" width="19.822" height="17.321"/>
	<rect x="612.344" y="189.865" fill="#6EA6AA" width="19.822" height="2.76"/>
	<rect x="613.154" y="193.69" fill="#12100F" width="2.601" height="0.809"/>
	<rect x="617.013" y="193.69" fill="#12100F" width="2.601" height="0.809"/>
	<rect x="620.959" y="193.69" fill="#12100F" width="2.592" height="0.809"/>
	<rect x="624.97" y="193.69" fill="#12100F" width="2.605" height="0.809"/>
	<rect x="628.83" y="193.69" fill="#12100F" width="2.601" height="0.809"/>
	<rect x="615.71" y="195.674" fill="#8FCED5" width="13.088" height="8.137"/>
	<rect x="613.804" y="204.74" fill="#E9E8E8" width="16.981" height="0.404"/>
	<rect x="613.763" y="205.433" fill="#E9E8E8" width="16.979" height="0.405"/>
	<rect x="613.763" y="206.158" fill="#E9E8E8" width="8.17" height="0.409"/>
	<path fill="#12100F" d="M630.465,197.304c0.175,0,0.312,0.145,0.312,0.322c0,0.174-0.141,0.318-0.312,0.318
		c-0.185,0-0.322-0.144-0.322-0.318C630.143,197.449,630.281,197.304,630.465,197.304z"/>
	<path fill="#12100F" d="M630.465,199.417c0.175,0,0.312,0.144,0.312,0.322c0,0.173-0.141,0.317-0.312,0.317
		c-0.185,0-0.322-0.145-0.322-0.317C630.143,199.561,630.281,199.417,630.465,199.417z"/>
	<path fill="#12100F" d="M630.465,201.612c0.175,0,0.312,0.145,0.312,0.321c0,0.178-0.141,0.322-0.312,0.322
		c-0.185,0-0.322-0.145-0.322-0.322C630.143,201.756,630.281,201.612,630.465,201.612z"/>
</g>
<g>
	<path fill="#FFFFFF" d="M660.668,210.062c0,1.303-1.052,2.343-2.347,2.343h-9.185c-1.303,0-2.354-1.04-2.354-2.343v-23.049
		c0-1.295,1.053-2.352,2.354-2.352h9.185c1.295,0,2.347,1.056,2.347,2.352V210.062z"/>
	<rect x="647.481" y="188.619" fill="#BDE0E4" width="12.503" height="19.83"/>
	<path fill="#1F1F1D" d="M655.776,187.204c0,0.103-0.084,0.194-0.188,0.194h-2.255c-0.1,0-0.195-0.086-0.195-0.194l0,0
		c0-0.103,0.09-0.194,0.195-0.194h2.255C655.692,187.01,655.776,187.096,655.776,187.204L655.776,187.204z"/>
	<path fill="#1F1F1D" d="M652.169,187.01c0.104,0,0.188,0.086,0.188,0.194s-0.081,0.194-0.188,0.194
		c-0.108,0-0.199-0.086-0.199-0.194S652.061,187.01,652.169,187.01z"/>
	<rect x="647.481" y="188.619" fill="#6EA6AA" width="12.503" height="3.127"/>
	<rect x="648.257" y="191.75" fill="#FFFFFF" width="10.884" height="13.674"/>
	<rect x="648.943" y="193.603" fill="#8FCED5" width="9.474" height="5.814"/>
	<rect x="648.943" y="192.286" fill="#12100F" width="1.849" height="0.785"/>
	<rect x="651.435" y="192.286" fill="#12100F" width="1.848" height="0.785"/>
	<rect x="654.115" y="192.286" fill="#12100F" width="1.856" height="0.785"/>
	<rect x="656.566" y="192.286" fill="#12100F" width="1.85" height="0.785"/>
	<rect x="648.943" y="200.341" fill="#E9E8E8" width="9.474" height="0.297"/>
	<rect x="648.943" y="200.923" fill="#E9E8E8" width="9.474" height="0.297"/>
	<rect x="648.943" y="201.513" fill="#E9E8E8" width="9.474" height="0.289"/>
	<rect x="648.967" y="202.091" fill="#E9E8E8" width="6.007" height="0.255"/>
</g>
<g>
	<rect x="1058.084" y="141.131" fill="#D36159" width="28.612" height="5.501"/>
	<polygon fill="#D36159" points="1035.773,164.115 1028.007,191.658 1022.712,190.169 1030.48,162.619 	"/>
	<polygon fill="#D36159" points="1022.173,133.537 1005.826,110.042 1010.346,106.893 1026.7,130.387 	"/>
	<path fill="#D36159" d="M1036.068,114.351c16.011,0,28.983,12.978,28.983,28.989c0,16.006-12.976,28.983-28.983,28.983
		s-28.98-12.977-28.98-28.983C1007.084,127.329,1020.057,114.351,1036.068,114.351z"/>
	<path fill="#D36159" d="M1020.721,180.693c7.937,0,14.373,6.43,14.373,14.368c0,7.933-6.438,14.369-14.373,14.369
		c-7.925,0-14.364-6.436-14.364-14.369C1006.357,187.123,1012.796,180.693,1020.721,180.693z"/>
	<path fill="#D36159" d="M1094.117,129.704c7.93,0,14.364,6.431,14.364,14.369c0,7.932-6.438,14.363-14.364,14.363
		c-7.938,0-14.374-6.431-14.374-14.363C1079.743,136.134,1086.182,129.704,1094.117,129.704z"/>
	<path fill="#D36159" d="M1005.262,93.004c7.938,0,14.377,6.43,14.377,14.368c0,7.932-6.439,14.369-14.377,14.369
		c-7.925,0-14.361-6.437-14.361-14.369C990.901,99.435,997.337,93.004,1005.262,93.004z"/>
	<path fill="#E54949" d="M1033.348,172.028c0,0-4.051-0.542-5.563-1.071C1026.272,170.429,1030.957,172.595,1033.348,172.028z"/>
</g>
<g>
	<path fill="#8DCCD4" d="M141.643,93.3v116.524h45.12V93.3H141.643z M150.594,186.931h-6.427v-8.914h6.427V186.931z
		 M150.632,171.175h-6.427v-8.915h6.427V171.175z M150.67,155.419h-6.426v-8.914h6.426V155.419z M150.708,139.664h-6.43v-8.915h6.43
		V139.664z M150.745,123.908h-6.43v-8.915h6.43V123.908z M150.783,108.151h-6.429V99.24h6.429V108.151z M161.3,186.931h-6.426
		v-8.914h6.426V186.931z M161.318,171.175h-6.403v-8.915h6.403V171.175z M161.375,155.419h-6.426v-8.914h6.426V155.419z
		 M161.412,139.664h-6.428v-8.915h6.428V139.664z M161.45,123.908h-6.429v-8.915h6.429V123.908z M161.488,108.151h-6.427V99.24
		h6.427V108.151z M172.062,186.931h-6.407v-8.914h6.407V186.931z M172.099,171.175h-6.407v-8.915h6.407V171.175z M172.155,155.419
		h-6.427v-8.914h6.427V155.419z M172.193,139.664h-6.427v-8.915h6.427V139.664z M172.231,123.908h-6.426v-8.915h6.426V123.908z
		 M172.268,108.151h-6.426V99.24h6.426V108.151z M182.982,186.931h-6.426v-8.914h6.426V186.931z M183,171.175h-6.407v-8.915H183
		V171.175z M183.057,155.419h-6.426v-8.915h6.426V155.419z M183.094,139.664h-6.425v-8.915h6.425V139.664z M183.132,123.908h-6.426
		v-8.915h6.426V123.908z M183.17,108.151h-6.427V99.24h6.427V108.151z"/>
	
		<line fill="none" stroke="#8DCCD4" stroke-width="0.7101" stroke-miterlimit="10" x1="147.354" y1="99.136" x2="147.354" y2="190.736"/>
	
		<line fill="none" stroke="#8DCCD4" stroke-width="0.7101" stroke-miterlimit="10" x1="158.004" y1="99.61" x2="158.004" y2="191.21"/>
	
		<line fill="none" stroke="#8DCCD4" stroke-width="0.7101" stroke-miterlimit="10" x1="179.779" y1="95.586" x2="179.779" y2="187.186"/>
	
		<line fill="none" stroke="#8DCCD4" stroke-width="0.7101" stroke-miterlimit="10" x1="168.892" y1="99.136" x2="168.892" y2="190.736"/>
</g>
<line fill="none" stroke="#717070" stroke-width="0.5" stroke-miterlimit="10" x1="837.407" y1="267.129" x2="837.407" y2="842.506"/>
<rect x="735.329" y="227.309" fill="none" width="201.996" height="96.875"/>
<text transform="matrix(1 0 0 1 713.3557 250.3047)" fill="#717070" font-family="'Roboto'" letter-spacing="1px" font-size="30">Commerce de gros</text>
<path fill="#D36159" d="M825.755,156.681h-21.248c-0.074,0-0.15,0.015-0.229,0.036v11.075c0,0.43-0.338,0.783-0.768,0.783h-22.842
	c-0.443,0-0.787-0.354-0.787-0.783v-11.075c-0.072-0.021-0.146-0.036-0.229-0.036h-21.25c-0.424,0-0.771,0.35-0.771,0.779v51.473
	c0,0.422,0.352,0.775,0.771,0.775h67.351c0.432,0,0.776-0.353,0.776-0.775V157.46C826.532,157.03,826.187,156.681,825.755,156.681
	L825.755,156.681z M796.685,186.568c-0.439,0-0.779,0.35-0.779,0.787v14.767h-7.633v-14.767c0-0.437-0.342-0.787-0.779-0.787h-3.86
	l8.459-11.565l8.459,11.565H796.685z"/>
<path fill="#D36159" d="M907.335,156.681h-21.25c-0.082,0-0.148,0.015-0.222,0.036v11.075c0,0.43-0.35,0.783-0.774,0.783h-22.847
	c-0.438,0-0.778-0.354-0.778-0.783v-11.075c-0.07-0.021-0.146-0.036-0.229-0.036h-21.25c-0.43,0-0.778,0.35-0.778,0.779v51.473
	c0,0.422,0.352,0.775,0.778,0.775h67.35c0.438,0,0.779-0.353,0.779-0.775V157.46C908.115,157.03,907.773,156.681,907.335,156.681
	L907.335,156.681z M878.259,186.568c-0.438,0-0.779,0.35-0.779,0.787v14.767h-7.641v-14.767c0-0.437-0.339-0.787-0.775-0.787h-3.867
	l8.467-11.565l8.459,11.565H878.259z"/>
<path fill="#D36159" d="M868.58,92.585h-21.25c-0.077,0-0.153,0.012-0.227,0.04V103.7c0,0.422-0.338,0.779-0.766,0.779h-22.851
	c-0.43,0-0.776-0.357-0.776-0.779V92.625c-0.068-0.028-0.146-0.04-0.222-0.04h-21.258c-0.422,0-0.779,0.354-0.779,0.776v51.473
	c0,0.43,0.357,0.779,0.779,0.779h67.349c0.438,0,0.786-0.349,0.786-0.779V93.361C869.366,92.938,869.021,92.585,868.58,92.585
	L868.58,92.585z M839.511,122.47c-0.437,0-0.779,0.349-0.779,0.787v14.771h-7.633v-14.772c0-0.438-0.353-0.787-0.779-0.787h-3.865
	l8.462-11.566l8.459,11.566L839.511,122.47L839.511,122.47z"/>
<line fill="none" stroke="#D36159" stroke-width="0.663" stroke-miterlimit="10" x1="852.462" y1="156.936" x2="903.448" y2="156.936"/>
<line fill="none" stroke="#D36159" stroke-width="0.663" stroke-miterlimit="10" x1="769.866" y1="156.936" x2="820.855" y2="156.936"/>
<line fill="none" stroke="#D36159" stroke-width="0.663" stroke-miterlimit="10" x1="808.972" y1="92.96" x2="859.954" y2="92.96"/>
</svg>
