<?xml version="1.0" encoding="utf-8"?>
<!-- Generator: Adobe Illustrator 16.0.0, SVG Export Plug-In . SVG Version: 6.00 Build 0)  -->
<!DOCTYPE svg PUBLIC "-//W3C//DTD SVG 1.1//EN" "http://www.w3.org/Graphics/SVG/1.1/DTD/svg11.dtd">
<svg version="1.1" id="Calque_1" xmlns="http://www.w3.org/2000/svg" xmlns:xlink="http://www.w3.org/1999/xlink" x="0px" y="0px"
	 width="338px" height="533px" viewBox="310.5 13.5 338 533" enable-background="new 310.5 13.5 338 533" xml:space="preserve">
<g>
	<g>
		<path fill="#12100B" d="M396.181,265.9c0,3.747-3.033,6.776-6.776,6.776c-3.742,0-6.776-3.03-6.776-6.776
			c0-3.739,3.034-6.776,6.776-6.776C393.147,259.125,396.181,262.162,396.181,265.9z"/>
		<path fill="#12100B" d="M390.231,182.318c0,0,0.232,1.127,0.642,3.105c0.209,0.984,0.438,2.186,0.688,3.563
			s0.561,2.929,0.842,4.623c0.285,1.694,0.597,3.531,0.924,5.474c0.337,1.944,0.614,3.989,0.945,6.102
			c0.316,2.12,0.678,4.312,0.925,6.533c0.275,2.227,0.553,4.481,0.834,6.743c0.266,2.261,0.697,4.515,1.144,6.742
			c0.441,2.227,0.823,4.414,0.86,6.533c0.034,2.113-0.189,4.158-0.587,6.102c-0.358,1.944-0.837,3.78-1.392,5.474
			c-1.083,3.388-2.479,6.216-3.671,8.188c-0.606,0.991-1.124,1.768-1.521,2.294c-0.389,0.525-0.631,0.81-0.631,0.81
			c-0.396,0.459-1.086,0.513-1.542,0.114c-0.041-0.033-0.081-0.074-0.111-0.114c0,0-0.247-0.284-0.631-0.81
			c-0.402-0.527-0.918-1.303-1.525-2.294c-1.188-1.971-2.585-4.799-3.671-8.188c-0.553-1.694-1.033-3.529-1.391-5.474
			c-0.398-1.944-0.621-3.989-0.587-6.102c0.036-2.119,0.418-4.306,0.86-6.533c0.446-2.227,0.88-4.481,1.145-6.742
			c0.279-2.262,0.557-4.516,0.833-6.743c0.25-2.221,0.61-4.414,0.925-6.533c0.33-2.112,0.611-4.157,0.948-6.102
			c0.323-1.943,0.638-3.779,0.924-5.474c0.276-1.694,0.591-3.246,0.841-4.623s0.479-2.579,0.685-3.563
			c0.409-1.978,0.646-3.105,0.646-3.105c0.091-0.459,0.54-0.756,0.996-0.661C389.915,181.724,390.164,181.994,390.231,182.318z"/>
		<path fill="#12100B" d="M461.676,308.854c0,0-1.08-0.397-2.976-1.101c-0.946-0.345-2.09-0.782-3.39-1.303
			c-1.296-0.521-2.78-1.08-4.366-1.734c-1.589-0.655-3.308-1.362-5.133-2.112c-1.822-0.742-3.709-1.586-5.68-2.43
			c-1.964-0.852-4.013-1.701-6.03-2.673c-2.035-0.944-4.097-1.903-6.162-2.862c-2.056-0.972-4.204-1.795-6.324-2.591
			c-2.12-0.804-4.182-1.64-5.997-2.728c-1.816-1.094-3.433-2.375-4.87-3.731c-1.458-1.337-2.764-2.714-3.905-4.077
			c-2.302-2.72-3.958-5.393-5.004-7.451c-0.519-1.039-0.904-1.883-1.141-2.504c-0.247-0.608-0.355-0.972-0.355-0.972
			c-0.181-0.573,0.144-1.188,0.72-1.363c0.051-0.014,0.104-0.027,0.155-0.041c0,0,0.368-0.054,1.022-0.102
			c0.659-0.061,1.593-0.087,2.754-0.074c2.309,0.033,5.439,0.337,8.889,1.214c1.731,0.432,3.543,0.999,5.379,1.714
			c1.859,0.696,3.712,1.586,5.494,2.74c1.775,1.147,3.429,2.632,5.082,4.184c1.654,1.552,3.337,3.12,5.116,4.536
			c1.769,1.433,3.537,2.869,5.281,4.279c1.752,1.391,3.419,2.85,5.048,4.239c1.624,1.403,3.213,2.72,4.681,4.034
			c1.476,1.311,2.865,2.537,4.154,3.679c1.286,1.142,2.439,2.222,3.476,3.166s1.935,1.769,2.663,2.472
			c1.458,1.389,2.295,2.187,2.295,2.187c0.337,0.323,0.352,0.856,0.027,1.2C462.344,308.895,461.983,308.961,461.676,308.854z"/>
		<path fill="#12100B" d="M318.602,310.365c0,0,1.08-0.405,2.974-1.106c0.948-0.353,2.089-0.782,3.388-1.297
			c1.299-0.526,2.784-1.08,4.371-1.741c1.589-0.646,3.307-1.363,5.129-2.104c1.829-0.742,3.708-1.593,5.684-2.437
			c1.96-0.857,4.008-1.707,6.026-2.666c2.035-0.945,4.101-1.904,6.162-2.861c2.055-0.973,4.205-1.803,6.328-2.6
			c2.122-0.804,4.18-1.64,5.993-2.734c1.817-1.086,3.436-2.36,4.869-3.725c1.458-1.337,2.764-2.714,3.903-4.076
			c2.306-2.713,3.962-5.399,5.008-7.452c0.521-1.039,0.904-1.89,1.142-2.511c0.246-0.607,0.354-0.958,0.354-0.958
			c0.183-0.58-0.142-1.187-0.723-1.37c-0.046-0.013-0.104-0.027-0.154-0.034c0,0-0.369-0.061-1.021-0.108
			c-0.659-0.053-1.59-0.081-2.75-0.081c-2.31,0.041-5.444,0.351-8.894,1.228c-1.729,0.418-3.54,0.985-5.379,1.714
			c-1.855,0.689-3.712,1.58-5.491,2.727c-1.777,1.161-3.432,2.639-5.085,4.19c-1.649,1.552-3.337,3.12-5.115,4.542
			c-1.769,1.433-3.533,2.863-5.278,4.272c-1.754,1.384-3.422,2.855-5.048,4.246c-1.623,1.396-3.216,2.72-4.681,4.035
			c-1.476,1.304-2.865,2.537-4.154,3.672c-1.29,1.134-2.439,2.228-3.477,3.166c-1.039,0.938-1.934,1.769-2.663,2.463
			c-1.461,1.396-2.295,2.193-2.295,2.193c-0.337,0.323-0.351,0.856-0.029,1.194C317.934,310.406,318.292,310.473,318.602,310.365z"
			/>
		<polygon fill="#12100B" points="382.628,400 386.391,277 392.04,277 397.69,400 		"/>
	</g>
	<g>
		<path fill="#12100B" d="M574.658,268.061c0,3.739-3.037,6.776-6.783,6.776c-3.739,0-6.776-3.037-6.776-6.776
			c0-3.746,3.037-6.776,6.776-6.776C571.621,261.285,574.658,264.315,574.658,268.061z"/>
		<path fill="#12100B" d="M568.712,184.478c0,0,0.229,1.121,0.634,3.098c0.21,0.992,0.446,2.194,0.689,3.57
			c0.249,1.377,0.565,2.93,0.837,4.617c0.297,1.701,0.601,3.537,0.931,5.48c0.338,1.938,0.614,3.982,0.945,6.102
			c0.311,2.119,0.676,4.306,0.925,6.533c0.276,2.22,0.561,4.481,0.83,6.735c0.263,2.261,0.702,4.521,1.147,6.75
			c0.444,2.22,0.822,4.407,0.862,6.526c0.034,2.12-0.194,4.165-0.594,6.108c-0.357,1.944-0.836,3.779-1.39,5.467
			c-1.081,3.388-2.484,6.215-3.672,8.193c-0.608,0.985-1.12,1.762-1.525,2.295c-0.378,0.526-0.621,0.81-0.621,0.81
			c-0.398,0.458-1.094,0.506-1.552,0.107c-0.041-0.027-0.082-0.067-0.108-0.107c0,0-0.243-0.284-0.635-0.81
			c-0.391-0.533-0.91-1.31-1.52-2.295c-1.193-1.978-2.585-4.805-3.672-8.193c-0.553-1.688-1.031-3.523-1.39-5.467
			c-0.398-1.943-0.621-3.988-0.588-6.108c0.041-2.119,0.419-4.306,0.864-6.526c0.444-2.228,0.877-4.489,1.141-6.75
			c0.276-2.254,0.561-4.515,0.83-6.735c0.257-2.227,0.607-4.415,0.931-6.533c0.325-2.119,0.608-4.164,0.946-6.102
			c0.323-1.944,0.634-3.779,0.918-5.48c0.283-1.687,0.594-3.24,0.85-4.617c0.243-1.376,0.474-2.578,0.684-3.57
			c0.402-1.977,0.641-3.098,0.641-3.098c0.095-0.459,0.539-0.756,0.999-0.662C568.388,183.884,568.645,184.154,568.712,184.478z"/>
		<path fill="#12100B" d="M640.152,311.014c0,0-1.086-0.406-2.977-1.102c-0.945-0.352-2.087-0.789-3.389-1.303
			c-1.296-0.525-2.781-1.08-4.367-1.741c-1.592-0.647-3.312-1.362-5.129-2.104c-1.829-0.742-3.712-1.594-5.689-2.431
			c-1.958-0.863-4.009-1.708-6.026-2.673c-2.032-0.945-4.098-1.903-6.163-2.861c-2.051-0.972-4.197-1.802-6.323-2.599
			c-2.118-0.804-4.178-1.64-5.993-2.733c-1.814-1.078-3.436-2.361-4.866-3.725c-1.456-1.331-2.768-2.715-3.915-4.077
			c-2.295-2.713-3.953-5.393-5-7.452c-0.52-1.039-0.903-1.89-1.142-2.503c-0.243-0.608-0.351-0.965-0.351-0.965
			c-0.183-0.581,0.142-1.188,0.715-1.371c0.055-0.013,0.107-0.027,0.162-0.034c0,0,0.363-0.053,1.02-0.107
			c0.654-0.054,1.594-0.081,2.747-0.074c2.309,0.033,5.447,0.344,8.896,1.221c1.728,0.418,3.536,0.992,5.373,1.714
			c1.861,0.688,3.717,1.58,5.492,2.733c1.781,1.154,3.442,2.639,5.09,4.185c1.646,1.559,3.335,3.124,5.115,4.543
			c1.769,1.432,3.536,2.86,5.278,4.271c1.754,1.391,3.415,2.854,5.047,4.245c1.621,1.396,3.214,2.715,4.686,4.035
			c1.472,1.305,2.86,2.539,4.15,3.672c1.288,1.142,2.443,2.229,3.477,3.166c1.039,0.938,1.931,1.775,2.666,2.471
			c1.458,1.391,2.288,2.193,2.288,2.193c0.338,0.316,0.357,0.851,0.026,1.188C640.82,311.055,640.456,311.121,640.152,311.014z"/>
		<path fill="#12100B" d="M497.075,312.511c0,0,1.08-0.392,2.977-1.093c0.944-0.352,2.085-0.79,3.381-1.311
			c1.305-0.52,2.788-1.065,4.374-1.728c1.594-0.653,3.309-1.362,5.131-2.118c1.827-0.736,3.712-1.587,5.683-2.425
			c1.965-0.856,4.01-1.707,6.034-2.68c2.03-0.937,4.089-1.896,6.153-2.854c2.06-0.979,4.205-1.803,6.331-2.6
			c2.119-0.796,4.18-1.633,5.994-2.727s3.428-2.362,4.872-3.726c1.458-1.338,2.755-2.714,3.901-4.077
			c2.309-2.72,3.955-5.399,5.008-7.452c0.513-1.039,0.904-1.89,1.141-2.51c0.243-0.607,0.357-0.965,0.357-0.965
			c0.176-0.574-0.147-1.188-0.729-1.37c-0.047-0.014-0.101-0.027-0.147-0.027c0,0-0.371-0.067-1.026-0.107
			c-0.661-0.068-1.592-0.087-2.753-0.081c-2.309,0.04-5.439,0.344-8.889,1.221c-1.729,0.425-3.543,0.992-5.38,1.714
			c-1.862,0.695-3.712,1.586-5.494,2.734c-1.774,1.153-3.429,2.632-5.082,4.185c-1.653,1.551-3.341,3.117-5.122,4.541
			c-1.762,1.438-3.53,2.868-5.271,4.272c-1.761,1.392-3.422,2.854-5.055,4.245c-1.62,1.396-3.206,2.721-4.671,4.029
			c-1.478,1.31-2.875,2.537-4.157,3.685c-1.289,1.135-2.442,2.221-3.482,3.159c-1.025,0.945-1.931,1.769-2.659,2.47
			c-1.457,1.397-2.294,2.188-2.294,2.188c-0.338,0.324-0.353,0.862-0.027,1.201C496.414,312.559,496.766,312.633,497.075,312.511z"
			/>
		<polygon fill="#12100B" points="561.099,407 564.865,284 570.514,284 576.163,407 		"/>
	</g>
	<g>
		<path fill="#FFFFFF" d="M492.364,159.763c0,6.31-5.129,11.433-11.443,11.433c-6.316,0-11.437-5.123-11.437-11.433
			c0-6.318,5.119-11.447,11.437-11.447C487.235,148.315,492.364,153.445,492.364,159.763z"/>
		<path fill="#FFFFFF" d="M482.321,18.689c0,0,0.392,1.903,1.08,5.244c0.352,1.667,0.741,3.692,1.161,6.014
			c0.418,2.321,0.943,4.947,1.416,7.802c0.486,2.862,1.014,5.96,1.56,9.233c0.575,3.28,1.04,6.736,1.601,10.313
			c0.532,3.577,1.142,7.262,1.56,11.015c0.466,3.752,0.938,7.573,1.41,11.379c0.445,3.813,1.175,7.627,1.931,11.379
			c0.742,3.752,1.391,7.451,1.451,11.021c0.06,3.57-0.324,7.033-0.992,10.307c-0.607,3.279-1.41,6.371-2.349,9.233
			c-1.829,5.724-4.186,10.488-6.195,13.822c-1.026,1.674-1.892,2.984-2.565,3.875c-0.661,0.891-1.065,1.363-1.065,1.363
			c-0.668,0.776-1.835,0.864-2.605,0.196c-0.067-0.061-0.135-0.129-0.188-0.196c0,0-0.415-0.473-1.066-1.363
			c-0.672-0.891-1.542-2.2-2.572-3.875c-2.007-3.334-4.358-8.098-6.191-13.822c-0.936-2.862-1.745-5.954-2.35-9.233
			c-0.668-3.274-1.05-6.736-0.991-10.307c0.062-3.57,0.704-7.269,1.45-11.021c0.75-3.752,1.488-7.566,1.935-11.379
			c0.472-3.807,0.94-7.627,1.408-11.379c0.417-3.752,1.028-7.438,1.558-11.015c0.557-3.577,1.023-7.033,1.597-10.313
			c0.554-3.273,1.076-6.371,1.562-9.233c0.469-2.855,0.999-5.48,1.421-7.802c0.419-2.322,0.806-4.347,1.154-6.014
			c0.69-3.341,1.086-5.244,1.086-5.244c0.154-0.77,0.915-1.269,1.684-1.107C481.788,17.704,482.214,18.15,482.321,18.689z"/>
		<path fill="#FFFFFF" d="M602.896,232.25c0,0-1.829-0.675-5.027-1.856c-1.594-0.588-3.524-1.331-5.711-2.201
			c-2.192-0.877-4.697-1.815-7.377-2.93c-2.68-1.1-5.581-2.301-8.659-3.569c-3.077-1.243-6.257-2.673-9.583-4.091
			c-3.32-1.444-6.776-2.889-10.178-4.508c-3.431-1.592-6.912-3.213-10.401-4.832c-3.469-1.646-7.094-3.037-10.677-4.387
			c-3.578-1.35-7.053-2.768-10.117-4.604c-3.063-1.835-5.791-3.995-8.221-6.29c-2.457-2.254-4.656-4.576-6.587-6.885
			c-3.89-4.576-6.684-9.098-8.451-12.567c-0.877-1.755-1.525-3.187-1.917-4.232c-0.417-1.033-0.606-1.626-0.606-1.626
			c-0.304-0.979,0.242-2.012,1.215-2.315c0.088-0.021,0.183-0.047,0.271-0.061c0,0,0.622-0.094,1.722-0.175
			c1.113-0.094,2.692-0.148,4.644-0.135c3.896,0.068,9.187,0.587,15.012,2.065c2.915,0.715,5.973,1.674,9.076,2.896
			c3.133,1.167,6.265,2.673,9.261,4.609c3.004,1.944,5.798,4.448,8.585,7.066c2.794,2.625,5.629,5.271,8.639,7.66
			c2.983,2.416,5.967,4.84,8.909,7.215c2.956,2.341,5.764,4.812,8.519,7.161c2.739,2.362,5.427,4.59,7.896,6.81
			c2.491,2.207,4.839,4.286,7.013,6.209c2.174,1.91,4.117,3.752,5.872,5.339c1.747,1.58,3.259,2.983,4.488,4.164
			c2.47,2.355,3.874,3.691,3.874,3.691c0.573,0.547,0.594,1.451,0.041,2.025C604.018,232.316,603.416,232.438,602.896,232.25z"/>
		<path fill="#FFFFFF" d="M361.426,234.787c0,0,1.829-0.674,5.025-1.849c1.6-0.594,3.52-1.336,5.717-2.2
			c2.189-0.878,4.694-1.823,7.374-2.93c2.682-1.107,5.584-2.302,8.656-3.563c3.084-1.255,6.263-2.687,9.59-4.104
			c3.312-1.444,6.77-2.875,10.178-4.508c3.429-1.593,6.912-3.213,10.397-4.833c3.469-1.64,7.094-3.037,10.677-4.38
			c3.578-1.356,7.054-2.76,10.118-4.609c3.063-1.836,5.794-3.989,8.218-6.291c2.463-2.248,4.664-4.569,6.593-6.877
			c3.881-4.583,6.683-9.105,8.447-12.574c0.874-1.755,1.521-3.186,1.924-4.225c0.414-1.033,0.601-1.634,0.601-1.634
			c0.301-0.971-0.242-2.004-1.219-2.309c-0.084-0.026-0.179-0.053-0.263-0.06c0,0-0.621-0.101-1.725-0.182
			c-1.114-0.095-2.687-0.143-4.644-0.129c-3.895,0.061-9.187,0.588-15.007,2.059c-2.923,0.722-5.977,1.674-9.078,2.902
			c-3.132,1.161-6.264,2.673-9.267,4.61c-3,1.944-5.794,4.448-8.582,7.066c-2.787,2.619-5.632,5.265-8.632,7.661
			c-2.986,2.416-5.97,4.839-8.913,7.215c-2.959,2.341-5.771,4.818-8.521,7.154c-2.735,2.362-5.419,4.589-7.896,6.817
			c-2.491,2.2-4.842,4.279-7.014,6.208c-2.173,1.917-4.119,3.747-5.868,5.332c-1.747,1.593-3.26,2.99-4.495,4.171
			c-2.46,2.349-3.87,3.692-3.87,3.692c-0.57,0.547-0.594,1.451-0.048,2.018C360.302,234.861,360.91,234.976,361.426,234.787z"/>
		<polygon fill="#FFFFFF" points="469.484,386 475.838,187 485.372,187 494.902,386 		"/>
	</g>
	<path fill="#F46F61" d="M454.234,261.271c0-3.82-5.119-6.912-11.437-6.912s-11.439,2.815-11.439,6.628"/>
	<polyline fill="#F46F61" points="433,263 433,291 454,291 454,263 	"/>
	<path fill="#F46F61" d="M492.364,261.271c0-3.82-5.129-6.912-11.443-6.912c-6.316,0-11.437,2.815-11.437,6.628"/>
	<polyline fill="#F46F61" points="468,263 468,291 488,291 488,263 	"/>
	<path fill="#F46F61" d="M530.484,261.271c0-3.82-5.116-6.912-11.435-6.912c-6.317,0-11.438,2.815-11.438,6.628"/>
	<polyline fill="#F46F61" points="509,263 509,291 530,291 530,263 	"/>
	<path fill="#F46F61" d="M544.05,291.258l-110.995,0.25c-40.667-2.545-28.319,14.402-28.319,56.762l7.265-3.139V312h7v29.602
		l7-3.531v-27.125l0,0v25.945l31.275-13.824c29.658-13.983,23.659-9.528,45.683-1.092C512.697,325.7,523,331.241,537,336.282
		v-25.337l0,0v26.531c7,0.838,7,1.653,7,2.438V312h7v31.626c7,2.793,9.227,4.644,9.227,4.644l0.812-28.51
		C565.694,291.258,544.05,291.258,544.05,291.258z"/>
	<path fill="#F46F61" d="M573.896,458.901l23.095-62.362c10.65-24.566-8.827-25.032-8.827-25.032l-38.97-17.414
		c-19.521-8.47-56.619-25.524-56.619-25.524c-2.641-0.838-4.976-1.424-7.094-1.844c-1.479-0.513-3.604-0.931-6.615-0.83
		c-3.854-0.127-6.337,0.521-7.863,1.183c-1.609,0.385-3.327,0.862-5.224,1.491c0,0-35.427,17.056-54.065,25.524l-37.198,17.414
		c0,0-18.602,0.466-8.434,25.032l22.046,62.362c0,0,1.819,6.21,7.021,10.583c6.645-4.935,13.479-9.045,18.907-9.41
		c7.802-0.521,15.783,9.926,23.623,16.926h12.425c8.457-7,17.572-14.916,25.54-15.254C483.227,461.422,490.568,470,498,477h17.454
		c7.741-7,15.658-16.426,23.148-16.926c7.04-0.465,16.395,6.71,24.938,12.224C571.33,468.188,573.896,458.901,573.896,458.901z"/>
	<g>
		<polygon fill="#91CCD5" points="479.607,498.232 481.242,333.865 481.607,498.24 		"/>
	</g>
	<path fill="#CF6155" d="M509.265,509.872c-0.444,0-0.903-0.021-1.362-0.055c-7.208-0.642-13.229-6.257-19.054-11.689
		c-4.509-4.196-9.803-8.996-13.113-8.82c-3.68,0.154-9.224,4.436-14.119,8.215c-7.168,5.532-14.575,11.229-22.58,10.487
		c-6.702-0.647-12.473-5.744-18.055-10.679c-4.374-3.858-9.196-8.084-12.503-8.03c-3.469,0.229-9.682,5.89-14.673,9.668
		C386.354,504.613,379.318,511,372.194,511c-0.068,0-0.14,0-0.206,0c-12.774,0-30.355-18.84-33.768-22.443
		c-2.085-2.2-1.987-6.151,0.213-8.237c2.207-2.078,5.676-2.781,7.759-0.581c6.928,7.304,19.865,17.263,25.761,17.263
		c0.023,0,0.047,0,0.071,0c3.528,0,9.975-4.377,15.15-8.297c7.107-5.373,13.823-10.183,20.569-10.629
		c7.7-0.572,14.227,5.351,20.507,10.891c4.066,3.6,8.679,7.742,11.831,8.044c3.658,0.365,9.597-4.182,14.822-8.21
		c6.492-5.009,13.205-10.17,20.365-10.475c8.17-0.418,14.677,5.821,21.062,11.769c4.26,3.969,9.092,8.48,12.54,8.776
		c3.726,0.339,9.617-4.603,14.754-8.977c6.398-5.434,13.012-11.054,20.409-11.54c7.958-0.602,16.374,5.34,24.554,11.029
		c5.685,3.954,12.122,8.437,16.023,8.745c6.129,0.507,19.208-10.461,26.119-18.006c2.051-2.241,5.526-2.391,7.762-0.345
		c2.232,2.046,2.39,5.514,0.344,7.754c-3.468,3.794-21.495,22.671-35.102,21.544c-6.858-0.561-13.932-5.479-21.416-10.684
		c-6-4.171-13.438-9.239-17.556-9.092c-3.779,0.256-9.22,4.88-14.023,8.963C524.019,503.974,517.08,509.872,509.265,509.872z"/>
	<path fill="#CF6155" d="M510.898,539.002c-0.475,0-0.938-0.021-1.411-0.061c-7.513-0.668-13.836-6.566-19.957-12.264
		c-4.819-4.487-10.468-9.585-14.086-9.408c-3.982,0.161-9.885,4.725-15.089,8.738c-7.535,5.812-15.338,11.792-23.648,11.022
		c-6.982-0.675-13.043-6.021-18.901-11.203c-4.674-4.117-9.871-8.707-13.447-8.571c-3.757,0.256-10.083,5.458-15.668,9.684
		C380.86,532.879,373.459,539,366.032,539c-0.07,0-0.143,0-0.215,0c-13.371,0-31.867-19.242-35.454-23.027
		c-2.083-2.207-1.988-5.882,0.212-7.967c2.204-2.085,5.68-3.189,7.762-0.995C345.906,515,359.391,525,365.783,525
		c0.029,0,0.054,0,0.081,0c3.834,0,10.69-4.15,16.202-8.318c7.468-5.666,14.529-10.455,21.562-10.928
		c8.018-0.58,14.854,5.758,21.443,11.574c4.335,3.827,9.249,8.308,12.684,8.639c3.993,0.425,10.324-4.425,15.893-8.716
		c6.819-5.265,13.866-10.667,21.33-10.986c8.438-0.431,15.334,6.118,22.043,12.367c4.535,4.227,9.68,9.031,13.432,9.368
		c4.306,0.324,10.354-4.913,15.827-9.57c6.716-5.709,13.668-11.607,21.382-12.12c8.24-0.607,17.148,5.622,25.749,11.596
		c6.033,4.212,12.89,8.969,17.095,9.312c6.621,0.521,20.511-11.107,27.861-19.141c2.044-2.241,5.514-2.396,7.755-0.345
		c2.24,2.046,2.39,5.521,0.344,7.755c-3.645,3.988-22.528,23.927-36.844,22.664c-7.168-0.58-14.605-5.749-22.481-11.23
		c-6.716-4.671-14.262-9.963-18.75-9.664c-4.097,0.283-9.888,5.203-14.996,9.542C526.333,532.806,519.045,539.002,510.898,539.002z"
		/>
	<path fill="#CF6155" d="M504.365,480.312c-0.398,0-0.797-0.015-1.202-0.049c-6.317-0.532-11.514-5.103-16.549-9.522
		c-3.712-3.26-7.891-6.83-10.616-6.857c-2.92,0.122-7.52,3.47-11.576,6.426c-6.175,4.494-12.546,9.118-19.562,8.513
		c-5.872-0.534-10.851-4.686-15.662-8.701c-3.422-2.848-7.698-6.385-10.111-6.236c-2.757,0.176-7.917,5.517-12.063,8.479
		C400.906,476.735,394.575,483,388.349,483c-0.061,0-0.117,0-0.183,0c-11.065,0-26.149-16.133-29.076-19.049
		c-2.146-2.146-2.149-6.446-0.014-8.592c2.137-2.152,5.616-1.923,7.765,0.217C373.72,462.42,383.789,470,388.139,470
		c0.018,0,0.037,0,0.055,0c2.797,0,8.149-4.51,12.448-7.581c6.103-4.359,11.865-8.804,17.755-9.169
		c6.752-0.445,12.658,4.291,17.827,8.604c3.362,2.802,7.164,5.886,9.628,6.106c2.875,0.345,7.998-3.492,12.104-6.489
		c5.585-4.062,11.355-8.289,17.604-8.533c7.07-0.33,13.051,4.946,18.308,9.569c3.517,3.091,7.499,6.602,10.205,6.817
		c2.97,0.188,7.769-3.605,12.014-7.007c5.501-4.414,11.197-8.983,17.663-9.396c6.837-0.451,14.16,4.319,21.173,8.923
		c4.737,3.111,10.109,6.635,13.248,6.87c5.008,0.419,15.794-8.206,21.557-14.132c2.113-2.188,5.591-2.229,7.763-0.122
		c2.174,2.112,2.228,5.588,0.115,7.762c-2.978,3.078-18.346,18.372-30.271,17.439c-5.96-0.452-12.013-4.427-18.438-8.64
		c-4.995-3.271-11.238-7.443-14.457-7.141c-2.997,0.189-7.506,3.8-11.48,6.992C517.168,475.519,511.194,480.312,504.365,480.312z"/>
</g>
</svg>
