<?xml version="1.0" encoding="utf-8"?>
<!-- Generator: Adobe Illustrator 16.0.0, SVG Export Plug-In . SVG Version: 6.00 Build 0)  -->
<!DOCTYPE svg PUBLIC "-//W3C//DTD SVG 1.1//EN" "http://www.w3.org/Graphics/SVG/1.1/DTD/svg11.dtd">
<svg version="1.1" id="Calque_1" xmlns="http://www.w3.org/2000/svg" xmlns:xlink="http://www.w3.org/1999/xlink" x="0px" y="0px"
	 width="608.955px" height="243.939px" viewBox="0 0 608.955 243.939" enable-background="new 0 0 608.955 243.939"
	 xml:space="preserve">
	<defs>
  <style type="text/css">
    @font-face {
	    font-family: 'Roboto';
	    src: url('../../fonts/roboto/Roboto-Thin.eot');
	    src: url('../../fonts/roboto/Roboto-Thin.eot?#iefix') format('embedded-opentype'),
	         url('../../fonts/roboto/Roboto-Thin.woff') format('woff'),
	         url('../../fonts/roboto/Roboto-Thin.ttf') format('truetype'),
	         url('../../fonts/roboto/Roboto-Thin.svg#Roboto') format('svg');
	}
  </style>
</defs>
<polygon fill="#6BBBAE" points="63.121,73.061 63.121,225.389 7.121,225.214 7.121,73.061 "/>
<ellipse fill="#50B29F" cx="34.914" cy="73.335" rx="28.125" ry="12.44"/>
<ellipse fill="#6BBBAE" cx="34.914" cy="225.287" rx="28.125" ry="12.44"/>
<ellipse fill="#F28B32" cx="34.914" cy="60.287" rx="28.125" ry="12.44"/>
<polygon fill="#F28B32" points="63.121,22.061 63.121,60.32 7.121,60.275 7.121,22.061 "/>
<ellipse fill="#DC6E2D" cx="34.914" cy="22.335" rx="28.125" ry="12.44"/>
<line opacity="0.7" fill="none" stroke="#000000" stroke-width="0.5" stroke-miterlimit="10" enable-background="new    " x1="80.47" y1="91.531" x2="159.9" y2="91.531"/>
<text transform="matrix(1 0 0 1 177.8999 91.5295)" opacity="0.7" enable-background="new    " font-family="'Roboto'" letter-spacing="1px" font-size="21">Nombre de brevets déposés : 7</text>
<line opacity="0.7" fill="none" stroke="#000000" stroke-width="0.5" stroke-miterlimit="10" enable-background="new    " x1="80.47" y1="41.045" x2="159.899" y2="41.045"/>
<text transform="matrix(1 0 0 1 177.8999 41.0442)" opacity="0.7" enable-background="new    "><tspan x="0" y="0" font-family="'Roboto'" letter-spacing="1px" font-size="21">Autres titres de propriété intellectuelle déposés</tspan><tspan x="0" y="25.2" font-family="'Roboto'" letter-spacing="1px" font-size="21">(ex : modèles, marques, dessins) : 1</tspan></text>
</svg>
