<?xml version="1.0" encoding="utf-8"?>
<!-- Generator: Adobe Illustrator 16.0.0, SVG Export Plug-In . SVG Version: 6.00 Build 0)  -->
<!DOCTYPE svg PUBLIC "-//W3C//DTD SVG 1.1//EN" "http://www.w3.org/Graphics/SVG/1.1/DTD/svg11.dtd">
<svg version="1.1" id="Calque_1" xmlns="http://www.w3.org/2000/svg" xmlns:xlink="http://www.w3.org/1999/xlink" x="0px" y="0px"
	 width="130.965px" height="206.853px" viewBox="0 0 130.965 206.853" enable-background="new 0 0 130.965 206.853"
	 xml:space="preserve">
<g id="Mer_Bretagne">
	<g>
		<circle fill="#151410" cx="30.058" cy="99.192" r="2.666"/>
		<path fill="#151410" d="M30.383,66.307c0,0,0.092,0.444,0.252,1.222c0.082,0.389,0.172,0.861,0.271,1.402
			c0.099,0.542,0.221,1.153,0.331,1.819c0.112,0.667,0.234,1.389,0.363,2.153c0.134,0.764,0.243,1.569,0.373,2.402
			c0.124,0.834,0.266,1.695,0.364,2.569c0.107,0.875,0.218,1.764,0.327,2.652c0.104,0.889,0.275,1.778,0.45,2.652
			c0.174,0.875,0.324,1.736,0.338,2.569c0.015,0.833-0.074,1.639-0.23,2.403c-0.141,0.763-0.329,1.486-0.547,2.152
			c-0.426,1.333-0.976,2.444-1.444,3.222c-0.239,0.389-0.442,0.694-0.599,0.902c-0.152,0.208-0.248,0.32-0.248,0.32
			c-0.155,0.18-0.428,0.2-0.607,0.044c-0.016-0.013-0.032-0.029-0.044-0.044c0,0-0.096-0.112-0.249-0.32
			c-0.157-0.208-0.359-0.513-0.599-0.902c-0.468-0.777-1.018-1.889-1.444-3.222c-0.218-0.667-0.406-1.389-0.547-2.152
			c-0.156-0.764-0.245-1.569-0.23-2.403c0.014-0.833,0.164-1.694,0.338-2.569c0.175-0.875,0.347-1.764,0.45-2.652
			c0.11-0.888,0.221-1.777,0.328-2.652c0.099-0.875,0.24-1.735,0.364-2.569c0.13-0.833,0.239-1.639,0.372-2.402
			c0.129-0.764,0.25-1.486,0.363-2.153c0.109-0.666,0.233-1.277,0.331-1.819c0.098-0.541,0.188-1.014,0.27-1.402
			c0.161-0.778,0.253-1.222,0.253-1.222c0.037-0.18,0.213-0.296,0.394-0.258C30.259,66.076,30.356,66.182,30.383,66.307z"/>
		<path fill="#151410" d="M58.491,116.091c0,0-0.426-0.157-1.171-0.433c-0.373-0.138-0.821-0.31-1.333-0.514
			c-0.511-0.204-1.095-0.423-1.719-0.682c-0.625-0.258-1.302-0.536-2.018-0.831c-0.72-0.291-1.459-0.625-2.236-0.956
			c-0.772-0.336-1.578-0.671-2.372-1.051c-0.8-0.371-1.612-0.749-2.424-1.125c-0.81-0.383-1.654-0.708-2.489-1.022
			c-0.834-0.315-1.645-0.645-2.359-1.073c-0.714-0.43-1.35-0.932-1.916-1.467c-0.572-0.524-1.087-1.066-1.535-1.604
			c-0.906-1.068-1.559-2.122-1.971-2.931c-0.204-0.409-0.354-0.743-0.447-0.986c-0.098-0.239-0.141-0.379-0.141-0.379
			c-0.07-0.227,0.056-0.468,0.284-0.539c0.02-0.006,0.042-0.011,0.062-0.014c0,0,0.146-0.021,0.402-0.042
			c0.26-0.023,0.627-0.034,1.083-0.03c0.908,0.015,2.141,0.136,3.498,0.48c0.681,0.167,1.394,0.39,2.116,0.675
			c0.73,0.272,1.461,0.623,2.161,1.075c0.7,0.454,1.351,1.037,2.001,1.646c0.649,0.612,1.312,1.229,2.012,1.787
			c0.696,0.563,1.391,1.127,2.077,1.682c0.689,0.546,1.346,1.122,1.987,1.668c0.639,0.551,1.264,1.07,1.842,1.588
			c0.58,0.513,1.127,0.999,1.634,1.447c0.507,0.447,0.96,0.875,1.368,1.244c0.407,0.371,0.76,0.696,1.047,0.972
			c0.575,0.548,0.903,0.862,0.903,0.862c0.133,0.125,0.139,0.336,0.011,0.47C58.753,116.107,58.611,116.136,58.491,116.091z"/>
		<path fill="#151410" d="M2.2,116.684c0,0,0.426-0.157,1.17-0.434c0.373-0.137,0.821-0.31,1.333-0.512
			c0.512-0.205,1.096-0.424,1.72-0.683c0.625-0.257,1.302-0.536,2.018-0.831c0.719-0.292,1.459-0.625,2.236-0.956
			c0.771-0.336,1.578-0.671,2.372-1.051c0.8-0.371,1.611-0.748,2.424-1.125c0.809-0.383,1.653-0.708,2.489-1.021
			c0.834-0.316,1.645-0.645,2.358-1.073c0.714-0.429,1.351-0.932,1.916-1.468c0.573-0.524,1.087-1.066,1.536-1.604
			c0.906-1.067,1.559-2.122,1.97-2.931c0.204-0.409,0.355-0.742,0.449-0.986c0.096-0.239,0.14-0.38,0.14-0.38
			c0.07-0.227-0.057-0.468-0.284-0.539c-0.021-0.006-0.042-0.011-0.062-0.013c0,0-0.145-0.024-0.401-0.042
			c-0.26-0.023-0.627-0.034-1.084-0.031c-0.907,0.014-2.141,0.137-3.497,0.479c-0.682,0.167-1.395,0.39-2.116,0.675
			c-0.731,0.272-1.461,0.623-2.161,1.075c-0.699,0.454-1.351,1.037-2.001,1.647c-0.65,0.612-1.312,1.228-2.012,1.787
			c-0.696,0.563-1.392,1.127-2.077,1.682c-0.69,0.546-1.347,1.122-1.987,1.669c-0.638,0.551-1.264,1.07-1.841,1.587
			c-0.58,0.515-1.128,0.999-1.634,1.448c-0.508,0.447-0.96,0.874-1.368,1.244c-0.408,0.369-0.76,0.697-1.047,0.972
			c-0.575,0.548-0.902,0.861-0.902,0.861c-0.133,0.126-0.139,0.337-0.011,0.47C1.938,116.701,2.079,116.728,2.2,116.684z"/>
		<polygon fill="#151410" points="27.392,151.932 28.872,104.932 31.095,104.932 33.315,151.932 		"/>
	</g>
	<g>
		<circle fill="#151410" cx="100.274" cy="100.041" r="2.667"/>
		<path fill="#151410" d="M100.601,67.156c0,0,0.092,0.444,0.253,1.222c0.081,0.389,0.172,0.861,0.27,1.402
			c0.1,0.542,0.223,1.153,0.331,1.819c0.113,0.667,0.234,1.389,0.363,2.153c0.134,0.764,0.242,1.569,0.372,2.403
			c0.124,0.833,0.267,1.694,0.364,2.569c0.107,0.875,0.219,1.764,0.328,2.652c0.104,0.889,0.274,1.778,0.45,2.652
			c0.174,0.875,0.323,1.736,0.339,2.57c0.014,0.833-0.076,1.639-0.232,2.402c-0.141,0.764-0.328,1.486-0.547,2.153
			c-0.426,1.333-0.977,2.444-1.443,3.222c-0.24,0.389-0.441,0.694-0.6,0.902c-0.152,0.208-0.248,0.32-0.248,0.32
			c-0.155,0.18-0.428,0.2-0.607,0.044c-0.016-0.013-0.03-0.029-0.044-0.044c0,0-0.097-0.112-0.248-0.32
			c-0.156-0.208-0.359-0.513-0.599-0.902c-0.469-0.777-1.018-1.889-1.445-3.222c-0.218-0.667-0.405-1.389-0.547-2.153
			c-0.156-0.763-0.244-1.569-0.229-2.402c0.014-0.833,0.164-1.694,0.338-2.57c0.176-0.875,0.347-1.764,0.45-2.652
			c0.109-0.888,0.22-1.777,0.326-2.652c0.1-0.875,0.24-1.736,0.365-2.569c0.13-0.833,0.238-1.639,0.372-2.403
			c0.129-0.764,0.25-1.486,0.362-2.153c0.111-0.666,0.233-1.277,0.332-1.819c0.098-0.542,0.188-1.014,0.27-1.402
			c0.16-0.778,0.253-1.222,0.253-1.222c0.037-0.18,0.214-0.296,0.395-0.258C100.477,66.924,100.575,67.03,100.601,67.156z"/>
		<path fill="#151410" d="M128.71,116.938c0,0-0.428-0.157-1.173-0.432c-0.373-0.138-0.819-0.31-1.332-0.515
			c-0.512-0.203-1.096-0.422-1.719-0.682c-0.626-0.257-1.303-0.536-2.019-0.831c-0.721-0.291-1.46-0.625-2.236-0.956
			c-0.771-0.336-1.577-0.671-2.372-1.051c-0.799-0.371-1.611-0.748-2.424-1.125c-0.81-0.383-1.654-0.708-2.489-1.022
			c-0.834-0.315-1.644-0.645-2.357-1.073c-0.716-0.429-1.352-0.932-1.916-1.468c-0.574-0.524-1.086-1.066-1.537-1.604
			c-0.904-1.067-1.558-2.122-1.969-2.931c-0.203-0.409-0.355-0.743-0.449-0.986c-0.097-0.239-0.141-0.379-0.141-0.379
			c-0.068-0.227,0.059-0.468,0.284-0.539c0.021-0.006,0.042-0.011,0.062-0.014c0,0,0.145-0.022,0.401-0.042
			c0.26-0.023,0.626-0.034,1.083-0.031c0.907,0.015,2.142,0.137,3.498,0.481c0.682,0.167,1.394,0.39,2.115,0.675
			c0.729,0.272,1.461,0.623,2.161,1.075c0.699,0.454,1.351,1.037,2,1.647c0.648,0.612,1.312,1.228,2.013,1.786
			c0.695,0.562,1.393,1.127,2.077,1.682c0.69,0.546,1.345,1.122,1.987,1.668c0.638,0.551,1.264,1.07,1.841,1.588
			c0.579,0.513,1.128,0.999,1.634,1.447c0.508,0.447,0.961,0.875,1.369,1.244c0.406,0.37,0.76,0.696,1.047,0.972
			c0.574,0.549,0.902,0.861,0.902,0.861c0.133,0.127,0.139,0.337,0.011,0.471C128.971,116.955,128.83,116.983,128.71,116.938z"/>
		<path fill="#151410" d="M72.417,117.531c0,0,0.427-0.156,1.172-0.433c0.373-0.137,0.821-0.31,1.332-0.513
			c0.512-0.205,1.096-0.424,1.721-0.682s1.301-0.537,2.018-0.832c0.72-0.291,1.459-0.625,2.236-0.957
			c0.771-0.336,1.577-0.67,2.371-1.051c0.8-0.371,1.612-0.748,2.424-1.125c0.811-0.383,1.654-0.708,2.49-1.022
			c0.834-0.315,1.644-0.645,2.356-1.073c0.716-0.43,1.353-0.931,1.916-1.468c0.574-0.524,1.087-1.066,1.537-1.604
			c0.905-1.067,1.558-2.122,1.97-2.931c0.203-0.408,0.354-0.742,0.448-0.986c0.097-0.239,0.141-0.379,0.141-0.379
			c0.069-0.227-0.058-0.468-0.284-0.539c-0.021-0.006-0.041-0.011-0.062-0.014c0,0-0.146-0.023-0.401-0.042
			c-0.261-0.023-0.627-0.034-1.084-0.031c-0.907,0.014-2.142,0.136-3.497,0.48c-0.682,0.167-1.395,0.39-2.116,0.675
			c-0.73,0.272-1.461,0.623-2.16,1.075c-0.7,0.454-1.351,1.037-2.001,1.647c-0.649,0.612-1.312,1.228-2.013,1.787
			c-0.695,0.563-1.393,1.127-2.076,1.682c-0.691,0.546-1.346,1.122-1.988,1.669c-0.637,0.551-1.263,1.07-1.84,1.587
			c-0.58,0.514-1.129,1-1.635,1.447c-0.507,0.446-0.961,0.874-1.368,1.244s-0.76,0.697-1.048,0.973
			c-0.574,0.547-0.902,0.86-0.902,0.86c-0.133,0.126-0.138,0.337-0.011,0.47C72.157,117.549,72.298,117.576,72.417,117.531z"/>
		<polygon fill="#151410" points="97.608,152.932 99.091,105.932 101.312,105.932 103.534,152.932 		"/>
	</g>
	<g>
		<circle fill="#FFFFFF" cx="66.063" cy="57.432" r="4.5"/>
		<path fill="#FFFFFF" d="M66.613,1.932c0,0,0.155,0.75,0.427,2.062c0.138,0.656,0.29,1.453,0.456,2.367
			c0.165,0.914,0.372,1.945,0.56,3.07c0.189,1.125,0.396,2.344,0.613,3.633c0.226,1.289,0.408,2.648,0.629,4.055
			c0.209,1.406,0.447,2.859,0.612,4.336c0.183,1.477,0.368,2.977,0.554,4.477c0.174,1.5,0.464,3,0.76,4.477
			c0.293,1.477,0.546,2.93,0.57,4.336c0.022,1.406-0.127,2.766-0.392,4.055c-0.237,1.289-0.555,2.508-0.924,3.633
			c-0.719,2.25-1.646,4.125-2.437,5.438c-0.403,0.656-0.746,1.172-1.012,1.523c-0.256,0.352-0.418,0.539-0.418,0.539
			c-0.262,0.304-0.721,0.337-1.024,0.075c-0.026-0.022-0.054-0.049-0.075-0.075c0,0-0.162-0.188-0.418-0.539
			c-0.266-0.352-0.608-0.867-1.012-1.523c-0.791-1.312-1.717-3.188-2.437-5.438c-0.369-1.125-0.687-2.344-0.924-3.633
			c-0.263-1.289-0.414-2.648-0.391-4.055c0.024-1.406,0.277-2.859,0.57-4.336c0.297-1.477,0.586-2.977,0.761-4.477
			c0.187-1.5,0.371-3,0.555-4.477c0.166-1.477,0.404-2.93,0.613-4.336c0.22-1.406,0.403-2.766,0.629-4.055
			c0.217-1.289,0.423-2.508,0.612-3.633c0.188-1.125,0.395-2.156,0.56-3.07c0.166-0.914,0.318-1.711,0.456-2.367
			c0.271-1.312,0.426-2.062,0.426-2.062c0.062-0.304,0.359-0.499,0.664-0.436C66.403,1.542,66.569,1.72,66.613,1.932z"/>
		<path fill="#FFFFFF" d="M114.052,85.952c0,0-0.72-0.265-1.978-0.73c-0.629-0.231-1.386-0.523-2.249-0.866
			c-0.861-0.344-1.848-0.714-2.9-1.151c-1.056-0.434-2.197-0.905-3.406-1.403c-1.213-0.491-2.463-1.055-3.772-1.613
			c-1.304-0.567-2.663-1.133-4.003-1.774c-1.35-0.626-2.721-1.263-4.092-1.9c-1.365-0.646-2.791-1.194-4.201-1.725
			c-1.406-0.533-2.773-1.087-3.979-1.811c-1.205-0.725-2.279-1.572-3.232-2.477c-0.969-0.884-1.834-1.799-2.594-2.707
			c-1.528-1.802-2.629-3.581-3.323-4.946c-0.344-0.689-0.6-1.253-0.757-1.665c-0.164-0.403-0.236-0.64-0.236-0.64
			c-0.118-0.383,0.097-0.79,0.479-0.909c0.033-0.01,0.07-0.019,0.104-0.023c0,0,0.244-0.039,0.68-0.07
			c0.438-0.039,1.058-0.057,1.826-0.052c1.533,0.024,3.613,0.23,5.904,0.811c1.148,0.282,2.353,0.658,3.57,1.139
			c1.232,0.459,2.467,1.051,3.646,1.815c1.182,0.766,2.279,1.749,3.377,2.779c1.098,1.032,2.217,2.072,3.396,3.015
			c1.174,0.951,2.348,1.903,3.505,2.839c1.165,0.922,2.271,1.894,3.354,2.816c1.077,0.93,2.134,1.806,3.106,2.679
			c0.979,0.867,1.904,1.686,2.759,2.443c0.855,0.754,1.62,1.476,2.311,2.099c0.688,0.625,1.281,1.176,1.768,1.64
			c0.969,0.925,1.523,1.454,1.523,1.454c0.225,0.214,0.231,0.57,0.018,0.794C114.493,85.979,114.255,86.026,114.052,85.952z"/>
		<path fill="#FFFFFF" d="M19.05,86.952c0,0,0.719-0.265,1.976-0.73c0.629-0.231,1.386-0.523,2.25-0.866
			c0.863-0.344,1.848-0.714,2.901-1.151c1.055-0.434,2.196-0.905,3.406-1.403c1.213-0.491,2.463-1.055,3.772-1.613
			c1.304-0.567,2.663-1.133,4.003-1.774c1.35-0.626,2.72-1.263,4.091-1.9c1.365-0.646,2.791-1.194,4.201-1.725
			c1.408-0.533,2.775-1.087,3.98-1.811c1.206-0.725,2.278-1.572,3.232-2.477c0.968-0.884,1.834-1.799,2.593-2.707
			c1.528-1.802,2.629-3.581,3.323-4.946c0.344-0.689,0.601-1.253,0.757-1.665c0.163-0.403,0.236-0.64,0.236-0.64
			c0.119-0.383-0.096-0.79-0.479-0.909c-0.033-0.01-0.07-0.019-0.104-0.023c0,0-0.245-0.039-0.679-0.07
			c-0.438-0.039-1.059-0.057-1.828-0.052c-1.532,0.024-3.613,0.23-5.903,0.811c-1.148,0.282-2.352,0.658-3.57,1.139
			c-1.233,0.459-2.467,1.051-3.646,1.815c-1.18,0.766-2.279,1.749-3.376,2.779c-1.097,1.032-2.216,2.072-3.396,3.015
			c-1.174,0.951-2.349,1.903-3.505,2.839c-1.165,0.922-2.271,1.894-3.353,2.816c-1.077,0.93-2.133,1.806-3.107,2.679
			c-0.979,0.867-1.903,1.686-2.758,2.443c-0.854,0.754-1.621,1.476-2.309,2.099c-0.688,0.625-1.283,1.176-1.769,1.64
			c-0.97,0.925-1.522,1.454-1.522,1.454c-0.226,0.214-0.233,0.57-0.02,0.794C18.608,86.979,18.847,87.026,19.05,86.952z"/>
		<polygon fill="#FFFFFF" points="61.563,124.932 64.063,66.932 67.813,66.932 71.563,124.932 		"/>
	</g>
	<path fill="#90CBD4" d="M55.563,97.37c0-1.501-2.015-2.719-4.5-2.719s-4.5,1.108-4.5,2.609"/>
	<polyline fill="#90CBD4" points="46.563,96.932 46.563,107.932 55.563,107.932 55.563,96.932 	"/>
	<path fill="#90CBD4" d="M70.563,97.37c0-1.501-2.015-2.719-4.5-2.719s-4.5,1.108-4.5,2.609"/>
	<polyline fill="#90CBD4" points="61.563,96.932 61.563,107.932 70.563,107.932 70.563,96.932 	"/>
	<path fill="#90CBD4" d="M85.563,97.37c0-1.501-2.015-2.719-4.5-2.719s-4.5,1.108-4.5,2.609"/>
	<polyline fill="#90CBD4" points="76.563,96.932 76.563,107.932 85.563,107.932 85.563,96.932 	"/>
	<path fill="#90CBD4" d="M90.897,109.167l-43.667,0.097c-16-1-11.333,5.667-11.333,22.333l2.667-1.234v-13.432h3v12.043l3-1.389
		v-10.654h1v10.191l11.75-5.441c11.667-5.5,8.75-3.75,17.414-0.43c3.832,1.468,8.641,3.646,12.836,5.628v-9.948h1v10.421
		c0.689,0.328,1.361,0.649,2,0.958v-11.379h3v12.84c2.23,1.098,3.666,1.827,3.666,1.827l0.333-11.215
		C99.397,109.167,90.897,109.167,90.897,109.167z"/>
	<path fill="none" stroke="#CF6155" stroke-width="3" stroke-linecap="round" stroke-linejoin="round" stroke-miterlimit="10" d="
		M11.489,184.93c0,0,7.425,7.847,11.765,7.781c4.112-0.062,10.067-7.508,14.163-7.781c4.094-0.273,8.3,6.973,12.373,7.365
		c4.412,0.425,9.694-7.178,14.142-7.365c4.386-0.186,8.582,7.689,12.938,8.075c4.586,0.405,9.564-7.769,14.166-8.075
		c4.486-0.299,11.174,7.418,15.65,7.781c4.587,0.371,12.043-7.781,12.043-7.781"/>
	<path fill="none" stroke="#CF6155" stroke-width="3" stroke-linecap="round" stroke-linejoin="round" stroke-miterlimit="10" d="
		M8.396,195.931c0,0,7.847,8.292,12.432,8.224c4.348-0.066,10.641-7.935,14.968-8.224c4.326-0.289,8.771,7.368,13.076,7.783
		c4.663,0.448,10.245-7.585,14.944-7.783c4.636-0.195,9.07,8.125,13.674,8.533c4.848,0.429,10.108-8.208,14.973-8.533
		c4.739-0.317,11.808,7.839,16.539,8.224c4.848,0.393,12.728-8.224,12.728-8.224"/>
	<path fill="#90CBD4" d="M108.253,140.74l-15.328-6.851c-7.681-3.334-22.277-10.042-22.277-10.042
		c-1.039-0.331-1.958-0.561-2.79-0.727c-0.583-0.203-1.419-0.366-2.603-0.326c-1.517-0.049-2.493,0.203-3.095,0.464
		c-0.633,0.153-1.309,0.34-2.055,0.588c0,0-13.938,6.708-21.271,10.042l-14.636,6.85c0,0-7.317,0.183-3.317,9.85l8.674,24.537
		c0,0,0.715,2.443,2.762,4.16c2.614-1.938,5.302-4.215,7.438-4.356c3.069-0.205,6.209,4.211,9.293,6.003h4.889
		c3.327-1.721,6.914-5.871,10.048-6.003c2.984-0.126,5.872,3.828,8.796,6.003h6.866c3.044-2.085,6.16-5.807,9.107-6.003
		c2.769-0.185,6.451,2.967,9.812,5.138c3.064-1.617,4.074-4.941,4.074-4.941l9.084-24.536
		C115.917,140.922,108.253,140.74,108.253,140.74z M66.563,173.932h-1v-47h1V173.932z"/>
	<path fill="none" stroke="#CF6155" stroke-width="3" stroke-linecap="round" stroke-linejoin="round" stroke-miterlimit="10" d="
		M19.655,174.928c0,0,6.284,6.266,9.957,6.213c3.481-0.05,8.521-5.995,11.987-6.213c3.465-0.219,7.023,5.568,10.472,5.881
		c3.735,0.34,8.205-5.732,11.969-5.881c3.713-0.146,7.265,6.14,10.951,6.447c3.881,0.324,8.097-6.202,11.99-6.447
		c3.797-0.239,9.457,5.924,13.245,6.213c3.883,0.297,10.192-6.213,10.192-6.213"/>
</g>
<polygon fill="none" points="4.159,220.096 15.773,207.09 8.438,200.046 "/>
</svg>
