<?xml version="1.0" encoding="utf-8"?>
<!-- Generator: Adobe Illustrator 16.0.0, SVG Export Plug-In . SVG Version: 6.00 Build 0)  -->
<!DOCTYPE svg PUBLIC "-//W3C//DTD SVG 1.1//EN" "http://www.w3.org/Graphics/SVG/1.1/DTD/svg11.dtd">
<svg version="1.1" id="Calque_1" xmlns="http://www.w3.org/2000/svg" xmlns:xlink="http://www.w3.org/1999/xlink" x="0px" y="0px"
	 width="70.75px" height="45px" viewBox="10.39 15.476 70.75 45" enable-background="new 10.39 15.476 70.75 45"
	 xml:space="preserve">
<g>
	<path fill="#F27063" d="M45.257,35.596L11.698,52.015l3.549,7.253L45.81,44.315l0.074-8.538
		C45.672,35.733,45.465,35.664,45.257,35.596z"/>
	<path fill="#C95A50" d="M46.27,35.834c-0.38-0.053-0.753-0.141-1.118-0.269l0.077,8.749l30.562,14.953l3.549-7.253L46.27,35.834z"
		/>
</g>
<g>
	<path fill="#F27063" d="M45.623,16.699L12.064,33.118l3.549,7.252l30.562-14.953l0.074-8.538
		C46.038,16.837,45.831,16.768,45.623,16.699z"/>
	<path fill="#C95A50" d="M46.636,16.938c-0.381-0.053-0.755-0.141-1.119-0.269l0.076,8.749l30.563,14.953l3.549-7.252L46.636,16.938
		z"/>
</g>
</svg>
