<?xml version="1.0" encoding="utf-8"?>
<!-- Generator: Adobe Illustrator 16.0.0, SVG Export Plug-In . SVG Version: 6.00 Build 0)  -->
<!DOCTYPE svg PUBLIC "-//W3C//DTD SVG 1.1//EN" "http://www.w3.org/Graphics/SVG/1.1/DTD/svg11.dtd">
<svg version="1.1" id="Calque_1" xmlns="http://www.w3.org/2000/svg" xmlns:xlink="http://www.w3.org/1999/xlink" x="0px" y="0px"
	 width="103.667px" height="107px" viewBox="71.833 62.167 103.667 107" enable-background="new 71.833 62.167 103.667 107"
	 xml:space="preserve">
<g>
	<path fill="#BB4D40" d="M86.507,77.397c0,0,0,17.355,10.31,19.874c0,0,6.287,2.762,11.572-2.268c0,0,4.99-4.111,6.286-11.823
		c2.436-14.417-4.023-19.164-13.755-19.113c-3.181,0.016-8.687,0.981-11.898,4.529C89.022,68.597,86.018,72.117,86.507,77.397z"/>
	<path fill="#BB4D40" d="M94.307,98.092l6.587,6.256l-3.295,17.588l3.295,4.267l2.969-4.027l-2.012-17.862l5.66-6.281l3.644,3.516
		c0,0,7.054,2.739,9.56,4.654c2.873,2.191,3.9,6.609,5.784,15.035L127.76,132H74.182c0,0,1.588-17.383,4.861-21.555
		c1.579-2.021,3.86-5.246,8.722-6.252l3.521-1.621L94.307,98.092z"/>
	<path fill="#BB4D40" d="M140.081,136.328l6.596,6.25l-3.3,17.594l3.3,4.266l2.966-4.027l-2.014-17.858l5.656-6.291l3.648,3.521
		c0,0,7.049,2.739,9.56,4.649c2.876,2.197,3.899,4.998,5.784,13.424l1.262,9.146H119.96c0,0,1.589-15.767,4.862-19.938
		c1.578-2.017,3.859-4.437,8.722-5.442l3.521-1.214L140.081,136.328z"/>
	<g>
		<path fill="#BB4D40" d="M150.312,89.975c-0.771,0-1.479-0.512-1.699-1.289c-1.534-5.527-6.537-10.579-6.59-10.631
			c-0.035-0.035-0.066-0.071-0.098-0.106c-6.596-7.817-20.279-7.597-20.417-7.592c-0.975,0-1.772-0.75-1.8-1.72
			c-0.021-0.973,0.75-1.781,1.721-1.802c0.627-0.011,15.459-0.247,23.139,8.786c0.623,0.635,5.73,5.977,7.441,12.123
			c0.262,0.94-0.295,1.906-1.226,2.171C150.625,89.957,150.466,89.975,150.312,89.975z"/>
		<path fill="#BB4D40" d="M144.271,87.373c10.905-1.672,10.905-1.672,10.905-1.672s1.505-0.339,1.001,2.515
			c0,0-1.508,6.04-3.021,8.554c0,0-0.331,3.353-3.685,0c0,0-0.731-1.509-2.797-3.855l-3.074-3.189
			C143.604,89.724,142.637,87.628,144.271,87.373z"/>
	</g>
	<g>
		<path fill="#BB4D40" d="M84.597,140.241c0.768,0.017,1.47,0.542,1.672,1.327c1.407,5.56,6.3,10.721,6.353,10.77
			c0.026,0.04,0.066,0.075,0.097,0.115c6.415,7.962,20.099,8.046,20.236,8.042c0.971,0.022,1.765,0.789,1.765,1.76
			c0,0.97-0.79,1.761-1.765,1.765c-0.626,0-15.458-0.097-22.931-9.3c-0.613-0.651-5.599-6.101-7.173-12.282
			c-0.238-0.943,0.335-1.905,1.275-2.139C84.284,140.253,84.443,140.236,84.597,140.241z"/>
		<path fill="#BB4D40" d="M90.575,142.977c-10.936,1.434-10.936,1.434-10.936,1.434s-1.513,0.3-0.949-2.537
			c0,0,1.641-6.003,3.212-8.488c0,0,0.405-3.344,3.683,0.084c0,0,0.702,1.526,2.714,3.922l2.995,3.25
			C91.294,140.643,92.22,142.755,90.575,142.977z"/>
	</g>
	<path fill="#BB4D40" d="M132.282,115.633c0,0,0,17.355,10.313,19.87c0,0,6.291,2.767,11.571-2.263c0,0,4.99-4.116,6.287-11.818
		c2.437-14.426-4.028-19.173-13.751-19.12c-3.186,0.017-8.689,0.979-11.902,4.526C134.801,106.827,131.792,110.348,132.282,115.633z
		"/>
</g>
</svg>
