<?xml version="1.0" encoding="utf-8"?>
<!-- Generator: Adobe Illustrator 16.0.0, SVG Export Plug-In . SVG Version: 6.00 Build 0)  -->
<!DOCTYPE svg PUBLIC "-//W3C//DTD SVG 1.1//EN" "http://www.w3.org/Graphics/SVG/1.1/DTD/svg11.dtd">
<svg version="1.1" id="Calque_1" xmlns="http://www.w3.org/2000/svg" xmlns:xlink="http://www.w3.org/1999/xlink" x="0px" y="0px"
	 width="119px" height="338px" viewBox="74.5 26.5 119 338" enable-background="new 74.5 26.5 119 338" xml:space="preserve">
<g>
	<linearGradient id="SVGID_1_" gradientUnits="userSpaceOnUse" x1="83.4429" y1="251.543" x2="160.6357" y2="251.543">
		<stop  offset="0" style="stop-color:#FFFFFF"/>
		<stop  offset="1" style="stop-color:#000000"/>
	</linearGradient>
	
		<rect x="110.54" y="143.544" transform="matrix(0.9686 0.2486 -0.2486 0.9686 66.365 -22.4422)" opacity="1" fill="#e06c3a" stroke="url(#SVGID_1_)" stroke-miterlimit="10" enable-background="new    " width="23" height="215.999"/>
	<polygon fill="#254D95" points="169.143,126.321 165.91,138.913 163.004,138.167 181.094,67.676 189.104,36.463 166.826,30.746 
		158.816,61.959 140.727,132.45 137.82,131.704 134.838,143.328 137.891,144.111 160.3,149.862 162.928,150.536 149.505,202.842 
		154.348,204.084 173.984,127.563 	"/>
</g>
<polygon fill="#1C213C" points="140.727,132.45 137.82,131.704 134.838,143.328 162.928,150.536 149.505,202.842 154.348,204.084 
	173.984,127.563 169.143,126.321 165.91,138.913 163.004,138.167 189.104,36.463 166.826,30.746 "/>
</svg>
