<?xml version="1.0" encoding="utf-8"?>
<!-- Generator: Adobe Illustrator 16.0.0, SVG Export Plug-In . SVG Version: 6.00 Build 0)  -->
<!DOCTYPE svg PUBLIC "-//W3C//DTD SVG 1.1//EN" "http://www.w3.org/Graphics/SVG/1.1/DTD/svg11.dtd">
<svg version="1.1" id="Calque_1" xmlns="http://www.w3.org/2000/svg" xmlns:xlink="http://www.w3.org/1999/xlink" x="0px" y="0px"
	 width="575px" height="228px" viewBox="0 42.5 575 228" enable-background="new 0 42.5 575 228" xml:space="preserve">
<g>
	<path fill="#E6E6E6" d="M4.975,244.9c-0.002,10.791,7.28,19.384,15.936,19.389l531.427,0.145
		c8.66,0.004,16.468-8.588,16.471-19.377l0.053-177.773c0.003-10.791-7.801-18.84-16.46-18.842L20.973,48.296
		c-8.657-0.002-15.943,8.043-15.947,18.833L4.975,244.9z"/>
	<path fill="#666666" d="M514.576,235.744c-0.001,3.908,2.18,7.367,4.334,7.369l23.89,0.007c2.154,0.001,4.706-3.455,4.706-7.367
		l0.01-37.165c0.001-3.908-2.55-6.801-4.703-6.803l-23.888-0.008c-2.153,0-4.339,2.895-4.34,6.802L514.576,235.744z"/>
	<path fill="#666666" d="M508.781,180.486c-0.003,2.529,1.187,4.511,3.83,4.511l29.315,0.009c2.646,0,5.595-1.979,5.598-4.508
		l0.005-24.09c0.003-2.533-2.947-4.333-5.592-4.335l-29.315-0.009c-2.646,0.002-3.834,1.801-3.836,4.334L508.781,180.486z"/>
	<path fill="#666666" d="M492.326,139.198c-0.003,2.532,3.218,4.146,6.902,4.146l40.831,0.012c3.684,0,7.475-1.608,7.475-4.143
		l0.007-24.085c0.001-2.535-3.79-4.703-7.472-4.705l-40.831-0.011c-3.686,0-6.905,2.166-6.905,4.699L492.326,139.198z"/>
	<path fill="#666666" d="M508.804,97.921c-0.001,2.533,1.188,3.778,3.835,3.779l29.313,0.008c2.645,0,5.593-1.243,5.597-3.774
		l0.004-24.088c0.002-2.533-2.947-4.1-5.592-4.101l-29.314-0.008c-2.646-0.002-3.834,1.564-3.836,4.098L508.804,97.921z"/>
	<path fill="#666666" d="M476.802,235.734c-0.002,3.908,1.523,7.367,3.677,7.367l23.89,0.008c2.154,0,4.397-3.457,4.398-7.366
		l0.012-37.164c0.001-3.908-2.241-6.804-4.396-6.806l-23.889-0.006c-2.155-0.002-3.68,2.894-3.682,6.803L476.802,235.734z"/>
	<path fill="#666666" d="M437.091,235.721c-0.002,3.909,1.373,7.37,3.528,7.37l23.889,0.009c2.155,0,4.545-3.457,4.545-7.367
		l0.012-37.164c0.001-3.905-2.388-6.803-4.543-6.805l-23.889-0.008c-2.154,0-3.529,2.895-3.534,6.803L437.091,235.721z"/>
	<path fill="#666666" d="M395.441,235.712c-0.002,3.908,1.742,7.367,3.896,7.368l23.889,0.007c2.155,0.001,4.178-3.456,4.18-7.366
		l0.01-37.164c0.001-3.906-2.02-6.803-4.173-6.805l-23.89-0.006c-2.154-0.002-3.899,2.893-3.899,6.801L395.441,235.712z"/>
	<path fill="#666666" d="M107.773,235.63c0,3.908,13.114,7.371,32.181,7.376l211.375,0.061c19.065,0.004,34.426-3.449,34.427-7.358
		l0.011-37.164c0.001-3.907-15.356-6.808-34.423-6.812l-211.374-0.06c-19.066-0.005-32.184,2.886-32.185,6.794L107.773,235.63z"/>
	<path fill="#666666" d="M469.069,180.24c-0.003,2.259,0.762,4.744,2.812,4.744l22.727,0.008c2.048-0.001,3.519-2.484,3.519-4.744
		l0.006-21.473c0.001-2.258-1.469-3.811-3.517-3.811l-22.726-0.008c-2.051,0.002-2.815,1.552-2.814,3.811L469.069,180.24z"/>
	<path fill="#666666" d="M431.294,180.229c0,2.258,1.525,4.744,3.576,4.746l22.725,0.004c2.049,0.002,3.725-2.482,3.727-4.742
		l0.004-21.473c0.003-2.257-1.671-3.81-3.722-3.81l-22.725-0.006c-2.049,0-3.577,1.55-3.579,3.808L431.294,180.229z"/>
	<path fill="#666666" d="M393.52,180.219c0,2.258,0.865,4.744,2.917,4.746l22.726,0.006c2.048,0,4.384-2.484,4.384-4.744
		l0.005-21.472c0.002-2.257-2.332-3.81-4.382-3.81l-22.725-0.006c-2.052-0.002-2.919,1.55-2.918,3.809L393.52,180.219z"/>
	<path fill="#666666" d="M451.645,138.953c-0.002,2.259,1.114,4.378,3.165,4.378l22.727,0.007c2.049,0,4.134-2.115,4.135-4.377
		l0.006-21.472c0-2.259-2.083-4.177-4.133-4.179l-22.723-0.006c-2.052-0.001-3.168,1.917-3.17,4.174L451.645,138.953z"/>
	<path fill="#666666" d="M412.902,138.943c-0.002,2.259,1.423,4.377,3.474,4.379l22.724,0.006c2.052,0,3.826-2.117,3.826-4.377
		l0.008-21.473c-0.001-2.256-1.774-4.177-3.825-4.177l-22.724-0.007c-2.052-0.001-3.476,1.918-3.476,4.176L412.902,138.943z"/>
	<path fill="#666666" d="M354.777,180.207c-0.003,2.259,1.172,4.745,3.225,4.746l22.725,0.006c2.051,0.001,3.106-2.482,3.106-4.744
		l0.006-21.473c0.002-2.258-1.056-3.809-3.105-3.811l-22.724-0.006c-2.051-0.001-3.227,1.551-3.228,3.809L354.777,180.207z"/>
	<path fill="#666666" d="M374.16,138.932c-0.003,2.26,1.729,4.377,3.784,4.379l22.723,0.006c2.049,0,3.519-2.115,3.518-4.375
		l0.008-21.473c0-2.257-1.467-4.178-3.52-4.178l-22.724-0.007c-2.051,0-3.784,1.918-3.784,4.176L374.16,138.932z"/>
	<path fill="#666666" d="M315.064,180.195c-0.003,2.26,1.026,4.746,3.078,4.746l22.724,0.007c2.051,0,3.254-2.483,3.254-4.743
		l0.007-21.473c0.001-2.258-1.2-3.81-3.25-3.811l-22.725-0.006c-2.052-0.001-3.081,1.551-3.081,3.809L315.064,180.195z"/>
	<path fill="#666666" d="M334.449,138.921c-0.002,2.259,1.585,4.378,3.635,4.379l22.725,0.007c2.05,0,3.664-2.117,3.665-4.375
		l0.007-21.474c0.002-2.258-1.611-4.178-3.662-4.178l-22.726-0.007c-2.05,0.001-3.638,1.918-3.639,4.175L334.449,138.921z"/>
	<path fill="#666666" d="M274.385,180.188c-0.002,2.258,1.85,4.746,3.901,4.744l22.726,0.006c2.048,0.002,4.368-2.482,4.367-4.744
		l0.005-21.471c0.001-2.258-2.316-3.812-4.366-3.811l-22.726-0.008c-2.049,0-3.901,1.552-3.902,3.81L274.385,180.188z"/>
	<path fill="#666666" d="M294.736,138.91c0,2.259,1.438,4.377,3.489,4.379l22.726,0.007c2.05,0,3.81-2.116,3.812-4.376l0.003-21.475
		c0.003-2.256-1.757-4.175-3.809-4.176l-22.724-0.007c-2.052-0.001-3.493,1.917-3.492,4.175L294.736,138.91z"/>
	<path fill="#666666" d="M234.674,180.174c-0.002,2.26,1.702,4.745,3.754,4.746l22.724,0.007c2.051-0.001,3.547-2.485,3.547-4.745
		l0.006-21.472c0-2.257-1.494-3.81-3.546-3.812l-22.724-0.006c-2.053,0-3.756,1.551-3.757,3.81L234.674,180.174z"/>
	<path fill="#666666" d="M254.056,138.898c0,2.259,2.26,4.377,4.312,4.377l22.725,0.008c2.05,0,2.987-2.117,2.989-4.375
		l0.004-21.475c0.002-2.257-0.938-4.177-2.984-4.178l-22.724-0.006c-2.051,0-4.314,1.918-4.314,4.177L254.056,138.898z"/>
	<path fill="#666666" d="M193.993,180.163c-0.003,2.26,1.101,4.745,3.15,4.745l22.726,0.006c2.049,0,3.18-2.482,3.179-4.744
		l0.007-21.472c0.001-2.259-1.127-3.81-3.179-3.812l-22.725-0.005c-2.049-0.001-3.152,1.55-3.154,3.81L193.993,180.163z"/>
	<path fill="#666666" d="M213.376,138.887c0,2.26,1.659,4.379,3.712,4.379l22.723,0.006c2.05,0,3.589-2.117,3.592-4.377
		l0.004-21.471c0.002-2.258-1.537-4.18-3.588-4.18l-22.723-0.006c-2.052-0.001-3.713,1.918-3.712,4.176L213.376,138.887z"/>
	<path fill="#666666" d="M151.376,180.15c-0.003,2.258,1.013,4.744,3.062,4.746l22.725,0.006c2.049,0,4.236-2.484,4.236-4.744
		l0.006-21.473c0.001-2.256-2.184-3.81-4.233-3.811l-22.725-0.006c-2.05,0-3.065,1.551-3.067,3.809L151.376,180.15z"/>
	<path fill="#666666" d="M171.727,138.876c0.001,2.258,0.603,4.377,2.655,4.377l22.724,0.007c2.051,0.002,3.678-2.117,3.678-4.377
		l0.005-21.472c0.001-2.257-1.625-4.179-3.677-4.177l-22.723-0.008c-2.052-0.001-2.656,1.918-2.656,4.176L171.727,138.876z"/>
	<path fill="#666666" d="M107.789,180.139c-0.001,2.258,1.896,4.745,3.946,4.746l22.725,0.006c2.049,0,3.354-2.483,3.355-4.744
		l0.006-21.472c0.001-2.257-1.305-3.81-3.354-3.809l-22.725-0.007c-2.052-0.002-3.946,1.549-3.949,3.809L107.789,180.139z"/>
	<path fill="#666666" d="M130.078,138.863c0,2.26,0.97,4.377,3.021,4.379l22.725,0.005c2.048,0.002,4.279-2.116,4.279-4.374
		l0.005-21.473c0.001-2.258-2.226-4.178-4.278-4.18l-22.725-0.006c-2.05,0-3.022,1.919-3.021,4.177L130.078,138.863z"/>
	<path fill="#666666" d="M65.172,180.126c0,2.258,1.807,4.743,3.858,4.745l22.726,0.005c2.049,0.003,4.411-2.481,4.411-4.742
		l0.007-21.473c0-2.259-2.36-3.81-4.41-3.81l-22.725-0.006c-2.051-0.002-3.859,1.551-3.86,3.807L65.172,180.126z"/>
	<path fill="#666666" d="M25.46,180.114c0,2.26,1.66,4.747,3.712,4.745l22.725,0.01c2.05-0.002,3.588-2.484,3.589-4.745
		l0.006-21.472c0-2.258-1.536-3.812-3.587-3.812l-22.725-0.004c-2.051-0.002-3.714,1.551-3.714,3.811L25.46,180.114z"/>
	<path fill="#666666" d="M86.492,138.852c-0.001,2.26,1.852,4.377,3.901,4.377l22.726,0.008c2.048,0.002,4.366-2.117,4.367-4.377
		l0.006-21.471c0-2.259-2.315-4.178-4.366-4.179l-22.724-0.007c-2.05,0-3.904,1.918-3.905,4.175L86.492,138.852z"/>
	<path fill="#666666" d="M43.875,138.839c0,2.261,1.763,4.378,3.813,4.378l22.726,0.008c2.05,0.002,3.486-2.119,3.486-4.377
		l0.005-21.472c0-2.258-1.434-4.177-3.484-4.179l-22.726-0.006c-2.051,0-3.816,1.918-3.816,4.177L43.875,138.839z"/>
	<path fill="#666666" d="M65.157,235.564c-0.001,3.692,1.806,7.422,3.857,7.422l22.726,0.008c2.05,0,4.412-3.727,4.412-7.418
		l0.01-35.104c0.001-3.693-2.359-4.938-4.408-4.939l-22.726-0.004c-2.05-0.002-3.859,1.242-3.86,4.934L65.157,235.564z"/>
	<path fill="#666666" d="M25.445,235.627c-0.001,3.659,1.658,7.348,3.711,7.348l22.725,0.008c2.05,0,3.589-3.688,3.589-7.346
		l0.01-34.765c0-3.657-1.536-5.351-3.587-5.353l-22.725-0.004c-2.052-0.002-3.713,1.689-3.715,5.349L25.445,235.627z"/>
	<path fill="#666666" d="M467.156,94.828c-0.003,2.259,1.273,3.953,3.327,3.953l22.723,0.006c2.051,0.001,3.973-1.691,3.975-3.949
		l0.007-21.473c0.001-2.258-1.923-3.635-3.973-3.635l-22.724-0.006c-2.053-0.002-3.329,1.375-3.331,3.633L467.156,94.828z"/>
	<path fill="#666666" d="M428.412,94.818c-0.002,2.259,1.582,3.951,3.636,3.953l22.723,0.006c2.052,0.001,3.667-1.69,3.665-3.95
		l0.007-21.471c0.001-2.257-1.612-3.634-3.663-3.635l-22.724-0.006c-2.051-0.001-3.637,1.375-3.639,3.632L428.412,94.818z"/>
	<path fill="#666666" d="M390.638,94.808c0,2.258,0.923,3.952,2.977,3.952l22.726,0.008c2.048,0,3.355-1.692,3.354-3.952
		l0.005-21.471c0.002-2.258-1.303-3.635-3.356-3.637l-22.723-0.005c-2.052-0.001-2.979,1.376-2.979,3.634L390.638,94.808z"/>
	<path fill="#666666" d="M351.896,94.796c-0.002,2.259,1.23,3.952,3.282,3.952l22.726,0.006c2.049,0.001,4.016-1.69,4.018-3.949
		l0.004-21.472c0.003-2.258-1.964-3.635-4.016-3.635l-22.723-0.008c-2.052,0-3.284,1.376-3.286,3.633L351.896,94.796z"/>
	<path fill="#666666" d="M315.089,94.786c-0.001,2.259,1.026,3.952,3.08,3.952l22.723,0.007c2.051,0,3.253-1.692,3.255-3.951
		l0.006-21.472c0.002-2.258-1.201-3.633-3.252-3.636l-22.724-0.006c-2.052,0-3.079,1.376-3.081,3.634L315.089,94.786z"/>
	<path fill="#666666" d="M274.409,94.774c-0.001,2.259,1.85,3.953,3.899,3.953l22.727,0.008c2.051,0,4.368-1.692,4.368-3.951
		l0.006-21.473c0.002-2.257-2.316-3.635-4.366-3.635l-22.727-0.007c-2.049,0-3.9,1.376-3.899,3.634L274.409,94.774z"/>
	<path fill="#666666" d="M234.697,94.765c-0.002,2.258,1.701,3.951,3.755,3.952l22.724,0.007c2.05,0.001,3.546-1.692,3.546-3.951
		l0.006-21.473c0-2.257-1.493-3.634-3.545-3.634l-22.722-0.008c-2.053,0.001-3.757,1.376-3.759,3.634L234.697,94.765z"/>
	<path fill="#666666" d="M194.018,94.753c-0.002,2.258,1.102,3.951,3.153,3.952l22.723,0.006c2.05,0.001,3.179-1.692,3.179-3.95
		l0.007-21.473c0.001-2.258-1.128-3.634-3.178-3.635l-22.725-0.006c-2.051,0-3.153,1.375-3.156,3.632L194.018,94.753z"/>
	<path fill="#666666" d="M151.399,94.74c-0.002,2.258,1.014,3.952,3.064,3.951l22.725,0.008c2.051,0,4.235-1.693,4.236-3.951
		l0.006-21.472c0.001-2.257-2.185-3.635-4.232-3.634l-22.726-0.007c-2.05,0-3.066,1.376-3.067,3.634L151.399,94.74z"/>
	<path fill="#666666" d="M107.813,94.729c0,2.258,1.895,3.952,3.946,3.953l22.726,0.006c2.049,0,3.354-1.691,3.354-3.95
		l0.007-21.472c0-2.258-1.304-3.634-3.352-3.635l-22.726-0.008c-2.052,0-3.948,1.375-3.949,3.633L107.813,94.729z"/>
	<path fill="#666666" d="M65.197,94.716c0,2.26,1.806,3.952,3.858,3.954l22.725,0.006c2.05,0,4.41-1.692,4.411-3.95l0.006-21.472
		c0.001-2.257-2.358-3.635-4.41-3.637l-22.724-0.006c-2.052,0-3.86,1.375-3.86,3.632L65.197,94.716z"/>
	<path fill="#666666" d="M25.485,94.706c-0.001,2.258,1.659,3.952,3.712,3.951l22.725,0.009c2.05,0,3.588-1.692,3.588-3.951
		l0.005-21.471c0.001-2.258-1.536-3.636-3.587-3.636l-22.724-0.007c-2.053,0-3.713,1.376-3.715,3.633L25.485,94.706z"/>
</g>
</svg>
