<?xml version="1.0" encoding="utf-8"?>
<!-- Generator: Adobe Illustrator 16.0.0, SVG Export Plug-In . SVG Version: 6.00 Build 0)  -->
<!DOCTYPE svg PUBLIC "-//W3C//DTD SVG 1.1//EN" "http://www.w3.org/Graphics/SVG/1.1/DTD/svg11.dtd">
<svg version="1.1" id="Calque_1" xmlns="http://www.w3.org/2000/svg" xmlns:xlink="http://www.w3.org/1999/xlink" x="0px" y="0px"
	 width="30.702px" height="275.751px" viewBox="135.574 -40.226 30.702 275.751"
	 enable-background="new 135.574 -40.226 30.702 275.751" xml:space="preserve">
<g>
	<polygon fill="#B24751" points="151.102,-3.514 147.095,-3.519 146.785,235.48 159.785,235.498 160.094,-3.502 	"/>
	
		<rect x="21.943" y="110.474" transform="matrix(-0.0013 1 -1 -0.0013 257.6042 -25.3168)" fill="#B77D82" width="239.002" height="11.001"/>
	
		<rect x="43.442" y="113.002" transform="matrix(-0.0013 1 -1 -0.0013 279.1593 -46.7884)" fill="#AE1523" width="239.002" height="6"/>
	<polygon fill="#F2D5B7" points="151.102,-3.514 160.404,-3.503 166.095,-3.495 158.623,-22.155 156.47,-27.507 151.31,-27.514 
		146.1,-27.522 148.714,-33.772 151.237,-40 151.148,-40.125 143.63,-21.829 136.109,-3.533 136.213,-3.533 147.595,-3.519 	"/>
	<polygon fill="#010202" points="146.1,-27.522 151.31,-27.514 156.47,-27.507 156.519,-27.508 153.922,-33.766 151.326,-40.223 
		151.237,-39.901 148.714,-33.822 	"/>
</g>
</svg>
