<?xml version="1.0" encoding="utf-8"?>
<!-- Generator: Adobe Illustrator 16.0.0, SVG Export Plug-In . SVG Version: 6.00 Build 0)  -->
<!DOCTYPE svg PUBLIC "-//W3C//DTD SVG 1.1//EN" "http://www.w3.org/Graphics/SVG/1.1/DTD/svg11.dtd">
<svg version="1.1" id="Calque_1" xmlns="http://www.w3.org/2000/svg" xmlns:xlink="http://www.w3.org/1999/xlink" x="0px" y="0px"
	 width="296.666px" height="280.561px" viewBox="149.808 282.778 296.666 280.561"
	 enable-background="new 149.808 282.778 296.666 280.561" xml:space="preserve">
<g>
	<path fill="#9C9B9B" d="M344.728,376.008c-2.898-53.2-48.382-93.975-101.583-91.074c-53.197,2.9-93.975,48.382-91.071,101.583
		c2.899,53.197,48.383,93.973,101.58,91.07C306.853,474.687,347.632,429.207,344.728,376.008z M253.152,468.324
		c-48.086,2.625-89.191-34.229-91.815-82.312c-2.622-48.085,34.233-89.191,82.318-91.814c48.08-2.624,89.187,34.231,91.812,82.315
		C338.087,424.597,301.232,465.703,253.152,468.324z"/>
	<path opacity="0.3" fill="#F2EEEE" enable-background="new    " d="M243.655,294.198c-48.085,2.623-84.94,43.729-82.318,91.814
		c2.624,48.083,43.729,84.937,91.815,82.312c48.08-2.621,84.936-43.727,82.314-91.812
		C332.841,328.429,291.735,291.574,243.655,294.198z"/>
	
		<rect x="368.845" y="430.385" transform="matrix(0.6717 -0.7408 0.7408 0.6717 -247.052 447.9004)" fill="#52B29F" width="26.014" height="144.64"/>
	
		<rect x="379.539" y="425.692" transform="matrix(0.6718 -0.7408 0.7408 0.6718 -242.1503 449.5354)" fill="#6CBAAD" width="13.273" height="144.63"/>
	<path fill="#FFFFFF" d="M308.324,343.919c0,0,22.584,27.194,5.373,62.643C310.279,413.605,346.691,372.448,308.324,343.919z"/>
</g>
</svg>
