<?xml version="1.0" encoding="utf-8"?>
<!-- Generator: Adobe Illustrator 16.0.0, SVG Export Plug-In . SVG Version: 6.00 Build 0)  -->
<!DOCTYPE svg PUBLIC "-//W3C//DTD SVG 1.1//EN" "http://www.w3.org/Graphics/SVG/1.1/DTD/svg11.dtd">
<svg version="1.1" id="Calque_1" xmlns="http://www.w3.org/2000/svg" xmlns:xlink="http://www.w3.org/1999/xlink" x="0px" y="0px"
	 width="258px" height="504px" viewBox="395.5 29.5 258 504" enable-background="new 395.5 29.5 258 504" xml:space="preserve">
<g>
	<path fill="#FFFFFF" d="M648.127,484.475c0,22.963-18.628,41.591-41.588,41.591H443.65c-22.971,0-41.582-18.628-41.582-41.591
		V75.525c0-22.968,18.611-41.589,41.582-41.589h162.889c22.96,0,41.588,18.621,41.588,41.589V484.475z"/>
	<rect x="414.198" y="104.116" fill="#BDDFE4" width="221.799" height="351.766"/>
	<path fill="#1D1D1B" d="M561.485,78.988c0,1.915-1.559,3.467-3.464,3.467h-39.858c-1.914,0-3.47-1.552-3.47-3.467l0,0
		c0-1.914,1.556-3.463,3.47-3.463h39.858C559.928,75.525,561.485,77.074,561.485,78.988L561.485,78.988z"/>
	<path fill="#1D1D1B" d="M500.841,78.988c0,1.915-1.559,3.467-3.472,3.467c-1.915,0-3.472-1.552-3.472-3.467
		c0-1.914,1.557-3.463,3.472-3.463C499.282,75.525,500.841,77.074,500.841,78.988z"/>
	<rect x="414.198" y="104.116" fill="#6FA4AA" width="221.799" height="55.45"/>
	<rect x="428.05" y="159.566" fill="#FFFFFF" width="193.218" height="242.599"/>
	<rect x="440.188" y="192.49" fill="#90CCD5" width="168.082" height="103.107"/>
	<rect x="440.188" y="169.098" fill="#12100B" width="32.923" height="13.86"/>
	<rect x="484.378" y="169.098" fill="#12100B" width="32.924" height="13.86"/>
	<rect x="532.023" y="169.098" fill="#12100B" width="32.925" height="13.86"/>
	<rect x="575.346" y="169.098" fill="#12100B" width="32.924" height="13.86"/>
	<rect x="440.188" y="312.059" fill="#E9E8E8" width="168.082" height="5.195"/>
	<rect x="440.188" y="322.448" fill="#E9E8E8" width="168.082" height="5.204"/>
	<rect x="440.188" y="332.854" fill="#E9E8E8" width="168.082" height="5.194"/>
	<rect x="440.622" y="343.032" fill="#E9E8E8" width="106.567" height="4.545"/>
</g>
<path opacity="0.4" fill="#FFFFFF" enable-background="new    " d="M443.65,526.93c-22.972,0-41.582-18.627-41.582-41.59V76.39
	c0-22.968,18.61-41.589,41.582-41.589h162.889c22.959,0,41.588,18.621,41.588,41.589"/>
</svg>
