<?xml version="1.0" encoding="utf-8"?>
<!-- Generator: Adobe Illustrator 16.0.0, SVG Export Plug-In . SVG Version: 6.00 Build 0)  -->
<!DOCTYPE svg PUBLIC "-//W3C//DTD SVG 1.1//EN" "http://www.w3.org/Graphics/SVG/1.1/DTD/svg11.dtd">
<svg version="1.1" id="Calque_1" xmlns="http://www.w3.org/2000/svg" xmlns:xlink="http://www.w3.org/1999/xlink" x="0px" y="0px"
	 width="110.991px" height="165.201px" viewBox="17.631 30.81 110.991 165.201"
	 enable-background="new 17.631 30.81 110.991 165.201" xml:space="preserve">
<g>
	<path fill="#6CC8D3" d="M42.971,90.187c0-15.523,14.004-28.122,29.004-28.305V30.81c-30,0.71-54.345,27.854-54.345,61.298
		c0,3.063,1.144,9.082,1.185,9.322c0.138,0.816-0.072,2.525-0.008,2.73c2.972,9.39,17.167,28.234,53.167,91.851v-77.519
		C56.975,118.307,42.971,105.711,42.971,90.187z"/>
	<path fill="#5FB8BC" d="M128.622,92.109c0-33.446-23.646-60.589-56.646-61.299v31.072c0,0,1.032-0.009,1.152-0.009
		c16.214,0,29.757,12.676,29.757,28.313c0,15.636-13.743,28.314-29.956,28.314c-0.121,0-0.953-0.006-0.953-0.009v77.519
		c42-63.616,51.95-82.46,54.914-91.851C126.951,103.955,128.622,95.171,128.622,92.109z"/>
</g>
</svg>
