<?xml version="1.0" encoding="utf-8"?>
<!-- Generator: Adobe Illustrator 16.0.0, SVG Export Plug-In . SVG Version: 6.00 Build 0)  -->
<!DOCTYPE svg PUBLIC "-//W3C//DTD SVG 1.1//EN" "http://www.w3.org/Graphics/SVG/1.1/DTD/svg11.dtd">
<svg version="1.1" id="Calque_1" xmlns="http://www.w3.org/2000/svg" xmlns:xlink="http://www.w3.org/1999/xlink" x="0px" y="0px"
	 width="960px" height="560px" viewBox="0 0 960 560" enable-background="new 0 0 960 560" xml:space="preserve">
<g>
	<path fill="#BA4C40" d="M644.819,214.152c0-92.631-65.495-167.841-158.901-169.802v85.244c0,0,4.469,0,4.788,0
		c44.925,0,83.624,38.448,83.624,81.731c0,43.283-38.858,81.731-83.785,81.731c-0.317,0-4.627,0-4.627,0v208.866
		c116.758-176.188,144.877-228.387,153.109-254.43C639.14,246.945,644.819,222.636,644.819,214.152z"/>
	<path fill="#F46F61" d="M332.81,247.492c8.232,26.043,36.352,78.243,153.109,254.43V293.056c0,0-4.31,0-4.627,0
		c-44.927,0-83.785-38.448-83.785-81.731c0-43.283,38.699-81.731,83.624-81.731c0.319,0,4.788,0,4.788,0V44.35
		c-93.406,1.961-158.901,77.171-158.901,169.802C327.018,222.636,332.697,246.945,332.81,247.492z"/>
</g>
</svg>
