<?xml version="1.0" encoding="utf-8"?>
<!-- Generator: Adobe Illustrator 16.0.0, SVG Export Plug-In . SVG Version: 6.00 Build 0)  -->
<!DOCTYPE svg PUBLIC "-//W3C//DTD SVG 1.1//EN" "http://www.w3.org/Graphics/SVG/1.1/DTD/svg11.dtd">
<svg version="1.1" id="Calque_1" xmlns="http://www.w3.org/2000/svg" xmlns:xlink="http://www.w3.org/1999/xlink" x="0px" y="0px"
	 width="350.667px" height="286px" viewBox="83.667 35.833 350.667 286" enable-background="new 83.667 35.833 350.667 286"
	 xml:space="preserve">
<g>
	<path fill="#BB4D40" d="M260.834,318.848l-3.756-0.631c-0.287-0.088-29.604-9.562-57.625-19.3
		c-16.468-5.722-31.129-10.425-40.569-13.978C140.203,277.913,136,276.596,136,271.881V132.553l123.713,46.988L385,132.597v142.15
		L260.834,318.848z M147,268.76c12,5.754,69.775,25.619,107.092,38.092L363,266.846V149.153l-108.83,42.551L147,149.208V268.76z"/>
	<path fill="#BB4D40" d="M141.939,144.559L136,132.553c48.448-17.485,85.442-27.955,106.377-33.899
		c15.671-4.438,19.073-4.416,21.016-3.386l121.836,35.878l-3.448,10.834l-121.882-35.888
		C256.681,106.446,237.597,110.031,141.939,144.559z"/>
	<g>
		<rect x="248" y="48" fill="#BB4D40" width="23" height="262"/>
		<g>
			<polygon fill="#BB4D40" points="283,75.017 260.5,55.816 238,75.017 238,58.716 260.5,39.526 283,58.716 			"/>
		</g>
	</g>
	<g>
		<polygon fill="#BB4D40" points="100.637,292.564 96.499,282.029 254.33,220.057 258.48,230.592 		"/>
		<g>
			<polygon fill="#BB4D40" points="112.534,261.191 101.678,286.08 126.566,296.925 111.405,302.879 86.516,292.033 97.372,267.156 
							"/>
		</g>
	</g>
	<g>
		<polygon fill="#BB4D40" points="416.954,294.18 259.111,232.208 263.261,221.672 421.093,283.645 		"/>
		<g>
			<polygon fill="#BB4D40" points="391.015,298.541 415.902,287.695 405.058,262.816 420.22,268.771 431.075,293.648 
				406.188,304.495 			"/>
		</g>
	</g>
</g>
</svg>
