<?xml version="1.0" encoding="utf-8"?>
<!-- Generator: Adobe Illustrator 16.0.0, SVG Export Plug-In . SVG Version: 6.00 Build 0)  -->
<!DOCTYPE svg PUBLIC "-//W3C//DTD SVG 1.1//EN" "http://www.w3.org/Graphics/SVG/1.1/DTD/svg11.dtd">
<svg version="1.1" xmlns="http://www.w3.org/2000/svg" xmlns:xlink="http://www.w3.org/1999/xlink" x="0px" y="0px" width="17.5px"
	 height="16.915px" viewBox="0 0 17.5 16.915" enable-background="new 0 0 17.5 16.915" xml:space="preserve">
<g id="Calque_8">
</g>
<g id="Calque_5">
</g>
<g id="Calque_9" display="none">
</g>
<g id="Calque_7">
	<g>
		<path fill="#FDFDFE" d="M0.99,0.001c0,0,0.012,0.244,0.01,0.669C0.988,0.883,0.997,1.141,1.031,1.427
			C1.057,1.714,1.08,2.032,1.145,2.382c0.042,0.35,0.122,0.719,0.222,1.106c0.071,0.393,0.249,0.78,0.362,1.194
			C1.903,5.079,2.059,5.495,2.28,5.89c0.188,0.411,0.454,0.787,0.696,1.174C3.254,7.427,3.51,7.809,3.827,8.13
			c0.292,0.346,0.624,0.641,0.934,0.943c0.347,0.254,0.646,0.556,0.988,0.762c0.326,0.231,0.645,0.437,0.956,0.602
			c0.302,0.184,0.596,0.318,0.857,0.445c0.259,0.135,0.493,0.232,0.692,0.297c0.394,0.146,0.621,0.246,0.621,0.246
			s-0.241-0.012-0.669-0.058c-0.215-0.017-0.473-0.06-0.764-0.133c-0.295-0.062-0.632-0.131-0.976-0.275
			c-0.176-0.065-0.358-0.132-0.548-0.202c-0.181-0.092-0.367-0.186-0.559-0.283c-0.395-0.18-0.759-0.455-1.153-0.715
			C3.852,9.45,3.445,9.169,3.121,8.788C2.763,8.44,2.467,8.029,2.154,7.631C1.894,7.196,1.613,6.774,1.415,6.316
			c-0.238-0.438-0.359-0.919-0.521-1.36c-0.104-0.461-0.23-0.9-0.26-1.332C0.612,3.41,0.59,3.202,0.568,3.001
			C0.57,2.8,0.572,2.604,0.573,2.417C0.56,2.046,0.616,1.701,0.662,1.401c0.035-0.301,0.086-0.553,0.146-0.757
			C0.915,0.233,0.99,0.001,0.99,0.001z"/>
	</g>
	<g>
		<path fill="#FCFCFC" d="M6.93,16.915c2.998-0.885,6.043-1.484,9.101-2.01l-0.367,0.708c-0.708-1.464-1.394-2.937-2.031-4.435
			c-0.323-0.746-0.63-1.5-0.931-2.258c-0.277-0.768-0.588-1.521-0.837-2.303c0.458,0.681,0.856,1.391,1.287,2.086
			c0.406,0.705,0.808,1.414,1.192,2.131c0.777,1.43,1.508,2.881,2.215,4.345l0.292,0.603l-0.658,0.105
			C13.129,16.374,10.053,16.787,6.93,16.915z"/>
	</g>
</g>
<g id="Calque_6">
</g>
</svg>
