<?xml version="1.0" encoding="utf-8"?>
<!-- Generator: Adobe Illustrator 16.0.0, SVG Export Plug-In . SVG Version: 6.00 Build 0)  -->
<!DOCTYPE svg PUBLIC "-//W3C//DTD SVG 1.1//EN" "http://www.w3.org/Graphics/SVG/1.1/DTD/svg11.dtd">
<svg version="1.1" xmlns="http://www.w3.org/2000/svg" xmlns:xlink="http://www.w3.org/1999/xlink" x="0px" y="0px" width="17.5px"
	 height="19.769px" viewBox="0 0 17.5 19.769" enable-background="new 0 0 17.5 19.769" xml:space="preserve">
<g id="Calque_8">
</g>
<g id="Calque_5">
</g>
<g id="Calque_9" display="none">
</g>
<g id="Calque_7">
	<g>
		<path fill="#FDFDFE" d="M12.953,0.599c0,0,0.122,0.213,0.313,0.592c0.102,0.188,0.203,0.422,0.301,0.711
			c0.106,0.283,0.232,0.609,0.297,0.975c0.04,0.182,0.082,0.373,0.126,0.57c0.021,0.201,0.042,0.408,0.063,0.623
			c0.063,0.428,0.029,0.883,0.023,1.355c-0.066,0.467-0.084,0.961-0.227,1.439c-0.1,0.49-0.285,0.961-0.45,1.439
			c-0.224,0.455-0.428,0.918-0.706,1.334c-0.238,0.438-0.578,0.799-0.861,1.174c-0.332,0.336-0.633,0.682-0.98,0.939
			c-0.168,0.133-0.33,0.266-0.487,0.393c-0.171,0.107-0.336,0.211-0.495,0.311c-0.306,0.213-0.621,0.35-0.896,0.473
			c-0.27,0.131-0.512,0.227-0.72,0.287c-0.408,0.135-0.642,0.195-0.642,0.195s0.201-0.145,0.556-0.369
			c0.183-0.104,0.391-0.248,0.616-0.434c0.229-0.178,0.488-0.373,0.746-0.615c0.271-0.225,0.539-0.492,0.811-0.785
			c0.291-0.273,0.521-0.631,0.809-0.951c0.24-0.359,0.504-0.717,0.718-1.115c0.244-0.381,0.415-0.807,0.61-1.221
			c0.157-0.43,0.34-0.852,0.438-1.293c0.135-0.432,0.201-0.871,0.289-1.295c0.025-0.43,0.119-0.844,0.106-1.242
			c0.019-0.4,0.019-0.779-0.013-1.131c-0.01-0.354-0.053-0.67-0.088-0.957c-0.025-0.287-0.07-0.541-0.126-0.746
			C12.992,0.839,12.953,0.599,12.953,0.599z"/>
	</g>
	<g>
		<path fill="#FCFCFC" d="M10.653,18.376c-3.081,0.523-6.177,0.758-9.274,0.916l-0.666,0.035l0.16-0.65
			c0.389-1.578,0.802-3.15,1.266-4.711c0.229-0.781,0.475-1.557,0.725-2.332c0.277-0.768,0.52-1.545,0.827-2.307
			c-0.082,0.816-0.229,1.617-0.341,2.426c-0.137,0.805-0.281,1.605-0.441,2.402c-0.314,1.598-0.68,3.182-1.068,4.76l-0.506-0.617
			C4.434,18.179,7.537,18.134,10.653,18.376z"/>
	</g>
</g>
<g id="Calque_6">
</g>
</svg>
