<?xml version="1.0" encoding="utf-8"?>
<!-- Generator: Adobe Illustrator 16.0.0, SVG Export Plug-In . SVG Version: 6.00 Build 0)  -->
<!DOCTYPE svg PUBLIC "-//W3C//DTD SVG 1.1//EN" "http://www.w3.org/Graphics/SVG/1.1/DTD/svg11.dtd">
<svg version="1.1" xmlns="http://www.w3.org/2000/svg" xmlns:xlink="http://www.w3.org/1999/xlink" x="0px" y="0px"
	 width="51.337px" height="51.586px" viewBox="0 0 51.337 51.586" enable-background="new 0 0 51.337 51.586" xml:space="preserve">
<g id="Calque_8">
</g>
<g id="Calque_5">
</g>
<g id="Calque_9" display="none">
</g>
<g id="Calque_7">
	<rect x="0.114" y="0.38" fill="#FDFDFE" width="50.576" height="50.575"/>
	<g>
		<path fill="#699DC9" d="M32.95,8.479c0.482,0,0.963,0,1.445,0c0.122,0.046,0.252,0.032,0.377,0.048
			c2.086,0.254,3.875,1.12,5.355,2.616c0.104,0.104,0.193,0.129,0.334,0.1c1.575-0.336,3.082-0.865,4.512-1.607
			c0.297-0.154,0.588-0.316,0.883-0.474c-0.655,2.081-1.932,3.672-3.75,4.849c1.723-0.198,3.367-0.66,4.959-1.333
			c-0.047,0.101-0.104,0.186-0.16,0.269c-1.121,1.602-2.461,2.991-4.033,4.154c-0.141,0.104-0.199,0.207-0.193,0.389
			c0.072,2.074-0.104,4.126-0.559,6.151c-1.229,5.47-3.852,10.139-8.025,13.903c-2.557,2.309-5.501,3.953-8.791,4.98
			c-2.121,0.662-4.295,1.022-6.513,1.13c-0.048,0.003-0.103-0.018-0.138,0.038c-0.812,0-1.623,0-2.434,0
			c-0.029-0.049-0.076-0.036-0.119-0.038c-1.014-0.054-2.02-0.165-3.02-0.339c-3.259-0.566-6.287-1.735-9.09-3.488
			c-0.049-0.031-0.114-0.047-0.133-0.123c4.82,0.475,9.158-0.729,13.009-3.662c-0.452-0.047-0.897-0.084-1.337-0.166
			c-1.918-0.354-3.549-1.24-4.893-2.65c-0.878-0.922-1.519-1.99-1.939-3.191c-0.037-0.104-0.094-0.213,0.113-0.176
			c0.955,0.177,1.914,0.178,2.873,0.027c0.287-0.045,0.577-0.088,0.893-0.199c-5.15-1.173-7.26-5.875-7.014-8.809
			c1.213,0.65,2.496,1.025,3.926,1.082c-0.08-0.068-0.115-0.102-0.154-0.129c-0.459-0.328-0.882-0.699-1.275-1.105
			c-2.682-2.756-3.244-7.109-1.354-10.471c0.079-0.143,0.117-0.137,0.215-0.019c0.809,0.987,1.69,1.903,2.643,2.752
			c2.615,2.333,5.584,4.058,8.913,5.161c2.079,0.689,4.213,1.09,6.398,1.227c0.235,0.014,0.233,0.019,0.187-0.214
			c-0.224-1.111-0.248-2.228-0.045-3.343c0.669-3.692,3.459-6.492,7.158-7.202C32.434,8.567,32.7,8.571,32.95,8.479z"/>
		<path fill-rule="evenodd" clip-rule="evenodd" fill="#FEFEFE" d="M32.95,8.479c-0.25,0.092-0.517,0.088-0.775,0.138
			c-3.699,0.71-6.489,3.51-7.158,7.202c-0.203,1.115-0.179,2.231,0.045,3.343c0.047,0.232,0.049,0.228-0.187,0.214
			c-2.186-0.137-4.319-0.537-6.398-1.227c-3.329-1.104-6.298-2.828-8.913-5.161c-0.952-0.849-1.834-1.765-2.643-2.752
			c-0.098-0.118-0.136-0.124-0.215,0.019C4.815,13.616,5.378,17.97,8.06,20.726c0.394,0.406,0.816,0.777,1.275,1.105
			c0.039,0.027,0.074,0.061,0.154,0.129c-1.43-0.057-2.713-0.432-3.926-1.082c-0.246,2.934,1.863,7.636,7.014,8.809
			c-0.315,0.111-0.605,0.154-0.893,0.199c-0.959,0.15-1.918,0.149-2.873-0.027c-0.207-0.037-0.15,0.072-0.113,0.176
			c0.421,1.201,1.062,2.27,1.939,3.191c1.344,1.41,2.975,2.297,4.893,2.65c0.439,0.082,0.885,0.119,1.337,0.166
			c-3.851,2.934-8.188,4.137-13.009,3.662c0.019,0.076,0.084,0.092,0.133,0.123c2.803,1.753,5.831,2.922,9.09,3.488
			c1,0.174,2.006,0.285,3.02,0.339c0.043,0.002,0.09-0.011,0.119,0.038c-4.094,0-8.189-0.002-12.283,0.003
			C3.808,43.696,3.78,43.67,3.782,43.54C3.785,31.903,3.786,20.269,3.78,8.632c0-0.164,0.064-0.153,0.176-0.153
			C13.621,8.479,23.286,8.479,32.95,8.479z"/>
		<path fill-rule="evenodd" clip-rule="evenodd" fill="#FEFEFE" d="M18.653,43.692c0.035-0.056,0.09-0.035,0.138-0.038
			c2.218-0.107,4.392-0.468,6.513-1.13c3.29-1.027,6.234-2.672,8.791-4.98c4.174-3.765,6.797-8.434,8.025-13.903
			c0.455-2.025,0.631-4.077,0.559-6.151c-0.006-0.182,0.053-0.284,0.193-0.389c1.572-1.163,2.912-2.553,4.033-4.154
			c0.057-0.083,0.113-0.168,0.16-0.269c-1.592,0.673-3.236,1.135-4.959,1.333c1.818-1.177,3.095-2.768,3.75-4.849
			c-0.295,0.157-0.586,0.319-0.883,0.474c-1.43,0.742-2.937,1.271-4.512,1.607c-0.141,0.029-0.23,0.004-0.334-0.1
			c-1.48-1.496-3.27-2.362-5.355-2.616c-0.125-0.016-0.255-0.002-0.377-0.048c4.195,0,8.389,0.001,12.584-0.003
			c0.123,0,0.159,0.016,0.159,0.152c-0.005,11.64-0.005,23.278,0,34.918c0.001,0.145-0.048,0.147-0.163,0.147
			C37.534,43.691,28.094,43.692,18.653,43.692z"/>
	</g>
</g>
<g id="Calque_6">
</g>
</svg>
