<?xml version="1.0" encoding="utf-8"?>
<!-- Generator: Adobe Illustrator 16.0.0, SVG Export Plug-In . SVG Version: 6.00 Build 0)  -->
<!DOCTYPE svg PUBLIC "-//W3C//DTD SVG 1.1//EN" "http://www.w3.org/Graphics/SVG/1.1/DTD/svg11.dtd">
<svg version="1.1" id="Calque_1" xmlns="http://www.w3.org/2000/svg" xmlns:xlink="http://www.w3.org/1999/xlink" x="0px" y="0px"
	 width="60.333px" height="66.667px" viewBox="0 0 60.333 66.667" enable-background="new 0 0 60.333 66.667" xml:space="preserve">
<rect x="1.469" y="1.39" fill="#004899" width="57.83" height="64.18"/>
<rect x="1.857" y="1.832" fill="#FFFFFF" width="57.043" height="63.389"/>
<path fill="#004899" d="M30.436,32.242"/>
<rect x="15.293" y="17.42" fill="#E42313" width="30.266" height="30.265"/>
<path fill="#8E9ACD" d="M24.631,36.081c1.246,1.883,3.383,3.123,5.809,3.123c3.846,0,6.961-3.117,6.961-6.962
	c0-0.374-0.029-0.743-0.086-1.101c-0.324-2.039-1.533-3.783-3.219-4.825c-1.062-0.657-2.314-1.036-3.656-1.036
	c-1.182,0-2.297,0.296-3.273,0.816c-0.82,0.438-1.543,1.035-2.127,1.752c-0.814,0.999-1.355,2.228-1.514,3.575
	c-0.031,0.269-0.047,0.542-0.047,0.818C23.479,33.661,23.902,34.979,24.631,36.081z"/>
<g>
	<polygon fill="#004899" points="28.555,30.036 28.426,30.282 28.107,30.104 28.184,29.978 	"/>
	<polygon fill="#004899" points="30.428,28.671 30.816,28.806 30.844,29.078 29.859,29.748 29.365,29.625 29.365,29.438 
		29.676,29.165 	"/>
	<polygon fill="#004899" points="29.887,28.709 29.572,29.046 29.162,29.306 28.996,29.202 29.301,28.762 29.568,28.74 
		29.738,28.429 29.828,28.433 	"/>
	<polygon fill="#004899" points="30.48,27.72 29.977,28.231 29.754,28.07 30.383,27.568 	"/>
	<polygon fill="#004899" points="25.824,29.876 25.756,30.394 25.539,30.367 25.676,29.556 25.787,29.564 25.826,29.722 	"/>
	<polygon fill="#004899" points="25.914,30.567 25.855,30.836 25.723,30.815 25.654,30.706 25.699,30.516 	"/>
	<polygon fill="#004899" points="25.918,30.959 25.938,31.112 25.803,31.112 25.781,30.971 	"/>
	<polygon fill="#004899" points="25.975,31.231 26.008,31.315 25.895,31.366 25.855,31.274 	"/>
	<path fill="#004899" d="M25.926,31.536l0.006-0.066c0-0.006,0.055-0.053,0.055-0.053l0.037,0.082
		C26.023,31.499,25.928,31.536,25.926,31.536z"/>
	<polygon fill="#004899" points="30.518,31.097 30.562,31.005 30.703,31.081 30.67,31.204 30.719,31.239 30.652,31.595 
		30.373,31.566 30.551,31.131 	"/>
	<polygon fill="#004899" points="30.23,31.307 30.34,31.333 30.293,31.474 30.143,31.432 	"/>
	<path fill="#004899" d="M33.566,36.942c-0.082,0.154-0.125,0.214-0.264,0.366c-0.15,0.162-0.439,0.324-0.531,0.363l-0.352,0.151
		l-0.088,0.012l-0.039-0.134l0.617-0.606l0.279-0.058l0.221-0.13L33.566,36.942z"/>
	<polygon fill="#004899" points="33.248,37.755 33.143,37.831 33.057,37.742 33.174,37.671 	"/>
	<polygon fill="#004899" points="30.961,32.47 30.91,32.681 30.82,32.664 30.826,32.499 30.914,32.511 30.934,32.458 	"/>
	<polygon fill="#004899" points="25.871,31.689 25.746,31.731 25.717,31.6 25.83,31.558 	"/>
	<path fill="#004899" d="M24.633,36.081c-0.729-1.102-1.154-2.42-1.154-3.839c0-0.277,0.018-0.55,0.047-0.818l0.555-0.617
		l0.551-0.078l-0.111-0.341l0.346-1.209l0.145-0.417l0.029-0.914c0.584-0.716,1.307-1.312,2.127-1.751l0.34,0.061l0.967,0.144
		c0,0,0.977,0.216,1.457,0.182c0.678-0.048,1.064-0.315,1.227-0.425l0.068,0.037l-0.244,0.191l0.191,0.074l0.074,0.215l-0.018,0.304
		l-0.084,0.066l-0.434,0.283l-0.555,0.26l-0.611,0.589l0.145,0.129l-0.207,0.395l-0.248-0.03l0.008-0.111l-0.381-0.248l-0.402,0.42
		l0.525,0.103l0.039,0.139l-0.344,0.413l0.328,0.125l-0.361,0.493l-0.496-0.04l-0.18,0.194l-0.59-0.335l-0.963-0.323l-0.232,0.401
		L26.02,29.67l0.117-0.295l0.246-0.195c0,0-0.289-0.672-0.305-0.684c-0.092-0.067-0.195-0.156-0.303-0.187
		c-0.045-0.012-0.088-0.019-0.129-0.019c-0.154,0-0.387,0.138-0.387,0.274l0.008,0.201l0.008,0.046l0.254,0.212l-0.021,0.157
		l-0.342,0.015l-0.428,1.072l0.66,0.991l0.092,0.185c0.006,0.014,0.168,0.735,0.24,0.982c0.135,0.473,0.178,1.106,0.189,1.122
		l0.695,1.012l-0.051,0.426l-1.057,0.795l-0.396-0.101l-0.48,0.4"/>
	<path fill="#004899" d="M34.303,26.697l-0.309,0.197l-0.254,0.295l-0.752-0.433l1.092-0.232L34.303,26.697z M34.096,26.316
		l-0.861,0.086l-0.123-0.056l-0.533,0.052l-0.135-0.04l-0.936,0.213l-0.037,0.335l1.133,1.241L32.58,28.41l-0.174-0.01l-0.15,0.336
		l0.236,1.071l-0.354,0.333l0.047,0.312l-0.131,0.004l-0.107-0.215l-0.434-0.136l-0.307,0.411l-0.316,0.325l0.145,0.233l0.26-0.02
		l0.047,0.116l0.102-0.013l0.186-0.522l0.107,0.077l-0.125,0.283l0.045,0.053l-0.084,0.295l-0.289,0.074
		c-0.023-0.105-0.08-0.186-0.08-0.186L31.1,31.228l-0.029,0.221l-0.166,0.046l-0.1,0.156c-0.041,0.046-0.143,0.069-0.246,0.064
		c-0.09-0.005-0.246-0.046-0.246-0.046c0.004,0-0.057,0.072-0.057,0.067c0,0,0.041,0.04,0.039,0.043c0,0,0.064,0.045,0.045,0.137
		c-0.016,0.074-0.096,0.148-0.223,0.148c-0.041,0-0.08-0.005-0.117-0.014l-0.062-0.015l-0.152,0.38l0.41,0.311
		c0.016,0.012,0.186-0.126,0.402-0.327c0.064-0.06,0.189-0.105,0.264-0.105c0.059,0,0.094,0.024,0.148,0.051
		c0.156,0.071,0.219,0.332,0.215,0.327l-0.068,0.013l0.021,0.05l0.197-0.04l-0.164-0.416l0.049-0.012l0.354,0.35l0.994,0.279
		l-0.197,0.51l-0.781-0.203l-0.186,0.022l-0.391-0.262l-1.281-0.192l-0.66,0.326c-0.094,0.047-0.18,0.15-0.283,0.35
		c-0.193,0.367-0.293,0.59-0.324,0.717l-0.045,0.183l0.416,0.77l0.986,0.993c0.051,0.051-0.021,0.258-0.172,0.503
		c-0.043,0.066-0.113,0.256-0.213,0.565c-0.068,0.211-0.164,0.387-0.283,0.518c-0.264,0.287-0.402,0.446-0.41,0.467l-0.164,0.467
		c0,0.014,0.021,0.03,0.055,0.041c0.24,0.082,0.486,0.124,0.73,0.124c0.371,0,0.783-0.104,1.148-0.29
		c0.207-0.105,0.416-0.229,0.625-0.369c0.209-0.142,0.391-0.279,0.539-0.41c0.021-0.02,0.125-0.115,0.307-0.286
		c0.143-0.134,0.27-0.227,0.379-0.279c0.055-0.025,0.09-0.054,0.1-0.074l0.338-0.862l0.756-0.721l0.391-0.635l-0.098-0.197
		l-0.387,0.076l-0.949-1.09l0.229-0.024l0.893,0.925l0.482-0.389l0.314-0.448l0.143-0.235l0.057-0.123l-0.352-0.281l-0.408,0.115
		l-0.234-0.204l0.52-0.158l0.408,0.068l0.637-0.142l0.834,0.676l0.295-0.002c0.057-0.242,0.066-0.324,0.066-0.576
		c0-0.269-0.035-0.545-0.105-0.822c-0.033-0.136-0.053-0.226-0.059-0.27l-0.012-0.096l0.162-0.144l0.35,0.081l0.543-0.465v0.001
		C36.992,29.104,35.783,27.36,34.096,26.316L34.096,26.316z"/>
</g>
<g>
	<path fill="#004899" d="M18.096,8.458h1.457l1.812,4.421h-1.381l-0.264-0.72h-1.795l-0.262,0.72h-1.383L18.096,8.458z
		 M19.43,11.361l-0.605-1.75l-0.613,1.75H19.43z"/>
	<path fill="#004899" d="M23.061,8.458h1.994c1.539,0,2.158,1.244,2.158,2.269c0,1.005-0.555,2.152-1.908,2.152h-2.244V8.458z
		 M24.822,11.829c0.676,0,0.996-0.37,0.996-1.16c0-0.584-0.238-1.161-0.99-1.161h-0.373v2.321H24.822z"/>
	<path fill="#004899" d="M29.227,8.458h2.979v0.933h-1.586v0.778h1.453v0.934h-1.453v0.843h1.609v0.934h-3.002V8.458z"/>
	<path fill="#004899" d="M35.752,12.879h-1.393V8.458h1.246l1.191,1.789l1.189-1.789h1.246v4.421H37.84l0.035-2.372l-0.012-0.013
		l-1.066,1.62l-1.068-1.62l-0.012,0.013L35.752,12.879z"/>
	<path fill="#004899" d="M41.498,8.458h2.98v0.933h-1.586v0.778h1.451v0.934h-1.451v0.843h1.609v0.934h-3.004V8.458z"/>
</g>
<g>
	<path fill="#004899" d="M8.758,54.803H8.375l-0.35-0.844H6.914l-0.33,0.844H6.201l1.123-2.878H7.59L8.758,54.803z M7.061,53.589
		h0.812l-0.422-1.035L7.061,53.589z"/>
	<path fill="#004899" d="M10.613,53.208H10.26c0.135,0.146,0.18,0.252,0.18,0.412c0,0.153-0.08,0.335-0.16,0.424
		c-0.23,0.268-0.697,0.134-0.697,0.355c0,0.105,0.18,0.168,0.525,0.243c0.367,0.08,0.498,0.286,0.498,0.526
		c0,0.371-0.303,0.599-0.812,0.599c-0.465,0-0.795-0.24-0.795-0.57c0-0.276,0.135-0.44,0.434-0.521
		c-0.119-0.079-0.172-0.156-0.172-0.239c0-0.121,0.107-0.228,0.271-0.269V54.16c-0.127-0.059-0.223-0.138-0.287-0.238
		c-0.062-0.097-0.092-0.214-0.092-0.353c0-0.403,0.287-0.65,0.752-0.65h0.709V53.208z M9.711,54.895
		c-0.229,0-0.391,0.118-0.391,0.286c0,0.189,0.17,0.288,0.48,0.288c0.299,0,0.475-0.099,0.475-0.271
		C10.275,54.958,9.924,54.895,9.711,54.895z M9.801,53.242c-0.188,0-0.342,0.154-0.342,0.34c0,0.204,0.139,0.344,0.344,0.344
		c0.193,0,0.332-0.147,0.332-0.353C10.135,53.393,9.98,53.242,9.801,53.242z"/>
	<path fill="#004899" d="M12.566,54.618c-0.207,0.15-0.396,0.221-0.688,0.221c-0.537,0-0.836-0.481-0.836-1.001
		c0-0.571,0.33-0.957,0.805-0.957c0.457,0,0.748,0.339,0.748,1.037h-1.211c0.055,0.371,0.248,0.564,0.58,0.564
		c0.205,0,0.4-0.083,0.602-0.226V54.618z M12.26,53.671c-0.012-0.287-0.162-0.467-0.404-0.467c-0.26,0-0.416,0.168-0.463,0.467
		H12.26z"/>
	<path fill="#004899" d="M13.549,53.166h0.008c0.129-0.181,0.322-0.285,0.514-0.285c0.326,0,0.586,0.244,0.586,0.76v1.162h-0.34
		v-1.167c0-0.276-0.131-0.457-0.338-0.457c-0.15,0-0.27,0.076-0.43,0.272v1.352h-0.342v-1.884h0.342V53.166z"/>
	<path fill="#004899" d="M16.676,53.409c-0.195-0.143-0.324-0.185-0.475-0.185c-0.311,0-0.525,0.257-0.525,0.639
		c0,0.39,0.23,0.624,0.582,0.624c0.146,0,0.285-0.041,0.457-0.125v0.369c-0.115,0.058-0.334,0.107-0.514,0.107
		c-0.514,0-0.875-0.389-0.875-0.942c0-0.621,0.33-1.016,0.852-1.016c0.199,0,0.334,0.051,0.498,0.13V53.409z"/>
	<path fill="#004899" d="M18.77,54.618c-0.207,0.15-0.395,0.221-0.686,0.221c-0.537,0-0.838-0.481-0.838-1.001
		c0-0.571,0.33-0.957,0.807-0.957c0.455,0,0.748,0.339,0.748,1.037h-1.213c0.053,0.371,0.25,0.564,0.58,0.564
		c0.207,0,0.402-0.083,0.602-0.226V54.618z M18.463,53.671c-0.012-0.287-0.162-0.467-0.402-0.467c-0.262,0-0.42,0.168-0.465,0.467
		H18.463z"/>
	<path fill="#004899" d="M22.145,54.803H21.42c-0.514,0-0.836-0.383-0.836-0.986c0-0.546,0.357-0.936,0.859-0.936
		c0.115,0,0.223,0.02,0.361,0.075V51.94h0.34V54.803z M21.805,53.288c-0.117-0.051-0.203-0.071-0.318-0.071
		c-0.33,0-0.553,0.26-0.553,0.655c0,0.352,0.131,0.615,0.525,0.615h0.346V53.288z"/>
	<path fill="#004899" d="M24.301,54.618c-0.207,0.15-0.395,0.221-0.686,0.221c-0.537,0-0.836-0.481-0.836-1.001
		c0-0.571,0.33-0.957,0.805-0.957c0.457,0,0.748,0.339,0.748,1.037h-1.213c0.055,0.371,0.25,0.564,0.58,0.564
		c0.207,0,0.402-0.083,0.602-0.226V54.618z M23.994,53.671c-0.012-0.287-0.16-0.467-0.402-0.467c-0.262,0-0.418,0.168-0.465,0.467
		H23.994z"/>
	<path fill="#004899" d="M26.537,54.803h-0.34V51.94h0.34V54.803z"/>
	<path fill="#004899" d="M29.826,52.311h-1.107v0.864h1.068v0.368h-1.068v0.891h1.143v0.369h-1.52V51.94h1.484V52.311z"/>
	<path fill="#004899" d="M30.768,53.166h0.008c0.131-0.181,0.322-0.285,0.514-0.285c0.328,0,0.588,0.244,0.588,0.76v1.162h-0.342
		v-1.167c0-0.276-0.131-0.457-0.336-0.457c-0.15,0-0.27,0.076-0.432,0.272v1.352h-0.34v-1.884h0.34V53.166z"/>
	<path fill="#004899" d="M32.354,52.919h0.371l0.465,1.157l0.453-1.157h0.363l-0.76,1.92h-0.113L32.354,52.919z"/>
	<path fill="#004899" d="M34.703,52.57c-0.111,0-0.203-0.101-0.203-0.223c0-0.121,0.092-0.222,0.203-0.222s0.203,0.101,0.203,0.222
		C34.906,52.47,34.814,52.57,34.703,52.57z M34.871,54.803h-0.342v-1.884h0.342V54.803z"/>
	<path fill="#004899" d="M35.986,52.919v0.432h0.008c0.172-0.332,0.338-0.47,0.498-0.47c0.139,0,0.27,0.071,0.412,0.218
		l-0.182,0.323c-0.104-0.109-0.236-0.185-0.318-0.185c-0.234,0-0.418,0.257-0.418,0.579v0.986h-0.34v-1.884H35.986z"/>
	<path fill="#004899" d="M39.053,53.842c0,0.596-0.381,0.997-0.934,0.997c-0.527,0-0.908-0.419-0.908-0.997
		c0-0.541,0.395-0.961,0.908-0.961C38.662,52.881,39.053,53.284,39.053,53.842z M37.561,53.842c0,0.397,0.227,0.663,0.555,0.663
		c0.361,0,0.588-0.252,0.588-0.659c0-0.364-0.244-0.629-0.588-0.629C37.795,53.217,37.561,53.481,37.561,53.842z"/>
	<path fill="#004899" d="M40.025,53.166h0.006c0.131-0.181,0.324-0.285,0.516-0.285c0.326,0,0.586,0.244,0.586,0.76v1.162h-0.34
		v-1.167c0-0.276-0.133-0.457-0.338-0.457c-0.15,0-0.27,0.076-0.43,0.272v1.352h-0.342v-1.884h0.342V53.166z"/>
	<path fill="#004899" d="M42.193,53.166h0.006c0.131-0.181,0.322-0.285,0.516-0.285c0.326,0,0.586,0.244,0.586,0.76v1.162h-0.342
		v-1.167c0-0.276-0.131-0.457-0.336-0.457c-0.15,0-0.27,0.076-0.43,0.272v1.352H41.85v-1.884h0.344V53.166z"/>
	<path fill="#004899" d="M45.436,54.618c-0.207,0.15-0.395,0.221-0.686,0.221c-0.537,0-0.836-0.481-0.836-1.001
		c0-0.571,0.328-0.957,0.805-0.957c0.457,0,0.748,0.339,0.748,1.037h-1.211c0.053,0.371,0.248,0.564,0.578,0.564
		c0.207,0,0.402-0.083,0.602-0.226V54.618z M45.129,53.671c-0.012-0.287-0.162-0.467-0.402-0.467c-0.26,0-0.418,0.168-0.465,0.467
		H45.129z"/>
	<path fill="#004899" d="M46.43,52.919v0.247c0.176-0.193,0.342-0.285,0.504-0.285c0.217,0,0.398,0.117,0.512,0.339
		c0.15-0.185,0.33-0.339,0.576-0.339c0.35,0,0.572,0.294,0.572,0.739v1.183H48.25v-1.167c0-0.285-0.16-0.44-0.355-0.44
		c-0.111-0.004-0.26,0.101-0.383,0.239v1.368H47.17v-1.17c0-0.308-0.143-0.438-0.311-0.438c-0.174,0-0.289,0.06-0.43,0.239v1.368
		h-0.342v-1.884H46.43z"/>
	<path fill="#004899" d="M50.711,54.618c-0.207,0.15-0.396,0.221-0.688,0.221c-0.537,0-0.836-0.481-0.836-1.001
		c0-0.571,0.33-0.957,0.807-0.957c0.455,0,0.746,0.339,0.746,1.037h-1.211c0.055,0.371,0.248,0.564,0.58,0.564
		c0.205,0,0.402-0.083,0.602-0.226V54.618z M50.404,53.671c-0.012-0.287-0.162-0.467-0.402-0.467c-0.262,0-0.418,0.168-0.465,0.467
		H50.404z"/>
	<path fill="#004899" d="M51.703,53.166h0.008c0.129-0.181,0.32-0.285,0.514-0.285c0.326,0,0.588,0.244,0.588,0.76v1.162h-0.344
		v-1.167c0-0.276-0.131-0.457-0.338-0.457c-0.148,0-0.268,0.076-0.428,0.272v1.352h-0.342v-1.884h0.342V53.166z"/>
	<path fill="#004899" d="M53.955,52.919H54.5v0.336h-0.545v0.964c0,0.224,0.145,0.286,0.244,0.286c0.123,0,0.25-0.046,0.389-0.139
		v0.348c-0.119,0.072-0.303,0.125-0.416,0.125c-0.369,0-0.559-0.251-0.559-0.591v-0.993h-0.299v-0.043l0.641-0.684V52.919z"/>
	<path fill="#004899" d="M7.631,60.345c-0.209,0.15-0.396,0.222-0.688,0.222c-0.537,0-0.836-0.482-0.836-1.003
		c0-0.571,0.33-0.956,0.805-0.956c0.457,0,0.748,0.339,0.748,1.035H6.449c0.053,0.375,0.248,0.567,0.578,0.567
		c0.207,0,0.402-0.084,0.604-0.227V60.345z M7.322,59.396c-0.01-0.285-0.16-0.466-0.402-0.466c-0.26,0-0.418,0.168-0.463,0.466
		H7.322z"/>
	<path fill="#004899" d="M8.611,58.648h0.545v0.335H8.611v0.965c0,0.223,0.146,0.285,0.246,0.285c0.123,0,0.25-0.046,0.387-0.139
		v0.349c-0.119,0.071-0.303,0.126-0.414,0.126c-0.371,0-0.559-0.252-0.559-0.591v-0.995H7.971V58.94l0.641-0.684V58.648z"/>
	<path fill="#004899" d="M12.311,60.538h-0.727c-0.514,0-0.836-0.382-0.836-0.986c0-0.545,0.357-0.936,0.859-0.936
		c0.115,0,0.223,0.021,0.361,0.076v-1.016h0.342V60.538z M11.969,59.023c-0.115-0.051-0.203-0.071-0.318-0.071
		c-0.33,0-0.553,0.26-0.553,0.654c0,0.353,0.131,0.616,0.525,0.616h0.346V59.023z"/>
	<path fill="#004899" d="M14.404,60.338c-0.207,0.152-0.395,0.223-0.686,0.223c-0.537,0-0.836-0.482-0.836-1.002
		c0-0.571,0.33-0.957,0.805-0.957c0.457,0,0.748,0.339,0.748,1.036h-1.211c0.053,0.373,0.248,0.566,0.578,0.566
		c0.207,0,0.402-0.084,0.602-0.226V60.338z M14.098,59.391c-0.012-0.285-0.16-0.466-0.402-0.466c-0.26,0-0.418,0.168-0.463,0.466
		H14.098z"/>
	<path fill="#004899" d="M16.479,60.546h-0.34v-2.861h0.34V60.546z"/>
	<path fill="#004899" d="M18.488,60.407c-0.158,0.114-0.223,0.147-0.33,0.147c-0.148,0-0.229-0.059-0.26-0.192
		c-0.15,0.13-0.307,0.192-0.465,0.192c-0.252,0-0.422-0.218-0.422-0.462c0-0.373,0.311-0.486,0.588-0.597l0.303-0.115v-0.102
		c0-0.235-0.104-0.332-0.311-0.332c-0.189,0-0.381,0.097-0.545,0.311v-0.407c0.135-0.171,0.322-0.256,0.57-0.256
		c0.35,0,0.627,0.193,0.627,0.621v0.969c0,0.072,0.021,0.098,0.064,0.098c0.035,0,0.104-0.039,0.18-0.102V60.407z M17.902,59.585
		c-0.291,0.109-0.545,0.219-0.545,0.441c0,0.154,0.104,0.264,0.246,0.264c0.105,0,0.207-0.059,0.299-0.155V59.585z"/>
	<path fill="#004899" d="M22.605,60.538H22.23v-2.228h-0.008l-0.805,1.106h-0.062l-0.805-1.106h-0.008v2.228h-0.375v-2.861h0.352
		l0.867,1.174l0.869-1.174h0.35V60.538z"/>
	<path fill="#004899" d="M24.613,60.429c-0.156,0.113-0.223,0.147-0.328,0.147c-0.15,0-0.23-0.06-0.262-0.194
		c-0.15,0.131-0.307,0.194-0.465,0.194c-0.252,0-0.42-0.219-0.42-0.462c0-0.374,0.311-0.487,0.586-0.596l0.303-0.117V59.3
		c0-0.234-0.104-0.331-0.311-0.331c-0.188,0-0.379,0.097-0.545,0.311v-0.407c0.135-0.171,0.322-0.256,0.572-0.256
		c0.348,0,0.625,0.192,0.625,0.621v0.97c0,0.07,0.021,0.096,0.064,0.096c0.035,0,0.104-0.037,0.18-0.1V60.429z M24.027,59.606
		c-0.291,0.108-0.545,0.219-0.545,0.44c0,0.156,0.104,0.265,0.246,0.265c0.107,0,0.207-0.059,0.299-0.155V59.606z"/>
	<path fill="#004899" d="M25.814,58.415h-0.211l-0.334-0.364l-0.318,0.364h-0.203l0.35-0.635h0.357L25.814,58.415z M25.451,60.538
		h-0.342v-1.885h0.342V60.538z"/>
	<path fill="#004899" d="M26.535,58.653h0.545v0.336h-0.545v0.966c0,0.221,0.146,0.285,0.246,0.285c0.123,0,0.248-0.047,0.387-0.139
		v0.349c-0.119,0.071-0.303,0.126-0.414,0.126c-0.371,0-0.561-0.253-0.561-0.592v-0.995h-0.299v-0.042l0.641-0.683V58.653z"/>
	<path fill="#004899" d="M27.973,58.653v0.434h0.008c0.174-0.333,0.338-0.471,0.5-0.471c0.137,0,0.268,0.071,0.41,0.218
		l-0.182,0.324c-0.102-0.11-0.236-0.186-0.318-0.186c-0.232,0-0.418,0.256-0.418,0.579v0.986h-0.34v-1.885H27.973z"/>
	<path fill="#004899" d="M29.492,58.306c-0.111,0-0.203-0.101-0.203-0.222c0-0.122,0.092-0.224,0.203-0.224s0.203,0.102,0.203,0.224
		C29.695,58.205,29.604,58.306,29.492,58.306z M29.66,60.538h-0.342v-1.885h0.342V60.538z"/>
	<path fill="#004899" d="M31.326,59.142c-0.193-0.14-0.373-0.198-0.5-0.198c-0.137,0-0.225,0.072-0.225,0.172
		c0,0.084,0.113,0.185,0.416,0.377c0.285,0.207,0.389,0.337,0.389,0.53c0,0.33-0.242,0.554-0.568,0.554
		c-0.211,0-0.375-0.046-0.598-0.173v-0.402c0.223,0.168,0.426,0.247,0.562,0.247c0.141-0.008,0.254-0.079,0.254-0.214
		c0-0.26-0.805-0.398-0.805-0.906c0-0.319,0.223-0.512,0.566-0.512c0.162,0,0.326,0.051,0.508,0.156V59.142z"/>
	<path fill="#004899" d="M33.436,60.353c-0.207,0.151-0.396,0.224-0.688,0.224c-0.537,0-0.836-0.483-0.836-1.003
		c0-0.571,0.33-0.957,0.805-0.957c0.457,0,0.748,0.34,0.748,1.037h-1.211c0.053,0.373,0.248,0.565,0.578,0.565
		c0.207,0,0.402-0.083,0.604-0.226V60.353z M33.127,59.405c-0.01-0.286-0.16-0.467-0.402-0.467c-0.262,0-0.418,0.169-0.465,0.467
		H33.127z"/>
	<path fill="#004899" d="M36.643,60.538h-0.727c-0.514,0-0.834-0.382-0.834-0.986c0-0.545,0.355-0.936,0.857-0.936
		c0.115,0,0.223,0.021,0.361,0.076v-1.016h0.342V60.538z M36.301,59.023c-0.115-0.051-0.203-0.071-0.318-0.071
		c-0.33,0-0.553,0.26-0.553,0.654c0,0.353,0.131,0.616,0.525,0.616h0.346V59.023z"/>
	<path fill="#004899" d="M38.719,60.353c-0.207,0.151-0.395,0.224-0.686,0.224c-0.537,0-0.836-0.483-0.836-1.003
		c0-0.571,0.33-0.957,0.807-0.957c0.455,0,0.746,0.34,0.746,1.037h-1.211c0.053,0.373,0.25,0.565,0.578,0.565
		c0.207,0,0.402-0.083,0.602-0.226V60.353z M38.412,59.405c-0.01-0.286-0.16-0.467-0.4-0.467c-0.262,0-0.42,0.169-0.467,0.467
		H38.412z"/>
	<path fill="#004899" d="M40.822,60.538H40.48v-2.861h0.342V60.538z"/>
	<path fill="#004899" d="M43.926,58.046h-1.109v0.863h1.072v0.37h-1.072v0.89h1.145v0.369h-1.52v-2.861h1.484V58.046z"/>
	<path fill="#004899" d="M44.832,58.901h0.008c0.129-0.181,0.32-0.285,0.512-0.285c0.326,0,0.588,0.242,0.588,0.761v1.161h-0.342
		v-1.166c0-0.277-0.131-0.459-0.338-0.459c-0.148,0-0.268,0.076-0.428,0.274v1.351H44.49v-1.885h0.342V58.901z"/>
	<path fill="#004899" d="M48.025,60.353c-0.207,0.151-0.395,0.224-0.686,0.224c-0.537,0-0.836-0.483-0.836-1.003
		c0-0.571,0.33-0.957,0.807-0.957c0.455,0,0.746,0.34,0.746,1.037h-1.211c0.053,0.373,0.248,0.565,0.578,0.565
		c0.207,0,0.402-0.083,0.602-0.226V60.353z M47.721,59.405c-0.014-0.286-0.162-0.467-0.404-0.467c-0.26,0-0.418,0.169-0.463,0.467
		H47.721z"/>
	<path fill="#004899" d="M48.996,58.653v0.434h0.008c0.172-0.333,0.336-0.471,0.498-0.471c0.137,0,0.268,0.071,0.41,0.218
		l-0.18,0.324c-0.104-0.11-0.238-0.186-0.318-0.186c-0.234,0-0.418,0.256-0.418,0.579v0.986h-0.342v-1.885H48.996z"/>
	<path fill="#004899" d="M51.686,58.943h-0.354c0.133,0.147,0.18,0.252,0.18,0.411c0,0.154-0.08,0.336-0.16,0.424
		c-0.23,0.269-0.699,0.134-0.699,0.357c0,0.104,0.18,0.167,0.525,0.242c0.367,0.08,0.5,0.285,0.5,0.525
		c0,0.373-0.303,0.601-0.814,0.601c-0.463,0-0.793-0.239-0.793-0.572c0-0.276,0.135-0.439,0.434-0.521
		c-0.119-0.078-0.174-0.154-0.174-0.238c0-0.122,0.107-0.227,0.273-0.269v-0.008c-0.127-0.059-0.223-0.139-0.289-0.239
		c-0.061-0.097-0.09-0.215-0.09-0.354c0-0.402,0.287-0.65,0.75-0.65h0.711V58.943z M50.783,60.63c-0.229,0-0.391,0.118-0.391,0.286
		c0,0.188,0.168,0.29,0.479,0.29c0.299,0,0.477-0.102,0.477-0.274C51.348,60.692,50.994,60.63,50.783,60.63z M50.871,58.978
		c-0.188,0-0.34,0.154-0.34,0.34c0,0.205,0.137,0.344,0.344,0.344c0.191,0,0.33-0.147,0.33-0.353
		C51.205,59.128,51.053,58.978,50.871,58.978z"/>
	<path fill="#004899" d="M52.324,58.306c-0.111,0-0.203-0.101-0.203-0.222c0-0.122,0.092-0.224,0.203-0.224s0.203,0.102,0.203,0.224
		C52.527,58.205,52.436,58.306,52.324,58.306z M52.494,60.538h-0.342v-1.885h0.342V60.538z"/>
	<path fill="#004899" d="M54.607,60.353c-0.207,0.151-0.396,0.224-0.688,0.224c-0.535,0-0.836-0.483-0.836-1.003
		c0-0.571,0.33-0.957,0.805-0.957c0.457,0,0.748,0.34,0.748,1.037h-1.211c0.053,0.373,0.25,0.565,0.578,0.565
		c0.207,0,0.402-0.083,0.604-0.226V60.353z M54.299,59.405c-0.012-0.286-0.16-0.467-0.402-0.467c-0.26,0-0.418,0.169-0.463,0.467
		H54.299z"/>
	<polygon fill="#004899" points="27.496,52.869 27.357,52.869 27.26,52.315 27.26,51.815 27.57,51.815 27.57,52.315 	"/>
	<polygon fill="#004899" points="41.705,58.579 41.566,58.579 41.469,58.024 41.469,57.525 41.777,57.525 41.777,58.024 	"/>
</g>
</svg>
