<?xml version="1.0" encoding="utf-8"?>
<!-- Generator: Adobe Illustrator 16.0.0, SVG Export Plug-In . SVG Version: 6.00 Build 0)  -->
<!DOCTYPE svg PUBLIC "-//W3C//DTD SVG 1.1//EN" "http://www.w3.org/Graphics/SVG/1.1/DTD/svg11.dtd">
<svg version="1.1" id="Calque_1" xmlns="http://www.w3.org/2000/svg" xmlns:xlink="http://www.w3.org/1999/xlink" x="0px" y="0px"
	 width="71.666px" height="78.333px" viewBox="0 0 71.666 78.333" enable-background="new 0 0 71.666 78.333" xml:space="preserve">
<g>
	<path fill="#FFFFFF" d="M12.323,42.466c0.178,0,0.337,0.128,0.37,0.309c0.038,0.203-0.095,0.399-0.298,0.439
		c-0.043,0.009-4.362,0.894-5.252,2.856c-0.868,1.912-1.484,7.689,5.983,11.425c2.017,1.009,4.372,1.502,6.867,2.022
		c6.288,1.314,13.369,2.792,15.744,13.615c2.38-10.823,9.465-12.301,15.758-13.615c2.495-0.521,4.854-1.014,6.871-2.022
		c3.115-1.556,8.322-5.947,5.735-11.426c-0.88-1.867-4.197-2.668-4.854-2.811c-0.068-0.012-0.148-0.029-0.229-0.046
		c-0.201-0.044-0.33-0.24-0.29-0.442c0.039-0.2,0.231-0.334,0.436-0.299c0,0,0.089,0.016,0.244,0.049
		c0.436,0.082,0.88,0.124,1.309,0.124c1.725,0,3.289-0.687,4.518-1.987c1.851-1.954,2.801-5.083,2.609-8.586
		c-0.198-3.604-1.257-5.43-3.146-5.43c-2.416,0-5.371,2.811-5.4,2.839c-0.149,0.144-0.388,0.139-0.532-0.009
		c-0.146-0.149-0.143-0.386,0.005-0.532c7.92-7.818,6.379-17.135,3.795-20.386c-1.917-2.412-5.098-2.918-7.43-2.918
		c-1.616,0-3.35,0.233-5.153,0.691c-2.985,0.761-5.487,1.131-7.647,1.131c-2.889,0-5.106-0.69-6.597-2.052
		c-1.489,1.362-3.703,2.052-6.59,2.052c-2.158,0-4.66-0.37-7.647-1.131c-1.867-0.476-3.652-0.718-5.305-0.718
		c-2.335,0-5.489,0.509-7.259,2.933c-1.118,1.537-1.479,3.237-1.071,5.054c0.554,2.468,2.824,6.292,10.498,10.488l0.49,0.264
		c0.181,0.097,0.252,0.319,0.16,0.502c-0.093,0.183-0.313,0.261-0.498,0.173c-0.056-0.026-0.156-0.081-0.3-0.16l-0.214-0.117
		c-0.001,0-0.001-0.001-0.001-0.001c-2.658-1.444-5.041-2.176-7.079-2.176c-3.504,0-5.729,2.238-6.614,6.653
		c-0.558,2.783-0.526,8.315,1.931,11.314c1.41,1.721,3.443,2.372,6.021,1.936C12.28,42.468,12.302,42.466,12.323,42.466
		L12.323,42.466z"/>
	<polygon fill="#987D4A" points="11.264,51.8 11.652,51.8 11.652,49.436 11.264,49.436 11.264,48.913 12.689,48.913 12.689,49.436 
		12.238,49.436 12.238,51.805 13.177,51.805 13.177,51.323 13.742,51.323 13.742,52.324 11.264,52.324 11.264,51.8 	"/>
	<path fill="#987D4A" d="M13.696,50.259c0.327-0.259,0.488-0.507,0.498-0.652c-0.181-0.051-0.3-0.192-0.3-0.384
		c0-0.197,0.176-0.374,0.399-0.374c0.223,0,0.42,0.161,0.42,0.482c0,0.301-0.213,0.757-0.861,1.13L13.696,50.259L13.696,50.259z"/>
	<path fill="#987D4A" d="M16.172,48.44l0.57-0.778c0.077-0.099,0.181-0.161,0.285-0.161c0.139,0,0.253,0.113,0.253,0.265
		c0,0.098-0.052,0.202-0.16,0.284l-0.772,0.561L16.172,48.44L16.172,48.44z M15.082,51.8h0.39v-2.364h-0.39v-0.523h2.546v0.974
		h-0.56V49.43h-1.011v0.913h1.031v0.498h-1.031v0.964h1.016v-0.456h0.561v0.975h-2.552V51.8L15.082,51.8z"/>
	<path fill="#987D4A" d="M18.02,50.618c0-1.027,0.798-1.768,1.794-1.768c0.793,0,1.322,0.415,1.322,0.825
		c0,0.249-0.161,0.419-0.374,0.419c-0.232,0-0.394-0.145-0.394-0.367c0-0.068,0.016-0.136,0.036-0.177
		c-0.099-0.078-0.296-0.155-0.606-0.155c-0.664,0-1.172,0.508-1.172,1.219c0,0.685,0.477,1.228,1.197,1.228
		c0.399,0,0.727-0.175,0.98-0.45l0.389,0.404c-0.332,0.368-0.824,0.591-1.369,0.591C18.771,52.386,18.02,51.681,18.02,50.618
		L18.02,50.618z"/>
	<path fill="#987D4A" d="M24.451,50.618c0-0.71-0.482-1.223-1.141-1.223c-0.664,0-1.146,0.508-1.146,1.223
		c0,0.71,0.482,1.223,1.146,1.223C23.969,51.841,24.451,51.333,24.451,50.618L24.451,50.618z M21.558,50.618
		c0-1,0.727-1.768,1.763-1.768c1.033,0,1.737,0.772,1.737,1.768c0,1.001-0.726,1.768-1.763,1.768
		C22.263,52.386,21.558,51.613,21.558,50.618L21.558,50.618z"/>
	<polygon fill="#987D4A" points="25.49,51.8 25.88,51.8 25.88,49.436 25.49,49.436 25.49,48.913 26.917,48.913 26.917,49.436 
		26.466,49.436 26.466,51.805 27.403,51.805 27.403,51.323 27.969,51.323 27.969,52.324 25.49,52.324 25.49,51.8 	"/>
	<polygon fill="#987D4A" points="28.334,51.8 28.724,51.8 28.724,49.436 28.334,49.436 28.334,48.913 30.88,48.913 30.88,49.887 
		30.32,49.887 30.32,49.43 29.31,49.43 29.31,50.343 30.341,50.343 30.341,50.841 29.31,50.841 29.31,51.805 30.325,51.805 
		30.325,51.349 30.886,51.349 30.886,52.324 28.334,52.324 28.334,51.8 	"/>
	<path fill="#987D4A" d="M33.781,51.8c0.882,0,1.338-0.477,1.338-1.208c0-0.746-0.529-1.156-1.38-1.156h-0.295V51.8H33.781
		L33.781,51.8z M32.47,51.8h0.389v-2.364H32.47v-0.523h1.291c1.233,0,1.965,0.643,1.965,1.674c0,1.042-0.689,1.737-2.027,1.737
		H32.47V51.8L32.47,51.8z"/>
	<polygon fill="#987D4A" points="36.158,51.8 36.548,51.8 36.548,49.436 36.158,49.436 36.158,48.913 38.705,48.913 38.705,49.887 
		38.145,49.887 38.145,49.43 37.134,49.43 37.134,50.343 38.165,50.343 38.165,50.841 37.134,50.841 37.134,51.805 38.149,51.805 
		38.149,51.349 38.71,51.349 38.71,52.324 36.158,52.324 36.158,51.8 	"/>
	<polygon fill="#987D4A" points="40.294,51.8 40.683,51.8 40.683,49.436 40.294,49.436 40.294,48.913 41.72,48.913 41.72,49.436 
		41.27,49.436 41.27,51.805 42.207,51.805 42.207,51.323 42.772,51.323 42.772,52.324 40.294,52.324 40.294,51.8 	"/>
	<path fill="#987D4A" d="M42.728,50.259c0.326-0.259,0.487-0.507,0.497-0.652c-0.181-0.051-0.3-0.192-0.3-0.384
		c0-0.197,0.176-0.374,0.399-0.374c0.222,0,0.42,0.161,0.42,0.482c0,0.301-0.213,0.757-0.861,1.13L42.728,50.259L42.728,50.259z"/>
	<polygon fill="#987D4A" points="44.112,51.8 44.527,51.8 44.527,49.436 44.112,49.436 44.112,48.913 45.528,48.913 45.528,49.436 
		45.113,49.436 45.113,51.8 45.528,51.8 45.528,52.324 44.112,52.324 44.112,51.8 	"/>
	<polygon fill="#987D4A" points="45.887,51.8 46.292,51.8 46.4,49.436 45.976,49.436 45.976,48.913 46.909,48.913 47.957,50.809 
		49.003,48.913 49.932,48.913 49.932,49.436 49.507,49.436 49.614,51.8 50.02,51.8 50.02,52.324 48.619,52.324 48.619,51.8 
		49.03,51.8 48.962,50.042 47.988,51.753 47.909,51.753 46.935,50.042 46.867,51.8 47.276,51.8 47.276,52.324 45.887,52.324 
		45.887,51.8 	"/>
	<path fill="#987D4A" d="M52.413,50.758l-0.478-1.344l-0.477,1.344H52.413L52.413,50.758z M50.21,51.8h0.296l0.85-2.37h-0.373
		v-0.518h1.929v0.518h-0.373l0.85,2.37h0.296v0.524h-1.312v-0.519h0.395l-0.191-0.56h-1.276l-0.191,0.56h0.415v0.519H50.21V51.8
		L50.21,51.8z"/>
	<path fill="#987D4A" d="M53.888,50.628c0-1.052,0.798-1.778,1.795-1.778c0.793,0,1.322,0.415,1.322,0.825
		c0,0.249-0.161,0.419-0.374,0.419c-0.233,0-0.395-0.145-0.395-0.367c0-0.068,0.017-0.136,0.037-0.177
		c-0.099-0.078-0.295-0.155-0.606-0.155c-0.664,0-1.173,0.492-1.173,1.228c0,0.753,0.545,1.235,1.12,1.235
		c0.358,0,0.607-0.078,0.825-0.218v-0.586h-0.852v-0.497h1.427v1.767h-0.56v-0.254c-0.239,0.187-0.545,0.316-0.928,0.316
		C54.686,52.386,53.888,51.722,53.888,50.628L53.888,50.628z"/>
	<polygon fill="#987D4A" points="57.608,51.8 57.997,51.8 57.997,49.436 57.608,49.436 57.608,48.913 60.154,48.913 60.154,49.887 
		59.595,49.887 59.595,49.43 58.584,49.43 58.584,50.343 59.615,50.343 59.615,50.841 58.584,50.841 58.584,51.805 59.599,51.805 
		59.599,51.349 60.159,51.349 60.159,52.324 57.608,52.324 57.608,51.8 	"/>
	<polygon fill="#987D4A" points="26.74,15.182 26.74,17.012 27.165,17.012 27.165,17.536 25.781,17.536 25.781,17.012 26.17,17.012 
		26.17,14.648 25.781,14.648 25.781,14.124 26.668,14.124 28.348,16.265 28.348,14.648 27.923,14.648 27.923,14.124 29.292,14.124 
		29.292,14.648 28.918,14.648 28.918,17.541 28.602,17.551 26.74,15.182 	"/>
	<path fill="#987D4A" d="M31.716,15.97l-0.478-1.343l-0.477,1.343H31.716L31.716,15.97z M29.512,17.012h0.296l0.85-2.369h-0.372
		v-0.52h1.928v0.52H31.84l0.851,2.369h0.295v0.523h-1.312v-0.518h0.395l-0.192-0.56h-1.275l-0.191,0.56h0.414v0.518h-1.312V17.012
		L29.512,17.012z"/>
	<polygon fill="#987D4A" points="34.207,15.182 34.207,17.012 34.632,17.012 34.632,17.536 33.247,17.536 33.247,17.012 
		33.637,17.012 33.637,14.648 33.247,14.648 33.247,14.124 34.135,14.124 35.814,16.265 35.814,14.648 35.389,14.648 35.389,14.124 
		36.758,14.124 36.758,14.648 36.385,14.648 36.385,17.541 36.067,17.551 34.207,15.182 	"/>
	<polygon fill="#987D4A" points="37.793,17.012 38.217,17.012 38.217,14.632 37.585,14.632 37.585,15.171 37.03,15.171 
		37.03,14.124 39.991,14.124 39.991,15.171 39.437,15.171 39.437,14.632 38.804,14.632 38.804,17.012 39.229,17.012 39.229,17.536 
		37.793,17.536 37.793,17.012 	"/>
	<polygon fill="#987D4A" points="40.304,17.012 40.692,17.012 40.692,14.648 40.304,14.648 40.304,14.124 42.851,14.124 
		42.851,15.099 42.289,15.099 42.289,14.643 41.279,14.643 41.279,15.555 42.311,15.555 42.311,16.053 41.279,16.053 41.279,17.018 
		42.295,17.018 42.295,16.561 42.854,16.561 42.854,17.536 40.304,17.536 40.304,17.012 	"/>
	<path fill="#987D4A" d="M43.235,16.805c0-0.244,0.146-0.405,0.358-0.405c0.228,0,0.373,0.171,0.373,0.337
		c0,0.083-0.016,0.146-0.047,0.208c0.125,0.088,0.316,0.146,0.54,0.146c0.374,0,0.611-0.167,0.611-0.462
		c0-0.279-0.285-0.415-0.628-0.534c-0.632-0.228-1.078-0.43-1.078-1.063c0-0.544,0.44-0.969,1.131-0.969
		c0.637,0,1.13,0.326,1.13,0.736c0,0.244-0.151,0.383-0.348,0.383c-0.239,0-0.373-0.176-0.373-0.347
		c0-0.083,0.016-0.119,0.036-0.161c-0.094-0.057-0.238-0.103-0.451-0.103c-0.336,0-0.534,0.171-0.534,0.419
		c0,0.28,0.285,0.404,0.628,0.529c0.612,0.217,1.073,0.43,1.073,1.063c0,0.648-0.504,1.016-1.202,1.016
		C43.78,17.598,43.235,17.22,43.235,16.805L43.235,16.805z"/>
	<path fill="#987D4A" d="M16.196,4.182c-3.823,0-6.731,1.216-8.412,3.519c-1.351,1.856-1.805,4.003-1.311,6.206
		c0.497,2.212,1.93,4.43,4.259,6.59c0.111,0.104,0.149,0.264,0.098,0.406c-0.053,0.143-0.186,0.241-0.338,0.248
		C7.72,21.277,4.154,22.73,2.91,28.942c-0.634,3.16-0.563,9.095,2.226,12.499c0.595,0.726,1.296,1.31,2.084,1.737
		c0.113,0.061,0.187,0.176,0.196,0.304s-0.047,0.253-0.149,0.33c-0.672,0.507-1.15,1.068-1.422,1.669
		c-1.483,3.265-0.938,9.5,6.643,13.291c2.183,1.091,4.74,1.626,7.214,2.143c6.811,1.423,13.243,2.766,14.999,14.465
		c0.078,0.518,0.515,0.893,1.038,0.894c0.516,0,0.962-0.385,1.038-0.894c1.76-11.699,8.195-13.042,15.011-14.465
		c2.476-0.517,5.035-1.051,7.219-2.143c8.109-4.053,7.724-10.479,6.387-13.312c-0.272-0.578-0.707-1.114-1.287-1.593
		c-0.097-0.081-0.148-0.205-0.137-0.33c0.015-0.126,0.091-0.237,0.202-0.296c0.765-0.397,1.471-0.936,2.102-1.602
		c2.117-2.237,3.211-5.752,2.997-9.646c-0.244-4.435-1.824-6.779-4.571-6.779c-0.187,0-0.382,0.013-0.578,0.037
		c-0.138,0.019-0.278-0.045-0.357-0.161c-0.08-0.117-0.088-0.269-0.021-0.392c3.568-6.644,2.672-13.597-0.059-17.032
		c-1.797-2.262-4.753-3.458-8.547-3.458c-1.735,0-3.588,0.247-5.506,0.735c-2.868,0.731-5.255,1.086-7.295,1.086
		c-2.668,0-4.634-0.632-5.842-1.881c-0.394-0.406-1.116-0.405-1.509,0c-1.207,1.248-3.17,1.88-5.836,1.88
		c-2.039,0-4.425-0.355-7.294-1.086C19.871,4.438,17.968,4.182,16.196,4.182L16.196,4.182z M35.738,77.029L35.738,77.029
		c-0.9-0.001-1.65-0.647-1.784-1.537c-1.679-11.18-7.861-12.471-14.406-13.838c-2.521-0.526-5.128-1.071-7.397-2.206
		C4.092,55.417,3.553,48.7,5.156,45.168c0.262-0.576,0.673-1.115,1.227-1.608c-0.682-0.438-1.296-0.988-1.831-1.641
		c-2.955-3.606-3.044-9.826-2.382-13.126c1.219-6.087,4.562-7.934,7.446-8.321c-2.09-2.087-3.394-4.236-3.878-6.399
		c-0.544-2.422-0.047-4.779,1.436-6.816c1.828-2.505,4.948-3.83,9.022-3.83c1.834,0,3.8,0.264,5.844,0.785
		c2.809,0.715,5.134,1.063,7.108,1.063c2.453,0,4.234-0.555,5.293-1.65c0.338-0.349,0.811-0.549,1.296-0.55
		c0.487,0,0.96,0.2,1.299,0.55c1.059,1.095,2.843,1.651,5.299,1.651c1.977,0,4.302-0.348,7.108-1.063
		c1.979-0.504,3.895-0.759,5.692-0.759c4.032,0,7.192,1.294,9.138,3.743c2.802,3.525,3.8,10.514,0.441,17.264
		c2.239,0.006,4.97,1.315,5.309,7.493c0.225,4.099-0.942,7.819-3.202,10.206c-0.558,0.589-1.172,1.087-1.831,1.487
		c0.469,0.458,0.833,0.957,1.085,1.492c1.447,3.064,1.9,9.996-6.731,14.31c-2.271,1.135-4.88,1.68-7.403,2.206
		c-6.55,1.367-12.735,2.658-14.418,13.838C37.392,76.368,36.624,77.029,35.738,77.029L35.738,77.029z"/>
	<path fill="#987D4A" d="M12.323,42.466c0.178,0,0.337,0.128,0.37,0.309c0.038,0.203-0.095,0.399-0.298,0.439
		c-0.043,0.009-4.362,0.894-5.252,2.856c-0.868,1.912-1.484,7.689,5.983,11.425c2.017,1.009,4.372,1.502,6.867,2.022
		c6.288,1.314,13.369,2.792,15.744,13.615c2.38-10.823,9.465-12.301,15.758-13.615c2.495-0.521,4.854-1.014,6.871-2.022
		c3.115-1.556,8.322-5.947,5.735-11.426c-0.88-1.867-4.197-2.668-4.854-2.811c-0.068-0.012-0.148-0.029-0.229-0.046
		c-0.201-0.044-0.33-0.24-0.29-0.442c0.039-0.2,0.231-0.334,0.436-0.299c0,0,0.089,0.016,0.244,0.049
		c0.436,0.082,0.88,0.124,1.309,0.124c1.725,0,3.289-0.687,4.518-1.987c1.851-1.954,2.801-5.083,2.609-8.586
		c-0.198-3.604-1.257-5.43-3.146-5.43c-2.416,0-5.371,2.811-5.4,2.839c-0.149,0.144-0.388,0.139-0.532-0.009
		c-0.146-0.149-0.143-0.386,0.005-0.532c7.92-7.818,6.379-17.135,3.795-20.386c-1.917-2.412-5.098-2.918-7.43-2.918
		c-1.616,0-3.35,0.233-5.153,0.691c-2.985,0.761-5.487,1.131-7.647,1.131c-2.889,0-5.106-0.69-6.597-2.052
		c-1.489,1.362-3.703,2.052-6.59,2.052c-2.158,0-4.66-0.37-7.647-1.131c-1.867-0.476-3.652-0.718-5.305-0.718
		c-2.335,0-5.489,0.509-7.259,2.933c-1.118,1.537-1.479,3.237-1.071,5.054c0.554,2.468,2.824,6.292,10.498,10.488l0.49,0.264
		c0.181,0.097,0.252,0.319,0.16,0.502c-0.093,0.183-0.313,0.261-0.498,0.173c-0.056-0.026-0.156-0.081-0.3-0.16l-0.214-0.117
		c-0.001,0-0.001-0.001-0.001-0.001c-2.658-1.444-5.041-2.176-7.079-2.176c-3.504,0-5.729,2.238-6.614,6.653
		c-0.558,2.783-0.526,8.315,1.931,11.314c1.41,1.721,3.443,2.372,6.021,1.936C12.28,42.468,12.302,42.466,12.323,42.466
		L12.323,42.466z M35.738,75.601L35.738,75.601c-0.187,0-0.346-0.137-0.373-0.322c-1.826-12.16-8.79-13.615-15.525-15.021
		c-2.545-0.531-4.947-1.033-7.052-2.086c-3.387-1.694-5.638-4.048-6.51-6.81c-0.716-2.266-0.378-4.38,0.179-5.604
		c0.518-1.144,1.895-1.95,3.175-2.479c-1.603-0.236-2.937-0.995-3.977-2.264c-2.642-3.223-2.694-8.908-2.086-11.942
		c0.663-3.312,2.477-7.26,7.354-7.26c0.956,0,1.979,0.148,3.06,0.444c-3.864-2.735-6.209-5.628-6.853-8.498
		c-0.45-2.009-0.036-3.968,1.198-5.664c1.548-2.122,4.269-3.243,7.868-3.243c1.715,0,3.562,0.25,5.492,0.741
		c2.925,0.745,5.365,1.107,7.46,1.107c2.854,0,4.98-0.702,6.318-2.085c0.143-0.146,0.4-0.147,0.543,0
		C37.35,6,39.478,6.702,42.335,6.702c2.097,0,4.537-0.362,7.461-1.107c1.864-0.474,3.661-0.715,5.34-0.715
		c3.582,0,6.355,1.108,8.021,3.204c2.916,3.668,3.628,11.751-1.589,18.788c0.969-0.546,2.077-0.985,3.13-0.985
		c2.365,0,3.676,2.067,3.9,6.145c0.202,3.709-0.823,7.043-2.814,9.146c-1.101,1.163-2.441,1.888-3.927,2.131
		c1.171,0.513,2.389,1.295,2.927,2.439c1.241,2.625,1.566,8.603-6.078,12.423c-2.106,1.053-4.511,1.555-7.056,2.086
		c-6.741,1.406-13.71,2.861-15.538,15.021C36.084,75.464,35.926,75.601,35.738,75.601L35.738,75.601z"/>
	<path fill="#987D4A" d="M18.686,26.161c1.415,1.41,2.718,4.131,2.294,6.46h-4.592C15.963,30.292,17.269,27.57,18.686,26.161
		L18.686,26.161z M21.574,33.385c0.947-3.035-0.985-6.763-2.889-8.243c-1.905,1.479-3.842,5.208-2.894,8.243H21.574L21.574,33.385z"
		/>
	<path fill="#987D4A" d="M25.405,42.986l-0.736-0.168c0.544-2.38,0.88-6.654-2.918-8.678h-6.137
		c-3.81,2.024-3.469,6.298-2.921,8.678l-0.735,0.169c-0.991-4.303,0.137-7.709,3.096-9.405c-1.079-3.511,1.204-7.688,3.408-9.212
		l0.097-0.067h0.236l0.116,0.067c2.2,1.524,4.48,5.702,3.401,9.212C25.263,35.278,26.389,38.685,25.405,42.986L25.405,42.986z
		 M23.191,33.23c0.782-3.714-1.568-7.911-3.846-9.488c-0.381-0.265-0.937-0.264-1.318,0c-2.28,1.577-4.635,5.773-3.853,9.487
		c-2.9,1.954-3.979,5.515-2.962,9.93c0.122,0.528,0.592,0.886,1.111,0.886c0.085,0,0.171-0.01,0.257-0.029
		c0.615-0.142,0.998-0.755,0.856-1.369c-0.49-2.131-0.808-5.92,2.385-7.743h5.722c3.18,1.823,2.868,5.613,2.38,7.744
		c-0.14,0.615,0.244,1.227,0.858,1.368c0.618,0.142,1.228-0.244,1.368-0.858C27.159,38.744,26.082,35.184,23.191,33.23L23.191,33.23
		z"/>
	<path fill="#987D4A" d="M41.657,41.264c-1.111,1.377-2.706,2.11-4.507,2.11c-0.459,0-0.932-0.048-1.414-0.146
		c-2.37,0.479-4.523-0.237-5.921-1.965c-1.611-1.995-1.937-4.923-0.846-7.502c-1.091-2.579-0.766-5.506,0.846-7.501
		c1.398-1.73,3.556-2.446,5.929-1.964c2.856-0.542,5.138,0.388,6.111,2.495c0.1,0.217,0.156,0.435,0.162,0.459l-0.731,0.186
		c0-0.002-0.045-0.172-0.117-0.329c-0.826-1.789-2.829-2.557-5.358-2.055l-0.451,0.089v-0.149c-2.019-0.341-3.771,0.273-4.956,1.742
		c-1.467,1.816-1.732,4.514-0.677,6.873l0.069,0.154l-0.069,0.155c-1.056,2.359-0.79,5.056,0.677,6.872
		c1.245,1.542,3.11,2.139,5.255,1.686l0.078-0.017l0.079,0.017c2.145,0.453,4.01-0.145,5.255-1.686
		c1.421-1.759,1.715-4.345,0.773-6.649h-6.118v-0.755h6.611l0.101,0.223C43.607,36.224,43.302,39.229,41.657,41.264L41.657,41.264z
		 M43.135,33.296c-0.185-0.411-0.592-0.675-1.042-0.675h-6.367c-0.63,0-1.142,0.511-1.142,1.141c0,0.631,0.512,1.142,1.142,1.142
		h5.582c0.606,1.905,0.301,4.003-0.831,5.405c-1.056,1.305-2.655,1.811-4.503,1.417c-0.156-0.032-0.317-0.032-0.474,0
		c-1.849,0.394-3.447-0.112-4.503-1.417c-1.268-1.57-1.498-4.013-0.573-6.08c0.133-0.297,0.133-0.636,0-0.933
		c-0.925-2.066-0.694-4.51,0.573-6.08c1.045-1.293,2.62-1.8,4.443-1.431c0.168,0.044,0.345,0.052,0.519,0.017
		c2.194-0.436,3.838,0.158,4.517,1.626c0.03,0.066,0.061,0.158,0.07,0.196c0.153,0.611,0.773,0.977,1.387,0.826
		c0.611-0.155,0.98-0.776,0.826-1.387c-0.013-0.051-0.084-0.318-0.211-0.591c-1.096-2.374-3.687-3.496-6.8-2.952
		c-2.605-0.483-4.973,0.337-6.526,2.261c-1.725,2.135-2.128,5.219-1.075,7.981c-1.053,2.762-0.649,5.847,1.075,7.981
		c1.553,1.921,3.917,2.74,6.515,2.265c0.484,0.088,0.961,0.131,1.425,0.131c2.028,0,3.828-0.832,5.092-2.396
		C44.075,39.488,44.422,36.172,43.135,33.296L43.135,33.296z"/>
	<path fill="#987D4A" d="M48.438,25.546c3.152-0.739,6.575-0.26,8.391,1.23c0.78,0.64,1.143,1.396,1.078,2.248
		c-0.017,0.099-0.02,0.201-0.01,0.302c0.089,0.88-0.271,1.659-1.071,2.316c-1.814,1.49-5.235,1.969-8.388,1.231V25.546
		L48.438,25.546z M57.31,32.232c0.997-0.817,1.463-1.849,1.347-2.983l-0.02-0.197l0.035-0.03c0.062-1.077-0.406-2.054-1.358-2.837
		c-2.104-1.725-6.118-2.229-9.64-1.231v8.511C51.194,34.462,55.208,33.958,57.31,32.232L57.31,32.232z"/>
	<path fill="#987D4A" d="M59.483,42.958l-0.735-0.165c0.939-4.231-5.408-6.47-9.609-7.952c-0.543-0.192-1.031-0.365-1.465-0.528
		v8.528h-0.757V24.394l0.267-0.082c3.811-1.17,8.271-0.628,10.608,1.291c1.197,0.981,1.756,2.235,1.621,3.626
		c0.122,1.376-0.439,2.616-1.625,3.588c-1.574,1.292-4.113,1.957-6.768,1.897C55.153,36.24,60.438,38.666,59.483,42.958
		L59.483,42.958z M54.238,35.205c1.575-0.33,2.982-0.935,4.035-1.797c1.351-1.108,2.023-2.586,1.907-4.176
		c0.133-1.607-0.541-3.102-1.903-4.22c-2.562-2.102-7.215-2.69-11.317-1.43c-0.479,0.147-0.807,0.59-0.807,1.091v8.977
		c-0.004,0.042-0.001,0.084,0,0.126c0,0.002,0,0.005,0,0.008c0.001,0.02-0.002,0.041,0,0.061v8.997c0,0.63,0.513,1.142,1.143,1.142
		s1.142-0.511,1.142-1.142v-7.438c0.146,0.052,0.293,0.104,0.448,0.159c3.706,1.307,9.909,3.496,9.115,7.066
		c-0.136,0.615,0.253,1.226,0.867,1.362c0.084,0.018,0.167,0.027,0.25,0.027c0.522,0,0.995-0.362,1.112-0.894
		C61.083,39.286,57.805,36.855,54.238,35.205L54.238,35.205z"/>
	<path fill="#E30D15" d="M19.865,24.681c0,0.661-0.537,1.191-1.188,1.191c-0.653,0-1.191-0.531-1.191-1.191
		c0-0.654,0.538-1.186,1.191-1.186C19.328,23.496,19.865,24.027,19.865,24.681L19.865,24.681z"/>
	<path fill="#E30D15" d="M22.448,33.763c0,0.33-0.269,0.596-0.596,0.596c-0.323,0-0.597-0.266-0.597-0.596
		c0-0.324,0.273-0.597,0.597-0.597C22.18,33.167,22.448,33.439,22.448,33.763L22.448,33.763z"/>
	<path fill="#E30D15" d="M16.108,33.763c0,0.33-0.266,0.596-0.596,0.596c-0.327,0-0.593-0.266-0.593-0.596
		c0-0.324,0.266-0.597,0.593-0.597C15.843,33.167,16.108,33.439,16.108,33.763L16.108,33.763z"/>
	<path fill="#E30D15" d="M26.242,42.84c0,0.659-0.528,1.192-1.188,1.192c-0.654,0-1.188-0.534-1.188-1.192
		c0-0.654,0.534-1.185,1.188-1.185C25.714,41.656,26.242,42.187,26.242,42.84L26.242,42.84z"/>
	<path fill="#E30D15" d="M13.511,42.84c0,0.659-0.534,1.192-1.186,1.192c-0.657,0-1.191-0.534-1.191-1.192
		c0-0.654,0.534-1.185,1.191-1.185C12.977,41.656,13.511,42.187,13.511,42.84L13.511,42.84z"/>
	<path fill="#E30D15" d="M36.914,24.681c0,0.661-0.53,1.191-1.187,1.191c-0.654,0-1.188-0.531-1.188-1.191
		c0-0.654,0.534-1.186,1.188-1.186C36.384,23.496,36.914,24.027,36.914,24.681L36.914,24.681z"/>
	<path fill="#E30D15" d="M30.567,33.762c0,0.658-0.527,1.188-1.186,1.188c-0.657,0-1.186-0.531-1.186-1.188
		c0-0.651,0.528-1.186,1.186-1.186C30.04,32.576,30.567,33.111,30.567,33.762L30.567,33.762z"/>
	<path fill="#E30D15" d="M36.321,33.763c0,0.33-0.267,0.596-0.598,0.596c-0.326,0-0.593-0.266-0.593-0.596
		c0-0.324,0.267-0.597,0.593-0.597C36.055,33.167,36.321,33.439,36.321,33.763L36.321,33.763z"/>
	<path fill="#E30D15" d="M42.248,27.341c0,0.33-0.269,0.596-0.597,0.596c-0.325,0-0.596-0.266-0.596-0.596
		c0-0.324,0.271-0.59,0.596-0.59C41.979,26.751,42.248,27.017,42.248,27.341L42.248,27.341z"/>
	<path fill="#E30D15" d="M43.284,33.762c0,0.658-0.532,1.188-1.189,1.188s-1.189-0.531-1.189-1.188c0-0.651,0.532-1.186,1.189-1.186
		S43.284,33.111,43.284,33.762L43.284,33.762z"/>
	<path fill="#E30D15" d="M60.289,42.84c0,0.659-0.529,1.192-1.19,1.192c-0.653,0-1.188-0.534-1.188-1.192
		c0-0.654,0.535-1.185,1.188-1.185C59.76,41.656,60.289,42.187,60.289,42.84L60.289,42.84z"/>
	<path fill="#E30D15" d="M48.486,42.84c0,0.659-0.535,1.192-1.187,1.192c-0.656,0-1.191-0.534-1.191-1.192
		c0-0.654,0.535-1.185,1.191-1.185C47.951,41.656,48.486,42.187,48.486,42.84L48.486,42.84z"/>
	<path fill="#E30D15" d="M47.889,33.763c0,0.33-0.265,0.596-0.595,0.596c-0.328,0-0.592-0.266-0.592-0.596
		c0-0.324,0.264-0.597,0.592-0.597C47.624,33.167,47.889,33.439,47.889,33.763L47.889,33.763z"/>
	<path fill="#E30D15" d="M48.482,24.684c0,0.655-0.533,1.186-1.188,1.186c-0.653,0-1.187-0.531-1.187-1.186
		c0-0.654,0.533-1.188,1.187-1.188C47.949,23.496,48.482,24.03,48.482,24.684L48.482,24.684z"/>
	<path fill="#E30D15" d="M60.223,29.208c0,0.661-0.535,1.191-1.188,1.191c-0.657,0-1.191-0.531-1.191-1.191
		c0-0.655,0.534-1.186,1.191-1.186C59.688,28.023,60.223,28.554,60.223,29.208L60.223,29.208z"/>
	<path fill="#E30D15" d="M36.914,42.847c0,0.656-0.533,1.187-1.191,1.187c-0.654,0-1.186-0.531-1.186-1.187
		c0-0.653,0.531-1.192,1.186-1.192C36.381,41.655,36.914,42.194,36.914,42.847L36.914,42.847z"/>
</g>
</svg>
