<?xml version="1.0" encoding="utf-8"?>
<!-- Generator: Adobe Illustrator 16.0.0, SVG Export Plug-In . SVG Version: 6.00 Build 0)  -->
<!DOCTYPE svg PUBLIC "-//W3C//DTD SVG 1.1//EN" "http://www.w3.org/Graphics/SVG/1.1/DTD/svg11.dtd">
<svg version="1.1" xmlns="http://www.w3.org/2000/svg" xmlns:xlink="http://www.w3.org/1999/xlink" x="0px" y="0px" width="231px"
	 height="229px" viewBox="0 0 231 229" enable-background="new 0 0 231 229" xml:space="preserve">
<g id="Calque_1">
	<circle fill="#F36C59" cx="118.111" cy="115.048" r="104.762"/>
	<g>
		<path fill="#B75149" d="M81.877,135.353H64.374l-1.006,10.797h0.134c1.811-2.481,4.627-3.554,8.718-3.554
			c9.121,0,11.602,7.645,11.602,15.155c0,10.395-3.018,17.569-15.223,17.569c-12.071,0-14.016-7.913-14.016-13.211v-1.273h9.254
			c0,3.152,0.536,7.779,4.694,7.779c3.89,0,5.633-3.085,5.633-9.255c0-7.846-1.208-10.06-5.566-10.06
			c-2.75,0-4.225,1.677-4.561,4.359h-8.65l1.743-25.818h24.746V135.353z"/>
		<path fill="#B75149" d="M105.014,126.903c11.467,0,14.887,6.236,14.887,23.068c0,13.211-0.737,25.349-14.887,25.349
			c-11.468,0-14.888-6.236-14.888-23.068C90.126,139.108,90.864,126.903,105.014,126.903z M99.783,154.331
			c0,11.937,1.073,14.687,5.231,14.687c4.225,0,5.23-3.756,5.23-15.961v-5.164c0-11.936-1.073-14.686-5.23-14.686
			c-4.225,0-5.231,3.756-5.231,15.961V154.331z"/>
		<path fill="#B75149" d="M136.332,126.903c8.315,0,10.059,4.157,10.059,12.809c0,8.65-1.744,12.808-10.059,12.808
			c-8.316,0-10.059-4.157-10.059-12.808C126.273,131.061,128.016,126.903,136.332,126.903z M136.332,147.424
			c2.683,0,2.951-2.683,2.951-7.98c0-4.761-0.268-7.443-2.951-7.443s-2.951,2.683-2.951,7.443
			C133.381,144.741,133.649,147.424,136.332,147.424z M161.077,125.764h5.968l-27.226,50.697h-5.969L161.077,125.764z
			 M164.766,149.704c8.315,0,10.059,4.157,10.059,12.808c0,8.651-1.744,12.809-10.059,12.809s-10.059-4.157-10.059-12.809
			C154.707,153.861,156.45,149.704,164.766,149.704z M164.766,170.225c2.683,0,2.951-2.683,2.951-7.98
			c0-4.762-0.268-7.443-2.951-7.443s-2.951,2.682-2.951,7.443C161.815,167.542,162.083,170.225,164.766,170.225z"/>
	</g>
</g>
<g id="Calque_3" display="none">
</g>
<g id="Calque_4">
	<polygon fill="#F0B95F" points="60.231,91.754 88.073,64.826 89.442,83.082 108.154,64.826 109.067,82.626 126.411,64.369 
		127.324,83.538 146.036,65.282 147.405,91.298 	"/>
	<rect x="59.319" y="92.949" fill="#F0B95F" width="88.086" height="17.8"/>
	<polygon fill="#F0B95F" points="148.601,33.984 159.098,33.984 167.313,110.756 148.601,110.756 	"/>
	<rect x="58" y="111.857" fill="#F0B95F" width="110.667" height="1.825"/>
	<g>
		<path fill="#B75149" d="M183.014,130.369l0.588-1.764l4.705,1.764v-4.789h1.849v4.789l4.663-1.764l0.546,1.89l-4.579,1.513
			l3.025,4.411l-1.513,1.008l-3.15-4.495l-3.234,4.495l-1.47-1.134l3.108-4.369L183.014,130.369z"/>
	</g>
</g>
</svg>
