<?xml version="1.0" encoding="utf-8"?>
<!-- Generator: Adobe Illustrator 16.0.0, SVG Export Plug-In . SVG Version: 6.00 Build 0)  -->
<!DOCTYPE svg PUBLIC "-//W3C//DTD SVG 1.1//EN" "http://www.w3.org/Graphics/SVG/1.1/DTD/svg11.dtd">
<svg version="1.1" id="Calque_1" xmlns="http://www.w3.org/2000/svg" xmlns:xlink="http://www.w3.org/1999/xlink" x="0px" y="0px"
	 width="219px" height="125px" viewBox="0 0 219 125" enable-background="new 0 0 219 125" xml:space="preserve">
<g>
	<path fill="#243C5E" d="M22.315,22.228h2.94c0.458,0,0.894,0.044,1.309,0.133c0.415,0.088,0.784,0.238,1.106,0.448
		c0.322,0.21,0.579,0.49,0.77,0.84c0.191,0.35,0.287,0.782,0.287,1.295c0,0.541-0.103,0.989-0.308,1.344
		c-0.206,0.355-0.469,0.635-0.791,0.84c-0.322,0.206-0.674,0.35-1.057,0.434s-0.747,0.126-1.092,0.126h-1.988v4.452h-1.176V22.228z
		 M23.491,26.596h1.988c0.588,0,1.066-0.133,1.435-0.399s0.553-0.679,0.553-1.239s-0.184-0.973-0.553-1.239
		s-0.847-0.399-1.435-0.399h-1.988V26.596z"/>
	<path fill="#243C5E" d="M30.337,26.428c0.336-0.345,0.735-0.6,1.197-0.763c0.462-0.163,0.931-0.245,1.407-0.245
		c0.97,0,1.67,0.229,2.1,0.686c0.429,0.458,0.644,1.153,0.644,2.086v2.814c0,0.187,0.009,0.38,0.028,0.581
		c0.019,0.201,0.042,0.385,0.07,0.553h-1.05c-0.038-0.149-0.059-0.315-0.063-0.497c-0.005-0.182-0.007-0.343-0.007-0.483h-0.028
		c-0.215,0.336-0.502,0.611-0.861,0.826c-0.359,0.214-0.791,0.322-1.295,0.322c-0.336,0-0.651-0.042-0.945-0.126
		s-0.551-0.208-0.77-0.371c-0.219-0.163-0.395-0.366-0.525-0.609c-0.131-0.243-0.196-0.522-0.196-0.84
		c0-0.542,0.14-0.966,0.42-1.274c0.28-0.308,0.627-0.537,1.043-0.686c0.415-0.149,0.863-0.243,1.344-0.28
		c0.481-0.037,0.922-0.056,1.323-0.056h0.42V27.87c0-0.476-0.143-0.835-0.427-1.078c-0.285-0.243-0.684-0.364-1.197-0.364
		c-0.355,0-0.702,0.058-1.043,0.175s-0.642,0.296-0.903,0.539L30.337,26.428z M33.501,28.99c-0.7,0-1.256,0.098-1.666,0.294
		c-0.411,0.196-0.616,0.518-0.616,0.966c0,0.411,0.138,0.703,0.413,0.875c0.275,0.173,0.618,0.259,1.029,0.259
		c0.317,0,0.595-0.054,0.833-0.161c0.238-0.107,0.437-0.25,0.595-0.427c0.159-0.177,0.28-0.385,0.364-0.623
		c0.084-0.238,0.131-0.492,0.14-0.763v-0.42H33.501z"/>
	<path fill="#243C5E" d="M37.687,27.142c0-0.298-0.01-0.579-0.028-0.84s-0.028-0.5-0.028-0.714h1.036
		c0,0.177,0.004,0.354,0.014,0.532s0.014,0.359,0.014,0.546h0.028c0.075-0.159,0.18-0.312,0.315-0.462
		c0.135-0.149,0.296-0.282,0.483-0.399c0.187-0.117,0.396-0.21,0.63-0.28c0.233-0.07,0.485-0.105,0.756-0.105
		c0.075,0,0.149,0.005,0.224,0.014s0.149,0.028,0.224,0.056l-0.07,1.106c-0.187-0.056-0.383-0.084-0.588-0.084
		c-0.672,0-1.16,0.217-1.463,0.651s-0.455,1.029-0.455,1.785v3.192h-1.092V27.142z"/>
	<path fill="#243C5E" d="M46.199,26.512h-1.932v3.276c0,0.215,0.004,0.413,0.014,0.595c0.009,0.182,0.046,0.341,0.112,0.476
		s0.163,0.243,0.294,0.322c0.131,0.08,0.317,0.119,0.56,0.119c0.159,0,0.322-0.019,0.49-0.056c0.168-0.037,0.326-0.093,0.476-0.168
		l0.042,0.994c-0.187,0.084-0.394,0.145-0.623,0.182c-0.229,0.038-0.446,0.056-0.651,0.056c-0.392,0-0.705-0.051-0.938-0.154
		s-0.415-0.248-0.546-0.434s-0.217-0.417-0.259-0.693s-0.063-0.581-0.063-0.917v-3.598h-1.428v-0.924h1.428v-1.862h1.092v1.862
		h1.932V26.512z"/>
	<path fill="#243C5E" d="M56.88,30.978h-0.028c-0.206,0.374-0.53,0.688-0.973,0.945c-0.443,0.256-0.959,0.385-1.547,0.385
		c-0.458,0-0.887-0.086-1.288-0.259c-0.401-0.173-0.749-0.413-1.043-0.721s-0.525-0.672-0.693-1.092
		c-0.168-0.42-0.252-0.877-0.252-1.372s0.084-0.952,0.252-1.372s0.401-0.784,0.7-1.092c0.299-0.308,0.66-0.548,1.085-0.721
		s0.894-0.259,1.407-0.259c0.476,0,0.912,0.098,1.309,0.294c0.396,0.196,0.744,0.471,1.043,0.826h0.028v-4.984h1.092V32.14H56.88
		V30.978z M56.88,28.864c0-0.345-0.054-0.665-0.161-0.959s-0.264-0.551-0.469-0.77c-0.206-0.219-0.451-0.392-0.735-0.518
		c-0.285-0.126-0.604-0.189-0.959-0.189c-0.355,0-0.675,0.063-0.959,0.189c-0.285,0.126-0.53,0.299-0.735,0.518
		s-0.362,0.476-0.469,0.77c-0.107,0.294-0.161,0.614-0.161,0.959s0.054,0.665,0.161,0.959c0.107,0.294,0.264,0.551,0.469,0.77
		s0.45,0.392,0.735,0.518c0.284,0.126,0.604,0.189,0.959,0.189c0.354,0,0.674-0.063,0.959-0.189
		c0.284-0.126,0.529-0.299,0.735-0.518c0.205-0.219,0.361-0.476,0.469-0.77S56.88,29.209,56.88,28.864z"/>
	<path fill="#243C5E" d="M65.84,30.95c-0.392,0.504-0.822,0.856-1.288,1.057c-0.467,0.2-1.008,0.301-1.624,0.301
		c-0.514,0-0.976-0.091-1.386-0.273s-0.758-0.427-1.043-0.735c-0.285-0.308-0.504-0.672-0.658-1.092
		c-0.154-0.42-0.231-0.868-0.231-1.344c0-0.504,0.084-0.968,0.252-1.393s0.401-0.789,0.7-1.092c0.299-0.303,0.653-0.539,1.064-0.707
		c0.411-0.168,0.859-0.252,1.344-0.252c0.457,0,0.877,0.077,1.26,0.231c0.383,0.154,0.712,0.378,0.987,0.672
		c0.275,0.294,0.487,0.653,0.637,1.078s0.224,0.908,0.224,1.449v0.35h-5.292c0.019,0.28,0.086,0.548,0.203,0.805
		c0.117,0.256,0.268,0.48,0.455,0.672c0.187,0.191,0.406,0.343,0.658,0.455c0.252,0.112,0.527,0.168,0.826,0.168
		c0.476,0,0.877-0.084,1.204-0.252c0.327-0.168,0.621-0.416,0.882-0.742L65.84,30.95z M64.902,28.276
		c-0.019-0.56-0.201-1.008-0.546-1.344s-0.821-0.504-1.428-0.504c-0.607,0-1.097,0.168-1.47,0.504
		c-0.373,0.336-0.597,0.784-0.672,1.344H64.902z"/>
	<path fill="#243C5E" d="M71.762,21.556h1.092V32.14h-1.092V21.556z"/>
	<path fill="#243C5E" d="M74.94,26.428c0.336-0.345,0.735-0.6,1.197-0.763c0.462-0.163,0.931-0.245,1.407-0.245
		c0.97,0,1.67,0.229,2.1,0.686c0.429,0.458,0.644,1.153,0.644,2.086v2.814c0,0.187,0.009,0.38,0.028,0.581
		c0.019,0.201,0.042,0.385,0.07,0.553h-1.05c-0.038-0.149-0.059-0.315-0.063-0.497c-0.005-0.182-0.007-0.343-0.007-0.483h-0.028
		c-0.215,0.336-0.502,0.611-0.861,0.826c-0.359,0.214-0.791,0.322-1.295,0.322c-0.336,0-0.651-0.042-0.945-0.126
		s-0.551-0.208-0.77-0.371c-0.219-0.163-0.395-0.366-0.525-0.609c-0.131-0.243-0.196-0.522-0.196-0.84
		c0-0.542,0.14-0.966,0.42-1.274c0.28-0.308,0.627-0.537,1.043-0.686c0.415-0.149,0.863-0.243,1.344-0.28
		c0.481-0.037,0.922-0.056,1.323-0.056h0.42V27.87c0-0.476-0.143-0.835-0.427-1.078c-0.285-0.243-0.684-0.364-1.197-0.364
		c-0.355,0-0.702,0.058-1.043,0.175s-0.642,0.296-0.903,0.539L74.94,26.428z M78.104,28.99c-0.7,0-1.256,0.098-1.666,0.294
		c-0.411,0.196-0.616,0.518-0.616,0.966c0,0.411,0.138,0.703,0.413,0.875c0.275,0.173,0.618,0.259,1.029,0.259
		c0.317,0,0.595-0.054,0.833-0.161c0.238-0.107,0.437-0.25,0.595-0.427c0.159-0.177,0.28-0.385,0.364-0.623
		c0.084-0.238,0.131-0.492,0.14-0.763v-0.42H78.104z"/>
	<path fill="#243C5E" d="M86.743,26.512h-1.428v-0.924h1.428v-1.47c0-0.401,0.037-0.768,0.112-1.099
		c0.075-0.331,0.203-0.618,0.385-0.861c0.182-0.243,0.422-0.432,0.721-0.567s0.667-0.203,1.106-0.203
		c0.14,0,0.289,0.014,0.448,0.042c0.158,0.028,0.289,0.07,0.392,0.126l-0.154,0.98c-0.261-0.093-0.509-0.14-0.742-0.14
		c-0.28,0-0.499,0.049-0.658,0.147c-0.159,0.098-0.278,0.233-0.357,0.406c-0.08,0.173-0.126,0.38-0.14,0.623
		s-0.021,0.504-0.021,0.784v1.232h1.596v0.924h-1.596v5.628h-1.092V26.512z"/>
	<path fill="#243C5E" d="M90.508,26.428c0.336-0.345,0.735-0.6,1.197-0.763c0.462-0.163,0.931-0.245,1.407-0.245
		c0.97,0,1.67,0.229,2.1,0.686c0.429,0.458,0.644,1.153,0.644,2.086v2.814c0,0.187,0.009,0.38,0.028,0.581
		c0.019,0.201,0.042,0.385,0.07,0.553h-1.05c-0.038-0.149-0.059-0.315-0.063-0.497c-0.005-0.182-0.007-0.343-0.007-0.483h-0.028
		c-0.215,0.336-0.502,0.611-0.861,0.826c-0.359,0.214-0.791,0.322-1.295,0.322c-0.336,0-0.651-0.042-0.945-0.126
		s-0.551-0.208-0.77-0.371c-0.219-0.163-0.395-0.366-0.525-0.609c-0.131-0.243-0.196-0.522-0.196-0.84
		c0-0.542,0.14-0.966,0.42-1.274c0.28-0.308,0.627-0.537,1.043-0.686c0.415-0.149,0.863-0.243,1.344-0.28
		c0.481-0.037,0.922-0.056,1.323-0.056h0.42V27.87c0-0.476-0.143-0.835-0.427-1.078c-0.285-0.243-0.684-0.364-1.197-0.364
		c-0.355,0-0.702,0.058-1.043,0.175s-0.642,0.296-0.903,0.539L90.508,26.428z M93.672,28.99c-0.7,0-1.256,0.098-1.666,0.294
		c-0.411,0.196-0.616,0.518-0.616,0.966c0,0.411,0.138,0.703,0.413,0.875c0.275,0.173,0.618,0.259,1.029,0.259
		c0.317,0,0.595-0.054,0.833-0.161c0.238-0.107,0.437-0.25,0.595-0.427c0.159-0.177,0.28-0.385,0.364-0.623
		c0.084-0.238,0.131-0.492,0.14-0.763v-0.42H93.672z"/>
	<path fill="#243C5E" d="M102.521,27.226c-0.234-0.28-0.486-0.483-0.756-0.609s-0.569-0.189-0.896-0.189
		c-0.364,0-0.686,0.063-0.966,0.189c-0.28,0.126-0.511,0.301-0.693,0.525c-0.182,0.224-0.32,0.483-0.413,0.777
		c-0.094,0.294-0.14,0.609-0.14,0.945s0.054,0.651,0.161,0.945c0.107,0.294,0.256,0.553,0.448,0.777
		c0.191,0.224,0.422,0.399,0.693,0.525c0.271,0.126,0.574,0.189,0.91,0.189c0.719,0,1.274-0.271,1.666-0.812l0.812,0.77
		c-0.317,0.364-0.691,0.63-1.12,0.798s-0.882,0.252-1.358,0.252c-0.504,0-0.966-0.084-1.386-0.252s-0.777-0.406-1.071-0.714
		c-0.294-0.308-0.522-0.672-0.686-1.092c-0.163-0.42-0.245-0.882-0.245-1.386c0-0.495,0.082-0.952,0.245-1.372
		c0.164-0.42,0.395-0.784,0.693-1.092c0.298-0.308,0.655-0.548,1.071-0.721c0.415-0.173,0.875-0.259,1.379-0.259
		c0.485,0,0.945,0.084,1.379,0.252c0.434,0.168,0.814,0.429,1.141,0.784L102.521,27.226z"/>
	<path fill="#243C5E" d="M108.19,26.512h-1.932v3.276c0,0.215,0.004,0.413,0.014,0.595c0.009,0.182,0.046,0.341,0.112,0.476
		s0.163,0.243,0.294,0.322c0.131,0.08,0.317,0.119,0.56,0.119c0.159,0,0.322-0.019,0.49-0.056c0.168-0.037,0.326-0.093,0.476-0.168
		l0.042,0.994c-0.187,0.084-0.394,0.145-0.623,0.182c-0.229,0.038-0.446,0.056-0.651,0.056c-0.392,0-0.705-0.051-0.938-0.154
		s-0.415-0.248-0.546-0.434s-0.217-0.417-0.259-0.693s-0.063-0.581-0.063-0.917v-3.598h-1.428v-0.924h1.428v-1.862h1.092v1.862
		h1.932V26.512z"/>
	<path fill="#243C5E" d="M115.246,30.585c0,0.299,0.009,0.579,0.028,0.84s0.028,0.5,0.028,0.714h-1.036
		c0-0.177-0.005-0.354-0.014-0.532c-0.009-0.177-0.014-0.359-0.014-0.546h-0.028c-0.075,0.159-0.18,0.313-0.315,0.462
		c-0.135,0.149-0.296,0.283-0.483,0.399c-0.187,0.117-0.397,0.21-0.63,0.28c-0.233,0.07-0.485,0.105-0.756,0.105
		c-0.429,0-0.8-0.065-1.113-0.196c-0.313-0.131-0.572-0.313-0.777-0.546c-0.206-0.233-0.357-0.515-0.455-0.847
		c-0.098-0.331-0.147-0.693-0.147-1.085v-4.046h1.092v3.934c0,0.551,0.121,0.985,0.364,1.302c0.242,0.317,0.621,0.476,1.134,0.476
		c0.354,0,0.66-0.061,0.917-0.182c0.257-0.121,0.467-0.294,0.63-0.518c0.164-0.224,0.285-0.49,0.364-0.798
		c0.079-0.308,0.119-0.649,0.119-1.022v-3.192h1.092V30.585z"/>
	<path fill="#243C5E" d="M117.318,27.142c0-0.298-0.01-0.579-0.028-0.84s-0.028-0.5-0.028-0.714h1.036
		c0,0.177,0.004,0.354,0.014,0.532s0.014,0.359,0.014,0.546h0.028c0.075-0.159,0.18-0.312,0.315-0.462
		c0.135-0.149,0.296-0.282,0.483-0.399c0.187-0.117,0.396-0.21,0.63-0.28c0.233-0.07,0.485-0.105,0.756-0.105
		c0.075,0,0.149,0.005,0.224,0.014s0.149,0.028,0.224,0.056l-0.07,1.106c-0.187-0.056-0.383-0.084-0.588-0.084
		c-0.672,0-1.16,0.217-1.463,0.651s-0.455,1.029-0.455,1.785v3.192h-1.092V27.142z"/>
	<path fill="#243C5E" d="M127.846,30.95c-0.392,0.504-0.822,0.856-1.288,1.057c-0.467,0.2-1.008,0.301-1.624,0.301
		c-0.514,0-0.976-0.091-1.386-0.273s-0.758-0.427-1.043-0.735c-0.285-0.308-0.504-0.672-0.658-1.092
		c-0.154-0.42-0.231-0.868-0.231-1.344c0-0.504,0.084-0.968,0.252-1.393s0.401-0.789,0.7-1.092c0.299-0.303,0.653-0.539,1.064-0.707
		c0.411-0.168,0.859-0.252,1.344-0.252c0.457,0,0.877,0.077,1.26,0.231c0.383,0.154,0.712,0.378,0.987,0.672
		c0.275,0.294,0.487,0.653,0.637,1.078s0.224,0.908,0.224,1.449v0.35h-5.292c0.019,0.28,0.086,0.548,0.203,0.805
		c0.117,0.256,0.268,0.48,0.455,0.672c0.187,0.191,0.406,0.343,0.658,0.455c0.252,0.112,0.527,0.168,0.826,0.168
		c0.476,0,0.877-0.084,1.204-0.252c0.327-0.168,0.621-0.416,0.882-0.742L127.846,30.95z M126.908,28.276
		c-0.019-0.56-0.201-1.008-0.546-1.344s-0.821-0.504-1.428-0.504c-0.607,0-1.097,0.168-1.47,0.504
		c-0.373,0.336-0.597,0.784-0.672,1.344H126.908z"/>
	<path fill="#243C5E" d="M139.522,30.95c-0.392,0.504-0.822,0.856-1.288,1.057c-0.467,0.2-1.008,0.301-1.624,0.301
		c-0.514,0-0.976-0.091-1.386-0.273s-0.758-0.427-1.043-0.735c-0.285-0.308-0.504-0.672-0.658-1.092
		c-0.154-0.42-0.231-0.868-0.231-1.344c0-0.504,0.084-0.968,0.252-1.393s0.401-0.789,0.7-1.092c0.299-0.303,0.653-0.539,1.064-0.707
		c0.411-0.168,0.859-0.252,1.344-0.252c0.457,0,0.877,0.077,1.26,0.231c0.383,0.154,0.712,0.378,0.987,0.672
		c0.275,0.294,0.487,0.653,0.637,1.078s0.224,0.908,0.224,1.449v0.35h-5.292c0.019,0.28,0.086,0.548,0.203,0.805
		c0.117,0.256,0.268,0.48,0.455,0.672c0.187,0.191,0.406,0.343,0.658,0.455c0.252,0.112,0.527,0.168,0.826,0.168
		c0.476,0,0.877-0.084,1.204-0.252c0.327-0.168,0.621-0.416,0.882-0.742L139.522,30.95z M138.584,28.276
		c-0.019-0.56-0.201-1.008-0.546-1.344s-0.821-0.504-1.428-0.504c-0.607,0-1.097,0.168-1.47,0.504
		c-0.373,0.336-0.597,0.784-0.672,1.344H138.584z M137.016,22.003h1.54l-2.002,2.016h-0.994L137.016,22.003z"/>
	<path fill="#243C5E" d="M141.552,21.556h1.092V32.14h-1.092V21.556z"/>
	<path fill="#243C5E" d="M150.667,30.95c-0.392,0.504-0.822,0.856-1.288,1.057c-0.467,0.2-1.008,0.301-1.624,0.301
		c-0.514,0-0.976-0.091-1.386-0.273s-0.758-0.427-1.043-0.735c-0.285-0.308-0.504-0.672-0.658-1.092
		c-0.154-0.42-0.231-0.868-0.231-1.344c0-0.504,0.084-0.968,0.252-1.393s0.401-0.789,0.7-1.092c0.299-0.303,0.653-0.539,1.064-0.707
		c0.411-0.168,0.859-0.252,1.344-0.252c0.457,0,0.877,0.077,1.26,0.231c0.383,0.154,0.712,0.378,0.987,0.672
		c0.275,0.294,0.487,0.653,0.637,1.078s0.224,0.908,0.224,1.449v0.35h-5.292c0.019,0.28,0.086,0.548,0.203,0.805
		c0.117,0.256,0.268,0.48,0.455,0.672c0.187,0.191,0.406,0.343,0.658,0.455c0.252,0.112,0.527,0.168,0.826,0.168
		c0.476,0,0.877-0.084,1.204-0.252c0.327-0.168,0.621-0.416,0.882-0.742L150.667,30.95z M149.729,28.276
		c-0.019-0.56-0.201-1.008-0.546-1.344s-0.821-0.504-1.428-0.504c-0.607,0-1.097,0.168-1.47,0.504
		c-0.373,0.336-0.597,0.784-0.672,1.344H149.729z"/>
	<path fill="#243C5E" d="M157.261,27.226c-0.234-0.28-0.486-0.483-0.756-0.609s-0.569-0.189-0.896-0.189
		c-0.364,0-0.686,0.063-0.966,0.189c-0.28,0.126-0.511,0.301-0.693,0.525c-0.182,0.224-0.32,0.483-0.413,0.777
		c-0.094,0.294-0.14,0.609-0.14,0.945s0.054,0.651,0.161,0.945c0.107,0.294,0.256,0.553,0.448,0.777
		c0.191,0.224,0.422,0.399,0.693,0.525c0.271,0.126,0.574,0.189,0.91,0.189c0.719,0,1.274-0.271,1.666-0.812l0.812,0.77
		c-0.317,0.364-0.691,0.63-1.12,0.798s-0.882,0.252-1.358,0.252c-0.504,0-0.966-0.084-1.386-0.252s-0.777-0.406-1.071-0.714
		c-0.294-0.308-0.522-0.672-0.686-1.092c-0.163-0.42-0.245-0.882-0.245-1.386c0-0.495,0.082-0.952,0.245-1.372
		c0.164-0.42,0.395-0.784,0.693-1.092c0.298-0.308,0.655-0.548,1.071-0.721c0.415-0.173,0.875-0.259,1.379-0.259
		c0.485,0,0.945,0.084,1.379,0.252c0.434,0.168,0.814,0.429,1.141,0.784L157.261,27.226z"/>
	<path fill="#243C5E" d="M162.931,26.512h-1.932v3.276c0,0.215,0.004,0.413,0.014,0.595c0.009,0.182,0.046,0.341,0.112,0.476
		s0.163,0.243,0.294,0.322c0.131,0.08,0.317,0.119,0.56,0.119c0.159,0,0.322-0.019,0.49-0.056c0.168-0.037,0.326-0.093,0.476-0.168
		l0.042,0.994c-0.187,0.084-0.394,0.145-0.623,0.182c-0.229,0.038-0.446,0.056-0.651,0.056c-0.392,0-0.705-0.051-0.938-0.154
		s-0.415-0.248-0.546-0.434s-0.217-0.417-0.259-0.693s-0.063-0.581-0.063-0.917v-3.598h-1.428v-0.924h1.428v-1.862h1.092v1.862
		h1.932V26.512z"/>
	<path fill="#243C5E" d="M164.274,27.142c0-0.298-0.01-0.579-0.028-0.84s-0.028-0.5-0.028-0.714h1.036
		c0,0.177,0.004,0.354,0.014,0.532s0.014,0.359,0.014,0.546h0.028c0.075-0.159,0.18-0.312,0.315-0.462
		c0.135-0.149,0.296-0.282,0.483-0.399c0.187-0.117,0.396-0.21,0.63-0.28c0.233-0.07,0.485-0.105,0.756-0.105
		c0.075,0,0.149,0.005,0.224,0.014s0.149,0.028,0.224,0.056l-0.07,1.106c-0.187-0.056-0.383-0.084-0.588-0.084
		c-0.672,0-1.16,0.217-1.463,0.651s-0.455,1.029-0.455,1.785v3.192h-1.092V27.142z"/>
	<path fill="#243C5E" d="M169.048,23.026c0-0.215,0.077-0.401,0.231-0.56c0.154-0.159,0.343-0.238,0.567-0.238
		c0.224,0,0.413,0.08,0.567,0.238c0.154,0.159,0.231,0.345,0.231,0.56c0,0.233-0.075,0.425-0.224,0.574
		c-0.149,0.149-0.341,0.224-0.574,0.224c-0.233,0-0.425-0.075-0.574-0.224C169.123,23.451,169.048,23.259,169.048,23.026z
		 M169.3,25.588h1.092v6.552H169.3V25.588z"/>
	<path fill="#243C5E" d="M179.1,35.332h-1.092v-4.144h-0.028c-0.299,0.355-0.646,0.63-1.043,0.826
		c-0.397,0.196-0.833,0.294-1.309,0.294c-0.514,0-0.982-0.086-1.407-0.259c-0.425-0.173-0.786-0.413-1.085-0.721
		s-0.532-0.672-0.7-1.092c-0.168-0.42-0.252-0.877-0.252-1.372c0-0.485,0.084-0.938,0.252-1.358c0.168-0.42,0.399-0.784,0.693-1.092
		s0.642-0.55,1.043-0.728c0.401-0.177,0.831-0.266,1.288-0.266c0.588,0,1.104,0.128,1.547,0.385s0.768,0.572,0.973,0.945h0.028
		v-1.162h1.092V35.332z M178.008,28.864c0-0.345-0.054-0.665-0.161-0.959s-0.264-0.551-0.469-0.77
		c-0.206-0.219-0.451-0.392-0.735-0.518c-0.285-0.126-0.604-0.189-0.959-0.189c-0.355,0-0.675,0.063-0.959,0.189
		c-0.285,0.126-0.53,0.299-0.735,0.518s-0.362,0.476-0.469,0.77c-0.107,0.294-0.161,0.614-0.161,0.959s0.054,0.665,0.161,0.959
		c0.107,0.294,0.264,0.551,0.469,0.77s0.45,0.392,0.735,0.518c0.284,0.126,0.604,0.189,0.959,0.189c0.354,0,0.674-0.063,0.959-0.189
		c0.284-0.126,0.529-0.299,0.735-0.518c0.205-0.219,0.361-0.476,0.469-0.77S178.008,29.209,178.008,28.864z"/>
	<path fill="#243C5E" d="M186.828,30.585c0,0.299,0.009,0.579,0.028,0.84s0.028,0.5,0.028,0.714h-1.036
		c0-0.177-0.005-0.354-0.014-0.532c-0.009-0.177-0.014-0.359-0.014-0.546h-0.028c-0.075,0.159-0.18,0.313-0.315,0.462
		c-0.135,0.149-0.296,0.283-0.483,0.399c-0.187,0.117-0.397,0.21-0.63,0.28c-0.233,0.07-0.485,0.105-0.756,0.105
		c-0.429,0-0.8-0.065-1.113-0.196c-0.313-0.131-0.572-0.313-0.777-0.546c-0.206-0.233-0.357-0.515-0.455-0.847
		c-0.098-0.331-0.147-0.693-0.147-1.085v-4.046h1.092v3.934c0,0.551,0.121,0.985,0.364,1.302c0.242,0.317,0.621,0.476,1.134,0.476
		c0.354,0,0.66-0.061,0.917-0.182c0.257-0.121,0.467-0.294,0.63-0.518c0.164-0.224,0.285-0.49,0.364-0.798
		c0.079-0.308,0.119-0.649,0.119-1.022v-3.192h1.092V30.585z"/>
	<path fill="#243C5E" d="M194.752,30.95c-0.392,0.504-0.822,0.856-1.288,1.057c-0.467,0.2-1.008,0.301-1.624,0.301
		c-0.514,0-0.976-0.091-1.386-0.273s-0.758-0.427-1.043-0.735c-0.285-0.308-0.504-0.672-0.658-1.092
		c-0.154-0.42-0.231-0.868-0.231-1.344c0-0.504,0.084-0.968,0.252-1.393s0.401-0.789,0.7-1.092c0.299-0.303,0.653-0.539,1.064-0.707
		c0.411-0.168,0.859-0.252,1.344-0.252c0.457,0,0.877,0.077,1.26,0.231c0.383,0.154,0.712,0.378,0.987,0.672
		c0.275,0.294,0.487,0.653,0.637,1.078s0.224,0.908,0.224,1.449v0.35h-5.292c0.019,0.28,0.086,0.548,0.203,0.805
		c0.117,0.256,0.268,0.48,0.455,0.672c0.187,0.191,0.406,0.343,0.658,0.455c0.252,0.112,0.527,0.168,0.826,0.168
		c0.476,0,0.877-0.084,1.204-0.252c0.327-0.168,0.621-0.416,0.882-0.742L194.752,30.95z M193.814,28.276
		c-0.019-0.56-0.201-1.008-0.546-1.344s-0.821-0.504-1.428-0.504c-0.607,0-1.097,0.168-1.47,0.504
		c-0.373,0.336-0.597,0.784-0.672,1.344H193.814z"/>
	<path fill="#243C5E" d="M49.664,52.131h-1.092v-4.144h-0.028c-0.299,0.355-0.646,0.63-1.043,0.826
		c-0.397,0.196-0.833,0.294-1.309,0.294c-0.514,0-0.982-0.086-1.407-0.259c-0.425-0.173-0.786-0.413-1.085-0.721
		s-0.532-0.672-0.7-1.092c-0.168-0.42-0.252-0.877-0.252-1.372c0-0.485,0.084-0.938,0.252-1.358c0.168-0.42,0.399-0.784,0.693-1.092
		s0.642-0.55,1.043-0.728c0.401-0.177,0.831-0.266,1.288-0.266c0.588,0,1.104,0.128,1.547,0.385s0.768,0.572,0.973,0.945h0.028
		v-1.162h1.092V52.131z M48.572,45.664c0-0.345-0.054-0.665-0.161-0.959s-0.264-0.551-0.469-0.77
		c-0.206-0.219-0.451-0.392-0.735-0.518c-0.285-0.126-0.604-0.189-0.959-0.189c-0.355,0-0.675,0.063-0.959,0.189
		c-0.285,0.126-0.53,0.299-0.735,0.518s-0.362,0.476-0.469,0.77c-0.107,0.294-0.161,0.614-0.161,0.959s0.054,0.665,0.161,0.959
		c0.107,0.294,0.264,0.551,0.469,0.77s0.45,0.392,0.735,0.518c0.284,0.126,0.604,0.189,0.959,0.189c0.354,0,0.674-0.063,0.959-0.189
		c0.284-0.126,0.529-0.299,0.735-0.518c0.205-0.219,0.361-0.476,0.469-0.77S48.572,46.009,48.572,45.664z"/>
	<path fill="#243C5E" d="M57.392,47.385c0,0.299,0.009,0.579,0.028,0.84s0.028,0.5,0.028,0.714h-1.036
		c0-0.177-0.005-0.354-0.014-0.532c-0.009-0.177-0.014-0.359-0.014-0.546h-0.028c-0.075,0.159-0.18,0.313-0.315,0.462
		c-0.135,0.149-0.296,0.283-0.483,0.399c-0.187,0.117-0.397,0.21-0.63,0.28c-0.233,0.07-0.485,0.105-0.756,0.105
		c-0.429,0-0.8-0.065-1.113-0.196c-0.313-0.131-0.572-0.313-0.777-0.546c-0.206-0.233-0.357-0.515-0.455-0.847
		c-0.098-0.331-0.147-0.693-0.147-1.085v-4.046h1.092v3.934c0,0.551,0.121,0.985,0.364,1.302c0.242,0.317,0.621,0.476,1.134,0.476
		c0.354,0,0.66-0.061,0.917-0.182c0.257-0.121,0.467-0.294,0.63-0.518c0.164-0.224,0.285-0.49,0.364-0.798
		c0.079-0.308,0.119-0.649,0.119-1.022v-3.192h1.092V47.385z"/>
	<path fill="#243C5E" d="M65.316,47.75c-0.392,0.504-0.822,0.856-1.288,1.057c-0.467,0.2-1.008,0.301-1.624,0.301
		c-0.514,0-0.976-0.091-1.386-0.273s-0.758-0.427-1.043-0.735c-0.285-0.308-0.504-0.672-0.658-1.092
		c-0.154-0.42-0.231-0.868-0.231-1.344c0-0.504,0.084-0.968,0.252-1.393s0.401-0.789,0.7-1.092c0.299-0.303,0.653-0.539,1.064-0.707
		c0.411-0.168,0.859-0.252,1.344-0.252c0.457,0,0.877,0.077,1.26,0.231c0.383,0.154,0.712,0.378,0.987,0.672
		c0.275,0.294,0.487,0.653,0.637,1.078s0.224,0.908,0.224,1.449V46h-5.292c0.019,0.28,0.086,0.548,0.203,0.805
		c0.117,0.256,0.268,0.48,0.455,0.672c0.187,0.191,0.406,0.343,0.658,0.455c0.252,0.112,0.527,0.168,0.826,0.168
		c0.476,0,0.877-0.084,1.204-0.252c0.327-0.168,0.621-0.416,0.882-0.742L65.316,47.75z M64.378,45.076
		c-0.019-0.56-0.201-1.008-0.546-1.344s-0.821-0.504-1.428-0.504c-0.607,0-1.097,0.168-1.47,0.504
		c-0.373,0.336-0.597,0.784-0.672,1.344H64.378z"/>
	<path fill="#243C5E" d="M71.084,42.388h1.092v0.952h0.028c0.298-0.354,0.646-0.63,1.043-0.826c0.396-0.196,0.833-0.294,1.309-0.294
		c0.513,0,0.982,0.086,1.407,0.259s0.786,0.413,1.085,0.721c0.299,0.308,0.532,0.672,0.7,1.092S78,45.169,78,45.664
		s-0.084,0.952-0.252,1.372c-0.168,0.42-0.399,0.784-0.693,1.092s-0.642,0.548-1.043,0.721c-0.401,0.172-0.831,0.259-1.288,0.259
		c-0.588,0-1.104-0.128-1.547-0.385c-0.444-0.257-0.768-0.572-0.973-0.945h-0.028v4.354h-1.092V42.388z M72.176,45.664
		c0,0.345,0.054,0.665,0.161,0.959s0.264,0.551,0.469,0.77c0.205,0.219,0.45,0.392,0.735,0.518S74.145,48.1,74.5,48.1
		c0.354,0,0.674-0.063,0.959-0.189s0.53-0.299,0.735-0.518c0.206-0.219,0.362-0.476,0.469-0.77c0.107-0.294,0.161-0.614,0.161-0.959
		s-0.054-0.665-0.161-0.959c-0.107-0.294-0.264-0.551-0.469-0.77c-0.205-0.219-0.45-0.392-0.735-0.518s-0.604-0.189-0.959-0.189
		c-0.355,0-0.674,0.063-0.959,0.189s-0.53,0.299-0.735,0.518c-0.206,0.219-0.362,0.476-0.469,0.77S72.176,45.318,72.176,45.664z"/>
	<path fill="#243C5E" d="M85.546,47.75c-0.392,0.504-0.822,0.856-1.288,1.057c-0.467,0.2-1.008,0.301-1.624,0.301
		c-0.514,0-0.976-0.091-1.386-0.273s-0.758-0.427-1.043-0.735c-0.285-0.308-0.504-0.672-0.658-1.092
		c-0.154-0.42-0.231-0.868-0.231-1.344c0-0.504,0.084-0.968,0.252-1.393s0.401-0.789,0.7-1.092c0.299-0.303,0.653-0.539,1.064-0.707
		c0.411-0.168,0.859-0.252,1.344-0.252c0.457,0,0.877,0.077,1.26,0.231c0.383,0.154,0.712,0.378,0.987,0.672
		c0.275,0.294,0.487,0.653,0.637,1.078s0.224,0.908,0.224,1.449V46h-5.292c0.019,0.28,0.086,0.548,0.203,0.805
		c0.117,0.256,0.268,0.48,0.455,0.672c0.187,0.191,0.406,0.343,0.658,0.455c0.252,0.112,0.527,0.168,0.826,0.168
		c0.476,0,0.877-0.084,1.204-0.252c0.327-0.168,0.621-0.416,0.882-0.742L85.546,47.75z M84.608,45.076
		c-0.019-0.56-0.201-1.008-0.546-1.344s-0.821-0.504-1.428-0.504c-0.607,0-1.097,0.168-1.47,0.504
		c-0.373,0.336-0.597,0.784-0.672,1.344H84.608z"/>
	<path fill="#243C5E" d="M93.19,47.385c0,0.299,0.009,0.579,0.028,0.84s0.028,0.5,0.028,0.714H92.21
		c0-0.177-0.005-0.354-0.014-0.532c-0.009-0.177-0.014-0.359-0.014-0.546h-0.028c-0.075,0.159-0.18,0.313-0.315,0.462
		c-0.135,0.149-0.296,0.283-0.483,0.399c-0.187,0.117-0.397,0.21-0.63,0.28c-0.233,0.07-0.485,0.105-0.756,0.105
		c-0.429,0-0.8-0.065-1.113-0.196c-0.313-0.131-0.572-0.313-0.777-0.546c-0.206-0.233-0.357-0.515-0.455-0.847
		c-0.098-0.331-0.147-0.693-0.147-1.085v-4.046h1.092v3.934c0,0.551,0.121,0.985,0.364,1.302c0.242,0.317,0.621,0.476,1.134,0.476
		c0.354,0,0.66-0.061,0.917-0.182c0.257-0.121,0.467-0.294,0.63-0.518c0.164-0.224,0.285-0.49,0.364-0.798
		c0.079-0.308,0.119-0.649,0.119-1.022v-3.192h1.092V47.385z"/>
	<path fill="#243C5E" d="M98.846,43.312h-1.932v3.276c0,0.215,0.004,0.413,0.014,0.595c0.009,0.182,0.046,0.341,0.112,0.476
		s0.163,0.243,0.294,0.322c0.131,0.08,0.317,0.119,0.56,0.119c0.159,0,0.322-0.019,0.49-0.056c0.168-0.037,0.326-0.093,0.476-0.168
		l0.042,0.994c-0.187,0.084-0.394,0.145-0.623,0.182c-0.229,0.038-0.446,0.056-0.651,0.056c-0.392,0-0.705-0.051-0.938-0.154
		s-0.415-0.248-0.546-0.434s-0.217-0.417-0.259-0.693s-0.063-0.581-0.063-0.917v-3.598h-1.428v-0.924h1.428v-1.862h1.092v1.862
		h1.932V43.312z"/>
	<path fill="#243C5E" d="M103.998,43.228c0.336-0.345,0.735-0.6,1.197-0.763c0.462-0.163,0.931-0.245,1.407-0.245
		c0.97,0,1.67,0.229,2.1,0.686c0.429,0.458,0.644,1.153,0.644,2.086v2.814c0,0.187,0.009,0.38,0.028,0.581
		c0.019,0.201,0.042,0.385,0.07,0.553h-1.05c-0.038-0.149-0.059-0.315-0.063-0.497c-0.005-0.182-0.007-0.343-0.007-0.483h-0.028
		c-0.215,0.336-0.502,0.611-0.861,0.826c-0.359,0.214-0.791,0.322-1.295,0.322c-0.336,0-0.651-0.042-0.945-0.126
		s-0.551-0.208-0.77-0.371c-0.219-0.163-0.395-0.366-0.525-0.609c-0.131-0.243-0.196-0.522-0.196-0.84
		c0-0.542,0.14-0.966,0.42-1.274c0.28-0.308,0.627-0.537,1.043-0.686c0.415-0.149,0.863-0.243,1.344-0.28
		c0.481-0.037,0.922-0.056,1.323-0.056h0.42v-0.196c0-0.476-0.143-0.835-0.427-1.078c-0.285-0.243-0.684-0.364-1.197-0.364
		c-0.355,0-0.702,0.058-1.043,0.175s-0.642,0.296-0.903,0.539L103.998,43.228z M107.162,45.79c-0.7,0-1.256,0.098-1.666,0.294
		c-0.411,0.196-0.616,0.518-0.616,0.966c0,0.411,0.138,0.703,0.413,0.875c0.275,0.173,0.618,0.259,1.029,0.259
		c0.317,0,0.595-0.054,0.833-0.161c0.238-0.107,0.437-0.25,0.595-0.427c0.159-0.177,0.28-0.385,0.364-0.623
		c0.084-0.238,0.131-0.492,0.14-0.763v-0.42H107.162z"/>
	<path fill="#243C5E" d="M114.932,43.312H113v3.276c0,0.215,0.004,0.413,0.014,0.595c0.009,0.182,0.046,0.341,0.112,0.476
		s0.163,0.243,0.294,0.322c0.131,0.08,0.317,0.119,0.56,0.119c0.159,0,0.322-0.019,0.49-0.056c0.168-0.037,0.326-0.093,0.476-0.168
		l0.042,0.994c-0.187,0.084-0.394,0.145-0.623,0.182c-0.229,0.038-0.446,0.056-0.651,0.056c-0.392,0-0.705-0.051-0.938-0.154
		s-0.415-0.248-0.546-0.434s-0.217-0.417-0.259-0.693s-0.063-0.581-0.063-0.917v-3.598h-1.428v-0.924h1.428v-1.862H113v1.862h1.932
		V43.312z"/>
	<path fill="#243C5E" d="M119.874,43.312h-1.932v3.276c0,0.215,0.004,0.413,0.014,0.595c0.009,0.182,0.046,0.341,0.112,0.476
		s0.163,0.243,0.294,0.322c0.131,0.08,0.317,0.119,0.56,0.119c0.159,0,0.322-0.019,0.49-0.056c0.168-0.037,0.326-0.093,0.476-0.168
		l0.042,0.994c-0.187,0.084-0.394,0.145-0.623,0.182c-0.229,0.038-0.446,0.056-0.651,0.056c-0.392,0-0.705-0.051-0.938-0.154
		s-0.415-0.248-0.546-0.434s-0.217-0.417-0.259-0.693s-0.063-0.581-0.063-0.917v-3.598h-1.428v-0.924h1.428v-1.862h1.092v1.862
		h1.932V43.312z"/>
	<path fill="#243C5E" d="M127.069,47.75c-0.392,0.504-0.822,0.856-1.288,1.057c-0.467,0.2-1.008,0.301-1.624,0.301
		c-0.514,0-0.976-0.091-1.386-0.273s-0.758-0.427-1.043-0.735c-0.285-0.308-0.504-0.672-0.658-1.092
		c-0.154-0.42-0.231-0.868-0.231-1.344c0-0.504,0.084-0.968,0.252-1.393s0.401-0.789,0.7-1.092c0.299-0.303,0.653-0.539,1.064-0.707
		c0.411-0.168,0.859-0.252,1.344-0.252c0.457,0,0.877,0.077,1.26,0.231c0.383,0.154,0.712,0.378,0.987,0.672
		c0.275,0.294,0.487,0.653,0.637,1.078s0.224,0.908,0.224,1.449V46h-5.292c0.019,0.28,0.086,0.548,0.203,0.805
		c0.117,0.256,0.268,0.48,0.455,0.672c0.187,0.191,0.406,0.343,0.658,0.455c0.252,0.112,0.527,0.168,0.826,0.168
		c0.476,0,0.877-0.084,1.204-0.252c0.327-0.168,0.621-0.416,0.882-0.742L127.069,47.75z M126.131,45.076
		c-0.019-0.56-0.201-1.008-0.546-1.344s-0.821-0.504-1.428-0.504c-0.607,0-1.097,0.168-1.47,0.504
		c-0.373,0.336-0.597,0.784-0.672,1.344H126.131z"/>
	<path fill="#243C5E" d="M128.847,39.826c0-0.215,0.077-0.401,0.231-0.56c0.154-0.159,0.343-0.238,0.567-0.238
		c0.224,0,0.413,0.08,0.567,0.238c0.154,0.159,0.231,0.345,0.231,0.56c0,0.233-0.075,0.425-0.224,0.574
		c-0.149,0.149-0.341,0.224-0.574,0.224c-0.233,0-0.425-0.075-0.574-0.224C128.922,40.25,128.847,40.059,128.847,39.826z
		 M129.099,42.388h1.092v6.552h-1.092V42.388z"/>
	<path fill="#243C5E" d="M132.361,43.941c0-0.298-0.01-0.579-0.028-0.84s-0.028-0.5-0.028-0.714h1.036
		c0,0.177,0.004,0.354,0.014,0.532s0.014,0.359,0.014,0.546h0.028c0.075-0.159,0.18-0.312,0.315-0.462
		c0.135-0.149,0.296-0.282,0.483-0.399c0.187-0.117,0.396-0.21,0.63-0.28c0.233-0.07,0.485-0.105,0.756-0.105
		c0.429,0,0.8,0.065,1.113,0.196c0.312,0.131,0.571,0.312,0.777,0.546c0.205,0.233,0.357,0.516,0.455,0.847
		c0.098,0.331,0.147,0.693,0.147,1.085v4.046h-1.092v-3.934c0-0.55-0.121-0.984-0.364-1.302s-0.621-0.476-1.134-0.476
		c-0.355,0-0.661,0.061-0.917,0.182c-0.257,0.121-0.467,0.294-0.63,0.518c-0.163,0.224-0.285,0.49-0.364,0.798
		c-0.08,0.308-0.119,0.648-0.119,1.022v3.192h-1.092V43.941z"/>
	<path fill="#243C5E" d="M145.591,47.777h-0.028c-0.206,0.374-0.53,0.688-0.973,0.945c-0.443,0.256-0.959,0.385-1.547,0.385
		c-0.458,0-0.887-0.086-1.288-0.259c-0.401-0.173-0.749-0.413-1.043-0.721s-0.525-0.672-0.693-1.092
		c-0.168-0.42-0.252-0.877-0.252-1.372s0.084-0.952,0.252-1.372s0.401-0.784,0.7-1.092c0.299-0.308,0.66-0.548,1.085-0.721
		s0.894-0.259,1.407-0.259c0.476,0,0.912,0.098,1.309,0.294c0.396,0.196,0.744,0.471,1.043,0.826h0.028v-4.984h1.092v10.584h-1.092
		V47.777z M145.591,45.664c0-0.345-0.054-0.665-0.161-0.959s-0.264-0.551-0.469-0.77c-0.206-0.219-0.451-0.392-0.735-0.518
		c-0.285-0.126-0.604-0.189-0.959-0.189c-0.355,0-0.675,0.063-0.959,0.189c-0.285,0.126-0.53,0.299-0.735,0.518
		s-0.362,0.476-0.469,0.77c-0.107,0.294-0.161,0.614-0.161,0.959s0.054,0.665,0.161,0.959c0.107,0.294,0.264,0.551,0.469,0.77
		s0.45,0.392,0.735,0.518c0.284,0.126,0.604,0.189,0.959,0.189c0.354,0,0.674-0.063,0.959-0.189
		c0.284-0.126,0.529-0.299,0.735-0.518c0.205-0.219,0.361-0.476,0.469-0.77S145.591,46.009,145.591,45.664z"/>
	<path fill="#243C5E" d="M148.699,43.941c0-0.298-0.01-0.579-0.028-0.84s-0.028-0.5-0.028-0.714h1.036
		c0,0.177,0.004,0.354,0.014,0.532s0.014,0.359,0.014,0.546h0.028c0.075-0.159,0.18-0.312,0.315-0.462
		c0.135-0.149,0.296-0.282,0.483-0.399c0.187-0.117,0.396-0.21,0.63-0.28c0.233-0.07,0.485-0.105,0.756-0.105
		c0.075,0,0.149,0.005,0.224,0.014s0.149,0.028,0.224,0.056l-0.07,1.106c-0.187-0.056-0.383-0.084-0.588-0.084
		c-0.672,0-1.16,0.217-1.463,0.651s-0.455,1.029-0.455,1.785v3.192h-1.092V43.941z"/>
	<path fill="#243C5E" d="M159.228,47.75c-0.392,0.504-0.822,0.856-1.288,1.057c-0.467,0.2-1.008,0.301-1.624,0.301
		c-0.514,0-0.976-0.091-1.386-0.273s-0.758-0.427-1.043-0.735c-0.285-0.308-0.504-0.672-0.658-1.092
		c-0.154-0.42-0.231-0.868-0.231-1.344c0-0.504,0.084-0.968,0.252-1.393s0.401-0.789,0.7-1.092c0.299-0.303,0.653-0.539,1.064-0.707
		c0.411-0.168,0.859-0.252,1.344-0.252c0.457,0,0.877,0.077,1.26,0.231c0.383,0.154,0.712,0.378,0.987,0.672
		c0.275,0.294,0.487,0.653,0.637,1.078s0.224,0.908,0.224,1.449V46h-5.292c0.019,0.28,0.086,0.548,0.203,0.805
		c0.117,0.256,0.268,0.48,0.455,0.672c0.187,0.191,0.406,0.343,0.658,0.455c0.252,0.112,0.527,0.168,0.826,0.168
		c0.476,0,0.877-0.084,1.204-0.252c0.327-0.168,0.621-0.416,0.882-0.742L159.228,47.75z M158.29,45.076
		c-0.019-0.56-0.201-1.008-0.546-1.344s-0.821-0.504-1.428-0.504c-0.607,0-1.097,0.168-1.47,0.504
		c-0.373,0.336-0.597,0.784-0.672,1.344H158.29z"/>
	<path fill="#243C5E" d="M165.149,38.355h1.092v10.584h-1.092V38.355z"/>
	<path fill="#243C5E" d="M168.328,43.228c0.336-0.345,0.735-0.6,1.197-0.763c0.462-0.163,0.931-0.245,1.407-0.245
		c0.97,0,1.67,0.229,2.1,0.686c0.429,0.458,0.644,1.153,0.644,2.086v2.814c0,0.187,0.009,0.38,0.028,0.581
		c0.019,0.201,0.042,0.385,0.07,0.553h-1.05c-0.038-0.149-0.059-0.315-0.063-0.497c-0.005-0.182-0.007-0.343-0.007-0.483h-0.028
		c-0.215,0.336-0.502,0.611-0.861,0.826c-0.359,0.214-0.791,0.322-1.295,0.322c-0.336,0-0.651-0.042-0.945-0.126
		s-0.551-0.208-0.77-0.371c-0.219-0.163-0.395-0.366-0.525-0.609c-0.131-0.243-0.196-0.522-0.196-0.84
		c0-0.542,0.14-0.966,0.42-1.274c0.28-0.308,0.627-0.537,1.043-0.686c0.415-0.149,0.863-0.243,1.344-0.28
		c0.481-0.037,0.922-0.056,1.323-0.056h0.42v-0.196c0-0.476-0.143-0.835-0.427-1.078c-0.285-0.243-0.684-0.364-1.197-0.364
		c-0.355,0-0.702,0.058-1.043,0.175s-0.642,0.296-0.903,0.539L168.328,43.228z M171.492,45.79c-0.7,0-1.256,0.098-1.666,0.294
		c-0.411,0.196-0.616,0.518-0.616,0.966c0,0.411,0.138,0.703,0.413,0.875c0.275,0.173,0.618,0.259,1.029,0.259
		c0.317,0,0.595-0.054,0.833-0.161c0.238-0.107,0.437-0.25,0.595-0.427c0.159-0.177,0.28-0.385,0.364-0.623
		c0.084-0.238,0.131-0.492,0.14-0.763v-0.42H171.492z"/>
	<path fill="#243C5E" d="M36.21,60.826c-0.234-0.28-0.486-0.483-0.756-0.609s-0.569-0.189-0.896-0.189
		c-0.364,0-0.686,0.063-0.966,0.189c-0.28,0.126-0.511,0.301-0.693,0.525c-0.182,0.224-0.32,0.483-0.413,0.777
		c-0.094,0.294-0.14,0.609-0.14,0.945s0.054,0.651,0.161,0.945c0.107,0.294,0.256,0.553,0.448,0.777
		c0.191,0.224,0.422,0.399,0.693,0.525c0.271,0.126,0.574,0.189,0.91,0.189c0.719,0,1.274-0.271,1.666-0.812l0.812,0.77
		c-0.317,0.364-0.691,0.63-1.12,0.798s-0.882,0.252-1.358,0.252c-0.504,0-0.966-0.084-1.386-0.252s-0.777-0.406-1.071-0.714
		c-0.294-0.308-0.522-0.672-0.686-1.092c-0.163-0.42-0.245-0.882-0.245-1.386c0-0.495,0.082-0.952,0.245-1.372
		c0.164-0.42,0.395-0.784,0.693-1.092c0.298-0.308,0.655-0.548,1.071-0.721c0.415-0.173,0.875-0.259,1.379-0.259
		c0.485,0,0.945,0.084,1.379,0.252c0.434,0.168,0.814,0.429,1.141,0.784L36.21,60.826z"/>
	<path fill="#243C5E" d="M37.918,62.464c0-0.513,0.088-0.98,0.266-1.4c0.177-0.42,0.42-0.782,0.728-1.085
		c0.308-0.303,0.677-0.539,1.106-0.707c0.429-0.168,0.896-0.252,1.4-0.252c0.504,0,0.97,0.084,1.4,0.252
		c0.429,0.168,0.798,0.404,1.106,0.707c0.308,0.304,0.55,0.665,0.728,1.085c0.177,0.42,0.266,0.887,0.266,1.4s-0.089,0.98-0.266,1.4
		c-0.178,0.42-0.42,0.782-0.728,1.085s-0.677,0.539-1.106,0.707c-0.43,0.168-0.896,0.252-1.4,0.252c-0.504,0-0.971-0.084-1.4-0.252
		s-0.798-0.404-1.106-0.707c-0.308-0.303-0.551-0.665-0.728-1.085S37.918,62.977,37.918,62.464z M39.094,62.464
		c0,0.345,0.054,0.665,0.161,0.959c0.107,0.294,0.264,0.551,0.469,0.77s0.45,0.392,0.735,0.518c0.284,0.126,0.604,0.189,0.959,0.189
		c0.354,0,0.674-0.063,0.959-0.189c0.284-0.126,0.529-0.299,0.735-0.518c0.205-0.219,0.361-0.476,0.469-0.77
		s0.161-0.614,0.161-0.959s-0.054-0.665-0.161-0.959s-0.264-0.551-0.469-0.77c-0.206-0.219-0.451-0.392-0.735-0.518
		c-0.285-0.126-0.604-0.189-0.959-0.189c-0.355,0-0.675,0.063-0.959,0.189c-0.285,0.126-0.53,0.299-0.735,0.518
		s-0.362,0.476-0.469,0.77C39.147,61.799,39.094,62.119,39.094,62.464z"/>
	<path fill="#243C5E" d="M46.612,60.742c0-0.298-0.01-0.579-0.028-0.84s-0.028-0.5-0.028-0.714h1.036
		c0,0.177,0.004,0.354,0.014,0.532s0.014,0.359,0.014,0.546h0.028c0.075-0.159,0.18-0.312,0.315-0.462
		c0.135-0.149,0.296-0.282,0.483-0.399c0.187-0.117,0.396-0.21,0.63-0.28c0.233-0.07,0.485-0.105,0.756-0.105
		c0.429,0,0.8,0.065,1.113,0.196c0.312,0.131,0.571,0.312,0.777,0.546c0.205,0.233,0.357,0.516,0.455,0.847
		c0.098,0.331,0.147,0.693,0.147,1.085v4.046h-1.092v-3.934c0-0.55-0.121-0.984-0.364-1.302s-0.621-0.476-1.134-0.476
		c-0.355,0-0.661,0.061-0.917,0.182c-0.257,0.121-0.467,0.294-0.63,0.518c-0.163,0.224-0.285,0.49-0.364,0.798
		c-0.08,0.308-0.119,0.648-0.119,1.022v3.192h-1.092V60.742z"/>
	<path fill="#243C5E" d="M54.536,64.018c0.215,0.271,0.45,0.485,0.707,0.644c0.257,0.159,0.581,0.238,0.973,0.238
		c0.168,0,0.338-0.019,0.511-0.056c0.172-0.037,0.329-0.098,0.469-0.182s0.252-0.189,0.336-0.315s0.126-0.277,0.126-0.455
		c0-0.177-0.04-0.322-0.119-0.434c-0.08-0.112-0.185-0.208-0.315-0.287c-0.13-0.079-0.28-0.143-0.448-0.189
		c-0.168-0.047-0.341-0.089-0.518-0.126c-0.308-0.065-0.602-0.14-0.882-0.224c-0.28-0.084-0.525-0.194-0.735-0.329
		c-0.21-0.135-0.378-0.31-0.504-0.525s-0.189-0.49-0.189-0.826c0-0.317,0.07-0.597,0.21-0.84c0.14-0.243,0.327-0.443,0.56-0.602
		s0.495-0.28,0.784-0.364c0.289-0.084,0.588-0.126,0.896-0.126c0.466,0,0.898,0.094,1.295,0.28c0.396,0.187,0.707,0.49,0.931,0.91
		l-0.91,0.602c-0.14-0.233-0.324-0.422-0.553-0.567c-0.229-0.145-0.506-0.217-0.833-0.217c-0.149,0-0.301,0.019-0.455,0.056
		c-0.154,0.037-0.292,0.093-0.413,0.168c-0.122,0.075-0.222,0.17-0.301,0.287c-0.079,0.117-0.119,0.25-0.119,0.399
		c0,0.14,0.044,0.259,0.133,0.357c0.088,0.098,0.21,0.184,0.364,0.259c0.154,0.075,0.332,0.14,0.532,0.196
		c0.201,0.056,0.408,0.103,0.623,0.14c0.289,0.056,0.564,0.128,0.826,0.217c0.261,0.089,0.49,0.208,0.686,0.357
		c0.196,0.149,0.35,0.336,0.462,0.56c0.112,0.224,0.168,0.499,0.168,0.826c0,0.374-0.075,0.691-0.224,0.952
		s-0.348,0.474-0.595,0.637c-0.247,0.163-0.527,0.282-0.84,0.357c-0.313,0.074-0.632,0.112-0.959,0.112
		c-0.56,0-1.043-0.086-1.449-0.259c-0.406-0.173-0.772-0.492-1.099-0.959L54.536,64.018z"/>
	<path fill="#243C5E" d="M59.982,62.464c0-0.513,0.088-0.98,0.266-1.4c0.177-0.42,0.42-0.782,0.728-1.085
		c0.308-0.303,0.677-0.539,1.106-0.707c0.429-0.168,0.896-0.252,1.4-0.252c0.504,0,0.97,0.084,1.4,0.252
		c0.429,0.168,0.798,0.404,1.106,0.707c0.308,0.304,0.55,0.665,0.728,1.085c0.177,0.42,0.266,0.887,0.266,1.4s-0.089,0.98-0.266,1.4
		c-0.178,0.42-0.42,0.782-0.728,1.085s-0.677,0.539-1.106,0.707c-0.43,0.168-0.896,0.252-1.4,0.252c-0.504,0-0.971-0.084-1.4-0.252
		s-0.798-0.404-1.106-0.707c-0.308-0.303-0.551-0.665-0.728-1.085S59.982,62.977,59.982,62.464z M61.158,62.464
		c0,0.345,0.054,0.665,0.161,0.959c0.107,0.294,0.264,0.551,0.469,0.77s0.45,0.392,0.735,0.518c0.284,0.126,0.604,0.189,0.959,0.189
		c0.354,0,0.674-0.063,0.959-0.189c0.284-0.126,0.529-0.299,0.735-0.518c0.205-0.219,0.361-0.476,0.469-0.77
		s0.161-0.614,0.161-0.959s-0.054-0.665-0.161-0.959s-0.264-0.551-0.469-0.77c-0.206-0.219-0.451-0.392-0.735-0.518
		c-0.285-0.126-0.604-0.189-0.959-0.189c-0.355,0-0.675,0.063-0.959,0.189c-0.285,0.126-0.53,0.299-0.735,0.518
		s-0.362,0.476-0.469,0.77C61.211,61.799,61.158,62.119,61.158,62.464z"/>
	<path fill="#243C5E" d="M68.676,60.742c0-0.298-0.01-0.579-0.028-0.84s-0.028-0.5-0.028-0.714h1.036
		c0,0.177,0.004,0.354,0.014,0.532s0.014,0.359,0.014,0.546h0.028c0.075-0.159,0.18-0.312,0.315-0.462
		c0.135-0.149,0.296-0.282,0.483-0.399c0.187-0.117,0.396-0.21,0.63-0.28c0.233-0.07,0.485-0.105,0.756-0.105
		c0.354,0,0.651,0.044,0.889,0.133s0.436,0.196,0.595,0.322c0.158,0.126,0.282,0.262,0.371,0.406s0.161,0.273,0.217,0.385
		c0.243-0.392,0.522-0.697,0.84-0.917c0.317-0.219,0.728-0.329,1.232-0.329c0.467,0,0.859,0.063,1.176,0.189
		c0.317,0.126,0.574,0.308,0.77,0.546c0.196,0.238,0.336,0.527,0.42,0.868c0.084,0.341,0.126,0.721,0.126,1.141v3.976h-1.092v-3.92
		c0-0.224-0.023-0.443-0.07-0.658c-0.047-0.214-0.131-0.406-0.252-0.574c-0.122-0.168-0.285-0.303-0.49-0.406
		c-0.205-0.103-0.467-0.154-0.784-0.154c-0.233,0-0.453,0.047-0.658,0.14s-0.385,0.224-0.539,0.392
		c-0.154,0.168-0.275,0.371-0.364,0.609c-0.089,0.238-0.133,0.501-0.133,0.791v3.78h-1.092v-3.71c0-0.728-0.098-1.244-0.294-1.547
		s-0.518-0.455-0.966-0.455c-0.355,0-0.661,0.061-0.917,0.182c-0.257,0.121-0.467,0.294-0.63,0.518
		c-0.163,0.224-0.285,0.49-0.364,0.798c-0.08,0.308-0.119,0.648-0.119,1.022v3.192h-1.092V60.742z"/>
	<path fill="#243C5E" d="M80.604,60.742c0-0.298-0.01-0.579-0.028-0.84s-0.028-0.5-0.028-0.714h1.036
		c0,0.177,0.004,0.354,0.014,0.532s0.014,0.359,0.014,0.546h0.028c0.075-0.159,0.18-0.312,0.315-0.462
		c0.135-0.149,0.296-0.282,0.483-0.399c0.187-0.117,0.396-0.21,0.63-0.28c0.233-0.07,0.485-0.105,0.756-0.105
		c0.354,0,0.651,0.044,0.889,0.133s0.436,0.196,0.595,0.322c0.158,0.126,0.282,0.262,0.371,0.406s0.161,0.273,0.217,0.385
		c0.243-0.392,0.522-0.697,0.84-0.917c0.317-0.219,0.728-0.329,1.232-0.329c0.467,0,0.859,0.063,1.176,0.189
		c0.317,0.126,0.574,0.308,0.77,0.546c0.196,0.238,0.336,0.527,0.42,0.868c0.084,0.341,0.126,0.721,0.126,1.141v3.976h-1.092v-3.92
		c0-0.224-0.023-0.443-0.07-0.658c-0.047-0.214-0.131-0.406-0.252-0.574c-0.122-0.168-0.285-0.303-0.49-0.406
		c-0.205-0.103-0.467-0.154-0.784-0.154c-0.233,0-0.453,0.047-0.658,0.14s-0.385,0.224-0.539,0.392
		c-0.154,0.168-0.275,0.371-0.364,0.609c-0.089,0.238-0.133,0.501-0.133,0.791v3.78h-1.092v-3.71c0-0.728-0.098-1.244-0.294-1.547
		s-0.518-0.455-0.966-0.455c-0.355,0-0.661,0.061-0.917,0.182c-0.257,0.121-0.467,0.294-0.63,0.518
		c-0.163,0.224-0.285,0.49-0.364,0.798c-0.08,0.308-0.119,0.648-0.119,1.022v3.192h-1.092V60.742z"/>
	<path fill="#243C5E" d="M92.447,60.028c0.336-0.345,0.735-0.6,1.197-0.763c0.462-0.163,0.931-0.245,1.407-0.245
		c0.97,0,1.67,0.229,2.1,0.686c0.429,0.458,0.644,1.153,0.644,2.086v2.814c0,0.187,0.009,0.38,0.028,0.581
		c0.019,0.201,0.042,0.385,0.07,0.553h-1.05c-0.038-0.149-0.059-0.315-0.063-0.497c-0.005-0.182-0.007-0.343-0.007-0.483h-0.028
		c-0.215,0.336-0.502,0.611-0.861,0.826c-0.359,0.214-0.791,0.322-1.295,0.322c-0.336,0-0.651-0.042-0.945-0.126
		s-0.551-0.208-0.77-0.371c-0.219-0.163-0.395-0.366-0.525-0.609c-0.131-0.243-0.196-0.522-0.196-0.84
		c0-0.542,0.14-0.966,0.42-1.274c0.28-0.308,0.627-0.537,1.043-0.686c0.415-0.149,0.863-0.243,1.344-0.28
		c0.481-0.037,0.922-0.056,1.323-0.056h0.42V61.47c0-0.476-0.143-0.835-0.427-1.078c-0.285-0.243-0.684-0.364-1.197-0.364
		c-0.355,0-0.702,0.058-1.043,0.175s-0.642,0.296-0.903,0.539L92.447,60.028z M95.611,62.59c-0.7,0-1.256,0.098-1.666,0.294
		c-0.411,0.196-0.616,0.518-0.616,0.966c0,0.411,0.138,0.703,0.413,0.875c0.275,0.173,0.618,0.259,1.029,0.259
		c0.317,0,0.595-0.054,0.833-0.161c0.238-0.107,0.437-0.25,0.595-0.427c0.159-0.177,0.28-0.385,0.364-0.623
		c0.084-0.238,0.131-0.492,0.14-0.763v-0.42H95.611z"/>
	<path fill="#243C5E" d="M103.381,60.112h-1.932v3.276c0,0.215,0.004,0.413,0.014,0.595c0.009,0.182,0.046,0.341,0.112,0.476
		s0.163,0.243,0.294,0.322c0.131,0.08,0.317,0.119,0.56,0.119c0.159,0,0.322-0.019,0.49-0.056c0.168-0.037,0.326-0.093,0.476-0.168
		l0.042,0.994c-0.187,0.084-0.394,0.145-0.623,0.182c-0.229,0.038-0.446,0.056-0.651,0.056c-0.392,0-0.705-0.051-0.938-0.154
		s-0.415-0.248-0.546-0.434s-0.217-0.417-0.259-0.693s-0.063-0.581-0.063-0.917v-3.598h-1.428v-0.924h1.428v-1.862h1.092v1.862
		h1.932V60.112z"/>
	<path fill="#243C5E" d="M104.584,56.626c0-0.215,0.077-0.401,0.231-0.56c0.154-0.159,0.343-0.238,0.567-0.238
		c0.224,0,0.413,0.08,0.567,0.238c0.154,0.159,0.231,0.345,0.231,0.56c0,0.233-0.075,0.425-0.224,0.574
		c-0.149,0.149-0.341,0.224-0.574,0.224c-0.233,0-0.425-0.075-0.574-0.224C104.659,57.051,104.584,56.859,104.584,56.626z
		 M104.836,59.188h1.092v6.552h-1.092V59.188z"/>
	<path fill="#243C5E" d="M107.721,62.464c0-0.513,0.088-0.98,0.266-1.4c0.177-0.42,0.42-0.782,0.728-1.085
		c0.308-0.303,0.677-0.539,1.106-0.707c0.429-0.168,0.896-0.252,1.4-0.252c0.504,0,0.97,0.084,1.4,0.252
		c0.429,0.168,0.798,0.404,1.106,0.707c0.308,0.304,0.55,0.665,0.728,1.085c0.177,0.42,0.266,0.887,0.266,1.4s-0.089,0.98-0.266,1.4
		c-0.178,0.42-0.42,0.782-0.728,1.085s-0.677,0.539-1.106,0.707c-0.43,0.168-0.896,0.252-1.4,0.252c-0.504,0-0.971-0.084-1.4-0.252
		s-0.798-0.404-1.106-0.707c-0.308-0.303-0.551-0.665-0.728-1.085S107.721,62.977,107.721,62.464z M108.896,62.464
		c0,0.345,0.054,0.665,0.161,0.959c0.107,0.294,0.264,0.551,0.469,0.77s0.45,0.392,0.735,0.518c0.284,0.126,0.604,0.189,0.959,0.189
		c0.354,0,0.674-0.063,0.959-0.189c0.284-0.126,0.529-0.299,0.735-0.518c0.205-0.219,0.361-0.476,0.469-0.77
		s0.161-0.614,0.161-0.959s-0.054-0.665-0.161-0.959s-0.264-0.551-0.469-0.77c-0.206-0.219-0.451-0.392-0.735-0.518
		c-0.285-0.126-0.604-0.189-0.959-0.189c-0.355,0-0.675,0.063-0.959,0.189c-0.285,0.126-0.53,0.299-0.735,0.518
		s-0.362,0.476-0.469,0.77C108.95,61.799,108.896,62.119,108.896,62.464z"/>
	<path fill="#243C5E" d="M116.415,60.742c0-0.298-0.01-0.579-0.028-0.84s-0.028-0.5-0.028-0.714h1.036
		c0,0.177,0.004,0.354,0.014,0.532s0.014,0.359,0.014,0.546h0.028c0.075-0.159,0.18-0.312,0.315-0.462
		c0.135-0.149,0.296-0.282,0.483-0.399c0.187-0.117,0.396-0.21,0.63-0.28c0.233-0.07,0.485-0.105,0.756-0.105
		c0.429,0,0.8,0.065,1.113,0.196c0.312,0.131,0.571,0.312,0.777,0.546c0.205,0.233,0.357,0.516,0.455,0.847
		c0.098,0.331,0.147,0.693,0.147,1.085v4.046h-1.092v-3.934c0-0.55-0.121-0.984-0.364-1.302s-0.621-0.476-1.134-0.476
		c-0.355,0-0.661,0.061-0.917,0.182c-0.257,0.121-0.467,0.294-0.63,0.518c-0.163,0.224-0.285,0.49-0.364,0.798
		c-0.08,0.308-0.119,0.648-0.119,1.022v3.192h-1.092V60.742z"/>
	<path fill="#243C5E" d="M133.537,64.578h-0.028c-0.206,0.374-0.53,0.688-0.973,0.945c-0.443,0.256-0.959,0.385-1.547,0.385
		c-0.458,0-0.887-0.086-1.288-0.259c-0.401-0.173-0.749-0.413-1.043-0.721s-0.525-0.672-0.693-1.092
		c-0.168-0.42-0.252-0.877-0.252-1.372s0.084-0.952,0.252-1.372s0.401-0.784,0.7-1.092c0.299-0.308,0.66-0.548,1.085-0.721
		s0.894-0.259,1.407-0.259c0.476,0,0.912,0.098,1.309,0.294c0.396,0.196,0.744,0.471,1.043,0.826h0.028v-4.984h1.092V65.74h-1.092
		V64.578z M133.537,62.464c0-0.345-0.054-0.665-0.161-0.959s-0.264-0.551-0.469-0.77c-0.206-0.219-0.451-0.392-0.735-0.518
		c-0.285-0.126-0.604-0.189-0.959-0.189c-0.355,0-0.675,0.063-0.959,0.189c-0.285,0.126-0.53,0.299-0.735,0.518
		s-0.362,0.476-0.469,0.77c-0.107,0.294-0.161,0.614-0.161,0.959s0.054,0.665,0.161,0.959c0.107,0.294,0.264,0.551,0.469,0.77
		s0.45,0.392,0.735,0.518c0.284,0.126,0.604,0.189,0.959,0.189c0.354,0,0.674-0.063,0.959-0.189
		c0.284-0.126,0.529-0.299,0.735-0.518c0.205-0.219,0.361-0.476,0.469-0.77S133.537,62.809,133.537,62.464z"/>
	<path fill="#243C5E" d="M137.526,59.188h-1.064l0.938-3.36h1.274L137.526,59.188z"/>
	<path fill="#243C5E" d="M146.263,64.186c0,0.299,0.009,0.579,0.028,0.84s0.028,0.5,0.028,0.714h-1.036
		c0-0.177-0.005-0.354-0.014-0.532c-0.009-0.177-0.014-0.359-0.014-0.546h-0.028c-0.075,0.159-0.18,0.313-0.315,0.462
		c-0.135,0.149-0.296,0.283-0.483,0.399c-0.187,0.117-0.397,0.21-0.63,0.28c-0.233,0.07-0.485,0.105-0.756,0.105
		c-0.429,0-0.8-0.065-1.113-0.196c-0.313-0.131-0.572-0.313-0.777-0.546c-0.206-0.233-0.357-0.515-0.455-0.847
		c-0.098-0.331-0.147-0.693-0.147-1.085v-4.046h1.092v3.934c0,0.551,0.121,0.985,0.364,1.302c0.242,0.317,0.621,0.476,1.134,0.476
		c0.354,0,0.66-0.061,0.917-0.182c0.257-0.121,0.467-0.294,0.63-0.518c0.164-0.224,0.285-0.49,0.364-0.798
		c0.079-0.308,0.119-0.649,0.119-1.022v-3.192h1.092V64.186z"/>
	<path fill="#243C5E" d="M148.335,60.742c0-0.298-0.01-0.579-0.028-0.84s-0.028-0.5-0.028-0.714h1.036
		c0,0.177,0.004,0.354,0.014,0.532s0.014,0.359,0.014,0.546h0.028c0.075-0.159,0.18-0.312,0.315-0.462
		c0.135-0.149,0.296-0.282,0.483-0.399c0.187-0.117,0.396-0.21,0.63-0.28c0.233-0.07,0.485-0.105,0.756-0.105
		c0.429,0,0.8,0.065,1.113,0.196c0.312,0.131,0.571,0.312,0.777,0.546c0.205,0.233,0.357,0.516,0.455,0.847
		c0.098,0.331,0.147,0.693,0.147,1.085v4.046h-1.092v-3.934c0-0.55-0.121-0.984-0.364-1.302s-0.621-0.476-1.134-0.476
		c-0.355,0-0.661,0.061-0.917,0.182c-0.257,0.121-0.467,0.294-0.63,0.518c-0.163,0.224-0.285,0.49-0.364,0.798
		c-0.08,0.308-0.119,0.648-0.119,1.022v3.192h-1.092V60.742z"/>
	<path fill="#243C5E" d="M159.955,59.188h1.092v0.952h0.028c0.298-0.354,0.646-0.63,1.043-0.826
		c0.396-0.196,0.833-0.294,1.309-0.294c0.513,0,0.982,0.086,1.407,0.259s0.786,0.413,1.085,0.721c0.299,0.308,0.532,0.672,0.7,1.092
		s0.252,0.877,0.252,1.372s-0.084,0.952-0.252,1.372c-0.168,0.42-0.399,0.784-0.693,1.092s-0.642,0.548-1.043,0.721
		c-0.401,0.172-0.831,0.259-1.288,0.259c-0.588,0-1.104-0.128-1.547-0.385c-0.444-0.257-0.768-0.572-0.973-0.945h-0.028v4.354
		h-1.092V59.188z M161.047,62.464c0,0.345,0.054,0.665,0.161,0.959s0.264,0.551,0.469,0.77c0.205,0.219,0.45,0.392,0.735,0.518
		s0.604,0.189,0.959,0.189c0.354,0,0.674-0.063,0.959-0.189s0.53-0.299,0.735-0.518c0.206-0.219,0.362-0.476,0.469-0.77
		c0.107-0.294,0.161-0.614,0.161-0.959s-0.054-0.665-0.161-0.959c-0.107-0.294-0.264-0.551-0.469-0.77
		c-0.205-0.219-0.45-0.392-0.735-0.518s-0.604-0.189-0.959-0.189c-0.355,0-0.674,0.063-0.959,0.189s-0.53,0.299-0.735,0.518
		c-0.206,0.219-0.362,0.476-0.469,0.77S161.047,62.119,161.047,62.464z"/>
	<path fill="#243C5E" d="M168.481,60.028c0.336-0.345,0.735-0.6,1.197-0.763c0.462-0.163,0.931-0.245,1.407-0.245
		c0.97,0,1.67,0.229,2.1,0.686c0.429,0.458,0.644,1.153,0.644,2.086v2.814c0,0.187,0.009,0.38,0.028,0.581
		c0.019,0.201,0.042,0.385,0.07,0.553h-1.05c-0.038-0.149-0.059-0.315-0.063-0.497c-0.005-0.182-0.007-0.343-0.007-0.483h-0.028
		c-0.215,0.336-0.502,0.611-0.861,0.826c-0.359,0.214-0.791,0.322-1.295,0.322c-0.336,0-0.651-0.042-0.945-0.126
		s-0.551-0.208-0.77-0.371c-0.219-0.163-0.395-0.366-0.525-0.609c-0.131-0.243-0.196-0.522-0.196-0.84
		c0-0.542,0.14-0.966,0.42-1.274c0.28-0.308,0.627-0.537,1.043-0.686c0.415-0.149,0.863-0.243,1.344-0.28
		c0.481-0.037,0.922-0.056,1.323-0.056h0.42V61.47c0-0.476-0.143-0.835-0.427-1.078c-0.285-0.243-0.684-0.364-1.197-0.364
		c-0.355,0-0.702,0.058-1.043,0.175s-0.642,0.296-0.903,0.539L168.481,60.028z M171.645,62.59c-0.7,0-1.256,0.098-1.666,0.294
		c-0.411,0.196-0.616,0.518-0.616,0.966c0,0.411,0.138,0.703,0.413,0.875c0.275,0.173,0.618,0.259,1.029,0.259
		c0.317,0,0.595-0.054,0.833-0.161c0.238-0.107,0.437-0.25,0.595-0.427c0.159-0.177,0.28-0.385,0.364-0.623
		c0.084-0.238,0.131-0.492,0.14-0.763v-0.42H171.645z"/>
	<path fill="#243C5E" d="M175.831,60.742c0-0.298-0.01-0.579-0.028-0.84s-0.028-0.5-0.028-0.714h1.036
		c0,0.177,0.004,0.354,0.014,0.532s0.014,0.359,0.014,0.546h0.028c0.075-0.159,0.18-0.312,0.315-0.462
		c0.135-0.149,0.296-0.282,0.483-0.399c0.187-0.117,0.396-0.21,0.63-0.28c0.233-0.07,0.485-0.105,0.756-0.105
		c0.075,0,0.149,0.005,0.224,0.014s0.149,0.028,0.224,0.056l-0.07,1.106c-0.187-0.056-0.383-0.084-0.588-0.084
		c-0.672,0-1.16,0.217-1.463,0.651s-0.455,1.029-0.455,1.785v3.192h-1.092V60.742z"/>
	<path fill="#243C5E" d="M185.169,60.826c-0.234-0.28-0.486-0.483-0.756-0.609s-0.569-0.189-0.896-0.189
		c-0.364,0-0.686,0.063-0.966,0.189c-0.28,0.126-0.511,0.301-0.693,0.525c-0.182,0.224-0.32,0.483-0.413,0.777
		c-0.094,0.294-0.14,0.609-0.14,0.945s0.054,0.651,0.161,0.945c0.107,0.294,0.256,0.553,0.448,0.777
		c0.191,0.224,0.422,0.399,0.693,0.525c0.271,0.126,0.574,0.189,0.91,0.189c0.719,0,1.274-0.271,1.666-0.812l0.812,0.77
		c-0.317,0.364-0.691,0.63-1.12,0.798s-0.882,0.252-1.358,0.252c-0.504,0-0.966-0.084-1.386-0.252s-0.777-0.406-1.071-0.714
		c-0.294-0.308-0.522-0.672-0.686-1.092c-0.163-0.42-0.245-0.882-0.245-1.386c0-0.495,0.082-0.952,0.245-1.372
		c0.164-0.42,0.395-0.784,0.693-1.092c0.298-0.308,0.655-0.548,1.071-0.721c0.415-0.173,0.875-0.259,1.379-0.259
		c0.485,0,0.945,0.084,1.379,0.252c0.434,0.168,0.814,0.429,1.141,0.784L185.169,60.826z"/>
	<path fill="#243C5E" d="M49.188,73.426c0-0.215,0.077-0.401,0.231-0.56c0.154-0.159,0.343-0.238,0.567-0.238
		c0.224,0,0.413,0.08,0.567,0.238c0.154,0.159,0.231,0.345,0.231,0.56c0,0.233-0.075,0.425-0.224,0.574
		c-0.149,0.149-0.341,0.224-0.574,0.224c-0.233,0-0.425-0.075-0.574-0.224C49.262,73.851,49.188,73.659,49.188,73.426z
		 M49.439,75.988h1.092v6.552h-1.092V75.988z"/>
	<path fill="#243C5E" d="M52.702,77.542c0-0.298-0.01-0.579-0.028-0.84s-0.028-0.5-0.028-0.714h1.036
		c0,0.177,0.004,0.354,0.014,0.532s0.014,0.359,0.014,0.546h0.028c0.075-0.159,0.18-0.312,0.315-0.462
		c0.135-0.149,0.296-0.282,0.483-0.399c0.187-0.117,0.396-0.21,0.63-0.28c0.233-0.07,0.485-0.105,0.756-0.105
		c0.429,0,0.8,0.065,1.113,0.196c0.312,0.131,0.571,0.312,0.777,0.546c0.205,0.233,0.357,0.516,0.455,0.847
		c0.098,0.331,0.147,0.693,0.147,1.085v4.046h-1.092v-3.934c0-0.55-0.121-0.984-0.364-1.302s-0.621-0.476-1.134-0.476
		c-0.355,0-0.661,0.061-0.917,0.182c-0.257,0.121-0.467,0.294-0.63,0.518c-0.163,0.224-0.285,0.49-0.364,0.798
		c-0.08,0.308-0.119,0.648-0.119,1.022v3.192h-1.092V77.542z"/>
	<path fill="#243C5E" d="M61.046,76.912h-1.428v-0.924h1.428v-1.47c0-0.401,0.037-0.768,0.112-1.099
		c0.075-0.331,0.203-0.618,0.385-0.861c0.182-0.243,0.422-0.432,0.721-0.567s0.667-0.203,1.106-0.203
		c0.14,0,0.289,0.014,0.448,0.042c0.158,0.028,0.289,0.07,0.392,0.126l-0.154,0.98c-0.261-0.093-0.509-0.14-0.742-0.14
		c-0.28,0-0.499,0.049-0.658,0.147c-0.159,0.098-0.278,0.233-0.357,0.406c-0.08,0.173-0.126,0.38-0.14,0.623
		s-0.021,0.504-0.021,0.784v1.232h1.596v0.924h-1.596v5.628h-1.092V76.912z"/>
	<path fill="#243C5E" d="M64.518,79.264c0-0.513,0.088-0.98,0.266-1.4c0.177-0.42,0.42-0.782,0.728-1.085
		c0.308-0.303,0.677-0.539,1.106-0.707c0.429-0.168,0.896-0.252,1.4-0.252c0.504,0,0.97,0.084,1.4,0.252
		c0.429,0.168,0.798,0.404,1.106,0.707c0.308,0.304,0.55,0.665,0.728,1.085c0.177,0.42,0.266,0.887,0.266,1.4s-0.089,0.98-0.266,1.4
		c-0.178,0.42-0.42,0.782-0.728,1.085s-0.677,0.539-1.106,0.707c-0.43,0.168-0.896,0.252-1.4,0.252c-0.504,0-0.971-0.084-1.4-0.252
		s-0.798-0.404-1.106-0.707c-0.308-0.303-0.551-0.665-0.728-1.085S64.518,79.777,64.518,79.264z M65.693,79.264
		c0,0.345,0.054,0.665,0.161,0.959c0.107,0.294,0.264,0.551,0.469,0.77s0.45,0.392,0.735,0.518c0.284,0.126,0.604,0.189,0.959,0.189
		c0.354,0,0.674-0.063,0.959-0.189c0.284-0.126,0.529-0.299,0.735-0.518c0.205-0.219,0.361-0.476,0.469-0.77
		s0.161-0.614,0.161-0.959s-0.054-0.665-0.161-0.959s-0.264-0.551-0.469-0.77c-0.206-0.219-0.451-0.392-0.735-0.518
		c-0.285-0.126-0.604-0.189-0.959-0.189c-0.355,0-0.675,0.063-0.959,0.189c-0.285,0.126-0.53,0.299-0.735,0.518
		s-0.362,0.476-0.469,0.77C65.747,78.599,65.693,78.918,65.693,79.264z"/>
	<path fill="#243C5E" d="M73.211,77.542c0-0.298-0.01-0.579-0.028-0.84s-0.028-0.5-0.028-0.714h1.036
		c0,0.177,0.004,0.354,0.014,0.532s0.014,0.359,0.014,0.546h0.028c0.075-0.159,0.18-0.312,0.315-0.462
		c0.135-0.149,0.296-0.282,0.483-0.399c0.187-0.117,0.396-0.21,0.63-0.28c0.233-0.07,0.485-0.105,0.756-0.105
		c0.075,0,0.149,0.005,0.224,0.014s0.149,0.028,0.224,0.056l-0.07,1.106c-0.187-0.056-0.383-0.084-0.588-0.084
		c-0.672,0-1.16,0.217-1.463,0.651s-0.455,1.029-0.455,1.785v3.192h-1.092V77.542z"/>
	<path fill="#243C5E" d="M78.139,77.542c0-0.298-0.01-0.579-0.028-0.84s-0.028-0.5-0.028-0.714h1.036
		c0,0.177,0.004,0.354,0.014,0.532s0.014,0.359,0.014,0.546h0.028c0.075-0.159,0.18-0.312,0.315-0.462
		c0.135-0.149,0.296-0.282,0.483-0.399c0.187-0.117,0.396-0.21,0.63-0.28c0.233-0.07,0.485-0.105,0.756-0.105
		c0.354,0,0.651,0.044,0.889,0.133s0.436,0.196,0.595,0.322c0.158,0.126,0.282,0.262,0.371,0.406s0.161,0.273,0.217,0.385
		c0.243-0.392,0.522-0.697,0.84-0.917c0.317-0.219,0.728-0.329,1.232-0.329c0.467,0,0.859,0.063,1.176,0.189
		c0.317,0.126,0.574,0.308,0.77,0.546c0.196,0.238,0.336,0.527,0.42,0.868c0.084,0.341,0.126,0.721,0.126,1.141v3.976h-1.092v-3.92
		c0-0.224-0.023-0.443-0.07-0.658c-0.047-0.214-0.131-0.406-0.252-0.574c-0.122-0.168-0.285-0.303-0.49-0.406
		c-0.205-0.103-0.467-0.154-0.784-0.154c-0.233,0-0.453,0.047-0.658,0.14s-0.385,0.224-0.539,0.392
		c-0.154,0.168-0.275,0.371-0.364,0.609c-0.089,0.238-0.133,0.501-0.133,0.791v3.78h-1.092v-3.71c0-0.728-0.098-1.244-0.294-1.547
		s-0.518-0.455-0.966-0.455c-0.355,0-0.661,0.061-0.917,0.182c-0.257,0.121-0.467,0.294-0.63,0.518
		c-0.163,0.224-0.285,0.49-0.364,0.798c-0.08,0.308-0.119,0.648-0.119,1.022v3.192h-1.092V77.542z"/>
	<path fill="#243C5E" d="M89.983,76.828c0.336-0.345,0.735-0.6,1.197-0.763c0.462-0.163,0.931-0.245,1.407-0.245
		c0.97,0,1.67,0.229,2.1,0.686c0.429,0.458,0.644,1.153,0.644,2.086v2.814c0,0.187,0.009,0.38,0.028,0.581
		c0.019,0.201,0.042,0.385,0.07,0.553h-1.05c-0.038-0.149-0.059-0.315-0.063-0.497c-0.005-0.182-0.007-0.343-0.007-0.483h-0.028
		c-0.215,0.336-0.502,0.611-0.861,0.826c-0.359,0.214-0.791,0.322-1.295,0.322c-0.336,0-0.651-0.042-0.945-0.126
		s-0.551-0.208-0.77-0.371c-0.219-0.163-0.395-0.366-0.525-0.609c-0.131-0.243-0.196-0.522-0.196-0.84
		c0-0.542,0.14-0.966,0.42-1.274c0.28-0.308,0.627-0.537,1.043-0.686c0.415-0.149,0.863-0.243,1.344-0.28
		c0.481-0.037,0.922-0.056,1.323-0.056h0.42V78.27c0-0.476-0.143-0.835-0.427-1.078c-0.285-0.243-0.684-0.364-1.197-0.364
		c-0.355,0-0.702,0.058-1.043,0.175s-0.642,0.296-0.903,0.539L89.983,76.828z M93.147,79.39c-0.7,0-1.256,0.098-1.666,0.294
		c-0.411,0.196-0.616,0.518-0.616,0.966c0,0.411,0.138,0.703,0.413,0.875c0.275,0.173,0.618,0.259,1.029,0.259
		c0.317,0,0.595-0.054,0.833-0.161c0.238-0.107,0.437-0.25,0.595-0.427c0.159-0.177,0.28-0.385,0.364-0.623
		c0.084-0.238,0.131-0.492,0.14-0.763v-0.42H93.147z"/>
	<path fill="#243C5E" d="M100.917,76.912h-1.932v3.276c0,0.215,0.004,0.413,0.014,0.595c0.009,0.182,0.046,0.341,0.112,0.476
		s0.163,0.243,0.294,0.322c0.131,0.08,0.317,0.119,0.56,0.119c0.159,0,0.322-0.019,0.49-0.056c0.168-0.037,0.326-0.093,0.476-0.168
		l0.042,0.994c-0.187,0.084-0.394,0.145-0.623,0.182c-0.229,0.038-0.446,0.056-0.651,0.056c-0.392,0-0.705-0.051-0.938-0.154
		s-0.415-0.248-0.546-0.434s-0.217-0.417-0.259-0.693s-0.063-0.581-0.063-0.917v-3.598h-1.428v-0.924h1.428v-1.862h1.092v1.862
		h1.932V76.912z"/>
	<path fill="#243C5E" d="M102.12,73.426c0-0.215,0.077-0.401,0.231-0.56c0.154-0.159,0.343-0.238,0.567-0.238
		c0.224,0,0.413,0.08,0.567,0.238c0.154,0.159,0.231,0.345,0.231,0.56c0,0.233-0.075,0.425-0.224,0.574
		c-0.149,0.149-0.341,0.224-0.574,0.224c-0.233,0-0.425-0.075-0.574-0.224C102.195,73.851,102.12,73.659,102.12,73.426z
		 M102.372,75.988h1.092v6.552h-1.092V75.988z"/>
	<path fill="#243C5E" d="M112.172,85.731h-1.092v-4.144h-0.028c-0.299,0.355-0.646,0.63-1.043,0.826
		c-0.397,0.196-0.833,0.294-1.309,0.294c-0.514,0-0.982-0.086-1.407-0.259c-0.425-0.173-0.786-0.413-1.085-0.721
		s-0.532-0.672-0.7-1.092c-0.168-0.42-0.252-0.877-0.252-1.372c0-0.485,0.084-0.938,0.252-1.358c0.168-0.42,0.399-0.784,0.693-1.092
		s0.642-0.55,1.043-0.728c0.401-0.177,0.831-0.266,1.288-0.266c0.588,0,1.104,0.128,1.547,0.385s0.768,0.572,0.973,0.945h0.028
		v-1.162h1.092V85.731z M111.08,79.264c0-0.345-0.054-0.665-0.161-0.959s-0.264-0.551-0.469-0.77
		c-0.206-0.219-0.451-0.392-0.735-0.518c-0.285-0.126-0.604-0.189-0.959-0.189c-0.355,0-0.675,0.063-0.959,0.189
		c-0.285,0.126-0.53,0.299-0.735,0.518s-0.362,0.476-0.469,0.77c-0.107,0.294-0.161,0.614-0.161,0.959s0.054,0.665,0.161,0.959
		c0.107,0.294,0.264,0.551,0.469,0.77s0.45,0.392,0.735,0.518c0.284,0.126,0.604,0.189,0.959,0.189c0.354,0,0.674-0.063,0.959-0.189
		c0.284-0.126,0.529-0.299,0.735-0.518c0.205-0.219,0.361-0.476,0.469-0.77S111.08,79.609,111.08,79.264z"/>
	<path fill="#243C5E" d="M119.9,80.985c0,0.299,0.009,0.579,0.028,0.84s0.028,0.5,0.028,0.714h-1.036
		c0-0.177-0.005-0.354-0.014-0.532c-0.009-0.177-0.014-0.359-0.014-0.546h-0.028c-0.075,0.159-0.18,0.313-0.315,0.462
		c-0.135,0.149-0.296,0.283-0.483,0.399c-0.187,0.117-0.397,0.21-0.63,0.28c-0.233,0.07-0.485,0.105-0.756,0.105
		c-0.429,0-0.8-0.065-1.113-0.196c-0.313-0.131-0.572-0.313-0.777-0.546c-0.206-0.233-0.357-0.515-0.455-0.847
		c-0.098-0.331-0.147-0.693-0.147-1.085v-4.046h1.092v3.934c0,0.551,0.121,0.985,0.364,1.302c0.242,0.317,0.621,0.476,1.134,0.476
		c0.354,0,0.66-0.061,0.917-0.182c0.257-0.121,0.467-0.294,0.63-0.518c0.164-0.224,0.285-0.49,0.364-0.798
		c0.079-0.308,0.119-0.649,0.119-1.022v-3.192h1.092V80.985z"/>
	<path fill="#243C5E" d="M127.824,81.35c-0.392,0.504-0.822,0.856-1.288,1.057c-0.467,0.2-1.008,0.301-1.624,0.301
		c-0.514,0-0.976-0.091-1.386-0.273s-0.758-0.427-1.043-0.735c-0.285-0.308-0.504-0.672-0.658-1.092
		c-0.154-0.42-0.231-0.868-0.231-1.344c0-0.504,0.084-0.968,0.252-1.393s0.401-0.789,0.7-1.092c0.299-0.303,0.653-0.539,1.064-0.707
		c0.411-0.168,0.859-0.252,1.344-0.252c0.457,0,0.877,0.077,1.26,0.231c0.383,0.154,0.712,0.378,0.987,0.672
		c0.275,0.294,0.487,0.653,0.637,1.078s0.224,0.908,0.224,1.449v0.35h-5.292c0.019,0.28,0.086,0.548,0.203,0.805
		c0.117,0.256,0.268,0.48,0.455,0.672c0.187,0.191,0.406,0.343,0.658,0.455c0.252,0.112,0.527,0.168,0.826,0.168
		c0.476,0,0.877-0.084,1.204-0.252c0.327-0.168,0.621-0.416,0.882-0.742L127.824,81.35z M126.886,78.676
		c-0.019-0.56-0.201-1.008-0.546-1.344s-0.821-0.504-1.428-0.504c-0.607,0-1.097,0.168-1.47,0.504
		c-0.373,0.336-0.597,0.784-0.672,1.344H126.886z"/>
	<path fill="#243C5E" d="M139.094,81.377h-0.028c-0.206,0.374-0.53,0.688-0.973,0.945c-0.443,0.256-0.959,0.385-1.547,0.385
		c-0.458,0-0.887-0.086-1.288-0.259c-0.401-0.173-0.749-0.413-1.043-0.721s-0.525-0.672-0.693-1.092
		c-0.168-0.42-0.252-0.877-0.252-1.372s0.084-0.952,0.252-1.372s0.401-0.784,0.7-1.092c0.299-0.308,0.66-0.548,1.085-0.721
		s0.894-0.259,1.407-0.259c0.476,0,0.912,0.098,1.309,0.294c0.396,0.196,0.744,0.471,1.043,0.826h0.028v-4.984h1.092V82.54h-1.092
		V81.377z M139.094,79.264c0-0.345-0.054-0.665-0.161-0.959s-0.264-0.551-0.469-0.77c-0.206-0.219-0.451-0.392-0.735-0.518
		c-0.285-0.126-0.604-0.189-0.959-0.189c-0.355,0-0.675,0.063-0.959,0.189c-0.285,0.126-0.53,0.299-0.735,0.518
		s-0.362,0.476-0.469,0.77c-0.107,0.294-0.161,0.614-0.161,0.959s0.054,0.665,0.161,0.959c0.107,0.294,0.264,0.551,0.469,0.77
		s0.45,0.392,0.735,0.518c0.284,0.126,0.604,0.189,0.959,0.189c0.354,0,0.674-0.063,0.959-0.189
		c0.284-0.126,0.529-0.299,0.735-0.518c0.205-0.219,0.361-0.476,0.469-0.77S139.094,79.609,139.094,79.264z"/>
	<path fill="#243C5E" d="M143.084,75.988h-1.064l0.938-3.36h1.274L143.084,75.988z"/>
	<path fill="#243C5E" d="M151.82,80.985c0,0.299,0.009,0.579,0.028,0.84s0.028,0.5,0.028,0.714h-1.036
		c0-0.177-0.005-0.354-0.014-0.532c-0.009-0.177-0.014-0.359-0.014-0.546h-0.028c-0.075,0.159-0.18,0.313-0.315,0.462
		c-0.135,0.149-0.296,0.283-0.483,0.399c-0.187,0.117-0.397,0.21-0.63,0.28c-0.233,0.07-0.485,0.105-0.756,0.105
		c-0.429,0-0.8-0.065-1.113-0.196c-0.313-0.131-0.572-0.313-0.777-0.546c-0.206-0.233-0.357-0.515-0.455-0.847
		c-0.098-0.331-0.147-0.693-0.147-1.085v-4.046h1.092v3.934c0,0.551,0.121,0.985,0.364,1.302c0.242,0.317,0.621,0.476,1.134,0.476
		c0.354,0,0.66-0.061,0.917-0.182c0.257-0.121,0.467-0.294,0.63-0.518c0.164-0.224,0.285-0.49,0.364-0.798
		c0.079-0.308,0.119-0.649,0.119-1.022v-3.192h1.092V80.985z"/>
	<path fill="#243C5E" d="M153.893,77.542c0-0.298-0.01-0.579-0.028-0.84s-0.028-0.5-0.028-0.714h1.036
		c0,0.177,0.004,0.354,0.014,0.532s0.014,0.359,0.014,0.546h0.028c0.075-0.159,0.18-0.312,0.315-0.462
		c0.135-0.149,0.296-0.282,0.483-0.399c0.187-0.117,0.396-0.21,0.63-0.28c0.233-0.07,0.485-0.105,0.756-0.105
		c0.429,0,0.8,0.065,1.113,0.196c0.312,0.131,0.571,0.312,0.777,0.546c0.205,0.233,0.357,0.516,0.455,0.847
		c0.098,0.331,0.147,0.693,0.147,1.085v4.046h-1.092v-3.934c0-0.55-0.121-0.984-0.364-1.302s-0.621-0.476-1.134-0.476
		c-0.355,0-0.661,0.061-0.917,0.182c-0.257,0.121-0.467,0.294-0.63,0.518c-0.163,0.224-0.285,0.49-0.364,0.798
		c-0.08,0.308-0.119,0.648-0.119,1.022v3.192h-1.092V77.542z"/>
	<path fill="#243C5E" d="M167.529,81.35c-0.392,0.504-0.822,0.856-1.288,1.057c-0.467,0.2-1.008,0.301-1.624,0.301
		c-0.514,0-0.976-0.091-1.386-0.273s-0.758-0.427-1.043-0.735c-0.285-0.308-0.504-0.672-0.658-1.092
		c-0.154-0.42-0.231-0.868-0.231-1.344c0-0.504,0.084-0.968,0.252-1.393s0.401-0.789,0.7-1.092c0.299-0.303,0.653-0.539,1.064-0.707
		c0.411-0.168,0.859-0.252,1.344-0.252c0.457,0,0.877,0.077,1.26,0.231c0.383,0.154,0.712,0.378,0.987,0.672
		c0.275,0.294,0.487,0.653,0.637,1.078s0.224,0.908,0.224,1.449v0.35h-5.292c0.019,0.28,0.086,0.548,0.203,0.805
		c0.117,0.256,0.268,0.48,0.455,0.672c0.187,0.191,0.406,0.343,0.658,0.455c0.252,0.112,0.527,0.168,0.826,0.168
		c0.476,0,0.877-0.084,1.204-0.252c0.327-0.168,0.621-0.416,0.882-0.742L167.529,81.35z M166.591,78.676
		c-0.019-0.56-0.201-1.008-0.546-1.344s-0.821-0.504-1.428-0.504c-0.607,0-1.097,0.168-1.47,0.504
		c-0.373,0.336-0.597,0.784-0.672,1.344H166.591z"/>
	<path fill="#243C5E" d="M81.535,98.15c-0.392,0.504-0.822,0.856-1.288,1.057c-0.467,0.2-1.008,0.301-1.624,0.301
		c-0.514,0-0.976-0.091-1.386-0.273s-0.758-0.427-1.043-0.735c-0.285-0.308-0.504-0.672-0.658-1.092
		c-0.154-0.42-0.231-0.868-0.231-1.344c0-0.504,0.084-0.968,0.252-1.393s0.401-0.789,0.7-1.092c0.299-0.303,0.653-0.539,1.064-0.707
		c0.411-0.168,0.859-0.252,1.344-0.252c0.457,0,0.877,0.077,1.26,0.231c0.383,0.154,0.712,0.378,0.987,0.672
		c0.275,0.294,0.487,0.653,0.637,1.078s0.224,0.908,0.224,1.449v0.35H76.48c0.019,0.28,0.086,0.548,0.203,0.805
		c0.117,0.256,0.268,0.48,0.455,0.672c0.187,0.191,0.406,0.343,0.658,0.455c0.252,0.112,0.527,0.168,0.826,0.168
		c0.476,0,0.877-0.084,1.204-0.252c0.327-0.168,0.621-0.416,0.882-0.742L81.535,98.15z M80.597,95.476
		c-0.019-0.56-0.201-1.008-0.546-1.344s-0.821-0.504-1.428-0.504c-0.607,0-1.097,0.168-1.47,0.504
		c-0.373,0.336-0.597,0.784-0.672,1.344H80.597z"/>
	<path fill="#243C5E" d="M83.467,94.342c0-0.298-0.01-0.579-0.028-0.84s-0.028-0.5-0.028-0.714h1.036
		c0,0.177,0.004,0.354,0.014,0.532s0.014,0.359,0.014,0.546h0.028c0.075-0.159,0.18-0.312,0.315-0.462
		c0.135-0.149,0.296-0.282,0.483-0.399c0.187-0.117,0.396-0.21,0.63-0.28c0.233-0.07,0.485-0.105,0.756-0.105
		c0.429,0,0.8,0.065,1.113,0.196c0.312,0.131,0.571,0.312,0.777,0.546c0.205,0.233,0.357,0.516,0.455,0.847
		c0.098,0.331,0.147,0.693,0.147,1.085v4.046h-1.092v-3.934c0-0.55-0.121-0.984-0.364-1.302s-0.621-0.476-1.134-0.476
		c-0.355,0-0.661,0.061-0.917,0.182c-0.257,0.121-0.467,0.294-0.63,0.518c-0.163,0.224-0.285,0.49-0.364,0.798
		c-0.08,0.308-0.119,0.648-0.119,1.022v3.192h-1.092V94.342z"/>
	<path fill="#243C5E" d="M94.835,93.712h-1.932v3.276c0,0.215,0.004,0.413,0.014,0.595c0.009,0.182,0.046,0.341,0.112,0.476
		s0.163,0.243,0.294,0.322c0.131,0.08,0.317,0.119,0.56,0.119c0.159,0,0.322-0.019,0.49-0.056c0.168-0.037,0.326-0.093,0.476-0.168
		l0.042,0.994c-0.187,0.084-0.394,0.145-0.623,0.182c-0.229,0.038-0.446,0.056-0.651,0.056c-0.392,0-0.705-0.051-0.938-0.154
		s-0.415-0.248-0.546-0.434s-0.217-0.417-0.259-0.693s-0.063-0.581-0.063-0.917v-3.598h-1.428v-0.924h1.428v-1.862h1.092v1.862
		h1.932V93.712z"/>
	<path fill="#243C5E" d="M96.179,94.342c0-0.298-0.01-0.579-0.028-0.84s-0.028-0.5-0.028-0.714h1.036
		c0,0.177,0.004,0.354,0.014,0.532s0.014,0.359,0.014,0.546h0.028c0.075-0.159,0.18-0.312,0.315-0.462
		c0.135-0.149,0.296-0.282,0.483-0.399c0.187-0.117,0.396-0.21,0.63-0.28c0.233-0.07,0.485-0.105,0.756-0.105
		c0.075,0,0.149,0.005,0.224,0.014s0.149,0.028,0.224,0.056l-0.07,1.106c-0.187-0.056-0.383-0.084-0.588-0.084
		c-0.672,0-1.16,0.217-1.463,0.651s-0.455,1.029-0.455,1.785v3.192h-1.092V94.342z"/>
	<path fill="#243C5E" d="M106.707,98.15c-0.392,0.504-0.822,0.856-1.288,1.057c-0.467,0.2-1.008,0.301-1.624,0.301
		c-0.514,0-0.976-0.091-1.386-0.273s-0.758-0.427-1.043-0.735c-0.285-0.308-0.504-0.672-0.658-1.092
		c-0.154-0.42-0.231-0.868-0.231-1.344c0-0.504,0.084-0.968,0.252-1.393s0.401-0.789,0.7-1.092c0.299-0.303,0.653-0.539,1.064-0.707
		c0.411-0.168,0.859-0.252,1.344-0.252c0.457,0,0.877,0.077,1.26,0.231c0.383,0.154,0.712,0.378,0.987,0.672
		c0.275,0.294,0.487,0.653,0.637,1.078s0.224,0.908,0.224,1.449v0.35h-5.292c0.019,0.28,0.086,0.548,0.203,0.805
		c0.117,0.256,0.268,0.48,0.455,0.672c0.187,0.191,0.406,0.343,0.658,0.455c0.252,0.112,0.527,0.168,0.826,0.168
		c0.476,0,0.877-0.084,1.204-0.252c0.327-0.168,0.621-0.416,0.882-0.742L106.707,98.15z M105.769,95.476
		c-0.019-0.56-0.201-1.008-0.546-1.344s-0.821-0.504-1.428-0.504c-0.607,0-1.097,0.168-1.47,0.504
		c-0.373,0.336-0.597,0.784-0.672,1.344H105.769z"/>
	<path fill="#243C5E" d="M108.583,92.788h1.092v0.952h0.028c0.298-0.354,0.646-0.63,1.043-0.826
		c0.396-0.196,0.833-0.294,1.309-0.294c0.513,0,0.982,0.086,1.407,0.259s0.786,0.413,1.085,0.721c0.299,0.308,0.532,0.672,0.7,1.092
		s0.252,0.877,0.252,1.372s-0.084,0.952-0.252,1.372c-0.168,0.42-0.399,0.784-0.693,1.092s-0.642,0.548-1.043,0.721
		c-0.401,0.172-0.831,0.259-1.288,0.259c-0.588,0-1.104-0.128-1.547-0.385c-0.444-0.257-0.768-0.572-0.973-0.945h-0.028v4.354
		h-1.092V92.788z M109.674,96.064c0,0.345,0.054,0.665,0.161,0.959s0.264,0.551,0.469,0.77c0.205,0.219,0.45,0.392,0.735,0.518
		s0.604,0.189,0.959,0.189c0.354,0,0.674-0.063,0.959-0.189s0.53-0.299,0.735-0.518c0.206-0.219,0.362-0.476,0.469-0.77
		c0.107-0.294,0.161-0.614,0.161-0.959s-0.054-0.665-0.161-0.959c-0.107-0.294-0.264-0.551-0.469-0.77
		c-0.205-0.219-0.45-0.392-0.735-0.518s-0.604-0.189-0.959-0.189c-0.355,0-0.674,0.063-0.959,0.189s-0.53,0.299-0.735,0.518
		c-0.206,0.219-0.362,0.476-0.469,0.77S109.674,95.719,109.674,96.064z"/>
	<path fill="#243C5E" d="M117.192,94.342c0-0.298-0.01-0.579-0.028-0.84s-0.028-0.5-0.028-0.714h1.036
		c0,0.177,0.004,0.354,0.014,0.532s0.014,0.359,0.014,0.546h0.028c0.075-0.159,0.18-0.312,0.315-0.462
		c0.135-0.149,0.296-0.282,0.483-0.399c0.187-0.117,0.396-0.21,0.63-0.28c0.233-0.07,0.485-0.105,0.756-0.105
		c0.075,0,0.149,0.005,0.224,0.014s0.149,0.028,0.224,0.056l-0.07,1.106c-0.187-0.056-0.383-0.084-0.588-0.084
		c-0.672,0-1.16,0.217-1.463,0.651s-0.455,1.029-0.455,1.785v3.192h-1.092V94.342z"/>
	<path fill="#243C5E" d="M121.966,90.226c0-0.215,0.077-0.401,0.231-0.56c0.154-0.159,0.343-0.238,0.567-0.238
		c0.224,0,0.413,0.08,0.567,0.238c0.154,0.159,0.231,0.345,0.231,0.56c0,0.233-0.075,0.425-0.224,0.574
		c-0.149,0.149-0.341,0.224-0.574,0.224c-0.233,0-0.425-0.075-0.574-0.224C122.041,90.651,121.966,90.459,121.966,90.226z
		 M122.218,92.788h1.092v6.552h-1.092V92.788z"/>
	<path fill="#243C5E" d="M125.62,97.618c0.215,0.271,0.45,0.485,0.707,0.644c0.257,0.159,0.581,0.238,0.973,0.238
		c0.168,0,0.338-0.019,0.511-0.056c0.172-0.037,0.329-0.098,0.469-0.182s0.252-0.189,0.336-0.315s0.126-0.277,0.126-0.455
		c0-0.177-0.04-0.322-0.119-0.434c-0.08-0.112-0.185-0.208-0.315-0.287c-0.13-0.079-0.28-0.143-0.448-0.189
		c-0.168-0.047-0.341-0.089-0.518-0.126c-0.308-0.065-0.602-0.14-0.882-0.224c-0.28-0.084-0.525-0.194-0.735-0.329
		c-0.21-0.135-0.378-0.31-0.504-0.525s-0.189-0.49-0.189-0.826c0-0.317,0.07-0.597,0.21-0.84c0.14-0.243,0.327-0.443,0.56-0.602
		s0.495-0.28,0.784-0.364c0.289-0.084,0.588-0.126,0.896-0.126c0.466,0,0.898,0.094,1.295,0.28c0.396,0.187,0.707,0.49,0.931,0.91
		l-0.91,0.602c-0.14-0.233-0.324-0.422-0.553-0.567c-0.229-0.145-0.506-0.217-0.833-0.217c-0.149,0-0.301,0.019-0.455,0.056
		c-0.154,0.037-0.292,0.093-0.413,0.168c-0.122,0.075-0.222,0.17-0.301,0.287c-0.079,0.117-0.119,0.25-0.119,0.399
		c0,0.14,0.044,0.259,0.133,0.357c0.088,0.098,0.21,0.184,0.364,0.259c0.154,0.075,0.332,0.14,0.532,0.196
		c0.201,0.056,0.408,0.103,0.623,0.14c0.289,0.056,0.564,0.128,0.826,0.217c0.261,0.089,0.49,0.208,0.686,0.357
		c0.196,0.149,0.35,0.336,0.462,0.56c0.112,0.224,0.168,0.499,0.168,0.826c0,0.374-0.075,0.691-0.224,0.952
		s-0.348,0.474-0.595,0.637c-0.247,0.163-0.527,0.282-0.84,0.357c-0.313,0.074-0.632,0.112-0.959,0.112
		c-0.56,0-1.043-0.086-1.449-0.259c-0.406-0.173-0.772-0.492-1.099-0.959L125.62,97.618z"/>
	<path fill="#243C5E" d="M137.296,98.15c-0.392,0.504-0.822,0.856-1.288,1.057c-0.467,0.2-1.008,0.301-1.624,0.301
		c-0.514,0-0.976-0.091-1.386-0.273s-0.758-0.427-1.043-0.735c-0.285-0.308-0.504-0.672-0.658-1.092
		c-0.154-0.42-0.231-0.868-0.231-1.344c0-0.504,0.084-0.968,0.252-1.393s0.401-0.789,0.7-1.092c0.299-0.303,0.653-0.539,1.064-0.707
		c0.411-0.168,0.859-0.252,1.344-0.252c0.457,0,0.877,0.077,1.26,0.231c0.383,0.154,0.712,0.378,0.987,0.672
		c0.275,0.294,0.487,0.653,0.637,1.078s0.224,0.908,0.224,1.449v0.35h-5.292c0.019,0.28,0.086,0.548,0.203,0.805
		c0.117,0.256,0.268,0.48,0.455,0.672c0.187,0.191,0.406,0.343,0.658,0.455c0.252,0.112,0.527,0.168,0.826,0.168
		c0.476,0,0.877-0.084,1.204-0.252c0.327-0.168,0.621-0.416,0.882-0.742L137.296,98.15z M136.358,95.476
		c-0.019-0.56-0.201-1.008-0.546-1.344s-0.821-0.504-1.428-0.504c-0.607,0-1.097,0.168-1.47,0.504
		c-0.373,0.336-0.597,0.784-0.672,1.344H136.358z"/>
	<path fill="#243C5E" d="M140.138,97.744c0.233,0,0.432,0.082,0.595,0.245c0.163,0.164,0.245,0.362,0.245,0.595
		s-0.086,0.432-0.259,0.595s-0.366,0.245-0.581,0.245s-0.408-0.082-0.581-0.245c-0.173-0.163-0.259-0.361-0.259-0.595
		s0.082-0.432,0.245-0.595C139.706,97.826,139.904,97.744,140.138,97.744z"/>
</g>
</svg>
