<?xml version="1.0" encoding="utf-8"?>
<!-- Generator: Adobe Illustrator 16.0.0, SVG Export Plug-In . SVG Version: 6.00 Build 0)  -->
<!DOCTYPE svg PUBLIC "-//W3C//DTD SVG 1.1//EN" "http://www.w3.org/Graphics/SVG/1.1/DTD/svg11.dtd">
<svg version="1.1" xmlns="http://www.w3.org/2000/svg" xmlns:xlink="http://www.w3.org/1999/xlink" x="0px" y="0px" width="229px"
	 height="225px" viewBox="0 0 229 225" enable-background="new 0 0 229 225" xml:space="preserve">
<g id="Calque_1">
	<circle fill="#F36C59" cx="116.111" cy="114.048" r="104.762"/>
	<g>
		<path fill="#B75149" d="M67.438,177.077H49.123c0-5.293,2.142-8.948,6.553-13.022l2.437-2.268
			c2.646-2.395,3.109-3.739,3.109-6.806c0-2.479-1.05-3.696-2.941-3.696c-3.024,0-3.318,2.646-3.36,5.797h-5.797v-1.135
			c0-5.503,2.898-8.611,9.241-8.611c5.965,0,8.906,2.982,8.906,8.107c0,3.865-1.218,6.385-4.621,9.451l-3.361,3.109
			c-1.764,1.596-2.772,3.234-3.066,4.368h11.216V177.077z"/>
		<path fill="#B75149" d="M81.211,147.336c7.184,0,9.326,3.906,9.326,14.451c0,8.275-0.462,15.878-9.326,15.878
			c-7.183,0-9.325-3.906-9.325-14.45C71.886,154.981,72.348,147.336,81.211,147.336z M77.935,164.518
			c0,7.477,0.672,9.199,3.276,9.199c2.646,0,3.277-2.353,3.277-9.998v-3.234c0-7.478-0.672-9.199-3.277-9.199
			c-2.646,0-3.276,2.352-3.276,9.997V164.518z"/>
		<path fill="#B75149" d="M113.133,147.924v4.621c-4.915,6.932-7.771,16.131-8.737,24.532h-6.343
			c0.924-7.183,3.445-16.047,9.284-23.944H94.818v-5.209H113.133z"/>
		<path fill="#B75149" d="M126.738,147.336c7.184,0,9.326,3.906,9.326,14.451c0,8.275-0.462,15.878-9.326,15.878
			c-7.183,0-9.324-3.906-9.324-14.45C117.414,154.981,117.875,147.336,126.738,147.336z M123.463,164.518
			c0,7.477,0.672,9.199,3.275,9.199c2.646,0,3.277-2.353,3.277-9.998v-3.234c0-7.478-0.672-9.199-3.277-9.199
			c-2.646,0-3.275,2.352-3.275,9.997V164.518z"/>
		<path fill="#B75149" d="M148.998,147.336c7.184,0,9.326,3.906,9.326,14.451c0,8.275-0.462,15.878-9.326,15.878
			c-7.183,0-9.324-3.906-9.324-14.45C139.674,154.981,140.135,147.336,148.998,147.336z M145.723,164.518
			c0,7.477,0.672,9.199,3.275,9.199c2.646,0,3.277-2.353,3.277-9.998v-3.234c0-7.478-0.672-9.199-3.277-9.199
			c-2.646,0-3.275,2.352-3.275,9.997V164.518z"/>
		<path fill="#B75149" d="M171.258,147.336c7.184,0,9.326,3.906,9.326,14.451c0,8.275-0.462,15.878-9.326,15.878
			c-7.183,0-9.324-3.906-9.324-14.45C161.934,154.981,162.395,147.336,171.258,147.336z M167.982,164.518
			c0,7.477,0.672,9.199,3.275,9.199c2.646,0,3.277-2.353,3.277-9.998v-3.234c0-7.478-0.672-9.199-3.277-9.199
			c-2.646,0-3.275,2.352-3.275,9.997V164.518z"/>
	</g>
	<path fill="#F0B95F" d="M128.594,54.707c0,0,8.078-10.633,8.93-13.185c0.85-2.552,2.338-9.993-1.276-9.993
		s-7.442,0.638-8.079,0.425c-0.639-0.213-7.443-6.166-11.271-6.166s-11.907,5.527-11.907,5.527s-9.356-1.486-10.207,2.765
		c-0.851,4.253,7.868,20.2,8.93,20.625C104.777,55.132,126.255,55.983,128.594,54.707z"/>
	<path fill="#F0B95F" d="M109.456,59.172c0,0-7.867-1.489-10.207,0.638C96.91,61.936,87.98,71.505,86.492,74.268
		c-1.489,2.766-5.316,11.482-5.529,16.799c-0.212,5.316,0,11.693-1.701,14.671c-1.701,2.979-4.678,10.845-2.764,14.034
		c1.913,3.189,23.177,12.332,36.785,12.759c13.608,0.426,38.274-4.465,40.613-7.867c2.338-3.403,2.337-14.246,0.85-18.074
		c-1.487-3.827-1.914-11.693-2.339-15.734s-4.892-12.759-7.229-17.224c-2.339-4.466-9.78-12.545-12.545-14.246
		c-2.765-1.702-9.994,0.426-13.184,0.638C116.26,60.234,109.456,59.172,109.456,59.172z"/>
	<path fill="none" stroke="#C99953" stroke-miterlimit="10" d="M133.908,55.132c0,0,7.654,2.34,10.844,5.529
		s3.828,5.952,3.828,5.952"/>
	<path fill="none" stroke="#C99953" stroke-miterlimit="10" d="M134.094,55.291c0,0,9.995,0.001,12.334,3.615"/>
	<path fill="none" stroke="#000000" stroke-miterlimit="10" d="M135.609,51.518"/>
	<path fill="none" stroke="#C99953" stroke-miterlimit="10" d="M134.334,54.892c0,0,5.74-1.486,8.292,0.427"/>
	
		<rect x="102.289" y="75.119" transform="matrix(0.9959 0.0908 -0.0908 0.9959 9.2684 -10.215)" fill="none" width="29.345" height="43.383"/>
	
		<text transform="matrix(1 0 0 1 103.9526 114.0645)" fill="#C99953" font-family="'HelveticaLTStd-LightCond'" font-size="53.5833">€</text>
	<g>
		<path fill="#B75149" d="M183.938,146.219l0.489-1.466l3.91,1.466v-3.98h1.537v3.98l3.875-1.466l0.454,1.571l-3.806,1.257
			l2.514,3.666l-1.257,0.838l-2.618-3.736l-2.688,3.736l-1.222-0.943l2.584-3.631L183.938,146.219z"/>
	</g>
</g>
<g id="Calque_2">
</g>
</svg>
