<?xml version="1.0" encoding="utf-8"?>
<!-- Generator: Adobe Illustrator 16.0.0, SVG Export Plug-In . SVG Version: 6.00 Build 0)  -->
<!DOCTYPE svg PUBLIC "-//W3C//DTD SVG 1.1//EN" "http://www.w3.org/Graphics/SVG/1.1/DTD/svg11.dtd">
<svg version="1.1" id="Calque_1" xmlns="http://www.w3.org/2000/svg" xmlns:xlink="http://www.w3.org/1999/xlink" x="0px" y="0px"
	 width="53.333px" height="49.998px" viewBox="0 0 53.333 49.998" enable-background="new 0 0 53.333 49.998" xml:space="preserve">
<path fill="#FFFFFF" d="M52.167,36.332c0,6.627-5.373,12-12,12h-27c-6.627,0-12-5.373-12-12v-23c0-6.627,5.373-12,12-12h27
	c6.627,0,12,5.373,12,12V36.332z"/>
<path fill="#152435" d="M17.167,17v8.332h4v19h10v-19h4v-8h-5.332c0,0-0.025-1.568,0.006-3.086c0.043-2,1.879-3.165,3.084-3.165
	c1.291,0,3.164,0.069,3.834,0.081l0.076-6.83h-10c0,0-5.908,0.207-5.996,6.5c-0.039,2.791,0.162,6.294,0.162,6.294L17.167,17z"/>
</svg>
