<?xml version="1.0" encoding="utf-8"?>
<!-- Generator: Adobe Illustrator 16.0.0, SVG Export Plug-In . SVG Version: 6.00 Build 0)  -->
<!DOCTYPE svg PUBLIC "-//W3C//DTD SVG 1.1//EN" "http://www.w3.org/Graphics/SVG/1.1/DTD/svg11.dtd">
<svg version="1.1" id="Calque_1" xmlns="http://www.w3.org/2000/svg" xmlns:xlink="http://www.w3.org/1999/xlink" x="0px" y="0px"
	 width="207.333px" height="264.167px" viewBox="0 0 207.333 264.167" enable-background="new 0 0 207.333 264.167"
	 xml:space="preserve">
<circle fill="#33C74D" cx="104.508" cy="20.004" r="16.479"/>
<circle fill="#33C74D" stroke="#FFFFFF" stroke-width="2.5353" stroke-miterlimit="10" cx="104.452" cy="20.867" r="8.498"/>
<rect x="102.99" y="7.687" fill="#FFFFFF" stroke="#33C74D" stroke-width="0.8451" stroke-miterlimit="10" width="3.197" height="12.007"/>
<g>
	<path fill="#B7B6B7" d="M205.667,184.043c0-1.965-3.047-4.043-5.024-4.043H6.859c-1.979,0-4.193,2.078-4.193,4.043v15.037
		c0,1.965,2.214,3.92,4.193,3.92h193.782c1.979,0,5.025-1.955,5.025-3.92V184.043L205.667,184.043z"/>
	<path fill="#2F2F2F" d="M205.667,186h-203V68.123C2.667,66.16,4.595,65,6.557,65H200.67c1.963,0,4.996,1.16,4.996,3.123V186z"/>
	<path fill="#BABABA" d="M83.929,202.635l-5.674,19.957l-7.588,1.094v1.641c0,0-20.844,0.549-15.378,1.368
		c5.47,0.82,42.338,1.64,49.454,1.64c8.475,0,71.141-1.912,43.801-3.279c-8.465-0.424-10.877,0.271-10.877,0.271v-1.912l-7.186-0.82
		l-6.462-20.504L83.929,202.635z"/>
	<polygon fill="#6B6B6B" points="124.939,206 83.109,206 83.929,203 124.12,203 	"/>
	<g>
		<path fill="none" stroke="#FFFFFF" stroke-width="0.7627" stroke-miterlimit="10" d="M10.332,76.397"/>
		<path fill="#FFFFFF" stroke="#FFFFFF" stroke-miterlimit="10" d="M197.167,172.898c0,2.87-1.576,5.603-4.008,5.603H14.75
			c-2.432,0-3.583-2.731-3.583-5.603V81.382c0-2.87,1.152-3.882,3.583-3.882h178.409c2.432,0,4.008,1.013,4.008,3.882V172.898z"/>
	</g>
</g>
<g>
	<path fill="#CCCCCC" d="M189.667,172.917c0,1.139-0.158,2.084-1.359,2.084H18.639c-1.201,0-1.973-0.945-1.973-2.084V86.771
		c0-1.139,0.771-2.771,1.973-2.771h169.667c1.2,0,1.36,1.633,1.36,2.771V172.917L189.667,172.917z"/>
	<g>
		<path fill="#243C5E" d="M115.752,107.54c-0.861-0.003-1.563-0.004-2.353-0.005c0.009-3.476,0.017-6.888,0.024-10.458
			c0.972,0.003,1.925-0.053,2.859,0.043c0.258,0.027,0.588,0.464,0.687,0.775c0.604,1.898,1.151,3.815,1.796,5.979
			c0.646-2.085,1.271-3.922,1.766-5.793c0.202-0.766,0.5-1.071,1.289-1.002c0.746,0.065,1.5,0.017,2.332,0.02
			c-0.008,3.523-0.016,6.936-0.023,10.439c-0.752-0.001-1.481-0.002-2.312-0.006c0.007-2.232,0.011-4.413,0.017-6.593
			c-0.08-0.012-0.16-0.026-0.24-0.039c-0.526,1.851-1.045,3.705-1.58,5.554c-0.174,0.589-0.223,1.193-1.168,1.199
			c-0.954,0.006-1.088-0.503-1.276-1.2c-0.516-1.907-1.084-3.802-1.803-5.677C115.762,102.99,115.756,105.204,115.752,107.54z"/>
		<path fill="#243C5E" d="M69.877,97.013c0.985,0.002,1.776,0.005,2.702,0.007c0.417,2.039,0.835,4.083,1.253,6.128
			c0.068,0.007,0.138,0.016,0.207,0.024c0.479-2.037,0.959-4.074,1.445-6.138c0.694,0,1.321,0.003,2.041,0.004
			c0.454,2.035,0.901,4.043,1.349,6.053c0.073,0.015,0.145,0.029,0.216,0.042c0.107-0.412,0.229-0.822,0.32-1.239
			c0.284-1.284,0.646-2.559,0.806-3.86c0.113-0.917,0.517-1.13,1.327-1.043c0.471,0.052,0.951,0.011,1.593,0.013
			c-0.338,1.277-0.654,2.451-0.961,3.625c-0.521,2.007-1.091,4.003-1.537,6.026c-0.232,1.054-0.947,0.827-1.633,0.873
			c-0.697,0.048-1.079-0.134-1.228-0.915c-0.339-1.781-0.789-3.541-1.386-5.328c-0.401,1.693-0.81,3.387-1.195,5.083
			c-0.147,0.644-0.219,1.244-1.157,1.161c-0.826-0.074-1.57,0.118-1.834-1.104C71.534,103.314,70.689,100.241,69.877,97.013z"/>
		<path fill="#243C5E" d="M143.058,101.932c-0.004,1.861-0.009,3.723-0.013,5.659c-0.817-0.002-1.56-0.004-2.396-0.006
			c0.008-3.461,0.018-6.912,0.023-10.326c1.479-0.418,2.433-0.035,3.127,1.376c0.785,1.595,1.832,3.062,2.933,4.86
			c0.006-2.259,0.011-4.222,0.015-6.264c0.893,0.001,1.664,0.004,2.508,0.006c-0.008,3.445-0.018,6.86-0.022,10.264
			c-1.96,0.444-2.118,0.383-3.124-1.212c-0.93-1.475-1.855-2.954-2.783-4.433C143.235,101.881,143.146,101.907,143.058,101.932z"/>
		<path fill="#243C5E" d="M95.877,107.55c0.007-3.542,0.016-6.954,0.024-10.626c1.904,0.137,3.797,0.067,5.593,0.451
			c2.57,0.551,3.956,3.9,3.014,6.766c-0.723,2.207-2.204,3.347-4.518,3.411C98.645,107.589,97.297,107.552,95.877,107.55z
			 M98.551,99.467c-0.003,1.898-0.008,3.752-0.012,5.67c1.174,0.032,2.347,0.229,3.059-0.928c0.752-1.225,0.729-2.542,0.002-3.752
			C100.923,99.33,99.745,99.415,98.551,99.467z"/>
		<path fill="#243C5E" d="M125.049,107.557c1.359-3.42,2.642-6.687,3.964-9.934c0.278-0.685,2.151-0.796,2.418-0.132
			c1.338,3.321,2.61,6.666,3.966,10.155c-0.898-0.002-1.615,0.05-2.318-0.031c-0.273-0.032-0.689-0.331-0.736-0.567
			c-0.176-0.914-0.77-0.974-1.502-0.931c-0.598,0.034-1.2-0.024-1.797,0.021c-0.246,0.018-0.664,0.166-0.689,0.31
			c-0.277,1.526-1.438,1.163-2.417,1.178C125.7,107.627,125.463,107.589,125.049,107.557z"/>
		<path fill="#243C5E" d="M89.778,105.113c-0.002,0.875-0.003,1.574-0.005,2.353c-1.862-0.002-3.682-0.007-5.601-0.012
			c0.008-3.427,0.015-6.871,0.023-10.385c1.83,0.006,3.65,0.01,5.565,0.013c-0.001,0.727-0.003,1.455-0.004,2.316
			c-0.982-0.001-1.961-0.005-3.019-0.008c-0.002,0.587-0.003,1.047-0.005,1.617c0.943,0.003,1.885,0.005,2.927,0.007
			c-0.002,0.837-0.004,1.564-0.006,2.412c-0.996-0.001-1.934-0.004-2.932-0.007c-0.002,0.614-0.002,1.102-0.003,1.686
			C87.739,105.107,88.686,105.109,89.778,105.113z"/>
		<path fill="#243C5E" d="M106.231,97.111c1.893,0.004,3.678,0.008,5.541,0.012c-0.001,0.753-0.003,1.45-0.006,2.293
			c-0.988-0.003-1.961-0.005-3.021-0.006c0,0.596-0.002,1.052-0.004,1.636c0.924,0.002,1.861,0.005,2.895,0.007
			c-0.002,0.844-0.004,1.569-0.006,2.426c-0.971-0.002-1.908-0.003-2.914-0.006c-0.002,0.593-0.002,1.055-0.004,1.663
			c0.99,0.002,1.963,0.004,3.027,0.007c-0.001,0.872-0.003,1.6-0.005,2.392c-1.854-0.005-3.64-0.008-5.526-0.014
			C106.215,104.072,106.223,100.632,106.231,97.111z"/>
		<path fill="#243C5E" d="M138.76,97.23c-0.01,3.434-0.018,6.847-0.025,10.345c-0.811-0.002-1.588-0.004-2.463-0.005
			c0.007-3.42,0.016-6.833,0.023-10.345C137.055,97.227,137.831,97.229,138.76,97.23z"/>
		<path fill="#FFFFFF" d="M128.795,103.983c0.326-1.06,0.638-2.072,1.049-3.406c0.391,1.306,0.689,2.312,1.018,3.412
			C130.104,103.987,129.489,103.986,128.795,103.983z"/>
		<path fill="#243C5E" d="M132.463,109.803c0.123-0.005,0.248-0.012,0.373-0.019"/>
	</g>
	<polygon fill="#CCCCCC" points="197.667,81 9.965,81 10.005,76.565 197.667,76.386 	"/>
	<g>
		<path d="M14.028,78.314c0-0.159,0.022-0.297,0.092-0.424c0.103-0.186,0.258-0.299,0.471-0.33c0.105-0.017,0.202,0.009,0.298,0.044
			c0.038,0.015,0.076,0.028,0.114,0.042c0.054,0.021,0.107,0.016,0.161-0.004c0.078-0.028,0.153-0.065,0.235-0.08
			c0.244-0.045,0.452,0.016,0.615,0.21c0.016,0.019,0.006,0.026-0.008,0.036c-0.128,0.087-0.216,0.203-0.243,0.358
			c-0.028,0.169,0.011,0.321,0.128,0.449c0.051,0.058,0.111,0.103,0.181,0.135c0.02,0.009,0.021,0.018,0.014,0.036
			c-0.057,0.162-0.146,0.305-0.251,0.438c-0.041,0.052-0.084,0.1-0.14,0.136c-0.098,0.065-0.202,0.07-0.31,0.028
			c-0.059-0.021-0.115-0.048-0.176-0.062c-0.107-0.025-0.208-0.006-0.308,0.034c-0.053,0.021-0.106,0.043-0.164,0.053
			c-0.086,0.015-0.163-0.01-0.229-0.063c-0.117-0.093-0.2-0.214-0.275-0.339c-0.093-0.157-0.154-0.326-0.187-0.505
			C14.036,78.437,14.024,78.369,14.028,78.314z"/>
		<path d="M15.568,77.017c-0.009,0.171-0.084,0.307-0.219,0.41c-0.076,0.06-0.163,0.094-0.262,0.095
			c-0.023,0-0.031-0.006-0.031-0.03c0.001-0.2,0.097-0.347,0.259-0.454c0.063-0.042,0.134-0.069,0.21-0.081
			c0.042-0.007,0.042-0.008,0.042,0.034C15.568,77,15.568,77.008,15.568,77.017z"/>
	</g>
	<rect x="17.796" y="77.891" fill="none" width="13.085" height="4.812"/>
	<text transform="matrix(1 0 0 1 17.7969 79.2227)" font-family="'MalayalamSangamMN-Bold'" font-size="1.9384">Photoshop</text>
	<rect x="30.673" y="77.891" fill="none" width="5.954" height="4.084"/>
	<text transform="matrix(1 0 0 1 30.6738 79.2402)" font-family="'MalayalamSangamMN'" font-size="1.9384">Fichier</text>
	<rect x="37.977" y="77.891" fill="none" width="5.954" height="4.084"/>
	<text transform="matrix(1 0 0 1 37.9775 79.2402)" font-family="'MalayalamSangamMN'" font-size="1.9384">Edition</text>
	<rect x="45.073" y="77.891" fill="none" width="5.953" height="4.084"/>
	<text transform="matrix(1 0 0 1 45.0737 79.2402)" font-family="'MalayalamSangamMN'" font-size="1.9384">Objet</text>
	<rect x="50.854" y="77.891" fill="none" width="5.953" height="4.084"/>
	<text transform="matrix(1 0 0 1 50.8545 79.2402)" font-family="'MalayalamSangamMN'" font-size="1.9384">Texte</text>
	<rect x="56.599" y="77.891" fill="none" width="10.003" height="3.115"/>
	<text transform="matrix(1 0 0 1 56.6001 79.2402)" font-family="'MalayalamSangamMN'" font-size="1.9384">Selection</text>
	<rect x="186.961" y="77.891" fill="none" width="10.004" height="3.115"/>
	<text transform="matrix(1 0 0 1 186.9634 79.2402)" font-family="'MalayalamSangamMN'" font-size="1.9384">15 : 06</text>
	<rect x="174.379" y="77.891" fill="none" width="11.391" height="3.115"/>
	<text transform="matrix(1 0 0 1 174.3813 79.2402)" font-family="'MalayalamSangamMN'" font-size="1.9384">Mer. 28 janv.</text>
	
		<line opacity="0.2" fill="none" stroke="#666666" stroke-miterlimit="10" enable-background="new    " x1="16.667" y1="93.5" x2="189.667" y2="93.5"/>
	<circle fill="#FF5F5C" cx="22.242" cy="88.854" r="1.156"/>
	<circle fill="#FFB942" cx="26.048" cy="88.854" r="1.156"/>
	<circle fill="#00C74D" cx="29.855" cy="88.854" r="1.156"/>
	<path fill="#FFFFFF" d="M125.667,90.456c0,0.3-0.242,0.544-0.543,0.544H59.21c-0.3,0-0.544-0.244-0.544-0.544v-2.912
		c0-0.3,0.244-0.544,0.544-0.544h65.912c0.301,0,0.545,0.244,0.545,0.544V90.456L125.667,90.456z"/>
	<rect x="98.939" y="112.554" fill="none" width="53.774" height="57.526"/>
	<text transform="matrix(1 0 0 1 98.9399 114.1396)" fill="#FFFFFF" font-family="'TwCenMT-Regular'" font-size="2.5011">This</text>
	<text transform="matrix(1 0 0 1 103.2627 114.1396)" fill="#FFFFFF" font-family="'TwCenMT-Regular'" font-size="2.5011"> </text>
	<text transform="matrix(1 0 0 1 104.6411 114.1396)" fill="#FFFFFF" font-family="'TwCenMT-Regular'" font-size="2.5011">is</text>
	<text transform="matrix(1 0 0 1 106.3979 114.1396)" fill="#FFFFFF" font-family="'TwCenMT-Regular'" font-size="2.5011"> </text>
	<text transform="matrix(1 0 0 1 107.7759 114.1396)" fill="#FFFFFF" font-family="'TwCenMT-Regular'" font-size="2.5011">Photoshop&apos;s</text>
	<text transform="matrix(1 0 0 1 121.2339 114.1396)" fill="#FFFFFF" font-family="'TwCenMT-Regular'" font-size="2.5011"> </text>
	<text transform="matrix(1 0 0 1 122.6128 114.1396)" fill="#FFFFFF" font-family="'TwCenMT-Regular'" font-size="2.5011">version</text>
	<text transform="matrix(1 0 0 1 130.8345 114.1396)" fill="#FFFFFF" font-family="'TwCenMT-Regular'" font-size="2.5011">  </text>
	<text transform="matrix(1 0 0 1 133.5903 114.1396)" fill="#FFFFFF" font-family="'TwCenMT-Regular'" font-size="2.5011">of</text>
	<text transform="matrix(1 0 0 1 136.0493 114.1396)" fill="#FFFFFF" font-family="'TwCenMT-Regular'" font-size="2.5011"> </text>
	<text transform="matrix(1 0 0 1 137.4282 114.1396)" fill="#FFFFFF" font-family="'TwCenMT-Regular'" font-size="2.5011">Lorem</text>
	<text transform="matrix(1 0 0 1 144.3325 114.1396)" fill="#FFFFFF" font-family="'TwCenMT-Regular'" font-size="2.5011"> </text>
	<text transform="matrix(1 0 0 1 145.7114 114.1396)" fill="#FFFFFF" font-family="'TwCenMT-Regular'" font-size="2.5011">Ipsum. </text>
	<text transform="matrix(1 0 0 1 98.9399 117.1411)" fill="#FFFFFF" font-family="'TwCenMT-Regular'" font-size="2.5011">Proin</text>
	<text transform="matrix(1 0 0 1 104.856 117.1411)" fill="#FFFFFF" font-family="'TwCenMT-Regular'" font-size="2.5011"> </text>
	<text transform="matrix(1 0 0 1 106.3716 117.1411)" fill="#FFFFFF" font-family="'TwCenMT-Regular'" font-size="2.5011">gravida</text>
	<text transform="matrix(1 0 0 1 115.6802 117.1411)" fill="#FFFFFF" font-family="'TwCenMT-Regular'" font-size="2.5011"> </text>
	<text transform="matrix(1 0 0 1 117.1968 117.1411)" fill="#FFFFFF" font-family="'TwCenMT-Regular'" font-size="2.5011">nibh</text>
	<text transform="matrix(1 0 0 1 122.0679 117.1411)" fill="#FFFFFF" font-family="'TwCenMT-Regular'" font-size="2.5011"> </text>
	<text transform="matrix(1 0 0 1 123.5845 117.1411)" fill="#FFFFFF" font-family="'TwCenMT-Regular'" font-size="2.5011">vel</text>
	<text transform="matrix(1 0 0 1 127.0415 117.1411)" fill="#FFFFFF" font-family="'TwCenMT-Regular'" font-size="2.5011"> </text>
	<text transform="matrix(1 0 0 1 128.5591 117.1411)" fill="#FFFFFF" font-family="'TwCenMT-Regular'" font-size="2.5011">velit</text>
	<text transform="matrix(1 0 0 1 133.6196 117.1411)" fill="#FFFFFF" font-family="'TwCenMT-Regular'" font-size="2.5011"> </text>
	<text transform="matrix(1 0 0 1 135.1353 117.1411)" fill="#FFFFFF" font-family="'TwCenMT-Regular'" font-size="2.5011">auctor</text>
	<text transform="matrix(1 0 0 1 142.4614 117.1411)" fill="#FFFFFF" font-family="'TwCenMT-Regular'" font-size="2.5011"> </text>
	<text transform="matrix(1 0 0 1 143.978 117.1411)" fill="#FFFFFF" font-family="'TwCenMT-Regular'" font-size="2.5011">aliquet. </text>
	<text transform="matrix(1 0 0 1 98.9399 120.1431)" fill="#FFFFFF" font-family="'TwCenMT-Regular'" font-size="2.5011">Aenean</text>
	<text transform="matrix(1 0 0 1 107.6479 120.1431)" fill="#FFFFFF" font-family="'TwCenMT-Regular'" font-size="2.5011"> </text>
	<text transform="matrix(1 0 0 1 110.1069 120.1431)" fill="#FFFFFF" font-family="'TwCenMT-Regular'" font-size="2.5011">sollicitudin,</text>
	<text transform="matrix(1 0 0 1 123.1294 120.1431)" fill="#FFFFFF" font-family="'TwCenMT-Regular'" font-size="2.5011"> </text>
	<text transform="matrix(1 0 0 1 125.5903 120.1431)" fill="#FFFFFF" font-family="'TwCenMT-Regular'" font-size="2.5011">lorem</text>
	<text transform="matrix(1 0 0 1 132.0806 120.1431)" fill="#FFFFFF" font-family="'TwCenMT-Regular'" font-size="2.5011"> </text>
	<text transform="matrix(1 0 0 1 134.5415 120.1431)" fill="#FFFFFF" font-family="'TwCenMT-Regular'" font-size="2.5011">quis</text>
	<text transform="matrix(1 0 0 1 139.147 120.1431)" fill="#FFFFFF" font-family="'TwCenMT-Regular'" font-size="2.5011"> </text>
	<text transform="matrix(1 0 0 1 141.6079 120.1431)" fill="#FFFFFF" font-family="'TwCenMT-Regular'" font-size="2.5011">bibendum </text>
	<text transform="matrix(1 0 0 1 98.9399 123.145)" fill="#FFFFFF" font-family="'TwCenMT-Regular'" font-size="2.5011">auctor,</text>
	<text transform="matrix(1 0 0 1 107.0005 123.145)" fill="#FFFFFF" font-family="'TwCenMT-Regular'" font-size="2.5011"> </text>
	<text transform="matrix(1 0 0 1 108.2153 123.145)" fill="#FFFFFF" font-family="'TwCenMT-Regular'" font-size="2.5011">nisi</text>
	<text transform="matrix(1 0 0 1 111.9907 123.145)" fill="#FFFFFF" font-family="'TwCenMT-Regular'" font-size="2.5011"> </text>
	<text transform="matrix(1 0 0 1 113.2075 123.145)" fill="#FFFFFF" font-family="'TwCenMT-Regular'" font-size="2.5011">elit</text>
	<text transform="matrix(1 0 0 1 116.981 123.145)" fill="#FFFFFF" font-family="'TwCenMT-Regular'" font-size="2.5011"> </text>
	<text transform="matrix(1 0 0 1 118.1968 123.145)" fill="#FFFFFF" font-family="'TwCenMT-Regular'" font-size="2.5011">consequat</text>
	<text transform="matrix(1 0 0 1 129.811 123.145)" fill="#FFFFFF" font-family="'TwCenMT-Regular'" font-size="2.5011"> </text>
	<text transform="matrix(1 0 0 1 131.0269 123.145)" fill="#FFFFFF" font-family="'TwCenMT-Regular'" font-size="2.5011">ipsum,</text>
	<text transform="matrix(1 0 0 1 138.2261 123.145)" fill="#FFFFFF" font-family="'TwCenMT-Regular'" font-size="2.5011"> </text>
	<text transform="matrix(1 0 0 1 139.4419 123.145)" fill="#FFFFFF" font-family="'TwCenMT-Regular'" font-size="2.5011">nec</text>
	<text transform="matrix(1 0 0 1 143.313 123.145)" fill="#FFFFFF" font-family="'TwCenMT-Regular'" font-size="2.5011"> </text>
	<text transform="matrix(1 0 0 1 144.5288 123.145)" fill="#FFFFFF" font-family="'TwCenMT-Regular'" font-size="2.5011">sagittis </text>
	<text transform="matrix(1 0 0 1 98.9399 126.145)" fill="#FFFFFF" font-family="'TwCenMT-Regular'" font-size="2.5011">sem</text>
	<text transform="matrix(1 0 0 1 103.2549 126.145)" fill="#FFFFFF" font-family="'TwCenMT-Regular'" font-size="2.5011"> </text>
	<text transform="matrix(1 0 0 1 104.4556 126.145)" fill="#FFFFFF" font-family="'TwCenMT-Regular'" font-size="2.5011">nibh</text>
	<text transform="matrix(1 0 0 1 109.3237 126.145)" fill="#FFFFFF" font-family="'TwCenMT-Regular'" font-size="2.5011"> </text>
	<text transform="matrix(1 0 0 1 110.5239 126.145)" fill="#FFFFFF" font-family="'TwCenMT-Regular'" font-size="2.5011">id</text>
	<text transform="matrix(1 0 0 1 112.8286 126.145)" fill="#FFFFFF" font-family="'TwCenMT-Regular'" font-size="2.5011"> </text>
	<text transform="matrix(1 0 0 1 114.0278 126.145)" fill="#FFFFFF" font-family="'TwCenMT-Regular'" font-size="2.5011">elit.</text>
	<text transform="matrix(1 0 0 1 118.5396 126.145)" fill="#FFFFFF" font-family="'TwCenMT-Regular'" font-size="2.5011"> </text>
	<text transform="matrix(1 0 0 1 119.7388 126.145)" fill="#FFFFFF" font-family="'TwCenMT-Regular'" font-size="2.5011">Duis</text>
	<text transform="matrix(1 0 0 1 124.478 126.145)" fill="#FFFFFF" font-family="'TwCenMT-Regular'" font-size="2.5011"> </text>
	<text transform="matrix(1 0 0 1 125.6782 126.145)" fill="#FFFFFF" font-family="'TwCenMT-Regular'" font-size="2.5011">sed</text>
	<text transform="matrix(1 0 0 1 129.7056 126.145)" fill="#FFFFFF" font-family="'TwCenMT-Regular'" font-size="2.5011"> </text>
	<text transform="matrix(1 0 0 1 130.9058 126.145)" fill="#FFFFFF" font-family="'TwCenMT-Regular'" font-size="2.5011">odio</text>
	<text transform="matrix(1 0 0 1 136.0864 126.145)" fill="#FFFFFF" font-family="'TwCenMT-Regular'" font-size="2.5011"> </text>
	<text transform="matrix(1 0 0 1 137.2876 126.145)" fill="#FFFFFF" font-family="'TwCenMT-Regular'" font-size="2.5011">sit</text>
	<text transform="matrix(1 0 0 1 139.9087 126.145)" fill="#FFFFFF" font-family="'TwCenMT-Regular'" font-size="2.5011"> </text>
	<text transform="matrix(1 0 0 1 141.1099 126.145)" fill="#FFFFFF" font-family="'TwCenMT-Regular'" font-size="2.5011">amet</text>
	<text transform="matrix(1 0 0 1 146.8364 126.145)" fill="#FFFFFF" font-family="'TwCenMT-Regular'" font-size="2.5011"> </text>
	<text transform="matrix(1 0 0 1 148.0376 126.145)" fill="#FFFFFF" font-family="'TwCenMT-Regular'" font-size="2.5011">nibh </text>
	<text transform="matrix(1 0 0 1 98.9399 129.147)" fill="#FFFFFF" font-family="'TwCenMT-Regular'" font-size="2.5011">vulputate</text>
	<text transform="matrix(1 0 0 1 109.8286 129.147)" fill="#FFFFFF" font-family="'TwCenMT-Regular'" font-size="2.5011"> </text>
	<text transform="matrix(1 0 0 1 111.7095 129.147)" fill="#FFFFFF" font-family="'TwCenMT-Regular'" font-size="2.5011">cursus</text>
	<text transform="matrix(1 0 0 1 118.4868 129.147)" fill="#FFFFFF" font-family="'TwCenMT-Regular'" font-size="2.5011"> </text>
	<text transform="matrix(1 0 0 1 120.3696 129.147)" fill="#FFFFFF" font-family="'TwCenMT-Regular'" font-size="2.5011">a</text>
	<text transform="matrix(1 0 0 1 121.936 129.147)" fill="#FFFFFF" font-family="'TwCenMT-Regular'" font-size="2.5011"> </text>
	<text transform="matrix(1 0 0 1 123.8169 129.147)" fill="#FFFFFF" font-family="'TwCenMT-Regular'" font-size="2.5011">sit</text>
	<text transform="matrix(1 0 0 1 126.4399 129.147)" fill="#FFFFFF" font-family="'TwCenMT-Regular'" font-size="2.5011"> </text>
	<text transform="matrix(1 0 0 1 128.3208 129.147)" fill="#FFFFFF" font-family="'TwCenMT-Regular'" font-size="2.5011">amet</text>
	<text transform="matrix(1 0 0 1 134.0474 129.147)" fill="#FFFFFF" font-family="'TwCenMT-Regular'" font-size="2.5011"> </text>
	<text transform="matrix(1 0 0 1 135.9282 129.147)" fill="#FFFFFF" font-family="'TwCenMT-Regular'" font-size="2.5011">mauris.</text>
	<text transform="matrix(1 0 0 1 144.1489 129.147)" fill="#FFFFFF" font-family="'TwCenMT-Regular'" font-size="2.5011"> </text>
	<text transform="matrix(1 0 0 1 146.0298 129.147)" fill="#FFFFFF" font-family="'TwCenMT-Regular'" font-size="2.5011">Morbi </text>
	<text transform="matrix(1 0 0 1 98.9399 132.1489)" fill="#FFFFFF" font-family="'TwCenMT-Regular'" font-size="2.5011">accumsan</text>
	<text transform="matrix(1 0 0 1 109.8169 132.1489)" fill="#FFFFFF" font-family="'TwCenMT-Regular'" font-size="2.5011"> </text>
	<text transform="matrix(1 0 0 1 111.0825 132.1489)" fill="#FFFFFF" font-family="'TwCenMT-Regular'" font-size="2.5011">ipsum</text>
	<text transform="matrix(1 0 0 1 117.5435 132.1489)" fill="#FFFFFF" font-family="'TwCenMT-Regular'" font-size="2.5011"> </text>
	<text transform="matrix(1 0 0 1 118.8101 132.1489)" fill="#FFFFFF" font-family="'TwCenMT-Regular'" font-size="2.5011">velit.</text>
	<text transform="matrix(1 0 0 1 124.606 132.1489)" fill="#FFFFFF" font-family="'TwCenMT-Regular'" font-size="2.5011"> </text>
	<text transform="matrix(1 0 0 1 125.8716 132.1489)" fill="#FFFFFF" font-family="'TwCenMT-Regular'" font-size="2.5011">Nam</text>
	<text transform="matrix(1 0 0 1 131.1499 132.1489)" fill="#FFFFFF" font-family="'TwCenMT-Regular'" font-size="2.5011"> </text>
	<text transform="matrix(1 0 0 1 132.4165 132.1489)" fill="#FFFFFF" font-family="'TwCenMT-Regular'" font-size="2.5011">nec</text>
	<text transform="matrix(1 0 0 1 136.2876 132.1489)" fill="#FFFFFF" font-family="'TwCenMT-Regular'" font-size="2.5011"> </text>
	<text transform="matrix(1 0 0 1 137.5513 132.1489)" fill="#FFFFFF" font-family="'TwCenMT-Regular'" font-size="2.5011">tellus</text>
	<text transform="matrix(1 0 0 1 143.6313 132.1489)" fill="#FFFFFF" font-family="'TwCenMT-Regular'" font-size="2.5011"> </text>
	<text transform="matrix(1 0 0 1 144.897 132.1489)" fill="#FFFFFF" font-family="'TwCenMT-Regular'" font-size="2.5011">a</text>
	<text transform="matrix(1 0 0 1 146.4634 132.1489)" fill="#FFFFFF" font-family="'TwCenMT-Regular'" font-size="2.5011"> </text>
	<text transform="matrix(1 0 0 1 147.729 132.1489)" fill="#FFFFFF" font-family="'TwCenMT-Regular'" font-size="2.5011">odio </text>
	<text transform="matrix(1 0 0 1 98.9399 135.1509)" fill="#FFFFFF" font-family="'TwCenMT-Regular'" font-size="2.5011">tincidunt</text>
	<text transform="matrix(1 0 0 1 108.7095 135.1509)" fill="#FFFFFF" font-family="'TwCenMT-Regular'" font-size="2.5011"> </text>
	<text transform="matrix(1 0 0 1 109.4204 135.1509)" fill="#FFFFFF" font-family="'TwCenMT-Regular'" font-size="2.5011">auctor</text>
	<text transform="matrix(1 0 0 1 116.7446 135.1509)" fill="#FFFFFF" font-family="'TwCenMT-Regular'" font-size="2.5011"> </text>
	<text transform="matrix(1 0 0 1 117.4556 135.1509)" fill="#FFFFFF" font-family="'TwCenMT-Regular'" font-size="2.5011">a</text>
	<text transform="matrix(1 0 0 1 119.0229 135.1509)" fill="#FFFFFF" font-family="'TwCenMT-Regular'" font-size="2.5011"> </text>
	<text transform="matrix(1 0 0 1 119.7339 135.1509)" fill="#FFFFFF" font-family="'TwCenMT-Regular'" font-size="2.5011">ornare</text>
	<text transform="matrix(1 0 0 1 127.5024 135.1509)" fill="#FFFFFF" font-family="'TwCenMT-Regular'" font-size="2.5011"> </text>
	<text transform="matrix(1 0 0 1 128.2134 135.1509)" fill="#FFFFFF" font-family="'TwCenMT-Regular'" font-size="2.5011">odio.</text>
	<text transform="matrix(1 0 0 1 134.1294 135.1509)" fill="#FFFFFF" font-family="'TwCenMT-Regular'" font-size="2.5011"> </text>
	<text transform="matrix(1 0 0 1 134.8423 135.1509)" fill="#FFFFFF" font-family="'TwCenMT-Regular'" font-size="2.5011">Sed</text>
	<text transform="matrix(1 0 0 1 139.2876 135.1509)" fill="#FFFFFF" font-family="'TwCenMT-Regular'" font-size="2.5011"> </text>
	<text transform="matrix(1 0 0 1 139.9985 135.1509)" fill="#FFFFFF" font-family="'TwCenMT-Regular'" font-size="2.5011">non</text>
	<text transform="matrix(1 0 0 1 144.0024 135.1509)" fill="#FFFFFF" font-family="'TwCenMT-Regular'" font-size="2.5011">  </text>
	<text transform="matrix(1 0 0 1 145.4243 135.1509)" fill="#FFFFFF" font-family="'TwCenMT-Regular'" font-size="2.5011">mauris </text>
	<text transform="matrix(1 0 0 1 98.9399 138.1509)" fill="#FFFFFF" font-family="'TwCenMT-Regular'" font-size="2.5011">vitae</text>
	<text transform="matrix(1 0 0 1 104.8306 138.1509)" fill="#FFFFFF" font-family="'TwCenMT-Regular'" font-size="2.5011"> </text>
	<text transform="matrix(1 0 0 1 106.1079 138.1509)" fill="#FFFFFF" font-family="'TwCenMT-Regular'" font-size="2.5011">erat</text>
	<text transform="matrix(1 0 0 1 111.0005 138.1509)" fill="#FFFFFF" font-family="'TwCenMT-Regular'" font-size="2.5011"> </text>
	<text transform="matrix(1 0 0 1 112.2778 138.1509)" fill="#FFFFFF" font-family="'TwCenMT-Regular'" font-size="2.5011">consequat</text>
	<text transform="matrix(1 0 0 1 123.8921 138.1509)" fill="#FFFFFF" font-family="'TwCenMT-Regular'" font-size="2.5011"> </text>
	<text transform="matrix(1 0 0 1 125.1704 138.1509)" fill="#FFFFFF" font-family="'TwCenMT-Regular'" font-size="2.5011">auctor</text>
	<text transform="matrix(1 0 0 1 132.4966 138.1509)" fill="#FFFFFF" font-family="'TwCenMT-Regular'" font-size="2.5011"> </text>
	<text transform="matrix(1 0 0 1 133.7749 138.1509)" fill="#FFFFFF" font-family="'TwCenMT-Regular'" font-size="2.5011">eu</text>
	<text transform="matrix(1 0 0 1 136.4966 138.1509)" fill="#FFFFFF" font-family="'TwCenMT-Regular'" font-size="2.5011"> </text>
	<text transform="matrix(1 0 0 1 137.7759 138.1509)" fill="#FFFFFF" font-family="'TwCenMT-Regular'" font-size="2.5011">in</text>
	<text transform="matrix(1 0 0 1 139.7954 138.1509)" fill="#FFFFFF" font-family="'TwCenMT-Regular'" font-size="2.5011"> </text>
	<text transform="matrix(1 0 0 1 141.0747 138.1509)" fill="#FFFFFF" font-family="'TwCenMT-Regular'" font-size="2.5011">elit.</text>
	<text transform="matrix(1 0 0 1 145.5864 138.1509)" fill="#FFFFFF" font-family="'TwCenMT-Regular'" font-size="2.5011"> </text>
	<text transform="matrix(1 0 0 1 146.8667 138.1509)" fill="#FFFFFF" font-family="'TwCenMT-Regular'" font-size="2.5011">Class </text>
	<text transform="matrix(1 0 0 1 98.9399 141.1528)" fill="#FFFFFF" font-family="'TwCenMT-Regular'" font-size="2.5011">aptent</text>
	<text transform="matrix(1 0 0 1 106.5259 141.1528)" fill="#FFFFFF" font-family="'TwCenMT-Regular'" font-size="2.5011"> </text>
	<text transform="matrix(1 0 0 1 107.7788 141.1528)" fill="#FFFFFF" font-family="'TwCenMT-Regular'" font-size="2.5011">taciti</text>
	<text transform="matrix(1 0 0 1 113.6987 141.1528)" fill="#FFFFFF" font-family="'TwCenMT-Regular'" font-size="2.5011"> </text>
	<text transform="matrix(1 0 0 1 114.9517 141.1528)" fill="#FFFFFF" font-family="'TwCenMT-Regular'" font-size="2.5011">sociosqu</text>
	<text transform="matrix(1 0 0 1 124.605 141.1528)" fill="#FFFFFF" font-family="'TwCenMT-Regular'" font-size="2.5011"> </text>
	<text transform="matrix(1 0 0 1 125.8579 141.1528)" fill="#FFFFFF" font-family="'TwCenMT-Regular'" font-size="2.5011">ad</text>
	<text transform="matrix(1 0 0 1 128.9946 141.1528)" fill="#FFFFFF" font-family="'TwCenMT-Regular'" font-size="2.5011"> </text>
	<text transform="matrix(1 0 0 1 130.2466 141.1528)" fill="#FFFFFF" font-family="'TwCenMT-Regular'" font-size="2.5011">litora</text>
	<text transform="matrix(1 0 0 1 136.6108 141.1528)" fill="#FFFFFF" font-family="'TwCenMT-Regular'" font-size="2.5011"> </text>
	<text transform="matrix(1 0 0 1 137.8638 141.1528)" fill="#FFFFFF" font-family="'TwCenMT-Regular'" font-size="2.5011">torquent</text>
	<text transform="matrix(1 0 0 1 147.6274 141.1528)" fill="#FFFFFF" font-family="'TwCenMT-Regular'" font-size="2.5011"> </text>
	<text transform="matrix(1 0 0 1 148.8794 141.1528)" fill="#FFFFFF" font-family="'TwCenMT-Regular'" font-size="2.5011">per </text>
	<text transform="matrix(1 0 0 1 98.9399 144.1548)" fill="#FFFFFF" font-family="'TwCenMT-Regular'" font-size="2.5011">conubia</text>
	<text transform="matrix(1 0 0 1 107.9653 144.1548)" fill="#FFFFFF" font-family="'TwCenMT-Regular'" font-size="2.5011"> </text>
	<text transform="matrix(1 0 0 1 110.6372 144.1548)" fill="#FFFFFF" font-family="'TwCenMT-Regular'" font-size="2.5011">nostra,</text>
	<text transform="matrix(1 0 0 1 118.5688 144.1548)" fill="#FFFFFF" font-family="'TwCenMT-Regular'" font-size="2.5011"> </text>
	<text transform="matrix(1 0 0 1 121.2417 144.1548)" fill="#FFFFFF" font-family="'TwCenMT-Regular'" font-size="2.5011">per</text>
	<text transform="matrix(1 0 0 1 125.2681 144.1548)" fill="#FFFFFF" font-family="'TwCenMT-Regular'" font-size="2.5011"> </text>
	<text transform="matrix(1 0 0 1 127.9409 144.1548)" fill="#FFFFFF" font-family="'TwCenMT-Regular'" font-size="2.5011">inceptos</text>
	<text transform="matrix(1 0 0 1 137.4399 144.1548)" fill="#FFFFFF" font-family="'TwCenMT-Regular'" font-size="2.5011"> </text>
	<text transform="matrix(1 0 0 1 140.1128 144.1548)" fill="#FFFFFF" font-family="'TwCenMT-Regular'" font-size="2.5011">himenaeos. </text>
	<text transform="matrix(1 0 0 1 98.9399 147.1548)" fill="#FFFFFF" font-family="'TwCenMT-Regular'" font-size="2.5011">Mauris</text>
	<text transform="matrix(1 0 0 1 106.6831 147.1548)" fill="#FFFFFF" font-family="'TwCenMT-Regular'" font-size="2.5011"> </text>
	<text transform="matrix(1 0 0 1 107.8901 147.1548)" fill="#FFFFFF" font-family="'TwCenMT-Regular'" font-size="2.5011">in</text>
	<text transform="matrix(1 0 0 1 109.9077 147.1548)" fill="#FFFFFF" font-family="'TwCenMT-Regular'" font-size="2.5011"> </text>
	<text transform="matrix(1 0 0 1 111.1147 147.1548)" fill="#FFFFFF" font-family="'TwCenMT-Regular'" font-size="2.5011">erat</text>
	<text transform="matrix(1 0 0 1 116.0063 147.1548)" fill="#FFFFFF" font-family="'TwCenMT-Regular'" font-size="2.5011"> </text>
	<text transform="matrix(1 0 0 1 117.2134 147.1548)" fill="#FFFFFF" font-family="'TwCenMT-Regular'" font-size="2.5011">justo.</text>
	<text transform="matrix(1 0 0 1 123.2935 147.1548)" fill="#FFFFFF" font-family="'TwCenMT-Regular'" font-size="2.5011"> </text>
	<text transform="matrix(1 0 0 1 124.5024 147.1548)" fill="#FFFFFF" font-family="'TwCenMT-Regular'" font-size="2.5011">Nullam</text>
	<text transform="matrix(1 0 0 1 132.5347 147.1548)" fill="#FFFFFF" font-family="'TwCenMT-Regular'" font-size="2.5011"> </text>
	<text transform="matrix(1 0 0 1 133.7417 147.1548)" fill="#FFFFFF" font-family="'TwCenMT-Regular'" font-size="2.5011">ac</text>
	<text transform="matrix(1 0 0 1 136.4595 147.1548)" fill="#FFFFFF" font-family="'TwCenMT-Regular'" font-size="2.5011"> </text>
	<text transform="matrix(1 0 0 1 137.6665 147.1548)" fill="#FFFFFF" font-family="'TwCenMT-Regular'" font-size="2.5011">urna</text>
	<text transform="matrix(1 0 0 1 142.8208 147.1548)" fill="#FFFFFF" font-family="'TwCenMT-Regular'" font-size="2.5011"> </text>
	<text transform="matrix(1 0 0 1 144.0278 147.1548)" fill="#FFFFFF" font-family="'TwCenMT-Regular'" font-size="2.5011">eu</text>
	<text transform="matrix(1 0 0 1 146.7505 147.1548)" fill="#FFFFFF" font-family="'TwCenMT-Regular'" font-size="2.5011"> </text>
	<text transform="matrix(1 0 0 1 147.9575 147.1548)" fill="#FFFFFF" font-family="'TwCenMT-Regular'" font-size="2.5011">felis </text>
	<text transform="matrix(1 0 0 1 98.9399 150.1567)" fill="#FFFFFF" font-family="'TwCenMT-Regular'" font-size="2.5011">dapibus</text>
	<text transform="matrix(1 0 0 1 108.2485 150.1567)" fill="#FFFFFF" font-family="'TwCenMT-Regular'" font-size="2.5011"> </text>
	<text transform="matrix(1 0 0 1 109.5259 150.1567)" fill="#FFFFFF" font-family="'TwCenMT-Regular'" font-size="2.5011">condimentum</text>
	<text transform="matrix(1 0 0 1 124.2817 150.1567)" fill="#FFFFFF" font-family="'TwCenMT-Regular'" font-size="2.5011"> </text>
	<text transform="matrix(1 0 0 1 125.5591 150.1567)" fill="#FFFFFF" font-family="'TwCenMT-Regular'" font-size="2.5011">sit</text>
	<text transform="matrix(1 0 0 1 128.1802 150.1567)" fill="#FFFFFF" font-family="'TwCenMT-Regular'" font-size="2.5011"> </text>
	<text transform="matrix(1 0 0 1 129.4575 150.1567)" fill="#FFFFFF" font-family="'TwCenMT-Regular'" font-size="2.5011">amet</text>
	<text transform="matrix(1 0 0 1 135.1851 150.1567)" fill="#FFFFFF" font-family="'TwCenMT-Regular'" font-size="2.5011"> </text>
	<text transform="matrix(1 0 0 1 136.4614 150.1567)" fill="#FFFFFF" font-family="'TwCenMT-Regular'" font-size="2.5011">a</text>
	<text transform="matrix(1 0 0 1 138.0298 150.1567)" fill="#FFFFFF" font-family="'TwCenMT-Regular'" font-size="2.5011"> </text>
	<text transform="matrix(1 0 0 1 139.3071 150.1567)" fill="#FFFFFF" font-family="'TwCenMT-Regular'" font-size="2.5011">augue.</text>
	<text transform="matrix(1 0 0 1 147.1831 150.1567)" fill="#FFFFFF" font-family="'TwCenMT-Regular'" font-size="2.5011"> </text>
	<text transform="matrix(1 0 0 1 148.4614 150.1567)" fill="#FFFFFF" font-family="'TwCenMT-Regular'" font-size="2.5011">Sed </text>
	<text transform="matrix(1 0 0 1 98.9399 153.1587)" fill="#FFFFFF" font-family="'TwCenMT-Regular'" font-size="2.5011">non</text>
	<text transform="matrix(1 0 0 1 102.9438 153.1587)" fill="#FFFFFF" font-family="'TwCenMT-Regular'" font-size="2.5011"> </text>
	<text transform="matrix(1 0 0 1 104.3999 153.1587)" fill="#FFFFFF" font-family="'TwCenMT-Regular'" font-size="2.5011">neque</text>
	<text transform="matrix(1 0 0 1 111.4087 153.1587)" fill="#FFFFFF" font-family="'TwCenMT-Regular'" font-size="2.5011"> </text>
	<text transform="matrix(1 0 0 1 112.8657 153.1587)" fill="#FFFFFF" font-family="'TwCenMT-Regular'" font-size="2.5011">elit.</text>
	<text transform="matrix(1 0 0 1 117.3774 153.1587)" fill="#FFFFFF" font-family="'TwCenMT-Regular'" font-size="2.5011"> </text>
	<text transform="matrix(1 0 0 1 118.8345 153.1587)" fill="#FFFFFF" font-family="'TwCenMT-Regular'" font-size="2.5011">Sed</text>
	<text transform="matrix(1 0 0 1 123.2788 153.1587)" fill="#FFFFFF" font-family="'TwCenMT-Regular'" font-size="2.5011"> </text>
	<text transform="matrix(1 0 0 1 124.7358 153.1587)" fill="#FFFFFF" font-family="'TwCenMT-Regular'" font-size="2.5011">ut</text>
	<text transform="matrix(1 0 0 1 126.8833 153.1587)" fill="#FFFFFF" font-family="'TwCenMT-Regular'" font-size="2.5011"> </text>
	<text transform="matrix(1 0 0 1 128.3403 153.1587)" fill="#FFFFFF" font-family="'TwCenMT-Regular'" font-size="2.5011">imperdiet</text>
	<text transform="matrix(1 0 0 1 139.5679 153.1587)" fill="#FFFFFF" font-family="'TwCenMT-Regular'" font-size="2.5011"> </text>
	<text transform="matrix(1 0 0 1 141.0249 153.1587)" fill="#FFFFFF" font-family="'TwCenMT-Regular'" font-size="2.5011">nisi.</text>
	<text transform="matrix(1 0 0 1 145.5376 153.1587)" fill="#FFFFFF" font-family="'TwCenMT-Regular'" font-size="2.5011"> </text>
	<text transform="matrix(1 0 0 1 146.9946 153.1587)" fill="#FFFFFF" font-family="'TwCenMT-Regular'" font-size="2.5011">Proin </text>
	<text transform="matrix(1 0 0 1 98.9399 156.1587)" fill="#FFFFFF" font-family="'TwCenMT-Regular'" font-size="2.5011">condimentum</text>
	<text transform="matrix(1 0 0 1 113.6958 156.1587)" fill="#FFFFFF" font-family="'TwCenMT-Regular'" font-size="2.5011"> </text>
	<text transform="matrix(1 0 0 1 114.7056 156.1587)" fill="#FFFFFF" font-family="'TwCenMT-Regular'" font-size="2.5011">fermentum</text>
	<text transform="matrix(1 0 0 1 126.7671 156.1587)" fill="#FFFFFF" font-family="'TwCenMT-Regular'" font-size="2.5011"> </text>
	<text transform="matrix(1 0 0 1 127.7769 156.1587)" fill="#FFFFFF" font-family="'TwCenMT-Regular'" font-size="2.5011">nunc.</text>
	<text transform="matrix(1 0 0 1 133.5122 156.1587)" fill="#FFFFFF" font-family="'TwCenMT-Regular'" font-size="2.5011"> </text>
	<text transform="matrix(1 0 0 1 134.5229 156.1587)" fill="#FFFFFF" font-family="'TwCenMT-Regular'" font-size="2.5011">Etiam</text>
	<text transform="matrix(1 0 0 1 140.8306 156.1587)" fill="#FFFFFF" font-family="'TwCenMT-Regular'" font-size="2.5011"> </text>
	<text transform="matrix(1 0 0 1 141.8403 156.1587)" fill="#FFFFFF" font-family="'TwCenMT-Regular'" font-size="2.5011">pharetra, </text>
	<text transform="matrix(1 0 0 1 98.9399 159.1606)" fill="#FFFFFF" font-family="'TwCenMT-Regular'" font-size="2.5011">erat</text>
	<text transform="matrix(1 0 0 1 103.832 159.1606)" fill="#FFFFFF" font-family="'TwCenMT-Regular'" font-size="2.5011"> </text>
	<text transform="matrix(1 0 0 1 106.0767 159.1606)" fill="#FFFFFF" font-family="'TwCenMT-Regular'" font-size="2.5011">sed</text>
	<text transform="matrix(1 0 0 1 110.103 159.1606)" fill="#FFFFFF" font-family="'TwCenMT-Regular'" font-size="2.5011"> </text>
	<text transform="matrix(1 0 0 1 112.3491 159.1606)" fill="#FFFFFF" font-family="'TwCenMT-Regular'" font-size="2.5011">fermentum</text>
	<text transform="matrix(1 0 0 1 124.4097 159.1606)" fill="#FFFFFF" font-family="'TwCenMT-Regular'" font-size="2.5011"> </text>
	<text transform="matrix(1 0 0 1 126.6567 159.1606)" fill="#FFFFFF" font-family="'TwCenMT-Regular'" font-size="2.5011">feugiat,</text>
	<text transform="matrix(1 0 0 1 135.8716 159.1606)" fill="#FFFFFF" font-family="'TwCenMT-Regular'" font-size="2.5011"> </text>
	<text transform="matrix(1 0 0 1 138.1196 159.1606)" fill="#FFFFFF" font-family="'TwCenMT-Regular'" font-size="2.5011">velit</text>
	<text transform="matrix(1 0 0 1 143.1782 159.1606)" fill="#FFFFFF" font-family="'TwCenMT-Regular'" font-size="2.5011"> </text>
	<text transform="matrix(1 0 0 1 145.4243 159.1606)" fill="#FFFFFF" font-family="'TwCenMT-Regular'" font-size="2.5011">mauris </text>
	<text transform="matrix(1 0 0 1 98.9399 162.1626)" fill="#FFFFFF" font-family="'TwCenMT-Regular'" font-size="2.5011">egestas</text>
	<text transform="matrix(1 0 0 1 107.8569 162.1626)" fill="#FFFFFF" font-family="'TwCenMT-Regular'" font-size="2.5011"> </text>
	<text transform="matrix(1 0 0 1 109.7173 162.1626)" fill="#FFFFFF" font-family="'TwCenMT-Regular'" font-size="2.5011">quam,</text>
	<text transform="matrix(1 0 0 1 116.7261 162.1626)" fill="#FFFFFF" font-family="'TwCenMT-Regular'" font-size="2.5011"> </text>
	<text transform="matrix(1 0 0 1 118.5864 162.1626)" fill="#FFFFFF" font-family="'TwCenMT-Regular'" font-size="2.5011">ut</text>
	<text transform="matrix(1 0 0 1 120.7349 162.1626)" fill="#FFFFFF" font-family="'TwCenMT-Regular'" font-size="2.5011"> </text>
	<text transform="matrix(1 0 0 1 122.5962 162.1626)" fill="#FFFFFF" font-family="'TwCenMT-Regular'" font-size="2.5011">aliquam</text>
	<text transform="matrix(1 0 0 1 131.9087 162.1626)" fill="#FFFFFF" font-family="'TwCenMT-Regular'" font-size="2.5011"> </text>
	<text transform="matrix(1 0 0 1 133.77 162.1626)" fill="#FFFFFF" font-family="'TwCenMT-Regular'" font-size="2.5011">massa</text>
	<text transform="matrix(1 0 0 1 140.8013 162.1626)" fill="#FFFFFF" font-family="'TwCenMT-Regular'" font-size="2.5011"> </text>
	<text transform="matrix(1 0 0 1 142.6626 162.1626)" fill="#FFFFFF" font-family="'TwCenMT-Regular'" font-size="2.5011">nisl</text>
	<text transform="matrix(1 0 0 1 146.438 162.1626)" fill="#FFFFFF" font-family="'TwCenMT-Regular'" font-size="2.5011"> </text>
	<text transform="matrix(1 0 0 1 148.2974 162.1626)" fill="#FFFFFF" font-family="'TwCenMT-Regular'" font-size="2.5011">quis </text>
	<text transform="matrix(1 0 0 1 98.9399 165.1646)" fill="#FFFFFF" font-family="'TwCenMT-Regular'" font-size="2.5011">neque. Suspendisse in orci enim.</text>
	<rect x="62.667" y="111" fill="#FFFFFF" width="34" height="54"/>
	<rect x="46.667" y="87" fill="#FFFFFF" width="4" height="4"/>
	<rect x="40.667" y="87" fill="#FFFFFF" width="5" height="4"/>
	<rect x="179.667" y="87" fill="#FFFFFF" width="4" height="4"/>
	<rect x="174.667" y="87" fill="#FFFFFF" width="5" height="4"/>
	<rect x="169.667" y="87" fill="#FFFFFF" width="4" height="4"/>
</g>
<rect x="29.833" y="233" fill="#152435" width="149.001" height="28"/>
<rect x="29.833" y="242" fill="none" width="148.501" height="59.998"/>
<text transform="matrix(1 0 0 1 63.1821 251.0884)" fill="#FFFFFF" font-family="'Avenir-Roman'" font-size="12">Ordinateur fixe</text>
</svg>
