<?xml version="1.0" encoding="utf-8"?>
<!-- Generator: Adobe Illustrator 16.0.0, SVG Export Plug-In . SVG Version: 6.00 Build 0)  -->
<!DOCTYPE svg PUBLIC "-//W3C//DTD SVG 1.1//EN" "http://www.w3.org/Graphics/SVG/1.1/DTD/svg11.dtd">
<svg version="1.1" id="Calque_1" xmlns="http://www.w3.org/2000/svg" xmlns:xlink="http://www.w3.org/1999/xlink" x="0px" y="0px"
	 width="208px" height="266.5px" viewBox="0 0 208 266.5" enable-background="new 0 0 208 266.5" xml:space="preserve">
<circle fill="#FA5E5C" cx="105.841" cy="20.004" r="16.479"/>
<circle fill="#FA5E5C" stroke="#FFFFFF" stroke-width="2.5353" stroke-miterlimit="10" cx="105.784" cy="20.867" r="8.498"/>
<rect x="104.324" y="7.687" fill="#FFFFFF" stroke="#FA5E5C" stroke-width="0.8451" stroke-miterlimit="10" width="3.197" height="12.007"/>
<g>
	<path fill="#B7B6B7" d="M207,184.043c0-1.964-3.047-4.043-5.025-4.043H8.193C6.214,180,4,182.079,4,184.043v15.038
		C4,201.045,6.214,203,8.193,203h193.782c1.979,0,5.025-1.955,5.025-3.919V184.043L207,184.043z"/>
	<path fill="#2F2F2F" d="M207,186H4V68.123C4,66.16,5.928,65,7.89,65h194.113c1.964,0,4.997,1.16,4.997,3.123V186z"/>
	<path fill="#BABABA" d="M85.262,202.636l-5.674,19.957L72,223.686v1.642c0,0-20.844,0.548-15.378,1.368
		c5.47,0.82,42.338,1.64,49.453,1.64c8.476,0,71.142-1.913,43.801-3.28c-8.464-0.424-10.876,0.272-10.876,0.272v-1.913l-7.186-0.82
		l-6.463-20.504L85.262,202.636z"/>
	<polygon fill="#6B6B6B" points="126.271,206 84.442,206 85.262,203 125.452,203 	"/>
	<g>
		<path fill="none" stroke="#FFFFFF" stroke-width="0.7627" stroke-miterlimit="10" d="M11.665,76.397"/>
		<path fill="#FFFFFF" stroke="#FFFFFF" stroke-miterlimit="10" d="M198.5,172.898c0,2.869-1.577,5.602-4.009,5.602H16.083
			c-2.432,0-3.583-2.73-3.583-5.602V81.382c0-2.87,1.152-3.882,3.583-3.882h178.408c2.432,0,4.009,1.013,4.009,3.882V172.898z"/>
	</g>
</g>
<g>
	<path fill="#CCCCCC" d="M191,172.917c0,1.138-0.159,2.083-1.359,2.083H19.973c-1.201,0-1.973-0.945-1.973-2.083V86.771
		C18,85.633,18.771,84,19.973,84h169.667c1.2,0,1.359,1.633,1.359,2.771V172.917z"/>
	<g>
		<path fill="#243C5E" d="M117.086,107.54c-0.861-0.003-1.562-0.004-2.352-0.005c0.009-3.476,0.017-6.888,0.024-10.458
			c0.972,0.003,1.925-0.053,2.858,0.043c0.259,0.027,0.588,0.464,0.688,0.775c0.604,1.898,1.151,3.815,1.795,5.979
			c0.646-2.085,1.271-3.922,1.767-5.793c0.202-0.766,0.5-1.071,1.288-1.002c0.746,0.065,1.5,0.017,2.332,0.02
			c-0.008,3.523-0.016,6.936-0.022,10.439c-0.753-0.001-1.481-0.002-2.312-0.006c0.006-2.232,0.01-4.413,0.016-6.593
			c-0.079-0.012-0.159-0.026-0.24-0.039c-0.525,1.851-1.045,3.705-1.58,5.554c-0.173,0.589-0.222,1.193-1.168,1.199
			c-0.953,0.006-1.087-0.503-1.275-1.2c-0.516-1.907-1.084-3.802-1.803-5.677C117.096,102.99,117.091,105.204,117.086,107.54z"/>
		<path fill="#243C5E" d="M71.21,97.013c0.985,0.002,1.776,0.005,2.702,0.007c0.417,2.039,0.835,4.083,1.253,6.128
			c0.068,0.007,0.138,0.016,0.207,0.024c0.479-2.037,0.959-4.074,1.445-6.138c0.694,0,1.321,0.003,2.041,0.004
			c0.454,2.035,0.901,4.043,1.349,6.053c0.073,0.015,0.145,0.029,0.216,0.042c0.107-0.412,0.229-0.822,0.32-1.239
			c0.284-1.284,0.646-2.559,0.806-3.86c0.113-0.917,0.517-1.13,1.327-1.043c0.471,0.052,0.951,0.011,1.593,0.013
			c-0.338,1.277-0.654,2.451-0.961,3.625c-0.521,2.007-1.091,4.003-1.537,6.026c-0.232,1.054-0.947,0.827-1.633,0.873
			c-0.697,0.048-1.079-0.134-1.228-0.915c-0.339-1.781-0.789-3.541-1.386-5.328c-0.401,1.693-0.81,3.387-1.195,5.083
			c-0.147,0.644-0.219,1.244-1.157,1.161c-0.826-0.074-1.57,0.118-1.834-1.104C72.868,103.314,72.022,100.241,71.21,97.013z"/>
		<path fill="#243C5E" d="M144.393,101.932c-0.004,1.861-0.01,3.723-0.014,5.659c-0.816-0.002-1.559-0.004-2.396-0.006
			c0.009-3.461,0.018-6.912,0.023-10.326c1.479-0.418,2.434-0.035,3.127,1.376c0.786,1.595,1.832,3.062,2.934,4.86
			c0.006-2.259,0.011-4.222,0.015-6.264c0.892,0.001,1.663,0.004,2.507,0.006c-0.008,3.445-0.018,6.86-0.021,10.264
			c-1.961,0.444-2.118,0.383-3.125-1.212c-0.93-1.475-1.855-2.954-2.782-4.433C144.568,101.881,144.479,101.907,144.393,101.932z"/>
		<path fill="#243C5E" d="M97.21,107.55c0.007-3.542,0.016-6.954,0.024-10.626c1.904,0.137,3.797,0.067,5.593,0.451
			c2.569,0.551,3.955,3.9,3.014,6.766c-0.723,2.207-2.204,3.347-4.518,3.411C99.979,107.589,98.631,107.552,97.21,107.55z
			 M99.885,99.467c-0.003,1.898-0.008,3.752-0.012,5.67c1.174,0.032,2.347,0.229,3.059-0.928c0.752-1.225,0.729-2.542,0.002-3.752
			C102.257,99.33,101.079,99.415,99.885,99.467z"/>
		<path fill="#243C5E" d="M126.383,107.557c1.36-3.42,2.643-6.687,3.965-9.934c0.278-0.685,2.15-0.796,2.418-0.132
			c1.338,3.321,2.609,6.666,3.965,10.155c-0.897-0.002-1.615,0.05-2.317-0.031c-0.274-0.032-0.69-0.331-0.735-0.567
			c-0.177-0.914-0.771-0.974-1.503-0.931c-0.599,0.034-1.2-0.024-1.798,0.021c-0.245,0.018-0.664,0.166-0.689,0.31
			c-0.276,1.526-1.437,1.163-2.416,1.178C127.033,107.627,126.797,107.589,126.383,107.557z"/>
		<path fill="#243C5E" d="M91.112,105.113c-0.002,0.875-0.003,1.574-0.005,2.353c-1.862-0.002-3.682-0.007-5.601-0.012
			c0.008-3.427,0.015-6.871,0.023-10.385c1.83,0.006,3.65,0.01,5.565,0.013c-0.001,0.727-0.003,1.455-0.004,2.316
			c-0.982-0.001-1.961-0.005-3.019-0.008c-0.002,0.587-0.003,1.047-0.005,1.617c0.943,0.003,1.885,0.005,2.927,0.007
			c-0.002,0.837-0.004,1.564-0.006,2.412c-0.996-0.001-1.934-0.004-2.932-0.007c-0.002,0.614-0.002,1.102-0.003,1.686
			C89.072,105.107,90.019,105.109,91.112,105.113z"/>
		<path fill="#243C5E" d="M107.564,97.111c1.894,0.004,3.679,0.008,5.541,0.012c0,0.753-0.002,1.45-0.006,2.293
			c-0.988-0.003-1.961-0.005-3.021-0.006c-0.001,0.596-0.003,1.052-0.005,1.636c0.925,0.002,1.861,0.005,2.895,0.007
			c-0.001,0.844-0.004,1.569-0.005,2.426c-0.971-0.002-1.909-0.003-2.914-0.006c-0.002,0.593-0.002,1.055-0.004,1.663
			c0.989,0.002,1.962,0.004,3.027,0.007c-0.001,0.872-0.003,1.6-0.005,2.392c-1.855-0.005-3.641-0.008-5.527-0.014
			C107.548,104.072,107.557,100.632,107.564,97.111z"/>
		<path fill="#243C5E" d="M140.094,97.23c-0.009,3.434-0.017,6.847-0.025,10.345c-0.811-0.002-1.588-0.004-2.463-0.005
			c0.008-3.42,0.016-6.833,0.023-10.345C138.389,97.227,139.164,97.229,140.094,97.23z"/>
		<path fill="#FFFFFF" d="M130.129,103.983c0.326-1.06,0.639-2.072,1.049-3.406c0.391,1.306,0.69,2.312,1.018,3.412
			C131.438,103.987,130.822,103.986,130.129,103.983z"/>
		<path fill="#243C5E" d="M133.797,109.803c0.123-0.005,0.248-0.012,0.373-0.019"/>
	</g>
	<polygon fill="#CCCCCC" points="199,81 11.298,81 11.339,76.565 199,76.386 	"/>
	<g>
		<path d="M15.362,78.314c0-0.159,0.022-0.297,0.092-0.424c0.103-0.186,0.258-0.299,0.471-0.33c0.105-0.017,0.202,0.009,0.298,0.044
			c0.038,0.015,0.076,0.028,0.114,0.042c0.054,0.021,0.107,0.016,0.161-0.004c0.078-0.028,0.153-0.065,0.235-0.08
			c0.244-0.045,0.452,0.016,0.615,0.21c0.016,0.019,0.006,0.026-0.008,0.036c-0.128,0.087-0.216,0.203-0.243,0.358
			c-0.028,0.169,0.011,0.321,0.128,0.449c0.051,0.058,0.111,0.103,0.181,0.135c0.02,0.009,0.021,0.018,0.014,0.036
			c-0.057,0.162-0.146,0.305-0.251,0.438c-0.041,0.052-0.084,0.1-0.14,0.136c-0.098,0.065-0.202,0.07-0.31,0.028
			c-0.059-0.021-0.115-0.048-0.176-0.062c-0.107-0.025-0.208-0.006-0.308,0.034c-0.053,0.021-0.106,0.043-0.164,0.053
			c-0.086,0.015-0.163-0.01-0.229-0.063c-0.117-0.093-0.2-0.214-0.275-0.339c-0.093-0.157-0.154-0.326-0.187-0.505
			C15.37,78.437,15.357,78.369,15.362,78.314z"/>
		<path d="M16.901,77.017c-0.009,0.171-0.084,0.307-0.219,0.41c-0.076,0.06-0.163,0.094-0.262,0.095
			c-0.023,0-0.031-0.006-0.031-0.03c0.001-0.2,0.097-0.347,0.259-0.454c0.063-0.042,0.134-0.069,0.21-0.081
			C16.9,76.95,16.9,76.949,16.9,76.991C16.901,77,16.901,77.008,16.901,77.017z"/>
	</g>
	<rect x="19.129" y="77.891" fill="none" width="13.085" height="4.812"/>
	<text transform="matrix(1 0 0 1 19.1309 79.2227)" font-family="'MalayalamSangamMN-Bold'" font-size="1.9384">Photoshop</text>
	<rect x="32.006" y="77.891" fill="none" width="5.954" height="4.084"/>
	<text transform="matrix(1 0 0 1 32.0068 79.2402)" font-family="'MalayalamSangamMN'" font-size="1.9384">Fichier</text>
	<rect x="39.31" y="77.891" fill="none" width="5.954" height="4.084"/>
	<text transform="matrix(1 0 0 1 39.311 79.2402)" font-family="'MalayalamSangamMN'" font-size="1.9384">Edition</text>
	<rect x="46.406" y="77.891" fill="none" width="5.953" height="4.084"/>
	<text transform="matrix(1 0 0 1 46.4072 79.2402)" font-family="'MalayalamSangamMN'" font-size="1.9384">Objet</text>
	<rect x="52.187" y="77.891" fill="none" width="5.953" height="4.084"/>
	<text transform="matrix(1 0 0 1 52.188 79.2402)" font-family="'MalayalamSangamMN'" font-size="1.9384">Texte</text>
	<rect x="57.933" y="77.891" fill="none" width="10.003" height="3.115"/>
	<text transform="matrix(1 0 0 1 57.9336 79.2402)" font-family="'MalayalamSangamMN'" font-size="1.9384">Selection</text>
	<rect x="188.296" y="77.891" fill="none" width="10.003" height="3.115"/>
	<text transform="matrix(1 0 0 1 188.2969 79.2402)" font-family="'MalayalamSangamMN'" font-size="1.9384">15 : 06</text>
	<rect x="175.713" y="77.891" fill="none" width="11.391" height="3.115"/>
	<text transform="matrix(1 0 0 1 175.7148 79.2402)" font-family="'MalayalamSangamMN'" font-size="1.9384">Mer. 28 janv.</text>
	
		<line opacity="0.2" fill="none" stroke="#666666" stroke-miterlimit="10" enable-background="new    " x1="18" y1="93.5" x2="191" y2="93.5"/>
	<circle fill="#FF5F5C" cx="23.575" cy="88.854" r="1.156"/>
	<circle fill="#FFB942" cx="27.382" cy="88.854" r="1.156"/>
	<circle fill="#00C74D" cx="31.188" cy="88.854" r="1.156"/>
	<path fill="#FFFFFF" d="M127,90.456c0,0.3-0.243,0.544-0.544,0.544H60.544C60.244,91,60,90.756,60,90.456v-2.912
		c0-0.3,0.244-0.544,0.544-0.544h65.912c0.301,0,0.544,0.244,0.544,0.544V90.456z"/>
	<rect x="100.272" y="112.554" fill="none" width="53.774" height="57.526"/>
	<text transform="matrix(1 0 0 1 100.2734 114.1396)" fill="#FFFFFF" font-family="'TwCenMT-Regular'" font-size="2.5011">This</text>
	<text transform="matrix(1 0 0 1 104.5957 114.1396)" fill="#FFFFFF" font-family="'TwCenMT-Regular'" font-size="2.5011"> </text>
	<text transform="matrix(1 0 0 1 105.9746 114.1396)" fill="#FFFFFF" font-family="'TwCenMT-Regular'" font-size="2.5011">is</text>
	<text transform="matrix(1 0 0 1 107.7314 114.1396)" fill="#FFFFFF" font-family="'TwCenMT-Regular'" font-size="2.5011"> </text>
	<text transform="matrix(1 0 0 1 109.1094 114.1396)" fill="#FFFFFF" font-family="'TwCenMT-Regular'" font-size="2.5011">Photoshop&apos;s</text>
	<text transform="matrix(1 0 0 1 122.5674 114.1396)" fill="#FFFFFF" font-family="'TwCenMT-Regular'" font-size="2.5011"> </text>
	<text transform="matrix(1 0 0 1 123.9463 114.1396)" fill="#FFFFFF" font-family="'TwCenMT-Regular'" font-size="2.5011">version</text>
	<text transform="matrix(1 0 0 1 132.168 114.1396)" fill="#FFFFFF" font-family="'TwCenMT-Regular'" font-size="2.5011">  </text>
	<text transform="matrix(1 0 0 1 134.9238 114.1396)" fill="#FFFFFF" font-family="'TwCenMT-Regular'" font-size="2.5011">of</text>
	<text transform="matrix(1 0 0 1 137.3828 114.1396)" fill="#FFFFFF" font-family="'TwCenMT-Regular'" font-size="2.5011"> </text>
	<text transform="matrix(1 0 0 1 138.7617 114.1396)" fill="#FFFFFF" font-family="'TwCenMT-Regular'" font-size="2.5011">Lorem</text>
	<text transform="matrix(1 0 0 1 145.666 114.1396)" fill="#FFFFFF" font-family="'TwCenMT-Regular'" font-size="2.5011"> </text>
	<text transform="matrix(1 0 0 1 147.0449 114.1396)" fill="#FFFFFF" font-family="'TwCenMT-Regular'" font-size="2.5011">Ipsum. </text>
	<text transform="matrix(1 0 0 1 100.2734 117.1406)" fill="#FFFFFF" font-family="'TwCenMT-Regular'" font-size="2.5011">Proin</text>
	<text transform="matrix(1 0 0 1 106.1895 117.1406)" fill="#FFFFFF" font-family="'TwCenMT-Regular'" font-size="2.5011"> </text>
	<text transform="matrix(1 0 0 1 107.7051 117.1406)" fill="#FFFFFF" font-family="'TwCenMT-Regular'" font-size="2.5011">gravida</text>
	<text transform="matrix(1 0 0 1 117.0137 117.1406)" fill="#FFFFFF" font-family="'TwCenMT-Regular'" font-size="2.5011"> </text>
	<text transform="matrix(1 0 0 1 118.5303 117.1406)" fill="#FFFFFF" font-family="'TwCenMT-Regular'" font-size="2.5011">nibh</text>
	<text transform="matrix(1 0 0 1 123.4014 117.1406)" fill="#FFFFFF" font-family="'TwCenMT-Regular'" font-size="2.5011"> </text>
	<text transform="matrix(1 0 0 1 124.918 117.1406)" fill="#FFFFFF" font-family="'TwCenMT-Regular'" font-size="2.5011">vel</text>
	<text transform="matrix(1 0 0 1 128.375 117.1406)" fill="#FFFFFF" font-family="'TwCenMT-Regular'" font-size="2.5011"> </text>
	<text transform="matrix(1 0 0 1 129.8926 117.1406)" fill="#FFFFFF" font-family="'TwCenMT-Regular'" font-size="2.5011">velit</text>
	<text transform="matrix(1 0 0 1 134.9531 117.1406)" fill="#FFFFFF" font-family="'TwCenMT-Regular'" font-size="2.5011"> </text>
	<text transform="matrix(1 0 0 1 136.4688 117.1406)" fill="#FFFFFF" font-family="'TwCenMT-Regular'" font-size="2.5011">auctor</text>
	<text transform="matrix(1 0 0 1 143.7949 117.1406)" fill="#FFFFFF" font-family="'TwCenMT-Regular'" font-size="2.5011"> </text>
	<text transform="matrix(1 0 0 1 145.3115 117.1406)" fill="#FFFFFF" font-family="'TwCenMT-Regular'" font-size="2.5011">aliquet. </text>
	<text transform="matrix(1 0 0 1 100.2734 120.1426)" fill="#FFFFFF" font-family="'TwCenMT-Regular'" font-size="2.5011">Aenean</text>
	<text transform="matrix(1 0 0 1 108.9814 120.1426)" fill="#FFFFFF" font-family="'TwCenMT-Regular'" font-size="2.5011"> </text>
	<text transform="matrix(1 0 0 1 111.4404 120.1426)" fill="#FFFFFF" font-family="'TwCenMT-Regular'" font-size="2.5011">sollicitudin,</text>
	<text transform="matrix(1 0 0 1 124.4629 120.1426)" fill="#FFFFFF" font-family="'TwCenMT-Regular'" font-size="2.5011"> </text>
	<text transform="matrix(1 0 0 1 126.9238 120.1426)" fill="#FFFFFF" font-family="'TwCenMT-Regular'" font-size="2.5011">lorem</text>
	<text transform="matrix(1 0 0 1 133.4141 120.1426)" fill="#FFFFFF" font-family="'TwCenMT-Regular'" font-size="2.5011"> </text>
	<text transform="matrix(1 0 0 1 135.875 120.1426)" fill="#FFFFFF" font-family="'TwCenMT-Regular'" font-size="2.5011">quis</text>
	<text transform="matrix(1 0 0 1 140.4805 120.1426)" fill="#FFFFFF" font-family="'TwCenMT-Regular'" font-size="2.5011"> </text>
	<text transform="matrix(1 0 0 1 142.9414 120.1426)" fill="#FFFFFF" font-family="'TwCenMT-Regular'" font-size="2.5011">bibendum </text>
	<text transform="matrix(1 0 0 1 100.2734 123.1445)" fill="#FFFFFF" font-family="'TwCenMT-Regular'" font-size="2.5011">auctor,</text>
	<text transform="matrix(1 0 0 1 108.334 123.1445)" fill="#FFFFFF" font-family="'TwCenMT-Regular'" font-size="2.5011"> </text>
	<text transform="matrix(1 0 0 1 109.5488 123.1445)" fill="#FFFFFF" font-family="'TwCenMT-Regular'" font-size="2.5011">nisi</text>
	<text transform="matrix(1 0 0 1 113.3242 123.1445)" fill="#FFFFFF" font-family="'TwCenMT-Regular'" font-size="2.5011"> </text>
	<text transform="matrix(1 0 0 1 114.541 123.1445)" fill="#FFFFFF" font-family="'TwCenMT-Regular'" font-size="2.5011">elit</text>
	<text transform="matrix(1 0 0 1 118.3145 123.1445)" fill="#FFFFFF" font-family="'TwCenMT-Regular'" font-size="2.5011"> </text>
	<text transform="matrix(1 0 0 1 119.5303 123.1445)" fill="#FFFFFF" font-family="'TwCenMT-Regular'" font-size="2.5011">consequat</text>
	<text transform="matrix(1 0 0 1 131.1445 123.1445)" fill="#FFFFFF" font-family="'TwCenMT-Regular'" font-size="2.5011"> </text>
	<text transform="matrix(1 0 0 1 132.3604 123.1445)" fill="#FFFFFF" font-family="'TwCenMT-Regular'" font-size="2.5011">ipsum,</text>
	<text transform="matrix(1 0 0 1 139.5596 123.1445)" fill="#FFFFFF" font-family="'TwCenMT-Regular'" font-size="2.5011"> </text>
	<text transform="matrix(1 0 0 1 140.7754 123.1445)" fill="#FFFFFF" font-family="'TwCenMT-Regular'" font-size="2.5011">nec</text>
	<text transform="matrix(1 0 0 1 144.6465 123.1445)" fill="#FFFFFF" font-family="'TwCenMT-Regular'" font-size="2.5011"> </text>
	<text transform="matrix(1 0 0 1 145.8623 123.1445)" fill="#FFFFFF" font-family="'TwCenMT-Regular'" font-size="2.5011">sagittis </text>
	<text transform="matrix(1 0 0 1 100.2734 126.1455)" fill="#FFFFFF" font-family="'TwCenMT-Regular'" font-size="2.5011">sem</text>
	<text transform="matrix(1 0 0 1 104.5879 126.1455)" fill="#FFFFFF" font-family="'TwCenMT-Regular'" font-size="2.5011"> </text>
	<text transform="matrix(1 0 0 1 105.7891 126.1455)" fill="#FFFFFF" font-family="'TwCenMT-Regular'" font-size="2.5011">nibh</text>
	<text transform="matrix(1 0 0 1 110.6572 126.1455)" fill="#FFFFFF" font-family="'TwCenMT-Regular'" font-size="2.5011"> </text>
	<text transform="matrix(1 0 0 1 111.8574 126.1455)" fill="#FFFFFF" font-family="'TwCenMT-Regular'" font-size="2.5011">id</text>
	<text transform="matrix(1 0 0 1 114.1621 126.1455)" fill="#FFFFFF" font-family="'TwCenMT-Regular'" font-size="2.5011"> </text>
	<text transform="matrix(1 0 0 1 115.3613 126.1455)" fill="#FFFFFF" font-family="'TwCenMT-Regular'" font-size="2.5011">elit.</text>
	<text transform="matrix(1 0 0 1 119.873 126.1455)" fill="#FFFFFF" font-family="'TwCenMT-Regular'" font-size="2.5011"> </text>
	<text transform="matrix(1 0 0 1 121.0723 126.1455)" fill="#FFFFFF" font-family="'TwCenMT-Regular'" font-size="2.5011">Duis</text>
	<text transform="matrix(1 0 0 1 125.8115 126.1455)" fill="#FFFFFF" font-family="'TwCenMT-Regular'" font-size="2.5011"> </text>
	<text transform="matrix(1 0 0 1 127.0117 126.1455)" fill="#FFFFFF" font-family="'TwCenMT-Regular'" font-size="2.5011">sed</text>
	<text transform="matrix(1 0 0 1 131.0391 126.1455)" fill="#FFFFFF" font-family="'TwCenMT-Regular'" font-size="2.5011"> </text>
	<text transform="matrix(1 0 0 1 132.2393 126.1455)" fill="#FFFFFF" font-family="'TwCenMT-Regular'" font-size="2.5011">odio</text>
	<text transform="matrix(1 0 0 1 137.4199 126.1455)" fill="#FFFFFF" font-family="'TwCenMT-Regular'" font-size="2.5011"> </text>
	<text transform="matrix(1 0 0 1 138.6211 126.1455)" fill="#FFFFFF" font-family="'TwCenMT-Regular'" font-size="2.5011">sit</text>
	<text transform="matrix(1 0 0 1 141.2422 126.1455)" fill="#FFFFFF" font-family="'TwCenMT-Regular'" font-size="2.5011"> </text>
	<text transform="matrix(1 0 0 1 142.4434 126.1455)" fill="#FFFFFF" font-family="'TwCenMT-Regular'" font-size="2.5011">amet</text>
	<text transform="matrix(1 0 0 1 148.1699 126.1455)" fill="#FFFFFF" font-family="'TwCenMT-Regular'" font-size="2.5011"> </text>
	<text transform="matrix(1 0 0 1 149.3711 126.1455)" fill="#FFFFFF" font-family="'TwCenMT-Regular'" font-size="2.5011">nibh </text>
	<text transform="matrix(1 0 0 1 100.2734 129.1475)" fill="#FFFFFF" font-family="'TwCenMT-Regular'" font-size="2.5011">vulputate</text>
	<text transform="matrix(1 0 0 1 111.1621 129.1475)" fill="#FFFFFF" font-family="'TwCenMT-Regular'" font-size="2.5011"> </text>
	<text transform="matrix(1 0 0 1 113.043 129.1475)" fill="#FFFFFF" font-family="'TwCenMT-Regular'" font-size="2.5011">cursus</text>
	<text transform="matrix(1 0 0 1 119.8203 129.1475)" fill="#FFFFFF" font-family="'TwCenMT-Regular'" font-size="2.5011"> </text>
	<text transform="matrix(1 0 0 1 121.7031 129.1475)" fill="#FFFFFF" font-family="'TwCenMT-Regular'" font-size="2.5011">a</text>
	<text transform="matrix(1 0 0 1 123.2695 129.1475)" fill="#FFFFFF" font-family="'TwCenMT-Regular'" font-size="2.5011"> </text>
	<text transform="matrix(1 0 0 1 125.1504 129.1475)" fill="#FFFFFF" font-family="'TwCenMT-Regular'" font-size="2.5011">sit</text>
	<text transform="matrix(1 0 0 1 127.7734 129.1475)" fill="#FFFFFF" font-family="'TwCenMT-Regular'" font-size="2.5011"> </text>
	<text transform="matrix(1 0 0 1 129.6543 129.1475)" fill="#FFFFFF" font-family="'TwCenMT-Regular'" font-size="2.5011">amet</text>
	<text transform="matrix(1 0 0 1 135.3809 129.1475)" fill="#FFFFFF" font-family="'TwCenMT-Regular'" font-size="2.5011"> </text>
	<text transform="matrix(1 0 0 1 137.2617 129.1475)" fill="#FFFFFF" font-family="'TwCenMT-Regular'" font-size="2.5011">mauris.</text>
	<text transform="matrix(1 0 0 1 145.4824 129.1475)" fill="#FFFFFF" font-family="'TwCenMT-Regular'" font-size="2.5011"> </text>
	<text transform="matrix(1 0 0 1 147.3633 129.1475)" fill="#FFFFFF" font-family="'TwCenMT-Regular'" font-size="2.5011">Morbi </text>
	<text transform="matrix(1 0 0 1 100.2734 132.1484)" fill="#FFFFFF" font-family="'TwCenMT-Regular'" font-size="2.5011">accumsan</text>
	<text transform="matrix(1 0 0 1 111.1504 132.1484)" fill="#FFFFFF" font-family="'TwCenMT-Regular'" font-size="2.5011"> </text>
	<text transform="matrix(1 0 0 1 112.416 132.1484)" fill="#FFFFFF" font-family="'TwCenMT-Regular'" font-size="2.5011">ipsum</text>
	<text transform="matrix(1 0 0 1 118.877 132.1484)" fill="#FFFFFF" font-family="'TwCenMT-Regular'" font-size="2.5011"> </text>
	<text transform="matrix(1 0 0 1 120.1436 132.1484)" fill="#FFFFFF" font-family="'TwCenMT-Regular'" font-size="2.5011">velit.</text>
	<text transform="matrix(1 0 0 1 125.9395 132.1484)" fill="#FFFFFF" font-family="'TwCenMT-Regular'" font-size="2.5011"> </text>
	<text transform="matrix(1 0 0 1 127.2051 132.1484)" fill="#FFFFFF" font-family="'TwCenMT-Regular'" font-size="2.5011">Nam</text>
	<text transform="matrix(1 0 0 1 132.4834 132.1484)" fill="#FFFFFF" font-family="'TwCenMT-Regular'" font-size="2.5011"> </text>
	<text transform="matrix(1 0 0 1 133.75 132.1484)" fill="#FFFFFF" font-family="'TwCenMT-Regular'" font-size="2.5011">nec</text>
	<text transform="matrix(1 0 0 1 137.6211 132.1484)" fill="#FFFFFF" font-family="'TwCenMT-Regular'" font-size="2.5011"> </text>
	<text transform="matrix(1 0 0 1 138.8848 132.1484)" fill="#FFFFFF" font-family="'TwCenMT-Regular'" font-size="2.5011">tellus</text>
	<text transform="matrix(1 0 0 1 144.9648 132.1484)" fill="#FFFFFF" font-family="'TwCenMT-Regular'" font-size="2.5011"> </text>
	<text transform="matrix(1 0 0 1 146.2305 132.1484)" fill="#FFFFFF" font-family="'TwCenMT-Regular'" font-size="2.5011">a</text>
	<text transform="matrix(1 0 0 1 147.7969 132.1484)" fill="#FFFFFF" font-family="'TwCenMT-Regular'" font-size="2.5011"> </text>
	<text transform="matrix(1 0 0 1 149.0625 132.1484)" fill="#FFFFFF" font-family="'TwCenMT-Regular'" font-size="2.5011">odio </text>
	<text transform="matrix(1 0 0 1 100.2734 135.1504)" fill="#FFFFFF" font-family="'TwCenMT-Regular'" font-size="2.5011">tincidunt</text>
	<text transform="matrix(1 0 0 1 110.043 135.1504)" fill="#FFFFFF" font-family="'TwCenMT-Regular'" font-size="2.5011"> </text>
	<text transform="matrix(1 0 0 1 110.7539 135.1504)" fill="#FFFFFF" font-family="'TwCenMT-Regular'" font-size="2.5011">auctor</text>
	<text transform="matrix(1 0 0 1 118.0781 135.1504)" fill="#FFFFFF" font-family="'TwCenMT-Regular'" font-size="2.5011"> </text>
	<text transform="matrix(1 0 0 1 118.7891 135.1504)" fill="#FFFFFF" font-family="'TwCenMT-Regular'" font-size="2.5011">a</text>
	<text transform="matrix(1 0 0 1 120.3564 135.1504)" fill="#FFFFFF" font-family="'TwCenMT-Regular'" font-size="2.5011"> </text>
	<text transform="matrix(1 0 0 1 121.0674 135.1504)" fill="#FFFFFF" font-family="'TwCenMT-Regular'" font-size="2.5011">ornare</text>
	<text transform="matrix(1 0 0 1 128.8359 135.1504)" fill="#FFFFFF" font-family="'TwCenMT-Regular'" font-size="2.5011"> </text>
	<text transform="matrix(1 0 0 1 129.5469 135.1504)" fill="#FFFFFF" font-family="'TwCenMT-Regular'" font-size="2.5011">odio.</text>
	<text transform="matrix(1 0 0 1 135.4629 135.1504)" fill="#FFFFFF" font-family="'TwCenMT-Regular'" font-size="2.5011"> </text>
	<text transform="matrix(1 0 0 1 136.1758 135.1504)" fill="#FFFFFF" font-family="'TwCenMT-Regular'" font-size="2.5011">Sed</text>
	<text transform="matrix(1 0 0 1 140.6211 135.1504)" fill="#FFFFFF" font-family="'TwCenMT-Regular'" font-size="2.5011"> </text>
	<text transform="matrix(1 0 0 1 141.332 135.1504)" fill="#FFFFFF" font-family="'TwCenMT-Regular'" font-size="2.5011">non</text>
	<text transform="matrix(1 0 0 1 145.3359 135.1504)" fill="#FFFFFF" font-family="'TwCenMT-Regular'" font-size="2.5011">  </text>
	<text transform="matrix(1 0 0 1 146.7578 135.1504)" fill="#FFFFFF" font-family="'TwCenMT-Regular'" font-size="2.5011">mauris </text>
	<text transform="matrix(1 0 0 1 100.2734 138.1514)" fill="#FFFFFF" font-family="'TwCenMT-Regular'" font-size="2.5011">vitae</text>
	<text transform="matrix(1 0 0 1 106.1641 138.1514)" fill="#FFFFFF" font-family="'TwCenMT-Regular'" font-size="2.5011"> </text>
	<text transform="matrix(1 0 0 1 107.4414 138.1514)" fill="#FFFFFF" font-family="'TwCenMT-Regular'" font-size="2.5011">erat</text>
	<text transform="matrix(1 0 0 1 112.334 138.1514)" fill="#FFFFFF" font-family="'TwCenMT-Regular'" font-size="2.5011"> </text>
	<text transform="matrix(1 0 0 1 113.6113 138.1514)" fill="#FFFFFF" font-family="'TwCenMT-Regular'" font-size="2.5011">consequat</text>
	<text transform="matrix(1 0 0 1 125.2256 138.1514)" fill="#FFFFFF" font-family="'TwCenMT-Regular'" font-size="2.5011"> </text>
	<text transform="matrix(1 0 0 1 126.5039 138.1514)" fill="#FFFFFF" font-family="'TwCenMT-Regular'" font-size="2.5011">auctor</text>
	<text transform="matrix(1 0 0 1 133.8301 138.1514)" fill="#FFFFFF" font-family="'TwCenMT-Regular'" font-size="2.5011"> </text>
	<text transform="matrix(1 0 0 1 135.1084 138.1514)" fill="#FFFFFF" font-family="'TwCenMT-Regular'" font-size="2.5011">eu</text>
	<text transform="matrix(1 0 0 1 137.8301 138.1514)" fill="#FFFFFF" font-family="'TwCenMT-Regular'" font-size="2.5011"> </text>
	<text transform="matrix(1 0 0 1 139.1094 138.1514)" fill="#FFFFFF" font-family="'TwCenMT-Regular'" font-size="2.5011">in</text>
	<text transform="matrix(1 0 0 1 141.1289 138.1514)" fill="#FFFFFF" font-family="'TwCenMT-Regular'" font-size="2.5011"> </text>
	<text transform="matrix(1 0 0 1 142.4082 138.1514)" fill="#FFFFFF" font-family="'TwCenMT-Regular'" font-size="2.5011">elit.</text>
	<text transform="matrix(1 0 0 1 146.9199 138.1514)" fill="#FFFFFF" font-family="'TwCenMT-Regular'" font-size="2.5011"> </text>
	<text transform="matrix(1 0 0 1 148.2002 138.1514)" fill="#FFFFFF" font-family="'TwCenMT-Regular'" font-size="2.5011">Class </text>
	<text transform="matrix(1 0 0 1 100.2734 141.1523)" fill="#FFFFFF" font-family="'TwCenMT-Regular'" font-size="2.5011">aptent</text>
	<text transform="matrix(1 0 0 1 107.8594 141.1523)" fill="#FFFFFF" font-family="'TwCenMT-Regular'" font-size="2.5011"> </text>
	<text transform="matrix(1 0 0 1 109.1123 141.1523)" fill="#FFFFFF" font-family="'TwCenMT-Regular'" font-size="2.5011">taciti</text>
	<text transform="matrix(1 0 0 1 115.0322 141.1523)" fill="#FFFFFF" font-family="'TwCenMT-Regular'" font-size="2.5011"> </text>
	<text transform="matrix(1 0 0 1 116.2852 141.1523)" fill="#FFFFFF" font-family="'TwCenMT-Regular'" font-size="2.5011">sociosqu</text>
	<text transform="matrix(1 0 0 1 125.9385 141.1523)" fill="#FFFFFF" font-family="'TwCenMT-Regular'" font-size="2.5011"> </text>
	<text transform="matrix(1 0 0 1 127.1914 141.1523)" fill="#FFFFFF" font-family="'TwCenMT-Regular'" font-size="2.5011">ad</text>
	<text transform="matrix(1 0 0 1 130.3281 141.1523)" fill="#FFFFFF" font-family="'TwCenMT-Regular'" font-size="2.5011"> </text>
	<text transform="matrix(1 0 0 1 131.5801 141.1523)" fill="#FFFFFF" font-family="'TwCenMT-Regular'" font-size="2.5011">litora</text>
	<text transform="matrix(1 0 0 1 137.9443 141.1523)" fill="#FFFFFF" font-family="'TwCenMT-Regular'" font-size="2.5011"> </text>
	<text transform="matrix(1 0 0 1 139.1973 141.1523)" fill="#FFFFFF" font-family="'TwCenMT-Regular'" font-size="2.5011">torquent</text>
	<text transform="matrix(1 0 0 1 148.9609 141.1523)" fill="#FFFFFF" font-family="'TwCenMT-Regular'" font-size="2.5011"> </text>
	<text transform="matrix(1 0 0 1 150.2129 141.1523)" fill="#FFFFFF" font-family="'TwCenMT-Regular'" font-size="2.5011">per </text>
	<text transform="matrix(1 0 0 1 100.2734 144.1543)" fill="#FFFFFF" font-family="'TwCenMT-Regular'" font-size="2.5011">conubia</text>
	<text transform="matrix(1 0 0 1 109.2988 144.1543)" fill="#FFFFFF" font-family="'TwCenMT-Regular'" font-size="2.5011"> </text>
	<text transform="matrix(1 0 0 1 111.9707 144.1543)" fill="#FFFFFF" font-family="'TwCenMT-Regular'" font-size="2.5011">nostra,</text>
	<text transform="matrix(1 0 0 1 119.9023 144.1543)" fill="#FFFFFF" font-family="'TwCenMT-Regular'" font-size="2.5011"> </text>
	<text transform="matrix(1 0 0 1 122.5752 144.1543)" fill="#FFFFFF" font-family="'TwCenMT-Regular'" font-size="2.5011">per</text>
	<text transform="matrix(1 0 0 1 126.6016 144.1543)" fill="#FFFFFF" font-family="'TwCenMT-Regular'" font-size="2.5011"> </text>
	<text transform="matrix(1 0 0 1 129.2744 144.1543)" fill="#FFFFFF" font-family="'TwCenMT-Regular'" font-size="2.5011">inceptos</text>
	<text transform="matrix(1 0 0 1 138.7734 144.1543)" fill="#FFFFFF" font-family="'TwCenMT-Regular'" font-size="2.5011"> </text>
	<text transform="matrix(1 0 0 1 141.4463 144.1543)" fill="#FFFFFF" font-family="'TwCenMT-Regular'" font-size="2.5011">himenaeos. </text>
	<text transform="matrix(1 0 0 1 100.2734 147.1553)" fill="#FFFFFF" font-family="'TwCenMT-Regular'" font-size="2.5011">Mauris</text>
	<text transform="matrix(1 0 0 1 108.0166 147.1553)" fill="#FFFFFF" font-family="'TwCenMT-Regular'" font-size="2.5011"> </text>
	<text transform="matrix(1 0 0 1 109.2236 147.1553)" fill="#FFFFFF" font-family="'TwCenMT-Regular'" font-size="2.5011">in</text>
	<text transform="matrix(1 0 0 1 111.2412 147.1553)" fill="#FFFFFF" font-family="'TwCenMT-Regular'" font-size="2.5011"> </text>
	<text transform="matrix(1 0 0 1 112.4482 147.1553)" fill="#FFFFFF" font-family="'TwCenMT-Regular'" font-size="2.5011">erat</text>
	<text transform="matrix(1 0 0 1 117.3398 147.1553)" fill="#FFFFFF" font-family="'TwCenMT-Regular'" font-size="2.5011"> </text>
	<text transform="matrix(1 0 0 1 118.5469 147.1553)" fill="#FFFFFF" font-family="'TwCenMT-Regular'" font-size="2.5011">justo.</text>
	<text transform="matrix(1 0 0 1 124.627 147.1553)" fill="#FFFFFF" font-family="'TwCenMT-Regular'" font-size="2.5011"> </text>
	<text transform="matrix(1 0 0 1 125.8359 147.1553)" fill="#FFFFFF" font-family="'TwCenMT-Regular'" font-size="2.5011">Nullam</text>
	<text transform="matrix(1 0 0 1 133.8682 147.1553)" fill="#FFFFFF" font-family="'TwCenMT-Regular'" font-size="2.5011"> </text>
	<text transform="matrix(1 0 0 1 135.0752 147.1553)" fill="#FFFFFF" font-family="'TwCenMT-Regular'" font-size="2.5011">ac</text>
	<text transform="matrix(1 0 0 1 137.793 147.1553)" fill="#FFFFFF" font-family="'TwCenMT-Regular'" font-size="2.5011"> </text>
	<text transform="matrix(1 0 0 1 139 147.1553)" fill="#FFFFFF" font-family="'TwCenMT-Regular'" font-size="2.5011">urna</text>
	<text transform="matrix(1 0 0 1 144.1543 147.1553)" fill="#FFFFFF" font-family="'TwCenMT-Regular'" font-size="2.5011"> </text>
	<text transform="matrix(1 0 0 1 145.3613 147.1553)" fill="#FFFFFF" font-family="'TwCenMT-Regular'" font-size="2.5011">eu</text>
	<text transform="matrix(1 0 0 1 148.084 147.1553)" fill="#FFFFFF" font-family="'TwCenMT-Regular'" font-size="2.5011"> </text>
	<text transform="matrix(1 0 0 1 149.291 147.1553)" fill="#FFFFFF" font-family="'TwCenMT-Regular'" font-size="2.5011">felis </text>
	<text transform="matrix(1 0 0 1 100.2734 150.1572)" fill="#FFFFFF" font-family="'TwCenMT-Regular'" font-size="2.5011">dapibus</text>
	<text transform="matrix(1 0 0 1 109.582 150.1572)" fill="#FFFFFF" font-family="'TwCenMT-Regular'" font-size="2.5011"> </text>
	<text transform="matrix(1 0 0 1 110.8594 150.1572)" fill="#FFFFFF" font-family="'TwCenMT-Regular'" font-size="2.5011">condimentum</text>
	<text transform="matrix(1 0 0 1 125.6152 150.1572)" fill="#FFFFFF" font-family="'TwCenMT-Regular'" font-size="2.5011"> </text>
	<text transform="matrix(1 0 0 1 126.8926 150.1572)" fill="#FFFFFF" font-family="'TwCenMT-Regular'" font-size="2.5011">sit</text>
	<text transform="matrix(1 0 0 1 129.5137 150.1572)" fill="#FFFFFF" font-family="'TwCenMT-Regular'" font-size="2.5011"> </text>
	<text transform="matrix(1 0 0 1 130.791 150.1572)" fill="#FFFFFF" font-family="'TwCenMT-Regular'" font-size="2.5011">amet</text>
	<text transform="matrix(1 0 0 1 136.5186 150.1572)" fill="#FFFFFF" font-family="'TwCenMT-Regular'" font-size="2.5011"> </text>
	<text transform="matrix(1 0 0 1 137.7949 150.1572)" fill="#FFFFFF" font-family="'TwCenMT-Regular'" font-size="2.5011">a</text>
	<text transform="matrix(1 0 0 1 139.3633 150.1572)" fill="#FFFFFF" font-family="'TwCenMT-Regular'" font-size="2.5011"> </text>
	<text transform="matrix(1 0 0 1 140.6406 150.1572)" fill="#FFFFFF" font-family="'TwCenMT-Regular'" font-size="2.5011">augue.</text>
	<text transform="matrix(1 0 0 1 148.5166 150.1572)" fill="#FFFFFF" font-family="'TwCenMT-Regular'" font-size="2.5011"> </text>
	<text transform="matrix(1 0 0 1 149.7949 150.1572)" fill="#FFFFFF" font-family="'TwCenMT-Regular'" font-size="2.5011">Sed </text>
	<text transform="matrix(1 0 0 1 100.2734 153.1582)" fill="#FFFFFF" font-family="'TwCenMT-Regular'" font-size="2.5011">non</text>
	<text transform="matrix(1 0 0 1 104.2773 153.1582)" fill="#FFFFFF" font-family="'TwCenMT-Regular'" font-size="2.5011"> </text>
	<text transform="matrix(1 0 0 1 105.7334 153.1582)" fill="#FFFFFF" font-family="'TwCenMT-Regular'" font-size="2.5011">neque</text>
	<text transform="matrix(1 0 0 1 112.7422 153.1582)" fill="#FFFFFF" font-family="'TwCenMT-Regular'" font-size="2.5011"> </text>
	<text transform="matrix(1 0 0 1 114.1992 153.1582)" fill="#FFFFFF" font-family="'TwCenMT-Regular'" font-size="2.5011">elit.</text>
	<text transform="matrix(1 0 0 1 118.7109 153.1582)" fill="#FFFFFF" font-family="'TwCenMT-Regular'" font-size="2.5011"> </text>
	<text transform="matrix(1 0 0 1 120.168 153.1582)" fill="#FFFFFF" font-family="'TwCenMT-Regular'" font-size="2.5011">Sed</text>
	<text transform="matrix(1 0 0 1 124.6123 153.1582)" fill="#FFFFFF" font-family="'TwCenMT-Regular'" font-size="2.5011"> </text>
	<text transform="matrix(1 0 0 1 126.0693 153.1582)" fill="#FFFFFF" font-family="'TwCenMT-Regular'" font-size="2.5011">ut</text>
	<text transform="matrix(1 0 0 1 128.2168 153.1582)" fill="#FFFFFF" font-family="'TwCenMT-Regular'" font-size="2.5011"> </text>
	<text transform="matrix(1 0 0 1 129.6738 153.1582)" fill="#FFFFFF" font-family="'TwCenMT-Regular'" font-size="2.5011">imperdiet</text>
	<text transform="matrix(1 0 0 1 140.9014 153.1582)" fill="#FFFFFF" font-family="'TwCenMT-Regular'" font-size="2.5011"> </text>
	<text transform="matrix(1 0 0 1 142.3584 153.1582)" fill="#FFFFFF" font-family="'TwCenMT-Regular'" font-size="2.5011">nisi.</text>
	<text transform="matrix(1 0 0 1 146.8711 153.1582)" fill="#FFFFFF" font-family="'TwCenMT-Regular'" font-size="2.5011"> </text>
	<text transform="matrix(1 0 0 1 148.3281 153.1582)" fill="#FFFFFF" font-family="'TwCenMT-Regular'" font-size="2.5011">Proin </text>
	<text transform="matrix(1 0 0 1 100.2734 156.1592)" fill="#FFFFFF" font-family="'TwCenMT-Regular'" font-size="2.5011">condimentum</text>
	<text transform="matrix(1 0 0 1 115.0293 156.1592)" fill="#FFFFFF" font-family="'TwCenMT-Regular'" font-size="2.5011"> </text>
	<text transform="matrix(1 0 0 1 116.0391 156.1592)" fill="#FFFFFF" font-family="'TwCenMT-Regular'" font-size="2.5011">fermentum</text>
	<text transform="matrix(1 0 0 1 128.1006 156.1592)" fill="#FFFFFF" font-family="'TwCenMT-Regular'" font-size="2.5011"> </text>
	<text transform="matrix(1 0 0 1 129.1104 156.1592)" fill="#FFFFFF" font-family="'TwCenMT-Regular'" font-size="2.5011">nunc.</text>
	<text transform="matrix(1 0 0 1 134.8457 156.1592)" fill="#FFFFFF" font-family="'TwCenMT-Regular'" font-size="2.5011"> </text>
	<text transform="matrix(1 0 0 1 135.8564 156.1592)" fill="#FFFFFF" font-family="'TwCenMT-Regular'" font-size="2.5011">Etiam</text>
	<text transform="matrix(1 0 0 1 142.1641 156.1592)" fill="#FFFFFF" font-family="'TwCenMT-Regular'" font-size="2.5011"> </text>
	<text transform="matrix(1 0 0 1 143.1738 156.1592)" fill="#FFFFFF" font-family="'TwCenMT-Regular'" font-size="2.5011">pharetra, </text>
	<text transform="matrix(1 0 0 1 100.2734 159.1611)" fill="#FFFFFF" font-family="'TwCenMT-Regular'" font-size="2.5011">erat</text>
	<text transform="matrix(1 0 0 1 105.166 159.1611)" fill="#FFFFFF" font-family="'TwCenMT-Regular'" font-size="2.5011"> </text>
	<text transform="matrix(1 0 0 1 107.4102 159.1611)" fill="#FFFFFF" font-family="'TwCenMT-Regular'" font-size="2.5011">sed</text>
	<text transform="matrix(1 0 0 1 111.4365 159.1611)" fill="#FFFFFF" font-family="'TwCenMT-Regular'" font-size="2.5011"> </text>
	<text transform="matrix(1 0 0 1 113.6826 159.1611)" fill="#FFFFFF" font-family="'TwCenMT-Regular'" font-size="2.5011">fermentum</text>
	<text transform="matrix(1 0 0 1 125.7432 159.1611)" fill="#FFFFFF" font-family="'TwCenMT-Regular'" font-size="2.5011"> </text>
	<text transform="matrix(1 0 0 1 127.9902 159.1611)" fill="#FFFFFF" font-family="'TwCenMT-Regular'" font-size="2.5011">feugiat,</text>
	<text transform="matrix(1 0 0 1 137.2051 159.1611)" fill="#FFFFFF" font-family="'TwCenMT-Regular'" font-size="2.5011"> </text>
	<text transform="matrix(1 0 0 1 139.4531 159.1611)" fill="#FFFFFF" font-family="'TwCenMT-Regular'" font-size="2.5011">velit</text>
	<text transform="matrix(1 0 0 1 144.5117 159.1611)" fill="#FFFFFF" font-family="'TwCenMT-Regular'" font-size="2.5011"> </text>
	<text transform="matrix(1 0 0 1 146.7578 159.1611)" fill="#FFFFFF" font-family="'TwCenMT-Regular'" font-size="2.5011">mauris </text>
	<text transform="matrix(1 0 0 1 100.2734 162.1621)" fill="#FFFFFF" font-family="'TwCenMT-Regular'" font-size="2.5011">egestas</text>
	<text transform="matrix(1 0 0 1 109.1904 162.1621)" fill="#FFFFFF" font-family="'TwCenMT-Regular'" font-size="2.5011"> </text>
	<text transform="matrix(1 0 0 1 111.0508 162.1621)" fill="#FFFFFF" font-family="'TwCenMT-Regular'" font-size="2.5011">quam,</text>
	<text transform="matrix(1 0 0 1 118.0596 162.1621)" fill="#FFFFFF" font-family="'TwCenMT-Regular'" font-size="2.5011"> </text>
	<text transform="matrix(1 0 0 1 119.9199 162.1621)" fill="#FFFFFF" font-family="'TwCenMT-Regular'" font-size="2.5011">ut</text>
	<text transform="matrix(1 0 0 1 122.0684 162.1621)" fill="#FFFFFF" font-family="'TwCenMT-Regular'" font-size="2.5011"> </text>
	<text transform="matrix(1 0 0 1 123.9297 162.1621)" fill="#FFFFFF" font-family="'TwCenMT-Regular'" font-size="2.5011">aliquam</text>
	<text transform="matrix(1 0 0 1 133.2422 162.1621)" fill="#FFFFFF" font-family="'TwCenMT-Regular'" font-size="2.5011"> </text>
	<text transform="matrix(1 0 0 1 135.1035 162.1621)" fill="#FFFFFF" font-family="'TwCenMT-Regular'" font-size="2.5011">massa</text>
	<text transform="matrix(1 0 0 1 142.1348 162.1621)" fill="#FFFFFF" font-family="'TwCenMT-Regular'" font-size="2.5011"> </text>
	<text transform="matrix(1 0 0 1 143.9961 162.1621)" fill="#FFFFFF" font-family="'TwCenMT-Regular'" font-size="2.5011">nisl</text>
	<text transform="matrix(1 0 0 1 147.7715 162.1621)" fill="#FFFFFF" font-family="'TwCenMT-Regular'" font-size="2.5011"> </text>
	<text transform="matrix(1 0 0 1 149.6309 162.1621)" fill="#FFFFFF" font-family="'TwCenMT-Regular'" font-size="2.5011">quis </text>
	<text transform="matrix(1 0 0 1 100.2734 165.1641)" fill="#FFFFFF" font-family="'TwCenMT-Regular'" font-size="2.5011">neque. Suspendisse in orci enim.</text>
	<rect x="64" y="111" fill="#FFFFFF" width="34" height="54"/>
	<rect x="48" y="87" fill="#FFFFFF" width="4" height="4"/>
	<rect x="42" y="87" fill="#FFFFFF" width="5" height="4"/>
	<rect x="181" y="87" fill="#FFFFFF" width="4" height="4"/>
	<rect x="176" y="87" fill="#FFFFFF" width="5" height="4"/>
	<rect x="171" y="87" fill="#FFFFFF" width="4" height="4"/>
</g>
<rect x="5" y="72" fill="#2F2F2F" width="197" height="111"/>
<rect x="29.833" y="233" fill="#152435" width="149" height="28"/>
<rect x="29.833" y="242" fill="none" width="148.5" height="59.999"/>
<text transform="matrix(1 0 0 1 63.1821 251.0879)" fill="#FFFFFF" font-family="'Avenir-Roman'" font-size="12">Ordinateur fixe</text>
</svg>
