<?xml version="1.0" encoding="utf-8"?>
<!-- Generator: Adobe Illustrator 16.0.0, SVG Export Plug-In . SVG Version: 6.00 Build 0)  -->
<!DOCTYPE svg PUBLIC "-//W3C//DTD SVG 1.1//EN" "http://www.w3.org/Graphics/SVG/1.1/DTD/svg11.dtd">
<svg version="1.1" id="Calque_1" xmlns="http://www.w3.org/2000/svg" xmlns:xlink="http://www.w3.org/1999/xlink" x="0px" y="0px"
	 width="106px" height="52.667px" viewBox="0 0 106 52.667" enable-background="new 0 0 106 52.667" xml:space="preserve">
<g id="dydB0q_1_">
	<g>
		<g>
			<path fill="#FEFEFE" d="M52.77,54.89c-27.438,0-54.875-0.003-82.312,0.017c-0.663,0-0.812-0.149-0.812-0.812
				c0.021-18.341,0.021-36.682,0-55.022c0-0.605,0.119-0.724,0.724-0.723c54.934,0.018,109.867,0.018,164.801,0
				c0.605,0,0.725,0.118,0.724,0.723c-0.021,18.37-0.021,36.74,0,55.11c0.001,0.605-0.118,0.725-0.724,0.724
				C107.704,54.887,80.237,54.89,52.77,54.89z M100.039,17.527c-0.013-0.044-0.029-0.088-0.051-0.129
				c1.021-5.124-3.695-9.802-9.042-8.622c-3.426,0.756-6.451,4.119-5.752,8.547c-0.021,0.035-0.038,0.072-0.049,0.112
				c-0.41,0.036-0.658,0.377-1.005,0.533c-0.015-0.616-0.027-1.232-0.045-1.849c-0.064-2.295-1.885-4.143-4.158-4.177
				c-1.852-0.027-3.706-0.052-5.555,0.021c-0.652,0.025-0.694-0.195-0.688-0.713c0.022-1.999,0.022-3.999,0.002-5.998
				c-0.008-0.814,0.356-1.927-0.148-2.359c-0.48-0.411-1.564-0.08-2.375-0.156c-0.681-0.063-0.818,0.181-0.815,0.829
				c0.024,6.879,0.011,13.759,0.018,20.638c0.002,2.461,1.882,4.324,4.36,4.338c1.294,0.007,2.589-0.038,3.881,0.012
				c1.284,0.05,2.512-0.092,3.659-0.704c0.4,0.802,0.994,1.446,1.7,1.975c2.713,2.034,5.588,2.105,8.575,0.661
				c1.258,0.728,2.613,0.98,4.061,0.946c3.271-0.075,6.171-2.422,6.978-5.706C104.38,22.504,102.9,19.083,100.039,17.527z
				 M30.042,43.239C31,42.73,31.8,42.253,32.647,41.875c0.534-0.239,0.714-0.532,0.713-1.125c-0.003-8.74,0.026-17.479,0.037-26.219
				c0.001-0.82,0.237-1.889-0.179-2.394c-0.48-0.583-1.597-0.101-2.426-0.208c-0.665-0.086-0.834,0.149-0.83,0.815
				c0.023,3.766-0.004,7.533-0.019,11.299c-0.004,1.119-0.359,1.484-1.464,1.491c-1.471,0.009-2.942,0.007-4.414,0
				c-1.205-0.005-1.586-0.386-1.587-1.573c-0.002-3.149,0.011-6.298-0.009-9.447c-0.005-0.843,0.378-1.999-0.156-2.444
				c-0.508-0.424-1.625-0.091-2.471-0.146c-0.554-0.036-0.743,0.103-0.739,0.706c0.03,3.914,0.009,7.828,0.019,11.742
				c0.006,2.369,1.812,4.199,4.173,4.224c1.972,0.021,3.945,0.054,5.915-0.021c0.742-0.028,0.848,0.197,0.845,0.854
				C30.029,33.961,30.042,38.493,30.042,43.239z M35.017,13.905c0,3.444-0.005,6.888,0.002,10.331
				c0.005,2.385,1.853,4.276,4.22,4.305c1.766,0.021,3.532,0.025,5.298-0.001c2.249-0.034,4.128-1.845,4.164-4.081
				c0.047-2.795,0.043-5.593,0.002-8.388c-0.034-2.312-1.879-4.104-4.189-4.129c-1.854-0.02-3.709-0.032-5.562,0.021
				c-0.542,0.015-0.619-0.144-0.613-0.617c0.021-2.03,0.025-4.062,0.001-6.092c-0.009-0.813,0.36-1.896-0.162-2.363
				c-0.448-0.401-1.516-0.064-2.298-0.154C35.092,2.645,34.994,2.973,35,3.663C35.037,7.076,35.017,10.491,35.017,13.905z
				 M3.223,15.642c0,3.472-0.003,6.944,0.002,10.417c0.001,0.818-0.279,1.922,0.137,2.379c0.481,0.528,1.606,0.071,2.44,0.177
				c0.707,0.089,0.797-0.21,0.793-0.83c-0.028-3.736-0.016-7.474-0.013-11.21c0.001-1.179,0.396-1.567,1.594-1.572
				c1.412-0.004,2.825-0.002,4.237,0c1.333,0.002,1.728,0.391,1.729,1.736c0.006,3.089-0.01,6.179,0.009,9.269
				c0.005,0.843-0.374,1.996,0.152,2.443c0.502,0.427,1.622,0.092,2.463,0.166c0.663,0.058,0.757-0.221,0.751-0.803
				c-0.028-2.854-0.002-5.708-0.018-8.562c-0.007-1.234,0.098-2.473-0.087-3.702c-0.315-2.097-2.017-3.591-4.134-3.608
				c-2-0.017-4.003-0.046-6.001,0.021c-0.681,0.023-0.743-0.2-0.736-0.77c0.028-2.589-0.005-5.179,0.026-7.768
				c0.006-0.554-0.156-0.72-0.693-0.682c-0.615,0.044-1.24,0.06-1.852-0.003C3.357,2.669,3.2,2.888,3.205,3.548
				C3.24,7.579,3.223,11.61,3.223,15.642z M68.757,20.181c0-1.295,0.006-2.59-0.002-3.884c-0.016-2.5-1.847-4.342-4.34-4.358
				c-1.678-0.011-3.354-0.01-5.032,0c-2.448,0.013-4.249,1.797-4.394,4.252c-0.048,0.808,0.185,1.105,1.003,1.005
				c0.551-0.067,1.12-0.051,1.675-0.001c0.554,0.049,0.689-0.141,0.686-0.685c-0.008-0.926,0.362-1.248,1.299-1.267
				c0.647-0.014,1.295-0.004,1.942-0.002c0.941,0.002,1.884-0.007,2.824,0.014c0.484,0.011,0.831,0.251,0.977,0.742
				c0.16,0.542-0.268,0.621-0.597,0.793c-2.467,1.295-4.938,2.582-7.395,3.896c-1.82,0.975-2.684,2.804-2.23,4.63
				c0.467,1.881,2.209,3.217,4.227,3.227c1.678,0.008,3.354,0.009,5.032,0c2.42-0.014,4.297-1.88,4.322-4.301
				C68.768,22.888,68.757,21.534,68.757,20.181z M53.659,15.684c0-4.058-0.015-8.115,0.015-12.172
				c0.004-0.616-0.151-0.827-0.774-0.773c-0.642,0.055-1.295,0.048-1.938,0.001c-0.521-0.038-0.618,0.158-0.617,0.64
				c0.016,6.998-0.002,13.996,0.02,20.993c0.006,1.793,0.966,3.021,2.535,3.814c0.575,0.291,0.781,0.211,0.775-0.507
				C53.642,23.682,53.659,19.683,53.659,15.684z M96.875,39.86c0-0.823,0.013-1.647-0.003-2.47c-0.021-1.217-0.74-2.052-1.941-2.06
				c-1.157-0.008-2.357-0.281-3.47,0.3c-0.106,0.055-0.203,0.084-0.323,0.018c-1.077-0.589-2.249-0.317-3.379-0.325
				c-1.21-0.009-2.027,0.767-2.044,1.86c-0.026,1.765,0.017,3.53-0.02,5.294c-0.013,0.606,0.319,0.564,0.72,0.561
				c0.394-0.003,0.751,0.06,0.727-0.555c-0.044-1.087-0.024-2.177-0.01-3.265c0.04-2.808-0.45-2.367,2.517-2.427
				c0.649-0.013,0.88,0.219,0.866,0.874c-0.035,1.617,0.01,3.235-0.021,4.853c-0.013,0.717,0.472,0.514,0.842,0.532
				c0.372,0.018,0.769,0.108,0.745-0.528c-0.041-1.116-0.011-2.235-0.011-3.353c0-2.427-0.001-2.409,2.431-2.38
				c0.671,0.008,0.951,0.215,0.934,0.92c-0.038,1.558,0.017,3.119-0.026,4.676c-0.017,0.59,0.219,0.68,0.721,0.66
				c0.445-0.019,0.799,0.013,0.76-0.627C96.836,41.569,96.875,40.713,96.875,39.86z M8.096,37.612c0-1.207-0.02-2.414,0.008-3.62
				c0.014-0.592-0.381-0.52-0.706-0.465c-0.302,0.05-0.814-0.316-0.863,0.38c-0.032,0.454,0.239,1.087-0.149,1.317
				c-0.373,0.221-0.967,0.073-1.464,0.08c-0.412,0.006-0.826-0.021-1.236,0.009c-1.081,0.077-1.857,0.741-1.922,1.821
				c-0.08,1.347-0.086,2.707-0.002,4.053c0.073,1.171,0.879,1.819,2.072,1.843c0.706,0.014,1.413,0.011,2.119,0
				c1.336-0.02,2.119-0.802,2.139-2.153C8.11,39.79,8.097,38.701,8.096,37.612z M15.19,39.198c-0.028,0-0.057-0.001-0.085-0.001
				c0-0.675,0.055-1.356-0.013-2.025c-0.112-1.107-0.8-1.779-1.89-1.848c-0.851-0.054-1.71-0.059-2.56,0.003
				c-1.054,0.076-1.846,0.921-1.865,1.894c-0.004,0.216-0.078,0.586,0.252,0.542c0.476-0.065,1.228,0.473,1.358-0.547
				c0.037-0.294,0.366-0.339,0.647-0.337c0.589,0.004,1.178,0.002,1.767,0c0.27,0,0.566-0.005,0.672,0.297
				c0.132,0.378-0.242,0.42-0.448,0.531c-1.033,0.559-2.085,1.083-3.115,1.648c-0.925,0.508-1.296,1.305-1.067,2.187
				c0.24,0.922,0.98,1.473,2.033,1.49c0.735,0.012,1.472,0.015,2.208-0.001c1.137-0.023,1.867-0.665,2.004-1.81
				C15.17,40.552,15.16,39.873,15.19,39.198z M72.646,39.157c0-0.647,0.016-1.294-0.004-1.94c-0.03-1.038-0.773-1.858-1.812-1.919
				c-0.908-0.053-1.825-0.058-2.732,0.004c-1.041,0.071-1.851,1.028-1.818,2.03c0.007,0.204-0.025,0.488,0.277,0.413
				c0.483-0.119,1.287,0.475,1.38-0.602c0.023-0.27,0.34-0.287,0.58-0.288c0.646-0.003,1.294-0.003,1.94-0.001
				c0.241,0.001,0.5,0.023,0.573,0.3c0.084,0.318-0.209,0.37-0.408,0.475c-1.114,0.59-2.244,1.155-3.339,1.779
				c-0.759,0.433-1.107,1.128-0.931,2.01c0.174,0.872,0.898,1.513,1.795,1.553c0.881,0.04,1.766,0.043,2.646,0.001
				c1.091-0.053,1.821-0.851,1.85-1.963C72.659,40.392,72.646,39.774,72.646,39.157z M28.165,39.256
				c0-0.617,0.013-1.235-0.003-1.853c-0.03-1.25-0.773-2.029-2.028-2.09c-0.764-0.037-1.53-0.034-2.294-0.001
				c-1.109,0.047-1.942,0.809-2.032,1.833c-0.022,0.262-0.14,0.688,0.338,0.625c0.406-0.053,1.023,0.374,1.194-0.282
				c0.142-0.547,0.437-0.621,0.885-0.613c0.529,0.01,1.059,0.003,1.588,0.001c0.3,0,0.641-0.012,0.722,0.346
				c0.08,0.354-0.298,0.395-0.505,0.508c-1.057,0.573-2.141,1.098-3.189,1.687c-0.823,0.462-1.169,1.275-0.968,2.071
				c0.23,0.912,0.948,1.511,1.905,1.54c0.822,0.024,1.647,0.03,2.47-0.001c1.087-0.042,1.858-0.822,1.911-1.918
				C28.187,40.492,28.163,39.874,28.165,39.256z M97.57,39.14c0,0.618-0.012,1.235,0.002,1.853c0.025,1.188,0.791,1.987,1.979,2.035
				c0.793,0.031,1.589,0.027,2.382,0c0.833-0.029,1.453-0.431,1.802-1.199c0.146-0.322,0.311-0.713,0.119-1.015
				c-0.212-0.334-0.646-0.109-0.979-0.154c-0.299-0.04-0.405,0.125-0.443,0.404c-0.049,0.35-0.302,0.474-0.634,0.474
				c-0.706-0.001-1.412,0-2.118-0.001c-0.284,0-0.54-0.073-0.609-0.389c-0.072-0.326,0.23-0.368,0.42-0.469
				c1.061-0.567,2.13-1.117,3.19-1.685c0.933-0.501,1.369-1.321,1.165-2.146c-0.226-0.909-0.973-1.496-2.016-1.536
				c-0.734-0.028-1.472-0.031-2.206,0c-1.291,0.055-2.034,0.846-2.054,2.151C97.562,38.021,97.57,38.581,97.57,39.14z
				 M81.831,42.993c0,0.013,0,0.027,0,0.04c0.411,0,0.824,0.018,1.234-0.003c0.949-0.049,1.692-0.667,1.897-1.555
				c0.201-0.875-0.159-1.57-1.077-2.056c-1.088-0.576-2.183-1.141-3.269-1.721c-0.238-0.126-0.472-0.309-0.383-0.621
				c0.08-0.279,0.36-0.267,0.591-0.271c0.588-0.01,1.176-0.002,1.763-0.006c0.455-0.003,0.827-0.001,0.998,0.599
				c0.163,0.577,0.753,0.254,1.136,0.256c0.475,0.002,0.288-0.43,0.254-0.678c-0.132-0.952-0.921-1.621-1.979-1.665
				c-0.763-0.031-1.528-0.028-2.292-0.001c-1.038,0.037-1.819,0.702-2.004,1.657c-0.163,0.839,0.232,1.515,1.186,2.013
				c1.039,0.543,2.081,1.08,3.119,1.625c0.237,0.125,0.456,0.283,0.453,0.594c-0.001,0.172-0.125,0.282-0.273,0.293
				c-0.907,0.069-1.815,0.091-2.722-0.013c-0.155-0.018-0.243-0.153-0.269-0.31c-0.155-0.94-0.916-0.539-1.312-0.442
				c-0.45,0.11-0.185,0.639-0.079,0.982c0.219,0.713,0.741,1.145,1.446,1.265C80.763,43.062,81.303,42.993,81.831,42.993z
				 M44.208,39.192c0-0.587,0.004-1.175-0.001-1.762c-0.009-1.268-0.717-2.05-1.974-2.116c-0.791-0.041-1.588-0.044-2.378,0.004
				c-1.195,0.073-1.92,0.866-1.935,2.075c-0.015,1.204-0.02,2.409,0.001,3.613c0.021,1.16,0.762,1.959,1.897,2.017
				c0.85,0.043,1.706,0.048,2.555-0.005c1.104-0.069,1.811-0.862,1.832-1.975C44.217,40.427,44.208,39.81,44.208,39.192z
				 M59.291,39.864c0,0.853,0.027,1.707-0.011,2.557c-0.023,0.537,0.213,0.643,0.681,0.621c0.428-0.02,0.813,0.05,0.785-0.605
				c-0.044-1.056-0.024-2.116-0.009-3.174c0.044-2.877-0.465-2.411,2.558-2.467c0.645-0.012,0.886,0.248,0.874,0.894
				c-0.029,1.587,0.016,3.175-0.023,4.762c-0.014,0.574,0.259,0.615,0.693,0.587c0.396-0.025,0.81,0.11,0.791-0.579
				c-0.046-1.704,0.005-3.411-0.025-5.115c-0.021-1.207-0.782-1.972-1.987-2.031c-0.763-0.037-1.529-0.034-2.293-0.001
				c-1.249,0.053-1.999,0.829-2.029,2.083C59.274,38.218,59.291,39.041,59.291,39.864z M44.906,38.464
				c0,0.824-0.014,1.648,0.003,2.472c0.026,1.253,0.787,2.045,2.025,2.091c0.764,0.029,1.531,0.027,2.295,0
				c1.233-0.043,2.001-0.838,2.014-2.096c0.017-1.647-0.018-3.296,0.017-4.943c0.011-0.547-0.157-0.702-0.698-0.702
				c-0.556-0.001-0.771,0.125-0.755,0.729c0.042,1.529,0.002,3.06,0.02,4.59c0.007,0.657-0.227,0.992-0.933,0.94
				c-0.527-0.039-1.062-0.041-1.588,0c-0.746,0.058-0.976-0.271-0.958-0.986c0.037-1.529-0.023-3.062,0.027-4.59
				c0.022-0.674-0.318-0.65-0.802-0.681c-0.569-0.036-0.703,0.177-0.678,0.703C44.935,36.815,44.906,37.64,44.906,38.464z
				 M35.543,42.973c0,2.115-0.014,4.231,0.014,6.345c0.005,0.375-0.251,1.004,0.162,1.088c0.473,0.098,0.851-0.418,1.103-0.87
				c0.192-0.345,0.243-0.72,0.243-1.104c0-4.113-0.017-8.226,0.018-12.339c0.005-0.668-0.297-0.677-0.79-0.683
				c-0.508-0.006-0.781,0.034-0.768,0.689C35.574,38.389,35.543,40.681,35.543,42.973z M17.282,35.86
				c0-0.565-0.046-1.121,0.012-1.665c0.07-0.654-0.267-0.681-0.775-0.699c-0.567-0.021-0.755,0.132-0.745,0.728
				c0.035,2.237,0.007,4.475,0.017,6.712c0.005,1.249,0.77,2.051,2.01,2.091c0.911,0.029,1.827-0.031,2.736,0.019
				c0.625,0.035,0.641-0.292,0.642-0.755c0.002-0.442-0.042-0.728-0.605-0.695c-0.763,0.043-1.531-0.006-2.296,0.016
				c-0.69,0.019-1.048-0.23-1.003-0.978c0.029-0.496,0.013-1.004-0.061-1.495c-0.153-1.036,0.125-1.776,1.202-2.112
				c0.33-0.104,0.619-0.334,0.937-0.486c0.325-0.156,0.39-0.32,0.223-0.681c-0.29-0.629-0.566-0.995-1.273-0.449
				C18.016,35.629,17.683,35.859,17.282,35.86z M51.94,39.826c0,0.824,0.046,1.651-0.015,2.47c-0.048,0.671,0.243,0.77,0.817,0.753
				c0.522-0.016,0.883,0.002,0.844-0.719c-0.063-1.203-0.028-2.412-0.015-3.618c0.021-1.742-0.356-1.776,1.771-1.719
				c0.628,0.017,1.592-0.43,1.643,0.828c0.001,0.039,0.146,0.103,0.223,0.102c0.437-0.008,0.995,0.127,1.276-0.091
				c0.352-0.272,0.101-0.826-0.068-1.222c-0.343-0.806-0.987-1.227-1.861-1.248c-0.853-0.021-1.707-0.029-2.559,0.002
				c-1.232,0.045-2.017,0.847-2.052,2.08C51.922,38.237,51.941,39.032,51.94,39.826z M75.092,38.316
				c0-1.439-0.021-2.878,0.008-4.316c0.015-0.73-0.495-0.488-0.851-0.511c-0.359-0.023-0.751-0.132-0.742,0.516
				c0.033,2.378,0.006,4.757,0.02,7.135c0.005,0.728,0.357,1.288,0.975,1.672c0.421,0.262,0.61,0.196,0.6-0.355
				C75.075,41.077,75.092,39.696,75.092,38.316z M77.799,39.221c0-1.057-0.039-2.116,0.015-3.17
				c0.031-0.622-0.271-0.657-0.738-0.632c-0.409,0.021-0.796-0.085-0.776,0.595c0.05,1.731,0.018,3.464,0.017,5.196
				c0,0.711,0.335,1.227,0.922,1.598c0.397,0.252,0.572,0.159,0.565-0.327C77.789,41.394,77.798,40.308,77.799,39.221z
				 M77.06,34.549c0.385,0.023,0.767,0.106,0.764-0.562c-0.002-0.648-0.396-0.522-0.745-0.501c-0.35,0.021-0.841-0.223-0.848,0.503
				C76.225,34.661,76.632,34.562,77.06,34.549z M36.25,33.513c-0.34,0.028-0.756-0.167-0.761,0.497
				c-0.006,0.706,0.438,0.537,0.814,0.541c0.359,0.004,0.762,0.126,0.775-0.508C37.095,33.321,36.611,33.553,36.25,33.513z"/>
			<path fill-rule="evenodd" clip-rule="evenodd" fill="#040404" d="M30.042,43.239c0-4.746-0.013-9.277,0.014-13.808
				c0.003-0.657-0.103-0.882-0.845-0.854c-1.97,0.075-3.943,0.042-5.915,0.021c-2.36-0.025-4.167-1.855-4.173-4.224
				c-0.01-3.914,0.012-7.829-0.019-11.742c-0.004-0.603,0.186-0.742,0.739-0.706c0.846,0.055,1.963-0.278,2.471,0.146
				c0.534,0.445,0.151,1.601,0.156,2.444c0.02,3.149,0.007,6.298,0.009,9.447c0.001,1.187,0.382,1.567,1.587,1.573
				c1.472,0.007,2.943,0.008,4.414,0c1.104-0.007,1.46-0.372,1.464-1.491c0.015-3.767,0.042-7.533,0.019-11.299
				c-0.004-0.666,0.165-0.901,0.83-0.815c0.829,0.107,1.945-0.375,2.426,0.208c0.416,0.505,0.18,1.574,0.179,2.394
				c-0.011,8.739-0.04,17.479-0.037,26.219c0.001,0.593-0.179,0.887-0.713,1.125C31.8,42.253,31,42.73,30.042,43.239z"/>
			<path fill-rule="evenodd" clip-rule="evenodd" fill="#040404" d="M82.275,27.852c-1.147,0.612-2.375,0.754-3.659,0.704
				c-1.292-0.05-2.587-0.005-3.881-0.012c-2.479-0.015-4.358-1.877-4.36-4.338c-0.007-6.879,0.007-13.759-0.018-20.638
				c-0.003-0.648,0.135-0.893,0.815-0.829c0.811,0.076,1.895-0.255,2.375,0.156c0.505,0.432,0.141,1.545,0.148,2.359
				c0.021,1.999,0.021,3.999-0.002,5.998c-0.006,0.518,0.036,0.739,0.688,0.713c1.849-0.073,3.703-0.049,5.555-0.021
				c2.273,0.034,4.094,1.881,4.158,4.177c0.018,0.616,0.03,1.232,0.044,1.849c-0.01,1.817-0.087,3.637-0.01,5.451
				C84.206,25.22,83.649,26.689,82.275,27.852z M73.703,20.091c0,1.263,0.003,2.526-0.001,3.789
				c-0.002,0.754,0.362,1.152,1.119,1.156c1.586,0.006,3.172,0,4.758,0.003c0.798,0.001,1.188-0.391,1.188-1.188
				c-0.002-2.467-0.005-4.934,0.002-7.401c0.002-0.797-0.383-1.203-1.175-1.206c-1.557-0.006-3.113-0.016-4.669,0.003
				c-0.895,0.011-1.212,0.348-1.22,1.233C73.696,17.683,73.703,18.887,73.703,20.091z"/>
			<path fill-rule="evenodd" clip-rule="evenodd" fill="#040404" d="M35.017,13.905c0-3.414,0.02-6.829-0.017-10.242
				c-0.007-0.69,0.092-1.018,0.879-0.927c0.782,0.09,1.85-0.247,2.298,0.154c0.522,0.467,0.153,1.549,0.162,2.363
				c0.024,2.031,0.021,4.062-0.001,6.092c-0.006,0.473,0.071,0.632,0.613,0.617c1.853-0.053,3.708-0.041,5.562-0.021
				c2.311,0.025,4.155,1.817,4.189,4.129c0.041,2.795,0.045,5.593-0.002,8.388c-0.036,2.235-1.915,4.047-4.164,4.081
				c-1.766,0.027-3.532,0.022-5.298,0.001c-2.367-0.028-4.215-1.92-4.22-4.305C35.012,20.792,35.017,17.349,35.017,13.905z
				 M38.347,20.091c0,1.233-0.008,2.466,0.003,3.699c0.008,0.895,0.333,1.236,1.202,1.244c1.556,0.013,3.112-0.001,4.668,0.006
				c0.807,0.003,1.187-0.404,1.188-1.189c0.002-2.466-0.003-4.932,0.003-7.398c0.001-0.796-0.391-1.203-1.177-1.208
				c-1.557-0.009-3.112-0.016-4.668,0.002c-0.909,0.011-1.207,0.324-1.216,1.234C38.338,17.683,38.347,18.887,38.347,20.091z"/>
			<path fill-rule="evenodd" clip-rule="evenodd" fill="#040404" d="M3.223,15.642c0-4.031,0.017-8.062-0.018-12.093
				C3.2,2.888,3.357,2.669,4.022,2.738c0.611,0.063,1.236,0.047,1.852,0.003c0.538-0.039,0.7,0.127,0.693,0.682
				c-0.031,2.589,0.002,5.179-0.026,7.768c-0.006,0.57,0.056,0.792,0.736,0.77c1.999-0.067,4.001-0.037,6.001-0.021
				c2.117,0.018,3.818,1.512,4.134,3.608c0.185,1.229,0.08,2.468,0.087,3.702c0.016,2.854-0.011,5.708,0.018,8.562
				c0.006,0.583-0.088,0.861-0.751,0.803c-0.841-0.074-1.961,0.261-2.463-0.166c-0.526-0.447-0.147-1.6-0.152-2.443
				c-0.019-3.089-0.003-6.179-0.009-9.269c-0.002-1.345-0.396-1.734-1.729-1.736C11,15,9.588,14.998,8.176,15.002
				c-1.198,0.004-1.593,0.393-1.594,1.572c-0.003,3.737-0.015,7.474,0.013,11.21c0.004,0.619-0.086,0.919-0.793,0.83
				c-0.834-0.105-1.959,0.352-2.44-0.177c-0.416-0.457-0.135-1.561-0.137-2.379C3.219,22.586,3.223,19.114,3.223,15.642z"/>
			<path fill-rule="evenodd" clip-rule="evenodd" fill="#040404" d="M68.757,20.181c0,1.354,0.011,2.708-0.003,4.061
				c-0.025,2.421-1.902,4.287-4.322,4.301c-1.678,0.009-3.354,0.008-5.032,0c-2.018-0.01-3.76-1.346-4.227-3.227
				c-0.453-1.827,0.41-3.656,2.23-4.63c2.457-1.314,4.928-2.601,7.395-3.896c0.329-0.172,0.757-0.252,0.597-0.793
				c-0.146-0.491-0.492-0.73-0.977-0.742c-0.94-0.021-1.883-0.012-2.824-0.014c-0.647-0.001-1.295-0.011-1.942,0.002
				c-0.937,0.019-1.307,0.34-1.299,1.267c0.004,0.543-0.132,0.734-0.686,0.685c-0.555-0.05-1.124-0.065-1.675,0.001
				c-0.818,0.1-1.051-0.197-1.003-1.005c0.145-2.455,1.945-4.239,4.394-4.252c1.678-0.009,3.354-0.01,5.032,0
				c2.493,0.016,4.324,1.857,4.34,4.358C68.763,17.591,68.757,18.886,68.757,20.181z M65.425,20.242
				c-2.193,1.153-4.262,2.233-6.322,3.327c-0.382,0.202-0.833,0.424-0.66,0.98c0.161,0.519,0.584,0.674,1.107,0.67
				c1.554-0.013,3.108-0.011,4.663-0.002c0.788,0.004,1.21-0.354,1.212-1.157C65.428,22.828,65.425,21.597,65.425,20.242z"/>
			<path fill-rule="evenodd" clip-rule="evenodd" fill="#CA1728" d="M82.275,27.852c1.374-1.162,1.931-2.631,1.854-4.433
				c-0.077-1.814,0-3.634,0.01-5.451c0.348-0.156,0.596-0.497,1.006-0.533c0.062,0.195,0.131,0.389,0.188,0.585
				c0.755,2.658,2.484,4.373,5.074,5.264c1.942,0.668,3.806,0.269,5.651-0.403c0.412,0.984,0.146,1.96-0.076,2.919
				c-0.475,2.042-1.761,3.511-3.432,4.687c-2.987,1.444-5.862,1.373-8.575-0.661C83.269,29.298,82.675,28.653,82.275,27.852z"/>
			<path fill-rule="evenodd" clip-rule="evenodd" fill="#3E8AF4" d="M85.194,17.323c-0.699-4.428,2.326-7.791,5.752-8.547
				c5.347-1.18,10.063,3.498,9.042,8.622c-1.855-0.907-3.817-1.307-5.783-0.6c-1.24,0.446-2.284,0.529-3.553,0.044
				C88.825,16.143,86.967,16.616,85.194,17.323z"/>
			<path fill-rule="evenodd" clip-rule="evenodd" fill="#040404" d="M53.659,15.684c0,3.999-0.017,7.998,0.015,11.996
				c0.006,0.719-0.2,0.798-0.775,0.507c-1.569-0.794-2.529-2.021-2.535-3.814c-0.021-6.998-0.004-13.996-0.02-20.993
				c-0.001-0.482,0.097-0.678,0.617-0.64c0.644,0.047,1.297,0.054,1.938-0.001c0.623-0.054,0.778,0.157,0.774,0.773
				C53.644,7.569,53.659,11.626,53.659,15.684z"/>
			<path fill-rule="evenodd" clip-rule="evenodd" fill="#FAA302" d="M92.55,30.488c1.671-1.176,2.957-2.645,3.432-4.687
				c0.223-0.959,0.488-1.936,0.076-2.919c0.101-0.105,0.185-0.24,0.305-0.311c1.947-1.157,3.124-2.872,3.676-5.043
				c2.861,1.556,4.342,4.978,3.55,8.201c-0.807,3.284-3.706,5.631-6.978,5.706C95.164,31.468,93.808,31.215,92.55,30.488z"/>
			<path fill-rule="evenodd" clip-rule="evenodd" fill="#57371A" d="M100.039,17.527c-0.552,2.172-1.729,3.887-3.676,5.043
				c-0.12,0.071-0.204,0.206-0.305,0.311c-1.846,0.672-3.709,1.071-5.651,0.403c-2.59-0.891-4.319-2.606-5.074-5.264
				c-0.057-0.197-0.125-0.391-0.188-0.585c0.011-0.04,0.027-0.077,0.049-0.112c1.773-0.707,3.631-1.18,5.458-0.48
				c1.269,0.485,2.312,0.402,3.553-0.044c1.966-0.707,3.928-0.308,5.783,0.6C100.009,17.439,100.026,17.482,100.039,17.527z"/>
			<path fill-rule="evenodd" clip-rule="evenodd" fill="#CA1728" d="M96.875,39.86c0,0.853-0.039,1.709,0.014,2.559
				c0.039,0.64-0.314,0.608-0.76,0.627c-0.502,0.021-0.737-0.069-0.721-0.66c0.043-1.558-0.012-3.118,0.026-4.676
				c0.018-0.706-0.263-0.912-0.934-0.92c-2.432-0.029-2.431-0.047-2.431,2.38c0,1.118-0.03,2.236,0.011,3.353
				c0.023,0.636-0.373,0.546-0.745,0.528c-0.37-0.018-0.854,0.186-0.842-0.532c0.03-1.618-0.015-3.236,0.021-4.853
				c0.014-0.654-0.217-0.887-0.866-0.874c-2.967,0.06-2.477-0.381-2.517,2.427c-0.015,1.088-0.034,2.178,0.01,3.265
				c0.024,0.615-0.333,0.551-0.727,0.555c-0.4,0.003-0.732,0.045-0.72-0.561c0.036-1.764-0.007-3.53,0.02-5.294
				c0.017-1.093,0.834-1.869,2.044-1.86c1.13,0.008,2.302-0.264,3.379,0.325c0.12,0.066,0.217,0.038,0.323-0.018
				c1.112-0.582,2.312-0.308,3.47-0.3c1.201,0.008,1.92,0.843,1.941,2.06C96.888,38.213,96.875,39.037,96.875,39.86z"/>
			<path fill-rule="evenodd" clip-rule="evenodd" fill="#CA1728" d="M8.096,37.612c0,1.088,0.014,2.178-0.003,3.266
				c-0.02,1.351-0.803,2.133-2.139,2.153c-0.706,0.011-1.413,0.014-2.119,0c-1.193-0.024-2-0.672-2.072-1.843
				c-0.084-1.346-0.078-2.706,0.002-4.053c0.065-1.08,0.841-1.745,1.922-1.821c0.41-0.029,0.824-0.002,1.236-0.009
				c0.497-0.007,1.091,0.141,1.464-0.08c0.388-0.23,0.117-0.863,0.149-1.317c0.048-0.696,0.561-0.33,0.863-0.38
				c0.325-0.054,0.72-0.126,0.706,0.465C8.077,35.199,8.096,36.406,8.096,37.612z M3.328,39.14c0,0.498,0.021,0.998-0.005,1.494
				c-0.032,0.583,0.161,0.882,0.799,0.835c0.524-0.039,1.056-0.038,1.581,0c0.677,0.048,0.87-0.277,0.85-0.895
				c-0.028-0.908-0.038-1.818,0.002-2.724c0.031-0.71-0.21-0.988-0.955-0.987C3.328,36.866,3.328,36.84,3.328,39.14z"/>
			<path fill-rule="evenodd" clip-rule="evenodd" fill="#CA1728" d="M15.19,39.198c-0.03,0.675-0.02,1.354-0.1,2.023
				c-0.137,1.145-0.867,1.786-2.004,1.81c-0.736,0.016-1.473,0.013-2.208,0.001c-1.053-0.018-1.793-0.568-2.033-1.49
				c-0.229-0.882,0.142-1.679,1.067-2.187c1.03-0.565,2.082-1.09,3.115-1.648c0.206-0.111,0.58-0.153,0.448-0.531
				c-0.105-0.302-0.402-0.297-0.672-0.297c-0.589,0.001-1.178,0.003-1.767,0c-0.281-0.002-0.61,0.043-0.647,0.337
				c-0.13,1.02-0.883,0.482-1.358,0.547C8.7,37.806,8.774,37.436,8.778,37.22c0.019-0.973,0.811-1.818,1.865-1.894
				c0.85-0.062,1.709-0.057,2.56-0.003c1.09,0.069,1.777,0.741,1.89,1.848c0.067,0.669,0.013,1.35,0.013,2.025
				C15.133,39.197,15.162,39.197,15.19,39.198z M11.954,41.46c0.322,0,0.645-0.001,0.966,0c0.246,0.001,0.51-0.021,0.561-0.304
				c0.104-0.576,0.255-1.262-0.055-1.701c-0.196-0.277-0.722,0.28-1.113,0.43c-0.271,0.104-0.553,0.221-0.777,0.398
				c-0.369,0.29-1.181,0.287-1.058,0.865c0.133,0.618,0.854,0.198,1.302,0.31C11.833,41.473,11.895,41.461,11.954,41.46z"/>
			<path fill-rule="evenodd" clip-rule="evenodd" fill="#CA1728" d="M72.646,39.157c0,0.618,0.013,1.235-0.003,1.853
				c-0.028,1.112-0.759,1.91-1.85,1.963c-0.88,0.042-1.765,0.039-2.646-0.001c-0.896-0.041-1.621-0.681-1.795-1.553
				c-0.177-0.882,0.172-1.578,0.931-2.01c1.095-0.625,2.225-1.189,3.339-1.779c0.199-0.105,0.492-0.157,0.408-0.475
				c-0.073-0.276-0.332-0.299-0.573-0.3c-0.646-0.002-1.294-0.002-1.94,0.001c-0.24,0.001-0.557,0.018-0.58,0.288
				c-0.093,1.077-0.896,0.483-1.38,0.602c-0.303,0.075-0.271-0.209-0.277-0.413c-0.032-1.002,0.777-1.959,1.818-2.03
				c0.907-0.062,1.824-0.057,2.732-0.004c1.038,0.061,1.781,0.881,1.812,1.919C72.662,37.863,72.646,38.51,72.646,39.157z
				 M71.007,39.24c-0.742,0.382-1.407,0.685-2.029,1.058c-0.376,0.227-1.113,0.285-0.994,0.822c0.124,0.563,0.808,0.293,1.242,0.299
				C71.215,41.445,71.215,41.431,71.007,39.24z"/>
			<path fill-rule="evenodd" clip-rule="evenodd" fill="#CA1728" d="M28.164,39.256c-0.001,0.618,0.023,1.236-0.006,1.853
				c-0.053,1.096-0.824,1.876-1.911,1.918c-0.822,0.031-1.647,0.025-2.47,0.001C22.82,43,22.102,42.4,21.872,41.488
				c-0.201-0.795,0.145-1.609,0.968-2.071c1.049-0.589,2.133-1.113,3.189-1.687c0.207-0.113,0.585-0.154,0.505-0.508
				c-0.081-0.358-0.422-0.347-0.722-0.346c-0.529,0.002-1.059,0.008-1.588-0.001c-0.448-0.008-0.743,0.066-0.885,0.613
				c-0.171,0.656-0.788,0.229-1.194,0.282c-0.478,0.062-0.36-0.363-0.338-0.625c0.09-1.024,0.923-1.785,2.032-1.833
				c0.764-0.033,1.53-0.036,2.294,0.001c1.255,0.061,1.998,0.84,2.028,2.09C28.177,38.021,28.165,38.639,28.164,39.256z
				 M24.943,41.482c0.514-0.15,1.213,0.284,1.54-0.278c0.302-0.518,0.298-1.263,0.006-1.766c-0.146-0.252-0.685,0.245-1.045,0.402
				c-0.267,0.117-0.537,0.24-0.771,0.408c-0.425,0.304-1.322,0.326-1.163,0.961C23.646,41.753,24.448,41.346,24.943,41.482z"/>
			<path fill-rule="evenodd" clip-rule="evenodd" fill="#CA1728" d="M97.57,39.14c0-0.559-0.008-1.118,0.001-1.677
				c0.02-1.306,0.763-2.097,2.054-2.151c0.734-0.031,1.472-0.028,2.206,0c1.043,0.04,1.79,0.627,2.016,1.536
				c0.204,0.825-0.232,1.645-1.165,2.146c-1.061,0.568-2.13,1.118-3.19,1.685c-0.189,0.102-0.492,0.144-0.42,0.469
				c0.069,0.316,0.325,0.388,0.609,0.389c0.706,0.001,1.412,0,2.118,0.001c0.332,0,0.585-0.124,0.634-0.474
				c0.038-0.279,0.145-0.444,0.443-0.404c0.333,0.045,0.767-0.18,0.979,0.154c0.191,0.302,0.027,0.692-0.119,1.015
				c-0.349,0.768-0.969,1.169-1.802,1.199c-0.793,0.028-1.589,0.032-2.382,0c-1.188-0.047-1.954-0.847-1.979-2.035
				C97.558,40.375,97.57,39.757,97.57,39.14z M99.052,39.229c0.843-0.439,1.602-0.803,2.326-1.226
				c0.374-0.218,1.078-0.288,0.929-0.872c-0.146-0.572-0.795-0.315-1.224-0.32C98.861,36.787,98.861,36.799,99.052,39.229z"/>
			<path fill-rule="evenodd" clip-rule="evenodd" fill="#CA1728" d="M81.831,42.993c-0.527,0-1.067,0.07-1.58-0.017
				c-0.705-0.12-1.228-0.552-1.446-1.265c-0.105-0.343-0.371-0.872,0.079-0.982c0.396-0.097,1.156-0.499,1.312,0.442
				c0.025,0.157,0.113,0.292,0.269,0.31c0.906,0.104,1.814,0.082,2.722,0.013c0.148-0.011,0.272-0.121,0.273-0.293
				c0.003-0.311-0.216-0.469-0.453-0.594c-1.038-0.545-2.08-1.082-3.119-1.625c-0.953-0.499-1.349-1.174-1.186-2.013
				c0.185-0.955,0.966-1.62,2.004-1.657c0.764-0.027,1.529-0.03,2.292,0.001c1.058,0.044,1.847,0.712,1.979,1.665
				c0.034,0.248,0.221,0.68-0.254,0.678c-0.383-0.001-0.973,0.321-1.136-0.256c-0.171-0.6-0.543-0.603-0.998-0.599
				c-0.587,0.004-1.175-0.004-1.763,0.006c-0.23,0.004-0.511-0.008-0.591,0.271c-0.089,0.312,0.145,0.494,0.383,0.621
				c1.086,0.58,2.181,1.145,3.269,1.721c0.918,0.486,1.278,1.182,1.077,2.056c-0.205,0.888-0.948,1.506-1.897,1.555
				c-0.41,0.021-0.823,0.003-1.234,0.003C81.831,43.02,81.831,43.006,81.831,42.993z"/>
			<path fill-rule="evenodd" clip-rule="evenodd" fill="#CA1728" d="M44.208,39.192c0,0.617,0.01,1.234-0.002,1.851
				c-0.021,1.113-0.728,1.906-1.832,1.975c-0.849,0.053-1.705,0.048-2.555,0.005c-1.136-0.058-1.877-0.857-1.897-2.017
				c-0.021-1.204-0.016-2.409-0.001-3.613c0.015-1.209,0.739-2.002,1.935-2.075c0.79-0.048,1.587-0.045,2.378-0.004
				c1.257,0.066,1.965,0.848,1.974,2.116C44.211,38.018,44.208,38.605,44.208,39.192z M42.786,39.182
				c-0.048-2.749,0.447-2.344-2.451-2.381c-0.029,0-0.059,0.002-0.088,0c-0.637-0.06-0.91,0.222-0.892,0.867
				c0.026,0.938,0.046,1.879-0.006,2.815c-0.044,0.8,0.235,1.092,1.057,1.07C43.214,41.478,42.74,41.911,42.786,39.182z"/>
			<path fill-rule="evenodd" clip-rule="evenodd" fill="#CA1728" d="M59.291,39.864c0-0.823-0.017-1.646,0.004-2.469
				c0.03-1.254,0.78-2.03,2.029-2.083c0.764-0.032,1.53-0.036,2.293,0.001c1.205,0.059,1.967,0.824,1.987,2.031
				c0.03,1.705-0.021,3.411,0.025,5.115c0.019,0.688-0.395,0.553-0.791,0.579c-0.435,0.028-0.707-0.014-0.693-0.587
				c0.039-1.586-0.006-3.175,0.023-4.762c0.012-0.646-0.229-0.906-0.874-0.894c-3.022,0.057-2.514-0.41-2.558,2.467
				c-0.016,1.058-0.035,2.118,0.009,3.174c0.028,0.656-0.357,0.585-0.785,0.605c-0.468,0.022-0.704-0.084-0.681-0.621
				C59.318,41.571,59.291,40.717,59.291,39.864z"/>
			<path fill-rule="evenodd" clip-rule="evenodd" fill="#CA1728" d="M44.906,38.464c0-0.824,0.029-1.649-0.011-2.472
				c-0.025-0.526,0.108-0.739,0.678-0.703c0.483,0.03,0.824,0.006,0.802,0.681c-0.051,1.528,0.01,3.061-0.027,4.59
				c-0.018,0.714,0.212,1.043,0.958,0.986c0.526-0.041,1.061-0.039,1.588,0c0.706,0.051,0.939-0.283,0.933-0.94
				c-0.018-1.53,0.022-3.061-0.02-4.59c-0.017-0.604,0.199-0.729,0.755-0.729c0.541,0,0.709,0.155,0.698,0.702
				c-0.034,1.647,0,3.296-0.017,4.943c-0.013,1.258-0.78,2.053-2.014,2.096c-0.764,0.027-1.531,0.028-2.295,0
				c-1.238-0.046-1.999-0.838-2.025-2.091C44.892,40.112,44.906,39.288,44.906,38.464z"/>
			<path fill-rule="evenodd" clip-rule="evenodd" fill="#CA1728" d="M35.543,42.973c0-2.292,0.03-4.584-0.019-6.874
				c-0.014-0.655,0.26-0.695,0.768-0.689c0.493,0.005,0.795,0.015,0.79,0.683c-0.034,4.113-0.018,8.226-0.018,12.339
				c0,0.385-0.051,0.76-0.243,1.104c-0.252,0.452-0.63,0.968-1.103,0.87c-0.413-0.084-0.157-0.713-0.162-1.088
				C35.53,47.204,35.543,45.087,35.543,42.973z"/>
			<path fill-rule="evenodd" clip-rule="evenodd" fill="#CA1728" d="M17.282,35.86c0.401-0.001,0.734-0.231,1.019-0.451
				c0.707-0.546,0.983-0.18,1.273,0.449c0.167,0.361,0.103,0.525-0.223,0.681c-0.317,0.152-0.606,0.383-0.937,0.486
				c-1.077,0.336-1.355,1.076-1.202,2.112c0.073,0.491,0.09,0.999,0.061,1.495c-0.045,0.748,0.312,0.997,1.003,0.978
				c0.765-0.021,1.533,0.028,2.296-0.016c0.563-0.032,0.607,0.253,0.605,0.695c-0.001,0.462-0.017,0.79-0.642,0.755
				c-0.909-0.05-1.825,0.01-2.736-0.019c-1.24-0.041-2.005-0.843-2.01-2.091c-0.01-2.238,0.019-4.475-0.017-6.712
				c-0.01-0.595,0.178-0.748,0.745-0.728c0.509,0.018,0.846,0.045,0.775,0.699C17.236,34.74,17.282,35.295,17.282,35.86z"/>
			<path fill-rule="evenodd" clip-rule="evenodd" fill="#CA1728" d="M51.94,39.826c0.001-0.794-0.018-1.589,0.005-2.383
				c0.035-1.233,0.819-2.035,2.052-2.08c0.852-0.031,1.706-0.023,2.559-0.002c0.874,0.021,1.519,0.442,1.861,1.248
				c0.169,0.396,0.42,0.95,0.068,1.222c-0.281,0.218-0.84,0.083-1.276,0.091c-0.077,0.001-0.222-0.063-0.223-0.102
				c-0.051-1.258-1.015-0.811-1.643-0.828c-2.128-0.058-1.751-0.023-1.771,1.719c-0.014,1.206-0.049,2.415,0.015,3.618
				c0.039,0.721-0.321,0.703-0.844,0.719c-0.574,0.017-0.865-0.082-0.817-0.753C51.986,41.477,51.94,40.65,51.94,39.826z"/>
			<path fill-rule="evenodd" clip-rule="evenodd" fill="#CA1728" d="M75.092,38.316c0,1.38-0.018,2.76,0.009,4.14
				c0.011,0.551-0.179,0.617-0.6,0.355c-0.617-0.385-0.97-0.944-0.975-1.672c-0.014-2.378,0.014-4.757-0.02-7.135
				c-0.009-0.648,0.383-0.539,0.742-0.516C74.605,33.512,75.115,33.27,75.1,34C75.072,35.438,75.092,36.877,75.092,38.316z"/>
			<path fill-rule="evenodd" clip-rule="evenodd" fill="#CA1728" d="M77.799,39.221c-0.001,1.086-0.011,2.173,0.004,3.259
				c0.007,0.486-0.168,0.579-0.565,0.327c-0.587-0.371-0.922-0.887-0.922-1.598c0.001-1.732,0.033-3.465-0.017-5.196
				c-0.02-0.68,0.367-0.573,0.776-0.595c0.467-0.024,0.77,0.011,0.738,0.632C77.76,37.105,77.799,38.165,77.799,39.221z"/>
			<path fill-rule="evenodd" clip-rule="evenodd" fill="#CA1728" d="M77.06,34.549c-0.428,0.013-0.835,0.111-0.829-0.56
				c0.007-0.727,0.498-0.482,0.848-0.503c0.349-0.021,0.743-0.147,0.745,0.501C77.827,34.655,77.445,34.573,77.06,34.549z"/>
			<path fill-rule="evenodd" clip-rule="evenodd" fill="#CA1728" d="M36.25,33.512c0.36,0.041,0.845-0.191,0.829,0.531
				c-0.014,0.634-0.416,0.512-0.775,0.508c-0.376-0.004-0.82,0.165-0.814-0.541C35.495,33.347,35.911,33.541,36.25,33.512z"/>
			<path fill-rule="evenodd" clip-rule="evenodd" fill="#FEFEFE" d="M73.703,20.091c0-1.204-0.007-2.408,0.002-3.612
				c0.008-0.885,0.325-1.222,1.22-1.233c1.556-0.019,3.112-0.009,4.669-0.003c0.792,0.003,1.177,0.409,1.175,1.206
				c-0.007,2.467-0.004,4.934-0.002,7.401c0.001,0.798-0.39,1.19-1.188,1.188c-1.586-0.003-3.172,0.003-4.758-0.003
				c-0.757-0.003-1.121-0.402-1.119-1.156C73.706,22.617,73.703,21.354,73.703,20.091z"/>
			<path fill-rule="evenodd" clip-rule="evenodd" fill="#FEFEFE" d="M38.347,20.091c0-1.204-0.009-2.408,0.003-3.611
				c0.009-0.91,0.307-1.223,1.216-1.234c1.556-0.019,3.111-0.012,4.668-0.002c0.786,0.005,1.178,0.412,1.177,1.208
				c-0.006,2.466-0.001,4.932-0.003,7.398c-0.001,0.785-0.381,1.193-1.188,1.189c-1.556-0.007-3.112,0.007-4.668-0.006
				c-0.869-0.007-1.194-0.349-1.202-1.244C38.339,22.557,38.347,21.324,38.347,20.091z"/>
			<path fill-rule="evenodd" clip-rule="evenodd" fill="#FEFEFE" d="M65.425,20.242c0,1.355,0.003,2.586,0,3.817
				c-0.002,0.804-0.424,1.162-1.212,1.157c-1.555-0.008-3.109-0.011-4.663,0.002c-0.523,0.004-0.946-0.151-1.107-0.67
				c-0.173-0.556,0.278-0.778,0.66-0.98C61.164,22.475,63.232,21.395,65.425,20.242z"/>
			<path fill-rule="evenodd" clip-rule="evenodd" fill="#FEFEFE" d="M3.328,39.14c0-2.3,0-2.274,2.272-2.277
				c0.745-0.001,0.986,0.277,0.955,0.987c-0.04,0.906-0.031,1.816-0.002,2.724c0.02,0.618-0.173,0.943-0.85,0.895
				c-0.524-0.037-1.056-0.038-1.581,0c-0.638,0.047-0.831-0.252-0.799-0.835C3.349,40.138,3.328,39.638,3.328,39.14z"/>
			<path fill-rule="evenodd" clip-rule="evenodd" fill="#FEFEFE" d="M11.954,41.461c-0.059,0-0.12,0.012-0.175-0.001
				c-0.447-0.112-1.169,0.309-1.302-0.31c-0.123-0.579,0.688-0.576,1.058-0.865c0.225-0.177,0.506-0.295,0.777-0.398
				c0.392-0.149,0.917-0.707,1.113-0.43c0.31,0.438,0.159,1.125,0.055,1.701c-0.051,0.283-0.314,0.305-0.561,0.304
				C12.598,41.459,12.276,41.46,11.954,41.461z"/>
			<path fill-rule="evenodd" clip-rule="evenodd" fill="#FEFEFE" d="M71.007,39.24c0.208,2.19,0.208,2.205-1.781,2.179
				c-0.435-0.006-1.118,0.265-1.242-0.299c-0.119-0.537,0.618-0.596,0.994-0.822C69.6,39.925,70.265,39.622,71.007,39.24z"/>
			<path fill-rule="evenodd" clip-rule="evenodd" fill="#FEFEFE" d="M24.943,41.482c-0.495-0.136-1.297,0.271-1.434-0.273
				c-0.159-0.635,0.738-0.657,1.163-0.961c0.234-0.168,0.505-0.292,0.771-0.408c0.36-0.157,0.898-0.654,1.045-0.402
				c0.292,0.502,0.296,1.248-0.006,1.766C26.156,41.766,25.457,41.332,24.943,41.482z"/>
			<path fill-rule="evenodd" clip-rule="evenodd" fill="#FEFEFE" d="M99.052,39.229c-0.191-2.429-0.191-2.441,2.031-2.417
				c0.429,0.004,1.077-0.252,1.224,0.32c0.149,0.584-0.555,0.654-0.929,0.872C100.654,38.425,99.895,38.79,99.052,39.229z"/>
			<path fill-rule="evenodd" clip-rule="evenodd" fill="#FEFEFE" d="M42.786,39.182c-0.046,2.729,0.429,2.296-2.38,2.371
				c-0.821,0.021-1.101-0.271-1.057-1.07c0.052-0.936,0.032-1.877,0.006-2.815c-0.019-0.646,0.255-0.927,0.892-0.867
				c0.029,0.003,0.059,0,0.088,0C43.233,36.837,42.738,36.433,42.786,39.182z"/>
		</g>
	</g>
</g>
</svg>
