<?xml version="1.0" encoding="utf-8"?>
<!-- Generator: Adobe Illustrator 16.0.0, SVG Export Plug-In . SVG Version: 6.00 Build 0)  -->
<!DOCTYPE svg PUBLIC "-//W3C//DTD SVG 1.1//EN" "http://www.w3.org/Graphics/SVG/1.1/DTD/svg11.dtd">
<svg version="1.1" id="Calque_1" xmlns="http://www.w3.org/2000/svg" xmlns:xlink="http://www.w3.org/1999/xlink" x="0px" y="0px"
	 width="124.333px" height="40.333px" viewBox="0 0 124.333 40.333" enable-background="new 0 0 124.333 40.333"
	 xml:space="preserve">
<g>
	<path fill="#328A6A" d="M17.444,20.866c4.261,5.675,8.712,11.537,9.026,11.957c-1.191,0.894-3.693,1.062-4.41,0.106
		c-0.148-0.196-6.556-8.472-6.556-8.472"/>
	<path fill="#328A6A" d="M9.927,27.219C13.319,21.396,21.54,7.277,21.871,6.708c1.289,0.75,2.104,3.346,1.504,4.378
		C23.177,11.43,13.29,28.215,10.609,32.773c-0.351,0.598-0.788,0.84-1.642,0.84c-1.694,0-2.267-0.959-2.267-2.265
		c0-0.448,0-23.833,0-24.643c1.49,0,3.291,1.282,3.291,2.476c0,0.311,0,11.616,0,18.813"/>
</g>
<g>
	<circle fill="#F7AC2E" cx="112.591" cy="11.732" r="4.622"/>
	<path fill="#328A6A" d="M112.591,11.732c0.943-2.478,1.651-4.982,7.263-4.982C118.517,10.216,118.739,11.732,112.591,11.732z"/>
</g>
<g>
	<path fill="#575756" d="M39.768,33.674v-2.497c-0.561,0.915-1.321,1.623-2.277,2.122c-0.957,0.499-2.06,0.749-3.308,0.749
		c-1.165,0-2.212-0.209-3.137-0.624c-0.926-0.417-1.711-0.993-2.355-1.732c-0.646-0.737-1.145-1.602-1.499-2.589
		c-0.354-0.988-0.529-2.056-0.529-3.201c0-1.185,0.166-2.308,0.498-3.368c0.334-1.062,0.828-1.987,1.483-2.778
		s1.472-1.415,2.449-1.872s2.101-0.687,3.37-0.687c1.082,0,2.096,0.219,3.043,0.654c0.947,0.438,1.689,1.093,2.231,1.968v-2.217
		h2.028v16.072H39.768z M39.768,22.783c0-0.562-0.15-1.087-0.451-1.575c-0.303-0.489-0.697-0.911-1.187-1.265
		c-0.488-0.354-1.03-0.635-1.622-0.843c-0.594-0.208-1.17-0.312-1.732-0.312c-1.124,0-2.075,0.208-2.855,0.624
		c-0.779,0.417-1.41,0.958-1.888,1.622c-0.479,0.666-0.821,1.426-1.03,2.278c-0.208,0.854-0.312,1.716-0.312,2.589
		c0,0.896,0.12,1.745,0.358,2.545c0.238,0.801,0.604,1.498,1.092,2.091s1.093,1.061,1.811,1.403
		c0.719,0.344,1.564,0.516,2.544,0.516c0.665,0,1.315-0.104,1.95-0.312c0.634-0.207,1.196-0.504,1.685-0.888
		c0.489-0.386,0.884-0.854,1.187-1.405c0.301-0.552,0.451-1.181,0.451-1.888V22.783z"/>
	<path fill="#575756" d="M44.824,33.674v-22.47h2.027v22.47H44.824z"/>
	<path fill="#575756" d="M52.469,12.08c0,0.416-0.162,0.753-0.483,1.013c-0.323,0.262-0.682,0.391-1.077,0.391
		c-0.395,0-0.748-0.129-1.061-0.391c-0.312-0.26-0.469-0.597-0.469-1.013s0.156-0.754,0.469-1.014
		c0.312-0.261,0.666-0.392,1.061-0.392c0.396,0,0.754,0.131,1.077,0.392C52.307,11.326,52.469,11.664,52.469,12.08z M49.91,33.674
		V17.602h2.028v16.072H49.91z"/>
	<path fill="#575756" d="M57.025,19.006v14.668h-2.029V19.006h-1.685v-1.404h1.685v-3.993l1.998-1.561v5.554h1.716v1.404H57.025z"/>
	<path fill="#575756" d="M73.268,30.522c-0.385,0.749-0.879,1.384-1.482,1.903c-0.604,0.521-1.311,0.92-2.122,1.202
		c-0.812,0.28-1.686,0.421-2.622,0.421c-1.164,0-2.215-0.214-3.151-0.64c-0.936-0.427-1.724-1.009-2.363-1.747
		c-0.64-0.739-1.129-1.603-1.468-2.591c-0.337-0.988-0.506-2.044-0.506-3.169c0-1.185,0.169-2.308,0.506-3.368
		c0.339-1.062,0.832-1.987,1.482-2.778S63,18.34,63.968,17.883s2.085-0.687,3.354-0.687c0.854,0,1.665,0.125,2.435,0.375
		c0.77,0.249,1.451,0.613,2.044,1.091c0.593,0.479,1.082,1.062,1.467,1.748s0.629,1.479,0.733,2.372l-12.358,4.493
		c0.083,0.729,0.266,1.405,0.547,2.029c0.28,0.624,0.645,1.17,1.092,1.638s0.988,0.838,1.623,1.108s1.357,0.405,2.168,0.405
		c0.688,0,1.322-0.108,1.904-0.326c0.582-0.22,1.092-0.52,1.529-0.906c0.437-0.385,0.79-0.854,1.061-1.405
		c0.271-0.55,0.438-1.169,0.5-1.855h1.935C73.896,28.921,73.652,29.774,73.268,30.522z M70.271,19.677
		c-0.801-0.593-1.774-0.889-2.918-0.889c-0.998,0-1.856,0.183-2.574,0.545C64.062,19.699,63.469,20.188,63,20.8
		c-0.467,0.615-0.816,1.322-1.045,2.123c-0.229,0.801-0.354,1.648-0.375,2.543v0.469l10.299-3.777
		C71.607,21.097,71.072,20.271,70.271,19.677z"/>
	<path fill="#575756" d="M83.58,18.914c-0.852,0-1.59,0.161-2.215,0.482c-0.624,0.324-1.139,0.75-1.545,1.279
		c-0.405,0.532-0.713,1.146-0.92,1.843c-0.209,0.696-0.312,1.43-0.312,2.199v8.957h-2.029V17.602h1.998v3.402
		c0.457-1.27,1.182-2.216,2.169-2.84c0.987-0.625,2.158-0.937,3.511-0.937c0.104,0,0.213,0,0.328,0c0.113,0,0.223,0.011,0.327,0.031
		L83.58,18.914z"/>
	<path fill="#575756" d="M93.286,18.914c-0.853,0-1.591,0.161-2.216,0.482c-0.623,0.324-1.139,0.75-1.544,1.279
		c-0.406,0.532-0.714,1.146-0.921,1.843c-0.209,0.696-0.312,1.43-0.312,2.199v8.957h-2.027V17.602h1.996v3.402
		c0.458-1.27,1.18-2.216,2.17-2.84c0.986-0.625,2.157-0.937,3.51-0.937c0.104,0,0.213,0,0.328,0c0.114,0,0.223,0.011,0.326,0.031
		L93.286,18.914z"/>
	<path fill="#575756" d="M109.154,30.522c-0.385,0.749-0.879,1.384-1.482,1.903c-0.604,0.521-1.311,0.92-2.122,1.202
		c-0.812,0.28-1.685,0.421-2.621,0.421c-1.165,0-2.216-0.214-3.151-0.64c-0.937-0.427-1.725-1.009-2.364-1.747
		c-0.64-0.739-1.128-1.603-1.466-2.591c-0.339-0.988-0.508-2.044-0.508-3.169c0-1.185,0.169-2.308,0.508-3.368
		c0.338-1.062,0.832-1.987,1.481-2.778s1.46-1.415,2.427-1.872s2.086-0.687,3.354-0.687c0.853,0,1.663,0.125,2.434,0.375
		c0.771,0.249,1.452,0.613,2.044,1.091c0.594,0.479,1.082,1.062,1.467,1.748s0.629,1.479,0.734,2.372l-12.359,4.493
		c0.084,0.729,0.267,1.405,0.547,2.029c0.281,0.624,0.645,1.17,1.092,1.638c0.448,0.468,0.988,0.838,1.623,1.108
		s1.357,0.405,2.169,0.405c0.687,0,1.321-0.108,1.903-0.326c0.583-0.22,1.093-0.52,1.529-0.906c0.437-0.385,0.791-0.854,1.062-1.405
		c0.27-0.55,0.437-1.169,0.499-1.855h1.936C109.783,28.921,109.539,29.774,109.154,30.522z M106.158,19.677
		c-0.801-0.593-1.773-0.889-2.918-0.889c-0.998,0-1.855,0.183-2.574,0.545c-0.717,0.365-1.311,0.854-1.777,1.467
		c-0.469,0.615-0.818,1.322-1.047,2.123s-0.354,1.648-0.374,2.543v0.469l10.298-3.777C107.496,21.097,106.96,20.271,106.158,19.677z
		"/>
</g>
</svg>
