<?xml version="1.0" encoding="utf-8"?>
<!-- Generator: Adobe Illustrator 16.0.0, SVG Export Plug-In . SVG Version: 6.00 Build 0)  -->
<!DOCTYPE svg PUBLIC "-//W3C//DTD SVG 1.1//EN" "http://www.w3.org/Graphics/SVG/1.1/DTD/svg11.dtd">
<svg version="1.1" id="Calque_1" xmlns="http://www.w3.org/2000/svg" xmlns:xlink="http://www.w3.org/1999/xlink" x="0px" y="0px"
	 width="646px" height="72px" viewBox="0 0 646 72" enable-background="new 0 0 646 72" xml:space="preserve">
<g>
	<path fill="#243C5E" d="M11.405,21.026c-0.918,0-1.762-0.162-2.533-0.485s-1.431-0.768-1.98-1.334
		c-0.55-0.566-0.98-1.235-1.292-2.006s-0.468-1.604-0.468-2.499s0.156-1.728,0.468-2.499s0.742-1.439,1.292-2.006
		c0.549-0.566,1.209-1.012,1.98-1.334c0.771-0.323,1.615-0.484,2.533-0.484c0.918,0,1.762,0.161,2.533,0.484
		c0.771,0.323,1.431,0.768,1.98,1.334c0.55,0.567,0.98,1.235,1.292,2.006s0.468,1.604,0.468,2.499c0,0.896-0.156,1.729-0.468,2.499
		c-0.312,0.771-0.742,1.439-1.292,2.006s-1.21,1.012-1.98,1.334C13.167,20.864,12.324,21.026,11.405,21.026z M11.405,19.496
		c0.691,0,1.315-0.127,1.87-0.382c0.555-0.255,1.031-0.598,1.428-1.028c0.396-0.431,0.703-0.938,0.918-1.522
		c0.215-0.583,0.323-1.204,0.323-1.861c0-0.657-0.108-1.278-0.323-1.861s-0.521-1.091-0.918-1.521
		c-0.397-0.431-0.873-0.773-1.428-1.029c-0.555-0.255-1.179-0.382-1.87-0.382c-0.691,0-1.314,0.127-1.87,0.382
		c-0.556,0.255-1.032,0.598-1.428,1.029C7.71,11.75,7.405,12.257,7.189,12.84s-0.323,1.204-0.323,1.861
		c0,0.658,0.107,1.278,0.323,1.861c0.215,0.584,0.521,1.091,0.918,1.522c0.396,0.431,0.873,0.773,1.428,1.028
		C10.091,19.368,10.714,19.496,11.405,19.496z"/>
	<path fill="#243C5E" d="M19.633,12.662h1.53v1.241h0.034c0.102-0.215,0.238-0.411,0.408-0.586c0.17-0.175,0.36-0.326,0.569-0.451
		c0.21-0.125,0.439-0.224,0.689-0.297c0.249-0.074,0.499-0.111,0.748-0.111c0.25,0,0.476,0.034,0.68,0.102l-0.068,1.649
		c-0.125-0.034-0.25-0.062-0.374-0.085c-0.125-0.022-0.25-0.034-0.374-0.034c-0.748,0-1.32,0.21-1.717,0.629
		c-0.396,0.419-0.595,1.071-0.595,1.955v4.046h-1.53V12.662z"/>
	<path fill="#243C5E" d="M33.699,20.72h-1.53v-1.156h-0.034c-0.295,0.431-0.7,0.765-1.215,1.003
		c-0.516,0.238-1.046,0.357-1.59,0.357c-0.623,0-1.187-0.108-1.691-0.323c-0.504-0.215-0.935-0.516-1.292-0.901
		c-0.357-0.385-0.632-0.833-0.824-1.343c-0.193-0.51-0.289-1.065-0.289-1.666s0.096-1.159,0.289-1.675
		c0.192-0.516,0.467-0.963,0.824-1.343s0.788-0.677,1.292-0.893c0.504-0.216,1.068-0.323,1.691-0.323
		c0.578,0,1.122,0.122,1.632,0.366c0.51,0.244,0.901,0.575,1.173,0.995h0.034v-5.95h1.53V20.72z M29.517,19.496
		c0.408,0,0.776-0.07,1.105-0.212c0.329-0.142,0.606-0.334,0.833-0.578s0.402-0.538,0.527-0.884c0.125-0.346,0.187-0.723,0.187-1.13
		c0-0.408-0.062-0.785-0.187-1.131c-0.125-0.345-0.301-0.64-0.527-0.884c-0.226-0.244-0.504-0.436-0.833-0.578
		s-0.697-0.212-1.105-0.212c-0.408,0-0.776,0.071-1.105,0.212c-0.329,0.142-0.606,0.334-0.833,0.578
		c-0.227,0.244-0.402,0.539-0.527,0.884c-0.125,0.346-0.187,0.723-0.187,1.131c0,0.408,0.062,0.785,0.187,1.13
		c0.125,0.346,0.3,0.64,0.527,0.884s0.504,0.437,0.833,0.578C28.74,19.425,29.109,19.496,29.517,19.496z"/>
	<path fill="#243C5E" d="M35.647,9.771c0-0.306,0.11-0.569,0.332-0.79C36.2,8.76,36.463,8.65,36.769,8.65s0.569,0.11,0.791,0.332
		c0.221,0.221,0.332,0.484,0.332,0.79s-0.111,0.57-0.332,0.791s-0.484,0.332-0.791,0.332s-0.569-0.11-0.791-0.332
		C35.757,10.341,35.647,10.078,35.647,9.771z M36.004,12.662h1.53v8.058h-1.53V12.662z"/>
	<path fill="#243C5E" d="M39.828,12.662h1.53v1.241h0.034c0.192-0.431,0.527-0.779,1.003-1.045s1.025-0.4,1.649-0.4
		c0.385,0,0.756,0.06,1.113,0.179c0.357,0.119,0.669,0.303,0.935,0.553c0.266,0.249,0.479,0.569,0.638,0.96s0.238,0.853,0.238,1.385
		v5.185h-1.53v-4.76c0-0.374-0.051-0.694-0.153-0.961c-0.102-0.266-0.238-0.481-0.408-0.646c-0.17-0.164-0.366-0.283-0.586-0.357
		c-0.221-0.073-0.451-0.11-0.688-0.11c-0.317,0-0.612,0.051-0.884,0.153c-0.272,0.102-0.51,0.264-0.714,0.485
		s-0.363,0.501-0.476,0.841c-0.113,0.34-0.17,0.742-0.17,1.207v4.147h-1.53L39.828,12.662L39.828,12.662z"/>
	<path fill="#243C5E" d="M49.124,13.648c0.431-0.397,0.929-0.694,1.496-0.893c0.566-0.198,1.133-0.298,1.7-0.298
		c0.589,0,1.096,0.074,1.521,0.221c0.425,0.147,0.773,0.346,1.045,0.595c0.272,0.249,0.473,0.535,0.604,0.858
		c0.13,0.323,0.195,0.66,0.195,1.011v4.114c0,0.283,0.006,0.544,0.017,0.782c0.011,0.238,0.028,0.465,0.051,0.68h-1.36
		c-0.034-0.408-0.051-0.816-0.051-1.224h-0.034c-0.34,0.521-0.742,0.89-1.207,1.105c-0.465,0.215-1.003,0.323-1.615,0.323
		c-0.374,0-0.731-0.051-1.071-0.153s-0.637-0.255-0.893-0.459c-0.255-0.204-0.456-0.456-0.604-0.756
		c-0.148-0.3-0.221-0.648-0.221-1.045c0-0.521,0.116-0.958,0.348-1.309c0.232-0.351,0.55-0.638,0.952-0.858
		c0.402-0.221,0.873-0.379,1.411-0.476c0.538-0.096,1.113-0.145,1.726-0.145h1.122v-0.34c0-0.204-0.04-0.408-0.119-0.612
		c-0.08-0.204-0.199-0.388-0.357-0.552c-0.159-0.164-0.357-0.294-0.595-0.391c-0.238-0.096-0.521-0.145-0.85-0.145
		c-0.294,0-0.552,0.028-0.773,0.085s-0.422,0.127-0.604,0.212c-0.181,0.085-0.346,0.185-0.493,0.298
		c-0.147,0.113-0.289,0.221-0.425,0.323L49.124,13.648z M53.442,16.844c-0.363,0-0.734,0.021-1.113,0.06
		c-0.38,0.04-0.726,0.116-1.037,0.229c-0.311,0.113-0.567,0.272-0.765,0.476c-0.198,0.204-0.297,0.465-0.297,0.782
		c0,0.465,0.156,0.799,0.468,1.003c0.312,0.204,0.733,0.306,1.266,0.306c0.419,0,0.776-0.071,1.071-0.212
		c0.294-0.142,0.533-0.326,0.714-0.553s0.312-0.479,0.391-0.756c0.079-0.277,0.119-0.553,0.119-0.825v-0.51H53.442z"/>
	<path fill="#243C5E" d="M62.256,13.988h-2.193v3.655c0,0.227,0.006,0.451,0.017,0.672c0.011,0.221,0.054,0.419,0.127,0.595
		c0.074,0.176,0.187,0.317,0.34,0.425c0.153,0.108,0.376,0.162,0.671,0.162c0.181,0,0.368-0.017,0.561-0.051
		c0.192-0.034,0.368-0.096,0.527-0.187v1.394c-0.181,0.102-0.417,0.172-0.706,0.212s-0.513,0.06-0.671,0.06
		c-0.589,0-1.045-0.083-1.369-0.247c-0.323-0.164-0.561-0.376-0.714-0.638c-0.153-0.26-0.244-0.552-0.272-0.875
		c-0.028-0.323-0.042-0.648-0.042-0.978v-4.199h-1.768v-1.326h1.768v-2.261h1.53v2.261h2.193L62.256,13.988L62.256,13.988z"/>
	<path fill="#243C5E" d="M64.99,17.252c0,0.351,0.077,0.671,0.229,0.96c0.152,0.289,0.354,0.535,0.604,0.739
		c0.249,0.204,0.538,0.363,0.867,0.476c0.329,0.113,0.668,0.17,1.02,0.17c0.476,0,0.889-0.11,1.241-0.332
		c0.351-0.221,0.674-0.513,0.969-0.875l1.156,0.884c-0.85,1.099-2.04,1.649-3.57,1.649c-0.635,0-1.21-0.108-1.726-0.323
		c-0.516-0.215-0.952-0.513-1.309-0.893c-0.357-0.379-0.632-0.827-0.824-1.343c-0.193-0.516-0.289-1.074-0.289-1.674
		s0.104-1.159,0.314-1.675c0.209-0.516,0.499-0.963,0.867-1.343c0.368-0.38,0.808-0.677,1.318-0.893
		c0.51-0.215,1.065-0.323,1.666-0.323c0.714,0,1.317,0.125,1.81,0.374c0.493,0.25,0.898,0.576,1.216,0.978
		c0.317,0.402,0.546,0.856,0.688,1.36c0.142,0.504,0.212,1.017,0.212,1.538v0.544H64.99V17.252z M69.818,16.028
		c-0.012-0.34-0.065-0.652-0.162-0.935c-0.097-0.283-0.241-0.53-0.434-0.74c-0.193-0.209-0.434-0.374-0.723-0.493
		c-0.289-0.119-0.626-0.179-1.011-0.179c-0.374,0-0.717,0.071-1.028,0.212c-0.312,0.142-0.576,0.326-0.791,0.553
		c-0.216,0.227-0.383,0.479-0.501,0.756c-0.119,0.278-0.179,0.553-0.179,0.825L69.818,16.028L69.818,16.028z"/>
	<path fill="#243C5E" d="M80.307,20.72h-1.53v-1.241h-0.034c-0.193,0.431-0.527,0.78-1.003,1.046
		c-0.476,0.266-1.026,0.399-1.649,0.399c-0.397,0-0.771-0.06-1.122-0.179c-0.352-0.119-0.66-0.303-0.926-0.552
		c-0.267-0.25-0.479-0.57-0.638-0.96c-0.159-0.391-0.238-0.853-0.238-1.386v-5.185h1.53v4.76c0,0.374,0.051,0.694,0.153,0.96
		c0.102,0.266,0.238,0.482,0.408,0.646c0.17,0.165,0.365,0.283,0.586,0.357c0.221,0.074,0.451,0.11,0.688,0.11
		c0.317,0,0.612-0.051,0.884-0.153c0.272-0.102,0.51-0.264,0.714-0.484c0.204-0.221,0.362-0.501,0.476-0.842
		c0.113-0.34,0.17-0.742,0.17-1.207v-4.148h1.53L80.307,20.72L80.307,20.72z"/>
	<path fill="#243C5E" d="M82.541,12.662h1.53v1.241h0.034c0.102-0.215,0.238-0.411,0.408-0.586c0.17-0.175,0.36-0.326,0.569-0.451
		c0.21-0.125,0.439-0.224,0.689-0.297c0.249-0.074,0.499-0.111,0.748-0.111c0.25,0,0.476,0.034,0.68,0.102l-0.068,1.649
		c-0.125-0.034-0.25-0.062-0.374-0.085c-0.125-0.022-0.25-0.034-0.374-0.034c-0.748,0-1.32,0.21-1.717,0.629
		c-0.396,0.419-0.595,1.071-0.595,1.955v4.046h-1.53V12.662z"/>
	<path fill="#243C5E" d="M93.045,14.685c-0.181-0.227-0.405-0.417-0.671-0.569c-0.267-0.153-0.592-0.229-0.978-0.229
		c-0.363,0-0.677,0.077-0.943,0.229c-0.267,0.153-0.399,0.377-0.399,0.671c0,0.238,0.076,0.431,0.229,0.578
		c0.153,0.147,0.334,0.267,0.544,0.357c0.209,0.091,0.433,0.159,0.671,0.204c0.238,0.045,0.442,0.085,0.612,0.119
		c0.329,0.079,0.638,0.176,0.927,0.289c0.289,0.114,0.538,0.261,0.748,0.442c0.209,0.181,0.374,0.402,0.493,0.663
		c0.119,0.261,0.179,0.578,0.179,0.952c0,0.454-0.097,0.842-0.289,1.165c-0.193,0.323-0.442,0.586-0.748,0.791
		c-0.306,0.205-0.654,0.352-1.045,0.442c-0.391,0.091-0.785,0.136-1.182,0.136c-0.669,0-1.255-0.102-1.759-0.306
		s-0.955-0.578-1.352-1.122l1.156-0.952c0.25,0.249,0.527,0.47,0.833,0.663c0.306,0.193,0.68,0.289,1.122,0.289
		c0.193,0,0.388-0.02,0.586-0.06c0.198-0.04,0.374-0.102,0.527-0.187c0.153-0.085,0.277-0.192,0.374-0.323
		c0.096-0.13,0.145-0.281,0.145-0.451c0-0.227-0.071-0.414-0.213-0.561c-0.142-0.147-0.312-0.263-0.51-0.348
		c-0.199-0.085-0.408-0.153-0.629-0.204c-0.221-0.051-0.417-0.094-0.587-0.127c-0.329-0.079-0.64-0.17-0.935-0.272
		c-0.295-0.102-0.556-0.238-0.782-0.408c-0.227-0.17-0.408-0.385-0.544-0.646c-0.136-0.261-0.204-0.583-0.204-0.969
		c0-0.419,0.088-0.785,0.264-1.097c0.175-0.312,0.408-0.569,0.697-0.773c0.289-0.204,0.618-0.357,0.986-0.459
		c0.368-0.102,0.739-0.153,1.113-0.153c0.544,0,1.065,0.102,1.564,0.306c0.499,0.204,0.895,0.544,1.19,1.02L93.045,14.685z"/>
	<path fill="#243C5E" d="M100.797,12.662h1.53v1.156h0.034c0.294-0.431,0.699-0.765,1.215-1.003
		c0.516-0.238,1.045-0.357,1.589-0.357c0.623,0,1.187,0.108,1.691,0.323c0.504,0.215,0.935,0.516,1.292,0.901
		c0.357,0.386,0.632,0.836,0.825,1.352c0.192,0.516,0.289,1.068,0.289,1.658c0,0.601-0.097,1.159-0.289,1.674
		c-0.193,0.516-0.467,0.963-0.825,1.343c-0.357,0.38-0.788,0.678-1.292,0.893s-1.068,0.323-1.691,0.323
		c-0.578,0-1.122-0.122-1.632-0.366c-0.51-0.244-0.901-0.575-1.173-0.994h-0.034v5.95h-1.53L100.797,12.662L100.797,12.662z
		 M104.979,13.886c-0.408,0-0.776,0.071-1.105,0.212c-0.329,0.142-0.606,0.334-0.833,0.578c-0.227,0.244-0.402,0.539-0.527,0.884
		c-0.125,0.346-0.187,0.723-0.187,1.131c0,0.408,0.062,0.785,0.187,1.13c0.125,0.346,0.3,0.64,0.527,0.884s0.504,0.437,0.833,0.578
		c0.329,0.142,0.697,0.212,1.105,0.212s0.776-0.07,1.105-0.212c0.329-0.142,0.606-0.334,0.833-0.578s0.402-0.538,0.527-0.884
		c0.125-0.346,0.187-0.723,0.187-1.13c0-0.408-0.062-0.785-0.187-1.131c-0.125-0.345-0.301-0.64-0.527-0.884
		c-0.226-0.244-0.504-0.436-0.833-0.578C105.756,13.957,105.388,13.886,104.979,13.886z"/>
	<path fill="#243C5E" d="M110.656,16.691c0-0.589,0.11-1.139,0.332-1.649c0.221-0.51,0.524-0.958,0.909-1.343
		c0.385-0.385,0.839-0.688,1.36-0.91c0.521-0.221,1.082-0.332,1.683-0.332s1.162,0.111,1.683,0.332
		c0.521,0.221,0.975,0.524,1.36,0.91c0.385,0.386,0.688,0.833,0.91,1.343c0.221,0.51,0.332,1.06,0.332,1.649
		c0,0.589-0.11,1.142-0.332,1.657c-0.221,0.516-0.524,0.963-0.91,1.343c-0.386,0.38-0.839,0.68-1.36,0.901
		c-0.521,0.221-1.083,0.332-1.683,0.332s-1.162-0.111-1.683-0.332c-0.521-0.221-0.975-0.521-1.36-0.901
		c-0.385-0.38-0.688-0.827-0.909-1.343C110.766,17.833,110.656,17.28,110.656,16.691z M112.288,16.691
		c0,0.408,0.062,0.785,0.187,1.13c0.125,0.346,0.3,0.64,0.527,0.884s0.504,0.437,0.833,0.578c0.329,0.142,0.697,0.212,1.105,0.212
		c0.408,0,0.776-0.07,1.105-0.212c0.329-0.142,0.606-0.334,0.833-0.578s0.402-0.538,0.527-0.884c0.125-0.346,0.187-0.723,0.187-1.13
		c0-0.408-0.062-0.785-0.187-1.131c-0.125-0.345-0.301-0.64-0.527-0.884c-0.226-0.244-0.504-0.436-0.833-0.578
		s-0.697-0.212-1.105-0.212c-0.408,0-0.776,0.071-1.105,0.212c-0.329,0.142-0.606,0.334-0.833,0.578
		c-0.227,0.244-0.402,0.539-0.527,0.884C112.35,15.906,112.288,16.283,112.288,16.691z"/>
	<path fill="#243C5E" d="M121.035,12.662h1.53v1.241h0.034c0.102-0.215,0.238-0.411,0.408-0.586c0.17-0.175,0.36-0.326,0.569-0.451
		c0.21-0.125,0.439-0.224,0.689-0.297c0.249-0.074,0.499-0.111,0.748-0.111c0.25,0,0.476,0.034,0.68,0.102l-0.068,1.649
		c-0.125-0.034-0.25-0.062-0.374-0.085c-0.125-0.022-0.25-0.034-0.374-0.034c-0.748,0-1.32,0.21-1.717,0.629
		c-0.396,0.419-0.595,1.071-0.595,1.955v4.046h-1.53V12.662z"/>
	<path fill="#243C5E" d="M132.036,13.988h-2.193v3.655c0,0.227,0.006,0.451,0.017,0.672c0.011,0.221,0.054,0.419,0.127,0.595
		c0.074,0.176,0.187,0.317,0.34,0.425c0.153,0.108,0.376,0.162,0.671,0.162c0.181,0,0.368-0.017,0.561-0.051
		c0.192-0.034,0.368-0.096,0.527-0.187v1.394c-0.181,0.102-0.417,0.172-0.706,0.212s-0.513,0.06-0.671,0.06
		c-0.589,0-1.045-0.083-1.369-0.247c-0.323-0.164-0.561-0.376-0.714-0.638c-0.153-0.26-0.244-0.552-0.272-0.875
		c-0.028-0.323-0.042-0.648-0.042-0.978v-4.199h-1.768v-1.326h1.768v-2.261h1.53v2.261h2.193L132.036,13.988L132.036,13.988z"/>
	<path fill="#243C5E" d="M133.887,13.648c0.431-0.397,0.929-0.694,1.496-0.893c0.566-0.198,1.133-0.298,1.7-0.298
		c0.589,0,1.096,0.074,1.521,0.221c0.425,0.147,0.773,0.346,1.045,0.595s0.473,0.535,0.604,0.858c0.13,0.323,0.195,0.66,0.195,1.011
		v4.114c0,0.283,0.006,0.544,0.017,0.782c0.011,0.238,0.028,0.465,0.051,0.68h-1.36c-0.034-0.408-0.051-0.816-0.051-1.224h-0.034
		c-0.34,0.521-0.742,0.89-1.207,1.105c-0.465,0.215-1.003,0.323-1.615,0.323c-0.374,0-0.731-0.051-1.071-0.153
		c-0.34-0.102-0.637-0.255-0.893-0.459c-0.255-0.204-0.456-0.456-0.604-0.756c-0.148-0.3-0.221-0.648-0.221-1.045
		c0-0.521,0.116-0.958,0.348-1.309c0.232-0.351,0.55-0.638,0.952-0.858c0.402-0.221,0.873-0.379,1.411-0.476
		c0.538-0.096,1.113-0.145,1.726-0.145h1.122v-0.34c0-0.204-0.04-0.408-0.119-0.612c-0.08-0.204-0.199-0.388-0.357-0.552
		c-0.159-0.164-0.357-0.294-0.595-0.391c-0.238-0.096-0.521-0.145-0.85-0.145c-0.294,0-0.552,0.028-0.773,0.085
		c-0.221,0.057-0.422,0.127-0.604,0.212c-0.181,0.085-0.346,0.185-0.493,0.298c-0.147,0.113-0.289,0.221-0.425,0.323L133.887,13.648
		z M138.205,16.844c-0.363,0-0.734,0.021-1.113,0.06c-0.38,0.04-0.726,0.116-1.037,0.229c-0.311,0.113-0.567,0.272-0.765,0.476
		c-0.198,0.204-0.297,0.465-0.297,0.782c0,0.465,0.156,0.799,0.468,1.003s0.733,0.306,1.266,0.306c0.419,0,0.776-0.071,1.071-0.212
		c0.294-0.142,0.533-0.326,0.714-0.553c0.181-0.227,0.312-0.479,0.391-0.756c0.079-0.277,0.119-0.553,0.119-0.825v-0.51H138.205z"/>
	<path fill="#243C5E" d="M142.623,7.868h1.53v5.95h0.034c0.272-0.419,0.663-0.751,1.173-0.995c0.51-0.244,1.054-0.366,1.632-0.366
		c0.623,0,1.187,0.108,1.691,0.323c0.504,0.215,0.935,0.513,1.292,0.893s0.632,0.827,0.825,1.343
		c0.192,0.516,0.289,1.074,0.289,1.675s-0.097,1.156-0.289,1.666c-0.193,0.51-0.467,0.958-0.825,1.343
		c-0.357,0.385-0.788,0.686-1.292,0.901c-0.504,0.215-1.068,0.323-1.691,0.323c-0.544,0-1.074-0.119-1.589-0.357
		c-0.516-0.238-0.921-0.572-1.215-1.003h-0.034v1.156h-1.53L142.623,7.868L142.623,7.868z M146.805,19.496
		c0.408,0,0.776-0.07,1.105-0.212c0.329-0.142,0.606-0.334,0.833-0.578s0.402-0.538,0.527-0.884c0.125-0.346,0.187-0.723,0.187-1.13
		c0-0.408-0.062-0.785-0.187-1.131c-0.125-0.345-0.301-0.64-0.527-0.884c-0.226-0.244-0.504-0.436-0.833-0.578
		c-0.329-0.142-0.697-0.212-1.105-0.212c-0.408,0-0.776,0.071-1.105,0.212c-0.329,0.142-0.606,0.334-0.833,0.578
		c-0.227,0.244-0.402,0.539-0.527,0.884c-0.125,0.346-0.187,0.723-0.187,1.131c0,0.408,0.062,0.785,0.187,1.13
		c0.125,0.346,0.3,0.64,0.527,0.884s0.504,0.437,0.833,0.578C146.029,19.425,146.397,19.496,146.805,19.496z"/>
	<path fill="#243C5E" d="M152.986,7.868h1.53V20.72h-1.53V7.868z"/>
	<path fill="#243C5E" d="M157.994,17.252c0,0.351,0.077,0.671,0.229,0.96c0.152,0.289,0.354,0.535,0.604,0.739
		c0.249,0.204,0.538,0.363,0.867,0.476c0.329,0.113,0.668,0.17,1.02,0.17c0.476,0,0.889-0.11,1.241-0.332
		c0.351-0.221,0.674-0.513,0.969-0.875l1.156,0.884c-0.85,1.099-2.04,1.649-3.57,1.649c-0.635,0-1.21-0.108-1.726-0.323
		c-0.516-0.215-0.952-0.513-1.309-0.893c-0.357-0.379-0.632-0.827-0.824-1.343c-0.193-0.516-0.289-1.074-0.289-1.674
		s0.104-1.159,0.314-1.675c0.209-0.516,0.499-0.963,0.867-1.343s0.808-0.677,1.318-0.893c0.51-0.215,1.065-0.323,1.666-0.323
		c0.714,0,1.317,0.125,1.81,0.374c0.493,0.25,0.898,0.576,1.216,0.978c0.317,0.402,0.546,0.856,0.688,1.36
		c0.142,0.504,0.212,1.017,0.212,1.538v0.544h-6.459V17.252z M162.822,16.028c-0.012-0.34-0.065-0.652-0.162-0.935
		c-0.097-0.283-0.241-0.53-0.434-0.74c-0.193-0.209-0.434-0.374-0.723-0.493c-0.289-0.119-0.626-0.179-1.011-0.179
		c-0.374,0-0.717,0.071-1.028,0.212c-0.312,0.142-0.576,0.326-0.791,0.553c-0.216,0.227-0.383,0.479-0.501,0.756
		c-0.119,0.278-0.179,0.553-0.179,0.825L162.822,16.028L162.822,16.028z"/>
	<path fill="#243C5E" d="M170.455,14.685c-0.182-0.227-0.406-0.417-0.672-0.569c-0.266-0.152-0.592-0.229-0.977-0.229
		c-0.363,0-0.677,0.077-0.943,0.229c-0.267,0.153-0.399,0.377-0.399,0.671c0,0.238,0.076,0.431,0.229,0.578
		c0.153,0.147,0.334,0.267,0.544,0.357c0.209,0.091,0.433,0.159,0.671,0.204c0.238,0.045,0.442,0.085,0.611,0.119
		c0.329,0.079,0.639,0.176,0.928,0.289c0.289,0.114,0.537,0.261,0.748,0.442c0.209,0.181,0.373,0.402,0.492,0.663
		s0.178,0.578,0.178,0.952c0,0.454-0.096,0.842-0.289,1.165c-0.191,0.323-0.441,0.586-0.746,0.791
		c-0.307,0.204-0.656,0.352-1.047,0.442c-0.391,0.091-0.785,0.136-1.181,0.136c-0.669,0-1.255-0.102-1.759-0.306
		c-0.504-0.204-0.955-0.578-1.352-1.122l1.156-0.952c0.25,0.249,0.527,0.47,0.833,0.663s0.68,0.289,1.122,0.289
		c0.193,0,0.388-0.02,0.586-0.06s0.374-0.102,0.527-0.187c0.153-0.085,0.277-0.192,0.374-0.323c0.096-0.13,0.145-0.281,0.145-0.451
		c0-0.227-0.07-0.414-0.213-0.561c-0.142-0.147-0.312-0.263-0.51-0.348c-0.199-0.085-0.408-0.153-0.629-0.204
		c-0.221-0.051-0.417-0.094-0.587-0.127c-0.329-0.079-0.64-0.17-0.935-0.272s-0.556-0.238-0.782-0.408
		c-0.227-0.17-0.408-0.385-0.544-0.646c-0.136-0.261-0.204-0.583-0.204-0.969c0-0.419,0.088-0.785,0.264-1.097
		c0.175-0.312,0.408-0.569,0.697-0.773c0.289-0.204,0.618-0.357,0.986-0.459c0.368-0.102,0.739-0.153,1.113-0.153
		c0.544,0,1.065,0.102,1.564,0.306c0.498,0.204,0.895,0.544,1.189,1.02L170.455,14.685z"/>
	<path fill="#243C5E" d="M179.362,17.252c0,0.351,0.077,0.671,0.229,0.96c0.153,0.289,0.354,0.535,0.604,0.739
		s0.539,0.363,0.867,0.476c0.329,0.113,0.669,0.17,1.021,0.17c0.476,0,0.89-0.11,1.241-0.332c0.351-0.221,0.674-0.513,0.969-0.875
		l1.156,0.884c-0.851,1.099-2.04,1.649-3.57,1.649c-0.635,0-1.21-0.108-1.726-0.323c-0.516-0.215-0.952-0.513-1.309-0.893
		c-0.357-0.379-0.633-0.827-0.825-1.343c-0.192-0.516-0.289-1.074-0.289-1.674s0.104-1.159,0.314-1.675s0.499-0.963,0.867-1.343
		c0.368-0.38,0.808-0.677,1.317-0.893c0.511-0.215,1.065-0.323,1.666-0.323c0.714,0,1.317,0.125,1.811,0.374
		c0.493,0.25,0.898,0.576,1.216,0.978c0.317,0.402,0.547,0.856,0.688,1.36s0.213,1.017,0.213,1.538v0.544h-6.46V17.252z
		 M184.19,16.028c-0.011-0.34-0.065-0.652-0.161-0.935c-0.097-0.283-0.241-0.53-0.434-0.74c-0.192-0.209-0.434-0.374-0.723-0.493
		c-0.289-0.119-0.626-0.179-1.012-0.179c-0.374,0-0.717,0.071-1.028,0.212c-0.312,0.142-0.575,0.326-0.79,0.553
		c-0.216,0.227-0.383,0.479-0.502,0.756c-0.119,0.278-0.179,0.553-0.179,0.825L184.19,16.028L184.19,16.028z"/>
	<path fill="#243C5E" d="M191.977,13.988h-2.192v3.655c0,0.227,0.005,0.451,0.017,0.672c0.012,0.221,0.054,0.419,0.128,0.595
		c0.073,0.176,0.187,0.317,0.34,0.425s0.377,0.162,0.671,0.162c0.182,0,0.368-0.017,0.562-0.051
		c0.192-0.034,0.368-0.096,0.527-0.187v1.394c-0.182,0.102-0.417,0.172-0.706,0.212c-0.289,0.04-0.513,0.06-0.671,0.06
		c-0.59,0-1.046-0.083-1.369-0.247c-0.323-0.164-0.561-0.376-0.714-0.638c-0.153-0.26-0.244-0.552-0.271-0.875
		c-0.029-0.323-0.043-0.648-0.043-0.978v-4.199h-1.768v-1.326h1.768v-2.261h1.53v2.261h2.192L191.977,13.988L191.977,13.988z"/>
	<path fill="#243C5E" d="M197.467,12.662h1.769l2.414,6.171l2.312-6.171h1.633l-3.162,8.058h-1.684L197.467,12.662z"/>
	<path fill="#243C5E" d="M206.593,9.771c0-0.306,0.11-0.569,0.331-0.79c0.222-0.221,0.485-0.332,0.791-0.332
		c0.306,0,0.569,0.11,0.79,0.332c0.222,0.221,0.332,0.484,0.332,0.79s-0.11,0.57-0.332,0.791c-0.221,0.221-0.484,0.332-0.79,0.332
		c-0.306,0-0.569-0.11-0.791-0.332C206.703,10.341,206.593,10.078,206.593,9.771z M206.95,12.662h1.529v8.058h-1.529V12.662z"/>
	<path fill="#243C5E" d="M218.802,20.72h-1.53v-1.156h-0.034c-0.295,0.431-0.7,0.765-1.216,1.003
		c-0.516,0.238-1.045,0.357-1.589,0.357c-0.624,0-1.188-0.108-1.691-0.323c-0.505-0.215-0.936-0.516-1.292-0.901
		c-0.357-0.385-0.633-0.833-0.825-1.343c-0.192-0.51-0.289-1.065-0.289-1.666s0.097-1.159,0.289-1.675s0.468-0.963,0.825-1.343
		c0.356-0.38,0.787-0.677,1.292-0.893c0.504-0.215,1.067-0.323,1.691-0.323c0.578,0,1.122,0.122,1.632,0.366
		c0.51,0.244,0.9,0.575,1.173,0.995h0.034v-5.95h1.53V20.72z M214.619,19.496c0.408,0,0.776-0.07,1.105-0.212
		c0.328-0.142,0.605-0.334,0.833-0.578c0.227-0.244,0.401-0.538,0.526-0.884c0.125-0.346,0.188-0.723,0.188-1.13
		c0-0.408-0.062-0.785-0.188-1.131c-0.125-0.345-0.3-0.64-0.526-0.884c-0.228-0.244-0.505-0.436-0.833-0.578
		c-0.329-0.142-0.697-0.212-1.105-0.212c-0.408,0-0.776,0.071-1.104,0.212c-0.329,0.142-0.606,0.334-0.833,0.578
		c-0.228,0.244-0.402,0.539-0.527,0.884c-0.125,0.346-0.187,0.723-0.187,1.131c0,0.408,0.062,0.785,0.187,1.13
		c0.125,0.345,0.3,0.64,0.527,0.884s0.504,0.437,0.833,0.578C213.843,19.425,214.211,19.496,214.619,19.496z"/>
	<path fill="#243C5E" d="M222.21,17.252c0,0.351,0.077,0.671,0.229,0.96c0.153,0.289,0.354,0.535,0.604,0.739
		s0.539,0.363,0.867,0.476c0.329,0.113,0.669,0.17,1.021,0.17c0.476,0,0.89-0.11,1.241-0.332c0.351-0.221,0.674-0.513,0.969-0.875
		l1.156,0.884c-0.851,1.099-2.04,1.649-3.57,1.649c-0.635,0-1.21-0.108-1.726-0.323c-0.516-0.215-0.952-0.513-1.309-0.893
		c-0.357-0.379-0.633-0.827-0.825-1.343c-0.192-0.516-0.289-1.074-0.289-1.674s0.104-1.159,0.314-1.675s0.499-0.963,0.867-1.343
		c0.368-0.38,0.808-0.677,1.317-0.893c0.511-0.215,1.065-0.323,1.666-0.323c0.714,0,1.317,0.125,1.811,0.374
		c0.493,0.25,0.898,0.576,1.216,0.978c0.317,0.402,0.547,0.856,0.688,1.36s0.213,1.017,0.213,1.538v0.544h-6.46V17.252z
		 M227.038,16.028c-0.011-0.34-0.065-0.652-0.161-0.935c-0.097-0.283-0.241-0.53-0.434-0.74c-0.192-0.209-0.434-0.374-0.723-0.493
		c-0.289-0.119-0.626-0.179-1.012-0.179c-0.374,0-0.717,0.071-1.028,0.212c-0.312,0.142-0.575,0.326-0.79,0.553
		c-0.216,0.227-0.383,0.479-0.502,0.756c-0.119,0.278-0.179,0.553-0.179,0.825L227.038,16.028L227.038,16.028z M225.271,8.684h2.176
		l-2.533,2.448h-1.411L225.271,8.684z"/>
	<path fill="#243C5E" d="M230.021,16.691c0-0.589,0.111-1.139,0.332-1.649s0.523-0.958,0.909-1.343
		c0.386-0.385,0.839-0.688,1.36-0.91c0.521-0.221,1.082-0.332,1.683-0.332c0.601,0,1.162,0.111,1.684,0.332
		c0.521,0.221,0.975,0.524,1.359,0.91c0.386,0.385,0.688,0.833,0.91,1.343c0.221,0.51,0.331,1.06,0.331,1.649
		c0,0.589-0.11,1.142-0.331,1.657c-0.222,0.516-0.524,0.963-0.91,1.343c-0.385,0.38-0.839,0.68-1.359,0.901
		c-0.521,0.221-1.083,0.332-1.684,0.332s-1.162-0.111-1.683-0.332c-0.521-0.221-0.975-0.521-1.36-0.901
		c-0.385-0.38-0.688-0.827-0.909-1.343C230.132,17.833,230.021,17.28,230.021,16.691z M231.653,16.691
		c0,0.408,0.062,0.785,0.187,1.13c0.125,0.345,0.3,0.64,0.527,0.884c0.227,0.244,0.504,0.437,0.833,0.578
		c0.328,0.142,0.696,0.212,1.104,0.212c0.408,0,0.776-0.07,1.105-0.212c0.328-0.142,0.605-0.334,0.833-0.578
		c0.227-0.244,0.401-0.538,0.526-0.884c0.125-0.346,0.188-0.723,0.188-1.13c0-0.408-0.062-0.785-0.188-1.131
		c-0.125-0.345-0.3-0.64-0.526-0.884c-0.228-0.244-0.505-0.436-0.833-0.578c-0.329-0.142-0.697-0.212-1.105-0.212
		c-0.408,0-0.776,0.071-1.104,0.212c-0.329,0.142-0.606,0.334-0.833,0.578c-0.228,0.244-0.402,0.539-0.527,0.884
		C231.715,15.906,231.653,16.283,231.653,16.691z"/>
	<path fill="#243C5E" d="M240.4,12.662h1.529v1.156h0.034c0.295-0.431,0.7-0.765,1.216-1.003c0.516-0.238,1.046-0.357,1.59-0.357
		c0.623,0,1.187,0.108,1.691,0.323c0.504,0.215,0.935,0.516,1.292,0.901c0.356,0.386,0.632,0.836,0.824,1.352
		c0.192,0.516,0.289,1.068,0.289,1.658c0,0.601-0.097,1.159-0.289,1.674c-0.192,0.515-0.468,0.963-0.824,1.343
		c-0.357,0.38-0.788,0.678-1.292,0.893c-0.505,0.215-1.068,0.323-1.691,0.323c-0.578,0-1.122-0.122-1.633-0.366
		c-0.51-0.244-0.9-0.575-1.173-0.994h-0.034v5.95H240.4V12.662z M244.582,13.886c-0.408,0-0.776,0.071-1.104,0.212
		c-0.329,0.142-0.606,0.334-0.833,0.578c-0.228,0.244-0.402,0.539-0.527,0.884c-0.125,0.346-0.188,0.723-0.188,1.131
		c0,0.408,0.062,0.785,0.188,1.13c0.126,0.345,0.3,0.64,0.527,0.884s0.504,0.437,0.833,0.578c0.328,0.142,0.696,0.212,1.104,0.212
		s0.776-0.07,1.105-0.212c0.328-0.142,0.605-0.334,0.833-0.578c0.227-0.244,0.401-0.538,0.526-0.884
		c0.125-0.346,0.188-0.723,0.188-1.13c0-0.408-0.062-0.785-0.188-1.131c-0.125-0.345-0.3-0.64-0.526-0.884
		c-0.228-0.244-0.505-0.436-0.833-0.578C245.358,13.957,244.99,13.886,244.582,13.886z"/>
	<path fill="#243C5E" d="M250.688,12.662h1.529v1.241h0.034c0.103-0.215,0.238-0.411,0.408-0.586
		c0.17-0.175,0.359-0.326,0.569-0.451s0.439-0.224,0.688-0.297c0.249-0.073,0.499-0.111,0.748-0.111s0.477,0.034,0.681,0.102
		l-0.068,1.649c-0.125-0.034-0.25-0.062-0.374-0.085c-0.125-0.022-0.249-0.034-0.374-0.034c-0.748,0-1.32,0.21-1.717,0.629
		c-0.397,0.419-0.596,1.071-0.596,1.955v4.046h-1.529L250.688,12.662L250.688,12.662z"/>
	<path fill="#243C5E" d="M256.233,16.691c0-0.589,0.111-1.139,0.332-1.649s0.523-0.958,0.909-1.343
		c0.386-0.385,0.839-0.688,1.36-0.91c0.521-0.221,1.082-0.332,1.683-0.332s1.162,0.111,1.684,0.332
		c0.521,0.221,0.975,0.524,1.359,0.91c0.386,0.385,0.688,0.833,0.91,1.343c0.221,0.51,0.331,1.06,0.331,1.649
		c0,0.589-0.11,1.142-0.331,1.657c-0.222,0.516-0.524,0.963-0.91,1.343c-0.385,0.38-0.839,0.68-1.359,0.901
		c-0.521,0.221-1.083,0.332-1.684,0.332s-1.162-0.111-1.683-0.332c-0.521-0.221-0.975-0.521-1.36-0.901
		c-0.385-0.38-0.688-0.827-0.909-1.343C256.345,17.833,256.233,17.28,256.233,16.691z M257.866,16.691
		c0,0.408,0.062,0.785,0.187,1.13c0.125,0.345,0.3,0.64,0.527,0.884s0.504,0.437,0.833,0.578c0.328,0.142,0.696,0.212,1.104,0.212
		c0.408,0,0.776-0.07,1.105-0.212c0.328-0.142,0.605-0.334,0.833-0.578c0.227-0.244,0.401-0.538,0.526-0.884
		c0.125-0.346,0.188-0.723,0.188-1.13c0-0.408-0.062-0.785-0.188-1.131c-0.125-0.345-0.3-0.64-0.526-0.884
		c-0.228-0.244-0.505-0.436-0.833-0.578c-0.329-0.142-0.697-0.212-1.105-0.212c-0.408,0-0.776,0.071-1.104,0.212
		c-0.329,0.142-0.606,0.334-0.833,0.578c-0.228,0.244-0.402,0.539-0.527,0.884C257.928,15.906,257.866,16.283,257.866,16.691z"/>
	<path fill="#243C5E" d="M268.159,12.662v9.214c0,0.204-0.014,0.473-0.042,0.808c-0.028,0.335-0.119,0.657-0.272,0.969
		c-0.152,0.312-0.396,0.58-0.73,0.808c-0.335,0.227-0.808,0.34-1.42,0.34c-0.17,0-0.337-0.012-0.501-0.034s-0.326-0.062-0.485-0.119
		l0.171-1.411c0.091,0.034,0.192,0.065,0.306,0.093c0.114,0.028,0.221,0.042,0.323,0.042c0.419,0,0.711-0.133,0.875-0.399
		c0.164-0.267,0.247-0.654,0.247-1.165v-9.146H268.159z M266.272,9.771c0-0.306,0.11-0.569,0.331-0.79
		c0.222-0.221,0.485-0.332,0.791-0.332s0.569,0.11,0.79,0.332c0.222,0.221,0.332,0.484,0.332,0.79s-0.11,0.57-0.332,0.791
		c-0.221,0.221-0.484,0.332-0.79,0.332s-0.569-0.11-0.791-0.332C266.383,10.341,266.272,10.078,266.272,9.771z"/>
	<path fill="#243C5E" d="M271.604,17.252c0,0.351,0.077,0.671,0.229,0.96c0.153,0.289,0.354,0.535,0.604,0.739
		s0.539,0.363,0.867,0.476c0.329,0.113,0.669,0.17,1.021,0.17c0.476,0,0.89-0.11,1.241-0.332c0.351-0.221,0.674-0.513,0.969-0.875
		l1.156,0.884c-0.851,1.099-2.04,1.649-3.57,1.649c-0.635,0-1.21-0.108-1.726-0.323c-0.516-0.215-0.952-0.513-1.309-0.893
		c-0.357-0.379-0.633-0.827-0.825-1.343c-0.192-0.516-0.289-1.074-0.289-1.674s0.104-1.159,0.314-1.675s0.499-0.963,0.867-1.343
		c0.368-0.38,0.808-0.677,1.317-0.893c0.511-0.215,1.065-0.323,1.666-0.323c0.714,0,1.317,0.125,1.811,0.374
		c0.493,0.25,0.898,0.576,1.216,0.978c0.317,0.402,0.547,0.856,0.688,1.36s0.213,1.017,0.213,1.538v0.544h-6.46V17.252z
		 M276.433,16.028c-0.011-0.34-0.065-0.652-0.161-0.935c-0.097-0.283-0.241-0.53-0.434-0.74c-0.192-0.209-0.434-0.374-0.723-0.493
		c-0.289-0.119-0.626-0.179-1.012-0.179c-0.374,0-0.717,0.071-1.028,0.212c-0.312,0.142-0.575,0.326-0.79,0.553
		c-0.216,0.227-0.383,0.479-0.502,0.756c-0.119,0.278-0.179,0.553-0.179,0.825L276.433,16.028L276.433,16.028z"/>
	<path fill="#243C5E" d="M285.569,14.804c-0.283-0.294-0.581-0.519-0.893-0.671c-0.312-0.153-0.683-0.229-1.113-0.229
		c-0.42,0-0.785,0.076-1.097,0.229c-0.312,0.153-0.572,0.363-0.782,0.629c-0.21,0.267-0.368,0.572-0.476,0.918
		c-0.108,0.346-0.161,0.706-0.161,1.08s0.062,0.729,0.187,1.062c0.125,0.334,0.3,0.626,0.527,0.875
		c0.227,0.25,0.498,0.445,0.815,0.586c0.317,0.142,0.675,0.212,1.071,0.212c0.431,0,0.799-0.076,1.104-0.229
		c0.307-0.153,0.59-0.376,0.851-0.671l1.088,1.088c-0.396,0.442-0.858,0.76-1.386,0.952c-0.526,0.192-1.085,0.289-1.674,0.289
		c-0.624,0-1.193-0.102-1.709-0.306s-0.961-0.49-1.334-0.858c-0.374-0.368-0.663-0.81-0.867-1.326
		c-0.204-0.516-0.307-1.085-0.307-1.708s0.103-1.195,0.307-1.717c0.204-0.522,0.49-0.969,0.858-1.343
		c0.368-0.374,0.81-0.666,1.326-0.875c0.516-0.209,1.09-0.314,1.726-0.314c0.589,0,1.152,0.105,1.691,0.314
		c0.538,0.21,1.005,0.53,1.402,0.96L285.569,14.804z"/>
	<path fill="#243C5E" d="M292.899,13.988h-2.192v3.655c0,0.227,0.005,0.451,0.017,0.672c0.012,0.221,0.054,0.419,0.128,0.595
		c0.073,0.176,0.187,0.317,0.34,0.425c0.153,0.108,0.377,0.162,0.671,0.162c0.182,0,0.368-0.017,0.562-0.051
		c0.192-0.034,0.368-0.096,0.527-0.187v1.394c-0.182,0.102-0.417,0.172-0.706,0.212s-0.513,0.06-0.671,0.06
		c-0.59,0-1.046-0.083-1.369-0.247c-0.323-0.164-0.561-0.376-0.714-0.638c-0.153-0.26-0.244-0.552-0.271-0.875
		c-0.029-0.323-0.043-0.648-0.043-0.978v-4.199h-1.768v-1.326h1.768v-2.261h1.53v2.261h2.192L292.899,13.988L292.899,13.988z"/>
	<path fill="#243C5E" d="M295.633,17.252c0,0.351,0.077,0.671,0.229,0.96c0.153,0.289,0.354,0.535,0.604,0.739
		s0.539,0.363,0.867,0.476c0.329,0.113,0.669,0.17,1.021,0.17c0.476,0,0.89-0.11,1.24-0.332c0.352-0.221,0.674-0.513,0.97-0.875
		l1.155,0.884c-0.851,1.099-2.04,1.649-3.57,1.649c-0.635,0-1.21-0.108-1.726-0.323c-0.516-0.215-0.952-0.513-1.309-0.893
		c-0.357-0.379-0.633-0.827-0.825-1.343c-0.192-0.516-0.289-1.074-0.289-1.674s0.104-1.159,0.314-1.675s0.499-0.963,0.867-1.343
		c0.368-0.38,0.808-0.677,1.317-0.893c0.511-0.215,1.065-0.323,1.666-0.323c0.714,0,1.316,0.125,1.811,0.374
		c0.493,0.25,0.898,0.576,1.217,0.978c0.316,0.402,0.547,0.856,0.688,1.36s0.213,1.017,0.213,1.538v0.544h-6.46V17.252z
		 M300.461,16.028c-0.011-0.34-0.065-0.652-0.161-0.935c-0.097-0.283-0.241-0.53-0.434-0.74c-0.192-0.209-0.435-0.374-0.724-0.493
		c-0.288-0.119-0.626-0.179-1.012-0.179c-0.374,0-0.717,0.071-1.028,0.212c-0.312,0.142-0.575,0.326-0.79,0.553
		c-0.216,0.227-0.383,0.479-0.502,0.756c-0.119,0.278-0.179,0.553-0.179,0.825L300.461,16.028L300.461,16.028z"/>
	<path fill="#243C5E" d="M310.95,20.72h-1.53v-1.241h-0.033c-0.192,0.431-0.526,0.78-1.004,1.046
		c-0.476,0.266-1.024,0.399-1.647,0.399c-0.396,0-0.771-0.06-1.122-0.179c-0.353-0.119-0.66-0.303-0.928-0.552
		c-0.267-0.249-0.479-0.57-0.638-0.96c-0.158-0.391-0.237-0.853-0.237-1.386v-5.185h1.529v4.76c0,0.374,0.052,0.694,0.153,0.96
		c0.103,0.266,0.238,0.482,0.408,0.646c0.17,0.165,0.364,0.283,0.587,0.357c0.221,0.074,0.45,0.11,0.688,0.11
		c0.316,0,0.611-0.051,0.884-0.153c0.271-0.102,0.511-0.264,0.715-0.484c0.203-0.221,0.361-0.501,0.476-0.842
		c0.113-0.34,0.17-0.742,0.17-1.207v-4.148h1.53V20.72z"/>
	<path fill="#243C5E" d="M313.185,12.662h1.529v1.241h0.034c0.103-0.215,0.238-0.411,0.408-0.586
		c0.17-0.175,0.358-0.326,0.568-0.451s0.439-0.224,0.688-0.297c0.249-0.073,0.499-0.111,0.748-0.111s0.477,0.034,0.681,0.102
		l-0.067,1.649c-0.125-0.034-0.25-0.062-0.374-0.085c-0.125-0.022-0.249-0.034-0.374-0.034c-0.748,0-1.32,0.21-1.718,0.629
		c-0.396,0.419-0.596,1.071-0.596,1.955v4.046h-1.529L313.185,12.662L313.185,12.662z"/>
	<path fill="#243C5E" d="M323.689,14.685c-0.183-0.227-0.406-0.417-0.673-0.569c-0.267-0.153-0.593-0.229-0.978-0.229
		c-0.363,0-0.678,0.077-0.943,0.229c-0.267,0.153-0.398,0.377-0.398,0.671c0,0.238,0.076,0.431,0.229,0.578
		c0.152,0.147,0.334,0.267,0.544,0.357c0.209,0.091,0.435,0.159,0.671,0.204c0.238,0.045,0.442,0.085,0.612,0.119
		c0.329,0.079,0.638,0.176,0.927,0.289c0.289,0.114,0.538,0.261,0.748,0.442c0.209,0.181,0.374,0.402,0.493,0.663
		c0.118,0.261,0.178,0.578,0.178,0.952c0,0.454-0.096,0.842-0.289,1.165c-0.191,0.323-0.44,0.586-0.746,0.791
		c-0.308,0.204-0.655,0.352-1.047,0.442c-0.391,0.091-0.784,0.136-1.182,0.136c-0.669,0-1.255-0.102-1.76-0.306
		c-0.504-0.204-0.954-0.578-1.353-1.122l1.156-0.952c0.249,0.249,0.527,0.47,0.833,0.663c0.307,0.193,0.68,0.289,1.122,0.289
		c0.192,0,0.388-0.02,0.587-0.06c0.198-0.04,0.374-0.102,0.526-0.187s0.277-0.192,0.374-0.323c0.097-0.13,0.145-0.281,0.145-0.451
		c0-0.227-0.069-0.414-0.212-0.561s-0.312-0.263-0.511-0.348s-0.407-0.153-0.629-0.204c-0.222-0.051-0.416-0.094-0.586-0.127
		c-0.329-0.079-0.642-0.17-0.937-0.272s-0.555-0.238-0.78-0.408c-0.229-0.17-0.408-0.385-0.546-0.646
		c-0.136-0.261-0.202-0.583-0.202-0.969c0-0.419,0.087-0.785,0.263-1.097c0.176-0.312,0.408-0.569,0.697-0.773
		c0.288-0.204,0.617-0.357,0.985-0.459s0.739-0.153,1.113-0.153c0.544,0,1.064,0.102,1.563,0.306
		c0.498,0.204,0.896,0.544,1.189,1.02L323.689,14.685z"/>
	<path fill="#243C5E" d="M332.647,14.804c-0.308,0-0.569-0.11-0.791-0.332c-0.222-0.221-0.331-0.484-0.331-0.791
		c0-0.307,0.109-0.569,0.331-0.791c0.222-0.221,0.483-0.332,0.791-0.332c0.306,0,0.568,0.111,0.789,0.332
		c0.222,0.221,0.332,0.484,0.332,0.791c0,0.307-0.11,0.57-0.332,0.791C333.217,14.693,332.953,14.804,332.647,14.804z M331.525,19.7
		c0-0.306,0.109-0.569,0.331-0.791c0.222-0.221,0.483-0.332,0.791-0.332c0.306,0,0.568,0.11,0.789,0.332
		c0.222,0.222,0.332,0.484,0.332,0.791c0,0.307-0.11,0.569-0.332,0.791c-0.221,0.222-0.483,0.332-0.789,0.332
		c-0.308,0-0.569-0.11-0.791-0.332C331.636,20.269,331.525,20.006,331.525,19.7z"/>
	<path fill="#243C5E" d="M340.773,7.868h1.528V20.72h-1.528V7.868z"/>
	<path fill="#243C5E" d="M345.78,17.252c0,0.351,0.077,0.671,0.229,0.96c0.153,0.289,0.354,0.535,0.604,0.739
		s0.539,0.363,0.867,0.476c0.328,0.113,0.669,0.17,1.021,0.17c0.476,0,0.89-0.11,1.241-0.332c0.351-0.221,0.674-0.513,0.969-0.875
		l1.156,0.884c-0.852,1.099-2.04,1.649-3.57,1.649c-0.635,0-1.21-0.108-1.726-0.323c-0.517-0.215-0.952-0.513-1.31-0.893
		c-0.356-0.379-0.633-0.827-0.825-1.343c-0.191-0.516-0.288-1.074-0.288-1.674s0.104-1.159,0.313-1.675s0.499-0.963,0.867-1.343
		s0.808-0.677,1.316-0.893c0.512-0.215,1.065-0.323,1.666-0.323c0.715,0,1.317,0.125,1.812,0.374
		c0.493,0.25,0.897,0.576,1.216,0.978c0.317,0.402,0.547,0.856,0.688,1.36c0.141,0.504,0.213,1.017,0.213,1.538v0.544h-6.46V17.252z
		 M350.608,16.028c-0.012-0.34-0.065-0.652-0.161-0.935c-0.098-0.283-0.241-0.53-0.435-0.74c-0.191-0.209-0.434-0.374-0.723-0.493
		c-0.289-0.119-0.626-0.179-1.012-0.179c-0.374,0-0.718,0.071-1.028,0.212c-0.312,0.142-0.575,0.326-0.79,0.553
		c-0.216,0.227-0.383,0.479-0.502,0.756c-0.119,0.278-0.179,0.553-0.179,0.825L350.608,16.028L350.608,16.028z"/>
	<path fill="#243C5E" d="M358.242,14.685c-0.183-0.227-0.406-0.417-0.672-0.569c-0.268-0.153-0.594-0.229-0.979-0.229
		c-0.362,0-0.678,0.077-0.942,0.229c-0.268,0.153-0.399,0.377-0.399,0.671c0,0.238,0.076,0.431,0.229,0.578
		c0.151,0.147,0.334,0.267,0.544,0.357c0.209,0.091,0.434,0.159,0.671,0.204c0.237,0.045,0.441,0.085,0.611,0.119
		c0.329,0.079,0.639,0.176,0.928,0.289c0.289,0.114,0.538,0.261,0.748,0.442c0.209,0.181,0.374,0.402,0.492,0.663
		s0.179,0.578,0.179,0.952c0,0.454-0.097,0.842-0.289,1.165c-0.192,0.323-0.441,0.586-0.747,0.791
		c-0.308,0.204-0.655,0.352-1.046,0.442c-0.392,0.091-0.785,0.136-1.183,0.136c-0.669,0-1.255-0.102-1.76-0.306
		c-0.504-0.204-0.954-0.578-1.352-1.122l1.155-0.952c0.249,0.249,0.527,0.47,0.833,0.663c0.308,0.193,0.681,0.289,1.122,0.289
		c0.192,0,0.389-0.02,0.587-0.06s0.374-0.102,0.526-0.187c0.153-0.085,0.278-0.192,0.374-0.323c0.097-0.13,0.145-0.281,0.145-0.451
		c0-0.227-0.069-0.414-0.212-0.561s-0.312-0.263-0.511-0.348s-0.407-0.153-0.629-0.204c-0.221-0.051-0.416-0.094-0.586-0.127
		c-0.329-0.079-0.641-0.17-0.936-0.272c-0.296-0.102-0.556-0.238-0.781-0.408c-0.229-0.17-0.408-0.385-0.545-0.646
		c-0.137-0.261-0.203-0.583-0.203-0.969c0-0.419,0.087-0.785,0.263-1.097c0.176-0.312,0.408-0.569,0.697-0.773
		c0.289-0.204,0.618-0.357,0.985-0.459c0.368-0.102,0.739-0.153,1.113-0.153c0.544,0,1.065,0.102,1.564,0.306
		c0.498,0.204,0.895,0.544,1.188,1.02L358.242,14.685z"/>
	<path fill="#243C5E" d="M365.994,7.868h1.529v5.95h0.033c0.272-0.419,0.663-0.751,1.173-0.995c0.512-0.244,1.056-0.366,1.634-0.366
		c0.623,0,1.187,0.108,1.69,0.323c0.504,0.215,0.936,0.513,1.292,0.893s0.632,0.827,0.824,1.343s0.289,1.074,0.289,1.675
		s-0.097,1.156-0.289,1.666c-0.192,0.51-0.468,0.958-0.824,1.343c-0.356,0.385-0.788,0.686-1.292,0.901
		c-0.505,0.215-1.067,0.323-1.69,0.323c-0.544,0-1.074-0.119-1.59-0.357c-0.517-0.238-0.922-0.572-1.217-1.003h-0.033v1.156h-1.529
		V7.868z M370.176,19.496c0.408,0,0.776-0.07,1.105-0.212c0.328-0.142,0.604-0.334,0.833-0.578c0.227-0.244,0.4-0.538,0.525-0.884
		c0.125-0.346,0.188-0.723,0.188-1.13c0-0.408-0.062-0.785-0.188-1.131c-0.125-0.345-0.3-0.64-0.525-0.884
		c-0.229-0.244-0.505-0.436-0.833-0.578c-0.329-0.142-0.697-0.212-1.105-0.212s-0.775,0.071-1.104,0.212
		c-0.329,0.142-0.606,0.334-0.833,0.578c-0.229,0.244-0.402,0.539-0.527,0.884c-0.125,0.346-0.188,0.723-0.188,1.131
		c0,0.408,0.062,0.785,0.188,1.13c0.126,0.345,0.3,0.64,0.527,0.884c0.227,0.244,0.504,0.437,0.833,0.578
		C369.399,19.425,369.768,19.496,370.176,19.496z"/>
	<path fill="#243C5E" d="M375.852,16.691c0-0.589,0.111-1.139,0.332-1.649c0.222-0.51,0.523-0.958,0.909-1.343
		c0.386-0.385,0.839-0.688,1.36-0.91c0.521-0.221,1.082-0.332,1.683-0.332c0.602,0,1.162,0.111,1.685,0.332
		c0.521,0.221,0.975,0.524,1.358,0.91c0.387,0.385,0.688,0.833,0.91,1.343c0.221,0.51,0.331,1.06,0.331,1.649
		c0,0.589-0.11,1.142-0.331,1.657c-0.222,0.516-0.523,0.963-0.91,1.343c-0.385,0.38-0.839,0.68-1.358,0.901
		c-0.521,0.221-1.083,0.332-1.685,0.332c-0.601,0-1.162-0.111-1.683-0.332c-0.521-0.221-0.976-0.521-1.36-0.901
		s-0.688-0.827-0.909-1.343C375.963,17.833,375.852,17.28,375.852,16.691z M377.484,16.691c0,0.408,0.062,0.785,0.187,1.13
		c0.125,0.345,0.3,0.64,0.527,0.884c0.227,0.244,0.504,0.437,0.833,0.578c0.328,0.142,0.696,0.212,1.104,0.212
		c0.408,0,0.776-0.07,1.105-0.212c0.328-0.142,0.604-0.334,0.833-0.578c0.227-0.244,0.4-0.538,0.525-0.884
		c0.125-0.346,0.188-0.723,0.188-1.13c0-0.408-0.062-0.785-0.188-1.131c-0.125-0.345-0.3-0.64-0.525-0.884
		c-0.229-0.244-0.505-0.436-0.833-0.578c-0.329-0.142-0.697-0.212-1.105-0.212s-0.775,0.071-1.104,0.212
		c-0.329,0.142-0.606,0.334-0.833,0.578c-0.229,0.244-0.402,0.539-0.527,0.884C377.546,15.906,377.484,16.283,377.484,16.691z"/>
	<path fill="#243C5E" d="M386.231,12.662h1.528v1.241h0.034c0.192-0.431,0.527-0.779,1.003-1.045c0.478-0.266,1.026-0.4,1.649-0.4
		c0.385,0,0.757,0.06,1.112,0.179c0.357,0.119,0.669,0.303,0.937,0.553c0.266,0.249,0.479,0.569,0.637,0.96
		c0.159,0.391,0.238,0.853,0.238,1.385v5.185h-1.53v-4.76c0-0.374-0.051-0.694-0.152-0.961c-0.103-0.266-0.237-0.481-0.407-0.646
		c-0.17-0.164-0.365-0.283-0.587-0.357c-0.222-0.073-0.45-0.11-0.688-0.11c-0.316,0-0.611,0.051-0.884,0.153
		c-0.271,0.102-0.51,0.264-0.714,0.485s-0.363,0.501-0.477,0.841c-0.113,0.34-0.171,0.742-0.171,1.207v4.147h-1.528V12.662z"/>
	<path fill="#243C5E" d="M399.854,14.685c-0.183-0.227-0.406-0.417-0.673-0.569c-0.267-0.153-0.593-0.229-0.978-0.229
		c-0.363,0-0.678,0.077-0.943,0.229c-0.267,0.153-0.398,0.377-0.398,0.671c0,0.238,0.076,0.431,0.229,0.578
		c0.152,0.147,0.334,0.267,0.544,0.357c0.209,0.091,0.435,0.159,0.671,0.204c0.238,0.045,0.442,0.085,0.612,0.119
		c0.329,0.079,0.638,0.176,0.927,0.289c0.289,0.114,0.538,0.261,0.748,0.442c0.209,0.181,0.374,0.402,0.493,0.663
		c0.118,0.261,0.178,0.578,0.178,0.952c0,0.454-0.096,0.842-0.289,1.165c-0.191,0.323-0.44,0.586-0.747,0.791
		c-0.307,0.204-0.654,0.352-1.046,0.442c-0.391,0.091-0.784,0.136-1.182,0.136c-0.669,0-1.255-0.102-1.76-0.306
		c-0.504-0.204-0.954-0.578-1.353-1.122l1.156-0.952c0.249,0.249,0.527,0.47,0.833,0.663c0.307,0.193,0.68,0.289,1.122,0.289
		c0.192,0,0.388-0.02,0.587-0.06c0.198-0.04,0.374-0.102,0.526-0.187s0.277-0.192,0.374-0.323c0.097-0.13,0.145-0.281,0.145-0.451
		c0-0.227-0.069-0.414-0.212-0.561s-0.312-0.263-0.511-0.348s-0.407-0.153-0.629-0.204c-0.222-0.051-0.416-0.094-0.586-0.127
		c-0.329-0.079-0.642-0.17-0.937-0.272s-0.555-0.238-0.781-0.408c-0.228-0.17-0.407-0.385-0.545-0.646
		c-0.136-0.261-0.203-0.583-0.203-0.969c0-0.419,0.088-0.785,0.264-1.097c0.176-0.312,0.408-0.569,0.697-0.773
		c0.288-0.204,0.617-0.357,0.985-0.459s0.739-0.153,1.113-0.153c0.544,0,1.064,0.102,1.563,0.306
		c0.498,0.204,0.896,0.544,1.189,1.02L399.854,14.685z"/>
	<path fill="#243C5E" d="M408.761,17.252c0,0.351,0.077,0.671,0.229,0.96s0.354,0.535,0.604,0.739s0.539,0.363,0.867,0.476
		c0.329,0.113,0.669,0.17,1.021,0.17c0.476,0,0.89-0.11,1.24-0.332c0.352-0.221,0.675-0.513,0.97-0.875l1.155,0.884
		c-0.851,1.099-2.04,1.649-3.569,1.649c-0.636,0-1.21-0.108-1.727-0.323c-0.516-0.215-0.952-0.513-1.309-0.893
		c-0.357-0.379-0.633-0.827-0.825-1.343c-0.192-0.516-0.289-1.074-0.289-1.674s0.104-1.159,0.314-1.675s0.499-0.963,0.866-1.343
		c0.368-0.38,0.809-0.677,1.317-0.893c0.511-0.215,1.065-0.323,1.666-0.323c0.714,0,1.317,0.125,1.811,0.374
		c0.493,0.25,0.898,0.576,1.217,0.978c0.316,0.402,0.547,0.856,0.688,1.36c0.142,0.504,0.213,1.017,0.213,1.538v0.544h-6.46V17.252z
		 M413.589,16.028c-0.011-0.34-0.064-0.652-0.161-0.935c-0.097-0.283-0.241-0.53-0.434-0.74c-0.192-0.209-0.435-0.374-0.724-0.493
		c-0.288-0.119-0.626-0.179-1.012-0.179c-0.374,0-0.717,0.071-1.027,0.212c-0.312,0.142-0.575,0.326-0.79,0.553
		c-0.217,0.227-0.384,0.479-0.503,0.756c-0.118,0.278-0.179,0.553-0.179,0.825L413.589,16.028L413.589,16.028z M411.821,8.684h2.176
		l-2.533,2.448h-1.411L411.821,8.684z"/>
	<path fill="#243C5E" d="M417.051,7.868h1.529V20.72h-1.529V7.868z"/>
	<path fill="#243C5E" d="M422.059,17.252c0,0.351,0.077,0.671,0.229,0.96c0.153,0.289,0.354,0.535,0.604,0.739
		s0.539,0.363,0.867,0.476c0.329,0.113,0.669,0.17,1.021,0.17c0.476,0,0.89-0.11,1.24-0.332c0.352-0.221,0.675-0.513,0.97-0.875
		l1.155,0.884c-0.851,1.099-2.039,1.649-3.569,1.649c-0.635,0-1.21-0.108-1.727-0.323c-0.516-0.215-0.951-0.513-1.309-0.893
		c-0.357-0.379-0.633-0.827-0.825-1.343c-0.191-0.516-0.289-1.074-0.289-1.674s0.104-1.159,0.314-1.675s0.499-0.963,0.867-1.343
		c0.367-0.38,0.808-0.677,1.316-0.893c0.511-0.215,1.065-0.323,1.666-0.323c0.714,0,1.317,0.125,1.812,0.374
		c0.492,0.25,0.897,0.576,1.216,0.978c0.316,0.402,0.547,0.856,0.688,1.36c0.142,0.504,0.213,1.017,0.213,1.538v0.544h-6.46V17.252z
		 M425.595,11.132h-1.411l-2.531-2.448h2.176L425.595,11.132z M426.887,16.028c-0.011-0.34-0.064-0.652-0.161-0.935
		c-0.097-0.283-0.24-0.53-0.434-0.74c-0.192-0.209-0.434-0.374-0.723-0.493c-0.289-0.119-0.626-0.179-1.013-0.179
		c-0.374,0-0.717,0.071-1.027,0.212c-0.312,0.142-0.575,0.326-0.79,0.553c-0.216,0.227-0.383,0.479-0.502,0.756
		c-0.119,0.278-0.18,0.553-0.18,0.825L426.887,16.028L426.887,16.028z"/>
	<path fill="#243C5E" d="M429.04,12.662h1.769l2.414,6.171l2.312-6.171h1.633l-3.162,8.058h-1.684L429.04,12.662z"/>
	<path fill="#243C5E" d="M439.303,17.252c0,0.351,0.077,0.671,0.229,0.96s0.354,0.535,0.604,0.739s0.539,0.363,0.867,0.476
		c0.329,0.113,0.669,0.17,1.021,0.17c0.476,0,0.89-0.11,1.24-0.332c0.352-0.221,0.675-0.513,0.97-0.875l1.155,0.884
		c-0.851,1.099-2.04,1.649-3.569,1.649c-0.636,0-1.21-0.108-1.727-0.323c-0.516-0.215-0.952-0.513-1.309-0.893
		c-0.357-0.379-0.633-0.827-0.825-1.343c-0.192-0.516-0.289-1.074-0.289-1.674s0.104-1.159,0.314-1.675s0.499-0.963,0.866-1.343
		c0.368-0.38,0.809-0.677,1.317-0.893c0.511-0.215,1.065-0.323,1.666-0.323c0.714,0,1.317,0.125,1.811,0.374
		c0.493,0.25,0.898,0.576,1.217,0.978c0.316,0.402,0.547,0.856,0.688,1.36c0.142,0.504,0.213,1.017,0.213,1.538v0.544h-6.46V17.252z
		 M444.131,16.028c-0.011-0.34-0.064-0.652-0.161-0.935c-0.097-0.283-0.24-0.53-0.434-0.74c-0.192-0.209-0.435-0.374-0.723-0.493
		c-0.289-0.119-0.627-0.179-1.013-0.179c-0.374,0-0.717,0.071-1.027,0.212c-0.312,0.142-0.575,0.326-0.79,0.553
		c-0.217,0.227-0.384,0.479-0.502,0.756c-0.119,0.278-0.18,0.553-0.18,0.825L444.131,16.028L444.131,16.028z"/>
	<path fill="#243C5E" d="M451.766,14.685c-0.182-0.227-0.405-0.417-0.672-0.569c-0.267-0.153-0.593-0.229-0.978-0.229
		c-0.363,0-0.678,0.077-0.943,0.229c-0.267,0.153-0.398,0.377-0.398,0.671c0,0.238,0.075,0.431,0.229,0.578
		c0.152,0.147,0.334,0.267,0.544,0.357c0.209,0.091,0.435,0.159,0.671,0.204c0.238,0.045,0.442,0.085,0.612,0.119
		c0.329,0.079,0.638,0.176,0.927,0.289c0.289,0.114,0.538,0.261,0.748,0.442c0.209,0.181,0.374,0.402,0.493,0.663
		c0.118,0.261,0.178,0.578,0.178,0.952c0,0.454-0.096,0.842-0.289,1.165c-0.191,0.323-0.44,0.586-0.747,0.791
		c-0.307,0.204-0.654,0.352-1.046,0.442c-0.391,0.091-0.785,0.136-1.182,0.136c-0.669,0-1.255-0.102-1.76-0.306
		c-0.504-0.204-0.954-0.578-1.353-1.122l1.156-0.952c0.249,0.249,0.527,0.47,0.833,0.663c0.307,0.193,0.68,0.289,1.122,0.289
		c0.191,0,0.388-0.02,0.587-0.06c0.198-0.04,0.374-0.102,0.526-0.187s0.277-0.192,0.374-0.323c0.097-0.13,0.145-0.281,0.145-0.451
		c0-0.227-0.07-0.414-0.212-0.561c-0.143-0.147-0.312-0.263-0.511-0.348c-0.199-0.085-0.407-0.153-0.629-0.204
		c-0.222-0.051-0.416-0.094-0.586-0.127c-0.329-0.079-0.642-0.17-0.937-0.272s-0.555-0.238-0.781-0.408
		c-0.228-0.17-0.407-0.385-0.545-0.646c-0.136-0.261-0.203-0.583-0.203-0.969c0-0.419,0.087-0.785,0.264-1.097
		c0.176-0.312,0.407-0.569,0.696-0.773c0.289-0.204,0.618-0.357,0.986-0.459s0.739-0.153,1.113-0.153
		c0.544,0,1.064,0.102,1.563,0.306c0.498,0.204,0.896,0.544,1.189,1.02L451.766,14.685z"/>
</g>
</svg>
