<?xml version="1.0" encoding="utf-8"?>
<!-- Generator: Adobe Illustrator 16.0.0, SVG Export Plug-In . SVG Version: 6.00 Build 0)  -->
<!DOCTYPE svg PUBLIC "-//W3C//DTD SVG 1.1//EN" "http://www.w3.org/Graphics/SVG/1.1/DTD/svg11.dtd">
<svg version="1.1" id="Calque_1" xmlns="http://www.w3.org/2000/svg" xmlns:xlink="http://www.w3.org/1999/xlink" x="0px" y="0px"
	 width="535.5px" height="36px" viewBox="0 0 535.5 36" enable-background="new 0 0 535.5 36" xml:space="preserve">
<g>
	<path fill="#243C5E" d="M15.485,14.738c-0.476,0.644-1.027,1.106-1.652,1.386c-0.625,0.28-1.302,0.42-2.03,0.42
		c-0.756,0-1.449-0.128-2.079-0.385c-0.63-0.257-1.169-0.616-1.617-1.078c-0.448-0.462-0.798-1.013-1.05-1.652
		c-0.252-0.639-0.378-1.337-0.378-2.093S6.805,9.885,7.057,9.25c0.252-0.635,0.602-1.183,1.05-1.645
		C8.555,7.143,9.094,6.781,9.724,6.52c0.63-0.261,1.323-0.392,2.079-0.392c0.672,0,1.3,0.119,1.883,0.357
		c0.583,0.238,1.094,0.637,1.533,1.197l-0.756,0.63c-0.308-0.467-0.703-0.807-1.183-1.022c-0.481-0.215-0.973-0.322-1.477-0.322
		c-0.644,0-1.225,0.112-1.743,0.336C9.542,7.528,9.102,7.836,8.737,8.228C8.374,8.62,8.093,9.082,7.897,9.614
		c-0.196,0.532-0.294,1.106-0.294,1.722c0,0.616,0.098,1.19,0.294,1.722c0.196,0.532,0.476,0.994,0.84,1.386
		c0.364,0.392,0.805,0.7,1.323,0.924c0.518,0.224,1.099,0.336,1.743,0.336c0.252,0,0.513-0.03,0.784-0.091
		c0.271-0.061,0.534-0.154,0.791-0.28c0.256-0.126,0.501-0.285,0.735-0.476c0.233-0.191,0.438-0.422,0.616-0.693L15.485,14.738z"/>
	<path fill="#243C5E" d="M16.577,13.058c0-0.495,0.084-0.95,0.252-1.365c0.168-0.415,0.401-0.774,0.7-1.078s0.658-0.539,1.078-0.707
		s0.877-0.252,1.372-0.252c0.495,0,0.949,0.084,1.365,0.252c0.415,0.168,0.774,0.404,1.078,0.707
		c0.303,0.303,0.539,0.663,0.707,1.078c0.168,0.416,0.252,0.871,0.252,1.365s-0.084,0.95-0.252,1.365
		c-0.168,0.416-0.404,0.775-0.707,1.078c-0.304,0.303-0.663,0.539-1.078,0.707c-0.416,0.168-0.87,0.252-1.365,0.252
		c-0.495,0-0.952-0.084-1.372-0.252s-0.779-0.404-1.078-0.707s-0.532-0.663-0.7-1.078C16.661,14.008,16.577,13.553,16.577,13.058z
		 M17.417,13.058c0,0.364,0.058,0.707,0.175,1.029c0.117,0.322,0.287,0.602,0.511,0.84c0.224,0.238,0.494,0.427,0.812,0.567
		c0.317,0.14,0.672,0.21,1.064,0.21c0.392,0,0.747-0.07,1.064-0.21c0.317-0.14,0.588-0.329,0.812-0.567
		c0.224-0.238,0.394-0.518,0.511-0.84c0.117-0.322,0.175-0.665,0.175-1.029c0-0.364-0.059-0.707-0.175-1.029
		c-0.117-0.322-0.287-0.602-0.511-0.84c-0.224-0.238-0.495-0.427-0.812-0.567c-0.317-0.14-0.672-0.21-1.064-0.21
		c-0.392,0-0.747,0.07-1.064,0.21c-0.318,0.14-0.588,0.329-0.812,0.567c-0.224,0.238-0.395,0.518-0.511,0.84
		C17.476,12.351,17.417,12.694,17.417,13.058z"/>
	<path fill="#243C5E" d="M25.257,11.644c0-0.121-0.005-0.268-0.014-0.441s-0.017-0.348-0.021-0.525
		c-0.005-0.177-0.012-0.343-0.021-0.497c-0.009-0.154-0.014-0.273-0.014-0.357h0.84c0.009,0.243,0.016,0.476,0.021,0.7
		c0.004,0.224,0.016,0.369,0.035,0.434h0.042c0.168-0.354,0.448-0.66,0.84-0.917s0.849-0.385,1.372-0.385
		c0.504,0,0.915,0.08,1.232,0.238c0.317,0.159,0.567,0.366,0.749,0.623c0.182,0.257,0.308,0.553,0.378,0.889
		c0.07,0.336,0.105,0.682,0.105,1.036v3.85h-0.84v-3.808c0-0.261-0.023-0.516-0.07-0.763c-0.047-0.248-0.128-0.469-0.245-0.665
		c-0.117-0.196-0.28-0.353-0.49-0.469s-0.483-0.175-0.819-0.175c-0.308,0-0.6,0.054-0.875,0.161
		c-0.275,0.107-0.514,0.271-0.714,0.49s-0.359,0.495-0.476,0.826c-0.117,0.331-0.175,0.721-0.175,1.169v3.234h-0.84V11.644z"/>
	<path fill="#243C5E" d="M33.055,14.64c0.177,0.345,0.439,0.609,0.784,0.791c0.345,0.182,0.709,0.273,1.092,0.273
		c0.177,0,0.355-0.028,0.532-0.084c0.177-0.056,0.336-0.135,0.476-0.238c0.14-0.103,0.254-0.226,0.343-0.371
		c0.089-0.145,0.133-0.311,0.133-0.497c0-0.299-0.096-0.523-0.287-0.672c-0.191-0.149-0.427-0.266-0.707-0.35
		s-0.588-0.156-0.924-0.217c-0.336-0.061-0.644-0.154-0.924-0.28c-0.28-0.126-0.516-0.301-0.707-0.525
		c-0.191-0.224-0.287-0.542-0.287-0.952c0-0.317,0.065-0.593,0.196-0.826c0.13-0.233,0.301-0.427,0.511-0.581
		c0.21-0.154,0.445-0.268,0.707-0.343s0.527-0.112,0.798-0.112c0.532,0,0.992,0.098,1.379,0.294
		c0.387,0.196,0.688,0.504,0.903,0.924l-0.756,0.448c-0.159-0.298-0.357-0.525-0.595-0.679c-0.238-0.154-0.548-0.231-0.931-0.231
		c-0.149,0-0.306,0.023-0.469,0.07c-0.163,0.047-0.31,0.112-0.441,0.196c-0.131,0.084-0.24,0.191-0.329,0.322
		c-0.089,0.131-0.133,0.28-0.133,0.448c0,0.29,0.096,0.504,0.287,0.644c0.191,0.14,0.427,0.25,0.707,0.329
		c0.28,0.08,0.588,0.147,0.924,0.203s0.644,0.147,0.924,0.273c0.28,0.126,0.516,0.308,0.707,0.546
		c0.191,0.238,0.287,0.577,0.287,1.015c0,0.336-0.063,0.628-0.189,0.875c-0.126,0.248-0.299,0.455-0.518,0.623
		s-0.469,0.294-0.749,0.378c-0.28,0.084-0.574,0.126-0.882,0.126c-0.56,0-1.071-0.107-1.533-0.322
		c-0.462-0.215-0.819-0.546-1.071-0.994L33.055,14.64z"/>
	<path fill="#243C5E" d="M38.641,13.058c0-0.495,0.084-0.95,0.252-1.365c0.168-0.415,0.401-0.774,0.7-1.078s0.658-0.539,1.078-0.707
		s0.877-0.252,1.372-0.252c0.495,0,0.949,0.084,1.365,0.252c0.415,0.168,0.774,0.404,1.078,0.707
		c0.303,0.303,0.539,0.663,0.707,1.078c0.168,0.416,0.252,0.871,0.252,1.365s-0.084,0.95-0.252,1.365
		c-0.168,0.416-0.404,0.775-0.707,1.078c-0.304,0.303-0.663,0.539-1.078,0.707c-0.416,0.168-0.87,0.252-1.365,0.252
		c-0.495,0-0.952-0.084-1.372-0.252s-0.779-0.404-1.078-0.707s-0.532-0.663-0.7-1.078C38.725,14.008,38.641,13.553,38.641,13.058z
		 M39.481,13.058c0,0.364,0.058,0.707,0.175,1.029c0.117,0.322,0.287,0.602,0.511,0.84c0.224,0.238,0.494,0.427,0.812,0.567
		c0.317,0.14,0.672,0.21,1.064,0.21c0.392,0,0.747-0.07,1.064-0.21c0.317-0.14,0.588-0.329,0.812-0.567
		c0.224-0.238,0.394-0.518,0.511-0.84c0.117-0.322,0.175-0.665,0.175-1.029c0-0.364-0.059-0.707-0.175-1.029
		c-0.117-0.322-0.287-0.602-0.511-0.84c-0.224-0.238-0.495-0.427-0.812-0.567c-0.317-0.14-0.672-0.21-1.064-0.21
		c-0.392,0-0.747,0.07-1.064,0.21c-0.318,0.14-0.588,0.329-0.812,0.567c-0.224,0.238-0.395,0.518-0.511,0.84
		C39.54,12.351,39.481,12.694,39.481,13.058z"/>
	<path fill="#243C5E" d="M47.349,15.704c0-0.187,0.065-0.345,0.196-0.476c0.13-0.131,0.289-0.196,0.476-0.196
		c0.187,0,0.345,0.065,0.476,0.196s0.196,0.29,0.196,0.476s-0.065,0.345-0.196,0.476c-0.131,0.13-0.289,0.196-0.476,0.196
		c-0.187,0-0.345-0.065-0.476-0.196C47.415,16.049,47.349,15.891,47.349,15.704z"/>
	<path fill="#243C5E" d="M54.223,5.876l0.728,0.252l-4.242,10.668l-0.742-0.252L54.223,5.876z"/>
	<path fill="#243C5E" d="M61.167,13.576c0,0.317,0.002,0.602,0.007,0.854s0.012,0.485,0.021,0.7
		c0.009,0.215,0.021,0.416,0.035,0.602c0.014,0.187,0.035,0.374,0.063,0.56h-0.784c-0.056-0.317-0.084-0.667-0.084-1.05h-0.028
		c-0.243,0.42-0.544,0.728-0.903,0.924c-0.359,0.196-0.814,0.294-1.365,0.294c-0.28,0-0.555-0.035-0.826-0.105
		c-0.271-0.07-0.514-0.182-0.728-0.336c-0.215-0.154-0.39-0.352-0.525-0.595c-0.135-0.242-0.203-0.537-0.203-0.882
		c0-0.495,0.126-0.887,0.378-1.176c0.252-0.29,0.562-0.506,0.931-0.651c0.369-0.145,0.761-0.238,1.176-0.28
		c0.415-0.042,0.782-0.063,1.099-0.063h0.98V11.98c0-0.56-0.173-0.961-0.518-1.204c-0.346-0.243-0.779-0.364-1.302-0.364
		c-0.747,0-1.405,0.243-1.974,0.728l-0.49-0.574c0.308-0.298,0.69-0.525,1.148-0.679c0.458-0.154,0.896-0.231,1.316-0.231
		c0.784,0,1.409,0.185,1.876,0.553s0.7,0.964,0.7,1.785V13.576z M59.487,13.044c-0.354,0-0.698,0.023-1.029,0.07
		c-0.332,0.047-0.63,0.126-0.896,0.238s-0.479,0.261-0.637,0.448c-0.159,0.187-0.238,0.42-0.238,0.7
		c0,0.196,0.044,0.371,0.133,0.525c0.089,0.154,0.203,0.28,0.343,0.378c0.14,0.098,0.296,0.173,0.469,0.224s0.348,0.077,0.525,0.077
		c0.448,0,0.816-0.065,1.106-0.196c0.289-0.13,0.52-0.301,0.693-0.511c0.172-0.21,0.292-0.448,0.357-0.714
		c0.065-0.266,0.098-0.534,0.098-0.805v-0.434H59.487z"/>
	<path fill="#243C5E" d="M63.226,9.824h0.84v1.134h0.028c0.13-0.224,0.294-0.417,0.49-0.581c0.196-0.163,0.408-0.298,0.637-0.406
		c0.229-0.107,0.469-0.187,0.721-0.238s0.5-0.077,0.742-0.077c0.495,0,0.95,0.084,1.365,0.252c0.415,0.168,0.774,0.404,1.078,0.707
		s0.539,0.663,0.707,1.078c0.168,0.416,0.252,0.871,0.252,1.365s-0.084,0.95-0.252,1.365c-0.168,0.416-0.404,0.775-0.707,1.078
		s-0.663,0.539-1.078,0.707c-0.416,0.168-0.871,0.252-1.365,0.252c-0.243,0-0.49-0.026-0.742-0.077s-0.492-0.13-0.721-0.238
		c-0.229-0.107-0.441-0.243-0.637-0.406c-0.196-0.163-0.359-0.357-0.49-0.581h-0.028v4.326h-0.84V9.824z M63.981,13.058
		c0,0.364,0.07,0.707,0.21,1.029c0.14,0.322,0.332,0.602,0.574,0.84c0.243,0.238,0.527,0.427,0.854,0.567
		c0.327,0.14,0.681,0.21,1.064,0.21c0.392,0,0.747-0.07,1.064-0.21c0.317-0.14,0.588-0.329,0.812-0.567
		c0.224-0.238,0.394-0.518,0.511-0.84c0.116-0.322,0.175-0.665,0.175-1.029c0-0.364-0.059-0.707-0.175-1.029
		c-0.117-0.322-0.287-0.602-0.511-0.84s-0.495-0.427-0.812-0.567s-0.672-0.21-1.064-0.21c-0.383,0-0.737,0.07-1.064,0.21
		s-0.611,0.329-0.854,0.567s-0.434,0.518-0.574,0.84C64.052,12.351,63.981,12.694,63.981,13.058z"/>
	<path fill="#243C5E" d="M71.779,9.824h0.84v1.134h0.028c0.13-0.224,0.294-0.417,0.49-0.581c0.196-0.163,0.408-0.298,0.637-0.406
		c0.229-0.107,0.469-0.187,0.721-0.238s0.5-0.077,0.742-0.077c0.495,0,0.95,0.084,1.365,0.252c0.415,0.168,0.774,0.404,1.078,0.707
		s0.539,0.663,0.707,1.078c0.168,0.416,0.252,0.871,0.252,1.365s-0.084,0.95-0.252,1.365c-0.168,0.416-0.404,0.775-0.707,1.078
		s-0.663,0.539-1.078,0.707c-0.416,0.168-0.871,0.252-1.365,0.252c-0.243,0-0.49-0.026-0.742-0.077s-0.492-0.13-0.721-0.238
		c-0.229-0.107-0.441-0.243-0.637-0.406c-0.196-0.163-0.359-0.357-0.49-0.581h-0.028v4.326h-0.84V9.824z M72.535,13.058
		c0,0.364,0.07,0.707,0.21,1.029c0.14,0.322,0.332,0.602,0.574,0.84c0.243,0.238,0.527,0.427,0.854,0.567
		c0.327,0.14,0.681,0.21,1.064,0.21c0.392,0,0.747-0.07,1.064-0.21c0.317-0.14,0.588-0.329,0.812-0.567
		c0.224-0.238,0.394-0.518,0.511-0.84c0.116-0.322,0.175-0.665,0.175-1.029c0-0.364-0.059-0.707-0.175-1.029
		c-0.117-0.322-0.287-0.602-0.511-0.84s-0.495-0.427-0.812-0.567s-0.672-0.21-1.064-0.21c-0.383,0-0.737,0.07-1.064,0.21
		s-0.611,0.329-0.854,0.567s-0.434,0.518-0.574,0.84C72.605,12.351,72.535,12.694,72.535,13.058z"/>
	<path fill="#243C5E" d="M85.541,13.576c0,0.317,0.002,0.602,0.007,0.854s0.012,0.485,0.021,0.7
		c0.009,0.215,0.021,0.416,0.035,0.602c0.014,0.187,0.035,0.374,0.063,0.56h-0.784c-0.056-0.317-0.084-0.667-0.084-1.05h-0.028
		c-0.243,0.42-0.544,0.728-0.903,0.924c-0.359,0.196-0.814,0.294-1.365,0.294c-0.28,0-0.555-0.035-0.826-0.105
		c-0.271-0.07-0.514-0.182-0.728-0.336c-0.215-0.154-0.39-0.352-0.525-0.595c-0.135-0.242-0.203-0.537-0.203-0.882
		c0-0.495,0.126-0.887,0.378-1.176c0.252-0.29,0.562-0.506,0.931-0.651c0.369-0.145,0.761-0.238,1.176-0.28
		c0.415-0.042,0.782-0.063,1.099-0.063h0.98V11.98c0-0.56-0.173-0.961-0.518-1.204c-0.346-0.243-0.779-0.364-1.302-0.364
		c-0.747,0-1.405,0.243-1.974,0.728l-0.49-0.574c0.308-0.298,0.69-0.525,1.148-0.679c0.458-0.154,0.896-0.231,1.316-0.231
		c0.784,0,1.409,0.185,1.876,0.553s0.7,0.964,0.7,1.785V13.576z M83.861,13.044c-0.354,0-0.698,0.023-1.029,0.07
		c-0.332,0.047-0.63,0.126-0.896,0.238s-0.479,0.261-0.637,0.448c-0.159,0.187-0.238,0.42-0.238,0.7
		c0,0.196,0.044,0.371,0.133,0.525c0.089,0.154,0.203,0.28,0.343,0.378c0.14,0.098,0.296,0.173,0.469,0.224s0.348,0.077,0.525,0.077
		c0.448,0,0.816-0.065,1.106-0.196c0.289-0.13,0.52-0.301,0.693-0.511c0.172-0.21,0.292-0.448,0.357-0.714
		c0.065-0.266,0.098-0.534,0.098-0.805v-0.434H83.861z"/>
	<path fill="#243C5E" d="M87.781,11.644c0-0.121-0.005-0.268-0.014-0.441s-0.017-0.348-0.021-0.525
		c-0.005-0.177-0.012-0.343-0.021-0.497c-0.009-0.154-0.014-0.273-0.014-0.357h0.84c0.009,0.243,0.016,0.476,0.021,0.7
		c0.004,0.224,0.016,0.369,0.035,0.434c0.215-0.383,0.49-0.695,0.826-0.938s0.747-0.364,1.232-0.364
		c0.084,0,0.166,0.007,0.245,0.021c0.079,0.014,0.161,0.031,0.245,0.049l-0.098,0.826c-0.112-0.037-0.219-0.056-0.322-0.056
		c-0.364,0-0.679,0.058-0.945,0.175s-0.485,0.278-0.658,0.483c-0.173,0.206-0.301,0.446-0.385,0.721s-0.126,0.572-0.126,0.889v3.528
		h-0.84V11.644z"/>
	<path fill="#243C5E" d="M97.903,15.074c-0.327,0.495-0.73,0.849-1.211,1.064c-0.481,0.214-1.011,0.322-1.589,0.322
		c-0.495,0-0.943-0.084-1.344-0.252s-0.747-0.404-1.036-0.707c-0.289-0.303-0.511-0.663-0.665-1.078
		c-0.154-0.415-0.231-0.875-0.231-1.379c0-0.485,0.079-0.933,0.238-1.344c0.159-0.411,0.382-0.768,0.672-1.071
		c0.289-0.303,0.63-0.541,1.022-0.714s0.826-0.259,1.302-0.259c0.494,0,0.931,0.086,1.309,0.259s0.695,0.401,0.952,0.686
		s0.45,0.609,0.581,0.973c0.13,0.364,0.196,0.732,0.196,1.106v0.588h-5.432c0,0.177,0.035,0.404,0.105,0.679
		c0.07,0.275,0.198,0.544,0.385,0.805s0.436,0.485,0.749,0.672c0.312,0.187,0.716,0.28,1.211,0.28c0.429,0,0.845-0.103,1.246-0.308
		c0.401-0.205,0.709-0.485,0.924-0.84L97.903,15.074z M97.259,12.512c0-0.29-0.059-0.56-0.175-0.812
		c-0.117-0.252-0.275-0.474-0.476-0.665s-0.439-0.343-0.714-0.455c-0.276-0.112-0.567-0.168-0.875-0.168
		c-0.458,0-0.838,0.093-1.141,0.28c-0.304,0.187-0.544,0.401-0.721,0.644s-0.303,0.479-0.378,0.707
		c-0.075,0.229-0.112,0.385-0.112,0.469H97.259z"/>
	<path fill="#243C5E" d="M99.905,7.262c0-0.177,0.061-0.327,0.182-0.448c0.121-0.121,0.271-0.182,0.448-0.182
		c0.177,0,0.327,0.061,0.448,0.182c0.121,0.122,0.182,0.271,0.182,0.448s-0.061,0.327-0.182,0.448
		c-0.121,0.122-0.271,0.182-0.448,0.182c-0.178,0-0.327-0.061-0.448-0.182C99.966,7.589,99.905,7.439,99.905,7.262z M100.115,9.824
		h0.84v6.468h-0.84V9.824z"/>
	<path fill="#243C5E" d="M103.475,5.708h0.84v10.584h-0.84V5.708z"/>
	<path fill="#243C5E" d="M109.957,5.876l0.728,0.252l-4.242,10.668l-0.742-0.252L109.957,5.876z"/>
	<path fill="#243C5E" d="M116.901,13.576c0,0.317,0.002,0.602,0.007,0.854s0.012,0.485,0.021,0.7
		c0.009,0.215,0.021,0.416,0.035,0.602c0.014,0.187,0.035,0.374,0.063,0.56h-0.784c-0.056-0.317-0.084-0.667-0.084-1.05h-0.028
		c-0.243,0.42-0.544,0.728-0.903,0.924c-0.359,0.196-0.814,0.294-1.365,0.294c-0.28,0-0.555-0.035-0.826-0.105
		c-0.271-0.07-0.514-0.182-0.728-0.336c-0.215-0.154-0.39-0.352-0.525-0.595c-0.135-0.242-0.203-0.537-0.203-0.882
		c0-0.495,0.126-0.887,0.378-1.176c0.252-0.29,0.562-0.506,0.931-0.651c0.369-0.145,0.761-0.238,1.176-0.28
		c0.415-0.042,0.782-0.063,1.099-0.063h0.98V11.98c0-0.56-0.173-0.961-0.518-1.204c-0.346-0.243-0.779-0.364-1.302-0.364
		c-0.747,0-1.405,0.243-1.974,0.728l-0.49-0.574c0.308-0.298,0.69-0.525,1.148-0.679c0.458-0.154,0.896-0.231,1.316-0.231
		c0.784,0,1.409,0.185,1.876,0.553s0.7,0.964,0.7,1.785V13.576z M115.221,13.044c-0.354,0-0.698,0.023-1.029,0.07
		c-0.332,0.047-0.63,0.126-0.896,0.238s-0.479,0.261-0.637,0.448c-0.159,0.187-0.238,0.42-0.238,0.7
		c0,0.196,0.044,0.371,0.133,0.525c0.089,0.154,0.203,0.28,0.343,0.378c0.14,0.098,0.296,0.173,0.469,0.224s0.348,0.077,0.525,0.077
		c0.448,0,0.816-0.065,1.106-0.196c0.289-0.13,0.52-0.301,0.693-0.511c0.172-0.21,0.292-0.448,0.357-0.714
		c0.065-0.266,0.098-0.534,0.098-0.805v-0.434H115.221z"/>
	<path fill="#243C5E" d="M119.141,11.644c0-0.121-0.005-0.268-0.014-0.441s-0.017-0.348-0.021-0.525
		c-0.005-0.177-0.012-0.343-0.021-0.497c-0.009-0.154-0.014-0.273-0.014-0.357h0.84c0.009,0.243,0.016,0.476,0.021,0.7
		c0.004,0.224,0.016,0.369,0.035,0.434h0.042c0.168-0.354,0.448-0.66,0.84-0.917s0.849-0.385,1.372-0.385
		c0.504,0,0.915,0.08,1.232,0.238c0.317,0.159,0.567,0.366,0.749,0.623c0.182,0.257,0.308,0.553,0.378,0.889
		c0.07,0.336,0.105,0.682,0.105,1.036v3.85h-0.84v-3.808c0-0.261-0.023-0.516-0.07-0.763c-0.047-0.248-0.128-0.469-0.245-0.665
		c-0.117-0.196-0.28-0.353-0.49-0.469s-0.483-0.175-0.819-0.175c-0.308,0-0.6,0.054-0.875,0.161
		c-0.275,0.107-0.514,0.271-0.714,0.49s-0.359,0.495-0.476,0.826c-0.117,0.331-0.175,0.721-0.175,1.169v3.234h-0.84V11.644z"/>
	<path fill="#243C5E" d="M132.917,6.492c-0.308,0.383-0.574,0.81-0.798,1.281c-0.224,0.472-0.413,0.959-0.567,1.463
		c-0.154,0.504-0.269,1.013-0.343,1.526c-0.075,0.513-0.112,1.013-0.112,1.498c0,1.092,0.159,2.105,0.476,3.038
		c0.317,0.934,0.765,1.853,1.344,2.758l-0.658,0.419c-0.327-0.447-0.614-0.925-0.861-1.434c-0.248-0.509-0.455-1.029-0.623-1.561
		s-0.296-1.068-0.385-1.61s-0.133-1.078-0.133-1.61c0-1.11,0.17-2.207,0.511-3.29c0.34-1.083,0.819-2.058,1.435-2.926L132.917,6.492
		z"/>
	<path fill="#243C5E" d="M134.206,5.708h0.84v7.056l3.192-2.926h1.232l-3.332,2.954l3.724,3.5h-1.274l-3.542-3.416v3.416h-0.84
		V5.708z"/>
	<path fill="#243C5E" d="M139.889,6.38h0.952l2.464,8.778h0.028l2.506-8.778h1.176l2.506,8.778h0.028l2.464-8.778h0.952
		l-2.884,9.912h-1.134l-2.506-8.82h-0.028l-2.506,8.82h-1.134L139.889,6.38z"/>
	<path fill="#243C5E" d="M154.155,5.708h0.84v5.25h0.028c0.168-0.354,0.448-0.66,0.84-0.917s0.849-0.385,1.372-0.385
		c0.504,0,0.915,0.08,1.232,0.238c0.317,0.159,0.567,0.366,0.749,0.623c0.182,0.257,0.308,0.553,0.378,0.889
		c0.07,0.336,0.105,0.682,0.105,1.036v3.85h-0.84v-3.808c0-0.261-0.023-0.516-0.07-0.763c-0.047-0.248-0.128-0.469-0.245-0.665
		c-0.117-0.196-0.28-0.353-0.49-0.469s-0.483-0.175-0.819-0.175c-0.308,0-0.6,0.054-0.875,0.161
		c-0.275,0.107-0.514,0.271-0.714,0.49s-0.359,0.495-0.476,0.826c-0.117,0.331-0.175,0.721-0.175,1.169v3.234h-0.84V5.708z"/>
	<path fill="#243C5E" d="M160.987,18.028c0.308-0.383,0.574-0.807,0.798-1.274c0.224-0.466,0.413-0.952,0.567-1.456
		c0.154-0.504,0.268-1.015,0.343-1.533s0.112-1.02,0.112-1.505c0-0.541-0.042-1.064-0.126-1.568s-0.203-0.994-0.357-1.47
		c-0.154-0.476-0.343-0.94-0.567-1.393s-0.481-0.908-0.77-1.365l0.658-0.42c0.327,0.448,0.613,0.926,0.861,1.435
		c0.247,0.509,0.455,1.029,0.623,1.561c0.168,0.532,0.296,1.069,0.385,1.61c0.089,0.542,0.133,1.078,0.133,1.61
		c0,1.111-0.17,2.208-0.511,3.29c-0.341,1.083-0.819,2.058-1.435,2.925L160.987,18.028z"/>
	<path fill="#243C5E" d="M192.18,14.738c-0.476,0.644-1.027,1.106-1.652,1.386c-0.625,0.28-1.302,0.42-2.03,0.42
		c-0.756,0-1.449-0.128-2.079-0.385c-0.63-0.257-1.169-0.616-1.617-1.078c-0.448-0.462-0.798-1.013-1.05-1.652
		c-0.252-0.639-0.378-1.337-0.378-2.093s0.126-1.451,0.378-2.086c0.252-0.635,0.602-1.183,1.05-1.645
		c0.448-0.462,0.987-0.824,1.617-1.085c0.63-0.261,1.323-0.392,2.079-0.392c0.672,0,1.3,0.119,1.883,0.357
		c0.583,0.238,1.094,0.637,1.533,1.197l-0.756,0.63c-0.308-0.467-0.703-0.807-1.183-1.022c-0.481-0.215-0.973-0.322-1.477-0.322
		c-0.644,0-1.225,0.112-1.743,0.336c-0.518,0.224-0.959,0.532-1.323,0.924c-0.364,0.392-0.644,0.854-0.84,1.386
		c-0.196,0.532-0.294,1.106-0.294,1.722c0,0.616,0.098,1.19,0.294,1.722c0.196,0.532,0.476,0.994,0.84,1.386
		c0.364,0.392,0.805,0.7,1.323,0.924c0.518,0.224,1.099,0.336,1.743,0.336c0.252,0,0.513-0.03,0.784-0.091
		c0.271-0.061,0.534-0.154,0.791-0.28c0.256-0.126,0.501-0.285,0.735-0.476c0.233-0.191,0.438-0.422,0.616-0.693L192.18,14.738z"/>
	<path fill="#243C5E" d="M193.272,13.058c0-0.495,0.084-0.95,0.252-1.365c0.168-0.415,0.401-0.774,0.7-1.078
		s0.658-0.539,1.078-0.707s0.877-0.252,1.372-0.252c0.495,0,0.949,0.084,1.365,0.252c0.415,0.168,0.774,0.404,1.078,0.707
		c0.303,0.303,0.539,0.663,0.707,1.078c0.168,0.416,0.252,0.871,0.252,1.365s-0.084,0.95-0.252,1.365
		c-0.168,0.416-0.404,0.775-0.707,1.078c-0.304,0.303-0.663,0.539-1.078,0.707c-0.416,0.168-0.87,0.252-1.365,0.252
		c-0.495,0-0.952-0.084-1.372-0.252s-0.779-0.404-1.078-0.707s-0.532-0.663-0.7-1.078C193.356,14.008,193.272,13.553,193.272,13.058
		z M194.112,13.058c0,0.364,0.058,0.707,0.175,1.029c0.117,0.322,0.287,0.602,0.511,0.84c0.224,0.238,0.494,0.427,0.812,0.567
		c0.317,0.14,0.672,0.21,1.064,0.21c0.392,0,0.747-0.07,1.064-0.21c0.317-0.14,0.588-0.329,0.812-0.567
		c0.224-0.238,0.394-0.518,0.511-0.84c0.117-0.322,0.175-0.665,0.175-1.029c0-0.364-0.059-0.707-0.175-1.029
		c-0.117-0.322-0.287-0.602-0.511-0.84c-0.224-0.238-0.495-0.427-0.812-0.567c-0.317-0.14-0.672-0.21-1.064-0.21
		c-0.392,0-0.747,0.07-1.064,0.21c-0.318,0.14-0.588,0.329-0.812,0.567c-0.224,0.238-0.395,0.518-0.511,0.84
		C194.17,12.351,194.112,12.694,194.112,13.058z"/>
	<path fill="#243C5E" d="M201.952,11.644c0-0.121-0.005-0.268-0.014-0.441s-0.017-0.348-0.021-0.525
		c-0.005-0.177-0.012-0.343-0.021-0.497c-0.009-0.154-0.014-0.273-0.014-0.357h0.84c0.009,0.243,0.016,0.476,0.021,0.7
		c0.004,0.224,0.016,0.369,0.035,0.434h0.042c0.168-0.354,0.448-0.66,0.84-0.917s0.849-0.385,1.372-0.385
		c0.504,0,0.915,0.08,1.232,0.238c0.317,0.159,0.567,0.366,0.749,0.623c0.182,0.257,0.308,0.553,0.378,0.889
		c0.07,0.336,0.105,0.682,0.105,1.036v3.85h-0.84v-3.808c0-0.261-0.023-0.516-0.07-0.763c-0.047-0.248-0.128-0.469-0.245-0.665
		c-0.117-0.196-0.28-0.353-0.49-0.469s-0.483-0.175-0.819-0.175c-0.308,0-0.6,0.054-0.875,0.161
		c-0.275,0.107-0.514,0.271-0.714,0.49s-0.359,0.495-0.476,0.826c-0.117,0.331-0.175,0.721-0.175,1.169v3.234h-0.84V11.644z"/>
	<path fill="#243C5E" d="M209.75,14.64c0.177,0.345,0.439,0.609,0.784,0.791c0.345,0.182,0.709,0.273,1.092,0.273
		c0.177,0,0.355-0.028,0.532-0.084c0.177-0.056,0.336-0.135,0.476-0.238c0.14-0.103,0.254-0.226,0.343-0.371
		c0.089-0.145,0.133-0.311,0.133-0.497c0-0.299-0.096-0.523-0.287-0.672c-0.191-0.149-0.427-0.266-0.707-0.35
		s-0.588-0.156-0.924-0.217c-0.336-0.061-0.644-0.154-0.924-0.28c-0.28-0.126-0.516-0.301-0.707-0.525
		c-0.191-0.224-0.287-0.542-0.287-0.952c0-0.317,0.065-0.593,0.196-0.826c0.13-0.233,0.301-0.427,0.511-0.581
		c0.21-0.154,0.445-0.268,0.707-0.343s0.527-0.112,0.798-0.112c0.532,0,0.992,0.098,1.379,0.294
		c0.387,0.196,0.688,0.504,0.903,0.924l-0.756,0.448c-0.159-0.298-0.357-0.525-0.595-0.679c-0.238-0.154-0.548-0.231-0.931-0.231
		c-0.149,0-0.306,0.023-0.469,0.07c-0.163,0.047-0.31,0.112-0.441,0.196c-0.131,0.084-0.24,0.191-0.329,0.322
		c-0.089,0.131-0.133,0.28-0.133,0.448c0,0.29,0.096,0.504,0.287,0.644c0.191,0.14,0.427,0.25,0.707,0.329
		c0.28,0.08,0.588,0.147,0.924,0.203s0.644,0.147,0.924,0.273c0.28,0.126,0.516,0.308,0.707,0.546
		c0.191,0.238,0.287,0.577,0.287,1.015c0,0.336-0.063,0.628-0.189,0.875c-0.126,0.248-0.299,0.455-0.518,0.623
		s-0.469,0.294-0.749,0.378c-0.28,0.084-0.574,0.126-0.882,0.126c-0.56,0-1.071-0.107-1.533-0.322
		c-0.462-0.215-0.819-0.546-1.071-0.994L209.75,14.64z"/>
	<path fill="#243C5E" d="M215.336,13.058c0-0.495,0.084-0.95,0.252-1.365c0.168-0.415,0.401-0.774,0.7-1.078
		s0.658-0.539,1.078-0.707s0.877-0.252,1.372-0.252c0.495,0,0.949,0.084,1.365,0.252c0.415,0.168,0.774,0.404,1.078,0.707
		c0.303,0.303,0.539,0.663,0.707,1.078c0.168,0.416,0.252,0.871,0.252,1.365s-0.084,0.95-0.252,1.365
		c-0.168,0.416-0.404,0.775-0.707,1.078c-0.304,0.303-0.663,0.539-1.078,0.707c-0.416,0.168-0.87,0.252-1.365,0.252
		c-0.495,0-0.952-0.084-1.372-0.252s-0.779-0.404-1.078-0.707s-0.532-0.663-0.7-1.078C215.42,14.008,215.336,13.553,215.336,13.058z
		 M216.176,13.058c0,0.364,0.058,0.707,0.175,1.029c0.117,0.322,0.287,0.602,0.511,0.84c0.224,0.238,0.494,0.427,0.812,0.567
		c0.317,0.14,0.672,0.21,1.064,0.21c0.392,0,0.747-0.07,1.064-0.21c0.317-0.14,0.588-0.329,0.812-0.567
		c0.224-0.238,0.394-0.518,0.511-0.84c0.117-0.322,0.175-0.665,0.175-1.029c0-0.364-0.059-0.707-0.175-1.029
		c-0.117-0.322-0.287-0.602-0.511-0.84c-0.224-0.238-0.495-0.427-0.812-0.567c-0.317-0.14-0.672-0.21-1.064-0.21
		c-0.392,0-0.747,0.07-1.064,0.21c-0.318,0.14-0.588,0.329-0.812,0.567c-0.224,0.238-0.395,0.518-0.511,0.84
		C216.234,12.351,216.176,12.694,216.176,13.058z"/>
	<path fill="#243C5E" d="M224.044,15.704c0-0.187,0.065-0.345,0.196-0.476c0.13-0.131,0.289-0.196,0.476-0.196
		c0.187,0,0.345,0.065,0.476,0.196s0.196,0.29,0.196,0.476s-0.065,0.345-0.196,0.476c-0.131,0.13-0.289,0.196-0.476,0.196
		c-0.187,0-0.345-0.065-0.476-0.196C224.109,16.049,224.044,15.891,224.044,15.704z"/>
	<path fill="#243C5E" d="M231.31,14.64c0.177,0.345,0.439,0.609,0.784,0.791c0.345,0.182,0.709,0.273,1.092,0.273
		c0.177,0,0.355-0.028,0.532-0.084c0.177-0.056,0.336-0.135,0.476-0.238c0.14-0.103,0.254-0.226,0.343-0.371
		c0.089-0.145,0.133-0.311,0.133-0.497c0-0.299-0.096-0.523-0.287-0.672c-0.191-0.149-0.427-0.266-0.707-0.35
		s-0.588-0.156-0.924-0.217c-0.336-0.061-0.644-0.154-0.924-0.28c-0.28-0.126-0.516-0.301-0.707-0.525
		c-0.191-0.224-0.287-0.542-0.287-0.952c0-0.317,0.065-0.593,0.196-0.826c0.13-0.233,0.301-0.427,0.511-0.581
		c0.21-0.154,0.445-0.268,0.707-0.343s0.527-0.112,0.798-0.112c0.532,0,0.992,0.098,1.379,0.294
		c0.387,0.196,0.688,0.504,0.903,0.924l-0.756,0.448c-0.159-0.298-0.357-0.525-0.595-0.679c-0.238-0.154-0.548-0.231-0.931-0.231
		c-0.149,0-0.306,0.023-0.469,0.07c-0.163,0.047-0.31,0.112-0.441,0.196c-0.131,0.084-0.24,0.191-0.329,0.322
		c-0.089,0.131-0.133,0.28-0.133,0.448c0,0.29,0.096,0.504,0.287,0.644c0.191,0.14,0.427,0.25,0.707,0.329
		c0.28,0.08,0.588,0.147,0.924,0.203s0.644,0.147,0.924,0.273c0.28,0.126,0.516,0.308,0.707,0.546
		c0.191,0.238,0.287,0.577,0.287,1.015c0,0.336-0.063,0.628-0.189,0.875c-0.126,0.248-0.299,0.455-0.518,0.623
		s-0.469,0.294-0.749,0.378c-0.28,0.084-0.574,0.126-0.882,0.126c-0.56,0-1.071-0.107-1.533-0.322
		c-0.462-0.215-0.819-0.546-1.071-0.994L231.31,14.64z"/>
	<path fill="#243C5E" d="M242.972,15.074c-0.327,0.495-0.73,0.849-1.211,1.064c-0.481,0.214-1.011,0.322-1.589,0.322
		c-0.495,0-0.943-0.084-1.344-0.252s-0.747-0.404-1.036-0.707c-0.289-0.303-0.511-0.663-0.665-1.078
		c-0.154-0.415-0.231-0.875-0.231-1.379c0-0.485,0.079-0.933,0.238-1.344c0.159-0.411,0.382-0.768,0.672-1.071
		c0.289-0.303,0.63-0.541,1.022-0.714s0.826-0.259,1.302-0.259c0.494,0,0.931,0.086,1.309,0.259s0.695,0.401,0.952,0.686
		s0.45,0.609,0.581,0.973c0.13,0.364,0.196,0.732,0.196,1.106v0.588h-5.432c0,0.177,0.035,0.404,0.105,0.679
		c0.07,0.275,0.198,0.544,0.385,0.805s0.436,0.485,0.749,0.672c0.312,0.187,0.716,0.28,1.211,0.28c0.429,0,0.845-0.103,1.246-0.308
		c0.401-0.205,0.709-0.485,0.924-0.84L242.972,15.074z M242.328,12.512c0-0.29-0.059-0.56-0.175-0.812
		c-0.117-0.252-0.275-0.474-0.476-0.665s-0.439-0.343-0.714-0.455c-0.276-0.112-0.567-0.168-0.875-0.168
		c-0.458,0-0.838,0.093-1.141,0.28c-0.304,0.187-0.544,0.401-0.721,0.644s-0.303,0.479-0.378,0.707
		c-0.075,0.229-0.112,0.385-0.112,0.469H242.328z"/>
	<path fill="#243C5E" d="M245.184,5.708h0.84v10.584h-0.84V5.708z"/>
	<path fill="#243C5E" d="M248.04,13.058c0-0.495,0.084-0.95,0.252-1.365c0.168-0.415,0.401-0.774,0.7-1.078s0.658-0.539,1.078-0.707
		s0.877-0.252,1.372-0.252c0.495,0,0.949,0.084,1.365,0.252c0.415,0.168,0.774,0.404,1.078,0.707
		c0.303,0.303,0.539,0.663,0.707,1.078c0.168,0.416,0.252,0.871,0.252,1.365s-0.084,0.95-0.252,1.365
		c-0.168,0.416-0.404,0.775-0.707,1.078c-0.304,0.303-0.663,0.539-1.078,0.707c-0.416,0.168-0.87,0.252-1.365,0.252
		c-0.495,0-0.952-0.084-1.372-0.252s-0.779-0.404-1.078-0.707s-0.532-0.663-0.7-1.078C248.124,14.008,248.04,13.553,248.04,13.058z
		 M248.88,13.058c0,0.364,0.058,0.707,0.175,1.029c0.117,0.322,0.287,0.602,0.511,0.84c0.224,0.238,0.494,0.427,0.812,0.567
		c0.317,0.14,0.672,0.21,1.064,0.21c0.392,0,0.747-0.07,1.064-0.21c0.317-0.14,0.588-0.329,0.812-0.567
		c0.224-0.238,0.394-0.518,0.511-0.84c0.117-0.322,0.175-0.665,0.175-1.029c0-0.364-0.059-0.707-0.175-1.029
		c-0.117-0.322-0.287-0.602-0.511-0.84c-0.224-0.238-0.495-0.427-0.812-0.567c-0.317-0.14-0.672-0.21-1.064-0.21
		c-0.392,0-0.747,0.07-1.064,0.21c-0.318,0.14-0.588,0.329-0.812,0.567c-0.224,0.238-0.395,0.518-0.511,0.84
		C248.938,12.351,248.88,12.694,248.88,13.058z"/>
	<path fill="#243C5E" d="M256.72,11.644c0-0.121-0.005-0.268-0.014-0.441s-0.017-0.348-0.021-0.525
		c-0.005-0.177-0.012-0.343-0.021-0.497c-0.009-0.154-0.014-0.273-0.014-0.357h0.84c0.009,0.243,0.016,0.476,0.021,0.7
		c0.004,0.224,0.016,0.369,0.035,0.434h0.042c0.168-0.354,0.448-0.66,0.84-0.917s0.849-0.385,1.372-0.385
		c0.504,0,0.915,0.08,1.232,0.238c0.317,0.159,0.567,0.366,0.749,0.623c0.182,0.257,0.308,0.553,0.378,0.889
		c0.07,0.336,0.105,0.682,0.105,1.036v3.85h-0.84v-3.808c0-0.261-0.023-0.516-0.07-0.763c-0.047-0.248-0.128-0.469-0.245-0.665
		c-0.117-0.196-0.28-0.353-0.49-0.469s-0.483-0.175-0.819-0.175c-0.308,0-0.6,0.054-0.875,0.161
		c-0.275,0.107-0.514,0.271-0.714,0.49s-0.359,0.495-0.476,0.826c-0.117,0.331-0.175,0.721-0.175,1.169v3.234h-0.84V11.644z"/>
	<path fill="#243C5E" d="M267.962,9.824h0.84v1.134h0.027c0.131-0.224,0.294-0.417,0.49-0.581c0.196-0.163,0.408-0.298,0.637-0.406
		s0.47-0.187,0.722-0.238s0.499-0.077,0.742-0.077c0.494,0,0.949,0.084,1.364,0.252s0.774,0.404,1.078,0.707
		s0.539,0.663,0.707,1.078c0.168,0.416,0.252,0.871,0.252,1.365s-0.084,0.95-0.252,1.365c-0.168,0.416-0.403,0.775-0.707,1.078
		s-0.663,0.539-1.078,0.707s-0.87,0.252-1.364,0.252c-0.243,0-0.49-0.026-0.742-0.077s-0.493-0.13-0.722-0.238
		s-0.44-0.243-0.637-0.406c-0.196-0.163-0.359-0.357-0.49-0.581h-0.027v4.326h-0.84V9.824z M268.718,13.058
		c0,0.364,0.069,0.707,0.21,1.029c0.14,0.322,0.331,0.602,0.573,0.84c0.243,0.238,0.527,0.427,0.854,0.567
		c0.326,0.14,0.682,0.21,1.064,0.21c0.392,0,0.746-0.07,1.063-0.21c0.317-0.14,0.588-0.329,0.812-0.567
		c0.224-0.238,0.394-0.518,0.511-0.84c0.116-0.322,0.175-0.665,0.175-1.029c0-0.364-0.059-0.707-0.175-1.029
		c-0.117-0.322-0.287-0.602-0.511-0.84c-0.225-0.238-0.495-0.427-0.812-0.567s-0.672-0.21-1.063-0.21
		c-0.383,0-0.738,0.07-1.064,0.21c-0.327,0.14-0.611,0.329-0.854,0.567c-0.242,0.238-0.434,0.518-0.573,0.84
		C268.787,12.351,268.718,12.694,268.718,13.058z"/>
	<path fill="#243C5E" d="M282.409,15.074c-0.327,0.495-0.73,0.849-1.211,1.064c-0.48,0.214-1.011,0.322-1.589,0.322
		c-0.495,0-0.943-0.084-1.344-0.252c-0.402-0.168-0.747-0.404-1.036-0.707c-0.29-0.303-0.512-0.663-0.665-1.078
		c-0.154-0.415-0.231-0.875-0.231-1.379c0-0.485,0.079-0.933,0.238-1.344c0.158-0.411,0.383-0.768,0.672-1.071
		c0.289-0.303,0.63-0.541,1.022-0.714c0.392-0.173,0.825-0.259,1.302-0.259c0.494,0,0.931,0.086,1.309,0.259
		s0.695,0.401,0.952,0.686s0.45,0.609,0.581,0.973c0.131,0.364,0.196,0.732,0.196,1.106v0.588h-5.433
		c0,0.177,0.035,0.404,0.105,0.679c0.07,0.275,0.198,0.544,0.385,0.805s0.437,0.485,0.749,0.672c0.312,0.187,0.716,0.28,1.211,0.28
		c0.43,0,0.845-0.103,1.246-0.308c0.401-0.205,0.709-0.485,0.924-0.84L282.409,15.074z M281.766,12.512
		c0-0.29-0.059-0.56-0.176-0.812c-0.116-0.252-0.275-0.474-0.476-0.665c-0.201-0.191-0.438-0.343-0.714-0.455
		c-0.275-0.112-0.567-0.168-0.875-0.168c-0.458,0-0.838,0.093-1.142,0.28c-0.303,0.187-0.543,0.401-0.721,0.644
		s-0.304,0.479-0.378,0.707c-0.075,0.229-0.112,0.385-0.112,0.469H281.766z M280.113,6.38h1.12l-1.876,2.016h-0.7L280.113,6.38z"/>
	<path fill="#243C5E" d="M284.481,11.644c0-0.121-0.005-0.268-0.014-0.441c-0.01-0.173-0.017-0.348-0.021-0.525
		s-0.012-0.343-0.021-0.497c-0.01-0.154-0.015-0.273-0.015-0.357h0.84c0.01,0.243,0.017,0.476,0.021,0.7s0.016,0.369,0.035,0.434
		c0.214-0.383,0.489-0.695,0.826-0.938c0.336-0.243,0.746-0.364,1.231-0.364c0.084,0,0.166,0.007,0.245,0.021
		c0.079,0.014,0.161,0.031,0.245,0.049l-0.098,0.826c-0.112-0.037-0.22-0.056-0.322-0.056c-0.364,0-0.68,0.058-0.945,0.175
		s-0.485,0.278-0.658,0.483c-0.173,0.206-0.301,0.446-0.385,0.721s-0.126,0.572-0.126,0.889v3.528h-0.84V11.644z"/>
	<path fill="#243C5E" d="M289.073,7.262c0-0.177,0.061-0.327,0.183-0.448c0.121-0.121,0.271-0.182,0.447-0.182
		c0.178,0,0.327,0.061,0.448,0.182c0.121,0.122,0.182,0.271,0.182,0.448s-0.061,0.327-0.182,0.448
		c-0.121,0.122-0.271,0.182-0.448,0.182c-0.177,0-0.326-0.061-0.447-0.182C289.134,7.589,289.073,7.439,289.073,7.262z
		 M289.283,9.824h0.84v6.468h-0.84V9.824z"/>
	<path fill="#243C5E" d="M292.14,13.058c0-0.495,0.084-0.95,0.252-1.365c0.168-0.415,0.401-0.774,0.7-1.078s0.658-0.539,1.078-0.707
		s0.877-0.252,1.372-0.252c0.494,0,0.949,0.084,1.365,0.252c0.415,0.168,0.774,0.404,1.077,0.707
		c0.304,0.303,0.539,0.663,0.707,1.078c0.168,0.416,0.252,0.871,0.252,1.365s-0.084,0.95-0.252,1.365
		c-0.168,0.416-0.403,0.775-0.707,1.078c-0.303,0.303-0.662,0.539-1.077,0.707c-0.416,0.168-0.871,0.252-1.365,0.252
		c-0.495,0-0.952-0.084-1.372-0.252s-0.779-0.404-1.078-0.707s-0.532-0.663-0.7-1.078C292.224,14.008,292.14,13.553,292.14,13.058z
		 M292.979,13.058c0,0.364,0.059,0.707,0.176,1.029c0.116,0.322,0.286,0.602,0.511,0.84c0.224,0.238,0.494,0.427,0.812,0.567
		c0.317,0.14,0.672,0.21,1.064,0.21c0.392,0,0.746-0.07,1.063-0.21c0.317-0.14,0.588-0.329,0.812-0.567
		c0.224-0.238,0.394-0.518,0.511-0.84c0.116-0.322,0.175-0.665,0.175-1.029c0-0.364-0.059-0.707-0.175-1.029
		c-0.117-0.322-0.287-0.602-0.511-0.84c-0.225-0.238-0.495-0.427-0.812-0.567s-0.672-0.21-1.063-0.21
		c-0.393,0-0.747,0.07-1.064,0.21s-0.588,0.329-0.812,0.567c-0.225,0.238-0.395,0.518-0.511,0.84
		C293.038,12.351,292.979,12.694,292.979,13.058z"/>
	<path fill="#243C5E" d="M306.477,15.158h-0.028c-0.131,0.224-0.294,0.417-0.49,0.581c-0.196,0.164-0.408,0.299-0.637,0.406
		s-0.469,0.187-0.721,0.238s-0.5,0.077-0.742,0.077c-0.495,0-0.952-0.084-1.372-0.252s-0.779-0.404-1.078-0.707
		s-0.532-0.663-0.7-1.078c-0.168-0.415-0.252-0.87-0.252-1.365s0.084-0.95,0.252-1.365c0.168-0.415,0.401-0.774,0.7-1.078
		s0.658-0.539,1.078-0.707s0.877-0.252,1.372-0.252c0.242,0,0.49,0.026,0.742,0.077s0.492,0.131,0.721,0.238s0.44,0.243,0.637,0.406
		c0.196,0.164,0.359,0.357,0.49,0.581h0.028v-5.25h0.84v10.584h-0.84V15.158z M306.561,13.058c0-0.364-0.07-0.707-0.21-1.029
		c-0.141-0.322-0.332-0.602-0.574-0.84c-0.243-0.238-0.527-0.427-0.854-0.567c-0.326-0.14-0.681-0.21-1.063-0.21
		c-0.393,0-0.747,0.07-1.064,0.21s-0.588,0.329-0.812,0.567c-0.225,0.238-0.395,0.518-0.511,0.84
		c-0.117,0.322-0.176,0.665-0.176,1.029c0,0.364,0.059,0.707,0.176,1.029c0.116,0.322,0.286,0.602,0.511,0.84
		c0.224,0.238,0.494,0.427,0.812,0.567c0.317,0.14,0.672,0.21,1.064,0.21c0.383,0,0.737-0.07,1.063-0.21
		c0.327-0.14,0.611-0.329,0.854-0.567c0.242-0.238,0.434-0.518,0.574-0.84C306.49,13.765,306.561,13.422,306.561,13.058z"/>
	<path fill="#243C5E" d="M315.086,15.074c-0.327,0.495-0.73,0.849-1.211,1.064c-0.48,0.214-1.011,0.322-1.589,0.322
		c-0.495,0-0.943-0.084-1.344-0.252c-0.402-0.168-0.747-0.404-1.036-0.707c-0.29-0.303-0.512-0.663-0.665-1.078
		c-0.154-0.415-0.231-0.875-0.231-1.379c0-0.485,0.079-0.933,0.238-1.344c0.158-0.411,0.383-0.768,0.672-1.071
		c0.289-0.303,0.63-0.541,1.022-0.714c0.392-0.173,0.825-0.259,1.302-0.259c0.494,0,0.931,0.086,1.309,0.259
		s0.695,0.401,0.952,0.686s0.45,0.609,0.581,0.973c0.131,0.364,0.196,0.732,0.196,1.106v0.588h-5.433
		c0,0.177,0.035,0.404,0.105,0.679c0.07,0.275,0.198,0.544,0.385,0.805s0.437,0.485,0.749,0.672c0.312,0.187,0.716,0.28,1.211,0.28
		c0.43,0,0.845-0.103,1.246-0.308c0.401-0.205,0.709-0.485,0.924-0.84L315.086,15.074z M314.442,12.512
		c0-0.29-0.059-0.56-0.176-0.812c-0.116-0.252-0.275-0.474-0.476-0.665c-0.201-0.191-0.438-0.343-0.714-0.455
		c-0.275-0.112-0.567-0.168-0.875-0.168c-0.458,0-0.838,0.093-1.142,0.28c-0.303,0.187-0.543,0.401-0.721,0.644
		s-0.304,0.479-0.378,0.707c-0.075,0.229-0.112,0.385-0.112,0.469H314.442z"/>
</g>
</svg>
