<?xml version="1.0" encoding="utf-8"?>
<!-- Generator: Adobe Illustrator 16.0.0, SVG Export Plug-In . SVG Version: 6.00 Build 0)  -->
<!DOCTYPE svg PUBLIC "-//W3C//DTD SVG 1.1//EN" "http://www.w3.org/Graphics/SVG/1.1/DTD/svg11.dtd">
<svg version="1.1" id="Calque_1" xmlns="http://www.w3.org/2000/svg" xmlns:xlink="http://www.w3.org/1999/xlink" x="0px" y="0px"
	 width="340px" height="37.2px" viewBox="0 0 340 37.2" enable-background="new 0 0 340 37.2" xml:space="preserve">
<g>
	<path fill="#243C5E" d="M12.262,6.284c-0.34-0.442-0.771-0.782-1.292-1.02c-0.521-0.238-1.06-0.357-1.615-0.357
		c-0.68,0-1.295,0.127-1.845,0.382C6.96,5.545,6.49,5.893,6.099,6.335c-0.391,0.442-0.694,0.96-0.91,1.555
		C4.974,8.486,4.867,9.123,4.867,9.803c0,0.635,0.102,1.235,0.306,1.802c0.204,0.566,0.499,1.065,0.884,1.496
		c0.385,0.431,0.855,0.771,1.411,1.02c0.555,0.25,1.185,0.374,1.887,0.374c0.691,0,1.297-0.142,1.819-0.425s0.963-0.68,1.326-1.19
		l1.377,1.037c-0.091,0.125-0.25,0.303-0.476,0.535c-0.227,0.232-0.527,0.465-0.901,0.697s-0.825,0.436-1.352,0.612
		s-1.136,0.264-1.828,0.264c-0.952,0-1.811-0.182-2.575-0.544c-0.765-0.363-1.417-0.839-1.955-1.428
		c-0.539-0.589-0.949-1.255-1.232-1.998c-0.284-0.742-0.425-1.493-0.425-2.252c0-0.929,0.153-1.788,0.459-2.576
		C3.897,6.44,4.325,5.76,4.875,5.188c0.55-0.572,1.209-1.017,1.98-1.334c0.771-0.317,1.621-0.476,2.55-0.476
		c0.793,0,1.573,0.153,2.338,0.459c0.765,0.306,1.391,0.776,1.878,1.411L12.262,6.284z"/>
	<path fill="#243C5E" d="M14.869,11.69c0-0.589,0.11-1.139,0.332-1.649c0.221-0.51,0.524-0.958,0.909-1.343s0.839-0.688,1.36-0.91
		c0.521-0.221,1.082-0.332,1.683-0.332s1.162,0.111,1.683,0.332c0.521,0.221,0.975,0.524,1.36,0.91s0.688,0.833,0.91,1.343
		c0.221,0.51,0.332,1.06,0.332,1.649s-0.11,1.142-0.332,1.657c-0.221,0.516-0.524,0.963-0.91,1.343s-0.839,0.68-1.36,0.901
		c-0.521,0.221-1.083,0.332-1.683,0.332s-1.162-0.111-1.683-0.332c-0.521-0.221-0.975-0.521-1.36-0.901s-0.688-0.827-0.909-1.343
		C14.979,12.832,14.869,12.28,14.869,11.69z M16.501,11.69c0,0.408,0.062,0.785,0.187,1.13c0.125,0.346,0.3,0.64,0.527,0.884
		c0.227,0.244,0.504,0.437,0.833,0.578c0.329,0.142,0.697,0.212,1.105,0.212c0.408,0,0.776-0.07,1.105-0.212
		c0.329-0.142,0.606-0.334,0.833-0.578c0.227-0.244,0.402-0.538,0.527-0.884c0.125-0.346,0.187-0.723,0.187-1.13
		c0-0.408-0.062-0.785-0.187-1.131c-0.125-0.345-0.301-0.64-0.527-0.884s-0.504-0.436-0.833-0.578
		c-0.329-0.142-0.697-0.212-1.105-0.212c-0.408,0-0.776,0.071-1.105,0.212c-0.329,0.142-0.606,0.334-0.833,0.578
		s-0.402,0.539-0.527,0.884C16.563,10.906,16.501,11.282,16.501,11.69z"/>
	<path fill="#243C5E" d="M25.249,7.661h1.53v1.156h0.034c0.294-0.431,0.699-0.765,1.215-1.003c0.516-0.238,1.045-0.357,1.589-0.357
		c0.623,0,1.187,0.108,1.691,0.323s0.935,0.516,1.292,0.901c0.357,0.386,0.632,0.836,0.825,1.352
		c0.192,0.516,0.289,1.068,0.289,1.658c0,0.601-0.097,1.159-0.289,1.674c-0.193,0.516-0.467,0.963-0.825,1.343
		c-0.357,0.38-0.788,0.678-1.292,0.893c-0.504,0.215-1.068,0.323-1.691,0.323c-0.578,0-1.122-0.122-1.632-0.366
		c-0.51-0.244-0.901-0.575-1.173-0.994h-0.034v5.949h-1.53V7.661z M29.431,8.885c-0.408,0-0.776,0.071-1.105,0.212
		c-0.329,0.142-0.606,0.334-0.833,0.578s-0.402,0.539-0.527,0.884c-0.125,0.346-0.187,0.723-0.187,1.131
		c0,0.408,0.062,0.785,0.187,1.13c0.125,0.346,0.3,0.64,0.527,0.884c0.227,0.244,0.504,0.437,0.833,0.578
		c0.329,0.142,0.697,0.212,1.105,0.212c0.408,0,0.776-0.07,1.105-0.212c0.329-0.142,0.606-0.334,0.833-0.578
		c0.227-0.244,0.402-0.538,0.527-0.884c0.125-0.346,0.187-0.723,0.187-1.13c0-0.408-0.062-0.785-0.187-1.131
		c-0.125-0.345-0.301-0.64-0.527-0.884s-0.504-0.436-0.833-0.578C30.208,8.956,29.839,8.885,29.431,8.885z"/>
	<path fill="#243C5E" d="M35.182,4.771c0-0.306,0.11-0.569,0.332-0.79c0.221-0.221,0.484-0.332,0.791-0.332s0.569,0.11,0.791,0.332
		c0.221,0.221,0.332,0.484,0.332,0.79c0,0.306-0.111,0.57-0.332,0.791c-0.221,0.221-0.484,0.332-0.791,0.332
		s-0.569-0.11-0.791-0.332C35.292,5.341,35.182,5.077,35.182,4.771z M35.539,7.661h1.53v8.058h-1.53V7.661z"/>
	<path fill="#243C5E" d="M40.515,12.251c0,0.351,0.077,0.671,0.229,0.96s0.354,0.535,0.604,0.739
		c0.249,0.204,0.538,0.363,0.867,0.476c0.329,0.113,0.668,0.17,1.02,0.17c0.476,0,0.889-0.11,1.241-0.332
		c0.351-0.221,0.674-0.513,0.969-0.875l1.156,0.884c-0.85,1.099-2.04,1.649-3.57,1.649c-0.635,0-1.21-0.108-1.726-0.323
		c-0.516-0.215-0.952-0.513-1.309-0.893c-0.357-0.379-0.632-0.827-0.824-1.343c-0.193-0.516-0.289-1.074-0.289-1.674
		s0.104-1.159,0.314-1.675c0.209-0.516,0.499-0.963,0.867-1.343s0.808-0.677,1.318-0.893c0.51-0.215,1.065-0.323,1.666-0.323
		c0.714,0,1.317,0.125,1.81,0.374c0.493,0.25,0.898,0.576,1.216,0.978c0.317,0.402,0.546,0.856,0.688,1.36
		c0.142,0.504,0.212,1.017,0.212,1.538v0.544H40.515z M45.343,11.027c-0.012-0.34-0.065-0.652-0.162-0.935
		c-0.097-0.283-0.241-0.53-0.434-0.74c-0.193-0.209-0.434-0.374-0.723-0.493c-0.289-0.119-0.626-0.179-1.011-0.179
		c-0.374,0-0.717,0.071-1.028,0.212c-0.312,0.142-0.576,0.326-0.791,0.553c-0.216,0.227-0.383,0.479-0.501,0.756
		c-0.119,0.278-0.179,0.553-0.179,0.825H45.343z"/>
	<path fill="#243C5E" d="M55.832,15.719h-1.53v-1.241h-0.034c-0.193,0.431-0.527,0.78-1.003,1.046s-1.026,0.399-1.649,0.399
		c-0.397,0-0.771-0.06-1.122-0.179c-0.352-0.119-0.66-0.303-0.926-0.552c-0.267-0.25-0.479-0.57-0.638-0.96
		c-0.159-0.391-0.238-0.853-0.238-1.386V7.661h1.53v4.76c0,0.374,0.051,0.694,0.153,0.96s0.238,0.482,0.408,0.646
		c0.17,0.165,0.365,0.283,0.586,0.357s0.451,0.11,0.688,0.11c0.317,0,0.612-0.051,0.884-0.153c0.272-0.102,0.51-0.264,0.714-0.484
		c0.204-0.221,0.362-0.501,0.476-0.842c0.113-0.34,0.17-0.742,0.17-1.207V7.661h1.53V15.719z"/>
	<path fill="#243C5E" d="M58.066,7.661h1.53v1.241h0.034c0.102-0.215,0.238-0.411,0.408-0.586s0.36-0.326,0.569-0.451
		c0.21-0.125,0.439-0.224,0.689-0.297c0.249-0.074,0.499-0.111,0.748-0.111c0.25,0,0.476,0.034,0.68,0.102l-0.068,1.649
		c-0.125-0.034-0.25-0.062-0.374-0.085c-0.125-0.022-0.25-0.034-0.374-0.034c-0.748,0-1.32,0.21-1.717,0.629
		c-0.396,0.419-0.595,1.071-0.595,1.955v4.046h-1.53V7.661z"/>
	<path fill="#243C5E" d="M68.571,9.684c-0.181-0.227-0.405-0.417-0.671-0.569c-0.267-0.153-0.592-0.229-0.978-0.229
		c-0.363,0-0.677,0.077-0.943,0.229c-0.267,0.153-0.399,0.377-0.399,0.671c0,0.238,0.076,0.431,0.229,0.578
		c0.153,0.147,0.334,0.267,0.544,0.357c0.209,0.091,0.433,0.159,0.671,0.204c0.238,0.045,0.442,0.085,0.612,0.119
		c0.329,0.079,0.638,0.176,0.927,0.289c0.289,0.114,0.538,0.261,0.748,0.442c0.209,0.181,0.374,0.402,0.493,0.663
		c0.119,0.261,0.179,0.578,0.179,0.952c0,0.454-0.097,0.842-0.289,1.165c-0.193,0.323-0.442,0.586-0.748,0.791
		s-0.654,0.352-1.045,0.442c-0.391,0.091-0.785,0.136-1.182,0.136c-0.669,0-1.255-0.102-1.759-0.306
		c-0.504-0.204-0.955-0.578-1.352-1.122l1.156-0.952c0.25,0.249,0.527,0.47,0.833,0.663c0.306,0.193,0.68,0.289,1.122,0.289
		c0.193,0,0.388-0.02,0.586-0.06c0.198-0.04,0.374-0.102,0.527-0.187c0.153-0.085,0.277-0.192,0.374-0.323
		c0.096-0.13,0.145-0.281,0.145-0.451c0-0.227-0.071-0.414-0.213-0.561c-0.142-0.147-0.312-0.263-0.51-0.348
		c-0.199-0.085-0.408-0.153-0.629-0.204c-0.221-0.051-0.417-0.094-0.587-0.127c-0.329-0.079-0.64-0.17-0.935-0.272
		c-0.295-0.102-0.556-0.238-0.782-0.408c-0.227-0.17-0.408-0.385-0.544-0.646c-0.136-0.261-0.204-0.583-0.204-0.969
		c0-0.419,0.088-0.785,0.264-1.097c0.175-0.312,0.408-0.569,0.697-0.773s0.618-0.357,0.986-0.459
		c0.368-0.102,0.739-0.153,1.113-0.153c0.544,0,1.065,0.102,1.564,0.306c0.499,0.204,0.895,0.544,1.19,1.02L68.571,9.684z"/>
	<path fill="#243C5E" d="M77.479,12.251c0,0.351,0.077,0.671,0.229,0.96s0.354,0.535,0.604,0.739
		c0.249,0.204,0.538,0.363,0.867,0.476c0.329,0.113,0.668,0.17,1.02,0.17c0.476,0,0.889-0.11,1.241-0.332
		c0.351-0.221,0.674-0.513,0.969-0.875l1.156,0.884c-0.85,1.099-2.04,1.649-3.57,1.649c-0.635,0-1.21-0.108-1.726-0.323
		c-0.516-0.215-0.952-0.513-1.309-0.893c-0.357-0.379-0.632-0.827-0.824-1.343c-0.193-0.516-0.289-1.074-0.289-1.674
		s0.104-1.159,0.314-1.675c0.209-0.516,0.499-0.963,0.867-1.343s0.808-0.677,1.318-0.893c0.51-0.215,1.065-0.323,1.666-0.323
		c0.714,0,1.317,0.125,1.81,0.374c0.493,0.25,0.898,0.576,1.216,0.978c0.317,0.402,0.546,0.856,0.688,1.36
		c0.142,0.504,0.212,1.017,0.212,1.538v0.544H77.479z M82.307,11.027c-0.012-0.34-0.065-0.652-0.162-0.935
		c-0.097-0.283-0.241-0.53-0.434-0.74c-0.193-0.209-0.434-0.374-0.723-0.493c-0.289-0.119-0.626-0.179-1.011-0.179
		c-0.374,0-0.717,0.071-1.028,0.212c-0.312,0.142-0.576,0.326-0.791,0.553c-0.216,0.227-0.383,0.479-0.501,0.756
		c-0.119,0.278-0.179,0.553-0.179,0.825H82.307z"/>
	<path fill="#243C5E" d="M90.093,8.987h-2.193v3.655c0,0.227,0.006,0.451,0.017,0.672c0.011,0.221,0.054,0.419,0.127,0.595
		c0.074,0.176,0.187,0.317,0.34,0.425c0.153,0.108,0.376,0.162,0.671,0.162c0.181,0,0.368-0.017,0.561-0.051
		c0.192-0.034,0.368-0.096,0.527-0.187v1.394c-0.181,0.102-0.417,0.172-0.706,0.212c-0.289,0.04-0.513,0.06-0.671,0.06
		c-0.589,0-1.045-0.083-1.369-0.247c-0.323-0.164-0.561-0.376-0.714-0.638c-0.153-0.26-0.244-0.552-0.272-0.875
		c-0.028-0.323-0.042-0.648-0.042-0.978V8.987h-1.768V7.661h1.768V5.4h1.53v2.261h2.193V8.987z"/>
	<path fill="#243C5E" d="M96.315,4.771c0-0.306,0.11-0.569,0.332-0.79c0.221-0.221,0.484-0.332,0.791-0.332s0.569,0.11,0.791,0.332
		c0.221,0.221,0.332,0.484,0.332,0.79c0,0.306-0.111,0.57-0.332,0.791c-0.221,0.221-0.484,0.332-0.791,0.332
		s-0.569-0.11-0.791-0.332C96.425,5.341,96.315,5.077,96.315,4.771z M96.672,7.661h1.53v8.058h-1.53V7.661z"/>
	<path fill="#243C5E" d="M100.497,7.661h1.428v1.258h0.034c0.034-0.113,0.122-0.255,0.263-0.425s0.323-0.332,0.544-0.484
		c0.221-0.153,0.482-0.283,0.782-0.391c0.3-0.107,0.632-0.162,0.995-0.162c0.601,0,1.105,0.125,1.513,0.374
		c0.408,0.25,0.742,0.624,1.003,1.122c0.261-0.499,0.629-0.873,1.105-1.122c0.476-0.249,0.958-0.374,1.445-0.374
		c0.623,0,1.133,0.102,1.53,0.306s0.708,0.474,0.935,0.808c0.227,0.334,0.383,0.714,0.468,1.139
		c0.085,0.425,0.127,0.864,0.127,1.317v4.692h-1.53v-4.488c0-0.306-0.02-0.601-0.06-0.884c-0.04-0.283-0.122-0.533-0.246-0.748
		c-0.125-0.215-0.301-0.388-0.527-0.519c-0.227-0.13-0.527-0.195-0.901-0.195c-0.737,0-1.264,0.227-1.581,0.68
		s-0.476,1.037-0.476,1.751v4.403h-1.53v-4.216c0-0.385-0.02-0.737-0.06-1.054c-0.04-0.317-0.119-0.592-0.238-0.825
		c-0.119-0.232-0.289-0.414-0.51-0.544c-0.221-0.13-0.519-0.195-0.893-0.195c-0.272,0-0.535,0.054-0.791,0.162
		c-0.255,0.108-0.479,0.269-0.671,0.484s-0.346,0.49-0.459,0.825c-0.113,0.334-0.17,0.728-0.17,1.181v4.182h-1.53V7.661z"/>
	<path fill="#243C5E" d="M114.889,7.661h1.53v1.156h0.034c0.294-0.431,0.699-0.765,1.215-1.003c0.516-0.238,1.045-0.357,1.589-0.357
		c0.623,0,1.187,0.108,1.691,0.323s0.935,0.516,1.292,0.901c0.357,0.386,0.632,0.836,0.825,1.352
		c0.192,0.516,0.289,1.068,0.289,1.658c0,0.601-0.097,1.159-0.289,1.674c-0.193,0.516-0.467,0.963-0.825,1.343
		c-0.357,0.38-0.788,0.678-1.292,0.893c-0.504,0.215-1.068,0.323-1.691,0.323c-0.578,0-1.122-0.122-1.632-0.366
		c-0.51-0.244-0.901-0.575-1.173-0.994h-0.034v5.949h-1.53V7.661z M119.071,8.885c-0.408,0-0.776,0.071-1.105,0.212
		c-0.329,0.142-0.606,0.334-0.833,0.578s-0.402,0.539-0.527,0.884c-0.125,0.346-0.187,0.723-0.187,1.131
		c0,0.408,0.062,0.785,0.187,1.13c0.125,0.346,0.3,0.64,0.527,0.884c0.227,0.244,0.504,0.437,0.833,0.578
		c0.329,0.142,0.697,0.212,1.105,0.212c0.408,0,0.776-0.07,1.105-0.212c0.329-0.142,0.606-0.334,0.833-0.578
		c0.227-0.244,0.402-0.538,0.527-0.884c0.125-0.346,0.187-0.723,0.187-1.13c0-0.408-0.062-0.785-0.187-1.131
		c-0.125-0.345-0.301-0.64-0.527-0.884s-0.504-0.436-0.833-0.578C119.847,8.956,119.479,8.885,119.071,8.885z"/>
	<path fill="#243C5E" d="M125.175,7.661h1.53v1.241h0.034c0.102-0.215,0.238-0.411,0.408-0.586s0.36-0.326,0.569-0.451
		c0.21-0.125,0.439-0.224,0.689-0.297c0.249-0.074,0.499-0.111,0.748-0.111c0.25,0,0.476,0.034,0.68,0.102l-0.068,1.649
		c-0.125-0.034-0.25-0.062-0.374-0.085c-0.125-0.022-0.25-0.034-0.374-0.034c-0.748,0-1.32,0.21-1.717,0.629
		c-0.396,0.419-0.595,1.071-0.595,1.955v4.046h-1.53V7.661z"/>
	<path fill="#243C5E" d="M130.969,4.771c0-0.306,0.11-0.569,0.332-0.79c0.221-0.221,0.484-0.332,0.791-0.332s0.569,0.11,0.791,0.332
		c0.221,0.221,0.332,0.484,0.332,0.79c0,0.306-0.111,0.57-0.332,0.791c-0.221,0.221-0.484,0.332-0.791,0.332
		s-0.569-0.11-0.791-0.332C131.08,5.341,130.969,5.077,130.969,4.771z M131.326,7.661h1.53v8.058h-1.53V7.661z"/>
	<path fill="#243C5E" d="M135.15,7.661h1.428v1.258h0.034c0.034-0.113,0.122-0.255,0.263-0.425s0.323-0.332,0.544-0.484
		c0.221-0.153,0.482-0.283,0.782-0.391c0.3-0.107,0.632-0.162,0.995-0.162c0.601,0,1.105,0.125,1.513,0.374
		c0.408,0.25,0.742,0.624,1.003,1.122c0.261-0.499,0.629-0.873,1.105-1.122c0.476-0.249,0.958-0.374,1.445-0.374
		c0.623,0,1.133,0.102,1.53,0.306s0.708,0.474,0.935,0.808c0.227,0.334,0.383,0.714,0.468,1.139
		c0.085,0.425,0.127,0.864,0.127,1.317v4.692h-1.53v-4.488c0-0.306-0.02-0.601-0.06-0.884c-0.04-0.283-0.122-0.533-0.246-0.748
		c-0.125-0.215-0.301-0.388-0.527-0.519c-0.227-0.13-0.527-0.195-0.901-0.195c-0.737,0-1.264,0.227-1.581,0.68
		s-0.476,1.037-0.476,1.751v4.403h-1.53v-4.216c0-0.385-0.02-0.737-0.06-1.054c-0.04-0.317-0.119-0.592-0.238-0.825
		c-0.119-0.232-0.289-0.414-0.51-0.544c-0.221-0.13-0.519-0.195-0.893-0.195c-0.272,0-0.535,0.054-0.791,0.162
		c-0.255,0.108-0.479,0.269-0.671,0.484s-0.346,0.49-0.459,0.825c-0.113,0.334-0.17,0.728-0.17,1.181v4.182h-1.53V7.661z"/>
	<path fill="#243C5E" d="M149.478,8.647c0.431-0.397,0.929-0.694,1.496-0.893c0.566-0.198,1.133-0.298,1.7-0.298
		c0.589,0,1.096,0.074,1.521,0.221c0.425,0.147,0.773,0.346,1.045,0.595c0.272,0.249,0.473,0.535,0.604,0.858
		c0.13,0.323,0.195,0.66,0.195,1.011v4.114c0,0.283,0.006,0.544,0.017,0.782c0.011,0.238,0.028,0.465,0.051,0.68h-1.36
		c-0.034-0.408-0.051-0.816-0.051-1.224h-0.034c-0.34,0.521-0.742,0.89-1.207,1.105c-0.465,0.215-1.003,0.323-1.615,0.323
		c-0.374,0-0.731-0.051-1.071-0.153c-0.34-0.102-0.637-0.255-0.893-0.459c-0.255-0.204-0.456-0.456-0.604-0.756
		s-0.221-0.648-0.221-1.045c0-0.521,0.116-0.958,0.348-1.309c0.232-0.351,0.55-0.638,0.952-0.858
		c0.402-0.221,0.873-0.379,1.411-0.476c0.538-0.096,1.113-0.145,1.726-0.145h1.122v-0.34c0-0.204-0.04-0.408-0.119-0.612
		c-0.08-0.204-0.199-0.388-0.357-0.552c-0.159-0.164-0.357-0.294-0.595-0.391c-0.238-0.096-0.521-0.145-0.85-0.145
		c-0.294,0-0.552,0.028-0.773,0.085c-0.221,0.057-0.422,0.127-0.604,0.212c-0.181,0.085-0.346,0.185-0.493,0.298
		c-0.147,0.113-0.289,0.221-0.425,0.323L149.478,8.647z M153.796,11.843c-0.363,0-0.734,0.02-1.113,0.06
		c-0.38,0.04-0.726,0.116-1.037,0.229s-0.567,0.272-0.765,0.476c-0.198,0.204-0.297,0.465-0.297,0.782
		c0,0.465,0.156,0.799,0.468,1.003c0.312,0.204,0.733,0.306,1.266,0.306c0.419,0,0.776-0.071,1.071-0.212
		c0.294-0.142,0.533-0.326,0.714-0.553c0.181-0.227,0.312-0.479,0.391-0.756c0.079-0.277,0.119-0.553,0.119-0.825v-0.51H153.796z"/>
	<path fill="#243C5E" d="M158.214,7.661h1.53v1.241h0.034c0.192-0.431,0.527-0.779,1.003-1.045s1.025-0.4,1.649-0.4
		c0.385,0,0.756,0.06,1.113,0.179s0.669,0.303,0.935,0.553c0.266,0.249,0.479,0.569,0.638,0.96c0.159,0.391,0.238,0.853,0.238,1.385
		v5.185h-1.53v-4.76c0-0.374-0.051-0.694-0.153-0.961c-0.102-0.266-0.238-0.481-0.408-0.646c-0.17-0.164-0.366-0.283-0.586-0.357
		c-0.221-0.073-0.451-0.11-0.688-0.11c-0.317,0-0.612,0.051-0.884,0.153s-0.51,0.264-0.714,0.485
		c-0.204,0.221-0.363,0.501-0.476,0.841s-0.17,0.742-0.17,1.207v4.148h-1.53V7.661z"/>
	<path fill="#243C5E" d="M171.941,8.987h-2.192v3.655c0,0.227,0.005,0.451,0.017,0.672c0.012,0.221,0.054,0.419,0.128,0.595
		c0.073,0.176,0.187,0.317,0.34,0.425c0.153,0.108,0.377,0.162,0.671,0.162c0.182,0,0.368-0.017,0.562-0.051
		c0.192-0.034,0.368-0.096,0.527-0.187v1.394c-0.182,0.102-0.417,0.172-0.706,0.212c-0.289,0.04-0.513,0.06-0.671,0.06
		c-0.59,0-1.046-0.083-1.369-0.247s-0.561-0.376-0.714-0.638c-0.152-0.26-0.244-0.552-0.271-0.875
		c-0.029-0.323-0.043-0.648-0.043-0.978V8.987h-1.768V7.661h1.768V5.4h1.53v2.261h2.192V8.987z"/>
	<path fill="#243C5E" d="M174.675,12.251c0,0.351,0.077,0.671,0.229,0.96c0.153,0.289,0.354,0.535,0.604,0.739
		c0.25,0.204,0.539,0.363,0.867,0.476c0.329,0.113,0.669,0.17,1.021,0.17c0.476,0,0.89-0.11,1.241-0.332
		c0.351-0.221,0.674-0.513,0.969-0.875l1.156,0.884c-0.851,1.099-2.04,1.649-3.57,1.649c-0.635,0-1.21-0.108-1.726-0.323
		c-0.516-0.215-0.952-0.513-1.309-0.893c-0.357-0.379-0.633-0.827-0.825-1.343s-0.289-1.074-0.289-1.674s0.104-1.159,0.314-1.675
		c0.21-0.516,0.499-0.963,0.867-1.343s0.808-0.677,1.317-0.893c0.511-0.215,1.065-0.323,1.666-0.323
		c0.714,0,1.317,0.125,1.811,0.374c0.493,0.25,0.898,0.576,1.216,0.978c0.317,0.402,0.547,0.856,0.688,1.36s0.213,1.017,0.213,1.538
		v0.544H174.675z M179.503,11.027c-0.011-0.34-0.065-0.652-0.161-0.935c-0.097-0.283-0.241-0.53-0.434-0.74
		c-0.192-0.209-0.434-0.374-0.723-0.493c-0.289-0.119-0.626-0.179-1.012-0.179c-0.374,0-0.717,0.071-1.028,0.212
		c-0.312,0.142-0.575,0.326-0.79,0.553c-0.216,0.227-0.383,0.479-0.502,0.756c-0.119,0.278-0.179,0.553-0.179,0.825H179.503z"/>
	<path fill="#243C5E" d="M187.137,9.684c-0.182-0.227-0.406-0.417-0.672-0.569c-0.267-0.153-0.593-0.229-0.978-0.229
		c-0.363,0-0.678,0.077-0.943,0.229c-0.267,0.153-0.399,0.377-0.399,0.671c0,0.238,0.076,0.431,0.229,0.578
		c0.152,0.147,0.334,0.267,0.544,0.357c0.209,0.091,0.434,0.159,0.671,0.204c0.238,0.045,0.442,0.085,0.612,0.119
		c0.329,0.079,0.638,0.176,0.927,0.289c0.289,0.114,0.538,0.261,0.748,0.442c0.209,0.181,0.374,0.402,0.493,0.663
		c0.118,0.261,0.178,0.578,0.178,0.952c0,0.454-0.096,0.842-0.289,1.165c-0.192,0.323-0.441,0.586-0.747,0.791
		c-0.307,0.204-0.655,0.352-1.046,0.442c-0.391,0.091-0.785,0.136-1.182,0.136c-0.669,0-1.255-0.102-1.76-0.306
		c-0.504-0.204-0.954-0.578-1.352-1.122l1.156-0.952c0.249,0.249,0.527,0.47,0.833,0.663c0.307,0.193,0.68,0.289,1.122,0.289
		c0.192,0,0.388-0.02,0.587-0.06c0.198-0.04,0.374-0.102,0.526-0.187c0.153-0.085,0.278-0.192,0.374-0.323
		c0.097-0.13,0.145-0.281,0.145-0.451c0-0.227-0.07-0.414-0.212-0.561c-0.143-0.147-0.312-0.263-0.511-0.348
		s-0.407-0.153-0.629-0.204c-0.221-0.051-0.416-0.094-0.586-0.127c-0.329-0.079-0.641-0.17-0.936-0.272s-0.555-0.238-0.781-0.408
		c-0.228-0.17-0.408-0.385-0.545-0.646c-0.136-0.261-0.203-0.583-0.203-0.969c0-0.419,0.087-0.785,0.263-1.097
		c0.176-0.312,0.408-0.569,0.697-0.773s0.618-0.357,0.986-0.459s0.739-0.153,1.113-0.153c0.544,0,1.065,0.102,1.564,0.306
		c0.498,0.204,0.895,0.544,1.189,1.02L187.137,9.684z"/>
	<path fill="#243C5E" d="M196.096,9.803c-0.307,0-0.569-0.11-0.791-0.332c-0.221-0.221-0.331-0.484-0.331-0.791
		s0.11-0.569,0.331-0.791c0.222-0.221,0.484-0.332,0.791-0.332c0.306,0,0.569,0.111,0.79,0.332c0.221,0.221,0.332,0.484,0.332,0.791
		s-0.111,0.57-0.332,0.791C196.665,9.693,196.401,9.803,196.096,9.803z M194.974,14.699c0-0.306,0.11-0.569,0.331-0.791
		c0.222-0.221,0.484-0.332,0.791-0.332c0.306,0,0.569,0.11,0.79,0.332s0.332,0.484,0.332,0.791s-0.111,0.569-0.332,0.791
		s-0.484,0.332-0.79,0.332c-0.307,0-0.569-0.11-0.791-0.332C195.084,15.269,194.974,15.005,194.974,14.699z"/>
	<path fill="#243C5E" d="M204.102,7.661h1.529v1.156h0.034c0.295-0.431,0.7-0.765,1.216-1.003c0.516-0.238,1.046-0.357,1.59-0.357
		c0.623,0,1.187,0.108,1.691,0.323c0.504,0.215,0.935,0.516,1.292,0.901c0.356,0.386,0.632,0.836,0.824,1.352
		s0.289,1.068,0.289,1.658c0,0.601-0.097,1.159-0.289,1.674s-0.468,0.963-0.824,1.343c-0.357,0.38-0.788,0.678-1.292,0.893
		c-0.505,0.215-1.068,0.323-1.691,0.323c-0.578,0-1.122-0.122-1.633-0.366c-0.51-0.244-0.9-0.575-1.173-0.994h-0.034v5.949h-1.529
		V7.661z M208.283,8.885c-0.408,0-0.776,0.071-1.104,0.212c-0.329,0.142-0.606,0.334-0.833,0.578
		c-0.228,0.244-0.402,0.539-0.527,0.884c-0.125,0.346-0.188,0.723-0.188,1.131c0,0.408,0.062,0.785,0.188,1.13s0.3,0.64,0.527,0.884
		c0.227,0.244,0.504,0.437,0.833,0.578c0.328,0.142,0.696,0.212,1.104,0.212s0.776-0.07,1.105-0.212
		c0.328-0.142,0.605-0.334,0.833-0.578c0.227-0.244,0.401-0.538,0.526-0.884s0.188-0.723,0.188-1.13
		c0-0.408-0.062-0.785-0.188-1.131c-0.125-0.345-0.3-0.64-0.526-0.884c-0.228-0.244-0.505-0.436-0.833-0.578
		C209.06,8.956,208.691,8.885,208.283,8.885z"/>
	<path fill="#243C5E" d="M215.548,12.251c0,0.351,0.077,0.671,0.229,0.96c0.153,0.289,0.354,0.535,0.604,0.739
		c0.25,0.204,0.539,0.363,0.867,0.476c0.329,0.113,0.669,0.17,1.021,0.17c0.476,0,0.89-0.11,1.241-0.332
		c0.351-0.221,0.674-0.513,0.969-0.875l1.156,0.884c-0.851,1.099-2.04,1.649-3.57,1.649c-0.635,0-1.21-0.108-1.726-0.323
		c-0.516-0.215-0.952-0.513-1.309-0.893c-0.357-0.379-0.633-0.827-0.825-1.343s-0.289-1.074-0.289-1.674s0.104-1.159,0.314-1.675
		c0.21-0.516,0.499-0.963,0.867-1.343s0.808-0.677,1.317-0.893c0.511-0.215,1.065-0.323,1.666-0.323
		c0.714,0,1.317,0.125,1.811,0.374c0.493,0.25,0.898,0.576,1.216,0.978c0.317,0.402,0.547,0.856,0.688,1.36s0.213,1.017,0.213,1.538
		v0.544H215.548z M220.376,11.027c-0.011-0.34-0.065-0.652-0.161-0.935c-0.097-0.283-0.241-0.53-0.434-0.74
		c-0.192-0.209-0.434-0.374-0.723-0.493c-0.289-0.119-0.626-0.179-1.012-0.179c-0.374,0-0.717,0.071-1.028,0.212
		c-0.312,0.142-0.575,0.326-0.79,0.553c-0.216,0.227-0.383,0.479-0.502,0.756c-0.119,0.278-0.179,0.553-0.179,0.825H220.376z"/>
	<path fill="#243C5E" d="M230.866,15.719h-1.53v-1.241h-0.033c-0.193,0.431-0.527,0.78-1.004,1.046
		c-0.476,0.266-1.025,0.399-1.648,0.399c-0.396,0-0.771-0.06-1.122-0.179c-0.352-0.119-0.66-0.303-0.927-0.552
		s-0.479-0.57-0.638-0.96c-0.158-0.391-0.237-0.853-0.237-1.386V7.661h1.529v4.76c0,0.374,0.052,0.694,0.153,0.96
		c0.103,0.266,0.238,0.482,0.408,0.646c0.17,0.165,0.365,0.283,0.587,0.357c0.221,0.074,0.45,0.11,0.688,0.11
		c0.316,0,0.611-0.051,0.884-0.153c0.271-0.102,0.51-0.264,0.714-0.484c0.204-0.221,0.362-0.501,0.476-0.842
		c0.113-0.34,0.17-0.742,0.17-1.207V7.661h1.53V15.719z"/>
	<path fill="#243C5E" d="M237.556,8.987h-2.192v3.655c0,0.227,0.005,0.451,0.017,0.672c0.012,0.221,0.054,0.419,0.128,0.595
		c0.073,0.176,0.187,0.317,0.34,0.425c0.153,0.108,0.377,0.162,0.671,0.162c0.182,0,0.368-0.017,0.562-0.051
		c0.192-0.034,0.368-0.096,0.527-0.187v1.394c-0.182,0.102-0.417,0.172-0.706,0.212c-0.289,0.04-0.513,0.06-0.671,0.06
		c-0.59,0-1.046-0.083-1.369-0.247s-0.561-0.376-0.714-0.638c-0.153-0.26-0.244-0.552-0.271-0.875
		c-0.029-0.323-0.043-0.648-0.043-0.978V8.987h-1.768V7.661h1.768V5.4h1.53v2.261h2.192V8.987z"/>
	<path fill="#243C5E" d="M244.016,7.661h1.428v1.258h0.034c0.034-0.113,0.121-0.255,0.264-0.425c0.142-0.17,0.322-0.332,0.544-0.484
		c0.221-0.153,0.481-0.283,0.781-0.391c0.301-0.107,0.632-0.162,0.995-0.162c0.601,0,1.104,0.125,1.513,0.374
		c0.408,0.25,0.742,0.624,1.003,1.122c0.261-0.499,0.629-0.873,1.105-1.122c0.476-0.249,0.957-0.374,1.444-0.374
		c0.624,0,1.134,0.102,1.53,0.306s0.708,0.474,0.936,0.808c0.227,0.334,0.382,0.714,0.467,1.139
		c0.085,0.425,0.128,0.864,0.128,1.317v4.692h-1.53v-4.488c0-0.306-0.02-0.601-0.06-0.884c-0.04-0.283-0.122-0.533-0.246-0.748
		c-0.125-0.215-0.301-0.388-0.527-0.519c-0.227-0.13-0.526-0.195-0.9-0.195c-0.737,0-1.265,0.227-1.581,0.68
		c-0.317,0.453-0.477,1.037-0.477,1.751v4.403h-1.53v-4.216c0-0.385-0.02-0.737-0.059-1.054c-0.04-0.317-0.119-0.592-0.238-0.825
		c-0.119-0.232-0.289-0.414-0.51-0.544c-0.222-0.13-0.519-0.195-0.893-0.195c-0.272,0-0.536,0.054-0.791,0.162
		s-0.479,0.269-0.671,0.484c-0.193,0.215-0.347,0.49-0.459,0.825c-0.114,0.334-0.171,0.728-0.171,1.181v4.182h-1.529V7.661z"/>
	<path fill="#243C5E" d="M258.084,4.771c0-0.306,0.11-0.569,0.331-0.79c0.222-0.221,0.485-0.332,0.791-0.332s0.569,0.11,0.79,0.332
		c0.222,0.221,0.332,0.484,0.332,0.79c0,0.306-0.11,0.57-0.332,0.791c-0.221,0.221-0.484,0.332-0.79,0.332s-0.569-0.11-0.791-0.332
		C258.194,5.341,258.084,5.077,258.084,4.771z M258.441,7.661h1.529v8.058h-1.529V7.661z"/>
	<path fill="#243C5E" d="M263.416,12.251c0,0.351,0.077,0.671,0.229,0.96c0.153,0.289,0.354,0.535,0.604,0.739
		c0.25,0.204,0.539,0.363,0.867,0.476c0.329,0.113,0.669,0.17,1.021,0.17c0.476,0,0.89-0.11,1.241-0.332
		c0.351-0.221,0.674-0.513,0.969-0.875l1.156,0.884c-0.851,1.099-2.04,1.649-3.57,1.649c-0.635,0-1.21-0.108-1.726-0.323
		c-0.516-0.215-0.952-0.513-1.309-0.893c-0.357-0.379-0.633-0.827-0.825-1.343s-0.289-1.074-0.289-1.674s0.104-1.159,0.314-1.675
		c0.21-0.516,0.499-0.963,0.867-1.343s0.808-0.677,1.317-0.893c0.511-0.215,1.065-0.323,1.666-0.323
		c0.714,0,1.317,0.125,1.811,0.374c0.493,0.25,0.898,0.576,1.216,0.978c0.317,0.402,0.547,0.856,0.688,1.36s0.213,1.017,0.213,1.538
		v0.544H263.416z M268.244,11.027c-0.011-0.34-0.065-0.652-0.161-0.935c-0.097-0.283-0.241-0.53-0.434-0.74
		c-0.192-0.209-0.434-0.374-0.723-0.493c-0.289-0.119-0.626-0.179-1.012-0.179c-0.374,0-0.717,0.071-1.028,0.212
		c-0.312,0.142-0.575,0.326-0.79,0.553c-0.216,0.227-0.383,0.479-0.502,0.756c-0.119,0.278-0.179,0.553-0.179,0.825H268.244z"/>
	<path fill="#243C5E" d="M278.733,15.719h-1.53v-1.241h-0.033c-0.193,0.431-0.527,0.78-1.004,1.046
		c-0.476,0.266-1.025,0.399-1.648,0.399c-0.396,0-0.771-0.06-1.122-0.179c-0.352-0.119-0.66-0.303-0.927-0.552
		s-0.479-0.57-0.638-0.96c-0.158-0.391-0.237-0.853-0.237-1.386V7.661h1.529v4.76c0,0.374,0.052,0.694,0.153,0.96
		c0.103,0.266,0.238,0.482,0.408,0.646c0.17,0.165,0.365,0.283,0.587,0.357c0.221,0.074,0.45,0.11,0.688,0.11
		c0.316,0,0.611-0.051,0.884-0.153c0.271-0.102,0.51-0.264,0.714-0.484c0.204-0.221,0.362-0.501,0.476-0.842
		c0.113-0.34,0.17-0.742,0.17-1.207V7.661h1.53V15.719z"/>
	<path fill="#243C5E" d="M283.256,11.418l-2.856-3.757h1.973l1.954,2.856l1.922-2.856h1.853l-2.754,3.757l3.264,4.301h-1.972
		l-2.38-3.383l-2.38,3.383h-1.888L283.256,11.418z"/>
	<path fill="#243C5E" d="M294.952,8.987h-1.734V7.661h1.734V5.859c0-1.077,0.207-1.878,0.62-2.406
		c0.414-0.527,1.125-0.791,2.134-0.791c0.17,0,0.349,0.006,0.535,0.017c0.188,0.012,0.389,0.045,0.604,0.102l-0.17,1.36
		c-0.147-0.057-0.289-0.096-0.425-0.119c-0.136-0.023-0.283-0.034-0.441-0.034c-0.284,0-0.511,0.042-0.681,0.127
		s-0.303,0.207-0.399,0.366s-0.158,0.348-0.187,0.569s-0.043,0.473-0.043,0.756v1.853h1.819v1.326h-1.836v6.732h-1.53V8.987z"/>
	<path fill="#243C5E" d="M299.812,8.647c0.43-0.397,0.929-0.694,1.495-0.893c0.567-0.198,1.134-0.298,1.7-0.298
		c0.59,0,1.097,0.074,1.521,0.221c0.425,0.147,0.773,0.346,1.046,0.595c0.271,0.249,0.473,0.535,0.604,0.858
		c0.13,0.323,0.195,0.66,0.195,1.011v4.114c0,0.283,0.006,0.544,0.017,0.782c0.012,0.238,0.028,0.465,0.052,0.68h-1.36
		c-0.034-0.408-0.051-0.816-0.051-1.224h-0.034c-0.34,0.521-0.742,0.89-1.207,1.105c-0.465,0.215-1.003,0.323-1.615,0.323
		c-0.374,0-0.73-0.051-1.07-0.153c-0.341-0.102-0.638-0.255-0.893-0.459c-0.255-0.204-0.457-0.456-0.604-0.756
		c-0.147-0.3-0.222-0.648-0.222-1.045c0-0.521,0.116-0.958,0.349-1.309c0.232-0.351,0.55-0.638,0.952-0.858
		c0.402-0.221,0.873-0.379,1.411-0.476c0.538-0.096,1.113-0.145,1.726-0.145h1.122v-0.34c0-0.204-0.04-0.408-0.119-0.612
		c-0.079-0.204-0.198-0.388-0.357-0.552c-0.158-0.164-0.356-0.294-0.595-0.391c-0.238-0.096-0.521-0.145-0.85-0.145
		c-0.295,0-0.553,0.028-0.773,0.085c-0.222,0.057-0.423,0.127-0.604,0.212c-0.182,0.085-0.347,0.185-0.493,0.298
		c-0.147,0.113-0.289,0.221-0.425,0.323L299.812,8.647z M304.13,11.843c-0.362,0-0.733,0.02-1.113,0.06s-0.726,0.116-1.037,0.229
		s-0.566,0.272-0.765,0.476c-0.198,0.204-0.298,0.465-0.298,0.782c0,0.465,0.155,0.799,0.468,1.003
		c0.312,0.204,0.733,0.306,1.267,0.306c0.419,0,0.775-0.071,1.07-0.212s0.533-0.326,0.715-0.553
		c0.181-0.227,0.312-0.479,0.391-0.756c0.079-0.277,0.119-0.553,0.119-0.825v-0.51H304.13z"/>
	<path fill="#243C5E" d="M308.226,4.771c0-0.306,0.11-0.569,0.331-0.79c0.222-0.221,0.485-0.332,0.791-0.332s0.569,0.11,0.79,0.332
		c0.222,0.221,0.332,0.484,0.332,0.79c0,0.306-0.11,0.57-0.332,0.791c-0.221,0.221-0.484,0.332-0.79,0.332s-0.569-0.11-0.791-0.332
		C308.336,5.341,308.226,5.077,308.226,4.771z M308.583,7.661h1.529v8.058h-1.529V7.661z"/>
	<path fill="#243C5E" d="M312.406,7.661h1.529v1.241h0.034c0.103-0.215,0.238-0.411,0.408-0.586s0.359-0.326,0.569-0.451
		c0.21-0.125,0.439-0.224,0.688-0.297s0.499-0.111,0.748-0.111s0.477,0.034,0.681,0.102l-0.068,1.649
		c-0.125-0.034-0.25-0.062-0.374-0.085c-0.125-0.022-0.249-0.034-0.374-0.034c-0.748,0-1.32,0.21-1.717,0.629
		c-0.397,0.419-0.596,1.071-0.596,1.955v4.046h-1.529V7.661z"/>
	<path fill="#243C5E" d="M319.568,12.251c0,0.351,0.077,0.671,0.229,0.96c0.153,0.289,0.354,0.535,0.604,0.739
		c0.25,0.204,0.539,0.363,0.867,0.476c0.329,0.113,0.669,0.17,1.021,0.17c0.476,0,0.89-0.11,1.241-0.332
		c0.351-0.221,0.674-0.513,0.969-0.875l1.156,0.884c-0.851,1.099-2.04,1.649-3.57,1.649c-0.635,0-1.21-0.108-1.726-0.323
		c-0.516-0.215-0.952-0.513-1.309-0.893c-0.357-0.379-0.633-0.827-0.825-1.343s-0.289-1.074-0.289-1.674s0.104-1.159,0.314-1.675
		c0.21-0.516,0.499-0.963,0.867-1.343s0.808-0.677,1.317-0.893c0.511-0.215,1.065-0.323,1.666-0.323
		c0.714,0,1.317,0.125,1.811,0.374c0.493,0.25,0.898,0.576,1.216,0.978c0.317,0.402,0.547,0.856,0.688,1.36s0.213,1.017,0.213,1.538
		v0.544H319.568z M324.396,11.027c-0.011-0.34-0.065-0.652-0.161-0.935c-0.097-0.283-0.241-0.53-0.434-0.74
		c-0.192-0.209-0.434-0.374-0.723-0.493c-0.289-0.119-0.626-0.179-1.012-0.179c-0.374,0-0.717,0.071-1.028,0.212
		c-0.312,0.142-0.575,0.326-0.79,0.553c-0.216,0.227-0.383,0.479-0.502,0.756c-0.119,0.278-0.179,0.553-0.179,0.825H324.396z"/>
	<path fill="#243C5E" d="M332.438,14.699c0-0.306,0.11-0.569,0.331-0.791c0.222-0.221,0.484-0.332,0.791-0.332
		c0.306,0,0.569,0.11,0.79,0.332s0.332,0.484,0.332,0.791s-0.111,0.569-0.332,0.791s-0.484,0.332-0.79,0.332
		c-0.307,0-0.569-0.11-0.791-0.332C332.548,15.269,332.438,15.005,332.438,14.699z M334.341,12.251h-1.632V3.683h1.632V12.251z"/>
</g>
</svg>
