<?xml version="1.0" encoding="utf-8"?>
<!-- Generator: Adobe Illustrator 16.0.0, SVG Export Plug-In . SVG Version: 6.00 Build 0)  -->
<!DOCTYPE svg PUBLIC "-//W3C//DTD SVG 1.1//EN" "http://www.w3.org/Graphics/SVG/1.1/DTD/svg11.dtd">
<svg version="1.1" id="Calque_1" xmlns="http://www.w3.org/2000/svg" xmlns:xlink="http://www.w3.org/1999/xlink" x="0px" y="0px"
	 width="578px" height="54px" viewBox="0 0 578 54" enable-background="new 0 0 578 54" xml:space="preserve">
<g>
	<path fill="#243C5E" d="M18.759,14.803c-0.476,0.645-1.027,1.106-1.652,1.386s-1.302,0.42-2.03,0.42
		c-0.756,0-1.449-0.128-2.079-0.385c-0.63-0.257-1.169-0.616-1.617-1.078c-0.448-0.462-0.798-1.013-1.05-1.652
		c-0.252-0.639-0.378-1.337-0.378-2.093c0-0.756,0.126-1.451,0.378-2.086c0.252-0.635,0.602-1.183,1.05-1.645
		c0.448-0.462,0.987-0.824,1.617-1.085c0.63-0.261,1.323-0.392,2.079-0.392c0.672,0,1.3,0.119,1.883,0.357
		c0.583,0.238,1.094,0.637,1.533,1.197l-0.756,0.63c-0.308-0.467-0.703-0.807-1.183-1.022c-0.481-0.215-0.973-0.322-1.477-0.322
		c-0.644,0-1.225,0.112-1.743,0.336c-0.518,0.224-0.959,0.532-1.323,0.924c-0.364,0.392-0.644,0.854-0.84,1.386
		c-0.196,0.532-0.294,1.106-0.294,1.722c0,0.616,0.098,1.19,0.294,1.722c0.196,0.532,0.476,0.994,0.84,1.386
		c0.364,0.392,0.805,0.7,1.323,0.924s1.099,0.336,1.743,0.336c0.252,0,0.513-0.03,0.784-0.091c0.271-0.061,0.534-0.154,0.791-0.28
		c0.256-0.126,0.501-0.285,0.735-0.476c0.233-0.191,0.438-0.422,0.616-0.693L18.759,14.803z"/>
	<path fill="#243C5E" d="M19.851,13.124c0-0.495,0.084-0.95,0.252-1.365s0.401-0.774,0.7-1.078c0.299-0.304,0.658-0.539,1.078-0.707
		s0.877-0.252,1.372-0.252s0.949,0.084,1.365,0.252c0.415,0.168,0.774,0.404,1.078,0.707c0.303,0.303,0.539,0.663,0.707,1.078
		c0.168,0.416,0.252,0.871,0.252,1.365s-0.084,0.95-0.252,1.365c-0.168,0.416-0.404,0.775-0.707,1.078
		c-0.304,0.303-0.663,0.539-1.078,0.707c-0.416,0.168-0.87,0.252-1.365,0.252s-0.952-0.084-1.372-0.252s-0.779-0.404-1.078-0.707
		c-0.299-0.303-0.532-0.663-0.7-1.078C19.935,14.073,19.851,13.618,19.851,13.124z M20.691,13.124c0,0.364,0.058,0.707,0.175,1.029
		c0.117,0.322,0.287,0.602,0.511,0.84c0.224,0.238,0.494,0.427,0.812,0.567c0.317,0.14,0.672,0.21,1.064,0.21S24,15.7,24.317,15.56
		s0.588-0.329,0.812-0.567c0.224-0.238,0.394-0.518,0.511-0.84c0.117-0.322,0.175-0.665,0.175-1.029
		c0-0.364-0.059-0.707-0.175-1.029c-0.117-0.322-0.287-0.602-0.511-0.84c-0.224-0.238-0.495-0.427-0.812-0.567
		s-0.672-0.21-1.064-0.21s-0.747,0.07-1.064,0.21c-0.318,0.14-0.588,0.329-0.812,0.567c-0.224,0.238-0.395,0.518-0.511,0.84
		C20.749,12.417,20.691,12.759,20.691,13.124z"/>
	<path fill="#243C5E" d="M28.531,11.709c0-0.121-0.005-0.268-0.014-0.441c-0.009-0.173-0.017-0.348-0.021-0.525
		c-0.005-0.177-0.012-0.343-0.021-0.497c-0.009-0.154-0.014-0.273-0.014-0.357h0.84c0.009,0.243,0.016,0.476,0.021,0.7
		c0.004,0.224,0.016,0.369,0.035,0.434h0.042c0.168-0.354,0.448-0.66,0.84-0.917c0.392-0.257,0.849-0.385,1.372-0.385
		c0.504,0,0.915,0.08,1.232,0.238c0.317,0.159,0.567,0.366,0.749,0.623c0.182,0.257,0.308,0.553,0.378,0.889
		c0.07,0.336,0.105,0.682,0.105,1.036v3.85h-0.84v-3.808c0-0.261-0.023-0.516-0.07-0.763c-0.047-0.248-0.128-0.469-0.245-0.665
		c-0.117-0.196-0.28-0.353-0.49-0.469c-0.21-0.116-0.483-0.175-0.819-0.175c-0.308,0-0.6,0.054-0.875,0.161
		c-0.275,0.107-0.514,0.271-0.714,0.49c-0.2,0.219-0.359,0.495-0.476,0.826c-0.117,0.331-0.175,0.721-0.175,1.169v3.234h-0.84
		L28.531,11.709L28.531,11.709z"/>
	<path fill="#243C5E" d="M36.329,14.706c0.177,0.345,0.439,0.609,0.784,0.791c0.345,0.182,0.709,0.273,1.092,0.273
		c0.177,0,0.355-0.028,0.532-0.084c0.177-0.056,0.336-0.135,0.476-0.238c0.14-0.104,0.254-0.226,0.343-0.371
		c0.089-0.145,0.133-0.311,0.133-0.497c0-0.299-0.096-0.523-0.287-0.672c-0.191-0.149-0.427-0.266-0.707-0.35
		c-0.28-0.084-0.588-0.156-0.924-0.217c-0.336-0.061-0.644-0.154-0.924-0.28c-0.28-0.126-0.516-0.301-0.707-0.525
		c-0.191-0.224-0.287-0.542-0.287-0.952c0-0.317,0.065-0.593,0.196-0.826c0.13-0.233,0.301-0.427,0.511-0.581
		c0.21-0.154,0.445-0.268,0.707-0.343c0.262-0.075,0.527-0.112,0.798-0.112c0.532,0,0.992,0.098,1.379,0.294
		c0.387,0.196,0.688,0.504,0.903,0.924l-0.756,0.448c-0.159-0.298-0.357-0.525-0.595-0.679c-0.238-0.154-0.548-0.231-0.931-0.231
		c-0.149,0-0.306,0.023-0.469,0.07c-0.163,0.047-0.31,0.112-0.441,0.196c-0.131,0.084-0.24,0.191-0.329,0.322
		c-0.089,0.131-0.133,0.28-0.133,0.448c0,0.29,0.096,0.504,0.287,0.644c0.191,0.14,0.427,0.25,0.707,0.329
		c0.28,0.08,0.588,0.147,0.924,0.203s0.644,0.147,0.924,0.273c0.28,0.126,0.516,0.308,0.707,0.546
		c0.191,0.238,0.287,0.577,0.287,1.015c0,0.336-0.063,0.628-0.189,0.875c-0.126,0.248-0.299,0.455-0.518,0.623
		c-0.219,0.168-0.469,0.294-0.749,0.378c-0.28,0.084-0.574,0.126-0.882,0.126c-0.56,0-1.071-0.107-1.533-0.322
		c-0.462-0.215-0.819-0.546-1.071-0.994L36.329,14.706z"/>
	<path fill="#243C5E" d="M41.915,13.124c0-0.495,0.084-0.95,0.252-1.365s0.401-0.774,0.7-1.078c0.299-0.304,0.658-0.539,1.078-0.707
		c0.42-0.168,0.877-0.252,1.372-0.252s0.949,0.084,1.365,0.252c0.415,0.168,0.774,0.404,1.078,0.707
		c0.303,0.303,0.539,0.663,0.707,1.078c0.168,0.416,0.252,0.871,0.252,1.365s-0.084,0.95-0.252,1.365
		c-0.168,0.416-0.404,0.775-0.707,1.078c-0.304,0.303-0.663,0.539-1.078,0.707c-0.416,0.168-0.87,0.252-1.365,0.252
		s-0.952-0.084-1.372-0.252c-0.42-0.168-0.779-0.404-1.078-0.707c-0.299-0.303-0.532-0.663-0.7-1.078
		C41.999,14.073,41.915,13.618,41.915,13.124z M42.755,13.124c0,0.364,0.058,0.707,0.175,1.029c0.117,0.322,0.287,0.602,0.511,0.84
		c0.224,0.238,0.494,0.427,0.812,0.567c0.317,0.14,0.672,0.21,1.064,0.21s0.747-0.07,1.064-0.21c0.317-0.14,0.588-0.329,0.812-0.567
		c0.224-0.238,0.394-0.518,0.511-0.84c0.117-0.322,0.175-0.665,0.175-1.029c0-0.364-0.059-0.707-0.175-1.029
		c-0.117-0.322-0.287-0.602-0.511-0.84c-0.224-0.238-0.495-0.427-0.812-0.567c-0.317-0.14-0.672-0.21-1.064-0.21
		s-0.747,0.07-1.064,0.21c-0.318,0.14-0.588,0.329-0.812,0.567c-0.224,0.238-0.395,0.518-0.511,0.84
		C42.813,12.417,42.755,12.759,42.755,13.124z"/>
	<path fill="#243C5E" d="M50.595,11.709c0-0.121-0.005-0.268-0.014-0.441c-0.009-0.173-0.017-0.348-0.021-0.525
		c-0.005-0.177-0.012-0.343-0.021-0.497c-0.009-0.154-0.014-0.273-0.014-0.357h0.84c0.009,0.243,0.016,0.476,0.021,0.7
		c0.004,0.224,0.016,0.369,0.035,0.434h0.042c0.168-0.354,0.448-0.66,0.84-0.917c0.392-0.257,0.849-0.385,1.372-0.385
		c0.429,0,0.821,0.11,1.176,0.329c0.354,0.22,0.611,0.577,0.77,1.071c0.205-0.485,0.511-0.84,0.917-1.064
		c0.406-0.224,0.833-0.336,1.281-0.336c0.504,0,0.915,0.08,1.232,0.238c0.317,0.159,0.567,0.366,0.749,0.623
		c0.182,0.257,0.308,0.553,0.378,0.889c0.07,0.336,0.105,0.682,0.105,1.036v3.85h-0.84v-3.808c0-0.261-0.023-0.516-0.07-0.763
		c-0.047-0.248-0.128-0.469-0.245-0.665c-0.117-0.196-0.28-0.353-0.49-0.469c-0.21-0.116-0.483-0.175-0.819-0.175
		c-0.392,0-0.714,0.072-0.966,0.217s-0.45,0.329-0.595,0.553s-0.248,0.467-0.308,0.728c-0.061,0.261-0.091,0.509-0.091,0.742v3.64
		h-0.84v-3.892c0-0.597-0.11-1.078-0.329-1.442c-0.219-0.364-0.558-0.546-1.015-0.546c-0.308,0-0.6,0.054-0.875,0.161
		c-0.275,0.107-0.514,0.271-0.714,0.49c-0.2,0.219-0.359,0.495-0.476,0.826c-0.117,0.331-0.175,0.721-0.175,1.169v3.234h-0.84
		V11.709z"/>
	<path fill="#243C5E" d="M62.522,11.709c0-0.121-0.005-0.268-0.014-0.441c-0.009-0.173-0.017-0.348-0.021-0.525
		c-0.005-0.177-0.012-0.343-0.021-0.497c-0.009-0.154-0.014-0.273-0.014-0.357h0.84c0.009,0.243,0.016,0.476,0.021,0.7
		c0.004,0.224,0.016,0.369,0.035,0.434h0.042c0.168-0.354,0.448-0.66,0.84-0.917s0.849-0.385,1.372-0.385
		c0.429,0,0.821,0.11,1.176,0.329c0.354,0.22,0.611,0.577,0.77,1.071c0.205-0.485,0.511-0.84,0.917-1.064
		c0.406-0.224,0.833-0.336,1.281-0.336c0.504,0,0.915,0.08,1.232,0.238c0.317,0.159,0.567,0.366,0.749,0.623
		s0.308,0.553,0.378,0.889c0.07,0.336,0.105,0.682,0.105,1.036v3.85h-0.84v-3.808c0-0.261-0.023-0.516-0.07-0.763
		c-0.047-0.248-0.128-0.469-0.245-0.665c-0.117-0.196-0.28-0.353-0.49-0.469c-0.21-0.116-0.483-0.175-0.819-0.175
		c-0.392,0-0.714,0.072-0.966,0.217c-0.252,0.145-0.45,0.329-0.595,0.553s-0.248,0.467-0.308,0.728
		c-0.061,0.261-0.091,0.509-0.091,0.742v3.64h-0.84v-3.892c0-0.597-0.11-1.078-0.329-1.442c-0.219-0.364-0.558-0.546-1.015-0.546
		c-0.308,0-0.6,0.054-0.875,0.161s-0.514,0.271-0.714,0.49c-0.2,0.219-0.359,0.495-0.476,0.826
		c-0.117,0.331-0.175,0.721-0.175,1.169v3.234h-0.84V11.709z"/>
	<path fill="#243C5E" d="M79.476,13.642c0,0.317,0.002,0.602,0.007,0.854s0.012,0.485,0.021,0.7
		c0.009,0.215,0.021,0.416,0.035,0.602c0.014,0.187,0.035,0.374,0.063,0.56h-0.784c-0.056-0.317-0.084-0.667-0.084-1.05h-0.028
		c-0.243,0.42-0.544,0.728-0.903,0.924c-0.359,0.196-0.814,0.294-1.365,0.294c-0.28,0-0.555-0.035-0.826-0.105
		c-0.271-0.07-0.514-0.182-0.728-0.336c-0.215-0.154-0.39-0.352-0.525-0.595c-0.135-0.242-0.203-0.537-0.203-0.882
		c0-0.495,0.126-0.887,0.378-1.176c0.252-0.29,0.562-0.506,0.931-0.651c0.369-0.146,0.761-0.238,1.176-0.28s0.782-0.063,1.099-0.063
		h0.98v-0.392c0-0.56-0.173-0.961-0.518-1.204c-0.346-0.243-0.779-0.364-1.302-0.364c-0.747,0-1.405,0.243-1.974,0.728l-0.49-0.574
		c0.308-0.298,0.69-0.525,1.148-0.679c0.458-0.154,0.896-0.231,1.316-0.231c0.784,0,1.409,0.185,1.876,0.553
		c0.467,0.368,0.7,0.964,0.7,1.785V13.642L79.476,13.642z M77.796,13.109c-0.354,0-0.698,0.023-1.029,0.07
		c-0.332,0.047-0.63,0.126-0.896,0.238s-0.479,0.261-0.637,0.448c-0.159,0.187-0.238,0.42-0.238,0.7
		c0,0.196,0.044,0.371,0.133,0.525c0.089,0.154,0.203,0.28,0.343,0.378c0.14,0.098,0.296,0.173,0.469,0.224
		c0.173,0.051,0.348,0.077,0.525,0.077c0.448,0,0.816-0.065,1.106-0.196c0.289-0.13,0.52-0.301,0.693-0.511
		c0.172-0.21,0.292-0.448,0.357-0.714s0.098-0.534,0.098-0.805v-0.434H77.796z"/>
	<path fill="#243C5E" d="M84.88,10.646h-1.848v4.214c0,0.29,0.079,0.514,0.238,0.672c0.159,0.159,0.378,0.238,0.658,0.238
		c0.159,0,0.319-0.021,0.483-0.063c0.163-0.042,0.32-0.096,0.469-0.161l0.07,0.756c-0.159,0.056-0.341,0.107-0.546,0.154
		c-0.206,0.046-0.388,0.07-0.546,0.07c-0.299,0-0.556-0.044-0.77-0.133c-0.215-0.089-0.388-0.208-0.518-0.357
		c-0.131-0.149-0.227-0.324-0.287-0.525c-0.061-0.2-0.091-0.417-0.091-0.651v-4.214h-1.4V9.89h1.4V8.027h0.84V9.89h1.848V10.646z"/>
	<path fill="#243C5E" d="M86.322,7.328c0-0.177,0.061-0.327,0.182-0.448s0.271-0.182,0.448-0.182c0.177,0,0.327,0.061,0.448,0.182
		c0.121,0.122,0.182,0.271,0.182,0.448c0,0.177-0.061,0.326-0.182,0.447c-0.121,0.122-0.271,0.182-0.448,0.182
		c-0.178,0-0.327-0.061-0.448-0.182C86.382,7.654,86.322,7.505,86.322,7.328z M86.532,9.89h0.84v6.468h-0.84V9.89z"/>
	<path fill="#243C5E" d="M89.388,13.124c0-0.495,0.084-0.95,0.252-1.365s0.401-0.774,0.7-1.078c0.299-0.304,0.658-0.539,1.078-0.707
		s0.877-0.252,1.372-0.252s0.949,0.084,1.365,0.252c0.415,0.168,0.774,0.404,1.078,0.707c0.303,0.303,0.539,0.663,0.707,1.078
		c0.168,0.416,0.252,0.871,0.252,1.365s-0.084,0.95-0.252,1.365c-0.168,0.416-0.404,0.775-0.707,1.078
		c-0.304,0.303-0.663,0.539-1.078,0.707c-0.416,0.168-0.87,0.252-1.365,0.252s-0.952-0.084-1.372-0.252s-0.779-0.404-1.078-0.707
		c-0.299-0.303-0.532-0.663-0.7-1.078C89.472,14.073,89.388,13.618,89.388,13.124z M90.228,13.124c0,0.364,0.058,0.707,0.175,1.029
		c0.117,0.322,0.287,0.602,0.511,0.84c0.224,0.238,0.494,0.427,0.812,0.567c0.317,0.14,0.672,0.21,1.064,0.21s0.747-0.07,1.064-0.21
		s0.588-0.329,0.812-0.567c0.224-0.238,0.394-0.518,0.511-0.84c0.117-0.322,0.175-0.665,0.175-1.029
		c0-0.364-0.059-0.707-0.175-1.029c-0.117-0.322-0.287-0.602-0.511-0.84c-0.224-0.238-0.495-0.427-0.812-0.567
		s-0.672-0.21-1.064-0.21s-0.747,0.07-1.064,0.21c-0.318,0.14-0.588,0.329-0.812,0.567c-0.224,0.238-0.395,0.518-0.511,0.84
		C90.286,12.417,90.228,12.759,90.228,13.124z"/>
	<path fill="#243C5E" d="M98.068,11.709c0-0.121-0.005-0.268-0.014-0.441c-0.009-0.173-0.017-0.348-0.021-0.525
		c-0.005-0.177-0.012-0.343-0.021-0.497c-0.009-0.154-0.014-0.273-0.014-0.357h0.84c0.009,0.243,0.016,0.476,0.021,0.7
		c0.004,0.224,0.016,0.369,0.035,0.434h0.042c0.168-0.354,0.448-0.66,0.84-0.917s0.849-0.385,1.372-0.385
		c0.504,0,0.915,0.08,1.232,0.238c0.317,0.159,0.567,0.366,0.749,0.623s0.308,0.553,0.378,0.889c0.07,0.336,0.105,0.682,0.105,1.036
		v3.85h-0.84v-3.808c0-0.261-0.023-0.516-0.07-0.763c-0.047-0.248-0.128-0.469-0.245-0.665c-0.117-0.196-0.28-0.353-0.49-0.469
		c-0.21-0.116-0.483-0.175-0.819-0.175c-0.308,0-0.6,0.054-0.875,0.161s-0.514,0.271-0.714,0.49c-0.2,0.219-0.359,0.495-0.476,0.826
		s-0.175,0.721-0.175,1.169v3.234h-0.84V11.709z"/>
	<path fill="#243C5E" d="M109.31,9.89h0.84v1.134h0.028c0.13-0.224,0.294-0.417,0.49-0.581c0.196-0.163,0.408-0.298,0.637-0.406
		c0.229-0.107,0.469-0.187,0.721-0.238c0.252-0.051,0.5-0.077,0.742-0.077c0.495,0,0.95,0.084,1.365,0.252s0.774,0.404,1.078,0.707
		c0.304,0.303,0.539,0.663,0.707,1.078c0.168,0.416,0.252,0.871,0.252,1.365s-0.084,0.95-0.252,1.365
		c-0.168,0.416-0.404,0.775-0.707,1.078c-0.303,0.303-0.663,0.539-1.078,0.707c-0.416,0.168-0.871,0.252-1.365,0.252
		c-0.243,0-0.49-0.026-0.742-0.077c-0.252-0.051-0.492-0.13-0.721-0.238c-0.229-0.107-0.441-0.243-0.637-0.406
		c-0.196-0.163-0.359-0.357-0.49-0.581h-0.028v4.326h-0.84V9.89z M110.066,13.124c0,0.364,0.07,0.707,0.21,1.029
		c0.14,0.322,0.332,0.602,0.574,0.84c0.243,0.238,0.527,0.427,0.854,0.567c0.327,0.14,0.681,0.21,1.064,0.21
		c0.392,0,0.747-0.07,1.064-0.21s0.588-0.329,0.812-0.567c0.224-0.238,0.394-0.518,0.511-0.84c0.116-0.322,0.175-0.665,0.175-1.029
		c0-0.364-0.059-0.707-0.175-1.029c-0.117-0.322-0.287-0.602-0.511-0.84c-0.224-0.238-0.495-0.427-0.812-0.567
		s-0.672-0.21-1.064-0.21c-0.383,0-0.737,0.07-1.064,0.21c-0.327,0.14-0.611,0.329-0.854,0.567c-0.243,0.238-0.434,0.518-0.574,0.84
		C110.136,12.417,110.066,12.759,110.066,13.124z"/>
	<path fill="#243C5E" d="M123.072,13.642c0,0.317,0.002,0.602,0.007,0.854s0.012,0.485,0.021,0.7
		c0.009,0.215,0.021,0.416,0.035,0.602c0.014,0.187,0.035,0.374,0.063,0.56h-0.784c-0.056-0.317-0.084-0.667-0.084-1.05h-0.028
		c-0.243,0.42-0.544,0.728-0.903,0.924s-0.814,0.294-1.365,0.294c-0.28,0-0.555-0.035-0.826-0.105
		c-0.271-0.07-0.514-0.182-0.728-0.336c-0.215-0.154-0.39-0.352-0.525-0.595c-0.135-0.242-0.203-0.537-0.203-0.882
		c0-0.495,0.126-0.887,0.378-1.176c0.252-0.29,0.562-0.506,0.931-0.651c0.369-0.146,0.761-0.238,1.176-0.28
		c0.415-0.042,0.782-0.063,1.099-0.063h0.98v-0.392c0-0.56-0.173-0.961-0.518-1.204c-0.346-0.243-0.779-0.364-1.302-0.364
		c-0.747,0-1.405,0.243-1.974,0.728l-0.49-0.574c0.308-0.298,0.69-0.525,1.148-0.679c0.458-0.154,0.896-0.231,1.316-0.231
		c0.784,0,1.409,0.185,1.876,0.553c0.467,0.368,0.7,0.964,0.7,1.785L123.072,13.642L123.072,13.642z M121.392,13.109
		c-0.354,0-0.698,0.023-1.029,0.07c-0.332,0.047-0.63,0.126-0.896,0.238c-0.266,0.112-0.479,0.261-0.637,0.448
		c-0.159,0.187-0.238,0.42-0.238,0.7c0,0.196,0.044,0.371,0.133,0.525c0.089,0.154,0.203,0.28,0.343,0.378
		c0.14,0.098,0.296,0.173,0.469,0.224c0.173,0.051,0.348,0.077,0.525,0.077c0.448,0,0.816-0.065,1.106-0.196
		c0.289-0.13,0.52-0.301,0.693-0.511c0.172-0.21,0.292-0.448,0.357-0.714c0.065-0.266,0.098-0.534,0.098-0.805v-0.434H121.392z"/>
	<path fill="#243C5E" d="M125.312,11.709c0-0.121-0.005-0.268-0.014-0.441c-0.009-0.173-0.017-0.348-0.021-0.525
		c-0.005-0.177-0.012-0.343-0.021-0.497c-0.009-0.154-0.014-0.273-0.014-0.357h0.84c0.009,0.243,0.016,0.476,0.021,0.7
		c0.004,0.224,0.016,0.369,0.035,0.434c0.215-0.383,0.49-0.695,0.826-0.938s0.747-0.364,1.232-0.364
		c0.084,0,0.166,0.007,0.245,0.021c0.079,0.014,0.161,0.031,0.245,0.049l-0.098,0.826c-0.112-0.037-0.219-0.056-0.322-0.056
		c-0.364,0-0.679,0.058-0.945,0.175c-0.266,0.117-0.485,0.278-0.658,0.483c-0.173,0.206-0.301,0.446-0.385,0.721
		s-0.126,0.572-0.126,0.889v3.528h-0.84V11.709L125.312,11.709z"/>
	<path fill="#243C5E" d="M138.64,13.642c0,0.317,0.002,0.602,0.007,0.854s0.012,0.485,0.021,0.7
		c0.009,0.215,0.021,0.416,0.035,0.602c0.014,0.187,0.035,0.374,0.063,0.56h-0.784c-0.056-0.317-0.084-0.667-0.084-1.05h-0.028
		c-0.243,0.42-0.544,0.728-0.903,0.924c-0.359,0.196-0.814,0.294-1.365,0.294c-0.28,0-0.555-0.035-0.826-0.105
		c-0.271-0.07-0.514-0.182-0.728-0.336c-0.215-0.154-0.39-0.352-0.525-0.595c-0.135-0.242-0.203-0.537-0.203-0.882
		c0-0.495,0.126-0.887,0.378-1.176c0.252-0.29,0.562-0.506,0.931-0.651c0.369-0.146,0.761-0.238,1.176-0.28s0.782-0.063,1.099-0.063
		h0.98v-0.392c0-0.56-0.173-0.961-0.518-1.204c-0.346-0.243-0.779-0.364-1.302-0.364c-0.747,0-1.405,0.243-1.974,0.728l-0.49-0.574
		c0.308-0.298,0.69-0.525,1.148-0.679c0.458-0.154,0.896-0.231,1.316-0.231c0.784,0,1.409,0.185,1.876,0.553
		c0.467,0.368,0.7,0.964,0.7,1.785V13.642L138.64,13.642z M136.96,13.109c-0.354,0-0.698,0.023-1.029,0.07
		c-0.332,0.047-0.63,0.126-0.896,0.238c-0.266,0.112-0.479,0.261-0.637,0.448c-0.159,0.187-0.238,0.42-0.238,0.7
		c0,0.196,0.044,0.371,0.133,0.525c0.089,0.154,0.203,0.28,0.343,0.378c0.14,0.098,0.296,0.173,0.469,0.224
		c0.173,0.051,0.348,0.077,0.525,0.077c0.448,0,0.816-0.065,1.106-0.196c0.289-0.13,0.52-0.301,0.693-0.511
		c0.172-0.21,0.292-0.448,0.357-0.714s0.098-0.534,0.098-0.805v-0.434H136.96z"/>
	<path fill="#243C5E" d="M140.88,11.709c0-0.121-0.005-0.268-0.014-0.441c-0.009-0.173-0.017-0.348-0.021-0.525
		c-0.005-0.177-0.012-0.343-0.021-0.497c-0.009-0.154-0.014-0.273-0.014-0.357h0.84c0.009,0.243,0.016,0.476,0.021,0.7
		c0.004,0.224,0.016,0.369,0.035,0.434h0.042c0.168-0.354,0.448-0.66,0.84-0.917s0.849-0.385,1.372-0.385
		c0.504,0,0.915,0.08,1.232,0.238c0.317,0.159,0.567,0.366,0.749,0.623s0.308,0.553,0.378,0.889c0.07,0.336,0.105,0.682,0.105,1.036
		v3.85h-0.84v-3.808c0-0.261-0.023-0.516-0.07-0.763c-0.047-0.248-0.128-0.469-0.245-0.665c-0.117-0.196-0.28-0.353-0.49-0.469
		c-0.21-0.116-0.483-0.175-0.819-0.175c-0.308,0-0.6,0.054-0.875,0.161s-0.514,0.271-0.714,0.49c-0.2,0.219-0.359,0.495-0.476,0.826
		s-0.175,0.721-0.175,1.169v3.234h-0.84V11.709L140.88,11.709z"/>
	<path fill="#243C5E" d="M152.123,9.89h0.84v1.134h0.028c0.13-0.224,0.294-0.417,0.49-0.581c0.196-0.163,0.408-0.298,0.637-0.406
		c0.229-0.107,0.469-0.187,0.721-0.238c0.252-0.051,0.5-0.077,0.742-0.077c0.495,0,0.95,0.084,1.365,0.252s0.774,0.404,1.078,0.707
		c0.304,0.303,0.539,0.663,0.707,1.078c0.168,0.416,0.252,0.871,0.252,1.365s-0.084,0.95-0.252,1.365
		c-0.168,0.416-0.404,0.775-0.707,1.078c-0.303,0.303-0.663,0.539-1.078,0.707c-0.416,0.168-0.871,0.252-1.365,0.252
		c-0.243,0-0.49-0.026-0.742-0.077c-0.252-0.051-0.492-0.13-0.721-0.238c-0.229-0.107-0.441-0.243-0.637-0.406
		c-0.196-0.163-0.359-0.357-0.49-0.581h-0.028v4.326h-0.84V9.89z M152.878,13.124c0,0.364,0.07,0.707,0.21,1.029
		c0.14,0.322,0.332,0.602,0.574,0.84c0.243,0.238,0.527,0.427,0.854,0.567c0.327,0.14,0.681,0.21,1.064,0.21
		c0.392,0,0.747-0.07,1.064-0.21s0.588-0.329,0.812-0.567c0.224-0.238,0.394-0.518,0.511-0.84c0.116-0.322,0.175-0.665,0.175-1.029
		c0-0.364-0.059-0.707-0.175-1.029c-0.117-0.322-0.287-0.602-0.511-0.84c-0.224-0.238-0.495-0.427-0.812-0.567
		s-0.672-0.21-1.064-0.21c-0.383,0-0.737,0.07-1.064,0.21c-0.327,0.14-0.611,0.329-0.854,0.567c-0.243,0.238-0.434,0.518-0.574,0.84
		C152.949,12.417,152.878,12.759,152.878,13.124z"/>
	<path fill="#243C5E" d="M165.884,13.642c0,0.317,0.002,0.602,0.007,0.854s0.012,0.485,0.021,0.7
		c0.009,0.215,0.021,0.416,0.035,0.602c0.014,0.187,0.035,0.374,0.063,0.56h-0.784c-0.056-0.317-0.084-0.667-0.084-1.05h-0.028
		c-0.243,0.42-0.544,0.728-0.903,0.924s-0.814,0.294-1.365,0.294c-0.28,0-0.555-0.035-0.826-0.105
		c-0.271-0.07-0.514-0.182-0.728-0.336c-0.215-0.154-0.39-0.352-0.525-0.595c-0.135-0.242-0.203-0.537-0.203-0.882
		c0-0.495,0.126-0.887,0.378-1.176c0.252-0.29,0.562-0.506,0.931-0.651c0.369-0.146,0.761-0.238,1.176-0.28s0.782-0.063,1.099-0.063
		h0.98v-0.392c0-0.56-0.173-0.961-0.518-1.204c-0.346-0.243-0.779-0.364-1.302-0.364c-0.747,0-1.405,0.243-1.974,0.728l-0.49-0.574
		c0.308-0.298,0.69-0.525,1.148-0.679c0.458-0.154,0.896-0.231,1.316-0.231c0.784,0,1.409,0.185,1.876,0.553
		c0.467,0.368,0.7,0.964,0.7,1.785V13.642L165.884,13.642z M164.204,13.109c-0.354,0-0.698,0.023-1.029,0.07
		c-0.332,0.047-0.63,0.126-0.896,0.238c-0.266,0.112-0.479,0.261-0.637,0.448c-0.159,0.187-0.238,0.42-0.238,0.7
		c0,0.196,0.044,0.371,0.133,0.525c0.089,0.154,0.203,0.28,0.343,0.378c0.14,0.098,0.296,0.173,0.469,0.224
		c0.173,0.051,0.348,0.077,0.525,0.077c0.448,0,0.816-0.065,1.106-0.196c0.289-0.13,0.52-0.301,0.693-0.511
		c0.172-0.21,0.292-0.448,0.357-0.714s0.098-0.534,0.098-0.805v-0.434H164.204z"/>
	<path fill="#243C5E" d="M168.125,11.709c0-0.121-0.005-0.268-0.014-0.441c-0.009-0.173-0.017-0.348-0.021-0.525
		c-0.005-0.177-0.012-0.343-0.021-0.497c-0.009-0.154-0.014-0.273-0.014-0.357h0.84c0.009,0.243,0.016,0.476,0.021,0.7
		c0.004,0.224,0.016,0.369,0.035,0.434c0.215-0.383,0.49-0.695,0.826-0.938s0.747-0.364,1.232-0.364
		c0.084,0,0.166,0.007,0.245,0.021c0.079,0.014,0.161,0.031,0.245,0.049l-0.098,0.826c-0.112-0.037-0.219-0.056-0.322-0.056
		c-0.364,0-0.679,0.058-0.945,0.175c-0.266,0.117-0.485,0.278-0.658,0.483c-0.173,0.206-0.301,0.446-0.385,0.721
		s-0.126,0.572-0.126,0.889v3.528h-0.84V11.709L168.125,11.709z"/>
	<path fill="#243C5E" d="M181.453,13.642c0,0.317,0.002,0.602,0.007,0.854s0.012,0.485,0.021,0.7
		c0.009,0.215,0.021,0.416,0.035,0.602c0.014,0.187,0.035,0.374,0.063,0.56h-0.784c-0.056-0.317-0.084-0.667-0.084-1.05h-0.028
		c-0.243,0.42-0.544,0.728-0.903,0.924c-0.359,0.196-0.814,0.294-1.365,0.294c-0.28,0-0.555-0.035-0.826-0.105
		c-0.271-0.07-0.514-0.182-0.728-0.336c-0.215-0.154-0.39-0.352-0.525-0.595c-0.135-0.242-0.203-0.537-0.203-0.882
		c0-0.495,0.126-0.887,0.378-1.176c0.252-0.29,0.562-0.506,0.931-0.651c0.369-0.146,0.761-0.238,1.176-0.28s0.782-0.063,1.099-0.063
		h0.98v-0.392c0-0.56-0.173-0.961-0.518-1.204c-0.346-0.243-0.779-0.364-1.302-0.364c-0.747,0-1.405,0.243-1.974,0.728l-0.49-0.574
		c0.308-0.298,0.69-0.525,1.148-0.679c0.458-0.154,0.896-0.231,1.316-0.231c0.784,0,1.409,0.185,1.876,0.553
		c0.467,0.368,0.7,0.964,0.7,1.785V13.642L181.453,13.642z M179.772,13.109c-0.354,0-0.698,0.023-1.029,0.07
		c-0.332,0.047-0.63,0.126-0.896,0.238c-0.266,0.112-0.479,0.261-0.637,0.448c-0.159,0.187-0.238,0.42-0.238,0.7
		c0,0.196,0.044,0.371,0.133,0.525c0.089,0.154,0.203,0.28,0.343,0.378c0.14,0.098,0.296,0.173,0.469,0.224
		c0.173,0.051,0.348,0.077,0.525,0.077c0.448,0,0.816-0.065,1.106-0.196c0.289-0.13,0.52-0.301,0.693-0.511
		c0.172-0.21,0.292-0.448,0.357-0.714s0.098-0.534,0.098-0.805v-0.434H179.772z"/>
	<path fill="#243C5E" d="M183.511,9.89h0.84v1.134h0.028c0.13-0.224,0.294-0.417,0.49-0.581c0.196-0.163,0.408-0.298,0.637-0.406
		c0.229-0.107,0.469-0.187,0.721-0.238c0.252-0.051,0.5-0.077,0.742-0.077c0.495,0,0.95,0.084,1.365,0.252s0.774,0.404,1.078,0.707
		c0.304,0.303,0.539,0.663,0.707,1.078c0.168,0.416,0.252,0.871,0.252,1.365s-0.084,0.95-0.252,1.365
		c-0.168,0.416-0.404,0.775-0.707,1.078c-0.303,0.303-0.663,0.539-1.078,0.707c-0.416,0.168-0.871,0.252-1.365,0.252
		c-0.243,0-0.49-0.026-0.742-0.077c-0.252-0.051-0.492-0.13-0.721-0.238c-0.229-0.107-0.441-0.243-0.637-0.406
		c-0.196-0.163-0.359-0.357-0.49-0.581h-0.028v4.326h-0.84V9.89z M184.267,13.124c0,0.364,0.07,0.707,0.21,1.029
		c0.14,0.322,0.332,0.602,0.574,0.84c0.243,0.238,0.527,0.427,0.854,0.567c0.327,0.14,0.681,0.21,1.064,0.21
		c0.392,0,0.747-0.07,1.064-0.21c0.317-0.14,0.588-0.329,0.812-0.567c0.224-0.238,0.394-0.518,0.511-0.84
		c0.116-0.322,0.175-0.665,0.175-1.029c0-0.364-0.059-0.707-0.175-1.029c-0.117-0.322-0.287-0.602-0.511-0.84
		c-0.224-0.238-0.495-0.427-0.812-0.567c-0.317-0.14-0.672-0.21-1.064-0.21c-0.383,0-0.737,0.07-1.064,0.21
		c-0.327,0.14-0.611,0.329-0.854,0.567c-0.243,0.238-0.434,0.518-0.574,0.84C184.337,12.417,184.267,12.759,184.267,13.124z"/>
	<path fill="#243C5E" d="M192.064,9.89h0.84v1.134h0.028c0.13-0.224,0.294-0.417,0.49-0.581c0.196-0.163,0.408-0.298,0.637-0.406
		c0.229-0.107,0.469-0.187,0.721-0.238c0.252-0.051,0.5-0.077,0.742-0.077c0.495,0,0.95,0.084,1.365,0.252
		c0.415,0.168,0.774,0.404,1.078,0.707c0.304,0.303,0.539,0.663,0.707,1.078c0.168,0.416,0.252,0.871,0.252,1.365
		s-0.084,0.95-0.252,1.365c-0.168,0.416-0.404,0.775-0.707,1.078c-0.303,0.303-0.663,0.539-1.078,0.707
		c-0.416,0.168-0.871,0.252-1.365,0.252c-0.243,0-0.49-0.026-0.742-0.077c-0.252-0.051-0.492-0.13-0.721-0.238
		c-0.229-0.107-0.441-0.243-0.637-0.406c-0.196-0.163-0.359-0.357-0.49-0.581h-0.028v4.326h-0.84V9.89z M192.82,13.124
		c0,0.364,0.07,0.707,0.21,1.029c0.14,0.322,0.332,0.602,0.574,0.84c0.243,0.238,0.527,0.427,0.854,0.567s0.681,0.21,1.064,0.21
		c0.392,0,0.747-0.07,1.064-0.21s0.588-0.329,0.812-0.567c0.224-0.238,0.394-0.518,0.511-0.84c0.116-0.322,0.175-0.665,0.175-1.029
		c0-0.364-0.059-0.707-0.175-1.029c-0.117-0.322-0.287-0.602-0.511-0.84c-0.224-0.238-0.495-0.427-0.812-0.567
		s-0.672-0.21-1.064-0.21c-0.383,0-0.737,0.07-1.064,0.21s-0.611,0.329-0.854,0.567c-0.243,0.238-0.434,0.518-0.574,0.84
		C192.891,12.417,192.82,12.759,192.82,13.124z"/>
	<path fill="#243C5E" d="M205.826,13.642c0,0.317,0.002,0.602,0.007,0.854s0.012,0.485,0.021,0.7
		c0.009,0.215,0.021,0.416,0.035,0.602c0.014,0.187,0.035,0.374,0.063,0.56h-0.784c-0.056-0.317-0.084-0.667-0.084-1.05h-0.028
		c-0.243,0.42-0.544,0.728-0.903,0.924c-0.359,0.196-0.814,0.294-1.365,0.294c-0.28,0-0.555-0.035-0.826-0.105
		c-0.271-0.07-0.514-0.182-0.728-0.336c-0.215-0.154-0.39-0.352-0.525-0.595c-0.135-0.242-0.203-0.537-0.203-0.882
		c0-0.495,0.126-0.887,0.378-1.176c0.252-0.29,0.562-0.506,0.931-0.651c0.369-0.146,0.761-0.238,1.176-0.28s0.782-0.063,1.099-0.063
		h0.98v-0.392c0-0.56-0.173-0.961-0.518-1.204c-0.346-0.243-0.779-0.364-1.302-0.364c-0.747,0-1.405,0.243-1.974,0.728l-0.49-0.574
		c0.308-0.298,0.69-0.525,1.148-0.679c0.458-0.154,0.896-0.231,1.316-0.231c0.784,0,1.409,0.185,1.876,0.553
		c0.467,0.368,0.7,0.964,0.7,1.785V13.642L205.826,13.642z M204.146,13.109c-0.354,0-0.698,0.023-1.029,0.07
		c-0.332,0.047-0.63,0.126-0.896,0.238c-0.266,0.112-0.479,0.261-0.637,0.448c-0.159,0.187-0.238,0.42-0.238,0.7
		c0,0.196,0.044,0.371,0.133,0.525c0.089,0.154,0.203,0.28,0.343,0.378c0.14,0.098,0.296,0.173,0.469,0.224
		c0.173,0.051,0.348,0.077,0.525,0.077c0.448,0,0.816-0.065,1.106-0.196c0.289-0.13,0.52-0.301,0.693-0.511
		c0.172-0.21,0.292-0.448,0.357-0.714s0.098-0.534,0.098-0.805v-0.434H204.146z"/>
	<path fill="#243C5E" d="M208.066,11.709c0-0.121-0.005-0.268-0.014-0.441c-0.009-0.173-0.017-0.348-0.021-0.525
		c-0.005-0.177-0.012-0.343-0.021-0.497c-0.009-0.154-0.014-0.273-0.014-0.357h0.84c0.009,0.243,0.016,0.476,0.021,0.7
		c0.004,0.224,0.016,0.369,0.035,0.434c0.215-0.383,0.49-0.695,0.826-0.938c0.336-0.243,0.747-0.364,1.232-0.364
		c0.084,0,0.166,0.007,0.245,0.021c0.079,0.014,0.161,0.031,0.245,0.049l-0.098,0.826c-0.112-0.037-0.219-0.056-0.322-0.056
		c-0.364,0-0.679,0.058-0.945,0.175c-0.266,0.117-0.485,0.278-0.658,0.483c-0.173,0.206-0.301,0.446-0.385,0.721
		s-0.126,0.572-0.126,0.889v3.528h-0.84V11.709L208.066,11.709z"/>
	<path fill="#243C5E" d="M218.189,15.14c-0.327,0.495-0.73,0.849-1.211,1.064c-0.481,0.214-1.011,0.322-1.589,0.322
		c-0.495,0-0.943-0.084-1.344-0.252s-0.747-0.404-1.036-0.707c-0.289-0.303-0.511-0.663-0.665-1.078
		c-0.154-0.415-0.231-0.875-0.231-1.379c0-0.485,0.079-0.933,0.238-1.344c0.159-0.411,0.382-0.768,0.672-1.071
		c0.289-0.303,0.63-0.541,1.022-0.714s0.826-0.259,1.302-0.259c0.494,0,0.931,0.086,1.309,0.259
		c0.378,0.173,0.695,0.401,0.952,0.686c0.257,0.285,0.45,0.609,0.581,0.973c0.13,0.364,0.196,0.732,0.196,1.106v0.588h-5.432
		c0,0.177,0.035,0.404,0.105,0.679c0.07,0.275,0.198,0.544,0.385,0.805c0.187,0.261,0.436,0.485,0.749,0.672
		c0.312,0.187,0.716,0.28,1.211,0.28c0.429,0,0.845-0.103,1.246-0.308s0.709-0.485,0.924-0.84L218.189,15.14z M217.545,12.578
		c0-0.29-0.059-0.56-0.175-0.812c-0.117-0.252-0.275-0.474-0.476-0.665s-0.439-0.343-0.714-0.455
		c-0.276-0.112-0.567-0.168-0.875-0.168c-0.458,0-0.838,0.093-1.141,0.28c-0.304,0.187-0.544,0.401-0.721,0.644
		c-0.177,0.243-0.303,0.479-0.378,0.707c-0.075,0.229-0.112,0.385-0.112,0.469H217.545z"/>
	<path fill="#243C5E" d="M220.191,7.328c0-0.177,0.061-0.327,0.182-0.448s0.271-0.182,0.448-0.182c0.177,0,0.327,0.061,0.448,0.182
		c0.121,0.122,0.182,0.271,0.182,0.448c0,0.177-0.061,0.327-0.182,0.448c-0.121,0.122-0.271,0.182-0.448,0.182
		c-0.178,0-0.327-0.061-0.448-0.182C220.251,7.654,220.191,7.505,220.191,7.328z M220.401,9.89h0.84v6.468h-0.84V9.89z"/>
	<path fill="#243C5E" d="M223.761,5.773h0.84v10.584h-0.84V5.773z"/>
</g>
</svg>
