<?xml version="1.0" encoding="utf-8"?>
<!-- Generator: Adobe Illustrator 16.0.0, SVG Export Plug-In . SVG Version: 6.00 Build 0)  -->
<!DOCTYPE svg PUBLIC "-//W3C//DTD SVG 1.1//EN" "http://www.w3.org/Graphics/SVG/1.1/DTD/svg11.dtd">
<svg version="1.1" id="Calque_1" xmlns="http://www.w3.org/2000/svg" xmlns:xlink="http://www.w3.org/1999/xlink" x="0px" y="0px"
	 width="578px" height="54px" viewBox="0 0 578 54" enable-background="new 0 0 578 54" xml:space="preserve">
<g>
	<path fill="#243C5E" d="M14.747,28.443l6.851-8.977h-6.647v-1.53h8.687v1.53l-6.817,8.977h6.919v1.529h-8.993V28.443L14.747,28.443
		z"/>
	<path fill="#243C5E" d="M25.049,25.944c0-0.589,0.11-1.139,0.332-1.649c0.221-0.51,0.524-0.958,0.909-1.343
		c0.385-0.385,0.839-0.688,1.36-0.91c0.521-0.221,1.082-0.332,1.683-0.332s1.162,0.111,1.683,0.332s0.975,0.524,1.36,0.91
		c0.385,0.386,0.688,0.833,0.91,1.343c0.221,0.51,0.332,1.06,0.332,1.649c0,0.589-0.11,1.142-0.332,1.658
		c-0.222,0.515-0.524,0.963-0.91,1.344c-0.385,0.379-0.839,0.68-1.36,0.899c-0.521,0.222-1.083,0.332-1.683,0.332
		s-1.162-0.11-1.683-0.332c-0.521-0.221-0.975-0.521-1.36-0.899c-0.385-0.381-0.688-0.828-0.909-1.344
		C25.159,27.086,25.049,26.534,25.049,25.944z M26.681,25.944c0,0.408,0.062,0.785,0.187,1.13c0.125,0.346,0.3,0.64,0.527,0.884
		c0.227,0.245,0.504,0.437,0.833,0.579s0.697,0.212,1.105,0.212s0.776-0.069,1.105-0.212s0.606-0.334,0.833-0.579
		c0.227-0.244,0.402-0.538,0.527-0.884c0.125-0.346,0.187-0.723,0.187-1.13c0-0.408-0.062-0.785-0.187-1.131
		c-0.125-0.345-0.301-0.64-0.527-0.884c-0.226-0.244-0.504-0.436-0.833-0.578s-0.697-0.212-1.105-0.212s-0.776,0.071-1.105,0.212
		c-0.329,0.142-0.606,0.334-0.833,0.578c-0.227,0.244-0.402,0.539-0.527,0.884C26.743,25.16,26.681,25.536,26.681,25.944z"/>
	<path fill="#243C5E" d="M35.146,25.944c0-0.589,0.11-1.139,0.332-1.649c0.221-0.51,0.524-0.958,0.909-1.343
		c0.385-0.385,0.839-0.688,1.36-0.91c0.521-0.221,1.082-0.332,1.683-0.332s1.162,0.111,1.683,0.332s0.975,0.524,1.36,0.91
		c0.385,0.386,0.688,0.833,0.91,1.343c0.221,0.51,0.332,1.06,0.332,1.649c0,0.589-0.11,1.142-0.332,1.658
		c-0.222,0.515-0.524,0.963-0.91,1.344c-0.385,0.379-0.839,0.68-1.36,0.899c-0.521,0.222-1.083,0.332-1.683,0.332
		c-0.6,0-1.162-0.11-1.683-0.332c-0.521-0.221-0.975-0.521-1.36-0.899c-0.385-0.381-0.688-0.828-0.909-1.344
		S35.146,26.534,35.146,25.944z M36.778,25.944c0,0.408,0.062,0.785,0.187,1.13c0.125,0.346,0.3,0.64,0.527,0.884
		c0.227,0.245,0.504,0.437,0.833,0.579c0.329,0.143,0.697,0.212,1.105,0.212c0.408,0,0.776-0.069,1.105-0.212
		c0.329-0.143,0.606-0.334,0.833-0.579c0.227-0.244,0.402-0.538,0.527-0.884c0.125-0.346,0.187-0.723,0.187-1.13
		c0-0.408-0.062-0.785-0.187-1.131c-0.125-0.345-0.301-0.64-0.527-0.884c-0.226-0.244-0.504-0.436-0.833-0.578
		c-0.329-0.142-0.697-0.212-1.105-0.212c-0.408,0-0.776,0.071-1.105,0.212c-0.329,0.142-0.606,0.334-0.833,0.578
		c-0.227,0.244-0.402,0.539-0.527,0.884C36.84,25.16,36.778,25.536,36.778,25.944z"/>
	<path fill="#243C5E" d="M45.635,21.915h1.428v1.258h0.034c0.034-0.113,0.122-0.255,0.263-0.425c0.141-0.17,0.323-0.332,0.544-0.484
		c0.221-0.153,0.482-0.283,0.782-0.391c0.3-0.107,0.632-0.162,0.995-0.162c0.601,0,1.105,0.125,1.513,0.374
		c0.408,0.25,0.742,0.624,1.003,1.122c0.261-0.499,0.629-0.873,1.105-1.122c0.476-0.249,0.958-0.374,1.445-0.374
		c0.623,0,1.133,0.102,1.53,0.306s0.708,0.474,0.935,0.808s0.383,0.714,0.468,1.139c0.085,0.425,0.127,0.864,0.127,1.317v4.691
		h-1.53v-4.488c0-0.306-0.02-0.601-0.06-0.884c-0.04-0.283-0.122-0.533-0.246-0.748c-0.125-0.215-0.301-0.388-0.527-0.519
		c-0.227-0.13-0.527-0.195-0.901-0.195c-0.737,0-1.264,0.227-1.581,0.68c-0.317,0.453-0.476,1.037-0.476,1.751v4.403h-1.53v-4.216
		c0-0.385-0.02-0.737-0.06-1.054c-0.04-0.317-0.119-0.592-0.238-0.825c-0.119-0.232-0.289-0.414-0.51-0.544
		s-0.519-0.195-0.893-0.195c-0.272,0-0.535,0.054-0.791,0.162c-0.255,0.108-0.479,0.269-0.671,0.484
		c-0.192,0.215-0.346,0.49-0.459,0.825c-0.113,0.334-0.17,0.728-0.17,1.181v4.182h-1.53L45.635,21.915L45.635,21.915z"/>
	<path fill="#243C5E" d="M69.129,23.938c-0.181-0.227-0.405-0.417-0.671-0.569c-0.267-0.153-0.592-0.229-0.978-0.229
		c-0.363,0-0.677,0.077-0.943,0.229c-0.267,0.153-0.399,0.377-0.399,0.671c0,0.238,0.076,0.431,0.229,0.578
		c0.153,0.147,0.334,0.267,0.544,0.357c0.209,0.091,0.433,0.159,0.671,0.204c0.238,0.045,0.442,0.085,0.612,0.119
		c0.329,0.079,0.638,0.176,0.927,0.289c0.289,0.114,0.538,0.261,0.748,0.442c0.209,0.181,0.374,0.402,0.493,0.663
		c0.119,0.261,0.179,0.578,0.179,0.953c0,0.453-0.097,0.842-0.289,1.164c-0.193,0.323-0.442,0.586-0.748,0.791
		c-0.306,0.203-0.654,0.353-1.045,0.441c-0.391,0.091-0.785,0.137-1.182,0.137c-0.669,0-1.255-0.103-1.759-0.307
		s-0.955-0.578-1.352-1.122l1.156-0.952c0.25,0.25,0.527,0.471,0.833,0.663c0.306,0.192,0.68,0.289,1.122,0.289
		c0.193,0,0.388-0.021,0.586-0.06c0.198-0.039,0.374-0.103,0.527-0.188c0.153-0.084,0.277-0.19,0.374-0.321
		c0.096-0.132,0.145-0.281,0.145-0.451c0-0.228-0.071-0.415-0.213-0.562c-0.142-0.147-0.312-0.263-0.51-0.348
		c-0.199-0.085-0.408-0.153-0.629-0.204c-0.221-0.051-0.417-0.094-0.587-0.127c-0.329-0.079-0.64-0.17-0.935-0.272
		c-0.295-0.102-0.556-0.238-0.782-0.408c-0.227-0.17-0.408-0.385-0.544-0.646c-0.136-0.261-0.204-0.583-0.204-0.969
		c0-0.419,0.088-0.785,0.264-1.097c0.175-0.312,0.408-0.569,0.697-0.773c0.289-0.204,0.618-0.357,0.986-0.459
		c0.368-0.102,0.739-0.153,1.113-0.153c0.544,0,1.065,0.102,1.564,0.306s0.895,0.544,1.19,1.02L69.129,23.938z"/>
	<path fill="#243C5E" d="M79.533,29.973h-1.53v-1.24h-0.034c-0.193,0.432-0.527,0.779-1.003,1.045c-0.476,0.268-1.026,0.4-1.649,0.4
		c-0.397,0-0.771-0.061-1.122-0.18c-0.352-0.118-0.66-0.303-0.926-0.553c-0.267-0.248-0.479-0.568-0.638-0.959
		c-0.159-0.393-0.238-0.854-0.238-1.386v-5.185h1.53v4.76c0,0.374,0.051,0.694,0.153,0.96s0.238,0.481,0.408,0.646
		c0.17,0.164,0.365,0.283,0.586,0.357c0.221,0.073,0.451,0.109,0.688,0.109c0.317,0,0.612-0.051,0.884-0.153
		c0.272-0.102,0.51-0.264,0.714-0.483c0.204-0.221,0.362-0.502,0.476-0.841c0.113-0.34,0.17-0.742,0.17-1.207v-4.148h1.53
		L79.533,29.973L79.533,29.973z"/>
	<path fill="#243C5E" d="M81.845,21.915h1.53v1.241h0.034c0.102-0.215,0.238-0.411,0.408-0.586c0.17-0.175,0.36-0.326,0.569-0.451
		c0.21-0.125,0.439-0.224,0.689-0.297c0.249-0.074,0.499-0.111,0.748-0.111c0.25,0,0.476,0.034,0.68,0.102l-0.068,1.649
		c-0.125-0.034-0.25-0.062-0.374-0.085c-0.125-0.022-0.25-0.034-0.374-0.034c-0.748,0-1.32,0.21-1.717,0.629
		c-0.396,0.419-0.595,1.071-0.595,1.955v4.046h-1.53V21.915z"/>
	<path fill="#243C5E" d="M92.98,17.121h1.53v12.852h-1.53V17.121z"/>
	<path fill="#243C5E" d="M96.975,22.901c0.431-0.397,0.929-0.694,1.496-0.893c0.566-0.198,1.133-0.298,1.7-0.298
		c0.589,0,1.096,0.074,1.521,0.221c0.425,0.147,0.773,0.346,1.045,0.595s0.473,0.535,0.604,0.858c0.13,0.323,0.195,0.66,0.195,1.011
		v4.115c0,0.283,0.006,0.543,0.017,0.781c0.011,0.238,0.028,0.465,0.051,0.68h-1.36c-0.034-0.408-0.051-0.814-0.051-1.224h-0.034
		c-0.34,0.521-0.742,0.89-1.207,1.104c-0.465,0.215-1.003,0.323-1.615,0.323c-0.374,0-0.731-0.052-1.071-0.153
		c-0.34-0.103-0.637-0.254-0.893-0.459c-0.255-0.203-0.456-0.455-0.604-0.756c-0.148-0.302-0.221-0.648-0.221-1.046
		c0-0.521,0.116-0.958,0.348-1.309c0.232-0.351,0.55-0.638,0.952-0.858c0.402-0.221,0.873-0.379,1.411-0.476
		c0.538-0.096,1.113-0.145,1.726-0.145h1.122v-0.34c0-0.204-0.04-0.408-0.119-0.612c-0.08-0.204-0.199-0.388-0.357-0.552
		c-0.159-0.164-0.357-0.294-0.595-0.391c-0.238-0.096-0.521-0.145-0.85-0.145c-0.294,0-0.552,0.028-0.773,0.085
		c-0.221,0.057-0.422,0.127-0.604,0.212c-0.181,0.085-0.346,0.185-0.493,0.298c-0.147,0.113-0.289,0.221-0.425,0.323L96.975,22.901z
		 M101.292,26.097c-0.363,0-0.734,0.02-1.113,0.06c-0.38,0.04-0.726,0.116-1.037,0.229c-0.311,0.113-0.567,0.272-0.765,0.476
		c-0.198,0.204-0.297,0.465-0.297,0.783c0,0.465,0.156,0.799,0.468,1.002c0.312,0.205,0.733,0.307,1.266,0.307
		c0.419,0,0.776-0.07,1.071-0.213c0.294-0.141,0.533-0.325,0.714-0.553c0.181-0.227,0.312-0.479,0.391-0.756
		c0.079-0.277,0.119-0.553,0.119-0.825v-0.51L101.292,26.097L101.292,26.097z"/>
	<path fill="#243C5E" d="M116.252,24.057c-0.283-0.294-0.581-0.519-0.893-0.671c-0.312-0.153-0.683-0.229-1.113-0.229
		c-0.419,0-0.785,0.076-1.097,0.229c-0.312,0.153-0.572,0.363-0.782,0.629c-0.21,0.267-0.369,0.572-0.476,0.918
		c-0.108,0.346-0.162,0.706-0.162,1.08s0.062,0.729,0.187,1.062c0.125,0.334,0.3,0.626,0.527,0.875s0.499,0.444,0.816,0.587
		c0.317,0.143,0.674,0.212,1.071,0.212c0.431,0,0.799-0.076,1.105-0.229c0.306-0.151,0.589-0.377,0.85-0.67l1.088,1.086
		c-0.397,0.442-0.858,0.76-1.386,0.953c-0.527,0.191-1.085,0.289-1.674,0.289c-0.624,0-1.193-0.103-1.708-0.307
		s-0.96-0.49-1.334-0.857c-0.374-0.369-0.663-0.811-0.867-1.326c-0.204-0.517-0.306-1.085-0.306-1.708s0.102-1.195,0.306-1.717
		c0.204-0.521,0.49-0.969,0.859-1.343c0.368-0.374,0.81-0.666,1.326-0.875c0.516-0.209,1.091-0.314,1.726-0.314
		c0.589,0,1.153,0.105,1.691,0.314c0.538,0.21,1.006,0.53,1.403,0.96L116.252,24.057z"/>
	<path fill="#243C5E" d="M118.292,25.944c0-0.589,0.11-1.139,0.332-1.649c0.221-0.51,0.524-0.958,0.909-1.343
		c0.385-0.385,0.839-0.688,1.36-0.91c0.521-0.221,1.082-0.332,1.683-0.332c0.601,0,1.162,0.111,1.683,0.332s0.975,0.524,1.36,0.91
		c0.385,0.386,0.688,0.833,0.91,1.343c0.221,0.51,0.332,1.06,0.332,1.649c0,0.589-0.11,1.142-0.332,1.658
		c-0.222,0.515-0.524,0.963-0.91,1.344c-0.385,0.379-0.839,0.68-1.36,0.899c-0.521,0.222-1.083,0.332-1.683,0.332
		c-0.6,0-1.162-0.11-1.683-0.332c-0.521-0.221-0.975-0.521-1.36-0.899c-0.385-0.381-0.688-0.828-0.909-1.344
		S118.292,26.534,118.292,25.944z M119.924,25.944c0,0.408,0.062,0.785,0.187,1.13c0.125,0.346,0.3,0.64,0.527,0.884
		c0.227,0.245,0.504,0.437,0.833,0.579c0.329,0.143,0.697,0.212,1.105,0.212c0.408,0,0.776-0.069,1.105-0.212
		c0.329-0.143,0.606-0.334,0.833-0.579c0.227-0.244,0.402-0.538,0.527-0.884c0.125-0.346,0.187-0.723,0.187-1.13
		c0-0.408-0.062-0.785-0.187-1.131c-0.125-0.345-0.301-0.64-0.527-0.884c-0.226-0.244-0.504-0.436-0.833-0.578
		c-0.329-0.142-0.697-0.212-1.105-0.212c-0.408,0-0.776,0.071-1.105,0.212c-0.329,0.142-0.606,0.334-0.833,0.578
		c-0.227,0.244-0.402,0.539-0.527,0.884C119.986,25.16,119.924,25.536,119.924,25.944z"/>
	<path fill="#243C5E" d="M128.781,21.915h1.53v1.241h0.034c0.192-0.431,0.527-0.779,1.003-1.045s1.025-0.4,1.649-0.4
		c0.385,0,0.756,0.06,1.113,0.179c0.357,0.119,0.669,0.303,0.935,0.553c0.266,0.249,0.479,0.569,0.638,0.96
		c0.159,0.391,0.238,0.853,0.238,1.385v5.185h-1.53v-4.759c0-0.374-0.051-0.694-0.153-0.961c-0.102-0.266-0.238-0.481-0.408-0.646
		c-0.17-0.164-0.366-0.283-0.586-0.357c-0.221-0.073-0.451-0.11-0.688-0.11c-0.317,0-0.612,0.051-0.884,0.153
		s-0.51,0.264-0.714,0.485c-0.204,0.221-0.363,0.501-0.476,0.841c-0.113,0.34-0.17,0.742-0.17,1.207v4.146h-1.53L128.781,21.915
		L128.781,21.915z"/>
	<path fill="#243C5E" d="M142.518,23.938c-0.181-0.227-0.405-0.417-0.671-0.569c-0.267-0.153-0.592-0.229-0.978-0.229
		c-0.363,0-0.677,0.077-0.943,0.229c-0.267,0.153-0.399,0.377-0.399,0.671c0,0.238,0.076,0.431,0.229,0.578
		c0.153,0.147,0.334,0.267,0.544,0.357c0.209,0.091,0.433,0.159,0.671,0.204c0.238,0.045,0.442,0.085,0.612,0.119
		c0.329,0.079,0.638,0.176,0.927,0.289c0.289,0.114,0.538,0.261,0.748,0.442c0.209,0.181,0.374,0.402,0.493,0.663
		c0.119,0.261,0.179,0.578,0.179,0.953c0,0.453-0.097,0.842-0.289,1.164c-0.193,0.323-0.442,0.586-0.748,0.791
		c-0.306,0.203-0.654,0.353-1.045,0.441c-0.391,0.091-0.785,0.137-1.182,0.137c-0.669,0-1.255-0.103-1.759-0.307
		c-0.504-0.204-0.955-0.578-1.352-1.122l1.156-0.952c0.25,0.25,0.527,0.471,0.833,0.663s0.68,0.289,1.122,0.289
		c0.193,0,0.388-0.021,0.586-0.06c0.198-0.039,0.374-0.103,0.527-0.188c0.153-0.084,0.277-0.19,0.374-0.321
		c0.096-0.132,0.145-0.281,0.145-0.451c0-0.228-0.071-0.415-0.213-0.562s-0.312-0.263-0.51-0.348
		c-0.199-0.085-0.408-0.153-0.629-0.204c-0.221-0.051-0.417-0.094-0.587-0.127c-0.329-0.079-0.64-0.17-0.935-0.272
		c-0.295-0.102-0.556-0.238-0.782-0.408c-0.227-0.17-0.408-0.385-0.544-0.646c-0.136-0.261-0.204-0.583-0.204-0.969
		c0-0.419,0.088-0.785,0.264-1.097c0.175-0.312,0.408-0.569,0.697-0.773c0.289-0.204,0.618-0.357,0.986-0.459
		c0.368-0.102,0.739-0.153,1.113-0.153c0.544,0,1.065,0.102,1.564,0.306s0.895,0.544,1.19,1.02L142.518,23.938z"/>
	<path fill="#243C5E" d="M145.391,25.944c0-0.589,0.11-1.139,0.332-1.649c0.221-0.51,0.524-0.958,0.909-1.343
		c0.385-0.385,0.839-0.688,1.36-0.91c0.521-0.221,1.082-0.332,1.683-0.332c0.601,0,1.162,0.111,1.683,0.332s0.975,0.524,1.36,0.91
		c0.385,0.386,0.688,0.833,0.91,1.343c0.221,0.51,0.332,1.06,0.332,1.649c0,0.589-0.11,1.142-0.332,1.658
		c-0.222,0.515-0.524,0.963-0.91,1.344c-0.385,0.379-0.839,0.68-1.36,0.899c-0.521,0.222-1.083,0.332-1.683,0.332
		c-0.6,0-1.162-0.11-1.683-0.332c-0.521-0.221-0.975-0.521-1.36-0.899c-0.385-0.381-0.688-0.828-0.909-1.344
		C145.501,27.086,145.391,26.534,145.391,25.944z M147.022,25.944c0,0.408,0.062,0.785,0.187,1.13c0.125,0.346,0.3,0.64,0.527,0.884
		c0.227,0.245,0.504,0.437,0.833,0.579c0.329,0.143,0.697,0.212,1.105,0.212c0.408,0,0.776-0.069,1.105-0.212
		c0.329-0.143,0.606-0.334,0.833-0.579c0.227-0.244,0.402-0.538,0.527-0.884c0.125-0.346,0.187-0.723,0.187-1.13
		c0-0.408-0.062-0.785-0.187-1.131c-0.125-0.345-0.301-0.64-0.527-0.884c-0.226-0.244-0.504-0.436-0.833-0.578
		c-0.329-0.142-0.697-0.212-1.105-0.212c-0.408,0-0.776,0.071-1.105,0.212c-0.329,0.142-0.606,0.334-0.833,0.578
		c-0.227,0.244-0.402,0.539-0.527,0.884C147.084,25.16,147.022,25.536,147.022,25.944z"/>
	<path fill="#243C5E" d="M155.879,21.915h1.428v1.258h0.034c0.034-0.113,0.122-0.255,0.263-0.425s0.323-0.332,0.544-0.484
		c0.221-0.153,0.482-0.283,0.782-0.391c0.3-0.107,0.632-0.162,0.995-0.162c0.601,0,1.105,0.125,1.513,0.374
		c0.408,0.25,0.742,0.624,1.003,1.122c0.261-0.499,0.629-0.873,1.105-1.122s0.958-0.374,1.445-0.374c0.623,0,1.133,0.102,1.53,0.306
		s0.708,0.474,0.935,0.808s0.383,0.714,0.468,1.139c0.085,0.425,0.127,0.864,0.127,1.317v4.691h-1.53v-4.488
		c0-0.306-0.02-0.601-0.06-0.884c-0.04-0.283-0.122-0.533-0.246-0.748c-0.125-0.215-0.301-0.388-0.527-0.519
		c-0.227-0.13-0.527-0.195-0.901-0.195c-0.737,0-1.264,0.227-1.581,0.68c-0.317,0.453-0.476,1.037-0.476,1.751v4.403h-1.53v-4.216
		c0-0.385-0.02-0.737-0.06-1.054c-0.04-0.317-0.119-0.592-0.238-0.825c-0.119-0.232-0.289-0.414-0.51-0.544
		c-0.221-0.13-0.519-0.195-0.893-0.195c-0.272,0-0.535,0.054-0.791,0.162c-0.255,0.108-0.479,0.269-0.671,0.484
		c-0.192,0.215-0.346,0.49-0.459,0.825c-0.113,0.334-0.17,0.728-0.17,1.181v4.182h-1.53L155.879,21.915L155.879,21.915z"/>
	<path fill="#243C5E" d="M170.363,21.915h1.428v1.258h0.034c0.034-0.113,0.122-0.255,0.263-0.425s0.323-0.332,0.544-0.484
		c0.221-0.153,0.482-0.283,0.782-0.391c0.3-0.107,0.632-0.162,0.995-0.162c0.601,0,1.105,0.125,1.513,0.374
		c0.408,0.25,0.742,0.624,1.003,1.122c0.261-0.499,0.629-0.873,1.105-1.122c0.476-0.249,0.958-0.374,1.445-0.374
		c0.623,0,1.133,0.102,1.53,0.306s0.708,0.474,0.935,0.808s0.383,0.714,0.468,1.139c0.085,0.425,0.127,0.864,0.127,1.317v4.691
		h-1.53v-4.488c0-0.306-0.02-0.601-0.06-0.884c-0.04-0.283-0.122-0.533-0.246-0.748c-0.125-0.215-0.301-0.388-0.527-0.519
		c-0.227-0.13-0.527-0.195-0.901-0.195c-0.737,0-1.264,0.227-1.581,0.68c-0.317,0.453-0.476,1.037-0.476,1.751v4.403h-1.53v-4.216
		c0-0.385-0.02-0.737-0.06-1.054c-0.04-0.317-0.119-0.592-0.238-0.825c-0.119-0.232-0.289-0.414-0.51-0.544
		c-0.221-0.13-0.519-0.195-0.893-0.195c-0.272,0-0.535,0.054-0.791,0.162c-0.255,0.108-0.479,0.269-0.671,0.484
		c-0.192,0.215-0.346,0.49-0.459,0.825c-0.113,0.334-0.17,0.728-0.17,1.181v4.182h-1.53L170.363,21.915L170.363,21.915z"/>
	<path fill="#243C5E" d="M184.881,22.901c0.431-0.397,0.929-0.694,1.496-0.893c0.566-0.198,1.133-0.298,1.7-0.298
		c0.589,0,1.096,0.074,1.521,0.221c0.425,0.147,0.773,0.346,1.045,0.595s0.473,0.535,0.604,0.858c0.13,0.323,0.195,0.66,0.195,1.011
		v4.115c0,0.283,0.006,0.543,0.017,0.781c0.011,0.238,0.028,0.465,0.051,0.68h-1.36c-0.034-0.408-0.051-0.814-0.051-1.224h-0.034
		c-0.34,0.521-0.742,0.89-1.207,1.104c-0.465,0.215-1.003,0.323-1.615,0.323c-0.374,0-0.731-0.052-1.071-0.153
		c-0.34-0.103-0.637-0.254-0.893-0.459c-0.255-0.203-0.456-0.455-0.604-0.756c-0.148-0.302-0.221-0.648-0.221-1.046
		c0-0.521,0.116-0.958,0.348-1.309c0.232-0.351,0.55-0.638,0.952-0.858c0.402-0.221,0.873-0.379,1.411-0.476
		c0.538-0.096,1.113-0.145,1.726-0.145h1.122v-0.34c0-0.204-0.04-0.408-0.119-0.612c-0.08-0.204-0.199-0.388-0.357-0.552
		c-0.159-0.164-0.357-0.294-0.595-0.391c-0.238-0.096-0.521-0.145-0.85-0.145c-0.294,0-0.552,0.028-0.773,0.085
		c-0.221,0.057-0.422,0.127-0.604,0.212c-0.181,0.085-0.346,0.185-0.493,0.298c-0.147,0.113-0.289,0.221-0.425,0.323L184.881,22.901
		z M189.199,26.097c-0.363,0-0.734,0.02-1.113,0.06c-0.38,0.04-0.726,0.116-1.037,0.229c-0.311,0.113-0.567,0.272-0.765,0.476
		c-0.198,0.204-0.297,0.465-0.297,0.783c0,0.465,0.156,0.799,0.468,1.002c0.312,0.205,0.733,0.307,1.266,0.307
		c0.419,0,0.776-0.07,1.071-0.213c0.294-0.141,0.533-0.325,0.714-0.553c0.181-0.227,0.312-0.479,0.391-0.756
		c0.079-0.277,0.119-0.553,0.119-0.825v-0.51L189.199,26.097L189.199,26.097z"/>
	<path fill="#243C5E" d="M197.988,23.241h-2.193v3.655c0,0.227,0.006,0.451,0.017,0.672c0.011,0.221,0.054,0.418,0.127,0.594
		c0.074,0.176,0.187,0.318,0.34,0.426c0.153,0.107,0.376,0.161,0.671,0.161c0.181,0,0.368-0.017,0.561-0.051
		c0.192-0.034,0.368-0.097,0.527-0.188v1.395c-0.181,0.103-0.417,0.173-0.706,0.212c-0.289,0.04-0.513,0.061-0.671,0.061
		c-0.589,0-1.045-0.083-1.369-0.246c-0.323-0.164-0.561-0.377-0.714-0.639c-0.153-0.26-0.244-0.553-0.272-0.875
		c-0.028-0.323-0.042-0.648-0.042-0.978v-4.199h-1.768v-1.326h1.768v-2.261h1.53v2.261h2.193L197.988,23.241L197.988,23.241z"/>
	<path fill="#243C5E" d="M199.722,19.025c0-0.306,0.11-0.569,0.332-0.79c0.221-0.221,0.484-0.332,0.791-0.332
		c0.307,0,0.569,0.11,0.791,0.332c0.221,0.221,0.332,0.484,0.332,0.79s-0.111,0.57-0.332,0.791
		c-0.221,0.221-0.484,0.332-0.791,0.332c-0.307,0-0.569-0.11-0.791-0.332C199.832,19.595,199.722,19.331,199.722,19.025z
		 M200.079,21.915h1.53v8.058h-1.53V21.915z"/>
	<path fill="#243C5E" d="M203.648,25.944c0-0.589,0.11-1.139,0.332-1.649c0.221-0.51,0.524-0.958,0.909-1.343
		c0.385-0.385,0.839-0.688,1.36-0.91c0.521-0.221,1.082-0.332,1.683-0.332s1.162,0.111,1.683,0.332
		c0.521,0.221,0.975,0.524,1.36,0.91c0.385,0.386,0.688,0.833,0.91,1.343c0.221,0.51,0.332,1.06,0.332,1.649
		c0,0.589-0.11,1.142-0.332,1.658c-0.222,0.515-0.524,0.963-0.91,1.344c-0.385,0.379-0.839,0.68-1.36,0.899
		c-0.521,0.222-1.083,0.332-1.683,0.332s-1.162-0.11-1.683-0.332c-0.521-0.221-0.975-0.521-1.36-0.899
		c-0.385-0.381-0.688-0.828-0.909-1.344S203.648,26.534,203.648,25.944z M205.28,25.944c0,0.408,0.062,0.785,0.187,1.13
		c0.125,0.346,0.3,0.64,0.527,0.884c0.227,0.245,0.504,0.437,0.833,0.579c0.329,0.143,0.697,0.212,1.105,0.212
		c0.408,0,0.776-0.069,1.105-0.212s0.606-0.334,0.833-0.579c0.227-0.244,0.402-0.538,0.527-0.884
		c0.125-0.346,0.187-0.723,0.187-1.13c0-0.408-0.062-0.785-0.187-1.131c-0.125-0.345-0.301-0.64-0.527-0.884
		c-0.226-0.244-0.504-0.436-0.833-0.578s-0.697-0.212-1.105-0.212c-0.408,0-0.776,0.071-1.105,0.212
		c-0.329,0.142-0.606,0.334-0.833,0.578c-0.227,0.244-0.402,0.539-0.527,0.884C205.342,25.16,205.28,25.536,205.28,25.944z"/>
	<path fill="#243C5E" d="M214.137,21.915h1.53v1.241h0.034c0.192-0.431,0.527-0.779,1.003-1.045s1.025-0.4,1.649-0.4
		c0.385,0,0.756,0.06,1.113,0.179c0.357,0.119,0.669,0.303,0.935,0.553c0.266,0.249,0.479,0.569,0.638,0.96
		c0.159,0.391,0.238,0.853,0.238,1.385v5.185h-1.53v-4.759c0-0.374-0.051-0.694-0.153-0.961c-0.102-0.266-0.238-0.481-0.408-0.646
		c-0.17-0.164-0.366-0.283-0.586-0.357c-0.221-0.073-0.451-0.11-0.688-0.11c-0.317,0-0.612,0.051-0.884,0.153
		s-0.51,0.264-0.714,0.485c-0.204,0.221-0.363,0.501-0.476,0.841c-0.113,0.34-0.17,0.742-0.17,1.207v4.146h-1.53L214.137,21.915
		L214.137,21.915z"/>
	<path fill="#243C5E" d="M229.471,26.505c0,0.351,0.077,0.671,0.229,0.96c0.152,0.289,0.354,0.535,0.604,0.739
		c0.249,0.204,0.538,0.362,0.867,0.478c0.329,0.112,0.668,0.17,1.02,0.17c0.476,0,0.889-0.111,1.241-0.332
		c0.351-0.222,0.674-0.514,0.969-0.875l1.156,0.883c-0.85,1.1-2.04,1.649-3.57,1.649c-0.635,0-1.21-0.108-1.726-0.323
		c-0.516-0.215-0.952-0.513-1.309-0.894c-0.357-0.379-0.632-0.826-0.824-1.342c-0.193-0.516-0.289-1.074-0.289-1.674
		s0.104-1.159,0.314-1.675c0.209-0.516,0.499-0.963,0.867-1.343c0.368-0.38,0.808-0.677,1.318-0.893
		c0.51-0.215,1.065-0.323,1.666-0.323c0.714,0,1.317,0.125,1.81,0.374c0.493,0.25,0.898,0.576,1.216,0.978
		c0.317,0.402,0.546,0.856,0.688,1.36c0.142,0.504,0.212,1.017,0.212,1.538v0.544L229.471,26.505L229.471,26.505z M234.299,25.281
		c-0.012-0.34-0.065-0.652-0.162-0.935c-0.097-0.283-0.241-0.53-0.434-0.74c-0.193-0.209-0.434-0.374-0.723-0.493
		c-0.289-0.119-0.626-0.179-1.011-0.179c-0.374,0-0.717,0.071-1.028,0.212c-0.312,0.142-0.576,0.326-0.791,0.553
		c-0.216,0.227-0.383,0.479-0.501,0.756c-0.119,0.278-0.179,0.553-0.179,0.825L234.299,25.281L234.299,25.281z M232.531,17.937
		h2.176l-2.533,2.448h-1.411L232.531,17.937z"/>
	<path fill="#243C5E" d="M237.767,21.915h1.53v1.241h0.034c0.192-0.431,0.527-0.779,1.003-1.045s1.025-0.4,1.649-0.4
		c0.385,0,0.756,0.06,1.113,0.179c0.357,0.119,0.669,0.303,0.935,0.553c0.266,0.249,0.479,0.569,0.638,0.96
		c0.159,0.391,0.238,0.853,0.238,1.385v5.185h-1.53v-4.759c0-0.374-0.051-0.694-0.153-0.961c-0.102-0.266-0.238-0.481-0.408-0.646
		c-0.17-0.164-0.366-0.283-0.586-0.357c-0.221-0.073-0.451-0.11-0.688-0.11c-0.317,0-0.612,0.051-0.884,0.153
		s-0.51,0.264-0.714,0.485c-0.204,0.221-0.363,0.501-0.476,0.841c-0.113,0.34-0.17,0.742-0.17,1.207v4.146h-1.53L237.767,21.915
		L237.767,21.915z"/>
	<path fill="#243C5E" d="M248.375,26.505c0,0.351,0.077,0.671,0.229,0.96s0.354,0.535,0.604,0.739
		c0.249,0.204,0.538,0.362,0.867,0.478c0.329,0.112,0.668,0.17,1.02,0.17c0.476,0,0.889-0.111,1.241-0.332
		c0.351-0.222,0.674-0.514,0.969-0.875l1.156,0.883c-0.85,1.1-2.04,1.649-3.57,1.649c-0.635,0-1.21-0.108-1.726-0.323
		s-0.952-0.513-1.309-0.894c-0.357-0.379-0.632-0.826-0.824-1.342c-0.193-0.516-0.289-1.074-0.289-1.674s0.104-1.159,0.314-1.675
		c0.209-0.516,0.499-0.963,0.867-1.343c0.368-0.38,0.808-0.677,1.318-0.893c0.51-0.215,1.065-0.323,1.666-0.323
		c0.714,0,1.317,0.125,1.81,0.374c0.493,0.25,0.898,0.576,1.216,0.978c0.317,0.402,0.546,0.856,0.688,1.36s0.212,1.017,0.212,1.538
		v0.544L248.375,26.505L248.375,26.505z M253.204,25.281c-0.012-0.34-0.065-0.652-0.162-0.935c-0.097-0.283-0.241-0.53-0.434-0.74
		c-0.193-0.209-0.434-0.374-0.723-0.493c-0.289-0.119-0.626-0.179-1.011-0.179c-0.374,0-0.717,0.071-1.028,0.212
		c-0.312,0.142-0.576,0.326-0.791,0.553c-0.216,0.227-0.383,0.479-0.501,0.756c-0.119,0.278-0.179,0.553-0.179,0.825L253.204,25.281
		L253.204,25.281z"/>
	<path fill="#243C5E" d="M256.671,21.915h1.53v1.241h0.034c0.102-0.215,0.238-0.411,0.408-0.586c0.17-0.175,0.36-0.326,0.569-0.451
		c0.21-0.125,0.439-0.224,0.689-0.297c0.249-0.074,0.499-0.111,0.748-0.111c0.25,0,0.476,0.034,0.68,0.102l-0.068,1.649
		c-0.125-0.034-0.25-0.062-0.374-0.085c-0.125-0.022-0.25-0.034-0.374-0.034c-0.748,0-1.32,0.21-1.717,0.629
		c-0.396,0.419-0.595,1.071-0.595,1.955v4.046h-1.53V21.915L256.671,21.915z"/>
	<path fill="#243C5E" d="M270.731,29.905c0,0.612-0.105,1.17-0.314,1.675c-0.21,0.504-0.507,0.939-0.893,1.309
		c-0.385,0.368-0.85,0.654-1.394,0.858s-1.145,0.306-1.802,0.306c-0.771,0-1.477-0.107-2.117-0.322s-1.25-0.59-1.828-1.123
		l1.037-1.291c0.396,0.431,0.827,0.757,1.292,0.978c0.465,0.222,0.992,0.332,1.581,0.332c0.566,0,1.037-0.082,1.411-0.246
		s0.671-0.377,0.893-0.638c0.221-0.262,0.376-0.559,0.467-0.893c0.091-0.336,0.136-0.672,0.136-1.013v-1.19h-0.051
		c-0.295,0.488-0.694,0.849-1.198,1.08c-0.504,0.232-1.035,0.35-1.59,0.35c-0.589,0-1.136-0.104-1.64-0.314
		c-0.504-0.21-0.938-0.498-1.301-0.867c-0.363-0.367-0.646-0.805-0.85-1.309s-0.306-1.051-0.306-1.64
		c0-0.589,0.096-1.142,0.289-1.658c0.192-0.516,0.467-0.966,0.824-1.352c0.357-0.385,0.788-0.686,1.292-0.901
		c0.504-0.215,1.068-0.323,1.691-0.323c0.544,0,1.074,0.119,1.59,0.357c0.516,0.238,0.92,0.572,1.215,1.003h0.034v-1.156h1.53v7.989
		H270.731z M266.549,23.139c-0.408,0-0.776,0.071-1.105,0.212c-0.329,0.142-0.606,0.334-0.833,0.578
		c-0.227,0.244-0.402,0.539-0.527,0.884c-0.125,0.346-0.187,0.723-0.187,1.131c0,0.816,0.238,1.47,0.714,1.963
		s1.122,0.739,1.938,0.739s1.462-0.246,1.938-0.739s0.714-1.147,0.714-1.963c0-0.408-0.062-0.785-0.188-1.131
		c-0.125-0.345-0.301-0.64-0.527-0.884c-0.226-0.244-0.504-0.436-0.833-0.578C267.325,23.21,266.957,23.139,266.549,23.139z"/>
	<path fill="#243C5E" d="M274.199,26.505c0,0.351,0.077,0.671,0.229,0.96c0.152,0.289,0.354,0.535,0.604,0.739
		c0.249,0.204,0.538,0.362,0.867,0.478c0.329,0.112,0.668,0.17,1.02,0.17c0.476,0,0.889-0.111,1.241-0.332
		c0.351-0.222,0.674-0.514,0.969-0.875l1.156,0.883c-0.85,1.1-2.04,1.649-3.57,1.649c-0.635,0-1.21-0.108-1.726-0.323
		c-0.516-0.215-0.952-0.513-1.309-0.894c-0.357-0.379-0.632-0.826-0.824-1.342c-0.193-0.516-0.289-1.074-0.289-1.674
		s0.104-1.159,0.314-1.675c0.209-0.516,0.499-0.963,0.867-1.343c0.368-0.38,0.808-0.677,1.318-0.893
		c0.51-0.215,1.065-0.323,1.666-0.323c0.714,0,1.317,0.125,1.81,0.374c0.493,0.25,0.898,0.576,1.216,0.978
		c0.317,0.402,0.546,0.856,0.688,1.36s0.212,1.017,0.212,1.538v0.544L274.199,26.505L274.199,26.505z M279.027,25.281
		c-0.012-0.34-0.065-0.652-0.162-0.935c-0.097-0.283-0.241-0.53-0.434-0.74c-0.193-0.209-0.434-0.374-0.723-0.493
		c-0.289-0.119-0.626-0.179-1.011-0.179c-0.374,0-0.717,0.071-1.028,0.212c-0.312,0.142-0.576,0.326-0.791,0.553
		c-0.216,0.227-0.383,0.479-0.501,0.756c-0.119,0.278-0.179,0.553-0.179,0.825L279.027,25.281L279.027,25.281z M277.259,17.937
		h2.176l-2.533,2.448h-1.411L277.259,17.937z"/>
	<path fill="#243C5E" d="M286.813,23.241h-2.193v3.655c0,0.227,0.006,0.451,0.017,0.672c0.011,0.221,0.054,0.418,0.127,0.594
		c0.074,0.176,0.187,0.318,0.34,0.426s0.376,0.161,0.671,0.161c0.181,0,0.368-0.017,0.561-0.051
		c0.192-0.034,0.368-0.097,0.527-0.188v1.395c-0.181,0.103-0.417,0.173-0.706,0.212c-0.289,0.04-0.513,0.061-0.671,0.061
		c-0.589,0-1.045-0.083-1.369-0.246c-0.323-0.164-0.561-0.377-0.714-0.639c-0.153-0.26-0.244-0.553-0.272-0.875
		c-0.028-0.323-0.042-0.648-0.042-0.978v-4.199h-1.768v-1.326h1.768v-2.261h1.53v2.261h2.193L286.813,23.241L286.813,23.241z"/>
	<path fill="#243C5E" d="M288.547,19.025c0-0.306,0.11-0.569,0.332-0.79c0.221-0.221,0.484-0.332,0.791-0.332
		c0.307,0,0.568,0.11,0.79,0.332c0.222,0.221,0.332,0.484,0.332,0.79s-0.11,0.57-0.332,0.791s-0.483,0.332-0.79,0.332
		c-0.306,0-0.569-0.11-0.791-0.332C288.657,19.595,288.547,19.331,288.547,19.025z M288.904,21.915h1.53v8.058h-1.53V21.915z"/>
	<path fill="#243C5E" d="M300.939,33.85h-1.529v-5.031h-0.035c-0.271,0.418-0.662,0.75-1.172,0.994
		c-0.51,0.242-1.055,0.365-1.633,0.365c-0.623,0-1.188-0.107-1.691-0.324c-0.504-0.215-0.936-0.512-1.293-0.893
		c-0.355-0.379-0.631-0.826-0.822-1.342c-0.193-0.516-0.289-1.074-0.289-1.674c0-0.589,0.096-1.142,0.289-1.658
		c0.191-0.516,0.467-0.966,0.822-1.352c0.357-0.385,0.789-0.686,1.293-0.901c0.504-0.215,1.068-0.323,1.691-0.323
		c0.545,0,1.074,0.119,1.59,0.357c0.516,0.238,0.92,0.572,1.215,1.003h0.035v-1.156h1.529V33.85z M296.758,23.139
		c-0.408,0-0.777,0.071-1.105,0.212c-0.327,0.142-0.604,0.334-0.832,0.578c-0.229,0.244-0.401,0.539-0.526,0.884
		c-0.125,0.346-0.188,0.723-0.188,1.131c0,0.408,0.062,0.785,0.188,1.13c0.126,0.345,0.299,0.64,0.526,0.884
		c0.228,0.245,0.505,0.437,0.832,0.579c0.328,0.143,0.697,0.212,1.105,0.212s0.775-0.069,1.105-0.212
		c0.328-0.143,0.604-0.334,0.832-0.579c0.227-0.244,0.401-0.538,0.526-0.884c0.125-0.346,0.188-0.723,0.188-1.13
		c0-0.408-0.062-0.785-0.188-1.131c-0.125-0.345-0.301-0.64-0.526-0.884c-0.227-0.244-0.504-0.436-0.832-0.578
		C297.533,23.21,297.166,23.139,296.758,23.139z"/>
	<path fill="#243C5E" d="M310.391,29.973h-1.528v-1.24h-0.033c-0.193,0.432-0.527,0.779-1.004,1.045
		c-0.478,0.268-1.025,0.4-1.648,0.4c-0.396,0-0.771-0.061-1.123-0.18c-0.352-0.118-0.66-0.303-0.926-0.553
		c-0.268-0.248-0.479-0.568-0.639-0.959c-0.158-0.393-0.236-0.854-0.236-1.386v-5.185h1.529v4.76c0,0.374,0.051,0.694,0.151,0.96
		c0.104,0.266,0.238,0.481,0.408,0.646c0.17,0.164,0.365,0.283,0.588,0.357c0.222,0.073,0.449,0.109,0.688,0.109
		c0.315,0,0.611-0.051,0.885-0.153c0.271-0.102,0.51-0.264,0.713-0.483c0.205-0.221,0.363-0.502,0.478-0.841
		c0.112-0.34,0.17-0.742,0.17-1.207v-4.148h1.528L310.391,29.973L310.391,29.973z"/>
	<path fill="#243C5E" d="M313.859,26.505c0,0.351,0.075,0.671,0.229,0.96c0.154,0.289,0.355,0.535,0.604,0.739
		c0.25,0.204,0.539,0.362,0.866,0.478c0.33,0.112,0.671,0.17,1.021,0.17c0.475,0,0.889-0.111,1.24-0.332
		c0.351-0.222,0.674-0.514,0.969-0.875l1.156,0.883c-0.851,1.1-2.039,1.649-3.57,1.649c-0.635,0-1.209-0.108-1.725-0.323
		c-0.517-0.215-0.953-0.513-1.31-0.894c-0.356-0.379-0.633-0.826-0.826-1.342c-0.19-0.516-0.289-1.074-0.289-1.674
		s0.105-1.159,0.314-1.675c0.211-0.516,0.5-0.963,0.867-1.343c0.369-0.38,0.809-0.677,1.317-0.893
		c0.51-0.216,1.064-0.323,1.666-0.323c0.714,0,1.316,0.125,1.812,0.374c0.492,0.25,0.897,0.576,1.215,0.978
		c0.318,0.402,0.547,0.856,0.689,1.36c0.141,0.504,0.213,1.017,0.213,1.538v0.544L313.859,26.505L313.859,26.505z M318.688,25.281
		c-0.013-0.34-0.066-0.652-0.162-0.935c-0.097-0.283-0.24-0.53-0.435-0.74c-0.19-0.209-0.434-0.374-0.723-0.493
		c-0.289-0.119-0.625-0.179-1.012-0.179c-0.373,0-0.718,0.071-1.027,0.212c-0.312,0.142-0.576,0.326-0.791,0.553
		c-0.215,0.227-0.383,0.479-0.502,0.756c-0.119,0.278-0.178,0.553-0.178,0.825L318.688,25.281L318.688,25.281z"/>
	<path fill="#243C5E" d="M334.957,29.973h-1.531v-1.154h-0.033c-0.295,0.431-0.7,0.765-1.217,1.002
		c-0.516,0.238-1.045,0.357-1.588,0.357c-0.625,0-1.188-0.107-1.69-0.324c-0.507-0.215-0.937-0.516-1.294-0.899
		c-0.356-0.384-0.633-0.833-0.823-1.343c-0.193-0.51-0.289-1.065-0.289-1.667s0.096-1.159,0.289-1.675
		c0.19-0.516,0.467-0.963,0.823-1.343c0.357-0.38,0.787-0.677,1.294-0.893c0.504-0.215,1.065-0.323,1.69-0.323
		c0.578,0,1.121,0.122,1.631,0.366c0.511,0.244,0.9,0.575,1.174,0.995h0.033v-5.95h1.531V29.973z M330.773,28.749
		c0.407,0,0.776-0.069,1.104-0.212s0.605-0.334,0.834-0.579c0.228-0.244,0.4-0.538,0.525-0.884c0.125-0.346,0.188-0.723,0.188-1.13
		c0-0.408-0.062-0.785-0.188-1.131c-0.125-0.345-0.299-0.64-0.525-0.884c-0.229-0.244-0.506-0.436-0.834-0.578
		s-0.697-0.212-1.104-0.212c-0.408,0-0.775,0.071-1.104,0.212c-0.33,0.142-0.607,0.334-0.834,0.578
		c-0.227,0.244-0.402,0.539-0.527,0.884c-0.125,0.346-0.186,0.723-0.186,1.131c0,0.408,0.061,0.785,0.186,1.13
		c0.125,0.345,0.302,0.64,0.527,0.884c0.227,0.245,0.504,0.437,0.834,0.579C329.998,28.68,330.365,28.749,330.773,28.749z"/>
	<path fill="#243C5E" d="M338.424,26.505c0,0.351,0.076,0.671,0.229,0.96s0.354,0.535,0.604,0.739
		c0.25,0.204,0.539,0.362,0.867,0.478c0.33,0.112,0.67,0.17,1.021,0.17c0.475,0,0.889-0.111,1.239-0.332
		c0.352-0.222,0.674-0.514,0.97-0.875l1.155,0.883c-0.85,1.1-2.039,1.649-3.569,1.649c-0.636,0-1.209-0.108-1.726-0.323
		c-0.516-0.215-0.953-0.513-1.309-0.894c-0.357-0.379-0.633-0.826-0.826-1.342c-0.191-0.516-0.289-1.074-0.289-1.674
		s0.105-1.159,0.314-1.675c0.211-0.516,0.5-0.963,0.866-1.343c0.369-0.38,0.81-0.677,1.318-0.893
		c0.509-0.216,1.064-0.323,1.666-0.323c0.713,0,1.316,0.125,1.811,0.374c0.492,0.25,0.898,0.576,1.216,0.978s0.547,0.856,0.688,1.36
		c0.141,0.504,0.213,1.017,0.213,1.538v0.544L338.424,26.505L338.424,26.505z M343.252,25.281c-0.012-0.34-0.066-0.652-0.162-0.935
		c-0.096-0.283-0.24-0.53-0.434-0.74c-0.191-0.209-0.435-0.374-0.724-0.493c-0.289-0.119-0.625-0.179-1.012-0.179
		c-0.373,0-0.717,0.071-1.027,0.212c-0.312,0.142-0.575,0.326-0.79,0.553c-0.216,0.227-0.384,0.479-0.503,0.756
		c-0.118,0.278-0.178,0.553-0.178,0.825L343.252,25.281L343.252,25.281z"/>
	<path fill="#243C5E" d="M351.004,23.938c-0.182-0.227-0.406-0.417-0.672-0.569c-0.266-0.152-0.592-0.229-0.977-0.229
		c-0.363,0-0.679,0.077-0.943,0.229c-0.269,0.153-0.4,0.377-0.4,0.671c0,0.238,0.076,0.431,0.23,0.578
		c0.151,0.147,0.334,0.267,0.543,0.357c0.209,0.091,0.434,0.159,0.672,0.204c0.238,0.045,0.441,0.085,0.611,0.119
		c0.33,0.079,0.639,0.176,0.928,0.289c0.289,0.114,0.537,0.261,0.748,0.442c0.209,0.181,0.373,0.402,0.492,0.663
		c0.119,0.261,0.178,0.578,0.178,0.953c0,0.453-0.096,0.842-0.289,1.164c-0.191,0.323-0.441,0.586-0.746,0.791
		c-0.307,0.203-0.656,0.353-1.047,0.441c-0.391,0.091-0.785,0.137-1.182,0.137c-0.668,0-1.254-0.103-1.761-0.307
		c-0.504-0.204-0.953-0.578-1.352-1.122l1.156-0.952c0.25,0.25,0.526,0.471,0.834,0.663c0.307,0.192,0.68,0.289,1.121,0.289
		c0.192,0,0.389-0.021,0.588-0.06c0.196-0.039,0.373-0.103,0.524-0.188c0.154-0.084,0.279-0.19,0.375-0.321
		c0.097-0.132,0.146-0.281,0.146-0.451c0-0.228-0.07-0.415-0.213-0.562c-0.144-0.147-0.312-0.263-0.511-0.348
		s-0.407-0.153-0.629-0.204c-0.221-0.051-0.416-0.094-0.586-0.127c-0.33-0.079-0.641-0.17-0.936-0.272
		c-0.295-0.102-0.556-0.238-0.781-0.408c-0.229-0.17-0.408-0.385-0.545-0.646c-0.137-0.261-0.203-0.583-0.203-0.969
		c0-0.419,0.086-0.785,0.262-1.097c0.177-0.312,0.408-0.569,0.697-0.773c0.289-0.204,0.619-0.357,0.986-0.459
		c0.369-0.102,0.739-0.153,1.112-0.153c0.546,0,1.066,0.102,1.564,0.306s0.895,0.544,1.189,1.02L351.004,23.938z"/>
	<path fill="#243C5E" d="M360.148,26.505c0,0.351,0.077,0.671,0.229,0.96s0.354,0.535,0.604,0.739s0.539,0.362,0.866,0.478
		c0.328,0.113,0.668,0.17,1.021,0.17c0.477,0,0.891-0.111,1.242-0.332c0.35-0.222,0.674-0.514,0.969-0.875l1.156,0.883
		c-0.853,1.1-2.041,1.649-3.57,1.649c-0.635,0-1.211-0.108-1.727-0.323c-0.517-0.215-0.951-0.513-1.31-0.894
		c-0.356-0.379-0.633-0.826-0.824-1.342c-0.192-0.516-0.289-1.074-0.289-1.674s0.104-1.159,0.314-1.675
		c0.209-0.516,0.498-0.963,0.867-1.343c0.367-0.38,0.807-0.677,1.315-0.893c0.513-0.215,1.066-0.323,1.666-0.323
		c0.716,0,1.318,0.125,1.812,0.374c0.494,0.25,0.897,0.576,1.217,0.978c0.316,0.402,0.547,0.856,0.688,1.36
		c0.143,0.504,0.213,1.017,0.213,1.538v0.544L360.148,26.505L360.148,26.505z M364.977,25.281c-0.01-0.34-0.063-0.652-0.159-0.935
		c-0.099-0.283-0.242-0.53-0.435-0.74c-0.192-0.209-0.434-0.374-0.723-0.493c-0.289-0.119-0.627-0.179-1.012-0.179
		c-0.375,0-0.718,0.071-1.029,0.212c-0.312,0.142-0.574,0.326-0.789,0.553c-0.217,0.227-0.383,0.479-0.502,0.756
		c-0.119,0.278-0.18,0.553-0.18,0.825L364.977,25.281L364.977,25.281z"/>
	<path fill="#243C5E" d="M368.445,21.915h1.528v1.241h0.035c0.191-0.431,0.527-0.779,1.002-1.045c0.478-0.266,1.027-0.4,1.65-0.4
		c0.385,0,0.756,0.06,1.113,0.179c0.356,0.119,0.668,0.303,0.936,0.553c0.266,0.249,0.479,0.569,0.637,0.96
		c0.158,0.391,0.238,0.853,0.238,1.385v5.185h-1.531v-4.759c0-0.374-0.051-0.694-0.151-0.961c-0.103-0.266-0.238-0.481-0.408-0.646
		c-0.17-0.164-0.365-0.283-0.586-0.357c-0.222-0.073-0.451-0.11-0.689-0.11c-0.315,0-0.61,0.051-0.883,0.153
		c-0.271,0.102-0.51,0.264-0.715,0.485c-0.203,0.221-0.363,0.501-0.475,0.841c-0.115,0.34-0.173,0.742-0.173,1.207v4.146h-1.528
		V21.915L368.445,21.915z"/>
	<path fill="#243C5E" d="M382.215,23.241h-2.19v3.655c0,0.227,0.004,0.451,0.016,0.672c0.012,0.221,0.055,0.418,0.129,0.594
		c0.072,0.176,0.186,0.318,0.34,0.426c0.152,0.107,0.377,0.161,0.67,0.161c0.183,0,0.369-0.017,0.562-0.051
		c0.19-0.034,0.367-0.097,0.526-0.188v1.395c-0.182,0.103-0.418,0.173-0.707,0.212c-0.288,0.04-0.512,0.061-0.67,0.061
		c-0.59,0-1.047-0.083-1.368-0.246c-0.324-0.164-0.562-0.377-0.716-0.639c-0.151-0.26-0.243-0.553-0.271-0.875
		c-0.029-0.323-0.043-0.648-0.043-0.978v-4.199h-1.769v-1.326h1.769v-2.261h1.531v2.261h2.19V23.241L382.215,23.241z"/>
	<path fill="#243C5E" d="M384.188,21.915h1.528v1.241h0.035c0.102-0.215,0.238-0.411,0.408-0.586
		c0.17-0.175,0.358-0.326,0.567-0.451c0.211-0.125,0.439-0.224,0.689-0.297c0.248-0.074,0.498-0.111,0.748-0.111
		c0.248,0,0.477,0.034,0.68,0.102l-0.067,1.649c-0.125-0.034-0.25-0.062-0.373-0.085c-0.125-0.022-0.25-0.034-0.375-0.034
		c-0.748,0-1.32,0.21-1.718,0.629c-0.396,0.419-0.596,1.071-0.596,1.955v4.046h-1.529v-8.058H384.188z"/>
	<path fill="#243C5E" d="M391.328,26.505c0,0.351,0.076,0.671,0.229,0.96c0.154,0.289,0.355,0.535,0.604,0.739
		c0.25,0.204,0.539,0.362,0.867,0.478c0.33,0.112,0.67,0.17,1.021,0.17c0.476,0,0.89-0.111,1.24-0.332
		c0.351-0.222,0.674-0.514,0.969-0.875l1.156,0.883c-0.85,1.1-2.039,1.649-3.57,1.649c-0.635,0-1.209-0.108-1.725-0.323
		c-0.517-0.215-0.953-0.513-1.31-0.894c-0.356-0.379-0.633-0.826-0.825-1.342c-0.191-0.516-0.289-1.074-0.289-1.674
		s0.104-1.159,0.313-1.675c0.211-0.516,0.5-0.963,0.867-1.343c0.369-0.38,0.809-0.677,1.318-0.893
		c0.509-0.216,1.063-0.323,1.666-0.323c0.713,0,1.315,0.125,1.811,0.374c0.492,0.25,0.898,0.576,1.215,0.978
		c0.318,0.402,0.547,0.856,0.689,1.36c0.141,0.504,0.213,1.017,0.213,1.538v0.544L391.328,26.505L391.328,26.505z M396.156,25.281
		c-0.013-0.34-0.066-0.652-0.162-0.935c-0.096-0.283-0.24-0.53-0.435-0.74c-0.19-0.209-0.434-0.374-0.723-0.493
		c-0.289-0.119-0.625-0.179-1.012-0.179c-0.373,0-0.717,0.071-1.027,0.212c-0.312,0.142-0.576,0.326-0.791,0.553
		c-0.215,0.227-0.383,0.479-0.502,0.756c-0.119,0.278-0.178,0.553-0.178,0.825L396.156,25.281L396.156,25.281z"/>
	<path fill="#243C5E" d="M399.625,21.915h1.529v1.156h0.032c0.296-0.431,0.701-0.765,1.218-1.003
		c0.516-0.238,1.045-0.357,1.59-0.357c0.623,0,1.186,0.108,1.69,0.323c0.505,0.215,0.935,0.516,1.291,0.901
		c0.357,0.386,0.634,0.836,0.824,1.352c0.193,0.516,0.289,1.068,0.289,1.658c0,0.601-0.096,1.159-0.289,1.674
		c-0.19,0.516-0.467,0.963-0.824,1.342c-0.356,0.381-0.786,0.678-1.291,0.893c-0.506,0.217-1.067,0.324-1.69,0.324
		c-0.578,0-1.123-0.123-1.633-0.365c-0.511-0.244-0.9-0.576-1.175-0.994h-0.032v5.949h-1.529V21.915z M403.807,23.139
		c-0.407,0-0.776,0.071-1.104,0.212c-0.328,0.142-0.605,0.334-0.832,0.578c-0.229,0.244-0.402,0.539-0.527,0.884
		c-0.125,0.346-0.188,0.723-0.188,1.131c0,0.408,0.062,0.785,0.188,1.13c0.126,0.345,0.299,0.64,0.527,0.884
		c0.227,0.245,0.504,0.437,0.832,0.579s0.697,0.212,1.104,0.212c0.408,0,0.775-0.069,1.105-0.212
		c0.328-0.143,0.604-0.334,0.832-0.579c0.227-0.244,0.402-0.538,0.527-0.884c0.125-0.346,0.188-0.723,0.188-1.13
		c0-0.408-0.062-0.785-0.188-1.131c-0.125-0.345-0.302-0.64-0.527-0.884c-0.227-0.244-0.504-0.436-0.832-0.578
		C404.582,23.21,404.215,23.139,403.807,23.139z"/>
	<path fill="#243C5E" d="M410.012,21.915h1.529v1.241h0.033c0.104-0.215,0.237-0.411,0.408-0.586
		c0.17-0.175,0.358-0.326,0.569-0.451c0.209-0.125,0.439-0.224,0.688-0.297c0.25-0.074,0.5-0.111,0.748-0.111
		c0.25,0,0.477,0.034,0.682,0.102l-0.068,1.649c-0.125-0.034-0.25-0.062-0.375-0.085c-0.125-0.022-0.248-0.034-0.373-0.034
		c-0.747,0-1.319,0.21-1.717,0.629c-0.397,0.419-0.596,1.071-0.596,1.955v4.046h-1.529V21.915L410.012,21.915z"/>
	<path fill="#243C5E" d="M416.062,19.025c0-0.306,0.111-0.569,0.332-0.79c0.222-0.221,0.484-0.332,0.791-0.332
		c0.306,0,0.568,0.11,0.789,0.332c0.224,0.221,0.332,0.484,0.332,0.79s-0.108,0.57-0.332,0.791
		c-0.221,0.221-0.483,0.332-0.789,0.332c-0.307,0-0.569-0.11-0.791-0.332C416.174,19.595,416.062,19.331,416.062,19.025z
		 M416.42,21.915h1.529v8.058h-1.529V21.915z"/>
	<path fill="#243C5E" d="M424.666,23.938c-0.182-0.227-0.406-0.417-0.672-0.569c-0.269-0.153-0.594-0.229-0.979-0.229
		c-0.362,0-0.678,0.077-0.942,0.229c-0.266,0.152-0.398,0.377-0.398,0.671c0,0.238,0.076,0.431,0.229,0.578
		c0.151,0.147,0.334,0.267,0.545,0.357c0.209,0.091,0.434,0.159,0.67,0.204c0.238,0.045,0.442,0.085,0.613,0.119
		c0.327,0.079,0.637,0.176,0.926,0.289c0.289,0.114,0.539,0.261,0.748,0.442c0.209,0.181,0.375,0.402,0.494,0.663
		c0.116,0.261,0.178,0.578,0.178,0.953c0,0.453-0.096,0.842-0.289,1.164c-0.193,0.323-0.441,0.586-0.748,0.791
		c-0.307,0.203-0.654,0.353-1.045,0.441c-0.391,0.091-0.785,0.137-1.182,0.137c-0.671,0-1.257-0.103-1.761-0.307
		s-0.955-0.578-1.352-1.122l1.156-0.952c0.247,0.25,0.526,0.471,0.832,0.663c0.307,0.192,0.68,0.289,1.122,0.289
		c0.191,0,0.388-0.021,0.587-0.06c0.198-0.039,0.375-0.103,0.526-0.188c0.152-0.084,0.277-0.19,0.373-0.321
		c0.098-0.132,0.146-0.281,0.146-0.451c0-0.228-0.07-0.415-0.211-0.562c-0.144-0.147-0.312-0.263-0.513-0.348
		c-0.196-0.085-0.406-0.153-0.629-0.204c-0.221-0.051-0.416-0.094-0.586-0.127c-0.328-0.079-0.641-0.17-0.936-0.272
		c-0.295-0.102-0.556-0.238-0.781-0.408c-0.227-0.17-0.408-0.385-0.545-0.646c-0.135-0.261-0.203-0.583-0.203-0.969
		c0-0.419,0.088-0.785,0.264-1.097s0.408-0.569,0.697-0.773c0.289-0.204,0.617-0.357,0.986-0.459
		c0.366-0.102,0.737-0.153,1.112-0.153c0.543,0,1.064,0.102,1.564,0.306c0.498,0.204,0.895,0.544,1.188,1.02L424.666,23.938z"/>
	<path fill="#243C5E" d="M429.084,26.505c0,0.351,0.078,0.671,0.23,0.96c0.151,0.289,0.354,0.535,0.604,0.739
		s0.539,0.362,0.867,0.478c0.328,0.113,0.668,0.17,1.02,0.17c0.478,0,0.892-0.111,1.242-0.332c0.351-0.222,0.674-0.514,0.969-0.875
		l1.156,0.883c-0.852,1.1-2.041,1.649-3.57,1.649c-0.635,0-1.211-0.108-1.727-0.323s-0.951-0.513-1.309-0.894
		c-0.357-0.379-0.634-0.826-0.824-1.342c-0.193-0.516-0.289-1.074-0.289-1.674s0.104-1.159,0.313-1.675
		c0.209-0.516,0.498-0.963,0.867-1.343c0.367-0.38,0.808-0.677,1.316-0.893c0.512-0.215,1.065-0.323,1.666-0.323
		c0.715,0,1.317,0.125,1.811,0.374c0.494,0.25,0.898,0.576,1.217,0.978c0.316,0.402,0.548,0.856,0.688,1.36
		c0.143,0.504,0.213,1.017,0.213,1.538v0.544L429.084,26.505L429.084,26.505z M433.912,25.281c-0.01-0.34-0.064-0.652-0.16-0.935
		c-0.098-0.283-0.242-0.53-0.434-0.74c-0.193-0.209-0.435-0.374-0.724-0.493c-0.289-0.119-0.627-0.179-1.012-0.179
		c-0.375,0-0.717,0.071-1.029,0.212c-0.311,0.142-0.573,0.326-0.789,0.553c-0.217,0.227-0.383,0.479-0.502,0.756
		c-0.119,0.278-0.18,0.553-0.18,0.825L433.912,25.281L433.912,25.281z"/>
	<path fill="#243C5E" d="M441.666,23.938c-0.182-0.227-0.406-0.417-0.672-0.569c-0.269-0.153-0.594-0.229-0.979-0.229
		c-0.362,0-0.678,0.077-0.942,0.229c-0.266,0.152-0.398,0.377-0.398,0.671c0,0.238,0.076,0.431,0.229,0.578
		c0.151,0.147,0.334,0.267,0.545,0.357c0.209,0.091,0.434,0.159,0.67,0.204c0.238,0.045,0.442,0.085,0.613,0.119
		c0.327,0.079,0.637,0.176,0.926,0.289c0.289,0.114,0.539,0.261,0.748,0.442c0.209,0.181,0.375,0.402,0.494,0.663
		c0.116,0.261,0.178,0.578,0.178,0.953c0,0.453-0.096,0.842-0.289,1.164c-0.193,0.323-0.441,0.586-0.748,0.791
		c-0.307,0.203-0.654,0.353-1.045,0.441c-0.391,0.091-0.785,0.137-1.182,0.137c-0.671,0-1.257-0.103-1.761-0.307
		s-0.955-0.578-1.352-1.122l1.156-0.952c0.247,0.25,0.526,0.471,0.832,0.663c0.307,0.192,0.68,0.289,1.122,0.289
		c0.191,0,0.388-0.021,0.587-0.06c0.198-0.039,0.375-0.103,0.526-0.188c0.152-0.084,0.277-0.19,0.373-0.321
		c0.098-0.132,0.146-0.281,0.146-0.451c0-0.228-0.07-0.415-0.211-0.562c-0.144-0.147-0.312-0.263-0.513-0.348
		c-0.196-0.085-0.406-0.153-0.629-0.204c-0.221-0.051-0.416-0.094-0.586-0.127c-0.328-0.079-0.641-0.17-0.936-0.272
		c-0.295-0.102-0.556-0.238-0.781-0.408c-0.227-0.17-0.408-0.385-0.545-0.646c-0.135-0.261-0.203-0.583-0.203-0.969
		c0-0.419,0.088-0.785,0.264-1.097s0.408-0.569,0.697-0.773c0.289-0.204,0.617-0.357,0.986-0.459
		c0.366-0.102,0.737-0.153,1.112-0.153c0.543,0,1.064,0.102,1.564,0.306c0.498,0.204,0.895,0.544,1.188,1.02L441.666,23.938z"/>
	<path fill="#243C5E" d="M450.25,23.241h-1.734v-1.326h1.734v-1.802c0-1.077,0.207-1.878,0.619-2.406
		c0.414-0.527,1.125-0.791,2.135-0.791c0.17,0,0.348,0.006,0.535,0.017c0.188,0.012,0.389,0.045,0.604,0.102l-0.17,1.36
		c-0.147-0.057-0.289-0.096-0.426-0.119c-0.135-0.023-0.283-0.034-0.44-0.034c-0.283,0-0.511,0.042-0.681,0.127
		s-0.303,0.207-0.399,0.366c-0.097,0.159-0.158,0.348-0.187,0.569c-0.029,0.221-0.043,0.473-0.043,0.756v1.853h1.818v1.326h-1.836
		v6.73h-1.529V23.241z"/>
	<path fill="#243C5E" d="M455.316,21.915h1.528v1.241h0.033c0.104-0.215,0.238-0.411,0.408-0.586c0.17-0.175,0.358-0.326,0.57-0.451
		c0.209-0.125,0.438-0.224,0.688-0.297c0.25-0.074,0.5-0.111,0.748-0.111c0.25,0,0.477,0.034,0.682,0.102l-0.067,1.649
		c-0.125-0.034-0.25-0.062-0.375-0.085c-0.125-0.022-0.248-0.034-0.373-0.034c-0.748,0-1.32,0.21-1.717,0.629
		c-0.398,0.419-0.597,1.071-0.597,1.955v4.046h-1.528V21.915L455.316,21.915z"/>
	<path fill="#243C5E" d="M461.641,22.901c0.431-0.397,0.929-0.694,1.494-0.893c0.568-0.198,1.135-0.298,1.701-0.298
		c0.59,0,1.096,0.074,1.521,0.221c0.424,0.147,0.772,0.346,1.045,0.595c0.271,0.249,0.473,0.535,0.604,0.858
		c0.131,0.323,0.195,0.66,0.195,1.011v4.115c0,0.283,0.006,0.543,0.018,0.781c0.013,0.238,0.027,0.465,0.051,0.68h-1.358
		c-0.035-0.408-0.051-0.814-0.051-1.224h-0.035c-0.34,0.521-0.742,0.89-1.207,1.104s-1.002,0.323-1.615,0.323
		c-0.373,0-0.729-0.052-1.07-0.153c-0.34-0.103-0.637-0.254-0.893-0.459c-0.254-0.203-0.457-0.455-0.604-0.756
		c-0.146-0.302-0.221-0.648-0.221-1.046c0-0.521,0.115-0.958,0.348-1.309c0.232-0.351,0.552-0.638,0.953-0.858
		c0.402-0.221,0.873-0.379,1.41-0.476c0.539-0.096,1.113-0.145,1.728-0.145h1.121v-0.34c0-0.204-0.039-0.408-0.119-0.612
		c-0.078-0.204-0.197-0.388-0.357-0.552c-0.158-0.164-0.354-0.294-0.594-0.391c-0.238-0.096-0.521-0.145-0.851-0.145
		c-0.295,0-0.553,0.028-0.772,0.085c-0.223,0.057-0.424,0.127-0.604,0.212c-0.182,0.085-0.348,0.185-0.493,0.298
		c-0.146,0.113-0.289,0.221-0.425,0.323L461.641,22.901z M465.957,26.097c-0.361,0-0.732,0.02-1.113,0.06
		c-0.379,0.04-0.725,0.116-1.037,0.229c-0.311,0.113-0.565,0.272-0.764,0.476c-0.199,0.204-0.299,0.465-0.299,0.783
		c0,0.465,0.156,0.799,0.469,1.002c0.312,0.205,0.732,0.307,1.266,0.307c0.421,0,0.775-0.07,1.07-0.213
		c0.295-0.141,0.533-0.325,0.715-0.553c0.183-0.227,0.312-0.479,0.392-0.756c0.08-0.277,0.119-0.553,0.119-0.825v-0.51
		L465.957,26.097L465.957,26.097z"/>
	<path fill="#243C5E" d="M470.43,21.915h1.529v1.241h0.033c0.192-0.431,0.526-0.779,1.004-1.045c0.477-0.266,1.024-0.4,1.647-0.4
		c0.386,0,0.759,0.06,1.113,0.179c0.357,0.119,0.67,0.303,0.937,0.553c0.266,0.249,0.479,0.569,0.637,0.96
		c0.16,0.391,0.238,0.853,0.238,1.385v5.185h-1.529v-4.759c0-0.374-0.051-0.694-0.152-0.961c-0.104-0.266-0.237-0.481-0.407-0.646
		c-0.171-0.164-0.365-0.283-0.589-0.357c-0.221-0.073-0.448-0.11-0.688-0.11c-0.318,0-0.611,0.051-0.885,0.153
		c-0.271,0.102-0.511,0.264-0.714,0.485c-0.204,0.221-0.362,0.501-0.477,0.841c-0.114,0.34-0.17,0.742-0.17,1.207v4.146h-1.529
		L470.43,21.915L470.43,21.915z"/>
	<path fill="#243C5E" d="M481.699,32.777c0.42,0.171,0.86,0.256,1.326,0.256c0.104,0,0.213-0.012,0.332-0.034
		c0.118-0.022,0.231-0.06,0.34-0.11c0.107-0.05,0.194-0.121,0.264-0.213c0.068-0.09,0.103-0.209,0.103-0.355
		c0-0.217-0.054-0.375-0.16-0.477c-0.109-0.103-0.242-0.168-0.4-0.195c-0.158-0.028-0.332-0.028-0.518,0
		c-0.188,0.027-0.361,0.064-0.521,0.109l-0.356-0.306l0.918-1.326c-0.361-0.046-0.707-0.13-1.037-0.255
		c-0.51-0.204-0.951-0.49-1.324-0.857c-0.375-0.369-0.664-0.811-0.867-1.326c-0.205-0.517-0.307-1.085-0.307-1.708
		s0.102-1.195,0.307-1.717c0.203-0.521,0.49-0.969,0.857-1.343c0.369-0.374,0.811-0.666,1.326-0.875s1.09-0.314,1.727-0.314
		c0.588,0,1.152,0.105,1.691,0.314c0.536,0.21,1.004,0.53,1.401,0.96l-1.156,1.054c-0.282-0.294-0.581-0.519-0.893-0.671
		c-0.312-0.153-0.684-0.229-1.113-0.229c-0.42,0-0.785,0.076-1.098,0.229c-0.312,0.153-0.572,0.363-0.781,0.629
		c-0.211,0.267-0.369,0.572-0.477,0.918c-0.108,0.346-0.16,0.706-0.16,1.08s0.061,0.729,0.186,1.062
		c0.125,0.334,0.302,0.626,0.527,0.875s0.498,0.443,0.816,0.587c0.315,0.142,0.674,0.212,1.069,0.212c0.433,0,0.8-0.076,1.105-0.229
		c0.307-0.152,0.59-0.377,0.85-0.672l1.088,1.088c-0.396,0.441-0.86,0.76-1.393,0.953c-0.488,0.18-1.004,0.276-1.549,0.289
		l-0.594,0.831h0.491c0.193,0,0.384,0.023,0.57,0.068c0.188,0.045,0.354,0.119,0.502,0.221c0.146,0.103,0.266,0.23,0.355,0.384
		c0.092,0.151,0.137,0.336,0.137,0.553c0,0.306-0.064,0.561-0.195,0.765s-0.297,0.368-0.502,0.493
		c-0.203,0.125-0.434,0.215-0.688,0.271c-0.257,0.057-0.502,0.086-0.74,0.086c-0.307,0-0.609-0.031-0.91-0.095
		c-0.299-0.062-0.592-0.162-0.875-0.298L481.699,32.777z"/>
	<path fill="#243C5E" d="M488.109,22.901c0.43-0.397,0.93-0.694,1.496-0.893c0.565-0.199,1.133-0.298,1.698-0.298
		c0.59,0,1.099,0.074,1.521,0.221c0.426,0.147,0.772,0.346,1.047,0.595c0.271,0.249,0.473,0.535,0.604,0.858
		c0.13,0.323,0.195,0.66,0.195,1.011v4.115c0,0.283,0.006,0.543,0.016,0.781c0.013,0.238,0.029,0.465,0.054,0.68h-1.361
		c-0.033-0.408-0.051-0.814-0.051-1.224h-0.033c-0.34,0.521-0.742,0.89-1.207,1.104s-1.004,0.323-1.615,0.323
		c-0.375,0-0.729-0.052-1.069-0.153c-0.342-0.103-0.64-0.254-0.894-0.459c-0.256-0.203-0.457-0.455-0.604-0.756
		c-0.148-0.302-0.224-0.648-0.224-1.046c0-0.521,0.117-0.958,0.351-1.309c0.231-0.351,0.549-0.638,0.951-0.858
		c0.401-0.221,0.873-0.379,1.412-0.476c0.536-0.096,1.112-0.145,1.725-0.145h1.123v-0.34c0-0.204-0.041-0.408-0.119-0.612
		c-0.08-0.204-0.199-0.388-0.357-0.552c-0.157-0.164-0.356-0.294-0.596-0.391c-0.238-0.096-0.521-0.145-0.85-0.145
		c-0.295,0-0.554,0.028-0.773,0.085c-0.221,0.057-0.422,0.127-0.604,0.212c-0.183,0.085-0.347,0.185-0.492,0.298
		c-0.148,0.113-0.289,0.221-0.426,0.323L488.109,22.901z M492.428,26.097c-0.362,0-0.733,0.02-1.112,0.06
		c-0.382,0.04-0.728,0.116-1.037,0.229c-0.312,0.113-0.566,0.272-0.767,0.476c-0.196,0.204-0.297,0.465-0.297,0.783
		c0,0.465,0.154,0.799,0.467,1.002c0.312,0.205,0.734,0.307,1.269,0.307c0.418,0,0.774-0.07,1.07-0.213
		c0.295-0.141,0.532-0.325,0.715-0.553c0.18-0.227,0.311-0.479,0.391-0.756c0.078-0.277,0.119-0.553,0.119-0.825v-0.51
		L492.428,26.097L492.428,26.097z"/>
	<path fill="#243C5E" d="M496.66,19.025c0-0.306,0.11-0.569,0.332-0.79c0.221-0.221,0.483-0.332,0.791-0.332
		c0.305,0,0.567,0.11,0.789,0.332c0.223,0.221,0.332,0.484,0.332,0.79s-0.109,0.57-0.332,0.791
		c-0.222,0.221-0.484,0.332-0.789,0.332c-0.308,0-0.57-0.11-0.791-0.332C496.771,19.595,496.66,19.331,496.66,19.025z
		 M497.018,21.915h1.529v8.058h-1.529V21.915z"/>
	<path fill="#243C5E" d="M505.264,23.938c-0.182-0.227-0.405-0.417-0.672-0.569c-0.268-0.153-0.594-0.229-0.979-0.229
		c-0.363,0-0.679,0.077-0.943,0.229c-0.265,0.152-0.397,0.377-0.397,0.671c0,0.238,0.075,0.431,0.229,0.578
		c0.152,0.147,0.334,0.267,0.545,0.357c0.209,0.091,0.435,0.159,0.67,0.204c0.238,0.045,0.443,0.085,0.613,0.119
		c0.328,0.079,0.637,0.176,0.926,0.289c0.289,0.114,0.539,0.261,0.748,0.442c0.209,0.181,0.375,0.402,0.494,0.663
		c0.117,0.261,0.178,0.578,0.178,0.953c0,0.453-0.096,0.842-0.289,1.164c-0.192,0.323-0.44,0.586-0.748,0.791
		c-0.307,0.203-0.653,0.353-1.045,0.441c-0.391,0.091-0.785,0.137-1.182,0.137c-0.67,0-1.256-0.103-1.76-0.307
		s-0.955-0.578-1.353-1.122l1.156-0.952c0.248,0.25,0.527,0.471,0.832,0.663c0.307,0.192,0.68,0.289,1.123,0.289
		c0.19,0,0.387-0.021,0.586-0.06s0.375-0.103,0.527-0.188c0.151-0.084,0.276-0.19,0.372-0.321c0.099-0.132,0.146-0.281,0.146-0.451
		c0-0.228-0.07-0.415-0.211-0.562c-0.144-0.147-0.312-0.263-0.512-0.348c-0.197-0.085-0.406-0.153-0.629-0.204
		c-0.222-0.051-0.416-0.094-0.587-0.127c-0.327-0.079-0.641-0.17-0.936-0.272c-0.295-0.102-0.555-0.238-0.781-0.408
		c-0.226-0.17-0.408-0.385-0.545-0.646c-0.135-0.261-0.203-0.583-0.203-0.969c0-0.419,0.088-0.785,0.265-1.097
		c0.176-0.312,0.407-0.569,0.696-0.773c0.289-0.204,0.617-0.357,0.986-0.459c0.367-0.102,0.738-0.153,1.113-0.153
		c0.543,0,1.063,0.102,1.563,0.306c0.498,0.204,0.896,0.544,1.189,1.02L505.264,23.938z"/>
	<path fill="#243C5E" d="M509.682,26.505c0,0.351,0.078,0.671,0.23,0.96s0.354,0.535,0.604,0.739s0.539,0.362,0.867,0.478
		c0.328,0.113,0.668,0.17,1.021,0.17c0.477,0,0.891-0.111,1.242-0.332c0.35-0.222,0.674-0.514,0.969-0.875l1.156,0.883
		c-0.853,1.1-2.041,1.649-3.57,1.649c-0.635,0-1.211-0.108-1.728-0.323c-0.516-0.215-0.95-0.513-1.309-0.894
		c-0.357-0.379-0.633-0.826-0.824-1.342c-0.192-0.516-0.289-1.074-0.289-1.674s0.104-1.159,0.314-1.675
		c0.209-0.516,0.498-0.963,0.867-1.343c0.366-0.38,0.807-0.677,1.315-0.893c0.512-0.215,1.066-0.323,1.666-0.323
		c0.715,0,1.318,0.125,1.812,0.374c0.493,0.25,0.897,0.576,1.217,0.978c0.315,0.402,0.547,0.856,0.688,1.36
		c0.144,0.504,0.213,1.017,0.213,1.538v0.544L509.682,26.505L509.682,26.505z M514.51,25.281c-0.01-0.34-0.063-0.652-0.16-0.935
		c-0.098-0.283-0.241-0.53-0.434-0.74c-0.193-0.209-0.434-0.374-0.723-0.493c-0.289-0.119-0.627-0.179-1.013-0.179
		c-0.375,0-0.717,0.071-1.028,0.212c-0.312,0.142-0.574,0.326-0.789,0.553c-0.218,0.227-0.384,0.479-0.502,0.756
		c-0.119,0.278-0.181,0.553-0.181,0.825L514.51,25.281L514.51,25.281z"/>
	<path fill="#243C5E" d="M522.264,23.938c-0.182-0.227-0.405-0.417-0.672-0.569c-0.268-0.153-0.594-0.229-0.979-0.229
		c-0.363,0-0.679,0.077-0.943,0.229c-0.265,0.152-0.397,0.377-0.397,0.671c0,0.238,0.075,0.431,0.229,0.578
		c0.152,0.147,0.334,0.267,0.545,0.357c0.209,0.091,0.434,0.159,0.67,0.204c0.238,0.045,0.443,0.085,0.613,0.119
		c0.328,0.079,0.637,0.176,0.926,0.289c0.289,0.114,0.539,0.261,0.748,0.442c0.209,0.181,0.375,0.402,0.494,0.663
		c0.117,0.261,0.178,0.578,0.178,0.953c0,0.453-0.096,0.842-0.289,1.164c-0.192,0.323-0.44,0.586-0.748,0.791
		c-0.307,0.203-0.653,0.353-1.045,0.441c-0.391,0.091-0.785,0.137-1.182,0.137c-0.67,0-1.256-0.103-1.76-0.307
		c-0.505-0.204-0.955-0.578-1.353-1.122l1.156-0.952c0.248,0.25,0.526,0.471,0.832,0.663c0.307,0.192,0.68,0.289,1.123,0.289
		c0.19,0,0.387-0.021,0.586-0.06s0.375-0.103,0.526-0.188c0.152-0.084,0.277-0.19,0.373-0.321c0.099-0.132,0.146-0.281,0.146-0.451
		c0-0.228-0.07-0.415-0.211-0.562c-0.144-0.147-0.312-0.263-0.513-0.348c-0.196-0.085-0.405-0.153-0.629-0.204
		c-0.221-0.051-0.416-0.094-0.586-0.127c-0.328-0.079-0.641-0.17-0.936-0.272c-0.295-0.102-0.555-0.238-0.781-0.408
		c-0.226-0.17-0.408-0.385-0.545-0.646c-0.135-0.261-0.203-0.583-0.203-0.969c0-0.419,0.088-0.785,0.264-1.097
		c0.177-0.312,0.408-0.569,0.697-0.773c0.289-0.204,0.617-0.357,0.986-0.459c0.367-0.102,0.738-0.153,1.113-0.153
		c0.543,0,1.063,0.102,1.563,0.306c0.498,0.204,0.896,0.544,1.189,1.02L522.264,23.938z"/>
</g>
</svg>
