<?xml version="1.0" encoding="utf-8"?>
<!-- Generator: Adobe Illustrator 16.0.0, SVG Export Plug-In . SVG Version: 6.00 Build 0)  -->
<!DOCTYPE svg PUBLIC "-//W3C//DTD SVG 1.1//EN" "http://www.w3.org/Graphics/SVG/1.1/DTD/svg11.dtd">
<svg version="1.1" id="Calque_1" xmlns="http://www.w3.org/2000/svg" xmlns:xlink="http://www.w3.org/1999/xlink" x="0px" y="0px"
	 width="258.4px" height="336px" viewBox="0 0 258.4 336" enable-background="new 0 0 258.4 336" xml:space="preserve">
<rect x="94" y="46" fill="#27AE60" width="16" height="16"/>
<rect x="94" y="72" fill="#F0B95F" width="16" height="16"/>
<rect x="94" y="99" fill="#D96053" width="17" height="17"/>
<g>
	<path fill="#243C5E" d="M122.455,54.05c0,0.253-0.018,0.534-0.053,0.843c-0.036,0.308-0.131,0.599-0.285,0.872
		c-0.154,0.272-0.384,0.502-0.688,0.688c-0.307,0.186-0.73,0.279-1.276,0.279c-0.617,0-1.105-0.157-1.466-0.469
		c-0.361-0.312-0.601-0.729-0.72-1.251l0.783-0.143c0.19,0.767,0.657,1.151,1.4,1.151c0.277,0,0.512-0.045,0.706-0.136
		c0.192-0.091,0.35-0.216,0.469-0.374c0.119-0.158,0.206-0.346,0.261-0.562c0.057-0.218,0.083-0.453,0.083-0.706v-6.124h0.783
		L122.455,54.05L122.455,54.05z"/>
	<path fill="#243C5E" d="M124.247,53.777c0-0.419,0.071-0.805,0.213-1.157c0.144-0.352,0.34-0.657,0.595-0.914
		c0.253-0.257,0.558-0.457,0.912-0.6c0.356-0.142,0.744-0.213,1.163-0.213s0.807,0.071,1.157,0.213
		c0.354,0.143,0.657,0.343,0.914,0.6s0.457,0.562,0.599,0.914c0.144,0.352,0.215,0.738,0.215,1.157s-0.071,0.805-0.215,1.157
		c-0.143,0.352-0.342,0.656-0.599,0.914c-0.257,0.257-0.562,0.457-0.914,0.599c-0.352,0.142-0.738,0.213-1.157,0.213
		s-0.807-0.071-1.163-0.213c-0.354-0.142-0.659-0.342-0.912-0.599c-0.255-0.257-0.451-0.562-0.595-0.914
		C124.317,54.582,124.247,54.197,124.247,53.777z M124.958,53.777c0,0.309,0.049,0.599,0.148,0.872
		c0.099,0.273,0.243,0.51,0.433,0.712c0.19,0.202,0.419,0.362,0.688,0.481c0.269,0.119,0.568,0.178,0.9,0.178
		c0.333,0,0.635-0.059,0.902-0.178c0.269-0.119,0.498-0.279,0.688-0.481c0.189-0.202,0.334-0.439,0.434-0.712
		c0.099-0.273,0.146-0.563,0.146-0.872s-0.049-0.6-0.146-0.872c-0.1-0.273-0.243-0.511-0.434-0.712
		c-0.189-0.201-0.42-0.362-0.688-0.48c-0.269-0.119-0.57-0.178-0.902-0.178s-0.633,0.06-0.9,0.178
		c-0.271,0.118-0.498,0.279-0.688,0.48c-0.188,0.201-0.334,0.439-0.433,0.712C125.008,53.178,124.958,53.469,124.958,53.777z"/>
	<path fill="#243C5E" d="M136.244,54.976c0,0.103,0.004,0.228,0.012,0.374c0.01,0.146,0.016,0.295,0.02,0.445
		s0.01,0.291,0.018,0.421c0.008,0.131,0.014,0.231,0.014,0.303h-0.713c-0.008-0.206-0.015-0.403-0.019-0.593
		c-0.004-0.19-0.014-0.312-0.029-0.368h-0.036c-0.143,0.301-0.379,0.56-0.711,0.777c-0.333,0.218-0.721,0.326-1.164,0.326
		c-0.427,0-0.775-0.067-1.05-0.202c-0.271-0.134-0.484-0.31-0.642-0.528c-0.153-0.218-0.258-0.469-0.314-0.754
		c-0.055-0.284-0.082-0.577-0.082-0.878v-3.263h0.712v3.228c0,0.222,0.021,0.437,0.062,0.647c0.039,0.209,0.106,0.397,0.207,0.563
		c0.1,0.166,0.237,0.299,0.416,0.398c0.178,0.099,0.408,0.148,0.691,0.148c0.264,0,0.511-0.045,0.742-0.136
		c0.233-0.091,0.438-0.229,0.605-0.416c0.169-0.187,0.305-0.419,0.401-0.7c0.1-0.281,0.147-0.611,0.147-0.991v-2.741h0.713V54.976z"
		/>
	<path fill="#243C5E" d="M138.202,52.579c0-0.103-0.005-0.227-0.012-0.374c-0.009-0.146-0.017-0.295-0.021-0.445
		c-0.004-0.15-0.01-0.291-0.018-0.421s-0.012-0.231-0.012-0.302h0.712c0.009,0.206,0.014,0.403,0.019,0.593
		c0.004,0.19,0.016,0.312,0.029,0.368c0.182-0.324,0.415-0.589,0.7-0.795c0.282-0.206,0.633-0.309,1.044-0.309
		c0.069,0,0.141,0.006,0.208,0.018c0.065,0.012,0.136,0.026,0.208,0.042l-0.084,0.7c-0.097-0.031-0.188-0.047-0.272-0.047
		c-0.309,0-0.575,0.05-0.802,0.148c-0.226,0.099-0.41,0.235-0.557,0.41c-0.146,0.174-0.258,0.377-0.326,0.611
		c-0.072,0.233-0.107,0.485-0.107,0.754v2.99H138.2L138.202,52.579L138.202,52.579z"/>
</g>
<g>
	<path fill="#243C5E" d="M118.954,75.211h1.175l3.062,7.049l3.062-7.049h1.116v8.402h-0.783v-7.405h-0.022l-3.204,7.405h-0.344
		l-3.251-7.405h-0.024v7.405h-0.783v-8.402H118.954z"/>
	<path fill="#243C5E" d="M129.326,75.959c0-0.15,0.051-0.276,0.154-0.379c0.103-0.103,0.229-0.154,0.379-0.154
		c0.148,0,0.277,0.051,0.38,0.154s0.154,0.229,0.154,0.379s-0.054,0.277-0.154,0.38c-0.103,0.103-0.229,0.154-0.38,0.154
		c-0.151,0-0.277-0.051-0.379-0.154C129.377,76.236,129.326,76.109,129.326,75.959z M129.503,78.131h0.711v5.482h-0.711V78.131z"/>
	<path fill="#243C5E" d="M137.027,82.652h-0.023c-0.109,0.19-0.25,0.354-0.416,0.493c-0.166,0.138-0.346,0.253-0.539,0.344
		c-0.192,0.091-0.396,0.158-0.609,0.202c-0.214,0.043-0.424,0.065-0.629,0.065c-0.42,0-0.81-0.071-1.164-0.213
		c-0.355-0.143-0.66-0.342-0.913-0.6c-0.253-0.257-0.451-0.562-0.594-0.914c-0.144-0.352-0.216-0.738-0.216-1.157
		s0.072-0.805,0.216-1.157c0.143-0.352,0.341-0.657,0.594-0.914c0.253-0.257,0.558-0.457,0.913-0.599
		c0.354-0.143,0.744-0.214,1.164-0.214c0.205,0,0.415,0.022,0.629,0.065c0.213,0.043,0.417,0.111,0.609,0.202
		c0.193,0.091,0.373,0.206,0.539,0.344c0.166,0.139,0.307,0.303,0.416,0.493h0.023v-4.45h0.712v8.971h-0.712V82.652z
		 M137.099,80.872c0-0.308-0.062-0.599-0.181-0.872c-0.118-0.273-0.278-0.51-0.484-0.712c-0.205-0.202-0.447-0.362-0.726-0.481
		c-0.275-0.119-0.577-0.178-0.899-0.178c-0.332,0-0.636,0.059-0.902,0.178c-0.27,0.119-0.498,0.279-0.688,0.481
		c-0.191,0.202-0.337,0.439-0.436,0.712c-0.1,0.273-0.146,0.564-0.146,0.872c0,0.309,0.049,0.599,0.146,0.873
		c0.099,0.273,0.242,0.51,0.436,0.712c0.188,0.202,0.418,0.362,0.688,0.48c0.269,0.119,0.57,0.178,0.902,0.178
		c0.322,0,0.625-0.06,0.899-0.178c0.276-0.118,0.521-0.279,0.726-0.48c0.206-0.202,0.366-0.439,0.484-0.712
		C137.039,81.471,137.099,81.181,137.099,80.872z"/>
	<path fill="#243C5E" d="M139.436,75.959c0-0.15,0.053-0.276,0.153-0.379c0.104-0.103,0.229-0.154,0.382-0.154
		c0.149,0,0.274,0.051,0.379,0.154c0.104,0.103,0.152,0.229,0.152,0.379s-0.051,0.277-0.152,0.38
		c-0.104,0.103-0.229,0.154-0.379,0.154c-0.15,0-0.277-0.051-0.382-0.154C139.488,76.236,139.436,76.109,139.436,75.959z
		 M139.614,78.131h0.712v5.482h-0.712V78.131z"/>
</g>
<g>
	<path fill="#243C5E" d="M120.037,102.199h1.008l5.115,7.358h0.023v-7.358h0.781v8.402h-1.008l-5.115-7.358h-0.021v7.358h-0.783
		V102.199z"/>
	<path fill="#243C5E" d="M133.708,109.058c0,0.103,0.004,0.228,0.014,0.374c0.008,0.146,0.014,0.295,0.018,0.445
		c0.005,0.151,0.011,0.291,0.019,0.421c0.01,0.131,0.014,0.231,0.014,0.303h-0.713c-0.01-0.206-0.016-0.404-0.02-0.593
		c-0.004-0.19-0.014-0.312-0.029-0.368h-0.033c-0.145,0.301-0.383,0.56-0.714,0.777c-0.331,0.218-0.721,0.326-1.161,0.326
		c-0.43,0-0.777-0.067-1.053-0.202c-0.271-0.134-0.484-0.31-0.641-0.528c-0.155-0.218-0.26-0.469-0.314-0.754
		c-0.056-0.285-0.084-0.577-0.084-0.878v-3.263h0.715v3.228c0,0.222,0.02,0.437,0.059,0.647c0.04,0.209,0.109,0.397,0.209,0.563
		c0.098,0.166,0.236,0.299,0.414,0.398c0.179,0.099,0.41,0.148,0.695,0.148c0.261,0,0.508-0.045,0.739-0.136
		c0.233-0.091,0.437-0.229,0.604-0.416c0.171-0.186,0.305-0.419,0.404-0.7c0.099-0.281,0.146-0.611,0.146-0.991v-2.741h0.712
		V109.058L133.708,109.058z"/>
	<path fill="#243C5E" d="M135.606,102.947c0-0.15,0.052-0.277,0.152-0.38c0.104-0.103,0.229-0.154,0.382-0.154
		c0.149,0,0.275,0.051,0.38,0.154c0.103,0.103,0.152,0.229,0.152,0.38c0,0.151-0.052,0.277-0.152,0.379
		c-0.104,0.103-0.229,0.154-0.38,0.154c-0.151,0-0.277-0.051-0.382-0.154C135.658,103.224,135.606,103.097,135.606,102.947z
		 M135.785,105.119h0.711v5.482h-0.711V105.119z"/>
	<path fill="#243C5E" d="M141.195,105.759h-1.566v3.572c0,0.245,0.067,0.435,0.202,0.569c0.134,0.135,0.321,0.202,0.56,0.202
		c0.135,0,0.271-0.018,0.408-0.053c0.14-0.036,0.271-0.081,0.396-0.137l0.06,0.641c-0.134,0.047-0.288,0.091-0.462,0.13
		c-0.175,0.04-0.329,0.059-0.463,0.059c-0.254,0-0.471-0.038-0.653-0.112c-0.183-0.075-0.326-0.176-0.438-0.303
		c-0.111-0.126-0.192-0.275-0.244-0.445c-0.051-0.17-0.076-0.354-0.076-0.551v-3.572h-1.188v-0.641h1.188v-1.578h0.711v1.579h1.566
		L141.195,105.759L141.195,105.759z"/>
</g>
<rect x="94" y="127" fill="#243C5E" width="17" height="17"/>
<g>
	<path fill="#243C5E" d="M118.945,132.187h0.807l2.089,7.44h0.023l2.124-7.44h0.997l2.124,7.44h0.023l2.09-7.44h0.807l-2.445,8.401
		h-0.961l-2.124-7.476h-0.024l-2.124,7.476h-0.961L118.945,132.187z"/>
	<path fill="#243C5E" d="M135.666,139.557c-0.277,0.419-0.619,0.719-1.026,0.901s-0.856,0.272-1.347,0.272
		c-0.42,0-0.8-0.07-1.14-0.213c-0.341-0.143-0.634-0.342-0.878-0.6c-0.246-0.257-0.434-0.562-0.564-0.914
		c-0.131-0.352-0.195-0.741-0.195-1.168c0-0.412,0.066-0.791,0.201-1.141c0.135-0.347,0.324-0.65,0.57-0.907
		c0.244-0.257,0.533-0.459,0.866-0.605c0.332-0.146,0.7-0.22,1.104-0.22c0.419,0,0.789,0.073,1.109,0.22
		c0.321,0.146,0.589,0.34,0.808,0.582c0.217,0.241,0.381,0.516,0.492,0.825c0.11,0.309,0.166,0.621,0.166,0.938v0.498h-4.604
		c0,0.15,0.03,0.342,0.089,0.575c0.06,0.233,0.168,0.462,0.326,0.683c0.158,0.222,0.37,0.411,0.635,0.57
		c0.266,0.158,0.607,0.236,1.027,0.236c0.363,0,0.716-0.087,1.056-0.261c0.341-0.174,0.601-0.411,0.783-0.712L135.666,139.557z
		 M135.12,137.385c0-0.246-0.05-0.475-0.148-0.689c-0.099-0.213-0.233-0.401-0.403-0.563s-0.372-0.291-0.605-0.386
		c-0.233-0.095-0.48-0.142-0.742-0.142c-0.387,0-0.71,0.079-0.967,0.237s-0.461,0.34-0.611,0.546
		c-0.15,0.206-0.257,0.405-0.32,0.599c-0.062,0.194-0.095,0.327-0.095,0.398H135.12z"/>
	<path fill="#243C5E" d="M142.263,139.557c-0.277,0.419-0.619,0.719-1.026,0.901s-0.856,0.272-1.347,0.272
		c-0.42,0-0.799-0.07-1.14-0.213c-0.34-0.143-0.633-0.342-0.878-0.6c-0.245-0.257-0.434-0.562-0.563-0.914
		c-0.131-0.352-0.196-0.741-0.196-1.168c0-0.412,0.067-0.791,0.202-1.141c0.134-0.347,0.324-0.65,0.569-0.907
		c0.245-0.257,0.534-0.459,0.866-0.605c0.333-0.146,0.7-0.22,1.104-0.22c0.419,0,0.789,0.073,1.109,0.22s0.589,0.34,0.807,0.582
		c0.217,0.241,0.381,0.516,0.492,0.825c0.111,0.309,0.166,0.621,0.166,0.938v0.498h-4.604c0,0.15,0.029,0.342,0.088,0.575
		c0.061,0.233,0.168,0.462,0.327,0.683c0.157,0.222,0.37,0.411,0.635,0.57c0.265,0.158,0.606,0.236,1.026,0.236
		c0.363,0,0.717-0.087,1.057-0.261s0.601-0.411,0.783-0.712L142.263,139.557z M141.718,137.385c0-0.246-0.05-0.475-0.147-0.689
		c-0.1-0.213-0.234-0.401-0.404-0.563s-0.371-0.291-0.605-0.386c-0.232-0.095-0.48-0.142-0.741-0.142
		c-0.388,0-0.71,0.079-0.968,0.237c-0.256,0.158-0.461,0.34-0.61,0.546c-0.15,0.206-0.257,0.405-0.321,0.599
		c-0.062,0.194-0.094,0.327-0.094,0.398H141.718z"/>
	<path fill="#243C5E" d="M144.02,131.617h0.712v5.98l2.705-2.48h1.045l-2.824,2.503l3.156,2.967h-1.08l-3.002-2.895v2.895h-0.712
		V131.617z"/>
	<path fill="#243C5E" d="M159.656,139.557c-0.277,0.419-0.619,0.719-1.027,0.901c-0.407,0.183-0.855,0.272-1.347,0.272
		c-0.419,0-0.8-0.07-1.14-0.213s-0.633-0.342-0.878-0.6c-0.245-0.257-0.433-0.562-0.563-0.914c-0.131-0.352-0.195-0.741-0.195-1.168
		c0-0.412,0.066-0.791,0.201-1.141c0.135-0.347,0.324-0.65,0.57-0.907c0.244-0.257,0.533-0.459,0.865-0.605s0.701-0.22,1.104-0.22
		c0.42,0,0.789,0.073,1.109,0.22c0.321,0.146,0.59,0.34,0.808,0.582c0.218,0.241,0.382,0.516,0.493,0.825
		c0.109,0.309,0.166,0.621,0.166,0.938v0.498h-4.605c0,0.15,0.03,0.342,0.09,0.575c0.059,0.233,0.168,0.462,0.326,0.683
		c0.158,0.222,0.369,0.411,0.635,0.57c0.266,0.158,0.607,0.236,1.026,0.236c0.364,0,0.716-0.087,1.057-0.261
		c0.34-0.174,0.601-0.411,0.782-0.712L159.656,139.557z M159.109,137.385c0-0.246-0.049-0.475-0.148-0.689
		c-0.099-0.213-0.232-0.401-0.402-0.563c-0.171-0.162-0.373-0.291-0.605-0.386c-0.234-0.095-0.48-0.142-0.742-0.142
		c-0.388,0-0.711,0.079-0.967,0.237c-0.258,0.158-0.461,0.34-0.611,0.546c-0.15,0.206-0.258,0.405-0.32,0.599
		c-0.063,0.194-0.096,0.327-0.096,0.398H159.109z"/>
	<path fill="#243C5E" d="M161.412,136.648c0-0.103-0.004-0.227-0.012-0.374s-0.014-0.294-0.018-0.445
		c-0.005-0.15-0.011-0.291-0.019-0.421c-0.008-0.13-0.012-0.231-0.012-0.302h0.712c0.008,0.206,0.014,0.403,0.018,0.593
		s0.014,0.312,0.03,0.368h0.035c0.143-0.301,0.38-0.56,0.712-0.778c0.332-0.217,0.721-0.326,1.164-0.326
		c0.426,0,0.774,0.067,1.043,0.202c0.27,0.134,0.481,0.311,0.636,0.528c0.153,0.218,0.261,0.469,0.32,0.753s0.089,0.578,0.089,0.878
		v3.263h-0.712v-3.227c0-0.223-0.021-0.438-0.06-0.647s-0.108-0.397-0.207-0.563c-0.1-0.167-0.238-0.299-0.416-0.398
		c-0.178-0.099-0.409-0.148-0.693-0.148c-0.262,0-0.51,0.045-0.742,0.136c-0.233,0.091-0.436,0.229-0.605,0.416
		s-0.305,0.42-0.403,0.7s-0.148,0.61-0.148,0.991v2.74h-0.712V136.648z"/>
	<path fill="#243C5E" d="M172.804,139.627h-0.023c-0.111,0.19-0.25,0.354-0.416,0.492c-0.166,0.139-0.346,0.254-0.54,0.345
		s-0.397,0.158-0.61,0.202c-0.215,0.043-0.424,0.064-0.63,0.064c-0.419,0-0.807-0.07-1.163-0.213c-0.355-0.143-0.66-0.342-0.914-0.6
		c-0.252-0.257-0.45-0.562-0.593-0.914c-0.143-0.352-0.214-0.737-0.214-1.156c0-0.42,0.071-0.805,0.214-1.157
		s0.341-0.657,0.593-0.914c0.254-0.257,0.559-0.457,0.914-0.599c0.356-0.143,0.744-0.214,1.163-0.214
		c0.206,0,0.415,0.022,0.63,0.065c0.213,0.043,0.416,0.111,0.61,0.202s0.374,0.206,0.54,0.344s0.305,0.303,0.416,0.493h0.023v-4.45
		h0.712v8.971h-0.712V139.627z M172.875,137.848c0-0.309-0.059-0.6-0.178-0.873c-0.118-0.272-0.281-0.51-0.486-0.711
		c-0.205-0.202-0.447-0.362-0.724-0.481c-0.277-0.119-0.577-0.178-0.902-0.178c-0.332,0-0.633,0.059-0.901,0.178
		c-0.27,0.119-0.498,0.279-0.688,0.481c-0.19,0.202-0.335,0.439-0.433,0.711c-0.1,0.273-0.148,0.564-0.148,0.873
		s0.049,0.599,0.148,0.871c0.098,0.273,0.242,0.512,0.433,0.713s0.419,0.361,0.688,0.48c0.269,0.119,0.569,0.178,0.901,0.178
		c0.325,0,0.625-0.059,0.902-0.178c0.276-0.119,0.519-0.279,0.724-0.48s0.368-0.439,0.486-0.713
		C172.816,138.446,172.875,138.156,172.875,137.848z"/>
</g>
<g>
	<path fill="#243C5E" d="M152.572,137.137v0.779h-2.963v-0.779H152.572z"/>
</g>
</svg>
