<?xml version="1.0" encoding="utf-8"?>
<!-- Generator: Adobe Illustrator 16.0.0, SVG Export Plug-In . SVG Version: 6.00 Build 0)  -->
<!DOCTYPE svg PUBLIC "-//W3C//DTD SVG 1.1//EN" "http://www.w3.org/Graphics/SVG/1.1/DTD/svg11.dtd">
<svg version="1.1" id="Calque_1" xmlns="http://www.w3.org/2000/svg" xmlns:xlink="http://www.w3.org/1999/xlink" x="0px" y="0px"
	 width="535.5px" height="36px" viewBox="0 0 535.5 36" enable-background="new 0 0 535.5 36" xml:space="preserve">
<g>
	<path fill="#243C5E" d="M18.704,23.865c-0.918,0-1.762-0.161-2.533-0.484c-0.771-0.322-1.431-0.768-1.98-1.334
		c-0.55-0.566-0.98-1.235-1.292-2.006c-0.312-0.771-0.468-1.604-0.468-2.499c0-0.895,0.156-1.728,0.468-2.499
		c0.312-0.771,0.742-1.439,1.292-2.006c0.549-0.566,1.209-1.012,1.98-1.334c0.771-0.323,1.615-0.484,2.533-0.484
		c0.918,0,1.762,0.161,2.533,0.484c0.771,0.323,1.431,0.768,1.98,1.334c0.55,0.567,0.98,1.235,1.292,2.006
		c0.312,0.771,0.468,1.604,0.468,2.499c0,0.896-0.156,1.729-0.468,2.499c-0.312,0.771-0.742,1.439-1.292,2.006
		s-1.21,1.012-1.98,1.334C20.466,23.704,19.623,23.865,18.704,23.865z M18.704,22.336c0.691,0,1.315-0.128,1.87-0.383
		s1.031-0.598,1.428-1.028c0.396-0.431,0.703-0.938,0.918-1.521c0.215-0.583,0.323-1.204,0.323-1.861
		c0-0.657-0.108-1.278-0.323-1.861c-0.215-0.583-0.521-1.091-0.918-1.521c-0.397-0.431-0.873-0.773-1.428-1.029
		c-0.555-0.255-1.179-0.382-1.87-0.382s-1.314,0.127-1.87,0.382c-0.556,0.255-1.032,0.598-1.428,1.029
		c-0.397,0.431-0.703,0.938-0.918,1.521s-0.323,1.204-0.323,1.861c0,0.658,0.107,1.278,0.323,1.861
		c0.215,0.584,0.521,1.091,0.918,1.521c0.396,0.431,0.873,0.773,1.428,1.028C17.39,22.208,18.013,22.336,18.704,22.336z"/>
	<path fill="#243C5E" d="M26.932,15.502h1.53v1.241h0.034c0.102-0.215,0.238-0.411,0.408-0.586s0.36-0.326,0.569-0.451
		c0.21-0.125,0.439-0.224,0.689-0.297c0.249-0.074,0.499-0.111,0.748-0.111c0.25,0,0.476,0.034,0.68,0.102l-0.068,1.649
		c-0.125-0.034-0.25-0.062-0.374-0.085c-0.125-0.022-0.25-0.034-0.374-0.034c-0.748,0-1.32,0.21-1.717,0.629
		c-0.396,0.419-0.595,1.071-0.595,1.955v4.046h-1.53V15.502z"/>
	<path fill="#243C5E" d="M40.991,23.56h-1.53v-1.155h-0.034c-0.295,0.431-0.7,0.764-1.215,1.002
		c-0.516,0.238-1.046,0.357-1.59,0.357c-0.623,0-1.187-0.108-1.691-0.323s-0.935-0.516-1.292-0.9
		c-0.357-0.386-0.632-0.833-0.824-1.343c-0.193-0.511-0.289-1.065-0.289-1.666s0.096-1.159,0.289-1.675
		c0.192-0.516,0.467-0.963,0.824-1.343s0.788-0.677,1.292-0.893s1.068-0.323,1.691-0.323c0.578,0,1.122,0.122,1.632,0.366
		c0.51,0.244,0.901,0.575,1.173,0.995h0.034v-5.95h1.53V23.56z M36.809,22.336c0.408,0,0.776-0.07,1.105-0.213
		c0.329-0.142,0.606-0.334,0.833-0.578c0.227-0.243,0.402-0.538,0.527-0.884c0.125-0.346,0.187-0.723,0.187-1.13
		c0-0.408-0.062-0.785-0.187-1.131c-0.125-0.345-0.301-0.64-0.527-0.884s-0.504-0.436-0.833-0.578
		c-0.329-0.142-0.697-0.212-1.105-0.212c-0.408,0-0.776,0.071-1.105,0.212c-0.329,0.142-0.606,0.334-0.833,0.578
		s-0.402,0.539-0.527,0.884c-0.125,0.346-0.187,0.723-0.187,1.131c0,0.407,0.062,0.784,0.187,1.13
		c0.125,0.346,0.3,0.641,0.527,0.884c0.227,0.244,0.504,0.437,0.833,0.578C36.033,22.266,36.401,22.336,36.809,22.336z"/>
	<path fill="#243C5E" d="M43.065,12.612c0-0.306,0.11-0.569,0.332-0.79c0.221-0.221,0.484-0.332,0.791-0.332s0.569,0.11,0.791,0.332
		c0.221,0.221,0.332,0.484,0.332,0.79c0,0.306-0.111,0.57-0.332,0.791c-0.221,0.221-0.484,0.332-0.791,0.332
		s-0.569-0.11-0.791-0.332C43.175,13.182,43.065,12.918,43.065,12.612z M43.422,15.502h1.53v8.058h-1.53V15.502z"/>
	<path fill="#243C5E" d="M47.382,15.502h1.53v1.241h0.034c0.192-0.431,0.527-0.779,1.003-1.045s1.025-0.4,1.649-0.4
		c0.385,0,0.756,0.06,1.113,0.179s0.669,0.303,0.935,0.553c0.266,0.249,0.479,0.569,0.638,0.96c0.159,0.391,0.238,0.853,0.238,1.385
		v5.185h-1.53V18.8c0-0.374-0.051-0.694-0.153-0.961c-0.102-0.266-0.238-0.481-0.408-0.646c-0.17-0.164-0.366-0.283-0.586-0.357
		c-0.221-0.073-0.451-0.11-0.688-0.11c-0.317,0-0.612,0.051-0.884,0.153s-0.51,0.264-0.714,0.485
		c-0.204,0.221-0.363,0.501-0.476,0.841s-0.17,0.742-0.17,1.207v4.147h-1.53V15.502z"/>
	<path fill="#243C5E" d="M56.869,16.488c0.431-0.397,0.929-0.694,1.496-0.893c0.566-0.198,1.133-0.298,1.7-0.298
		c0.589,0,1.096,0.074,1.521,0.221c0.425,0.147,0.773,0.346,1.045,0.595c0.272,0.249,0.473,0.535,0.604,0.858
		c0.13,0.323,0.195,0.66,0.195,1.011v4.114c0,0.283,0.006,0.544,0.017,0.782c0.011,0.237,0.028,0.464,0.051,0.68h-1.36
		c-0.034-0.408-0.051-0.815-0.051-1.224h-0.034c-0.34,0.521-0.742,0.89-1.207,1.104s-1.003,0.323-1.615,0.323
		c-0.374,0-0.731-0.051-1.071-0.153c-0.34-0.102-0.637-0.255-0.893-0.459c-0.255-0.203-0.456-0.456-0.604-0.756
		c-0.147-0.301-0.221-0.648-0.221-1.046c0-0.521,0.116-0.957,0.348-1.309s0.55-0.638,0.952-0.858
		c0.402-0.221,0.873-0.379,1.411-0.476c0.538-0.096,1.113-0.145,1.726-0.145h1.122v-0.34c0-0.204-0.04-0.408-0.119-0.612
		c-0.08-0.204-0.199-0.388-0.357-0.552c-0.159-0.164-0.357-0.294-0.595-0.391c-0.238-0.096-0.521-0.145-0.85-0.145
		c-0.294,0-0.552,0.028-0.773,0.085c-0.221,0.057-0.422,0.127-0.604,0.212c-0.181,0.085-0.346,0.185-0.493,0.298
		c-0.147,0.113-0.289,0.221-0.425,0.323L56.869,16.488z M61.187,19.684c-0.363,0-0.734,0.021-1.113,0.06
		c-0.38,0.04-0.726,0.116-1.037,0.229s-0.567,0.272-0.765,0.477c-0.198,0.203-0.297,0.465-0.297,0.781
		c0,0.465,0.156,0.8,0.468,1.003c0.312,0.204,0.733,0.307,1.266,0.307c0.419,0,0.776-0.071,1.071-0.213
		c0.294-0.142,0.533-0.325,0.714-0.553c0.181-0.227,0.312-0.479,0.391-0.756c0.079-0.277,0.119-0.553,0.119-0.825v-0.51H61.187z"/>
	<path fill="#243C5E" d="M69.976,16.828h-2.193v3.654c0,0.228,0.006,0.451,0.017,0.672s0.054,0.42,0.127,0.595
		c0.074,0.176,0.187,0.317,0.34,0.425c0.153,0.108,0.376,0.162,0.671,0.162c0.181,0,0.368-0.018,0.561-0.051
		c0.192-0.034,0.368-0.097,0.527-0.188v1.395c-0.181,0.102-0.417,0.172-0.706,0.212c-0.289,0.039-0.513,0.06-0.671,0.06
		c-0.589,0-1.045-0.082-1.369-0.246c-0.323-0.164-0.561-0.377-0.714-0.638s-0.244-0.553-0.272-0.876
		c-0.028-0.322-0.042-0.648-0.042-0.978v-4.198h-1.768v-1.326h1.768v-2.261h1.53v2.261h2.193V16.828z"/>
	<path fill="#243C5E" d="M73.104,20.092c0,0.352,0.077,0.672,0.229,0.961s0.354,0.535,0.604,0.739
		c0.249,0.204,0.538,0.362,0.867,0.476c0.329,0.113,0.668,0.17,1.02,0.17c0.476,0,0.889-0.11,1.241-0.331
		c0.351-0.221,0.674-0.513,0.969-0.876l1.156,0.885c-0.85,1.099-2.04,1.648-3.57,1.648c-0.635,0-1.21-0.108-1.726-0.323
		c-0.516-0.215-0.952-0.513-1.309-0.893c-0.357-0.379-0.632-0.827-0.824-1.343c-0.193-0.516-0.289-1.073-0.289-1.674
		s0.104-1.159,0.314-1.675c0.209-0.516,0.499-0.963,0.867-1.343s0.808-0.677,1.318-0.893c0.51-0.215,1.065-0.323,1.666-0.323
		c0.714,0,1.317,0.125,1.81,0.374c0.493,0.25,0.898,0.576,1.216,0.978c0.317,0.402,0.546,0.856,0.688,1.36
		c0.142,0.504,0.212,1.017,0.212,1.538v0.544H73.104z M77.932,18.868c-0.012-0.34-0.065-0.652-0.162-0.935
		c-0.097-0.283-0.241-0.53-0.434-0.74c-0.193-0.209-0.434-0.374-0.723-0.493c-0.289-0.119-0.626-0.179-1.011-0.179
		c-0.374,0-0.717,0.071-1.028,0.212c-0.312,0.142-0.576,0.326-0.791,0.553c-0.216,0.227-0.383,0.479-0.501,0.756
		c-0.119,0.278-0.179,0.553-0.179,0.825H77.932z"/>
	<path fill="#243C5E" d="M88.54,23.56h-1.53v-1.241h-0.034c-0.193,0.432-0.527,0.779-1.003,1.046
		c-0.476,0.266-1.026,0.399-1.649,0.399c-0.397,0-0.771-0.06-1.122-0.179c-0.352-0.118-0.66-0.303-0.926-0.552
		c-0.267-0.25-0.479-0.57-0.638-0.961s-0.238-0.853-0.238-1.386v-5.185h1.53v4.76c0,0.374,0.051,0.694,0.153,0.961
		c0.102,0.266,0.238,0.481,0.408,0.646c0.17,0.165,0.365,0.283,0.586,0.357c0.221,0.073,0.451,0.11,0.688,0.11
		c0.317,0,0.612-0.051,0.884-0.153c0.272-0.102,0.51-0.264,0.714-0.484s0.362-0.501,0.476-0.842c0.113-0.34,0.17-0.742,0.17-1.207
		v-4.147h1.53V23.56z"/>
	<path fill="#243C5E" d="M90.852,15.502h1.53v1.241h0.034c0.102-0.215,0.238-0.411,0.408-0.586s0.36-0.326,0.569-0.451
		c0.21-0.125,0.439-0.224,0.689-0.297c0.249-0.074,0.499-0.111,0.748-0.111c0.25,0,0.476,0.034,0.68,0.102l-0.068,1.649
		c-0.125-0.034-0.25-0.062-0.374-0.085c-0.125-0.022-0.25-0.034-0.374-0.034c-0.748,0-1.32,0.21-1.717,0.629
		c-0.396,0.419-0.595,1.071-0.595,1.955v4.046h-1.53V15.502z"/>
	<path fill="#243C5E" d="M101.426,17.525c-0.181-0.227-0.405-0.417-0.671-0.569c-0.267-0.153-0.592-0.229-0.978-0.229
		c-0.363,0-0.677,0.077-0.943,0.229c-0.267,0.153-0.399,0.377-0.399,0.671c0,0.238,0.076,0.431,0.229,0.578
		c0.153,0.147,0.334,0.267,0.544,0.357c0.209,0.091,0.433,0.159,0.671,0.204c0.238,0.045,0.442,0.085,0.612,0.119
		c0.329,0.079,0.638,0.175,0.927,0.289s0.538,0.261,0.748,0.442c0.209,0.181,0.374,0.402,0.493,0.663
		c0.119,0.261,0.179,0.577,0.179,0.951c0,0.454-0.097,0.842-0.289,1.165c-0.193,0.323-0.442,0.586-0.748,0.79
		s-0.654,0.352-1.045,0.442c-0.391,0.09-0.785,0.136-1.182,0.136c-0.669,0-1.255-0.103-1.759-0.307
		c-0.504-0.203-0.955-0.577-1.352-1.121l1.156-0.952c0.25,0.249,0.527,0.471,0.833,0.663c0.306,0.192,0.68,0.289,1.122,0.289
		c0.193,0,0.388-0.02,0.586-0.06s0.374-0.103,0.527-0.188c0.153-0.085,0.277-0.192,0.374-0.322c0.096-0.131,0.145-0.281,0.145-0.451
		c0-0.227-0.071-0.413-0.213-0.561s-0.312-0.264-0.51-0.349c-0.199-0.085-0.408-0.153-0.629-0.204
		c-0.221-0.051-0.417-0.094-0.587-0.127c-0.329-0.079-0.64-0.17-0.935-0.272c-0.295-0.102-0.556-0.238-0.782-0.408
		c-0.227-0.17-0.408-0.385-0.544-0.646c-0.136-0.261-0.204-0.583-0.204-0.969c0-0.419,0.088-0.785,0.264-1.097
		c0.175-0.312,0.408-0.569,0.697-0.773s0.618-0.357,0.986-0.459c0.368-0.102,0.739-0.153,1.113-0.153
		c0.544,0,1.065,0.102,1.564,0.306c0.499,0.204,0.895,0.544,1.19,1.02L101.426,17.525z"/>
	<path fill="#243C5E" d="M110.011,16.828h-1.734v-1.326h1.734V13.7c0-1.077,0.207-1.878,0.621-2.406
		c0.414-0.527,1.125-0.791,2.133-0.791c0.17,0,0.349,0.006,0.536,0.017c0.187,0.012,0.388,0.045,0.604,0.102l-0.17,1.36
		c-0.147-0.057-0.289-0.096-0.425-0.119c-0.136-0.023-0.283-0.034-0.442-0.034c-0.283,0-0.51,0.042-0.68,0.127
		c-0.17,0.085-0.303,0.207-0.399,0.366s-0.159,0.348-0.187,0.569s-0.042,0.473-0.042,0.756v1.853h1.819v1.326h-1.836v6.731h-1.53
		V16.828z"/>
	<path fill="#243C5E" d="M114.838,12.612c0-0.306,0.11-0.569,0.332-0.79c0.221-0.221,0.484-0.332,0.791-0.332
		s0.569,0.11,0.791,0.332c0.221,0.221,0.332,0.484,0.332,0.79c0,0.306-0.111,0.57-0.332,0.791c-0.221,0.221-0.484,0.332-0.791,0.332
		s-0.569-0.11-0.791-0.332C114.949,13.182,114.838,12.918,114.838,12.612z M115.195,15.502h1.53v8.058h-1.53V15.502z"/>
	<path fill="#243C5E" d="M121.366,19.259l-2.856-3.757h1.972l1.955,2.856l1.921-2.856h1.853l-2.754,3.757l3.264,4.301h-1.972
		l-2.38-3.383l-2.38,3.383h-1.887L121.366,19.259z"/>
	<path fill="#243C5E" d="M129.135,20.092c0,0.352,0.077,0.672,0.229,0.961s0.354,0.535,0.604,0.739
		c0.249,0.204,0.538,0.362,0.867,0.476c0.329,0.113,0.668,0.17,1.02,0.17c0.476,0,0.889-0.11,1.241-0.331
		c0.351-0.221,0.674-0.513,0.969-0.876l1.156,0.885c-0.85,1.099-2.04,1.648-3.57,1.648c-0.635,0-1.21-0.108-1.726-0.323
		c-0.516-0.215-0.952-0.513-1.309-0.893c-0.357-0.379-0.632-0.827-0.824-1.343c-0.193-0.516-0.289-1.073-0.289-1.674
		s0.104-1.159,0.314-1.675c0.209-0.516,0.499-0.963,0.867-1.343s0.808-0.677,1.318-0.893c0.51-0.215,1.065-0.323,1.666-0.323
		c0.714,0,1.317,0.125,1.81,0.374c0.493,0.25,0.898,0.576,1.216,0.978c0.317,0.402,0.546,0.856,0.688,1.36
		c0.142,0.504,0.212,1.017,0.212,1.538v0.544H129.135z M133.963,18.868c-0.012-0.34-0.065-0.652-0.162-0.935
		c-0.097-0.283-0.241-0.53-0.434-0.74c-0.193-0.209-0.434-0.374-0.723-0.493c-0.289-0.119-0.626-0.179-1.011-0.179
		c-0.374,0-0.717,0.071-1.028,0.212c-0.312,0.142-0.576,0.326-0.791,0.553c-0.216,0.227-0.383,0.479-0.501,0.756
		c-0.119,0.278-0.179,0.553-0.179,0.825H133.963z"/>
	<path fill="#243C5E" d="M141.715,17.525c-0.181-0.227-0.405-0.417-0.671-0.569c-0.267-0.153-0.592-0.229-0.978-0.229
		c-0.363,0-0.677,0.077-0.943,0.229c-0.267,0.153-0.399,0.377-0.399,0.671c0,0.238,0.076,0.431,0.229,0.578
		c0.153,0.147,0.334,0.267,0.544,0.357c0.209,0.091,0.433,0.159,0.671,0.204c0.238,0.045,0.442,0.085,0.612,0.119
		c0.329,0.079,0.638,0.175,0.927,0.289s0.538,0.261,0.748,0.442c0.209,0.181,0.374,0.402,0.493,0.663
		c0.119,0.261,0.179,0.577,0.179,0.951c0,0.454-0.097,0.842-0.289,1.165c-0.193,0.323-0.442,0.586-0.748,0.79
		s-0.654,0.352-1.045,0.442c-0.391,0.09-0.785,0.136-1.182,0.136c-0.669,0-1.255-0.103-1.759-0.307
		c-0.504-0.203-0.955-0.577-1.352-1.121l1.156-0.952c0.25,0.249,0.527,0.471,0.833,0.663c0.306,0.192,0.68,0.289,1.122,0.289
		c0.193,0,0.388-0.02,0.586-0.06s0.374-0.103,0.527-0.188c0.153-0.085,0.277-0.192,0.374-0.322c0.096-0.131,0.145-0.281,0.145-0.451
		c0-0.227-0.071-0.413-0.213-0.561s-0.312-0.264-0.51-0.349c-0.199-0.085-0.408-0.153-0.629-0.204
		c-0.221-0.051-0.417-0.094-0.587-0.127c-0.329-0.079-0.64-0.17-0.935-0.272c-0.295-0.102-0.556-0.238-0.782-0.408
		c-0.227-0.17-0.408-0.385-0.544-0.646c-0.136-0.261-0.204-0.583-0.204-0.969c0-0.419,0.088-0.785,0.264-1.097
		c0.175-0.312,0.408-0.569,0.697-0.773s0.618-0.357,0.986-0.459c0.368-0.102,0.739-0.153,1.113-0.153
		c0.544,0,1.065,0.102,1.564,0.306c0.499,0.204,0.895,0.544,1.19,1.02L141.715,17.525z"/>
	<path fill="#243C5E" d="M150.861,20.092c0,0.352,0.077,0.672,0.229,0.961s0.354,0.535,0.604,0.739
		c0.249,0.204,0.538,0.362,0.867,0.476c0.329,0.113,0.668,0.17,1.02,0.17c0.476,0,0.889-0.11,1.241-0.331
		c0.351-0.221,0.674-0.513,0.969-0.876l1.156,0.885c-0.85,1.099-2.04,1.648-3.57,1.648c-0.635,0-1.21-0.108-1.726-0.323
		c-0.516-0.215-0.952-0.513-1.309-0.893c-0.357-0.379-0.632-0.827-0.824-1.343c-0.193-0.516-0.289-1.073-0.289-1.674
		s0.104-1.159,0.314-1.675c0.209-0.516,0.499-0.963,0.867-1.343s0.808-0.677,1.318-0.893c0.51-0.215,1.065-0.323,1.666-0.323
		c0.714,0,1.317,0.125,1.81,0.374c0.493,0.25,0.898,0.576,1.216,0.978c0.317,0.402,0.546,0.856,0.688,1.36
		c0.142,0.504,0.212,1.017,0.212,1.538v0.544H150.861z M155.689,18.868c-0.012-0.34-0.065-0.652-0.162-0.935
		c-0.097-0.283-0.241-0.53-0.434-0.74c-0.193-0.209-0.434-0.374-0.723-0.493c-0.289-0.119-0.626-0.179-1.011-0.179
		c-0.374,0-0.717,0.071-1.028,0.212c-0.312,0.142-0.576,0.326-0.791,0.553c-0.216,0.227-0.383,0.479-0.501,0.756
		c-0.119,0.278-0.179,0.553-0.179,0.825H155.689z"/>
	<path fill="#243C5E" d="M163.475,16.828h-2.193v3.654c0,0.228,0.006,0.451,0.017,0.672s0.054,0.42,0.127,0.595
		c0.074,0.176,0.187,0.317,0.34,0.425c0.153,0.108,0.376,0.162,0.671,0.162c0.181,0,0.368-0.018,0.561-0.051
		c0.192-0.034,0.368-0.097,0.527-0.188v1.395c-0.181,0.102-0.417,0.172-0.706,0.212c-0.289,0.039-0.513,0.06-0.671,0.06
		c-0.589,0-1.045-0.082-1.369-0.246c-0.323-0.164-0.561-0.377-0.714-0.638s-0.244-0.553-0.272-0.876
		c-0.028-0.322-0.042-0.648-0.042-0.978v-4.198h-1.768v-1.326h1.768v-2.261h1.53v2.261h2.193V16.828z"/>
	<path fill="#243C5E" d="M171.329,20.092c0,0.352,0.077,0.672,0.229,0.961s0.354,0.535,0.604,0.739
		c0.249,0.204,0.538,0.362,0.867,0.476c0.329,0.113,0.668,0.17,1.02,0.17c0.476,0,0.889-0.11,1.241-0.331
		c0.351-0.221,0.674-0.513,0.969-0.876l1.156,0.885c-0.85,1.099-2.04,1.648-3.57,1.648c-0.635,0-1.21-0.108-1.726-0.323
		c-0.516-0.215-0.952-0.513-1.309-0.893c-0.357-0.379-0.632-0.827-0.824-1.343c-0.193-0.516-0.289-1.073-0.289-1.674
		s0.104-1.159,0.314-1.675c0.209-0.516,0.499-0.963,0.867-1.343s0.808-0.677,1.318-0.893c0.51-0.215,1.065-0.323,1.666-0.323
		c0.714,0,1.317,0.125,1.81,0.374c0.493,0.25,0.898,0.576,1.216,0.978c0.317,0.402,0.546,0.856,0.688,1.36
		c0.142,0.504,0.212,1.017,0.212,1.538v0.544H171.329z M176.157,18.868c-0.012-0.34-0.065-0.652-0.162-0.935
		c-0.097-0.283-0.241-0.53-0.434-0.74c-0.193-0.209-0.434-0.374-0.723-0.493c-0.289-0.119-0.626-0.179-1.011-0.179
		c-0.374,0-0.717,0.071-1.028,0.212c-0.312,0.142-0.576,0.326-0.791,0.553c-0.216,0.227-0.383,0.479-0.501,0.756
		c-0.119,0.278-0.179,0.553-0.179,0.825H176.157z M174.389,11.524h2.176l-2.533,2.448h-1.411L174.389,11.524z"/>
	<path fill="#243C5E" d="M185.388,17.644c-0.283-0.294-0.581-0.519-0.893-0.671c-0.312-0.153-0.683-0.229-1.113-0.229
		c-0.419,0-0.785,0.076-1.097,0.229c-0.312,0.153-0.572,0.363-0.782,0.629c-0.21,0.267-0.369,0.572-0.476,0.918
		c-0.108,0.346-0.162,0.705-0.162,1.079s0.062,0.729,0.187,1.062c0.125,0.335,0.3,0.627,0.527,0.876s0.499,0.444,0.816,0.586
		c0.317,0.143,0.674,0.213,1.071,0.213c0.431,0,0.799-0.076,1.105-0.229s0.589-0.377,0.85-0.672l1.088,1.088
		c-0.397,0.442-0.858,0.76-1.386,0.952c-0.527,0.192-1.085,0.289-1.674,0.289c-0.624,0-1.193-0.103-1.708-0.307
		c-0.516-0.203-0.96-0.489-1.334-0.857s-0.663-0.811-0.867-1.326c-0.204-0.516-0.306-1.085-0.306-1.709
		c0-0.623,0.102-1.195,0.306-1.716c0.204-0.521,0.49-0.969,0.859-1.343c0.368-0.374,0.81-0.666,1.326-0.875
		c0.516-0.209,1.091-0.314,1.726-0.314c0.589,0,1.153,0.105,1.691,0.314c0.538,0.21,1.006,0.53,1.403,0.96L185.388,17.644z"/>
	<path fill="#243C5E" d="M187.819,15.502h1.53v1.241h0.034c0.102-0.215,0.238-0.411,0.408-0.586s0.36-0.326,0.569-0.451
		c0.21-0.125,0.439-0.224,0.689-0.297c0.249-0.074,0.499-0.111,0.748-0.111c0.25,0,0.476,0.034,0.68,0.102l-0.068,1.649
		c-0.125-0.034-0.25-0.062-0.374-0.085c-0.125-0.022-0.25-0.034-0.374-0.034c-0.748,0-1.32,0.21-1.717,0.629
		c-0.396,0.419-0.595,1.071-0.595,1.955v4.046h-1.53V15.502z"/>
	<path fill="#243C5E" d="M194.143,16.488c0.431-0.397,0.929-0.694,1.496-0.893c0.566-0.198,1.133-0.298,1.7-0.298
		c0.589,0,1.096,0.074,1.521,0.221c0.425,0.147,0.773,0.346,1.045,0.595c0.272,0.249,0.473,0.535,0.604,0.858
		c0.13,0.323,0.195,0.66,0.195,1.011v4.114c0,0.283,0.006,0.544,0.017,0.782c0.011,0.237,0.028,0.464,0.051,0.68h-1.36
		c-0.034-0.408-0.051-0.815-0.051-1.224h-0.034c-0.34,0.521-0.742,0.89-1.207,1.104s-1.003,0.323-1.615,0.323
		c-0.374,0-0.731-0.051-1.071-0.153c-0.34-0.102-0.637-0.255-0.893-0.459c-0.255-0.203-0.456-0.456-0.604-0.756
		c-0.147-0.301-0.221-0.648-0.221-1.046c0-0.521,0.116-0.957,0.348-1.309s0.55-0.638,0.952-0.858
		c0.402-0.221,0.873-0.379,1.411-0.476c0.538-0.096,1.113-0.145,1.726-0.145h1.122v-0.34c0-0.204-0.04-0.408-0.119-0.612
		c-0.08-0.204-0.199-0.388-0.357-0.552c-0.159-0.164-0.357-0.294-0.595-0.391c-0.238-0.096-0.521-0.145-0.85-0.145
		c-0.294,0-0.552,0.028-0.773,0.085c-0.221,0.057-0.422,0.127-0.604,0.212c-0.181,0.085-0.346,0.185-0.493,0.298
		c-0.147,0.113-0.289,0.221-0.425,0.323L194.143,16.488z M198.461,19.684c-0.363,0-0.734,0.021-1.113,0.06
		c-0.38,0.04-0.726,0.116-1.037,0.229s-0.567,0.272-0.765,0.477c-0.198,0.203-0.297,0.465-0.297,0.781
		c0,0.465,0.156,0.8,0.468,1.003c0.312,0.204,0.733,0.307,1.266,0.307c0.419,0,0.776-0.071,1.071-0.213
		c0.294-0.142,0.533-0.325,0.714-0.553c0.181-0.227,0.312-0.479,0.391-0.756c0.079-0.277,0.119-0.553,0.119-0.825v-0.51H198.461z"/>
	<path fill="#243C5E" d="M202.932,15.502h1.53v1.241h0.034c0.192-0.431,0.527-0.779,1.003-1.045s1.025-0.4,1.649-0.4
		c0.385,0,0.756,0.06,1.113,0.179s0.669,0.303,0.935,0.553c0.266,0.249,0.479,0.569,0.638,0.96c0.159,0.391,0.238,0.853,0.238,1.385
		v5.185h-1.53V18.8c0-0.374-0.051-0.694-0.153-0.961c-0.102-0.266-0.238-0.481-0.408-0.646c-0.17-0.164-0.366-0.283-0.586-0.357
		c-0.221-0.073-0.451-0.11-0.688-0.11c-0.317,0-0.612,0.051-0.884,0.153s-0.51,0.264-0.714,0.485
		c-0.204,0.221-0.363,0.501-0.476,0.841s-0.17,0.742-0.17,1.207v4.147h-1.53V15.502z"/>
	<path fill="#243C5E" d="M216.668,17.525c-0.181-0.227-0.405-0.417-0.671-0.569c-0.267-0.153-0.592-0.229-0.978-0.229
		c-0.363,0-0.677,0.077-0.943,0.229c-0.267,0.153-0.399,0.377-0.399,0.671c0,0.238,0.076,0.431,0.229,0.578
		c0.153,0.147,0.334,0.267,0.544,0.357c0.209,0.091,0.433,0.159,0.671,0.204c0.238,0.045,0.442,0.085,0.612,0.119
		c0.329,0.079,0.638,0.175,0.927,0.289s0.538,0.261,0.748,0.442c0.209,0.181,0.374,0.402,0.493,0.663
		c0.119,0.261,0.179,0.577,0.179,0.951c0,0.454-0.097,0.842-0.289,1.165c-0.193,0.323-0.442,0.586-0.748,0.79
		s-0.654,0.352-1.045,0.442c-0.391,0.09-0.785,0.136-1.182,0.136c-0.669,0-1.255-0.103-1.759-0.307
		c-0.504-0.203-0.955-0.577-1.352-1.121l1.156-0.952c0.25,0.249,0.527,0.471,0.833,0.663c0.306,0.192,0.68,0.289,1.122,0.289
		c0.193,0,0.388-0.02,0.586-0.06s0.374-0.103,0.527-0.188c0.153-0.085,0.277-0.192,0.374-0.322c0.096-0.131,0.145-0.281,0.145-0.451
		c0-0.227-0.071-0.413-0.213-0.561s-0.312-0.264-0.51-0.349c-0.199-0.085-0.408-0.153-0.629-0.204
		c-0.221-0.051-0.417-0.094-0.587-0.127c-0.329-0.079-0.64-0.17-0.935-0.272c-0.295-0.102-0.556-0.238-0.782-0.408
		c-0.227-0.17-0.408-0.385-0.544-0.646c-0.136-0.261-0.204-0.583-0.204-0.969c0-0.419,0.088-0.785,0.264-1.097
		c0.175-0.312,0.408-0.569,0.697-0.773s0.618-0.357,0.986-0.459c0.368-0.102,0.739-0.153,1.113-0.153
		c0.544,0,1.065,0.102,1.564,0.306c0.499,0.204,0.895,0.544,1.19,1.02L216.668,17.525z"/>
	<path fill="#243C5E" d="M227.565,13.054h-3.876v-1.53h9.384v1.53h-3.876V23.56h-1.632V13.054z"/>
	<path fill="#243C5E" d="M233.158,11.524h1.887l3.536,9.792h0.034l3.672-9.792h1.785l-4.743,12.036h-1.53L233.158,11.524z"/>
	<path fill="#243C5E" d="M251.059,17.644c-0.306,0-0.569-0.11-0.791-0.332c-0.221-0.221-0.331-0.484-0.331-0.791
		s0.11-0.569,0.331-0.791c0.221-0.221,0.485-0.332,0.791-0.332c0.306,0,0.57,0.111,0.791,0.332c0.221,0.221,0.332,0.484,0.332,0.791
		s-0.11,0.57-0.332,0.791C251.628,17.534,251.365,17.644,251.059,17.644z M249.937,22.54c0-0.307,0.11-0.569,0.331-0.791
		c0.221-0.221,0.485-0.331,0.791-0.331c0.306,0,0.57,0.11,0.791,0.331c0.221,0.222,0.332,0.484,0.332,0.791
		c0,0.306-0.11,0.569-0.332,0.79c-0.221,0.221-0.484,0.331-0.791,0.331c-0.306,0-0.569-0.11-0.791-0.331
		C250.047,23.109,249.937,22.846,249.937,22.54z"/>
	<path fill="#243C5E" d="M265.067,17.644c-0.283-0.294-0.581-0.519-0.893-0.671c-0.312-0.153-0.683-0.229-1.113-0.229
		c-0.419,0-0.785,0.076-1.097,0.229c-0.312,0.153-0.572,0.363-0.782,0.629c-0.21,0.267-0.369,0.572-0.476,0.918
		c-0.108,0.346-0.162,0.705-0.162,1.079s0.062,0.729,0.187,1.062c0.125,0.335,0.3,0.627,0.527,0.876s0.499,0.444,0.816,0.586
		c0.317,0.143,0.674,0.213,1.071,0.213c0.431,0,0.799-0.076,1.105-0.229s0.589-0.377,0.85-0.672l1.088,1.088
		c-0.397,0.442-0.858,0.76-1.386,0.952c-0.527,0.192-1.085,0.289-1.674,0.289c-0.624,0-1.193-0.103-1.708-0.307
		c-0.516-0.203-0.96-0.489-1.334-0.857s-0.663-0.811-0.867-1.326c-0.204-0.516-0.306-1.085-0.306-1.709
		c0-0.623,0.102-1.195,0.306-1.716c0.204-0.521,0.49-0.969,0.859-1.343c0.368-0.374,0.81-0.666,1.326-0.875
		c0.516-0.209,1.091-0.314,1.726-0.314c0.589,0,1.153,0.105,1.691,0.314c0.538,0.21,1.006,0.53,1.403,0.96L265.067,17.644z"/>
	<path fill="#243C5E" d="M267.107,19.531c0-0.589,0.11-1.139,0.332-1.649c0.221-0.51,0.524-0.958,0.909-1.343s0.839-0.688,1.36-0.91
		c0.521-0.221,1.082-0.332,1.683-0.332s1.162,0.111,1.684,0.332c0.521,0.221,0.975,0.524,1.359,0.91
		c0.386,0.385,0.688,0.833,0.91,1.343c0.221,0.51,0.331,1.06,0.331,1.649c0,0.589-0.11,1.142-0.331,1.657
		c-0.222,0.516-0.524,0.963-0.91,1.343c-0.385,0.38-0.839,0.68-1.359,0.9c-0.521,0.222-1.083,0.332-1.684,0.332
		s-1.162-0.11-1.683-0.332c-0.521-0.221-0.975-0.521-1.36-0.9s-0.688-0.827-0.909-1.343
		C267.217,20.673,267.107,20.12,267.107,19.531z M268.739,19.531c0,0.407,0.062,0.784,0.187,1.13s0.301,0.641,0.527,0.884
		c0.227,0.244,0.504,0.437,0.833,0.578c0.328,0.143,0.696,0.213,1.104,0.213s0.776-0.07,1.105-0.213
		c0.328-0.142,0.605-0.334,0.833-0.578c0.227-0.243,0.401-0.538,0.526-0.884s0.188-0.723,0.188-1.13
		c0-0.408-0.062-0.785-0.188-1.131c-0.125-0.345-0.3-0.64-0.526-0.884c-0.228-0.244-0.505-0.436-0.833-0.578
		c-0.329-0.142-0.697-0.212-1.105-0.212s-0.776,0.071-1.104,0.212c-0.329,0.142-0.606,0.334-0.833,0.578s-0.402,0.539-0.527,0.884
		C268.801,18.747,268.739,19.123,268.739,19.531z"/>
	<path fill="#243C5E" d="M277.596,15.502h1.428v1.258h0.034c0.034-0.113,0.121-0.255,0.264-0.425
		c0.142-0.17,0.322-0.332,0.544-0.484c0.221-0.153,0.481-0.283,0.781-0.391c0.301-0.107,0.632-0.162,0.995-0.162
		c0.601,0,1.104,0.125,1.513,0.374c0.408,0.25,0.742,0.624,1.003,1.122c0.261-0.499,0.629-0.873,1.105-1.122
		c0.476-0.249,0.957-0.374,1.444-0.374c0.624,0,1.134,0.102,1.53,0.306s0.708,0.474,0.936,0.808
		c0.227,0.334,0.382,0.714,0.467,1.139c0.085,0.425,0.128,0.864,0.128,1.317v4.691h-1.53v-4.487c0-0.306-0.02-0.601-0.06-0.884
		c-0.04-0.283-0.122-0.533-0.246-0.748c-0.125-0.215-0.301-0.388-0.527-0.519c-0.227-0.13-0.526-0.195-0.9-0.195
		c-0.737,0-1.265,0.227-1.581,0.68c-0.317,0.453-0.477,1.037-0.477,1.751v4.402h-1.53v-4.216c0-0.385-0.02-0.736-0.059-1.054
		c-0.04-0.317-0.119-0.592-0.238-0.825c-0.119-0.232-0.289-0.414-0.51-0.544c-0.222-0.13-0.519-0.195-0.893-0.195
		c-0.272,0-0.536,0.054-0.791,0.162s-0.479,0.269-0.671,0.484c-0.193,0.215-0.347,0.49-0.459,0.825
		c-0.114,0.334-0.171,0.728-0.171,1.181v4.182h-1.529V15.502z"/>
	<path fill="#243C5E" d="M292.079,15.502h1.428v1.258h0.034c0.034-0.113,0.121-0.255,0.264-0.425
		c0.142-0.17,0.322-0.332,0.544-0.484c0.221-0.153,0.481-0.283,0.781-0.391c0.301-0.107,0.632-0.162,0.995-0.162
		c0.601,0,1.104,0.125,1.513,0.374c0.408,0.25,0.742,0.624,1.003,1.122c0.261-0.499,0.629-0.873,1.105-1.122
		c0.476-0.249,0.957-0.374,1.444-0.374c0.624,0,1.134,0.102,1.53,0.306s0.708,0.474,0.936,0.808
		c0.227,0.334,0.382,0.714,0.467,1.139c0.085,0.425,0.128,0.864,0.128,1.317v4.691h-1.53v-4.487c0-0.306-0.02-0.601-0.06-0.884
		c-0.04-0.283-0.122-0.533-0.246-0.748c-0.125-0.215-0.301-0.388-0.527-0.519c-0.227-0.13-0.526-0.195-0.9-0.195
		c-0.737,0-1.265,0.227-1.581,0.68c-0.317,0.453-0.477,1.037-0.477,1.751v4.402h-1.53v-4.216c0-0.385-0.02-0.736-0.059-1.054
		c-0.04-0.317-0.119-0.592-0.238-0.825c-0.119-0.232-0.289-0.414-0.51-0.544c-0.222-0.13-0.519-0.195-0.893-0.195
		c-0.272,0-0.536,0.054-0.791,0.162s-0.479,0.269-0.671,0.484c-0.193,0.215-0.347,0.49-0.459,0.825
		c-0.114,0.334-0.171,0.728-0.171,1.181v4.182h-1.529V15.502z"/>
	<path fill="#243C5E" d="M307.718,20.092c0,0.352,0.077,0.672,0.229,0.961c0.153,0.289,0.354,0.535,0.604,0.739
		c0.25,0.204,0.539,0.362,0.867,0.476c0.329,0.113,0.669,0.17,1.021,0.17c0.476,0,0.89-0.11,1.241-0.331
		c0.351-0.221,0.674-0.513,0.969-0.876l1.156,0.885c-0.851,1.099-2.04,1.648-3.57,1.648c-0.635,0-1.21-0.108-1.726-0.323
		s-0.952-0.513-1.309-0.893c-0.357-0.379-0.633-0.827-0.825-1.343s-0.289-1.073-0.289-1.674s0.104-1.159,0.314-1.675
		c0.21-0.516,0.499-0.963,0.867-1.343s0.808-0.677,1.317-0.893c0.511-0.215,1.065-0.323,1.666-0.323
		c0.714,0,1.317,0.125,1.811,0.374c0.493,0.25,0.898,0.576,1.216,0.978c0.317,0.402,0.547,0.856,0.688,1.36s0.213,1.017,0.213,1.538
		v0.544H307.718z M312.546,18.868c-0.011-0.34-0.065-0.652-0.161-0.935c-0.097-0.283-0.241-0.53-0.434-0.74
		c-0.192-0.209-0.434-0.374-0.723-0.493c-0.289-0.119-0.626-0.179-1.012-0.179c-0.374,0-0.717,0.071-1.028,0.212
		c-0.312,0.142-0.575,0.326-0.79,0.553c-0.216,0.227-0.383,0.479-0.502,0.756c-0.119,0.278-0.179,0.553-0.179,0.825H312.546z"/>
	<path fill="#243C5E" d="M316.015,15.502h1.529v1.241h0.034c0.192-0.431,0.527-0.779,1.003-1.045c0.477-0.266,1.026-0.4,1.649-0.4
		c0.385,0,0.757,0.06,1.113,0.179c0.357,0.119,0.669,0.303,0.936,0.553c0.266,0.249,0.479,0.569,0.637,0.96
		c0.159,0.391,0.238,0.853,0.238,1.385v5.185h-1.53V18.8c0-0.374-0.051-0.694-0.152-0.961c-0.103-0.266-0.238-0.481-0.408-0.646
		c-0.17-0.164-0.365-0.283-0.587-0.357c-0.221-0.073-0.45-0.11-0.688-0.11c-0.317,0-0.611,0.051-0.884,0.153
		c-0.271,0.102-0.51,0.264-0.714,0.485c-0.204,0.221-0.363,0.501-0.476,0.841c-0.114,0.34-0.171,0.742-0.171,1.207v4.147h-1.529
		V15.502z"/>
	<path fill="#243C5E" d="M329.784,16.828h-2.192v3.654c0,0.228,0.005,0.451,0.017,0.672s0.054,0.42,0.128,0.595
		c0.073,0.176,0.187,0.317,0.34,0.425c0.153,0.108,0.377,0.162,0.671,0.162c0.182,0,0.368-0.018,0.562-0.051
		c0.192-0.034,0.368-0.097,0.527-0.188v1.395c-0.182,0.102-0.417,0.172-0.706,0.212c-0.289,0.039-0.513,0.06-0.671,0.06
		c-0.59,0-1.046-0.082-1.369-0.246s-0.561-0.377-0.714-0.638s-0.244-0.553-0.271-0.876c-0.029-0.322-0.043-0.648-0.043-0.978v-4.198
		h-1.768v-1.326h1.768v-2.261h1.53v2.261h2.192V16.828z"/>
	<path fill="#243C5E" d="M336.091,19.531c0-0.589,0.111-1.139,0.332-1.649c0.221-0.51,0.523-0.958,0.909-1.343
		s0.839-0.688,1.36-0.91c0.521-0.221,1.082-0.332,1.683-0.332s1.162,0.111,1.684,0.332c0.521,0.221,0.975,0.524,1.359,0.91
		c0.386,0.385,0.688,0.833,0.91,1.343c0.221,0.51,0.331,1.06,0.331,1.649c0,0.589-0.11,1.142-0.331,1.657
		c-0.222,0.516-0.524,0.963-0.91,1.343c-0.385,0.38-0.839,0.68-1.359,0.9c-0.521,0.222-1.083,0.332-1.684,0.332
		s-1.162-0.11-1.683-0.332c-0.521-0.221-0.975-0.521-1.36-0.9s-0.688-0.827-0.909-1.343S336.091,20.12,336.091,19.531z
		 M337.724,19.531c0,0.407,0.062,0.784,0.187,1.13s0.3,0.641,0.527,0.884c0.227,0.244,0.504,0.437,0.833,0.578
		c0.328,0.143,0.696,0.213,1.104,0.213s0.776-0.07,1.105-0.213c0.328-0.142,0.605-0.334,0.833-0.578
		c0.227-0.243,0.401-0.538,0.526-0.884s0.188-0.723,0.188-1.13c0-0.408-0.062-0.785-0.188-1.131c-0.125-0.345-0.3-0.64-0.526-0.884
		c-0.228-0.244-0.505-0.436-0.833-0.578c-0.329-0.142-0.697-0.212-1.105-0.212s-0.776,0.071-1.104,0.212
		c-0.329,0.142-0.606,0.334-0.833,0.578c-0.228,0.244-0.402,0.539-0.527,0.884C337.785,18.747,337.724,19.123,337.724,19.531z"/>
	<path fill="#243C5E" d="M346.58,15.502h1.529v1.156h0.034c0.295-0.431,0.7-0.765,1.216-1.003c0.516-0.238,1.046-0.357,1.59-0.357
		c0.623,0,1.187,0.108,1.691,0.323c0.504,0.215,0.935,0.516,1.292,0.901c0.356,0.386,0.632,0.836,0.824,1.352
		s0.289,1.068,0.289,1.658c0,0.601-0.097,1.158-0.289,1.674s-0.468,0.964-0.824,1.343c-0.357,0.38-0.788,0.678-1.292,0.893
		c-0.505,0.215-1.068,0.323-1.691,0.323c-0.578,0-1.122-0.122-1.633-0.365c-0.51-0.244-0.9-0.575-1.173-0.994h-0.034v5.949h-1.529
		V15.502z M350.762,16.726c-0.408,0-0.776,0.071-1.104,0.212c-0.329,0.142-0.606,0.334-0.833,0.578
		c-0.228,0.244-0.402,0.539-0.527,0.884c-0.125,0.346-0.188,0.723-0.188,1.131c0,0.407,0.062,0.784,0.188,1.13
		s0.3,0.641,0.527,0.884c0.227,0.244,0.504,0.437,0.833,0.578c0.328,0.143,0.696,0.213,1.104,0.213s0.776-0.07,1.105-0.213
		c0.328-0.142,0.605-0.334,0.833-0.578c0.227-0.243,0.401-0.538,0.526-0.884s0.188-0.723,0.188-1.13
		c0-0.408-0.062-0.785-0.188-1.131c-0.125-0.345-0.3-0.64-0.526-0.884c-0.228-0.244-0.505-0.436-0.833-0.578
		C351.538,16.797,351.17,16.726,350.762,16.726z"/>
	<path fill="#243C5E" d="M361.284,16.828h-2.192v3.654c0,0.228,0.005,0.451,0.017,0.672s0.054,0.42,0.128,0.595
		c0.073,0.176,0.187,0.317,0.34,0.425c0.153,0.108,0.377,0.162,0.671,0.162c0.182,0,0.368-0.018,0.562-0.051
		c0.192-0.034,0.368-0.097,0.527-0.188v1.395c-0.182,0.102-0.417,0.172-0.706,0.212c-0.289,0.039-0.513,0.06-0.671,0.06
		c-0.59,0-1.046-0.082-1.369-0.246s-0.561-0.377-0.714-0.638s-0.244-0.553-0.271-0.876c-0.029-0.322-0.043-0.648-0.043-0.978v-4.198
		h-1.768v-1.326h1.768v-2.261h1.53v2.261h2.192V16.828z"/>
	<path fill="#243C5E" d="M363.019,12.612c0-0.306,0.11-0.569,0.331-0.79c0.222-0.221,0.485-0.332,0.791-0.332s0.569,0.11,0.79,0.332
		c0.222,0.221,0.332,0.484,0.332,0.79c0,0.306-0.11,0.57-0.332,0.791c-0.221,0.221-0.484,0.332-0.79,0.332s-0.569-0.11-0.791-0.332
		C363.129,13.182,363.019,12.918,363.019,12.612z M363.376,15.502h1.529v8.058h-1.529V15.502z"/>
	<path fill="#243C5E" d="M367.337,15.502h1.428v1.258h0.034c0.034-0.113,0.121-0.255,0.264-0.425
		c0.142-0.17,0.322-0.332,0.544-0.484c0.221-0.153,0.481-0.283,0.781-0.391c0.301-0.107,0.632-0.162,0.995-0.162
		c0.601,0,1.104,0.125,1.513,0.374c0.408,0.25,0.742,0.624,1.003,1.122c0.261-0.499,0.629-0.873,1.105-1.122
		c0.476-0.249,0.957-0.374,1.444-0.374c0.624,0,1.134,0.102,1.53,0.306s0.708,0.474,0.936,0.808
		c0.227,0.334,0.382,0.714,0.467,1.139c0.085,0.425,0.128,0.864,0.128,1.317v4.691h-1.53v-4.487c0-0.306-0.02-0.601-0.06-0.884
		c-0.04-0.283-0.122-0.533-0.246-0.748c-0.125-0.215-0.301-0.388-0.527-0.519c-0.227-0.13-0.526-0.195-0.9-0.195
		c-0.737,0-1.265,0.227-1.581,0.68c-0.317,0.453-0.477,1.037-0.477,1.751v4.402h-1.53v-4.216c0-0.385-0.02-0.736-0.059-1.054
		c-0.04-0.317-0.119-0.592-0.238-0.825c-0.119-0.232-0.289-0.414-0.51-0.544c-0.222-0.13-0.519-0.195-0.893-0.195
		c-0.272,0-0.536,0.054-0.791,0.162s-0.479,0.269-0.671,0.484c-0.193,0.215-0.347,0.49-0.459,0.825
		c-0.114,0.334-0.171,0.728-0.171,1.181v4.182h-1.529V15.502z"/>
	<path fill="#243C5E" d="M381.582,12.612c0-0.306,0.11-0.569,0.331-0.79c0.222-0.221,0.485-0.332,0.791-0.332s0.569,0.11,0.79,0.332
		c0.222,0.221,0.332,0.484,0.332,0.79c0,0.306-0.11,0.57-0.332,0.791c-0.221,0.221-0.484,0.332-0.79,0.332s-0.569-0.11-0.791-0.332
		C381.692,13.182,381.582,12.918,381.582,12.612z M381.939,15.502h1.529v8.058h-1.529V15.502z"/>
	<path fill="#243C5E" d="M390.185,17.525c-0.182-0.227-0.406-0.417-0.672-0.569c-0.267-0.153-0.593-0.229-0.978-0.229
		c-0.363,0-0.678,0.077-0.943,0.229c-0.267,0.153-0.399,0.377-0.399,0.671c0,0.238,0.076,0.431,0.229,0.578
		c0.152,0.147,0.334,0.267,0.544,0.357c0.209,0.091,0.434,0.159,0.671,0.204c0.238,0.045,0.442,0.085,0.612,0.119
		c0.329,0.079,0.638,0.175,0.927,0.289s0.538,0.261,0.748,0.442c0.209,0.181,0.374,0.402,0.493,0.663
		c0.118,0.261,0.178,0.577,0.178,0.951c0,0.454-0.096,0.842-0.289,1.165c-0.192,0.323-0.441,0.586-0.747,0.79
		c-0.307,0.204-0.655,0.352-1.046,0.442c-0.391,0.09-0.785,0.136-1.182,0.136c-0.669,0-1.255-0.103-1.76-0.307
		c-0.504-0.203-0.954-0.577-1.352-1.121l1.156-0.952c0.249,0.249,0.527,0.471,0.833,0.663c0.307,0.192,0.68,0.289,1.122,0.289
		c0.192,0,0.388-0.02,0.587-0.06c0.198-0.04,0.374-0.103,0.526-0.188c0.153-0.085,0.278-0.192,0.374-0.322
		c0.097-0.131,0.145-0.281,0.145-0.451c0-0.227-0.07-0.413-0.212-0.561c-0.143-0.147-0.312-0.264-0.511-0.349
		s-0.407-0.153-0.629-0.204c-0.221-0.051-0.416-0.094-0.586-0.127c-0.329-0.079-0.641-0.17-0.936-0.272
		c-0.295-0.102-0.555-0.238-0.781-0.408c-0.228-0.17-0.408-0.385-0.545-0.646c-0.136-0.261-0.203-0.583-0.203-0.969
		c0-0.419,0.087-0.785,0.263-1.097c0.176-0.312,0.408-0.569,0.697-0.773s0.618-0.357,0.986-0.459s0.739-0.153,1.113-0.153
		c0.544,0,1.065,0.102,1.564,0.306c0.498,0.204,0.895,0.544,1.189,1.02L390.185,17.525z"/>
	<path fill="#243C5E" d="M394.604,20.092c0,0.352,0.077,0.672,0.229,0.961c0.153,0.289,0.354,0.535,0.604,0.739
		c0.25,0.204,0.539,0.362,0.867,0.476c0.329,0.113,0.669,0.17,1.021,0.17c0.476,0,0.89-0.11,1.241-0.331
		c0.351-0.221,0.674-0.513,0.969-0.876l1.156,0.885c-0.851,1.099-2.04,1.648-3.57,1.648c-0.635,0-1.21-0.108-1.726-0.323
		s-0.952-0.513-1.309-0.893c-0.357-0.379-0.633-0.827-0.825-1.343s-0.289-1.073-0.289-1.674s0.104-1.159,0.314-1.675
		c0.21-0.516,0.499-0.963,0.867-1.343s0.808-0.677,1.317-0.893c0.511-0.215,1.065-0.323,1.666-0.323
		c0.714,0,1.317,0.125,1.811,0.374c0.493,0.25,0.898,0.576,1.216,0.978c0.317,0.402,0.547,0.856,0.688,1.36s0.213,1.017,0.213,1.538
		v0.544H394.604z M399.432,18.868c-0.011-0.34-0.065-0.652-0.161-0.935c-0.097-0.283-0.241-0.53-0.434-0.74
		c-0.192-0.209-0.434-0.374-0.723-0.493c-0.289-0.119-0.626-0.179-1.012-0.179c-0.374,0-0.717,0.071-1.028,0.212
		c-0.312,0.142-0.575,0.326-0.79,0.553c-0.216,0.227-0.383,0.479-0.502,0.756c-0.119,0.278-0.179,0.553-0.179,0.825H399.432z"/>
	<path fill="#243C5E" d="M402.9,15.502h1.529v1.241h0.034c0.103-0.215,0.238-0.411,0.408-0.586s0.359-0.326,0.569-0.451
		c0.21-0.125,0.439-0.224,0.688-0.297s0.499-0.111,0.748-0.111s0.477,0.034,0.681,0.102l-0.068,1.649
		c-0.125-0.034-0.25-0.062-0.374-0.085c-0.125-0.022-0.249-0.034-0.374-0.034c-0.748,0-1.32,0.21-1.717,0.629
		c-0.397,0.419-0.596,1.071-0.596,1.955v4.046H402.9V15.502z"/>
	<path fill="#243C5E" d="M414.035,10.708h1.529V23.56h-1.529V10.708z"/>
	<path fill="#243C5E" d="M419.151,20.092c0,0.352,0.077,0.672,0.229,0.961c0.153,0.289,0.354,0.535,0.604,0.739
		c0.25,0.204,0.539,0.362,0.867,0.476c0.329,0.113,0.669,0.17,1.021,0.17c0.476,0,0.89-0.11,1.241-0.331
		c0.351-0.221,0.674-0.513,0.969-0.876l1.156,0.885c-0.851,1.099-2.04,1.648-3.57,1.648c-0.635,0-1.21-0.108-1.726-0.323
		s-0.952-0.513-1.309-0.893c-0.357-0.379-0.633-0.827-0.825-1.343s-0.289-1.073-0.289-1.674s0.104-1.159,0.314-1.675
		c0.21-0.516,0.499-0.963,0.867-1.343s0.808-0.677,1.317-0.893c0.511-0.215,1.065-0.323,1.666-0.323
		c0.714,0,1.317,0.125,1.811,0.374c0.493,0.25,0.898,0.576,1.216,0.978c0.317,0.402,0.547,0.856,0.688,1.36s0.213,1.017,0.213,1.538
		v0.544H419.151z M423.979,18.868c-0.011-0.34-0.065-0.652-0.161-0.935c-0.097-0.283-0.241-0.53-0.434-0.74
		c-0.192-0.209-0.434-0.374-0.723-0.493c-0.289-0.119-0.626-0.179-1.012-0.179c-0.374,0-0.717,0.071-1.028,0.212
		c-0.312,0.142-0.575,0.326-0.79,0.553c-0.216,0.227-0.383,0.479-0.502,0.756c-0.119,0.278-0.179,0.553-0.179,0.825H423.979z"/>
	<path fill="#243C5E" d="M434.588,23.56h-1.53v-1.241h-0.033c-0.193,0.432-0.527,0.779-1.004,1.046
		c-0.476,0.266-1.025,0.399-1.648,0.399c-0.396,0-0.771-0.06-1.122-0.179c-0.352-0.118-0.66-0.303-0.927-0.552
		c-0.267-0.25-0.479-0.57-0.638-0.961c-0.158-0.391-0.237-0.853-0.237-1.386v-5.185h1.529v4.76c0,0.374,0.052,0.694,0.153,0.961
		c0.103,0.266,0.238,0.481,0.408,0.646c0.17,0.165,0.365,0.283,0.587,0.357c0.221,0.073,0.45,0.11,0.688,0.11
		c0.316,0,0.611-0.051,0.884-0.153c0.271-0.102,0.51-0.264,0.714-0.484s0.362-0.501,0.476-0.842c0.113-0.34,0.17-0.742,0.17-1.207
		v-4.147h1.53V23.56z"/>
	<path fill="#243C5E" d="M436.9,15.502h1.529v1.241h0.034c0.103-0.215,0.238-0.411,0.408-0.586s0.359-0.326,0.569-0.451
		c0.21-0.125,0.439-0.224,0.688-0.297s0.499-0.111,0.748-0.111s0.477,0.034,0.681,0.102l-0.068,1.649
		c-0.125-0.034-0.25-0.062-0.374-0.085c-0.125-0.022-0.249-0.034-0.374-0.034c-0.748,0-1.32,0.21-1.717,0.629
		c-0.397,0.419-0.596,1.071-0.596,1.955v4.046H436.9V15.502z"/>
	<path fill="#243C5E" d="M455.056,23.56h-1.53v-1.241h-0.033c-0.193,0.432-0.527,0.779-1.004,1.046
		c-0.476,0.266-1.025,0.399-1.648,0.399c-0.396,0-0.771-0.06-1.122-0.179c-0.352-0.118-0.66-0.303-0.927-0.552
		c-0.267-0.25-0.479-0.57-0.638-0.961c-0.158-0.391-0.237-0.853-0.237-1.386v-5.185h1.529v4.76c0,0.374,0.052,0.694,0.153,0.961
		c0.103,0.266,0.238,0.481,0.408,0.646c0.17,0.165,0.365,0.283,0.587,0.357c0.221,0.073,0.45,0.11,0.688,0.11
		c0.316,0,0.611-0.051,0.884-0.153c0.271-0.102,0.51-0.264,0.714-0.484s0.362-0.501,0.476-0.842c0.113-0.34,0.17-0.742,0.17-1.207
		v-4.147h1.53V23.56z"/>
	<path fill="#243C5E" d="M461.652,17.525c-0.182-0.227-0.406-0.417-0.672-0.569c-0.267-0.153-0.593-0.229-0.978-0.229
		c-0.363,0-0.678,0.077-0.943,0.229c-0.267,0.153-0.399,0.377-0.399,0.671c0,0.238,0.076,0.431,0.229,0.578
		c0.152,0.147,0.334,0.267,0.544,0.357c0.209,0.091,0.434,0.159,0.671,0.204c0.238,0.045,0.442,0.085,0.612,0.119
		c0.329,0.079,0.638,0.175,0.927,0.289s0.538,0.261,0.748,0.442c0.209,0.181,0.374,0.402,0.493,0.663
		c0.118,0.261,0.178,0.577,0.178,0.951c0,0.454-0.096,0.842-0.289,1.165c-0.192,0.323-0.441,0.586-0.747,0.79
		c-0.307,0.204-0.655,0.352-1.046,0.442c-0.391,0.09-0.785,0.136-1.182,0.136c-0.669,0-1.255-0.103-1.76-0.307
		c-0.504-0.203-0.954-0.577-1.352-1.121l1.156-0.952c0.249,0.249,0.527,0.471,0.833,0.663c0.307,0.192,0.68,0.289,1.122,0.289
		c0.192,0,0.388-0.02,0.587-0.06c0.198-0.04,0.374-0.103,0.526-0.188c0.153-0.085,0.278-0.192,0.374-0.322
		c0.097-0.131,0.145-0.281,0.145-0.451c0-0.227-0.07-0.413-0.212-0.561c-0.143-0.147-0.312-0.264-0.511-0.349
		s-0.407-0.153-0.629-0.204c-0.221-0.051-0.416-0.094-0.586-0.127c-0.329-0.079-0.641-0.17-0.936-0.272
		c-0.295-0.102-0.555-0.238-0.781-0.408c-0.228-0.17-0.408-0.385-0.545-0.646c-0.136-0.261-0.203-0.583-0.203-0.969
		c0-0.419,0.087-0.785,0.263-1.097c0.176-0.312,0.408-0.569,0.697-0.773s0.618-0.357,0.986-0.459s0.739-0.153,1.113-0.153
		c0.544,0,1.065,0.102,1.564,0.306c0.498,0.204,0.895,0.544,1.189,1.02L461.652,17.525z"/>
	<path fill="#243C5E" d="M464.95,16.488c0.43-0.397,0.929-0.694,1.495-0.893c0.567-0.198,1.134-0.298,1.7-0.298
		c0.59,0,1.097,0.074,1.521,0.221c0.425,0.147,0.773,0.346,1.046,0.595c0.271,0.249,0.473,0.535,0.604,0.858
		c0.13,0.323,0.195,0.66,0.195,1.011v4.114c0,0.283,0.006,0.544,0.017,0.782c0.012,0.237,0.028,0.464,0.052,0.68h-1.36
		c-0.034-0.408-0.051-0.815-0.051-1.224h-0.034c-0.34,0.521-0.742,0.89-1.207,1.104s-1.003,0.323-1.615,0.323
		c-0.374,0-0.73-0.051-1.07-0.153c-0.341-0.102-0.638-0.255-0.893-0.459c-0.255-0.203-0.457-0.456-0.604-0.756
		c-0.147-0.301-0.222-0.648-0.222-1.046c0-0.521,0.116-0.957,0.349-1.309s0.55-0.638,0.952-0.858
		c0.402-0.221,0.873-0.379,1.411-0.476c0.538-0.096,1.113-0.145,1.726-0.145h1.122v-0.34c0-0.204-0.04-0.408-0.119-0.612
		c-0.079-0.204-0.198-0.388-0.357-0.552c-0.158-0.164-0.356-0.294-0.595-0.391c-0.238-0.096-0.521-0.145-0.85-0.145
		c-0.295,0-0.553,0.028-0.773,0.085c-0.222,0.057-0.423,0.127-0.604,0.212c-0.182,0.085-0.347,0.185-0.493,0.298
		c-0.147,0.113-0.289,0.221-0.425,0.323L464.95,16.488z M469.268,19.684c-0.362,0-0.733,0.021-1.113,0.06
		c-0.38,0.04-0.726,0.116-1.037,0.229s-0.566,0.272-0.765,0.477c-0.198,0.203-0.298,0.465-0.298,0.781
		c0,0.465,0.155,0.8,0.468,1.003c0.312,0.204,0.733,0.307,1.267,0.307c0.419,0,0.775-0.071,1.07-0.213s0.533-0.325,0.715-0.553
		c0.181-0.227,0.312-0.479,0.391-0.756s0.119-0.553,0.119-0.825v-0.51H469.268z"/>
	<path fill="#243C5E" d="M481.814,23.492c0,0.611-0.105,1.17-0.315,1.674c-0.209,0.504-0.507,0.94-0.892,1.309
		c-0.386,0.368-0.851,0.655-1.395,0.859c-0.544,0.203-1.145,0.306-1.802,0.306c-0.771,0-1.477-0.108-2.116-0.323
		c-0.641-0.215-1.25-0.589-1.828-1.122l1.037-1.292c0.396,0.431,0.827,0.757,1.292,0.978s0.991,0.332,1.581,0.332
		c0.566,0,1.037-0.083,1.411-0.247s0.672-0.377,0.893-0.638s0.377-0.558,0.468-0.892c0.09-0.335,0.136-0.672,0.136-1.012v-1.19
		h-0.051c-0.295,0.488-0.694,0.848-1.199,1.079c-0.504,0.232-1.034,0.349-1.589,0.349c-0.59,0-1.137-0.104-1.641-0.313
		c-0.505-0.21-0.938-0.499-1.301-0.867s-0.646-0.805-0.85-1.31c-0.204-0.504-0.307-1.051-0.307-1.64
		c0-0.589,0.097-1.142,0.289-1.658s0.468-0.966,0.825-1.352c0.356-0.385,0.787-0.686,1.292-0.901
		c0.504-0.215,1.067-0.323,1.691-0.323c0.544,0,1.073,0.119,1.589,0.357c0.516,0.238,0.921,0.572,1.216,1.003h0.034v-1.156h1.53
		V23.492z M477.632,16.726c-0.408,0-0.776,0.071-1.104,0.212c-0.329,0.142-0.606,0.334-0.833,0.578
		c-0.228,0.244-0.402,0.539-0.527,0.884c-0.125,0.346-0.187,0.723-0.187,1.131c0,0.815,0.237,1.47,0.714,1.963
		c0.476,0.493,1.122,0.739,1.938,0.739c0.816,0,1.462-0.246,1.938-0.739c0.476-0.493,0.714-1.147,0.714-1.963
		c0-0.408-0.062-0.785-0.188-1.131c-0.125-0.345-0.3-0.64-0.526-0.884c-0.228-0.244-0.505-0.436-0.833-0.578
		C478.408,16.797,478.04,16.726,477.632,16.726z"/>
	<path fill="#243C5E" d="M485.281,20.092c0,0.352,0.077,0.672,0.229,0.961c0.153,0.289,0.354,0.535,0.604,0.739
		c0.25,0.204,0.539,0.362,0.867,0.476c0.329,0.113,0.669,0.17,1.021,0.17c0.476,0,0.89-0.11,1.241-0.331
		c0.351-0.221,0.674-0.513,0.969-0.876l1.156,0.885c-0.851,1.099-2.04,1.648-3.57,1.648c-0.635,0-1.21-0.108-1.726-0.323
		s-0.952-0.513-1.309-0.893c-0.357-0.379-0.633-0.827-0.825-1.343s-0.289-1.073-0.289-1.674s0.104-1.159,0.314-1.675
		c0.21-0.516,0.499-0.963,0.867-1.343s0.808-0.677,1.317-0.893c0.511-0.215,1.065-0.323,1.666-0.323
		c0.714,0,1.317,0.125,1.811,0.374c0.493,0.25,0.898,0.576,1.216,0.978c0.317,0.402,0.547,0.856,0.688,1.36s0.213,1.017,0.213,1.538
		v0.544H485.281z M490.109,18.868c-0.011-0.34-0.065-0.652-0.161-0.935c-0.097-0.283-0.241-0.53-0.434-0.74
		c-0.192-0.209-0.434-0.374-0.723-0.493c-0.289-0.119-0.626-0.179-1.012-0.179c-0.374,0-0.717,0.071-1.028,0.212
		c-0.312,0.142-0.575,0.326-0.79,0.553c-0.216,0.227-0.383,0.479-0.502,0.756c-0.119,0.278-0.179,0.553-0.179,0.825H490.109z"/>
	<path fill="#243C5E" d="M500.718,20.193v-1.036c0-0.306,0.022-0.561,0.067-0.765c0.046-0.204,0.113-0.388,0.204-0.553
		c0.091-0.164,0.213-0.323,0.365-0.476c0.153-0.153,0.343-0.337,0.57-0.553c0.181-0.17,0.362-0.343,0.544-0.519
		c0.181-0.175,0.346-0.357,0.493-0.544c0.146-0.187,0.269-0.385,0.365-0.595c0.096-0.209,0.145-0.444,0.145-0.705
		s-0.049-0.501-0.145-0.723c-0.097-0.221-0.224-0.411-0.383-0.569s-0.349-0.283-0.569-0.374s-0.456-0.136-0.705-0.136
		c-0.556,0-1.007,0.176-1.352,0.527c-0.347,0.352-0.553,0.811-0.621,1.377l-1.733-0.17c0.146-0.986,0.558-1.759,1.232-2.32
		c0.674-0.561,1.51-0.841,2.507-0.841c0.477,0,0.921,0.071,1.335,0.212c0.413,0.142,0.773,0.346,1.079,0.612
		c0.307,0.267,0.547,0.595,0.723,0.986c0.176,0.391,0.264,0.836,0.264,1.335c0,0.431-0.062,0.807-0.188,1.13
		c-0.124,0.323-0.3,0.626-0.526,0.909l-1.021,1.054l-0.17,0.153c-0.182,0.17-0.325,0.314-0.434,0.434
		c-0.107,0.119-0.192,0.244-0.255,0.374c-0.062,0.13-0.104,0.275-0.127,0.434c-0.023,0.159-0.034,0.357-0.034,0.595v0.747H500.718z
		 M500.395,22.54c0-0.307,0.11-0.569,0.331-0.791c0.222-0.221,0.485-0.331,0.791-0.331s0.569,0.11,0.79,0.331
		c0.222,0.222,0.332,0.484,0.332,0.791c0,0.306-0.11,0.569-0.332,0.79c-0.221,0.221-0.484,0.331-0.79,0.331s-0.569-0.11-0.791-0.331
		C500.505,23.109,500.395,22.846,500.395,22.54z"/>
</g>
</svg>
