<?xml version="1.0" encoding="utf-8"?>
<!-- Generator: Adobe Illustrator 16.0.0, SVG Export Plug-In . SVG Version: 6.00 Build 0)  -->
<!DOCTYPE svg PUBLIC "-//W3C//DTD SVG 1.1//EN" "http://www.w3.org/Graphics/SVG/1.1/DTD/svg11.dtd">
<svg version="1.1" id="Calque_1" xmlns="http://www.w3.org/2000/svg" xmlns:xlink="http://www.w3.org/1999/xlink" x="0px" y="0px"
	 width="646px" height="72px" viewBox="0 0 646 72" enable-background="new 0 0 646 72" xml:space="preserve">
<g>
	<path fill="#243C5E" d="M18.416,15.58c-0.476,0.644-1.027,1.106-1.652,1.386c-0.625,0.28-1.302,0.42-2.03,0.42
		c-0.756,0-1.449-0.128-2.079-0.385c-0.63-0.257-1.169-0.616-1.617-1.078c-0.448-0.462-0.798-1.013-1.05-1.652
		c-0.252-0.639-0.378-1.337-0.378-2.093s0.126-1.451,0.378-2.086c0.252-0.635,0.602-1.183,1.05-1.645
		c0.448-0.462,0.987-0.824,1.617-1.085c0.63-0.261,1.323-0.392,2.079-0.392c0.672,0,1.3,0.119,1.883,0.357
		c0.583,0.238,1.094,0.637,1.533,1.197l-0.756,0.63c-0.308-0.467-0.703-0.807-1.183-1.022c-0.481-0.215-0.973-0.322-1.477-0.322
		c-0.644,0-1.225,0.112-1.743,0.336c-0.518,0.224-0.959,0.532-1.323,0.924c-0.364,0.392-0.644,0.854-0.84,1.386
		c-0.196,0.532-0.294,1.106-0.294,1.722c0,0.616,0.098,1.19,0.294,1.722c0.196,0.532,0.476,0.994,0.84,1.386
		c0.364,0.392,0.805,0.7,1.323,0.924c0.518,0.224,1.099,0.336,1.743,0.336c0.252,0,0.513-0.03,0.784-0.091
		c0.271-0.061,0.534-0.154,0.791-0.28c0.256-0.126,0.501-0.285,0.735-0.476c0.233-0.191,0.438-0.422,0.616-0.693L18.416,15.58z"/>
	<path fill="#243C5E" d="M19.507,13.9c0-0.495,0.084-0.95,0.252-1.365c0.168-0.415,0.401-0.774,0.7-1.078s0.658-0.539,1.078-0.707
		s0.877-0.252,1.372-0.252c0.495,0,0.949,0.084,1.365,0.252c0.415,0.168,0.774,0.404,1.078,0.707
		c0.303,0.303,0.539,0.663,0.707,1.078c0.168,0.416,0.252,0.871,0.252,1.365s-0.084,0.95-0.252,1.365
		c-0.168,0.416-0.404,0.775-0.707,1.078c-0.304,0.303-0.663,0.539-1.078,0.707c-0.416,0.168-0.87,0.252-1.365,0.252
		c-0.495,0-0.952-0.084-1.372-0.252s-0.779-0.404-1.078-0.707s-0.532-0.663-0.7-1.078C19.591,14.85,19.507,14.395,19.507,13.9z
		 M20.348,13.9c0,0.364,0.058,0.707,0.175,1.029c0.117,0.322,0.287,0.602,0.511,0.84c0.224,0.238,0.494,0.427,0.812,0.567
		c0.317,0.14,0.672,0.21,1.064,0.21c0.392,0,0.747-0.07,1.064-0.21c0.317-0.14,0.588-0.329,0.812-0.567
		c0.224-0.238,0.394-0.518,0.511-0.84c0.117-0.322,0.175-0.665,0.175-1.029c0-0.364-0.059-0.707-0.175-1.029
		c-0.117-0.322-0.287-0.602-0.511-0.84c-0.224-0.238-0.495-0.427-0.812-0.567c-0.317-0.14-0.672-0.21-1.064-0.21
		c-0.392,0-0.747,0.07-1.064,0.21c-0.318,0.14-0.588,0.329-0.812,0.567c-0.224,0.238-0.395,0.518-0.511,0.84
		C20.406,13.193,20.348,13.536,20.348,13.9z"/>
	<path fill="#243C5E" d="M28.188,12.486c0-0.121-0.005-0.268-0.014-0.441s-0.017-0.348-0.021-0.525
		c-0.005-0.177-0.012-0.343-0.021-0.497c-0.009-0.154-0.014-0.273-0.014-0.357h0.84c0.009,0.243,0.016,0.476,0.021,0.7
		c0.004,0.224,0.016,0.369,0.035,0.434h0.042c0.168-0.354,0.448-0.66,0.84-0.917s0.849-0.385,1.372-0.385
		c0.504,0,0.915,0.08,1.232,0.238c0.317,0.159,0.567,0.366,0.749,0.623c0.182,0.257,0.308,0.553,0.378,0.889
		c0.07,0.336,0.105,0.682,0.105,1.036v3.85h-0.84v-3.808c0-0.261-0.023-0.516-0.07-0.763c-0.047-0.248-0.128-0.469-0.245-0.665
		c-0.117-0.196-0.28-0.353-0.49-0.469s-0.483-0.175-0.819-0.175c-0.308,0-0.6,0.054-0.875,0.161
		c-0.275,0.107-0.514,0.271-0.714,0.49s-0.359,0.495-0.476,0.826c-0.117,0.331-0.175,0.721-0.175,1.169v3.234h-0.84V12.486z"/>
	<path fill="#243C5E" d="M35.985,15.482c0.177,0.345,0.439,0.609,0.784,0.791c0.345,0.182,0.709,0.273,1.092,0.273
		c0.177,0,0.355-0.028,0.532-0.084c0.177-0.056,0.336-0.135,0.476-0.238c0.14-0.103,0.254-0.226,0.343-0.371
		c0.089-0.145,0.133-0.311,0.133-0.497c0-0.299-0.096-0.523-0.287-0.672c-0.191-0.149-0.427-0.266-0.707-0.35
		s-0.588-0.156-0.924-0.217c-0.336-0.061-0.644-0.154-0.924-0.28c-0.28-0.126-0.516-0.301-0.707-0.525
		c-0.191-0.224-0.287-0.542-0.287-0.952c0-0.317,0.065-0.593,0.196-0.826c0.13-0.233,0.301-0.427,0.511-0.581
		c0.21-0.154,0.445-0.268,0.707-0.343s0.527-0.112,0.798-0.112c0.532,0,0.992,0.098,1.379,0.294
		c0.387,0.196,0.688,0.504,0.903,0.924l-0.756,0.448c-0.159-0.298-0.357-0.525-0.595-0.679c-0.238-0.154-0.548-0.231-0.931-0.231
		c-0.149,0-0.306,0.023-0.469,0.07c-0.163,0.047-0.31,0.112-0.441,0.196c-0.131,0.084-0.24,0.191-0.329,0.322
		c-0.089,0.131-0.133,0.28-0.133,0.448c0,0.29,0.096,0.504,0.287,0.644c0.191,0.14,0.427,0.25,0.707,0.329
		c0.28,0.08,0.588,0.147,0.924,0.203s0.644,0.147,0.924,0.273c0.28,0.126,0.516,0.308,0.707,0.546
		c0.191,0.238,0.287,0.577,0.287,1.015c0,0.336-0.063,0.628-0.189,0.875c-0.126,0.248-0.299,0.455-0.518,0.623
		s-0.469,0.294-0.749,0.378c-0.28,0.084-0.574,0.126-0.882,0.126c-0.56,0-1.071-0.107-1.533-0.322
		c-0.462-0.215-0.819-0.546-1.071-0.994L35.985,15.482z"/>
	<path fill="#243C5E" d="M41.571,13.9c0-0.495,0.084-0.95,0.252-1.365c0.168-0.415,0.401-0.774,0.7-1.078s0.658-0.539,1.078-0.707
		s0.877-0.252,1.372-0.252c0.495,0,0.949,0.084,1.365,0.252c0.415,0.168,0.774,0.404,1.078,0.707
		c0.303,0.303,0.539,0.663,0.707,1.078c0.168,0.416,0.252,0.871,0.252,1.365s-0.084,0.95-0.252,1.365
		c-0.168,0.416-0.404,0.775-0.707,1.078c-0.304,0.303-0.663,0.539-1.078,0.707c-0.416,0.168-0.87,0.252-1.365,0.252
		c-0.495,0-0.952-0.084-1.372-0.252s-0.779-0.404-1.078-0.707s-0.532-0.663-0.7-1.078C41.655,14.85,41.571,14.395,41.571,13.9z
		 M42.412,13.9c0,0.364,0.058,0.707,0.175,1.029c0.117,0.322,0.287,0.602,0.511,0.84c0.224,0.238,0.494,0.427,0.812,0.567
		c0.317,0.14,0.672,0.21,1.064,0.21c0.392,0,0.747-0.07,1.064-0.21c0.317-0.14,0.588-0.329,0.812-0.567
		c0.224-0.238,0.394-0.518,0.511-0.84c0.117-0.322,0.175-0.665,0.175-1.029c0-0.364-0.059-0.707-0.175-1.029
		c-0.117-0.322-0.287-0.602-0.511-0.84c-0.224-0.238-0.495-0.427-0.812-0.567c-0.317-0.14-0.672-0.21-1.064-0.21
		c-0.392,0-0.747,0.07-1.064,0.21c-0.318,0.14-0.588,0.329-0.812,0.567c-0.224,0.238-0.395,0.518-0.511,0.84
		C42.47,13.193,42.412,13.536,42.412,13.9z"/>
	<path fill="#243C5E" d="M50.279,16.546c0-0.187,0.065-0.345,0.196-0.476c0.13-0.131,0.289-0.196,0.476-0.196
		c0.187,0,0.345,0.065,0.476,0.196s0.196,0.29,0.196,0.476s-0.065,0.345-0.196,0.476c-0.131,0.13-0.289,0.196-0.476,0.196
		c-0.187,0-0.345-0.065-0.476-0.196C50.345,16.892,50.279,16.733,50.279,16.546z"/>
	<path fill="#243C5E" d="M57.153,6.718l0.728,0.252L53.64,17.638l-0.742-0.252L57.153,6.718z"/>
	<path fill="#243C5E" d="M64.098,14.418c0,0.317,0.002,0.602,0.007,0.854s0.012,0.485,0.021,0.7
		c0.009,0.215,0.021,0.416,0.035,0.602c0.014,0.187,0.035,0.374,0.063,0.56h-0.784c-0.056-0.317-0.084-0.667-0.084-1.05h-0.028
		c-0.243,0.42-0.544,0.728-0.903,0.924c-0.359,0.196-0.814,0.294-1.365,0.294c-0.28,0-0.555-0.035-0.826-0.105
		c-0.271-0.07-0.514-0.182-0.728-0.336c-0.215-0.154-0.39-0.352-0.525-0.595c-0.135-0.242-0.203-0.537-0.203-0.882
		c0-0.495,0.126-0.887,0.378-1.176c0.252-0.29,0.562-0.506,0.931-0.651c0.369-0.145,0.761-0.238,1.176-0.28
		c0.415-0.042,0.782-0.063,1.099-0.063h0.98v-0.392c0-0.56-0.173-0.961-0.518-1.204c-0.346-0.243-0.779-0.364-1.302-0.364
		c-0.747,0-1.405,0.243-1.974,0.728l-0.49-0.574c0.308-0.298,0.69-0.525,1.148-0.679c0.458-0.154,0.896-0.231,1.316-0.231
		c0.784,0,1.409,0.185,1.876,0.553s0.7,0.964,0.7,1.785V14.418z M62.417,13.886c-0.354,0-0.698,0.023-1.029,0.07
		c-0.332,0.047-0.63,0.126-0.896,0.238s-0.479,0.261-0.637,0.448c-0.159,0.187-0.238,0.42-0.238,0.7
		c0,0.196,0.044,0.371,0.133,0.525c0.089,0.154,0.203,0.28,0.343,0.378c0.14,0.098,0.296,0.173,0.469,0.224s0.348,0.077,0.525,0.077
		c0.448,0,0.816-0.065,1.106-0.196c0.289-0.13,0.52-0.301,0.693-0.511c0.172-0.21,0.292-0.448,0.357-0.714
		c0.065-0.266,0.098-0.534,0.098-0.805v-0.434H62.417z"/>
	<path fill="#243C5E" d="M66.156,10.667h0.84V11.8h0.028c0.13-0.224,0.294-0.417,0.49-0.581c0.196-0.163,0.408-0.298,0.637-0.406
		c0.229-0.107,0.469-0.187,0.721-0.238s0.5-0.077,0.742-0.077c0.495,0,0.95,0.084,1.365,0.252c0.415,0.168,0.774,0.404,1.078,0.707
		s0.539,0.663,0.707,1.078c0.168,0.416,0.252,0.871,0.252,1.365s-0.084,0.95-0.252,1.365c-0.168,0.416-0.404,0.775-0.707,1.078
		s-0.663,0.539-1.078,0.707c-0.416,0.168-0.871,0.252-1.365,0.252c-0.243,0-0.49-0.026-0.742-0.077s-0.492-0.13-0.721-0.238
		c-0.229-0.107-0.441-0.243-0.637-0.406c-0.196-0.163-0.359-0.357-0.49-0.581h-0.028v4.327h-0.84V10.667z M66.912,13.9
		c0,0.364,0.07,0.707,0.21,1.029c0.14,0.322,0.332,0.602,0.574,0.84c0.243,0.238,0.527,0.427,0.854,0.567
		c0.327,0.14,0.681,0.21,1.064,0.21c0.392,0,0.747-0.07,1.064-0.21c0.317-0.14,0.588-0.329,0.812-0.567
		c0.224-0.238,0.394-0.518,0.511-0.84c0.116-0.322,0.175-0.665,0.175-1.029c0-0.364-0.059-0.707-0.175-1.029
		c-0.117-0.322-0.287-0.602-0.511-0.84s-0.495-0.427-0.812-0.567s-0.672-0.21-1.064-0.21c-0.383,0-0.737,0.07-1.064,0.21
		s-0.611,0.329-0.854,0.567s-0.434,0.518-0.574,0.84C66.982,13.193,66.912,13.536,66.912,13.9z"/>
	<path fill="#243C5E" d="M74.709,10.667h0.84V11.8h0.028c0.13-0.224,0.294-0.417,0.49-0.581c0.196-0.163,0.408-0.298,0.637-0.406
		c0.229-0.107,0.469-0.187,0.721-0.238s0.5-0.077,0.742-0.077c0.495,0,0.95,0.084,1.365,0.252c0.415,0.168,0.774,0.404,1.078,0.707
		s0.539,0.663,0.707,1.078c0.168,0.416,0.252,0.871,0.252,1.365s-0.084,0.95-0.252,1.365c-0.168,0.416-0.404,0.775-0.707,1.078
		s-0.663,0.539-1.078,0.707c-0.416,0.168-0.871,0.252-1.365,0.252c-0.243,0-0.49-0.026-0.742-0.077s-0.492-0.13-0.721-0.238
		c-0.229-0.107-0.441-0.243-0.637-0.406c-0.196-0.163-0.359-0.357-0.49-0.581h-0.028v4.327h-0.84V10.667z M75.465,13.9
		c0,0.364,0.07,0.707,0.21,1.029c0.14,0.322,0.332,0.602,0.574,0.84c0.243,0.238,0.527,0.427,0.854,0.567
		c0.327,0.14,0.681,0.21,1.064,0.21c0.392,0,0.747-0.07,1.064-0.21c0.317-0.14,0.588-0.329,0.812-0.567
		c0.224-0.238,0.394-0.518,0.511-0.84c0.116-0.322,0.175-0.665,0.175-1.029c0-0.364-0.059-0.707-0.175-1.029
		c-0.117-0.322-0.287-0.602-0.511-0.84s-0.495-0.427-0.812-0.567s-0.672-0.21-1.064-0.21c-0.383,0-0.737,0.07-1.064,0.21
		s-0.611,0.329-0.854,0.567s-0.434,0.518-0.574,0.84C75.536,13.193,75.465,13.536,75.465,13.9z"/>
	<path fill="#243C5E" d="M88.471,14.418c0,0.317,0.002,0.602,0.007,0.854s0.012,0.485,0.021,0.7
		c0.009,0.215,0.021,0.416,0.035,0.602c0.014,0.187,0.035,0.374,0.063,0.56h-0.784c-0.056-0.317-0.084-0.667-0.084-1.05h-0.028
		c-0.243,0.42-0.544,0.728-0.903,0.924c-0.359,0.196-0.814,0.294-1.365,0.294c-0.28,0-0.555-0.035-0.826-0.105
		c-0.271-0.07-0.514-0.182-0.728-0.336c-0.215-0.154-0.39-0.352-0.525-0.595c-0.135-0.242-0.203-0.537-0.203-0.882
		c0-0.495,0.126-0.887,0.378-1.176c0.252-0.29,0.562-0.506,0.931-0.651c0.369-0.145,0.761-0.238,1.176-0.28
		c0.415-0.042,0.782-0.063,1.099-0.063h0.98v-0.392c0-0.56-0.173-0.961-0.518-1.204c-0.346-0.243-0.779-0.364-1.302-0.364
		c-0.747,0-1.405,0.243-1.974,0.728l-0.49-0.574c0.308-0.298,0.69-0.525,1.148-0.679c0.458-0.154,0.896-0.231,1.316-0.231
		c0.784,0,1.409,0.185,1.876,0.553s0.7,0.964,0.7,1.785V14.418z M86.791,13.886c-0.354,0-0.698,0.023-1.029,0.07
		c-0.332,0.047-0.63,0.126-0.896,0.238s-0.479,0.261-0.637,0.448c-0.159,0.187-0.238,0.42-0.238,0.7
		c0,0.196,0.044,0.371,0.133,0.525c0.089,0.154,0.203,0.28,0.343,0.378c0.14,0.098,0.296,0.173,0.469,0.224s0.348,0.077,0.525,0.077
		c0.448,0,0.816-0.065,1.106-0.196c0.289-0.13,0.52-0.301,0.693-0.511c0.172-0.21,0.292-0.448,0.357-0.714
		c0.065-0.266,0.098-0.534,0.098-0.805v-0.434H86.791z"/>
	<path fill="#243C5E" d="M90.711,12.486c0-0.121-0.005-0.268-0.014-0.441s-0.017-0.348-0.021-0.525
		c-0.005-0.177-0.012-0.343-0.021-0.497c-0.009-0.154-0.014-0.273-0.014-0.357h0.84c0.009,0.243,0.016,0.476,0.021,0.7
		c0.004,0.224,0.016,0.369,0.035,0.434c0.215-0.383,0.49-0.695,0.826-0.938s0.747-0.364,1.232-0.364
		c0.084,0,0.166,0.007,0.245,0.021c0.079,0.014,0.161,0.031,0.245,0.049l-0.098,0.826c-0.112-0.037-0.219-0.056-0.322-0.056
		c-0.364,0-0.679,0.058-0.945,0.175s-0.485,0.278-0.658,0.483c-0.173,0.206-0.301,0.446-0.385,0.721s-0.126,0.572-0.126,0.889v3.528
		h-0.84V12.486z"/>
	<path fill="#243C5E" d="M100.833,15.917c-0.327,0.495-0.73,0.849-1.211,1.064c-0.481,0.214-1.011,0.322-1.589,0.322
		c-0.495,0-0.943-0.084-1.344-0.252s-0.747-0.404-1.036-0.707c-0.289-0.303-0.511-0.663-0.665-1.078
		c-0.154-0.415-0.231-0.875-0.231-1.379c0-0.485,0.079-0.933,0.238-1.344c0.159-0.411,0.382-0.768,0.672-1.071
		c0.289-0.303,0.63-0.541,1.022-0.714s0.826-0.259,1.302-0.259c0.494,0,0.931,0.086,1.309,0.259s0.695,0.401,0.952,0.686
		s0.45,0.609,0.581,0.973c0.13,0.364,0.196,0.732,0.196,1.106v0.588h-5.432c0,0.177,0.035,0.404,0.105,0.679
		c0.07,0.275,0.198,0.544,0.385,0.805s0.436,0.485,0.749,0.672c0.312,0.187,0.716,0.28,1.211,0.28c0.429,0,0.845-0.103,1.246-0.308
		c0.401-0.205,0.709-0.485,0.924-0.84L100.833,15.917z M100.189,13.354c0-0.29-0.059-0.56-0.175-0.812
		c-0.117-0.252-0.275-0.474-0.476-0.665s-0.439-0.343-0.714-0.455c-0.276-0.112-0.567-0.168-0.875-0.168
		c-0.458,0-0.838,0.093-1.141,0.28c-0.304,0.187-0.544,0.401-0.721,0.644s-0.303,0.479-0.378,0.707
		c-0.075,0.229-0.112,0.385-0.112,0.469H100.189z"/>
	<path fill="#243C5E" d="M102.835,8.104c0-0.177,0.061-0.327,0.182-0.448c0.121-0.121,0.271-0.182,0.448-0.182
		c0.177,0,0.327,0.061,0.448,0.182c0.121,0.122,0.182,0.271,0.182,0.448s-0.061,0.327-0.182,0.448
		c-0.121,0.122-0.271,0.182-0.448,0.182c-0.178,0-0.327-0.061-0.448-0.182C102.896,8.431,102.835,8.282,102.835,8.104z
		 M103.045,10.667h0.84v6.468h-0.84V10.667z"/>
	<path fill="#243C5E" d="M106.405,6.55h0.84v10.584h-0.84V6.55z"/>
	<path fill="#243C5E" d="M112.887,6.718l0.728,0.252l-4.242,10.668l-0.742-0.252L112.887,6.718z"/>
	<path fill="#243C5E" d="M119.831,14.418c0,0.317,0.002,0.602,0.007,0.854s0.012,0.485,0.021,0.7
		c0.009,0.215,0.021,0.416,0.035,0.602c0.014,0.187,0.035,0.374,0.063,0.56h-0.784c-0.056-0.317-0.084-0.667-0.084-1.05h-0.028
		c-0.243,0.42-0.544,0.728-0.903,0.924c-0.359,0.196-0.814,0.294-1.365,0.294c-0.28,0-0.555-0.035-0.826-0.105
		c-0.271-0.07-0.514-0.182-0.728-0.336c-0.215-0.154-0.39-0.352-0.525-0.595c-0.135-0.242-0.203-0.537-0.203-0.882
		c0-0.495,0.126-0.887,0.378-1.176c0.252-0.29,0.562-0.506,0.931-0.651c0.369-0.145,0.761-0.238,1.176-0.28
		c0.415-0.042,0.782-0.063,1.099-0.063h0.98v-0.392c0-0.56-0.173-0.961-0.518-1.204c-0.346-0.243-0.779-0.364-1.302-0.364
		c-0.747,0-1.405,0.243-1.974,0.728l-0.49-0.574c0.308-0.298,0.69-0.525,1.148-0.679c0.458-0.154,0.896-0.231,1.316-0.231
		c0.784,0,1.409,0.185,1.876,0.553s0.7,0.964,0.7,1.785V14.418z M118.151,13.886c-0.354,0-0.698,0.023-1.029,0.07
		c-0.332,0.047-0.63,0.126-0.896,0.238s-0.479,0.261-0.637,0.448c-0.159,0.187-0.238,0.42-0.238,0.7
		c0,0.196,0.044,0.371,0.133,0.525c0.089,0.154,0.203,0.28,0.343,0.378c0.14,0.098,0.296,0.173,0.469,0.224s0.348,0.077,0.525,0.077
		c0.448,0,0.816-0.065,1.106-0.196c0.289-0.13,0.52-0.301,0.693-0.511c0.172-0.21,0.292-0.448,0.357-0.714
		c0.065-0.266,0.098-0.534,0.098-0.805v-0.434H118.151z"/>
	<path fill="#243C5E" d="M122.071,12.486c0-0.121-0.005-0.268-0.014-0.441s-0.017-0.348-0.021-0.525
		c-0.005-0.177-0.012-0.343-0.021-0.497c-0.009-0.154-0.014-0.273-0.014-0.357h0.84c0.009,0.243,0.016,0.476,0.021,0.7
		c0.004,0.224,0.016,0.369,0.035,0.434h0.042c0.168-0.354,0.448-0.66,0.84-0.917s0.849-0.385,1.372-0.385
		c0.504,0,0.915,0.08,1.232,0.238c0.317,0.159,0.567,0.366,0.749,0.623c0.182,0.257,0.308,0.553,0.378,0.889
		c0.07,0.336,0.105,0.682,0.105,1.036v3.85h-0.84v-3.808c0-0.261-0.023-0.516-0.07-0.763c-0.047-0.248-0.128-0.469-0.245-0.665
		c-0.117-0.196-0.28-0.353-0.49-0.469s-0.483-0.175-0.819-0.175c-0.308,0-0.6,0.054-0.875,0.161
		c-0.275,0.107-0.514,0.271-0.714,0.49s-0.359,0.495-0.476,0.826c-0.117,0.331-0.175,0.721-0.175,1.169v3.234h-0.84V12.486z"/>
	<path fill="#243C5E" d="M135.848,7.334c-0.308,0.383-0.574,0.81-0.798,1.281c-0.224,0.472-0.413,0.959-0.567,1.463
		c-0.154,0.504-0.269,1.013-0.343,1.526c-0.075,0.513-0.112,1.013-0.112,1.498c0,1.092,0.159,2.105,0.476,3.038
		c0.317,0.934,0.765,1.853,1.344,2.758l-0.658,0.419c-0.327-0.447-0.614-0.925-0.861-1.434c-0.248-0.509-0.455-1.029-0.623-1.561
		s-0.296-1.068-0.385-1.61s-0.133-1.078-0.133-1.61c0-1.11,0.17-2.207,0.511-3.29c0.34-1.083,0.819-2.058,1.435-2.926L135.848,7.334
		z"/>
	<path fill="#243C5E" d="M137.136,6.55h0.84v7.056l3.192-2.926h1.232l-3.332,2.954l3.724,3.5h-1.274l-3.542-3.416v3.416h-0.84V6.55z
		"/>
	<path fill="#243C5E" d="M142.819,7.222h0.952L146.235,16h0.028l2.506-8.778h1.176L152.452,16h0.028l2.464-8.778h0.952l-2.884,9.912
		h-1.134l-2.506-8.82h-0.028l-2.506,8.82h-1.134L142.819,7.222z"/>
	<path fill="#243C5E" d="M157.085,6.55h0.84v5.25h0.028c0.168-0.354,0.448-0.66,0.84-0.917s0.849-0.385,1.372-0.385
		c0.504,0,0.915,0.08,1.232,0.238c0.317,0.159,0.567,0.366,0.749,0.623c0.182,0.257,0.308,0.553,0.378,0.889
		c0.07,0.336,0.105,0.682,0.105,1.036v3.85h-0.84v-3.808c0-0.261-0.023-0.516-0.07-0.763c-0.047-0.248-0.128-0.469-0.245-0.665
		c-0.117-0.196-0.28-0.353-0.49-0.469s-0.483-0.175-0.819-0.175c-0.308,0-0.6,0.054-0.875,0.161
		c-0.275,0.107-0.514,0.271-0.714,0.49s-0.359,0.495-0.476,0.826c-0.117,0.331-0.175,0.721-0.175,1.169v3.234h-0.84V6.55z"/>
	<path fill="#243C5E" d="M163.917,18.87c0.308-0.383,0.574-0.807,0.798-1.274c0.224-0.466,0.413-0.952,0.567-1.456
		c0.154-0.504,0.268-1.015,0.343-1.533s0.112-1.02,0.112-1.505c0-0.541-0.042-1.064-0.126-1.568s-0.203-0.994-0.357-1.47
		c-0.154-0.476-0.343-0.94-0.567-1.393s-0.481-0.908-0.77-1.365l0.658-0.42c0.327,0.448,0.613,0.926,0.861,1.435
		c0.247,0.509,0.455,1.029,0.623,1.561c0.168,0.532,0.296,1.069,0.385,1.61c0.089,0.542,0.133,1.078,0.133,1.61
		c0,1.111-0.17,2.208-0.511,3.29c-0.341,1.083-0.819,2.058-1.435,2.925L163.917,18.87z"/>
	<path fill="#243C5E" d="M235.152,15.58c-0.476,0.644-1.027,1.106-1.652,1.386c-0.625,0.28-1.302,0.42-2.03,0.42
		c-0.756,0-1.449-0.128-2.079-0.385c-0.63-0.257-1.169-0.616-1.617-1.078c-0.448-0.462-0.798-1.013-1.05-1.652
		c-0.252-0.639-0.378-1.337-0.378-2.093s0.126-1.451,0.378-2.086c0.252-0.635,0.602-1.183,1.05-1.645
		c0.448-0.462,0.987-0.824,1.617-1.085c0.63-0.261,1.323-0.392,2.079-0.392c0.672,0,1.3,0.119,1.883,0.357
		c0.583,0.238,1.094,0.637,1.533,1.197l-0.756,0.63c-0.308-0.467-0.703-0.807-1.183-1.022c-0.481-0.215-0.973-0.322-1.477-0.322
		c-0.644,0-1.225,0.112-1.743,0.336c-0.518,0.224-0.959,0.532-1.323,0.924c-0.364,0.392-0.644,0.854-0.84,1.386
		c-0.196,0.532-0.294,1.106-0.294,1.722c0,0.616,0.098,1.19,0.294,1.722c0.196,0.532,0.476,0.994,0.84,1.386
		c0.364,0.392,0.805,0.7,1.323,0.924c0.518,0.224,1.099,0.336,1.743,0.336c0.252,0,0.513-0.03,0.784-0.091
		c0.271-0.061,0.534-0.154,0.791-0.28c0.256-0.126,0.501-0.285,0.735-0.476c0.233-0.191,0.438-0.422,0.616-0.693L235.152,15.58z"/>
	<path fill="#243C5E" d="M236.244,13.9c0-0.495,0.084-0.95,0.252-1.365c0.168-0.415,0.401-0.774,0.7-1.078s0.658-0.539,1.078-0.707
		s0.877-0.252,1.372-0.252c0.495,0,0.949,0.084,1.365,0.252c0.415,0.168,0.774,0.404,1.078,0.707
		c0.303,0.303,0.539,0.663,0.707,1.078c0.168,0.416,0.252,0.871,0.252,1.365s-0.084,0.95-0.252,1.365
		c-0.168,0.416-0.404,0.775-0.707,1.078c-0.304,0.303-0.663,0.539-1.078,0.707c-0.416,0.168-0.87,0.252-1.365,0.252
		c-0.495,0-0.952-0.084-1.372-0.252s-0.779-0.404-1.078-0.707s-0.532-0.663-0.7-1.078C236.328,14.85,236.244,14.395,236.244,13.9z
		 M237.084,13.9c0,0.364,0.058,0.707,0.175,1.029c0.117,0.322,0.287,0.602,0.511,0.84c0.224,0.238,0.494,0.427,0.812,0.567
		c0.317,0.14,0.672,0.21,1.064,0.21c0.392,0,0.747-0.07,1.064-0.21c0.317-0.14,0.588-0.329,0.812-0.567
		c0.224-0.238,0.394-0.518,0.511-0.84c0.117-0.322,0.175-0.665,0.175-1.029c0-0.364-0.059-0.707-0.175-1.029
		c-0.117-0.322-0.287-0.602-0.511-0.84c-0.224-0.238-0.495-0.427-0.812-0.567c-0.317-0.14-0.672-0.21-1.064-0.21
		c-0.392,0-0.747,0.07-1.064,0.21c-0.318,0.14-0.588,0.329-0.812,0.567c-0.224,0.238-0.395,0.518-0.511,0.84
		C237.142,13.193,237.084,13.536,237.084,13.9z"/>
	<path fill="#243C5E" d="M244.924,12.486c0-0.121-0.005-0.268-0.014-0.441s-0.017-0.348-0.021-0.525
		c-0.005-0.177-0.012-0.343-0.021-0.497c-0.009-0.154-0.014-0.273-0.014-0.357h0.84c0.009,0.243,0.016,0.476,0.021,0.7
		c0.004,0.224,0.016,0.369,0.035,0.434h0.042c0.168-0.354,0.448-0.66,0.84-0.917s0.849-0.385,1.372-0.385
		c0.504,0,0.915,0.08,1.232,0.238c0.317,0.159,0.567,0.366,0.749,0.623c0.182,0.257,0.308,0.553,0.378,0.889
		c0.07,0.336,0.105,0.682,0.105,1.036v3.85h-0.84v-3.808c0-0.261-0.023-0.516-0.07-0.763c-0.047-0.248-0.128-0.469-0.245-0.665
		c-0.117-0.196-0.28-0.353-0.49-0.469s-0.483-0.175-0.819-0.175c-0.308,0-0.6,0.054-0.875,0.161
		c-0.275,0.107-0.514,0.271-0.714,0.49s-0.359,0.495-0.476,0.826c-0.117,0.331-0.175,0.721-0.175,1.169v3.234h-0.84V12.486z"/>
	<path fill="#243C5E" d="M252.722,15.482c0.177,0.345,0.439,0.609,0.784,0.791c0.345,0.182,0.709,0.273,1.092,0.273
		c0.177,0,0.355-0.028,0.532-0.084c0.177-0.056,0.336-0.135,0.476-0.238c0.14-0.103,0.254-0.226,0.343-0.371
		c0.089-0.145,0.133-0.311,0.133-0.497c0-0.299-0.096-0.523-0.287-0.672c-0.191-0.149-0.427-0.266-0.707-0.35
		s-0.588-0.156-0.924-0.217c-0.336-0.061-0.644-0.154-0.924-0.28c-0.28-0.126-0.516-0.301-0.707-0.525
		c-0.191-0.224-0.287-0.542-0.287-0.952c0-0.317,0.065-0.593,0.196-0.826c0.13-0.233,0.301-0.427,0.511-0.581
		c0.21-0.154,0.445-0.268,0.707-0.343s0.527-0.112,0.798-0.112c0.532,0,0.992,0.098,1.379,0.294
		c0.387,0.196,0.688,0.504,0.903,0.924l-0.756,0.448c-0.159-0.298-0.357-0.525-0.595-0.679c-0.238-0.154-0.548-0.231-0.931-0.231
		c-0.149,0-0.306,0.023-0.469,0.07c-0.163,0.047-0.31,0.112-0.441,0.196c-0.131,0.084-0.24,0.191-0.329,0.322
		c-0.089,0.131-0.133,0.28-0.133,0.448c0,0.29,0.096,0.504,0.287,0.644c0.191,0.14,0.427,0.25,0.707,0.329
		c0.28,0.08,0.588,0.147,0.924,0.203s0.644,0.147,0.924,0.273c0.28,0.126,0.516,0.308,0.707,0.546
		c0.191,0.238,0.287,0.577,0.287,1.015c0,0.336-0.063,0.628-0.189,0.875c-0.126,0.248-0.299,0.455-0.518,0.623
		s-0.469,0.294-0.749,0.378c-0.28,0.084-0.574,0.126-0.882,0.126c-0.56,0-1.071-0.107-1.533-0.322
		c-0.462-0.215-0.819-0.546-1.071-0.994L252.722,15.482z"/>
	<path fill="#243C5E" d="M258.308,13.9c0-0.495,0.084-0.95,0.252-1.365c0.168-0.415,0.401-0.774,0.7-1.078s0.658-0.539,1.078-0.707
		s0.877-0.252,1.372-0.252c0.495,0,0.949,0.084,1.365,0.252c0.415,0.168,0.774,0.404,1.078,0.707
		c0.303,0.303,0.539,0.663,0.707,1.078c0.168,0.416,0.252,0.871,0.252,1.365s-0.084,0.95-0.252,1.365
		c-0.168,0.416-0.404,0.775-0.707,1.078c-0.304,0.303-0.663,0.539-1.078,0.707c-0.416,0.168-0.87,0.252-1.365,0.252
		c-0.495,0-0.952-0.084-1.372-0.252s-0.779-0.404-1.078-0.707s-0.532-0.663-0.7-1.078C258.392,14.85,258.308,14.395,258.308,13.9z
		 M259.148,13.9c0,0.364,0.058,0.707,0.175,1.029c0.117,0.322,0.287,0.602,0.511,0.84c0.224,0.238,0.494,0.427,0.812,0.567
		c0.317,0.14,0.672,0.21,1.064,0.21c0.392,0,0.747-0.07,1.064-0.21c0.317-0.14,0.588-0.329,0.812-0.567
		c0.224-0.238,0.394-0.518,0.511-0.84c0.117-0.322,0.175-0.665,0.175-1.029c0-0.364-0.059-0.707-0.175-1.029
		c-0.117-0.322-0.287-0.602-0.511-0.84c-0.224-0.238-0.495-0.427-0.812-0.567c-0.317-0.14-0.672-0.21-1.064-0.21
		c-0.392,0-0.747,0.07-1.064,0.21c-0.318,0.14-0.588,0.329-0.812,0.567c-0.224,0.238-0.395,0.518-0.511,0.84
		C259.206,13.193,259.148,13.536,259.148,13.9z"/>
	<path fill="#243C5E" d="M267.016,16.546c0-0.187,0.064-0.345,0.195-0.476s0.289-0.196,0.477-0.196c0.187,0,0.345,0.065,0.476,0.196
		s0.196,0.29,0.196,0.476s-0.065,0.345-0.196,0.476c-0.131,0.13-0.289,0.196-0.476,0.196c-0.188,0-0.346-0.065-0.477-0.196
		C267.081,16.892,267.016,16.733,267.016,16.546z"/>
	<path fill="#243C5E" d="M274.281,15.482c0.178,0.345,0.438,0.609,0.784,0.791c0.346,0.182,0.709,0.273,1.092,0.273
		c0.178,0,0.354-0.028,0.532-0.084c0.177-0.056,0.336-0.135,0.476-0.238c0.141-0.103,0.255-0.226,0.344-0.371
		c0.088-0.145,0.133-0.311,0.133-0.497c0-0.299-0.096-0.523-0.287-0.672c-0.191-0.149-0.427-0.266-0.707-0.35
		s-0.588-0.156-0.924-0.217c-0.336-0.061-0.645-0.154-0.924-0.28c-0.28-0.126-0.517-0.301-0.707-0.525
		c-0.191-0.224-0.287-0.542-0.287-0.952c0-0.317,0.065-0.593,0.195-0.826c0.131-0.233,0.302-0.427,0.512-0.581
		c0.21-0.154,0.445-0.268,0.707-0.343c0.261-0.075,0.527-0.112,0.798-0.112c0.532,0,0.991,0.098,1.379,0.294
		c0.387,0.196,0.688,0.504,0.903,0.924l-0.756,0.448c-0.159-0.298-0.357-0.525-0.596-0.679c-0.237-0.154-0.548-0.231-0.931-0.231
		c-0.149,0-0.306,0.023-0.469,0.07c-0.164,0.047-0.311,0.112-0.441,0.196c-0.131,0.084-0.24,0.191-0.329,0.322
		c-0.089,0.131-0.133,0.28-0.133,0.448c0,0.29,0.096,0.504,0.287,0.644c0.191,0.14,0.427,0.25,0.707,0.329
		c0.28,0.08,0.588,0.147,0.924,0.203s0.644,0.147,0.924,0.273s0.516,0.308,0.707,0.546c0.191,0.238,0.287,0.577,0.287,1.015
		c0,0.336-0.062,0.628-0.189,0.875c-0.126,0.248-0.299,0.455-0.518,0.623c-0.22,0.168-0.469,0.294-0.749,0.378
		s-0.574,0.126-0.882,0.126c-0.561,0-1.071-0.107-1.533-0.322c-0.462-0.215-0.819-0.546-1.071-0.994L274.281,15.482z"/>
	<path fill="#243C5E" d="M285.943,15.917c-0.327,0.495-0.73,0.849-1.211,1.064c-0.48,0.214-1.011,0.322-1.589,0.322
		c-0.495,0-0.943-0.084-1.344-0.252c-0.402-0.168-0.747-0.404-1.036-0.707c-0.29-0.303-0.512-0.663-0.665-1.078
		c-0.154-0.415-0.231-0.875-0.231-1.379c0-0.485,0.079-0.933,0.238-1.344c0.158-0.411,0.383-0.768,0.672-1.071
		c0.289-0.303,0.63-0.541,1.022-0.714c0.392-0.173,0.825-0.259,1.302-0.259c0.494,0,0.931,0.086,1.309,0.259
		s0.695,0.401,0.952,0.686s0.45,0.609,0.581,0.973c0.131,0.364,0.196,0.732,0.196,1.106v0.588h-5.433
		c0,0.177,0.035,0.404,0.105,0.679c0.07,0.275,0.198,0.544,0.385,0.805s0.437,0.485,0.749,0.672c0.312,0.187,0.716,0.28,1.211,0.28
		c0.43,0,0.845-0.103,1.246-0.308c0.401-0.205,0.709-0.485,0.924-0.84L285.943,15.917z M285.299,13.354
		c0-0.29-0.059-0.56-0.176-0.812c-0.116-0.252-0.275-0.474-0.476-0.665c-0.201-0.191-0.438-0.343-0.714-0.455
		c-0.275-0.112-0.567-0.168-0.875-0.168c-0.458,0-0.838,0.093-1.142,0.28c-0.303,0.187-0.543,0.401-0.721,0.644
		s-0.304,0.479-0.378,0.707c-0.075,0.229-0.112,0.385-0.112,0.469H285.299z"/>
	<path fill="#243C5E" d="M288.155,6.55h0.84v10.584h-0.84V6.55z"/>
	<path fill="#243C5E" d="M291.011,13.9c0-0.495,0.084-0.95,0.252-1.365c0.168-0.415,0.401-0.774,0.7-1.078s0.658-0.539,1.078-0.707
		s0.877-0.252,1.372-0.252c0.494,0,0.949,0.084,1.365,0.252c0.415,0.168,0.774,0.404,1.077,0.707
		c0.304,0.303,0.539,0.663,0.707,1.078c0.168,0.416,0.252,0.871,0.252,1.365s-0.084,0.95-0.252,1.365
		c-0.168,0.416-0.403,0.775-0.707,1.078c-0.303,0.303-0.662,0.539-1.077,0.707c-0.416,0.168-0.871,0.252-1.365,0.252
		c-0.495,0-0.952-0.084-1.372-0.252s-0.779-0.404-1.078-0.707s-0.532-0.663-0.7-1.078C291.095,14.85,291.011,14.395,291.011,13.9z
		 M291.851,13.9c0,0.364,0.059,0.707,0.176,1.029c0.116,0.322,0.286,0.602,0.511,0.84c0.224,0.238,0.494,0.427,0.812,0.567
		c0.317,0.14,0.672,0.21,1.064,0.21c0.392,0,0.746-0.07,1.063-0.21c0.317-0.14,0.588-0.329,0.812-0.567
		c0.224-0.238,0.394-0.518,0.511-0.84c0.116-0.322,0.175-0.665,0.175-1.029c0-0.364-0.059-0.707-0.175-1.029
		c-0.117-0.322-0.287-0.602-0.511-0.84c-0.225-0.238-0.495-0.427-0.812-0.567s-0.672-0.21-1.063-0.21
		c-0.393,0-0.747,0.07-1.064,0.21s-0.588,0.329-0.812,0.567c-0.225,0.238-0.395,0.518-0.511,0.84
		C291.91,13.193,291.851,13.536,291.851,13.9z"/>
	<path fill="#243C5E" d="M299.692,12.486c0-0.121-0.005-0.268-0.014-0.441c-0.01-0.173-0.017-0.348-0.021-0.525
		s-0.012-0.343-0.021-0.497c-0.01-0.154-0.015-0.273-0.015-0.357h0.84c0.01,0.243,0.017,0.476,0.021,0.7s0.016,0.369,0.035,0.434
		h0.042c0.168-0.354,0.447-0.66,0.84-0.917c0.392-0.257,0.849-0.385,1.372-0.385c0.504,0,0.914,0.08,1.231,0.238
		s0.567,0.366,0.749,0.623c0.183,0.257,0.309,0.553,0.378,0.889c0.07,0.336,0.105,0.682,0.105,1.036v3.85h-0.84v-3.808
		c0-0.261-0.023-0.516-0.07-0.763c-0.047-0.248-0.128-0.469-0.245-0.665c-0.116-0.196-0.28-0.353-0.49-0.469
		s-0.482-0.175-0.818-0.175c-0.309,0-0.6,0.054-0.875,0.161c-0.275,0.107-0.514,0.271-0.714,0.49
		c-0.201,0.219-0.359,0.495-0.477,0.826c-0.116,0.331-0.175,0.721-0.175,1.169v3.234h-0.84V12.486z"/>
	<path fill="#243C5E" d="M310.934,10.667h0.84V11.8h0.027c0.131-0.224,0.294-0.417,0.49-0.581c0.196-0.163,0.408-0.298,0.637-0.406
		s0.47-0.187,0.722-0.238s0.499-0.077,0.742-0.077c0.494,0,0.949,0.084,1.364,0.252s0.774,0.404,1.078,0.707
		s0.539,0.663,0.707,1.078c0.168,0.416,0.252,0.871,0.252,1.365s-0.084,0.95-0.252,1.365c-0.168,0.416-0.403,0.775-0.707,1.078
		s-0.663,0.539-1.078,0.707s-0.87,0.252-1.364,0.252c-0.243,0-0.49-0.026-0.742-0.077s-0.493-0.13-0.722-0.238
		s-0.44-0.243-0.637-0.406c-0.196-0.163-0.359-0.357-0.49-0.581h-0.027v4.327h-0.84V10.667z M311.69,13.9
		c0,0.364,0.069,0.707,0.21,1.029c0.14,0.322,0.331,0.602,0.573,0.84c0.243,0.238,0.527,0.427,0.854,0.567
		c0.326,0.14,0.682,0.21,1.064,0.21c0.392,0,0.746-0.07,1.063-0.21c0.317-0.14,0.588-0.329,0.812-0.567
		c0.224-0.238,0.394-0.518,0.511-0.84c0.116-0.322,0.175-0.665,0.175-1.029c0-0.364-0.059-0.707-0.175-1.029
		c-0.117-0.322-0.287-0.602-0.511-0.84c-0.225-0.238-0.495-0.427-0.812-0.567s-0.672-0.21-1.063-0.21
		c-0.383,0-0.738,0.07-1.064,0.21c-0.327,0.14-0.611,0.329-0.854,0.567c-0.242,0.238-0.434,0.518-0.573,0.84
		C311.759,13.193,311.69,13.536,311.69,13.9z"/>
	<path fill="#243C5E" d="M325.381,15.917c-0.326,0.495-0.73,0.849-1.211,1.064c-0.48,0.214-1.01,0.322-1.588,0.322
		c-0.495,0-0.943-0.084-1.344-0.252c-0.402-0.168-0.747-0.404-1.036-0.707c-0.29-0.303-0.512-0.663-0.665-1.078
		c-0.154-0.415-0.231-0.875-0.231-1.379c0-0.485,0.079-0.933,0.238-1.344c0.158-0.411,0.383-0.768,0.672-1.071
		c0.289-0.303,0.63-0.541,1.022-0.714c0.392-0.173,0.825-0.259,1.302-0.259c0.494,0,0.931,0.086,1.309,0.259
		c0.378,0.173,0.695,0.401,0.953,0.686c0.256,0.285,0.449,0.609,0.58,0.973c0.131,0.364,0.197,0.732,0.197,1.106v0.588h-5.433
		c0,0.177,0.035,0.404,0.105,0.679c0.07,0.275,0.198,0.544,0.385,0.805s0.437,0.485,0.749,0.672c0.312,0.187,0.716,0.28,1.211,0.28
		c0.43,0,0.845-0.103,1.246-0.308c0.401-0.205,0.709-0.485,0.924-0.84L325.381,15.917z M324.738,13.354
		c0-0.29-0.059-0.56-0.176-0.812c-0.117-0.252-0.275-0.474-0.477-0.665c-0.201-0.191-0.438-0.343-0.713-0.455
		c-0.275-0.112-0.567-0.168-0.875-0.168c-0.458,0-0.838,0.093-1.142,0.28c-0.303,0.187-0.543,0.401-0.721,0.644
		s-0.304,0.479-0.378,0.707c-0.075,0.229-0.112,0.385-0.112,0.469H324.738z M323.085,7.222h1.12l-1.875,2.016h-0.7L323.085,7.222z"
		/>
	<path fill="#243C5E" d="M327.453,12.486c0-0.121-0.004-0.268-0.014-0.441s-0.016-0.348-0.021-0.525
		c-0.004-0.177-0.012-0.343-0.02-0.497c-0.01-0.154-0.016-0.273-0.016-0.357h0.84c0.01,0.243,0.018,0.476,0.021,0.7
		c0.006,0.224,0.016,0.369,0.035,0.434c0.215-0.383,0.49-0.695,0.826-0.938s0.746-0.364,1.232-0.364
		c0.084,0,0.166,0.007,0.244,0.021c0.08,0.014,0.162,0.031,0.246,0.049l-0.098,0.826c-0.113-0.037-0.221-0.056-0.322-0.056
		c-0.365,0-0.68,0.058-0.945,0.175s-0.486,0.278-0.658,0.483c-0.174,0.206-0.301,0.446-0.385,0.721s-0.127,0.572-0.127,0.889v3.528
		h-0.84V12.486z"/>
	<path fill="#243C5E" d="M332.045,8.104c0-0.177,0.061-0.327,0.184-0.448c0.121-0.121,0.27-0.182,0.447-0.182
		s0.326,0.061,0.447,0.182c0.121,0.122,0.182,0.271,0.182,0.448s-0.061,0.327-0.182,0.448c-0.121,0.122-0.27,0.182-0.447,0.182
		s-0.326-0.061-0.447-0.182C332.105,8.431,332.045,8.282,332.045,8.104z M332.256,10.667h0.84v6.468h-0.84V10.667z"/>
	<path fill="#243C5E" d="M335.111,13.9c0-0.495,0.084-0.95,0.252-1.365c0.168-0.415,0.4-0.774,0.699-1.078s0.658-0.539,1.078-0.707
		s0.877-0.252,1.373-0.252c0.494,0,0.949,0.084,1.365,0.252c0.414,0.168,0.773,0.404,1.076,0.707
		c0.305,0.303,0.539,0.663,0.707,1.078c0.168,0.416,0.252,0.871,0.252,1.365s-0.084,0.95-0.252,1.365
		c-0.168,0.416-0.402,0.775-0.707,1.078c-0.303,0.303-0.662,0.539-1.076,0.707c-0.416,0.168-0.871,0.252-1.365,0.252
		c-0.496,0-0.953-0.084-1.373-0.252s-0.779-0.404-1.078-0.707s-0.531-0.663-0.699-1.078C335.195,14.85,335.111,14.395,335.111,13.9z
		 M335.951,13.9c0,0.364,0.059,0.707,0.176,1.029c0.115,0.322,0.285,0.602,0.51,0.84c0.225,0.238,0.494,0.427,0.812,0.567
		c0.316,0.14,0.672,0.21,1.064,0.21c0.391,0,0.746-0.07,1.062-0.21c0.318-0.14,0.588-0.329,0.812-0.567
		c0.225-0.238,0.395-0.518,0.512-0.84c0.115-0.322,0.174-0.665,0.174-1.029c0-0.364-0.059-0.707-0.174-1.029
		c-0.117-0.322-0.287-0.602-0.512-0.84s-0.494-0.427-0.812-0.567c-0.316-0.14-0.672-0.21-1.062-0.21c-0.393,0-0.748,0.07-1.064,0.21
		c-0.318,0.14-0.588,0.329-0.812,0.567s-0.395,0.518-0.51,0.84C336.01,13.193,335.951,13.536,335.951,13.9z"/>
	<path fill="#243C5E" d="M349.447,16h-0.027c-0.131,0.224-0.295,0.417-0.49,0.581c-0.197,0.164-0.408,0.299-0.637,0.406
		s-0.469,0.187-0.721,0.238s-0.5,0.077-0.742,0.077c-0.496,0-0.953-0.084-1.373-0.252s-0.779-0.404-1.078-0.707
		s-0.531-0.663-0.699-1.078c-0.168-0.415-0.252-0.87-0.252-1.365s0.084-0.95,0.252-1.365c0.168-0.415,0.4-0.774,0.699-1.078
		s0.658-0.539,1.078-0.707s0.877-0.252,1.373-0.252c0.242,0,0.49,0.026,0.742,0.077s0.492,0.131,0.721,0.238
		s0.439,0.243,0.637,0.406c0.195,0.164,0.359,0.357,0.49,0.581h0.027V6.55h0.84v10.584h-0.84V16z M349.531,13.9
		c0-0.364-0.07-0.707-0.209-1.029c-0.141-0.322-0.332-0.602-0.574-0.84c-0.244-0.238-0.527-0.427-0.855-0.567
		c-0.326-0.14-0.68-0.21-1.062-0.21c-0.393,0-0.748,0.07-1.064,0.21c-0.318,0.14-0.588,0.329-0.812,0.567s-0.395,0.518-0.51,0.84
		c-0.117,0.322-0.176,0.665-0.176,1.029c0,0.364,0.059,0.707,0.176,1.029c0.115,0.322,0.285,0.602,0.51,0.84
		c0.225,0.238,0.494,0.427,0.812,0.567c0.316,0.14,0.672,0.21,1.064,0.21c0.383,0,0.736-0.07,1.062-0.21
		c0.328-0.14,0.611-0.329,0.855-0.567c0.242-0.238,0.434-0.518,0.574-0.84C349.461,14.607,349.531,14.264,349.531,13.9z"/>
	<path fill="#243C5E" d="M358.057,15.917c-0.326,0.495-0.73,0.849-1.211,1.064c-0.48,0.214-1.01,0.322-1.588,0.322
		c-0.496,0-0.943-0.084-1.344-0.252c-0.402-0.168-0.748-0.404-1.037-0.707s-0.512-0.663-0.664-1.078
		c-0.154-0.415-0.232-0.875-0.232-1.379c0-0.485,0.08-0.933,0.238-1.344s0.383-0.768,0.672-1.071
		c0.289-0.303,0.631-0.541,1.023-0.714c0.391-0.173,0.824-0.259,1.301-0.259c0.494,0,0.932,0.086,1.309,0.259
		c0.379,0.173,0.695,0.401,0.953,0.686c0.256,0.285,0.449,0.609,0.58,0.973c0.131,0.364,0.197,0.732,0.197,1.106v0.588h-5.434
		c0,0.177,0.035,0.404,0.105,0.679c0.07,0.275,0.199,0.544,0.385,0.805c0.188,0.261,0.438,0.485,0.75,0.672
		c0.312,0.187,0.715,0.28,1.211,0.28c0.43,0,0.844-0.103,1.246-0.308c0.4-0.205,0.709-0.485,0.924-0.84L358.057,15.917z
		 M357.414,13.354c0-0.29-0.059-0.56-0.176-0.812c-0.117-0.252-0.275-0.474-0.477-0.665s-0.438-0.343-0.713-0.455
		c-0.275-0.112-0.568-0.168-0.875-0.168c-0.459,0-0.838,0.093-1.143,0.28c-0.303,0.187-0.543,0.401-0.721,0.644
		s-0.303,0.479-0.377,0.707c-0.076,0.229-0.113,0.385-0.113,0.469H357.414z"/>
</g>
</svg>
