<?xml version="1.0" encoding="utf-8"?>
<!-- Generator: Adobe Illustrator 16.0.0, SVG Export Plug-In . SVG Version: 6.00 Build 0)  -->
<!DOCTYPE svg PUBLIC "-//W3C//DTD SVG 1.1//EN" "http://www.w3.org/Graphics/SVG/1.1/DTD/svg11.dtd">
<svg version="1.1" id="Calque_1" xmlns="http://www.w3.org/2000/svg" xmlns:xlink="http://www.w3.org/1999/xlink" x="0px" y="0px"
	 width="100px" height="40.333px" viewBox="0 0 100 40.333" enable-background="new 0 0 100 40.333" xml:space="preserve">
<g>
	<defs>
		<path id="SVGID_1_" d="M20.706,32.757c-3.098,0-5.978-0.548-8.638-1.646c-3.908-1.61-6.246-3.998-7.015-7.163
			c-0.889-3.656,0.458-7.157,4.041-10.502c1.985-1.854,4.359-3.264,7.09-4.279c1.74-0.609,3.994-1.122,5.338-1.331
			c1.157-0.181,2.376-0.27,3.656-0.27c1.667,0,3.438,0.151,5.314,0.457c3.318,0.538,6.027,1.801,8.312,3.586
			c2.185,1.9,3.182,3.823,4.312,6.495c0.013,0.029,1.031,2.394,2.166,4.43c1.476,2.497,3.152,3.928,6.636,5.184
			c2.787,1.004,5.805,1.507,9.059,1.507c1.768,0,3.604-0.148,5.508-0.444c0.92-0.143,1.822-0.315,2.709-0.515
			c-2.695,1.331-5.627,2.249-8.797,2.743c-1.547,0.24-3.018,0.359-4.436,0.359c-3.025,0-5.791-0.548-8.453-1.646
			c-1.902-0.853-2.816-1.62-4.285-3.17c-2.224-2.732-3.123-5.256-4.205-7.742c-0.795-2.031-2.031-3.842-3.873-5.436
			c-2.1-1.815-4.648-3.017-7.648-3.605c-1.84-0.36-3.562-0.54-5.172-0.54c-1.016,0-1.984,0.071-2.908,0.216
			c-3.561,0.553-6.315,1.81-8.268,3.769c-1.951,1.959-2.607,4.25-1.97,6.873c0.937,3.854,3.438,6.647,7.505,8.38
			c2.958,1.26,5.944,1.892,8.961,1.892c1.13,0,2.266-0.089,3.404-0.267c1.621-0.253,3.557-0.926,5.439-1.801l0.025,0.007
			c-3.18,2.451-5.922,3.572-9.31,4.099C23.656,32.638,22.158,32.757,20.706,32.757"/>
	</defs>
	<linearGradient id="SVGID_2_" gradientUnits="userSpaceOnUse" x1="4.7881" y1="20.1616" x2="69.1929" y2="20.1616">
		<stop  offset="0" style="stop-color:#F6A500"/>
		<stop  offset="1" style="stop-color:#FFFFFF"/>
	</linearGradient>
	<use xlink:href="#SVGID_1_"  overflow="visible" fill="url(#SVGID_2_)"/>
	<clipPath id="SVGID_3_">
		<use xlink:href="#SVGID_1_"  overflow="visible"/>
	</clipPath>
</g>
<g>
	<defs>
		<path id="SVGID_4_" d="M70.595,27.429c0.67-0.439,1.291-0.932,1.857-1.485c2.006-1.975,2.705-4.215,2.094-6.728
			c-0.57-2.354-1.906-4.438-4.006-6.252c-2.1-1.815-4.648-3.017-7.648-3.604c-1.838-0.36-3.562-0.541-5.17-0.541
			c-1.016,0-1.984,0.071-2.908,0.214c-3.244,0.505-6.291,1.808-10.166,5.584c3.781-4.153,8.88-7.167,13.357-7.863
			c1.75-0.271,3.416-0.407,5.004-0.407c1.348,0,2.637,0.098,3.867,0.293c2.68,0.427,5.164,1.358,7.449,2.793
			c2.287,1.436,3.723,3.357,4.311,5.772c0.637,2.624,0.061,5.204-1.73,7.737c-1.084,1.53-2.361,2.868-3.83,4.018
			c-0.66,0.162-1.338,0.308-2.051,0.417C70.882,27.398,70.738,27.41,70.595,27.429"/>
	</defs>
	<linearGradient id="SVGID_5_" gradientUnits="userSpaceOnUse" x1="68.2437" y1="5.9038" x2="58.5723" y2="22.6551">
		<stop  offset="0" style="stop-color:#F6A500"/>
		<stop  offset="1" style="stop-color:#FFFFFF"/>
	</linearGradient>
	<use xlink:href="#SVGID_4_"  overflow="visible" fill="url(#SVGID_5_)"/>
	<clipPath id="SVGID_6_">
		<use xlink:href="#SVGID_4_"  overflow="visible"/>
	</clipPath>
</g>
<path fill="#F6A500" d="M25.469,24.436c-1.593,1.263-2.389,2.754-2.389,4.474c0,1.488,0.638,2.735,1.911,3.739
	c1.274,1.005,2.823,1.507,4.647,1.507c1.273,0,2.492-0.235,3.654-0.708c1.161-0.472,2.178-1.219,3.051-2.24
	c0.873-1.022,1.309-2.149,1.309-3.383c0-1.135-0.352-2.109-1.053-2.92c-0.703-0.811-1.521-1.407-2.455-1.79
	c-0.934-0.382-2.009-0.574-3.225-0.574C28.879,22.54,27.061,23.173,25.469,24.436L25.469,24.436z M32.461,24.065
	c1.036,0.479,1.854,1.202,2.455,2.172c0.601,0.971,0.9,2.008,0.9,3.114c0,1.182-0.45,2.149-1.352,2.901
	c-0.9,0.754-1.978,1.131-3.23,1.131c-1.57,0-3.017-0.536-4.338-1.608c-1.32-1.071-1.981-2.514-1.981-4.326
	c0-1.233,0.44-2.226,1.319-2.976c0.88-0.75,1.989-1.124,3.328-1.124C30.46,23.35,31.426,23.588,32.461,24.065L32.461,24.065z"/>
<path fill="#00497E" d="M44.927,23.271c0.376-0.121,0.688-0.182,0.934-0.182c0.472,0,0.706,0.246,0.706,0.737v2.338
	c-0.434-0.157-0.836-0.273-1.205-0.348c-0.369-0.075-0.706-0.112-1.01-0.112c-1.36,0-2.602,0.54-3.725,1.619
	c-1.122,1.08-1.683,2.229-1.683,3.445c0,0.886,0.288,1.672,0.868,2.357c0.58,0.688,1.343,1.029,2.291,1.029
	c0.564,0,1.139-0.15,1.722-0.451c0.582-0.301,1.496-1.089,2.741-2.363v2.814h0.514l2.787-0.868v-0.442
	c-0.342,0.126-0.631,0.19-0.863,0.19c-0.518,0-0.775-0.237-0.775-0.713v-9.729c0-0.295,0.154-0.493,0.466-0.592v-0.354l-3.768,1.146
	V23.271L44.927,23.271z M46.686,28.371c0,1.03-0.357,2.061-1.074,3.093c-0.717,1.03-1.567,1.545-2.552,1.545
	c-0.695,0-1.282-0.284-1.759-0.855c-0.479-0.57-0.717-1.264-0.717-2.08c0-0.978,0.279-1.849,0.841-2.611
	c0.562-0.76,1.302-1.143,2.221-1.143c0.464,0,0.938,0.084,1.423,0.25c0.485,0.164,0.98,0.414,1.487,0.75
	C46.643,27.627,46.686,27.977,46.686,28.371L46.686,28.371L46.686,28.371z"/>
<path fill="#00497E" d="M49.738,26.363c0.457,0.007,0.828,0.131,1.119,0.375c0.289,0.242,0.594,0.682,0.912,1.318l2.959,5.894
	l-0.172,0.357c-0.324,0.686-0.566,1.153-0.727,1.405c-0.158,0.252-0.395,0.473-0.705,0.657c-0.311,0.186-0.652,0.278-1.02,0.278
	c-0.703,0-1.34-0.283-1.912-0.851l-0.586,0.374l1.76,1.658c1.584-0.11,2.662-0.759,3.234-1.946l3.725-7.73
	c0.389-0.735,0.709-1.212,0.959-1.43c0.252-0.217,0.609-0.337,1.072-0.36v-0.416H55.83v0.416c0.549,0,0.945,0.075,1.188,0.227
	s0.365,0.402,0.367,0.756c0,0.672-0.238,1.517-0.719,2.536l-1.072,2.252l-2.686-5.344c-0.043-0.075-0.064-0.147-0.064-0.218
	c0-0.128,0.137-0.196,0.412-0.209v-0.416h-3.518V26.363L49.738,26.363z M61.074,31.229v2.406c1.012,0.347,1.908,0.521,2.682,0.521
	c1.043,0,1.963-0.266,2.764-0.799c0.799-0.532,1.199-1.161,1.199-1.884c0-0.457-0.166-0.826-0.5-1.104
	c-0.332-0.272-1.158-0.741-2.475-1.407c-0.768-0.382-1.277-0.689-1.531-0.922c-0.26-0.225-0.391-0.493-0.391-0.807
	c0-0.278,0.113-0.52,0.342-0.726c0.229-0.204,0.545-0.309,0.949-0.309c0.572,0,1.08,0.194,1.521,0.583s0.666,0.903,0.674,1.546
	h0.781V26.05c-0.762-0.23-1.471-0.346-2.129-0.346c-1.072,0-1.932,0.22-2.578,0.659c-0.648,0.441-0.973,0.942-0.973,1.503
	c0,0.273,0.094,0.539,0.281,0.801c0.182,0.26,0.508,0.516,0.979,0.768c0.471,0.251,0.99,0.522,1.564,0.812
	c0.803,0.406,1.342,0.733,1.617,0.982c0.268,0.255,0.402,0.568,0.402,0.938c0,0.417-0.178,0.762-0.533,1.034
	s-0.811,0.407-1.367,0.407c-0.674,0-1.252-0.208-1.732-0.624c-0.482-0.417-0.752-1.002-0.809-1.755H61.074L61.074,31.229z
	 M69.185,31.229v2.406c1.014,0.347,1.906,0.521,2.682,0.521c1.043,0,1.963-0.266,2.764-0.799c0.799-0.532,1.199-1.161,1.199-1.884
	c0-0.457-0.166-0.826-0.5-1.104c-0.332-0.272-1.158-0.741-2.475-1.407c-0.768-0.382-1.279-0.689-1.531-0.922
	c-0.262-0.225-0.391-0.493-0.391-0.807c0-0.278,0.113-0.52,0.342-0.726c0.227-0.204,0.545-0.309,0.949-0.309
	c0.572,0,1.078,0.194,1.52,0.583c0.443,0.389,0.668,0.903,0.674,1.546h0.781V26.05c-0.76-0.23-1.469-0.346-2.127-0.346
	c-1.072,0-1.932,0.22-2.578,0.659c-0.648,0.441-0.973,0.942-0.973,1.503c0,0.273,0.094,0.539,0.283,0.801
	c0.18,0.26,0.506,0.516,0.977,0.768c0.471,0.251,0.992,0.522,1.564,0.812c0.803,0.406,1.342,0.733,1.617,0.982
	c0.268,0.255,0.4,0.568,0.4,0.938c0,0.417-0.176,0.762-0.531,1.034c-0.354,0.272-0.811,0.407-1.367,0.407
	c-0.674,0-1.252-0.208-1.732-0.624c-0.482-0.417-0.752-1.002-0.809-1.755H69.185L69.185,31.229z M85.697,31.15
	c-1.297,1.198-2.564,1.798-3.809,1.798c-1,0-1.838-0.343-2.52-1.029c-0.68-0.686-1.02-1.543-1.02-2.567
	c0-0.104,0.008-0.27,0.021-0.494h7c-0.037-0.874-0.369-1.616-0.998-2.225c-0.631-0.607-1.479-0.912-2.549-0.912
	c-1.332,0-2.488,0.477-3.471,1.43c-0.98,0.953-1.471,2.021-1.471,3.209c0,1.03,0.414,1.922,1.238,2.671
	c0.824,0.751,1.777,1.125,2.855,1.125c1.533,0,3.107-0.811,4.721-2.432V31.15L85.697,31.15z M78.468,28.423
	c0.115-0.619,0.432-1.134,0.943-1.542c0.516-0.408,1.098-0.612,1.75-0.612c0.621,0,1.162,0.188,1.615,0.564
	c0.457,0.377,0.727,0.906,0.814,1.59H78.468L78.468,28.423z"/>
<path fill="#00497E" d="M85.816,26.363c0.457,0.007,0.83,0.131,1.119,0.375c0.291,0.242,0.594,0.682,0.912,1.318l2.961,5.894
	l-0.174,0.357c-0.324,0.686-0.566,1.153-0.725,1.405c-0.16,0.252-0.395,0.473-0.707,0.657c-0.311,0.186-0.65,0.278-1.02,0.278
	c-0.701,0-1.338-0.283-1.91-0.851l-0.588,0.374l1.76,1.658c1.586-0.11,2.664-0.759,3.234-1.946l3.727-7.73
	c0.387-0.735,0.707-1.212,0.957-1.43c0.252-0.217,0.609-0.337,1.072-0.36v-0.416h-4.527v0.416c0.549,0,0.947,0.075,1.189,0.227
	s0.365,0.402,0.367,0.756c0,0.672-0.24,1.517-0.721,2.536l-1.072,2.252l-2.684-5.344c-0.045-0.075-0.066-0.147-0.066-0.218
	c0-0.128,0.137-0.196,0.412-0.209v-0.416h-3.518V26.363L85.816,26.363z"/>
<path fill="#FFFFFF" d="M9.799,6.206c-1.737,1.376-2.605,3.002-2.605,4.877c0,1.623,0.694,2.982,2.083,4.077
	c1.389,1.094,3.078,1.642,5.066,1.642c1.389,0,2.717-0.256,3.983-0.771s2.376-1.329,3.327-2.443c0.95-1.115,1.426-2.345,1.426-3.688
	c0-1.238-0.383-2.298-1.148-3.182c-0.766-0.885-1.656-1.535-2.676-1.952c-1.018-0.416-2.189-0.624-3.516-0.624
	C13.516,4.142,11.534,4.829,9.799,6.206L9.799,6.206z"/>
<path fill="#F6A500" d="M9.73,6.153c-1.758,1.394-2.637,3.039-2.637,4.938c0,1.644,0.703,3.021,2.109,4.128
	c1.406,1.11,3.117,1.665,5.131,1.665c1.406,0,2.751-0.262,4.033-0.782c1.283-0.52,2.406-1.345,3.369-2.474s1.444-2.373,1.444-3.735
	c0-1.253-0.388-2.326-1.163-3.222s-1.678-1.556-2.709-1.977c-1.031-0.422-2.218-0.633-3.561-0.633
	C13.494,4.062,11.488,4.759,9.73,6.153L9.73,6.153z M17.451,5.745c1.143,0.528,2.045,1.326,2.709,2.397
	c0.663,1.07,0.994,2.216,0.994,3.438c0,1.306-0.496,2.373-1.491,3.203c-0.996,0.832-2.185,1.247-3.567,1.247
	c-1.734,0-3.33-0.592-4.789-1.774c-1.458-1.183-2.188-2.775-2.188-4.776c0-1.361,0.486-2.456,1.457-3.283
	c0.971-0.828,2.195-1.243,3.674-1.243C15.24,4.953,16.309,5.218,17.451,5.745L17.451,5.745z"/>
<path fill="#00497E" d="M29.36,16.769c0.396,0.077,0.772,0.115,1.133,0.115c1.559,0,2.963-0.585,4.214-1.756
	c1.25-1.17,1.875-2.509,1.875-4.018c0-1.074-0.345-1.937-1.035-2.585c-0.692-0.648-1.518-0.973-2.477-0.973
	c-0.727,0-1.448,0.212-2.164,0.635c-0.715,0.422-1.64,1.259-2.775,2.507V7.572h-0.537l-3.07,0.997v0.479
	c0.572-0.167,0.94-0.25,1.107-0.25c0.469,0,0.703,0.241,0.703,0.72v9.178c0,0.546-0.136,0.936-0.406,1.167
	c-0.27,0.232-0.738,0.352-1.404,0.357v0.46h5.466v-0.46c-0.663-0.006-1.139-0.121-1.426-0.342c-0.288-0.224-0.433-0.616-0.433-1.183
	v-2.264C28.555,16.579,28.965,16.692,29.36,16.769L29.36,16.769z M28,14c0-1.398,0.438-2.636,1.312-3.717
	c0.875-1.079,1.832-1.618,2.871-1.618c0.791,0,1.42,0.309,1.888,0.928c0.468,0.621,0.702,1.419,0.702,2.396
	c0,1.252-0.36,2.283-1.08,3.095c-0.719,0.811-1.582,1.216-2.589,1.216c-0.431,0-0.896-0.091-1.39-0.273
	c-0.496-0.182-1.024-0.454-1.584-0.818C28.044,14.702,28,14.3,28,14L28,14L28,14z M47.384,13.565
	c-1.431,1.324-2.833,1.986-4.208,1.986c-1.103,0-2.029-0.379-2.781-1.138c-0.75-0.758-1.127-1.702-1.127-2.834
	c0-0.114,0.009-0.298,0.024-0.547h7.731c-0.039-0.965-0.407-1.782-1.102-2.454c-0.695-0.672-1.635-1.007-2.818-1.007
	c-1.471,0-2.747,0.525-3.829,1.577c-1.083,1.052-1.624,2.232-1.624,3.543c0,1.14,0.455,2.121,1.365,2.949
	c0.912,0.828,1.963,1.242,3.154,1.242c1.693,0,3.432-0.896,5.214-2.685V13.565L47.384,13.565z M39.4,10.554
	c0.127-0.684,0.475-1.251,1.043-1.701c0.566-0.451,1.211-0.677,1.93-0.677c0.688,0,1.283,0.207,1.786,0.623
	c0.503,0.417,0.804,1.001,0.899,1.755H39.4L39.4,10.554z M48.498,9.04c0.492-0.16,0.834-0.241,1.025-0.241
	c0.523,0,0.785,0.317,0.785,0.949v4.9c0,0.563-0.141,0.95-0.422,1.162c-0.283,0.211-0.746,0.321-1.389,0.334v0.461h5.443v-0.461
	c-0.736-0.013-1.246-0.139-1.535-0.378c-0.287-0.239-0.432-0.732-0.432-1.48c0-1.475,0.434-2.78,1.301-3.921
	c0.867-1.14,1.805-1.711,2.811-1.711c0.344,0,0.623,0.102,0.84,0.302c0.215,0.203,0.324,0.47,0.324,0.801v5.919
	c0,0.3-0.168,0.456-0.504,0.469v0.461h4.172v-0.461c-0.641-0.013-1.105-0.122-1.396-0.33c-0.293-0.208-0.438-0.596-0.438-1.166
	V9.624c0-1.388-0.676-2.081-2.025-2.081c-0.664,0-1.367,0.22-2.111,0.659c-0.742,0.438-1.689,1.272-2.84,2.503V7.543h-0.502
	l-3.107,1.018V9.04L48.498,9.04z"/>
</svg>
