<?xml version="1.0" encoding="utf-8"?>
<!-- Generator: Adobe Illustrator 16.0.0, SVG Export Plug-In . SVG Version: 6.00 Build 0)  -->
<!DOCTYPE svg PUBLIC "-//W3C//DTD SVG 1.1//EN" "http://www.w3.org/Graphics/SVG/1.1/DTD/svg11.dtd">
<svg version="1.1" id="Calque_1" xmlns="http://www.w3.org/2000/svg" xmlns:xlink="http://www.w3.org/1999/xlink" x="0px" y="0px"
	 width="1700px" height="800px" viewBox="0 0 1700 800" enable-background="new 0 0 1700 800" xml:space="preserve">
<g id="Prrez">
	<polygon fill="#90DFF8" points="1700,514.851 0,183.368 0,0 1700,0 	"/>
	<polygon fill="#FFF5EB" points="1699.5,735.411 1701.327,477.829 0,63.496 -0.5,565.849 	"/>
	<g>
		<path fill="#27AE60" d="M297.758,137c0,0,7.508,22.521,28.154,45.041c20.645,22.521,45.047,67.565,20.645,97.594
			c-24.4,30.031-31.902,31.907-50.673,31.907C277.115,311.538,297.758,137,297.758,137z"/>
		<path fill="#A8D164" d="M297.758,137c0,0,16.892,63.812,20.647,103.226c3.579,37.551-1.875,69.44-22.522,71.315
			c-20.647,1.877-68.522-25.589-52.551-78.827C254.593,195.18,263.976,197.056,297.758,137z"/>
	</g>
	<g>
		<path fill="#27AE60" d="M204.167,207c0,0,3.037,9.105,11.387,18.217c8.35,9.11,18.22,27.329,8.35,39.473
			c-9.869,12.146-12.903,12.905-20.496,12.905C195.818,277.595,204.167,207,204.167,207z"/>
		<path fill="#A8D164" d="M204.167,207c0,0,6.832,25.809,8.351,41.751c1.447,15.188-0.758,28.086-9.109,28.844
			c-8.351,0.759-27.714-10.35-21.254-31.883C186.708,230.531,190.503,231.291,204.167,207z"/>
	</g>
	<g>
		<polygon fill="#80BFCE" points="441.502,47.061 361.354,27.376 361.354,329.686 441.502,350.777 		"/>
		<polygon fill="#265A75" points="511.109,25.97 441.502,47.061 441.502,350.777 511.109,317.734 		"/>
		<polygon fill="#8FB9D1" points="361.354,27.376 431.665,5.35 511.109,25.97 441.502,47.061 		"/>
		<polygon fill="#AACFE0" points="391.358,29.721 429.792,15.66 481.818,26.909 440.571,41.438 		"/>
		<polygon fill="#80BFCE" points="384.795,28.316 431.665,12.85 431.665,18.474 395.576,31.597 		"/>
		<polygon fill="#6F889B" points="487.438,25.504 431.665,12.85 431.665,18.474 479.003,28.785 		"/>
		<g>
			<polygon fill="#FFFFFF" points="387.724,91.353 377.179,89.244 377.179,111.39 387.724,113.851 			"/>
			<polygon fill="#FFFFFF" points="406.355,95.571 395.81,93.462 395.81,115.608 406.355,118.069 			"/>
			<polygon fill="#FFFFFF" points="423.932,99.438 413.386,97.329 413.386,119.475 423.932,121.936 			"/>
			<polygon fill="#FFFFFF" points="387.724,53.74 377.179,51.631 377.179,73.777 387.724,76.238 			"/>
			<polygon fill="#FFFFFF" points="406.355,57.958 395.81,55.849 395.81,77.995 406.355,80.456 			"/>
			<polygon fill="#FFFFFF" points="423.932,61.825 413.386,59.716 413.386,81.862 423.932,84.323 			"/>
			<polygon fill="#FFFFFF" points="387.724,127.208 377.179,125.099 377.179,147.245 387.724,149.706 			"/>
			<polygon fill="#FFFFFF" points="406.355,131.427 395.81,129.318 395.81,151.464 406.355,153.924 			"/>
			<polygon fill="#FFFFFF" points="423.932,135.294 413.386,133.185 413.386,155.33 423.932,157.791 			"/>
			<polygon fill="#FFFFFF" points="387.724,164.118 377.179,162.009 377.179,184.155 387.724,186.616 			"/>
			<polygon fill="#FFFFFF" points="406.355,168.337 395.81,166.228 395.81,188.374 406.355,190.834 			"/>
			<polygon fill="#FFFFFF" points="423.932,172.203 413.386,170.094 413.386,192.24 423.932,194.701 			"/>
			<polygon fill="#FFFFFF" points="387.724,202.786 377.179,200.677 377.179,222.823 387.724,225.283 			"/>
			<polygon fill="#FFFFFF" points="406.355,207.004 395.81,204.895 395.81,227.041 406.355,229.502 			"/>
			<polygon fill="#FFFFFF" points="423.932,210.871 413.386,208.762 413.386,230.908 423.932,233.369 			"/>
			<polygon fill="#FFFFFF" points="387.724,239.696 377.179,237.587 377.179,259.733 387.724,262.193 			"/>
			<polygon fill="#FFFFFF" points="406.355,243.914 395.81,241.805 395.81,263.951 406.355,266.412 			"/>
			<polygon fill="#FFFFFF" points="423.932,247.781 413.386,245.672 413.386,267.818 423.932,270.278 			"/>
			<polygon fill="#FFFFFF" points="387.724,276.254 377.179,274.145 377.179,296.291 387.724,298.752 			"/>
			<polygon fill="#FFFFFF" points="406.355,280.472 395.81,278.364 395.81,300.51 406.355,302.97 			"/>
			<polygon fill="#FFFFFF" points="403.191,317.906 392.646,315.801 392.646,337.947 403.14,340.636 			"/>
			<polygon fill="#FFFFFF" points="423.932,284.339 413.386,282.23 413.386,304.376 423.932,306.837 			"/>
		</g>
	</g>
	<g>
		<polygon fill="#80BFCE" points="580.185,-38.424 467.086,-66.203 467.086,360.395 580.185,390.156 		"/>
		<polygon fill="#265A75" points="678.408,-68.187 580.185,-38.424 580.185,390.156 678.408,343.53 		"/>
		<polygon fill="#8FB9D1" points="467.086,-66.203 566.305,-97.285 678.408,-68.187 580.185,-38.424 		"/>
		<polygon fill="#AACFE0" points="509.425,-62.894 563.66,-82.735 637.074,-66.862 578.871,-46.36 		"/>
		<polygon fill="#80BFCE" points="500.164,-64.875 566.305,-86.701 566.305,-78.764 515.376,-60.246 		"/>
		<polygon fill="#6F889B" points="645.01,-68.844 566.305,-86.701 566.305,-78.764 633.104,-64.215 		"/>
		<g>
			<polygon fill="#FFFFFF" points="504.297,24.077 489.416,21.101 489.416,52.351 504.297,55.824 			"/>
			<polygon fill="#FFFFFF" points="530.588,30.03 515.707,27.054 515.707,58.304 530.588,61.776 			"/>
			<polygon fill="#FFFFFF" points="555.39,35.486 540.509,32.511 540.509,63.76 555.39,67.233 			"/>
			<polygon fill="#FFFFFF" points="504.297,-28.999 489.416,-31.976 489.416,-0.725 504.297,2.748 			"/>
			<polygon fill="#FFFFFF" points="530.588,-23.046 515.707,-26.023 515.707,5.228 530.588,8.7 			"/>
			<polygon fill="#FFFFFF" points="555.39,-17.591 540.509,-20.567 540.509,10.685 555.39,14.156 			"/>
			<polygon fill="#FFFFFF" points="504.297,74.674 489.416,71.697 489.416,102.948 504.297,106.421 			"/>
			<polygon fill="#FFFFFF" points="530.588,80.627 515.707,77.65 515.707,108.901 530.588,112.374 			"/>
			<polygon fill="#FFFFFF" points="555.39,86.082 540.509,83.107 540.509,114.358 555.39,117.829 			"/>
			<polygon fill="#FFFFFF" points="504.297,126.759 489.416,123.781 489.416,155.033 504.297,158.506 			"/>
			<polygon fill="#FFFFFF" points="530.588,132.711 515.707,129.734 515.707,160.986 530.588,164.458 			"/>
			<polygon fill="#FFFFFF" points="555.39,138.168 540.509,135.191 540.509,166.442 555.39,169.914 			"/>
			<polygon fill="#FFFFFF" points="504.297,181.323 489.416,178.347 489.416,209.597 504.297,213.07 			"/>
			<polygon fill="#FFFFFF" points="530.588,187.276 515.707,184.3 515.707,215.55 530.588,219.022 			"/>
			<polygon fill="#FFFFFF" points="555.39,192.732 540.509,189.755 540.509,221.007 555.39,224.479 			"/>
			<polygon fill="#FFFFFF" points="504.297,233.407 489.416,230.432 489.416,261.683 504.297,265.155 			"/>
			<polygon fill="#FFFFFF" points="530.588,239.36 515.707,236.385 515.707,267.636 530.588,271.107 			"/>
			<polygon fill="#FFFFFF" points="555.39,244.817 540.509,241.841 540.509,273.091 555.39,276.564 			"/>
			<polygon fill="#FFFFFF" points="504.297,284.996 489.416,282.021 489.416,313.271 504.297,316.74 			"/>
			<polygon fill="#FFFFFF" points="530.588,290.949 515.707,287.973 515.707,319.223 530.588,322.696 			"/>
			<polygon fill="#FFFFFF" points="527.744,332.097 507.241,327.993 507.241,371.051 527.607,376.273 			"/>
			<polygon fill="#FFFFFF" points="555.39,296.406 540.509,293.429 540.509,324.68 555.39,328.153 			"/>
		</g>
	</g>
	<g>
		<polygon fill="#80BFCE" points="678.7,112.69 598.552,93.004 598.552,395.314 678.7,416.406 		"/>
		<polygon fill="#265A75" points="748.308,91.598 678.7,112.69 678.7,416.406 748.308,383.362 		"/>
		<polygon fill="#8FB9D1" points="598.552,93.004 668.863,70.978 748.308,91.598 678.7,112.69 		"/>
		<polygon fill="#AACFE0" points="628.556,95.35 666.99,81.289 719.016,92.537 677.77,107.066 		"/>
		<polygon fill="#80BFCE" points="621.993,93.945 668.863,78.478 668.863,84.102 632.773,97.225 		"/>
		<polygon fill="#6F889B" points="724.637,91.133 668.863,78.478 668.863,84.102 716.201,94.413 		"/>
		<g>
			<polygon fill="#FFFFFF" points="624.922,156.981 614.376,154.872 614.376,177.018 624.922,179.479 			"/>
			<polygon fill="#FFFFFF" points="643.553,161.2 633.008,159.09 633.008,181.236 643.553,183.697 			"/>
			<polygon fill="#FFFFFF" points="661.13,165.066 650.583,162.957 650.583,185.103 661.13,187.564 			"/>
			<polygon fill="#FFFFFF" points="624.922,119.368 614.376,117.259 614.376,139.405 624.922,141.866 			"/>
			<polygon fill="#FFFFFF" points="643.553,123.587 633.008,121.478 633.008,143.624 643.553,146.084 			"/>
			<polygon fill="#FFFFFF" points="661.13,127.453 650.583,125.344 650.583,147.49 661.13,149.951 			"/>
			<polygon fill="#FFFFFF" points="624.922,192.837 614.376,190.728 614.376,212.873 624.922,215.334 			"/>
			<polygon fill="#FFFFFF" points="643.553,197.055 633.008,194.946 633.008,217.092 643.553,219.552 			"/>
			<polygon fill="#FFFFFF" points="661.13,200.922 650.583,198.813 650.583,220.959 661.13,223.419 			"/>
			<polygon fill="#FFFFFF" points="624.922,229.747 614.376,227.637 614.376,249.783 624.922,252.244 			"/>
			<polygon fill="#FFFFFF" points="643.553,233.965 633.008,231.856 633.008,254.002 643.553,256.462 			"/>
			<polygon fill="#FFFFFF" points="661.13,237.832 650.583,235.722 650.583,257.868 661.13,260.329 			"/>
			<polygon fill="#FFFFFF" points="624.922,268.414 614.376,266.305 614.376,288.451 624.922,290.912 			"/>
			<polygon fill="#FFFFFF" points="643.553,272.632 633.008,270.523 633.008,292.669 643.553,295.13 			"/>
			<polygon fill="#FFFFFF" points="661.13,276.499 650.583,274.39 650.583,296.536 661.13,298.993 			"/>
			<polygon fill="#FFFFFF" points="624.922,305.323 614.376,303.215 614.376,325.361 624.922,327.822 			"/>
			<polygon fill="#FFFFFF" points="643.553,309.538 633.008,307.433 633.008,329.575 643.553,332.036 			"/>
			<polygon fill="#FFFFFF" points="661.13,313.406 650.583,311.3 650.583,333.446 661.13,335.906 			"/>
			<polygon fill="#FFFFFF" points="624.922,341.883 614.376,339.773 614.376,361.919 624.922,364.38 			"/>
			<polygon fill="#FFFFFF" points="643.553,346.101 633.008,343.99 633.008,366.138 643.553,368.598 			"/>
			<polygon fill="#FFFFFF" points="643.201,384.182 632.656,382.073 632.656,404.219 643.15,407.027 			"/>
			<polygon fill="#FFFFFF" points="661.13,349.968 650.583,347.858 650.583,370.004 661.13,372.465 			"/>
		</g>
	</g>
	<g id="Calque_7">
		<g>
			
				<image display="none" overflow="visible" enable-background="new    " width="491" height="342" xlink:href="4D53C6481C3C74E6.png"  transform="matrix(-1.762 0 0 1.762 1330.0439 109.6184)">
			</image>
			<g>
				<polygon fill="#B75149" points="1185.5,456.334 1062.5,518.564 1062.5,249.801 1185.5,193.667 				"/>
				<polygon fill="#FC8377" points="695.5,422.868 1062.5,518.564 1062.5,249.801 695.5,175.311 				"/>
				<polygon fill="#F4EAD7" points="1187.166,193 1063.714,250.913 695.709,175.311 833.016,120.276 				"/>
				<polygon fill="#B75149" points="831.337,130.119 736.289,169.766 765.207,174.43 831.903,147.378 				"/>
				<polygon fill="#F36C59" points="1125.166,207 831.5,147.378 831.5,130.13 1149.832,195.667 				"/>
				<polygon fill="#FFFFFF" points="935.857,386.552 990.335,399.153 991.447,503.288 938.76,487.356 				"/>
			</g>
			<polygon fill="#FFFFFF" points="708.248,205.632 848.5,235.063 848.5,335.5 708.551,300.691 			"/>
			<polygon fill="#FFFFFF" points="864.248,239.466 1013.5,270.785 1013.5,377.663 864.57,340.625 			"/>
			<polygon fill="#FFFFFF" points="725.166,356.663 849.5,389.334 849.5,366.74 724.606,334.611 			"/>
		</g>
	</g>
	<g>
		<path fill="#27AE60" d="M682.909,553.781c0,0,3.748,11.249,14.061,22.498c10.313,11.249,22.499,33.747,10.312,48.745
			c-12.188,14.997-15.938,15.938-25.312,15.938C672.599,640.963,682.909,553.781,682.909,553.781z"/>
		<path fill="#A8D164" d="M682.909,553.781c0,0,8.437,31.872,10.312,51.561c1.787,18.756-0.938,34.683-11.249,35.621
			c-10.312,0.938-34.225-12.781-26.248-39.371C661.35,582.844,666.036,583.781,682.909,553.781z"/>
	</g>
	<g>
		<path fill="#27AE60" d="M1107.372,563.425c0,0,5.662,20.909,21.243,41.813c15.578,20.91,33.99,62.73,15.578,90.608
			c-18.408,27.876-24.073,29.62-38.236,29.62C1091.791,725.47,1107.372,563.425,1107.372,563.425z"/>
		<path fill="#A8D164" d="M1107.372,563.425c0,0,12.745,59.244,15.579,95.834c2.702,34.859-1.415,64.468-16.994,66.211
			c-15.582,1.742-51.707-23.758-39.656-73.187C1074.8,617.441,1081.877,619.181,1107.372,563.425z"/>
	</g>
	<polygon fill="#F0B85F" points="1699.039,800 -0.5,800.254 -0.5,261.667 1699.059,708.745 	"/>
	<g>
		<polygon fill="#80BFCE" points="1097.926,253.415 1097.926,521.745 1307.624,579.391 1304.642,304.1 		"/>
		<polygon fill="#8FB9D1" points="1367.253,-144.116 1581.919,-74.548 1277.808,23.841 1064.136,-34.889 		"/>
		<polygon fill="#95C9D1" points="1083.018,-22.869 1082.023,260.554 1287.747,315.031 1287.747,36.76 1277.808,37.754 		"/>
		<polygon fill="#265A75" points="1277.808,19.865 1580.927,-75.542 1580.927,474.045 1307.624,579.391 1303.646,310.063 
			1287.747,315.031 1287.747,36.76 1277.808,37.754 		"/>
		<polygon fill="#265A75" points="1064.136,-34.889 1277.808,19.865 1277.808,37.754 1066.076,-16.512 		"/>
		<polygon fill="none" points="1064.136,-47.715 1368.247,-144.116 1580.927,-75.542 1277.808,23.841 		"/>
		<polygon fill="none" points="1098.46,-45.209 1366.583,-130.203 1554.093,-69.744 1281.783,10.921 		"/>
		<polygon fill="#80BFCE" points="1366.583,-130.203 1366.583,-108.673 1146.651,-30.648 1116.967,-39.13 		"/>
		<polygon fill="#6F889B" points="1366.583,-130.203 1538.191,-75.542 1504.401,-63.616 1366.583,-108.673 		"/>
		<polygon fill="#AACFE0" points="1366.756,-113.805 1512.354,-66.101 1279.3,2.97 1140.998,-30.648 		"/>
		<g>
			<polygon fill="#FFFFFF" points="1097.265,172.78 1097.265,243.745 1122.494,251.35 1122.128,180.151 			"/>
			<polygon fill="#FFFFFF" points="1134.034,182.795 1134.034,253.761 1159.266,261.366 1158.898,190.167 			"/>
			<polygon fill="#FFFFFF" points="1170.808,191.396 1170.808,262.362 1196.039,269.968 1195.67,198.769 			"/>
			<polygon fill="#FFFFFF" points="1244.681,212.014 1244.681,282.98 1269.91,290.585 1269.543,219.386 			"/>
			<polygon fill="#FFFFFF" points="1207.58,201.502 1207.58,272.468 1232.809,280.073 1232.441,208.874 			"/>
			<polygon fill="#FFFFFF" points="1111.84,433.737 1111.84,504.698 1137.071,512.307 1136.703,441.109 			"/>
			<polygon fill="#FFFFFF" points="1141.654,443.013 1141.654,513.979 1166.885,521.579 1166.518,450.385 			"/>
			<polygon fill="#FFFFFF" points="1115.814,314.477 1115.814,385.443 1141.045,393.048 1140.68,321.85 			"/>
			<polygon fill="#FFFFFF" points="1160.205,325.075 1160.205,396.045 1185.436,403.65 1185.068,332.448 			"/>
			<polygon fill="#FFFFFF" points="1209.23,338.325 1209.23,409.294 1234.463,416.9 1234.096,345.698 			"/>
			<polygon fill="#FFFFFF" points="1256.936,351.575 1256.936,422.544 1282.163,430.149 1281.798,358.948 			"/>
			<polygon fill="#FFFFFF" points="1097.265,91.781 1097.265,162.748 1122.494,170.354 1122.128,99.155 			"/>
			<polygon fill="#FFFFFF" points="1134.034,101.798 1134.034,172.764 1159.266,180.369 1158.898,109.17 			"/>
			<polygon fill="#FFFFFF" points="1170.808,110.4 1170.808,181.365 1196.039,188.97 1195.67,117.772 			"/>
			<polygon fill="#FFFFFF" points="1207.58,121.829 1207.58,192.794 1232.809,200.399 1232.441,129.201 			"/>
			<polygon fill="#FFFFFF" points="1244.351,131.844 1244.351,202.81 1269.581,210.415 1269.214,139.216 			"/>
			<polygon fill="#FFFFFF" points="1097.265,10.785 1097.265,81.751 1122.494,89.356 1122.128,18.158 			"/>
			<polygon fill="#FFFFFF" points="1134.034,20.801 1134.034,91.767 1159.266,99.372 1158.898,28.173 			"/>
			<polygon fill="#FFFFFF" points="1170.808,29.403 1170.808,100.368 1196.039,107.973 1195.67,36.775 			"/>
			<polygon fill="#FFFFFF" points="1207.58,40.832 1207.58,111.797 1232.809,119.403 1232.441,48.204 			"/>
			<polygon fill="#FFFFFF" points="1244.351,50.847 1244.351,121.813 1269.581,129.418 1269.214,58.219 			"/>
		</g>
		<polygon fill="#FFFFFF" points="1195.322,449.198 1195.308,548.405 1242.499,561.471 1243.025,460.036 		"/>
		<path fill="#E1E7EA" d="M1286.754,330.933"/>
	</g>
	<g>
		<ellipse fill="#B75149" cx="805.051" cy="519.698" rx="10.853" ry="11.833"/>
		<polygon fill="#FC8377" points="675.499,485.271 697.196,477.025 691.815,492.266 		"/>
		<path fill="#F36C59" d="M699.168,451.561l-8.604,36.939l-15.062-3.229l-1.076,29.766l5.737,1.076c0,0,4.667-8.285,11.834-7.173
			c10.401,1.616,12.729,8.25,13.809,12.193l35.503,7.173c0,0,2.33-8.785,11.654-7.894c13.31,1.277,13.629,12.731,13.629,12.731
			l8.965,1.612l9.324-30.124l-22.231-30.482l-15.425-24.026L699.168,451.561z"/>
		<polygon fill="#FC8377" points="740.409,460.169 699.168,451.561 745.07,435.424 786.312,443.672 		"/>
		<polygon fill="#D85F52" points="740.409,460.169 751.167,500.329 797.429,483.838 786.312,443.672 		"/>
		<polygon fill="#FC8377" points="775.194,509.656 751.167,500.329 797.429,483.838 821.099,493.521 		"/>
		<polygon fill="#D85F52" points="821.099,493.521 821.099,518.265 775.554,534.761 775.554,509.656 		"/>
		<polygon fill="#F4EAD7" points="782.009,449.051 791.691,482.045 753.677,495.315 744.712,461.961 		"/>
		<polygon fill="#F4EAD7" points="711.629,457.299 711.629,488.5 718.532,489.979 718.532,458.78 		"/>
		<polygon fill="#F4EAD7" points="721.043,459.448 721.043,490.651 745.788,495.673 736.464,462.679 		"/>
		<ellipse fill="#B75149" cx="753.947" cy="532.428" rx="13.312" ry="14.524"/>
		<ellipse fill="#B75149" cx="692.085" cy="520.955" rx="13.479" ry="14.704"/>
	</g>
	<rect x="-8.5" y="545" display="none" fill="#FFFFFF" width="1275" height="253"/>
	<g>
		<path fill="#27AE60" d="M672.894,376.947c0,0,2.384,7.143,8.928,14.276c6.544,7.139,14.274,21.417,6.544,30.934
			c-7.734,9.521-10.112,10.113-16.062,10.113S672.894,376.947,672.894,376.947z"/>
		<path fill="#A8D164" d="M672.894,376.947c0,0,5.354,20.229,6.544,32.719c1.139,11.902-0.594,22.014-7.139,22.604
			c-6.544,0.595-21.719-8.111-16.656-24.986C659.212,395.387,662.186,395.982,672.894,376.947z"/>
		<g>
			<path fill="#27AE60" d="M1370.632,464.219c0,0,5.067,18.462,19.005,36.922c13.938,18.462,30.407,55.387,13.938,80
				c-16.474,24.613-21.537,26.153-34.206,26.153C1356.696,607.294,1370.632,464.219,1370.632,464.219z"/>
			<path fill="#A8D164" d="M1370.632,464.219c0,0,11.402,52.308,13.938,84.615c2.417,30.778-1.268,56.92-15.201,58.46
				c-13.938,1.538-46.256-20.979-35.479-64.614C1341.494,511.907,1347.826,513.448,1370.632,464.219z"/>
		</g>
	</g>
</g>
<g id="Calque_3">
</g>
<g id="Calque_5">
</g>
<g id="Calque_4">
</g>
<g>
	<path fill="#243C5E" d="M609.313,749.458c0.043-0.066,15.337,8.842,21.794,13.34c6.454,4.497,14.214,13.303,17.601,18.386
		c2.28,3.423,9.776,13.5,9.776,13.5s6.065-23.865,7.043-24.843c0.976-0.982,4.694,6.257,10.172,7.036
		c5.474,0.784,12.251-2.611,12.321-1.955c0.076,0.658-3.131,31.688-4.695,37.559c-1.565,5.866-5.869,17.802-14.867,17.997
		c-8.999,0.198-26.995-13.89-29.146-13.89s-3.781,38.406-3.781,38.406l-80.071,0.001l-0.26-20.018c0,0-2.477,8.862-3.522,17.21
		c-0.192,1.565-21.909,0.197-21.909,0.197s11.347-62.99,16.239-74.141c4.891-11.148,21.518-16.623,26.995-21.517
		c5.477-4.891,7.628-7.434,7.628-7.434l2.27,20.827c0.081,4.572,6.815,39.407,6.98,40.656c1.375,10.294,2.485,20.083,3.464,21.846
		c0.978,1.759,6.061-21.91,7.626-30.908c1.564-8.997,7.243-30.71,7.829-38.921C609.387,754.581,609.313,749.458,609.313,749.458z"/>
	<g>
		<path fill="#F9CDAF" d="M580.434,745.065c0,0,0.128,3.581,0.275,5.281c0.146,1.695,11.308,11.656,13.513,11.917
			c2.208,0.262,15.079-11.839,15.079-11.839c0.296-1.175-0.466-5.359-0.466-5.359H580.434z"/>
		<path fill="#F0F0F2" d="M609.249,749.519L609.249,749.519c0,0-12.324,10.96-14.474,11.346
			c-2.155,0.392-12.875-10.071-14.143-11.537l0,0l7.104,61.12l5.864,20.441l14.478-32.862l3.421-19.268l-1.172-10.17
			L609.249,749.519z"/>
		
			<ellipse transform="matrix(-0.3375 0.9413 -0.9413 -0.3375 1510.519 340.4301)" fill="#F9CDAF" cx="635.469" cy="701.735" rx="10.302" ry="7.303"/>
		
			<ellipse transform="matrix(0.427 0.9043 -0.9043 0.427 951.1262 -100.9366)" fill="#F9CDAF" cx="555.206" cy="700.01" rx="10.305" ry="7.302"/>
		<path fill="#F9CDAF" d="M554.031,696.444c0,28.869,18.125,52.269,40.494,52.269l0,0c22.36,0,40.485-23.399,40.485-52.269v-10.093
			c0-28.866-18.125-52.271-40.485-52.271l0,0c-22.37,0-40.494,23.405-40.494,52.271V696.444z"/>
		<path fill="#F9CDAF" d="M669.831,770.88c0,0,2.084-10.17,1.174-11.994c-0.912-1.829-4.04-9.002-5.999-11.606
			c-1.958-2.612-3.654-6.001-0.916-6.128c2.74-0.135,7.043,3.65,10.302,4.955c3.261,1.303,9.783-1.696,14.867-3.652
			c5.089-1.955,7.304-3.913,11.479-3.259c4.174,0.651,12.128,2.217,10.43,4.434c-1.695,2.217-18.777,16.691-22.039,18.909
			c-3.258,2.215-4.175,5.869-4.305,8.213c-0.128,2.349,0.784,5.738-0.91,7.044c-1.696,1.305-8.213,2.479-10.826,1.045
			C670.484,777.402,669.831,770.88,669.831,770.88z"/>
		<path fill="#FFFFFF" d="M688.004,774.899l-12.926,4.022l-9.583-8.907c0,0,0.427-1.62,0.89-1.767
			c0.46-0.147,3.966,3.609,8.008,4.784c4.043,1.17,13.438-0.729,13.727-0.458C688.416,772.843,688.004,774.899,688.004,774.899z"/>
		<polygon fill="#669CA4" points="596.008,772.447 600.312,801.72 593.138,835.824 586.356,802.442 591.836,771.927 		"/>
		<path fill="#152435" d="M609.438,749.503c0,0,12.468,17.496,12.468,21.314c0,0.294-9.975,0.191-10.17,0.39
			c-0.192,0.194,8.216,4.402,8.899,7.138c0.684,2.74-26.407,52.813-26.993,53.892c-0.588,1.078-28.462-52.323-27.972-54.279
			c0.487-1.96,8.607-4.497,8.802-5.089c0.197-0.586-6.945-1.271-8.51-1.859c-1.563-0.588,14.375-21.783,14.674-21.682
			c0.294,0.096,12.943,79.867,12.943,79.867S607.711,747.986,609.438,749.503z"/>
		<path fill="#0E0E23" d="M597.063,843.19c0,1.517-1.226,2.741-2.737,2.741c-1.513,0-2.74-1.224-2.74-2.741
			c0-1.511,1.227-2.736,2.74-2.736C595.837,840.449,597.063,841.679,597.063,843.19z"/>
		<path fill="#669CA4" d="M588.846,768.639c0,2.953,2.397,5.349,5.352,5.349l0,0c2.949,0,5.346-2.396,5.346-5.349v-2.344
			c0-2.951-2.397-5.349-5.346-5.349l0,0c-2.952,0-5.352,2.397-5.352,5.349V768.639z"/>
		<path fill="#FFEADC" stroke="#152435" stroke-width="1.0849" stroke-miterlimit="10" d="M600.065,704.897
			c0,3.171,2.565,5.737,5.737,5.737h13.037c3.17,0,5.738-2.564,5.738-5.737v-5.74c0-3.166-2.568-5.736-5.738-5.736h-13.037
			c-3.171,0-5.737,2.566-5.737,5.736V704.897z"/>
		<path fill="#FFEADC" stroke="#152435" stroke-width="1.0849" stroke-miterlimit="10" d="M564.331,704.897
			c0,3.171,2.571,5.737,5.739,5.737h13.039c3.169,0,5.736-2.564,5.736-5.737v-5.74c0-3.166-2.565-5.736-5.736-5.736h-13.039
			c-3.168,0-5.739,2.566-5.739,5.736V704.897z"/>
		
			<line fill="none" stroke="#152435" stroke-width="1.0849" stroke-miterlimit="10" x1="600.429" y1="696.967" x2="588.464" y2="696.967"/>
		
			<line fill="none" stroke="#152435" stroke-width="1.0849" stroke-miterlimit="10" x1="565.136" y1="697.114" x2="551.86" y2="692.969"/>
		
			<line fill="none" stroke="#152435" stroke-width="1.0849" stroke-miterlimit="10" x1="624.204" y1="697.161" x2="637.479" y2="693.016"/>
		<path fill="#77543A" d="M634.884,653.38c3.67,6.912,6.259,19.691,5.607,25.69c-0.964,8.877-2.087,12.784-3.392,17.605
			c-1.304,4.826-4.06,15.247-4.06,15.247s0.465-30-0.331-37.521c-0.558-5.211-5.784-14.625-6.695-14.363
			c-0.913,0.261-8.088,7.629-11.886,9.231c-6.927,2.925-19.958,6.776-20.781,6.031c-0.826-0.743,16.19-13.759,16.19-13.759l0,0
			c0.146,0.128,0,0,0,0c-1.172,0.78-39.335,15.711-44.161,16.884c-4.824,1.175-6.865,3.69-7.61,5.845
			c-0.918,2.654-1.595,6.093-2.107,10.639c-0.448,4.021-0.221,15.299-0.221,15.299s-3.366-10.786-4.928-15.743
			c-1.565-4.954-2.702-11.344-2.872-16.692c-0.403-12.737,6.58-27.54,17.867-34.034c12.746-7.336,29.713-16.609,53.728-5.869
			C624.189,640.085,631.623,647.252,634.884,653.38z"/>
	</g>
</g>
<path fill="#F4EAD7" d="M812.603,587.675c-75.644,0-136.964,35.457-136.964,79.195c0,7.623,1.867,14.997,5.347,21.969
	l-15.826,22.793l36.129,1.383c24.856,20.01,65.449,33.047,111.31,33.047c75.644,0,136.964-35.458,136.964-79.196
	C949.565,623.132,888.245,587.675,812.603,587.675z"/>
<rect x="663.583" y="781.842" fill="#D1D3D3" stroke="#669CA4" stroke-width="0.5" stroke-miterlimit="10" width="15.5" height="8.5"/>
<g>
	<path fill="#152435" d="M666.365,783.685h0.521v2.705c0,1.072-0.524,1.403-1.223,1.403c-0.192,0-0.426-0.042-0.558-0.098
		l0.075-0.427c0.108,0.042,0.266,0.077,0.438,0.077c0.467,0,0.743-0.21,0.743-1.001L666.365,783.685L666.365,783.685z"/>
	<path fill="#152435" d="M668.034,786.368c0.012,0.716,0.468,1.011,0.996,1.011c0.377,0,0.604-0.065,0.804-0.149l0.09,0.377
		c-0.186,0.084-0.503,0.181-0.965,0.181c-0.894,0-1.427-0.588-1.427-1.464c0-0.875,0.516-1.562,1.359-1.562
		c0.947,0,1.199,0.834,1.199,1.367c0,0.104-0.012,0.188-0.018,0.243L668.034,786.368L668.034,786.368z M669.582,785.991
		c0.006-0.336-0.138-0.855-0.731-0.855c-0.531,0-0.768,0.491-0.81,0.855H669.582z"/>
	<path fill="#152435" d="M672.354,787.727l-0.041-0.365h-0.019c-0.162,0.229-0.474,0.435-0.888,0.435
		c-0.587,0-0.89-0.414-0.89-0.834c0-0.701,0.624-1.086,1.745-1.079v-0.062c0-0.236-0.063-0.672-0.656-0.672
		c-0.271,0-0.555,0.084-0.758,0.217l-0.117-0.348c0.237-0.156,0.588-0.259,0.951-0.259c0.89,0,1.104,0.604,1.104,1.187v1.087
		c0,0.252,0.012,0.497,0.048,0.695L672.354,787.727L672.354,787.727z M672.275,786.243c-0.576-0.013-1.229,0.093-1.229,0.653
		c0,0.343,0.229,0.504,0.498,0.504c0.377,0,0.618-0.239,0.702-0.484c0.018-0.055,0.03-0.112,0.03-0.17L672.275,786.243
		L672.275,786.243z"/>
	<path fill="#152435" d="M673.638,785.61c0-0.3-0.006-0.546-0.021-0.785h0.468l0.03,0.479h0.012
		c0.146-0.276,0.479-0.546,0.959-0.546c0.401,0,1.025,0.236,1.025,1.233v1.732h-0.528v-1.673c0-0.471-0.174-0.858-0.672-0.858
		c-0.347,0-0.617,0.246-0.708,0.54c-0.024,0.066-0.036,0.156-0.036,0.245v1.745h-0.528V785.61L673.638,785.61L673.638,785.61z"/>
</g>
<rect x="39.5" y="396.505" fill="none" width="459" height="36.448"/>
<text transform="matrix(1 0 0 1 39.5 432.7932)" fill="#265A75" font-family="'Avenir-Heavy'" font-size="48">Boulot, </text>
<text transform="matrix(1 0 0 1 207.3193 432.7932)" fill="#265A75" font-family="'Avenir-BlackOblique'" font-size="48">conso</text>
<text transform="matrix(1 0 0 1 341.7495 432.7932)" enable-background="new    "><tspan x="0" y="0" fill="#265A75" font-family="'Avenir-Heavy'" font-size="48">,</tspan><tspan x="14.208" y="0" fill="#265A75" font-family="'Avenir-Heavy'" font-size="48" letter-spacing="-8"> </tspan><tspan x="19.775" y="0" fill="#265A75" font-family="'Avenir-Heavy'" font-size="48">dodo</tspan></text>
<polygon fill="none" points="915.5,752.5 735.833,752.5 735.833,640.5 896.5,640.5 "/>
<text transform="matrix(1 0 0 1 710.3735 635.2913)" fill="#243C5E" font-family="'Avenir-Heavy'" font-size="15.513">Bonjour, je m&apos;appelle Jean.</text>
<text transform="matrix(1 0 0 1 731.3589 653.9036)" fill="#243C5E" font-family="'Avenir-Heavy'" font-size="15.513">Pour tout savoir sur la </text>
<text transform="matrix(1 0 0 1 712.0894 672.5217)" fill="#243C5E" font-family="'Avenir-Heavy'" font-size="15.513"> consommation d&apos;électricité </text>
<text transform="matrix(1 0 0 1 705.7642 691.136)" fill="#243C5E" font-family="'Avenir-Heavy'" font-size="15.513">au travail, suivez-moi au cours </text>
<text transform="matrix(1 0 0 1 720.2876 709.7532)" fill="#243C5E" font-family="'Avenir-Heavy'" font-size="15.513">de ma journée au bureau !</text>
<rect x="1177.542" y="684.683" fill="none" width="425.289" height="111.317"/>
<rect x="26.62" y="515.354" fill="none" width="472.477" height="71.997"/>
<text transform="matrix(1 0 0 1 134.1211 542.5706)" fill="#265A75" font-family="'Avenir-Oblique'" font-size="36">Le saviez-vous ?</text>
<rect x="41.489" y="455" fill="none" width="371.018" height="49.504"/>
<text transform="matrix(1 0 0 1 41.4893 468.6086)" fill="#265A75" font-family="'Avenir-Roman'" font-size="18">La consommation énergétique du matériel </text>
<text transform="matrix(1 0 0 1 41.4893 490.2083)" fill="#265A75" font-family="'Avenir-Roman'" font-size="18">informatique des entreprises à la loupe.</text>
<g id="VKKTpX_2_">
	<g>
		<path fill="#C89A50" d="M805.655,362.839c-0.311,0.979-0.62,1.957-0.93,2.935c-0.447,1.418-0.896,2.836-1.347,4.255
			c-0.278,0.884-0.562,1.767-0.834,2.654c-0.038,0.129-0.097,0.161-0.243,0.125c-0.744-0.186-1.488-0.369-2.233-0.536
			c-0.21-0.047-0.243-0.172-0.285-0.318c-0.316-1.106-0.632-2.214-0.95-3.319c-0.32-1.116-0.646-2.232-0.968-3.349
			c-0.412-1.444-0.821-2.891-1.232-4.335c-0.024-0.088-0.062-0.177-0.127-0.266c0.006,0.743,0.006,1.485,0.019,2.229
			c0.034,2.401,0.077,4.804,0.115,7.205c0.008,0.378,0.021,0.759,0.04,1.14c0.009,0.152-0.055,0.186-0.211,0.147
			c-1.062-0.26-2.123-0.518-3.184-0.764c-0.23-0.054-0.223-0.171-0.223-0.319c-0.011-1.42-0.021-2.841-0.03-4.261
			c-0.024-3.292-0.048-6.583-0.071-9.875c-0.002-0.317-0.002-0.309,0.343-0.226c1.491,0.36,2.979,0.722,4.472,1.07
			c0.191,0.046,0.275,0.12,0.331,0.305c0.465,1.588,0.937,3.177,1.409,4.765c0.523,1.756,1.056,3.512,1.588,5.284
			c0.1-0.022,0.1-0.106,0.119-0.173c0.386-1.147,0.767-2.294,1.146-3.442c0.409-1.243,0.815-2.487,1.229-3.729
			c0.142-0.43,0.302-0.85,0.434-1.283c0.052-0.171,0.156-0.184,0.337-0.14c1.376,0.336,2.753,0.665,4.127,0.996
			c0.674,0.162,0.674,0.161,0.678,0.79c0.032,4.589,0.064,9.178,0.104,13.769c0.002,0.245-0.057,0.308-0.328,0.236
			c-1.001-0.256-1.998-0.49-2.999-0.723c-0.212-0.049-0.289-0.119-0.288-0.329c0.01-1.3-0.016-2.609,0.013-3.905
			c0.023-1.166-0.013-2.346,0.023-3.508C805.729,364.92,805.697,363.881,805.655,362.839z"/>
		<path fill="#C89A50" d="M742.471,353.233c0.204-0.911,0.406-1.822,0.609-2.734c0.217-0.979,0.436-1.958,0.652-2.938
			c0.229-1.026,0.461-2.05,0.674-3.083c0.048-0.232,0.162-0.246,0.403-0.186c1.104,0.279,2.208,0.543,3.312,0.797
			c0.318,0.072,0.356,0.1,0.278,0.368c-0.336,1.161-0.68,2.317-1.015,3.479c-0.504,1.746-1.002,3.494-1.507,5.239
			c-0.326,1.123-0.661,2.24-0.989,3.362c-0.113,0.392-0.226,0.784-0.331,1.181c-0.036,0.14-0.104,0.188-0.281,0.143
			c-1.01-0.251-2.018-0.491-3.024-0.729c-0.158-0.038-0.241-0.085-0.285-0.27c-0.469-2.002-0.95-4.004-1.428-6.005
			c-0.285-1.191-0.562-2.381-0.844-3.572c-0.011-0.042-0.031-0.084-0.068-0.186c-0.15,0.592-0.29,1.138-0.428,1.684
			c-0.539,2.116-1.076,4.231-1.612,6.349c-0.044,0.172-0.105,0.338-0.122,0.52c-0.021,0.247-0.129,0.305-0.409,0.232
			c-0.989-0.256-1.98-0.487-2.972-0.716c-0.197-0.045-0.268-0.128-0.315-0.312c-0.447-1.743-0.908-3.485-1.363-5.228
			c-0.584-2.245-1.166-4.491-1.748-6.736c-0.273-1.055-0.539-2.109-0.817-3.165c-0.053-0.202-0.051-0.281,0.202-0.218
			c1.167,0.292,2.332,0.57,3.498,0.84c0.199,0.046,0.255,0.138,0.289,0.302c0.363,1.746,0.73,3.493,1.097,5.239
			c0.312,1.476,0.625,2.952,0.942,4.456c0.119-0.136,0.123-0.309,0.16-0.458c0.443-1.79,0.881-3.582,1.32-5.373
			c0.231-0.949,0.469-1.896,0.692-2.849c0.037-0.159,0.106-0.208,0.291-0.161c0.859,0.212,1.72,0.417,2.578,0.617
			c0.154,0.036,0.229,0.092,0.266,0.256c0.423,1.882,0.851,3.765,1.282,5.646c0.271,1.182,0.555,2.364,0.829,3.546
			c0.051,0.219,0.097,0.438,0.146,0.657C742.445,353.231,742.459,353.232,742.471,353.233z"/>
		<path fill="#C89A50" d="M841.906,376.413c-0.025-1.209-0.053-2.419-0.079-3.629c-0.021-0.938-0.027-1.875-0.066-2.816
			c-0.029-0.721-0.039-1.435-0.058-2.15c-0.004-0.172,0.046-0.219,0.23-0.173c1.088,0.269,2.175,0.533,3.262,0.786
			c0.215,0.05,0.265,0.133,0.266,0.322c0.028,4.734,0.064,9.472,0.104,14.209c0.004,0.204-0.076,0.229-0.271,0.18
			c-0.973-0.241-1.944-0.472-2.919-0.703c-0.158-0.038-0.267-0.09-0.362-0.26c-0.634-1.116-1.283-2.229-1.929-3.341
			c-0.893-1.538-1.782-3.076-2.674-4.615c-0.383-0.66-0.763-1.322-1.145-1.982c-0.019-0.031-0.036-0.064-0.053-0.094
			c-0.115,0.043-0.074,0.135-0.068,0.201c0.065,0.916,0.043,1.812,0.067,2.719c0.052,1.863,0.097,3.725,0.148,5.586
			c0.01,0.34,0.013,0.341-0.35,0.255c-1.043-0.251-2.084-0.506-3.129-0.748c-0.215-0.05-0.284-0.123-0.285-0.33
			c-0.027-4.727-0.06-9.454-0.099-14.185c-0.002-0.224,0.071-0.254,0.297-0.197c0.956,0.242,1.911,0.469,2.867,0.69
			c0.16,0.037,0.251,0.107,0.335,0.255c1.021,1.812,2.042,3.626,3.068,5.438c0.854,1.506,1.713,3.01,2.568,4.515
			c0.021,0.086,0.037,0.173,0.139,0.229c0.013,0.022,0.027,0.044,0.043,0.066c0.011,0.046,0.009,0.109,0.068,0.125
			c0.06,0.015,0.034-0.051,0.038-0.084c0.005-0.037-0.004-0.079-0.006-0.118c-0.003-0.035-0.005-0.07-0.005-0.104
			C841.921,376.446,841.918,376.43,841.906,376.413z"/>
		<path fill="#C89A50" d="M767.766,357.135c-0.016-2.331-0.032-4.661-0.05-6.992c-0.003-0.341-0.003-0.335,0.365-0.247
			c1.612,0.39,3.226,0.78,4.837,1.164c1.018,0.242,2.033,0.502,3.02,1.011c2.068,1.067,3.525,2.652,4.401,4.693
			c0.634,1.477,0.794,2.908,0.694,4.318c-0.075,1.083-0.338,2.071-0.86,2.927c-0.706,1.159-1.771,1.904-3.241,2.147
			c-0.938,0.155-1.927,0.091-2.955-0.16c-1.927-0.471-3.854-0.93-5.782-1.393c-0.373-0.09-0.375-0.091-0.378-0.43
			C767.799,361.828,767.783,359.482,767.766,357.135z M771.705,358.098c0,0.099,0.001,0.197,0.002,0.296
			c0.01,1.173,0.016,2.346,0.028,3.52c0.001,0.105-0.044,0.237,0.159,0.281c0.777,0.17,1.561,0.43,2.331,0.499
			c1.459,0.131,2.361-0.461,2.714-1.699c0.311-1.096,0.285-2.279-0.141-3.538c-0.409-1.204-1.214-2.108-2.451-2.652
			c-0.806-0.354-1.624-0.456-2.437-0.683c-0.209-0.058-0.24,0.011-0.238,0.187C771.691,355.573,771.696,356.835,771.705,358.098z"/>
		<path fill="#C89A50" d="M823.607,377.922c-0.632-0.152-1.264-0.308-1.895-0.453c-0.157-0.036-0.223-0.101-0.271-0.26
			c-0.195-0.643-0.418-1.283-0.621-1.926c-0.039-0.128-0.109-0.178-0.229-0.207c-1.658-0.396-3.313-0.793-4.971-1.195
			c-0.149-0.036-0.22,0.004-0.265,0.116c-0.212,0.537-0.433,1.069-0.638,1.61c-0.045,0.123-0.117,0.151-0.259,0.116
			c-1.271-0.308-2.543-0.612-3.812-0.912c-0.187-0.044-0.205-0.114-0.146-0.244c0.23-0.508,0.451-1.022,0.685-1.531
			c0.561-1.228,1.125-2.452,1.687-3.681c0.723-1.569,1.441-3.139,2.158-4.711c0.441-0.974,0.886-1.949,1.316-2.928
			c0.062-0.136,0.145-0.189,0.323-0.146c0.895,0.216,1.788,0.422,2.684,0.633c0.158,0.038,0.26,0.111,0.327,0.292
			c0.538,1.43,1.095,2.855,1.642,4.283c0.593,1.544,1.18,3.09,1.771,4.634c0.763,1.99,1.528,3.98,2.296,5.971
			c0.106,0.275,0.207,0.554,0.318,0.83c0.076,0.179,0.033,0.226-0.155,0.179C824.903,378.23,824.255,378.077,823.607,377.922
			C823.606,377.925,823.607,377.923,823.607,377.922z M818.092,366.593c-0.017-0.003-0.034-0.007-0.051-0.011
			c-0.009,0.029-0.012,0.062-0.023,0.09c-0.485,1.407-0.969,2.815-1.456,4.223c-0.04,0.118-0.062,0.21,0.139,0.259
			c0.928,0.228,1.854,0.457,2.784,0.687c0.124,0.029,0.176-0.014,0.145-0.139c-0.021-0.076-0.039-0.151-0.06-0.229
			c-0.323-1.072-0.646-2.145-0.97-3.215C818.431,367.702,818.261,367.148,818.092,366.593z"/>
		<path fill="#C89A50" d="M782.713,360.729c-0.016-2.348-0.029-4.695-0.057-7.044c-0.002-0.228,0.061-0.274,0.304-0.215
			c2.655,0.646,5.312,1.284,7.966,1.917c0.223,0.053,0.288,0.137,0.289,0.339c-0.003,0.925,0.003,1.853,0.019,2.783
			c0.005,0.206-0.062,0.252-0.281,0.198c-1.408-0.347-2.82-0.68-4.232-1.025c-0.2-0.05-0.272-0.027-0.267,0.175
			c0.018,0.602,0.022,1.202,0.013,1.798c-0.004,0.202,0.074,0.257,0.272,0.303c1.357,0.318,2.717,0.653,4.074,0.971
			c0.219,0.052,0.304,0.106,0.302,0.337c-0.011,0.932,0,1.868,0.018,2.806c0.003,0.197-0.062,0.23-0.267,0.18
			c-1.366-0.336-2.734-0.655-4.103-0.994c-0.226-0.057-0.274-0.001-0.271,0.197c0.017,0.667,0.025,1.333,0.013,1.994
			c-0.004,0.229,0.081,0.287,0.301,0.338c1.396,0.327,2.788,0.671,4.183,0.996c0.244,0.058,0.312,0.145,0.312,0.368
			c-0.006,0.917,0.003,1.836,0.021,2.758c0.004,0.207-0.065,0.247-0.282,0.195c-2.664-0.646-5.328-1.287-7.992-1.921
			c-0.219-0.052-0.283-0.13-0.285-0.335C782.748,365.474,782.729,363.101,782.713,360.729
			C782.712,360.729,782.712,360.729,782.713,360.729z"/>
		<path fill="#C89A4F" d="M749.652,352.808c-0.018-2.332-0.035-4.664-0.051-6.995c-0.003-0.36-0.003-0.357,0.389-0.263
			c2.595,0.625,5.189,1.248,7.784,1.871c0.359,0.086,0.359,0.085,0.361,0.411c0.008,0.911,0.008,1.82,0.025,2.734
			c0.005,0.212-0.068,0.241-0.281,0.189c-1.411-0.348-2.822-0.678-4.233-1.026c-0.224-0.055-0.28-0.007-0.273,0.195
			c0.018,0.586,0.023,1.169,0.012,1.748c-0.006,0.22,0.072,0.287,0.299,0.339c1.359,0.315,2.719,0.652,4.076,0.97
			c0.225,0.053,0.281,0.132,0.28,0.333c-0.002,0.925,0.004,1.854,0.021,2.783c0.005,0.205-0.061,0.252-0.278,0.198
			c-1.368-0.336-2.735-0.655-4.103-0.992c-0.209-0.052-0.271-0.021-0.266,0.179c0.02,0.686,0.023,1.367,0.018,2.045
			c-0.002,0.188,0.06,0.249,0.255,0.295c1.43,0.336,2.856,0.688,4.285,1.022c0.204,0.047,0.251,0.112,0.25,0.292
			c-0.002,0.95,0.005,1.902,0.021,2.856c0.002,0.18-0.063,0.205-0.239,0.163c-2.683-0.647-5.366-1.293-8.048-1.932
			c-0.221-0.053-0.256-0.146-0.256-0.325C749.687,357.536,749.668,355.172,749.652,352.808
			C749.651,352.808,749.651,352.808,749.652,352.808z"/>
		<path fill="#C89A4F" d="M826.872,371.367c-0.017-2.347-0.029-4.691-0.058-7.042c-0.002-0.243,0.06-0.307,0.328-0.237
			c1.097,0.277,2.191,0.539,3.288,0.795c0.22,0.051,0.305,0.119,0.306,0.345c0.027,4.717,0.062,9.436,0.104,14.155
			c0,0.229-0.073,0.271-0.312,0.211c-1.095-0.273-2.189-0.538-3.284-0.789c-0.249-0.058-0.325-0.13-0.328-0.374
			C826.909,376.078,826.889,373.724,826.872,371.367z"/>
		<path fill="#F8F8F8" d="M841.773,376.573c-0.102-0.057-0.117-0.144-0.139-0.229C841.743,376.4,841.758,376.487,841.773,376.573z"
			/>
		<path fill="#F8F8F8" d="M841.918,376.564c0.002,0.04,0.011,0.081,0.006,0.118c-0.004,0.033,0.021,0.099-0.038,0.084
			c-0.061-0.016-0.059-0.079-0.068-0.125C841.849,376.615,841.883,376.589,841.918,376.564z"/>
		<path fill="#F8F8F8" d="M841.906,376.413c0.012,0.017,0.015,0.031,0.007,0.046c-0.005-0.012-0.012-0.022-0.017-0.033
			C841.896,376.423,841.903,376.418,841.906,376.413z"/>
	</g>
</g>
<polygon fill="#F0B95F" points="970.833,406.991 946.577,445.858 966.146,452.475 954.021,484.724 979.104,446.687 957.604,439.24 
	"/>
<rect x="1111.334" y="686.833" fill="none" width="475.333" height="140.666"/>
<text transform="matrix(1 0 0 1 1111.334 697.4182)"><tspan x="0" y="0" fill="#265A75" font-family="'Avenir-LightOblique'" font-size="14">* Ces données, comme l&apos;ensemble des données de notre étude, émanent</tspan><tspan x="0" y="16.8" fill="#265A75" font-family="'Avenir-LightOblique'" font-size="14">d&apos;audits réalisés dans le cadre de l&apos;opération collective Conso IT portée par </tspan><tspan x="0" y="33.6" fill="#265A75" font-family="'Avenir-LightOblique'" font-size="14">ADN&apos;Ouest, soutenue par l&apos;ADEME et réalisée par KaliTerre, EasyVirt et </tspan><tspan x="0" y="50.4" fill="#265A75" font-family="'Avenir-LightOblique'" font-size="14">A2JV d&apos;octobre 2012 à novembre 2014 auprès de 45 organisations fran</tspan><tspan x="438.364" y="50.4" fill="#265A75" font-family="'Avenir-LightOblique'" font-size="14">-</tspan><tspan x="0" y="67.2" fill="#265A75" font-family="'Avenir-LightOblique'" font-size="14">çaises issues des secteurs suivants : administrations, services, industries, </tspan><tspan x="0" y="84" fill="#265A75" font-family="'Avenir-LightOblique'" font-size="14">établissements d&apos;enseignement et de recherche, ainsi que des centres hos</tspan><tspan x="462.456" y="84" fill="#265A75" font-family="'Avenir-LightOblique'" font-size="14">-</tspan><tspan x="0" y="100.8" fill="#265A75" font-family="'Avenir-LightOblique'" font-size="14">pitaliers.</tspan></text>
</svg>
