<?xml version="1.0" encoding="utf-8"?>
<!-- Generator: Adobe Illustrator 16.0.0, SVG Export Plug-In . SVG Version: 6.00 Build 0)  -->
<!DOCTYPE svg PUBLIC "-//W3C//DTD SVG 1.1//EN" "http://www.w3.org/Graphics/SVG/1.1/DTD/svg11.dtd">
<svg version="1.1" id="Calque_1" xmlns="http://www.w3.org/2000/svg" xmlns:xlink="http://www.w3.org/1999/xlink" x="0px" y="0px"
	 width="1700px" height="800px" viewBox="0 0 1700 800" enable-background="new 0 0 1700 800" xml:space="preserve">
<g id="Prrez">
	<polygon fill="#90DFF8" points="1700,514.851 0,183.368 0,0 1700,0 	"/>
	<polygon fill="#FFF5EB" points="1699.5,735.412 1701.327,477.83 0,63.496 -0.5,565.849 	"/>
	<g>
		<path fill="#27AE60" d="M297.758,137c0,0,7.508,22.521,28.154,45.041c20.645,22.521,45.047,67.566,20.645,97.594
			c-24.399,30.031-31.901,31.907-50.673,31.907C277.115,311.539,297.758,137,297.758,137z"/>
		<path fill="#A8D164" d="M297.758,137c0,0,16.893,63.812,20.647,103.226c3.579,37.551-1.875,69.44-22.522,71.315
			c-20.647,1.877-68.522-25.589-52.551-78.827C254.593,195.18,263.976,197.056,297.758,137z"/>
	</g>
	<g>
		<path fill="#27AE60" d="M204.167,207c0,0,3.037,9.106,11.387,18.217c8.35,9.11,18.22,27.329,8.35,39.473
			c-9.869,12.146-12.903,12.905-20.496,12.905C195.818,277.595,204.167,207,204.167,207z"/>
		<path fill="#A8D164" d="M204.167,207c0,0,6.832,25.809,8.351,41.751c1.447,15.188-0.758,28.086-9.109,28.844
			c-8.351,0.759-27.714-10.35-21.254-31.883C186.708,230.531,190.503,231.291,204.167,207z"/>
	</g>
	<g>
		<polygon fill="#80BFCE" points="441.502,47.061 361.354,27.376 361.354,329.686 441.502,350.777 		"/>
		<polygon fill="#265A75" points="511.109,25.97 441.502,47.061 441.502,350.777 511.109,317.734 		"/>
		<polygon fill="#8FB9D1" points="361.354,27.376 431.665,5.35 511.109,25.97 441.502,47.061 		"/>
		<polygon fill="#AACFE0" points="391.358,29.721 429.792,15.66 481.818,26.909 440.571,41.438 		"/>
		<polygon fill="#80BFCE" points="384.795,28.316 431.665,12.85 431.665,18.474 395.576,31.597 		"/>
		<polygon fill="#6F889B" points="487.438,25.504 431.665,12.85 431.665,18.474 479.003,28.785 		"/>
		<g>
			<polygon fill="#FFFFFF" points="387.724,91.353 377.179,89.244 377.179,111.39 387.724,113.851 			"/>
			<polygon fill="#FFFFFF" points="406.355,95.571 395.81,93.462 395.81,115.608 406.355,118.069 			"/>
			<polygon fill="#FFFFFF" points="423.932,99.438 413.386,97.329 413.386,119.475 423.932,121.936 			"/>
			<polygon fill="#FFFFFF" points="387.724,53.74 377.179,51.631 377.179,73.777 387.724,76.238 			"/>
			<polygon fill="#FFFFFF" points="406.355,57.958 395.81,55.849 395.81,77.995 406.355,80.456 			"/>
			<polygon fill="#FFFFFF" points="423.932,61.825 413.386,59.716 413.386,81.862 423.932,84.323 			"/>
			<polygon fill="#FFFFFF" points="387.724,127.208 377.179,125.099 377.179,147.245 387.724,149.706 			"/>
			<polygon fill="#FFFFFF" points="406.355,131.427 395.81,129.318 395.81,151.464 406.355,153.924 			"/>
			<polygon fill="#FFFFFF" points="423.932,135.294 413.386,133.185 413.386,155.33 423.932,157.791 			"/>
			<polygon fill="#FFFFFF" points="387.724,164.118 377.179,162.009 377.179,184.155 387.724,186.616 			"/>
			<polygon fill="#FFFFFF" points="406.355,168.337 395.81,166.228 395.81,188.374 406.355,190.834 			"/>
			<polygon fill="#FFFFFF" points="423.932,172.203 413.386,170.094 413.386,192.24 423.932,194.701 			"/>
			<polygon fill="#FFFFFF" points="387.724,202.786 377.179,200.677 377.179,222.823 387.724,225.283 			"/>
			<polygon fill="#FFFFFF" points="406.355,207.004 395.81,204.895 395.81,227.041 406.355,229.502 			"/>
			<polygon fill="#FFFFFF" points="423.932,210.871 413.386,208.762 413.386,230.908 423.932,233.369 			"/>
			<polygon fill="#FFFFFF" points="387.724,239.696 377.179,237.587 377.179,259.733 387.724,262.193 			"/>
			<polygon fill="#FFFFFF" points="406.355,243.914 395.81,241.805 395.81,263.951 406.355,266.412 			"/>
			<polygon fill="#FFFFFF" points="423.932,247.781 413.386,245.672 413.386,267.818 423.932,270.278 			"/>
			<polygon fill="#FFFFFF" points="387.724,276.254 377.179,274.145 377.179,296.291 387.724,298.752 			"/>
			<polygon fill="#FFFFFF" points="406.355,280.472 395.81,278.364 395.81,300.51 406.355,302.97 			"/>
			<polygon fill="#FFFFFF" points="403.191,317.907 392.646,315.801 392.646,337.947 403.14,340.636 			"/>
			<polygon fill="#FFFFFF" points="423.932,284.339 413.386,282.23 413.386,304.376 423.932,306.837 			"/>
		</g>
	</g>
	<g>
		<polygon fill="#80BFCE" points="580.185,-38.424 467.086,-66.203 467.086,360.395 580.185,390.156 		"/>
		<polygon fill="#265A75" points="678.408,-68.187 580.185,-38.424 580.185,390.156 678.408,343.53 		"/>
		<polygon fill="#8FB9D1" points="467.086,-66.203 566.305,-97.285 678.408,-68.187 580.185,-38.424 		"/>
		<polygon fill="#AACFE0" points="509.425,-62.894 563.66,-82.735 637.074,-66.862 578.871,-46.36 		"/>
		<polygon fill="#80BFCE" points="500.164,-64.875 566.305,-86.701 566.305,-78.764 515.376,-60.246 		"/>
		<polygon fill="#6F889B" points="645.01,-68.844 566.305,-86.701 566.305,-78.764 633.104,-64.215 		"/>
		<g>
			<polygon fill="#FFFFFF" points="504.297,24.077 489.416,21.101 489.416,52.351 504.297,55.824 			"/>
			<polygon fill="#FFFFFF" points="530.588,30.03 515.707,27.054 515.707,58.304 530.588,61.776 			"/>
			<polygon fill="#FFFFFF" points="555.39,35.486 540.509,32.511 540.509,63.76 555.39,67.233 			"/>
			<polygon fill="#FFFFFF" points="504.297,-28.999 489.416,-31.976 489.416,-0.725 504.297,2.748 			"/>
			<polygon fill="#FFFFFF" points="530.588,-23.046 515.707,-26.023 515.707,5.228 530.588,8.7 			"/>
			<polygon fill="#FFFFFF" points="555.39,-17.591 540.509,-20.567 540.509,10.685 555.39,14.156 			"/>
			<polygon fill="#FFFFFF" points="504.297,74.674 489.416,71.697 489.416,102.948 504.297,106.421 			"/>
			<polygon fill="#FFFFFF" points="530.588,80.627 515.707,77.65 515.707,108.901 530.588,112.374 			"/>
			<polygon fill="#FFFFFF" points="555.39,86.082 540.509,83.107 540.509,114.358 555.39,117.829 			"/>
			<polygon fill="#FFFFFF" points="504.297,126.759 489.416,123.781 489.416,155.033 504.297,158.506 			"/>
			<polygon fill="#FFFFFF" points="530.588,132.711 515.707,129.734 515.707,160.986 530.588,164.458 			"/>
			<polygon fill="#FFFFFF" points="555.39,138.168 540.509,135.191 540.509,166.442 555.39,169.914 			"/>
			<polygon fill="#FFFFFF" points="504.297,181.323 489.416,178.347 489.416,209.597 504.297,213.07 			"/>
			<polygon fill="#FFFFFF" points="530.588,187.276 515.707,184.3 515.707,215.55 530.588,219.022 			"/>
			<polygon fill="#FFFFFF" points="555.39,192.732 540.509,189.755 540.509,221.007 555.39,224.479 			"/>
			<polygon fill="#FFFFFF" points="504.297,233.407 489.416,230.432 489.416,261.683 504.297,265.155 			"/>
			<polygon fill="#FFFFFF" points="530.588,239.36 515.707,236.385 515.707,267.636 530.588,271.107 			"/>
			<polygon fill="#FFFFFF" points="555.39,244.817 540.509,241.841 540.509,273.091 555.39,276.564 			"/>
			<polygon fill="#FFFFFF" points="504.297,284.996 489.416,282.021 489.416,313.271 504.297,316.74 			"/>
			<polygon fill="#FFFFFF" points="530.588,290.949 515.707,287.973 515.707,319.223 530.588,322.696 			"/>
			<polygon fill="#FFFFFF" points="527.744,332.097 507.241,327.994 507.241,371.051 527.607,376.273 			"/>
			<polygon fill="#FFFFFF" points="555.39,296.406 540.509,293.429 540.509,324.68 555.39,328.153 			"/>
		</g>
	</g>
	<g>
		<polygon fill="#80BFCE" points="678.7,112.69 598.552,93.004 598.552,395.314 678.7,416.406 		"/>
		<polygon fill="#265A75" points="748.308,91.598 678.7,112.69 678.7,416.406 748.308,383.362 		"/>
		<polygon fill="#8FB9D1" points="598.552,93.004 668.863,70.978 748.308,91.598 678.7,112.69 		"/>
		<polygon fill="#AACFE0" points="628.556,95.35 666.99,81.289 719.016,92.537 677.771,107.066 		"/>
		<polygon fill="#80BFCE" points="621.993,93.945 668.863,78.478 668.863,84.102 632.773,97.225 		"/>
		<polygon fill="#6F889B" points="724.637,91.133 668.863,78.478 668.863,84.102 716.201,94.413 		"/>
		<g>
			<polygon fill="#FFFFFF" points="624.922,156.981 614.376,154.872 614.376,177.018 624.922,179.479 			"/>
			<polygon fill="#FFFFFF" points="643.553,161.2 633.008,159.09 633.008,181.236 643.553,183.697 			"/>
			<polygon fill="#FFFFFF" points="661.13,165.066 650.583,162.957 650.583,185.103 661.13,187.564 			"/>
			<polygon fill="#FFFFFF" points="624.922,119.368 614.376,117.259 614.376,139.405 624.922,141.866 			"/>
			<polygon fill="#FFFFFF" points="643.553,123.587 633.008,121.478 633.008,143.624 643.553,146.084 			"/>
			<polygon fill="#FFFFFF" points="661.13,127.453 650.583,125.344 650.583,147.49 661.13,149.951 			"/>
			<polygon fill="#FFFFFF" points="624.922,192.837 614.376,190.728 614.376,212.873 624.922,215.334 			"/>
			<polygon fill="#FFFFFF" points="643.553,197.055 633.008,194.946 633.008,217.092 643.553,219.552 			"/>
			<polygon fill="#FFFFFF" points="661.13,200.922 650.583,198.813 650.583,220.959 661.13,223.419 			"/>
			<polygon fill="#FFFFFF" points="624.922,229.747 614.376,227.637 614.376,249.783 624.922,252.244 			"/>
			<polygon fill="#FFFFFF" points="643.553,233.965 633.008,231.856 633.008,254.002 643.553,256.462 			"/>
			<polygon fill="#FFFFFF" points="661.13,237.832 650.583,235.722 650.583,257.868 661.13,260.329 			"/>
			<polygon fill="#FFFFFF" points="624.922,268.414 614.376,266.305 614.376,288.451 624.922,290.912 			"/>
			<polygon fill="#FFFFFF" points="643.553,272.632 633.008,270.523 633.008,292.669 643.553,295.13 			"/>
			<polygon fill="#FFFFFF" points="661.13,276.499 650.583,274.39 650.583,296.536 661.13,298.994 			"/>
			<polygon fill="#FFFFFF" points="624.922,305.323 614.376,303.215 614.376,325.361 624.922,327.822 			"/>
			<polygon fill="#FFFFFF" points="643.553,309.539 633.008,307.433 633.008,329.576 643.553,332.037 			"/>
			<polygon fill="#FFFFFF" points="661.13,313.406 650.583,311.3 650.583,333.446 661.13,335.906 			"/>
			<polygon fill="#FFFFFF" points="624.922,341.883 614.376,339.773 614.376,361.919 624.922,364.38 			"/>
			<polygon fill="#FFFFFF" points="643.553,346.101 633.008,343.99 633.008,366.138 643.553,368.598 			"/>
			<polygon fill="#FFFFFF" points="643.201,384.182 632.656,382.073 632.656,404.219 643.15,407.027 			"/>
			<polygon fill="#FFFFFF" points="661.13,349.968 650.583,347.858 650.583,370.004 661.13,372.465 			"/>
		</g>
	</g>
	<g id="Calque_7">
		<g>
			<g>
				<polygon fill="#B75149" points="1185.5,456.334 1062.5,518.564 1062.5,249.801 1185.5,193.667 				"/>
				<polygon fill="#FC8377" points="695.5,422.869 1062.5,518.564 1062.5,249.801 695.5,175.311 				"/>
				<polygon fill="#F4EAD7" points="1187.166,193 1063.714,250.913 695.709,175.311 833.016,120.276 				"/>
				<polygon fill="#B75149" points="831.337,130.119 736.289,169.766 765.207,174.43 831.903,147.378 				"/>
				<polygon fill="#F36C59" points="1125.166,207 831.5,147.378 831.5,130.13 1149.832,195.667 				"/>
				<polygon fill="#F4EAD7" points="935.857,386.552 990.335,399.153 991.447,503.289 938.76,487.356 				"/>
			</g>
			<polygon fill="#FFFFFF" points="708.248,205.632 848.5,235.063 848.5,335.5 708.551,300.691 			"/>
			<polygon fill="#FFFFFF" points="864.248,239.466 1013.5,270.785 1013.5,377.664 864.57,340.625 			"/>
			<polygon fill="#FFFFFF" points="725.166,356.664 849.5,389.334 849.5,366.741 724.606,334.611 			"/>
		</g>
	</g>
	<g>
		<path fill="#27AE60" d="M682.909,553.782c0,0,3.748,11.249,14.061,22.498c10.313,11.249,22.499,33.747,10.312,48.745
			c-12.188,14.996-15.938,15.938-25.312,15.938C672.599,640.963,682.909,553.782,682.909,553.782z"/>
		<path fill="#A8D164" d="M682.909,553.782c0,0,8.437,31.872,10.312,51.56c1.787,18.756-0.938,34.684-11.249,35.621
			c-10.312,0.938-34.225-12.781-26.248-39.371C661.35,582.844,666.036,583.781,682.909,553.782z"/>
	</g>
	<g>
		<path fill="#27AE60" d="M1107.372,563.425c0,0,5.662,20.909,21.243,41.814c15.578,20.91,33.989,62.729,15.578,90.607
			c-18.408,27.876-24.073,29.62-38.236,29.62C1091.791,725.47,1107.372,563.425,1107.372,563.425z"/>
		<path fill="#A8D164" d="M1107.372,563.425c0,0,12.745,59.244,15.579,95.834c2.702,34.86-1.415,64.468-16.994,66.211
			c-15.582,1.742-51.707-23.758-39.656-73.186C1074.8,617.441,1081.877,619.181,1107.372,563.425z"/>
	</g>
	<polygon fill="#F0B85F" points="1699.039,800 -0.5,800.254 -0.5,261.667 1699.059,708.746 	"/>
	<g>
		<polygon fill="#80BFCE" points="1097.926,253.415 1097.926,521.746 1307.624,579.391 1304.642,304.1 		"/>
		<polygon fill="#8FB9D1" points="1367.253,-144.116 1581.919,-74.548 1277.808,23.841 1064.136,-34.889 		"/>
		<polygon fill="#95C9D1" points="1083.018,-22.869 1082.022,260.554 1287.747,315.031 1287.747,36.76 1277.808,37.754 		"/>
		<polygon fill="#265A75" points="1277.808,19.865 1580.927,-75.542 1580.927,474.045 1307.624,579.391 1303.646,310.063 
			1287.747,315.031 1287.747,36.76 1277.808,37.754 		"/>
		<polygon fill="#265A75" points="1064.136,-34.889 1277.808,19.865 1277.808,37.754 1066.076,-16.512 		"/>
		<polygon fill="none" points="1064.136,-47.715 1368.247,-144.116 1580.927,-75.542 1277.808,23.841 		"/>
		<polygon fill="none" points="1098.46,-45.209 1366.583,-130.203 1554.093,-69.744 1281.783,10.921 		"/>
		<polygon fill="#80BFCE" points="1366.583,-130.203 1366.583,-108.673 1146.651,-30.648 1116.967,-39.13 		"/>
		<polygon fill="#6F889B" points="1366.583,-130.203 1538.191,-75.542 1504.401,-63.616 1366.583,-108.673 		"/>
		<polygon fill="#AACFE0" points="1366.756,-113.805 1512.354,-66.101 1279.3,2.97 1140.998,-30.648 		"/>
		<g>
			<polygon fill="#FFFFFF" points="1097.265,172.78 1097.265,243.745 1122.494,251.35 1122.128,180.151 			"/>
			<polygon fill="#FFFFFF" points="1134.034,182.795 1134.034,253.761 1159.266,261.366 1158.897,190.167 			"/>
			<polygon fill="#FFFFFF" points="1170.808,191.396 1170.808,262.362 1196.039,269.968 1195.67,198.769 			"/>
			<polygon fill="#FFFFFF" points="1244.681,212.014 1244.681,282.98 1269.91,290.585 1269.543,219.386 			"/>
			<polygon fill="#FFFFFF" points="1207.58,201.502 1207.58,272.468 1232.809,280.073 1232.441,208.874 			"/>
			<polygon fill="#FFFFFF" points="1111.84,433.737 1111.84,504.699 1137.071,512.307 1136.703,441.109 			"/>
			<polygon fill="#FFFFFF" points="1141.654,443.013 1141.654,513.979 1166.885,521.58 1166.518,450.385 			"/>
			<polygon fill="#FFFFFF" points="1115.813,314.477 1115.813,385.443 1141.045,393.048 1140.68,321.85 			"/>
			<polygon fill="#FFFFFF" points="1160.205,325.076 1160.205,396.045 1185.437,403.65 1185.068,332.448 			"/>
			<polygon fill="#FFFFFF" points="1209.229,338.326 1209.229,409.294 1234.463,416.9 1234.096,345.698 			"/>
			<polygon fill="#FFFFFF" points="1256.937,351.576 1256.937,422.544 1282.163,430.149 1281.798,358.948 			"/>
			<polygon fill="#FFFFFF" points="1097.265,91.781 1097.265,162.748 1122.494,170.354 1122.128,99.155 			"/>
			<polygon fill="#FFFFFF" points="1134.034,101.798 1134.034,172.764 1159.266,180.369 1158.897,109.17 			"/>
			<polygon fill="#FFFFFF" points="1170.808,110.4 1170.808,181.365 1196.039,188.97 1195.67,117.772 			"/>
			<polygon fill="#FFFFFF" points="1207.58,121.829 1207.58,192.794 1232.809,200.399 1232.441,129.201 			"/>
			<polygon fill="#FFFFFF" points="1244.351,131.844 1244.351,202.81 1269.581,210.415 1269.214,139.216 			"/>
			<polygon fill="#FFFFFF" points="1097.265,10.785 1097.265,81.751 1122.494,89.356 1122.128,18.158 			"/>
			<polygon fill="#FFFFFF" points="1134.034,20.801 1134.034,91.767 1159.266,99.372 1158.897,28.173 			"/>
			<polygon fill="#FFFFFF" points="1170.808,29.403 1170.808,100.368 1196.039,107.973 1195.67,36.775 			"/>
			<polygon fill="#FFFFFF" points="1207.58,40.832 1207.58,111.797 1232.809,119.403 1232.441,48.204 			"/>
			<polygon fill="#FFFFFF" points="1244.351,50.847 1244.351,121.813 1269.581,129.418 1269.214,58.219 			"/>
		</g>
		<polygon fill="#FFFFFF" points="1195.322,449.198 1195.308,548.405 1242.499,561.471 1243.025,460.037 		"/>
		<path fill="#E1E7EA" d="M1286.754,330.933"/>
	</g>
	<g>
		<ellipse fill="#B75149" cx="805.051" cy="519.698" rx="10.853" ry="11.833"/>
		<polygon fill="#FC8377" points="675.499,485.271 697.196,477.025 691.815,492.266 		"/>
		<path fill="#F36C59" d="M699.168,451.561l-8.604,36.939l-15.062-3.229l-1.076,29.766l5.737,1.076c0,0,4.667-8.285,11.834-7.173
			c10.401,1.615,12.729,8.249,13.809,12.192l35.503,7.173c0,0,2.33-8.784,11.654-7.893c13.31,1.276,13.629,12.73,13.629,12.73
			l8.965,1.612l9.324-30.124l-22.231-30.481l-15.425-24.026L699.168,451.561z"/>
		<polygon fill="#FC8377" points="740.409,460.169 699.168,451.561 745.07,435.424 786.312,443.672 		"/>
		<polygon fill="#D85F52" points="740.409,460.169 751.167,500.33 797.429,483.838 786.312,443.672 		"/>
		<polygon fill="#FC8377" points="775.194,509.656 751.167,500.33 797.429,483.838 821.099,493.521 		"/>
		<polygon fill="#D85F52" points="821.099,493.521 821.099,518.265 775.554,534.761 775.554,509.656 		"/>
		<polygon fill="#F4EAD7" points="782.009,449.051 791.691,482.045 753.677,495.315 744.712,461.961 		"/>
		<polygon fill="#F4EAD7" points="711.629,457.299 711.629,488.5 718.532,489.979 718.532,458.78 		"/>
		<polygon fill="#F4EAD7" points="721.043,459.448 721.043,490.651 745.788,495.673 736.464,462.679 		"/>
		<ellipse fill="#B75149" cx="753.947" cy="532.429" rx="13.312" ry="14.524"/>
		<ellipse fill="#B75149" cx="692.085" cy="520.955" rx="13.479" ry="14.704"/>
	</g>
	<rect x="-8.5" y="545" display="none" fill="#FFFFFF" width="1275" height="253"/>
	<g>
		<path fill="#27AE60" d="M672.894,376.947c0,0,2.384,7.142,8.928,14.276c6.544,7.139,14.274,21.417,6.544,30.934
			c-7.734,9.521-10.112,10.112-16.062,10.112S672.894,376.947,672.894,376.947z"/>
		<path fill="#A8D164" d="M672.894,376.947c0,0,5.354,20.229,6.545,32.719c1.138,11.902-0.595,22.013-7.14,22.604
			c-6.544,0.596-21.719-8.11-16.656-24.985C659.212,395.387,662.186,395.982,672.894,376.947z"/>
		<g>
			<path fill="#27AE60" d="M1370.632,464.219c0,0,5.067,18.462,19.005,36.922c13.938,18.462,30.407,55.388,13.938,80
				c-16.474,24.613-21.537,26.153-34.206,26.153C1356.696,607.294,1370.632,464.219,1370.632,464.219z"/>
			<path fill="#A8D164" d="M1370.632,464.219c0,0,11.402,52.309,13.938,84.615c2.417,30.779-1.268,56.92-15.201,58.46
				c-13.938,1.538-46.256-20.979-35.479-64.614C1341.494,511.908,1347.826,513.448,1370.632,464.219z"/>
		</g>
	</g>
</g>
<g id="Calque_3">
</g>
<g id="Calque_5">
</g>
<g id="Calque_4">
</g>
<g>
	<path fill="#243C5E" d="M661.3,753.358c0.033-0.052,11.864,6.84,16.858,10.318c4.992,3.479,10.995,10.29,13.614,14.223
		c1.765,2.647,7.563,10.442,7.563,10.442s4.691-18.461,5.448-19.217c0.755-0.759,3.631,4.839,7.868,5.443
		c4.234,0.605,9.477-2.021,9.531-1.514c0.059,0.511-2.422,24.514-3.632,29.054c-1.211,4.538-4.54,13.771-11.5,13.922
		c-6.961,0.152-20.882-10.744-22.546-10.744s-2.925,29.709-2.925,29.709l-61.938,0.001l-0.2-15.485c0,0-1.918,6.856-2.726,13.313
		c-0.148,1.211-16.947,0.151-16.947,0.151s8.777-48.725,12.562-57.35c3.783-8.624,16.645-12.859,20.882-16.646
		c4.236-3.781,5.9-5.75,5.9-5.75l1.756,16.111c0.062,3.537,5.271,30.483,5.399,31.45c1.063,7.962,1.924,15.534,2.68,16.897
		c0.757,1.36,4.688-16.947,5.899-23.908c1.21-6.959,5.603-23.755,6.056-30.108C661.357,757.321,661.3,753.358,661.3,753.358z"/>
	<g>
		<path fill="#F9CDAF" d="M638.961,749.959c0,0,0.099,2.771,0.213,4.085c0.113,1.312,8.747,9.017,10.453,9.219
			c1.708,0.202,11.664-9.157,11.664-9.157c0.229-0.908-0.361-4.146-0.361-4.146H638.961z"/>
		<path fill="#F0F0F2" d="M661.25,753.405L661.25,753.405c0,0-9.533,8.477-11.196,8.775c-1.667,0.304-9.959-7.79-10.94-8.925l0,0
			l5.495,47.28l4.537,15.812l11.198-25.42l2.646-14.903l-0.907-7.867L661.25,753.405z"/>
		
			<ellipse transform="matrix(-0.3375 0.9413 -0.9413 -0.3375 1585.9584 316.7061)" fill="#F9CDAF" cx="681.532" cy="716.442" rx="7.969" ry="5.649"/>
		
			<ellipse transform="matrix(0.427 0.9043 -0.9043 0.427 1001.594 -150.3719)" fill="#F9CDAF" cx="619.446" cy="715.108" rx="7.972" ry="5.649"/>
		<path fill="#F9CDAF" d="M618.537,712.349c0,22.331,14.021,40.433,31.323,40.433l0,0c17.297,0,31.317-18.102,31.317-40.433v-7.808
			c0-22.329-14.021-40.433-31.317-40.433l0,0c-17.304,0-31.323,18.104-31.323,40.433V712.349z"/>
		<path fill="#F9CDAF" d="M708.113,769.929c0,0,1.612-7.866,0.907-9.277c-0.704-1.415-3.125-6.964-4.64-8.979
			c-1.515-2.02-2.826-4.641-0.708-4.739c2.119-0.104,5.448,2.823,7.969,3.833c2.522,1.008,7.567-1.312,11.5-2.825
			c3.937-1.514,5.65-3.026,8.879-2.521c3.229,0.504,9.383,1.715,8.069,3.43c-1.312,1.716-14.524,12.911-17.048,14.627
			c-2.521,1.715-3.229,4.54-3.33,6.354c-0.1,1.816,0.606,4.438-0.704,5.448c-1.312,1.01-6.354,1.917-8.374,0.808
			C708.618,774.973,708.113,769.929,708.113,769.929z"/>
		<path fill="#FFFFFF" d="M722.171,773.038l-9.999,3.111l-7.413-6.891c0,0,0.33-1.254,0.688-1.367
			c0.356-0.112,3.068,2.792,6.194,3.701c3.128,0.906,10.395-0.562,10.618-0.354C722.489,771.448,722.171,773.038,722.171,773.038z"
			/>
		<polygon fill="#669CA4" points="651.008,771.141 654.337,793.785 648.788,820.166 643.542,794.343 647.78,770.739 		"/>
		<path fill="#152435" d="M661.396,753.393c0,0,9.646,13.534,9.646,16.487c0,0.229-7.716,0.149-7.867,0.302
			c-0.148,0.15,6.355,3.405,6.884,5.521c0.529,2.12-20.427,40.854-20.88,41.688c-0.455,0.833-22.017-40.475-21.638-41.987
			c0.377-1.517,6.658-3.479,6.809-3.937c0.152-0.453-5.372-0.982-6.583-1.438c-1.209-0.455,11.119-16.852,11.351-16.773
			c0.228,0.075,10.012,61.782,10.012,61.782S660.061,752.219,661.396,753.393z"/>
		<path fill="#0E0E23" d="M651.824,825.864c0,1.173-0.948,2.12-2.117,2.12c-1.17,0-2.119-0.946-2.119-2.12
			c0-1.169,0.949-2.117,2.119-2.117C650.876,823.744,651.824,824.695,651.824,825.864z"/>
		<path fill="#669CA4" d="M645.468,768.195c0,2.285,1.854,4.138,4.14,4.138l0,0c2.281,0,4.136-1.854,4.136-4.138v-1.813
			c0-2.283-1.854-4.137-4.136-4.137l0,0c-2.283,0-4.14,1.854-4.14,4.137V768.195z"/>
		<path fill="#FFEADC" stroke="#152435" stroke-width="0.8392" stroke-miterlimit="10" d="M654.146,718.888
			c0,2.452,1.985,4.438,4.438,4.438h10.085c2.452,0,4.438-1.984,4.438-4.438v-4.439c0-2.449-1.986-4.438-4.438-4.438h-10.085
			c-2.453,0-4.438,1.986-4.438,4.438V718.888z"/>
		<path fill="#FFEADC" stroke="#152435" stroke-width="0.8392" stroke-miterlimit="10" d="M626.504,718.888
			c0,2.452,1.989,4.438,4.439,4.438h10.086c2.451,0,4.438-1.984,4.438-4.438v-4.439c0-2.449-1.984-4.438-4.438-4.438h-10.086
			c-2.451,0-4.439,1.986-4.439,4.438V718.888z"/>
		
			<line fill="none" stroke="#152435" stroke-width="0.8392" stroke-miterlimit="10" x1="654.428" y1="712.754" x2="645.172" y2="712.754"/>
		
			<line fill="none" stroke="#152435" stroke-width="0.8392" stroke-miterlimit="10" x1="627.127" y1="712.867" x2="616.857" y2="709.662"/>
		
			<line fill="none" stroke="#152435" stroke-width="0.8392" stroke-miterlimit="10" x1="672.818" y1="712.904" x2="683.088" y2="709.698"/>
		<path fill="#77543A" d="M681.08,679.038c2.839,5.346,4.842,15.231,4.338,19.873c-0.746,6.866-1.614,9.888-2.624,13.618
			c-1.009,3.732-3.141,11.795-3.141,11.795s0.359-23.207-0.256-29.026c-0.432-4.03-4.474-11.312-5.179-11.11
			c-0.706,0.201-6.257,5.901-9.194,7.142c-5.358,2.262-15.438,5.242-16.075,4.666c-0.64-0.576,12.523-10.645,12.523-10.645l0,0
			c0.113,0.101,0,0,0,0c-0.906,0.604-30.428,12.153-34.161,13.062c-3.73,0.908-5.31,2.854-5.886,4.521
			c-0.71,2.054-1.233,4.714-1.63,8.23c-0.347,3.108-0.171,11.834-0.171,11.834s-2.604-8.344-3.812-12.178
			c-1.212-3.832-2.091-8.776-2.223-12.912c-0.312-9.854,5.09-21.305,13.821-26.327c9.86-5.675,22.985-12.85,41.561-4.54
			C672.808,668.753,678.558,674.297,681.08,679.038z"/>
	</g>
</g>
<path fill="#F4EAD7" d="M818.553,612.74c-58.514,0-105.946,27.427-105.946,61.261c0,5.896,1.443,11.6,4.136,16.994l-12.242,17.63
	l27.947,1.07c19.228,15.479,50.628,25.562,86.104,25.562c58.514,0,105.947-27.428,105.947-61.261
	C924.5,640.166,877.065,612.74,818.553,612.74z"/>
<rect x="663.583" y="781.842" fill="#D1D3D3" stroke="#669CA4" stroke-width="0.5" stroke-miterlimit="10" width="15.5" height="8.5"/>
<g>
	<path fill="#152435" d="M666.365,783.685h0.521v2.705c0,1.072-0.524,1.403-1.223,1.403c-0.192,0-0.426-0.042-0.559-0.097
		l0.076-0.427c0.108,0.041,0.266,0.076,0.438,0.076c0.467,0,0.743-0.21,0.743-1.001L666.365,783.685L666.365,783.685z"/>
	<path fill="#152435" d="M668.034,786.369c0.012,0.715,0.468,1.01,0.996,1.01c0.377,0,0.604-0.064,0.804-0.148l0.09,0.377
		c-0.186,0.084-0.503,0.181-0.965,0.181c-0.894,0-1.427-0.588-1.427-1.464c0-0.875,0.516-1.563,1.359-1.563
		c0.947,0,1.199,0.834,1.199,1.367c0,0.105-0.012,0.189-0.018,0.243L668.034,786.369L668.034,786.369z M669.582,785.992
		c0.006-0.336-0.138-0.856-0.731-0.856c-0.531,0-0.768,0.491-0.81,0.856H669.582z"/>
	<path fill="#152435" d="M672.354,787.727l-0.041-0.364h-0.02c-0.162,0.229-0.474,0.434-0.888,0.434c-0.587,0-0.89-0.414-0.89-0.834
		c0-0.701,0.624-1.086,1.745-1.079v-0.062c0-0.237-0.063-0.672-0.656-0.672c-0.271,0-0.555,0.084-0.758,0.217l-0.117-0.349
		c0.237-0.155,0.588-0.259,0.951-0.259c0.89,0,1.104,0.604,1.104,1.188v1.087c0,0.252,0.012,0.497,0.048,0.695L672.354,787.727
		L672.354,787.727z M672.275,786.244c-0.576-0.013-1.229,0.092-1.229,0.653c0,0.343,0.229,0.504,0.498,0.504
		c0.377,0,0.618-0.239,0.702-0.485c0.018-0.054,0.03-0.112,0.03-0.169L672.275,786.244L672.275,786.244z"/>
	<path fill="#152435" d="M673.638,785.61c0-0.301-0.006-0.546-0.021-0.785h0.468l0.03,0.479h0.012
		c0.146-0.275,0.479-0.546,0.959-0.546c0.401,0,1.025,0.237,1.025,1.234v1.731h-0.528v-1.673c0-0.47-0.174-0.857-0.672-0.857
		c-0.347,0-0.617,0.246-0.708,0.54c-0.024,0.065-0.036,0.155-0.036,0.245v1.744h-0.528V785.61L673.638,785.61L673.638,785.61z"/>
</g>
<rect x="39.5" y="396.505" fill="none" width="459" height="36.449"/>
<text transform="matrix(1 0 0 1 39.5 432.793)" fill="#265A75" font-family="'Avenir-Heavy'" font-size="48">Boulot, </text>
<text transform="matrix(1 0 0 1 216.2798 432.793)" fill="#265A75" font-family="'Avenir-BlackOblique'" font-size="48">conso</text>
<text transform="matrix(1 0 0 1 347.75 432.793)" fill="#265A75" font-family="'Avenir-Heavy'" font-size="48">, dodo</text>
<polygon fill="none" points="915.5,752.5 735.833,752.5 735.833,640.5 896.5,640.5 "/>
<text transform="matrix(1 0 0 1 739.4751 649.5723)" fill="#243C5E" font-family="'Avenir-Heavy'" font-size="12">Bonjour, je m&apos;appelle Jean.</text>
<text transform="matrix(1 0 0 1 755.708 663.9707)" fill="#243C5E" font-family="'Avenir-Heavy'" font-size="12">Pour tout savoir sur la </text>
<text transform="matrix(1 0 0 1 740.8022 678.3721)" fill="#243C5E" font-family="'Avenir-Heavy'" font-size="12"> consommation d&apos;électricité </text>
<text transform="matrix(1 0 0 1 735.9092 692.7715)" fill="#243C5E" font-family="'Avenir-Heavy'" font-size="12">au travail, suivez-moi au cours </text>
<text transform="matrix(1 0 0 1 747.144 707.1719)" fill="#243C5E" font-family="'Avenir-Heavy'" font-size="12">de ma journée au bureau !</text>
<rect x="1177.542" y="684.683" fill="none" width="425.289" height="111.317"/>
<text transform="matrix(1 0 0 1 1177.543 712.0664)" fill="#265A75" font-family="'Avenir-LightOblique'" font-size="14">* Ces données, comme l’ensemble des données de notre étude, </text>
<text transform="matrix(1 0 0 1 1177.543 728.8662)" fill="#265A75" font-family="'Avenir-LightOblique'" font-size="14">émanent d’audits réalisés d’octobre 2012 à novembre 2014 par </text>
<text transform="matrix(1 0 0 1 1177.543 745.666)" fill="#265A75" font-family="'Avenir-LightOblique'" font-size="14">KaliTerre auprès de 45 organisations françaises issues des secteurs </text>
<text transform="matrix(1 0 0 1 1177.543 762.4668)" fill="#265A75" font-family="'Avenir-LightOblique'" font-size="14">suivants : administrations, services, industries, établissements </text>
<text transform="matrix(1 0 0 1 1177.543 779.2656)" fill="#265A75" font-family="'Avenir-LightOblique'" font-size="14">d’enseignement et de recherche, ainsi que des centres hospitaliers.</text>
<rect x="26.62" y="515.354" fill="none" width="472.477" height="71.997"/>
<text transform="matrix(1 0 0 1 134.1211 542.5703)" fill="#265A75" font-family="'Avenir-Oblique'" font-size="36">Le saviez-vous ?</text>
<rect x="41.489" y="455" fill="none" width="371.018" height="49.504"/>
<text transform="matrix(1 0 0 1 41.4893 468.6084)" fill="#265A75" font-family="'Avenir-Roman'" font-size="18">La consommation énergétique du matériel </text>
<text transform="matrix(1 0 0 1 41.4893 490.208)" fill="#265A75" font-family="'Avenir-Roman'" font-size="18">informatique des entreprises à la loupe.</text>
<g id="VKKTpX_2_">
	<g>
		<path fill="#C89A50" d="M805.655,362.839c-0.311,0.979-0.62,1.957-0.93,2.935c-0.447,1.418-0.896,2.836-1.347,4.255
			c-0.278,0.884-0.562,1.766-0.834,2.654c-0.038,0.129-0.097,0.161-0.243,0.125c-0.744-0.185-1.488-0.369-2.233-0.536
			c-0.21-0.047-0.243-0.172-0.285-0.318c-0.316-1.107-0.632-2.214-0.95-3.32c-0.32-1.116-0.646-2.232-0.968-3.348
			c-0.412-1.445-0.821-2.891-1.232-4.335c-0.024-0.088-0.062-0.177-0.127-0.266c0.006,0.743,0.006,1.485,0.019,2.23
			c0.034,2.401,0.076,4.803,0.115,7.205c0.008,0.378,0.021,0.758,0.04,1.139c0.009,0.153-0.055,0.186-0.211,0.148
			c-1.062-0.26-2.123-0.518-3.184-0.764c-0.23-0.054-0.224-0.171-0.224-0.319c-0.01-1.42-0.02-2.841-0.029-4.261
			c-0.024-3.292-0.048-6.583-0.071-9.875c-0.002-0.317-0.002-0.309,0.343-0.226c1.491,0.361,2.979,0.722,4.472,1.071
			c0.191,0.046,0.275,0.12,0.331,0.304c0.465,1.588,0.937,3.177,1.409,4.765c0.523,1.756,1.056,3.512,1.589,5.284
			c0.099-0.022,0.099-0.106,0.118-0.173c0.386-1.147,0.767-2.294,1.146-3.442c0.409-1.243,0.815-2.487,1.229-3.73
			c0.142-0.429,0.302-0.849,0.434-1.283c0.052-0.171,0.155-0.183,0.337-0.139c1.376,0.336,2.753,0.665,4.127,0.996
			c0.674,0.162,0.674,0.161,0.678,0.79c0.032,4.589,0.064,9.177,0.104,13.768c0.002,0.245-0.057,0.308-0.328,0.237
			c-1.001-0.256-1.998-0.491-2.999-0.723c-0.212-0.049-0.289-0.119-0.288-0.329c0.01-1.3-0.016-2.609,0.013-3.905
			c0.023-1.166-0.013-2.346,0.023-3.508C805.729,364.92,805.697,363.881,805.655,362.839z"/>
		<path fill="#C89A50" d="M742.471,353.233c0.204-0.911,0.406-1.822,0.609-2.734c0.217-0.979,0.436-1.958,0.652-2.939
			c0.229-1.026,0.461-2.05,0.674-3.083c0.048-0.232,0.162-0.246,0.403-0.185c1.104,0.279,2.208,0.542,3.312,0.796
			c0.318,0.073,0.355,0.1,0.278,0.369c-0.336,1.161-0.68,2.317-1.015,3.478c-0.504,1.746-1.002,3.494-1.507,5.239
			c-0.326,1.123-0.661,2.241-0.989,3.363c-0.113,0.391-0.226,0.784-0.331,1.18c-0.036,0.14-0.104,0.188-0.281,0.143
			c-1.009-0.251-2.018-0.491-3.024-0.729c-0.158-0.038-0.241-0.085-0.285-0.269c-0.469-2.002-0.951-4.004-1.428-6.005
			c-0.285-1.191-0.562-2.381-0.844-3.572c-0.011-0.042-0.031-0.084-0.068-0.186c-0.15,0.592-0.29,1.138-0.428,1.684
			c-0.539,2.116-1.076,4.231-1.612,6.348c-0.044,0.172-0.105,0.338-0.122,0.52c-0.021,0.247-0.129,0.305-0.408,0.232
			c-0.99-0.255-1.981-0.487-2.973-0.715c-0.197-0.045-0.268-0.128-0.315-0.313c-0.447-1.743-0.908-3.485-1.363-5.228
			c-0.584-2.245-1.166-4.491-1.748-6.736c-0.273-1.055-0.539-2.109-0.817-3.165c-0.053-0.202-0.051-0.281,0.202-0.218
			c1.167,0.292,2.332,0.571,3.498,0.84c0.199,0.046,0.255,0.138,0.289,0.302c0.363,1.746,0.73,3.493,1.097,5.239
			c0.312,1.476,0.625,2.952,0.942,4.456c0.119-0.136,0.123-0.308,0.16-0.458c0.442-1.79,0.881-3.582,1.32-5.373
			c0.231-0.949,0.469-1.896,0.692-2.848c0.037-0.16,0.106-0.208,0.291-0.162c0.859,0.212,1.72,0.417,2.578,0.618
			c0.154,0.036,0.229,0.091,0.266,0.255c0.423,1.882,0.851,3.765,1.282,5.647c0.271,1.182,0.554,2.364,0.829,3.546
			c0.051,0.219,0.097,0.438,0.146,0.657C742.445,353.231,742.459,353.232,742.471,353.233z"/>
		<path fill="#C89A50" d="M841.906,376.414c-0.025-1.209-0.054-2.419-0.079-3.629c-0.021-0.939-0.027-1.875-0.066-2.817
			c-0.029-0.72-0.039-1.434-0.058-2.15c-0.004-0.172,0.046-0.219,0.231-0.173c1.087,0.269,2.174,0.533,3.261,0.786
			c0.215,0.05,0.265,0.133,0.266,0.322c0.028,4.735,0.064,9.472,0.104,14.209c0.004,0.204-0.076,0.229-0.271,0.18
			c-0.973-0.241-1.943-0.472-2.919-0.703c-0.158-0.038-0.267-0.09-0.362-0.26c-0.634-1.116-1.283-2.228-1.929-3.341
			c-0.893-1.538-1.782-3.076-2.674-4.615c-0.383-0.66-0.763-1.322-1.145-1.982c-0.019-0.032-0.036-0.065-0.053-0.094
			c-0.115,0.043-0.074,0.135-0.068,0.201c0.065,0.916,0.043,1.812,0.067,2.719c0.052,1.863,0.098,3.724,0.148,5.586
			c0.01,0.34,0.013,0.341-0.35,0.255c-1.043-0.251-2.084-0.506-3.129-0.748c-0.215-0.05-0.284-0.123-0.285-0.33
			c-0.027-4.727-0.06-9.455-0.099-14.185c-0.002-0.224,0.071-0.254,0.297-0.197c0.956,0.242,1.911,0.468,2.867,0.69
			c0.16,0.037,0.251,0.108,0.335,0.255c1.021,1.813,2.042,3.626,3.068,5.437c0.854,1.506,1.713,3.01,2.568,4.515
			c0.021,0.086,0.037,0.173,0.139,0.229c0.013,0.022,0.027,0.044,0.043,0.066c0.011,0.046,0.009,0.109,0.068,0.125
			c0.06,0.015,0.034-0.051,0.038-0.084c0.005-0.037-0.004-0.079-0.006-0.118c-0.003-0.035-0.005-0.07-0.005-0.104
			C841.921,376.446,841.918,376.43,841.906,376.414z"/>
		<path fill="#C89A50" d="M767.766,357.135c-0.016-2.331-0.032-4.661-0.05-6.992c-0.003-0.341-0.003-0.335,0.365-0.247
			c1.612,0.39,3.226,0.78,4.837,1.164c1.018,0.242,2.033,0.502,3.021,1.011c2.067,1.067,3.524,2.652,4.4,4.693
			c0.634,1.477,0.794,2.908,0.694,4.319c-0.075,1.083-0.338,2.071-0.86,2.926c-0.706,1.159-1.771,1.905-3.241,2.148
			c-0.938,0.155-1.927,0.091-2.955-0.16c-1.927-0.471-3.854-0.93-5.782-1.393c-0.373-0.09-0.375-0.091-0.377-0.43
			C767.799,361.829,767.783,359.482,767.766,357.135z M771.705,358.098c0,0.099,0.001,0.197,0.002,0.296
			c0.01,1.173,0.016,2.346,0.028,3.52c0.001,0.105-0.044,0.237,0.158,0.281c0.778,0.17,1.562,0.43,2.332,0.499
			c1.459,0.131,2.361-0.461,2.714-1.699c0.311-1.096,0.285-2.28-0.141-3.538c-0.409-1.205-1.214-2.109-2.451-2.653
			c-0.806-0.354-1.624-0.456-2.437-0.682c-0.209-0.058-0.24,0.01-0.238,0.186C771.691,355.573,771.696,356.835,771.705,358.098z"/>
		<path fill="#C89A50" d="M823.607,377.922c-0.632-0.152-1.264-0.307-1.895-0.453c-0.157-0.036-0.223-0.1-0.271-0.26
			c-0.195-0.642-0.418-1.283-0.621-1.925c-0.039-0.128-0.109-0.178-0.229-0.207c-1.658-0.396-3.313-0.793-4.971-1.196
			c-0.149-0.036-0.22,0.004-0.265,0.117c-0.213,0.537-0.433,1.069-0.638,1.61c-0.045,0.123-0.117,0.151-0.259,0.116
			c-1.271-0.307-2.543-0.612-3.812-0.912c-0.187-0.044-0.205-0.114-0.146-0.244c0.23-0.508,0.451-1.023,0.684-1.531
			c0.562-1.228,1.127-2.453,1.688-3.681c0.723-1.569,1.441-3.139,2.158-4.711c0.441-0.974,0.886-1.949,1.316-2.928
			c0.062-0.135,0.145-0.189,0.323-0.146c0.895,0.216,1.788,0.422,2.684,0.633c0.158,0.038,0.26,0.111,0.327,0.292
			c0.538,1.429,1.095,2.855,1.642,4.283c0.593,1.544,1.18,3.09,1.771,4.634c0.763,1.99,1.528,3.98,2.296,5.97
			c0.106,0.276,0.207,0.554,0.318,0.83c0.076,0.179,0.033,0.226-0.155,0.179C824.903,378.23,824.255,378.078,823.607,377.922
			C823.606,377.925,823.607,377.923,823.607,377.922z M818.092,366.593c-0.017-0.003-0.034-0.007-0.051-0.01
			c-0.009,0.029-0.012,0.061-0.023,0.089c-0.485,1.408-0.969,2.816-1.456,4.223c-0.039,0.118-0.062,0.21,0.139,0.259
			c0.928,0.227,1.854,0.457,2.784,0.686c0.124,0.03,0.176-0.013,0.145-0.138c-0.021-0.076-0.039-0.152-0.06-0.229
			c-0.323-1.072-0.646-2.144-0.97-3.215C818.431,367.703,818.261,367.148,818.092,366.593z"/>
		<path fill="#C89A50" d="M782.713,360.729c-0.016-2.348-0.029-4.695-0.057-7.044c-0.002-0.227,0.061-0.274,0.304-0.215
			c2.655,0.646,5.312,1.284,7.966,1.917c0.223,0.053,0.288,0.137,0.289,0.339c-0.003,0.925,0.003,1.853,0.019,2.783
			c0.005,0.206-0.062,0.252-0.281,0.199c-1.408-0.347-2.82-0.68-4.232-1.026c-0.201-0.05-0.272-0.027-0.267,0.175
			c0.018,0.602,0.022,1.202,0.013,1.798c-0.004,0.202,0.074,0.257,0.272,0.303c1.357,0.318,2.717,0.653,4.075,0.97
			c0.218,0.052,0.303,0.107,0.301,0.337c-0.01,0.932,0,1.868,0.018,2.806c0.003,0.197-0.062,0.23-0.267,0.18
			c-1.366-0.336-2.734-0.656-4.103-0.995c-0.226-0.056-0.274-0.001-0.271,0.198c0.017,0.667,0.025,1.333,0.013,1.994
			c-0.004,0.228,0.081,0.287,0.301,0.338c1.396,0.327,2.788,0.671,4.183,0.996c0.244,0.057,0.312,0.144,0.312,0.368
			c-0.006,0.917,0.003,1.836,0.021,2.758c0.004,0.207-0.065,0.247-0.282,0.195c-2.664-0.646-5.328-1.287-7.992-1.921
			c-0.219-0.052-0.283-0.13-0.285-0.335C782.748,365.474,782.729,363.101,782.713,360.729
			C782.712,360.729,782.712,360.729,782.713,360.729z"/>
		<path fill="#C89A4F" d="M749.652,352.808c-0.018-2.332-0.035-4.664-0.051-6.995c-0.003-0.36-0.003-0.357,0.389-0.263
			c2.595,0.625,5.189,1.248,7.784,1.871c0.359,0.086,0.359,0.085,0.361,0.411c0.008,0.912,0.008,1.821,0.025,2.735
			c0.005,0.212-0.068,0.241-0.281,0.189c-1.411-0.347-2.822-0.677-4.234-1.026c-0.223-0.055-0.279-0.007-0.272,0.195
			c0.018,0.586,0.022,1.169,0.012,1.748c-0.006,0.22,0.072,0.287,0.299,0.339c1.359,0.316,2.719,0.653,4.076,0.97
			c0.225,0.053,0.281,0.132,0.28,0.333c-0.002,0.925,0.004,1.853,0.021,2.783c0.004,0.205-0.062,0.252-0.279,0.198
			c-1.368-0.336-2.735-0.655-4.103-0.992c-0.209-0.052-0.271-0.021-0.266,0.179c0.021,0.685,0.023,1.367,0.018,2.045
			c-0.002,0.188,0.06,0.249,0.255,0.295c1.43,0.336,2.856,0.688,4.285,1.022c0.204,0.047,0.251,0.113,0.25,0.292
			c-0.002,0.95,0.005,1.903,0.021,2.857c0.002,0.179-0.063,0.205-0.239,0.163c-2.683-0.648-5.366-1.293-8.048-1.932
			c-0.221-0.053-0.256-0.146-0.256-0.325C749.687,357.537,749.668,355.172,749.652,352.808
			C749.651,352.808,749.651,352.808,749.652,352.808z"/>
		<path fill="#C89A4F" d="M826.872,371.368c-0.018-2.347-0.029-4.692-0.058-7.042c-0.003-0.244,0.06-0.307,0.328-0.238
			c1.097,0.278,2.191,0.539,3.288,0.795c0.22,0.051,0.305,0.119,0.306,0.345c0.027,4.717,0.062,9.436,0.104,14.155
			c0,0.229-0.073,0.271-0.312,0.211c-1.095-0.273-2.189-0.538-3.284-0.789c-0.249-0.057-0.325-0.13-0.328-0.374
			C826.909,376.079,826.889,373.724,826.872,371.368z"/>
		<path fill="#F8F8F8" d="M841.773,376.574c-0.102-0.057-0.117-0.144-0.139-0.229C841.743,376.4,841.758,376.487,841.773,376.574z"
			/>
		<path fill="#F8F8F8" d="M841.918,376.564c0.002,0.04,0.011,0.081,0.006,0.118c-0.004,0.033,0.021,0.099-0.038,0.084
			c-0.061-0.016-0.059-0.079-0.068-0.125C841.849,376.615,841.883,376.589,841.918,376.564z"/>
		<path fill="#F8F8F8" d="M841.906,376.414c0.012,0.016,0.015,0.031,0.007,0.045c-0.005-0.011-0.012-0.022-0.018-0.033
			C841.896,376.423,841.903,376.418,841.906,376.414z"/>
	</g>
</g>
<polygon fill="#F0B95F" points="969.166,417.357 949.972,448.11 965.457,453.346 955.861,478.863 975.709,448.766 958.696,442.875 
	"/>
</svg>
