<?xml version="1.0" encoding="utf-8"?>
<!-- Generator: Adobe Illustrator 16.0.0, SVG Export Plug-In . SVG Version: 6.00 Build 0)  -->
<!DOCTYPE svg PUBLIC "-//W3C//DTD SVG 1.1//EN" "http://www.w3.org/Graphics/SVG/1.1/DTD/svg11.dtd">
<svg version="1.1" id="Calque_1" xmlns="http://www.w3.org/2000/svg" xmlns:xlink="http://www.w3.org/1999/xlink" x="0px" y="0px"
	 width="150px" height="150px" viewBox="0 0 150 150" enable-background="new 0 0 150 150" xml:space="preserve">
<circle fill="#FFFFFF" cx="74" cy="76" r="67"/>
<g>
	<polygon fill="#020101" points="114.854,88 36,88 36,84.761 114.977,84.814 	"/>
	<polyline fill="#669CA4" points="35.712,84.761 41.873,79.426 111.652,79.596 114.873,84.917 	"/>
	<path fill="#669CA4" d="M122.497,47.388l-6.209-2.652l-14.14,0.253l-0.254-1.693l-30.565-0.593c0,0,1.016-2.37-1.016-2.793
		c-2.032-0.424-11.346-0.508-11.346-0.508l-0.168-2.625l-2.879-0.338l-2.031,5.503l3.048,5.335L122.497,47.388z"/>
	<path fill="#669CA4" d="M27.895,45.582c0,0,2.032-6.942,5.757-8.975c3.725-2.032,2.709-1.185,2.709-1.185l19.304,0.338
		c0,0,3.557,2.879-0.338,5.418C51.432,43.719,27.895,45.582,27.895,45.582z"/>
	<path fill="#98D5EE" d="M28.121,50.549l3.5,33.303l86.585,0.338c0,0,2.372-16.03,3.049-21.9s1.354-10.724,1.354-10.724
		l-0.112-4.178L59.729,46.71c0,0-3.838-0.564-4.402-5.532l-21.787-0.45C33.54,40.728,26.992,38.922,28.121,50.549z"/>
	<rect x="51" y="59" fill="#020101" width="50" height="15"/>
	<path fill="#EAE5E5" d="M54.792,68.844C59.592,78.35,57.519,96,54.907,104h42.653c0,0,3.232-20.846-3.059-34.425L54.792,68.844z"/>
</g>
</svg>
