<?xml version="1.0" encoding="utf-8"?>
<!-- Generator: Adobe Illustrator 16.0.0, SVG Export Plug-In . SVG Version: 6.00 Build 0)  -->
<!DOCTYPE svg PUBLIC "-//W3C//DTD SVG 1.1//EN" "http://www.w3.org/Graphics/SVG/1.1/DTD/svg11.dtd">
<svg version="1.1" id="Calque_1" xmlns="http://www.w3.org/2000/svg" xmlns:xlink="http://www.w3.org/1999/xlink" x="0px" y="0px"
	 width="150px" height="150px" viewBox="0 0 150 150" enable-background="new 0 0 150 150" xml:space="preserve">
<circle fill="#FFFFFF" cx="74" cy="76" r="67"/>
<path fill="#58585B" d="M114.625,84.055c0,0.676-0.6,1.652-1.257,1.652l-79.342-0.366c-1.431,0.55-2.867-0.427-2.867-1.103
	l1.675-49.601c0-0.675,0.534-1.224,1.192-1.224h77.971c0.657,0,1.19,0.549,1.19,1.224L114.625,84.055z"/>
<path fill="#A09F9F" d="M19.582,95.131l0.179,3.23c0,0,1.257,1.795,3.321,1.705s100.07,0.09,100.07,0.09s2.332-0.539,2.603-1.525
	s0.091-3.859,0.091-3.859L19.582,95.131z"/>
<path fill="#E4E5E6" d="M125.754,94.742c0,0.221,0,1.166-1.795,1.076l-101.775,0.09c-2.513,0.09-2.692-0.588-2.692-0.809
	l10.949-10.052c0-0.221,0.486-0.448,1.167-0.448l82.806-0.09c0.682,0,0.807,0.069,1.232,0.399L125.754,94.742z"/>
<path fill="#58585B" d="M88.564,94.714c0,0.142,0.088,0.433-0.248,0.433H58.344c-0.333,0-0.62-0.229-0.62-0.371l0.299-3.323
	c0-0.142,0.863-0.255,1.198-0.255h28.121c0.334,0,0.957,0.113,0.957,0.255L88.564,94.714z"/>
<polygon fill="#FFFFFF" points="36.273,36.942 109.516,36.942 110.757,81.277 35.387,81.277 "/>
<polygon fill="#58585B" points="113.018,89.445 33.754,89.525 34.987,85.908 111.314,85.908 "/>
</svg>
