<?xml version="1.0" encoding="utf-8"?>
<!-- Generator: Adobe Illustrator 16.0.0, SVG Export Plug-In . SVG Version: 6.00 Build 0)  -->
<!DOCTYPE svg PUBLIC "-//W3C//DTD SVG 1.1//EN" "http://www.w3.org/Graphics/SVG/1.1/DTD/svg11.dtd">
<svg version="1.1" id="Calque_1" xmlns="http://www.w3.org/2000/svg" xmlns:xlink="http://www.w3.org/1999/xlink" x="0px" y="0px"
	 width="150px" height="150px" viewBox="0 0 150 150" enable-background="new 0 0 150 150" xml:space="preserve">
<circle fill="#FFFFFF" cx="74" cy="76" r="67"/>
<ellipse fill="#669CA4" cx="49.775" cy="47.568" rx="7.252" ry="5.06"/>
<g>
	<path fill="#669CA4" d="M126,79.862c0,0.995-0.191,2.138-0.765,2.138h-97.39C27.273,82,27,80.857,27,79.862V65.431
		C27,64.436,27.273,63,27.845,63h97.39c0.573,0,0.765,1.436,0.765,2.431V79.862z"/>
	<polygon fill="#98D5EE" points="114.702,46.028 37.86,46.248 26.938,64.342 125.841,64.068 	"/>
</g>
<g>
	<g>
		<path fill="#98D5EE" d="M44.342,40.828c-1.247-1.941-2.748-3.692-4.166-5.507c-0.548-0.703-1.52,0.284-0.978,0.978
			c1.345,1.723,2.766,3.385,3.949,5.228C43.628,42.273,44.825,41.581,44.342,40.828L44.342,40.828z"/>
	</g>
</g>
<g>
	<g>
		<path fill="#98D5EE" d="M49.483,40.054c-0.303-1.891-0.167-3.816-0.314-5.72c-0.068-0.883-1.452-0.89-1.383,0
			c0.158,2.032,0.04,4.069,0.363,6.088C48.291,41.3,49.623,40.926,49.483,40.054L49.483,40.054z"/>
	</g>
</g>
<g>
	<g>
		<path fill="#98D5EE" d="M54.316,41.123c1.13-1.747,1.681-3.793,2.874-5.501c0.512-0.733-0.688-1.424-1.194-0.698
			c-1.192,1.709-1.743,3.755-2.874,5.501C52.636,41.176,53.833,41.869,54.316,41.123L54.316,41.123z"/>
	</g>
</g>
</svg>
