<?xml version="1.0" encoding="utf-8"?>
<!-- Generator: Adobe Illustrator 16.0.0, SVG Export Plug-In . SVG Version: 6.00 Build 0)  -->
<!DOCTYPE svg PUBLIC "-//W3C//DTD SVG 1.1//EN" "http://www.w3.org/Graphics/SVG/1.1/DTD/svg11.dtd">
<svg version="1.1" id="Calque_1" xmlns="http://www.w3.org/2000/svg" xmlns:xlink="http://www.w3.org/1999/xlink" x="0px" y="0px"
	 width="150px" height="150px" viewBox="0 0 150 150" enable-background="new 0 0 150 150" xml:space="preserve">
<circle fill="#FFFFFF" cx="74" cy="76" r="67"/>
<g>
	<path fill="#B7B6B7" d="M114,81.465c0-0.777-1.652-1.465-2.436-1.465H34.842C34.058,80,33,80.688,33,81.465v5.954
		C33,88.195,34.058,89,34.842,89h76.723c0.783,0,2.437-0.805,2.437-1.581L114,81.465L114,81.465z"/>
	<path fill="#2F2F2F" d="M114,82H33V35.569C33,34.792,33.945,34,34.722,34h76.854c0.777,0,2.424,0.792,2.424,1.569V82z"/>
	<path fill="#BABABA" d="M65.355,88.826l-2.299,7.9L60,97.16v0.65c0,0-8.2,0.217-6.036,0.541C56.13,98.676,70.753,99,73.57,99
		c3.355,0,28.364-0.758,17.54-1.299C87.758,97.534,87,97.811,87,97.811v-0.758l-3.029-0.324l-2.65-8.117L65.355,88.826z"/>
	<polygon fill="#6B6B6B" points="81.593,90 65.031,90 65.355,89 81.268,89 	"/>
	<g>
		<path fill="none" stroke="#FFFFFF" stroke-width="0.7627" stroke-miterlimit="10" d="M36.216,38.846"/>
		<path fill="#FFFFFF" stroke="#FFFFFF" stroke-miterlimit="10" d="M110.5,77.053c0,1.137-0.936,2.447-1.898,2.447H37.966
			c-0.963,0-1.466-1.311-1.466-2.447V40.819c0-1.136,0.503-1.319,1.466-1.319h70.636c0.963,0,1.898,0.183,1.898,1.319V77.053z"/>
	</g>
</g>
<g>
	<path fill="#CCCCCC" d="M107,77.061c0,0.45,0.156,0.939-0.318,0.939H39.505C39.03,78,39,77.511,39,77.061V42.953
		C39,42.502,39.03,42,39.505,42h67.175c0.477,0,0.319,0.502,0.319,0.953L107,77.061L107,77.061z"/>
	<g>
		<path fill="#243C5E" d="M77.955,51.175c-0.342-0.001-0.619-0.001-0.932-0.002c0.004-1.376,0.008-2.727,0.011-4.141
			c0.384,0.001,0.762-0.021,1.132,0.017c0.104,0.011,0.232,0.184,0.271,0.307c0.238,0.752,0.455,1.511,0.711,2.367
			c0.256-0.826,0.504-1.553,0.699-2.294c0.079-0.303,0.197-0.424,0.51-0.396c0.295,0.026,0.595,0.006,0.924,0.008
			c-0.004,1.395-0.006,2.746-0.01,4.133c-0.299,0-0.586-0.001-0.916-0.002c0.004-0.884,0.004-1.748,0.008-2.61
			c-0.032-0.005-0.063-0.01-0.096-0.016c-0.209,0.733-0.414,1.467-0.625,2.199c-0.069,0.233-0.09,0.472-0.463,0.475
			c-0.379,0.002-0.432-0.2-0.507-0.475c-0.204-0.755-0.429-1.505-0.714-2.248C77.959,49.374,77.957,50.25,77.955,51.175z"/>
		<path fill="#243C5E" d="M59.792,47.008c0.39,0.001,0.703,0.002,1.07,0.002c0.165,0.808,0.331,1.617,0.496,2.426
			c0.027,0.003,0.055,0.006,0.082,0.01c0.189-0.807,0.38-1.613,0.572-2.43c0.275,0,0.523,0.001,0.808,0.001
			c0.179,0.806,0.356,1.601,0.534,2.396c0.029,0.006,0.058,0.012,0.085,0.017c0.043-0.163,0.091-0.326,0.127-0.491
			c0.113-0.508,0.256-1.013,0.319-1.528c0.045-0.363,0.205-0.448,0.525-0.414c0.186,0.021,0.376,0.004,0.63,0.005
			c-0.134,0.505-0.259,0.97-0.38,1.435c-0.207,0.795-0.432,1.585-0.608,2.386c-0.092,0.417-0.375,0.328-0.646,0.346
			c-0.276,0.019-0.427-0.053-0.486-0.362c-0.134-0.705-0.312-1.402-0.549-2.109c-0.159,0.67-0.321,1.341-0.473,2.013
			c-0.058,0.255-0.086,0.492-0.458,0.459c-0.327-0.029-0.622,0.046-0.726-0.437C60.448,49.502,60.113,48.286,59.792,47.008z"/>
		<path fill="#243C5E" d="M88.768,48.955c-0.002,0.737-0.004,1.474-0.006,2.241c-0.324-0.001-0.617-0.001-0.949-0.002
			c0.004-1.371,0.008-2.736,0.011-4.088c0.585-0.166,0.963-0.014,1.237,0.545c0.312,0.631,0.726,1.212,1.16,1.924
			c0.004-0.895,0.006-1.671,0.006-2.48c0.354,0,0.658,0.002,0.992,0.002c-0.003,1.364-0.006,2.716-0.008,4.063
			c-0.775,0.176-0.839,0.152-1.236-0.48c-0.369-0.584-0.734-1.169-1.104-1.755C88.836,48.935,88.801,48.945,88.768,48.955z"/>
		<path fill="#243C5E" d="M70.086,51.18c0.003-1.402,0.006-2.753,0.01-4.207c0.753,0.054,1.503,0.026,2.214,0.178
			c1.018,0.218,1.566,1.544,1.193,2.679c-0.286,0.874-0.872,1.325-1.788,1.351C71.182,51.195,70.648,51.181,70.086,51.18z
			 M71.145,47.979c-0.001,0.751-0.003,1.485-0.004,2.245c0.465,0.013,0.929,0.091,1.211-0.367c0.297-0.485,0.288-1.007,0-1.486
			C72.084,47.925,71.617,47.958,71.145,47.979z"/>
		<path fill="#243C5E" d="M81.637,51.182c0.538-1.354,1.045-2.647,1.568-3.933c0.111-0.271,0.852-0.315,0.958-0.053
			c0.528,1.315,1.032,2.639,1.569,4.021c-0.355,0-0.641,0.02-0.918-0.012c-0.108-0.013-0.272-0.131-0.291-0.225
			c-0.069-0.362-0.306-0.386-0.596-0.369c-0.236,0.013-0.476-0.01-0.712,0.008c-0.097,0.007-0.263,0.065-0.272,0.123
			c-0.109,0.604-0.568,0.46-0.957,0.466C81.895,51.21,81.8,51.195,81.637,51.182z"/>
		<path fill="#243C5E" d="M67.671,50.215c-0.001,0.346-0.001,0.623-0.002,0.932c-0.737-0.001-1.458-0.003-2.218-0.005
			c0.003-1.356,0.006-2.72,0.009-4.111c0.725,0.002,1.445,0.004,2.204,0.005c0,0.288-0.001,0.576-0.002,0.917
			c-0.389,0-0.776-0.002-1.195-0.003c-0.001,0.232-0.001,0.415-0.002,0.64c0.374,0.001,0.747,0.002,1.159,0.003
			c0,0.331-0.001,0.619-0.002,0.955c-0.394,0-0.766-0.001-1.161-0.002c-0.001,0.243-0.001,0.436-0.001,0.667
			C66.864,50.212,67.239,50.213,67.671,50.215z"/>
		<path fill="#243C5E" d="M74.186,47.047c0.75,0.001,1.457,0.003,2.193,0.005c0,0.298-0.001,0.574-0.002,0.908
			c-0.391-0.001-0.775-0.002-1.196-0.002c0,0.236-0.001,0.417-0.002,0.647c0.366,0.001,0.737,0.002,1.146,0.003
			c-0.001,0.334-0.002,0.621-0.002,0.96c-0.386,0-0.757-0.001-1.153-0.002c-0.001,0.235-0.002,0.418-0.002,0.659
			c0.393,0.001,0.775,0.001,1.198,0.003c0,0.345-0.001,0.633-0.002,0.947c-0.734-0.002-1.441-0.003-2.188-0.005
			C74.179,49.803,74.182,48.44,74.186,47.047z"/>
		<path fill="#243C5E" d="M87.064,47.094c-0.004,1.359-0.006,2.711-0.01,4.096c-0.322,0-0.63-0.001-0.977-0.002
			c0.003-1.354,0.006-2.705,0.01-4.096C86.391,47.092,86.695,47.093,87.064,47.094z"/>
		<path fill="#FFFFFF" d="M83.119,49.767c0.129-0.419,0.253-0.82,0.415-1.349c0.153,0.518,0.272,0.916,0.403,1.351
			C83.637,49.769,83.395,49.769,83.119,49.767z"/>
		<path fill="#243C5E" d="M84.57,52.071c0.05-0.002,0.099-0.004,0.147-0.007"/>
	</g>
	<polygon fill="#CCCCCC" points="111,41 36.071,41 36.394,39.078 111,38.841 	"/>
	<g>
		<path d="M37.68,39.604c0-0.063,0.009-0.118,0.037-0.168c0.041-0.073,0.102-0.118,0.187-0.13c0.042-0.007,0.08,0.003,0.118,0.018
			c0.015,0.006,0.03,0.011,0.045,0.017c0.021,0.008,0.042,0.006,0.063-0.001c0.031-0.011,0.061-0.026,0.093-0.032
			c0.097-0.018,0.179,0.006,0.244,0.083c0.006,0.008,0.002,0.01-0.003,0.015c-0.05,0.035-0.085,0.08-0.096,0.142
			c-0.011,0.067,0.004,0.127,0.051,0.178c0.02,0.022,0.044,0.041,0.072,0.053c0.007,0.004,0.008,0.007,0.005,0.014
			c-0.022,0.064-0.058,0.121-0.099,0.173c-0.017,0.021-0.034,0.04-0.056,0.054c-0.039,0.026-0.08,0.028-0.123,0.011
			c-0.023-0.009-0.045-0.019-0.07-0.025c-0.042-0.01-0.083-0.002-0.122,0.014c-0.021,0.008-0.042,0.017-0.065,0.021
			c-0.035,0.006-0.064-0.004-0.091-0.025c-0.046-0.037-0.079-0.085-0.109-0.134c-0.037-0.062-0.061-0.129-0.074-0.2
			C37.683,39.653,37.678,39.626,37.68,39.604z"/>
		<path d="M38.29,39.091c-0.003,0.068-0.033,0.122-0.086,0.162c-0.03,0.024-0.065,0.038-0.104,0.038
			c-0.009,0-0.012-0.002-0.012-0.012c0-0.079,0.039-0.137,0.103-0.18c0.025-0.017,0.053-0.027,0.083-0.032
			c0.017-0.002,0.017-0.003,0.017,0.014C38.29,39.084,38.29,39.087,38.29,39.091z"/>
	</g>
	<rect x="39.172" y="39.437" fill="none" width="5.181" height="1.905"/>
	<text transform="matrix(1 0 0 1 39.1719 39.9639)" font-family="'MalayalamSangamMN-Bold'" font-size="0.7675">Photoshop</text>
	<rect x="44.271" y="39.437" fill="none" width="2.357" height="1.617"/>
	<text transform="matrix(1 0 0 1 44.2695 39.9707)" font-family="'MalayalamSangamMN'" font-size="0.7675">Fichier</text>
	<rect x="47.162" y="39.437" fill="none" width="2.357" height="1.617"/>
	<text transform="matrix(1 0 0 1 47.1621 39.9707)" font-family="'MalayalamSangamMN'" font-size="0.7675">Edition</text>
	<rect x="49.972" y="39.437" fill="none" width="2.356" height="1.617"/>
	<text transform="matrix(1 0 0 1 49.9717 39.9707)" font-family="'MalayalamSangamMN'" font-size="0.7675">Objet</text>
	<rect x="52.26" y="39.437" fill="none" width="2.357" height="1.617"/>
	<text transform="matrix(1 0 0 1 52.2598 39.9707)" font-family="'MalayalamSangamMN'" font-size="0.7675">Texte</text>
	<rect x="54.535" y="39.437" fill="none" width="3.96" height="1.233"/>
	<text transform="matrix(1 0 0 1 54.5352 39.9707)" font-family="'MalayalamSangamMN'" font-size="0.7675">Selection</text>
	<rect x="106.148" y="39.437" fill="none" width="3.961" height="1.233"/>
	<text transform="matrix(1 0 0 1 106.1494 39.9707)" font-family="'MalayalamSangamMN'" font-size="0.7675">15 : 06</text>
	<rect x="101.167" y="39.437" fill="none" width="4.51" height="1.233"/>
	<text transform="matrix(1 0 0 1 101.167 39.9707)" font-family="'MalayalamSangamMN'" font-size="0.7675">Mer. 28 janv.</text>
	
		<line opacity="0.2" fill="none" stroke="#666666" stroke-miterlimit="10" enable-background="new    " x1="39" y1="45.5" x2="107" y2="45.5"/>
	<circle fill="#FF5F5C" cx="40.932" cy="43.777" r="0.458"/>
	<circle fill="#FFB942" cx="42.439" cy="43.777" r="0.458"/>
	<circle fill="#00C74D" cx="43.946" cy="43.777" r="0.458"/>
	<path fill="#FFFFFF" d="M82,44.785C82,44.904,81.904,45,81.785,45h-26.57C55.096,45,55,44.904,55,44.785v-1.569
		C55,43.096,55.096,43,55.215,43h26.57C81.904,43,82,43.096,82,43.215V44.785z"/>
	<rect x="71.298" y="53.161" fill="none" width="21.291" height="22.776"/>
	<text transform="matrix(1 0 0 1 71.2979 53.7891)" fill="#FFFFFF" font-family="'TwCenMT-Regular'" font-size="0.9903">This</text>
	<text transform="matrix(1 0 0 1 73.0098 53.7891)" fill="#FFFFFF" font-family="'TwCenMT-Regular'" font-size="0.9903"> </text>
	<text transform="matrix(1 0 0 1 73.5557 53.7891)" fill="#FFFFFF" font-family="'TwCenMT-Regular'" font-size="0.9903">is</text>
	<text transform="matrix(1 0 0 1 74.251 53.7891)" fill="#FFFFFF" font-family="'TwCenMT-Regular'" font-size="0.9903"> </text>
	<text transform="matrix(1 0 0 1 74.7979 53.7891)" fill="#FFFFFF" font-family="'TwCenMT-Regular'" font-size="0.9903">Photoshop&apos;s</text>
	<text transform="matrix(1 0 0 1 80.126 53.7891)" fill="#FFFFFF" font-family="'TwCenMT-Regular'" font-size="0.9903"> </text>
	<text transform="matrix(1 0 0 1 80.6719 53.7891)" fill="#FFFFFF" font-family="'TwCenMT-Regular'" font-size="0.9903">version</text>
	<text transform="matrix(1 0 0 1 83.9268 53.7891)" fill="#FFFFFF" font-family="'TwCenMT-Regular'" font-size="0.9903">  </text>
	<text transform="matrix(1 0 0 1 85.0186 53.7891)" fill="#FFFFFF" font-family="'TwCenMT-Regular'" font-size="0.9903">of</text>
	<text transform="matrix(1 0 0 1 85.9922 53.7891)" fill="#FFFFFF" font-family="'TwCenMT-Regular'" font-size="0.9903"> </text>
	<text transform="matrix(1 0 0 1 86.5381 53.7891)" fill="#FFFFFF" font-family="'TwCenMT-Regular'" font-size="0.9903">Lorem</text>
	<text transform="matrix(1 0 0 1 89.2705 53.7891)" fill="#FFFFFF" font-family="'TwCenMT-Regular'" font-size="0.9903"> </text>
	<text transform="matrix(1 0 0 1 89.8164 53.7891)" fill="#FFFFFF" font-family="'TwCenMT-Regular'" font-size="0.9903">Ipsum. </text>
	<text transform="matrix(1 0 0 1 71.2979 54.9775)" fill="#FFFFFF" font-family="'TwCenMT-Regular'" font-size="0.9903">Proin</text>
	<text transform="matrix(1 0 0 1 73.6396 54.9775)" fill="#FFFFFF" font-family="'TwCenMT-Regular'" font-size="0.9903"> </text>
	<text transform="matrix(1 0 0 1 74.2402 54.9775)" fill="#FFFFFF" font-family="'TwCenMT-Regular'" font-size="0.9903">gravida</text>
	<text transform="matrix(1 0 0 1 77.9238 54.9775)" fill="#FFFFFF" font-family="'TwCenMT-Regular'" font-size="0.9903"> </text>
	<text transform="matrix(1 0 0 1 78.5254 54.9775)" fill="#FFFFFF" font-family="'TwCenMT-Regular'" font-size="0.9903">nibh</text>
	<text transform="matrix(1 0 0 1 80.4521 54.9775)" fill="#FFFFFF" font-family="'TwCenMT-Regular'" font-size="0.9903"> </text>
	<text transform="matrix(1 0 0 1 81.0527 54.9775)" fill="#FFFFFF" font-family="'TwCenMT-Regular'" font-size="0.9903">vel</text>
	<text transform="matrix(1 0 0 1 82.4219 54.9775)" fill="#FFFFFF" font-family="'TwCenMT-Regular'" font-size="0.9903"> </text>
	<text transform="matrix(1 0 0 1 83.0225 54.9775)" fill="#FFFFFF" font-family="'TwCenMT-Regular'" font-size="0.9903">velit</text>
	<text transform="matrix(1 0 0 1 85.0244 54.9775)" fill="#FFFFFF" font-family="'TwCenMT-Regular'" font-size="0.9903"> </text>
	<text transform="matrix(1 0 0 1 85.625 54.9775)" fill="#FFFFFF" font-family="'TwCenMT-Regular'" font-size="0.9903">auctor</text>
	<text transform="matrix(1 0 0 1 88.5244 54.9775)" fill="#FFFFFF" font-family="'TwCenMT-Regular'" font-size="0.9903"> </text>
	<text transform="matrix(1 0 0 1 89.126 54.9775)" fill="#FFFFFF" font-family="'TwCenMT-Regular'" font-size="0.9903">aliquet. </text>
	<text transform="matrix(1 0 0 1 71.2979 56.165)" fill="#FFFFFF" font-family="'TwCenMT-Regular'" font-size="0.9903">Aenean</text>
	<text transform="matrix(1 0 0 1 74.7451 56.165)" fill="#FFFFFF" font-family="'TwCenMT-Regular'" font-size="0.9903"> </text>
	<text transform="matrix(1 0 0 1 75.7197 56.165)" fill="#FFFFFF" font-family="'TwCenMT-Regular'" font-size="0.9903">sollicitudin,</text>
	<text transform="matrix(1 0 0 1 80.874 56.165)" fill="#FFFFFF" font-family="'TwCenMT-Regular'" font-size="0.9903"> </text>
	<text transform="matrix(1 0 0 1 81.8477 56.165)" fill="#FFFFFF" font-family="'TwCenMT-Regular'" font-size="0.9903">lorem</text>
	<text transform="matrix(1 0 0 1 84.417 56.165)" fill="#FFFFFF" font-family="'TwCenMT-Regular'" font-size="0.9903"> </text>
	<text transform="matrix(1 0 0 1 85.3906 56.165)" fill="#FFFFFF" font-family="'TwCenMT-Regular'" font-size="0.9903">quis</text>
	<text transform="matrix(1 0 0 1 87.2148 56.165)" fill="#FFFFFF" font-family="'TwCenMT-Regular'" font-size="0.9903"> </text>
	<text transform="matrix(1 0 0 1 88.1885 56.165)" fill="#FFFFFF" font-family="'TwCenMT-Regular'" font-size="0.9903">bibendum </text>
	<text transform="matrix(1 0 0 1 71.2979 57.3545)" fill="#FFFFFF" font-family="'TwCenMT-Regular'" font-size="0.9903">auctor,</text>
	<text transform="matrix(1 0 0 1 74.4893 57.3545)" fill="#FFFFFF" font-family="'TwCenMT-Regular'" font-size="0.9903"> </text>
	<text transform="matrix(1 0 0 1 74.9707 57.3545)" fill="#FFFFFF" font-family="'TwCenMT-Regular'" font-size="0.9903">nisi</text>
	<text transform="matrix(1 0 0 1 76.4648 57.3545)" fill="#FFFFFF" font-family="'TwCenMT-Regular'" font-size="0.9903"> </text>
	<text transform="matrix(1 0 0 1 76.9463 57.3545)" fill="#FFFFFF" font-family="'TwCenMT-Regular'" font-size="0.9903">elit</text>
	<text transform="matrix(1 0 0 1 78.4414 57.3545)" fill="#FFFFFF" font-family="'TwCenMT-Regular'" font-size="0.9903"> </text>
	<text transform="matrix(1 0 0 1 78.9219 57.3545)" fill="#FFFFFF" font-family="'TwCenMT-Regular'" font-size="0.9903">consequat</text>
	<text transform="matrix(1 0 0 1 83.5195 57.3545)" fill="#FFFFFF" font-family="'TwCenMT-Regular'" font-size="0.9903"> </text>
	<text transform="matrix(1 0 0 1 84.001 57.3545)" fill="#FFFFFF" font-family="'TwCenMT-Regular'" font-size="0.9903">ipsum,</text>
	<text transform="matrix(1 0 0 1 86.8496 57.3545)" fill="#FFFFFF" font-family="'TwCenMT-Regular'" font-size="0.9903"> </text>
	<text transform="matrix(1 0 0 1 87.3311 57.3545)" fill="#FFFFFF" font-family="'TwCenMT-Regular'" font-size="0.9903">nec</text>
	<text transform="matrix(1 0 0 1 88.8633 57.3545)" fill="#FFFFFF" font-family="'TwCenMT-Regular'" font-size="0.9903"> </text>
	<text transform="matrix(1 0 0 1 89.3447 57.3545)" fill="#FFFFFF" font-family="'TwCenMT-Regular'" font-size="0.9903">sagittis </text>
	<text transform="matrix(1 0 0 1 71.2979 58.542)" fill="#FFFFFF" font-family="'TwCenMT-Regular'" font-size="0.9903">sem</text>
	<text transform="matrix(1 0 0 1 73.0059 58.542)" fill="#FFFFFF" font-family="'TwCenMT-Regular'" font-size="0.9903"> </text>
	<text transform="matrix(1 0 0 1 73.4814 58.542)" fill="#FFFFFF" font-family="'TwCenMT-Regular'" font-size="0.9903">nibh</text>
	<text transform="matrix(1 0 0 1 75.4082 58.542)" fill="#FFFFFF" font-family="'TwCenMT-Regular'" font-size="0.9903"> </text>
	<text transform="matrix(1 0 0 1 75.8838 58.542)" fill="#FFFFFF" font-family="'TwCenMT-Regular'" font-size="0.9903">id</text>
	<text transform="matrix(1 0 0 1 76.7949 58.542)" fill="#FFFFFF" font-family="'TwCenMT-Regular'" font-size="0.9903"> </text>
	<text transform="matrix(1 0 0 1 77.2705 58.542)" fill="#FFFFFF" font-family="'TwCenMT-Regular'" font-size="0.9903">elit.</text>
	<text transform="matrix(1 0 0 1 79.0566 58.542)" fill="#FFFFFF" font-family="'TwCenMT-Regular'" font-size="0.9903"> </text>
	<text transform="matrix(1 0 0 1 79.5312 58.542)" fill="#FFFFFF" font-family="'TwCenMT-Regular'" font-size="0.9903">Duis</text>
	<text transform="matrix(1 0 0 1 81.4072 58.542)" fill="#FFFFFF" font-family="'TwCenMT-Regular'" font-size="0.9903"> </text>
	<text transform="matrix(1 0 0 1 81.8818 58.542)" fill="#FFFFFF" font-family="'TwCenMT-Regular'" font-size="0.9903">sed</text>
	<text transform="matrix(1 0 0 1 83.4766 58.542)" fill="#FFFFFF" font-family="'TwCenMT-Regular'" font-size="0.9903"> </text>
	<text transform="matrix(1 0 0 1 83.9521 58.542)" fill="#FFFFFF" font-family="'TwCenMT-Regular'" font-size="0.9903">odio</text>
	<text transform="matrix(1 0 0 1 86.002 58.542)" fill="#FFFFFF" font-family="'TwCenMT-Regular'" font-size="0.9903"> </text>
	<text transform="matrix(1 0 0 1 86.4775 58.542)" fill="#FFFFFF" font-family="'TwCenMT-Regular'" font-size="0.9903">sit</text>
	<text transform="matrix(1 0 0 1 87.5156 58.542)" fill="#FFFFFF" font-family="'TwCenMT-Regular'" font-size="0.9903"> </text>
	<text transform="matrix(1 0 0 1 87.9912 58.542)" fill="#FFFFFF" font-family="'TwCenMT-Regular'" font-size="0.9903">amet</text>
	<text transform="matrix(1 0 0 1 90.2568 58.542)" fill="#FFFFFF" font-family="'TwCenMT-Regular'" font-size="0.9903"> </text>
	<text transform="matrix(1 0 0 1 90.7334 58.542)" fill="#FFFFFF" font-family="'TwCenMT-Regular'" font-size="0.9903">nibh </text>
	<text transform="matrix(1 0 0 1 71.2979 59.7305)" fill="#FFFFFF" font-family="'TwCenMT-Regular'" font-size="0.9903">vulputate</text>
	<text transform="matrix(1 0 0 1 75.6084 59.7305)" fill="#FFFFFF" font-family="'TwCenMT-Regular'" font-size="0.9903"> </text>
	<text transform="matrix(1 0 0 1 76.3535 59.7305)" fill="#FFFFFF" font-family="'TwCenMT-Regular'" font-size="0.9903">cursus</text>
	<text transform="matrix(1 0 0 1 79.0381 59.7305)" fill="#FFFFFF" font-family="'TwCenMT-Regular'" font-size="0.9903"> </text>
	<text transform="matrix(1 0 0 1 79.7832 59.7305)" fill="#FFFFFF" font-family="'TwCenMT-Regular'" font-size="0.9903">a</text>
	<text transform="matrix(1 0 0 1 80.4033 59.7305)" fill="#FFFFFF" font-family="'TwCenMT-Regular'" font-size="0.9903"> </text>
	<text transform="matrix(1 0 0 1 81.1484 59.7305)" fill="#FFFFFF" font-family="'TwCenMT-Regular'" font-size="0.9903">sit</text>
	<text transform="matrix(1 0 0 1 82.1865 59.7305)" fill="#FFFFFF" font-family="'TwCenMT-Regular'" font-size="0.9903"> </text>
	<text transform="matrix(1 0 0 1 82.9316 59.7305)" fill="#FFFFFF" font-family="'TwCenMT-Regular'" font-size="0.9903">amet</text>
	<text transform="matrix(1 0 0 1 85.1982 59.7305)" fill="#FFFFFF" font-family="'TwCenMT-Regular'" font-size="0.9903"> </text>
	<text transform="matrix(1 0 0 1 85.9434 59.7305)" fill="#FFFFFF" font-family="'TwCenMT-Regular'" font-size="0.9903">mauris.</text>
	<text transform="matrix(1 0 0 1 89.1963 59.7305)" fill="#FFFFFF" font-family="'TwCenMT-Regular'" font-size="0.9903"> </text>
	<text transform="matrix(1 0 0 1 89.9414 59.7305)" fill="#FFFFFF" font-family="'TwCenMT-Regular'" font-size="0.9903">Morbi </text>
	<text transform="matrix(1 0 0 1 71.2979 60.9189)" fill="#FFFFFF" font-family="'TwCenMT-Regular'" font-size="0.9903">accumsan</text>
	<text transform="matrix(1 0 0 1 75.6035 60.9189)" fill="#FFFFFF" font-family="'TwCenMT-Regular'" font-size="0.9903"> </text>
	<text transform="matrix(1 0 0 1 76.1045 60.9189)" fill="#FFFFFF" font-family="'TwCenMT-Regular'" font-size="0.9903">ipsum</text>
	<text transform="matrix(1 0 0 1 78.6631 60.9189)" fill="#FFFFFF" font-family="'TwCenMT-Regular'" font-size="0.9903"> </text>
	<text transform="matrix(1 0 0 1 79.1641 60.9189)" fill="#FFFFFF" font-family="'TwCenMT-Regular'" font-size="0.9903">velit.</text>
	<text transform="matrix(1 0 0 1 81.457 60.9189)" fill="#FFFFFF" font-family="'TwCenMT-Regular'" font-size="0.9903"> </text>
	<text transform="matrix(1 0 0 1 81.958 60.9189)" fill="#FFFFFF" font-family="'TwCenMT-Regular'" font-size="0.9903">Nam</text>
	<text transform="matrix(1 0 0 1 84.0469 60.9189)" fill="#FFFFFF" font-family="'TwCenMT-Regular'" font-size="0.9903"> </text>
	<text transform="matrix(1 0 0 1 84.5479 60.9189)" fill="#FFFFFF" font-family="'TwCenMT-Regular'" font-size="0.9903">nec</text>
	<text transform="matrix(1 0 0 1 86.0801 60.9189)" fill="#FFFFFF" font-family="'TwCenMT-Regular'" font-size="0.9903"> </text>
	<text transform="matrix(1 0 0 1 86.5811 60.9189)" fill="#FFFFFF" font-family="'TwCenMT-Regular'" font-size="0.9903">tellus</text>
	<text transform="matrix(1 0 0 1 88.9883 60.9189)" fill="#FFFFFF" font-family="'TwCenMT-Regular'" font-size="0.9903"> </text>
	<text transform="matrix(1 0 0 1 89.4893 60.9189)" fill="#FFFFFF" font-family="'TwCenMT-Regular'" font-size="0.9903">a</text>
	<text transform="matrix(1 0 0 1 90.1094 60.9189)" fill="#FFFFFF" font-family="'TwCenMT-Regular'" font-size="0.9903"> </text>
	<text transform="matrix(1 0 0 1 90.6104 60.9189)" fill="#FFFFFF" font-family="'TwCenMT-Regular'" font-size="0.9903">odio </text>
	<text transform="matrix(1 0 0 1 71.2979 62.1074)" fill="#FFFFFF" font-family="'TwCenMT-Regular'" font-size="0.9903">tincidunt</text>
	<text transform="matrix(1 0 0 1 75.165 62.1074)" fill="#FFFFFF" font-family="'TwCenMT-Regular'" font-size="0.9903"> </text>
	<text transform="matrix(1 0 0 1 75.4473 62.1074)" fill="#FFFFFF" font-family="'TwCenMT-Regular'" font-size="0.9903">auctor</text>
	<text transform="matrix(1 0 0 1 78.3467 62.1074)" fill="#FFFFFF" font-family="'TwCenMT-Regular'" font-size="0.9903"> </text>
	<text transform="matrix(1 0 0 1 78.6279 62.1074)" fill="#FFFFFF" font-family="'TwCenMT-Regular'" font-size="0.9903">a</text>
	<text transform="matrix(1 0 0 1 79.249 62.1074)" fill="#FFFFFF" font-family="'TwCenMT-Regular'" font-size="0.9903"> </text>
	<text transform="matrix(1 0 0 1 79.5303 62.1074)" fill="#FFFFFF" font-family="'TwCenMT-Regular'" font-size="0.9903">ornare</text>
	<text transform="matrix(1 0 0 1 82.6055 62.1074)" fill="#FFFFFF" font-family="'TwCenMT-Regular'" font-size="0.9903"> </text>
	<text transform="matrix(1 0 0 1 82.8877 62.1074)" fill="#FFFFFF" font-family="'TwCenMT-Regular'" font-size="0.9903">odio.</text>
	<text transform="matrix(1 0 0 1 85.2285 62.1074)" fill="#FFFFFF" font-family="'TwCenMT-Regular'" font-size="0.9903"> </text>
	<text transform="matrix(1 0 0 1 85.5098 62.1074)" fill="#FFFFFF" font-family="'TwCenMT-Regular'" font-size="0.9903">Sed</text>
	<text transform="matrix(1 0 0 1 87.2686 62.1074)" fill="#FFFFFF" font-family="'TwCenMT-Regular'" font-size="0.9903"> </text>
	<text transform="matrix(1 0 0 1 87.5508 62.1074)" fill="#FFFFFF" font-family="'TwCenMT-Regular'" font-size="0.9903">non</text>
	<text transform="matrix(1 0 0 1 89.1357 62.1074)" fill="#FFFFFF" font-family="'TwCenMT-Regular'" font-size="0.9903">  </text>
	<text transform="matrix(1 0 0 1 89.6992 62.1074)" fill="#FFFFFF" font-family="'TwCenMT-Regular'" font-size="0.9903">mauris </text>
	<text transform="matrix(1 0 0 1 71.2979 63.2949)" fill="#FFFFFF" font-family="'TwCenMT-Regular'" font-size="0.9903">vitae</text>
	<text transform="matrix(1 0 0 1 73.6299 63.2949)" fill="#FFFFFF" font-family="'TwCenMT-Regular'" font-size="0.9903"> </text>
	<text transform="matrix(1 0 0 1 74.1367 63.2949)" fill="#FFFFFF" font-family="'TwCenMT-Regular'" font-size="0.9903">erat</text>
	<text transform="matrix(1 0 0 1 76.0732 63.2949)" fill="#FFFFFF" font-family="'TwCenMT-Regular'" font-size="0.9903"> </text>
	<text transform="matrix(1 0 0 1 76.5801 63.2949)" fill="#FFFFFF" font-family="'TwCenMT-Regular'" font-size="0.9903">consequat</text>
	<text transform="matrix(1 0 0 1 81.1768 63.2949)" fill="#FFFFFF" font-family="'TwCenMT-Regular'" font-size="0.9903"> </text>
	<text transform="matrix(1 0 0 1 81.6836 63.2949)" fill="#FFFFFF" font-family="'TwCenMT-Regular'" font-size="0.9903">auctor</text>
	<text transform="matrix(1 0 0 1 84.583 63.2949)" fill="#FFFFFF" font-family="'TwCenMT-Regular'" font-size="0.9903"> </text>
	<text transform="matrix(1 0 0 1 85.0898 63.2949)" fill="#FFFFFF" font-family="'TwCenMT-Regular'" font-size="0.9903">eu</text>
	<text transform="matrix(1 0 0 1 86.167 63.2949)" fill="#FFFFFF" font-family="'TwCenMT-Regular'" font-size="0.9903"> </text>
	<text transform="matrix(1 0 0 1 86.6729 63.2949)" fill="#FFFFFF" font-family="'TwCenMT-Regular'" font-size="0.9903">in</text>
	<text transform="matrix(1 0 0 1 87.4727 63.2949)" fill="#FFFFFF" font-family="'TwCenMT-Regular'" font-size="0.9903"> </text>
	<text transform="matrix(1 0 0 1 87.9785 63.2949)" fill="#FFFFFF" font-family="'TwCenMT-Regular'" font-size="0.9903">elit.</text>
	<text transform="matrix(1 0 0 1 89.7646 63.2949)" fill="#FFFFFF" font-family="'TwCenMT-Regular'" font-size="0.9903"> </text>
	<text transform="matrix(1 0 0 1 90.2705 63.2949)" fill="#FFFFFF" font-family="'TwCenMT-Regular'" font-size="0.9903">Class </text>
	<text transform="matrix(1 0 0 1 71.2979 64.4844)" fill="#FFFFFF" font-family="'TwCenMT-Regular'" font-size="0.9903">aptent</text>
	<text transform="matrix(1 0 0 1 74.3018 64.4844)" fill="#FFFFFF" font-family="'TwCenMT-Regular'" font-size="0.9903"> </text>
	<text transform="matrix(1 0 0 1 74.7979 64.4844)" fill="#FFFFFF" font-family="'TwCenMT-Regular'" font-size="0.9903">taciti</text>
	<text transform="matrix(1 0 0 1 77.1416 64.4844)" fill="#FFFFFF" font-family="'TwCenMT-Regular'" font-size="0.9903"> </text>
	<text transform="matrix(1 0 0 1 77.6377 64.4844)" fill="#FFFFFF" font-family="'TwCenMT-Regular'" font-size="0.9903">sociosqu</text>
	<text transform="matrix(1 0 0 1 81.459 64.4844)" fill="#FFFFFF" font-family="'TwCenMT-Regular'" font-size="0.9903"> </text>
	<text transform="matrix(1 0 0 1 81.9561 64.4844)" fill="#FFFFFF" font-family="'TwCenMT-Regular'" font-size="0.9903">ad</text>
	<text transform="matrix(1 0 0 1 83.1963 64.4844)" fill="#FFFFFF" font-family="'TwCenMT-Regular'" font-size="0.9903"> </text>
	<text transform="matrix(1 0 0 1 83.6924 64.4844)" fill="#FFFFFF" font-family="'TwCenMT-Regular'" font-size="0.9903">litora</text>
	<text transform="matrix(1 0 0 1 86.2109 64.4844)" fill="#FFFFFF" font-family="'TwCenMT-Regular'" font-size="0.9903"> </text>
	<text transform="matrix(1 0 0 1 86.707 64.4844)" fill="#FFFFFF" font-family="'TwCenMT-Regular'" font-size="0.9903">torquent</text>
	<text transform="matrix(1 0 0 1 90.5723 64.4844)" fill="#FFFFFF" font-family="'TwCenMT-Regular'" font-size="0.9903"> </text>
	<text transform="matrix(1 0 0 1 91.0684 64.4844)" fill="#FFFFFF" font-family="'TwCenMT-Regular'" font-size="0.9903">per </text>
	<text transform="matrix(1 0 0 1 71.2979 65.6719)" fill="#FFFFFF" font-family="'TwCenMT-Regular'" font-size="0.9903">conubia</text>
	<text transform="matrix(1 0 0 1 74.8701 65.6719)" fill="#FFFFFF" font-family="'TwCenMT-Regular'" font-size="0.9903"> </text>
	<text transform="matrix(1 0 0 1 75.9287 65.6719)" fill="#FFFFFF" font-family="'TwCenMT-Regular'" font-size="0.9903">nostra,</text>
	<text transform="matrix(1 0 0 1 79.0693 65.6719)" fill="#FFFFFF" font-family="'TwCenMT-Regular'" font-size="0.9903"> </text>
	<text transform="matrix(1 0 0 1 80.127 65.6719)" fill="#FFFFFF" font-family="'TwCenMT-Regular'" font-size="0.9903">per</text>
	<text transform="matrix(1 0 0 1 81.7207 65.6719)" fill="#FFFFFF" font-family="'TwCenMT-Regular'" font-size="0.9903"> </text>
	<text transform="matrix(1 0 0 1 82.7793 65.6719)" fill="#FFFFFF" font-family="'TwCenMT-Regular'" font-size="0.9903">inceptos</text>
	<text transform="matrix(1 0 0 1 86.54 65.6719)" fill="#FFFFFF" font-family="'TwCenMT-Regular'" font-size="0.9903"> </text>
	<text transform="matrix(1 0 0 1 87.5977 65.6719)" fill="#FFFFFF" font-family="'TwCenMT-Regular'" font-size="0.9903">himenaeos. </text>
	<text transform="matrix(1 0 0 1 71.2979 66.8604)" fill="#FFFFFF" font-family="'TwCenMT-Regular'" font-size="0.9903">Mauris</text>
	<text transform="matrix(1 0 0 1 74.3633 66.8604)" fill="#FFFFFF" font-family="'TwCenMT-Regular'" font-size="0.9903"> </text>
	<text transform="matrix(1 0 0 1 74.8418 66.8604)" fill="#FFFFFF" font-family="'TwCenMT-Regular'" font-size="0.9903">in</text>
	<text transform="matrix(1 0 0 1 75.6406 66.8604)" fill="#FFFFFF" font-family="'TwCenMT-Regular'" font-size="0.9903"> </text>
	<text transform="matrix(1 0 0 1 76.1182 66.8604)" fill="#FFFFFF" font-family="'TwCenMT-Regular'" font-size="0.9903">erat</text>
	<text transform="matrix(1 0 0 1 78.0557 66.8604)" fill="#FFFFFF" font-family="'TwCenMT-Regular'" font-size="0.9903"> </text>
	<text transform="matrix(1 0 0 1 78.5332 66.8604)" fill="#FFFFFF" font-family="'TwCenMT-Regular'" font-size="0.9903">justo.</text>
	<text transform="matrix(1 0 0 1 80.9395 66.8604)" fill="#FFFFFF" font-family="'TwCenMT-Regular'" font-size="0.9903"> </text>
	<text transform="matrix(1 0 0 1 81.418 66.8604)" fill="#FFFFFF" font-family="'TwCenMT-Regular'" font-size="0.9903">Nullam</text>
	<text transform="matrix(1 0 0 1 84.5967 66.8604)" fill="#FFFFFF" font-family="'TwCenMT-Regular'" font-size="0.9903"> </text>
	<text transform="matrix(1 0 0 1 85.0752 66.8604)" fill="#FFFFFF" font-family="'TwCenMT-Regular'" font-size="0.9903">ac</text>
	<text transform="matrix(1 0 0 1 86.1504 66.8604)" fill="#FFFFFF" font-family="'TwCenMT-Regular'" font-size="0.9903"> </text>
	<text transform="matrix(1 0 0 1 86.6279 66.8604)" fill="#FFFFFF" font-family="'TwCenMT-Regular'" font-size="0.9903">urna</text>
	<text transform="matrix(1 0 0 1 88.6689 66.8604)" fill="#FFFFFF" font-family="'TwCenMT-Regular'" font-size="0.9903"> </text>
	<text transform="matrix(1 0 0 1 89.1465 66.8604)" fill="#FFFFFF" font-family="'TwCenMT-Regular'" font-size="0.9903">eu</text>
	<text transform="matrix(1 0 0 1 90.2236 66.8604)" fill="#FFFFFF" font-family="'TwCenMT-Regular'" font-size="0.9903"> </text>
	<text transform="matrix(1 0 0 1 90.7021 66.8604)" fill="#FFFFFF" font-family="'TwCenMT-Regular'" font-size="0.9903">felis </text>
	<text transform="matrix(1 0 0 1 71.2979 68.0488)" fill="#FFFFFF" font-family="'TwCenMT-Regular'" font-size="0.9903">dapibus</text>
	<text transform="matrix(1 0 0 1 74.9824 68.0488)" fill="#FFFFFF" font-family="'TwCenMT-Regular'" font-size="0.9903"> </text>
	<text transform="matrix(1 0 0 1 75.4883 68.0488)" fill="#FFFFFF" font-family="'TwCenMT-Regular'" font-size="0.9903">condimentum</text>
	<text transform="matrix(1 0 0 1 81.3291 68.0488)" fill="#FFFFFF" font-family="'TwCenMT-Regular'" font-size="0.9903"> </text>
	<text transform="matrix(1 0 0 1 81.835 68.0488)" fill="#FFFFFF" font-family="'TwCenMT-Regular'" font-size="0.9903">sit</text>
	<text transform="matrix(1 0 0 1 82.873 68.0488)" fill="#FFFFFF" font-family="'TwCenMT-Regular'" font-size="0.9903"> </text>
	<text transform="matrix(1 0 0 1 83.3789 68.0488)" fill="#FFFFFF" font-family="'TwCenMT-Regular'" font-size="0.9903">amet</text>
	<text transform="matrix(1 0 0 1 85.6455 68.0488)" fill="#FFFFFF" font-family="'TwCenMT-Regular'" font-size="0.9903"> </text>
	<text transform="matrix(1 0 0 1 86.1523 68.0488)" fill="#FFFFFF" font-family="'TwCenMT-Regular'" font-size="0.9903">a</text>
	<text transform="matrix(1 0 0 1 86.7725 68.0488)" fill="#FFFFFF" font-family="'TwCenMT-Regular'" font-size="0.9903"> </text>
	<text transform="matrix(1 0 0 1 87.2783 68.0488)" fill="#FFFFFF" font-family="'TwCenMT-Regular'" font-size="0.9903">augue.</text>
	<text transform="matrix(1 0 0 1 90.3945 68.0488)" fill="#FFFFFF" font-family="'TwCenMT-Regular'" font-size="0.9903"> </text>
	<text transform="matrix(1 0 0 1 90.9004 68.0488)" fill="#FFFFFF" font-family="'TwCenMT-Regular'" font-size="0.9903">Sed </text>
	<text transform="matrix(1 0 0 1 71.2979 69.2373)" fill="#FFFFFF" font-family="'TwCenMT-Regular'" font-size="0.9903">non</text>
	<text transform="matrix(1 0 0 1 72.8838 69.2373)" fill="#FFFFFF" font-family="'TwCenMT-Regular'" font-size="0.9903"> </text>
	<text transform="matrix(1 0 0 1 73.4609 69.2373)" fill="#FFFFFF" font-family="'TwCenMT-Regular'" font-size="0.9903">neque</text>
	<text transform="matrix(1 0 0 1 76.2354 69.2373)" fill="#FFFFFF" font-family="'TwCenMT-Regular'" font-size="0.9903"> </text>
	<text transform="matrix(1 0 0 1 76.8125 69.2373)" fill="#FFFFFF" font-family="'TwCenMT-Regular'" font-size="0.9903">elit.</text>
	<text transform="matrix(1 0 0 1 78.5977 69.2373)" fill="#FFFFFF" font-family="'TwCenMT-Regular'" font-size="0.9903"> </text>
	<text transform="matrix(1 0 0 1 79.1738 69.2373)" fill="#FFFFFF" font-family="'TwCenMT-Regular'" font-size="0.9903">Sed</text>
	<text transform="matrix(1 0 0 1 80.9336 69.2373)" fill="#FFFFFF" font-family="'TwCenMT-Regular'" font-size="0.9903"> </text>
	<text transform="matrix(1 0 0 1 81.5107 69.2373)" fill="#FFFFFF" font-family="'TwCenMT-Regular'" font-size="0.9903">ut</text>
	<text transform="matrix(1 0 0 1 82.3613 69.2373)" fill="#FFFFFF" font-family="'TwCenMT-Regular'" font-size="0.9903"> </text>
	<text transform="matrix(1 0 0 1 82.9385 69.2373)" fill="#FFFFFF" font-family="'TwCenMT-Regular'" font-size="0.9903">imperdiet</text>
	<text transform="matrix(1 0 0 1 87.3809 69.2373)" fill="#FFFFFF" font-family="'TwCenMT-Regular'" font-size="0.9903"> </text>
	<text transform="matrix(1 0 0 1 87.958 69.2373)" fill="#FFFFFF" font-family="'TwCenMT-Regular'" font-size="0.9903">nisi.</text>
	<text transform="matrix(1 0 0 1 89.7432 69.2373)" fill="#FFFFFF" font-family="'TwCenMT-Regular'" font-size="0.9903"> </text>
	<text transform="matrix(1 0 0 1 90.3203 69.2373)" fill="#FFFFFF" font-family="'TwCenMT-Regular'" font-size="0.9903">Proin </text>
	<text transform="matrix(1 0 0 1 71.2979 70.4258)" fill="#FFFFFF" font-family="'TwCenMT-Regular'" font-size="0.9903">condimentum</text>
	<text transform="matrix(1 0 0 1 77.1396 70.4258)" fill="#FFFFFF" font-family="'TwCenMT-Regular'" font-size="0.9903"> </text>
	<text transform="matrix(1 0 0 1 77.5391 70.4258)" fill="#FFFFFF" font-family="'TwCenMT-Regular'" font-size="0.9903">fermentum</text>
	<text transform="matrix(1 0 0 1 82.3145 70.4258)" fill="#FFFFFF" font-family="'TwCenMT-Regular'" font-size="0.9903"> </text>
	<text transform="matrix(1 0 0 1 82.7139 70.4258)" fill="#FFFFFF" font-family="'TwCenMT-Regular'" font-size="0.9903">nunc.</text>
	<text transform="matrix(1 0 0 1 84.9834 70.4258)" fill="#FFFFFF" font-family="'TwCenMT-Regular'" font-size="0.9903"> </text>
	<text transform="matrix(1 0 0 1 85.3838 70.4258)" fill="#FFFFFF" font-family="'TwCenMT-Regular'" font-size="0.9903">Etiam</text>
	<text transform="matrix(1 0 0 1 87.8799 70.4258)" fill="#FFFFFF" font-family="'TwCenMT-Regular'" font-size="0.9903"> </text>
	<text transform="matrix(1 0 0 1 88.2803 70.4258)" fill="#FFFFFF" font-family="'TwCenMT-Regular'" font-size="0.9903">pharetra, </text>
	<text transform="matrix(1 0 0 1 71.2979 71.6133)" fill="#FFFFFF" font-family="'TwCenMT-Regular'" font-size="0.9903">erat</text>
	<text transform="matrix(1 0 0 1 73.2344 71.6133)" fill="#FFFFFF" font-family="'TwCenMT-Regular'" font-size="0.9903"> </text>
	<text transform="matrix(1 0 0 1 74.124 71.6133)" fill="#FFFFFF" font-family="'TwCenMT-Regular'" font-size="0.9903">sed</text>
	<text transform="matrix(1 0 0 1 75.7178 71.6133)" fill="#FFFFFF" font-family="'TwCenMT-Regular'" font-size="0.9903"> </text>
	<text transform="matrix(1 0 0 1 76.6084 71.6133)" fill="#FFFFFF" font-family="'TwCenMT-Regular'" font-size="0.9903">fermentum</text>
	<text transform="matrix(1 0 0 1 81.3818 71.6133)" fill="#FFFFFF" font-family="'TwCenMT-Regular'" font-size="0.9903"> </text>
	<text transform="matrix(1 0 0 1 82.2725 71.6133)" fill="#FFFFFF" font-family="'TwCenMT-Regular'" font-size="0.9903">feugiat,</text>
	<text transform="matrix(1 0 0 1 85.9189 71.6133)" fill="#FFFFFF" font-family="'TwCenMT-Regular'" font-size="0.9903"> </text>
	<text transform="matrix(1 0 0 1 86.8096 71.6133)" fill="#FFFFFF" font-family="'TwCenMT-Regular'" font-size="0.9903">velit</text>
	<text transform="matrix(1 0 0 1 88.8115 71.6133)" fill="#FFFFFF" font-family="'TwCenMT-Regular'" font-size="0.9903"> </text>
	<text transform="matrix(1 0 0 1 89.7012 71.6133)" fill="#FFFFFF" font-family="'TwCenMT-Regular'" font-size="0.9903">mauris </text>
	<text transform="matrix(1 0 0 1 71.2979 72.8018)" fill="#FFFFFF" font-family="'TwCenMT-Regular'" font-size="0.9903">egestas</text>
	<text transform="matrix(1 0 0 1 74.8291 72.8018)" fill="#FFFFFF" font-family="'TwCenMT-Regular'" font-size="0.9903"> </text>
	<text transform="matrix(1 0 0 1 75.5664 72.8018)" fill="#FFFFFF" font-family="'TwCenMT-Regular'" font-size="0.9903">quam,</text>
	<text transform="matrix(1 0 0 1 78.3398 72.8018)" fill="#FFFFFF" font-family="'TwCenMT-Regular'" font-size="0.9903"> </text>
	<text transform="matrix(1 0 0 1 79.0771 72.8018)" fill="#FFFFFF" font-family="'TwCenMT-Regular'" font-size="0.9903">ut</text>
	<text transform="matrix(1 0 0 1 79.9277 72.8018)" fill="#FFFFFF" font-family="'TwCenMT-Regular'" font-size="0.9903"> </text>
	<text transform="matrix(1 0 0 1 80.6641 72.8018)" fill="#FFFFFF" font-family="'TwCenMT-Regular'" font-size="0.9903">aliquam</text>
	<text transform="matrix(1 0 0 1 84.3496 72.8018)" fill="#FFFFFF" font-family="'TwCenMT-Regular'" font-size="0.9903"> </text>
	<text transform="matrix(1 0 0 1 85.0859 72.8018)" fill="#FFFFFF" font-family="'TwCenMT-Regular'" font-size="0.9903">massa</text>
	<text transform="matrix(1 0 0 1 87.8691 72.8018)" fill="#FFFFFF" font-family="'TwCenMT-Regular'" font-size="0.9903"> </text>
	<text transform="matrix(1 0 0 1 88.6064 72.8018)" fill="#FFFFFF" font-family="'TwCenMT-Regular'" font-size="0.9903">nisl</text>
	<text transform="matrix(1 0 0 1 90.1006 72.8018)" fill="#FFFFFF" font-family="'TwCenMT-Regular'" font-size="0.9903"> </text>
	<text transform="matrix(1 0 0 1 90.8379 72.8018)" fill="#FFFFFF" font-family="'TwCenMT-Regular'" font-size="0.9903">quis </text>
	<text transform="matrix(1 0 0 1 71.2979 73.9902)" fill="#FFFFFF" font-family="'TwCenMT-Regular'" font-size="0.9903">neque. Suspendisse in orci enim.</text>
	<rect x="57" y="53" fill="#FFFFFF" width="14" height="21"/>
	<rect x="50.734" y="43.043" fill="#FFFFFF" width="1.583" height="1.583"/>
	<rect x="48.359" y="43.043" fill="#FFFFFF" width="1.979" height="1.583"/>
	<rect x="103.393" y="43.043" fill="#FFFFFF" width="1.584" height="1.583"/>
	<rect x="101.413" y="43.043" fill="#FFFFFF" width="1.979" height="1.583"/>
	<rect x="99.434" y="43.043" fill="#FFFFFF" width="1.584" height="1.583"/>
</g>
</svg>
