<?xml version="1.0" encoding="utf-8"?>
<!-- Generator: Adobe Illustrator 16.0.0, SVG Export Plug-In . SVG Version: 6.00 Build 0)  -->
<!DOCTYPE svg PUBLIC "-//W3C//DTD SVG 1.1//EN" "http://www.w3.org/Graphics/SVG/1.1/DTD/svg11.dtd">
<svg version="1.1" id="Calque_1" xmlns="http://www.w3.org/2000/svg" xmlns:xlink="http://www.w3.org/1999/xlink" x="0px" y="0px"
	 width="150px" height="150px" viewBox="0 0 150 150" enable-background="new 0 0 150 150" xml:space="preserve">
<circle fill="#FFFFFF" cx="74" cy="76" r="67"/>
<g>
	<path d="M118.977,97.502c0,0.506-0.41,0.916-0.916,0.916H33.774c-0.506,0-0.916-0.41-0.916-0.916V41.433
		c0-0.506,0.41-0.916,0.916-0.916h84.285c0.506,0,0.916,0.41,0.916,0.916v56.069H118.977z"/>
	<circle fill="#33C74D" cx="114.65" cy="94.729" r="0.629"/>
	<path fill="#FFFFFF" d="M112.507,94.867c0,0.267-0.218,0.484-0.485,0.484h-2.181c-0.269,0-0.485-0.219-0.485-0.484l0,0
		c0-0.27,0.218-0.485,0.485-0.485h2.181C112.289,94.382,112.507,94.6,112.507,94.867L112.507,94.867z"/>
	<path fill="#FFFFFF" d="M108.822,94.867c0,0.267-0.217,0.484-0.484,0.484h-2.182c-0.268,0-0.484-0.219-0.484-0.484l0,0
		c0-0.27,0.217-0.485,0.484-0.485h2.182C108.605,94.382,108.822,94.6,108.822,94.867L108.822,94.867z"/>
</g>
<rect x="38" y="46" fill="#FFFFFF" width="76" height="43"/>
</svg>
