<?xml version="1.0" encoding="utf-8"?>
<!-- Generator: Adobe Illustrator 16.0.0, SVG Export Plug-In . SVG Version: 6.00 Build 0)  -->
<!DOCTYPE svg PUBLIC "-//W3C//DTD SVG 1.1//EN" "http://www.w3.org/Graphics/SVG/1.1/DTD/svg11.dtd">
<svg version="1.1" id="Calque_1" xmlns="http://www.w3.org/2000/svg" xmlns:xlink="http://www.w3.org/1999/xlink" x="0px" y="0px"
	 width="101.5px" height="67.5px" viewBox="0 0 101.5 67.5" enable-background="new 0 0 101.5 67.5" xml:space="preserve">
<g>
	<g>
		<path fill="#FDFDFD" d="M0.666,56.578c0-18.083,0.003-36.166-0.016-54.249c0-0.568,0.112-0.68,0.68-0.679
			c32.903,0.018,65.806,0.018,98.709,0c0.568,0,0.68,0.111,0.68,0.679c-0.019,21.235-0.019,42.47,0,63.705
			c0,0.568-0.111,0.68-0.68,0.68c-32.737-0.018-65.475-0.016-98.212-0.016c-1.161,0-1.161,0-1.161-1.161
			c0.441,0.016,0.884,0.007,1.322,0.055c0.456,0.051,0.576-0.138,0.553-0.562c-0.029-0.551,0.046-1.11-0.017-1.655
			c-0.089-0.777,0.135-1.092,0.972-1.017c0.82,0.072,1.654-0.005,2.481-0.017c1.544-0.127,2.311-0.871,2.398-2.381
			c0.029-0.491,0.016-0.995-0.063-1.479c-0.201-1.23-0.942-1.897-2.197-1.918C4.299,56.535,2.482,56.57,0.666,56.578z M61.714,6.81
			l0.001,0.001c0.052-0.537-0.308-0.517-0.67-0.494c-0.935-0.529-1.843-1.111-2.808-1.578c-6.811-3.294-13.614-3.231-20.391,0.116
			c-2.554,1.262-4.702,3.058-6.654,5.106c-0.574,0.201-0.819,0.786-1.287,1.106c-0.548,0.375-0.827,0.854-0.713,1.527l-0.009,0.014
			c-0.482,0.167-0.703,0.5-0.64,1.011c-0.454,0.937-0.907,1.874-1.36,2.811c-0.609,0.408-0.722,1.002-0.628,1.674
			c0.015,0.054,0.005,0.103-0.029,0.147c-0.589,0.632-0.496,1.521-0.903,2.236c0.135,0.04,0.213,0.083,0.291,0.083
			c3.013,0.008,6.026,0.01,9.039,0.022c0.321,0.001,0.445-0.159,0.624-0.409c0.537-0.751,0.755-1.663,1.289-2.407
			c0.156-0.218,0.375-0.42,0.269-0.737c-0.001-0.049,0.021-0.085,0.064-0.108c0.846-0.57,1.542-1.314,2.179-2.086
			c0.515-0.624,1.404-0.769,1.771-1.529c0.032-0.045,0.075-0.065,0.13-0.059c0.251,0.027,0.499,0.049,0.527-0.307
			c3.819-2.087,7.796-2.231,11.713-0.522c9.776,4.264,10.935,16.981,3.159,23.069c-0.613,0.008-1.251-0.019-1.237,0.875l0.002-0.011
			c-0.064,0.048-0.13,0.096-0.195,0.145h-0.001c-0.539-0.056-0.981,0.062-1.163,0.648c-3.839,1.859-7.724,1.883-11.585,0.14
			c-3.254-1.469-5.562-3.911-6.929-7.223c-0.152-0.369-0.31-0.675-0.814-0.671c-2.708,0.017-5.416,0.01-8.125,0.002
			c-0.417-0.001-0.601,0.162-0.598,0.588c0.024,4.117-0.12,8.243,0.104,12.348c0.241,4.426,3.146,7.269,7.307,7.606
			c0.997,0.081,1.029,0.057,1.03-0.939c0.001-1.713-0.011-3.427,0.003-5.14c0.002-0.226-0.115-0.543,0.149-0.674
			c0.219-0.108,0.393,0.134,0.572,0.25c7.86,5.089,15.982,5.567,24.195,1.051c5.58-3.068,9.092-7.896,10.671-14.073
			c1.131-4.426,0.877-8.805-0.63-13.12c-0.855-2.45-2.201-4.616-3.739-6.679c0.013-0.372,0.025-0.743-0.535-0.628l0.015,0.004
			c0.032-0.772-0.525-1.233-1.036-1.587c-0.459-0.319-0.77-0.979-1.489-0.862L62.649,7.54c-0.104-0.38-0.29-0.654-0.747-0.577
			l-0.015-0.005C61.83,6.909,61.772,6.859,61.714,6.81z M28.398,56.748c-0.062-0.075-0.125-0.15-0.188-0.226
			c-0.413-0.182-0.814-0.233-1.285-0.265c-1.101-0.074-0.898,0.519-0.8,1.075c0.068,0.385,0.088,0.761,0.089,1.142
			c0.005,2.117-0.008,4.234,0.016,6.351c0.003,0.247-0.252,0.69,0.312,0.731c0.056-0.006,0.112-0.012,0.168-0.018
			c0.061,0.028,0.121,0.057,0.181,0.085c1.873,0.138,3.744,0.163,5.616-0.011c0.17-0.021,0.341-0.045,0.512-0.066
			c0.026,0.009,0.052,0.025,0.078,0.023c0.021-0.001,0.058-0.025,0.058-0.039c-0.002-0.5,0.192-1.019-0.144-1.486
			c-0.056-0.001-0.107-0.016-0.156-0.044c-0.015-0.107-0.041-0.222-0.171-0.223c-0.128-0.001-0.16,0.111-0.182,0.218l0.022,0.062
			c-0.885-0.021-1.771-0.044-2.656-0.065c-0.224-0.431-0.449-0.429-0.673,0c-0.107-0.001-0.215-0.002-0.322-0.002
			c-0.3-0.351-0.348-0.758-0.342-1.208c0.02-1.723,0.013-3.447,0.003-5.17C28.533,57.321,28.633,57.005,28.398,56.748z
			 M52.159,65.377c1.229,0.613,1.806,0.299,1.814-0.977c0.015-2.099,0.039-4.196,0.06-6.295c0.451-0.449,0.926,0.151,1.384-0.031
			c0.302,0.013,0.608-0.001,0.905,0.045c0.707,0.107,0.621-0.343,0.643-0.802c0.025-0.525-0.041-0.788-0.687-0.774
			c-2.123,0.043-4.248,0.03-6.373,0.004c-0.52-0.006-0.693,0.114-0.718,0.675c-0.032,0.728,0.174,1.016,0.911,0.899
			c0.269-0.043,0.551,0.003,0.826,0.009c1.153,0.282,1.135,0.282,1.157,1.554C52.114,61.581,51.975,63.481,52.159,65.377z
			 M98.069,55.609c-0.145,0.197-0.309,0.378-0.361,0.634c-0.143,0.689,0.268,1.335,0.96,1.485c0.704,0.153,1.4-0.304,1.54-1.012
			c0.124-0.629-0.264-1.135-1.002-1.306C98.826,55.47,98.365,55.065,98.069,55.609z M80.538,56.702
			c-1.832-0.396-3.645-0.5-5.394,0.355c-0.798,0.417-1.099,1.146-1.126,1.974c-0.043,1.321-0.051,2.646-0.006,3.967
			c0.044,1.316,0.787,2.228,2.079,2.54c1.327,0.32,2.678,0.242,4.014,0.013c1.362-0.234,1.957-0.938,2.007-2.303
			c0.046-1.271,0.046-1.247-1.226-1.234c-0.482,0.004-0.589,0.164-0.591,0.62c-0.004,1.28-0.035,1.29-1.334,1.46
			c-0.661-0.013-1.323-0.026-1.985-0.039c-0.697-0.013-1.104-0.374-1.122-1.061c-0.032-1.324-0.021-2.648-0.014-3.974
			c0.002-0.476,0.258-0.706,0.739-0.81c0.933-0.201,1.868-0.145,2.804-0.113c0.485,0.016,0.812,0.326,0.754,0.805
			c-0.12,0.977,0.359,1.131,1.152,0.957c0.11,0,0.222-0.001,0.332-0.002c0.169,0.037,0.354,0.068,0.347-0.185
			c-0.018-0.669,0.129-1.367-0.318-1.967c0.004-0.139-0.024-0.26-0.172-0.315c-0.154-0.382-0.451-0.579-0.845-0.65
			C80.612,56.701,80.581,56.688,80.538,56.702z M61.929,57.425c-0.012,2.537-0.014,5.074-0.044,7.611
			c-0.006,0.444,0.135,0.556,0.565,0.55c1.766-0.023,3.532,0,5.298-0.017c0.274-0.003,0.752,0.185,0.791-0.178
			c0.045-0.423,0.28-0.953-0.189-1.332c-1.02-0.013-2.04-0.032-3.06-0.036c-1.61-0.007-1.589-0.002-1.595-1.604
			c-0.002-0.524,0.117-0.731,0.684-0.705c0.991,0.046,1.985,0.013,2.979,0.01c1.055-0.002,1.055-0.004,1.018-1.081
			c-0.002-0.082-0.025-0.162-0.039-0.244c-0.032-0.24-0.227-0.193-0.373-0.193c-1.193,0.005-2.386,0.018-3.579,0.027
			c-0.492,0.017-0.753-0.161-0.689-0.714c0.052-0.457,0.029-0.922,0.04-1.383c1.398-0.007,2.797-0.005,4.195-0.031
			c0.234-0.004,0.68,0.211,0.599-0.363c0-0.059,0-0.117,0.001-0.176c-0.084-0.351,0.388-0.982-0.374-0.993
			c-2.036-0.026-4.072,0.018-6.108,0.034C61.734,56.84,61.926,57.146,61.929,57.425z M95.573,62.476
			c0.138-0.614,0.141-1.229-0.001-1.842c0.102-0.16,0.102-0.32,0.001-0.481c0.194-1.089,0.025-2.189,0.097-3.282
			c0.018-0.273-0.138-0.326-0.355-0.325c-0.22,0.001-0.444,0.035-0.658,0.001c-0.634-0.101-0.894,0.099-0.826,0.784
			c0.067,0.682-0.021,1.377,0.032,2.06c0.053,0.674-0.219,0.841-0.852,0.817c-1.235-0.045-2.473-0.015-3.71-0.017
			c-0.138-0.343-0.061-0.703-0.084-1.055c-0.056-0.832,0.125-1.675-0.12-2.498c-0.498-0.146-1.002-0.082-1.506-0.039
			c-0.064,0.04-0.185,0.08-0.185,0.12c-0.012,2.844-0.021,5.687-0.011,8.53c0.002,0.582,0.486,0.329,0.751,0.33
			c1.172,0.007,1.069,0.217,1.073-1.023c0.003-0.745,0.008-1.491-0.008-2.235c-0.009-0.375,0.119-0.558,0.519-0.554
			c1.188,0.012,2.374,0.012,3.562-0.001c0.426-0.004,0.578,0.163,0.565,0.594c-0.026,0.883-0.015,1.767,0.004,2.649
			c0.004,0.184-0.159,0.466,0.196,0.534c0.063,0.002,0.128,0.005,0.192,0.007c0.105-0.001,0.211-0.002,0.315-0.003
			c0.229,0.001,0.458,0.003,0.688,0.005c0.162,0.056,0.3,0.063,0.316-0.164c0.141-0.92,0.146-1.841,0.003-2.762
			c0.018-0.014,0.052-0.032,0.05-0.041C95.611,62.547,95.591,62.512,95.573,62.476z M20.994,61.113c-0.017,0-0.035,0-0.052,0
			c0-0.8,0.057-1.604-0.014-2.398c-0.104-1.16-0.801-1.926-1.893-2.106c-1.314-0.219-2.644-0.232-3.959-0.017
			c-1.218,0.2-1.884,0.838-2.014,2.076c-0.168,1.618-0.175,3.252,0.011,4.873c0.125,1.091,0.801,1.727,1.84,1.977
			c1.196,0.289,2.417,0.292,3.618,0.095c1.783-0.292,2.411-1.061,2.46-2.843C21.007,62.218,20.994,61.665,20.994,61.113z
			 M45.405,56.555c-0.491,0-0.816,0.041-1.126-0.008c-0.774-0.123-1.271,0.164-1.68,0.84c-0.464,0.766-1.078,1.439-1.588,2.179
			c-0.309,0.448-0.438,0.421-0.729-0.044c-0.553-0.884-1.201-1.709-1.808-2.56c-0.144-0.201-0.266-0.418-0.569-0.413
			c-0.568,0.01-1.136,0.003-1.88,0.003c0.741,1.059,1.316,2.03,2.037,2.878c1.315,1.545,2.019,3.24,1.685,5.292
			c-0.026,0.161,0.002,0.33-0.002,0.495c-0.007,0.227,0.074,0.332,0.32,0.381c1.192,0.237,1.502,0.001,1.503-1.189
			c0-0.386,0.042-0.777-0.008-1.157c-0.132-1,0.23-1.791,0.84-2.568C43.413,59.391,44.339,58.029,45.405,56.555z"/>
		<path fill-rule="evenodd" clip-rule="evenodd" fill="#114C74" d="M5.977,62.342c-0.828,0.012-1.661,0.089-2.481,0.017
			c-0.836-0.075-1.061,0.239-0.972,1.017c0.063,0.545-0.012,1.104,0.017,1.655c0.022,0.424-0.097,0.612-0.553,0.562
			c-0.438-0.048-0.881-0.039-1.322-0.055c0-0.056,0-0.111,0-0.166c0.282-0.24,0.161-0.566,0.163-0.854
			c0.012-2.592,0.011-5.184,0.013-7.775c1.625,0.001,3.248-0.002,4.873,0.003c0.941,0.003,2.229,0.808,2.244,1.645
			c0.012,0.66,0.075,1.33-0.014,1.979c-0.091,0.662-0.364,1.285-1.188,1.354C6.352,61.755,6.12,61.988,5.977,62.342z M6.288,60.668
			c0.317-0.392,0.325-0.855,0.315-1.327c-0.022-1.057-0.187-1.221-1.266-1.227c-0.741-0.004-1.482-0.006-2.223,0
			c-0.185,0.001-0.393-0.046-0.531,0.14c-0.187,0.253-0.008,2.272,0.227,2.583c1.11,0.43,2.247,0.206,3.375,0.119
			C6.226,60.953,6.253,60.769,6.288,60.668z"/>
		<path fill-rule="evenodd" clip-rule="evenodd" fill="#284E67" d="M5.977,62.342c0.143-0.354,0.375-0.587,0.779-0.62
			c0.825-0.068,1.098-0.691,1.188-1.354c0.089-0.648,0.026-1.318,0.014-1.979c-0.016-0.837-1.303-1.642-2.244-1.645
			c-1.625-0.005-3.248-0.002-4.873-0.003c-0.059,0.001-0.117,0.001-0.176,0.002c0-0.055,0-0.11,0-0.166
			c1.816-0.008,3.633-0.043,5.449-0.015c1.255,0.021,1.996,0.688,2.197,1.918c0.079,0.484,0.092,0.988,0.063,1.479
			C8.288,61.471,7.521,62.215,5.977,62.342z"/>
		<path fill-rule="evenodd" clip-rule="evenodd" fill="#476378" d="M0.666,56.744c0.059-0.001,0.117-0.001,0.176-0.002
			c-0.002,2.592-0.001,5.184-0.013,7.775c-0.001,0.287,0.119,0.613-0.163,0.854C0.666,62.495,0.666,59.62,0.666,56.744z"/>
		<path fill-rule="evenodd" clip-rule="evenodd" fill="#1F9BD5" d="M41.281,13.26c-0.055-0.006-0.099,0.014-0.13,0.059
			c-1.645,0.847-2.956,2.057-3.95,3.615c-0.044,0.022-0.065,0.059-0.064,0.108c-0.825,0.783-1.179,1.842-1.642,2.833
			c-0.163,0.35-0.326,0.605-0.776,0.604c-2.678-0.011-5.356-0.006-8.035,0.002c-0.448,0.001-0.576-0.194-0.504-0.618
			c0.092-0.542,0.364-1.045,0.347-1.61c0.034-0.044,0.043-0.093,0.029-0.147c0.342-0.508,0.497-1.087,0.628-1.674
			c0.453-0.937,0.907-1.874,1.36-2.811c0.317-0.271,0.516-0.617,0.64-1.011l0.009-0.014c0.667-0.878,1.333-1.756,2-2.633
			c1.952-2.048,4.1-3.845,6.654-5.106c6.777-3.348,13.581-3.41,20.391-0.116c0.965,0.467,1.873,1.049,2.808,1.578
			c0.152,0.261,0.392,0.404,0.67,0.494L61.714,6.81c0.012,0.104,0.07,0.153,0.174,0.148l0.015,0.005
			c0.204,0.25,0.413,0.494,0.747,0.577c0,0,0.002,0.009,0.002,0.009c0.842,0.816,1.684,1.633,2.525,2.45
			c0,0-0.015-0.004-0.014-0.004c0.093,0.281,0.271,0.49,0.534,0.628c1.538,2.063,2.884,4.229,3.739,6.679
			c1.507,4.315,1.761,8.694,0.63,13.12c-1.579,6.176-5.091,11.004-10.671,14.073c-8.213,4.517-16.335,4.038-24.195-1.051
			c-0.18-0.116-0.353-0.358-0.572-0.25c-0.264,0.131-0.147,0.448-0.149,0.674c-0.014,1.713-0.002,3.427-0.003,5.14
			c0,0.996-0.033,1.021-1.03,0.939c-4.162-0.338-7.066-3.181-7.307-7.606c-0.223-4.105-0.079-8.231-0.104-12.348
			c-0.003-0.426,0.181-0.589,0.598-0.588c2.708,0.008,5.417,0.015,8.125-0.002c0.504-0.003,0.662,0.303,0.814,0.671
			c1.367,3.312,3.674,5.754,6.929,7.223c3.861,1.743,7.746,1.72,11.585-0.14c0.445-0.113,0.848-0.303,1.163-0.648h0.001
			c0.065-0.049,0.131-0.097,0.195-0.145l-0.002,0.011c0.526-0.131,0.909-0.465,1.237-0.875c7.775-6.087,6.617-18.805-3.159-23.069
			c-3.917-1.708-7.894-1.565-11.713,0.522C41.573,12.955,41.416,13.087,41.281,13.26z"/>
		<path fill-rule="evenodd" clip-rule="evenodd" fill="#164E76" d="M20.994,61.113c0,0.552,0.013,1.104-0.002,1.656
			c-0.049,1.782-0.677,2.551-2.46,2.843c-1.2,0.197-2.421,0.194-3.618-0.095c-1.039-0.25-1.715-0.886-1.84-1.977
			c-0.186-1.621-0.179-3.255-0.011-4.873c0.129-1.238,0.796-1.876,2.014-2.076c1.315-0.216,2.645-0.202,3.959,0.017
			c1.091,0.181,1.789,0.946,1.893,2.106c0.071,0.794,0.014,1.599,0.014,2.398C20.959,61.113,20.977,61.113,20.994,61.113z
			 M14.812,61.06c0.001,0.001,0.001,0.001,0.002,0.001c0,0.69-0.024,1.382,0.008,2.07c0.025,0.533,0.318,0.892,0.884,0.902
			c0.883,0.016,1.767,0.014,2.65-0.012c0.424-0.012,0.67-0.205,0.735-0.701c0.188-1.433,0.114-2.86,0.051-4.292
			c-0.026-0.604-0.353-0.922-0.937-0.939c-0.8-0.024-1.602-0.022-2.402-0.003c-0.622,0.015-0.975,0.354-0.989,0.986
			C14.801,59.734,14.812,60.397,14.812,61.06z"/>
		<path fill-rule="evenodd" clip-rule="evenodd" fill="#164F77" d="M94.058,65.543c-0.355-0.068-0.192-0.351-0.196-0.534
			c-0.019-0.883-0.03-1.767-0.004-2.649c0.013-0.431-0.14-0.598-0.565-0.594c-1.188,0.013-2.374,0.013-3.562,0.001
			c-0.399-0.004-0.527,0.179-0.519,0.554c0.016,0.744,0.011,1.49,0.008,2.235c-0.004,1.24,0.099,1.03-1.073,1.023
			c-0.265-0.001-0.749,0.252-0.751-0.33c-0.01-2.844-0.001-5.687,0.011-8.53c0-0.04,0.12-0.08,0.185-0.12
			c0.055,0.147-0.089,0.442,0.266,0.37c0.952-0.195,1.059-0.115,1.066,0.848c0.006,0.679,0.001,1.358,0.001,2.038
			c0.058-0.002,0.115-0.003,0.173-0.005c0-1.071,0-2.142,0-3.212c0.245,0.823,0.064,1.666,0.12,2.498
			c0.023,0.352-0.054,0.712,0.084,1.055c0.116,0.028,0.233,0.058,0.352,0.086c1.285,0.195,2.57,0.193,3.856,0
			c0.402-0.079,0.4-0.383,0.397-0.698c-0.005-0.576-0.095-1.175,0.032-1.723c0.099-0.427,0.092-1.123,0.817-1.098
			c0.738,0.026,0.819,0.571,0.807,1.171c-0.015,0.741,0.005,1.483,0.01,2.225c0.102,0.16,0.102,0.32,0,0.48
			c0,0.614,0.001,1.228,0.001,1.842c0.018,0.036,0.038,0.071,0.049,0.109c0.002,0.009-0.032,0.027-0.049,0.041
			c-0.001,0.921-0.003,1.842-0.004,2.762c-0.017,0.228-0.154,0.22-0.316,0.164c-0.229-0.002-0.458-0.004-0.688-0.005
			c-0.104,0.001-0.21,0.002-0.315,0.003C94.187,65.547,94.122,65.545,94.058,65.543z"/>
		<path fill-rule="evenodd" clip-rule="evenodd" fill="#114C74" d="M63.735,58.137c-0.011,0.461,0.012,0.926-0.04,1.383
			c-0.063,0.553,0.197,0.73,0.689,0.714c0.212,0.256,0.505,0.153,0.765,0.156c1.062,0.013,2.125,0.008,3.188,0.01
			c0.014,0.082,0.037,0.162,0.039,0.244c0.037,1.077,0.037,1.079-1.018,1.081c-0.994,0.003-1.988,0.036-2.979-0.01
			c-0.566-0.026-0.686,0.181-0.684,0.705c0.006,1.602-0.016,1.597,1.595,1.604c1.02,0.004,2.04,0.023,3.06,0.036
			c-0.01,1.501,0.175,1.299-1.321,1.309c-1.403,0.009-2.808-0.029-4.21,0.015c-0.633,0.02-0.795-0.2-0.784-0.806
			c0.033-1.98,0.02-3.962,0.005-5.943c-0.004-0.402,0.123-0.825-0.11-1.209c-0.003-0.279-0.194-0.585,0.119-0.817
			c0.033,0.16,0.11,0.188,0.286,0.184c1.324-0.029,2.658-0.137,3.969-0.007c0.756,0.075,1.805-0.353,2.228,0.782
			c-0.001,0.059-0.001,0.117-0.001,0.176c-1.494,0.029-2.989-0.058-4.484,0.067C63.763,57.833,63.725,57.919,63.735,58.137z"/>
		<path fill-rule="evenodd" clip-rule="evenodd" fill="#134D77" d="M78.962,64.094c1.299-0.17,1.33-0.18,1.334-1.46
			c0.002-0.456,0.108-0.616,0.591-0.62c1.271-0.013,1.271-0.037,1.226,1.234c-0.05,1.364-0.645,2.068-2.007,2.303
			c-1.336,0.229-2.687,0.308-4.014-0.013c-1.292-0.312-2.035-1.224-2.079-2.54c-0.045-1.32-0.037-2.646,0.006-3.967
			c0.027-0.828,0.328-1.557,1.125-1.974c1.774-0.481,3.595-0.265,5.395-0.355c0.043-0.014,0.074-0.001,0.096,0.038
			c0.156,0.38,0.366,0.689,0.845,0.65c0.147,0.056,0.176,0.177,0.171,0.314c-0.009,0.718-0.018,1.436-0.027,2.152
			c-0.11,0.001-0.222,0.002-0.332,0.002c-0.008-0.165-0.006-0.422-0.184-0.41c-0.824,0.054-0.791-0.465-0.842-1.051
			c-0.036-0.418-0.409-0.813-0.848-0.742c-0.885,0.143-1.765,0.032-2.644,0.088c-0.742,0.047-1.546,0.742-1.416,1.432
			c0.184,0.977-0.099,1.906-0.057,2.864c0.079,1.788,0.555,2.354,2.315,2.317C78.062,64.348,78.606,64.637,78.962,64.094z"/>
		<path fill-rule="evenodd" clip-rule="evenodd" fill="#164E74" d="M45.405,56.555c-1.066,1.475-1.992,2.836-3.006,4.128
			c-0.61,0.777-0.972,1.568-0.84,2.568c0.05,0.38,0.008,0.771,0.008,1.157c0,1.19-0.311,1.427-1.503,1.189
			c-0.246-0.049-0.327-0.154-0.32-0.381c0.005-0.165-0.024-0.334,0.002-0.495c0.334-2.052-0.37-3.747-1.685-5.292
			c-0.721-0.848-1.296-1.819-2.037-2.878c0.744,0,1.312,0.007,1.88-0.003c0.303-0.005,0.425,0.212,0.569,0.413
			c0.607,0.851,1.255,1.676,1.808,2.56c0.291,0.465,0.419,0.492,0.729,0.044c0.51-0.739,1.124-1.413,1.588-2.179
			c0.41-0.676,0.906-0.963,1.68-0.84C44.589,56.596,44.915,56.555,45.405,56.555z"/>
		<path fill-rule="evenodd" clip-rule="evenodd" fill="#0D4A74" d="M55.417,58.074c-0.458,0.183-0.933-0.418-1.384,0.031
			c-0.435,0.13-0.27,0.495-0.271,0.764c-0.015,1.846-0.006,3.692-0.009,5.538c-0.001,0.477,0.152,0.995-0.683,0.985
			c-0.865-0.012-0.635-0.581-0.638-1.024c-0.015-1.818,0.001-3.638-0.013-5.456c-0.002-0.273,0.157-0.623-0.226-0.802
			c-0.302-0.156-0.604-0.298-0.932-0.061c-0.19-0.547-0.652-0.223-0.986-0.304c-0.292-0.071-0.779,0.075-0.794-0.329
			c-0.018-0.457,0.379-0.675,0.856-0.674c1.841,0.005,3.681,0.006,5.521-0.001c0.356-0.001,0.763,0.067,0.776,0.432
			c0.014,0.375-0.346,0.579-0.754,0.568C55.646,57.735,55.436,57.772,55.417,58.074z"/>
		<path fill-rule="evenodd" clip-rule="evenodd" fill="#104D77" d="M29.869,63.992c0.885,0.021,1.771,0.044,2.656,0.065
			c0.026,0.105,0.039,0.217,0.08,0.316c0.396,0.951,0.369,0.994-0.679,0.995c-1.348,0.002-2.698-0.043-4.043,0.018
			c-0.775,0.034-1.042-0.17-1.025-0.988c0.05-2.447,0.011-4.896,0.007-7.345c0.502-0.511,0.789-0.465,1.02,0.163
			c-0.004,2.036-0.012,4.073-0.006,6.109c0.001,0.274-0.132,0.644,0.333,0.716c0.06-0.008,0.119-0.015,0.179-0.022
			c0.162-0.01,0.323-0.02,0.484-0.029c0.107,0,0.215,0.001,0.322,0.002C29.42,63.992,29.645,63.992,29.869,63.992z"/>
		<path fill-rule="evenodd" clip-rule="evenodd" fill="#284E67" d="M78.962,64.094c-0.355,0.543-0.9,0.254-1.346,0.264
			c-1.761,0.037-2.236-0.529-2.315-2.317c-0.042-0.958,0.24-1.888,0.057-2.864c-0.13-0.689,0.674-1.385,1.416-1.432
			c0.879-0.056,1.759,0.055,2.644-0.088c0.438-0.071,0.812,0.324,0.848,0.742c0.051,0.586,0.018,1.104,0.842,1.051
			c0.178-0.012,0.176,0.245,0.184,0.41c-0.793,0.174-1.272,0.02-1.152-0.957c0.059-0.479-0.269-0.789-0.754-0.805
			c-0.936-0.031-1.871-0.088-2.804,0.113c-0.481,0.104-0.737,0.334-0.739,0.81c-0.007,1.325-0.019,2.649,0.014,3.974
			c0.018,0.687,0.425,1.048,1.122,1.061C77.639,64.067,78.301,64.081,78.962,64.094z"/>
		<path fill-rule="evenodd" clip-rule="evenodd" fill="#1B415B" d="M26.864,57.054c0.004,2.448,0.043,4.897-0.007,7.345
			c-0.017,0.818,0.25,1.022,1.025,0.988c1.345-0.061,2.695-0.016,4.043-0.018c1.048-0.001,1.075-0.044,0.679-0.995
			c-0.042-0.1-0.054-0.211-0.08-0.316l-0.022-0.062c0.118,0.001,0.235,0.003,0.353,0.005c0.048,0.028,0.1,0.043,0.156,0.044
			c0.003,0.5,0.006,1.001,0.008,1.502c-0.17,0.021-0.341,0.045-0.512,0.066c-1.872-0.07-3.744-0.09-5.616,0.011
			c-0.06-0.028-0.12-0.057-0.181-0.085c-0.043-0.111-0.086-0.223-0.13-0.334c0.001-2.707,0.002-5.415,0.003-8.122
			C26.678,57.073,26.771,57.063,26.864,57.054z"/>
		<path fill-rule="evenodd" clip-rule="evenodd" fill="#E3EEF3" d="M26.585,57.083c-0.001,2.707-0.002,5.415-0.003,8.122
			c-0.013,0.117-0.026,0.234-0.039,0.352c-0.564-0.041-0.309-0.484-0.312-0.731c-0.024-2.116-0.011-4.233-0.016-6.351
			c-0.001-0.381-0.021-0.757-0.089-1.142c-0.099-0.557-0.301-1.149,0.8-1.075c0.471,0.031,0.872,0.083,1.285,0.265
			c-0.403,0.009-0.806,0.033-1.208,0.023C26.599,56.536,26.457,56.696,26.585,57.083z"/>
		<path fill-rule="evenodd" clip-rule="evenodd" fill="#E3EEF3" d="M26.527,18.253c0.018,0.564-0.254,1.067-0.347,1.61
			c-0.072,0.424,0.056,0.619,0.504,0.618c2.678-0.008,5.356-0.013,8.035-0.002c0.45,0.002,0.613-0.254,0.776-0.604
			c0.463-0.992,0.816-2.05,1.642-2.833c0.105,0.316-0.113,0.519-0.269,0.737c-0.534,0.745-0.752,1.656-1.289,2.407
			c-0.179,0.25-0.303,0.411-0.624,0.409c-3.013-0.012-6.026-0.014-9.039-0.022c-0.078,0-0.156-0.043-0.291-0.083
			C26.031,19.773,25.938,18.885,26.527,18.253z"/>
		<path fill-rule="evenodd" clip-rule="evenodd" fill="#476378" d="M99.206,55.411c0.738,0.171,1.126,0.677,1.002,1.306
			c-0.14,0.708-0.836,1.165-1.54,1.012c-0.692-0.15-1.103-0.796-0.96-1.485c0.053-0.256,0.217-0.437,0.361-0.634
			c0.119,0.003,0.238,0.006,0.357,0.008c-0.028,0.088-0.057,0.175-0.085,0.263c-0.484,0.708-0.419,1.057,0.402,1.384
			c-0.454-0.438-0.496-0.84-0.275-1.269c0.381-0.22,0.738-0.15,1.082,0.087c-0.081,0.144-0.126,0.402-0.357,0.144
			c-0.179-0.201-0.331-0.139-0.461,0.032c-0.103,0.136-0.104,0.3-0.027,0.46c0.084,0.178,0.218,0.184,0.399,0.168
			c0.511-0.044,0.747-0.261,0.574-0.79C99.521,55.868,99.363,55.64,99.206,55.411z"/>
		<path fill-rule="evenodd" clip-rule="evenodd" fill="#1B415B" d="M55.417,58.074c0.019-0.302,0.229-0.339,0.466-0.332
			c0.408,0.011,0.768-0.193,0.754-0.568c-0.014-0.364-0.42-0.433-0.776-0.432c-1.841,0.007-3.681,0.006-5.521,0.001
			c-0.478-0.001-0.874,0.217-0.856,0.674c0.015,0.404,0.502,0.258,0.794,0.329c0.333,0.081,0.795-0.243,0.986,0.304
			c-0.113,0.026-0.226,0.053-0.338,0.08c-0.275-0.006-0.558-0.052-0.826-0.009c-0.736,0.116-0.943-0.172-0.911-0.899
			c0.025-0.561,0.198-0.681,0.718-0.675c2.125,0.026,4.25,0.039,6.373-0.004c0.646-0.014,0.712,0.249,0.687,0.774
			c-0.021,0.459,0.064,0.909-0.643,0.802C56.025,58.073,55.719,58.087,55.417,58.074z"/>
		<path fill-rule="evenodd" clip-rule="evenodd" fill="#1B415B" d="M61.929,57.425c0.233,0.384,0.106,0.807,0.11,1.209
			c0.015,1.981,0.028,3.963-0.005,5.943c-0.011,0.605,0.151,0.825,0.784,0.806c1.402-0.044,2.807-0.006,4.21-0.015
			c1.496-0.01,1.312,0.192,1.321-1.309c0.47,0.379,0.234,0.909,0.189,1.332c-0.039,0.362-0.517,0.175-0.791,0.178
			c-1.766,0.017-3.532-0.007-5.298,0.017c-0.431,0.006-0.571-0.105-0.565-0.55C61.915,62.499,61.917,59.962,61.929,57.425z"/>
		<path fill-rule="evenodd" clip-rule="evenodd" fill="#284E67" d="M89.652,60.276c-0.118-0.028-0.235-0.058-0.352-0.086
			c1.237,0.002,2.475-0.028,3.71,0.017c0.633,0.023,0.904-0.144,0.852-0.817c-0.054-0.683,0.035-1.378-0.032-2.06
			c-0.067-0.686,0.192-0.885,0.826-0.784c0.214,0.034,0.438,0,0.658-0.001c0.218-0.001,0.373,0.052,0.355,0.325
			c-0.071,1.093,0.098,2.193-0.098,3.283c-0.005-0.741-0.024-1.483-0.01-2.225c0.013-0.6-0.068-1.145-0.807-1.171
			c-0.726-0.025-0.719,0.671-0.817,1.098c-0.127,0.548-0.037,1.146-0.032,1.723c0.003,0.315,0.005,0.619-0.397,0.697
			C92.224,60.276,90.938,60.276,89.652,60.276z"/>
		<path fill-rule="evenodd" clip-rule="evenodd" fill="#284E67" d="M52.194,58.11c0.383,0.179,0.224,0.528,0.226,0.802
			c0.014,1.818-0.002,3.638,0.013,5.456c0.003,0.443-0.228,1.013,0.638,1.024c0.835,0.01,0.682-0.509,0.683-0.985
			c0.003-1.846-0.006-3.692,0.009-5.538c0.002-0.269-0.163-0.634,0.271-0.764c-0.021,2.099-0.045,4.196-0.06,6.295
			c-0.009,1.275-0.585,1.59-1.814,0.977C52.316,62.955,52.245,60.532,52.194,58.11z"/>
		<path fill-rule="evenodd" clip-rule="evenodd" fill="#476378" d="M26.585,57.083c-0.128-0.387,0.014-0.547,0.417-0.537
			c0.402,0.01,0.806-0.015,1.208-0.023c0.062,0.075,0.125,0.15,0.188,0.226c-0.083,2.424-0.066,4.848-0.009,7.271
			c-0.06,0.008-0.119,0.015-0.179,0.022c-0.005-2.001-0.004-4.002-0.024-6.003c-0.003-0.292,0.177-0.689-0.302-0.822
			c-0.231-0.628-0.518-0.674-1.02-0.163C26.771,57.063,26.678,57.073,26.585,57.083z"/>
		<path fill-rule="evenodd" clip-rule="evenodd" fill="#476378" d="M80.538,56.702c-1.8,0.091-3.62-0.126-5.395,0.355
			C76.894,56.202,78.706,56.306,80.538,56.702z"/>
		<path fill-rule="evenodd" clip-rule="evenodd" fill="#E3EEF3" d="M37.201,16.934c0.994-1.558,2.305-2.768,3.95-3.615
			c-0.367,0.76-1.255,0.905-1.771,1.529C38.743,15.619,38.046,16.364,37.201,16.934z"/>
		<path fill-rule="evenodd" clip-rule="evenodd" fill="#1B415B" d="M63.735,58.137c-0.011-0.218,0.027-0.304,0.31-0.327
			c1.495-0.125,2.99-0.038,4.484-0.067c0.081,0.574-0.364,0.359-0.599,0.363C66.532,58.132,65.134,58.13,63.735,58.137z"/>
		<path fill-rule="evenodd" clip-rule="evenodd" fill="#A4C3DB" d="M52.194,58.11c0.051,2.422,0.122,4.845-0.035,7.267
			c-0.185-1.896-0.045-3.796-0.077-5.693c-0.022-1.271-0.004-1.271-1.157-1.554c0.112-0.027,0.225-0.054,0.338-0.08
			C51.59,57.812,51.893,57.954,52.194,58.11z"/>
		<path fill-rule="evenodd" clip-rule="evenodd" fill="#1B415B" d="M68.53,57.566c-0.423-1.135-1.472-0.707-2.228-0.782
			c-1.311-0.13-2.645-0.022-3.969,0.007c-0.176,0.004-0.253-0.023-0.286-0.184c2.036-0.017,4.072-0.061,6.108-0.034
			C68.918,56.584,68.446,57.216,68.53,57.566z"/>
		<path fill-rule="evenodd" clip-rule="evenodd" fill="#E3EEF3" d="M65.177,9.999c-0.842-0.817-1.684-1.634-2.525-2.45
			c0.72-0.116,1.03,0.544,1.489,0.863C64.651,8.766,65.209,9.227,65.177,9.999z"/>
		<path fill-rule="evenodd" clip-rule="evenodd" fill="#E3EEF3" d="M28.389,64.02c-0.057-2.424-0.073-4.848,0.009-7.271
			c0.234,0.257,0.134,0.573,0.136,0.864c0.009,1.723,0.017,3.447-0.003,5.17c-0.005,0.45,0.042,0.857,0.342,1.208
			C28.712,64,28.551,64.01,28.389,64.02z"/>
		<path fill-rule="evenodd" clip-rule="evenodd" fill="#E3EEF3" d="M31.192,9.962c-0.667,0.877-1.333,1.755-2,2.633
			c-0.114-0.673,0.165-1.152,0.713-1.527C30.373,10.749,30.618,10.164,31.192,9.962z"/>
		<path fill-rule="evenodd" clip-rule="evenodd" fill="#1B415B" d="M89.097,56.638c0,1.07,0,2.141,0,3.212
			c-0.058,0.002-0.115,0.003-0.173,0.005c0-0.68,0.005-1.359-0.001-2.038c-0.008-0.963-0.114-1.043-1.066-0.848
			c-0.354,0.072-0.211-0.223-0.266-0.37C88.095,56.556,88.599,56.492,89.097,56.638z"/>
		<path fill-rule="evenodd" clip-rule="evenodd" fill="#E3EEF3" d="M26.892,65.624c1.872-0.101,3.744-0.081,5.616-0.011
			C30.636,65.787,28.765,65.762,26.892,65.624z"/>
		<path fill-rule="evenodd" clip-rule="evenodd" fill="#284E67" d="M81.622,59.857c0.01-0.717,0.019-1.435,0.027-2.152
			c0.448,0.601,0.302,1.299,0.319,1.968C81.976,59.926,81.791,59.895,81.622,59.857z"/>
		<path fill-rule="evenodd" clip-rule="evenodd" fill="#1B415B" d="M68.337,60.399c-1.062-0.002-2.125,0.003-3.188-0.01
			c-0.26-0.003-0.553,0.1-0.765-0.156c1.193-0.01,2.386-0.022,3.579-0.027C68.11,60.206,68.305,60.159,68.337,60.399z"/>
		<path fill-rule="evenodd" clip-rule="evenodd" fill="#E3EEF3" d="M56.68,35.499c-0.328,0.41-0.711,0.744-1.237,0.875
			C55.429,35.48,56.066,35.507,56.68,35.499z"/>
		<path fill-rule="evenodd" clip-rule="evenodd" fill="#A4C3DB" d="M99.551,56.082c-0.344-0.237-0.701-0.307-1.082-0.087
			c-0.043-0.039-0.085-0.077-0.128-0.115c0.029-0.088,0.058-0.175,0.086-0.263c-0.119-0.002-0.238-0.005-0.357-0.008
			c0.296-0.544,0.757-0.14,1.137-0.198c0.157,0.229,0.315,0.457,0.473,0.685C99.636,56.1,99.593,56.096,99.551,56.082z"/>
		<path fill-rule="evenodd" clip-rule="evenodd" fill="#E3EEF3" d="M27.184,16.432c-0.132,0.587-0.287,1.166-0.628,1.674
			C26.462,17.434,26.575,16.84,27.184,16.432z"/>
		<path fill-rule="evenodd" clip-rule="evenodd" fill="#284E67" d="M95.569,65.388c0.001-0.92,0.003-1.841,0.004-2.762
			C95.716,63.547,95.71,64.468,95.569,65.388z"/>
		<path fill-rule="evenodd" clip-rule="evenodd" fill="#E3EEF3" d="M55.248,36.508c-0.315,0.346-0.718,0.535-1.163,0.648
			C54.267,36.57,54.709,36.452,55.248,36.508z"/>
		<path fill-rule="evenodd" clip-rule="evenodd" fill="#476378" d="M81.479,57.391C81,57.43,80.79,57.12,80.634,56.74
			C81.027,56.812,81.324,57.009,81.479,57.391z"/>
		<path fill-rule="evenodd" clip-rule="evenodd" fill="#E3EEF3" d="M29.184,12.61c-0.124,0.394-0.322,0.74-0.64,1.011
			C28.481,13.109,28.702,12.777,29.184,12.61z"/>
		<path fill-rule="evenodd" clip-rule="evenodd" fill="#284E67" d="M95.573,62.476c0-0.614-0.001-1.228-0.001-1.842
			C95.714,61.247,95.711,61.861,95.573,62.476z"/>
		<path fill-rule="evenodd" clip-rule="evenodd" fill="#E3EEF3" d="M33.02,65.547c-0.002-0.501-0.005-1.002-0.008-1.502
			c0.335,0.468,0.141,0.986,0.144,1.486c0,0.014-0.037,0.038-0.058,0.039C33.072,65.572,33.045,65.556,33.02,65.547z"/>
		<path fill-rule="evenodd" clip-rule="evenodd" fill="#E3EEF3" d="M62.649,7.54c-0.334-0.083-0.543-0.326-0.747-0.577
			C62.359,6.886,62.546,7.16,62.649,7.54z"/>
		<path fill-rule="evenodd" clip-rule="evenodd" fill="#E3EEF3" d="M61.715,6.812c-0.278-0.09-0.518-0.233-0.67-0.494
			C61.407,6.294,61.767,6.274,61.715,6.812z"/>
		<path fill-rule="evenodd" clip-rule="evenodd" fill="#E3EEF3" d="M65.697,10.623c-0.263-0.138-0.441-0.347-0.534-0.628
			C65.723,9.879,65.71,10.25,65.697,10.623z"/>
		<path fill-rule="evenodd" clip-rule="evenodd" fill="#E3EEF3" d="M29.869,63.992c-0.225,0-0.449,0-0.673,0
			C29.42,63.563,29.645,63.562,29.869,63.992z"/>
		<path fill-rule="evenodd" clip-rule="evenodd" fill="#E3EEF3" d="M41.281,13.26c0.135-0.172,0.292-0.305,0.527-0.307
			C41.78,13.309,41.532,13.287,41.281,13.26z"/>
		<path fill-rule="evenodd" clip-rule="evenodd" fill="#E3EEF3" d="M32.855,64.001c-0.117-0.002-0.235-0.004-0.353-0.005
			c0.022-0.106,0.053-0.219,0.182-0.218C32.814,63.779,32.841,63.894,32.855,64.001z"/>
		<path fill-rule="evenodd" clip-rule="evenodd" fill="#284E67" d="M94.565,65.547c0.229,0.001,0.458,0.003,0.688,0.005
			C95.023,65.55,94.795,65.548,94.565,65.547z"/>
		<path fill-rule="evenodd" clip-rule="evenodd" fill="#476378" d="M26.543,65.557c0.013-0.117,0.025-0.234,0.039-0.352
			c0.043,0.111,0.086,0.223,0.13,0.334C26.655,65.545,26.599,65.551,26.543,65.557z"/>
		<path fill-rule="evenodd" clip-rule="evenodd" fill="#E3EEF3" d="M55.444,36.363c-0.064,0.048-0.13,0.096-0.195,0.145
			C55.314,36.459,55.38,36.411,55.444,36.363z"/>
		<path fill-rule="evenodd" clip-rule="evenodd" fill="#E3EEF3" d="M61.888,6.958c-0.104,0.004-0.162-0.045-0.174-0.148
			C61.772,6.859,61.83,6.909,61.888,6.958z"/>
		<path fill-rule="evenodd" clip-rule="evenodd" fill="#284E67" d="M94.058,65.543c0.064,0.002,0.129,0.004,0.192,0.007
			C94.186,65.548,94.121,65.545,94.058,65.543z"/>
		<path fill-rule="evenodd" clip-rule="evenodd" fill="#EFF5F6" d="M2.81,60.837c-0.235-0.311-0.414-2.33-0.227-2.583
			c0.138-0.186,0.346-0.139,0.531-0.14c0.741-0.006,1.482-0.004,2.223,0c1.08,0.006,1.244,0.17,1.266,1.227
			c0.01,0.472,0.002,0.936-0.315,1.327c-0.218,0.043-0.437,0.085-0.655,0.128c-0.364-0.012-0.735-0.121-1.084,0.079
			C3.972,60.711,3.391,60.786,2.81,60.837z"/>
		<path fill-rule="evenodd" clip-rule="evenodd" fill="#1B415B" d="M5.633,60.796c0.218-0.043,0.437-0.085,0.655-0.128
			c-0.034,0.101-0.062,0.285-0.104,0.288c-1.128,0.087-2.265,0.311-3.375-0.119c0.582-0.051,1.163-0.126,1.739,0.038
			C4.911,60.865,5.283,60.986,5.633,60.796z"/>
		<path fill-rule="evenodd" clip-rule="evenodd" fill="#F4F8F9" d="M14.812,61.06c0-0.662-0.011-1.325,0.003-1.987
			c0.014-0.633,0.367-0.972,0.989-0.986c0.8-0.02,1.602-0.021,2.402,0.003c0.583,0.018,0.91,0.335,0.937,0.939
			c0.062,1.432,0.136,2.859-0.051,4.292c-0.065,0.496-0.312,0.689-0.735,0.701c-0.883,0.025-1.767,0.027-2.65,0.012
			c-0.566-0.011-0.859-0.369-0.884-0.902c-0.032-0.688-0.008-1.38-0.008-2.07C14.814,61.061,14.813,61.061,14.812,61.06z"/>
		<path fill-rule="evenodd" clip-rule="evenodd" fill="#1B415B" d="M89.652,60.276c1.285,0,2.571,0,3.856-0.001
			C92.223,60.47,90.938,60.472,89.652,60.276z"/>
		<path fill-rule="evenodd" clip-rule="evenodd" fill="#0D4A74" d="M27.884,57.217c0.479,0.133,0.299,0.53,0.302,0.822
			c0.02,2.001,0.019,4.002,0.024,6.003c-0.465-0.072-0.332-0.441-0.333-0.716C27.873,61.29,27.88,59.253,27.884,57.217z"/>
		<path fill-rule="evenodd" clip-rule="evenodd" fill="#E3EEF3" d="M99.551,56.082c0.042,0.014,0.085,0.018,0.128,0.014
			c0.173,0.529-0.063,0.746-0.574,0.79c-0.182,0.016-0.315,0.01-0.399-0.168c-0.076-0.16-0.075-0.324,0.027-0.46
			c0.13-0.171,0.282-0.233,0.461-0.032C99.425,56.484,99.47,56.226,99.551,56.082z"/>
		<path fill-rule="evenodd" clip-rule="evenodd" fill="#A4C3DB" d="M98.469,55.995c-0.221,0.429-0.179,0.831,0.275,1.269
			c-0.821-0.327-0.887-0.676-0.402-1.384C98.384,55.918,98.426,55.956,98.469,55.995z"/>
		<path fill-rule="evenodd" clip-rule="evenodd" fill="#114C74" d="M5.633,60.796c-0.35,0.19-0.722,0.069-1.084,0.079
			C4.897,60.675,5.269,60.784,5.633,60.796z"/>
	</g>
</g>
</svg>
