<?xml version="1.0" encoding="utf-8"?>
<!-- Generator: Adobe Illustrator 16.0.0, SVG Export Plug-In . SVG Version: 6.00 Build 0)  -->
<!DOCTYPE svg PUBLIC "-//W3C//DTD SVG 1.1//EN" "http://www.w3.org/Graphics/SVG/1.1/DTD/svg11.dtd">
<svg version="1.1" id="Calque_1" xmlns="http://www.w3.org/2000/svg" xmlns:xlink="http://www.w3.org/1999/xlink" x="0px" y="0px"
	 width="210px" height="258.147px" viewBox="0 0 210 258.147" enable-background="new 0 0 210 258.147" xml:space="preserve">
<path fill="#58585B" d="M190.428,195.092c0,1.109-0.979,2.712-2.06,2.712l-130.063-0.603c-2.346,0.901-4.7-0.699-4.7-1.807
	l2.747-81.31c0-1.106,0.875-2.006,1.954-2.006h127.816c1.078,0,1.953,0.899,1.953,2.006L190.428,195.092z"/>
<path fill="#A09F9F" d="M34.626,213.252l0.294,5.297c0,0,2.06,2.941,5.443,2.795c3.383-0.147,164.042,0.146,164.042,0.146
	s3.826-0.885,4.268-2.502s0.146-6.326,0.146-6.326L34.626,213.252z"/>
<path fill="#E4E5E6" d="M208.672,212.616c0,0.36,0,1.911-2.941,1.764l-166.836,0.147c-4.12,0.146-4.414-0.963-4.414-1.323
	l17.949-16.479c0-0.361,0.797-0.734,1.913-0.734l135.741-0.146c1.117,0,1.321,0.111,2.021,0.654L208.672,212.616z"/>
<path fill="#58585B" d="M147.709,212.569c0,0.229,0.143,0.707-0.404,0.707H98.168c-0.547,0-1.016-0.376-1.016-0.607l0.49-5.447
	c0-0.23,1.415-0.418,1.963-0.418h46.098c0.548,0,1.568,0.188,1.568,0.418L147.709,212.569z"/>
<polygon fill="#FFFFFF" points="61.988,117.865 182.053,117.865 184.088,190.542 60.535,190.542 "/>
<polygon fill="#58585B" points="187.793,203.934 57.86,204.063 59.88,198.133 185.001,198.133 "/>
<circle fill="#34C94D" cx="22.904" cy="73.691" r="19.499"/>
<circle fill="#34C94D" stroke="#FFFFFF" stroke-width="3" stroke-miterlimit="10" cx="22.428" cy="75.711" r="10.055"/>
<rect x="20.699" y="60.117" fill="#FFFFFF" stroke="#34C94D" stroke-miterlimit="10" width="3.783" height="14.207"/>
<rect x="46.833" y="226.295" fill="#152435" width="149" height="28"/>
<rect x="46.833" y="235.295" fill="none" width="148.5" height="59.998"/>
<text transform="matrix(1 0 0 1 66.8394 244.3921)" fill="#FFFFFF" font-family="'Avenir-Roman'" font-size="12">Ordinateur portable</text>
</svg>
