<?xml version="1.0" encoding="utf-8"?>
<!-- Generator: Adobe Illustrator 16.0.0, SVG Export Plug-In . SVG Version: 6.00 Build 0)  -->
<!DOCTYPE svg PUBLIC "-//W3C//DTD SVG 1.1//EN" "http://www.w3.org/Graphics/SVG/1.1/DTD/svg11.dtd">
<svg version="1.1" id="Calque_1" xmlns="http://www.w3.org/2000/svg" xmlns:xlink="http://www.w3.org/1999/xlink" x="0px" y="0px"
	 width="133px" height="96px" viewBox="0 0 133 96" enable-background="new 0 0 133 96" xml:space="preserve">
<g>
	<g>
		<path fill="#FFFFFF" d="M0.115,95.59c0-31.652,0-63.306,0-94.97c43.979,0,87.963,0,131.966,0c0,31.649,0,63.31,0,94.97
			C88.104,95.59,44.111,95.59,0.115,95.59z M80.9,50.176L80.9,50.176c0.032-0.037,0.065-0.075,0.098-0.114l0.007-0.003
			c0.199-0.082,0.358-0.199,0.382-0.437c-0.015-0.035-0.03-0.071-0.046-0.106c-0.074-0.197-0.23-0.296-0.423-0.349h0.002
			c-0.126-0.22-0.323-0.354-0.551-0.45c-0.033-0.027-0.067-0.055-0.101-0.082c-0.083-0.188-0.239-0.289-0.425-0.354l-0.003,0.03
			l-0.001-0.03c-0.018-0.063-0.062-0.096-0.125-0.106c-0.034-0.029-0.068-0.06-0.103-0.089c-0.104-0.193-0.248-0.341-0.466-0.403
			c-0.012-0.026-0.033-0.041-0.062-0.042c-0.025-0.062-0.07-0.103-0.135-0.12c-0.034-0.029-0.068-0.059-0.103-0.088
			c-0.066-0.161-0.183-0.265-0.353-0.309c-0.071-0.112-0.163-0.201-0.292-0.243c-0.021-0.061-0.061-0.101-0.127-0.11l0.004,0.002
			c-0.014-0.063-0.057-0.095-0.118-0.104l0.002,0c-0.192-0.289-0.421-0.537-0.749-0.675l-0.023,0.016l0.026-0.011
			c-0.013-0.067-0.054-0.107-0.117-0.126c-0.032-0.027-0.064-0.055-0.097-0.083c-0.021-0.064-0.066-0.103-0.132-0.116
			c-0.094-0.121-0.194-0.233-0.329-0.308c-0.04-0.11-0.11-0.187-0.23-0.208l-0.015-0.001c-0.009-0.056-0.041-0.087-0.098-0.092
			l-0.014-0.014c-0.033-0.105-0.105-0.169-0.209-0.202l-0.015-0.015c-0.024-0.091-0.088-0.136-0.179-0.148l0.012,0.012
			c-0.013-0.067-0.053-0.107-0.121-0.118l0.011,0.003c-0.132-0.238-0.347-0.391-0.563-0.541c-0.043-0.099-0.115-0.167-0.217-0.204
			c-0.258-0.324-0.551-0.613-0.872-0.874c-0.015-0.063-0.054-0.104-0.115-0.123c-0.006-0.056-0.034-0.09-0.092-0.099
			c-0.041-0.045-0.082-0.091-0.124-0.137c-0.024-0.03-0.049-0.06-0.073-0.089l-0.008-0.042l-0.042-0.013l-0.021-0.029
			c-0.023-0.11-0.1-0.174-0.194-0.223c-0.002-0.061-0.028-0.103-0.09-0.119c-0.013-0.066-0.046-0.113-0.115-0.127l0.014,0.003
			c-0.03-0.141-0.084-0.265-0.226-0.329l0.004,0.014c-0.011-0.077-0.046-0.136-0.118-0.169l-0.004-0.041
			c-0.006-0.073-0.039-0.128-0.103-0.164c0.013-0.027,0.004-0.044-0.023-0.053c0-0.062-0.023-0.109-0.089-0.125l0.009,0.009
			c0-0.103-0.034-0.189-0.117-0.253c0.012-0.032,0.002-0.055-0.027-0.071c0.002-0.071-0.021-0.129-0.084-0.169
			c0.021-0.061,0.004-0.113-0.034-0.161c0.009-0.068-0.017-0.121-0.074-0.159l0.013-0.03l-0.023-0.023
			c-0.011-0.223-0.031-0.444-0.122-0.652c-0.002-0.258-0.005-0.517-0.008-0.775c0.101-0.523,0.329-1.004,0.489-1.507l-0.006,0.016
			c0.113-0.045,0.165-0.135,0.186-0.249l0.025-0.016l-0.006-0.028c0.07-0.033,0.111-0.087,0.119-0.165l-0.004,0.015
			c0.172-0.102,0.292-0.244,0.342-0.44l-0.013,0.013c0.141-0.036,0.234-0.126,0.294-0.256c0.106-0.042,0.184-0.114,0.229-0.22
			c0.048-0.023,0.104-0.038,0.145-0.071c1.124-0.941,2.414-1.602,3.741-2.195c1.66-0.742,3.332-1.458,4.968-2.253
			c0.557-0.27,1.114-0.537,1.679-0.79c0.207-0.093,0.292-0.199,0.174-0.414c-0.035-0.063-0.055-0.134-0.083-0.202
			c-0.922-2.185-2.193-4.142-3.841-5.849c-2.31-2.392-5.054-4.077-8.237-5.042c-0.496-0.15-0.508-0.145-0.627,0.339
			c-0.706,2.86-1.524,5.69-2.284,8.537c-0.4,1.498-0.904,2.953-1.895,4.187c-0.118,0.064-0.228,0.139-0.286,0.268
			c-0.416,0.261-0.843,0.501-1.306,0.672c-0.081-0.011-0.157,0-0.225,0.049c-0.783,0.054-1.538-0.112-2.292-0.284
			c-0.107-0.094-0.227-0.149-0.373-0.126c-0.068-0.092-0.169-0.116-0.274-0.132c-0.117-0.104-0.253-0.169-0.406-0.201
			c-0.312-0.251-0.655-0.449-1.027-0.597c-0.02-0.031-0.048-0.047-0.085-0.048c-0.048-0.081-0.119-0.125-0.212-0.135l-0.001,0.029
			l0.006-0.029c-0.072-0.13-0.185-0.198-0.33-0.219l-0.025,0.012l0.027-0.007c-0.021-0.062-0.065-0.09-0.128-0.094l0.004,0.004
			c-0.02-0.06-0.062-0.09-0.123-0.098c-0.037-0.076-0.101-0.113-0.181-0.127c-0.027-0.061-0.073-0.097-0.14-0.104l0.005,0.002
			c-0.058-0.15-0.183-0.208-0.327-0.239c-0.014-0.035-0.039-0.057-0.075-0.067c-0.017-0.086-0.076-0.117-0.156-0.119l-0.002-0.001
			c-0.146-0.189-0.313-0.351-0.546-0.432c-0.008-0.024-0.025-0.035-0.05-0.032c-0.049-0.043-0.099-0.086-0.148-0.129
			c-0.034-0.025-0.069-0.05-0.103-0.075c-0.059-0.137-0.168-0.208-0.308-0.239l-0.012-0.005c-0.018-0.06-0.06-0.09-0.121-0.095
			l-0.021,0.019l0.023-0.016c-0.018-0.063-0.06-0.096-0.123-0.105c-0.04-0.03-0.079-0.061-0.118-0.092
			c-0.031-0.087-0.094-0.134-0.185-0.146l-0.035,0.023l0.037-0.021c-0.131-0.219-0.322-0.361-0.565-0.435
			c-0.036-0.029-0.071-0.058-0.107-0.087c-0.035-0.119-0.116-0.182-0.238-0.193c-0.011-0.026-0.03-0.04-0.058-0.042
			c-0.027-0.063-0.074-0.102-0.14-0.116c-0.035-0.03-0.069-0.06-0.103-0.089c-0.043-0.113-0.123-0.181-0.245-0.197
			c-0.039-0.071-0.1-0.115-0.175-0.139c-0.097-0.172-0.236-0.292-0.429-0.344l-0.014-0.007c-0.025-0.062-0.066-0.093-0.136-0.075
			l0.004,0.002c-0.039-0.035-0.078-0.07-0.116-0.104l0.001,0.002c0.005-0.076-0.041-0.105-0.107-0.116l0.002,0
			c-0.049-0.146-0.164-0.21-0.302-0.246l-0.016,0.036l0.012-0.038c-0.018-0.059-0.059-0.089-0.119-0.094l-0.023,0.022l0.024-0.021
			c-0.014-0.062-0.052-0.098-0.116-0.105l0.002,0c-0.038-0.115-0.118-0.179-0.238-0.194c-0.01-0.025-0.029-0.038-0.056-0.038
			c-0.023-0.059-0.063-0.099-0.128-0.11l-0.034,0.02l0.032-0.022c-0.017-0.063-0.061-0.095-0.123-0.107
			c-0.035-0.03-0.069-0.06-0.104-0.089c-0.073-0.154-0.179-0.268-0.354-0.301c-0.1-0.082-0.199-0.164-0.298-0.246
			c-0.019-0.063-0.064-0.097-0.127-0.11c-0.011-0.037-0.034-0.063-0.07-0.078c-0.079-0.164-0.196-0.284-0.381-0.323
			c-0.013-0.027-0.035-0.041-0.065-0.043c-0.436-0.516-0.479-0.513-0.829,0.044c-0.009,0.015-0.01,0.035-0.014,0.053l0.036,0.008
			l-0.037-0.005c-0.061,0.019-0.093,0.063-0.104,0.124c-0.029,0.035-0.059,0.07-0.088,0.105c-0.113,0.043-0.175,0.125-0.187,0.246
			l-0.013,0.021c-0.046,0.007-0.065,0.035-0.062,0.081c-0.023,0.028-0.046,0.055-0.068,0.083c-0.061,0.024-0.094,0.068-0.101,0.133
			c-0.605,0.772-1.137,1.589-1.539,2.487c-0.082,0.056-0.115,0.136-0.112,0.233l0.001-0.001c-0.084,0.049-0.112,0.127-0.112,0.219
			l0.001-0.001c-0.088,0.048-0.115,0.126-0.11,0.221l0.003-0.005c-0.059,0.022-0.08,0.064-0.068,0.125
			c-0.027,0.025-0.038,0.056-0.034,0.093c-0.135,0.121-0.197,0.273-0.199,0.453c-0.024,0.02-0.034,0.044-0.029,0.075
			c-0.124,0.133-0.201,0.285-0.188,0.473c-0.023,0.023-0.032,0.051-0.026,0.083c-0.089,0.059-0.109,0.146-0.101,0.245
			c-0.023,0.015-0.029,0.035-0.02,0.061c-0.085,0.069-0.104,0.163-0.096,0.267c-0.023,0.014-0.028,0.033-0.016,0.057
			c-0.11,0.144-0.185,0.3-0.168,0.488c-0.015,0.058-0.029,0.115-0.044,0.173c-0.24,0.499-0.353,1.03-0.411,1.576
			c-0.021,0.026-0.024,0.055-0.012,0.085c-0.062,0.067-0.087,0.144-0.058,0.233c-0.011,0.077-0.022,0.153-0.033,0.23
			c-0.145,0.422-0.205,0.857-0.199,1.302c-0.005,0.076-0.011,0.151-0.017,0.228c-0.019,0.051-0.049,0.1-0.054,0.152
			c-0.225,2.719,0.082,5.374,0.978,7.955c0.12,0.343,0.129,0.334,0.513,0.193c3.53-1.302,7.057-2.616,10.777-3.296
			c0.257,0.001,0.513,0.003,0.77,0.004c0.255,0.035,0.51,0.071,0.765,0.106c0.323,0.127,0.646,0.254,0.97,0.381
			c0.041,0.079,0.113,0.088,0.19,0.088c0.058,0.104,0.146,0.167,0.264,0.186l0.008,0.007c0.128,0.207,0.317,0.35,0.512,0.486
			c0.027,0.028,0.054,0.056,0.081,0.084c0.332,0.583,0.658,1.167,0.818,1.83c0.262,1.085,0.334,2.184,0.286,3.296
			c-0.059,1.344-0.255,2.673-0.383,4.01c-0.142,1.48-0.249,2.965-0.384,4.446c-0.068,0.741-0.084,0.766,0.661,0.843
			c1.027,0.105,2.057,0.209,3.091,0.062c0.188,0.025,0.375,0.027,0.559-0.03c0.153,0.036,0.302,0.037,0.438-0.058
			c0.143,0.02,0.283,0.013,0.421-0.031c0.077,0.02,0.151,0.016,0.222-0.024c0.036,0.003,0.073,0.013,0.108,0.008
			c3.046-0.421,5.815-1.546,8.327-3.309c0.337-0.237,0.706-0.447,0.96-0.791v0.001c0.456-0.292,0.866-0.637,1.204-1.062
			c0.061-0.024,0.104-0.064,0.115-0.132l-0.006,0.004c0.067-0.011,0.106-0.05,0.117-0.117l-0.005,0.008
			c0.157-0.068,0.296-0.154,0.316-0.347c0.036-0.034,0.072-0.068,0.108-0.103c0.072,0.01,0.108-0.028,0.125-0.094v-0.002
			C80.873,50.286,80.911,50.248,80.9,50.176z M76.062,40.262l0.009,0.009c0.009,0.06,0.045,0.094,0.103,0.106
			c0.044,0.02,0.087,0.04,0.13,0.061c0.034,0.048,0.067,0.095,0.102,0.143c0.035,0.123,0.117,0.186,0.245,0.186
			c0.093,0.059,0.186,0.118,0.278,0.177c0.03,0.052,0.076,0.077,0.137,0.078c0.021,0.022,0.048,0.038,0.077,0.049
			c0.04,0.025,0.08,0.05,0.121,0.075c2.22,1.207,4.521,2.234,6.874,3.152c0.405,0.158,0.411,0.155,0.563-0.255
			c0.738-1.978,1.116-4.025,1.186-6.131c0.019-0.545,0.029-1.092-0.032-1.635c-0.044-0.393-0.051-0.394-0.435-0.346
			c-0.775,0.097-1.554,0.181-2.326,0.299c-0.986,0.151-1.985,0.232-2.952,0.502c-0.267-0.015-0.524,0.019-0.764,0.145
			c-0.073,0.021-0.146,0.041-0.219,0.061c-0.113-0.041-0.208-0.002-0.294,0.071c-0.086,0.019-0.172,0.037-0.258,0.056
			c-0.527,0.066-1.042,0.173-1.505,0.455c-0.494,0.214-0.96,0.467-1.252,0.948c-0.081,0.053-0.113,0.13-0.11,0.225
			c-0.019,0.023-0.031,0.05-0.039,0.079c-0.084,0.074-0.159,0.149-0.075,0.27c0.003,0.144,0.006,0.288,0.009,0.431
			c-0.084,0.156,0.007,0.251,0.117,0.34l0.001,0.002c0.001,0.155,0.049,0.279,0.212,0.332l0.003,0.003
			C75.972,40.211,76.002,40.249,76.062,40.262z M103.87,77.36c0.653,0,1.325,0,1.996,0c0.491,0.001,0.48,0.043,0.48-0.466
			c-0.003-1.637-0.002-3.272-0.001-4.909c0-0.641,0.123-0.817,0.74-1.009c0.171-0.054,0.354-0.078,0.534-0.09
			c0.636-0.039,0.987,0.234,1.113,0.866c0.061,0.303,0.081,0.611,0.08,0.922c-0.006,1.4-0.004,2.8-0.003,4.2
			c0,0.48,0.003,0.482,0.457,0.484c0.546,0.003,1.091,0.003,1.637-0.001c0.438-0.003,0.443-0.006,0.444-0.447
			c0.002-1.637,0.001-3.272,0.001-4.909c0-0.668,0.062-0.753,0.677-0.994c0.172-0.067,0.348-0.102,0.529-0.117
			c0.681-0.059,1.071,0.23,1.186,0.908c0.046,0.268,0.05,0.543,0.051,0.815c0.004,1.418,0.001,2.836,0.003,4.255
			c0,0.485,0.004,0.488,0.462,0.49c0.545,0.003,1.091,0.003,1.636,0c0.447-0.003,0.454-0.006,0.454-0.441
			c0.003-1.745,0.003-3.491,0.001-5.236c0-0.421-0.067-0.835-0.209-1.23c-0.327-0.913-1.094-1.454-2.065-1.521
			c-0.829-0.057-1.525,0.261-2.188,0.7c-0.278,0.186-0.548,0.385-0.844,0.595c-0.525-1.023-1.373-1.357-2.422-1.291
			c-0.699,0.044-1.276,0.382-1.833,0.771c-0.124,0.087-0.205,0.263-0.427,0.227c-0.005-0.092-0.016-0.179-0.013-0.265
			c0.021-0.474-0.024-0.446-0.448-0.445c-0.545,0.002-1.091,0.002-1.636,0c-0.498-0.001-0.465-0.021-0.464,0.481
			c0.001,2.382-0.001,4.764,0.002,7.146C103.802,77.009,103.765,77.175,103.87,77.36z M93.241,73.162
			c0,0.236-0.017,0.474,0.002,0.708c0.147,1.85,1.232,3.14,3.011,3.551c0.972,0.225,1.947,0.211,2.915-0.052
			c1.358-0.368,2.244-1.227,2.641-2.574c0.256-0.869,0.288-1.764,0.112-2.646c-0.307-1.547-1.242-2.564-2.751-3.011
			c-1.162-0.344-2.341-0.309-3.489,0.076c-1.166,0.391-1.927,1.192-2.268,2.386C93.268,72.112,93.213,72.633,93.241,73.162z
			 M50.34,69.977c0-0.157,0.003-0.266,0-0.373c-0.012-0.374-0.013-0.378-0.4-0.381c-0.564-0.004-1.128-0.003-1.692,0.001
			c-0.443,0.002-0.447,0.005-0.448,0.444c-0.001,2.183,0,4.366,0,6.549c0,0.272,0.015,0.547-0.005,0.818
			c-0.021,0.275,0.098,0.337,0.349,0.33c0.582-0.016,1.164-0.003,1.746-0.006c0.444-0.002,0.449-0.005,0.45-0.44
			c0.002-1.655,0.023-3.311-0.013-4.966c-0.01-0.47,0.163-0.711,0.566-0.853c0.154-0.055,0.306-0.12,0.464-0.156
			c1.173-0.266,1.69,0.129,1.726,1.337c0.019,0.654,0.005,1.31,0.006,1.964c0,0.892-0.002,1.783,0.001,2.675
			c0.002,0.434,0.007,0.437,0.458,0.439c0.546,0.003,1.092,0.003,1.637,0c0.458-0.002,0.461-0.005,0.461-0.489
			c0.001-1.71,0.005-3.42-0.003-5.13c-0.001-0.289-0.031-0.582-0.088-0.866c-0.243-1.213-1.11-1.913-2.346-1.945
			c-0.877-0.023-1.629,0.306-2.347,0.76C50.715,69.782,50.599,69.934,50.34,69.977z M22.392,68.808c0-0.377-0.013-0.686,0.004-0.992
			c0.012-0.219-0.096-0.323-0.274-0.414c-1.119-0.573-2.288-0.806-3.533-0.534c-0.616,0.134-1.15,0.431-1.645,0.814
			c-1.534,1.191-1.361,3.734,0.425,4.69c0.703,0.377,1.437,0.697,2.159,1.037c0.346,0.163,0.687,0.334,0.966,0.602
			c0.587,0.562,0.499,1.318-0.199,1.73c-0.41,0.242-0.861,0.271-1.319,0.24c-0.845-0.055-1.631-0.331-2.407-0.649
			c-0.158-0.064-0.302-0.213-0.53-0.132c0,0.375,0.032,0.759-0.009,1.135c-0.046,0.423,0.146,0.619,0.506,0.77
			c1.228,0.515,2.493,0.619,3.792,0.385c0.732-0.133,1.371-0.471,1.927-0.96c0.95-0.836,1.263-2.166,0.762-3.271
			c-0.295-0.65-0.795-1.121-1.403-1.48c-0.688-0.407-1.411-0.748-2.132-1.093c-0.312-0.148-0.62-0.307-0.882-0.536
			c-0.401-0.352-0.428-0.789-0.078-1.195c0.197-0.229,0.458-0.356,0.745-0.427c0.391-0.096,0.786-0.12,1.19-0.075
			C21.089,68.523,21.71,68.652,22.392,68.808z M68.479,73.899c0.193-0.064,0.396-0.03,0.593-0.031
			c1.454-0.003,2.907-0.005,4.361,0.002c0.238,0.001,0.363-0.043,0.369-0.323c0.019-0.9-0.076-1.779-0.445-2.609
			c-0.477-1.071-1.294-1.733-2.45-1.952c-0.503-0.095-1.016-0.077-1.522-0.028c-1.617,0.156-2.864,1.197-3.3,2.748
			c-0.164,0.582-0.2,1.18-0.168,1.782c0.096,1.857,1.32,3.393,3.124,3.885c1.453,0.396,2.88,0.162,4.298-0.218
			c0.17-0.045,0.247-0.128,0.237-0.302c-0.021-0.395,0.042-0.793-0.043-1.204c-0.926,0.202-1.841,0.327-2.773,0.296
			c-0.422-0.015-0.832-0.084-1.217-0.258C68.82,75.36,68.435,74.703,68.479,73.899z M40.513,73.867c0.23,0,0.429,0,0.627,0
			c1.436,0,2.873,0.002,4.309-0.002c0.387-0.001,0.391-0.01,0.405-0.39c0.028-0.77-0.059-1.525-0.325-2.252
			c-0.448-1.22-1.289-2.003-2.585-2.24c-0.521-0.096-1.055-0.09-1.577-0.017c-1.632,0.229-2.719,1.127-3.215,2.71
			c-0.17,0.543-0.187,1.105-0.186,1.672c0.006,2.1,1.549,3.658,3.261,4.062c1.421,0.337,2.815,0.115,4.196-0.265
			c0.147-0.04,0.22-0.115,0.212-0.265c-0.021-0.407,0.049-0.82-0.041-1.22c-0.479,0.078-0.924,0.171-1.375,0.221
			c-0.742,0.081-1.487,0.133-2.222-0.056C41.056,75.585,40.54,74.924,40.513,73.867z M91.717,69.167c0-0.415-0.021-0.794,0.007-1.17
			c0.024-0.319-0.091-0.486-0.382-0.619c-1.154-0.528-2.362-0.721-3.615-0.585c-1.341,0.146-2.456,0.743-3.331,1.777
			c-1.069,1.264-1.359,2.748-1.197,4.343c0.247,2.417,2.135,4.255,4.112,4.595c0.835,0.144,1.669,0.105,2.502,0.041
			c0.688-0.054,1.367-0.193,2.014-0.451c0.129-0.051,0.292-0.081,0.284-0.279c-0.02-0.479,0.055-0.965-0.039-1.439
			c-0.205-0.019-0.356,0.046-0.515,0.082c-1.011,0.229-2.021,0.47-3.07,0.381c-1.181-0.101-2.028-0.684-2.437-1.801
			c-0.465-1.273-0.449-2.576,0.005-3.848c0.352-0.985,1.1-1.514,2.146-1.584c0.599-0.04,1.196-0.01,1.794,0.081
			C90.571,68.778,91.114,68.979,91.717,69.167z M75.237,75.204c0,0.409,0.025,0.807-0.008,1.198
			c-0.029,0.334,0.111,0.495,0.398,0.614c1.221,0.511,2.483,0.673,3.789,0.466c0.774-0.123,1.457-0.448,1.998-1.028
			c1.062-1.141,0.715-2.912-0.694-3.559c-0.198-0.091-0.404-0.164-0.609-0.236c-0.428-0.15-0.859-0.292-1.287-0.443
			c-0.274-0.098-0.544-0.211-0.766-0.406c-0.382-0.336-0.327-0.781,0.127-1.015c0.111-0.058,0.237-0.09,0.359-0.119
			c0.54-0.13,1.084-0.104,1.625-0.023c0.391,0.058,0.777,0.139,1.178,0.212c0.085-0.272,0.008-0.53,0.048-0.776
			c0.069-0.423-0.141-0.616-0.507-0.764c-1.1-0.443-2.223-0.518-3.367-0.248c-0.52,0.122-0.983,0.372-1.377,0.741
			c-1.193,1.117-0.946,2.954,0.5,3.7c0.161,0.083,0.327,0.157,0.496,0.224c0.489,0.193,0.982,0.379,1.472,0.573
			c0.253,0.101,0.505,0.208,0.714,0.389c0.398,0.343,0.343,0.864-0.119,1.124c-0.264,0.147-0.556,0.16-0.848,0.162
			c-0.869,0.005-1.687-0.218-2.481-0.554C75.683,75.353,75.504,75.215,75.237,75.204z M31.763,71.011
			c0-0.357-0.024-0.667,0.007-0.971c0.033-0.313-0.109-0.445-0.375-0.565c-1.146-0.518-2.351-0.679-3.572-0.487
			c-1.663,0.261-2.759,1.237-3.212,2.873c-0.206,0.746-0.191,1.51-0.048,2.272c0.31,1.656,1.646,3.022,3.287,3.328
			c1.374,0.257,2.713,0.029,4.044-0.309c0.136-0.034,0.238-0.077,0.237-0.241c-0.003-0.41-0.001-0.82-0.001-1.281
			c-0.51,0.143-0.956,0.218-1.405,0.256c-0.452,0.038-0.908,0.061-1.361,0.057c-0.996-0.01-1.681-0.504-2.08-1.404
			c-0.266-0.601-0.295-1.231-0.23-1.873c0.131-1.298,0.85-1.954,2.146-1.984C30.042,70.661,30.859,70.841,31.763,71.011z
			 M64.623,71.008c0-0.377-0.021-0.703,0.006-1.025c0.023-0.271-0.112-0.386-0.328-0.485c-1.156-0.534-2.378-0.704-3.618-0.511
			c-1.634,0.255-2.727,1.202-3.198,2.813c-0.154,0.527-0.185,1.071-0.158,1.619c0.097,1.968,1.412,3.614,3.254,4.017
			c1.422,0.312,2.817,0.059,4.2-0.291c0.149-0.037,0.213-0.115,0.212-0.265c-0.002-0.396,0-0.791,0-1.177
			c-0.193-0.058-0.331,0.008-0.466,0.037c-0.768,0.168-1.545,0.218-2.329,0.204c-0.949-0.018-1.621-0.476-2.021-1.322
			c-0.287-0.606-0.35-1.252-0.273-1.916c0.16-1.396,0.855-2.012,2.27-2.025C62.98,70.674,63.758,70.854,64.623,71.008z
			 M33.677,73.26c0,1.234-0.003,2.469,0.001,3.703c0.001,0.388,0.011,0.394,0.388,0.396c0.617,0.004,1.234-0.01,1.851,0.006
			c0.258,0.006,0.345-0.071,0.344-0.337c-0.008-2.487-0.01-4.974,0.001-7.46c0.001-0.312-0.134-0.354-0.391-0.35
			c-0.599,0.011-1.198-0.001-1.797,0.004c-0.387,0.003-0.396,0.009-0.397,0.389C33.674,70.828,33.677,72.044,33.677,73.26z
			 M66.464,23.168c0.004,0,0.008,0,0.012,0c0-0.236,0.006-0.473-0.001-0.708c-0.036-1.217-0.07-2.434-0.116-3.65
			c-0.017-0.448-0.031-0.458-0.482-0.427c-0.543,0.038-1.088,0.079-1.628,0.15c-2.202,0.292-4.282,0.972-6.25,1.995
			c-0.44,0.229-0.436,0.235-0.193,0.626c1.603,2.579,3.352,5.057,5.174,7.484c0.314,0.419,0.655,0.825,1.133,1.086
			c0.91,0.497,1.687,0.216,2.049-0.754c0.213-0.568,0.295-1.163,0.3-1.765C66.471,25.858,66.464,24.513,66.464,23.168z
			 M61.737,45.797c-0.016-0.453-0.067-0.883-0.286-1.277c-0.24-0.432-0.595-0.671-1.097-0.679c-0.332-0.005-0.649,0.048-0.955,0.184
			c-0.465,0.208-0.915,0.445-1.339,0.727c-1.119,0.744-2.244,1.479-3.324,2.279c-0.802,0.594-1.596,1.2-2.386,1.81
			c-0.464,0.359-0.465,0.375-0.077,0.839c0.244,0.292,0.511,0.565,0.773,0.843c1.538,1.625,3.307,2.938,5.314,3.927
			c0.344,0.169,0.345,0.173,0.499-0.185c0.166-0.384,0.326-0.77,0.489-1.153c0.829-1.958,1.623-3.928,2.172-5.986
			C61.639,46.685,61.709,46.238,61.737,45.797z M35.003,68.299c0.74-0.004,1.306-0.565,1.312-1.303
			c0.007-0.728-0.568-1.312-1.299-1.321c-0.761-0.009-1.349,0.578-1.336,1.335C33.691,67.749,34.26,68.303,35.003,68.299z"/>
		<path fill-rule="evenodd" clip-rule="evenodd" fill="#F08C08" d="M80.683,50.399c-0.036,0.034-0.072,0.068-0.108,0.103
			c-0.218,0.014-0.336,0.117-0.316,0.347l0.005-0.008c-0.067,0.011-0.106,0.05-0.117,0.117l0.006-0.004
			c-0.042-0.005-0.085-0.011-0.127-0.016c-0.105,0.007-0.254-0.019-0.287,0.093c-0.057,0.192-0.206,0.225-0.353,0.287
			c-0.363,0.155-0.566,0.422-0.553,0.83v-0.001c-0.437-0.082-0.788,0.055-1.026,0.43c-0.098,0.152-0.23,0.214-0.387,0.27
			c-0.15,0.054-0.302,0.098-0.44,0.197c-0.691,0.494-1.455,0.861-2.213,1.242c-1.316,0.663-2.721,1.038-4.147,1.36
			c-0.432,0.098-0.88,0.136-1.293,0.315c-0.036-0.001-0.071-0.001-0.107,0.001c-0.475,0.04-0.963-0.107-1.423,0.111
			c-0.108,0-0.217,0-0.324,0c-0.037,0-0.074,0-0.111-0.001c-0.818,0.049-1.628-0.073-2.442-0.111
			c-0.458-0.021-0.594-0.157-0.484-0.615c0.083-0.345,0.049-0.687,0.094-1.025c0.069-0.522,0.078-1.047,0.12-1.569
			c0.075-0.935,0.204-1.864,0.311-2.797c0.158-0.012,0.19-0.111,0.223-0.253c0.207-0.91,0.396-1.027,1.297-0.862
			c0.159,0.029,0.326,0.028,0.488,0.022c1.487-0.051,2.978,0.109,4.462-0.101c0.505-0.071,1.062,0.134,1.487-0.313
			c0.596-0.055,1.13-0.311,1.676-0.524c0.206-0.081,0.462,0.042,0.63-0.123c0.318-0.314,0.838-0.251,1.124-0.624
			c0.041-0.054,0.17-0.06,0.256-0.056c0.189,0.009,0.365-0.041,0.527-0.117c0.349-0.164,0.613-0.095,0.863,0.2
			c0.342,0.405,0.795,0.668,1.27,0.895c0.092,0.413,0.392,0.53,0.769,0.538l0.001,0.002c-0.001,0.229,0.161,0.224,0.32,0.224
			c0.042,0.071,0.084,0.142,0.125,0.213c-0.153,0.102-0.101,0.205,0.014,0.281c0.145,0.096,0.304,0.17,0.299,0.38
			c-0.088,0.047-0.106,0.128-0.108,0.218c-0.141,0.109-0.142,0.219-0.001,0.328C80.68,50.322,80.682,50.361,80.683,50.399z"/>
		<path fill-rule="evenodd" clip-rule="evenodd" fill="#F49C19" d="M62.844,41.132c-0.077,0-0.15-0.009-0.19-0.088
			c-0.108-0.381-0.483-0.417-0.755-0.587c-0.223-0.181-0.484-0.224-0.761-0.216c-0.365,0-0.729,0.001-1.094,0.001
			c-0.161,0.004-0.327-0.025-0.453,0.123c-0.095,0.111-0.233,0.113-0.352,0.062c-0.432-0.185-0.761,0.267-1.174,0.179
			c-0.214,0.398-0.555,0.197-0.856,0.18c0.004-0.381-0.063-0.757-0.088-1.132c-0.027-0.412-0.143-0.644-0.549-0.741
			c-0.203-0.049-0.37-0.195-0.322-0.436c0.08-0.403-0.038-0.745-0.275-1.061c-0.46-0.614-0.552-1.358-0.725-2.073
			c-0.021-0.085-0.027-0.19,0.002-0.27c0.115-0.302,0.025-0.575-0.119-0.829c-0.487-0.859-0.649-1.779-0.547-2.753
			c0.004-0.036,0.002-0.073,0-0.109c-0.021-0.281,0.038-0.516,0.243-0.744c0.383-0.424,0.688-0.884,0.428-1.519
			c-0.092-0.226,0.063-0.458,0.233-0.636c0.047-0.049,0.137-0.118,0.179-0.102c0.264,0.099,0.585,0.002,0.805,0.259
			c0.434,0.507,1.035,0.787,1.58,1.143c0.116,0.076,0.236,0.084,0.364,0.084c0.109,0.051,0.212,0.124,0.343,0.097
			c0.034,0.025,0.069,0.05,0.103,0.075c0.013,0.085,0.062,0.128,0.148,0.129c0.025-0.003,0.042,0.007,0.05,0.032
			c0.055,0.304,0.241,0.443,0.546,0.432l0.002,0.001c0.022,0.078,0.081,0.11,0.156,0.119c0.036,0.01,0.061,0.032,0.075,0.067
			c0.038,0.177,0.151,0.25,0.327,0.238l-0.005-0.002c0.022,0.068,0.068,0.104,0.14,0.104c0.08,0.015,0.144,0.052,0.181,0.127
			c0.02,0.058,0.06,0.092,0.123,0.098l-0.004-0.004c0.018,0.065,0.058,0.1,0.128,0.094l-0.027,0.007l0.025-0.012
			c0.027,0.198,0.143,0.262,0.33,0.219l-0.006,0.029l0.001-0.029c0.018,0.128,0.108,0.143,0.212,0.135
			c0.037,0.001,0.065,0.017,0.085,0.048c0.223,0.405,0.618,0.514,1.027,0.597c0.153,0.032,0.29,0.096,0.406,0.201
			c0.046,0.138,0.158,0.14,0.274,0.132c0.146-0.023,0.266,0.033,0.373,0.126c0.088,0.225,0.314,0.261,0.491,0.279
			c0.444,0.043,0.878,0.188,1.329,0.153c0.166-0.013,0.373,0.083,0.472-0.148c0.068-0.049,0.144-0.06,0.225-0.049
			c0.228,0.143,0.396-0.086,0.597-0.093c0.164-0.006,0.314-0.229,0.489-0.032c-0.339,0.365-0.788,0.495-1.257,0.537
			c-0.378,0.034-0.762,0.008-1.144,0.008c-0.496-0.116-0.994-0.205-1.482-0.377c-0.318-0.113-0.574-0.362-0.921-0.389
			c-0.076-0.123-0.212-0.154-0.328-0.218c-0.124,0.006-0.221-0.064-0.328-0.109c-0.355-0.429-0.967-0.483-1.327-0.914
			c-0.098-0.117-0.27-0.078-0.41-0.015c-0.248,0.11-0.335,0.316-0.336,0.572c-0.001,0.527,0,1.054-0.001,1.581
			c0,0.13-0.002,0.288,0.097,0.358c0.368,0.263,0.356,0.636,0.346,1.02c-0.002,0.086,0.016,0.201,0.071,0.255
			c0.239,0.235,0.304,0.545,0.439,0.829c0.148,0.312,0.382,0.584,0.446,0.944c0.011,0.062,0.085,0.112,0.132,0.166
			c0.285,0.328,0.716,0.56,0.706,1.082c-0.001,0.032,0.024,0.074,0.05,0.095c0.449,0.351,0.661,1.004,1.353,1.05
			c0.121,0.008,0.231,0.097,0.304,0.213c0.059,0.095,0.14,0.171,0.258,0.18c0.292,0.02,0.491,0.201,0.709,0.369
			c0.301,0.231,0.524,0.604,0.982,0.576c0.045-0.003,0.116,0.039,0.138,0.08c0.185,0.344,0.506,0.296,0.813,0.295
			c0.29-0.001,0.581,0.003,0.872-0.001c0.228-0.003,0.442,0.034,0.579,0.233c0.119,0.174,0.28,0.209,0.472,0.206
			c0.31-0.005,0.618-0.001,0.927-0.001c0.128,0,0.278,0.021,0.359-0.085c0.269-0.351,0.633-0.385,1.026-0.354
			c0.111,0.009,0.22-0.016,0.306-0.091c0.164-0.142,0.305-0.107,0.49-0.006c0.351,0.191,0.434,0.146,0.681-0.228
			c0.093,0.012,0.183,0.035,0.208,0.139c0.047,0.188,0.188,0.191,0.337,0.188c0.034,0.001,0.068,0.001,0.103,0.002
			c0.027,0.009,0.036,0.026,0.023,0.054c-0.005,0.054-0.011,0.108-0.016,0.163c-0.183,0.201-0.003,0.311,0.109,0.438
			c0.002,0.09,0.021,0.171,0.108,0.218c0.083,0.193,0.176,0.372,0.437,0.328c-0.033,0.206,0.111,0.525-0.107,0.598
			c-0.401,0.134-0.725,0.615-1.224,0.301c-0.229,0.61-0.339,0.646-0.824,0.296c-0.229-0.165-0.383-0.138-0.642,0.116
			c-0.288,0.282-0.712,0.341-0.958,0.04c-0.246-0.301-0.532-0.27-0.83-0.253c-0.288,0.016-0.604-0.115-0.849,0.204
			c-0.143,0.185-0.368,0.166-0.573-0.002c-0.365-0.3-0.774-0.3-1.146-0.003c-0.187,0.149-0.36,0.165-0.535,0.013
			c-0.18-0.157-0.361-0.302-0.695-0.362c-0.045-0.014-0.006,0.022,0.036,0.027c0.115,0.013,0.03-0.065,0.026-0.088
			c-0.008-0.05-0.054-0.084-0.107-0.066c-0.019,0.007-0.024,0.052,0.044,0.127c0.15,0.243,0.221,0.448,0.277,0.658
			c0.045,0.171,0.046,0.334-0.192,0.36c-0.101-0.142-0.312-0.186-0.326-0.409c-0.028-0.461-0.354-0.872-0.239-1.36
			c0.008-0.032-0.003-0.099-0.016-0.101c-0.368-0.073-0.41-0.552-0.776-0.623c-0.027-0.028-0.054-0.056-0.081-0.084
			c0.059-0.212-0.131-0.321-0.2-0.479c0.073-0.001,0.146,0.001,0.218-0.005c0.132-0.011,0.283-0.039,0.269-0.2
			c-0.013-0.145-0.137-0.269-0.282-0.282c-0.161-0.014-0.189,0.138-0.2,0.269c-0.006,0.072-0.003,0.145-0.004,0.218
			c-0.104-0.002-0.209-0.005-0.313-0.007l-0.008-0.007C63.088,41.157,62.993,41.106,62.844,41.132z"/>
		<path fill-rule="evenodd" clip-rule="evenodd" fill="#1D1D21" d="M103.87,77.36c-0.105-0.186-0.068-0.352-0.068-0.512
			c-0.003-2.382-0.001-4.764-0.002-7.146c-0.001-0.502-0.034-0.482,0.464-0.481c0.545,0.002,1.091,0.002,1.636,0
			c0.424-0.001,0.469-0.028,0.448,0.445c-0.003,0.086,0.008,0.173,0.013,0.265c0.222,0.036,0.303-0.14,0.427-0.227
			c0.557-0.389,1.134-0.727,1.833-0.771c1.049-0.066,1.896,0.268,2.422,1.291c0.296-0.21,0.565-0.409,0.844-0.595
			c0.662-0.439,1.358-0.757,2.188-0.7c0.972,0.066,1.738,0.607,2.065,1.521c0.142,0.396,0.209,0.81,0.209,1.23
			c0.002,1.745,0.002,3.491-0.001,5.236c0,0.436-0.007,0.438-0.454,0.441c-0.545,0.003-1.091,0.003-1.636,0
			c-0.458-0.002-0.462-0.005-0.462-0.49c-0.002-1.419,0.001-2.837-0.003-4.255c-0.001-0.272-0.005-0.548-0.051-0.815
			c-0.114-0.678-0.505-0.967-1.186-0.908c-0.182,0.016-0.357,0.05-0.529,0.117c-0.615,0.241-0.677,0.326-0.677,0.994
			c0,1.637,0.001,3.272-0.001,4.909c-0.001,0.441-0.006,0.444-0.444,0.447c-0.546,0.004-1.091,0.004-1.637,0.001
			c-0.454-0.002-0.457-0.004-0.457-0.484c-0.001-1.4-0.003-2.8,0.003-4.2c0.001-0.311-0.02-0.619-0.08-0.922
			c-0.126-0.632-0.478-0.905-1.113-0.866c-0.18,0.012-0.363,0.036-0.534,0.09c-0.617,0.191-0.74,0.368-0.74,1.009
			c-0.001,1.637-0.002,3.272,0.001,4.909c0,0.509,0.011,0.467-0.48,0.466C105.195,77.36,104.523,77.36,103.87,77.36z"/>
		<path fill-rule="evenodd" clip-rule="evenodd" fill="#F2930F" d="M58.418,29.867c-0.128,0-0.248-0.008-0.364-0.084
			c-0.545-0.356-1.146-0.636-1.58-1.143c-0.22-0.257-0.541-0.161-0.805-0.259c-0.042-0.016-0.132,0.053-0.179,0.102
			c-0.169,0.178-0.325,0.41-0.233,0.636c0.26,0.635-0.045,1.095-0.428,1.519c-0.206,0.228-0.264,0.463-0.243,0.744
			c0.002,0.036,0.004,0.073,0,0.109c-0.103,0.974,0.06,1.894,0.547,2.753c0.144,0.254,0.233,0.527,0.119,0.829
			c-0.03,0.08-0.023,0.185-0.002,0.27c0.173,0.715,0.265,1.458,0.725,2.073c0.237,0.316,0.355,0.657,0.275,1.061
			c-0.048,0.241,0.119,0.387,0.322,0.436c0.406,0.098,0.522,0.33,0.549,0.741c0.024,0.375,0.092,0.751,0.088,1.132
			c-0.703,0.217-1.405,0.436-2.109,0.65c-0.497,0.152-0.996,0.297-1.494,0.445c0.015-0.305-0.043-0.583-0.314-0.767
			c-0.121-0.082-0.161-0.214-0.169-0.329c-0.035-0.486-0.151-0.937-0.45-1.335c-0.095-0.126-0.016-0.337-0.165-0.448
			c-0.3-0.224-0.324-0.543-0.323-0.876c0-0.163,0.019-0.333-0.132-0.451c-0.275-0.213-0.302-0.517-0.305-0.83
			c-0.001-0.18,0.021-0.364-0.15-0.498c-0.254-0.2-0.287-0.487-0.287-0.783c0-0.455,0-0.909,0-1.363
			c0-0.183,0.005-0.362-0.169-0.489c-0.211-0.154-0.256-0.394-0.262-0.628c-0.014-0.508-0.006-1.017-0.004-1.526
			c0.001-0.205,0.053-0.419,0.168-0.565c0.26-0.33,0.281-0.694,0.268-1.081c-0.009-0.291,0.005-0.582-0.004-0.872
			c-0.007-0.245,0.043-0.491,0.176-0.675c0.427-0.594,0.578-1.33,1.011-1.918c0.036-0.049,0.014-0.142,0.019-0.214
			c0.112-0.088,0.17-0.227,0.304-0.299c0.174-0.094,0.146-0.227,0.029-0.353c-0.119-0.127-0.256-0.232-0.403-0.05
			c-0.299,0.374-0.653,0.711-0.808,1.184c-0.03,0.232-0.391,0.312-0.286,0.603c0.077,0.215-0.04,0.249-0.211,0.26
			c-0.068,0.004-0.183,0.023-0.195,0.062c-0.145,0.44-0.603,0.691-0.705,1.142c-0.082,0.357-0.465,0.638-0.274,1.062
			c-0.22,0.301-0.454,0.593-0.593,0.946c-0.06,0.151-0.103,0.304-0.145,0.461c-0.201,0.744-0.428,1.48-0.646,2.219
			c-0.074,0-0.147,0-0.222,0c0.087-0.528,0.294-1.033,0.304-1.576c0.015-0.058,0.03-0.115,0.044-0.172
			c0.205-0.111,0.222-0.288,0.168-0.488c-0.012-0.024-0.007-0.043,0.016-0.057c0.116-0.059,0.124-0.156,0.096-0.267
			c-0.01-0.025-0.003-0.046,0.02-0.061c0.105-0.052,0.122-0.141,0.101-0.245c-0.006-0.032,0.002-0.06,0.026-0.083
			c0.304-0.062,0.188-0.291,0.188-0.473c-0.005-0.03,0.004-0.055,0.028-0.075c0.142-0.118,0.211-0.268,0.2-0.453
			c-0.004-0.037,0.007-0.067,0.034-0.093c0.054-0.025,0.078-0.066,0.068-0.125l-0.003,0.005c0.115-0.035,0.131-0.119,0.11-0.221
			l-0.001,0.001c0.116-0.033,0.131-0.117,0.112-0.219l-0.001,0.001c0.118-0.039,0.13-0.129,0.112-0.233
			c0.401-0.898,0.934-1.715,1.539-2.487c0.064-0.021,0.099-0.064,0.101-0.133c0.022-0.028,0.045-0.055,0.068-0.083
			c0.021-0.027,0.042-0.054,0.062-0.081l0.013-0.021c0.147-0.018,0.202-0.105,0.187-0.246c0.029-0.035,0.059-0.07,0.088-0.105
			c0.073-0.01,0.11-0.049,0.104-0.124l0.037,0.005l-0.036-0.008c0.382-0.17,0.382-0.17,0.843-0.097
			c0.03,0.002,0.052,0.017,0.065,0.043c0.026,0.227,0.171,0.312,0.381,0.323c0.036,0.015,0.059,0.041,0.07,0.078
			c0.015,0.068,0.057,0.105,0.127,0.11c0.1,0.082,0.199,0.164,0.298,0.246c0.026,0.208,0.137,0.317,0.354,0.301
			c0.034,0.03,0.069,0.06,0.104,0.089c0.008,0.073,0.047,0.111,0.123,0.107l-0.032,0.022l0.034-0.02
			c0.004,0.082,0.049,0.115,0.128,0.11c0.027,0,0.045,0.013,0.056,0.038c0.01,0.15,0.088,0.216,0.238,0.194l-0.002,0
			c0.008,0.068,0.046,0.104,0.116,0.105l-0.024,0.021l0.023-0.022c0.008,0.072,0.047,0.104,0.119,0.094l-0.012,0.038l0.016-0.036
			c0.011,0.193,0.131,0.25,0.302,0.246l-0.002,0c0.012,0.061,0.049,0.098,0.107,0.116l-0.001-0.002
			c0.007,0.069,0.045,0.105,0.116,0.104l-0.004-0.002c0.024,0.063,0.066,0.095,0.136,0.075c0,0,0.014,0.007,0.014,0.008
			c0.016,0.336,0.031,0.348,0.429,0.344c0.076,0.024,0.137,0.068,0.175,0.139c0.011,0.153,0.096,0.215,0.245,0.197
			c0.034,0.03,0.068,0.06,0.103,0.089c0.013,0.079,0.061,0.117,0.14,0.116c0.028,0.002,0.047,0.016,0.058,0.042
			c0.012,0.147,0.096,0.207,0.238,0.193c0.036,0.029,0.072,0.058,0.107,0.087c0.086,0.278,0.302,0.388,0.565,0.435l-0.037,0.021
			l0.035-0.023c0.001,0.125,0.085,0.146,0.185,0.146c0.04,0.031,0.079,0.062,0.118,0.092c0.014,0.067,0.053,0.104,0.123,0.105
			l-0.023,0.016l0.021-0.019c0.01,0.071,0.048,0.104,0.121,0.095c0,0,0.012,0.005,0.011,0.005
			C58.441,29.771,58.429,29.819,58.418,29.867z"/>
		<path fill-rule="evenodd" clip-rule="evenodd" fill="#1D1D21" d="M93.241,73.162c-0.028-0.529,0.026-1.05,0.173-1.562
			c0.341-1.193,1.102-1.995,2.268-2.386c1.148-0.385,2.327-0.42,3.489-0.076c1.509,0.446,2.444,1.464,2.751,3.011
			c0.176,0.883,0.144,1.777-0.112,2.646c-0.396,1.348-1.282,2.206-2.641,2.574c-0.968,0.263-1.943,0.276-2.915,0.052
			c-1.778-0.411-2.863-1.701-3.011-3.551C93.225,73.636,93.241,73.398,93.241,73.162z M99.463,73.226
			c0.021-0.488-0.047-1.011-0.274-1.497c-0.29-0.619-0.741-1.022-1.466-1.044c-0.867-0.026-1.471,0.354-1.751,1.184
			c-0.343,1.018-0.304,2.042,0.095,3.04c0.274,0.688,0.779,1.075,1.545,1.084c0.771,0.009,1.256-0.399,1.553-1.071
			C99.396,74.396,99.474,73.841,99.463,73.226z"/>
		<path fill-rule="evenodd" clip-rule="evenodd" fill="#1D1D21" d="M50.34,69.977c0.259-0.043,0.375-0.194,0.523-0.288
			c0.718-0.454,1.469-0.783,2.347-0.76c1.235,0.032,2.103,0.732,2.346,1.945c0.057,0.284,0.087,0.577,0.088,0.866
			c0.008,1.71,0.004,3.42,0.003,5.13c0,0.484-0.004,0.487-0.461,0.489c-0.545,0.003-1.091,0.003-1.637,0
			c-0.451-0.003-0.457-0.006-0.458-0.439c-0.003-0.892,0-1.783-0.001-2.675c0-0.654,0.013-1.31-0.006-1.964
			c-0.036-1.208-0.553-1.603-1.726-1.337c-0.159,0.036-0.311,0.102-0.464,0.156c-0.403,0.142-0.576,0.383-0.566,0.853
			c0.036,1.655,0.016,3.311,0.013,4.966c-0.001,0.436-0.006,0.438-0.45,0.44c-0.582,0.003-1.165-0.01-1.746,0.006
			c-0.251,0.007-0.37-0.055-0.349-0.33c0.021-0.271,0.005-0.546,0.005-0.818c0-2.183-0.001-4.366,0-6.549
			c0-0.439,0.005-0.442,0.448-0.444c0.564-0.004,1.128-0.005,1.692-0.001c0.388,0.003,0.388,0.007,0.4,0.381
			C50.343,69.711,50.34,69.819,50.34,69.977z"/>
		<path fill-rule="evenodd" clip-rule="evenodd" fill="#1D1D21" d="M22.392,68.808c-0.682-0.155-1.303-0.284-1.936-0.356
			c-0.404-0.045-0.799-0.021-1.19,0.075c-0.286,0.07-0.548,0.198-0.745,0.427c-0.35,0.406-0.323,0.844,0.078,1.195
			c0.262,0.229,0.57,0.388,0.882,0.536c0.721,0.345,1.443,0.686,2.132,1.093c0.608,0.359,1.107,0.83,1.403,1.48
			c0.501,1.105,0.188,2.436-0.762,3.271c-0.556,0.489-1.195,0.827-1.927,0.96c-1.299,0.234-2.564,0.13-3.792-0.385
			c-0.36-0.15-0.552-0.347-0.506-0.77c0.041-0.376,0.009-0.76,0.009-1.135c0.228-0.081,0.372,0.067,0.53,0.132
			c0.776,0.318,1.562,0.595,2.407,0.649c0.458,0.03,0.909,0.002,1.319-0.24c0.698-0.412,0.787-1.169,0.199-1.73
			c-0.279-0.268-0.62-0.438-0.966-0.602c-0.722-0.34-1.456-0.66-2.159-1.037c-1.786-0.956-1.959-3.499-0.425-4.69
			c0.495-0.384,1.028-0.681,1.645-0.814c1.246-0.271,2.414-0.039,3.533,0.534c0.178,0.091,0.286,0.195,0.274,0.414
			C22.379,68.122,22.392,68.431,22.392,68.808z"/>
		<path fill-rule="evenodd" clip-rule="evenodd" fill="#1D1D21" d="M68.479,73.899c-0.045,0.804,0.341,1.461,1.062,1.787
			c0.385,0.174,0.795,0.243,1.217,0.258c0.933,0.031,1.848-0.094,2.773-0.296c0.085,0.411,0.021,0.81,0.043,1.204
			c0.01,0.174-0.067,0.257-0.237,0.302c-1.418,0.38-2.845,0.614-4.298,0.218c-1.804-0.492-3.027-2.027-3.124-3.885
			c-0.031-0.603,0.005-1.2,0.168-1.782c0.436-1.551,1.683-2.592,3.3-2.748c0.507-0.049,1.02-0.066,1.522,0.028
			c1.156,0.219,1.974,0.881,2.45,1.952c0.369,0.83,0.464,1.709,0.445,2.609c-0.006,0.28-0.131,0.324-0.369,0.323
			c-1.454-0.007-2.907-0.005-4.361-0.002C68.875,73.869,68.673,73.835,68.479,73.899z M70.076,72.39c0.452,0,0.904,0,1.356,0
			c0.151,0,0.287-0.003,0.275-0.226c-0.032-0.641-0.511-1.291-1.104-1.477c-0.987-0.311-2.083,0.447-2.157,1.484
			c-0.013,0.181,0.07,0.219,0.219,0.219C69.136,72.389,69.606,72.39,70.076,72.39z"/>
		<path fill-rule="evenodd" clip-rule="evenodd" fill="#1D1D21" d="M40.513,73.867c0.027,1.057,0.543,1.718,1.485,1.96
			c0.735,0.188,1.48,0.137,2.222,0.056c0.45-0.05,0.896-0.143,1.375-0.221c0.09,0.399,0.021,0.812,0.041,1.22
			c0.008,0.149-0.065,0.225-0.212,0.265c-1.381,0.38-2.775,0.602-4.196,0.265c-1.712-0.404-3.255-1.963-3.261-4.062
			c-0.001-0.566,0.015-1.129,0.186-1.672c0.496-1.583,1.583-2.48,3.215-2.71c0.522-0.073,1.056-0.079,1.577,0.017
			c1.297,0.237,2.138,1.021,2.585,2.24c0.267,0.727,0.354,1.482,0.325,2.252c-0.014,0.38-0.018,0.389-0.405,0.39
			c-1.437,0.004-2.873,0.002-4.309,0.002C40.941,73.867,40.743,73.867,40.513,73.867z M40.507,72.368c1.097,0,2.158,0,3.219,0
			c0.029-0.989-0.577-1.708-1.464-1.759C41.359,70.558,40.628,71.267,40.507,72.368z"/>
		<path fill-rule="evenodd" clip-rule="evenodd" fill="#1D1D21" d="M91.717,69.167c-0.603-0.188-1.146-0.389-1.723-0.477
			c-0.598-0.091-1.195-0.121-1.794-0.081c-1.046,0.07-1.794,0.599-2.146,1.584c-0.454,1.271-0.47,2.574-0.005,3.848
			c0.408,1.117,1.256,1.7,2.437,1.801c1.05,0.089,2.06-0.151,3.07-0.381c0.158-0.036,0.31-0.101,0.515-0.082
			c0.094,0.475,0.02,0.96,0.039,1.439c0.008,0.198-0.155,0.229-0.284,0.279c-0.646,0.258-1.325,0.397-2.014,0.451
			c-0.833,0.064-1.667,0.103-2.502-0.041c-1.978-0.34-3.865-2.178-4.112-4.595c-0.162-1.595,0.128-3.079,1.197-4.343
			c0.875-1.034,1.99-1.632,3.331-1.777c1.253-0.136,2.461,0.057,3.615,0.585c0.291,0.133,0.406,0.3,0.382,0.619
			C91.695,68.373,91.717,68.752,91.717,69.167z"/>
		<path fill-rule="evenodd" clip-rule="evenodd" fill="#1D1D21" d="M75.237,75.204c0.267,0.011,0.445,0.148,0.641,0.231
			c0.795,0.336,1.612,0.559,2.481,0.554c0.292-0.002,0.584-0.015,0.848-0.162c0.462-0.26,0.518-0.781,0.119-1.124
			c-0.209-0.181-0.461-0.288-0.714-0.389c-0.489-0.194-0.982-0.38-1.472-0.573c-0.169-0.066-0.335-0.141-0.496-0.224
			c-1.446-0.746-1.693-2.583-0.5-3.7c0.394-0.369,0.857-0.619,1.377-0.741c1.145-0.27,2.268-0.195,3.367,0.248
			c0.366,0.147,0.576,0.341,0.507,0.764c-0.04,0.246,0.037,0.504-0.048,0.776c-0.4-0.073-0.787-0.154-1.178-0.212
			c-0.541-0.08-1.085-0.106-1.625,0.023c-0.122,0.029-0.248,0.062-0.359,0.119c-0.454,0.233-0.509,0.679-0.127,1.015
			c0.222,0.195,0.491,0.309,0.766,0.406c0.428,0.151,0.859,0.293,1.287,0.443c0.205,0.072,0.411,0.146,0.609,0.236
			c1.409,0.646,1.757,2.418,0.694,3.559c-0.541,0.58-1.224,0.905-1.998,1.028c-1.306,0.207-2.568,0.045-3.789-0.466
			c-0.287-0.119-0.428-0.28-0.398-0.614C75.263,76.011,75.237,75.613,75.237,75.204z"/>
		<path fill-rule="evenodd" clip-rule="evenodd" fill="#F39510" d="M79.261,48.1c-0.475-0.227-0.928-0.49-1.27-0.895
			c-0.25-0.295-0.515-0.364-0.863-0.2c-0.162,0.076-0.338,0.126-0.527,0.117c-0.086-0.004-0.215,0.002-0.256,0.056
			c-0.286,0.373-0.806,0.31-1.124,0.624c-0.168,0.165-0.424,0.042-0.63,0.123c-0.546,0.214-1.08,0.47-1.676,0.524
			c-0.425,0.447-0.982,0.242-1.487,0.313c-1.484,0.21-2.975,0.05-4.462,0.101c-0.162,0.006-0.329,0.007-0.488-0.022
			c-0.901-0.165-1.09-0.048-1.297,0.862c-0.033,0.142-0.065,0.241-0.223,0.253c0.002-0.126-0.01-0.255,0.009-0.379
			c0.13-0.817,0.213-1.638,0.209-2.467c-0.002-0.361,0-0.723,0-1.084c0.414-0.22,0.414-0.22,0.9-0.104
			c0.211,0.05,0.416,0.111,0.64,0.108c1.812-0.022,3.628,0.059,5.438-0.11c0.167-0.016,0.357-0.002,0.413-0.19
			c0.163-0.546,0.612-0.531,1.047-0.579c0.646-0.072,1.35,0.044,1.861-0.523c0.038-0.043,0.139-0.03,0.21-0.043l-0.011-0.003
			c0.01,0.071,0.05,0.11,0.121,0.118l-0.012-0.012c0.013,0.106,0.089,0.136,0.179,0.148l0.015,0.015
			c0.015,0.125,0.085,0.191,0.209,0.202l0.014,0.014c0.032,0.031,0.065,0.062,0.098,0.092l0.015,0.001
			c0.006,0.147,0.084,0.216,0.23,0.208c0.135,0.075,0.235,0.188,0.329,0.308c0.014,0.072,0.059,0.111,0.132,0.116
			c0.032,0.027,0.064,0.055,0.097,0.083c0.002,0.077,0.039,0.121,0.117,0.126l-0.026,0.011l0.023-0.016
			c0.161,0.324,0.367,0.596,0.749,0.675l-0.002,0c0.013,0.065,0.051,0.101,0.118,0.104l-0.004-0.002
			c0.012,0.072,0.055,0.108,0.127,0.11c0.129,0.042,0.221,0.131,0.292,0.243c0.02,0.215,0.133,0.322,0.353,0.309
			c0.034,0.029,0.068,0.059,0.103,0.088c0.012,0.077,0.057,0.117,0.135,0.12c0.029,0.001,0.051,0.016,0.062,0.042
			c0.042,0.135,0.084,0.27,0.126,0.404L79.261,48.1z"/>
		<path fill-rule="evenodd" clip-rule="evenodd" fill="#1D1D21" d="M31.763,71.011c-0.904-0.17-1.721-0.35-2.564-0.33
			c-1.296,0.03-2.016,0.687-2.146,1.984c-0.064,0.642-0.035,1.272,0.23,1.873c0.399,0.9,1.083,1.395,2.08,1.404
			c0.454,0.004,0.909-0.019,1.361-0.057c0.449-0.038,0.895-0.113,1.405-0.256c0,0.461-0.002,0.871,0.001,1.281
			c0.001,0.164-0.102,0.207-0.237,0.241c-1.331,0.338-2.67,0.565-4.044,0.309c-1.64-0.306-2.977-1.672-3.287-3.328
			c-0.143-0.763-0.158-1.526,0.048-2.272c0.453-1.636,1.55-2.612,3.212-2.873c1.222-0.191,2.427-0.03,3.572,0.487
			c0.265,0.12,0.407,0.252,0.375,0.565C31.739,70.344,31.763,70.653,31.763,71.011z"/>
		<path fill-rule="evenodd" clip-rule="evenodd" fill="#1D1D21" d="M64.623,71.008c-0.865-0.154-1.643-0.334-2.449-0.327
			c-1.415,0.014-2.11,0.629-2.27,2.025c-0.077,0.664-0.014,1.31,0.273,1.916c0.401,0.847,1.073,1.305,2.021,1.322
			c0.783,0.014,1.561-0.036,2.329-0.204c0.135-0.029,0.273-0.095,0.466-0.037c0,0.386-0.002,0.781,0,1.177
			c0.001,0.149-0.063,0.228-0.212,0.265c-1.383,0.35-2.778,0.603-4.2,0.291c-1.843-0.402-3.157-2.049-3.254-4.017
			c-0.027-0.548,0.003-1.092,0.158-1.619c0.471-1.611,1.564-2.559,3.198-2.813c1.24-0.193,2.462-0.023,3.618,0.511
			c0.216,0.1,0.351,0.214,0.328,0.485C64.603,70.305,64.623,70.631,64.623,71.008z"/>
		<path fill-rule="evenodd" clip-rule="evenodd" fill="#F39B19" d="M75.685,44.582c-0.071,0.013-0.172,0-0.21,0.043
			c-0.512,0.567-1.215,0.451-1.861,0.523c-0.435,0.048-0.884,0.033-1.047,0.579c-0.056,0.188-0.246,0.175-0.413,0.19
			c-1.81,0.169-3.625,0.088-5.438,0.11c-0.224,0.003-0.429-0.059-0.64-0.108c-0.486-0.116-0.486-0.115-0.9,0.104
			c-0.026-0.546,0.073-1.101-0.11-1.637c0.238-0.026,0.238-0.189,0.192-0.36c-0.056-0.209-0.127-0.415-0.191-0.622
			c0.249,0.024,0.43,0.169,0.61,0.326c0.174,0.152,0.348,0.137,0.535-0.013c0.371-0.297,0.78-0.297,1.146,0.003
			c0.205,0.168,0.431,0.187,0.573,0.002c0.244-0.318,0.561-0.188,0.849-0.204c0.298-0.016,0.584-0.048,0.83,0.253
			c0.246,0.301,0.67,0.242,0.958-0.04c0.259-0.253,0.412-0.281,0.642-0.116c0.485,0.349,0.595,0.314,0.824-0.296
			c0.499,0.314,0.822-0.167,1.224-0.301c0.219-0.073,0.074-0.392,0.107-0.598l0.001,0c0.063,0.003,0.128,0.006,0.192,0.009
			l0.021,0.029c0.016,0.02,0.031,0.039,0.05,0.056c0.024,0.03,0.049,0.06,0.073,0.089c0.014,0.071,0.055,0.117,0.124,0.137
			c0.058,0.008,0.086,0.042,0.092,0.099c0.016,0.062,0.055,0.103,0.115,0.123c0.321,0.261,0.614,0.55,0.872,0.874
			c-0.134,0.039-0.256-0.132-0.462,0.021c0.274,0.026,0.365,0.405,0.679,0.183C75.338,44.191,75.553,44.344,75.685,44.582z"/>
		<path fill-rule="evenodd" clip-rule="evenodd" fill="#1D1D21" d="M33.677,73.26c0-1.216-0.003-2.432,0.001-3.648
			c0.001-0.38,0.01-0.386,0.397-0.389c0.599-0.005,1.198,0.007,1.797-0.004c0.257-0.005,0.393,0.037,0.391,0.35
			c-0.011,2.486-0.01,4.973-0.001,7.46c0.001,0.266-0.086,0.343-0.344,0.337c-0.617-0.016-1.234-0.002-1.851-0.006
			c-0.377-0.003-0.387-0.009-0.388-0.396C33.674,75.729,33.677,74.494,33.677,73.26z"/>
		<path fill-rule="evenodd" clip-rule="evenodd" fill="#EC931D" d="M67.539,32.222c0.99-1.233,1.494-2.688,1.895-4.186
			c0.76-2.846,1.578-5.676,2.284-8.537c0.119-0.484,0.131-0.49,0.627-0.339c3.184,0.965,5.928,2.65,8.237,5.042
			c1.647,1.707,2.919,3.664,3.841,5.849c0.028,0.067,0.048,0.139,0.083,0.202c0.118,0.215,0.033,0.321-0.174,0.414
			c-0.564,0.253-1.122,0.52-1.679,0.79c-1.636,0.796-3.308,1.512-4.968,2.253c-1.327,0.593-2.617,1.254-3.741,2.195
			c-0.04,0.034-0.097,0.048-0.145,0.071c-0.001-0.109-0.001-0.218-0.002-0.327c0.328-0.472,0.762-0.804,1.311-0.98
			c0.145,0,0.218-0.073,0.222-0.216c0.364-0.201,0.722-0.417,1.095-0.6c0.873-0.428,1.753-0.841,2.63-1.259
			c0.407-0.194,0.459-0.289,0.288-0.696c-0.092-0.219-0.103-0.381,0.129-0.5c0.24,0.09,0.21,0.368,0.361,0.524
			c0.148,0.153,0.265,0.267,0.509,0.148c1.128-0.546,2.264-1.074,3.398-1.605c0.2-0.094,0.271-0.231,0.187-0.438
			c-0.104-0.252-0.202-0.506-0.318-0.752c-0.864-1.821-2.038-3.429-3.432-4.873c-0.972-1.007-2.078-1.851-3.245-2.631
			c-1.373-0.917-2.859-1.561-4.401-2.111c-0.252-0.09-0.378-0.013-0.453,0.217c-0.028,0.086-0.055,0.173-0.078,0.261
			c-0.331,1.243-0.66,2.487-0.995,3.729c-0.049,0.181-0.059,0.357-0.036,0.539c-0.118,0.072-0.176,0.193-0.199,0.314
			c-0.141,0.729-0.449,1.411-0.58,2.142c-0.075,0.426-0.338,0.806-0.318,1.257c-0.197,0.72-0.462,1.415-0.743,2.106
			c-0.168,0.411-0.419,0.774-0.573,1.194c-0.096,0.262-0.218,0.638-0.639,0.637c-0.11,0.072-0.222,0.144-0.332,0.215
			C67.567,32.256,67.554,32.24,67.539,32.222z"/>
		<path fill-rule="evenodd" clip-rule="evenodd" fill="#EF9416" d="M75.7,38.772c0.008-0.029,0.021-0.055,0.039-0.079
			c0.111-0.039,0.131-0.122,0.11-0.225c0.292-0.481,0.758-0.734,1.252-0.948c0.524-0.078,1.042-0.175,1.505-0.455
			c0.086-0.019,0.172-0.038,0.258-0.056c0.12,0.068,0.222,0.06,0.294-0.071c0.073-0.021,0.146-0.041,0.219-0.061
			c0.271,0.044,0.534,0.035,0.764-0.145c0.967-0.27,1.966-0.352,2.952-0.502c0.772-0.118,1.551-0.202,2.326-0.299
			c0.384-0.048,0.391-0.047,0.435,0.346c0.062,0.543,0.051,1.09,0.032,1.635c-0.069,2.106-0.447,4.154-1.186,6.131
			c-0.152,0.41-0.158,0.413-0.563,0.255c-2.353-0.918-4.654-1.945-6.874-3.152c-0.011-0.073-0.05-0.1-0.121-0.075
			c-0.029-0.011-0.056-0.027-0.077-0.049c-0.022-0.066-0.065-0.096-0.137-0.078c-0.093-0.059-0.186-0.118-0.278-0.177
			c-0.024-0.137-0.108-0.196-0.245-0.186c-0.034-0.048-0.067-0.095-0.102-0.143c0.04-0.03,0.079-0.06,0.119-0.09
			c0.248,0.056,0.473,0.153,0.698,0.28c0.644,0.362,1.279,0.748,1.998,0.955c0.353,0.102,0.735,0.194,1.04-0.046
			c0.276-0.218,0.545-0.469,0.678-0.831c0.092-0.252,0.207-0.528,0.394-0.708c0.455-0.439,0.716-0.951,0.759-1.574
			c0.016-0.229,0.147-0.264,0.328-0.26c0.164,0.535,0.308,1.074,0.313,1.639c-0.012,0.011-0.036,0.027-0.034,0.033
			c0.011,0.026,0.028,0.05,0.043,0.074c0.033,0.103,0.091,0.205,0.095,0.309c0.021,0.651,0.024,1.303,0.109,1.951
			c0.023,0.176-0.004,0.362-0.032,0.54c-0.091,0.561-0.096,0.561,0.449,0.79c0.05,0.021,0.098,0.05,0.148,0.067
			c0.994,0.328,0.88,0.459,1.173-0.534c0.005-0.017,0.012-0.034,0.018-0.051c0.652-1.867,0.849-3.806,0.877-5.766
			c0.013-0.855,0.189-0.831-0.87-0.792c-0.054,0.002-0.106,0.017-0.16,0.026c-0.659,0.122-1.32,0.221-1.994,0.195
			c-0.059,0.002-0.103,0.029-0.13,0.082c-0.238,0.047-0.247,0.205-0.198,0.398c0.06,0.236,0.11,0.473,0.165,0.71
			c-0.263-0.031-0.283-0.218-0.304-0.433c-0.036-0.392-0.142-0.5-0.513-0.427c-0.474,0.092-0.952,0.127-1.429,0.185
			c-0.825,0.1-1.622,0.32-2.421,0.543c-0.428,0.12-0.791,0.348-1.146,0.587c-0.344,0.231-0.542,0.574-0.495,1.022
			c0.021,0.197,0.004,0.398,0.004,0.598l-0.034,0.027c-0.066-0.041-0.133-0.082-0.199-0.123l-0.001-0.002
			c0.023-0.135,0.012-0.258-0.117-0.34c-0.003-0.144-0.006-0.288-0.009-0.431C75.736,38.976,75.751,38.883,75.7,38.772z"/>
		<path fill-rule="evenodd" clip-rule="evenodd" fill="#EC931D" d="M66.464,23.168c0,1.345,0.007,2.69-0.003,4.035
			c-0.005,0.602-0.087,1.197-0.3,1.765c-0.363,0.971-1.14,1.251-2.049,0.754c-0.478-0.261-0.818-0.667-1.133-1.086
			c-1.822-2.427-3.571-4.905-5.174-7.484c-0.243-0.391-0.248-0.397,0.193-0.626c1.969-1.023,4.049-1.703,6.25-1.995
			c0.54-0.071,1.084-0.112,1.628-0.15c0.451-0.031,0.465-0.021,0.482,0.427c0.046,1.217,0.08,2.434,0.116,3.65
			c0.007,0.236,0.001,0.472,0.001,0.708C66.472,23.168,66.468,23.168,66.464,23.168z M62.774,27.575
			c0.019,0.173,0.077,0.326,0.219,0.436c0.188,0.242,0.363,0.497,0.568,0.724c0.255,0.281,0.51,0.563,0.88,0.714
			c0.566,0.23,1.039,0.047,1.284-0.516c0.219-0.504,0.332-1.027,0.326-1.58c-0.008-0.908-0.003-1.817-0.004-2.725
			c0.001-0.266-0.01-0.532,0.005-0.796c0.021-0.353,0.022-0.69-0.322-0.911c0.305-0.005,0.316-0.204,0.326-0.445
			c0.046-1.107-0.132-2.206-0.112-3.311c0.005-0.269-0.13-0.331-0.372-0.336c-0.511-0.012-1.014,0.076-1.51,0.155
			c-1.595,0.253-3.14,0.708-4.635,1.32c-0.413,0.169-0.824,0.361-1.233,0.638c0.436,0.682,0.859,1.331,1.265,1.989
			c0.124,0.201,0.3,0.166,0.476,0.178c0.036,0.461,0.196,0.873,0.468,1.249c0.443,0.614,0.887,1.229,1.303,1.862
			c0.219,0.333,0.461,0.639,0.741,0.918C62.457,27.359,62.601,27.479,62.774,27.575z"/>
		<path fill-rule="evenodd" clip-rule="evenodd" fill="#F3AF38" d="M61.737,45.797c-0.028,0.441-0.098,0.888-0.215,1.328
			c-0.549,2.059-1.343,4.028-2.172,5.986c-0.163,0.384-0.324,0.77-0.489,1.153c-0.154,0.357-0.155,0.354-0.499,0.185
			c-2.008-0.989-3.777-2.302-5.314-3.927c-0.262-0.277-0.529-0.551-0.773-0.843c-0.388-0.464-0.388-0.479,0.077-0.839
			c0.79-0.61,1.584-1.216,2.386-1.81c1.08-0.8,2.205-1.535,3.324-2.279c0.425-0.282,0.874-0.519,1.339-0.727
			c0.305-0.136,0.623-0.189,0.955-0.184c0.502,0.008,0.857,0.247,1.097,0.679C61.67,44.914,61.722,45.344,61.737,45.797z
			 M60.605,48.541c0.21-0.343,0.254-0.748,0.418-1.108c0.245-0.539,0.229-1.126,0.325-1.691c0.07-0.408-0.104-0.79-0.329-1.122
			c-0.141-0.208-0.356-0.339-0.639-0.349c-0.409-0.015-0.791,0.056-1.149,0.252c-0.79,0.434-1.547,0.918-2.245,1.492
			c-0.346,0.091-0.578,0.363-0.858,0.554c-1.178,0.807-2.323,1.66-3.45,2.539c-0.142,0.11-0.182,0.218-0.051,0.359
			c0.357,0.385,0.692,0.804,1.077,1.146c0.471,0.419,0.915,0.872,1.414,1.267c0.927,0.731,1.883,1.409,2.937,1.942
			c0.434,0.22,0.488,0.193,0.669-0.257c0.372-0.923,0.753-1.843,1.118-2.769C60.132,50.058,60.496,49.342,60.605,48.541z"/>
		<path fill-rule="evenodd" clip-rule="evenodd" fill="#F7AE2D" d="M53.606,41.881c0.498-0.148,0.997-0.293,1.493-0.445
			c0.704-0.214,1.406-0.433,2.109-0.65c0.301,0.017,0.642,0.219,0.856-0.18c0.413,0.088,0.742-0.364,1.174-0.179
			c0.119,0.051,0.257,0.049,0.352-0.062c0.126-0.148,0.292-0.119,0.453-0.123c0.035,0.104,0.07,0.207,0.105,0.311
			c-3.72,0.68-7.247,1.995-10.777,3.296c-0.384,0.142-0.393,0.15-0.513-0.193c-0.896-2.581-1.202-5.236-0.978-7.955
			c0.004-0.052,0.035-0.102,0.054-0.152c0.158,0.153,0.115,0.337,0.057,0.506c-0.086,0.249-0.05,0.501-0.061,0.753
			c-0.01,0.224,0.131,0.272,0.314,0.273c0,0.286,0,0.572,0.001,0.858c-0.138,0.013-0.293,0-0.308,0.2
			c-0.016,0.229,0.143,0.246,0.31,0.25c0.01,0.451,0.027,0.897,0.098,1.349c0.168,1.071,0.347,2.136,0.698,3.165
			c0.17,0.5,0.184,0.518,0.685,0.359c0.327-0.104,0.658-0.199,0.967-0.359c0.175-0.091,0.364-0.165,0.555-0.219
			C52.05,42.46,52.828,42.172,53.606,41.881z"/>
		<path fill-rule="evenodd" clip-rule="evenodd" fill="#F7AE2D" d="M65.066,44.388c0.183,0.536,0.083,1.091,0.11,1.637
			c0,0.362-0.002,0.723,0,1.084c0.004,0.829-0.079,1.649-0.209,2.467c-0.02,0.124-0.007,0.253-0.009,0.379
			c-0.106,0.933-0.235,1.862-0.311,2.797c-0.042,0.522-0.05,1.047-0.12,1.569c-0.045,0.339-0.012,0.681-0.094,1.025
			c-0.11,0.458,0.026,0.594,0.484,0.615c0.814,0.038,1.624,0.16,2.442,0.111c0.036,0.061,0.073,0.062,0.111,0.001
			c0.107,0,0.216,0,0.324,0c0.001,0.103,0.002,0.205,0.003,0.309c-1.034,0.146-2.064,0.043-3.091-0.062
			c-0.745-0.077-0.729-0.102-0.661-0.843c0.135-1.481,0.242-2.966,0.384-4.446c0.128-1.337,0.324-2.666,0.383-4.01
			c0.048-1.112-0.024-2.211-0.286-3.296c-0.16-0.663-0.486-1.247-0.818-1.83c0.367,0.071,0.409,0.549,0.776,0.623
			c0.012,0.002,0.023,0.069,0.016,0.101c-0.114,0.489,0.211,0.899,0.239,1.36C64.754,44.202,64.966,44.246,65.066,44.388z"/>
		<path fill-rule="evenodd" clip-rule="evenodd" fill="#1D1D21" d="M35.003,68.299c-0.743,0.004-1.312-0.55-1.323-1.289
			c-0.012-0.757,0.575-1.344,1.336-1.335c0.731,0.009,1.306,0.594,1.299,1.321C36.309,67.733,35.743,68.295,35.003,68.299z"/>
		<path fill-rule="evenodd" clip-rule="evenodd" fill="#F6A320" d="M69.326,55.962c0.412-0.18,0.86-0.218,1.292-0.315
			c1.427-0.322,2.831-0.697,4.147-1.36c0.758-0.381,1.521-0.748,2.213-1.242c0.139-0.1,0.29-0.144,0.44-0.197
			c0.156-0.056,0.289-0.117,0.387-0.27c0.238-0.375,0.59-0.512,1.026-0.43c-0.254,0.344-0.623,0.554-0.96,0.791
			c-2.512,1.763-5.281,2.888-8.327,3.309c-0.035,0.005-0.072-0.005-0.108-0.008C69.399,56.146,69.362,56.054,69.326,55.962z"/>
		<path fill-rule="evenodd" clip-rule="evenodd" fill="#F39B19" d="M73.798,35.649c0.001,0.109,0.001,0.218,0.002,0.327
			c-0.045,0.106-0.122,0.178-0.229,0.22c-0.159,0.016-0.278,0.076-0.294,0.256c0,0,0.013-0.013,0.012-0.013
			c-0.221,0.064-0.364,0.188-0.341,0.441l0.004-0.015c-0.079,0.027-0.113,0.085-0.119,0.165l0.006,0.028l-0.025,0.016
			c-0.155,0.013-0.221,0.093-0.186,0.249l0.006-0.016c-0.272,0.178-0.393,0.483-0.432,0.755c-0.034,0.24-0.262,0.491-0.058,0.752
			c0.003,0.258,0.006,0.517,0.008,0.775c-0.182,0.259-0.006,0.451,0.122,0.652l0.023,0.023l-0.013,0.03
			c0.025,0.053,0.05,0.106,0.074,0.159c0.038,0.048,0.056,0.1,0.035,0.161c0.002,0.069,0.024,0.127,0.083,0.168
			c0.029,0.016,0.039,0.039,0.027,0.071c-0.01,0.107-0.005,0.207,0.117,0.253c0,0-0.009-0.009-0.009-0.008
			c-0.005,0.041-0.009,0.082-0.014,0.123c-0.148,0.003-0.29,0-0.337-0.188c-0.025-0.104-0.115-0.126-0.208-0.139
			c-0.287-0.593-0.208-1.23-0.221-1.856c0.034-0.441-0.053-0.882,0.156-1.32c0.345-0.722,0.817-1.336,1.372-1.899
			C73.486,35.693,73.628,35.641,73.798,35.649z"/>
		<path fill-rule="evenodd" clip-rule="evenodd" fill="#F39B19" d="M48.245,37.081c-0.183,0-0.324-0.049-0.314-0.273
			c0.01-0.251-0.026-0.504,0.061-0.753c0.059-0.168,0.101-0.353-0.057-0.506c0.006-0.076,0.012-0.152,0.017-0.228
			c0.196-0.415,0.314-0.841,0.199-1.302c0.011-0.077,0.022-0.154,0.033-0.23c0.074-0.064,0.075-0.147,0.058-0.233
			c-0.013-0.031-0.009-0.059,0.012-0.085c0.036,0,0.071,0,0.107,0c0.074,0,0.148,0,0.222,0c-0.001,0.073,0.007,0.147-0.006,0.218
			C48.367,34.81,48.219,35.937,48.245,37.081z"/>
		<path fill-rule="evenodd" clip-rule="evenodd" fill="#F6A320" d="M78.832,52.148c-0.014-0.408,0.189-0.675,0.553-0.83
			c0.146-0.062,0.296-0.095,0.353-0.287c0.033-0.111,0.182-0.086,0.287-0.093c0.004,0.049,0.008,0.098,0.012,0.147
			C79.698,51.512,79.288,51.856,78.832,52.148z"/>
		<path fill-rule="evenodd" clip-rule="evenodd" fill="#F6A320" d="M67.798,56.383c-0.001-0.104-0.002-0.206-0.003-0.309
			c0.46-0.219,0.948-0.071,1.423-0.111c-0.001,0.1-0.002,0.2-0.003,0.301c-0.138,0.044-0.278,0.051-0.421,0.031
			c-0.148-0.003-0.304-0.051-0.438,0.058C68.173,56.41,67.985,56.408,67.798,56.383z"/>
		<path fill-rule="evenodd" clip-rule="evenodd" fill="#EC931D" d="M65.722,33.211c-0.1,0.231-0.306,0.135-0.472,0.148
			c-0.451,0.035-0.885-0.109-1.329-0.153c-0.177-0.018-0.403-0.054-0.491-0.279C64.185,33.099,64.939,33.265,65.722,33.211z"/>
		<path fill-rule="evenodd" clip-rule="evenodd" fill="#F2930F" d="M80.679,50.283c-0.141-0.109-0.14-0.219,0.001-0.328
			c0.14-0.021,0.275-0.045,0.108-0.218c0.005-0.21-0.154-0.284-0.299-0.38c-0.114-0.076-0.167-0.18-0.014-0.281
			c0.155-0.007,0.28,0.138,0.444,0.091h-0.002c0.063,0.21,0.195,0.337,0.423,0.349c0.016,0.035,0.031,0.071,0.046,0.106
			c-0.212,0.072-0.353,0.206-0.382,0.437l-0.007,0.003c-0.062,0.014-0.095,0.052-0.098,0.115v-0.001
			c-0.059,0.023-0.093,0.062-0.093,0.128v0.002C80.765,50.298,80.722,50.291,80.679,50.283z"/>
		<path fill-rule="evenodd" clip-rule="evenodd" fill="#EC931D" d="M67.033,33.037c-0.175-0.197-0.325,0.026-0.489,0.032
			c-0.2,0.007-0.369,0.236-0.597,0.093c0.463-0.171,0.89-0.411,1.306-0.672l0.012,0.011c-0.005,0.141-0.01,0.281-0.014,0.422
			C67.178,32.961,67.105,32.999,67.033,33.037z"/>
		<path fill-rule="evenodd" clip-rule="evenodd" fill="#F6A724" d="M60.149,40.553c-0.035-0.104-0.07-0.207-0.105-0.311
			c0.364,0,0.729-0.001,1.094-0.001c-0.063,0.112-0.232,0.151-0.219,0.316C60.662,40.556,60.406,40.554,60.149,40.553z"/>
		<path fill-rule="evenodd" clip-rule="evenodd" fill="#F3AF38" d="M78.606,37.066c-0.463,0.28-0.98,0.377-1.505,0.455
			C77.564,37.239,78.079,37.132,78.606,37.066z"/>
		<path fill-rule="evenodd" clip-rule="evenodd" fill="#EC931D" d="M72.145,38.813c-0.204-0.261,0.023-0.512,0.058-0.752
			c0.039-0.272,0.159-0.577,0.432-0.755C72.474,37.81,72.245,38.291,72.145,38.813z"/>
		<path fill-rule="evenodd" clip-rule="evenodd" fill="#F7AE2D" d="M60.918,40.557c-0.013-0.165,0.156-0.204,0.219-0.316
			c0.276-0.008,0.538,0.036,0.761,0.216c-0.035,0-0.069,0-0.104,0c-0.036,0.036-0.072,0.072-0.108,0.108
			c0,0.033-0.001,0.066-0.002,0.099C61.429,40.628,61.174,40.592,60.918,40.557z"/>
		<path fill-rule="evenodd" clip-rule="evenodd" fill="#F7AE2D" d="M48.361,33.47c-0.036,0-0.071,0-0.107,0
			c0.058-0.546,0.171-1.077,0.411-1.576C48.655,32.437,48.448,32.941,48.361,33.47z"/>
		<path fill-rule="evenodd" clip-rule="evenodd" fill="#F3AF38" d="M52.989,25.258c-0.46-0.073-0.46-0.073-0.843,0.097
			c0.004-0.018,0.004-0.038,0.014-0.053C52.51,24.745,52.553,24.743,52.989,25.258z"/>
		<path fill-rule="evenodd" clip-rule="evenodd" fill="#F6A724" d="M61.794,40.457c0.035,0,0.07,0,0.104,0
			c0.271,0.169,0.647,0.206,0.755,0.587c-0.323-0.127-0.646-0.254-0.97-0.381c0.001-0.033,0.001-0.065,0.002-0.099
			C61.722,40.529,61.758,40.493,61.794,40.457z"/>
		<path fill-rule="evenodd" clip-rule="evenodd" fill="#F39510" d="M80.029,48.638c-0.377-0.008-0.677-0.125-0.769-0.538
			c0,0,0.012-0.014,0.012-0.013c0.113-0.001,0.227-0.002,0.34-0.002c0.034,0.029,0.068,0.06,0.103,0.089
			c0.01,0.072,0.05,0.11,0.125,0.106l0.001,0.03l0.003-0.03C79.82,48.443,79.987,48.508,80.029,48.638z"/>
		<path fill-rule="evenodd" clip-rule="evenodd" fill="#F7AE2D" d="M48.151,34.019c0.115,0.461-0.003,0.888-0.199,1.302
			C47.946,34.876,48.006,34.441,48.151,34.019z"/>
		<path fill-rule="evenodd" clip-rule="evenodd" fill="#F3AF38" d="M62.376,32.468c-0.409-0.083-0.804-0.192-1.027-0.597
			C61.722,32.019,62.064,32.217,62.376,32.468z"/>
		<path fill-rule="evenodd" clip-rule="evenodd" fill="#F3AF38" d="M77.963,46.667c-0.382-0.079-0.588-0.352-0.749-0.675
			C77.542,46.131,77.771,46.379,77.963,46.667z"/>
		<path fill-rule="evenodd" clip-rule="evenodd" fill="#F39B19" d="M73.364,42.423c-0.261,0.044-0.354-0.135-0.437-0.328
			c0.053-0.098,0.151-0.108,0.244-0.129l-0.014-0.003c0.012,0.066,0.052,0.108,0.115,0.127c0.062,0.016,0.088,0.058,0.09,0.119
			C73.364,42.28,73.364,42.351,73.364,42.423L73.364,42.423z"/>
		<path fill-rule="evenodd" clip-rule="evenodd" fill="#F3AF38" d="M80.92,49.167c-0.164,0.047-0.289-0.098-0.444-0.091
			c-0.041-0.071-0.083-0.142-0.125-0.213c0.007-0.049,0.013-0.098,0.02-0.146C80.597,48.813,80.794,48.947,80.92,49.167z"/>
		<path fill-rule="evenodd" clip-rule="evenodd" fill="#F39510" d="M75.121,44.042c-0.313,0.222-0.404-0.156-0.679-0.183
			c0.206-0.153,0.328,0.017,0.462-0.021C75.006,43.874,75.078,43.943,75.121,44.042z"/>
		<path fill-rule="evenodd" clip-rule="evenodd" fill="#F3AF38" d="M80.141,36.733c-0.229,0.18-0.492,0.189-0.764,0.145
			C79.616,36.752,79.874,36.718,80.141,36.733z"/>
		<path fill-rule="evenodd" clip-rule="evenodd" fill="#F7AE2D" d="M63.429,41.332c0.069,0.158,0.259,0.267,0.2,0.479
			c-0.196-0.136-0.384-0.279-0.513-0.486C63.22,41.327,63.325,41.33,63.429,41.332L63.429,41.332z"/>
		<path fill-rule="evenodd" clip-rule="evenodd" fill="#F3AF38" d="M59.608,30.631c-0.305,0.012-0.491-0.127-0.546-0.432
			C59.294,30.28,59.462,30.442,59.608,30.631z"/>
		<path fill-rule="evenodd" clip-rule="evenodd" fill="#F3AF38" d="M79.612,48.085c-0.113,0-0.227,0.001-0.34,0.002
			c-0.042-0.136-0.084-0.271-0.126-0.405C79.364,47.744,79.508,47.892,79.612,48.085z"/>
		<path fill-rule="evenodd" clip-rule="evenodd" fill="#F3AF38" d="M56.265,27.989c-0.398,0.004-0.413-0.008-0.429-0.344
			C56.029,27.696,56.168,27.816,56.265,27.989z"/>
		<path fill-rule="evenodd" clip-rule="evenodd" fill="#F3AF38" d="M57.897,29.287c-0.264-0.047-0.479-0.157-0.565-0.435
			C57.575,28.926,57.766,29.067,57.897,29.287z"/>
		<path fill-rule="evenodd" clip-rule="evenodd" fill="#F3AF38" d="M81.005,50.059c0.029-0.23,0.17-0.364,0.382-0.437
			C81.363,49.859,81.204,49.977,81.005,50.059z"/>
		<path fill-rule="evenodd" clip-rule="evenodd" fill="#EF9416" d="M76.303,40.438c-0.043-0.021-0.086-0.041-0.129-0.061
			c0-0.069-0.034-0.105-0.104-0.106l-0.009-0.009c0.005-0.067-0.029-0.103-0.095-0.112l-0.003-0.003
			c-0.005-0.07-0.009-0.139-0.013-0.208l0.034-0.027c0.259,0.032,0.405,0.178,0.437,0.437
			C76.382,40.378,76.343,40.408,76.303,40.438z"/>
		<path fill-rule="evenodd" clip-rule="evenodd" fill="#EC931D" d="M72.274,40.24c-0.128-0.201-0.304-0.393-0.122-0.652
			C72.243,39.796,72.264,40.017,72.274,40.24z"/>
		<path fill-rule="evenodd" clip-rule="evenodd" fill="#F3AF38" d="M53.435,25.625c-0.209-0.011-0.355-0.096-0.381-0.323
			C53.239,25.341,53.355,25.46,53.435,25.625z"/>
		<path fill-rule="evenodd" clip-rule="evenodd" fill="#F3AF38" d="M81.341,49.516c-0.228-0.012-0.359-0.139-0.423-0.349
			C81.11,49.22,81.267,49.318,81.341,49.516z"/>
		<path fill-rule="evenodd" clip-rule="evenodd" fill="#F39B19" d="M72.819,41.877c-0.112-0.127-0.292-0.237-0.109-0.438
			c0.039,0,0.079,0,0.118,0.001c0,0,0.004,0.041,0.004,0.042c0.006,0.08,0.04,0.14,0.118,0.169l-0.004-0.014
			C72.928,41.729,72.916,41.826,72.819,41.877z"/>
		<path fill-rule="evenodd" clip-rule="evenodd" fill="#EC931D" d="M72.819,41.877c0.097-0.051,0.108-0.147,0.127-0.24
			c0.142,0.064,0.195,0.188,0.226,0.329c-0.093,0.021-0.191,0.031-0.244,0.129C72.84,42.048,72.821,41.967,72.819,41.877z"/>
		<path fill-rule="evenodd" clip-rule="evenodd" fill="#F3AF38" d="M80.029,48.638c-0.042-0.13-0.209-0.194-0.186-0.357
			c0.186,0.065,0.342,0.166,0.424,0.354c-0.079,0.002-0.158,0.004-0.237,0.005L80.029,48.638z"/>
		<path fill-rule="evenodd" clip-rule="evenodd" fill="#EC931D" d="M72.948,36.879c-0.023-0.253,0.12-0.377,0.341-0.441
			C73.24,36.636,73.12,36.778,72.948,36.879z"/>
		<path fill-rule="evenodd" clip-rule="evenodd" fill="#F7AE2D" d="M49.325,30.049c-0.001,0.182,0.115,0.411-0.188,0.473
			C49.124,30.334,49.201,30.183,49.325,30.049z"/>
		<path fill-rule="evenodd" clip-rule="evenodd" fill="#F3AF38" d="M78.847,47.432c-0.22,0.013-0.333-0.094-0.353-0.309
			C78.664,47.167,78.78,47.271,78.847,47.432z"/>
		<path fill-rule="evenodd" clip-rule="evenodd" fill="#F3AF38" d="M54.284,26.359c-0.218,0.017-0.329-0.092-0.354-0.301
			C54.105,26.091,54.211,26.205,54.284,26.359z"/>
		<path fill-rule="evenodd" clip-rule="evenodd" fill="#EC931D" d="M80.258,50.849c-0.02-0.229,0.099-0.333,0.316-0.347
			C80.554,50.694,80.415,50.78,80.258,50.849z"/>
		<path fill-rule="evenodd" clip-rule="evenodd" fill="#EC931D" d="M67.253,32.49c0.059-0.128,0.168-0.203,0.286-0.268
			c0.015,0.017,0.028,0.034,0.044,0.05c-0.002,0.108-0.004,0.217-0.005,0.325c-0.034,0.003-0.068,0.005-0.103,0.006
			c-0.045-0.086-0.118-0.114-0.211-0.103L67.253,32.49z"/>
		<path fill-rule="evenodd" clip-rule="evenodd" fill="#F7AE2D" d="M48.878,31.233c0.053,0.2,0.036,0.376-0.168,0.488
			C48.693,31.534,48.768,31.377,48.878,31.233z"/>
		<path fill-rule="evenodd" clip-rule="evenodd" fill="#F3AF38" d="M61.058,31.688c-0.187,0.043-0.303-0.021-0.33-0.219
			C60.873,31.491,60.986,31.558,61.058,31.688z"/>
		<path fill-rule="evenodd" clip-rule="evenodd" fill="#F3AF38" d="M58.418,29.867c0.011-0.047,0.023-0.095,0.034-0.143
			c0.14,0.032,0.25,0.103,0.309,0.239C58.63,29.99,58.527,29.918,58.418,29.867z"/>
		<path fill-rule="evenodd" clip-rule="evenodd" fill="#F39510" d="M80.03,48.64c0.079-0.001,0.158-0.003,0.237-0.005
			c0.034,0.027,0.068,0.055,0.103,0.082c-0.007,0.049-0.013,0.098-0.02,0.146C80.191,48.863,80.029,48.869,80.03,48.64z"/>
		<path fill-rule="evenodd" clip-rule="evenodd" fill="#F7AE2D" d="M69.215,56.264c0.001-0.101,0.002-0.201,0.003-0.301
			c0.036-0.002,0.071-0.002,0.107-0.001c0.037,0.092,0.074,0.185,0.111,0.277C69.366,56.279,69.292,56.283,69.215,56.264z"/>
		<path fill-rule="evenodd" clip-rule="evenodd" fill="#F3AF38" d="M55.47,27.347c-0.171,0.004-0.292-0.053-0.302-0.246
			C55.307,27.136,55.421,27.201,55.47,27.347z"/>
		<path fill-rule="evenodd" clip-rule="evenodd" fill="#F7AE2D" d="M49.553,29.522c0.012,0.185-0.058,0.335-0.2,0.453
			C49.355,29.795,49.418,29.643,49.553,29.522z"/>
		<path fill-rule="evenodd" clip-rule="evenodd" fill="#F3AF38" d="M60.168,31.057c-0.176,0.012-0.29-0.061-0.327-0.238
			C59.985,30.85,60.11,30.907,60.168,31.057z"/>
		<path fill-rule="evenodd" clip-rule="evenodd" fill="#F7BD69" d="M75.951,39.938c0.004,0.069,0.008,0.139,0.013,0.208
			c-0.163-0.052-0.211-0.177-0.212-0.332C75.818,39.856,75.885,39.897,75.951,39.938z"/>
		<path fill-rule="evenodd" clip-rule="evenodd" fill="#F7BD69" d="M75.634,39.473c0.129,0.083,0.141,0.206,0.117,0.34
			C75.641,39.724,75.55,39.629,75.634,39.473z"/>
		<path fill-rule="evenodd" clip-rule="evenodd" fill="#F3AF38" d="M76.542,45.364c-0.146,0.008-0.225-0.061-0.23-0.208
			C76.432,45.178,76.502,45.254,76.542,45.364z"/>
		<path fill-rule="evenodd" clip-rule="evenodd" fill="#F3AF38" d="M56.685,28.325c-0.149,0.018-0.234-0.043-0.245-0.197
			C56.562,28.144,56.642,28.212,56.685,28.325z"/>
		<path fill-rule="evenodd" clip-rule="evenodd" fill="#EC931D" d="M72.628,37.322c-0.035-0.156,0.03-0.236,0.186-0.249
			C72.793,37.187,72.741,37.277,72.628,37.322z"/>
		<path fill-rule="evenodd" clip-rule="evenodd" fill="#F3AF38" d="M79.158,36.939c-0.072,0.131-0.174,0.139-0.294,0.071
			C78.95,36.937,79.045,36.898,79.158,36.939z"/>
		<path fill-rule="evenodd" clip-rule="evenodd" fill="#F3AF38" d="M57.225,28.765c-0.143,0.013-0.226-0.046-0.238-0.193
			C57.109,28.583,57.189,28.646,57.225,28.765z"/>
		<path fill-rule="evenodd" clip-rule="evenodd" fill="#F7AE2D" d="M62.844,41.132c0.149-0.026,0.245,0.025,0.264,0.186
			C62.989,41.299,62.902,41.236,62.844,41.132z"/>
		<path fill-rule="evenodd" clip-rule="evenodd" fill="#F3AF38" d="M51.953,25.587c0.015,0.141-0.039,0.229-0.187,0.246
			C51.778,25.712,51.84,25.631,51.953,25.587z"/>
		<path fill-rule="evenodd" clip-rule="evenodd" fill="#F7BD69" d="M75.7,38.772c0.051,0.111,0.036,0.204-0.075,0.27
			C75.541,38.921,75.616,38.846,75.7,38.772z"/>
		<path fill-rule="evenodd" clip-rule="evenodd" fill="#F7BD69" d="M76.404,40.582c0.137-0.011,0.221,0.048,0.245,0.186
			C76.521,40.767,76.439,40.705,76.404,40.582z"/>
		<path fill-rule="evenodd" clip-rule="evenodd" fill="#EC931D" d="M73.277,36.452c0.016-0.18,0.135-0.24,0.294-0.256
			C73.512,36.326,73.418,36.416,73.277,36.452z"/>
		<path fill-rule="evenodd" clip-rule="evenodd" fill="#F3AF38" d="M54.933,26.901c-0.15,0.022-0.228-0.044-0.238-0.194
			C54.815,26.722,54.895,26.786,54.933,26.901z"/>
		<path fill-rule="evenodd" clip-rule="evenodd" fill="#F7AE2D" d="M68.356,56.353c0.134-0.108,0.289-0.061,0.438-0.058
			C68.658,56.39,68.51,56.389,68.356,56.353z"/>
		<path fill-rule="evenodd" clip-rule="evenodd" fill="#F39B19" d="M76.186,45.049c-0.124-0.01-0.194-0.077-0.209-0.202
			C76.08,44.88,76.152,44.944,76.186,45.049z"/>
		<path fill-rule="evenodd" clip-rule="evenodd" fill="#EC931D" d="M73.365,42.422c-0.001-0.071-0.001-0.143-0.002-0.214
			c0.095,0.049,0.171,0.113,0.194,0.223C73.493,42.429,73.429,42.426,73.365,42.422z"/>
		<path fill-rule="evenodd" clip-rule="evenodd" fill="#F7AE2D" d="M49.983,28.639c0.018,0.104,0.005,0.194-0.112,0.233
			C49.868,28.774,49.901,28.695,49.983,28.639z"/>
		<path fill-rule="evenodd" clip-rule="evenodd" fill="#F7AE2D" d="M49.872,28.87c0.02,0.102,0.004,0.186-0.112,0.219
			C49.76,28.997,49.788,28.919,49.872,28.87z"/>
		<path fill-rule="evenodd" clip-rule="evenodd" fill="#F39B19" d="M75.962,44.833c-0.09-0.013-0.166-0.042-0.179-0.148
			C75.874,44.697,75.938,44.742,75.962,44.833z"/>
		<path fill-rule="evenodd" clip-rule="evenodd" fill="#F7AE2D" d="M49.11,30.605c0.021,0.104,0.005,0.192-0.101,0.245
			C49.001,30.75,49.021,30.664,49.11,30.605z"/>
		<path fill-rule="evenodd" clip-rule="evenodd" fill="#F3AF38" d="M61.265,31.823c-0.104,0.008-0.194-0.007-0.212-0.135
			C61.146,31.697,61.217,31.742,61.265,31.823z"/>
		<path fill-rule="evenodd" clip-rule="evenodd" fill="#F3AF38" d="M59.766,30.751c-0.076-0.008-0.134-0.041-0.156-0.119
			C59.69,30.635,59.75,30.666,59.766,30.751z"/>
		<path fill-rule="evenodd" clip-rule="evenodd" fill="#F7AE2D" d="M48.99,30.91c0.027,0.11,0.02,0.208-0.096,0.267
			C48.886,31.073,48.905,30.979,48.99,30.91z"/>
		<path fill-rule="evenodd" clip-rule="evenodd" fill="#EC931D" d="M63.057,32.801c-0.116,0.008-0.228,0.006-0.274-0.132
			C62.888,32.685,62.989,32.709,63.057,32.801z"/>
		<path fill-rule="evenodd" clip-rule="evenodd" fill="#F7BD69" d="M75.85,38.469c0.021,0.103,0.001,0.186-0.11,0.225
			C75.736,38.599,75.769,38.522,75.85,38.469z"/>
		<path fill-rule="evenodd" clip-rule="evenodd" fill="#F7AE2D" d="M49.762,29.087c0.021,0.103,0.005,0.187-0.11,0.221
			C49.647,29.214,49.673,29.135,49.762,29.087z"/>
		<path fill-rule="evenodd" clip-rule="evenodd" fill="#F7AE2D" d="M48.242,33.555c0.017,0.086,0.016,0.169-0.058,0.233
			C48.155,33.699,48.18,33.622,48.242,33.555z"/>
		<path fill-rule="evenodd" clip-rule="evenodd" fill="#F3AF38" d="M58.081,29.43c-0.1,0-0.184-0.021-0.185-0.146
			C57.986,29.296,58.05,29.342,58.081,29.43z"/>
		<path fill-rule="evenodd" clip-rule="evenodd" fill="#EC931D" d="M72.622,41.106c-0.122-0.046-0.127-0.146-0.117-0.253
			C72.588,40.917,72.622,41.003,72.622,41.106z"/>
		<path fill-rule="evenodd" clip-rule="evenodd" fill="#F3AF38" d="M55.165,27.099c-0.072,0.01-0.111-0.022-0.119-0.094
			C55.106,27.01,55.146,27.04,55.165,27.099z"/>
		<path fill-rule="evenodd" clip-rule="evenodd" fill="#F7AE2D" d="M49.655,29.304c0.01,0.06-0.015,0.1-0.068,0.125
			C49.575,29.368,49.596,29.326,49.655,29.304z"/>
		<path fill-rule="evenodd" clip-rule="evenodd" fill="#F7BD69" d="M76.07,40.271c0.069,0.001,0.104,0.037,0.104,0.106
			C76.115,40.366,76.079,40.332,76.07,40.271z"/>
		<path fill-rule="evenodd" clip-rule="evenodd" fill="#F3AF38" d="M55.575,27.462c-0.058-0.018-0.095-0.055-0.107-0.116
			C55.535,27.356,55.58,27.386,55.575,27.462z"/>
		<path fill-rule="evenodd" clip-rule="evenodd" fill="#F3AF38" d="M55.69,27.564c-0.071,0.001-0.109-0.035-0.116-0.104
			C55.613,27.495,55.651,27.529,55.69,27.564z"/>
		<path fill-rule="evenodd" clip-rule="evenodd" fill="#EC931D" d="M80.036,51.086c-0.004-0.05-0.008-0.099-0.012-0.147
			c0.042,0.005,0.085,0.011,0.127,0.016C80.14,51.021,80.097,51.062,80.036,51.086z"/>
		<path fill-rule="evenodd" clip-rule="evenodd" fill="#F3AF38" d="M55.822,27.637c-0.07,0.02-0.111-0.012-0.136-0.075
			C55.755,27.544,55.797,27.575,55.822,27.637z"/>
		<path fill-rule="evenodd" clip-rule="evenodd" fill="#EC931D" d="M80.146,50.958c0.011-0.067,0.05-0.106,0.117-0.117
			C80.252,50.908,80.213,50.947,80.146,50.958z"/>
		<path fill-rule="evenodd" clip-rule="evenodd" fill="#EC931D" d="M72.359,40.453c-0.024-0.053-0.049-0.106-0.074-0.159
			C72.343,40.332,72.368,40.384,72.359,40.453z"/>
		<path fill-rule="evenodd" clip-rule="evenodd" fill="#F3AF38" d="M80.679,50.283c0.043,0.008,0.086,0.015,0.129,0.022
			c-0.017,0.065-0.053,0.104-0.125,0.094C80.682,50.361,80.68,50.322,80.679,50.283z"/>
		<path fill-rule="evenodd" clip-rule="evenodd" fill="#F3AF38" d="M55.046,27.006c-0.069-0.001-0.107-0.037-0.116-0.105
			C54.994,26.908,55.033,26.943,55.046,27.006z"/>
		<path fill-rule="evenodd" clip-rule="evenodd" fill="#F7BD69" d="M75.967,40.15c0.065,0.009,0.1,0.044,0.095,0.112
			C76.002,40.249,75.972,40.211,75.967,40.15z"/>
		<path fill-rule="evenodd" clip-rule="evenodd" fill="#F3AF38" d="M58.322,29.627c-0.07-0.001-0.109-0.038-0.123-0.105
			C58.262,29.531,58.304,29.564,58.322,29.627z"/>
		<path fill-rule="evenodd" clip-rule="evenodd" fill="#F3AF38" d="M54.64,26.669c-0.079,0.005-0.124-0.029-0.128-0.11
			C54.576,26.57,54.616,26.61,54.64,26.669z"/>
		<path fill-rule="evenodd" clip-rule="evenodd" fill="#F3AF38" d="M54.51,26.556c-0.076,0.004-0.114-0.034-0.123-0.107
			C54.449,26.46,54.493,26.492,54.51,26.556z"/>
		<path fill-rule="evenodd" clip-rule="evenodd" fill="#F3AF38" d="M51.623,26.019c-0.002,0.068-0.037,0.112-0.101,0.133
			C51.529,26.087,51.562,26.042,51.623,26.019z"/>
		<path fill-rule="evenodd" clip-rule="evenodd" fill="#F3AF38" d="M51.754,25.855c-0.021,0.027-0.042,0.054-0.062,0.081
			C51.688,25.89,51.708,25.862,51.754,25.855z"/>
		<path fill-rule="evenodd" clip-rule="evenodd" fill="#F3AF38" d="M53.631,25.812c-0.07-0.005-0.112-0.042-0.127-0.11
			C53.567,25.716,53.612,25.75,53.631,25.812z"/>
		<path fill-rule="evenodd" clip-rule="evenodd" fill="#F3AF38" d="M52.146,25.358c0.006,0.075-0.031,0.114-0.104,0.124
			C52.053,25.421,52.084,25.377,52.146,25.358z"/>
		<path fill-rule="evenodd" clip-rule="evenodd" fill="#EC931D" d="M72.833,37.029c0.006-0.08,0.04-0.138,0.119-0.165
			C72.944,36.942,72.903,36.996,72.833,37.029z"/>
		<path fill-rule="evenodd" clip-rule="evenodd" fill="#EC931D" d="M74.032,42.964c-0.061-0.02-0.1-0.061-0.115-0.123
			C73.979,42.86,74.018,42.901,74.032,42.964z"/>
		<path fill-rule="evenodd" clip-rule="evenodd" fill="#EC931D" d="M73.825,42.742c-0.069-0.02-0.11-0.066-0.124-0.137
			C73.743,42.651,73.784,42.697,73.825,42.742z"/>
		<path fill-rule="evenodd" clip-rule="evenodd" fill="#F3AF38" d="M56.928,28.53c-0.08,0.001-0.127-0.037-0.14-0.116
			C56.854,28.429,56.901,28.467,56.928,28.53z"/>
		<path fill-rule="evenodd" clip-rule="evenodd" fill="#F39B19" d="M75.795,44.697c-0.071-0.007-0.111-0.047-0.121-0.118
			C75.742,44.589,75.782,44.629,75.795,44.697z"/>
		<path fill-rule="evenodd" clip-rule="evenodd" fill="#EC931D" d="M73.628,42.516c-0.019-0.017-0.034-0.036-0.05-0.056l0.042,0.013
			L73.628,42.516z"/>
		<path fill-rule="evenodd" clip-rule="evenodd" fill="#EC931D" d="M73.273,42.09c-0.063-0.019-0.104-0.061-0.115-0.127
			C73.228,41.977,73.261,42.024,73.273,42.09z"/>
		<path fill-rule="evenodd" clip-rule="evenodd" fill="#F39B19" d="M76.297,45.155c-0.032-0.031-0.065-0.062-0.098-0.092
			C76.256,45.068,76.288,45.1,76.297,45.155z"/>
		<path fill-rule="evenodd" clip-rule="evenodd" fill="#F3AF38" d="M59.012,30.168c-0.086-0.001-0.135-0.044-0.148-0.129
			C58.913,30.082,58.962,30.125,59.012,30.168z"/>
		<path fill-rule="evenodd" clip-rule="evenodd" fill="#F3AF38" d="M77.003,45.789c-0.073-0.005-0.118-0.044-0.132-0.116
			C76.937,45.686,76.981,45.724,77.003,45.789z"/>
		<path fill-rule="evenodd" clip-rule="evenodd" fill="#F3AF38" d="M77.217,45.997c-0.078-0.005-0.115-0.049-0.117-0.126
			C77.163,45.89,77.204,45.93,77.217,45.997z"/>
		<path fill-rule="evenodd" clip-rule="evenodd" fill="#EC931D" d="M72.95,41.65c-0.078-0.029-0.112-0.089-0.118-0.169
			C72.904,41.515,72.939,41.574,72.95,41.65z"/>
		<path fill-rule="evenodd" clip-rule="evenodd" fill="#F3AF38" d="M78.079,46.771c-0.067-0.003-0.105-0.039-0.118-0.104
			C78.022,46.677,78.065,46.708,78.079,46.771z"/>
		<path fill-rule="evenodd" clip-rule="evenodd" fill="#F3AF38" d="M78.202,46.879c-0.072-0.002-0.115-0.039-0.127-0.11
			C78.142,46.778,78.181,46.818,78.202,46.879z"/>
		<path fill-rule="evenodd" clip-rule="evenodd" fill="#EC931D" d="M72.828,41.44c-0.039,0-0.079,0-0.118-0.001
			c0.005-0.054,0.011-0.108,0.016-0.163C72.789,41.312,72.822,41.367,72.828,41.44z"/>
		<path fill-rule="evenodd" clip-rule="evenodd" fill="#EC931D" d="M72.6,41.221c0.005-0.041,0.009-0.082,0.014-0.123
			c0.065,0.016,0.089,0.062,0.089,0.125C72.668,41.222,72.634,41.222,72.6,41.221z"/>
		<path fill-rule="evenodd" clip-rule="evenodd" fill="#F3AF38" d="M79.084,47.64c-0.078-0.003-0.123-0.043-0.135-0.12
			C79.014,47.537,79.059,47.577,79.084,47.64z"/>
		<path fill-rule="evenodd" clip-rule="evenodd" fill="#F7BD69" d="M77.142,41.071c0.071-0.025,0.11,0.002,0.121,0.075
			C77.222,41.122,77.182,41.096,77.142,41.071z"/>
		<path fill-rule="evenodd" clip-rule="evenodd" fill="#F7BD69" d="M76.928,40.944c0.071-0.018,0.114,0.012,0.137,0.078
			C77.004,41.021,76.958,40.997,76.928,40.944z"/>
		<path fill-rule="evenodd" clip-rule="evenodd" fill="#F3AF38" d="M79.84,48.28c-0.075,0.004-0.115-0.034-0.125-0.106
			C79.777,48.185,79.822,48.217,79.84,48.28z"/>
		<path fill-rule="evenodd" clip-rule="evenodd" fill="#F3AF38" d="M58.441,29.719c-0.073,0.01-0.111-0.024-0.121-0.095
			C58.381,29.629,58.423,29.659,58.441,29.719z"/>
		<path fill-rule="evenodd" clip-rule="evenodd" fill="#F3AF38" d="M60.729,31.475c-0.07,0.006-0.11-0.028-0.128-0.094
			C60.664,31.385,60.709,31.413,60.729,31.475z"/>
		<path fill-rule="evenodd" clip-rule="evenodd" fill="#F3AF38" d="M60.606,31.385c-0.062-0.006-0.103-0.04-0.123-0.098
			C60.543,31.295,60.586,31.325,60.606,31.385z"/>
		<path fill-rule="evenodd" clip-rule="evenodd" fill="#EC931D" d="M72.478,40.782c-0.059-0.041-0.081-0.1-0.083-0.168
			C72.456,40.653,72.479,40.711,72.478,40.782z"/>
		<path fill-rule="evenodd" clip-rule="evenodd" fill="#F3AF38" d="M60.303,31.159c-0.072-0.001-0.118-0.036-0.14-0.104
			C60.229,31.062,60.275,31.098,60.303,31.159z"/>
		<path fill-rule="evenodd" clip-rule="evenodd" fill="#F3AF38" d="M80.9,50.177c0.003-0.063,0.036-0.102,0.098-0.115
			C80.966,50.101,80.933,50.139,80.9,50.177z"/>
		<path fill-rule="evenodd" clip-rule="evenodd" fill="#F3AF38" d="M80.808,50.304c0-0.065,0.034-0.104,0.093-0.128
			C80.911,50.248,80.873,50.286,80.808,50.304z"/>
		<path fill-rule="evenodd" clip-rule="evenodd" fill="#EC931D" d="M80.788,49.737c0.167,0.173,0.031,0.196-0.108,0.218
			C80.682,49.865,80.7,49.784,80.788,49.737z"/>
		<path fill-rule="evenodd" clip-rule="evenodd" fill="#F6A320" d="M67.471,56.074c-0.038,0.061-0.075,0.06-0.111-0.001
			C67.396,56.074,67.434,56.074,67.471,56.074z"/>
		<path fill-rule="evenodd" clip-rule="evenodd" fill="#F6A724" d="M73.798,35.649c-0.17-0.008-0.312,0.043-0.436,0.169
			c-0.555,0.562-1.027,1.177-1.372,1.899c-0.209,0.438-0.122,0.879-0.156,1.32c-0.686,0.257-1.397,0.338-2.125,0.33
			c-0.144-0.001-0.292,0.003-0.432,0.035c-0.485,0.109-0.961,0.085-1.452,0c-0.381-0.066-0.757-0.246-1.172-0.079
			c-0.449,0.181-0.656-0.426-1.079-0.385c-0.036,0.003-0.074-0.014-0.108-0.007c-0.457,0.088-0.725-0.208-0.944-0.516
			c-0.176-0.246-0.346-0.403-0.661-0.366c-0.136,0.016-0.233-0.08-0.33-0.165c-0.284-0.25-0.431-0.63-0.784-0.817
			c-0.047-0.025-0.081-0.13-0.074-0.193c0.035-0.303-0.182-0.456-0.354-0.641c-0.171-0.186-0.465-0.323-0.487-0.568
			c-0.042-0.469-0.193-0.887-0.334-1.328c-0.151-0.47-0.239-1.025,0.052-1.528c0.048-0.083,0.018-0.213,0.023-0.322
			c0.106,0.045,0.204,0.115,0.328,0.109c0.035,0.341,0.07,0.364,0.328,0.218c0.348,0.026,0.604,0.276,0.921,0.389
			c0.488,0.172,0.986,0.261,1.482,0.377c-0.029,0.189,0.112,0.352,0.099,0.529c-0.028,0.358,0.154,0.547,0.432,0.743
			c0.318,0.225,0.633,0.488,0.569,0.975c-0.038,0.29,0.145,0.457,0.428,0.539c0.254,0.073,0.506,0.054,0.757,0.046
			c0.393-0.012,0.762,0.016,1.052,0.328c0.046,0.05,0.127,0.103,0.188,0.098c0.539-0.043,1.13,0.218,1.594-0.287
			c0.126-0.138,0.328-0.127,0.512-0.139c0.307-0.02,0.581-0.138,0.684-0.448c0.077-0.233,0.213-0.305,0.438-0.318
			c0.178-0.011,0.352-0.081,0.53-0.1c0.145-0.015,0.259-0.074,0.287-0.207c0.066-0.311,0.273-0.534,0.421-0.795
			c0.16-0.284,0.155-0.657,0.375-0.938c0.041-0.053-0.041-0.128-0.068-0.194c-0.123-0.295-0.092-0.361,0.201-0.468
			c0.448-0.163,0.449-0.163,0.453-0.633c0.001-0.163,0.003-0.327-0.001-0.49c-0.009-0.461-0.024-0.493-0.482-0.646
			c-0.261-0.086-0.392-0.244-0.39-0.516c0.002-0.218-0.005-0.436,0.001-0.654c0.008-0.315-0.11-0.526-0.444-0.575
			c-0.245-0.036-0.393-0.176-0.428-0.421c-0.048-0.332-0.251-0.469-0.568-0.45c-0.336,0.021-0.641-0.009-0.895-0.28
			c-0.121-0.129-0.314-0.177-0.506-0.159c-0.02-0.451,0.243-0.831,0.318-1.257c0.131-0.731,0.439-1.414,0.58-2.142
			c0.023-0.121,0.081-0.242,0.199-0.314c0.105,0.02,0.222,0.019,0.316,0.062c1.441,0.66,2.792,1.47,4.043,2.446
			c1.006,0.785,1.905,1.684,2.762,2.622c0.521,0.569,1.03,1.161,1.383,1.862c-0.231,0.118-0.221,0.281-0.129,0.5
			c0.171,0.408,0.119,0.502-0.288,0.696c-0.877,0.418-1.757,0.832-2.63,1.259c-0.373,0.183-0.73,0.398-1.095,0.6
			c-0.142,0.002-0.214,0.076-0.222,0.216C74.56,34.846,74.126,35.177,73.798,35.649z"/>
		<path fill-rule="evenodd" clip-rule="evenodd" fill="#F7AE2D" d="M69.87,28.121c0.191-0.018,0.385,0.03,0.506,0.159
			c0.254,0.271,0.559,0.3,0.895,0.28c0.317-0.02,0.521,0.118,0.568,0.45c0.035,0.246,0.183,0.385,0.428,0.421
			c0.334,0.049,0.452,0.26,0.444,0.575c-0.006,0.218,0.001,0.436-0.001,0.654c-0.002,0.272,0.129,0.43,0.39,0.516
			c0.458,0.152,0.474,0.184,0.482,0.646c0.004,0.164,0.002,0.327,0.001,0.49c-0.004,0.47-0.005,0.47-0.453,0.633
			c-0.293,0.106-0.324,0.172-0.201,0.468c0.027,0.065,0.109,0.141,0.068,0.194c-0.22,0.281-0.215,0.655-0.375,0.938
			c-0.147,0.261-0.354,0.484-0.421,0.795c-0.028,0.132-0.143,0.191-0.287,0.207c-0.179,0.019-0.353,0.089-0.53,0.1
			c-0.226,0.013-0.361,0.085-0.438,0.318c-0.103,0.31-0.377,0.428-0.684,0.448c-0.184,0.012-0.386,0-0.512,0.139
			c-0.464,0.505-1.055,0.244-1.594,0.287c-0.061,0.005-0.142-0.048-0.188-0.098c-0.29-0.312-0.659-0.339-1.052-0.328
			c-0.251,0.008-0.503,0.027-0.757-0.046c-0.284-0.082-0.466-0.249-0.428-0.539c0.064-0.487-0.251-0.75-0.569-0.975
			c-0.278-0.196-0.46-0.385-0.432-0.743c0.014-0.178-0.127-0.34-0.099-0.529c0.381,0,0.765,0.025,1.144-0.008
			c0.469-0.042,0.918-0.171,1.257-0.537c0.072-0.038,0.145-0.076,0.218-0.113c0.144-0.058,0.216-0.166,0.225-0.319
			c0.034-0.001,0.068-0.003,0.103-0.006c0.356-0.028,0.325-0.298,0.337-0.541c0.421,0.001,0.543-0.375,0.639-0.637
			c0.154-0.42,0.405-0.783,0.573-1.194C69.408,29.535,69.673,28.841,69.87,28.121z"/>
		<path fill-rule="evenodd" clip-rule="evenodd" fill="#F6A320" d="M61.574,32.488c-0.005,0.109,0.025,0.239-0.023,0.322
			c-0.291,0.503-0.203,1.058-0.052,1.528c0.141,0.441,0.292,0.859,0.334,1.328c0.022,0.245,0.316,0.382,0.487,0.568
			c0.171,0.185,0.389,0.337,0.354,0.641c-0.007,0.062,0.027,0.168,0.074,0.193c0.354,0.187,0.5,0.567,0.784,0.817
			c0.097,0.085,0.194,0.181,0.33,0.165c0.314-0.038,0.485,0.12,0.661,0.366c0.219,0.308,0.487,0.604,0.944,0.516
			c0.034-0.007,0.072,0.01,0.108,0.007c0.423-0.041,0.63,0.566,1.079,0.385c0.415-0.167,0.791,0.013,1.172,0.079
			c0.491,0.084,0.967,0.108,1.452,0c0.14-0.031,0.288-0.036,0.432-0.035c0.728,0.008,1.439-0.073,2.125-0.33
			c0.013,0.626-0.066,1.263,0.221,1.856c-0.247,0.374-0.33,0.419-0.681,0.228c-0.186-0.101-0.326-0.136-0.49,0.006
			c-0.086,0.076-0.194,0.101-0.306,0.091c-0.394-0.032-0.758,0.002-1.026,0.354c-0.081,0.107-0.231,0.085-0.359,0.085
			c-0.309,0-0.617-0.004-0.927,0.001c-0.191,0.003-0.353-0.031-0.472-0.206c-0.137-0.199-0.352-0.236-0.579-0.233
			c-0.291,0.004-0.582,0-0.872,0.001c-0.307,0-0.628,0.049-0.813-0.295c-0.022-0.041-0.092-0.083-0.138-0.08
			c-0.458,0.029-0.681-0.345-0.982-0.576c-0.218-0.168-0.417-0.349-0.709-0.369c-0.118-0.008-0.199-0.084-0.258-0.18
			c-0.072-0.116-0.183-0.205-0.304-0.213c-0.692-0.046-0.904-0.699-1.353-1.05c-0.026-0.021-0.051-0.063-0.05-0.095
			c0.011-0.522-0.42-0.754-0.706-1.082c-0.047-0.054-0.122-0.104-0.132-0.166c-0.063-0.36-0.297-0.633-0.446-0.944
			c-0.135-0.283-0.2-0.594-0.439-0.829c-0.055-0.054-0.073-0.169-0.071-0.255c0.01-0.384,0.022-0.757-0.346-1.02
			c-0.099-0.071-0.097-0.228-0.097-0.358c0.002-0.527,0-1.054,0.001-1.581c0-0.255,0.088-0.461,0.336-0.572
			c0.141-0.062,0.312-0.102,0.41,0.015C60.607,32.005,61.219,32.06,61.574,32.488z"/>
		<path fill-rule="evenodd" clip-rule="evenodd" fill="#F6A320" d="M63.429,41.332c0.001-0.073-0.001-0.146,0.004-0.218
			c0.011-0.131,0.039-0.283,0.2-0.269c0.145,0.013,0.269,0.137,0.282,0.282c0.014,0.161-0.137,0.189-0.269,0.2
			C63.574,41.333,63.501,41.331,63.429,41.332L63.429,41.332z"/>
		<path fill-rule="evenodd" clip-rule="evenodd" fill="#F6A320" d="M62.229,32.815c-0.257,0.146-0.292,0.123-0.328-0.218
			C62.017,32.662,62.153,32.693,62.229,32.815z"/>
		<path fill-rule="evenodd" clip-rule="evenodd" fill="#F39B19" d="M64.896,43.334c0.017-0.04,0.022-0.085,0.041-0.092
			c0.053-0.019,0.099,0.016,0.107,0.066c0.004,0.023,0.088,0.101-0.026,0.088C64.976,43.392,64.937,43.355,64.896,43.334z"/>
		<path fill-rule="evenodd" clip-rule="evenodd" fill="#F08C08" d="M48.245,37.081c-0.026-1.144,0.122-2.271,0.332-3.393
			c0.013-0.07,0.004-0.145,0.006-0.218c0.218-0.739,0.445-1.475,0.646-2.219c0.042-0.157,0.085-0.31,0.145-0.461
			c0.139-0.353,0.373-0.645,0.593-0.946c-0.191-0.425,0.192-0.705,0.274-1.062c0.102-0.451,0.561-0.702,0.705-1.142
			c0.012-0.039,0.126-0.057,0.195-0.062c0.171-0.011,0.288-0.045,0.211-0.26c-0.105-0.292,0.255-0.371,0.286-0.603
			c0.335-0.084,0.539-0.407,0.878-0.482c-0.005,0.072,0.018,0.165-0.019,0.214c-0.433,0.588-0.583,1.324-1.011,1.918
			c-0.132,0.184-0.183,0.43-0.176,0.675c0.009,0.29-0.005,0.582,0.004,0.872c0.013,0.387-0.008,0.75-0.268,1.081
			c-0.115,0.146-0.167,0.361-0.168,0.565c-0.002,0.509-0.01,1.018,0.004,1.526c0.006,0.235,0.051,0.475,0.262,0.628
			c0.174,0.127,0.169,0.306,0.169,0.489c-0.001,0.455,0,0.909,0,1.363c0,0.296,0.032,0.583,0.287,0.783
			c0.171,0.134,0.148,0.318,0.15,0.498c0.002,0.313,0.029,0.616,0.305,0.83c0.151,0.117,0.132,0.288,0.132,0.451
			c0,0.333,0.023,0.652,0.323,0.876c0.149,0.111,0.07,0.322,0.165,0.448c0.298,0.398,0.415,0.849,0.45,1.335
			c0.008,0.115,0.048,0.247,0.169,0.329c0.271,0.184,0.33,0.462,0.314,0.767c-0.777,0.291-1.555,0.579-2.355,0.804
			c-0.191,0.054-0.379,0.127-0.555,0.219c-0.309,0.16-0.64,0.256-0.967,0.359c-0.501,0.159-0.515,0.14-0.685-0.359
			c-0.351-1.029-0.53-2.094-0.698-3.165c-0.071-0.451-0.088-0.897-0.098-1.349c0-0.15-0.001-0.3-0.002-0.45
			C48.246,37.653,48.245,37.367,48.245,37.081z"/>
		<path fill-rule="evenodd" clip-rule="evenodd" fill="#F7BD69" d="M52.515,26.233c-0.339,0.075-0.543,0.398-0.878,0.482
			c0.155-0.472,0.509-0.81,0.808-1.184c0.146-0.183,0.284-0.078,0.403,0.05c0.118,0.126,0.145,0.258-0.029,0.353
			C52.685,26.006,52.627,26.145,52.515,26.233z"/>
		<path fill-rule="evenodd" clip-rule="evenodd" fill="#FBFBFB" d="M99.463,73.226c0.011,0.615-0.066,1.171-0.299,1.695
			c-0.297,0.672-0.781,1.08-1.553,1.071c-0.766-0.009-1.271-0.396-1.545-1.084c-0.398-0.998-0.438-2.022-0.095-3.04
			c0.28-0.83,0.884-1.21,1.751-1.184c0.725,0.021,1.176,0.425,1.466,1.044C99.416,72.215,99.483,72.737,99.463,73.226z"/>
		<path fill-rule="evenodd" clip-rule="evenodd" fill="#FBFBFB" d="M70.076,72.39c-0.47,0-0.94-0.001-1.41,0.001
			c-0.148,0-0.231-0.038-0.219-0.219c0.074-1.037,1.17-1.795,2.157-1.484c0.593,0.186,1.071,0.836,1.104,1.477
			c0.012,0.223-0.124,0.226-0.275,0.226C70.98,72.39,70.528,72.39,70.076,72.39z"/>
		<path fill-rule="evenodd" clip-rule="evenodd" fill="#FBFBFB" d="M40.507,72.368c0.122-1.102,0.852-1.811,1.755-1.759
			c0.887,0.051,1.493,0.77,1.464,1.759C42.665,72.368,41.604,72.368,40.507,72.368z"/>
		<path fill-rule="evenodd" clip-rule="evenodd" fill="#F8C372" d="M79.472,31.398c-0.353-0.701-0.862-1.293-1.383-1.862
			c-0.856-0.938-1.756-1.837-2.762-2.622c-1.251-0.976-2.602-1.786-4.043-2.446c-0.095-0.043-0.211-0.042-0.316-0.062
			c-0.022-0.182-0.013-0.358,0.036-0.539c0.335-1.242,0.664-2.486,0.995-3.729c0.023-0.088,0.05-0.175,0.078-0.261
			c0.075-0.23,0.201-0.307,0.453-0.217c1.542,0.55,3.028,1.194,4.401,2.111c1.167,0.78,2.273,1.624,3.245,2.631
			c1.394,1.444,2.567,3.052,3.432,4.873c0.116,0.246,0.215,0.5,0.318,0.752c0.085,0.207,0.014,0.344-0.187,0.438
			c-1.135,0.531-2.271,1.059-3.398,1.605c-0.244,0.118-0.36,0.005-0.509-0.148C79.682,31.766,79.712,31.489,79.472,31.398z"/>
		<path fill-rule="evenodd" clip-rule="evenodd" fill="#F49C19" d="M67.915,32.058c-0.012,0.243,0.02,0.512-0.337,0.541
			c0.001-0.108,0.003-0.217,0.005-0.325C67.693,32.201,67.805,32.129,67.915,32.058z"/>
		<path fill-rule="evenodd" clip-rule="evenodd" fill="#F39B19" d="M75.108,34.669c0.008-0.141,0.08-0.214,0.222-0.216
			C75.326,34.596,75.253,34.669,75.108,34.669z"/>
		<path fill-rule="evenodd" clip-rule="evenodd" fill="#F39B19" d="M76.422,40.348c-0.031-0.259-0.178-0.405-0.437-0.437
			c0-0.199,0.017-0.4-0.004-0.598c-0.047-0.448,0.151-0.791,0.495-1.022c0.354-0.239,0.718-0.467,1.146-0.587
			c0.799-0.223,1.596-0.443,2.421-0.543c0.477-0.058,0.955-0.093,1.429-0.185c0.371-0.072,0.477,0.035,0.513,0.427
			c0.021,0.215,0.041,0.401,0.305,0.433c0.009,0.11,0.018,0.219,0.027,0.329c-0.181-0.004-0.312,0.031-0.328,0.26
			c-0.043,0.623-0.304,1.135-0.759,1.574c-0.187,0.18-0.302,0.456-0.394,0.708c-0.133,0.362-0.401,0.613-0.678,0.831
			c-0.305,0.24-0.688,0.147-1.04,0.046c-0.719-0.207-1.354-0.593-1.998-0.955C76.895,40.501,76.67,40.404,76.422,40.348z"/>
		<path fill-rule="evenodd" clip-rule="evenodd" fill="#F7BD69" d="M82.316,38.165c-0.01-0.109-0.019-0.219-0.027-0.329
			c-0.056-0.237-0.106-0.474-0.166-0.71c-0.049-0.193-0.04-0.351,0.198-0.398c0.043-0.027,0.086-0.054,0.13-0.082
			c0.674,0.026,1.335-0.073,1.994-0.195c0.054-0.01,0.106-0.024,0.16-0.026c1.06-0.04,0.883-0.063,0.87,0.792
			c-0.028,1.96-0.225,3.899-0.877,5.766c-0.006,0.017-0.013,0.034-0.018,0.051c-0.293,0.994-0.179,0.862-1.173,0.534
			c-0.051-0.017-0.099-0.046-0.148-0.067c-0.545-0.229-0.54-0.229-0.449-0.79c0.028-0.178,0.056-0.364,0.032-0.54
			c-0.085-0.648-0.088-1.299-0.109-1.951c-0.004-0.104-0.062-0.206-0.095-0.309c0.004-0.036,0.001-0.072-0.009-0.107
			C82.624,39.239,82.48,38.7,82.316,38.165z"/>
		<path fill-rule="evenodd" clip-rule="evenodd" fill="#F6A320" d="M82.63,39.804c0.01,0.036,0.013,0.071,0.009,0.107
			c-0.015-0.024-0.032-0.048-0.043-0.074C82.594,39.831,82.618,39.815,82.63,39.804z"/>
		<path fill-rule="evenodd" clip-rule="evenodd" fill="#EC931D" d="M82.451,36.646c-0.044,0.027-0.087,0.055-0.13,0.082
			C82.349,36.676,82.393,36.649,82.451,36.646z"/>
		<path fill-rule="evenodd" clip-rule="evenodd" fill="#F8C372" d="M59.936,23.11c-0.175-0.013-0.352,0.023-0.476-0.178
			c-0.405-0.659-0.829-1.307-1.265-1.989c0.41-0.277,0.82-0.469,1.233-0.638c1.495-0.612,3.04-1.067,4.635-1.32
			c0.496-0.079,0.999-0.167,1.51-0.155c0.242,0.005,0.376,0.067,0.372,0.336c-0.02,1.105,0.158,2.204,0.112,3.311
			c-0.01,0.241-0.021,0.439-0.326,0.444c-0.257-0.057-0.517-0.037-0.776-0.033c-0.035-0.006-0.069-0.009-0.104-0.007
			c-0.872-0.19-1.751-0.1-2.629-0.068c-0.184-0.02-0.375-0.087-0.533,0.075c-0.223-0.011-0.446-0.021-0.667,0.027
			c-0.297,0.02-0.596,0.037-0.868,0.181C60.081,23.101,60.008,23.105,59.936,23.11z"/>
		<path fill-rule="evenodd" clip-rule="evenodd" fill="#F6A320" d="M61.021,22.915c0.221-0.048,0.444-0.038,0.667-0.027
			c0.201,0.138,0.392,0.21,0.533-0.075c0.878-0.032,1.757-0.123,2.629,0.068c0.031,0.059,0.066,0.068,0.104,0.007
			c0.259-0.004,0.519-0.023,0.776,0.033c0.344,0.221,0.342,0.559,0.322,0.911c-0.015,0.265-0.004,0.531-0.005,0.796
			c-0.108-0.006-0.218,0-0.323-0.02c-0.487-0.091-0.57-0.055-0.651,0.415c-0.041,0.235-0.129,0.358-0.372,0.371
			c-0.105,0.005-0.226,0.019-0.309,0.074c-0.452,0.298-1.039,0.388-1.363,0.886c-0.056,0.086-0.15,0.182-0.243,0.205
			c-0.33,0.078-0.357,0.311-0.339,0.581c-0.28-0.28-0.522-0.586-0.741-0.918c-0.416-0.633-0.86-1.248-1.303-1.862
			c-0.272-0.376-0.432-0.788-0.468-1.249c0.072-0.004,0.145-0.009,0.217-0.014C60.492,23.224,60.752,23.17,61.021,22.915z"/>
		<path fill-rule="evenodd" clip-rule="evenodd" fill="#F6A724" d="M62.447,27.139c-0.018-0.27,0.01-0.502,0.339-0.581
			c0.093-0.022,0.187-0.118,0.243-0.205c0.324-0.498,0.911-0.588,1.363-0.886c0.083-0.055,0.204-0.069,0.309-0.074
			c0.243-0.012,0.331-0.135,0.372-0.371c0.081-0.47,0.164-0.506,0.651-0.415c0.105,0.02,0.215,0.014,0.323,0.02
			c0.001,0.908-0.004,1.817,0.004,2.725c0.006,0.552-0.107,1.075-0.326,1.58c-0.245,0.563-0.717,0.746-1.284,0.516
			c-0.37-0.151-0.625-0.433-0.88-0.714c-0.206-0.227-0.38-0.481-0.568-0.724c0.152-0.375,0.147-0.385-0.219-0.436
			C62.601,27.479,62.457,27.359,62.447,27.139z"/>
		<path fill-rule="evenodd" clip-rule="evenodd" fill="#F6A320" d="M62.774,27.575c0.367,0.051,0.371,0.061,0.219,0.436
			C62.851,27.901,62.793,27.748,62.774,27.575z"/>
		<path fill-rule="evenodd" clip-rule="evenodd" fill="#F08C08" d="M60.605,48.541c-0.109,0.801-0.473,1.517-0.764,2.255
			c-0.364,0.926-0.746,1.846-1.118,2.769c-0.182,0.45-0.236,0.477-0.669,0.257c-1.054-0.533-2.009-1.211-2.937-1.942
			c-0.5-0.395-0.943-0.848-1.414-1.267c-0.384-0.342-0.72-0.761-1.077-1.146c-0.131-0.142-0.091-0.249,0.051-0.359
			c1.126-0.879,2.271-1.732,3.45-2.539c0.28-0.191,0.512-0.463,0.858-0.554c0.068,0.124,0.097,0.296,0.259,0.327
			c0.46,0.085,0.754,0.402,1.053,0.718c0.076,0.08,0.16,0.149,0.273,0.166c0.403,0.061,0.674,0.322,0.935,0.604
			c0.109,0.117,0.213,0.26,0.395,0.265C60.228,48.104,60.411,48.328,60.605,48.541z"/>
		<path fill-rule="evenodd" clip-rule="evenodd" fill="#F2930F" d="M60.605,48.541c-0.194-0.213-0.377-0.438-0.704-0.446
			c-0.182-0.005-0.286-0.147-0.395-0.265c-0.261-0.282-0.532-0.544-0.935-0.604c-0.113-0.017-0.198-0.086-0.273-0.166
			c-0.299-0.316-0.593-0.633-1.053-0.718c-0.163-0.03-0.191-0.203-0.259-0.327c0.698-0.574,1.455-1.058,2.245-1.492
			c0.358-0.197,0.741-0.267,1.149-0.252c0.283,0.01,0.499,0.141,0.639,0.349c0.224,0.333,0.398,0.714,0.329,1.122
			c-0.096,0.565-0.08,1.153-0.325,1.691C60.859,47.793,60.815,48.198,60.605,48.541z"/>
		<path fill-rule="evenodd" clip-rule="evenodd" fill="#F39B19" d="M48.246,37.939c0,0.15,0.001,0.3,0.002,0.45
			c-0.167-0.004-0.326-0.021-0.31-0.25C47.953,37.938,48.108,37.952,48.246,37.939z"/>
		<path fill-rule="evenodd" clip-rule="evenodd" fill="#F49C19" d="M67.476,32.604c-0.009,0.153-0.081,0.261-0.225,0.319
			c0.004-0.141,0.009-0.281,0.014-0.422C67.357,32.49,67.431,32.519,67.476,32.604z"/>
		<path fill-rule="evenodd" clip-rule="evenodd" fill="#F49C19" d="M61.794,40.457c-0.036,0.036-0.072,0.072-0.108,0.108
			C61.722,40.529,61.758,40.493,61.794,40.457z"/>
		<path fill-rule="evenodd" clip-rule="evenodd" fill="#EC931D" d="M61.021,22.915c-0.269,0.255-0.528,0.309-0.868,0.181
			C60.425,22.952,60.723,22.935,61.021,22.915z"/>
		<path fill-rule="evenodd" clip-rule="evenodd" fill="#EC931D" d="M62.221,22.813c-0.142,0.285-0.333,0.213-0.533,0.075
			C61.847,22.726,62.037,22.793,62.221,22.813z"/>
		<path fill-rule="evenodd" clip-rule="evenodd" fill="#EC931D" d="M64.955,22.888c-0.039,0.061-0.073,0.052-0.104-0.007
			C64.885,22.879,64.92,22.881,64.955,22.888z"/>
	</g>
</g>
</svg>
