<?xml version="1.0" encoding="utf-8"?>
<!-- Generator: Adobe Illustrator 16.0.0, SVG Export Plug-In . SVG Version: 6.00 Build 0)  -->
<!DOCTYPE svg PUBLIC "-//W3C//DTD SVG 1.1//EN" "http://www.w3.org/Graphics/SVG/1.1/DTD/svg11.dtd">
<svg version="1.1" id="Calque_1" xmlns="http://www.w3.org/2000/svg" xmlns:xlink="http://www.w3.org/1999/xlink" x="0px" y="0px"
	 width="160.667px" height="215.833px" viewBox="0 0 160.667 215.833" enable-background="new 0 0 160.667 215.833"
	 xml:space="preserve">
<circle fill="#FA5F5C" cx="81.237" cy="24.044" r="19.499"/>
<circle fill="#FA5F5C" stroke="#FFFFFF" stroke-width="3" stroke-miterlimit="10" cx="80.761" cy="26.064" r="10.055"/>
<rect x="79.033" y="10.469" fill="#FFFFFF" stroke="#FA5F5C" stroke-miterlimit="10" width="3.783" height="14.207"/>
<g>
	<path d="M159.005,172.744c0,0.924-0.75,1.674-1.676,1.674H3.171c-0.925,0-1.675-0.75-1.675-1.674V70.193
		c0-0.925,0.75-1.675,1.675-1.675h154.161c0.924,0,1.674,0.75,1.674,1.675V172.744L159.005,172.744z"/>
	<circle fill="#FA5F5C" cx="151.095" cy="167.671" r="1.151"/>
	<path fill="#FFFFFF" d="M147.173,167.923c0,0.49-0.397,0.889-0.889,0.889h-3.988c-0.489,0-0.887-0.398-0.887-0.889l0,0
		c0-0.488,0.396-0.885,0.887-0.885h3.988C146.776,167.039,147.173,167.435,147.173,167.923L147.173,167.923z"/>
	<path fill="#FFFFFF" d="M140.434,167.923c0,0.49-0.396,0.889-0.886,0.889h-3.989c-0.49,0-0.888-0.398-0.888-0.889l0,0
		c0-0.488,0.396-0.885,0.888-0.885h3.989C140.039,167.039,140.434,167.435,140.434,167.923L140.434,167.923z"/>
</g>
<rect x="5.833" y="180.833" fill="#152435" width="149" height="28"/>
<rect x="5.833" y="189.833" fill="none" width="148.5" height="60"/>
<text transform="matrix(1 0 0 1 56.2939 198.9058)" fill="#FFFFFF" font-family="'Avenir-Roman'" font-size="12">Écran TV</text>
</svg>
