<?xml version="1.0" encoding="utf-8"?>
<!-- Generator: Adobe Illustrator 16.0.0, SVG Export Plug-In . SVG Version: 6.00 Build 0)  -->
<!DOCTYPE svg PUBLIC "-//W3C//DTD SVG 1.1//EN" "http://www.w3.org/Graphics/SVG/1.1/DTD/svg11.dtd">
<svg version="1.1" id="Calque_1" xmlns="http://www.w3.org/2000/svg" xmlns:xlink="http://www.w3.org/1999/xlink" x="0px" y="0px"
	 width="161.333px" height="212.167px" viewBox="0 0 161.333 212.167" enable-background="new 0 0 161.333 212.167"
	 xml:space="preserve">
<circle fill="#33C74D" cx="81.904" cy="22.044" r="19.499"/>
<circle fill="#33C74D" stroke="#FFFFFF" stroke-width="3" stroke-miterlimit="10" cx="81.426" cy="24.064" r="10.055"/>
<rect x="79.699" y="8.469" fill="#FFFFFF" stroke="#33C74D" stroke-miterlimit="10" width="3.783" height="14.207"/>
<g>
	<path d="M159.672,170.743c0,0.926-0.75,1.676-1.676,1.676H3.837c-0.925,0-1.675-0.75-1.675-1.676V68.193
		c0-0.925,0.75-1.675,1.675-1.675h154.16c0.926,0,1.676,0.75,1.676,1.675V170.743L159.672,170.743z"/>
	<circle fill="#33C74D" cx="151.762" cy="165.671" r="1.151"/>
	<path fill="#FFFFFF" d="M147.84,165.924c0,0.488-0.397,0.888-0.889,0.888h-3.988c-0.489,0-0.887-0.397-0.887-0.888l0,0
		c0-0.489,0.396-0.887,0.887-0.887h3.988C147.442,165.038,147.84,165.435,147.84,165.924L147.84,165.924z"/>
	<path fill="#FFFFFF" d="M141.101,165.924c0,0.488-0.396,0.888-0.886,0.888h-3.989c-0.49,0-0.888-0.397-0.888-0.888l0,0
		c0-0.489,0.396-0.887,0.888-0.887h3.989C140.704,165.038,141.101,165.435,141.101,165.924L141.101,165.924z"/>
</g>
<rect x="12" y="76" fill="#FFFFFF" width="138" height="79"/>
<rect x="5.833" y="180.833" fill="#152435" width="149" height="28"/>
<rect x="5.833" y="189.833" fill="none" width="148.5" height="60"/>
<text transform="matrix(1 0 0 1 56.2939 198.9058)" fill="#FFFFFF" font-family="'Avenir-Roman'" font-size="12">Écran TV</text>
</svg>
