<?xml version="1.0" encoding="utf-8"?>
<!-- Generator: Adobe Illustrator 16.0.0, SVG Export Plug-In . SVG Version: 6.00 Build 0)  -->
<!DOCTYPE svg PUBLIC "-//W3C//DTD SVG 1.1//EN" "http://www.w3.org/Graphics/SVG/1.1/DTD/svg11.dtd">
<svg version="1.1" id="Calque_1" xmlns="http://www.w3.org/2000/svg" xmlns:xlink="http://www.w3.org/1999/xlink" x="0px" y="0px"
	 width="53.333px" height="49px" viewBox="0 0 53.333 49" enable-background="new 0 0 53.333 49" xml:space="preserve">
<path fill="#FFFFFF" d="M52.333,36.332c0,6.627-5.373,12-12,12h-27c-6.627,0-12-5.373-12-12v-23c0-6.627,5.373-12,12-12h27
	c6.627,0,12,5.373,12,12V36.332z"/>
<path fill="#152435" d="M27.833,20.457c-3.875-0.125-13.25-3.875-16.375-8c0,0-3,3.875,1.5,9.5c0,0-1.125,1-3.125,0.75
	c0,0,0.5,4.875,6,6.5c0,0-2.125,1.125-3.5,0.5c0,0,1.25,4.625,7.25,4.875c0,0-0.5,3.875-10.875,3.75c0,0,5.125,7.875,21.75,1.625
	s13-21.375,12.875-22.125c0,0,3.875-2.75,4.5-3.625s-2.875,0.375-3.75,0.625s-0.875,0.25-0.875,0.25s3.125-3.5,3.5-4.375
	c0,0-3.375,2.25-5,1.5s-3.75-2.625-6.625-2.25s-5.625,1.875-6.875,4.375S27.833,20.457,27.833,20.457z"/>
</svg>
