<?xml version="1.0" encoding="utf-8"?>
<!-- Generator: Adobe Illustrator 16.0.0, SVG Export Plug-In . SVG Version: 6.00 Build 0)  -->
<!DOCTYPE svg PUBLIC "-//W3C//DTD SVG 1.1//EN" "http://www.w3.org/Graphics/SVG/1.1/DTD/svg11.dtd">
<svg version="1.1" id="Calque_1" xmlns="http://www.w3.org/2000/svg" xmlns:xlink="http://www.w3.org/1999/xlink" x="0px" y="0px"
	 width="143.667px" height="34.668px" viewBox="0 0 143.667 34.668" enable-background="new 0 0 143.667 34.668"
	 xml:space="preserve">
<g>
	<g>
		<path fill="#FDFDFD" d="M71.869,34.586c-23.849,0-47.698,0-71.547,0.006c-0.217,0-0.266-0.049-0.266-0.266
			C0.062,23,0.062,11.673,0.056,0.347c0-0.217,0.049-0.266,0.266-0.266c47.698,0.005,95.396,0.005,143.094,0
			c0.218,0,0.267,0.049,0.267,0.266c-0.007,11.326-0.007,22.652,0,33.979c0,0.217-0.049,0.266-0.267,0.266
			C119.567,34.586,95.718,34.586,71.869,34.586z M91.134,9.139c0.016,1.22,0.023,2.443,0.001,3.668
			c-0.052,2.921-0.063,5.843-0.101,8.765c-0.003,0.248,0.079,0.305,0.313,0.302c1.1-0.011,2.199-0.015,3.299,0.002
			c0.283,0.004,0.373-0.057,0.372-0.36c-0.012-3.435-0.008-6.869-0.008-10.303c0-2.103-0.004-4.206,0.006-6.309
			c0.001-0.255-0.07-0.324-0.326-0.322c-1.659,0.012-3.318,0.01-4.978,0.001c-0.213-0.001-0.305,0.066-0.36,0.269
			c-0.176,0.641-0.369,1.276-0.557,1.913c-0.423,1.43-0.849,2.859-1.27,4.29c-0.351,1.191-0.694,2.384-1.044,3.574
			c-0.118,0.4-0.247,0.796-0.396,1.274c-0.056-0.162-0.087-0.239-0.109-0.318c-0.153-0.536-0.301-1.074-0.459-1.609
			c-0.387-1.31-0.782-2.618-1.169-3.928c-0.509-1.726-1.017-3.452-1.511-5.182c-0.067-0.236-0.178-0.286-0.406-0.284
			c-1.61,0.01-3.222,0.007-4.833,0.005c-0.427,0-0.427-0.005-0.427,0.425c0,2.557,0,5.113,0,7.669c0,2.961,0.001,5.923-0.002,8.885
			c0,0.177-0.009,0.311,0.246,0.309c1.167-0.012,2.334-0.009,3.502-0.001c0.203,0.001,0.242-0.086,0.235-0.261
			c-0.019-0.414-0.031-0.828-0.035-1.243c-0.026-2.844-0.051-5.689-0.072-8.533c-0.007-0.885-0.001-1.77-0.001-2.654
			c0.211,0.607,0.389,1.222,0.562,1.838c0.671,2.381,1.343,4.762,2.012,7.144c0.32,1.14,0.632,2.28,0.952,3.42
			c0.036,0.128,0.036,0.289,0.252,0.287c0.858-0.007,1.717-0.003,2.575-0.001c0.109,0,0.162-0.028,0.196-0.151
			c0.294-1.065,0.604-2.127,0.902-3.191c0.481-1.724,0.954-3.45,1.438-5.172C90.33,11.947,90.734,10.543,91.134,9.139z M17.3,10.951
			c0.122,0.145,0.161,0.27,0.19,0.403c0.368,1.633,0.738,3.265,1.111,4.896c0.402,1.763,0.813,3.522,1.21,5.286
			c0.054,0.24,0.132,0.346,0.409,0.341c1.061-0.021,2.122-0.017,3.183-0.003c0.247,0.004,0.35-0.068,0.411-0.312
			c0.371-1.482,0.756-2.962,1.142-4.44c0.573-2.197,1.151-4.393,1.726-6.589c0.268-1.024,0.537-2.049,0.8-3.075
			c0.227-0.885,0.443-1.771,0.672-2.656c0.053-0.204-0.003-0.24-0.208-0.235c-1.282,0.028-2.565,0.041-3.847-0.006
			c-0.217-0.008-0.31,0.059-0.351,0.273c-0.183,0.954-0.378,1.906-0.572,2.859c-0.322,1.583-0.646,3.167-0.969,4.75
			c-0.227,1.111-0.456,2.222-0.694,3.381c-0.039-0.15-0.068-0.25-0.09-0.351c-0.335-1.541-0.667-3.083-1.004-4.623
			c-0.439-2.001-0.886-4.001-1.321-6.003c-0.045-0.209-0.133-0.271-0.345-0.268c-0.926,0.012-1.853,0.012-2.778,0
			c-0.214-0.002-0.3,0.06-0.346,0.275c-0.274,1.279-0.566,2.555-0.852,3.831c-0.439,1.961-0.877,3.922-1.318,5.883
			c-0.082,0.365-0.124,0.742-0.287,1.148c-0.386-1.92-0.759-3.777-1.131-5.635c-0.351-1.754-0.702-3.509-1.048-5.265
			c-0.033-0.169-0.104-0.24-0.287-0.239C9.404,4.587,8.101,4.588,6.799,4.582C6.597,4.581,6.528,4.611,6.591,4.838
			c0.157,0.564,0.282,1.138,0.426,1.706c0.96,3.792,1.922,7.583,2.882,11.375c0.312,1.232,0.621,2.467,0.927,3.701
			c0.038,0.153,0.079,0.254,0.276,0.252c1.167-0.01,2.334-0.007,3.502-0.005c0.137,0,0.206-0.04,0.232-0.187
			c0.052-0.292,0.126-0.581,0.193-0.872c0.569-2.475,1.139-4.95,1.708-7.425C16.921,12.589,17.105,11.795,17.3,10.951z
			 M130.951,15.382c-0.695-1.148-1.366-2.257-2.039-3.366c-1.456-2.4-2.915-4.799-4.365-7.203c-0.103-0.17-0.207-0.235-0.407-0.233
			c-1.042,0.011-2.084,0.015-3.125,0c-0.251-0.003-0.331,0.052-0.33,0.314c0.007,5.556,0.007,11.112,0,16.668
			c0,0.236,0.06,0.314,0.304,0.312c1.167-0.012,2.335-0.015,3.501,0.002c0.293,0.005,0.354-0.095,0.342-0.363
			c-0.05-1.049-0.033-2.101-0.061-3.15c-0.052-2.034-0.062-4.068-0.087-6.103c-0.003-0.245-0.079-0.49-0.015-0.734
			c0.091-0.008,0.105,0.055,0.134,0.102c0.618,0.996,1.236,1.993,1.854,2.988c0.736,1.184,1.472,2.367,2.209,3.55
			c0.723,1.159,1.453,2.314,2.167,3.479c0.099,0.162,0.195,0.226,0.379,0.225c1.081-0.006,2.161-0.009,3.241,0.005
			c0.247,0.003,0.303-0.081,0.303-0.315c-0.006-5.556-0.006-11.112,0-16.667c0-0.24-0.067-0.312-0.31-0.31
			c-1.186,0.009-2.372,0.005-3.559-0.006c-0.22-0.002-0.277,0.075-0.271,0.286c0.022,0.819,0.023,1.638,0.044,2.457
			c0.047,1.947,0.065,3.895,0.089,5.843C130.958,13.881,130.951,14.602,130.951,15.382z M49.388,13.226
			c0,2.729-0.001,5.459,0.001,8.188c0,0.492-0.081,0.453,0.44,0.453c2.083,0.002,4.167-0.002,6.25,0.003
			c0.726,0.002,1.44-0.065,2.145-0.245c2.249-0.575,3.859-1.927,4.861-4.007c0.537-1.114,0.802-2.298,0.9-3.532
			c0.121-1.521-0.009-3.01-0.552-4.432c-1.002-2.626-2.857-4.308-5.646-4.885c-1.026-0.212-2.07-0.183-3.11-0.183
			c-1.63,0-3.26,0.002-4.89-0.001c-0.4,0-0.4-0.008-0.4,0.395C49.388,7.728,49.388,10.477,49.388,13.226z M110.793,21.864
			c0,0.002,0,0.004,0,0.006c0.694,0,1.389-0.008,2.083,0.004c0.255,0.004,0.314-0.044,0.212-0.304
			c-0.698-1.762-1.382-3.529-2.068-5.295c-0.899-2.313-1.799-4.627-2.697-6.941c-0.579-1.489-1.165-2.976-1.728-4.471
			c-0.091-0.239-0.212-0.296-0.441-0.292c-0.945,0.012-1.89,0.02-2.834,0.005c-0.208-0.003-0.307,0.037-0.385,0.238
			c-0.535,1.391-1.085,2.775-1.628,4.163c-0.732,1.873-1.462,3.747-2.193,5.62c-0.914,2.339-1.827,4.678-2.749,7.014
			c-0.083,0.208-0.06,0.263,0.169,0.262c1.389-0.009,2.777-0.009,4.166-0.005c0.171,0,0.252-0.057,0.307-0.222
			c0.227-0.675,0.478-1.342,0.7-2.019c0.067-0.202,0.171-0.26,0.375-0.26c1.784,0.007,3.568,0.007,5.353,0
			c0.186,0,0.273,0.058,0.328,0.237c0.208,0.682,0.439,1.355,0.644,2.038c0.053,0.174,0.135,0.226,0.305,0.224
			C109.405,21.86,110.099,21.864,110.793,21.864z M65.838,13.214c0,2.778,0,5.557-0.001,8.334c0,0.182-0.022,0.328,0.256,0.327
			c2.961-0.01,5.922-0.009,8.884-0.003c0.218,0.001,0.275-0.071,0.273-0.284c-0.01-1.09-0.013-2.18,0.001-3.27
			c0.004-0.266-0.072-0.344-0.341-0.342c-1.533,0.012-3.067-0.002-4.601,0.013c-0.276,0.003-0.333-0.085-0.328-0.34
			c0.016-0.771,0.02-1.543-0.001-2.315c-0.007-0.271,0.087-0.312,0.328-0.31c1.485,0.01,2.971,0,4.456,0.011
			c0.246,0.002,0.332-0.049,0.329-0.314c-0.016-1.1-0.014-2.199-0.002-3.299c0.003-0.23-0.063-0.289-0.29-0.287
			c-1.514,0.01-3.028,0-4.543,0.01c-0.211,0.001-0.281-0.046-0.277-0.269c0.015-0.704,0.015-1.409,0-2.112
			c-0.005-0.229,0.06-0.289,0.288-0.288c1.544,0.01,3.087-0.001,4.63,0.012c0.287,0.002,0.355-0.09,0.352-0.362
			c-0.015-1.013-0.006-2.026-0.006-3.039c0-0.502,0-0.501-0.49-0.501c-2.873-0.002-5.747,0-8.621-0.014
			c-0.26-0.001-0.301,0.08-0.301,0.308C65.84,7.658,65.838,10.437,65.838,13.214z M29.449,13.228c0,2.778,0,5.557-0.001,8.335
			c0,0.172-0.017,0.312,0.242,0.312c2.971-0.01,5.942-0.011,8.914-0.005c0.222,0,0.245-0.093,0.244-0.276
			c-0.006-1.109-0.009-2.219,0.002-3.328c0.002-0.227-0.058-0.289-0.292-0.288c-1.562,0.012-3.125,0.002-4.688,0.012
			c-0.228,0.001-0.294-0.057-0.29-0.291c0.015-0.791,0.016-1.582-0.001-2.373c-0.005-0.252,0.079-0.302,0.311-0.301
			c1.495,0.01,2.991-0.001,4.486,0.011c0.259,0.002,0.325-0.076,0.322-0.328c-0.013-1.08-0.016-2.161,0.001-3.241
			c0.004-0.279-0.089-0.333-0.346-0.331c-1.495,0.011-2.991-0.001-4.486,0.011c-0.237,0.002-0.293-0.071-0.29-0.292
			c0.011-0.694,0.011-1.389,0-2.083c-0.003-0.218,0.047-0.296,0.288-0.294c1.543,0.012,3.087-0.001,4.63,0.011
			c0.271,0.002,0.362-0.054,0.357-0.344c-0.019-1.071-0.016-2.142-0.001-3.212c0.004-0.272-0.059-0.355-0.347-0.354
			c-2.875,0.012-5.75,0.008-8.625,0.007c-0.431,0-0.431-0.004-0.431,0.423C29.449,7.749,29.449,10.488,29.449,13.228z
			 M114.438,13.224c0,2.787,0.003,5.574-0.005,8.36c0,0.228,0.061,0.292,0.29,0.29c1.243-0.011,2.487-0.009,3.731-0.001
			c0.223,0.002,0.294-0.061,0.293-0.293c-0.006-5.563-0.006-11.127,0-16.69c0.001-0.244-0.074-0.31-0.312-0.308
			c-1.225,0.011-2.449,0.014-3.674-0.002c-0.277-0.004-0.329,0.089-0.329,0.342C114.441,7.689,114.438,10.457,114.438,13.224z
			 M85.75,29.666c0.072,0.523,0.327,0.91,0.782,1.129c0.961,0.46,1.902,0.403,2.792-0.193c0.435-0.293,0.657-0.719,0.657-1.249
			c0.001-1.272-0.002-2.545,0.002-3.817c0.001-0.146-0.032-0.209-0.191-0.199c-0.211,0.013-0.426,0.018-0.636-0.001
			c-0.219-0.021-0.353,0.024-0.288,0.344c-0.251-0.229-0.475-0.364-0.741-0.424c-0.879-0.197-1.761,0.194-2.183,0.976
			c-0.465,0.86-0.321,2.007,0.332,2.653c0.709,0.701,1.608,0.734,2.499,0.092c0.04,0.127-0.01,0.247-0.034,0.364
			c-0.075,0.359-0.284,0.607-0.647,0.695c-0.35,0.085-0.673,0.043-0.908-0.269c-0.05-0.065-0.101-0.104-0.188-0.103
			C86.583,29.667,86.169,29.666,85.75,29.666z M14.829,25.961C14.829,25.961,14.83,25.961,14.829,25.961
			c0.001-0.598-0.003-1.195,0.004-1.794c0.001-0.137-0.032-0.182-0.174-0.177c-0.318,0.011-0.637,0.016-0.955-0.003
			c-0.188-0.011-0.219,0.057-0.217,0.228c0.008,0.974,0.005,1.948,0.003,2.922c0,0.192,0.002,0.385-0.042,0.575
			c-0.084,0.364-0.251,0.513-0.614,0.521c-0.364,0.01-0.586-0.156-0.666-0.509c-0.052-0.227-0.061-0.458-0.06-0.69
			c0.002-0.936-0.004-1.871,0.005-2.807c0.001-0.186-0.042-0.252-0.237-0.239c-0.288,0.018-0.579,0.014-0.868,0.001
			c-0.176-0.007-0.247,0.026-0.244,0.229c0.011,1.108,0.001,2.218,0.007,3.327c0.001,0.33,0.056,0.652,0.228,0.943
			c0.436,0.739,1.294,1.085,2.26,0.909c0.962-0.175,1.544-0.843,1.566-1.816C14.839,27.042,14.829,26.502,14.829,25.961z
			 M124.311,25.735c-0.788-0.8-1.923-0.568-2.484-0.084c-0.789,0.68-0.971,2.048-0.398,2.936c0.305,0.473,0.742,0.749,1.294,0.832
			c0.555,0.083,1.059-0.044,1.504-0.472c0,0.543,0.007,1.023-0.003,1.505c-0.004,0.153,0.041,0.198,0.193,0.19
			c0.25-0.014,0.502-0.021,0.751,0.001c0.223,0.019,0.269-0.061,0.267-0.273c-0.009-1.58-0.01-3.161,0.002-4.742
			c0.002-0.248-0.076-0.318-0.309-0.291c-0.152,0.018-0.309,0.013-0.462-0.001C124.418,25.315,124.216,25.332,124.311,25.735z
			 M102.867,25.618c-0.994-0.63-1.99-0.517-2.654,0.281c-0.669,0.805-0.627,2.178,0.091,2.953c0.666,0.721,1.676,0.772,2.622,0.115
			c-0.089,0.363,0.131,0.354,0.367,0.341c0.173-0.01,0.348-0.013,0.52,0.001c0.17,0.014,0.239-0.03,0.238-0.218
			c-0.006-1.638-0.005-3.275,0.002-4.913c0-0.163-0.061-0.193-0.204-0.188c-0.26,0.01-0.521,0.013-0.78-0.001
			c-0.166-0.01-0.209,0.047-0.205,0.208C102.874,24.666,102.867,25.133,102.867,25.618z M112.649,25.719
			c0.106-0.383-0.082-0.404-0.327-0.384c-0.192,0.015-0.387,0.011-0.578,0c-0.149-0.008-0.198,0.038-0.198,0.193
			c0.006,1.639,0.006,3.278,0.001,4.917c0,0.146,0.031,0.205,0.191,0.195c0.249-0.015,0.502-0.021,0.751,0.001
			c0.224,0.02,0.276-0.061,0.27-0.272c-0.016-0.445-0.005-0.891-0.005-1.368c0.96,0.776,2.128,0.386,2.628-0.229
			c0.669-0.823,0.637-2.229-0.08-2.985C114.61,25.057,113.596,25.013,112.649,25.719z M49.888,29.001
			c0.918,0.635,1.951,0.547,2.592-0.186c0.708-0.808,0.689-2.229-0.041-3.031c-0.656-0.721-1.683-0.766-2.622-0.095
			c0.062-0.351-0.132-0.383-0.395-0.355c-0.181,0.019-0.367,0.014-0.549,0.001c-0.158-0.012-0.198,0.051-0.191,0.197
			c0.01,0.241,0.003,0.482,0.003,0.723c0,1.378,0.004,2.756-0.005,4.134c-0.001,0.204,0.053,0.269,0.255,0.253
			c0.23-0.019,0.463-0.018,0.693-0.001c0.195,0.015,0.271-0.034,0.264-0.247C49.877,29.945,49.888,29.494,49.888,29.001z
			 M79.472,25.689c-0.777-0.77-2.052-0.476-2.554-0.008c-0.786,0.733-0.919,2.093-0.285,2.985c0.328,0.463,0.793,0.696,1.341,0.755
			c0.532,0.058,1.047,0.005,1.532-0.496c-0.129,0.391,0.043,0.394,0.242,0.383c0.183-0.01,0.367-0.017,0.549,0.003
			c0.224,0.023,0.293-0.045,0.29-0.28c-0.015-0.944-0.006-1.889-0.007-2.834c-0.001-0.269,0.097-0.635-0.039-0.782
			c-0.156-0.17-0.526-0.037-0.802-0.057C79.542,25.343,79.39,25.365,79.472,25.689z M73.136,25.628c0-0.258,0.008-0.468-0.002-0.678
			c-0.014-0.313,0.139-0.746-0.06-0.908c-0.192-0.157-0.607-0.038-0.925-0.052c-0.144-0.006-0.199,0.025-0.198,0.187
			c0.007,1.649,0.006,3.299,0.001,4.948c0,0.146,0.029,0.206,0.188,0.198c0.26-0.014,0.522-0.018,0.781,0
			c0.188,0.014,0.221-0.058,0.218-0.228c-0.01-0.598-0.006-1.196-0.004-1.794c0-0.202,0.005-0.403,0.076-0.599
			c0.101-0.272,0.305-0.381,0.58-0.387c0.283-0.006,0.481,0.118,0.579,0.386c0.061,0.164,0.074,0.337,0.073,0.513
			c-0.002,0.637,0.004,1.273-0.004,1.909c-0.002,0.146,0.027,0.206,0.188,0.198c0.27-0.013,0.541-0.014,0.81,0.001
			c0.16,0.009,0.19-0.049,0.189-0.194c-0.006-0.839-0.001-1.678-0.005-2.518c-0.002-0.334-0.08-0.646-0.301-0.912
			C74.813,25.087,73.869,25.042,73.136,25.628z M24.021,28.058c-0.254,0-0.485,0.001-0.716-0.001
			c-0.269-0.002-0.504,0.019-0.745,0.21c-0.431,0.341-1.117,0.133-1.325-0.345c-0.075-0.172-0.051-0.23,0.153-0.228
			c0.829,0.01,1.659-0.007,2.489,0.01c0.244,0.005,0.31-0.077,0.314-0.304c0.021-1.168-0.873-2.169-1.97-2.192
			c-1.253-0.026-2.181,0.85-2.21,2.086c-0.024,1.047,0.707,1.931,1.756,2.125C22.701,29.592,23.686,29.008,24.021,28.058z
			 M33.159,28.058c-0.246,0-0.467,0.004-0.689-0.001c-0.28-0.007-0.522,0.022-0.772,0.212c-0.433,0.329-1.082,0.136-1.307-0.325
			c-0.088-0.18-0.078-0.251,0.15-0.248c0.839,0.009,1.678-0.006,2.517,0.009c0.226,0.004,0.281-0.077,0.278-0.278
			c-0.014-0.903-0.361-1.621-1.197-2.016c-0.78-0.368-1.55-0.289-2.217,0.272c-0.699,0.59-0.912,1.366-0.678,2.243
			c0.235,0.88,1.05,1.5,1.933,1.51C32.088,29.447,32.886,28.902,33.159,28.058z M134.588,28.058c-0.259,0-0.488,0.004-0.717-0.001
			c-0.27-0.006-0.504,0.019-0.745,0.206c-0.428,0.333-1.082,0.148-1.313-0.307c-0.098-0.19-0.085-0.265,0.159-0.262
			c0.829,0.011,1.658-0.006,2.487,0.011c0.237,0.004,0.289-0.079,0.294-0.295c0.03-1.24-0.906-2.213-2.133-2.202
			c-1.027,0.009-1.916,0.805-2.028,1.817c-0.122,1.107,0.52,2.092,1.528,2.346C133.169,29.635,134.174,29.114,134.588,28.058z
			 M45.966,28.058c-0.267,0-0.506,0.006-0.745-0.002c-0.263-0.009-0.485,0.03-0.713,0.208c-0.425,0.33-1.093,0.148-1.319-0.307
			c-0.095-0.19-0.081-0.267,0.162-0.263c0.839,0.011,1.679-0.004,2.518,0.01c0.211,0.003,0.256-0.073,0.261-0.263
			c0.03-1.196-0.837-2.191-1.957-2.233c-1.237-0.046-2.155,0.802-2.218,2.047c-0.051,1.019,0.654,1.929,1.658,2.139
			C44.613,29.603,45.583,29.066,45.966,28.058z M94.592,28.058c-0.267,0-0.506,0.007-0.744-0.002
			c-0.264-0.01-0.485,0.027-0.714,0.206c-0.423,0.332-1.095,0.152-1.32-0.303c-0.09-0.18-0.096-0.269,0.157-0.266
			c0.849,0.013,1.698,0.001,2.547,0.008c0.153,0.002,0.22-0.033,0.233-0.199c0.092-1.085-0.647-2.06-1.725-2.261
			c-1.077-0.202-2.106,0.458-2.38,1.525c-0.287,1.125,0.305,2.222,1.391,2.576C93.07,29.68,94.166,29.145,94.592,28.058z
			 M110.799,28.058c-0.267,0-0.506,0.007-0.744-0.002c-0.263-0.01-0.485,0.028-0.714,0.207c-0.425,0.331-1.094,0.151-1.32-0.305
			c-0.092-0.184-0.089-0.268,0.159-0.265c0.84,0.013,1.679-0.002,2.519,0.01c0.208,0.004,0.257-0.067,0.262-0.26
			c0.032-1.194-0.836-2.192-1.954-2.235c-1.236-0.047-2.156,0.8-2.22,2.045c-0.051,1.008,0.645,1.92,1.628,2.134
			C109.433,29.609,110.402,29.083,110.799,28.058z M53.49,27.315c0.001,1.242,0.885,2.119,2.138,2.12
			c1.248,0.002,2.147-0.886,2.146-2.117c-0.002-1.227-0.907-2.111-2.155-2.109C54.389,25.211,53.49,26.101,53.49,27.315z
			 M118.461,29.436c1.229,0.011,2.163-0.856,2.177-2.023c0.016-1.273-0.852-2.191-2.082-2.204c-1.275-0.013-2.192,0.854-2.203,2.084
			C116.343,28.536,117.216,29.424,118.461,29.436z M60.974,28.939c-0.082,0.342,0.059,0.396,0.297,0.371
			c0.162-0.019,0.329-0.021,0.491-0.003c0.245,0.029,0.331-0.038,0.325-0.308c-0.02-0.915-0.006-1.831-0.008-2.746
			c0-0.298,0.108-0.696-0.041-0.866c-0.169-0.192-0.579-0.031-0.88-0.066c-0.224-0.025-0.269,0.056-0.264,0.268
			c0.015,0.646,0.007,1.292,0.004,1.938c-0.001,0.278-0.053,0.543-0.312,0.705c-0.459,0.287-0.991,0.009-1.006-0.541
			c-0.019-0.722-0.012-1.445-0.008-2.168c0-0.14-0.019-0.209-0.184-0.201c-0.279,0.015-0.559,0.01-0.838,0.001
			c-0.128-0.004-0.165,0.045-0.164,0.167c0.006,0.877-0.01,1.754,0.018,2.631c0.02,0.61,0.367,1.018,0.934,1.228
			C59.932,29.568,60.525,29.431,60.974,28.939z M40.182,28.953c-0.076,0.356,0.106,0.38,0.346,0.357c0.172-0.017,0.348-0.018,0.52,0
			c0.208,0.021,0.256-0.061,0.254-0.259c-0.008-1.166-0.009-2.333,0.001-3.5c0.002-0.203-0.071-0.24-0.248-0.229
			c-0.221,0.013-0.445,0.021-0.665-0.002c-0.236-0.024-0.282,0.066-0.278,0.285c0.012,0.684,0.016,1.369-0.008,2.053
			c-0.016,0.442-0.294,0.682-0.705,0.67c-0.394-0.011-0.59-0.222-0.604-0.686c-0.014-0.452,0-0.906-0.011-1.359
			c-0.008-0.313,0.139-0.746-0.057-0.909c-0.189-0.158-0.605-0.044-0.922-0.049c-0.009,0-0.02,0.001-0.029,0
			c-0.142-0.022-0.176,0.04-0.175,0.178c0.008,0.849-0.004,1.697,0.012,2.545c0.012,0.621,0.317,1.074,0.905,1.278
			C39.112,29.533,39.69,29.524,40.182,28.953z M82.474,25.752c0.158-0.503-0.122-0.409-0.323-0.413
			c-0.193-0.004-0.387,0.006-0.578-0.004c-0.136-0.007-0.186,0.032-0.185,0.175c0.005,1.215,0.005,2.429-0.001,3.644
			c-0.001,0.153,0.062,0.171,0.188,0.168c0.27-0.007,0.54-0.012,0.81,0.001c0.161,0.008,0.22-0.039,0.213-0.207
			c-0.013-0.309-0.005-0.617-0.004-0.926c0.002-0.424-0.011-0.849,0.014-1.271c0.023-0.391,0.266-0.601,0.636-0.604
			c0.361-0.003,0.572,0.188,0.623,0.581c0.018,0.133,0.014,0.27,0.014,0.404c0.001,0.607,0.004,1.215-0.002,1.821
			c-0.001,0.136,0.013,0.212,0.183,0.202c0.278-0.016,0.559-0.009,0.838-0.002c0.126,0.003,0.165-0.041,0.164-0.166
			c-0.006-0.906,0.01-1.812-0.014-2.718c-0.015-0.559-0.334-0.935-0.852-1.122C83.589,25.096,83.027,25.167,82.474,25.752z
			 M16.94,25.681c0.073-0.39-0.171-0.356-0.41-0.345c-0.183,0.009-0.367,0.011-0.549-0.001c-0.145-0.009-0.178,0.049-0.177,0.183
			c0.004,1.215,0.004,2.43,0,3.645c0,0.132,0.043,0.163,0.166,0.159c0.26-0.008,0.522-0.02,0.78,0.003
			c0.23,0.02,0.269-0.07,0.265-0.277c-0.013-0.665-0.008-1.33-0.003-1.995c0.002-0.279,0.055-0.542,0.348-0.674
			c0.496-0.223,0.918,0.06,0.93,0.64c0.014,0.694,0.012,1.389,0.002,2.083c-0.002,0.179,0.042,0.234,0.225,0.222
			c0.249-0.019,0.501-0.014,0.751,0c0.16,0.008,0.214-0.033,0.212-0.204c-0.009-0.849-0.004-1.697-0.004-2.545
			c0-0.372-0.106-0.698-0.382-0.963C18.52,25.06,17.645,25.077,16.94,25.681z M128.875,28.938c-0.082,0.343,0.059,0.394,0.294,0.373
			c0.201-0.019,0.405-0.012,0.606-0.001c0.146,0.007,0.207-0.037,0.207-0.192c-0.003-1.215,0-2.429,0.005-3.643
			c0-0.108-0.031-0.155-0.147-0.152c-0.336,0.01-0.745-0.103-0.984,0.052c-0.188,0.122-0.037,0.573-0.055,0.877
			c-0.004,0.067,0,0.135-0.001,0.202c-0.003,0.414,0.014,0.83-0.017,1.242c-0.031,0.424-0.303,0.645-0.709,0.632
			c-0.381-0.012-0.583-0.226-0.596-0.664c-0.014-0.462-0.006-0.925-0.01-1.388c-0.003-0.307,0.109-0.731-0.046-0.89
			c-0.195-0.197-0.617-0.042-0.94-0.062c-0.01-0.001-0.02,0.001-0.029,0c-0.119-0.015-0.171,0.026-0.17,0.158
			c0.01,0.886-0.008,1.773,0.024,2.658c0.021,0.598,0.37,0.997,0.925,1.202C127.834,29.565,128.429,29.43,128.875,28.938z
			 M70.776,26.876c0-0.001,0-0.002,0-0.003c0.097,0,0.193,0,0.289,0c0.374,0.001,0.382-0.012,0.246-0.358
			c-0.385-0.979-1.483-1.507-2.573-1.237c-0.988,0.244-1.653,1.245-1.522,2.29c0.124,0.987,0.875,1.743,1.851,1.861
			c0.985,0.119,1.949-0.465,2.276-1.364c0.071-0.198,0.058-0.279-0.178-0.263c-0.23,0.017-0.463,0.015-0.693,0
			c-0.179-0.011-0.297,0.043-0.416,0.186c-0.362,0.438-0.978,0.459-1.377,0.067c-0.396-0.387-0.357-1.164,0.075-1.531
			c0.403-0.342,1.03-0.266,1.348,0.187c0.091,0.13,0.18,0.179,0.328,0.168C70.544,26.87,70.66,26.876,70.776,26.876z M33.361,25.324
			c-0.036,0.1,0.018,0.167,0.042,0.236c0.41,1.159,0.829,2.314,1.233,3.476c0.078,0.225,0.19,0.314,0.43,0.289
			c0.219-0.023,0.443-0.009,0.664-0.004c0.105,0.002,0.175-0.012,0.217-0.132c0.437-1.231,0.88-2.46,1.324-3.688
			c0.052-0.144,0.009-0.184-0.138-0.179c-0.27,0.01-0.541,0.017-0.809-0.002c-0.187-0.013-0.264,0.049-0.316,0.229
			c-0.21,0.721-0.438,1.437-0.68,2.221c-0.043-0.117-0.064-0.167-0.081-0.22c-0.209-0.679-0.419-1.358-0.625-2.039
			c-0.032-0.106-0.053-0.193-0.2-0.189C34.067,25.331,33.711,25.324,33.361,25.324z M64.017,25.649
			c0.043-0.324-0.142-0.325-0.354-0.313c-0.202,0.012-0.405,0.013-0.606-0.001c-0.157-0.01-0.194,0.048-0.193,0.196
			c0.005,1.203,0.005,2.407,0,3.61c0,0.134,0.03,0.188,0.174,0.182c0.259-0.011,0.521-0.019,0.779,0.002
			c0.199,0.015,0.237-0.059,0.234-0.24c-0.011-0.636-0.011-1.271-0.003-1.906c0.004-0.432,0.145-0.615,0.482-0.726
			c0.151-0.049,0.375,0.039,0.445-0.114c0.066-0.144,0.019-0.34,0.02-0.514c0.001-0.144-0.012-0.29,0.002-0.433
			c0.017-0.167-0.057-0.196-0.201-0.181C64.486,25.247,64.238,25.391,64.017,25.649z M96.547,25.652
			c0.038-0.31-0.123-0.338-0.349-0.317c-0.182,0.018-0.367,0.018-0.549,0c-0.207-0.021-0.258,0.057-0.255,0.257
			c0.01,0.926,0.003,1.853,0.005,2.778c0.001,0.307-0.11,0.724,0.045,0.892c0.178,0.191,0.599,0.033,0.913,0.061
			c0.176,0.016,0.231-0.037,0.228-0.221c-0.012-0.607-0.003-1.215-0.004-1.823c-0.001-0.612,0.149-0.793,0.758-0.86
			c0.147-0.017,0.199-0.058,0.192-0.208c-0.012-0.27-0.017-0.54-0.002-0.81c0.011-0.188-0.075-0.209-0.224-0.187
			C97.009,25.259,96.766,25.399,96.547,25.652z M27.926,25.707c0.069-0.384-0.125-0.385-0.345-0.371
			c-0.192,0.012-0.386,0.01-0.579,0c-0.143-0.007-0.203,0.026-0.202,0.189c0.007,1.205,0.006,2.411,0.001,3.617
			c0,0.135,0.031,0.187,0.175,0.181c0.26-0.012,0.522-0.019,0.781,0.002c0.204,0.016,0.236-0.067,0.233-0.246
			c-0.009-0.646-0.01-1.293,0-1.938c0.006-0.399,0.145-0.564,0.457-0.683c0.158-0.06,0.394,0.056,0.467-0.127
			c0.063-0.159,0.018-0.361,0.02-0.545c0-0.115-0.014-0.232,0.001-0.347c0.031-0.233-0.088-0.253-0.272-0.219
			C28.377,25.273,28.156,25.428,27.926,25.707z M106.125,24.917c0.003,0,0.006,0,0.009,0c0-0.25,0.002-0.501-0.001-0.751
			c-0.001-0.071,0.022-0.176-0.092-0.177c-0.374-0.001-0.747,0.008-1.121,0.013c-0.061,0.255-0.012,0.514-0.027,0.771
			c-0.003,0.057,0.009,0.116-0.002,0.173c-0.043,0.236,0.065,0.295,0.282,0.275c0.102-0.009,0.268-0.081,0.277,0.138
			c0.008,0.189-0.059,0.358-0.254,0.348c-0.346-0.02-0.332,0.182-0.302,0.408c0.011,0.084-0.065,0.197,0.065,0.249
			c0.535,0.212,1.12-0.147,1.162-0.726C106.14,25.4,106.125,25.159,106.125,24.917z M108.25,24.985
			c0.049-0.032,0.097-0.065,0.145-0.096c0.3-0.191,0.601-0.382,0.898-0.574c0.554-0.358,0.547-0.355,0.179-0.923
			c-0.096-0.148-0.157-0.146-0.282-0.046c-0.346,0.274-0.7,0.539-1.053,0.806c-0.347,0.261-0.351,0.262-0.098,0.615
			C108.096,24.847,108.121,24.966,108.25,24.985z"/>
		<path fill-rule="evenodd" clip-rule="evenodd" fill="#BB9955" d="M91.134,9.139c-0.4,1.405-0.805,2.809-1.198,4.215
			c-0.483,1.723-0.956,3.449-1.438,5.172c-0.298,1.064-0.608,2.126-0.902,3.191c-0.034,0.123-0.087,0.151-0.196,0.151
			c-0.858-0.002-1.717-0.006-2.575,0.001c-0.216,0.002-0.216-0.159-0.252-0.287c-0.32-1.14-0.632-2.28-0.952-3.42
			c-0.669-2.382-1.341-4.763-2.012-7.144c-0.174-0.616-0.352-1.231-0.562-1.838c0,0.885-0.006,1.77,0.001,2.654
			c0.021,2.844,0.046,5.689,0.072,8.533c0.004,0.415,0.017,0.829,0.035,1.243c0.007,0.175-0.032,0.262-0.235,0.261
			c-1.168-0.008-2.335-0.011-3.502,0.001c-0.255,0.002-0.246-0.132-0.246-0.309c0.003-2.962,0.002-5.924,0.002-8.885
			c0-2.556,0-5.113,0-7.669c0-0.43,0-0.425,0.427-0.425c1.611,0.002,3.223,0.005,4.833-0.005c0.229-0.002,0.339,0.048,0.406,0.284
			c0.494,1.73,1.002,3.456,1.511,5.182c0.387,1.311,0.782,2.618,1.169,3.928c0.158,0.535,0.306,1.073,0.459,1.609
			c0.022,0.08,0.054,0.156,0.109,0.318c0.148-0.478,0.277-0.875,0.396-1.274c0.35-1.19,0.693-2.383,1.044-3.574
			c0.421-1.431,0.847-2.86,1.27-4.29c0.188-0.637,0.381-1.272,0.557-1.913c0.056-0.203,0.147-0.271,0.36-0.269
			c1.659,0.009,3.318,0.011,4.978-0.001c0.256-0.002,0.327,0.067,0.326,0.322c-0.01,2.103-0.006,4.206-0.006,6.309
			c0,3.434-0.004,6.869,0.008,10.303c0.001,0.304-0.089,0.364-0.372,0.36c-1.1-0.017-2.199-0.013-3.299-0.002
			c-0.234,0.003-0.316-0.054-0.313-0.302c0.037-2.922,0.049-5.844,0.101-8.765C91.158,11.582,91.15,10.358,91.134,9.139z"/>
		<path fill-rule="evenodd" clip-rule="evenodd" fill="#BB9955" d="M17.3,10.951c-0.195,0.844-0.378,1.638-0.561,2.432
			c-0.57,2.475-1.139,4.95-1.708,7.425c-0.066,0.291-0.141,0.58-0.193,0.872c-0.026,0.146-0.095,0.187-0.232,0.187
			c-1.167-0.002-2.334-0.005-3.502,0.005c-0.198,0.002-0.238-0.099-0.276-0.252c-0.307-1.234-0.615-2.469-0.927-3.701
			c-0.96-3.792-1.922-7.583-2.882-11.375C6.874,5.976,6.749,5.402,6.591,4.838C6.528,4.611,6.597,4.581,6.799,4.582
			c1.302,0.006,2.605,0.005,3.907-0.002c0.183-0.001,0.253,0.07,0.287,0.239c0.346,1.756,0.697,3.511,1.048,5.265
			c0.372,1.858,0.745,3.715,1.131,5.635c0.163-0.406,0.205-0.783,0.287-1.148c0.441-1.96,0.879-3.922,1.318-5.883
			c0.286-1.276,0.577-2.552,0.852-3.831c0.046-0.215,0.132-0.277,0.346-0.275c0.926,0.011,1.853,0.012,2.778,0
			c0.212-0.002,0.3,0.059,0.345,0.268c0.435,2.002,0.882,4.001,1.321,6.003c0.338,1.54,0.669,3.082,1.004,4.623
			c0.022,0.101,0.051,0.2,0.09,0.351c0.238-1.16,0.467-2.271,0.694-3.381c0.324-1.583,0.647-3.166,0.969-4.75
			c0.194-0.953,0.389-1.905,0.572-2.859c0.042-0.214,0.134-0.281,0.351-0.273c1.282,0.046,2.565,0.034,3.847,0.006
			c0.205-0.004,0.261,0.031,0.208,0.235c-0.229,0.884-0.446,1.771-0.672,2.656c-0.263,1.026-0.532,2.05-0.8,3.075
			c-0.575,2.196-1.152,4.392-1.726,6.589c-0.386,1.479-0.771,2.958-1.142,4.44c-0.061,0.243-0.165,0.315-0.411,0.312
			c-1.061-0.014-2.123-0.018-3.183,0.003c-0.277,0.005-0.355-0.101-0.409-0.341c-0.397-1.764-0.808-3.523-1.21-5.286
			c-0.373-1.631-0.743-3.264-1.111-4.896C17.46,11.221,17.421,11.096,17.3,10.951z"/>
		<path fill-rule="evenodd" clip-rule="evenodd" fill="#BB9955" d="M130.951,15.382c0-0.781,0.008-1.501-0.002-2.221
			c-0.023-1.948-0.042-3.896-0.089-5.843c-0.021-0.819-0.021-1.638-0.044-2.457c-0.006-0.211,0.052-0.288,0.271-0.286
			c1.187,0.011,2.373,0.015,3.559,0.006c0.242-0.002,0.31,0.07,0.31,0.31c-0.006,5.556-0.006,11.112,0,16.667
			c0,0.234-0.056,0.318-0.303,0.315c-1.08-0.014-2.16-0.011-3.241-0.005c-0.184,0.001-0.28-0.062-0.379-0.225
			c-0.714-1.165-1.444-2.32-2.167-3.479c-0.737-1.183-1.473-2.367-2.209-3.55c-0.618-0.996-1.236-1.992-1.854-2.988
			c-0.028-0.046-0.043-0.11-0.134-0.102c-0.064,0.244,0.012,0.489,0.015,0.734c0.025,2.034,0.035,4.069,0.087,6.103
			c0.027,1.05,0.011,2.102,0.061,3.15c0.013,0.269-0.049,0.368-0.342,0.363c-1.166-0.017-2.334-0.014-3.501-0.002
			c-0.244,0.003-0.304-0.075-0.304-0.312c0.007-5.556,0.007-11.112,0-16.668c-0.001-0.262,0.079-0.318,0.33-0.314
			c1.041,0.015,2.083,0.012,3.125,0c0.2-0.002,0.305,0.063,0.407,0.233c1.45,2.404,2.909,4.803,4.365,7.203
			C129.584,13.125,130.255,14.234,130.951,15.382z"/>
		<path fill-rule="evenodd" clip-rule="evenodd" fill="#BB9955" d="M49.388,13.226c0-2.749,0-5.498,0-8.247
			c0-0.402,0-0.395,0.4-0.395c1.63,0.003,3.26,0.001,4.89,0.001c1.041,0,2.084-0.03,3.11,0.183c2.789,0.578,4.643,2.259,5.646,4.885
			c0.543,1.422,0.672,2.912,0.552,4.432c-0.098,1.234-0.363,2.417-0.9,3.532c-1.002,2.081-2.613,3.432-4.861,4.007
			c-0.705,0.18-1.419,0.247-2.145,0.245c-2.083-0.005-4.167-0.001-6.25-0.003c-0.521,0-0.439,0.039-0.44-0.453
			C49.387,18.685,49.388,15.956,49.388,13.226z M53.722,13.214c0,1.494,0.004,2.988-0.005,4.481
			c-0.001,0.229,0.064,0.298,0.294,0.292c0.655-0.018,1.312,0.023,1.965-0.022c1.792-0.127,2.969-0.968,3.468-2.739
			c0.394-1.4,0.368-2.817-0.099-4.207c-0.439-1.306-1.325-2.137-2.685-2.431c-0.885-0.191-1.785-0.072-2.678-0.111
			c-0.231-0.01-0.265,0.078-0.264,0.283C53.726,10.246,53.722,11.729,53.722,13.214z"/>
		<path fill-rule="evenodd" clip-rule="evenodd" fill="#BB9955" d="M110.793,21.864c-0.694,0-1.389-0.004-2.083,0.003
			c-0.17,0.002-0.252-0.05-0.305-0.224c-0.204-0.683-0.436-1.356-0.644-2.038c-0.055-0.18-0.143-0.237-0.328-0.237
			c-1.784,0.007-3.568,0.007-5.353,0c-0.204,0-0.308,0.058-0.375,0.26c-0.223,0.677-0.474,1.344-0.7,2.019
			c-0.055,0.165-0.136,0.222-0.307,0.222c-1.389-0.004-2.777-0.004-4.166,0.005c-0.229,0.001-0.252-0.054-0.169-0.262
			c0.922-2.336,1.835-4.675,2.749-7.014c0.731-1.873,1.461-3.747,2.193-5.62c0.543-1.388,1.093-2.772,1.628-4.163
			c0.078-0.202,0.177-0.241,0.385-0.238c0.944,0.014,1.889,0.007,2.834-0.005c0.229-0.003,0.351,0.053,0.441,0.292
			c0.562,1.495,1.148,2.981,1.728,4.471c0.898,2.314,1.798,4.627,2.697,6.941c0.687,1.766,1.37,3.534,2.068,5.295
			c0.103,0.26,0.043,0.308-0.212,0.304c-0.694-0.012-1.389-0.004-2.083-0.004C110.793,21.868,110.793,21.866,110.793,21.864z
			 M104.795,10.091c-0.021-0.003-0.04-0.006-0.061-0.009c-0.554,1.841-1.105,3.682-1.665,5.521c-0.054,0.178-0.025,0.24,0.169,0.249
			c0.916,0.042,1.832,0.009,2.748,0.018c0.536,0.005,0.53,0.002,0.38-0.5c-0.354-1.179-0.699-2.36-1.05-3.54
			C105.145,11.249,104.969,10.67,104.795,10.091z"/>
		<path fill-rule="evenodd" clip-rule="evenodd" fill="#BB9955" d="M65.838,13.214c0-2.778,0.002-5.556-0.004-8.334
			c0-0.229,0.041-0.31,0.301-0.308c2.874,0.014,5.748,0.012,8.621,0.014c0.49,0,0.49,0,0.49,0.501c0,1.013-0.009,2.026,0.006,3.039
			c0.004,0.272-0.064,0.365-0.352,0.362c-1.543-0.013-3.086-0.001-4.63-0.012c-0.228-0.001-0.292,0.059-0.288,0.288
			c0.015,0.704,0.015,1.408,0,2.112c-0.004,0.222,0.065,0.27,0.277,0.269c1.515-0.009,3.029,0,4.543-0.01
			c0.227-0.002,0.293,0.057,0.29,0.287c-0.012,1.1-0.014,2.199,0.002,3.299c0.003,0.265-0.083,0.316-0.329,0.314
			c-1.485-0.011-2.971,0-4.456-0.011c-0.241-0.001-0.335,0.039-0.328,0.31c0.021,0.771,0.017,1.543,0.001,2.315
			c-0.005,0.255,0.052,0.343,0.328,0.34c1.533-0.015,3.067-0.001,4.601-0.013c0.269-0.002,0.345,0.076,0.341,0.342
			c-0.014,1.09-0.011,2.18-0.001,3.27c0.002,0.213-0.056,0.285-0.273,0.284c-2.962-0.006-5.923-0.007-8.884,0.003
			c-0.278,0.001-0.256-0.146-0.256-0.327C65.839,18.771,65.838,15.993,65.838,13.214z"/>
		<path fill-rule="evenodd" clip-rule="evenodd" fill="#BB9955" d="M29.449,13.228c0-2.74,0-5.479,0-8.219
			c0-0.427,0-0.423,0.431-0.423c2.875,0.001,5.75,0.005,8.625-0.007c0.288-0.001,0.351,0.082,0.347,0.354
			c-0.015,1.07-0.017,2.142,0.001,3.212c0.005,0.29-0.087,0.346-0.357,0.344c-1.543-0.013-3.087,0-4.63-0.011
			c-0.24-0.002-0.291,0.076-0.288,0.294c0.011,0.694,0.011,1.389,0,2.083c-0.003,0.221,0.053,0.294,0.29,0.292
			c1.495-0.012,2.991,0,4.486-0.011c0.257-0.002,0.351,0.052,0.346,0.331c-0.017,1.08-0.014,2.161-0.001,3.241
			c0.003,0.252-0.063,0.33-0.322,0.328c-1.495-0.012-2.991-0.001-4.486-0.011c-0.232-0.001-0.316,0.049-0.311,0.301
			c0.018,0.791,0.017,1.582,0.001,2.373c-0.005,0.234,0.062,0.292,0.29,0.291c1.563-0.01,3.126,0,4.688-0.012
			c0.233-0.001,0.293,0.062,0.292,0.288c-0.011,1.109-0.008,2.219-0.002,3.328c0.001,0.184-0.022,0.276-0.244,0.276
			c-2.971-0.006-5.942-0.005-8.914,0.005c-0.259,0-0.243-0.14-0.242-0.312C29.45,18.785,29.449,16.006,29.449,13.228z"/>
		<path fill-rule="evenodd" clip-rule="evenodd" fill="#BB9955" d="M114.438,13.224c0-2.767,0.003-5.535-0.005-8.302
			c0-0.253,0.052-0.346,0.329-0.342c1.225,0.016,2.449,0.013,3.674,0.002c0.237-0.002,0.312,0.063,0.312,0.308
			c-0.006,5.563-0.006,11.127,0,16.69c0.001,0.232-0.07,0.295-0.293,0.293c-1.244-0.008-2.488-0.01-3.731,0.001
			c-0.229,0.002-0.29-0.062-0.29-0.29C114.441,18.797,114.438,16.01,114.438,13.224z"/>
		<path fill-rule="evenodd" clip-rule="evenodd" fill="#040404" d="M85.75,29.666c0.42,0,0.834,0.002,1.247-0.002
			c0.088-0.001,0.139,0.037,0.188,0.103c0.235,0.312,0.559,0.354,0.908,0.269c0.363-0.088,0.572-0.336,0.647-0.695
			c0.024-0.117,0.074-0.237,0.034-0.364c-0.891,0.643-1.79,0.609-2.499-0.092c-0.653-0.646-0.797-1.793-0.332-2.653
			c0.422-0.781,1.304-1.173,2.183-0.976c0.267,0.06,0.49,0.195,0.741,0.424c-0.064-0.319,0.069-0.364,0.288-0.344
			c0.21,0.019,0.425,0.014,0.636,0.001c0.159-0.01,0.192,0.054,0.191,0.199c-0.004,1.272-0.001,2.545-0.002,3.817
			c0,0.53-0.223,0.956-0.657,1.249c-0.89,0.597-1.831,0.653-2.792,0.193C86.077,30.576,85.822,30.189,85.75,29.666z M87.82,28.33
			c0.547,0.001,0.967-0.413,0.976-0.963c0.009-0.607-0.409-1.056-0.98-1.052c-0.514,0.004-0.943,0.441-0.949,0.967
			C86.859,27.879,87.268,28.329,87.82,28.33z"/>
		<path fill-rule="evenodd" clip-rule="evenodd" fill="#040404" d="M14.829,25.961c0,0.541,0.01,1.081-0.002,1.621
			c-0.022,0.974-0.604,1.642-1.566,1.816c-0.966,0.176-1.825-0.17-2.26-0.909c-0.172-0.291-0.227-0.613-0.228-0.943
			c-0.006-1.109,0.004-2.219-0.007-3.327c-0.002-0.203,0.068-0.236,0.244-0.229c0.289,0.013,0.58,0.017,0.868-0.001
			c0.194-0.013,0.238,0.054,0.237,0.239c-0.009,0.936-0.003,1.871-0.005,2.807c0,0.232,0.008,0.464,0.06,0.69
			c0.08,0.353,0.302,0.519,0.666,0.509c0.363-0.009,0.53-0.157,0.614-0.521c0.044-0.19,0.041-0.383,0.042-0.575
			c0.002-0.974,0.005-1.948-0.003-2.922c-0.001-0.171,0.029-0.238,0.217-0.228c0.317,0.019,0.637,0.014,0.955,0.003
			c0.142-0.005,0.176,0.04,0.174,0.177C14.826,24.766,14.83,25.364,14.829,25.961C14.83,25.961,14.829,25.961,14.829,25.961z"/>
		<path fill-rule="evenodd" clip-rule="evenodd" fill="#060606" d="M124.311,25.735c-0.095-0.403,0.107-0.42,0.354-0.399
			c0.153,0.014,0.31,0.019,0.462,0.001c0.232-0.027,0.311,0.043,0.309,0.291c-0.012,1.581-0.011,3.162-0.002,4.742
			c0.002,0.213-0.044,0.292-0.267,0.273c-0.249-0.021-0.501-0.015-0.751-0.001c-0.152,0.008-0.197-0.037-0.193-0.19
			c0.01-0.481,0.003-0.962,0.003-1.505c-0.445,0.428-0.949,0.555-1.504,0.472c-0.552-0.083-0.989-0.359-1.294-0.832
			c-0.572-0.888-0.391-2.256,0.398-2.936C122.388,25.167,123.523,24.935,124.311,25.735z M124.28,27.332
			c0.005-0.562-0.434-1.013-0.99-1.018c-0.555-0.004-0.986,0.435-0.995,1.011c-0.008,0.544,0.428,0.992,0.974,1.003
			C123.824,28.338,124.274,27.895,124.28,27.332z"/>
		<path fill-rule="evenodd" clip-rule="evenodd" fill="#040404" d="M102.867,25.618c0-0.484,0.007-0.952-0.004-1.42
			c-0.004-0.161,0.039-0.218,0.205-0.208c0.26,0.014,0.521,0.011,0.78,0.001c0.144-0.006,0.204,0.024,0.204,0.188
			c-0.007,1.638-0.008,3.275-0.002,4.913c0.001,0.188-0.068,0.231-0.238,0.218c-0.172-0.014-0.347-0.011-0.52-0.001
			c-0.236,0.014-0.456,0.022-0.367-0.341c-0.946,0.657-1.956,0.605-2.622-0.115c-0.718-0.775-0.76-2.148-0.091-2.953
			C100.876,25.101,101.873,24.988,102.867,25.618z M101.934,26.318c-0.579,0-1.001,0.422-0.998,0.998
			c0.003,0.59,0.416,1.013,0.986,1.011c0.572-0.001,0.998-0.427,1.003-1.001C102.929,26.75,102.503,26.318,101.934,26.318z"/>
		<path fill-rule="evenodd" clip-rule="evenodd" fill="#040404" d="M112.649,25.719c0.947-0.706,1.961-0.662,2.652,0.068
			c0.717,0.756,0.749,2.162,0.08,2.985c-0.5,0.614-1.668,1.005-2.628,0.229c0,0.478-0.011,0.923,0.005,1.368
			c0.007,0.212-0.046,0.292-0.27,0.272c-0.249-0.021-0.502-0.016-0.751-0.001c-0.16,0.01-0.191-0.05-0.191-0.195
			c0.005-1.639,0.005-3.278-0.001-4.917c0-0.155,0.049-0.201,0.198-0.193c0.191,0.011,0.386,0.015,0.578,0
			C112.567,25.315,112.755,25.336,112.649,25.719z M114.672,27.326c0.005-0.565-0.436-1.012-0.998-1.011
			c-0.524,0-0.968,0.442-0.976,0.975c-0.008,0.569,0.428,1.037,0.97,1.039C114.233,28.332,114.667,27.897,114.672,27.326z"/>
		<path fill-rule="evenodd" clip-rule="evenodd" fill="#040404" d="M49.888,29.001c0,0.492-0.011,0.943,0.005,1.393
			c0.007,0.213-0.068,0.262-0.264,0.247c-0.23-0.017-0.463-0.018-0.693,0.001c-0.202,0.016-0.257-0.049-0.255-0.253
			c0.009-1.378,0.005-2.756,0.005-4.134c0-0.24,0.007-0.481-0.003-0.723c-0.006-0.146,0.034-0.209,0.191-0.197
			c0.182,0.013,0.368,0.018,0.549-0.001c0.263-0.027,0.457,0.005,0.395,0.355c0.939-0.671,1.966-0.626,2.622,0.095
			c0.73,0.803,0.749,2.224,0.041,3.031C51.839,29.548,50.807,29.636,49.888,29.001z M51.808,27.332
			c0.004-0.558-0.425-1.01-0.962-1.017c-0.549-0.006-1.003,0.427-1.013,0.967c-0.011,0.581,0.431,1.047,0.994,1.047
			C51.366,28.329,51.804,27.883,51.808,27.332z"/>
		<path fill-rule="evenodd" clip-rule="evenodd" fill="#040404" d="M79.472,25.689c-0.082-0.324,0.07-0.346,0.268-0.331
			c0.275,0.02,0.646-0.113,0.802,0.057c0.136,0.147,0.038,0.514,0.039,0.782c0.001,0.945-0.008,1.89,0.007,2.834
			c0.003,0.235-0.066,0.304-0.29,0.28c-0.182-0.02-0.366-0.013-0.549-0.003c-0.199,0.011-0.371,0.008-0.242-0.383
			c-0.485,0.501-1,0.554-1.532,0.496c-0.548-0.059-1.013-0.292-1.341-0.755c-0.634-0.893-0.501-2.252,0.285-2.985
			C77.42,25.213,78.695,24.919,79.472,25.689z M79.391,27.364c0.024-0.566-0.396-1.016-0.969-1.032
			c-0.532-0.016-0.959,0.396-0.985,0.951c-0.027,0.561,0.375,1.018,0.921,1.045C78.928,28.356,79.365,27.948,79.391,27.364z"/>
		<path fill-rule="evenodd" clip-rule="evenodd" fill="#040404" d="M73.136,25.628c0.732-0.587,1.677-0.541,2.186,0.071
			c0.221,0.266,0.299,0.578,0.301,0.912c0.004,0.84-0.001,1.679,0.005,2.518c0.001,0.146-0.029,0.203-0.189,0.194
			c-0.269-0.015-0.54-0.014-0.81-0.001c-0.16,0.008-0.189-0.053-0.188-0.198c0.008-0.636,0.002-1.272,0.004-1.909
			c0.001-0.176-0.013-0.349-0.073-0.513c-0.098-0.268-0.296-0.392-0.579-0.386c-0.275,0.006-0.479,0.114-0.58,0.387
			c-0.071,0.195-0.076,0.396-0.076,0.599c-0.002,0.598-0.006,1.196,0.004,1.794c0.003,0.17-0.029,0.241-0.218,0.228
			c-0.259-0.018-0.521-0.014-0.781,0c-0.159,0.008-0.188-0.052-0.188-0.198c0.005-1.649,0.006-3.299-0.001-4.948
			c-0.001-0.161,0.055-0.192,0.198-0.187c0.317,0.014,0.732-0.105,0.925,0.052c0.198,0.162,0.046,0.595,0.06,0.908
			C73.144,25.161,73.136,25.371,73.136,25.628z"/>
		<path fill-rule="evenodd" clip-rule="evenodd" fill="#060606" d="M24.021,28.058c-0.334,0.95-1.32,1.534-2.252,1.361
			c-1.05-0.194-1.78-1.078-1.756-2.125c0.029-1.236,0.957-2.112,2.21-2.086c1.097,0.023,1.991,1.024,1.97,2.192
			c-0.004,0.227-0.071,0.309-0.314,0.304c-0.83-0.017-1.66,0-2.489-0.01c-0.204-0.003-0.229,0.056-0.153,0.228
			c0.208,0.478,0.894,0.686,1.325,0.345c0.241-0.191,0.476-0.212,0.745-0.21C23.536,28.059,23.767,28.058,24.021,28.058z
			 M22.973,26.902c-0.146-0.443-0.419-0.653-0.837-0.678c-0.371-0.021-0.729,0.173-0.855,0.473c-0.037,0.086-0.13,0.207,0.083,0.206
			C21.893,26.899,22.421,26.902,22.973,26.902z"/>
		<path fill-rule="evenodd" clip-rule="evenodd" fill="#060606" d="M33.159,28.058c-0.273,0.844-1.071,1.389-1.983,1.378
			c-0.882-0.01-1.698-0.63-1.933-1.51c-0.233-0.877-0.021-1.653,0.678-2.243c0.667-0.562,1.437-0.641,2.217-0.272
			c0.836,0.395,1.183,1.112,1.197,2.016c0.003,0.201-0.052,0.282-0.278,0.278c-0.838-0.015-1.678,0-2.517-0.009
			c-0.228-0.003-0.238,0.068-0.15,0.248c0.225,0.461,0.875,0.654,1.307,0.325c0.25-0.189,0.493-0.219,0.772-0.212
			C32.692,28.062,32.914,28.058,33.159,28.058z M32.11,26.902c-0.116-0.421-0.369-0.628-0.788-0.669
			c-0.387-0.037-0.755,0.144-0.891,0.451c-0.032,0.073-0.156,0.214,0.064,0.216C31.031,26.906,31.566,26.902,32.11,26.902z"/>
		<path fill-rule="evenodd" clip-rule="evenodd" fill="#060606" d="M134.588,28.058c-0.414,1.056-1.419,1.577-2.468,1.313
			c-1.009-0.254-1.65-1.238-1.528-2.346c0.112-1.013,1.001-1.809,2.028-1.817c1.227-0.011,2.163,0.962,2.133,2.202
			c-0.005,0.216-0.057,0.299-0.294,0.295c-0.829-0.017-1.658,0-2.487-0.011c-0.244-0.003-0.257,0.071-0.159,0.262
			c0.231,0.455,0.886,0.64,1.313,0.307c0.241-0.188,0.476-0.212,0.745-0.206C134.1,28.062,134.33,28.058,134.588,28.058z
			 M133.527,26.902c-0.12-0.43-0.386-0.64-0.818-0.672c-0.37-0.028-0.731,0.157-0.861,0.454c-0.032,0.074-0.155,0.215,0.065,0.217
			C132.448,26.905,132.983,26.902,133.527,26.902z"/>
		<path fill-rule="evenodd" clip-rule="evenodd" fill="#060606" d="M45.966,28.058c-0.383,1.008-1.353,1.545-2.354,1.336
			c-1.003-0.21-1.708-1.12-1.658-2.139c0.062-1.245,0.981-2.093,2.218-2.047c1.12,0.042,1.987,1.037,1.957,2.233
			c-0.005,0.189-0.049,0.266-0.261,0.263c-0.839-0.014-1.679,0.001-2.518-0.01c-0.243-0.004-0.257,0.072-0.162,0.263
			c0.227,0.455,0.894,0.637,1.319,0.307c0.229-0.178,0.451-0.217,0.713-0.208C45.46,28.064,45.699,28.058,45.966,28.058z
			 M44.911,26.903c-0.147-0.446-0.418-0.659-0.847-0.688c-0.344-0.022-0.719,0.192-0.851,0.482c-0.06,0.132-0.068,0.21,0.12,0.207
			C43.85,26.898,44.367,26.903,44.911,26.903z"/>
		<path fill-rule="evenodd" clip-rule="evenodd" fill="#060606" d="M94.592,28.058c-0.427,1.087-1.522,1.622-2.555,1.285
			c-1.086-0.354-1.678-1.451-1.391-2.576c0.273-1.067,1.303-1.728,2.38-1.525c1.077,0.201,1.816,1.176,1.725,2.261
			c-0.014,0.166-0.08,0.201-0.233,0.199c-0.849-0.007-1.698,0.005-2.547-0.008c-0.253-0.003-0.247,0.086-0.157,0.266
			c0.226,0.455,0.897,0.635,1.32,0.303c0.229-0.179,0.45-0.216,0.714-0.206C94.086,28.065,94.326,28.058,94.592,28.058z
			 M93.54,26.903c-0.162-0.455-0.435-0.664-0.857-0.688c-0.335-0.019-0.695,0.183-0.834,0.464c-0.062,0.128-0.106,0.23,0.114,0.227
			C92.48,26.898,92.997,26.903,93.54,26.903z"/>
		<path fill-rule="evenodd" clip-rule="evenodd" fill="#060606" d="M110.799,28.058c-0.397,1.025-1.366,1.551-2.385,1.329
			c-0.983-0.214-1.679-1.126-1.628-2.134c0.063-1.245,0.983-2.092,2.22-2.045c1.118,0.043,1.986,1.041,1.954,2.235
			c-0.005,0.192-0.054,0.264-0.262,0.26c-0.84-0.012-1.679,0.003-2.519-0.01c-0.248-0.003-0.251,0.081-0.159,0.265
			c0.227,0.456,0.896,0.636,1.32,0.305c0.229-0.179,0.451-0.217,0.714-0.207C110.293,28.065,110.533,28.058,110.799,28.058z
			 M109.747,26.903c-0.16-0.454-0.433-0.664-0.856-0.688c-0.335-0.019-0.695,0.183-0.834,0.464c-0.062,0.127-0.107,0.23,0.114,0.227
			C108.687,26.898,109.205,26.903,109.747,26.903z"/>
		<path fill-rule="evenodd" clip-rule="evenodd" fill="#040404" d="M53.49,27.315c0-1.214,0.898-2.104,2.128-2.106
			c1.249-0.002,2.153,0.883,2.155,2.109c0.002,1.231-0.898,2.119-2.146,2.117C54.375,29.434,53.491,28.557,53.49,27.315z
			 M55.635,28.328c0.527,0.004,0.949-0.437,0.948-0.989c-0.001-0.566-0.406-1.016-0.92-1.021c-0.55-0.006-0.972,0.422-0.979,0.991
			C54.676,27.879,55.09,28.323,55.635,28.328z"/>
		<path fill-rule="evenodd" clip-rule="evenodd" fill="#060606" d="M118.461,29.436c-1.245-0.012-2.118-0.9-2.108-2.144
			c0.011-1.229,0.928-2.097,2.203-2.084c1.23,0.013,2.098,0.931,2.082,2.204C120.625,28.58,119.69,29.447,118.461,29.436z
			 M117.55,27.299c-0.001,0.587,0.397,1.023,0.939,1.027c0.547,0.005,0.962-0.434,0.956-1.01c-0.006-0.559-0.414-0.995-0.939-1.001
			C117.983,26.309,117.551,26.753,117.55,27.299z"/>
		<path fill-rule="evenodd" clip-rule="evenodd" fill="#040404" d="M60.974,28.939c-0.449,0.492-1.042,0.629-1.638,0.408
			c-0.567-0.21-0.914-0.617-0.934-1.228c-0.027-0.877-0.011-1.754-0.018-2.631c-0.001-0.122,0.035-0.171,0.164-0.167
			c0.279,0.009,0.56,0.014,0.838-0.001c0.166-0.008,0.185,0.062,0.184,0.201c-0.003,0.723-0.01,1.446,0.008,2.168
			c0.015,0.55,0.546,0.828,1.006,0.541c0.26-0.162,0.311-0.427,0.312-0.705c0.003-0.646,0.011-1.292-0.004-1.938
			c-0.005-0.212,0.04-0.293,0.264-0.268c0.302,0.035,0.711-0.126,0.88,0.066c0.149,0.17,0.041,0.568,0.041,0.866
			c0.001,0.915-0.012,1.831,0.008,2.746c0.006,0.27-0.08,0.337-0.325,0.308c-0.162-0.019-0.329-0.016-0.491,0.003
			C61.033,29.335,60.893,29.281,60.974,28.939z"/>
		<path fill-rule="evenodd" clip-rule="evenodd" fill="#040404" d="M40.182,28.953c-0.491,0.571-1.069,0.58-1.663,0.373
			c-0.588-0.204-0.894-0.657-0.905-1.278c-0.016-0.848-0.004-1.696-0.012-2.545c-0.001-0.138,0.033-0.2,0.175-0.178
			c0.009,0.001,0.02,0,0.029,0c0.317,0.005,0.733-0.109,0.922,0.049c0.196,0.163,0.049,0.596,0.057,0.909
			c0.011,0.453-0.002,0.907,0.011,1.359c0.014,0.464,0.21,0.675,0.604,0.686c0.411,0.012,0.689-0.228,0.705-0.67
			c0.024-0.684,0.02-1.369,0.008-2.053c-0.004-0.219,0.042-0.31,0.278-0.285c0.219,0.022,0.443,0.015,0.665,0.002
			c0.177-0.011,0.25,0.026,0.248,0.229c-0.011,1.167-0.01,2.334-0.001,3.5c0.001,0.198-0.046,0.28-0.254,0.259
			c-0.172-0.018-0.348-0.017-0.52,0C40.288,29.333,40.105,29.309,40.182,28.953z"/>
		<path fill-rule="evenodd" clip-rule="evenodd" fill="#040404" d="M82.474,25.752c0.553-0.586,1.115-0.656,1.723-0.437
			c0.518,0.188,0.837,0.563,0.852,1.122c0.023,0.905,0.008,1.812,0.014,2.718c0.001,0.125-0.038,0.169-0.164,0.166
			c-0.279-0.007-0.56-0.014-0.838,0.002c-0.17,0.01-0.184-0.066-0.183-0.202c0.006-0.606,0.003-1.214,0.002-1.821
			c0-0.135,0.004-0.271-0.014-0.404c-0.051-0.393-0.262-0.584-0.623-0.581c-0.37,0.003-0.612,0.213-0.636,0.604
			c-0.024,0.423-0.012,0.848-0.014,1.271c-0.001,0.309-0.009,0.617,0.004,0.926c0.007,0.168-0.052,0.215-0.213,0.207
			c-0.27-0.013-0.54-0.008-0.81-0.001c-0.126,0.003-0.188-0.015-0.188-0.168c0.006-1.215,0.006-2.429,0.001-3.644
			c-0.001-0.143,0.049-0.182,0.185-0.175c0.191,0.01,0.385,0,0.578,0.004C82.352,25.343,82.632,25.25,82.474,25.752z"/>
		<path fill-rule="evenodd" clip-rule="evenodd" fill="#040404" d="M16.94,25.681c0.705-0.604,1.58-0.621,2.153-0.07
			c0.276,0.265,0.382,0.591,0.382,0.963c0,0.848-0.005,1.696,0.004,2.545c0.002,0.171-0.052,0.212-0.212,0.204
			c-0.25-0.014-0.502-0.019-0.751,0c-0.183,0.013-0.228-0.043-0.225-0.222c0.009-0.694,0.011-1.389-0.002-2.083
			c-0.012-0.58-0.434-0.862-0.93-0.64c-0.293,0.132-0.346,0.395-0.348,0.674c-0.005,0.665-0.01,1.33,0.003,1.995
			c0.004,0.207-0.035,0.297-0.265,0.277c-0.258-0.022-0.52-0.011-0.78-0.003c-0.123,0.004-0.166-0.027-0.166-0.159
			c0.005-1.215,0.004-2.43,0-3.645c0-0.134,0.033-0.191,0.177-0.183c0.183,0.012,0.366,0.01,0.549,0.001
			C16.769,25.325,17.013,25.292,16.94,25.681z"/>
		<path fill-rule="evenodd" clip-rule="evenodd" fill="#040404" d="M128.875,28.938c-0.445,0.492-1.04,0.627-1.643,0.405
			c-0.555-0.205-0.903-0.604-0.925-1.202c-0.032-0.885-0.015-1.772-0.024-2.658c-0.001-0.132,0.051-0.173,0.17-0.158
			c0.01,0.001,0.02-0.001,0.029,0c0.323,0.02,0.745-0.136,0.94,0.062c0.155,0.158,0.043,0.583,0.046,0.89
			c0.004,0.463-0.004,0.926,0.01,1.388c0.013,0.438,0.215,0.652,0.596,0.664c0.406,0.013,0.678-0.208,0.709-0.632
			c0.03-0.412,0.014-0.828,0.017-1.242c0.001-0.067-0.003-0.135,0.001-0.202c0.018-0.304-0.133-0.755,0.055-0.877
			c0.239-0.154,0.648-0.042,0.984-0.052c0.116-0.003,0.147,0.044,0.147,0.152c-0.005,1.214-0.008,2.428-0.005,3.643
			c0,0.155-0.061,0.199-0.207,0.192c-0.201-0.011-0.405-0.018-0.606,0.001C128.933,29.332,128.792,29.281,128.875,28.938z"/>
		<path fill-rule="evenodd" clip-rule="evenodd" fill="#060606" d="M70.776,26.876c-0.116,0-0.232-0.007-0.347,0.002
			c-0.148,0.011-0.237-0.038-0.328-0.168c-0.318-0.452-0.945-0.528-1.348-0.187c-0.433,0.367-0.471,1.145-0.075,1.531
			c0.399,0.392,1.015,0.37,1.377-0.067c0.119-0.143,0.237-0.196,0.416-0.186c0.23,0.015,0.463,0.017,0.693,0
			c0.235-0.017,0.249,0.064,0.178,0.263c-0.327,0.899-1.291,1.483-2.276,1.364c-0.976-0.118-1.727-0.874-1.851-1.861
			c-0.131-1.045,0.534-2.046,1.522-2.29c1.089-0.27,2.188,0.259,2.573,1.237c0.136,0.347,0.128,0.359-0.246,0.358
			c-0.096,0-0.192,0-0.289,0C70.776,26.875,70.776,26.875,70.776,26.876z"/>
		<path fill-rule="evenodd" clip-rule="evenodd" fill="#040404" d="M33.361,25.324c0.35,0,0.706,0.007,1.062-0.003
			c0.147-0.004,0.168,0.083,0.2,0.189c0.206,0.681,0.416,1.36,0.625,2.039c0.016,0.053,0.037,0.103,0.081,0.22
			c0.242-0.784,0.469-1.5,0.68-2.221c0.052-0.18,0.13-0.241,0.316-0.229c0.269,0.019,0.54,0.012,0.809,0.002
			c0.147-0.005,0.19,0.035,0.138,0.179c-0.444,1.229-0.887,2.457-1.324,3.688c-0.042,0.12-0.112,0.134-0.217,0.132
			c-0.221-0.005-0.445-0.02-0.664,0.004c-0.24,0.025-0.352-0.064-0.43-0.289c-0.404-1.161-0.823-2.316-1.233-3.476
			C33.378,25.491,33.325,25.423,33.361,25.324z"/>
		<path fill-rule="evenodd" clip-rule="evenodd" fill="#040404" d="M64.017,25.649c0.221-0.258,0.469-0.402,0.78-0.438
			c0.144-0.016,0.218,0.014,0.201,0.181c-0.015,0.143-0.001,0.289-0.002,0.433c-0.001,0.174,0.046,0.37-0.02,0.514
			c-0.07,0.153-0.294,0.065-0.445,0.114c-0.337,0.11-0.478,0.294-0.482,0.726c-0.007,0.635-0.007,1.271,0.003,1.906
			c0.003,0.182-0.035,0.255-0.234,0.24c-0.258-0.021-0.52-0.013-0.779-0.002c-0.144,0.006-0.174-0.048-0.174-0.182
			c0.005-1.203,0.005-2.407,0-3.61c0-0.148,0.037-0.206,0.193-0.196c0.201,0.014,0.404,0.013,0.606,0.001
			C63.875,25.324,64.06,25.325,64.017,25.649z"/>
		<path fill-rule="evenodd" clip-rule="evenodd" fill="#040404" d="M96.547,25.652c0.219-0.253,0.462-0.393,0.759-0.438
			c0.148-0.022,0.234-0.001,0.224,0.187c-0.015,0.27-0.01,0.54,0.002,0.81c0.007,0.15-0.045,0.191-0.192,0.208
			c-0.608,0.067-0.759,0.248-0.758,0.86c0.001,0.608-0.008,1.216,0.004,1.823c0.004,0.184-0.052,0.236-0.228,0.221
			c-0.314-0.027-0.735,0.131-0.913-0.061c-0.155-0.168-0.044-0.585-0.045-0.892c-0.002-0.926,0.005-1.853-0.005-2.778
			c-0.003-0.2,0.048-0.277,0.255-0.257c0.182,0.018,0.367,0.018,0.549,0C96.424,25.314,96.585,25.342,96.547,25.652z"/>
		<path fill-rule="evenodd" clip-rule="evenodd" fill="#040404" d="M27.926,25.707c0.229-0.278,0.451-0.434,0.736-0.486
			c0.184-0.034,0.303-0.015,0.272,0.219c-0.015,0.114,0,0.231-0.001,0.347c-0.001,0.184,0.044,0.386-0.02,0.545
			c-0.073,0.183-0.309,0.067-0.467,0.127c-0.312,0.118-0.451,0.283-0.457,0.683c-0.009,0.646-0.009,1.292,0,1.938
			c0.002,0.179-0.029,0.262-0.233,0.246c-0.259-0.021-0.521-0.014-0.781-0.002c-0.144,0.006-0.175-0.046-0.175-0.181
			c0.004-1.206,0.005-2.412-0.001-3.617c-0.001-0.163,0.06-0.196,0.202-0.189c0.193,0.01,0.387,0.012,0.579,0
			C27.802,25.322,27.995,25.323,27.926,25.707z"/>
		<path fill-rule="evenodd" clip-rule="evenodd" fill="#040404" d="M106.125,24.917c0,0.241,0.015,0.482-0.003,0.722
			c-0.042,0.578-0.627,0.938-1.162,0.726c-0.131-0.052-0.055-0.165-0.065-0.249c-0.03-0.227-0.044-0.428,0.302-0.408
			c0.195,0.011,0.262-0.158,0.254-0.348c-0.01-0.219-0.176-0.146-0.277-0.138c-0.217,0.02-0.325-0.039-0.282-0.275
			c0.011-0.057-0.001-0.116,0.002-0.173c0.016-0.258-0.033-0.517,0.027-0.771c0.374-0.005,0.747-0.014,1.121-0.013
			c0.114,0.001,0.091,0.105,0.092,0.177c0.003,0.25,0.001,0.501,0.001,0.751C106.131,24.917,106.128,24.917,106.125,24.917z"/>
		<path fill-rule="evenodd" clip-rule="evenodd" fill="#060606" d="M108.25,24.985c-0.13-0.019-0.154-0.138-0.211-0.218
			c-0.253-0.354-0.249-0.354,0.098-0.615c0.353-0.267,0.707-0.531,1.053-0.806c0.125-0.1,0.187-0.103,0.282,0.046
			c0.368,0.567,0.375,0.564-0.179,0.923c-0.298,0.192-0.599,0.383-0.898,0.574C108.347,24.919,108.299,24.953,108.25,24.985z"/>
		<path fill-rule="evenodd" clip-rule="evenodd" fill="#FDFDFD" d="M53.722,13.214c0-1.484,0.004-2.968-0.004-4.453
			c-0.001-0.206,0.033-0.293,0.264-0.283c0.893,0.04,1.793-0.08,2.678,0.111c1.36,0.294,2.246,1.125,2.685,2.431
			c0.467,1.389,0.493,2.806,0.099,4.207c-0.499,1.771-1.676,2.611-3.468,2.739c-0.652,0.046-1.31,0.005-1.965,0.022
			c-0.229,0.006-0.295-0.063-0.294-0.292C53.726,16.202,53.722,14.708,53.722,13.214z"/>
		<path fill-rule="evenodd" clip-rule="evenodd" fill="#FDFDFD" d="M104.795,10.091c0.174,0.58,0.35,1.158,0.521,1.738
			c0.351,1.18,0.696,2.361,1.05,3.54c0.15,0.502,0.156,0.506-0.38,0.5c-0.916-0.009-1.832,0.024-2.748-0.018
			c-0.194-0.009-0.223-0.07-0.169-0.249c0.56-1.839,1.111-3.681,1.665-5.521C104.755,10.084,104.775,10.088,104.795,10.091z"/>
		<path fill-rule="evenodd" clip-rule="evenodd" fill="#F8F8F8" d="M87.82,28.33c-0.552-0.001-0.961-0.45-0.954-1.048
			c0.006-0.525,0.436-0.963,0.949-0.967c0.571-0.004,0.989,0.444,0.98,1.052C88.787,27.917,88.367,28.331,87.82,28.33z"/>
		<path fill-rule="evenodd" clip-rule="evenodd" fill="#F8F8F8" d="M124.28,27.332c-0.006,0.563-0.456,1.007-1.012,0.996
			c-0.546-0.011-0.981-0.459-0.974-1.003c0.009-0.576,0.44-1.015,0.995-1.011C123.846,26.319,124.285,26.769,124.28,27.332z"/>
		<path fill-rule="evenodd" clip-rule="evenodd" fill="#F8F8F8" d="M101.934,26.318c0.569,0,0.995,0.433,0.991,1.008
			c-0.005,0.574-0.431,1-1.003,1.001c-0.57,0.002-0.983-0.421-0.986-1.011C100.933,26.74,101.355,26.318,101.934,26.318z"/>
		<path fill-rule="evenodd" clip-rule="evenodd" fill="#F8F8F8" d="M114.672,27.326c-0.006,0.571-0.439,1.006-1.004,1.003
			c-0.542-0.002-0.978-0.47-0.97-1.039c0.008-0.532,0.451-0.975,0.976-0.975C114.237,26.314,114.677,26.76,114.672,27.326z"/>
		<path fill-rule="evenodd" clip-rule="evenodd" fill="#F8F8F8" d="M51.808,27.332c-0.004,0.552-0.442,0.997-0.981,0.997
			c-0.563,0-1.005-0.466-0.994-1.047c0.01-0.54,0.464-0.973,1.013-0.967C51.383,26.322,51.812,26.774,51.808,27.332z"/>
		<path fill-rule="evenodd" clip-rule="evenodd" fill="#F8F8F8" d="M79.391,27.364c-0.026,0.584-0.463,0.992-1.033,0.964
			c-0.546-0.027-0.948-0.484-0.921-1.045c0.026-0.556,0.453-0.967,0.985-0.951C78.995,26.348,79.416,26.797,79.391,27.364z"/>
		<path fill-rule="evenodd" clip-rule="evenodd" fill="#F8F8F8" d="M22.973,26.902c-0.552,0-1.081-0.003-1.609,0.001
			c-0.213,0.001-0.12-0.12-0.083-0.206c0.127-0.3,0.484-0.494,0.855-0.473C22.554,26.249,22.827,26.458,22.973,26.902z"/>
		<path fill-rule="evenodd" clip-rule="evenodd" fill="#F8F8F8" d="M32.11,26.902c-0.543,0-1.079,0.004-1.614-0.002
			c-0.22-0.002-0.097-0.143-0.064-0.216c0.135-0.308,0.504-0.488,0.891-0.451C31.741,26.274,31.994,26.481,32.11,26.902z"/>
		<path fill-rule="evenodd" clip-rule="evenodd" fill="#F8F8F8" d="M133.527,26.902c-0.544,0-1.079,0.003-1.614-0.001
			c-0.221-0.002-0.098-0.143-0.065-0.217c0.13-0.297,0.491-0.482,0.861-0.454C133.141,26.262,133.407,26.472,133.527,26.902z"/>
		<path fill-rule="evenodd" clip-rule="evenodd" fill="#F8F8F8" d="M44.911,26.903c-0.544,0-1.061-0.005-1.578,0.002
			c-0.188,0.003-0.18-0.075-0.12-0.207c0.132-0.29,0.507-0.505,0.851-0.482C44.492,26.244,44.764,26.457,44.911,26.903z"/>
		<path fill-rule="evenodd" clip-rule="evenodd" fill="#F8F8F8" d="M93.54,26.903c-0.543,0-1.06-0.005-1.577,0.002
			c-0.221,0.004-0.177-0.099-0.114-0.227c0.139-0.281,0.499-0.482,0.834-0.464C93.105,26.239,93.377,26.448,93.54,26.903z"/>
		<path fill-rule="evenodd" clip-rule="evenodd" fill="#F8F8F8" d="M109.747,26.903c-0.542,0-1.06-0.005-1.576,0.002
			c-0.222,0.004-0.177-0.1-0.114-0.227c0.139-0.281,0.499-0.482,0.834-0.464C109.314,26.239,109.586,26.449,109.747,26.903z"/>
		<path fill-rule="evenodd" clip-rule="evenodd" fill="#F8F8F8" d="M55.635,28.328c-0.545-0.005-0.959-0.448-0.952-1.02
			c0.007-0.569,0.43-0.997,0.979-0.991c0.514,0.006,0.919,0.455,0.92,1.021C56.583,27.891,56.162,28.332,55.635,28.328z"/>
		<path fill-rule="evenodd" clip-rule="evenodd" fill="#F8F8F8" d="M117.55,27.299c0.001-0.546,0.433-0.99,0.956-0.983
			c0.525,0.006,0.934,0.442,0.939,1.001c0.006,0.576-0.409,1.015-0.956,1.01C117.948,28.323,117.549,27.886,117.55,27.299z"/>
	</g>
</g>
</svg>
