<?xml version="1.0" encoding="utf-8"?>
<!-- Generator: Adobe Illustrator 16.0.0, SVG Export Plug-In . SVG Version: 6.00 Build 0)  -->
<!DOCTYPE svg PUBLIC "-//W3C//DTD SVG 1.1//EN" "http://www.w3.org/Graphics/SVG/1.1/DTD/svg11.dtd">
<svg version="1.1" id="Calque_41" xmlns="http://www.w3.org/2000/svg" xmlns:xlink="http://www.w3.org/1999/xlink" x="0px" y="0px"
	 width="113px" height="95.5px" viewBox="0 0 113 95.5" enable-background="new 0 0 113 95.5" xml:space="preserve">
<path fill="none" stroke="#FC5965" stroke-miterlimit="10" d="M26.469,49.906c0.098,0.198,4.703-0.609,4.703-0.609
	s3.374-5.119,10.935-5.25s13.98,4.624,15.854,9.58s1.53,11.113,1.53,11.113l11.13-0.37c0,0,1.251-4.749,5.253-6.435
	s8.062-0.562,8.938-0.187c0.844-0.844,1.854-2.188,1.937-4.125s0.002-7.749,0.002-7.749l-6.312,0.062l0.188-13.312L77.312,32.5
	l0.25,12.812l-19.938-1.938l-1.938-14.438c0,0,3.656-2.875,1.031-2.938S34.5,26,34.5,26v15C34.5,41,25.5,47.938,26.469,49.906z"/>
<path fill="none" stroke="#FC5965" stroke-miterlimit="10" d="M40,29.25c-0.956,0.46-2.812,2.062-2.5,5.938s1.812,5.875,2.75,5.875
	s9.83,1.395,10.5,1.188s3.125-1.5,2.812-4.5s-0.188-7.625-2.875-8.312S40.956,28.79,40,29.25z"/>
<circle fill="none" stroke="#FC5965" stroke-miterlimit="10" cx="42.84" cy="60.884" r="14.994"/>
<circle fill="none" stroke="#FC5965" stroke-miterlimit="10" cx="42.751" cy="60.584" r="9.75"/>
<circle fill="none" stroke="#FC5965" stroke-miterlimit="10" cx="80.422" cy="67.413" r="8.745"/>
<circle fill="none" stroke="#FC5965" stroke-miterlimit="10" cx="80.469" cy="67.281" r="5.656"/>
<line fill="none" stroke="#FC5965" stroke-width="0.7407" stroke-miterlimit="10" x1="78.375" y1="28.75" x2="80.625" y2="32.625"/>
</svg>
