<svg version="1.1" class="pictoBus" xmlns="http://www.w3.org/2000/svg" xmlns:xlink="http://www.w3.org/1999/xlink" x="0px" y="0px" width="200px" height="200px" viewBox="0 0 113 95.5" enable-background="new 0 0 113 95.5" xml:space="preserve">
	<g>
		<g>
			<path fill="none" stroke="#14A589" stroke-width="0.75" stroke-miterlimit="10" d="M72.047,36.754h-1.098v-1.949
				c0-2.116-1.715-3.833-3.83-3.833H51.657c-2.115,0-3.829,1.717-3.829,3.833v1.949h-1.097c-0.441,0-0.798,0.358-0.798,0.799v4.42
				c0,0.441,0.356,0.798,0.798,0.798h1.097v9.526c-0.427,0.384-0.694,0.939-0.694,1.558v1.477c0,1.154,0.935,2.09,2.088,2.09h0.259
				v2.103c0,0.339,0.274,0.614,0.614,0.614h2.826c0.34,0,0.614-0.275,0.614-0.614v-2.103h11.706v2.103
				c0,0.339,0.275,0.614,0.615,0.614h2.825c0.34,0,0.615-0.275,0.615-0.614v-2.103h0.259c1.153,0,2.089-0.936,2.089-2.09v-1.477
				c0-0.618-0.269-1.174-0.695-1.558v-9.526h1.098c0.438,0,0.797-0.357,0.797-0.798v-4.421
				C72.844,37.112,72.485,36.754,72.047,36.754z M55.326,32.971h8.126c0.562,0,1.021,0.457,1.021,1.021s-0.458,1.021-1.021,1.021
				h-8.126c-0.562,0-1.021-0.457-1.021-1.021S54.764,32.971,55.326,32.971z M53.843,50.702c0,0.557-0.452,1.008-1.006,1.008h-1.663
				c-0.554,0-1.004-0.451-1.004-1.008V49.58c0-0.555,0.45-1.006,1.004-1.006h1.663c0.554,0,1.006,0.451,1.006,1.006V50.702z
				 M58.344,46.496h-8.147v-9.431h8.147V46.496z M60.434,37.065h8.147v9.431h-8.147V37.065z M68.608,50.702
				c0,0.557-0.451,1.008-1.006,1.008h-1.661c-0.556,0-1.007-0.451-1.007-1.008V49.58c0-0.555,0.451-1.006,1.007-1.006h1.661
				c0.555,0,1.006,0.451,1.006,1.006V50.702z"/>
		</g>
	</g>
	<circle fill="none" stroke="#14A589" stroke-miterlimit="10" cx="59.356" cy="47.026" r="24.065"/>
</svg>
