<?xml version="1.0" encoding="utf-8"?>
<!-- Generator: Adobe Illustrator 16.0.0, SVG Export Plug-In . SVG Version: 6.00 Build 0)  -->
<!DOCTYPE svg PUBLIC "-//W3C//DTD SVG 1.1//EN" "http://www.w3.org/Graphics/SVG/1.1/DTD/svg11.dtd">
<svg version="1.1" id="Calque_39" xmlns="http://www.w3.org/2000/svg" xmlns:xlink="http://www.w3.org/1999/xlink" x="0px" y="0px"
	 width="113px" height="95.5px" viewBox="0 0 113 95.5" enable-background="new 0 0 113 95.5" xml:space="preserve">
<path fill="none" stroke="#FC5965" stroke-miterlimit="10" d="M40.916,43.293c0,0,0.292,4.812-0.541,9.729S36.5,67.835,36.5,71.501
	s0,6.999,0,6.999H63c0,0,0.666-5.583-0.167-9.583s-3.834-11.416-4.25-15.166s-0.75-11-0.75-11s1.666-1.834-8.5-1.834
	C44.75,40.917,39.479,41.855,40.916,43.293z"/>
<path fill="none" stroke="#FC5965" stroke-miterlimit="10" d="M78.104,73.156c0.484-0.275-1.271-9.613-1.854-12.197
	s-2.167-9.979-1.917-11.979c0.417-0.418,1.084-1.99-6.083-1.74c-3.917,0.25-8.667,1.172-7.25,1.839
	c0.167,2.083,0.083,8.419-0.667,10.752c0.417,2.5,2.919,9.544,2.919,12.377c-0.001,1.25,0.081,1.376,0.081,1.376
	S77.619,73.432,78.104,73.156z"/>
<g>
	
		<path fill="none" stroke="#FC5965" stroke-width="0.822" stroke-linecap="round" stroke-linejoin="round" stroke-miterlimit="10" d="
		M41.671,25.336c-2.907,0.308-5.172,2.767-5.172,5.755c0,3.196,2.591,5.787,5.788,5.787c0.977,0,1.896-0.244,2.703-0.672"/>
	
		<path fill="none" stroke="#FC5965" stroke-width="0.822" stroke-linecap="round" stroke-linejoin="round" stroke-miterlimit="10" d="
		M53.643,28.65c0.635,0.93,1.008,2.052,1.008,3.263c0,3.196-2.591,5.787-5.787,5.787c-1.492,0-2.846-0.568-3.873-1.494"/>
	
		<path fill="none" stroke="#FC5965" stroke-width="0.822" stroke-linecap="round" stroke-linejoin="round" stroke-miterlimit="10" d="
		M44.99,36.206"/>
	
		<path fill="none" stroke="#FC5965" stroke-width="0.822" stroke-linecap="round" stroke-linejoin="round" stroke-miterlimit="10" d="
		M44.99,36.206"/>
	
		<path fill="none" stroke="#FC5965" stroke-width="0.822" stroke-linecap="round" stroke-linejoin="round" stroke-miterlimit="10" d="
		M53.643,28.65c0.051,0.002,0.101,0.008,0.152,0.008c3.196,0,5.787-2.591,5.787-5.787c0-3.197-2.591-5.788-5.787-5.788
		c-1.492,0-2.846,0.568-3.872,1.494"/>
	
		<path fill="none" stroke="#FC5965" stroke-width="0.822" stroke-linecap="round" stroke-linejoin="round" stroke-miterlimit="10" d="
		M53.643,28.65"/>
	
		<path fill="none" stroke="#FC5965" stroke-width="0.822" stroke-linecap="round" stroke-linejoin="round" stroke-miterlimit="10" d="
		M53.643,28.65"/>
	
		<path fill="none" stroke="#FC5965" stroke-width="0.822" stroke-linecap="round" stroke-linejoin="round" stroke-miterlimit="10" d="
		M41.671,25.336c-0.154-0.521-0.24-1.071-0.24-1.643c0-3.197,2.591-5.788,5.788-5.788c0.977,0,1.896,0.244,2.704,0.672"/>
	
		<path fill="none" stroke="#FC5965" stroke-width="0.822" stroke-linecap="round" stroke-linejoin="round" stroke-miterlimit="10" d="
		M41.671,25.336"/>
	
		<path fill="none" stroke="#FC5965" stroke-width="0.822" stroke-linecap="round" stroke-linejoin="round" stroke-miterlimit="10" d="
		M49.923,18.577"/>
	
		<path fill="none" stroke="#FC5965" stroke-width="0.822" stroke-linecap="round" stroke-linejoin="round" stroke-miterlimit="10" d="
		M49.923,18.577"/>
</g>
<g>
	
		<path fill="none" stroke="#FC5965" stroke-width="0.4498" stroke-linecap="round" stroke-linejoin="round" stroke-miterlimit="10" d="
		M52.388,12.912c-0.393,0.565-1.067,0.858-1.716,0.676c-0.837-0.236-1.307-1.17-1.047-2.086c0.196-0.701,0.76-1.184,1.388-1.271"/>
	
		<path fill="none" stroke="#FC5965" stroke-width="0.4498" stroke-linecap="round" stroke-linejoin="round" stroke-miterlimit="10" d="
		M52.388,12.912c0.086,0.035,0.167,0.076,0.257,0.104c1.245,0.35,2.549-0.408,2.91-1.693c0.363-1.285-0.354-2.612-1.599-2.963
		c-1.246-0.35-2.55,0.407-2.911,1.693c-0.018,0.059-0.021,0.118-0.032,0.178"/>
</g>
</svg>
