<?xml version="1.0" encoding="utf-8"?>
<!-- Generator: Adobe Illustrator 16.0.0, SVG Export Plug-In . SVG Version: 6.00 Build 0)  -->
<!DOCTYPE svg PUBLIC "-//W3C//DTD SVG 1.1//EN" "http://www.w3.org/Graphics/SVG/1.1/DTD/svg11.dtd">
<svg version="1.1" id="Calque_44" xmlns="http://www.w3.org/2000/svg" xmlns:xlink="http://www.w3.org/1999/xlink" x="0px" y="0px"
	 width="113px" height="95.5px" viewBox="0 0 113 95.5" enable-background="new 0 0 113 95.5" xml:space="preserve">
<polygon fill="none" stroke="#FC5965" stroke-miterlimit="10" points="17.5,82.5 17.5,54.5 33.5,63.47 33.5,54.5 50.34,63.47 
	50.127,55 66.5,63.167 66.5,54.5 83.293,63.47 83.501,82.734 "/>
<polygon fill="none" stroke="#FC5965" stroke-miterlimit="10" points="38.442,55.665 39.687,23.334 44.257,23.165 45.646,59.327 "/>
<polygon fill="none" stroke="#FC5965" stroke-miterlimit="10" points="56.171,28 54.908,55.738 62.141,59.521 61,28.268 "/>
<g>
	
		<path fill="none" stroke="#FC5965" stroke-width="0.5745" stroke-linecap="round" stroke-linejoin="round" stroke-miterlimit="10" d="
		M33.312,12.396c-1.627-1.236-3.958-1.071-5.39,0.448c-1.532,1.626-1.456,4.186,0.17,5.719c0.497,0.468,1.081,0.785,1.696,0.954"/>
	
		<path fill="none" stroke="#FC5965" stroke-width="0.5745" stroke-linecap="round" stroke-linejoin="round" stroke-miterlimit="10" d="
		M37.812,19.82c-0.122,0.778-0.47,1.527-1.051,2.144c-1.532,1.626-4.093,1.701-5.718,0.169c-0.759-0.715-1.175-1.653-1.255-2.616"/>
	
		<path fill="none" stroke="#FC5965" stroke-width="0.5745" stroke-linecap="round" stroke-linejoin="round" stroke-miterlimit="10" d="
		M29.788,19.517"/>
	
		<path fill="none" stroke="#FC5965" stroke-width="0.5745" stroke-linecap="round" stroke-linejoin="round" stroke-miterlimit="10" d="
		M29.788,19.517"/>
	
		<path fill="none" stroke="#FC5965" stroke-width="0.5745" stroke-linecap="round" stroke-linejoin="round" stroke-miterlimit="10" d="
		M37.812,19.82c0.026,0.026,0.048,0.053,0.074,0.077c1.626,1.532,4.186,1.456,5.718-0.17s1.457-4.186-0.169-5.718
		c-0.759-0.716-1.72-1.075-2.686-1.096"/>
	
		<path fill="none" stroke="#FC5965" stroke-width="0.5745" stroke-linecap="round" stroke-linejoin="round" stroke-miterlimit="10" d="
		M37.812,19.82"/>
	
		<path fill="none" stroke="#FC5965" stroke-width="0.5745" stroke-linecap="round" stroke-linejoin="round" stroke-miterlimit="10" d="
		M37.812,19.82"/>
	
		<path fill="none" stroke="#FC5965" stroke-width="0.5745" stroke-linecap="round" stroke-linejoin="round" stroke-miterlimit="10" d="
		M33.312,12.396c0.171-0.339,0.392-0.659,0.665-0.95c1.533-1.627,4.093-1.702,5.719-0.17c0.496,0.468,0.848,1.034,1.054,1.639"/>
	
		<path fill="none" stroke="#FC5965" stroke-width="0.5745" stroke-linecap="round" stroke-linejoin="round" stroke-miterlimit="10" d="
		M33.312,12.396"/>
	
		<path fill="none" stroke="#FC5965" stroke-width="0.5745" stroke-linecap="round" stroke-linejoin="round" stroke-miterlimit="10" d="
		M40.749,12.914"/>
	
		<path fill="none" stroke="#FC5965" stroke-width="0.5745" stroke-linecap="round" stroke-linejoin="round" stroke-miterlimit="10" d="
		M40.749,12.914"/>
</g>
</svg>
