<svg version="1.1" class="pictoPieton" xmlns="http://www.w3.org/2000/svg" xmlns:xlink="http://www.w3.org/1999/xlink" x="0px"
	 y="0px" width="200px" height="200px" viewBox="0 0 113 95.5" enable-background="new 0 0 113 95.5" xml:space="preserve">
<g id="Forma_1_35_">
	<g>
		<path fill="none" stroke="#14A589" stroke-width="0.75" stroke-miterlimit="10" d="M55.968,36.97c1.681,0,3.041-1.375,3.041-3.072
			s-1.36-3.072-3.041-3.072c-1.679,0-3.042,1.375-3.042,3.072S54.289,36.97,55.968,36.97z M64.342,43.148
			c-2.044-1.837-4.237-3.485-6.636-4.812c-0.259-0.197-0.554-0.353-0.865-0.456c-0.21-0.083-0.414-0.125-0.61-0.13
			c-0.329-0.04-0.66-0.022-0.962,0.06c-0.799,0.216-1.337,0.709-1.642,1.336c-1.479,1.743-2.714,3.638-3.822,5.644
			c-1.101,1.984,1.915,3.764,3.014,1.777c0.345-0.621,0.698-1.232,1.067-1.834c0.318,2.17,0.638,4.343,0.955,6.512
			c0.064,0.44,0.272,0.819,0.561,1.127c0.465,3.09,1.315,6.138,2.656,8.943c0.976,2.047,3.986,0.258,3.014-1.781
			c-1.002-2.095-1.671-4.414-2.083-6.753c0.905-0.639,1.234-1.787,1.064-2.946c-0.316-2.144-0.629-4.288-0.944-6.432
			c0.954,0.695,1.875,1.441,2.763,2.238C63.55,47.147,66.028,44.664,64.342,43.148z M49.882,58.193
			c-0.479,0.829-0.455,1.852,0.37,2.465c0.705,0.524,1.959,0.457,2.441-0.371c0.996-1.717,2.803-3.009,2.803-3.009
			s-0.665-1.48-0.98-4.253C50.991,56.262,51.038,56.202,49.882,58.193z"/>
	</g>
</g>
<circle fill="none" stroke="#14A589" stroke-miterlimit="10" cx="57.075" cy="46.306" r="24.066"/>
</svg>
