<?xml version="1.0" encoding="utf-8"?>
<!-- Generator: Adobe Illustrator 16.0.0, SVG Export Plug-In . SVG Version: 6.00 Build 0)  -->
<!DOCTYPE svg PUBLIC "-//W3C//DTD SVG 1.1//EN" "http://www.w3.org/Graphics/SVG/1.1/DTD/svg11.dtd">
<svg version="1.1" id="Calque_46" xmlns="http://www.w3.org/2000/svg" xmlns:xlink="http://www.w3.org/1999/xlink" x="0px" y="0px"
	 width="113px" height="95.5px" viewBox="0 0 113 95.5" enable-background="new 0 0 113 95.5" xml:space="preserve">
<polygon fill="none" stroke="#FC5965" stroke-miterlimit="10" points="22.832,73.666 23.167,54.667 20.751,56.333 17.959,52.667 
	40.479,34.667 47.5,40.333 47.5,35 53.5,35.167 53.5,44 63.335,51.833 61.001,56 58.668,53.833 58.335,73.333 "/>
<rect x="45.5" y="61.5" fill="none" stroke="#FC5965" stroke-miterlimit="10" width="8" height="12"/>
<rect x="29.5" y="56.5" fill="none" stroke="#FC5965" stroke-miterlimit="10" width="8" height="8"/>
<rect x="66.5" y="22.5" fill="none" stroke="#FC5965" stroke-miterlimit="10" width="31" height="50"/>
<rect x="78.5" y="59.5" fill="none" stroke="#FC5965" stroke-miterlimit="10" width="7" height="13"/>
<rect x="69.5" y="47.5" fill="none" stroke="#FC5965" stroke-miterlimit="10" width="7" height="7"/>
<rect x="78.5" y="47.5" fill="none" stroke="#FC5965" stroke-miterlimit="10" width="7" height="7"/>
<rect x="87.5" y="47.5" fill="none" stroke="#FC5965" stroke-miterlimit="10" width="7" height="7"/>
<rect x="88.5" y="59.5" fill="none" stroke="#FC5965" stroke-miterlimit="10" width="6" height="6"/>
<rect x="69.5" y="59.5" fill="none" stroke="#FC5965" stroke-miterlimit="10" width="6" height="6"/>
<rect x="69.5" y="36.5" fill="none" stroke="#FC5965" stroke-miterlimit="10" width="7" height="7"/>
<rect x="78.5" y="36.5" fill="none" stroke="#FC5965" stroke-miterlimit="10" width="7" height="7"/>
<rect x="87.5" y="36.5" fill="none" stroke="#FC5965" stroke-miterlimit="10" width="7" height="7"/>
<rect x="69.5" y="25.5" fill="none" stroke="#FC5965" stroke-miterlimit="10" width="7" height="7"/>
<rect x="78.5" y="25.5" fill="none" stroke="#FC5965" stroke-miterlimit="10" width="7" height="7"/>
<rect x="87.5" y="25.5" fill="none" stroke="#FC5965" stroke-miterlimit="10" width="7" height="7"/>
</svg>
