<?xml version="1.0" encoding="utf-8"?>
<!-- Generator: Adobe Illustrator 16.0.0, SVG Export Plug-In . SVG Version: 6.00 Build 0)  -->
<!DOCTYPE svg PUBLIC "-//W3C//DTD SVG 1.1//EN" "http://www.w3.org/Graphics/SVG/1.1/DTD/svg11.dtd">
<svg version="1.1" id="Calque_36" xmlns="http://www.w3.org/2000/svg" xmlns:xlink="http://www.w3.org/1999/xlink" x="0px" y="0px"
	 width="113px" height="95.5px" viewBox="0 0 113 95.5" enable-background="new 0 0 113 95.5" xml:space="preserve">
<path fill="none" stroke="#FC5965" stroke-width="1.0723" stroke-miterlimit="10" d="M67.528,30.687L66.684,61.14
	c0,0,0.24,7.743-1.517,8.42c-1.758,0.678-13.249-0.218-13.249-0.218s2.405-4.12,0.029-7.708c-2.376-3.587-7.078-2.816-8.23-1.927
	c-0.165-2.698-1.532-27.718-1.532-27.718s-4.273,0.438-4.356-1.348c-0.084-1.785,9.145-1.5,11.464-1.608s17.893-0.938,19.225-0.166
	C69.849,29.639,67.528,30.687,67.528,30.687z"/>
<path fill="none" stroke="#FC5965" stroke-width="1.0723" stroke-miterlimit="10" d="M65.16,23.426
	c0.017,0.357,3.916-0.42,3.982,1.008c0.067,1.429-1.135,1.245-3.396,1.351c-2.26,0.105-23.926,0.998-23.926,0.998
	s-2.369,0.349-2.447-1.317c-0.077-1.667,1.984-0.928,1.984-0.928c0.296-1.325,0.714-5.162,4.301-4.972s17.091,0.753,17.091,0.753
	S65.01,20.213,65.16,23.426z"/>
<circle fill="none" stroke="#FC5965" stroke-width="0.932" stroke-miterlimit="10" cx="46.783" cy="65.094" r="4.452"/>
<circle fill="none" stroke="#FC5965" stroke-width="0.932" stroke-miterlimit="10" cx="46.942" cy="65.139" r="2.537"/>
<g id="Calque_37">
	<path fill="none" stroke="#FC5965" stroke-width="0.7148" stroke-miterlimit="10" d="M49.61,49.301c0,0-0.073-1.092,0.213-1.664
		s1.227-1.98,1.227-1.98l1.264,0.701l-1.63-2.809l-3.319-0.203l1.004,0.893c0,0-0.935,1.05-0.438,2.111
		C48.427,47.411,49.61,49.301,49.61,49.301z"/>
	<path fill="none" stroke="#FC5965" stroke-width="0.7148" stroke-miterlimit="10" d="M54.335,48.325l-0.086,3.017
		c0,0-2.474,0.26-3.164-0.596c-0.689-0.855-0.452-2.111-0.346-2.383C51.206,48.308,54.335,48.325,54.335,48.325z"/>
	<path fill="none" stroke="#FC5965" stroke-width="0.7148" stroke-miterlimit="10" d="M54.11,37.773c0,0,0.912,0.604,1.193,1.18
		c0.281,0.574,0.829,2.177,0.829,2.177l-1.323,0.577l3.221,0.411l2.177-2.514l-1.319,0.255c0,0-0.267-1.38-1.41-1.631
		C56.332,37.979,54.11,37.773,54.11,37.773z"/>
	<path fill="none" stroke="#FC5965" stroke-width="0.7148" stroke-miterlimit="10" d="M52.018,42.119l-2.346-1.9
		c0,0,1.297-2.123,2.396-2.152c1.099-0.028,1.952,0.924,2.102,1.172C53.932,39.645,52.018,42.119,52.018,42.119z"/>
	<path fill="none" stroke="#FC5965" stroke-width="0.7148" stroke-miterlimit="10" d="M61.452,47.313c0,0-0.87,0.664-1.504,0.739
		c-0.638,0.079-2.328,0.073-2.328,0.073l-0.112-1.441l-1.443,2.911l1.662,2.88l0.192-1.33c0,0,1.389,0.198,1.999-0.8
		C60.53,49.344,61.452,47.313,61.452,47.313z"/>
	<path fill="none" stroke="#FC5965" stroke-width="0.7148" stroke-miterlimit="10" d="M58.03,43.913l2.563-1.596
		c0,0,1.583,1.922,1.251,2.97c-0.335,1.047-1.513,1.542-1.797,1.603C59.742,46.532,58.03,43.913,58.03,43.913z"/>
</g>
</svg>
