<?xml version="1.0" encoding="utf-8"?>
<!-- Generator: Adobe Illustrator 16.0.0, SVG Export Plug-In . SVG Version: 6.00 Build 0)  -->
<!DOCTYPE svg PUBLIC "-//W3C//DTD SVG 1.1//EN" "http://www.w3.org/Graphics/SVG/1.1/DTD/svg11.dtd">
<svg version="1.1" id="Calque_31" xmlns="http://www.w3.org/2000/svg" xmlns:xlink="http://www.w3.org/1999/xlink" x="0px" y="0px"
	 width="200px" height="200px" viewBox="0 0 113 95.5" enable-background="new 0 0 113 95.5" xml:space="preserve">
<g id="Forma_1_27_">
	<g>
		<path fill="none" stroke="#14A589" stroke-width="0.75" stroke-miterlimit="10" d="M71.008,61.493l-4.712-8.581
			c1.337-0.211,2.321-1.406,2.321-2.743V37.51c0-3.376-2.744-6.119-6.119-6.119h-8.021c-3.375,0-6.19,2.743-6.19,6.189v12.589
			c0,1.407,0.984,2.532,2.323,2.743l-4.644,8.581c-0.352,0.703-0.141,1.547,0.563,1.898c0.21,0.141,0.421,0.141,0.631,0.141
			c0.494,0,0.985-0.281,1.197-0.703l0.422-0.704h19.416l0.421,0.704c0.282,0.492,0.704,0.703,1.197,0.703
			c0.21,0,0.421-0.07,0.632-0.141C71.149,63.04,71.36,62.196,71.008,61.493z M54.618,34.415h7.669c2.11,0,3.938,1.759,3.938,3.938
			v3.376c0,0.774-0.634,1.336-1.406,1.336H52.156c-0.772,0-1.335-0.632-1.335-1.336l-0.071-3.376
			C50.75,36.174,52.509,34.415,54.618,34.415z M64.185,50.451c-1.125,0-2.037-0.916-2.037-2.041s0.912-2.039,2.037-2.039
			c1.126,0,2.041,0.914,2.041,2.039C66.226,49.466,65.311,50.451,64.185,50.451z M64.397,55.162H52.579l1.195-2.18h9.427
			L64.397,55.162z M52.791,46.301c1.125,0,2.038,0.915,2.038,2.04s-0.913,2.04-2.038,2.04c-1.126,0-2.041-0.915-2.041-2.04
			S51.665,46.301,52.791,46.301z M49.905,60.016l1.548-2.743h14.069l1.548,2.743H49.905z"/>
	</g>
</g>
<circle fill="none" stroke="#14A589" stroke-miterlimit="10" cx="58.487" cy="48.026" r="24.065"/>
</svg>
