<?xml version="1.0" encoding="utf-8"?>
<!-- Generator: Adobe Illustrator 16.0.0, SVG Export Plug-In . SVG Version: 6.00 Build 0)  -->
<!DOCTYPE svg PUBLIC "-//W3C//DTD SVG 1.1//EN" "http://www.w3.org/Graphics/SVG/1.1/DTD/svg11.dtd">
<svg version="1.1" id="Calque_32" xmlns="http://www.w3.org/2000/svg" xmlns:xlink="http://www.w3.org/1999/xlink" x="0px" y="0px"
	 width="200px" height="200px" viewBox="0 0 113 95.5" enable-background="new 0 0 113 95.5" xml:space="preserve">
<g id="Forma_1_29_">
	<g>
		<path fill="none" stroke="#14A589" stroke-width="0.75" stroke-miterlimit="10" d="M64.343,34.248
			c0.343,0,0.686,0.343,0.686,0.685c0,0.547,0.479,1.027,1.027,1.027c0.549,0,1.028-0.48,1.028-1.027
			c0-1.506-1.234-2.738-2.741-2.738H49.266c-1.508,0-2.742,1.232-2.742,2.738c0,0.547,0.48,1.027,1.029,1.027
			c0.548,0,1.027-0.48,1.027-1.027c0-0.41,0.274-0.685,0.686-0.685h6.51v2.671h-2.946c-3.358,0-6.03,2.737-6.03,6.024v12.325
			c0,1.368,0.959,2.532,2.329,2.738l-1.986,3.766c-0.343,0.684-0.068,1.507,0.548,1.849c0.204,0.137,0.411,0.137,0.616,0.137
			c0.48,0,0.96-0.272,1.233-0.752l0.411-0.822H63.52l0.411,0.822c0.275,0.479,0.755,0.752,1.234,0.752
			c0.205,0,0.411-0.068,0.616-0.137c0.686-0.342,0.961-1.165,0.55-1.849l-1.988-3.766c1.302-0.206,2.329-1.37,2.329-2.738V43.012
			c0.139-3.355-2.604-6.025-5.894-6.025h-2.947v-2.738H64.343z M49.196,53.556c0-1.095,0.891-1.985,1.987-1.985
			s1.988,0.891,1.988,1.985c0,1.096-0.892,1.986-1.988,1.986S49.196,54.651,49.196,53.556z M51.048,60.266l1.096-2.122h9.252
			l1.097,2.122H51.048z M62.425,55.61c-1.099,0-1.989-0.89-1.989-1.986c0-1.095,0.891-1.985,1.989-1.985
			c1.095,0,1.986,0.891,1.986,1.985C64.411,54.721,63.52,55.61,62.425,55.61z M60.642,40c2.125,0,3.838,1.71,3.838,3.765v3.354
			c0,0.754-0.616,1.303-1.371,1.303H50.567c-0.754,0-1.371-0.549-1.371-1.303c0.069,0,0.069-3.354,0.069-3.354
			c0-2.123,1.713-3.765,3.837-3.765H60.642z"/>
	</g>
</g>
<circle fill="none" stroke="#14A589" stroke-miterlimit="10" cx="56.498" cy="48.526" r="24.065"/>
</svg>
