<?xml version="1.0" encoding="utf-8"?>
<!-- Generator: Adobe Illustrator 16.0.0, SVG Export Plug-In . SVG Version: 6.00 Build 0)  -->
<!DOCTYPE svg PUBLIC "-//W3C//DTD SVG 1.1//EN" "http://www.w3.org/Graphics/SVG/1.1/DTD/svg11.dtd">
<svg version="1.1" id="Pictos_transports" xmlns="http://www.w3.org/2000/svg" xmlns:xlink="http://www.w3.org/1999/xlink" x="0px"
	 y="0px" width="113px" height="95.5px" viewBox="0 0 113 95.5" enable-background="new 0 0 113 95.5" xml:space="preserve">
<g id="Forma_1_33_">
	<g>
		<path fill="none" stroke="#14A589" stroke-width="0.75" stroke-miterlimit="10" d="M75.8,42.422h-2.636
			c-0.202,0-0.396,0.077-0.54,0.218l-0.562,0.539c-0.95-2.197-2.159-4.001-3.918-6.313c-2.203-2.898-6.584-3.478-9.541-3.478
			c0,0-6.876,0.023-9.283,3.194c-1.813,2.385-3.256,4.417-4.183,6.588l-0.555-0.53c-0.146-0.141-0.339-0.218-0.539-0.218h-2.636
			c-0.43,0-0.779,0.349-0.779,0.779v1.804c0,0.411,0.32,0.752,0.73,0.778l2.709,0.17c-0.409,1.199-0.729,2.984-0.729,5.5
			c0,2.184,0.436,3.619,1.194,4.548v4.204c0,0.361,0.292,0.653,0.651,0.653h3.001c0.358,0,0.652-0.292,0.652-0.653v-2.61h19.53v2.61
			c0,0.361,0.292,0.653,0.652,0.653h3c0.36,0,0.651-0.292,0.651-0.653v-4.204c0.759-0.929,1.195-2.364,1.195-4.548
			c0-2.516-0.319-4.301-0.729-5.5l2.71-0.17c0.409-0.026,0.729-0.367,0.729-0.778v-1.804C76.578,42.771,76.229,42.422,75.8,42.422z
			 M51.52,38.381c0.445-0.544,1.104-0.856,1.807-0.856h10.556c0.702,0,1.36,0.312,1.807,0.856c1.286,1.573,2.3,3.08,3.087,4.58
			l-20.36,0.004C49.183,41.497,50.204,39.991,51.52,38.381z M49.301,54.402c-1.492,0-2.703-0.487-2.703-1.672
			s1.228-2.702,2.721-2.726c2.073-0.034,2.686,1.541,2.686,2.726S50.794,54.402,49.301,54.402z M61.438,54.156h-5.667
			c-0.855,0-1.55-0.696-1.55-1.552c0-0.24,0.193-0.434,0.434-0.434h7.898c0.24,0,0.434,0.193,0.434,0.434
			C62.986,53.46,62.292,54.156,61.438,54.156z M68.271,54.402c-1.492,0-2.703-0.487-2.703-1.672s1.228-2.702,2.72-2.726
			c2.075-0.034,2.687,1.541,2.687,2.726S69.766,54.402,68.271,54.402z"/>
	</g>
</g>
</svg>
