<?xml version="1.0" encoding="UTF-8" standalone="no"?>
<!-- Generator: Adobe Illustrator 18.1.1, SVG Export Plug-In . SVG Version: 6.00 Build 0)  -->

<svg
   xmlns:dc="http://purl.org/dc/elements/1.1/"
   xmlns:cc="http://creativecommons.org/ns#"
   xmlns:rdf="http://www.w3.org/1999/02/22-rdf-syntax-ns#"
   xmlns:svg="http://www.w3.org/2000/svg"
   xmlns="http://www.w3.org/2000/svg"
   xmlns:sodipodi="http://sodipodi.sourceforge.net/DTD/sodipodi-0.dtd"
   xmlns:inkscape="http://www.inkscape.org/namespaces/inkscape"
   version="1.1"
   id="Calque_1"
   x="0px"
   y="0px"
   viewBox="0 0 55 55"
   enable-background="new 0 0 226.8 283.5"
   xml:space="preserve"
   inkscape:version="0.48.3.1 r9886"
   width="100%"
   height="100%"
   sodipodi:docname="Bio.svg"><metadata
   id="metadata22"><rdf:RDF><cc:Work
       rdf:about=""><dc:format>image/svg+xml</dc:format><dc:type
         rdf:resource="http://purl.org/dc/dcmitype/StillImage" /></cc:Work></rdf:RDF></metadata><defs
   id="defs20" /><sodipodi:namedview
   pagecolor="#ffffff"
   bordercolor="#666666"
   borderopacity="1"
   objecttolerance="10"
   gridtolerance="10"
   guidetolerance="10"
   inkscape:pageopacity="0"
   inkscape:pageshadow="2"
   inkscape:window-width="1600"
   inkscape:window-height="854"
   id="namedview18"
   showgrid="false"
   inkscape:zoom="1.664903"
   inkscape:cx="141.71511"
   inkscape:cy="88.492861"
   inkscape:window-x="0"
   inkscape:window-y="24"
   inkscape:window-maximized="1"
   inkscape:current-layer="Calque_1" />
<g
   id="biomasse"
   transform="translate(-85.890889,-113.17796)">
	<g
   id="g4">
		<path
   d="m 106,141.8 c 0,0 0.1,0.1 0.1,0.1 0,0 0,0 0,-0.1 0,0 -0.1,0 -0.1,0 z"
   id="path6"
   inkscape:connector-curvature="0"
   style="fill:#64b33e" />
		<path
   d="m 104.2,140.5 c 0,0 0,-0.1 0,0 0,-0.1 -0.1,-0.1 -0.2,-0.2 0.1,0.1 0.1,0.1 0.2,0.2 z"
   id="path8"
   inkscape:connector-curvature="0"
   style="fill:#64b33e" />
		<path
   d="m 107.5,136.2 c 0,0 0,0 0,0 0,0 0,0 0,0 0,0 0,0 0,0 z"
   id="path10"
   inkscape:connector-curvature="0"
   style="fill:#64b33e" />
		<path
   d="m 110.3,138.3 c 0,0 0,0 0,0 0,0 0,0 0,0 0,0 0,0 0,0 z"
   id="path12"
   inkscape:connector-curvature="0"
   style="fill:#64b33e" />
		<path
   d="m 125.4,132.3 c -0.2,-0.1 -0.4,-0.2 -0.7,-0.3 -0.3,-0.1 -0.7,-0.2 -1.2,-0.3 -0.4,0 -0.9,-0.1 -1.5,0 -0.5,0 -1.1,0.2 -1.6,0.3 -0.6,0.1 -1.1,0.4 -1.6,0.7 -0.5,0.3 -1,0.6 -1.5,1 -0.5,0.4 -0.9,0.8 -1.3,1.3 -0.4,0.5 -0.8,0.9 -1,1.5 -0.3,0.5 -0.6,1 -0.7,1.6 -0.4,1.1 -0.6,2.2 -0.6,3.1 0,0.5 0,1 0.1,1.4 0.1,0.4 0.2,0.8 0.2,1.1 0,0.1 0.1,0.3 0.1,0.4 0.1,-0.2 0.2,-0.3 0.3,-0.5 0.5,-1 1.2,-2.2 2,-3.4 0.4,-0.6 0.9,-1.1 1.3,-1.6 0.2,-0.2 0.5,-0.5 0.7,-0.7 0.2,-0.2 0.4,-0.4 0.6,-0.6 0.2,-0.2 0.4,-0.3 0.6,-0.4 0.2,-0.1 0.3,-0.2 0.5,-0.3 0.3,-0.2 0.4,-0.2 0.4,-0.2 0,0 -0.1,0.1 -0.4,0.3 -0.1,0.1 -0.3,0.2 -0.4,0.3 -0.2,0.1 -0.3,0.3 -0.5,0.5 -0.2,0.2 -0.4,0.4 -0.6,0.6 -0.2,0.2 -0.4,0.5 -0.6,0.7 -0.4,0.5 -0.8,1.1 -1.1,1.7 -0.7,1.2 -1.3,2.5 -1.7,3.4 -0.1,0.2 -0.1,0.3 -0.2,0.4 -0.5,1.1 -0.7,2.3 -0.9,3.3 -0.3,-1 -0.8,-2.1 -1.5,-3.2 -0.1,-0.1 0.6,-0.5 0.7,-0.3 0,-0.1 0,-0.3 0,-0.4 0,-0.3 0.1,-0.7 0,-1.1 0,-0.4 -0.1,-0.9 -0.2,-1.4 -0.2,-1 -0.6,-2 -1.1,-3 -0.3,-0.5 -0.6,-1 -1,-1.4 -0.4,-0.5 -0.8,-0.9 -1.3,-1.2 -0.5,-0.4 -1,-0.7 -1.5,-1 -0.6,-0.3 -1.1,-0.5 -1.7,-0.7 -0.6,-0.2 -1.1,-0.3 -1.7,-0.3 -0.6,0 -1.1,0 -1.6,0 -0.5,0.1 -1,0.2 -1.4,0.3 -0.4,0.1 -0.8,0.3 -1.1,0.5 -0.3,0.1 -0.5,0.3 -0.7,0.4 -0.2,0.1 -0.2,0.2 -0.2,0.2 0,0 0,0.1 0.1,0.3 0.1,0.2 0.2,0.4 0.4,0.7 0.1,0.3 0.3,0.6 0.5,0.9 0.2,0.3 0.4,0.7 0.6,1 0.1,0.1 0.2,0.3 0.2,0.4 0,0.1 0.1,0.3 0.3,0.4 0.1,0.1 0.1,0.2 0.2,0.3 0.2,0.3 0.5,0.7 0.8,1 0.6,0.7 1.2,1.3 1.9,1.9 0.4,0.3 0.7,0.5 1.1,0.8 0.4,0.3 0.8,0.5 1.2,0.7 0.4,0.2 0.9,0.4 1.3,0.5 0.4,0.2 0.9,0.3 1.3,0.4 0.4,0.1 0.9,0.2 1.3,0.3 0.3,0.1 0.5,0.1 0.8,0.1 2.2,3.1 2.2,7.2 2.2,7.3 h 0.1 c 0,0.1 0,0.1 0,0.1 l 0.6,-0.1 h 0 v 0 l 0.1,0 c 0,-0.1 -0.8,-4.1 0.8,-7.5 0.2,-0.1 0.5,-0.2 0.7,-0.3 0.4,-0.1 0.8,-0.3 1.2,-0.5 0.4,-0.2 0.8,-0.4 1.2,-0.7 0.4,-0.2 0.8,-0.5 1.2,-0.8 0.4,-0.3 0.7,-0.6 1.1,-0.9 0.3,-0.3 0.7,-0.6 1,-1 0.6,-0.7 1.1,-1.4 1.5,-2.2 0.2,-0.4 0.4,-0.8 0.6,-1.2 0.2,-0.4 0.3,-0.8 0.5,-1.2 0.1,-0.4 0.3,-0.8 0.4,-1.1 0.1,-0.4 0.3,-0.7 0.4,-1 0.1,-0.3 0.2,-0.6 0.2,-0.7 0.1,-0.2 0.1,-0.3 0.1,-0.3 0,0 -0.1,-0.2 -0.3,-0.3 z m -21.2,8.2 c -0.1,-0.1 -0.1,-0.1 -0.2,-0.2 0.1,0.1 0.2,0.1 0.2,0.2 0,-0.1 0,0 0,0 z m 1.8,1.3 c 0,0 0.1,0 0.1,0 0,0 0,0 0,0.1 0,-0.1 -0.1,-0.1 -0.1,-0.1 z m 1.5,-5.6 c 0,0 0,0 0,0 0,0 0,0 0,0 0,0 0,0 0,0 z m 2.8,2.1 c 0,0 0,0 0,0 0,0 0,0 0,0 0,0 0,0 0,0 z"
   id="path14"
   inkscape:connector-curvature="0"
   style="fill:#64b33e" />
	</g>
	<circle
   stroke-miterlimit="10"
   cx="113.7"
   cy="141.8"
   r="24.6"
   id="circle16"
   d="m 138.3,141.8 c 0,13.58621 -11.0138,24.6 -24.6,24.6 -13.58621,0 -24.600003,-11.01379 -24.600003,-24.6 0,-13.5862 11.013793,-24.6 24.600003,-24.6 13.5862,0 24.6,11.0138 24.6,24.6 z"
   sodipodi:cx="113.7"
   sodipodi:cy="141.8"
   sodipodi:rx="24.6"
   sodipodi:ry="24.6"
   style="fill:none;stroke:#64b33e;stroke-miterlimit:10" />
</g>
</svg>