<?xml version="1.0" encoding="UTF-8" standalone="no"?>
<!-- Generator: Adobe Illustrator 18.1.1, SVG Export Plug-In . SVG Version: 6.00 Build 0)  -->

<svg
   xmlns:dc="http://purl.org/dc/elements/1.1/"
   xmlns:cc="http://creativecommons.org/ns#"
   xmlns:rdf="http://www.w3.org/1999/02/22-rdf-syntax-ns#"
   xmlns:svg="http://www.w3.org/2000/svg"
   xmlns="http://www.w3.org/2000/svg"
   xmlns:sodipodi="http://sodipodi.sourceforge.net/DTD/sodipodi-0.dtd"
   xmlns:inkscape="http://www.inkscape.org/namespaces/inkscape"
   version="1.1"
   id="Calque_1"
   x="0px"
   y="0px"
   viewBox="0 0 55 55"
   enable-background="new 0 0 226.8 283.5"
   xml:space="preserve"
   inkscape:version="0.48.3.1 r9886"
   width="100%"
   height="100%"
   sodipodi:docname="Solaire.svg"><metadata
   id="metadata32"><rdf:RDF><cc:Work
       rdf:about=""><dc:format>image/svg+xml</dc:format><dc:type
         rdf:resource="http://purl.org/dc/dcmitype/StillImage" /></cc:Work></rdf:RDF></metadata><defs
   id="defs30" /><sodipodi:namedview
   pagecolor="#ffffff"
   bordercolor="#666666"
   borderopacity="1"
   objecttolerance="10"
   gridtolerance="10"
   guidetolerance="10"
   inkscape:pageopacity="0"
   inkscape:pageshadow="2"
   inkscape:window-width="640"
   inkscape:window-height="480"
   id="namedview28"
   showgrid="false"
   inkscape:zoom="2.3545284"
   inkscape:cx="58.21293"
   inkscape:cy="10.285451"
   inkscape:window-x="0"
   inkscape:window-y="24"
   inkscape:window-maximized="0"
   inkscape:current-layer="Calque_1" />
<g
   id="solaire"
   transform="translate(-84.86554,-113.95453)">
	<path
   d="M 113.1,132.5"
   id="path4"
   inkscape:connector-curvature="0"
   style="fill:#ebde28" />
	<path
   d="m 119.8,134.5 c 0.1,0 0.3,0.1 0.4,0.1 l 0,0 c 0.6,0 1.1,-0.4 1.2,-0.9 l 0.7,-2.2 c 0,-0.1 0,-0.3 -0.1,-0.4 -0.1,-0.1 -0.3,-0.1 -0.4,0 l -2,1.1 c -0.3,0.2 -0.5,0.4 -0.6,0.7 -0.1,0.3 -0.1,0.7 0.1,1 0.1,0.2 0.4,0.4 0.7,0.6 l 0,0 z m 0,0"
   id="path6"
   inkscape:connector-curvature="0"
   style="fill:#e7e13c" />
	<path
   d="m 126.8,139.3 c 0,-0.1 -0.1,-0.3 -0.3,-0.3 l -2.3,-0.5 c -0.3,-0.1 -0.7,0 -0.9,0.2 -0.3,0.2 -0.5,0.5 -0.6,0.8 -0.1,0.3 0,0.7 0.2,1 0.2,0.4 0.6,0.6 1.1,0.6 0.2,0 0.5,-0.1 0.7,-0.2 l 2,-1.2 c 0.1,-0.1 0.1,-0.2 0.1,-0.4 l 0,0 z m 0,0"
   id="path8"
   inkscape:connector-curvature="0"
   style="fill:#e7e13c" />
	<path
   d="m 123.7,146.5 c -0.2,-0.3 -0.5,-0.4 -0.8,-0.5 -0.1,0 -0.1,0 -0.2,0 -0.6,0 -1.2,0.5 -1.3,1.1 0,0.3 0,0.7 0.2,1 0.2,0.3 0.5,0.5 0.9,0.5 l 2.3,0.3 c 0,0 0,0 0.1,0 0.1,0 0.3,-0.1 0.3,-0.2 0.1,-0.1 0.1,-0.3 0,-0.4 l -1.5,-1.8 z m 0,0"
   id="path10"
   inkscape:connector-curvature="0"
   style="fill:#e7e13c" />
	<path
   d="m 116.9,150.9 c -0.3,0 -0.6,0.1 -0.9,0.3 -0.3,0.2 -0.4,0.5 -0.4,0.9 0,0.3 0.1,0.7 0.3,0.9 l 1.5,1.7 c 0.1,0.1 0.2,0.1 0.3,0.1 0,0 0.1,0 0.1,0 0.1,-0.1 0.2,-0.2 0.2,-0.3 l 0.1,-2.3 c 0,-0.3 -0.1,-0.7 -0.3,-0.9 -0.2,-0.3 -0.6,-0.4 -0.9,-0.4 l 0,0 z m 0,0"
   id="path12"
   inkscape:connector-curvature="0"
   style="fill:#e7e13c" />
	<path
   d="m 109.3,150.9 c 0,0 -0.1,0 0,0 -0.4,0 -0.7,0.2 -0.9,0.4 -0.2,0.3 -0.4,0.6 -0.3,0.9 l 0.1,2.3 c 0,0.1 0.1,0.3 0.2,0.3 0,0 0.1,0 0.1,0 0.1,0 0.2,0 0.3,-0.1 l 1.5,-1.7 c 0.2,-0.2 0.3,-0.6 0.3,-0.9 -0.1,-0.7 -0.6,-1.2 -1.3,-1.2 l 0,0 z m 0,0"
   id="path14"
   inkscape:connector-curvature="0"
   style="fill:#e7e13c" />
	<path
   d="m 104.2,146.3 c -0.2,-0.2 -0.5,-0.3 -0.8,-0.3 -0.4,0 -0.8,0.2 -1,0.5 l -1.4,1.8 c -0.1,0.1 -0.1,0.3 0,0.4 0.1,0.1 0.2,0.2 0.3,0.2 0,0 0,0 0.1,0 l 2.3,-0.3 c 0.3,0 0.6,-0.2 0.8,-0.5 0.4,-0.6 0.3,-1.4 -0.3,-1.8 l 0,0 z m 0,0"
   id="path16"
   inkscape:connector-curvature="0"
   style="fill:#e7e13c" />
	<path
   d="m 102.1,141.1 c 0.1,0 0.2,0 0.3,0 0.3,-0.1 0.6,-0.3 0.8,-0.6 0.2,-0.3 0.3,-0.6 0.2,-1 -0.1,-0.6 -0.7,-1 -1.3,-1 -0.1,0 -0.2,0 -0.3,0 l -2.3,0.5 c -0.1,0 -0.3,0.1 -0.3,0.3 0,0.1 0,0.3 0.2,0.4 l 2,1.2 c 0.2,0.1 0.5,0.2 0.7,0.2 l 0,0 z m 0,0"
   id="path18"
   inkscape:connector-curvature="0"
   style="fill:#e7e13c" />
	<path
   d="m 104.7,133.6 c 0.1,0.3 0.3,0.6 0.6,0.7 0.2,0.1 0.4,0.2 0.6,0.2 0.5,0 0.9,-0.3 1.1,-0.7 0.2,-0.3 0.2,-0.7 0.1,-1 -0.1,-0.3 -0.3,-0.6 -0.6,-0.8 l -2,-1.1 c -0.1,-0.1 -0.3,-0.1 -0.4,0 -0.1,0.1 -0.2,0.3 -0.1,0.4 l 0.7,2.3 z m 0,0"
   id="path20"
   inkscape:connector-curvature="0"
   style="fill:#e7e13c" />
	<path
   d="m 113.1,131.9 0,0 c 0.2,0 0.3,0 0.5,-0.1 0.3,-0.1 0.6,-0.4 0.7,-0.7 0.1,-0.3 0.1,-0.7 0,-1 l -0.9,-2.1 c -0.1,-0.1 -0.2,-0.2 -0.3,-0.2 -0.1,0 -0.3,0.1 -0.3,0.2 l -0.9,2.1 c -0.1,0.3 -0.1,0.7 0,1 0.2,0.5 0.6,0.8 1.2,0.8 l 0,0 z m 0,0"
   id="path22"
   inkscape:connector-curvature="0"
   style="fill:#e7e13c" />
	<circle
   cx="113.1"
   cy="142.10001"
   r="6.4000001"
   id="circle24"
   d="m 119.5,142.10001 c 0,3.53462 -2.86538,6.4 -6.4,6.4 -3.53462,0 -6.4,-2.86538 -6.4,-6.4 0,-3.53463 2.86538,-6.4 6.4,-6.4 3.53462,0 6.4,2.86537 6.4,6.4 z"
   sodipodi:cx="113.1"
   sodipodi:cy="142.10001"
   sodipodi:rx="6.4000001"
   sodipodi:ry="6.4000001"
   style="fill:#e7e13c" />
	<circle
   stroke-miterlimit="10"
   cx="113.1"
   cy="141.3"
   r="25.299999"
   id="circle26"
   d="m 138.4,141.3 c 0,13.97281 -11.3272,25.3 -25.3,25.3 -13.972805,0 -25.300001,-11.32719 -25.300001,-25.3 0,-13.9728 11.327196,-25.3 25.300001,-25.3 13.9728,0 25.3,11.3272 25.3,25.3 z"
   sodipodi:cx="113.1"
   sodipodi:cy="141.3"
   sodipodi:rx="25.299999"
   sodipodi:ry="25.299999"
   style="fill:none;stroke:#e7e13c;stroke-miterlimit:10" />
</g>
</svg>