<?xml version="1.0" encoding="UTF-8" standalone="no"?>
<!-- Created with Inkscape (http://www.inkscape.org/) -->

<svg
   xmlns:dc="http://purl.org/dc/elements/1.1/"
   xmlns:cc="http://creativecommons.org/ns#"
   xmlns:rdf="http://www.w3.org/1999/02/22-rdf-syntax-ns#"
   xmlns:svg="http://www.w3.org/2000/svg"
   xmlns="http://www.w3.org/2000/svg"
   xmlns:sodipodi="http://sodipodi.sourceforge.net/DTD/sodipodi-0.dtd"
   xmlns:inkscape="http://www.inkscape.org/namespaces/inkscape"
   width="950"
   height="200"
   id="svg5779"
   version="1.1"
   inkscape:version="0.48.3.1 r9886"
   sodipodi:docname="Nouveau document 29">
  <defs
     id="defs5781" />
  <sodipodi:namedview
     id="base"
     pagecolor="#ffffff"
     bordercolor="#666666"
     borderopacity="1.0"
     inkscape:pageopacity="0.0"
     inkscape:pageshadow="2"
     inkscape:zoom="0.49497475"
     inkscape:cx="861.10424"
     inkscape:cy="297.06968"
     inkscape:document-units="px"
     inkscape:current-layer="layer1"
     showgrid="false"
     inkscape:window-width="1600"
     inkscape:window-height="854"
     inkscape:window-x="0"
     inkscape:window-y="24"
     inkscape:window-maximized="1" />
  <metadata
     id="metadata5784">
    <rdf:RDF>
      <cc:Work
         rdf:about="">
        <dc:format>image/svg+xml</dc:format>
        <dc:type
           rdf:resource="http://purl.org/dc/dcmitype/StillImage" />
        <dc:title></dc:title>
      </cc:Work>
    </rdf:RDF>
  </metadata>
  <g
     inkscape:label="Calque 1"
     inkscape:groupmode="layer"
     id="layer1"
     transform="translate(0,-852.36214)">
    <g
       transform="translate(-114.20983,266.76522)"
       id="Légendes">
      <rect
         style="fill:none"
         x="138.5"
         y="623.70001"
         width="203.10001"
         height="82.400002"
         id="rect636" />
      <text
         style="opacity:0.6"
         transform="translate(138.5333,632.3629)"
         id="text638">
        <tspan
           style="font-size:12px;fill:#001b02;font-family:HelveticaLTStd-BoldObl"
           x="0"
           y="0"
           font-size="12"
           id="tspan640">Evolution</tspan>
        <tspan
           style="font-size:12px;letter-spacing:3;fill:#001b02;font-family:HelveticaLTStd-BoldObl"
           x="61.400002"
           y="0"
           font-size="12"
           letter-spacing="3"
           id="tspan642" />
        <tspan
           style="font-size:12px;fill:#001b02;font-family:HelveticaLTStd-BoldObl"
           x="68.199997"
           y="0"
           font-size="12"
           id="tspan644">du</tspan>
        <tspan
           style="font-size:12px;letter-spacing:3;fill:#001b02;font-family:HelveticaLTStd-BoldObl"
           x="84.699997"
           y="0"
           font-size="12"
           letter-spacing="3"
           id="tspan646" />
        <tspan
           style="font-size:12px;fill:#001b02;font-family:HelveticaLTStd-BoldObl"
           x="91.400002"
           y="0"
           font-size="12"
           id="tspan648">poids</tspan>
        <tspan
           style="font-size:12px;letter-spacing:3;fill:#001b02;font-family:HelveticaLTStd-BoldObl"
           x="127.3"
           y="0"
           font-size="12"
           letter-spacing="3"
           id="tspan650" />
        <tspan
           style="font-size:12px;fill:#001b02;font-family:HelveticaLTStd-BoldObl"
           x="134"
           y="0"
           font-size="12"
           id="tspan652">de</tspan>
        <tspan
           style="font-size:12px;letter-spacing:3;fill:#001b02;font-family:HelveticaLTStd-BoldObl"
           x="149.8"
           y="0"
           font-size="12"
           letter-spacing="3"
           id="tspan654" />
        <tspan
           style="font-size:12px;fill:#001b02;font-family:HelveticaLTStd-BoldObl"
           x="156.60001"
           y="0"
           font-size="12"
           id="tspan656">chaque</tspan>
        <tspan
           style="font-size:12px;fill:#001b02;font-family:HelveticaLTStd-BoldObl"
           x="0"
           y="22"
           font-size="12"
           id="tspan658">énergie</tspan>
        <tspan
           style="font-size:12px;letter-spacing:6;fill:#001b02;font-family:HelveticaLTStd-BoldObl"
           x="49"
           y="22"
           font-size="12"
           letter-spacing="6"
           id="tspan660" />
        <tspan
           style="font-size:12px;fill:#001b02;font-family:HelveticaLTStd-BoldObl"
           x="58.400002"
           y="22"
           font-size="12"
           id="tspan662">renouvelable</tspan>
        <tspan
           style="font-size:12px;letter-spacing:6;fill:#001b02;font-family:HelveticaLTStd-BoldObl"
           x="142.5"
           y="22"
           font-size="12"
           letter-spacing="6"
           id="tspan664" />
        <tspan
           style="font-size:12px;fill:#001b02;font-family:HelveticaLTStd-BoldObl"
           x="151.89999"
           y="22"
           font-size="12"
           id="tspan666">dans</tspan>
        <tspan
           style="font-size:12px;letter-spacing:6;fill:#001b02;font-family:HelveticaLTStd-BoldObl"
           x="182.8"
           y="22"
           font-size="12"
           letter-spacing="6"
           id="tspan668" />
        <tspan
           style="font-size:12px;fill:#001b02;font-family:HelveticaLTStd-BoldObl"
           x="192.2"
           y="22"
           font-size="12"
           id="tspan670">la</tspan>
        <tspan
           style="font-size:12px;fill:#001b02;font-family:HelveticaLTStd-BoldObl"
           x="0"
           y="44"
           font-size="12"
           id="tspan672">consommation</tspan>
        <tspan
           style="font-size:12px;letter-spacing:1;fill:#001b02;font-family:HelveticaLTStd-BoldObl"
           x="95.5"
           y="44"
           font-size="12"
           letter-spacing="1"
           id="tspan674" />
        <tspan
           style="font-size:12px;fill:#001b02;font-family:HelveticaLTStd-BoldObl"
           x="100.6"
           y="44"
           font-size="12"
           id="tspan676">finale</tspan>
        <tspan
           style="font-size:12px;letter-spacing:1;fill:#001b02;font-family:HelveticaLTStd-BoldObl"
           x="137.39999"
           y="44"
           font-size="12"
           letter-spacing="1"
           id="tspan678" />
        <tspan
           style="font-size:12px;fill:#001b02;font-family:HelveticaLTStd-BoldObl"
           x="142.60001"
           y="44"
           font-size="12"
           id="tspan680">d'énergie</tspan>
        <tspan
           style="font-size:12px;fill:#001b02;font-family:HelveticaLTStd-BoldObl"
           x="0"
           y="66"
           font-size="12"
           id="tspan682">par rapport au nucléaire. (%)</tspan>
      </text>
      <rect
         style="fill:none"
         x="444"
         y="742.40002"
         width="561.79999"
         height="17.1"
         id="rect684" />
      <text
         style="font-size:10px;fill:#001b02;font-family:HelveticaLTStd-Light"
         transform="translate(444,749.5686)"
         font-size="10"
         id="text686">Précisons que dans le cadre délimité, les seuls chiffres valables sont les énergies renouvelables et le nucléaire.</text>
      <path
         style="fill:none;stroke:#fac768;stroke-miterlimit:10"
         inkscape:connector-curvature="0"
         stroke-miterlimit="10"
         d="M 1047.1,725.3 H 129.5 c -6.6,0 -12.5,-5.9 -12.5,-12.5 v -96.3 c 0,-6.6 5.9,-12.2 12.5,-12.2 h 25.4"
         id="path688" />
      <path
         style="fill:#b11b4a"
         inkscape:connector-curvature="0"
         d="m 153.5,606 c 0.1,-0.5 0.3,-1 0.5,-1.6 0.2,-0.5 0.5,-1.1 0.8,-1.6 0.3,-0.5 0.7,-1.1 1,-1.6 0.4,-0.5 0.8,-1 1.2,-1.5 0.4,-0.5 0.9,-0.9 1.3,-1.4 0.5,-0.4 0.9,-0.8 1.4,-1.2 0.2,-0.1 0.4,-0.2 0.6,-0.3 0.2,0 0.4,-0.1 0.6,-0.1 0.2,0 0.4,0 0.6,0.1 0.2,0.1 0.3,0.2 0.5,0.4 0.1,0.1 0.1,0.1 0.2,0.2 0.1,0 0.1,0.1 0.2,0.1 0,0 0,0 0.1,0 0,0 0,-0.1 0.1,-0.1 0,0 0.1,-0.1 0.1,-0.1 0,0 0.1,-0.1 0.1,-0.1 0.1,-0.1 0.3,-0.1 0.4,-0.1 0.2,0 0.3,0 0.5,0 0.3,0 0.6,0.1 0.9,0.2 0.3,0.1 0.5,0.3 0.8,0.5 0.5,0.5 0.9,1.1 1.2,1.7 0.3,0.7 0.4,1.4 0.4,2.2 0,0.7 -0.1,1.4 -0.3,2.2 -0.2,0.7 -0.4,1.4 -0.8,2.1 -0.3,0.7 -0.7,1.3 -1.2,1.9 -0.4,0.6 -0.9,1.1 -1.5,1.6 -0.5,0.5 -1.1,0.9 -1.7,1.2 -0.6,0.3 -1.3,0.6 -1.9,0.8 -0.7,0.2 -1.4,0.3 -2,0.3 -0.6,0 -1.2,-0.1 -1.7,-0.3 -0.5,-0.2 -0.9,-0.5 -1.3,-0.8 -0.4,-0.4 -0.6,-0.8 -0.8,-1.3 -0.2,-0.5 -0.3,-1 -0.3,-1.6 0,-0.3 0,-0.5 0,-0.8 -0.1,-0.4 0,-0.7 0,-1 z m 1.8,0.7 c -0.1,0.3 -0.1,0.6 -0.1,0.9 0,0.4 0.1,0.7 0.2,1 0.1,0.3 0.3,0.5 0.6,0.7 0.2,0.2 0.5,0.3 0.9,0.4 0.3,0.1 0.7,0.1 1.1,0.1 0.5,0 1,-0.1 1.4,-0.2 0.5,-0.1 1,-0.4 1.4,-0.7 0.5,-0.3 0.9,-0.6 1.4,-1 0.5,-0.4 0.8,-0.9 1.2,-1.4 0.4,-0.5 0.7,-1.1 1,-1.7 0.3,-0.6 0.5,-1.2 0.7,-1.9 0.1,-0.2 0.1,-0.5 0.1,-0.8 0,-0.3 0,-0.5 0,-0.8 0,-0.4 0,-0.8 -0.1,-1.1 -0.1,-0.4 -0.2,-0.7 -0.4,-1 -0.2,-0.3 -0.5,-0.5 -0.8,-0.7 -0.3,-0.2 -0.7,-0.2 -1.2,-0.2 -0.1,0 -0.1,0 -0.2,0.1 0,0.1 -0.1,0.1 -0.1,0.2 0,0.1 -0.1,0.2 -0.1,0.2 0,0.1 -0.1,0.2 -0.2,0.2 -0.1,0.1 -0.2,0.1 -0.3,0.2 -0.1,0 -0.2,0.1 -0.4,0.1 -0.1,0 -0.2,0 -0.3,-0.1 -0.1,-0.1 -0.2,-0.1 -0.3,-0.2 0,0 -0.1,-0.1 -0.1,-0.1 0,0 -0.1,0 -0.1,0 -0.1,0 -0.1,0 -0.2,0.1 -0.1,0.1 -0.2,0.1 -0.3,0.2 -0.1,0.1 -0.2,0.2 -0.3,0.2 -0.1,0.1 -0.2,0.2 -0.2,0.2 -0.5,0.5 -0.9,1 -1.4,1.6 -0.5,0.6 -0.9,1.1 -1.3,1.7 -0.4,0.6 -0.7,1.2 -1,1.8 -0.3,0.6 -0.5,1.4 -0.6,2 z"
         id="path690" />
      <path
         style="fill:#b11b4a"
         inkscape:connector-curvature="0"
         d="m 1045.3,727 c 0.1,-0.5 0.3,-1 0.5,-1.6 0.2,-0.5 0.5,-1.1 0.8,-1.6 0.3,-0.5 0.7,-1.1 1,-1.6 0.4,-0.5 0.8,-1 1.2,-1.5 0.4,-0.5 0.9,-0.9 1.3,-1.4 0.4,-0.5 0.9,-0.8 1.4,-1.2 0.2,-0.1 0.4,-0.2 0.6,-0.3 0.2,-0.1 0.4,-0.1 0.6,-0.1 0.2,0 0.4,0 0.6,0.1 0.2,0.1 0.3,0.2 0.5,0.4 0.1,0.1 0.1,0.1 0.2,0.2 0.1,0.1 0.1,0.1 0.2,0.1 0,0 0,0 0.1,0 0.1,0 0,-0.1 0.1,-0.1 0,0 0.1,-0.1 0.1,-0.1 0,0 0.1,-0.1 0.1,-0.1 0.1,-0.1 0.3,-0.1 0.4,-0.1 0.2,0 0.3,0 0.5,0 0.3,0 0.6,0.1 0.9,0.2 0.3,0.1 0.5,0.3 0.8,0.5 0.5,0.5 0.9,1.1 1.2,1.7 0.3,0.7 0.4,1.4 0.4,2.2 0,0.7 -0.1,1.4 -0.3,2.2 -0.2,0.7 -0.4,1.4 -0.8,2.1 -0.3,0.7 -0.7,1.3 -1.2,1.9 -0.4,0.6 -0.9,1.1 -1.5,1.6 -0.5,0.5 -1.1,0.9 -1.7,1.2 -0.6,0.3 -1.3,0.6 -1.9,0.8 -0.7,0.2 -1.4,0.3 -2,0.3 -0.6,0 -1.2,-0.1 -1.7,-0.3 -0.5,-0.2 -0.9,-0.5 -1.3,-0.8 -0.4,-0.4 -0.6,-0.8 -0.8,-1.3 -0.2,-0.5 -0.3,-1 -0.3,-1.6 0,-0.3 0,-0.5 0,-0.8 -0.1,-0.4 0,-0.7 0,-1 z m 1.7,0.7 c -0.1,0.3 -0.1,0.6 -0.1,0.9 0,0.4 0.1,0.7 0.2,1 0.1,0.3 0.3,0.5 0.6,0.7 0.2,0.2 0.5,0.3 0.9,0.4 0.4,0.1 0.7,0.1 1.1,0.1 0.5,0 1,-0.1 1.4,-0.2 0.5,-0.1 1,-0.4 1.4,-0.7 0.5,-0.3 0.9,-0.6 1.4,-1 0.5,-0.4 0.8,-0.9 1.2,-1.4 0.4,-0.5 0.7,-1.1 1,-1.7 0.3,-0.6 0.5,-1.2 0.7,-1.9 0.1,-0.2 0.1,-0.5 0.1,-0.8 0,-0.3 0,-0.5 0,-0.8 0,-0.4 0,-0.8 -0.1,-1.1 -0.1,-0.4 -0.2,-0.7 -0.4,-1 -0.2,-0.3 -0.5,-0.5 -0.8,-0.7 -0.3,-0.2 -0.7,-0.2 -1.2,-0.2 -0.1,0 -0.1,0 -0.2,0.1 0,0.1 -0.1,0.1 -0.1,0.2 0,0.1 -0.1,0.2 -0.1,0.2 0,0.1 -0.1,0.2 -0.2,0.2 -0.1,0.1 -0.2,0.1 -0.3,0.2 -0.1,0 -0.2,0.1 -0.4,0.1 -0.1,0 -0.2,0 -0.3,-0.1 -0.1,-0.1 -0.2,-0.1 -0.3,-0.2 0,0 -0.1,-0.1 -0.1,-0.1 0,0 -0.1,0 -0.1,0 -0.1,0 -0.1,0 -0.2,0.1 -0.1,0.1 -0.2,0.1 -0.3,0.2 -0.1,0.1 -0.2,0.2 -0.3,0.2 -0.1,0.1 -0.2,0.2 -0.2,0.2 -0.5,0.5 -0.9,1 -1.4,1.6 -0.5,0.6 -0.9,1.1 -1.3,1.7 -0.4,0.6 -0.7,1.2 -1,1.8 -0.3,0.6 -0.4,1.4 -0.6,2 z"
         id="path692" />
      <g
         style="opacity:0.5"
         id="g694">
        <rect
           style="fill:none"
           x="138.5"
           y="742.40002"
           width="419"
           height="32.5"
           id="rect696" />
        <text
           style="font-size:12px;letter-spacing:1;fill:#b01b4a;font-family:HelveticaLTStd-BoldObl"
           transform="translate(138.5333,750.9848)"
           font-size="12"
           letter-spacing="1"
           id="text698">Source : Bloomberg 2014</text>
      </g>
    </g>
  </g>
</svg>
