<?xml version="1.0" encoding="UTF-8" standalone="no"?>
<!-- Created with Inkscape (http://www.inkscape.org/) -->

<svg
   xmlns:dc="http://purl.org/dc/elements/1.1/"
   xmlns:cc="http://creativecommons.org/ns#"
   xmlns:rdf="http://www.w3.org/1999/02/22-rdf-syntax-ns#"
   xmlns:svg="http://www.w3.org/2000/svg"
   xmlns="http://www.w3.org/2000/svg"
   xmlns:sodipodi="http://sodipodi.sourceforge.net/DTD/sodipodi-0.dtd"
   xmlns:inkscape="http://www.inkscape.org/namespaces/inkscape"
   width="400"
   height="440"
   id="svg3961"
   version="1.1"
   inkscape:version="0.48.3.1 r9886"
   sodipodi:docname="radar_france.svg">
  <defs
     id="defs3963" />
  <sodipodi:namedview
     id="base"
     pagecolor="#ffffff"
     bordercolor="#666666"
     borderopacity="1.0"
     inkscape:pageopacity="0.0"
     inkscape:pageshadow="2"
     inkscape:zoom="1.4"
     inkscape:cx="222.02516"
     inkscape:cy="234.99765"
     inkscape:document-units="px"
     inkscape:current-layer="Texte_1_"
     showgrid="false"
     inkscape:window-width="1600"
     inkscape:window-height="854"
     inkscape:window-x="0"
     inkscape:window-y="24"
     inkscape:window-maximized="1" />
  <metadata
     id="metadata3966">
    <rdf:RDF>
      <cc:Work
         rdf:about="">
        <dc:format>image/svg+xml</dc:format>
        <dc:type
           rdf:resource="http://purl.org/dc/dcmitype/StillImage" />
        <dc:title></dc:title>
      </cc:Work>
    </rdf:RDF>
  </metadata>
  <g
     inkscape:label="Calque 1"
     inkscape:groupmode="layer"
     id="layer1"
     transform="translate(0,-612.36214)">
    <g
       transform="translate(-520.21337,454.4338)"
       id="Radar_1_">
      <circle
         d="m 754.00002,397.79999 c 0,18.83291 -15.26709,34.1 -34.1,34.1 -18.8329,0 -34.09999,-15.26709 -34.09999,-34.1 0,-18.83291 15.26709,-34.1 34.09999,-34.1 18.83291,0 34.1,15.26709 34.1,34.1 z"
         style="opacity:0.6;fill:none;stroke:#000000;stroke-width:0.09113149;stroke-linecap:round;stroke-linejoin:round;stroke-miterlimit:10"
         sodipodi:ry="34.099998"
         sodipodi:rx="34.099998"
         sodipodi:cy="397.79999"
         sodipodi:cx="719.90002"
         id="_x32_5_x25__7_"
         stroke-miterlimit="10"
         cx="719.90002"
         cy="397.79999"
         r="34.099998" />
      <circle
         d="m 788.20003,397.79999 c 0,37.72105 -30.57896,68.3 -68.30001,68.3 -37.72105,0 -68.3,-30.57895 -68.3,-68.3 0,-37.72105 30.57895,-68.30001 68.3,-68.30001 37.72105,0 68.30001,30.57896 68.30001,68.30001 z"
         style="opacity:0.6;fill:none;stroke:#000000;stroke-width:0.09113149;stroke-linecap:round;stroke-linejoin:round;stroke-miterlimit:10"
         sodipodi:ry="68.300003"
         sodipodi:rx="68.300003"
         sodipodi:cy="397.79999"
         sodipodi:cx="719.90002"
         id="_x35_0_x25__7_"
         stroke-miterlimit="10"
         cx="719.90002"
         cy="397.79999"
         r="68.300003" />
      <circle
         d="m 822.30003,397.79999 c 0,56.55396 -45.84605,102.4 -102.40001,102.4 -56.55395,0 -102.4,-45.84604 -102.4,-102.4 0,-56.55396 45.84605,-102.4 102.4,-102.4 56.55396,0 102.40001,45.84604 102.40001,102.4 z"
         style="opacity:0.6;fill:none;stroke:#000000;stroke-width:0.09113149;stroke-linecap:round;stroke-linejoin:round;stroke-miterlimit:10"
         sodipodi:ry="102.4"
         sodipodi:rx="102.4"
         sodipodi:cy="397.79999"
         sodipodi:cx="719.90002"
         id="_x37_5_x25__7_"
         stroke-miterlimit="10"
         cx="719.90002"
         cy="397.79999"
         r="102.4" />
      <g
         style="opacity:0.3"
         id="g400">
        <g
           id="g402">
          <path
             inkscape:connector-curvature="0"
             d="m 628.4,300.9 c 0,0 -0.6,0.6 -1.7,1.7 -1.1,1.1 -2.9,2.8 -4.9,5 -4.1,4.4 -10,11.3 -15.9,21 -1.5,2.4 -2.9,5.1 -4.4,7.8 -1.4,2.8 -2.9,5.7 -4.2,8.9 -2.7,6.3 -5.2,13.3 -7.1,21 -3.8,15.4 -5.2,33.6 -2.2,52.9 0.3,2.4 0.9,4.8 1.3,7.3 0.5,2.4 1.2,4.9 1.8,7.3 1.4,4.9 3,9.8 5,14.7 1.9,4.9 4.3,9.7 6.9,14.5 2.7,4.7 5.6,9.5 8.9,13.9 1.6,2.3 3.4,4.5 5.2,6.7 l 0.7,0.8 0.7,0.8 1.4,1.6 c 1,1.1 1.9,2.2 2.9,3.2 1,1 2,2 3,3.1 0.5,0.5 1,1 1.5,1.5 l 1.6,1.5 c 1.1,1 2.1,2 3.2,3 1.1,0.9 2.3,1.9 3.4,2.8 l 1.7,1.4 1.8,1.3 c 1.2,0.9 2.4,1.8 3.6,2.7 1.2,0.8 2.5,1.7 3.7,2.5 l 1.9,1.3 1.9,1.2 c 1.3,0.8 2.6,1.6 3.9,2.3 1.3,0.7 2.7,1.4 4,2.2 1.3,0.7 2.7,1.4 4.1,2 1.4,0.6 2.7,1.4 4.1,1.9 22.4,10 48.4,13.8 73.9,10 1.6,-0.2 3.2,-0.5 4.8,-0.8 l 2.4,-0.4 c 0.8,-0.1 1.6,-0.4 2.4,-0.5 1.6,-0.4 3.2,-0.7 4.7,-1.1 l 4.7,-1.3 c 1.6,-0.4 3.1,-1 4.6,-1.5 1.5,-0.5 3.1,-1 4.6,-1.6 l 4.5,-1.8 4.5,-2 c 5.9,-2.8 11.7,-5.9 17.1,-9.6 0.7,-0.4 1.4,-0.9 2.1,-1.3 l 2,-1.4 c 1.3,-1 2.7,-1.9 4,-2.9 l 3.8,-3.1 0.9,-0.8 0.9,-0.8 1.9,-1.6 c 2.5,-2.1 4.8,-4.5 7.1,-6.8 1.1,-1.2 2.2,-2.4 3.3,-3.6 0.5,-0.6 1.1,-1.2 1.7,-1.8 l 1.6,-1.9 c 4.3,-5 8,-10.3 11.5,-15.9 3.5,-5.5 6.4,-11.4 9,-17.3 2.6,-5.9 4.7,-12.1 6.4,-18.3 3.4,-12.5 4.8,-25.3 4.6,-38 -0.1,-1.6 -0.1,-3.2 -0.2,-4.7 -0.1,-1.6 -0.3,-3.1 -0.4,-4.7 -0.1,-1.6 -0.3,-3.1 -0.5,-4.7 -0.2,-1.6 -0.4,-3.1 -0.7,-4.6 -1,-6.2 -2.5,-12.2 -4.2,-18.1 -3.7,-11.7 -8.8,-22.8 -15.3,-32.8 -3.1,-5 -6.8,-9.7 -10.4,-14.2 -3.8,-4.4 -7.7,-8.6 -11.9,-12.4 -4.1,-3.9 -8.5,-7.3 -12.9,-10.6 -1.1,-0.8 -2.3,-1.5 -3.4,-2.3 -1.1,-0.7 -2.2,-1.6 -3.4,-2.2 -2.3,-1.4 -4.6,-2.8 -6.9,-4.1 -9.3,-5.1 -18.9,-9 -28.5,-11.6 -19.1,-5.3 -37.5,-5.9 -53.4,-3.9 -16,2 -29.4,6.6 -39.8,11.4 -10.5,4.8 -18.1,9.9 -23,13.6 -1.3,0.9 -2.4,1.7 -3.3,2.5 -0.9,0.7 -1.7,1.4 -2.3,1.9 -1.2,1 -1.9,1.5 -1.9,1.5 0,0 0.6,-0.5 1.9,-1.5 0.6,-0.5 1.4,-1.1 2.3,-1.9 0.9,-0.8 2,-1.6 3.3,-2.5 4.9,-3.7 12.5,-8.8 23,-13.7 10.4,-4.9 23.9,-9.6 39.9,-11.6 15.9,-2.1 34.5,-1.5 53.6,3.7 9.6,2.6 19.2,6.4 28.7,11.5 2.4,1.2 4.7,2.7 7,4 1.2,0.7 2.3,1.5 3.4,2.2 1.1,0.8 2.3,1.5 3.4,2.3 4.5,3.3 8.9,6.7 13.1,10.6 4.3,3.8 8.2,8 12,12.4 3.7,4.5 7.4,9.2 10.5,14.2 6.6,10 11.8,21.2 15.6,33 1.8,6 3.3,12 4.4,18.3 0.3,1.5 0.5,3.1 0.7,4.7 0.2,1.6 0.4,3.1 0.5,4.7 0.1,1.6 0.3,3.2 0.4,4.8 0.1,1.6 0.1,3.2 0.2,4.8 0.3,12.8 -1.1,25.8 -4.4,38.4 -1.7,6.3 -3.7,12.6 -6.3,18.6 -2.6,6 -5.5,12 -9,17.6 -3.5,5.6 -7.3,11.1 -11.6,16.2 l -1.6,1.9 c -0.5,0.6 -1.1,1.2 -1.7,1.9 -1.1,1.2 -2.2,2.5 -3.4,3.7 -2.4,2.3 -4.7,4.8 -7.2,6.9 l -1.8,1.7 -0.9,0.8 -1,0.8 -3.9,3.1 c -1.3,1 -2.7,2 -4,3 l -2,1.5 c -0.7,0.5 -1.4,0.9 -2.1,1.4 -5.5,3.8 -11.3,6.9 -17.3,9.8 l -4.5,2.1 -4.6,1.8 c -1.5,0.6 -3.1,1.2 -4.7,1.7 -1.6,0.5 -3.1,1.1 -4.7,1.5 l -4.8,1.4 c -1.6,0.4 -3.2,0.8 -4.8,1.2 -0.8,0.2 -1.6,0.4 -2.4,0.5 l -2.4,0.4 c -1.6,0.3 -3.2,0.7 -4.8,0.8 -25.9,4 -52.5,0.2 -75.4,-9.8 -1.4,-0.6 -2.8,-1.3 -4.2,-2 -1.4,-0.7 -2.8,-1.3 -4.2,-2.1 -1.4,-0.7 -2.7,-1.5 -4.1,-2.2 -1.3,-0.8 -2.6,-1.6 -4,-2.4 l -2,-1.2 -1.9,-1.3 c -1.3,-0.8 -2.5,-1.7 -3.8,-2.5 -1.2,-0.9 -2.4,-1.8 -3.7,-2.7 l -1.8,-1.4 -1.7,-1.4 c -1.2,-1 -2.3,-1.9 -3.5,-2.9 -1.1,-1 -2.2,-2 -3.3,-3 l -1.6,-1.5 c -0.5,-0.5 -1.1,-1.1 -1.6,-1.6 -1,-1.1 -2.1,-2.1 -3.1,-3.2 -1,-1.1 -2,-2.2 -2.9,-3.2 l -1.4,-1.6 -0.7,-0.8 -0.7,-0.8 c -1.8,-2.3 -3.7,-4.5 -5.3,-6.8 -3.5,-4.6 -6.4,-9.4 -9.2,-14.2 -2.6,-4.9 -5.1,-9.8 -7.1,-14.8 -2.1,-5 -3.7,-10 -5.2,-15 -0.7,-2.5 -1.3,-5 -1.9,-7.5 -0.5,-2.5 -1.1,-5 -1.4,-7.5 -3.2,-19.8 -1.8,-38.5 2,-54.3 1.9,-7.9 4.4,-15.2 7.2,-21.7 1.3,-3.3 2.9,-6.3 4.3,-9.2 1.6,-2.8 3,-5.6 4.5,-8.1 6.1,-10 12,-17.1 16.3,-21.7 2.1,-2.4 3.8,-4 4.9,-5.1 1.1,-1.1 1.7,-1.7 1.7,-1.7 0.8,-0.8 2.1,-0.8 2.9,0 0.8,0.8 0.3,2 -0.5,2.8 l 0,0 z"
             id="path404" />
          <g
             id="g406">
            <path
               inkscape:connector-curvature="0"
               d="m 632.5,294.5 c -3.5,1.4 -8.2,2.6 -11.7,2.7 l 5.5,2.9 2.4,5.8 c 0.3,-3.6 2,-8.1 3.8,-11.4 z"
               id="path408" />
          </g>
        </g>
      </g>
      <line
         style="opacity:0.6;fill:none;stroke:#000000;stroke-width:0.09113149;stroke-linecap:round;stroke-linejoin:round;stroke-miterlimit:10"
         stroke-miterlimit="10"
         x1="720.09998"
         y1="397.89999"
         x2="719.70001"
         y2="262.29999"
         id="line410" />
      <line
         style="opacity:0.6;fill:none;stroke:#000000;stroke-width:0.09113149;stroke-linecap:round;stroke-linejoin:round;stroke-miterlimit:10"
         stroke-miterlimit="10"
         x1="720.09998"
         y1="397.89999"
         x2="805.79999"
         y2="292.89999"
         id="line412" />
      <line
         style="opacity:0.6;fill:none;stroke:#000000;stroke-width:0.09113149;stroke-linecap:round;stroke-linejoin:round;stroke-miterlimit:10"
         stroke-miterlimit="10"
         x1="720.09998"
         y1="397.89999"
         x2="634.29999"
         y2="293.29999"
         id="line414" />
      <line
         style="opacity:0.6;fill:none;stroke:#000000;stroke-width:0.09113149;stroke-linecap:round;stroke-linejoin:round;stroke-miterlimit:10"
         stroke-miterlimit="10"
         x1="720.09998"
         y1="397.89999"
         x2="670.90002"
         y2="524.29999"
         id="line416" />
      <line
         style="opacity:0.6;fill:none;stroke:#000000;stroke-width:0.09113149;stroke-linecap:round;stroke-linejoin:round;stroke-miterlimit:10"
         stroke-miterlimit="10"
         x1="720.09998"
         y1="397.89999"
         x2="600.40002"
         y2="461.60001"
         id="line418" />
      <line
         style="opacity:0.6;fill:none;stroke:#000000;stroke-width:0.09113149;stroke-linecap:round;stroke-linejoin:round;stroke-miterlimit:10"
         stroke-miterlimit="10"
         x1="720.09998"
         y1="397.89999"
         x2="766"
         y2="526.70001"
         id="line420" />
      <line
         style="opacity:0.6;fill:none;stroke:#000000;stroke-width:0.09113149;stroke-linecap:round;stroke-linejoin:round;stroke-miterlimit:10"
         stroke-miterlimit="10"
         x1="720.09998"
         y1="397.89999"
         x2="853.20001"
         y2="372.60001"
         id="line422" />
      <line
         style="opacity:0.6;fill:none;stroke:#000000;stroke-width:0.09113149;stroke-linecap:round;stroke-linejoin:round;stroke-miterlimit:10"
         stroke-miterlimit="10"
         x1="720.09998"
         y1="397.89999"
         x2="839.40002"
         y2="462.10001"
         id="line424" />
      <line
         style="opacity:0.6;fill:none;stroke:#000000;stroke-width:0.09113149;stroke-linecap:round;stroke-linejoin:round;stroke-miterlimit:10"
         stroke-miterlimit="10"
         x1="586.90002"
         y1="372.60001"
         x2="720.09998"
         y2="397.89999"
         id="line426" />
    </g>
    <g
       transform="translate(-525.92766,440.86237)"
       id="Texte_1_">
      <g
         style="opacity:0.6"
         id="Années_26_"
         transform="translate(5.7142857,13.571428)">
        <rect
           style="fill:none"
           x="714.90002"
           y="225.2"
           width="9.6000004"
           height="29.700001"
           id="rect437" />
        <text
           style="font-size:9.11310005px;font-family:HelveticaLTStd-Bold"
           transform="matrix(0,-1,1,0,721.4762,251.6209)"
           font-size="9.1131"
           id="text439">2012</text>
      </g>
      <g
         style="opacity:0.6"
         id="Années_25_"
         transform="translate(5.7142857,13.571428)">
        <rect
           style="fill:none"
           x="804.70001"
           y="270.60001"
           transform="matrix(0.6383,-0.7698,0.7698,0.6383,84.7602,731.668)"
           width="32.599998"
           height="10"
           id="rect442" />
        <text
           style="font-size:9.56879997px;font-family:HelveticaLTStd-Bold"
           transform="matrix(0.6383,-0.7697,0.7697,0.6383,814.697,286.0911)"
           font-size="9.5688"
           id="text444">2013</text>
      </g>
      <g
         style="opacity:0.6"
         id="Années_24_"
         transform="translate(5.7142857,13.571428)">
        <rect
           style="fill:none"
           x="858.90002"
           y="363.79999"
           transform="matrix(0.9838,-0.1795,0.1795,0.9838,-51.9994,163.4299)"
           width="36"
           height="10.5"
           id="rect447" />
        <text
           style="font-size:10.02449989px;letter-spacing:1;font-family:HelveticaLTStd-Bold"
           transform="matrix(0.9837,-0.1795,0.1795,0.9837,864.7974,373.1829)"
           font-size="10.0245"
           letter-spacing="1"
           id="text449">2014</text>
      </g>
      <g
         style="opacity:0.6"
         id="Années_23_"
         transform="translate(5.7142857,13.571428)">
        <rect
           style="fill:none"
           x="842.40002"
           y="467.20001"
           transform="matrix(0.8839,0.4677,-0.4677,0.8839,321.1293,-348.1299)"
           width="38.700001"
           height="11"
           id="rect452" />
        <text
           style="font-size:10.48009968px;letter-spacing:1;font-family:HelveticaLTStd-Bold"
           transform="matrix(0.8839,0.4677,-0.4677,0.8839,849.1274,468.3102)"
           font-size="10.4801"
           letter-spacing="1"
           id="text454">2015</text>
      </g>
      <g
         style="opacity:0.6"
         id="Années_22_"
         transform="translate(5.7142857,13.571428)">
        <rect
           style="fill:none"
           x="753.09998"
           y="544.09998"
           transform="matrix(0.3351,0.9422,-0.9422,0.3351,1032.7526,-363.7557)"
           width="42"
           height="11.5"
           id="rect457" />
        <text
           style="font-size:10.9357996px;letter-spacing:1;font-family:HelveticaLTStd-Bold"
           transform="matrix(0.3351,0.9422,-0.9422,0.3351,767.5314,537.5238)"
           font-size="10.9358"
           letter-spacing="1"
           id="text459">2016</text>
      </g>
      <g
         style="opacity:0.6"
         id="Années_21_"
         transform="translate(5.7142857,13.571428)">
        <rect
           style="fill:none"
           x="639.90002"
           y="543"
           transform="matrix(0.3584,-0.9336,0.9336,0.3584,-87.7686,970.2572)"
           width="44.299999"
           height="12"
           id="rect462" />
        <text
           style="font-size:11.39140034px;letter-spacing:1;font-family:HelveticaLTStd-Bold"
           transform="matrix(0.3584,-0.9336,0.9336,0.3584,658.9453,563.1901)"
           font-size="11.3914"
           letter-spacing="1"
           id="text464">2017</text>
      </g>
      <g
         style="opacity:0.6"
         id="Années_20_"
         transform="translate(5.7142857,13.571428)">
        <rect
           style="fill:none"
           x="553.40002"
           y="468.60001"
           transform="matrix(0.8811,-0.473,0.473,0.8811,-155.9827,329.2997)"
           width="46.799999"
           height="12.4"
           id="rect467" />
        <text
           style="font-size:11.84710026px;letter-spacing:1;font-family:HelveticaLTStd-Bold"
           transform="matrix(0.8811,-0.473,0.473,0.8811,564.6983,483.8786)"
           font-size="11.8471"
           letter-spacing="1"
           id="text469">2018</text>
      </g>
      <g
         style="opacity:0.6"
         id="Années_19_">
        <rect
           style="fill:none"
           x="534.59998"
           y="362.60001"
           transform="matrix(0.9842,0.1773,-0.1773,0.9842,74.2791,-93.3037)"
           width="49.400002"
           height="12.9"
           id="rect472" />
        <text
           style="font-size:12.30270004px;letter-spacing:1;font-family:HelveticaLTStd-Bold"
           transform="matrix(0.9842,0.1773,-0.1773,0.9842,543.6096,368.6081)"
           font-size="12.3027"
           letter-spacing="1"
           id="text474">2019</text>
      </g>
      <g
         style="opacity:0.6"
         id="Années_18_"
         transform="translate(5.7142857,13.571428)">
        <rect
           style="fill:none"
           x="591"
           y="267.79999"
           transform="matrix(0.6469,0.7625,-0.7625,0.6469,426.4592,-372.081)"
           width="48.200001"
           height="13.4"
           id="rect477" />
        <text
           style="font-size:12.75839996px;letter-spacing:1;font-family:HelveticaLTStd-Bold"
           transform="matrix(0.647,0.7625,-0.7625,0.647,602.7531,263.7878)"
           font-size="12.7584"
           letter-spacing="1"
           id="text479">2020</text>
      </g>
      <line
         style="fill:none;stroke:#b11b4a;stroke-miterlimit:10"
         stroke-miterlimit="10"
         x1="705.91431"
         y1="237.18559"
         x2="744.91431"
         y2="237.18559"
         id="line481" />
      <text
         y="228.052"
         x="658.55408"
         style="font-size:18px;letter-spacing:1;font-family:'HelveticaLTStd-Light', Helvetica, sans-serif"
         id="Titre_6_"
         font-size="18"
         letter-spacing="1">ROYAUME-UNI</text>
    </g>
  </g>
</svg>
