<?xml version="1.0" encoding="utf-8"?>
<!-- Generator: Adobe Illustrator 18.1.1, SVG Export Plug-In . SVG Version: 6.00 Build 0)  -->
<svg version="1.1" id="Calque_1" xmlns="http://www.w3.org/2000/svg" xmlns:xlink="http://www.w3.org/1999/xlink" x="0px" y="0px"
	 viewBox="0 0 23.3 23.3" enable-background="new 0 0 23.3 23.3" xml:space="preserve">
<g id="biomasse_1_" opacity="0.1">
	<g>
		<path fill="#64B33E" d="M8.1,11.6C8.1,11.6,8.2,11.7,8.1,11.6C8.2,11.7,8.2,11.7,8.1,11.6C8.2,11.6,8.1,11.6,8.1,11.6z"/>
		<path fill="#64B33E" d="M7.3,11.1C7.3,11,7.3,11,7.3,11.1C7.3,11,7.2,11,7.3,11.1C7.2,11,7.3,11,7.3,11.1z"/>
		<path fill="#64B33E" d="M8.8,9.1C8.8,9.1,8.8,9.1,8.8,9.1C8.8,9.1,8.8,9.1,8.8,9.1C8.8,9.1,8.8,9.1,8.8,9.1z"/>
		<path fill="#64B33E" d="M10.1,10C10.1,10,10.1,10,10.1,10C10.1,10,10.1,10,10.1,10C10.1,10,10.1,10,10.1,10z"/>
		<path fill="#64B33E" d="M17.1,7.3c-0.1,0-0.2-0.1-0.3-0.1c-0.1,0-0.3-0.1-0.5-0.1c-0.2,0-0.4,0-0.7,0c-0.2,0-0.5,0.1-0.7,0.1
			c-0.3,0.1-0.5,0.2-0.8,0.3c-0.2,0.1-0.5,0.3-0.7,0.5c-0.2,0.2-0.4,0.4-0.6,0.6c-0.2,0.2-0.3,0.4-0.5,0.7c-0.1,0.2-0.3,0.5-0.3,0.7
			c-0.2,0.5-0.3,1-0.3,1.4c0,0.2,0,0.4,0,0.6c0,0.2,0.1,0.4,0.1,0.5c0,0.1,0,0.1,0.1,0.2c0-0.1,0.1-0.2,0.1-0.2
			c0.2-0.4,0.5-1,0.9-1.5c0.2-0.3,0.4-0.5,0.6-0.8c0.1-0.1,0.2-0.2,0.3-0.3c0.1-0.1,0.2-0.2,0.3-0.3c0.1-0.1,0.2-0.1,0.3-0.2
			c0.1-0.1,0.2-0.1,0.2-0.1c0.1-0.1,0.2-0.1,0.2-0.1s-0.1,0-0.2,0.1c-0.1,0-0.1,0.1-0.2,0.2c-0.1,0.1-0.2,0.1-0.2,0.2
			C14,9.7,14,9.8,13.9,9.9c-0.1,0.1-0.2,0.2-0.3,0.3c-0.2,0.2-0.4,0.5-0.5,0.8c-0.3,0.6-0.6,1.1-0.8,1.6c0,0.1-0.1,0.1-0.1,0.2
			c-0.2,0.5-0.3,1-0.4,1.5c-0.1-0.5-0.4-1-0.7-1.5c0-0.1,0.3-0.2,0.3-0.2c0-0.1,0-0.1,0-0.2c0-0.1,0-0.3,0-0.5c0-0.2,0-0.4-0.1-0.6
			c-0.1-0.4-0.3-0.9-0.5-1.4c-0.1-0.2-0.3-0.4-0.5-0.7C10.3,9.1,10,8.9,9.8,8.7C9.6,8.6,9.4,8.4,9.1,8.3C8.9,8.1,8.6,8,8.3,7.9
			C8.1,7.9,7.8,7.8,7.5,7.8c-0.3,0-0.5,0-0.8,0c-0.2,0-0.5,0.1-0.7,0.1C5.9,8,5.8,8.1,5.6,8.1C5.5,8.2,5.4,8.3,5.3,8.3
			c-0.1,0-0.1,0.1-0.1,0.1s0,0,0.1,0.1c0,0.1,0.1,0.2,0.2,0.3C5.5,9,5.6,9.1,5.7,9.3C5.8,9.4,5.9,9.6,6,9.8C6,9.8,6,9.9,6.1,9.9
			c0,0.1,0.1,0.1,0.1,0.2c0,0,0.1,0.1,0.1,0.1c0.1,0.2,0.2,0.3,0.4,0.5c0.3,0.3,0.5,0.6,0.9,0.9c0.2,0.1,0.3,0.2,0.5,0.4
			c0.2,0.1,0.4,0.2,0.6,0.3c0.2,0.1,0.4,0.2,0.6,0.3c0.2,0.1,0.4,0.1,0.6,0.2c0.2,0.1,0.4,0.1,0.6,0.1c0.1,0,0.2,0,0.4,0.1
			c1,1.4,1,3.3,1,3.3h0.1c0,0,0,0,0,0.1l0.3,0h0v0l0.1,0c0,0-0.3-1.9,0.4-3.5c0.1,0,0.2-0.1,0.3-0.1c0.2-0.1,0.4-0.1,0.5-0.2
			c0.2-0.1,0.4-0.2,0.6-0.3c0.2-0.1,0.4-0.2,0.5-0.4c0.2-0.1,0.3-0.3,0.5-0.4c0.2-0.2,0.3-0.3,0.4-0.5c0.3-0.3,0.5-0.7,0.7-1
			c0.1-0.2,0.2-0.4,0.3-0.5c0.1-0.2,0.2-0.4,0.2-0.5c0.1-0.2,0.1-0.4,0.2-0.5C17,8.1,17,7.9,17.1,7.8c0.1-0.1,0.1-0.3,0.1-0.3
			c0-0.1,0-0.1,0-0.1S17.2,7.3,17.1,7.3z M7.3,11.1C7.3,11,7.2,11,7.3,11.1C7.2,11,7.3,11,7.3,11.1C7.3,11,7.3,11,7.3,11.1z
			 M8.1,11.6C8.1,11.6,8.2,11.6,8.1,11.6C8.2,11.7,8.2,11.7,8.1,11.6C8.2,11.7,8.1,11.6,8.1,11.6z M8.8,9.1C8.8,9.1,8.8,9.1,8.8,9.1
			C8.8,9.1,8.8,9.1,8.8,9.1C8.8,9.1,8.8,9.1,8.8,9.1z M10.1,10C10.1,10,10.1,10,10.1,10C10.1,10,10.1,10,10.1,10
			C10.1,10,10.1,10,10.1,10z"/>
	</g>
	<circle fill="none" stroke="#64B33E" stroke-width="0.4608" stroke-miterlimit="10" cx="11.7" cy="11.7" r="11.3"/>
</g>
</svg>
