<?xml version="1.0" encoding="utf-8"?>
<!-- Generator: Adobe Illustrator 18.1.1, SVG Export Plug-In . SVG Version: 6.00 Build 0)  -->
<svg version="1.1" id="Calque_1" xmlns="http://www.w3.org/2000/svg" xmlns:xlink="http://www.w3.org/1999/xlink" x="0px" y="0px"
	 viewBox="0 0 23.3 23.3" enable-background="new 0 0 23.3 23.3" xml:space="preserve">
<g id="eolien">
	<g id="éolien_3_">
		<circle fill="#EE8E1A" cx="11.7" cy="11.9" r="0.7"/>
		<path fill="#EE8E1A" d="M10.8,10.8c0.3-0.2,0.6-0.3,0.9-0.3c0.3,0,0.7,0.1,0.9,0.3c-0.1-1.5-0.5-5.2-0.9-5.2
			C11.3,5.6,10.9,9.3,10.8,10.8z"/>
		<path fill="#EE8E1A" d="M11.1,13.3L11.1,13.3C11.1,13.3,11.1,13.3,11.1,13.3C11.1,13.3,11.1,13.3,11.1,13.3L11.1,13.3
			c-0.5-0.2-0.9-0.8-0.9-1.4c0-0.1,0-0.1,0-0.2c-1.2,0.9-4.2,3.1-4,3.4C6.4,15.4,9.7,13.9,11.1,13.3z"/>
		<path fill="#EE8E1A" d="M13.1,11.7c0,0.1,0,0.1,0,0.2c0,0.6-0.4,1.2-0.9,1.4c0,0,0,0,0,0l0,0c1.4,0.6,4.8,2.1,5,1.8
			C17.4,14.8,14.4,12.6,13.1,11.7z"/>
	</g>
	<circle fill="none" stroke="#EE8E1A" stroke-width="0.4575" stroke-miterlimit="10" cx="11.7" cy="11.7" r="11.3"/>
</g>
</svg>
