<?xml version="1.0" encoding="utf-8"?>
<!-- Generator: Adobe Illustrator 18.1.1, SVG Export Plug-In . SVG Version: 6.00 Build 0)  -->
<svg version="1.1" id="Calque_1" xmlns="http://www.w3.org/2000/svg" xmlns:xlink="http://www.w3.org/1999/xlink" x="0px" y="0px"
	 viewBox="0 0 23.3 23.3" enable-background="new 0 0 23.3 23.3" xml:space="preserve">
<g id="géothermique_3_">
	<path fill="#E41A3C" d="M11.7,6.3c-3,0-5.4,2.4-5.4,5.4c0,3,2.4,5.4,5.4,5.4c3,0,5.4-2.4,5.4-5.4C17.1,8.7,14.6,6.3,11.7,6.3z
		 M11.5,12.2c0,0-0.9-3,0.9-5.2c0.8,0.2,3.5,0.6,4.2,4C15.6,11.9,12.9,12.6,11.5,12.2z"/>
	<path fill="#E41A3C" d="M12.3,11.4c0,0-0.3-0.9,0.2-1.5c0.2,0,1,0.2,1.2,1.2C13.5,11.3,12.7,11.5,12.3,11.4z"/>
	<circle fill="none" stroke="#E41A3C" stroke-width="0.4496" stroke-miterlimit="10" cx="11.7" cy="11.7" r="11.3"/>
</g>
</svg>
