<?xml version="1.0" encoding="utf-8"?>
<!-- Generator: Adobe Illustrator 16.0.0, SVG Export Plug-In . SVG Version: 6.00 Build 0)  -->
<!DOCTYPE svg PUBLIC "-//W3C//DTD SVG 1.1//EN" "http://www.w3.org/Graphics/SVG/1.1/DTD/svg11.dtd">
<svg version="1.1" xmlns="http://www.w3.org/2000/svg" xmlns:xlink="http://www.w3.org/1999/xlink" x="0px" y="0px"
	 width="51.337px" height="51.586px" viewBox="0 0 51.337 51.586" enable-background="new 0 0 51.337 51.586" xml:space="preserve">
<g id="Calque_8">
</g>
<g id="Calque_5">
</g>
<g id="Calque_9" display="none">
</g>
<g id="Calque_7">
	<g>
		<path fill="#2C2E88" d="M0,48.823C0,33.386,0,17.95,0,2.513c0.017-0.03,0.044-0.06,0.048-0.092
			c0.125-0.89,0.598-1.544,1.349-2.018C1.726,0.194,2.101,0.12,2.46,0c15.472,0,30.943,0,46.416,0
			c0.346,0.112,0.708,0.182,1.023,0.376c0.963,0.592,1.437,1.458,1.437,2.586c0,15.138,0,30.275,0,45.412
			c0,0.08,0.004,0.16-0.003,0.24c-0.072,0.916-0.459,1.654-1.211,2.201c-0.379,0.275-0.814,0.386-1.246,0.521
			c-4.474,0-8.947,0-13.422,0c-0.002-0.026-0.005-0.053-0.005-0.079c0-6.533,0.001-13.064-0.005-19.598
			c0-0.199,0.07-0.225,0.244-0.225c2.049,0.006,4.099,0.002,6.148,0.006c0.168,0,0.269-0.008,0.295-0.225
			c0.302-2.413,0.612-4.824,0.932-7.234c0.031-0.237-0.028-0.279-0.252-0.279c-2.344,0.008-4.688,0.001-7.031,0.011
			c-0.254,0.001-0.344-0.038-0.34-0.323c0.02-1.355,0.008-2.709,0.009-4.064c0.001-0.525-0.005-1.051,0.051-1.575
			c0.151-1.429,0.851-2.271,2.185-2.596c0.258-0.063,0.523-0.108,0.789-0.124c1.541-0.096,3.084-0.027,4.625-0.039
			c0.223-0.001,0.275-0.056,0.275-0.277c-0.01-2.121-0.01-4.242,0-6.363c0-0.236-0.061-0.313-0.301-0.334
			c-1.474-0.138-2.951-0.201-4.43-0.24c-1.373-0.035-2.742-0.021-4.092,0.299c-2.596,0.615-4.619,2.001-5.893,4.387
			c-0.885,1.656-1.216,3.45-1.229,5.31c-0.014,1.88-0.01,3.761,0.002,5.641c0.002,0.258-0.079,0.301-0.313,0.3
			c-2.049-0.008-4.099-0.001-6.148-0.01c-0.227-0.001-0.277,0.064-0.277,0.282c0.008,2.388,0.009,4.776,0,7.165
			c0,0.229,0.043,0.297,0.287,0.295c2.051-0.012,4.1-0.001,6.149-0.013c0.251-0.001,0.302,0.071,0.301,0.309
			c-0.007,6.425-0.005,12.851-0.005,19.275c0,0.106,0.004,0.214,0.006,0.32c-8.324,0-16.648,0-24.973,0
			c-0.017-0.017-0.031-0.046-0.049-0.048C1.552,51.167,0.912,50.71,0.438,50C0.198,49.643,0.104,49.231,0,48.823z"/>
		<path fill-rule="evenodd" clip-rule="evenodd" fill="#FEFEFE" d="M27.433,51.336c-0.002-0.106-0.006-0.214-0.006-0.32
			c0-6.425-0.002-12.851,0.005-19.275c0.001-0.237-0.05-0.31-0.301-0.309c-2.05,0.012-4.099,0.001-6.149,0.013
			c-0.244,0.002-0.287-0.066-0.287-0.295c0.009-2.389,0.008-4.777,0-7.165c0-0.218,0.051-0.283,0.277-0.282
			c2.05,0.009,4.1,0.002,6.148,0.01c0.233,0.001,0.314-0.042,0.313-0.3c-0.012-1.88-0.016-3.761-0.002-5.641
			c0.013-1.859,0.344-3.653,1.229-5.31c1.273-2.386,3.297-3.771,5.893-4.387c1.35-0.32,2.719-0.334,4.092-0.299
			c1.479,0.039,2.956,0.103,4.43,0.24c0.24,0.021,0.301,0.098,0.301,0.334c-0.01,2.121-0.01,4.242,0,6.363
			c0,0.222-0.053,0.276-0.275,0.277c-1.541,0.012-3.084-0.057-4.625,0.039c-0.266,0.016-0.531,0.061-0.789,0.124
			c-1.334,0.324-2.033,1.167-2.185,2.596c-0.056,0.524-0.05,1.05-0.051,1.575c-0.001,1.355,0.011,2.709-0.009,4.064
			c-0.004,0.285,0.086,0.324,0.34,0.323c2.344-0.01,4.688-0.003,7.031-0.011c0.224,0,0.283,0.042,0.252,0.279
			c-0.319,2.41-0.63,4.821-0.932,7.234c-0.026,0.217-0.127,0.225-0.295,0.225c-2.05-0.004-4.1,0-6.148-0.006
			c-0.174,0-0.244,0.025-0.244,0.225c0.006,6.533,0.005,13.064,0.005,19.598c0,0.026,0.003,0.053,0.005,0.079
			C32.78,51.336,30.106,51.336,27.433,51.336z"/>
	</g>
</g>
<g id="Calque_6">
</g>
</svg>
