<?xml version="1.0" encoding="utf-8"?>
<!-- Generator: Adobe Illustrator 16.0.0, SVG Export Plug-In . SVG Version: 6.00 Build 0)  -->
<!DOCTYPE svg PUBLIC "-//W3C//DTD SVG 1.1//EN" "http://www.w3.org/Graphics/SVG/1.1/DTD/svg11.dtd">
<svg version="1.1" xmlns="http://www.w3.org/2000/svg" xmlns:xlink="http://www.w3.org/1999/xlink" x="0px" y="0px"
	 width="36.981px" height="21.134px" viewBox="0 0 36.981 21.134" enable-background="new 0 0 36.981 21.134" xml:space="preserve">
<g id="Calque_8">
</g>
<g id="Calque_5">
</g>
<g id="Calque_9" display="none">
</g>
<g id="Calque_7">
	<path fill="#127EB6" d="M18.605,15.045c1.471,1.195,2.18,2.754,1.586,3.486l0,0c-0.594,0.73-2.266,0.355-3.736-0.838L5.586,8.865
		C4.117,7.67,3.408,6.109,4.002,5.377l0,0c0.594-0.73,2.266-0.354,3.734,0.838L18.605,15.045z"/>
	<path fill="#127EB6" d="M21.783,17.709c-1.475,1.188-3.148,1.555-3.738,0.82l0,0c-0.59-0.734,0.125-2.289,1.602-3.477l10.908-8.779
		c1.477-1.186,3.15-1.555,3.74-0.82l0,0c0.59,0.734-0.127,2.291-1.6,3.479L21.783,17.709z"/>
</g>
<g id="Calque_6">
</g>
</svg>
