<?xml version="1.0" encoding="UTF-8" standalone="no"?>
<!-- Created with Inkscape (http://www.inkscape.org/) -->

<svg
   xmlns:dc="http://purl.org/dc/elements/1.1/"
   xmlns:cc="http://creativecommons.org/ns#"
   xmlns:rdf="http://www.w3.org/1999/02/22-rdf-syntax-ns#"
   xmlns:svg="http://www.w3.org/2000/svg"
   xmlns="http://www.w3.org/2000/svg"
   xmlns:sodipodi="http://sodipodi.sourceforge.net/DTD/sodipodi-0.dtd"
   xmlns:inkscape="http://www.inkscape.org/namespaces/inkscape"
   width="390"
   height="185"
   id="svg4050"
   version="1.1"
   inkscape:version="0.48.3.1 r9886"
   sodipodi:docname="Nouveau document 5">
  <defs
     id="defs4052" />
  <sodipodi:namedview
     id="base"
     pagecolor="#ffffff"
     bordercolor="#666666"
     borderopacity="1.0"
     inkscape:pageopacity="0.0"
     inkscape:pageshadow="2"
     inkscape:zoom="0.98994949"
     inkscape:cx="277.77387"
     inkscape:cy="210.99608"
     inkscape:document-units="px"
     inkscape:current-layer="layer1"
     showgrid="false"
     inkscape:window-width="1600"
     inkscape:window-height="854"
     inkscape:window-x="0"
     inkscape:window-y="24"
     inkscape:window-maximized="1" />
  <metadata
     id="metadata4055">
    <rdf:RDF>
      <cc:Work
         rdf:about="">
        <dc:format>image/svg+xml</dc:format>
        <dc:type
           rdf:resource="http://purl.org/dc/dcmitype/StillImage" />
        <dc:title></dc:title>
      </cc:Work>
    </rdf:RDF>
  </metadata>
  <g
     inkscape:label="Calque 1"
     inkscape:groupmode="layer"
     id="layer1"
     transform="translate(0,-867.36218)">
    <g
       transform="translate(-285.05306,290.84734)"
       id="Légende">
      <g
         style="opacity:0.6"
         id="g187">
        <text
           transform="translate(307.5529,680.7073)"
           id="text189">
          <tspan
             style="font-size:12px;letter-spacing:1;font-family:HelveticaLTStd-BoldObl"
             x="0"
             y="0"
             font-size="12"
             letter-spacing="1"
             id="tspan191">Part des énergies renouvelables</tspan>
          <tspan
             style="font-size:12px;letter-spacing:1;font-family:HelveticaLTStd-BoldObl"
             x="0"
             y="22"
             font-size="12"
             letter-spacing="1"
             id="tspan193">dans la production initiale (%)</tspan>
        </text>
      </g>
      <g
         style="opacity:0.6"
         id="g195">
        <rect
           style="fill:none"
           x="622.40002"
           y="609.70001"
           width="46.400002"
           height="14.8"
           id="rect197" />
        <text
           style="font-size:14px;letter-spacing:1;font-family:HelveticaLTStd-Bold"
           transform="translate(622.3893,621.34)"
           font-size="14"
           letter-spacing="1"
           id="text199">100 %</text>
      </g>
      <g
         style="opacity:0.6"
         id="g201">
        <rect
           style="fill:none"
           x="622.90002"
           y="724.20001"
           width="28.299999"
           height="14.8"
           id="rect203" />
        <text
           style="font-size:14px;letter-spacing:1;font-family:HelveticaLTStd-Bold"
           transform="translate(622.8735,735.7856)"
           font-size="14"
           letter-spacing="1"
           id="text205">0 %</text>
      </g>
      <rect
         style="fill:#d5e4d5"
         x="560.70001"
         y="593"
         width="29.5"
         height="10.6"
         id="rect207" />
      <rect
         style="fill:#b7d9b6"
         x="560.70001"
         y="607.79999"
         width="29.5"
         height="10.6"
         id="rect209" />
      <rect
         style="fill:#95c994"
         x="560.70001"
         y="622.59998"
         width="29.5"
         height="10.6"
         id="rect211" />
      <rect
         style="fill:#55b155"
         x="560.70001"
         y="637.5"
         width="29.5"
         height="10.6"
         id="rect213" />
      <rect
         style="fill:#0ba238"
         x="560.70001"
         y="652.29999"
         width="29.5"
         height="10.6"
         id="rect215" />
      <rect
         style="fill:#028837"
         x="560.70001"
         y="667.09998"
         width="29.5"
         height="10.6"
         id="rect217" />
      <rect
         style="fill:#096e31"
         x="560.70001"
         y="681.90002"
         width="29.5"
         height="10.6"
         id="rect219" />
      <rect
         style="fill:#145227"
         x="560.70001"
         y="696.70001"
         width="29.5"
         height="10.6"
         id="rect221" />
      <rect
         style="fill:#16361c"
         x="560.70001"
         y="711.5"
         width="29.5"
         height="10.6"
         id="rect223" />
      <rect
         x="560.70001"
         y="726.40002"
         width="29.5"
         height="10.6"
         id="rect225" />
      <path
         style="fill:none;stroke:#fac768;stroke-linecap:round;stroke-linejoin:round;stroke-miterlimit:10"
         inkscape:connector-curvature="0"
         stroke-miterlimit="10"
         d="m 609,745.2 c 0,6.6 -5.4,12.3 -12,12.3 H 304.5 c -6.6,0 -12.5,-5.9 -12.5,-12.5 v -80.3 c 0,-6.6 5.9,-12.2 12.5,-12.2 H 334"
         id="path227" />
      <line
         style="fill:none;stroke:#fac768;stroke-linecap:round;stroke-linejoin:round;stroke-miterlimit:10"
         stroke-miterlimit="10"
         x1="609"
         y1="592.09998"
         x2="609"
         y2="745.20001"
         id="line229" />
      <path
         style="fill:#b11b4a"
         inkscape:connector-curvature="0"
         d="m 333.1,654.3 c 0.1,-0.5 0.3,-1 0.5,-1.6 0.2,-0.6 0.5,-1.1 0.8,-1.6 0.3,-0.5 0.7,-1.1 1,-1.6 0.4,-0.5 0.8,-1 1.2,-1.5 0.4,-0.5 0.9,-0.9 1.3,-1.4 0.4,-0.5 0.9,-0.8 1.4,-1.2 0.2,-0.1 0.4,-0.2 0.6,-0.3 0.2,0 0.4,-0.1 0.6,-0.1 0.2,0 0.4,0 0.6,0.1 0.2,0.1 0.3,0.2 0.5,0.4 0.1,0.1 0.1,0.1 0.2,0.2 0.1,0 0.1,0.1 0.2,0.1 0,0 0,0 0.1,0 0,0 0,-0.1 0.1,-0.1 0,0 0.1,-0.1 0.1,-0.1 0,0 0.1,-0.1 0.1,-0.1 0.1,-0.1 0.3,-0.1 0.4,-0.1 0.1,0 0.3,0 0.5,0 0.3,0 0.6,0.1 0.9,0.2 0.3,0.1 0.5,0.3 0.8,0.5 0.5,0.5 0.9,1.1 1.2,1.7 0.3,0.7 0.4,1.4 0.4,2.2 0,0.7 -0.1,1.4 -0.3,2.2 -0.2,0.7 -0.4,1.4 -0.8,2.1 -0.3,0.7 -0.7,1.3 -1.2,1.9 -0.4,0.6 -0.9,1.1 -1.5,1.6 -0.6,0.5 -1.1,0.9 -1.7,1.2 -0.6,0.3 -1.3,0.6 -1.9,0.8 -0.7,0.2 -1.4,0.3 -2,0.3 -0.6,0 -1.2,-0.1 -1.7,-0.3 -0.5,-0.2 -0.9,-0.5 -1.3,-0.8 -0.4,-0.4 -0.6,-0.8 -0.8,-1.3 -0.2,-0.5 -0.3,-1 -0.3,-1.6 0,-0.3 0,-0.5 0,-0.8 -0.1,-0.5 -0.1,-0.7 0,-1 z m 1.7,0.7 c -0.1,0.3 -0.1,0.6 -0.1,0.9 0,0.4 0.1,0.7 0.2,1 0.1,0.3 0.3,0.5 0.6,0.7 0.2,0.2 0.5,0.3 0.9,0.4 0.3,0.1 0.7,0.1 1.1,0.1 0.5,0 1,-0.1 1.4,-0.2 0.4,-0.1 1,-0.4 1.4,-0.7 0.5,-0.3 0.9,-0.6 1.4,-1 0.4,-0.4 0.8,-0.9 1.2,-1.4 0.4,-0.5 0.7,-1.1 1,-1.7 0.3,-0.6 0.5,-1.2 0.7,-1.9 0.1,-0.2 0.1,-0.5 0.1,-0.8 0,-0.3 0,-0.5 0,-0.8 0,-0.4 0,-0.8 -0.1,-1.1 -0.1,-0.4 -0.2,-0.7 -0.4,-1 -0.2,-0.3 -0.5,-0.5 -0.8,-0.7 -0.3,-0.2 -0.7,-0.2 -1.2,-0.2 -0.1,0 -0.1,0 -0.2,0.1 0,0.1 -0.1,0.1 -0.1,0.2 0,0.1 -0.1,0.2 -0.1,0.2 0,0.1 -0.1,0.2 -0.2,0.2 -0.1,0.1 -0.2,0.1 -0.3,0.2 -0.1,0 -0.2,0.1 -0.4,0.1 -0.1,0 -0.2,0 -0.3,-0.1 -0.1,-0.1 -0.2,-0.1 -0.3,-0.2 0,0 -0.1,-0.1 -0.1,-0.1 0,0 -0.1,0 -0.1,0 -0.1,0 -0.1,0 -0.2,0.1 -0.1,0.1 -0.2,0.1 -0.3,0.2 -0.1,0.1 -0.2,0.2 -0.3,0.2 -0.1,0 -0.2,0.2 -0.2,0.2 -0.5,0.5 -0.9,1 -1.4,1.6 -0.5,0.6 -0.9,1.1 -1.3,1.7 -0.4,0.6 -0.7,1.2 -1,1.8 -0.2,0.8 -0.4,1.4 -0.6,2 z"
         id="path231" />
      <polyline
         style="fill:none;stroke:#b11b4a;stroke-linecap:round;stroke-linejoin:round;stroke-miterlimit:10"
         stroke-miterlimit="10"
         points="609,592.1    601,592.1 601,592.1 609.3,582.1 617.5,592.1 613,592.1  "
         id="polyline233" />
      <g
         style="opacity:0.5"
         id="g235">
        <text
           style="font-size:12px;letter-spacing:1;fill:#b11b4a;font-family:HelveticaLTStd-BoldObl"
           transform="translate(307.5529,736.9777)"
           font-size="12"
           letter-spacing="1"
           id="text237">Source : Eurostat septembre 2014</text>
      </g>
    </g>
  </g>
</svg>
