<?xml version="1.0" encoding="UTF-8" standalone="no"?>
<!-- Created with Inkscape (http://www.inkscape.org/) -->

<svg
   xmlns:dc="http://purl.org/dc/elements/1.1/"
   xmlns:cc="http://creativecommons.org/ns#"
   xmlns:rdf="http://www.w3.org/1999/02/22-rdf-syntax-ns#"
   xmlns:svg="http://www.w3.org/2000/svg"
   xmlns="http://www.w3.org/2000/svg"
   xmlns:sodipodi="http://sodipodi.sourceforge.net/DTD/sodipodi-0.dtd"
   xmlns:inkscape="http://www.inkscape.org/namespaces/inkscape"
   width="440"
   height="130"
   id="svg4253"
   version="1.1"
   inkscape:version="0.48.3.1 r9886"
   sodipodi:docname="Nouveau document 8">
  <defs
     id="defs4255" />
  <sodipodi:namedview
     id="base"
     pagecolor="#ffffff"
     bordercolor="#666666"
     borderopacity="1.0"
     inkscape:pageopacity="0.0"
     inkscape:pageshadow="2"
     inkscape:zoom="0.7"
     inkscape:cx="191.64214"
     inkscape:cy="403.19955"
     inkscape:document-units="px"
     inkscape:current-layer="layer1"
     showgrid="false"
     inkscape:window-width="1600"
     inkscape:window-height="854"
     inkscape:window-x="0"
     inkscape:window-y="24"
     inkscape:window-maximized="1" />
  <metadata
     id="metadata4258">
    <rdf:RDF>
      <cc:Work
         rdf:about="">
        <dc:format>image/svg+xml</dc:format>
        <dc:type
           rdf:resource="http://purl.org/dc/dcmitype/StillImage" />
        <dc:title></dc:title>
      </cc:Work>
    </rdf:RDF>
  </metadata>
  <g
     inkscape:label="Calque 1"
     inkscape:groupmode="layer"
     id="layer1"
     transform="translate(0,-922.36218)">
    <g
       transform="translate(-301.52856,887.12647)"
       id="Titre">
      <line
         style="fill:none;stroke:#b11b4a;stroke-miterlimit:10"
         id="Trait"
         stroke-miterlimit="10"
         x1="732.09998"
         y1="158.5"
         x2="551.20001"
         y2="158.5" />
      <g
         style="display:none"
         id="_x32_"
         display="none">
        <path
           style="fill:#fac768;display:inline"
           inkscape:connector-curvature="0"
           display="inline"
           d="m 543.4,31.3 c 0.1,-0.5 0.2,-1.1 0.3,-1.5 0.2,-0.5 0.4,-0.8 0.6,-1.2 0.3,-0.3 0.6,-0.5 1,-0.5 0.2,0 0.5,0 0.7,0.1 0.3,0.1 0.5,0.2 0.8,0.3 0.2,0.1 0.4,0.3 0.6,0.5 0.2,0.2 0.2,0.4 0.2,0.7 0,0.1 0,0.2 -0.1,0.4 0,0.1 -0.1,0.3 -0.1,0.4 L 542.3,51 c -0.2,0.8 -0.4,1.6 -0.5,2.3 -0.1,0.7 -0.2,1.4 -0.3,1.8 v 0.5 c 0,0.4 0,0.9 -0.1,1.3 -0.1,0.5 -0.2,0.9 -0.3,1.4 -0.2,0.4 -0.4,0.8 -0.6,1 -0.3,0.3 -0.6,0.4 -1,0.4 -0.4,0 -0.7,-0.1 -1,-0.2 -0.3,-0.2 -0.5,-0.4 -0.7,-0.6 -0.2,-0.2 -0.3,-0.5 -0.4,-0.8 -0.1,-0.3 -0.1,-0.5 -0.1,-0.8 0,-0.2 0,-0.5 0.1,-0.8 0,-0.3 0.1,-0.7 0.2,-1 0.1,-0.3 0.1,-0.7 0.2,-1 0.1,-0.3 0.1,-0.7 0.2,-0.9 l 5.3,-20.9 c 0,-0.3 0,-0.8 0.1,-1.4 z"
           id="path347" />
        <path
           style="fill:#fac768;display:inline"
           inkscape:connector-curvature="0"
           display="inline"
           d="m 554.9,35.6 c -0.7,-0.1 -1.3,-0.4 -1.7,-0.8 -0.4,-0.5 -0.7,-1.1 -0.7,-1.7 0,-1 0.4,-1.8 1.1,-2.5 0.7,-0.7 1.6,-1.1 2.5,-1.1 0.8,0 1.4,0.3 1.8,0.8 0.4,0.5 0.7,1.3 0.7,2.3 0,1.6 -0.7,3.4 -2.1,5.4 -1.4,2 -2.5,3 -3.5,3 -0.3,0 -0.6,-0.1 -0.9,-0.4 -0.3,-0.2 -0.4,-0.5 -0.4,-0.8 0,-0.5 0.1,-0.8 0.3,-1.1 0.2,-0.3 0.6,-0.6 1.1,-0.9 0.9,-0.5 1.5,-1.3 1.8,-2.2 z"
           id="path349" />
        <path
           style="fill:#e94c2d;display:inline"
           inkscape:connector-curvature="0"
           display="inline"
           d="m 561.6,56 c 0.5,-1.9 1.1,-3.8 2,-5.8 0.9,-2 1.9,-3.9 3,-5.9 1.2,-2 2.4,-3.9 3.8,-5.8 1.4,-1.9 2.9,-3.8 4.5,-5.6 1.6,-1.8 3.2,-3.5 4.9,-5.1 1.7,-1.6 3.4,-3 5.1,-4.4 0.8,-0.6 1.5,-0.9 2.2,-1.1 0.7,-0.2 1.4,-0.3 2.1,-0.3 0.8,0 1.5,0.1 2.1,0.4 0.6,0.2 1.3,0.7 1.9,1.3 0.2,0.2 0.4,0.4 0.6,0.6 0.2,0.2 0.4,0.3 0.6,0.3 0.1,0 0.1,-0.1 0.2,-0.2 0.1,-0.1 0.2,-0.2 0.2,-0.4 0.1,-0.2 0.2,-0.3 0.3,-0.5 0.1,-0.2 0.3,-0.3 0.5,-0.4 0.4,-0.2 0.9,-0.3 1.5,-0.4 0.6,-0.1 1.2,-0.1 1.8,-0.1 1.1,0 2.2,0.2 3.3,0.6 1.1,0.4 2,1 2.8,1.7 1.9,1.8 3.3,3.9 4.3,6.4 1,2.5 1.5,5.1 1.5,8 0,2.6 -0.4,5.3 -1.1,8.3 -0.7,2.6 -1.6,5.1 -2.8,7.6 -1.2,2.5 -2.6,4.8 -4.3,6.9 -1.6,2.2 -3.5,4.1 -5.5,5.9 -2,1.8 -4.2,3.3 -6.4,4.6 -2.3,1.3 -4.7,2.3 -7.1,3 -2.5,0.7 -5,1.1 -7.5,1.1 -2.4,0 -4.5,-0.4 -6.4,-1.1 -1.9,-0.7 -3.5,-1.8 -4.8,-3.1 -1.3,-1.3 -2.3,-2.9 -3,-4.7 -0.7,-1.8 -1,-3.9 -1,-6.1 0,-1 0.1,-1.9 0.2,-2.9 0.1,-0.8 0.2,-1.8 0.5,-2.8 z m 6.3,2.5 c -0.3,1.3 -0.4,2.4 -0.4,3.4 0,1.4 0.2,2.6 0.7,3.7 0.5,1.1 1.2,2 2.1,2.7 0.9,0.7 2,1.3 3.2,1.6 1.2,0.4 2.6,0.5 4.1,0.5 1.8,0 3.5,-0.3 5.3,-0.8 1.8,-0.5 3.6,-1.4 5.3,-2.4 1.7,-1 3.4,-2.3 5,-3.8 1.6,-1.5 3.1,-3.2 4.4,-5 1.4,-1.9 2.6,-3.9 3.6,-6.1 1.1,-2.2 1.9,-4.5 2.6,-7 0.3,-0.9 0.4,-1.8 0.5,-2.8 0.1,-1 0.2,-1.9 0.2,-2.8 0,-1.5 -0.2,-2.8 -0.5,-4.2 -0.3,-1.3 -0.9,-2.5 -1.6,-3.5 -0.7,-1 -1.7,-1.8 -3,-2.5 -1.2,-0.6 -2.7,-0.9 -4.5,-0.9 -0.3,0 -0.4,0.1 -0.6,0.3 -0.2,0.2 -0.3,0.5 -0.4,0.8 -0.1,0.3 -0.3,0.6 -0.4,0.9 -0.2,0.3 -0.4,0.6 -0.6,0.8 -0.2,0.2 -0.6,0.4 -1,0.6 -0.4,0.2 -0.9,0.2 -1.4,0.2 -0.4,0 -0.8,-0.1 -1.1,-0.3 -0.3,-0.2 -0.7,-0.4 -1,-0.8 -0.2,-0.2 -0.3,-0.3 -0.4,-0.4 -0.1,-0.1 -0.2,-0.1 -0.3,-0.1 -0.2,0 -0.5,0.1 -0.9,0.3 -0.4,0.2 -0.7,0.4 -1.1,0.7 -0.4,0.3 -0.8,0.6 -1.1,0.9 -0.4,0.3 -0.6,0.6 -0.8,0.8 -1.7,1.8 -3.4,3.7 -5.1,5.7 -1.7,2.1 -3.2,4.2 -4.7,6.4 -1.5,2.2 -2.7,4.4 -3.7,6.7 -1,2.3 -1.9,4.3 -2.4,6.4 z"
           id="path351" />
        <path
           style="fill:#fac768;display:inline"
           inkscape:connector-curvature="0"
           display="inline"
           d="m 614.9,52.4 c 0.2,-0.7 0.4,-1.5 0.7,-2.2 0.3,-0.7 0.7,-1.5 1.1,-2.2 0.4,-0.7 1,-1.4 1.6,-2.1 0.6,-0.7 1.3,-1.3 2.1,-2 0.5,-0.4 1.1,-0.8 1.7,-1.2 0.6,-0.4 1.2,-0.7 1.9,-1 0.6,-0.3 1.3,-0.5 1.9,-0.7 0.6,-0.2 1.3,-0.3 1.9,-0.3 0.5,0 0.8,0 1.2,0.1 0.3,0.1 0.7,0.2 1,0.3 0.1,-0.5 0.5,-1.8 1.1,-3.8 0.6,-2.1 1.3,-5 2.2,-8.7 0.1,-0.4 0.4,-0.7 0.6,-0.9 0.3,-0.2 0.6,-0.4 1,-0.4 0.3,0 0.5,0 0.8,0.1 0.3,0.1 0.5,0.1 0.7,0.3 0.2,0.1 0.4,0.3 0.5,0.6 0.1,0.2 0.2,0.6 0.2,1 L 633,45.7 c -0.1,0.5 -0.2,1.1 -0.3,1.9 -0.1,0.8 -0.2,1.6 -0.3,2.5 -0.1,0.9 -0.2,1.7 -0.2,2.6 -0.1,0.9 -0.1,1.6 -0.1,2.2 0,0.8 -0.1,1.5 -0.3,2.3 -0.1,0.3 -0.2,0.6 -0.3,0.8 -0.1,0.2 -0.2,0.4 -0.4,0.6 -0.2,0.1 -0.3,0.2 -0.6,0.3 -0.3,0.1 -0.5,0.1 -0.8,0.1 -0.4,0 -0.7,0 -0.9,-0.1 -0.2,-0.1 -0.4,-0.2 -0.5,-0.3 -0.1,-0.1 -0.2,-0.3 -0.2,-0.5 0,-0.2 0,-0.4 0,-0.6 0,-0.2 0,-0.4 0,-0.7 0,-0.2 -0.1,-0.4 -0.2,-0.6 -0.2,0.1 -0.4,0.3 -0.7,0.4 -0.3,0.1 -0.6,0.4 -0.9,0.5 -0.3,0.2 -0.6,0.4 -0.8,0.5 -0.3,0.2 -0.4,0.3 -0.6,0.3 -0.3,0.2 -0.7,0.4 -1.1,0.6 -0.4,0.2 -0.8,0.4 -1.3,0.6 -0.5,0.2 -0.9,0.3 -1.4,0.4 -0.5,0.1 -1,0.2 -1.5,0.2 -0.6,0 -1.2,-0.1 -1.8,-0.3 -0.6,-0.2 -1.1,-0.5 -1.6,-0.9 -0.5,-0.4 -0.8,-1 -1.1,-1.6 -0.3,-0.6 -0.4,-1.4 -0.4,-2.3 0,-0.3 0,-0.6 0.1,-0.9 0,-0.6 0,-0.9 0.1,-1.3 z m 3.6,-0.2 c -0.1,0.4 -0.2,0.8 -0.2,1.2 0,0.4 0,0.8 0.1,1.1 0.1,0.3 0.2,0.7 0.4,0.9 0.2,0.3 0.4,0.5 0.7,0.6 0.3,0.1 0.7,0.2 1.2,0.2 0.3,0 0.6,0 0.9,-0.1 0.3,-0.1 0.6,-0.2 0.9,-0.4 0.3,-0.1 0.6,-0.3 0.9,-0.5 0.3,-0.2 0.5,-0.3 0.7,-0.4 0.5,-0.3 1,-0.7 1.4,-1 0.4,-0.3 0.8,-0.7 1.2,-1.1 0.4,-0.4 0.7,-0.8 0.9,-1.3 0.3,-0.5 0.5,-1 0.6,-1.6 0.1,-0.5 0.3,-1 0.4,-1.5 0.1,-0.5 0.2,-0.9 0.3,-1.3 0.1,-0.4 0.2,-0.9 0.2,-1.3 0.1,-0.5 0.1,-0.9 0.2,-1.5 -0.1,-0.1 -0.2,-0.2 -0.3,-0.2 -0.1,0 -0.3,-0.1 -0.5,-0.1 -0.5,0 -1.1,0.1 -1.8,0.3 -0.7,0.2 -1.3,0.4 -2,0.8 -0.7,0.4 -1.4,0.8 -2,1.2 -0.7,0.5 -1.3,1 -1.8,1.6 -0.6,0.6 -1.1,1.3 -1.5,2 -0.4,0.8 -0.7,1.6 -0.9,2.4 z"
           id="path353" />
        <path
           style="fill:#fac768;display:inline"
           inkscape:connector-curvature="0"
           display="inline"
           d="m 637.9,68.8 c -0.2,0 -0.4,-0.1 -0.6,-0.2 -0.2,-0.1 -0.3,-0.3 -0.4,-0.4 -0.1,-0.2 -0.2,-0.4 -0.3,-0.6 -0.1,-0.2 -0.1,-0.4 -0.1,-0.6 0,-0.3 0,-0.5 0.1,-0.7 0.1,-0.2 0.2,-0.4 0.3,-0.5 0.1,-0.1 0.2,-0.3 0.3,-0.3 0.1,0 0.2,-0.1 0.3,-0.2 0.3,-0.1 0.7,-0.2 1.1,-0.3 0.4,-0.1 0.9,-0.2 1.4,-0.4 0.5,-0.2 1.1,-0.4 1.6,-0.7 0.6,-0.3 1.2,-0.7 1.8,-1.2 0.6,-0.5 1.3,-1 1.9,-1.7 0.7,-0.6 1.3,-1.4 2,-2.2 0.6,-0.9 1.2,-1.8 1.8,-2.9 0.5,-1.1 1,-2.4 1.3,-3.8 -0.3,0.3 -0.6,0.6 -0.9,1 -0.3,0.4 -0.7,0.7 -1.1,1.1 -0.4,0.4 -0.8,0.7 -1.2,1.1 -0.4,0.3 -0.8,0.7 -1.2,0.9 -0.4,0.3 -0.8,0.5 -1.2,0.7 -0.4,0.2 -0.8,0.2 -1.1,0.2 -0.9,0 -1.7,-0.2 -2.3,-0.6 -0.6,-0.4 -1.2,-1.1 -1.8,-2.1 -0.1,-0.3 -0.3,-0.6 -0.3,-1.1 -0.1,-0.4 -0.1,-0.9 -0.1,-1.3 0,-0.7 0,-1.5 0.1,-2.1 0.1,-0.6 0.2,-1.4 0.3,-2.2 0.1,-0.8 0.3,-1.5 0.5,-2.4 0.2,-0.9 0.4,-1.7 0.6,-2.7 0,-0.3 0,-0.5 0.1,-0.7 0,-0.2 0,-0.4 0.1,-0.6 0.1,-0.2 0,-0.3 0,-0.3 0,-0.2 0.1,-0.5 0.2,-0.7 0.1,-0.2 0.3,-0.4 0.5,-0.5 0.2,-0.2 0.4,-0.3 0.6,-0.3 0.2,0 0.4,-0.1 0.6,-0.1 0.3,0 0.6,0 0.9,0.1 0.3,0 0.5,0.2 0.7,0.3 0.2,0.2 0.4,0.6 0.5,1 0.1,0.4 0.2,0.8 0.2,1.1 0,0.1 -0.1,0.4 -0.2,0.7 -0.1,0.4 -0.3,0.8 -0.5,1.1 -0.3,1.2 -0.6,2.3 -0.8,3.1 -0.2,0.9 -0.4,1.6 -0.5,2.1 -0.1,0.6 -0.2,1 -0.2,1.4 0,0.3 -0.1,0.6 -0.1,0.8 0,0.7 0.1,1.3 0.4,1.8 0.2,0.4 0.5,0.7 0.9,0.7 0.2,0 0.4,0 0.7,-0.1 0.3,-0.1 0.5,-0.2 0.8,-0.4 1.1,-0.7 2.1,-1.5 3,-2.3 0.8,-0.8 1.5,-1.8 2.1,-2.8 0.6,-1 1.1,-2.1 1.5,-3.3 0.4,-1.2 0.8,-2.6 1.2,-4 0,-0.1 0.1,-0.2 0.2,-0.3 0.1,-0.1 0.2,-0.2 0.4,-0.2 0.1,-0.1 0.3,-0.1 0.5,-0.2 0.2,0 0.3,-0.1 0.5,-0.1 0.7,0 1.3,0.2 1.7,0.6 0.4,0.4 0.6,0.9 0.6,1.6 0,0.2 -0.1,0.6 -0.2,1.2 -0.1,0.6 -0.3,1.1 -0.4,1.7 -0.2,0.6 -0.3,1.2 -0.5,1.7 -0.2,0.6 -0.3,1 -0.4,1.2 l -1,2.8 c -0.5,1.3 -0.9,2.5 -1.2,3.5 -0.4,1.1 -0.7,2.1 -1.2,3 -0.4,0.9 -0.9,1.8 -1.4,2.6 -0.5,0.8 -1.1,1.6 -1.9,2.4 -0.8,0.8 -1.6,1.6 -2.6,2.4 -1,0.8 -2.2,1.6 -3.6,2.5 -0.8,0.5 -1.7,0.9 -2.5,1.2 -0.8,0.4 -1.6,0.5 -2.5,0.5 z"
           id="path355" />
        <path
           style="fill:#fac768;display:inline"
           inkscape:connector-curvature="0"
           display="inline"
           d="m 660.6,55.8 c 0.1,0 0.2,0 0.3,0 0.1,0 0.2,0.1 0.3,0.1 0.1,0 0.2,0.1 0.4,0.1 0.1,0 0.3,0 0.5,0 0.6,0 1.4,-0.1 2.1,-0.2 0.7,-0.1 1.5,-0.3 2.2,-0.5 0.7,-0.2 1.3,-0.5 1.8,-0.7 0.5,-0.3 0.8,-0.6 0.8,-0.9 0,-0.2 0.1,-0.3 0.1,-0.4 0,-0.2 -0.1,-0.5 -0.3,-0.7 -0.2,-0.2 -0.5,-0.4 -0.8,-0.6 -0.3,-0.2 -0.7,-0.4 -1.1,-0.5 -0.4,-0.2 -0.8,-0.3 -1.1,-0.5 l -0.7,-0.3 c -0.4,-0.1 -0.7,-0.3 -1,-0.5 -0.3,-0.2 -0.7,-0.4 -1,-0.7 -0.3,-0.3 -0.6,-0.6 -0.8,-0.9 -0.2,-0.3 -0.4,-0.7 -0.5,-1.2 -0.1,-0.2 -0.1,-0.4 -0.1,-0.6 0,-0.2 -0.1,-0.4 -0.1,-0.6 0,-0.4 0.1,-0.8 0.4,-1.2 0.3,-0.4 0.6,-0.9 1,-1.4 0.4,-0.5 0.9,-0.9 1.4,-1.3 0.5,-0.4 1,-0.8 1.6,-1 0.4,-0.3 0.8,-0.5 1.2,-0.8 0.4,-0.2 0.8,-0.4 1.2,-0.6 0.4,-0.2 0.8,-0.3 1.2,-0.4 0.4,-0.1 0.8,-0.1 1.3,-0.1 0.4,0 0.9,0 1.3,0.1 0.5,0 0.9,0.1 1.3,0.3 0.4,0.1 0.7,0.4 1,0.7 0.3,0.3 0.4,0.7 0.4,1.2 0,0.2 0,0.3 -0.1,0.6 0,0.2 -0.1,0.5 -0.2,0.7 -0.1,0.2 -0.2,0.5 -0.3,0.6 -0.1,0.2 -0.3,0.3 -0.5,0.3 -0.3,0 -0.6,-0.1 -0.8,-0.2 -0.2,-0.1 -0.4,-0.3 -0.6,-0.4 -0.2,-0.1 -0.3,-0.3 -0.5,-0.4 -0.2,-0.1 -0.4,-0.2 -0.7,-0.2 -0.3,0 -0.7,0.1 -1.1,0.2 -0.4,0.1 -0.8,0.3 -1.3,0.5 -0.4,0.2 -0.9,0.4 -1.3,0.7 -0.4,0.3 -0.8,0.5 -1.1,0.8 -0.3,0.3 -0.6,0.5 -0.8,0.8 -0.2,0.3 -0.3,0.5 -0.3,0.7 0,0.2 0.1,0.4 0.2,0.6 0.2,0.2 0.3,0.3 0.6,0.4 0.3,0.2 0.6,0.3 1,0.5 0.4,0.2 0.8,0.3 1.2,0.5 0.4,0.2 0.8,0.3 1.2,0.5 0.4,0.2 0.7,0.3 1,0.5 0.4,0.2 0.7,0.4 1,0.6 0.3,0.2 0.5,0.4 0.7,0.6 0.2,0.2 0.4,0.5 0.5,0.7 0.1,0.3 0.2,0.6 0.2,1 0,0.2 0,0.4 0,0.5 0,0.2 -0.1,0.4 -0.1,0.6 0,0.2 -0.1,0.4 -0.2,0.7 -0.1,0.3 -0.2,0.5 -0.3,0.8 -0.1,0.3 -0.2,0.5 -0.4,0.7 -0.1,0.2 -0.2,0.4 -0.3,0.4 -0.5,0.5 -1.2,1 -1.9,1.4 -0.7,0.4 -1.5,0.8 -2.3,1.1 -0.8,0.3 -1.6,0.6 -2.4,0.8 -0.8,0.2 -1.5,0.3 -2.2,0.3 -0.3,0 -0.7,-0.1 -1.1,-0.2 -0.4,-0.1 -0.8,-0.3 -1.1,-0.5 -0.3,-0.2 -0.6,-0.5 -0.8,-0.7 -0.2,-0.3 -0.3,-0.5 -0.3,-0.8 0,-0.1 0,-0.3 0.1,-0.5 0.1,-0.2 0.2,-0.3 0.3,-0.5 0.1,-0.1 0.3,-0.3 0.4,-0.4 0.1,-0.2 0.2,-0.2 0.3,-0.2 z"
           id="path357" />
        <path
           style="fill:#fac768;display:inline"
           inkscape:connector-curvature="0"
           display="inline"
           d="m 677.9,55.8 c 0.1,0 0.2,0 0.3,0 0.1,0 0.2,0.1 0.3,0.1 0.1,0 0.2,0.1 0.4,0.1 0.1,0 0.3,0 0.5,0 0.6,0 1.4,-0.1 2.1,-0.2 0.8,-0.1 1.5,-0.3 2.2,-0.5 0.7,-0.2 1.3,-0.5 1.8,-0.7 0.5,-0.3 0.8,-0.6 0.8,-0.9 0,-0.2 0.1,-0.3 0.1,-0.4 0,-0.2 -0.1,-0.5 -0.3,-0.7 -0.2,-0.2 -0.5,-0.4 -0.8,-0.6 -0.3,-0.2 -0.7,-0.4 -1.1,-0.5 -0.4,-0.2 -0.8,-0.3 -1.1,-0.5 l -0.7,-0.3 c -0.4,-0.1 -0.7,-0.3 -1,-0.5 -0.3,-0.2 -0.7,-0.4 -1,-0.7 -0.3,-0.3 -0.6,-0.6 -0.8,-0.9 -0.2,-0.3 -0.4,-0.7 -0.5,-1.2 C 679,47.2 679,47 679,46.8 c 0,-0.2 -0.1,-0.4 -0.1,-0.6 0,-0.4 0.1,-0.8 0.4,-1.2 0.3,-0.4 0.6,-0.9 1,-1.4 0.4,-0.5 0.9,-0.9 1.4,-1.3 0.5,-0.4 1,-0.8 1.6,-1 0.4,-0.3 0.8,-0.5 1.2,-0.8 0.4,-0.3 0.8,-0.4 1.2,-0.6 0.4,-0.2 0.8,-0.3 1.2,-0.4 0.4,-0.1 0.8,-0.1 1.3,-0.1 0.4,0 0.9,0 1.3,0.1 0.4,0.1 0.9,0.1 1.3,0.3 0.4,0.1 0.7,0.4 1,0.7 0.3,0.3 0.4,0.7 0.4,1.2 0,0.2 0,0.3 -0.1,0.6 0,0.2 -0.1,0.5 -0.2,0.7 -0.1,0.2 -0.2,0.5 -0.3,0.6 -0.1,0.2 -0.3,0.3 -0.5,0.3 -0.3,0 -0.6,-0.1 -0.8,-0.2 -0.2,-0.1 -0.4,-0.3 -0.6,-0.4 -0.2,-0.1 -0.3,-0.3 -0.5,-0.4 -0.2,-0.1 -0.4,-0.2 -0.7,-0.2 -0.3,0 -0.7,0.1 -1.1,0.2 -0.4,0.1 -0.8,0.3 -1.3,0.5 -0.4,0.2 -0.9,0.4 -1.3,0.7 -0.4,0.3 -0.8,0.5 -1.1,0.8 -0.3,0.3 -0.6,0.5 -0.8,0.8 -0.2,0.3 -0.3,0.5 -0.3,0.7 0,0.2 0.1,0.4 0.2,0.6 0.1,0.2 0.3,0.3 0.6,0.4 0.3,0.2 0.6,0.3 1,0.5 0.4,0.2 0.8,0.3 1.2,0.5 0.4,0.2 0.8,0.3 1.2,0.5 0.4,0.2 0.7,0.3 1,0.5 0.4,0.2 0.7,0.4 1,0.6 0.3,0.2 0.5,0.4 0.7,0.6 0.2,0.2 0.4,0.5 0.5,0.7 0.1,0.3 0.2,0.6 0.2,1 0,0.2 0,0.4 0,0.5 0,0.2 -0.1,0.4 -0.1,0.6 0,0.2 -0.1,0.4 -0.2,0.7 -0.1,0.3 -0.2,0.5 -0.3,0.8 -0.1,0.3 -0.2,0.5 -0.4,0.7 -0.2,0.2 -0.2,0.4 -0.3,0.4 -0.5,0.5 -1.2,1 -1.9,1.4 -0.7,0.4 -1.5,0.8 -2.3,1.1 -0.8,0.3 -1.6,0.6 -2.4,0.8 -0.8,0.2 -1.5,0.3 -2.2,0.3 -0.3,0 -0.7,-0.1 -1.1,-0.2 -0.4,-0.1 -0.8,-0.3 -1.1,-0.5 -0.3,-0.2 -0.6,-0.5 -0.8,-0.7 -0.2,-0.3 -0.3,-0.5 -0.3,-0.8 0,-0.1 0,-0.3 0.1,-0.5 0.1,-0.2 0.2,-0.3 0.3,-0.5 0.1,-0.1 0.3,-0.3 0.4,-0.4 0.1,-0.2 0.2,-0.2 0.3,-0.2 z"
           id="path359" />
        <path
           style="fill:#fac768;display:inline"
           inkscape:connector-curvature="0"
           display="inline"
           d="m 694.5,51.5 c 0,-0.6 0.2,-1.1 0.5,-1.5 0.3,-0.4 0.7,-0.7 1.2,-0.8 0.2,-0.3 0.4,-0.7 0.7,-1.2 0.3,-0.5 0.7,-1.1 1.2,-1.7 0.5,-0.6 1,-1.2 1.6,-1.8 0.6,-0.6 1.2,-1.2 2,-1.7 0.7,-0.5 1.5,-0.9 2.3,-1.2 0.8,-0.3 1.7,-0.5 2.6,-0.5 0.8,0 1.5,0.1 2.1,0.3 0.6,0.2 1.1,0.5 1.5,0.8 0.4,0.3 0.7,0.7 0.9,1.2 0.2,0.5 0.3,1 0.3,1.5 0,0.5 -0.1,0.9 -0.2,1.3 -0.2,0.8 -0.5,1.4 -1.1,2 -0.6,0.6 -1.1,1.1 -1.8,1.5 -0.7,0.4 -1.5,0.8 -2.3,1.1 -0.8,0.3 -1.6,0.5 -2.5,0.7 -0.9,0.2 -1.6,0.3 -2.4,0.4 -0.8,0.1 -1.4,0.2 -2,0.2 -0.1,0.2 -0.2,0.6 -0.3,0.9 -0.1,0.4 -0.1,0.7 -0.1,1.1 0,0.8 0.3,1.4 0.9,1.8 0.6,0.4 1.5,0.7 2.6,0.7 0.6,0 1.3,-0.1 1.8,-0.2 0.6,-0.1 1.1,-0.3 1.7,-0.6 0.5,-0.2 1,-0.5 1.5,-0.7 0.5,-0.3 0.9,-0.5 1.3,-0.8 0.5,-0.3 1,-0.6 1.4,-0.8 0.4,-0.2 0.8,-0.3 1.2,-0.3 0.3,0 0.6,0.1 0.7,0.3 0.1,0.2 0.1,0.4 0.1,0.5 0,0.1 0,0.2 0,0.3 0,0.1 0,0.2 0,0.3 -0.1,0.4 -0.2,0.7 -0.4,1.1 -0.2,0.4 -0.5,0.7 -0.8,0.9 -1.4,1.1 -2.9,1.9 -4.4,2.4 -1.5,0.5 -3.1,0.7 -4.8,0.7 -0.3,0 -0.7,0 -1.2,-0.1 -0.4,0 -0.9,-0.1 -1.4,-0.2 -0.5,-0.1 -0.9,-0.3 -1.4,-0.5 -0.5,-0.2 -0.9,-0.5 -1.2,-0.9 -0.4,-0.4 -0.7,-0.9 -0.9,-1.4 -0.2,-0.6 -0.3,-1.2 -0.3,-2 0,-0.6 0.1,-1.4 0.3,-2.1 -0.2,0 -0.3,-0.1 -0.5,-0.3 -0.3,-0.2 -0.4,-0.4 -0.4,-0.7 z m 12.8,-5.7 c 0,-0.1 0,-0.1 0,-0.2 0,-0.1 0,-0.1 0,-0.2 0,-0.4 -0.1,-0.6 -0.4,-0.8 -0.3,-0.2 -0.6,-0.3 -1,-0.3 -0.6,0 -1.2,0.2 -1.8,0.5 -0.6,0.3 -1.1,0.7 -1.6,1.2 -0.5,0.5 -1,1 -1.4,1.5 -0.4,0.5 -0.7,1 -0.9,1.5 1,-0.1 1.9,-0.2 2.7,-0.4 0.8,-0.2 1.5,-0.4 2.1,-0.7 0.6,-0.3 1.1,-0.6 1.5,-0.9 0.4,-0.3 0.7,-0.8 0.8,-1.2 z m 6.8,-13.9 c -0.2,0.6 -0.4,1.1 -0.8,1.5 -0.4,0.4 -0.8,0.7 -1.3,1 l -6.4,3.2 c -0.2,0.1 -0.6,0.2 -1,0.2 -0.3,0 -0.5,-0.1 -0.7,-0.2 -0.1,-0.1 -0.2,-0.3 -0.2,-0.6 0,-0.3 0.1,-0.5 0.2,-0.8 0.1,-0.3 0.3,-0.4 0.4,-0.6 0.2,-0.2 0.4,-0.4 0.6,-0.5 0.2,-0.1 0.4,-0.3 0.6,-0.4 l 1.6,-0.9 c 0.7,-0.4 1.3,-0.8 1.9,-1.2 0.6,-0.4 1.2,-0.7 1.8,-1 0.6,-0.3 1,-0.6 1.5,-0.8 0.4,-0.2 0.8,-0.3 1,-0.3 0.3,0 0.5,0.1 0.7,0.3 0.2,0.2 0.3,0.4 0.3,0.8 0,0.1 0,0.1 0,0.2 0,0.1 -0.2,0 -0.2,0.1 z"
           id="path361" />
        <path
           style="fill:#fac768;display:inline"
           inkscape:connector-curvature="0"
           display="inline"
           d="m 715.2,51.5 c 0,-0.6 0.2,-1.1 0.5,-1.5 0.3,-0.4 0.7,-0.7 1.2,-0.8 0.1,-0.3 0.4,-0.7 0.7,-1.2 0.3,-0.5 0.7,-1.1 1.2,-1.7 0.5,-0.6 1,-1.2 1.6,-1.8 0.6,-0.6 1.2,-1.2 2,-1.7 0.7,-0.5 1.5,-0.9 2.3,-1.2 0.8,-0.3 1.7,-0.5 2.6,-0.5 0.8,0 1.5,0.1 2.1,0.3 0.6,0.2 1.1,0.5 1.5,0.8 0.4,0.3 0.7,0.7 0.9,1.2 0.2,0.5 0.3,1 0.3,1.5 0,0.5 -0.1,0.9 -0.2,1.3 -0.2,0.8 -0.5,1.4 -1.1,2 -0.6,0.6 -1.1,1.1 -1.8,1.5 -0.7,0.4 -1.5,0.8 -2.3,1.1 -0.8,0.3 -1.7,0.5 -2.5,0.7 -0.8,0.2 -1.6,0.3 -2.4,0.4 -0.8,0.1 -1.4,0.2 -2,0.2 -0.1,0.2 -0.2,0.6 -0.3,0.9 -0.1,0.4 -0.1,0.7 -0.1,1.1 0,0.8 0.3,1.4 0.9,1.8 0.6,0.4 1.5,0.7 2.6,0.7 0.6,0 1.3,-0.1 1.8,-0.2 0.6,-0.1 1.1,-0.3 1.7,-0.6 0.5,-0.2 1,-0.5 1.5,-0.7 0.5,-0.2 0.9,-0.5 1.3,-0.8 0.5,-0.3 1,-0.6 1.4,-0.8 0.4,-0.2 0.8,-0.3 1.2,-0.3 0.3,0 0.6,0.1 0.7,0.3 0.1,0.2 0.1,0.4 0.1,0.5 0,0.1 0,0.2 0,0.3 0,0.1 0,0.2 0,0.3 -0.1,0.4 -0.2,0.7 -0.4,1.1 -0.2,0.4 -0.5,0.7 -0.8,0.9 -1.4,1.1 -2.9,1.9 -4.4,2.4 -1.5,0.5 -3.1,0.7 -4.8,0.7 -0.3,0 -0.7,0 -1.2,-0.1 -0.4,0 -0.9,-0.1 -1.4,-0.2 -0.5,-0.1 -0.9,-0.3 -1.4,-0.5 -0.5,-0.2 -0.9,-0.5 -1.2,-0.9 -0.3,-0.4 -0.7,-0.9 -0.9,-1.4 -0.2,-0.6 -0.3,-1.2 -0.3,-2 0,-0.6 0.1,-1.4 0.3,-2.1 -0.2,0 -0.3,-0.1 -0.5,-0.3 -0.3,-0.2 -0.4,-0.4 -0.4,-0.7 z M 728,45.8 c 0,-0.1 0,-0.1 0,-0.2 0,-0.1 0,-0.1 0,-0.2 0,-0.4 -0.1,-0.6 -0.4,-0.8 -0.3,-0.2 -0.6,-0.3 -1,-0.3 -0.6,0 -1.2,0.2 -1.8,0.5 -0.6,0.3 -1.1,0.7 -1.6,1.2 -0.5,0.5 -1,1 -1.4,1.5 -0.4,0.5 -0.7,1 -0.9,1.5 1,-0.1 1.9,-0.2 2.7,-0.4 0.8,-0.2 1.5,-0.4 2.1,-0.7 0.6,-0.3 1.1,-0.6 1.5,-0.9 0.4,-0.3 0.7,-0.8 0.8,-1.2 z"
           id="path363" />
        <path
           style="fill:#fac768;display:inline"
           inkscape:connector-curvature="0"
           display="inline"
           d="m 644.1,83.5 c 0.1,-0.5 0.3,-1 0.5,-1.5 0.2,-0.5 0.5,-1 0.8,-1.5 0.3,-0.5 0.7,-1 1.1,-1.5 0.4,-0.5 0.9,-0.9 1.5,-1.4 0.4,-0.3 0.8,-0.6 1.2,-0.9 0.4,-0.3 0.8,-0.5 1.3,-0.7 0.4,-0.2 0.9,-0.4 1.3,-0.5 0.4,-0.1 0.9,-0.2 1.3,-0.2 0.3,0 0.6,0 0.8,0.1 0.2,0.1 0.5,0.1 0.7,0.2 0.1,-0.3 0.3,-1.2 0.8,-2.7 0.5,-1.5 0.9,-3.5 1.5,-6 0.1,-0.3 0.2,-0.5 0.4,-0.6 0.2,-0.2 0.4,-0.3 0.7,-0.3 0.2,0 0.4,0 0.6,0 0.2,0 0.3,0.1 0.5,0.2 0.2,0.1 0.3,0.2 0.3,0.4 0,0.2 0.1,0.4 0.1,0.7 l -2.8,11.4 c -0.1,0.3 -0.2,0.8 -0.2,1.3 -0.1,0.5 -0.1,1.1 -0.2,1.7 -0.1,0.6 -0.1,1.2 -0.2,1.8 0,0.6 -0.1,1.1 -0.1,1.5 0,0.5 -0.1,1.1 -0.2,1.6 -0.1,0.2 -0.1,0.4 -0.2,0.6 -0.1,0.2 -0.1,0.3 -0.2,0.4 -0.1,0.1 -0.2,0.2 -0.4,0.2 -0.2,0 -0.4,0.1 -0.6,0.1 -0.3,0 -0.5,0 -0.6,-0.1 -0.1,-0.1 -0.3,-0.1 -0.3,-0.2 -0.1,-0.1 -0.1,-0.2 -0.1,-0.3 0,-0.1 0,-0.3 0,-0.4 0,-0.1 0,-0.3 0,-0.5 0,-0.2 -0.1,-0.3 -0.1,-0.4 -0.1,0.1 -0.3,0.2 -0.5,0.3 -0.2,0.1 -0.4,0.2 -0.6,0.4 -0.2,0.2 -0.4,0.2 -0.6,0.4 -0.2,0.1 -0.3,0.2 -0.4,0.2 -0.2,0.1 -0.5,0.3 -0.7,0.4 -0.3,0.1 -0.6,0.3 -0.9,0.4 -0.3,0.1 -0.6,0.2 -1,0.3 -0.3,0.1 -0.7,0.1 -1,0.1 -0.4,0 -0.8,-0.1 -1.2,-0.2 -0.4,-0.1 -0.8,-0.4 -1.1,-0.7 -0.3,-0.3 -0.6,-0.7 -0.8,-1.1 -0.2,-0.4 -0.3,-1 -0.3,-1.6 0,-0.2 0,-0.4 0,-0.6 0,-0.2 -0.1,-0.5 -0.1,-0.8 z m 2.5,-0.1 c -0.1,0.3 -0.1,0.6 -0.1,0.8 0,0.3 0,0.5 0.1,0.8 0,0.2 0.1,0.5 0.3,0.6 0.1,0.2 0.3,0.3 0.5,0.4 0.2,0.1 0.5,0.2 0.8,0.2 0.2,0 0.4,0 0.6,-0.1 0.2,-0.1 0.4,-0.1 0.6,-0.2 0.2,-0.1 0.4,-0.2 0.6,-0.3 0.2,-0.1 0.3,-0.2 0.5,-0.3 0.4,-0.2 0.7,-0.5 1,-0.7 0.3,-0.2 0.6,-0.5 0.8,-0.7 0.2,-0.2 0.5,-0.6 0.6,-0.9 0.2,-0.3 0.3,-0.7 0.4,-1.1 0.1,-0.4 0.2,-0.7 0.2,-1 0.1,-0.3 0.1,-0.6 0.2,-0.9 0.1,-0.3 0.1,-0.6 0.2,-0.9 0,-0.3 0.1,-0.7 0.1,-1 0,-0.1 -0.1,-0.1 -0.2,-0.2 -0.1,-0.1 -0.2,-0.1 -0.4,-0.1 -0.4,0 -0.8,0.1 -1.2,0.2 -0.5,0.1 -0.9,0.3 -1.4,0.5 -0.5,0.2 -0.9,0.5 -1.4,0.9 -0.5,0.3 -0.9,0.7 -1.3,1.1 -0.4,0.4 -0.7,0.9 -1,1.4 -0.3,0.5 -0.4,0.9 -0.5,1.5 z"
           id="path365" />
        <path
           style="fill:#fac768;display:inline"
           inkscape:connector-curvature="0"
           display="inline"
           d="m 659.9,82.9 c 0,-0.4 0.1,-0.7 0.3,-1 0.2,-0.3 0.5,-0.5 0.9,-0.6 0.1,-0.2 0.3,-0.5 0.5,-0.8 0.2,-0.4 0.5,-0.7 0.8,-1.2 0.3,-0.4 0.7,-0.8 1.1,-1.3 0.4,-0.4 0.9,-0.8 1.4,-1.1 0.5,-0.3 1,-0.6 1.6,-0.8 0.6,-0.2 1.2,-0.3 1.8,-0.3 0.5,0 1,0.1 1.4,0.2 0.4,0.1 0.7,0.3 1,0.6 0.3,0.2 0.5,0.5 0.6,0.8 0.1,0.3 0.2,0.7 0.2,1.1 0,0.3 0,0.6 -0.1,0.9 -0.1,0.5 -0.4,1 -0.7,1.4 -0.4,0.4 -0.8,0.7 -1.3,1 -0.5,0.3 -1,0.5 -1.6,0.7 -0.6,0.2 -1.1,0.4 -1.7,0.5 -0.6,0.1 -1.1,0.2 -1.6,0.3 -0.5,0.1 -1,0.1 -1.4,0.2 -0.1,0.2 -0.2,0.4 -0.2,0.6 0,0.2 -0.1,0.5 -0.1,0.8 0,0.5 0.2,1 0.7,1.3 0.4,0.3 1,0.5 1.8,0.5 0.4,0 0.9,0 1.3,-0.1 0.4,-0.1 0.8,-0.2 1.2,-0.4 0.4,-0.2 0.7,-0.3 1,-0.5 0.3,-0.2 0.6,-0.4 0.9,-0.5 0.3,-0.2 0.7,-0.4 1,-0.6 0.3,-0.2 0.6,-0.2 0.8,-0.2 0.2,0 0.4,0.1 0.5,0.2 0.1,0.1 0.1,0.2 0.1,0.4 0,0.1 0,0.1 0,0.2 0,0.1 0,0.1 0,0.2 0,0.2 -0.1,0.5 -0.3,0.7 -0.1,0.2 -0.3,0.5 -0.5,0.6 -1,0.8 -2,1.3 -3,1.7 -1,0.3 -2.1,0.5 -3.3,0.5 -0.2,0 -0.5,0 -0.8,0 -0.3,0 -0.6,-0.1 -1,-0.2 -0.3,-0.1 -0.7,-0.2 -1,-0.4 -0.3,-0.2 -0.6,-0.4 -0.9,-0.6 -0.2,-0.3 -0.5,-0.6 -0.6,-1 -0.2,-0.4 -0.2,-0.9 -0.2,-1.4 0,-0.4 0.1,-0.9 0.2,-1.5 -0.1,0 -0.2,-0.1 -0.3,-0.2 -0.4,-0.3 -0.5,-0.5 -0.5,-0.7 z m 8.9,-3.9 c 0,0 0,-0.1 0,-0.1 0,0 0,-0.1 0,-0.1 0,-0.3 -0.1,-0.4 -0.3,-0.6 -0.2,-0.1 -0.4,-0.2 -0.7,-0.2 -0.4,0 -0.8,0.1 -1.2,0.3 -0.4,0.2 -0.8,0.5 -1.1,0.8 -0.4,0.3 -0.7,0.7 -0.9,1 -0.3,0.4 -0.5,0.7 -0.6,1 0.7,-0.1 1.3,-0.1 1.9,-0.3 0.6,-0.1 1.1,-0.3 1.5,-0.5 0.4,-0.2 0.8,-0.4 1,-0.7 0.1,-0.1 0.3,-0.4 0.4,-0.6 z"
           id="path367" />
        <path
           style="fill:#fac768;display:inline"
           inkscape:connector-curvature="0"
           display="inline"
           d="m 674.7,85.8 c 0.1,0 0.1,0 0.2,0 0.1,0 0.1,0 0.2,0.1 0.1,0 0.2,0 0.3,0.1 0.1,0 0.2,0 0.4,0 0.4,0 0.9,0 1.5,-0.1 0.5,-0.1 1.1,-0.2 1.5,-0.4 0.5,-0.2 0.9,-0.3 1.2,-0.5 0.3,-0.2 0.5,-0.4 0.6,-0.6 0,-0.1 0,-0.2 0,-0.3 0,-0.2 -0.1,-0.3 -0.2,-0.5 -0.1,-0.2 -0.4,-0.3 -0.6,-0.4 -0.2,-0.1 -0.5,-0.3 -0.8,-0.4 -0.3,-0.1 -0.5,-0.2 -0.8,-0.3 l -0.5,-0.2 c -0.2,-0.1 -0.5,-0.2 -0.7,-0.3 -0.2,-0.1 -0.5,-0.3 -0.7,-0.5 -0.2,-0.2 -0.4,-0.4 -0.5,-0.6 -0.2,-0.2 -0.3,-0.5 -0.3,-0.8 0,-0.1 -0.1,-0.3 -0.1,-0.4 0,-0.1 0,-0.3 0,-0.4 0,-0.2 0.1,-0.5 0.2,-0.8 0.2,-0.3 0.4,-0.6 0.7,-0.9 0.3,-0.3 0.6,-0.6 0.9,-0.9 0.4,-0.3 0.7,-0.5 1.1,-0.7 0.3,-0.2 0.6,-0.4 0.8,-0.5 0.3,-0.2 0.5,-0.3 0.8,-0.4 0.3,-0.1 0.5,-0.2 0.8,-0.3 0.3,-0.1 0.6,-0.1 0.9,-0.1 0.3,0 0.6,0 0.9,0 0.3,0 0.6,0.1 0.9,0.2 0.3,0.1 0.5,0.3 0.7,0.5 0.2,0.2 0.3,0.5 0.3,0.8 0,0.1 0,0.2 0,0.4 0,0.2 -0.1,0.3 -0.1,0.5 -0.1,0.2 -0.1,0.3 -0.2,0.4 -0.1,0.1 -0.2,0.2 -0.3,0.2 -0.2,0 -0.4,0 -0.5,-0.1 -0.1,-0.1 -0.3,-0.2 -0.4,-0.3 -0.1,-0.1 -0.2,-0.2 -0.4,-0.3 -0.2,-0.1 -0.3,-0.1 -0.5,-0.1 -0.2,0 -0.5,0 -0.8,0.1 -0.3,0.1 -0.6,0.2 -0.9,0.3 -0.3,0.1 -0.6,0.3 -0.9,0.5 -0.3,0.2 -0.5,0.4 -0.8,0.6 -0.2,0.2 -0.4,0.4 -0.6,0.6 -0.1,0.2 -0.2,0.4 -0.2,0.5 0,0.2 0.1,0.3 0.2,0.4 0.1,0.1 0.2,0.2 0.4,0.3 0.2,0.1 0.4,0.2 0.7,0.3 0.3,0.1 0.5,0.2 0.8,0.3 0.3,0.1 0.5,0.2 0.8,0.3 0.3,0.1 0.5,0.2 0.7,0.3 0.3,0.1 0.5,0.3 0.7,0.4 0.2,0.1 0.4,0.3 0.5,0.4 0.1,0.2 0.2,0.3 0.3,0.5 0.1,0.2 0.1,0.4 0.1,0.7 0,0.1 0,0.2 0,0.4 0,0.2 0,0.3 -0.1,0.4 0,0.1 -0.1,0.3 -0.1,0.5 -0.1,0.2 -0.1,0.4 -0.2,0.6 -0.1,0.2 -0.2,0.3 -0.2,0.5 -0.1,0.1 -0.2,0.2 -0.2,0.3 -0.4,0.3 -0.8,0.7 -1.3,1 -0.5,0.3 -1,0.6 -1.6,0.8 -0.5,0.2 -1.1,0.4 -1.6,0.5 -0.5,0.1 -1,0.2 -1.5,0.2 -0.2,0 -0.5,0 -0.7,-0.1 -0.2,-0.1 -0.5,-0.2 -0.8,-0.4 -0.2,-0.1 -0.4,-0.3 -0.6,-0.5 -0.2,-0.2 -0.2,-0.4 -0.2,-0.6 0,-0.1 0,-0.2 0.1,-0.3 0.1,-0.1 0.1,-0.2 0.2,-0.3 0.1,-0.1 0.2,-0.2 0.3,-0.3 0.1,-0.2 0.2,-0.3 0.2,-0.3 z"
           id="path369" />
        <path
           style="fill:#fac768;display:inline"
           inkscape:connector-curvature="0"
           display="inline"
           d="m 313.5,116.9 c 0,-0.6 0.2,-1.1 0.5,-1.5 0.3,-0.4 0.7,-0.7 1.2,-0.8 0.2,-0.3 0.4,-0.7 0.7,-1.2 0.3,-0.5 0.7,-1.1 1.2,-1.7 0.5,-0.6 1,-1.2 1.6,-1.8 0.6,-0.6 1.2,-1.2 2,-1.7 0.8,-0.5 1.5,-0.9 2.3,-1.2 0.8,-0.3 1.7,-0.5 2.6,-0.5 0.8,0 1.5,0.1 2.1,0.3 0.6,0.2 1.1,0.5 1.5,0.8 0.4,0.3 0.7,0.7 0.9,1.2 0.2,0.5 0.3,1 0.3,1.5 0,0.5 -0.1,0.9 -0.2,1.3 -0.2,0.8 -0.5,1.4 -1.1,2 -0.6,0.6 -1.1,1.1 -1.8,1.5 -0.7,0.4 -1.5,0.8 -2.3,1.1 -0.8,0.3 -1.7,0.5 -2.5,0.7 -0.8,0.2 -1.6,0.3 -2.4,0.4 -0.8,0.1 -1.4,0.2 -2,0.2 -0.1,0.2 -0.2,0.6 -0.3,0.9 -0.1,0.4 -0.1,0.7 -0.1,1.1 0,0.8 0.3,1.4 0.9,1.8 0.6,0.4 1.5,0.7 2.6,0.7 0.6,0 1.3,-0.1 1.8,-0.2 0.5,-0.1 1.1,-0.3 1.7,-0.6 0.5,-0.2 1,-0.5 1.5,-0.7 0.5,-0.3 0.9,-0.5 1.3,-0.8 0.5,-0.3 1,-0.6 1.4,-0.8 0.4,-0.2 0.8,-0.3 1.2,-0.3 0.4,0 0.6,0.1 0.7,0.3 0.1,0.2 0.1,0.4 0.1,0.5 0,0.1 0,0.2 0,0.3 0,0.1 0,0.2 0,0.3 -0.1,0.4 -0.2,0.7 -0.4,1.1 -0.2,0.4 -0.5,0.7 -0.8,0.9 -1.4,1.1 -2.9,1.9 -4.4,2.4 -1.5,0.5 -3.1,0.7 -4.8,0.7 -0.3,0 -0.7,0 -1.2,-0.1 -0.5,-0.1 -0.9,-0.1 -1.4,-0.2 -0.5,-0.1 -0.9,-0.3 -1.4,-0.5 -0.5,-0.2 -0.9,-0.5 -1.2,-0.9 -0.3,-0.4 -0.7,-0.9 -0.9,-1.4 -0.2,-0.6 -0.3,-1.2 -0.3,-2 0,-0.6 0.1,-1.4 0.3,-2.1 -0.2,0 -0.3,-0.1 -0.5,-0.3 -0.3,-0.1 -0.4,-0.4 -0.4,-0.7 z m 12.8,-5.6 c 0,-0.1 0,-0.1 0,-0.2 0,-0.1 0,-0.1 0,-0.2 0,-0.4 -0.1,-0.6 -0.4,-0.8 -0.3,-0.2 -0.6,-0.3 -1,-0.3 -0.6,0 -1.2,0.2 -1.8,0.5 -0.6,0.3 -1.1,0.7 -1.6,1.2 -0.5,0.5 -1,1 -1.4,1.5 -0.4,0.5 -0.7,1 -0.9,1.5 1,-0.1 1.9,-0.2 2.7,-0.4 0.8,-0.2 1.5,-0.4 2.1,-0.7 0.6,-0.3 1.1,-0.6 1.5,-0.9 0.5,-0.5 0.7,-0.8 0.8,-1.2 z m 6.8,-14 c -0.1,0.6 -0.4,1.1 -0.8,1.5 -0.4,0.4 -0.8,0.7 -1.3,1 l -6.4,3.2 c -0.2,0.1 -0.6,0.2 -1,0.2 -0.3,0 -0.5,-0.1 -0.7,-0.2 -0.1,-0.1 -0.2,-0.3 -0.2,-0.6 0,-0.3 0.1,-0.5 0.2,-0.8 0.1,-0.3 0.3,-0.4 0.4,-0.6 0.2,-0.2 0.4,-0.4 0.6,-0.5 0.2,-0.1 0.4,-0.3 0.6,-0.4 l 1.6,-0.9 c 0.7,-0.4 1.3,-0.8 1.9,-1.2 0.6,-0.4 1.2,-0.7 1.8,-1 0.5,-0.3 1,-0.6 1.5,-0.8 0.4,-0.2 0.8,-0.3 1,-0.3 0.3,0 0.5,0.1 0.7,0.3 0.2,0.2 0.3,0.4 0.3,0.8 0,0.1 0,0.1 0,0.2 0,0.1 -0.2,0 -0.2,0.1 z"
           id="path371" />
        <path
           style="fill:#fac768;display:inline"
           inkscape:connector-curvature="0"
           display="inline"
           d="m 349,108 c -0.5,0 -1,0.1 -1.5,0.3 -0.5,0.2 -1.1,0.5 -1.7,0.9 -0.6,0.4 -1.2,0.8 -1.8,1.3 -0.6,0.5 -1.2,1 -1.8,1.5 -0.3,0.3 -0.6,0.5 -0.9,0.7 -0.3,0.2 -0.5,0.4 -0.8,0.5 -0.2,0.3 -0.4,0.7 -0.6,1.2 -0.2,0.5 -0.4,1.1 -0.6,1.7 -0.2,0.6 -0.4,1.2 -0.6,1.9 -0.2,0.6 -0.3,1.2 -0.5,1.8 -0.1,0.3 -0.1,0.6 -0.2,0.8 0,0.3 -0.1,0.6 -0.1,0.9 -0.1,0.3 -0.1,0.6 -0.2,1 -0.1,0.4 -0.2,0.8 -0.3,1.2 -0.1,0.3 -0.2,0.5 -0.3,0.6 -0.1,0.2 -0.3,0.3 -0.5,0.4 -0.2,0.1 -0.3,0.1 -0.5,0.2 -0.2,0.1 -0.3,0 -0.3,0 -0.5,0 -0.9,-0.1 -1.3,-0.4 -0.3,-0.2 -0.5,-0.7 -0.5,-1.4 0,-0.2 0,-0.4 0,-0.6 0,-0.2 0.1,-0.4 0.1,-0.7 0.3,-1.3 0.6,-2.5 0.9,-3.5 0.3,-1 0.6,-2 0.8,-2.9 0.2,-0.9 0.6,-1.7 0.9,-2.5 0.3,-0.8 0.6,-1.6 0.9,-2.4 0.3,-0.8 0.6,-1.6 1,-2.5 0.3,-0.9 0.7,-1.8 1.1,-2.8 0.1,-0.2 0.3,-0.4 0.6,-0.6 0.3,-0.2 0.7,-0.2 1.1,-0.2 0.5,0 0.9,0.1 1.3,0.3 0.3,0.2 0.5,0.6 0.5,1 0,0 0,0.1 0,0.2 0,0.1 -0.1,0.2 -0.1,0.3 l -0.9,2.1 c 0.6,-0.5 1.2,-0.9 1.8,-1.4 0.6,-0.5 1.3,-0.9 1.9,-1.2 0.6,-0.3 1.3,-0.7 2,-0.9 0.7,-0.2 1.3,-0.3 2,-0.3 1.3,0 2.3,0.4 3.1,1.1 0.8,0.7 1.1,1.8 1.1,3.3 0,0.8 -0.1,1.8 -0.4,2.9 -0.3,1.1 -0.7,2.2 -1.1,3.5 -0.4,1.2 -0.9,2.5 -1.4,3.9 -0.5,1.4 -1,2.7 -1.4,4.1 -0.1,0.4 -0.2,0.7 -0.4,1 -0.1,0.3 -0.3,0.5 -0.5,0.6 -0.2,0.2 -0.4,0.3 -0.6,0.3 -0.2,0 -0.5,0.1 -0.9,0.1 -0.5,0 -0.9,-0.1 -1.1,-0.3 -0.2,-0.2 -0.3,-0.5 -0.3,-1 0,-0.4 0.1,-0.8 0.2,-1.4 0.1,-0.6 0.3,-1.2 0.5,-1.8 0.2,-0.7 0.5,-1.4 0.7,-2.1 0.3,-0.8 0.6,-1.5 0.9,-2.3 0.3,-0.6 0.5,-1.3 0.8,-1.9 0.3,-0.6 0.5,-1.2 0.7,-1.8 0.2,-0.6 0.4,-1.1 0.5,-1.7 0.1,-0.5 0.2,-1 0.2,-1.5 0,-0.4 -0.1,-0.8 -0.3,-1.1 -0.3,-0.2 -0.7,-0.4 -1.2,-0.4 z"
           id="path373" />
        <path
           style="fill:#fac768;display:inline"
           inkscape:connector-curvature="0"
           display="inline"
           d="m 357.4,116.9 c 0,-0.6 0.2,-1.1 0.5,-1.5 0.3,-0.4 0.7,-0.7 1.2,-0.8 0.1,-0.3 0.4,-0.7 0.7,-1.2 0.3,-0.5 0.7,-1.1 1.2,-1.7 0.5,-0.6 1,-1.2 1.6,-1.8 0.6,-0.6 1.2,-1.2 2,-1.7 0.8,-0.5 1.5,-0.9 2.3,-1.2 0.8,-0.3 1.7,-0.5 2.6,-0.5 0.8,0 1.5,0.1 2.1,0.3 0.6,0.2 1.1,0.5 1.5,0.8 0.4,0.3 0.7,0.7 0.9,1.2 0.2,0.5 0.3,1 0.3,1.5 0,0.5 -0.1,0.9 -0.2,1.3 -0.2,0.8 -0.5,1.4 -1.1,2 -0.6,0.6 -1.1,1.1 -1.8,1.5 -0.7,0.4 -1.5,0.8 -2.3,1.1 -0.8,0.3 -1.7,0.5 -2.5,0.7 -0.8,0.2 -1.6,0.3 -2.4,0.4 -0.8,0.1 -1.4,0.2 -2,0.2 -0.1,0.2 -0.2,0.6 -0.3,0.9 -0.1,0.4 -0.1,0.7 -0.1,1.1 0,0.8 0.3,1.4 0.9,1.8 0.6,0.4 1.5,0.7 2.6,0.7 0.6,0 1.3,-0.1 1.8,-0.2 0.5,-0.1 1.1,-0.3 1.7,-0.6 0.5,-0.2 1,-0.5 1.5,-0.7 0.5,-0.3 0.9,-0.5 1.3,-0.8 0.5,-0.3 1,-0.6 1.4,-0.8 0.4,-0.2 0.8,-0.3 1.2,-0.3 0.4,0 0.6,0.1 0.7,0.3 0.1,0.2 0.1,0.4 0.1,0.5 0,0.1 0,0.2 0,0.3 0,0.1 0,0.2 0,0.3 -0.1,0.4 -0.2,0.7 -0.4,1.1 -0.2,0.4 -0.5,0.7 -0.8,0.9 -1.4,1.1 -2.9,1.9 -4.4,2.4 -1.5,0.5 -3.1,0.7 -4.8,0.7 -0.3,0 -0.7,0 -1.2,-0.1 -0.4,0 -0.9,-0.1 -1.4,-0.2 -0.5,-0.1 -0.9,-0.3 -1.4,-0.5 -0.5,-0.2 -0.9,-0.5 -1.2,-0.9 -0.4,-0.4 -0.7,-0.9 -0.9,-1.4 -0.2,-0.6 -0.3,-1.2 -0.3,-2 0,-0.6 0.1,-1.4 0.3,-2.1 -0.2,0 -0.3,-0.1 -0.5,-0.3 -0.4,-0.1 -0.4,-0.4 -0.4,-0.7 z m 12.8,-5.6 c 0,-0.1 0,-0.1 0,-0.2 0,-0.1 0,-0.1 0,-0.2 0,-0.4 -0.1,-0.6 -0.4,-0.8 -0.3,-0.2 -0.6,-0.3 -1,-0.3 -0.6,0 -1.2,0.2 -1.8,0.5 -0.6,0.3 -1.1,0.7 -1.6,1.2 -0.5,0.5 -1,1 -1.4,1.5 -0.4,0.5 -0.7,1 -0.9,1.5 1,-0.1 1.9,-0.2 2.7,-0.4 0.8,-0.2 1.5,-0.4 2.1,-0.7 0.6,-0.3 1.1,-0.6 1.5,-0.9 0.4,-0.5 0.7,-0.8 0.8,-1.2 z"
           id="path375" />
        <path
           style="fill:#fac768;display:inline"
           inkscape:connector-curvature="0"
           display="inline"
           d="m 378.8,122.7 c 0.2,-1 0.4,-2 0.6,-3.2 0.2,-1.2 0.5,-2.3 0.7,-3.5 0.2,-1.2 0.5,-2.3 0.7,-3.5 0.2,-1.1 0.4,-2.2 0.6,-3.1 0,-0.1 0,-0.3 0,-0.4 0,-0.1 0,-0.2 0,-0.3 0,-0.4 0,-0.8 0.1,-1.3 0.1,-0.4 0.1,-0.8 0.2,-1.2 0.1,-0.5 0.3,-0.9 0.5,-1.1 0.2,-0.2 0.5,-0.3 0.9,-0.3 0.4,0 0.7,0.1 1,0.2 0.2,0.2 0.4,0.4 0.6,0.6 0.1,0.3 0.2,0.6 0.3,0.9 0,0.3 0.1,0.7 0.1,1 0,0.2 0,0.4 0,0.6 0,0.2 0,0.4 0,0.6 0.4,-0.4 0.8,-0.8 1.2,-1.2 0.4,-0.4 0.9,-0.8 1.4,-1.1 0.5,-0.3 1,-0.6 1.5,-0.8 0.5,-0.2 1.1,-0.3 1.7,-0.3 0.2,0 0.5,0 0.7,0.1 0.2,0.1 0.5,0.1 0.7,0.2 0.3,0.1 0.6,0.2 0.8,0.3 0.3,0.1 0.6,0.3 0.8,0.5 0.5,0.3 0.8,0.8 1.1,1.3 0.3,0.5 0.5,1 0.5,1.6 0,0.2 0,0.4 -0.1,0.7 -0.1,0.2 -0.2,0.5 -0.3,0.7 -0.1,0.2 -0.3,0.4 -0.5,0.5 -0.2,0.1 -0.4,0.2 -0.6,0.2 -0.2,0 -0.5,-0.1 -0.8,-0.2 -0.3,-0.1 -0.6,-0.3 -0.8,-0.5 -0.1,-0.1 -0.2,-0.2 -0.3,-0.3 -0.1,-0.2 -0.2,-0.3 -0.3,-0.5 -0.1,-0.2 -0.2,-0.3 -0.2,-0.4 -0.1,-0.1 -0.1,-0.2 -0.2,-0.3 -0.1,0 -0.1,0 -0.2,0 -0.1,0 -0.2,0 -0.2,0 -0.7,0 -1.4,0.2 -2,0.5 -0.6,0.4 -1.2,0.8 -1.8,1.3 -0.5,0.5 -1,1.1 -1.5,1.6 -0.5,0.6 -0.9,1.1 -1.2,1.6 -0.3,1.1 -0.6,2.3 -0.9,3.5 -0.3,1.2 -0.7,2.6 -1,3.9 v 0.5 c 0,0.4 0,0.8 0,1.2 0,0.4 -0.1,0.8 -0.2,1.1 -0.1,0.2 -0.4,0.4 -0.6,0.5 -0.2,0.1 -0.6,0.2 -1,0.2 -0.6,0 -1,-0.2 -1.3,-0.6 -0.3,-0.4 -0.4,-0.8 -0.4,-1.3 -0.4,0 -0.4,-0.2 -0.3,-0.5 z"
           id="path377" />
        <path
           style="fill:#fac768;display:inline"
           inkscape:connector-curvature="0"
           display="inline"
           d="m 397.3,134.3 c -0.1,0 -0.2,0 -0.4,-0.1 -0.1,0 -0.3,-0.1 -0.4,-0.2 -0.1,-0.1 -0.2,-0.2 -0.3,-0.4 -0.1,-0.2 -0.1,-0.3 -0.1,-0.6 0,-0.1 0,-0.3 0.1,-0.5 0.1,-0.5 0.2,-0.8 0.3,-1.1 0.1,-0.3 0.3,-0.5 0.5,-0.7 0.2,-0.2 0.5,-0.4 0.9,-0.5 0.4,-0.1 0.9,-0.3 1.6,-0.4 0.4,-0.1 0.8,-0.2 1.2,-0.3 0.4,-0.1 0.7,-0.2 0.9,-0.4 0.7,-0.6 1.3,-1.2 1.8,-1.9 0.5,-0.7 0.9,-1.3 1.2,-2 0.3,-0.7 0.6,-1.4 0.8,-2.2 0.2,-0.7 0.4,-1.5 0.6,-2.3 0.1,-0.3 0.2,-0.5 0.2,-0.8 0,-0.3 0.1,-0.6 0.2,-1 -0.5,0.5 -1.1,0.9 -1.6,1.4 -0.6,0.5 -1.1,0.9 -1.7,1.2 -0.6,0.3 -1.2,0.6 -1.8,0.9 -0.6,0.2 -1.2,0.3 -1.8,0.3 -0.4,0 -0.8,-0.1 -1.2,-0.3 -0.4,-0.2 -0.9,-0.5 -1.3,-0.9 -0.4,-0.4 -0.7,-0.8 -1,-1.2 -0.3,-0.4 -0.4,-1 -0.4,-1.5 0,-0.3 0,-0.7 0.1,-1.1 0.1,-0.4 0.2,-0.7 0.2,-1 0.2,-0.9 0.5,-1.8 1,-2.6 0.5,-0.8 0.9,-1.7 1.5,-2.4 0.6,-0.8 1.2,-1.5 1.8,-2.2 0.7,-0.7 1.4,-1.3 2.1,-1.9 0.9,-0.7 1.8,-1.3 2.7,-1.6 0.9,-0.3 1.9,-0.5 2.9,-0.5 0.4,0 0.8,0 1.2,0.1 0.4,0 0.8,0.1 1.1,0.3 0.3,0.1 0.7,0.3 1,0.6 0.3,0.3 0.6,0.6 0.8,1 0.1,0.1 0.1,0.2 0.1,0.3 0,0.1 0.1,0.2 0.1,0.3 0,0.1 0,0.4 -0.1,0.8 -0.1,0.4 -0.1,1 -0.2,1.6 -0.1,0.6 -0.2,1.3 -0.4,2.1 -0.2,0.8 -0.3,1.6 -0.4,2.4 -0.1,0.8 -0.3,1.6 -0.4,2.4 -0.2,0.8 -0.3,1.5 -0.4,2.1 -0.2,1.1 -0.5,2.2 -0.9,3.3 -0.3,1.1 -0.8,2.3 -1.3,3.4 -0.5,1.1 -1.1,2.1 -1.7,3.1 -0.7,1 -1.4,1.8 -2.3,2.5 -0.9,0.7 -1.9,1.3 -3,1.7 -1.1,0.6 -2.4,0.8 -3.8,0.8 z m 2.1,-17 c 0,0.2 -0.1,0.3 -0.1,0.5 0,0.2 -0.1,0.3 -0.1,0.5 0,0.3 0.1,0.6 0.2,0.8 0.1,0.2 0.3,0.3 0.6,0.3 0.5,0 1,-0.2 1.6,-0.5 0.6,-0.3 1.2,-0.7 1.8,-1.2 0.6,-0.5 1.2,-1 1.7,-1.6 0.5,-0.6 1,-1.1 1.3,-1.6 0.1,-0.2 0.3,-0.5 0.5,-0.9 0.2,-0.4 0.5,-0.8 0.7,-1.2 0.2,-0.4 0.4,-0.9 0.6,-1.3 0.2,-0.4 0.3,-0.8 0.3,-1.2 0,-0.2 0,-0.4 -0.1,-0.6 -0.1,-0.2 -0.2,-0.5 -0.2,-0.8 H 408 c -0.3,0 -0.7,0.1 -1.1,0.3 -0.4,0.2 -0.9,0.5 -1.3,0.8 -0.5,0.3 -0.9,0.7 -1.4,1.2 -0.5,0.4 -0.9,0.9 -1.4,1.3 -0.5,0.4 -0.8,0.9 -1.2,1.3 -0.3,0.4 -0.6,0.8 -0.8,1.1 -0.3,0.5 -0.5,0.9 -0.8,1.4 -0.3,0.3 -0.5,0.8 -0.6,1.4 z"
           id="path379" />
        <path
           style="fill:#fac768;display:inline"
           inkscape:connector-curvature="0"
           display="inline"
           d="m 416,121.1 c 0.2,-0.8 0.5,-1.7 0.7,-2.8 0.3,-1.1 0.6,-2.2 0.9,-3.3 0.3,-1.2 0.6,-2.4 1,-3.6 0.3,-1.2 0.6,-2.4 0.9,-3.6 0,-0.1 0.1,-0.1 0.1,-0.3 0,-0.2 0.2,-0.3 0.3,-0.4 0.1,-0.1 0.3,-0.2 0.6,-0.3 0.2,-0.1 0.5,-0.1 0.8,-0.1 0.2,0 0.5,0 0.7,0.1 0.2,0 0.4,0.1 0.6,0.2 0.2,0.1 0.3,0.2 0.4,0.4 0.1,0.2 0.2,0.3 0.2,0.5 0,0 0,0.1 0,0.1 0,0 0,0.1 0,0.1 l -0.6,2.2 c -0.6,2.4 -1.3,4.9 -2,7.3 -0.7,2.4 -1.3,4.9 -1.9,7.3 0,0.1 -0.1,0.2 -0.1,0.3 -0.1,0.1 -0.1,0.2 -0.2,0.4 -0.1,0.1 -0.2,0.2 -0.3,0.3 -0.1,0.1 -0.3,0.1 -0.5,0.1 -0.4,0 -0.7,-0.1 -0.9,-0.2 -0.3,-0.1 -0.5,-0.3 -0.7,-0.5 -0.2,-0.2 -0.3,-0.5 -0.4,-0.7 -0.1,-0.3 -0.1,-0.5 -0.1,-0.7 0,-0.1 0,-0.1 0,-0.2 0,-0.1 0,-0.1 0,-0.2 l 0.5,-2.4 z m 5.3,-21.2 c 0.1,-0.3 0.2,-0.6 0.4,-1 0.2,-0.4 0.5,-0.8 0.9,-1.1 0.2,-0.1 0.5,-0.2 0.8,-0.3 0.3,-0.1 0.5,-0.2 0.7,-0.2 0.1,0 0.3,0 0.4,0.1 0.1,0.1 0.3,0.2 0.4,0.3 0.1,0.1 0.3,0.3 0.4,0.5 0.3,0 0.6,0.2 0.7,0.4 0.1,0.2 0.2,0.5 0.2,0.8 0,0.2 0,0.4 -0.1,0.6 0,0.2 -0.1,0.3 -0.1,0.4 -0.1,0.3 -0.2,0.5 -0.5,0.8 -0.3,0.3 -0.5,0.4 -0.8,0.6 -0.3,0.2 -0.6,0.3 -0.9,0.4 -0.3,0.1 -0.6,0.1 -0.9,0.1 -0.3,0 -0.6,-0.1 -0.7,-0.2 -0.2,-0.1 -0.4,-0.3 -0.6,-0.7 -0.1,-0.2 -0.2,-0.4 -0.3,-0.5 0,-0.1 0,-0.2 0,-0.3 0,-0.2 0,-0.3 0,-0.4 -0.1,-0.1 0,-0.2 0,-0.3 z"
           id="path381" />
        <path
           style="fill:#fac768;display:inline"
           inkscape:connector-curvature="0"
           display="inline"
           d="m 426.3,116.9 c 0,-0.6 0.2,-1.1 0.5,-1.5 0.3,-0.4 0.7,-0.7 1.2,-0.8 0.1,-0.3 0.4,-0.7 0.7,-1.2 0.3,-0.5 0.7,-1.1 1.2,-1.7 0.5,-0.6 1,-1.2 1.6,-1.8 0.6,-0.6 1.2,-1.2 2,-1.7 0.8,-0.5 1.5,-0.9 2.3,-1.2 0.8,-0.3 1.7,-0.5 2.6,-0.5 0.8,0 1.5,0.1 2.1,0.3 0.6,0.2 1.1,0.5 1.5,0.8 0.4,0.3 0.7,0.7 0.9,1.2 0.2,0.5 0.3,1 0.3,1.5 0,0.5 -0.1,0.9 -0.2,1.3 -0.2,0.8 -0.5,1.4 -1.1,2 -0.6,0.6 -1.1,1.1 -1.8,1.5 -0.7,0.4 -1.5,0.8 -2.3,1.1 -0.8,0.3 -1.6,0.5 -2.5,0.7 -0.9,0.2 -1.6,0.3 -2.4,0.4 -0.8,0.1 -1.4,0.2 -2,0.2 -0.1,0.2 -0.2,0.6 -0.3,0.9 -0.1,0.4 -0.1,0.7 -0.1,1.1 0,0.8 0.3,1.4 0.9,1.8 0.6,0.4 1.5,0.7 2.6,0.7 0.6,0 1.3,-0.1 1.8,-0.2 0.5,-0.1 1.1,-0.3 1.7,-0.6 0.5,-0.2 1,-0.5 1.5,-0.7 0.5,-0.3 0.9,-0.5 1.3,-0.8 0.5,-0.3 1,-0.6 1.4,-0.8 0.4,-0.2 0.8,-0.3 1.2,-0.3 0.4,0 0.6,0.1 0.7,0.3 0.1,0.2 0.1,0.4 0.1,0.5 0,0.1 0,0.2 0,0.3 0,0.1 0,0.2 0,0.3 -0.1,0.4 -0.2,0.7 -0.4,1.1 -0.2,0.4 -0.5,0.7 -0.8,0.9 -1.4,1.1 -2.9,1.9 -4.4,2.4 -1.5,0.5 -3.1,0.7 -4.8,0.7 -0.3,0 -0.7,0 -1.2,-0.1 -0.5,-0.1 -0.9,-0.1 -1.4,-0.2 -0.5,-0.1 -0.9,-0.3 -1.4,-0.5 -0.5,-0.2 -0.9,-0.5 -1.2,-0.9 -0.3,-0.4 -0.7,-0.9 -0.9,-1.4 -0.2,-0.6 -0.3,-1.2 -0.3,-2 0,-0.6 0.1,-1.4 0.3,-2.1 -0.2,0 -0.3,-0.1 -0.5,-0.3 -0.3,-0.1 -0.4,-0.4 -0.4,-0.7 z m 12.8,-5.6 c 0,-0.1 0,-0.1 0,-0.2 0,-0.1 0,-0.1 0,-0.2 0,-0.4 -0.1,-0.6 -0.4,-0.8 -0.3,-0.2 -0.6,-0.3 -1,-0.3 -0.6,0 -1.2,0.2 -1.8,0.5 -0.6,0.3 -1.1,0.7 -1.6,1.2 -0.5,0.5 -1,1 -1.4,1.5 -0.4,0.5 -0.7,1 -0.9,1.5 1,-0.1 1.9,-0.2 2.7,-0.4 0.8,-0.2 1.5,-0.4 2.1,-0.7 0.6,-0.3 1.1,-0.6 1.5,-0.9 0.5,-0.5 0.7,-0.8 0.8,-1.2 z"
           id="path383" />
        <path
           style="fill:#fac768;display:inline"
           inkscape:connector-curvature="0"
           display="inline"
           d="m 447.8,121.2 c 0.1,0 0.2,0 0.3,0 0.1,0 0.2,0.1 0.3,0.1 0.1,0 0.2,0.1 0.4,0.1 0.1,0 0.3,0 0.5,0 0.6,0 1.4,-0.1 2.1,-0.2 0.8,-0.1 1.5,-0.3 2.2,-0.5 0.7,-0.2 1.3,-0.5 1.8,-0.7 0.5,-0.2 0.8,-0.6 0.8,-0.9 0,-0.2 0.1,-0.3 0.1,-0.4 0,-0.2 -0.1,-0.5 -0.3,-0.7 -0.2,-0.2 -0.5,-0.4 -0.8,-0.6 -0.3,-0.2 -0.7,-0.4 -1.1,-0.5 -0.4,-0.2 -0.8,-0.3 -1.1,-0.5 l -0.7,-0.3 c -0.4,-0.1 -0.7,-0.3 -1,-0.5 -0.3,-0.2 -0.7,-0.4 -1,-0.7 -0.3,-0.3 -0.6,-0.6 -0.8,-0.9 -0.2,-0.3 -0.4,-0.7 -0.5,-1.2 -0.1,-0.2 -0.1,-0.4 -0.1,-0.6 0,-0.2 -0.1,-0.4 -0.1,-0.6 0,-0.4 0.1,-0.8 0.4,-1.2 0.2,-0.5 0.6,-0.9 1,-1.4 0.4,-0.5 0.9,-0.9 1.4,-1.3 0.5,-0.4 1,-0.8 1.6,-1 0.4,-0.3 0.8,-0.5 1.2,-0.8 0.4,-0.2 0.8,-0.4 1.2,-0.6 0.4,-0.2 0.8,-0.3 1.2,-0.4 0.4,-0.1 0.8,-0.1 1.3,-0.1 0.4,0 0.9,0 1.3,0.1 0.4,0.1 0.9,0.1 1.3,0.3 0.4,0.2 0.7,0.4 1,0.7 0.3,0.3 0.4,0.7 0.4,1.2 0,0.1 0,0.3 -0.1,0.6 0,0.2 -0.1,0.5 -0.2,0.7 -0.1,0.2 -0.2,0.5 -0.3,0.6 -0.1,0.2 -0.3,0.3 -0.5,0.3 -0.3,0 -0.6,-0.1 -0.8,-0.2 -0.2,-0.1 -0.4,-0.3 -0.6,-0.4 -0.2,-0.1 -0.3,-0.3 -0.5,-0.4 -0.2,-0.1 -0.4,-0.2 -0.7,-0.2 -0.3,0 -0.7,0.1 -1.1,0.2 -0.4,0.1 -0.8,0.3 -1.3,0.5 -0.4,0.2 -0.9,0.4 -1.3,0.7 -0.4,0.3 -0.8,0.5 -1.1,0.8 -0.3,0.3 -0.6,0.5 -0.8,0.8 -0.2,0.3 -0.3,0.5 -0.3,0.7 0,0.2 0.1,0.4 0.2,0.6 0.1,0.2 0.3,0.3 0.6,0.4 0.3,0.2 0.6,0.3 1,0.5 0.4,0.2 0.8,0.3 1.2,0.5 0.4,0.2 0.8,0.3 1.2,0.5 0.4,0.2 0.7,0.3 1,0.4 0.4,0.2 0.7,0.4 1,0.6 0.3,0.2 0.5,0.4 0.7,0.6 0.2,0.2 0.4,0.5 0.5,0.7 0.1,0.2 0.2,0.6 0.2,1 0,0.2 0,0.4 0,0.5 0,0.2 -0.1,0.4 -0.1,0.6 0,0.2 -0.1,0.4 -0.2,0.7 -0.1,0.3 -0.2,0.5 -0.3,0.8 -0.1,0.3 -0.2,0.5 -0.4,0.7 -0.1,0.2 -0.2,0.4 -0.3,0.4 -0.5,0.5 -1.2,1 -1.9,1.4 -0.7,0.4 -1.5,0.8 -2.3,1.1 -0.8,0.3 -1.6,0.6 -2.4,0.8 -0.8,0.2 -1.5,0.3 -2.2,0.3 -0.3,0 -0.7,-0.1 -1.1,-0.2 -0.4,-0.1 -0.8,-0.3 -1.1,-0.5 -0.3,-0.2 -0.6,-0.5 -0.8,-0.7 -0.2,-0.3 -0.3,-0.5 -0.3,-0.8 0,-0.1 0,-0.3 0.1,-0.5 0.1,-0.2 0.2,-0.3 0.3,-0.5 0.1,-0.1 0.3,-0.3 0.4,-0.4 0,0 0.2,-0.1 0.3,-0.1 z"
           id="path385" />
        <path
           style="fill:#fac768;display:inline"
           inkscape:connector-curvature="0"
           display="inline"
           d="m 485.5,122.7 c 0.2,-1 0.4,-2 0.6,-3.2 0.2,-1.2 0.5,-2.3 0.7,-3.5 0.2,-1.2 0.5,-2.3 0.7,-3.5 0.2,-1.1 0.4,-2.2 0.6,-3.1 0,-0.1 0,-0.3 0,-0.4 0,-0.1 0,-0.2 0,-0.3 0,-0.4 0,-0.8 0.1,-1.3 0.1,-0.5 0.1,-0.8 0.2,-1.2 0.1,-0.5 0.3,-0.9 0.5,-1.1 0.2,-0.2 0.5,-0.3 0.9,-0.3 0.4,0 0.7,0.1 1,0.2 0.2,0.2 0.4,0.4 0.6,0.6 0.1,0.3 0.2,0.6 0.3,0.9 0,0.3 0.1,0.7 0.1,1 0,0.2 0,0.4 0,0.6 0,0.2 0,0.4 0,0.6 0.4,-0.4 0.8,-0.8 1.2,-1.2 0.4,-0.4 0.9,-0.8 1.4,-1.1 0.5,-0.3 1,-0.6 1.5,-0.8 0.5,-0.2 1.1,-0.3 1.7,-0.3 0.2,0 0.5,0 0.7,0.1 0.2,0.1 0.5,0.1 0.7,0.2 0.3,0.1 0.6,0.2 0.8,0.3 0.3,0.1 0.6,0.3 0.8,0.5 0.5,0.3 0.8,0.8 1.1,1.3 0.3,0.5 0.5,1 0.5,1.6 0,0.2 0,0.4 -0.1,0.7 -0.1,0.2 -0.2,0.5 -0.3,0.7 -0.1,0.2 -0.3,0.4 -0.5,0.5 -0.2,0.1 -0.4,0.2 -0.6,0.2 -0.2,0 -0.5,-0.1 -0.8,-0.2 -0.3,-0.1 -0.6,-0.3 -0.8,-0.5 -0.1,-0.1 -0.2,-0.2 -0.3,-0.3 -0.1,-0.2 -0.2,-0.3 -0.3,-0.5 -0.1,-0.2 -0.2,-0.3 -0.2,-0.4 -0.1,-0.1 -0.1,-0.2 -0.2,-0.3 -0.1,0 -0.1,0 -0.2,0 -0.1,0 -0.2,0 -0.2,0 -0.7,0 -1.4,0.2 -2,0.5 -0.6,0.4 -1.2,0.8 -1.8,1.3 -0.5,0.5 -1,1.1 -1.5,1.6 -0.5,0.6 -0.9,1.1 -1.2,1.6 -0.3,1.1 -0.6,2.3 -0.9,3.5 -0.3,1.2 -0.7,2.6 -1,3.9 v 0.5 c 0,0.4 0,0.8 0,1.2 0,0.4 -0.1,0.8 -0.2,1.1 -0.1,0.2 -0.4,0.4 -0.6,0.5 -0.3,0.1 -0.6,0.2 -1,0.2 -0.6,0 -1,-0.2 -1.3,-0.6 -0.3,-0.4 -0.4,-0.8 -0.4,-1.3 -0.4,0 -0.4,-0.2 -0.3,-0.5 z"
           id="path387" />
        <path
           style="fill:#fac768;display:inline"
           inkscape:connector-curvature="0"
           display="inline"
           d="m 502.6,116.9 c 0,-0.6 0.2,-1.1 0.5,-1.5 0.3,-0.4 0.7,-0.7 1.2,-0.8 0.1,-0.3 0.4,-0.7 0.7,-1.2 0.3,-0.5 0.7,-1.1 1.2,-1.7 0.5,-0.6 1,-1.2 1.6,-1.8 0.6,-0.6 1.2,-1.2 2,-1.7 0.8,-0.5 1.5,-0.9 2.3,-1.2 0.8,-0.3 1.7,-0.5 2.6,-0.5 0.8,0 1.5,0.1 2.1,0.3 0.6,0.2 1.1,0.5 1.5,0.8 0.4,0.3 0.7,0.7 0.9,1.2 0.2,0.5 0.3,1 0.3,1.5 0,0.5 -0.1,0.9 -0.2,1.3 -0.2,0.8 -0.5,1.4 -1.1,2 -0.6,0.6 -1.1,1.1 -1.8,1.5 -0.7,0.4 -1.5,0.8 -2.3,1.1 -0.8,0.3 -1.7,0.5 -2.5,0.7 -0.8,0.2 -1.6,0.3 -2.4,0.4 -0.8,0.1 -1.4,0.2 -2,0.2 -0.1,0.2 -0.2,0.6 -0.3,0.9 -0.1,0.4 -0.1,0.7 -0.1,1.1 0,0.8 0.3,1.4 0.9,1.8 0.6,0.4 1.5,0.7 2.6,0.7 0.6,0 1.3,-0.1 1.8,-0.2 0.5,-0.1 1.1,-0.3 1.7,-0.6 0.5,-0.2 1,-0.5 1.5,-0.7 0.5,-0.3 0.9,-0.5 1.3,-0.8 0.5,-0.3 1,-0.6 1.4,-0.8 0.4,-0.2 0.8,-0.3 1.2,-0.3 0.3,0 0.6,0.1 0.7,0.3 0.1,0.2 0.1,0.4 0.1,0.5 0,0.1 0,0.2 0,0.3 0,0.1 0,0.2 0,0.3 -0.1,0.4 -0.2,0.7 -0.4,1.1 -0.2,0.4 -0.5,0.7 -0.8,0.9 -1.4,1.1 -2.9,1.9 -4.4,2.4 -1.5,0.5 -3.1,0.7 -4.8,0.7 -0.3,0 -0.7,0 -1.2,-0.1 -0.4,0 -0.9,-0.1 -1.4,-0.2 -0.5,-0.1 -0.9,-0.3 -1.4,-0.5 -0.5,-0.2 -0.9,-0.5 -1.2,-0.9 -0.4,-0.4 -0.7,-0.9 -0.9,-1.4 -0.2,-0.6 -0.3,-1.2 -0.3,-2 0,-0.6 0.1,-1.4 0.3,-2.1 -0.2,0 -0.3,-0.1 -0.5,-0.3 -0.3,-0.1 -0.4,-0.4 -0.4,-0.7 z m 12.8,-5.6 c 0,-0.1 0,-0.1 0,-0.2 0,-0.1 0,-0.1 0,-0.2 0,-0.4 -0.1,-0.6 -0.4,-0.8 -0.3,-0.2 -0.6,-0.3 -1,-0.3 -0.6,0 -1.2,0.2 -1.8,0.5 -0.6,0.3 -1.1,0.7 -1.6,1.2 -0.5,0.5 -1,1 -1.4,1.5 -0.4,0.5 -0.7,1 -0.9,1.5 1,-0.1 1.9,-0.2 2.7,-0.4 0.8,-0.2 1.5,-0.4 2.1,-0.7 0.6,-0.3 1.1,-0.6 1.5,-0.9 0.5,-0.5 0.7,-0.8 0.8,-1.2 z"
           id="path389" />
        <path
           style="fill:#fac768;display:inline"
           inkscape:connector-curvature="0"
           display="inline"
           d="m 538.1,108 c -0.5,0 -1,0.1 -1.5,0.3 -0.5,0.2 -1.1,0.5 -1.7,0.9 -0.6,0.4 -1.2,0.8 -1.8,1.3 -0.6,0.5 -1.2,1 -1.8,1.5 -0.3,0.3 -0.6,0.5 -0.9,0.7 -0.3,0.2 -0.5,0.4 -0.8,0.5 -0.2,0.3 -0.4,0.7 -0.6,1.2 -0.2,0.5 -0.4,1.1 -0.6,1.7 -0.2,0.6 -0.4,1.2 -0.6,1.9 -0.2,0.7 -0.3,1.2 -0.5,1.8 -0.1,0.3 -0.1,0.6 -0.2,0.8 0,0.3 -0.1,0.6 -0.1,0.9 -0.1,0.3 -0.1,0.6 -0.2,1 -0.1,0.4 -0.2,0.8 -0.3,1.2 -0.1,0.3 -0.2,0.5 -0.3,0.6 -0.2,0.2 -0.3,0.3 -0.5,0.4 -0.2,0.1 -0.3,0.1 -0.5,0.2 -0.2,0 -0.3,0 -0.3,0 -0.5,0 -0.9,-0.1 -1.3,-0.4 -0.3,-0.2 -0.5,-0.7 -0.5,-1.4 0,-0.2 0,-0.4 0,-0.6 0,-0.2 0.1,-0.4 0.1,-0.7 0.3,-1.3 0.6,-2.5 0.9,-3.5 0.3,-1 0.6,-2 0.8,-2.9 0.2,-0.9 0.6,-1.7 0.9,-2.5 0.3,-0.8 0.6,-1.6 0.9,-2.4 0.3,-0.8 0.6,-1.6 1,-2.5 0.3,-0.9 0.7,-1.8 1.1,-2.8 0.1,-0.2 0.3,-0.4 0.6,-0.6 0.3,-0.2 0.7,-0.2 1.1,-0.2 0.5,0 0.9,0.1 1.3,0.3 0.4,0.2 0.5,0.6 0.5,1 0,0 0,0.1 0,0.2 0,0.1 -0.1,0.2 -0.1,0.3 l -0.9,2.1 c 0.6,-0.5 1.2,-0.9 1.8,-1.4 0.6,-0.5 1.3,-0.9 1.9,-1.2 0.6,-0.3 1.3,-0.7 2,-0.9 0.7,-0.2 1.3,-0.3 2,-0.3 1.3,0 2.3,0.4 3.1,1.1 0.7,0.7 1.1,1.8 1.1,3.3 0,0.8 -0.1,1.8 -0.4,2.9 -0.3,1.1 -0.7,2.2 -1.1,3.5 -0.4,1.2 -0.9,2.5 -1.4,3.9 -0.5,1.4 -1,2.7 -1.4,4.1 -0.1,0.4 -0.2,0.7 -0.4,1 -0.1,0.3 -0.3,0.5 -0.5,0.6 -0.2,0.2 -0.4,0.3 -0.6,0.3 -0.2,0 -0.5,0.1 -0.9,0.1 -0.5,0 -0.9,-0.1 -1.1,-0.3 -0.2,-0.2 -0.3,-0.5 -0.3,-1 0,-0.4 0.1,-0.8 0.2,-1.4 0.1,-0.6 0.3,-1.2 0.5,-1.8 0.2,-0.7 0.5,-1.4 0.7,-2.1 0.3,-0.8 0.6,-1.5 0.9,-2.3 0.3,-0.6 0.5,-1.3 0.8,-1.9 0.3,-0.6 0.5,-1.2 0.7,-1.8 0.2,-0.6 0.4,-1.1 0.5,-1.7 0.1,-0.5 0.2,-1 0.2,-1.5 0,-0.4 -0.1,-0.8 -0.3,-1.1 -0.3,-0.2 -0.7,-0.4 -1.2,-0.4 z"
           id="path391" />
        <path
           style="fill:#fac768;display:inline"
           inkscape:connector-curvature="0"
           display="inline"
           d="m 547,117 c 0.2,-0.8 0.5,-1.7 1,-2.6 0.4,-0.9 1,-1.9 1.7,-2.8 0.7,-1 1.5,-1.9 2.5,-2.8 1,-0.9 2.1,-1.8 3.4,-2.6 0.2,-0.1 0.5,-0.3 0.9,-0.4 0.4,-0.1 0.9,-0.2 1.3,-0.3 0.5,-0.6 1.2,-0.9 2.1,-0.9 1.1,0 2,0.3 2.7,0.8 0.7,0.5 1.3,1.3 1.8,2.2 0.2,0.3 0.3,0.6 0.4,0.9 0.1,0.3 0.2,0.6 0.3,0.9 0.1,0.3 0.2,0.7 0.2,1 0.1,0.4 0.1,0.8 0.1,1.2 0,1.1 -0.2,2.2 -0.5,3.3 -0.3,1.1 -0.8,2.2 -1.5,3.3 -0.7,1.1 -1.4,2.1 -2.3,3.1 -0.9,1 -1.9,1.9 -3,2.6 -0.7,0.5 -1.6,0.9 -2.4,1.2 -0.8,0.3 -1.9,0.4 -3,0.4 -1.1,0 -2,-0.1 -2.7,-0.4 -0.7,-0.3 -1.4,-0.7 -1.9,-1.2 -0.5,-0.5 -0.9,-1.1 -1.1,-1.9 -0.3,-0.7 -0.4,-1.5 -0.4,-2.4 0,-0.7 0.1,-1.6 0.4,-2.6 z m 3.3,0.3 c -0.1,0.3 -0.1,0.6 -0.2,0.9 0,0.3 -0.1,0.5 -0.1,0.8 0,0.5 0.1,0.9 0.2,1.3 0.1,0.4 0.3,0.7 0.6,1 0.3,0.3 0.6,0.5 1,0.7 0.4,0.2 0.9,0.2 1.4,0.2 1,0 2,-0.3 2.9,-0.8 0.9,-0.5 1.7,-1.2 2.4,-2 0.7,-0.8 1.3,-1.6 1.7,-2.5 0.4,-0.9 0.8,-1.7 1,-2.5 0.1,-0.5 0.2,-0.9 0.3,-1.4 0.1,-0.5 0.1,-0.8 0.1,-1.2 0,-0.4 -0.1,-0.7 -0.2,-1 -0.1,-0.3 -0.3,-0.7 -0.5,-1 -0.1,-0.2 -0.2,-0.5 -0.4,-0.7 -0.1,-0.3 -0.2,-0.5 -0.3,-0.7 -0.1,0.2 -0.2,0.4 -0.3,0.5 -0.1,0.1 -0.3,0.3 -0.6,0.4 -0.2,0.1 -0.6,0.2 -1,0.3 -0.4,0.1 -1,0.2 -1.7,0.2 -0.5,0.2 -0.9,0.4 -1.4,0.7 -0.5,0.3 -0.9,0.7 -1.4,1.1 -0.4,0.4 -0.9,0.9 -1.3,1.4 -0.4,0.5 -0.8,1 -1.1,1.5 -0.3,0.5 -0.6,1 -0.8,1.5 0,0.4 -0.2,0.8 -0.3,1.3 z"
           id="path393" />
        <path
           style="fill:#fac768;display:inline"
           inkscape:connector-curvature="0"
           display="inline"
           d="m 572.5,106.6 c 0.1,-0.2 0.1,-0.4 0.2,-0.6 0.1,-0.2 0.2,-0.3 0.3,-0.4 0.1,-0.1 0.2,-0.2 0.3,-0.2 0.1,0 0.2,-0.1 0.2,-0.1 0.1,0 0.3,0 0.5,0.1 0.2,0 0.4,0.1 0.6,0.1 0.2,0 0.4,0.1 0.6,0.1 0.4,0 0.6,0.2 0.8,0.4 0.2,0.3 0.2,0.6 0.2,1 0,0.3 0,0.6 -0.1,0.8 -0.5,1.7 -0.9,3.2 -1.3,4.4 -0.4,1.3 -0.7,2.3 -1,3.2 -0.3,0.9 -0.5,1.6 -0.6,2.2 -0.1,0.6 -0.2,1 -0.2,1.3 0,0.3 0,0.6 0.1,1 0.1,0.4 0.2,0.7 0.3,1 0.2,0.3 0.3,0.6 0.6,0.8 0.2,0.2 0.5,0.3 0.8,0.3 0.6,0 1.2,-0.2 1.7,-0.5 0.5,-0.3 1.1,-0.8 1.7,-1.3 0.5,-0.5 1,-1.1 1.4,-1.6 0.4,-0.5 0.8,-1.1 1.1,-1.5 l 0.5,-0.9 c 0.3,-0.6 0.6,-1.2 0.9,-2 0.3,-0.8 0.5,-1.5 0.7,-2.2 0.2,-0.8 0.4,-1.5 0.5,-2.1 0.2,-0.7 0.3,-1.2 0.3,-1.6 l 0.5,-2.7 c 0.1,-0.5 0.3,-0.9 0.5,-1.1 0.2,-0.2 0.6,-0.3 1.1,-0.3 0.3,0 0.6,0 0.9,0.1 0.3,0.1 0.5,0.2 0.7,0.4 0.2,0.2 0.3,0.4 0.4,0.8 0.1,0.3 0.1,0.7 0.1,1.2 0,0.6 -0.1,1.3 -0.3,2.2 -0.2,0.9 -0.4,1.7 -0.6,2.6 -0.1,0.5 -0.2,1 -0.4,1.6 -0.1,0.6 -0.2,1.1 -0.3,1.7 -0.1,0.6 -0.2,1.1 -0.2,1.6 -0.1,0.5 -0.1,1 -0.1,1.4 0,0.7 0,1.4 0.1,2.1 0.1,0.7 0.1,1.4 0.1,2.2 0,0.4 0,0.7 0,0.9 0,0.2 -0.1,0.5 -0.1,0.6 -0.2,0.5 -0.3,0.9 -0.6,1.2 -0.2,0.3 -0.6,0.4 -1.2,0.4 -0.4,0 -0.7,0 -0.9,-0.1 -0.2,-0.1 -0.4,-0.2 -0.5,-0.4 -0.1,-0.2 -0.2,-0.3 -0.3,-0.5 0,-0.2 -0.1,-0.4 -0.1,-0.6 l -0.2,-3.9 -0.2,0.1 c -0.4,0.6 -0.9,1.2 -1.5,1.9 -0.5,0.7 -1.1,1.4 -1.8,2 -0.7,0.6 -1.3,1.1 -2.1,1.5 -0.8,0.4 -1.6,0.6 -2.5,0.6 -0.2,0 -0.4,0 -0.7,-0.1 -0.3,-0.1 -0.6,-0.2 -0.9,-0.3 -0.3,-0.1 -0.6,-0.3 -0.9,-0.5 -0.3,-0.2 -0.5,-0.3 -0.7,-0.5 -0.8,-0.7 -1.3,-1.5 -1.6,-2.4 -0.3,-0.9 -0.5,-1.8 -0.5,-2.7 0,-0.5 0,-1 0.1,-1.5 0.1,-0.5 0.2,-1 0.3,-1.5 0.1,-0.5 0.2,-0.9 0.4,-1.3 0.1,-0.4 0.2,-0.8 0.3,-1.1 0.3,-1 0.5,-1.9 0.7,-2.7 0.2,-0.8 0.4,-1.5 0.5,-2 0.1,-0.5 0.3,-1.1 0.4,-1.5 0.1,-0.4 0.9,-0.8 1,-1.1 z"
           id="path395" />
        <path
           style="fill:#fac768;display:inline"
           inkscape:connector-curvature="0"
           display="inline"
           d="m 598.7,125.6 c -0.1,0 -0.1,0 -0.2,0 -0.1,0 -0.1,0 -0.2,0 -0.3,0 -0.5,-0.1 -0.8,-0.2 -0.2,-0.1 -0.4,-0.3 -0.6,-0.5 -0.2,-0.2 -0.3,-0.4 -0.4,-0.6 -0.1,-0.2 -0.1,-0.4 -0.1,-0.6 -0.1,-0.3 -0.2,-0.7 -0.3,-1.2 -0.1,-0.5 -0.3,-1.1 -0.4,-1.8 -0.1,-0.7 -0.3,-1.4 -0.5,-2.2 -0.2,-0.8 -0.3,-1.5 -0.5,-2.3 -0.2,-0.8 -0.3,-1.5 -0.5,-2.3 -0.1,-0.7 -0.3,-1.4 -0.3,-2 -0.1,-0.4 -0.1,-0.8 -0.2,-1.2 -0.1,-0.4 -0.2,-0.7 -0.2,-1.1 -0.1,-0.3 -0.1,-0.7 -0.2,-1 0,-0.3 -0.1,-0.7 -0.1,-1 0,-0.4 0,-0.7 0.1,-1.1 0.1,-0.3 0.2,-0.7 0.4,-0.9 0.2,-0.3 0.3,-0.5 0.6,-0.6 0.2,-0.2 0.5,-0.2 0.7,-0.2 0.5,0 1,0.1 1.3,0.4 0.3,0.3 0.6,0.6 0.7,1.1 0.2,0.4 0.3,1 0.4,1.5 0.1,0.6 0.1,1.2 0.2,1.8 0.1,0.8 0.1,1.6 0.3,2.6 0.2,1 0.3,1.8 0.4,2.8 0.1,0.9 0.3,1.8 0.5,2.7 0.2,0.9 0.3,1.6 0.4,2.3 0.4,-0.4 1.1,-1.4 2.1,-2.8 0.5,-0.7 1,-1.4 1.4,-2 0.4,-0.6 0.8,-1.2 1.2,-1.7 0.4,-0.6 0.7,-1.1 1.1,-1.6 0.3,-0.5 0.7,-1.1 1,-1.7 0.3,-0.6 0.6,-1.2 0.9,-1.9 0.3,-0.7 0.6,-1.4 0.9,-2.2 0.1,-0.2 0.2,-0.3 0.3,-0.5 0.1,-0.2 0.3,-0.3 0.5,-0.5 0.2,-0.2 0.4,-0.3 0.6,-0.4 0.2,-0.1 0.5,-0.1 0.8,-0.1 0.6,0 1.1,0.2 1.3,0.5 0.2,0.3 0.3,0.7 0.3,1.2 0,0.6 -0.1,1.3 -0.3,1.9 -0.2,0.6 -0.6,1.3 -1.1,2 l -9.6,13.5 c -0.2,0.4 -0.4,0.8 -0.6,1 -0.2,0.3 -0.4,0.5 -0.6,0.7 -0.2,0.2 -0.4,0.3 -0.6,0.4 0.2,-0.2 0,-0.2 -0.1,-0.2 z"
           id="path397" />
        <path
           style="fill:#fac768;display:inline"
           inkscape:connector-curvature="0"
           display="inline"
           d="m 612.3,116.9 c 0,-0.6 0.2,-1.1 0.5,-1.5 0.3,-0.4 0.7,-0.7 1.2,-0.8 0.2,-0.3 0.4,-0.7 0.7,-1.2 0.3,-0.5 0.7,-1.1 1.2,-1.7 0.5,-0.6 1,-1.2 1.6,-1.8 0.6,-0.6 1.2,-1.2 2,-1.7 0.7,-0.5 1.5,-0.9 2.3,-1.2 0.8,-0.3 1.7,-0.5 2.6,-0.5 0.8,0 1.5,0.1 2.1,0.3 0.6,0.2 1.1,0.5 1.5,0.8 0.4,0.3 0.7,0.7 0.9,1.2 0.2,0.5 0.3,1 0.3,1.5 0,0.5 -0.1,0.9 -0.2,1.3 -0.2,0.8 -0.5,1.4 -1.1,2 -0.6,0.6 -1.1,1.1 -1.8,1.5 -0.7,0.4 -1.5,0.8 -2.3,1.1 -0.8,0.3 -1.6,0.5 -2.5,0.7 -0.9,0.2 -1.6,0.3 -2.4,0.4 -0.8,0.1 -1.4,0.2 -2,0.2 -0.1,0.2 -0.2,0.6 -0.3,0.9 -0.1,0.3 -0.1,0.7 -0.1,1.1 0,0.8 0.3,1.4 0.9,1.8 0.6,0.4 1.5,0.7 2.6,0.7 0.6,0 1.3,-0.1 1.8,-0.2 0.5,-0.1 1.1,-0.3 1.7,-0.6 0.5,-0.2 1,-0.5 1.5,-0.7 0.5,-0.3 0.9,-0.5 1.3,-0.8 0.5,-0.3 1,-0.6 1.4,-0.8 0.4,-0.2 0.8,-0.3 1.2,-0.3 0.3,0 0.6,0.1 0.7,0.3 0.1,0.2 0.1,0.4 0.1,0.5 0,0.1 0,0.2 0,0.3 0,0.1 0,0.2 0,0.3 -0.1,0.4 -0.2,0.7 -0.4,1.1 -0.2,0.4 -0.5,0.7 -0.8,0.9 -1.4,1.1 -2.9,1.9 -4.4,2.4 -1.5,0.5 -3.1,0.7 -4.8,0.7 -0.3,0 -0.7,0 -1.2,-0.1 -0.5,-0.1 -0.9,-0.1 -1.4,-0.2 -0.5,-0.1 -0.9,-0.3 -1.4,-0.5 -0.5,-0.2 -0.9,-0.5 -1.2,-0.9 -0.4,-0.4 -0.7,-0.9 -0.9,-1.4 -0.2,-0.6 -0.3,-1.2 -0.3,-2 0,-0.6 0.1,-1.4 0.3,-2.1 -0.2,0 -0.3,-0.1 -0.5,-0.3 -0.3,-0.1 -0.4,-0.4 -0.4,-0.7 z m 12.8,-5.6 c 0,-0.1 0,-0.1 0,-0.2 0,-0.1 0,-0.1 0,-0.2 0,-0.4 -0.1,-0.6 -0.4,-0.8 -0.3,-0.2 -0.6,-0.3 -1,-0.3 -0.6,0 -1.2,0.2 -1.8,0.5 -0.6,0.3 -1.1,0.7 -1.6,1.2 -0.5,0.5 -1,1 -1.4,1.5 -0.4,0.5 -0.7,1 -0.9,1.5 1,-0.1 1.9,-0.2 2.7,-0.4 0.8,-0.2 1.5,-0.4 2.1,-0.7 0.6,-0.3 1.1,-0.6 1.5,-0.9 0.5,-0.5 0.7,-0.8 0.8,-1.2 z"
           id="path399" />
        <path
           style="fill:#fac768;display:inline"
           inkscape:connector-curvature="0"
           display="inline"
           d="m 639.6,96.8 c 0.1,-0.5 0.2,-1.1 0.3,-1.5 0.1,-0.4 0.4,-0.8 0.6,-1.2 0.2,-0.4 0.6,-0.5 1,-0.5 0.2,0 0.5,0 0.7,0.1 0.2,0.1 0.5,0.2 0.8,0.3 0.3,0.1 0.4,0.3 0.6,0.5 0.2,0.2 0.2,0.4 0.2,0.7 0,0.1 0,0.2 -0.1,0.4 0,0.1 -0.1,0.3 -0.1,0.4 l -5.1,20.5 c -0.2,0.8 -0.4,1.6 -0.5,2.3 -0.1,0.7 -0.2,1.4 -0.3,1.8 v 0.5 c 0,0.4 0,0.9 -0.1,1.3 -0.1,0.5 -0.2,0.9 -0.3,1.4 -0.2,0.4 -0.4,0.8 -0.6,1 -0.3,0.3 -0.6,0.4 -1,0.4 -0.4,0 -0.7,-0.1 -1,-0.2 -0.3,-0.2 -0.5,-0.4 -0.7,-0.6 -0.2,-0.2 -0.3,-0.5 -0.4,-0.8 -0.1,-0.3 -0.1,-0.5 -0.1,-0.8 0,-0.2 0,-0.5 0.1,-0.8 0,-0.3 0.1,-0.7 0.2,-1 0.1,-0.3 0.1,-0.7 0.2,-1 0.1,-0.3 0.1,-0.7 0.2,-0.9 l 5.3,-20.9 c -0.1,-0.4 0,-0.9 0.1,-1.4 z"
           id="path401" />
        <path
           style="fill:#fac768;display:inline"
           inkscape:connector-curvature="0"
           display="inline"
           d="m 653.8,123.9 c 0,-0.4 0,-0.9 0.1,-1.4 0.1,-0.5 0.1,-1.2 0.1,-2.1 -0.5,0.3 -0.9,0.7 -1.5,1.2 -0.6,0.5 -1.1,0.9 -1.7,1.3 -0.6,0.4 -1.2,0.8 -1.7,1 -0.5,0.2 -1.1,0.4 -1.6,0.4 -0.4,0 -0.8,-0.1 -1.2,-0.2 -0.4,-0.1 -0.7,-0.3 -0.9,-0.5 -0.7,-0.6 -1.2,-1.1 -1.6,-1.7 -0.3,-0.6 -0.5,-1.2 -0.5,-2 0,-0.3 0,-0.7 0.1,-1.1 0.1,-0.4 0.2,-0.8 0.3,-1.3 0.5,-2.2 1.4,-4.1 2.7,-6 1.3,-1.8 2.8,-3.4 4.7,-4.7 0.7,-0.5 1.4,-0.8 2.2,-1 0.7,-0.1 1.4,-0.2 2.1,-0.2 0.3,0 0.7,0 1.1,0.1 0.4,0 0.7,0.1 1.1,0.1 0.3,-0.1 0.6,-0.1 0.8,-0.1 0.2,0 0.4,0 0.6,0 0.4,0 0.8,0.1 1,0.2 0.3,0.1 0.5,0.3 0.7,0.4 0.2,0.1 0.3,0.4 0.4,0.6 0.1,0.2 0.1,0.5 0.1,0.7 0,0.4 -0.1,0.7 -0.2,1 -0.1,0.3 -0.2,0.6 -0.3,1 l -2.7,10.8 c -0.1,0.6 -0.1,1.1 -0.1,1.6 0,0.5 -0.1,0.9 -0.2,1.4 0,0.1 -0.1,0.3 -0.2,0.5 -0.1,0.2 -0.2,0.4 -0.3,0.5 -0.1,0.1 -0.3,0.3 -0.5,0.4 -0.2,0.1 -0.5,0.2 -0.8,0.2 -0.4,0 -0.8,0 -1,-0.1 -0.3,-0.1 -0.4,-0.1 -0.6,-0.2 -0.1,-0.1 -0.2,-0.2 -0.3,-0.4 -0.1,-0.2 -0.2,-0.2 -0.2,-0.4 z m -6.8,-6.1 c -0.1,0.2 -0.1,0.5 -0.2,0.8 -0.1,0.4 -0.1,0.7 -0.1,1.1 0,0.4 0.1,0.7 0.2,1 0.1,0.3 0.3,0.4 0.7,0.4 0.6,0 1.1,-0.1 1.6,-0.4 0.5,-0.3 1,-0.6 1.4,-0.9 0.6,-0.5 1.2,-1 1.8,-1.6 0.6,-0.6 1.2,-1.2 1.7,-1.9 0.5,-0.7 1,-1.3 1.4,-2 0.4,-0.7 0.7,-1.4 0.9,-2.1 0.1,-0.4 0.2,-0.9 0.3,-1.4 0.1,-0.5 0.1,-1 0.1,-1.4 0,-0.2 0,-0.4 -0.1,-0.5 -0.1,-0.2 -0.2,-0.3 -0.5,-0.3 -0.7,0 -1.3,0.1 -2,0.4 -0.7,0.3 -1.3,0.6 -2,1 -0.6,0.4 -1.2,1 -1.8,1.5 -0.6,0.6 -1.1,1.2 -1.5,1.9 -0.5,0.7 -0.9,1.4 -1.2,2.1 -0.3,0.9 -0.5,1.6 -0.7,2.3 z"
           id="path403" />
        <path
           style="fill:#fac768;display:inline"
           inkscape:connector-curvature="0"
           display="inline"
           d="m 665.3,118.1 c 0.3,-1.1 0.6,-2.3 0.9,-3.6 0.4,-1.3 0.7,-2.6 1.1,-4 0.4,-1.4 0.8,-2.7 1.1,-4 0.4,-1.3 0.7,-2.6 1,-3.8 0.3,-1.2 0.6,-2.3 0.8,-3.2 0.2,-1 0.4,-1.7 0.5,-2.3 l 0.2,-1.7 c 0,-0.1 0.1,-0.3 0.1,-0.4 0,-0.1 0.1,-0.3 0.2,-0.4 0.1,-0.1 0.2,-0.2 0.4,-0.3 0.2,-0.1 0.4,-0.1 0.6,-0.1 0.4,0 0.8,0.1 1.1,0.2 0.3,0.1 0.5,0.4 0.7,0.6 0.2,0.2 0.3,0.5 0.4,0.9 0.1,0.3 0.1,0.7 0.1,1 0,0.3 0,0.7 -0.1,1.1 -0.1,0.4 -0.1,0.7 -0.2,1 -0.5,1.9 -1,3.8 -1.5,5.7 -0.6,1.9 -1.1,3.8 -1.6,5.7 0.5,-0.5 1.1,-1 1.7,-1.4 0.6,-0.4 1.3,-0.9 1.9,-1.2 0.7,-0.3 1.4,-0.6 2.1,-0.8 0.7,-0.2 1.4,-0.3 2.1,-0.3 0.8,0 1.4,0.1 1.9,0.3 0.5,0.2 1,0.5 1.4,0.9 0.4,0.4 0.6,0.8 0.8,1.3 0.2,0.5 0.3,1.1 0.3,1.7 0,0.3 0,0.6 -0.1,0.9 0,0.3 -0.1,0.6 -0.2,0.9 -0.4,1.4 -0.9,2.7 -1.5,3.8 -0.6,1.1 -1.4,2.1 -2.2,3 -0.8,0.9 -1.7,1.7 -2.7,2.3 -1,0.6 -1.9,1.3 -2.9,1.8 -0.6,0.3 -1.3,0.6 -1.9,0.8 -0.6,0.2 -1.2,0.3 -1.7,0.3 -0.6,0 -1,-0.1 -1.3,-0.2 -0.3,-0.1 -0.6,-0.3 -0.8,-0.5 -0.1,0.1 -0.2,0.3 -0.3,0.4 -0.1,0.2 -0.2,0.3 -0.4,0.4 -0.1,0.1 -0.3,0.2 -0.5,0.3 -0.2,0.1 -0.4,0.1 -0.7,0.1 -0.8,0 -1.3,-0.2 -1.7,-0.6 -0.3,-0.4 -0.5,-0.9 -0.5,-1.6 0,-0.2 0,-0.5 0.1,-0.7 0,-0.2 0.1,-0.5 0.2,-0.7 l 1.1,-3.6 z m 13,-8.3 c -0.6,0 -1.3,0.2 -2.1,0.5 -0.8,0.3 -1.5,0.7 -2.3,1.2 -0.8,0.5 -1.5,1 -2.2,1.6 -0.7,0.6 -1.3,1 -1.9,1.5 -0.2,0.6 -0.3,1.1 -0.5,1.6 -0.2,0.5 -0.3,1 -0.5,1.6 -0.2,0.5 -0.3,1.1 -0.4,1.6 -0.1,0.6 -0.2,1.2 -0.3,1.8 l -0.1,0.8 0.1,0.4 c 0.3,-0.2 0.5,-0.3 0.8,-0.4 0.2,-0.1 0.5,-0.2 0.7,-0.2 0.2,-0.1 0.5,-0.1 0.7,-0.2 0.2,-0.1 0.5,-0.2 0.8,-0.3 2.1,-0.9 3.9,-2 5.4,-3.5 1.5,-1.4 2.4,-3.2 3,-5.3 0.1,-0.3 0.1,-0.6 0.2,-0.8 0,-0.2 0.1,-0.4 0.1,-0.6 0,-0.4 -0.1,-0.7 -0.3,-0.9 -0.3,-0.3 -0.7,-0.4 -1.2,-0.4 z"
           id="path405" />
        <path
           style="fill:#fac768;display:inline"
           inkscape:connector-curvature="0"
           display="inline"
           d="m 692.8,96.8 c 0.1,-0.5 0.2,-1.1 0.3,-1.5 0.1,-0.5 0.4,-0.8 0.6,-1.2 0.2,-0.4 0.6,-0.5 1,-0.5 0.2,0 0.5,0 0.7,0.1 0.3,0.1 0.5,0.2 0.8,0.3 0.2,0.1 0.4,0.3 0.6,0.5 0.2,0.2 0.2,0.4 0.2,0.7 0,0.1 0,0.2 -0.1,0.4 0,0.1 -0.1,0.3 -0.1,0.4 l -5.1,20.5 c -0.2,0.8 -0.4,1.6 -0.5,2.3 -0.1,0.7 -0.2,1.4 -0.3,1.8 v 0.5 c 0,0.4 0,0.9 -0.1,1.3 -0.1,0.5 -0.2,0.9 -0.3,1.4 -0.1,0.4 -0.4,0.8 -0.6,1 -0.2,0.2 -0.6,0.4 -1,0.4 -0.4,0 -0.7,-0.1 -1,-0.2 -0.3,-0.2 -0.5,-0.4 -0.7,-0.6 -0.2,-0.2 -0.3,-0.5 -0.4,-0.8 -0.1,-0.3 -0.1,-0.5 -0.1,-0.8 0,-0.2 0,-0.5 0.1,-0.8 0,-0.3 0.1,-0.7 0.2,-1 0.1,-0.3 0.1,-0.7 0.2,-1 0.1,-0.3 0.1,-0.7 0.2,-0.9 l 5.3,-20.9 c 0,-0.4 0,-0.9 0.1,-1.4 z"
           id="path407" />
        <path
           style="fill:#fac768;display:inline"
           inkscape:connector-curvature="0"
           display="inline"
           d="m 696.8,116.9 c 0,-0.6 0.2,-1.1 0.5,-1.5 0.3,-0.4 0.7,-0.7 1.2,-0.8 0.1,-0.3 0.4,-0.7 0.7,-1.2 0.3,-0.5 0.7,-1.1 1.2,-1.7 0.5,-0.6 1,-1.2 1.6,-1.8 0.6,-0.6 1.2,-1.2 2,-1.7 0.7,-0.5 1.5,-0.9 2.3,-1.2 0.8,-0.3 1.7,-0.5 2.6,-0.5 0.8,0 1.5,0.1 2.1,0.3 0.6,0.2 1.1,0.5 1.5,0.8 0.4,0.3 0.7,0.7 0.9,1.2 0.2,0.5 0.3,1 0.3,1.5 0,0.5 -0.1,0.9 -0.2,1.3 -0.2,0.8 -0.5,1.4 -1.1,2 -0.6,0.6 -1.1,1.1 -1.8,1.5 -0.7,0.4 -1.5,0.8 -2.3,1.1 -0.8,0.3 -1.7,0.5 -2.5,0.7 -0.8,0.2 -1.6,0.3 -2.4,0.4 -0.8,0.1 -1.4,0.2 -2,0.2 -0.1,0.2 -0.2,0.6 -0.3,0.9 -0.1,0.3 -0.1,0.7 -0.1,1.1 0,0.8 0.3,1.4 0.9,1.8 0.6,0.4 1.5,0.7 2.6,0.7 0.6,0 1.3,-0.1 1.8,-0.2 0.5,-0.1 1.1,-0.3 1.7,-0.6 0.5,-0.2 1,-0.5 1.5,-0.7 0.5,-0.3 0.9,-0.5 1.3,-0.8 0.5,-0.3 1,-0.6 1.4,-0.8 0.4,-0.2 0.8,-0.3 1.2,-0.3 0.3,0 0.6,0.1 0.7,0.3 0.1,0.2 0.1,0.4 0.1,0.5 0,0.1 0,0.2 0,0.3 0,0.1 0,0.2 0,0.3 -0.1,0.4 -0.2,0.7 -0.4,1.1 -0.2,0.4 -0.5,0.7 -0.8,0.9 -1.4,1.1 -2.9,1.9 -4.4,2.4 -1.5,0.5 -3.1,0.7 -4.8,0.7 -0.3,0 -0.7,0 -1.2,-0.1 -0.4,0 -0.9,-0.1 -1.4,-0.2 -0.5,-0.1 -0.9,-0.3 -1.4,-0.5 -0.5,-0.2 -0.9,-0.5 -1.2,-0.9 -0.3,-0.4 -0.7,-0.9 -0.9,-1.4 -0.2,-0.6 -0.3,-1.2 -0.3,-2 0,-0.6 0.1,-1.4 0.3,-2.1 -0.2,0 -0.3,-0.1 -0.5,-0.3 -0.3,-0.1 -0.4,-0.4 -0.4,-0.7 z m 12.8,-5.6 c 0,-0.1 0,-0.1 0,-0.2 0,-0.1 0,-0.1 0,-0.2 0,-0.4 -0.1,-0.6 -0.4,-0.8 -0.3,-0.2 -0.6,-0.3 -1,-0.3 -0.6,0 -1.2,0.2 -1.8,0.5 -0.6,0.3 -1.1,0.7 -1.6,1.2 -0.5,0.5 -1,1 -1.4,1.5 -0.4,0.5 -0.7,1 -0.9,1.5 1,-0.1 1.9,-0.2 2.7,-0.4 0.8,-0.2 1.5,-0.4 2.1,-0.7 0.6,-0.3 1.1,-0.6 1.5,-0.9 0.5,-0.5 0.7,-0.8 0.8,-1.2 z"
           id="path409" />
        <path
           style="fill:#fac768;display:inline"
           inkscape:connector-curvature="0"
           display="inline"
           d="m 718.3,121.2 c 0.1,0 0.2,0 0.3,0 0.1,0 0.2,0.1 0.3,0.1 0.1,0 0.2,0.1 0.4,0.1 0.1,0 0.3,0 0.5,0 0.6,0 1.4,-0.1 2.1,-0.2 0.8,-0.1 1.5,-0.3 2.2,-0.5 0.7,-0.2 1.3,-0.5 1.8,-0.7 0.5,-0.2 0.8,-0.6 0.8,-0.9 0,-0.2 0.1,-0.3 0.1,-0.4 0,-0.2 -0.1,-0.5 -0.3,-0.7 -0.2,-0.2 -0.5,-0.4 -0.8,-0.6 -0.3,-0.2 -0.7,-0.4 -1.1,-0.5 -0.4,-0.1 -0.8,-0.3 -1.1,-0.5 l -0.7,-0.3 c -0.4,-0.1 -0.7,-0.3 -1,-0.5 -0.3,-0.2 -0.7,-0.4 -1,-0.7 -0.3,-0.3 -0.6,-0.6 -0.8,-0.9 -0.2,-0.3 -0.4,-0.7 -0.5,-1.2 -0.1,-0.2 -0.1,-0.4 -0.1,-0.6 0,-0.2 -0.1,-0.4 -0.1,-0.6 0,-0.4 0.1,-0.8 0.4,-1.2 0.2,-0.5 0.6,-0.9 1,-1.4 0.4,-0.5 0.9,-0.9 1.4,-1.3 0.5,-0.4 1,-0.8 1.6,-1 0.4,-0.3 0.8,-0.5 1.2,-0.8 0.4,-0.2 0.8,-0.4 1.2,-0.6 0.4,-0.2 0.8,-0.3 1.2,-0.4 0.4,-0.1 0.8,-0.1 1.3,-0.1 0.4,0 0.9,0 1.3,0.1 0.5,0 0.9,0.1 1.3,0.3 0.4,0.2 0.7,0.4 1,0.7 0.3,0.3 0.4,0.7 0.4,1.2 0,0.1 0,0.3 -0.1,0.6 0,0.2 -0.1,0.5 -0.2,0.7 -0.1,0.2 -0.2,0.5 -0.3,0.6 -0.1,0.2 -0.3,0.3 -0.5,0.3 -0.3,0 -0.6,-0.1 -0.8,-0.2 -0.2,-0.1 -0.4,-0.3 -0.6,-0.4 -0.2,-0.1 -0.3,-0.3 -0.5,-0.4 -0.2,-0.1 -0.4,-0.2 -0.7,-0.2 -0.3,0 -0.7,0.1 -1.1,0.2 -0.4,0.1 -0.8,0.3 -1.3,0.5 -0.4,0.2 -0.9,0.4 -1.3,0.7 -0.4,0.3 -0.8,0.5 -1.1,0.8 -0.3,0.3 -0.6,0.5 -0.8,0.8 -0.2,0.3 -0.3,0.5 -0.3,0.7 0,0.2 0.1,0.4 0.2,0.6 0.1,0.2 0.3,0.3 0.6,0.4 0.3,0.2 0.6,0.3 1,0.5 0.4,0.2 0.8,0.3 1.2,0.5 0.4,0.2 0.8,0.3 1.2,0.5 0.4,0.2 0.7,0.3 1,0.4 0.4,0.2 0.7,0.4 1,0.6 0.3,0.2 0.5,0.4 0.7,0.6 0.2,0.2 0.4,0.5 0.5,0.7 0.1,0.2 0.2,0.6 0.2,1 0,0.2 0,0.4 0,0.5 0,0.2 -0.1,0.4 -0.1,0.6 0,0.2 -0.1,0.4 -0.2,0.7 -0.1,0.3 -0.2,0.5 -0.3,0.8 -0.1,0.3 -0.2,0.5 -0.4,0.7 -0.2,0.2 -0.2,0.4 -0.3,0.4 -0.5,0.5 -1.2,1 -1.9,1.4 -0.7,0.4 -1.5,0.8 -2.3,1.1 -0.8,0.3 -1.6,0.6 -2.4,0.8 -0.8,0.2 -1.5,0.3 -2.2,0.3 -0.3,0 -0.7,-0.1 -1.1,-0.2 -0.4,-0.1 -0.8,-0.3 -1.1,-0.5 -0.3,-0.2 -0.6,-0.5 -0.8,-0.7 -0.2,-0.3 -0.3,-0.5 -0.3,-0.8 0,-0.1 0,-0.3 0.1,-0.5 0.1,-0.2 0.2,-0.3 0.3,-0.5 0.1,-0.1 0.3,-0.3 0.4,-0.4 0.1,-0.1 0.2,-0.1 0.3,-0.1 z"
           id="path411" />
      </g>
      <g
         style="display:none"
         id="_x31_"
         display="none">
        <g
           style="opacity:0.7;display:inline"
           display="inline"
           id="g414">
          <path
             style="fill:#001b02"
             inkscape:connector-curvature="0"
             d="m 535.4,70.3 h 4.9 V 88 H 552 v 3.9 H 535.3 V 70.3 z"
             id="path416" />
          <path
             style="fill:#001b02"
             inkscape:connector-curvature="0"
             d="m 553.3,77.1 c 1.1,-0.3 1.9,-0.8 2.3,-1.5 0.2,-0.4 0.3,-0.9 0.3,-1.3 h -2.6 v -3.9 h 4.7 v 3.1 c 0,1.5 -0.4,2.6 -1.2,3.5 -0.8,0.8 -1.9,1.4 -3.4,1.7 v -1.6 z"
             id="path418" />
          <path
             style="fill:#001b02"
             inkscape:connector-curvature="0"
             d="m 617.6,76.2 c 0.8,0.4 1.5,1 2,1.8 v -7.6 h 4.6 V 92 h -4.4 v -2.2 c -0.6,0.9 -1.4,1.6 -2.2,2.1 -0.8,0.5 -1.9,0.6 -3.1,0.6 -2,0 -3.7,-0.8 -5.1,-2.3 -1.4,-1.5 -2.1,-3.4 -2.1,-5.8 0,-2.7 0.7,-4.9 2,-6.4 1.3,-1.5 3.2,-2.3 5.5,-2.3 1.1,-0.1 2,0.1 2.8,0.5 z m 1.1,11.4 c 0.7,-0.9 1,-2 1,-3.4 0,-2 -0.5,-3.3 -1.6,-4.2 -0.7,-0.5 -1.4,-0.8 -2.3,-0.8 -1.3,0 -2.3,0.5 -2.9,1.4 -0.6,0.9 -0.9,2.1 -0.9,3.4 0,1.5 0.3,2.7 0.9,3.5 0.6,0.8 1.6,1.3 2.9,1.3 1.3,0 2.3,-0.3 2.9,-1.2 z"
             id="path420" />
          <path
             style="fill:#001b02"
             inkscape:connector-curvature="0"
             d="m 632,95 0.6,0 c 0.4,0 0.9,0 1.3,0 0.4,0 0.7,-0.2 1,-0.3 0.3,-0.2 0.5,-0.5 0.7,-1 0.2,-0.5 0.3,-0.8 0.3,-1 L 629.6,76 h 5.1 L 638.5,87.8 642,76 h 4.8 l -6,15.7 c -1.2,3 -2.1,4.9 -2.7,5.6 -0.7,0.7 -2,1.1 -4,1.1 -0.4,0 -0.7,0 -1,0 -0.2,0 -0.6,0 -1.1,-0.1 V 95 z"
             id="path422" />
          <path
             style="fill:#001b02"
             inkscape:connector-curvature="0"
             d="m 655.5,86.8 c 0.1,0.7 0.3,1.3 0.6,1.6 0.6,0.6 1.6,0.8 3.1,0.8 0.9,0 1.6,-0.1 2.1,-0.4 0.5,-0.2 0.8,-0.6 0.8,-1.1 0,-0.5 -0.2,-0.8 -0.6,-1.1 -0.4,-0.2 -2,-0.7 -4.8,-1.3 -2,-0.4 -3.4,-1 -4.2,-1.7 -0.8,-0.7 -1.2,-1.6 -1.2,-2.9 0,-1.5 0.6,-2.7 1.9,-3.8 1.3,-1.1 3,-1.6 5.3,-1.6 2.2,0 3.9,0.4 5.3,1.2 1.4,0.8 2.2,2.2 2.4,4.1 h -4.5 c -0.1,-0.5 -0.2,-1 -0.5,-1.3 -0.5,-0.6 -1.4,-0.8 -2.6,-0.8 -1,0 -1.7,0.1 -2.1,0.4 -0.4,0.3 -0.6,0.6 -0.6,1 0,0.5 0.2,0.8 0.7,1 0.4,0.2 2,0.6 4.7,1.2 1.8,0.4 3.2,1 4.1,1.8 0.9,0.8 1.3,1.8 1.3,3 0,1.6 -0.6,2.9 -1.9,3.9 -1.3,1 -3.3,1.5 -6,1.5 -2.7,0 -4.8,-0.5 -6.1,-1.6 -1.3,-1.1 -2,-2.4 -2,-4.1 h 4.8 z"
             id="path424" />
          <path
             style="fill:#001b02"
             inkscape:connector-curvature="0"
             d="m 676.7,86.8 c 0.1,0.7 0.3,1.3 0.6,1.6 0.6,0.6 1.6,0.8 3.1,0.8 0.9,0 1.6,-0.1 2.1,-0.4 0.5,-0.2 0.8,-0.6 0.8,-1.1 0,-0.5 -0.2,-0.8 -0.6,-1.1 -0.4,-0.2 -2,-0.7 -4.8,-1.3 -2,-0.4 -3.4,-1 -4.2,-1.7 -0.8,-0.7 -1.2,-1.6 -1.2,-2.9 0,-1.5 0.6,-2.7 1.9,-3.8 1.3,-1.1 3,-1.6 5.3,-1.6 2.2,0 3.9,0.4 5.3,1.2 1.4,0.8 2.2,2.2 2.4,4.1 H 683 c -0.1,-0.5 -0.2,-1 -0.5,-1.3 -0.5,-0.6 -1.4,-0.8 -2.6,-0.8 -1,0 -1.7,0.1 -2.1,0.4 -0.4,0.3 -0.6,0.6 -0.6,1 0,0.5 0.2,0.8 0.7,1 0.4,0.2 2,0.6 4.7,1.2 1.8,0.4 3.2,1 4.1,1.8 0.9,0.8 1.3,1.8 1.3,3 0,1.6 -0.6,2.9 -1.9,3.9 -1.3,1 -3.3,1.5 -6,1.5 -2.7,0 -4.8,-0.5 -6.1,-1.6 -1.3,-1.1 -2,-2.4 -2,-4.1 h 4.7 z"
             id="path426" />
          <path
             style="fill:#001b02"
             inkscape:connector-curvature="0"
             d="m 705.8,76.3 c 1.2,0.5 2.2,1.3 3,2.4 0.7,0.9 1.2,2 1.4,3.3 0.1,0.7 0.2,1.8 0.1,3.2 h -12.7 c 0.1,1.6 0.7,2.7 1.8,3.4 0.7,0.4 1.5,0.6 2.5,0.6 1,0 1.9,-0.2 2.5,-0.7 0.4,-0.3 0.7,-0.6 0.9,-1.1 h 4.6 c -0.1,0.9 -0.7,1.9 -1.7,2.9 -1.6,1.6 -3.7,2.3 -6.5,2.3 -2.3,0 -4.4,-0.7 -6.1,-2 -1.7,-1.3 -2.7,-3.4 -2.7,-6.4 0,-2.8 0.8,-4.9 2.4,-6.4 1.6,-1.5 3.7,-2.2 6.2,-2.2 1.7,-0.1 3.1,0.2 4.3,0.7 z m -6.8,3.6 c -0.6,0.6 -1,1.4 -1.2,2.5 h 7.8 c -0.1,-1.1 -0.5,-1.9 -1.2,-2.5 -0.7,-0.6 -1.6,-0.9 -2.7,-0.9 -1.1,0 -2,0.3 -2.7,0.9 z m 8.1,-10.5 -4.8,4.4 H 699 l 3.1,-4.4 h 5 z"
             id="path428" />
          <path
             style="fill:#001b02"
             inkscape:connector-curvature="0"
             d="m 727.8,76.3 c 1.2,0.5 2.2,1.3 3,2.4 0.7,0.9 1.2,2 1.4,3.3 0.1,0.7 0.2,1.8 0.1,3.2 h -12.7 c 0.1,1.6 0.7,2.7 1.8,3.4 0.7,0.4 1.5,0.6 2.5,0.6 1,0 1.9,-0.2 2.5,-0.7 0.4,-0.3 0.7,-0.6 0.9,-1.1 h 4.6 c -0.1,0.9 -0.7,1.9 -1.7,2.9 -1.6,1.6 -3.7,2.3 -6.5,2.3 -2.3,0 -4.4,-0.7 -6.1,-2 -1.7,-1.3 -2.7,-3.4 -2.7,-6.4 0,-2.8 0.8,-4.9 2.4,-6.4 1.6,-1.5 3.7,-2.2 6.2,-2.2 1.7,-0.1 3.1,0.2 4.3,0.7 z m -6.8,3.6 c -0.6,0.6 -1,1.4 -1.2,2.5 h 7.8 c -0.1,-1.1 -0.5,-1.9 -1.2,-2.5 -0.7,-0.6 -1.6,-0.9 -2.7,-0.9 -1.1,0 -2,0.3 -2.7,0.9 z"
             id="path430" />
          <path
             style="fill:#001b02"
             inkscape:connector-curvature="0"
             d="m 613.4,100.9 c 0.5,0.2 0.9,0.6 1.2,1 v -4.5 h 2.7 v 12.7 h -2.6 v -1.3 c -0.4,0.6 -0.8,1 -1.3,1.2 -0.5,0.3 -1.1,0.4 -1.8,0.4 -1.2,0 -2.2,-0.4 -3,-1.3 -0.8,-0.9 -1.2,-2 -1.2,-3.4 0,-1.6 0.4,-2.9 1.2,-3.8 0.8,-0.9 1.9,-1.4 3.2,-1.4 0.5,0 1.1,0.2 1.6,0.4 z m 0.6,6.7 c 0.4,-0.5 0.6,-1.2 0.6,-2 0,-1.1 -0.3,-2 -0.9,-2.5 -0.4,-0.3 -0.8,-0.4 -1.3,-0.4 -0.8,0 -1.4,0.3 -1.7,0.8 -0.4,0.5 -0.5,1.2 -0.5,2 0,0.9 0.2,1.6 0.6,2.1 0.4,0.5 0.9,0.8 1.7,0.8 0.8,0 1.1,-0.3 1.5,-0.8 z"
             id="path432" />
          <path
             style="fill:#001b02"
             inkscape:connector-curvature="0"
             d="m 628.2,100.9 c 0.7,0.3 1.3,0.8 1.8,1.4 0.4,0.6 0.7,1.2 0.8,1.9 0.1,0.4 0.1,1.1 0.1,1.9 h -7.4 c 0,0.9 0.4,1.6 1.1,2 0.4,0.2 0.9,0.4 1.5,0.4 0.6,0 1.1,-0.1 1.5,-0.4 0.2,-0.2 0.4,-0.4 0.5,-0.6 h 2.7 c -0.1,0.6 -0.4,1.1 -1,1.7 -0.9,0.9 -2.2,1.4 -3.8,1.4 -1.4,0 -2.6,-0.4 -3.6,-1.2 -1,-0.8 -1.6,-2 -1.6,-3.8 0,-1.6 0.5,-2.9 1.4,-3.7 0.9,-0.9 2.2,-1.3 3.6,-1.3 0.9,-0.1 1.7,0.1 2.4,0.3 z m -4,2.2 c -0.4,0.4 -0.6,0.8 -0.7,1.5 h 4.6 c 0,-0.7 -0.3,-1.1 -0.7,-1.5 -0.4,-0.4 -1,-0.5 -1.6,-0.5 -0.7,-0.1 -1.2,0.1 -1.6,0.5 z"
             id="path434" />
          <path
             style="fill:#001b02"
             inkscape:connector-curvature="0"
             d="m 636.4,107.1 c 0.1,0.4 0.2,0.7 0.4,0.9 0.3,0.3 0.9,0.5 1.8,0.5 0.5,0 0.9,-0.1 1.3,-0.2 0.3,-0.1 0.5,-0.4 0.5,-0.6 0,-0.3 -0.1,-0.5 -0.4,-0.6 -0.3,-0.1 -1.2,-0.4 -2.8,-0.7 -1.2,-0.3 -2,-0.6 -2.5,-1 -0.5,-0.4 -0.7,-1 -0.7,-1.7 0,-0.9 0.4,-1.6 1.1,-2.2 0.7,-0.6 1.8,-0.9 3.1,-0.9 1.3,0 2.3,0.2 3.1,0.7 0.8,0.5 1.3,1.3 1.4,2.4 H 640 c 0,-0.3 -0.1,-0.6 -0.3,-0.7 -0.3,-0.3 -0.8,-0.5 -1.5,-0.5 -0.6,0 -1,0.1 -1.2,0.2 -0.2,0.2 -0.4,0.4 -0.4,0.6 0,0.3 0.1,0.5 0.4,0.6 0.3,0.1 1.2,0.4 2.8,0.7 1.1,0.2 1.9,0.6 2.4,1 0.5,0.5 0.8,1.1 0.8,1.8 0,0.9 -0.4,1.7 -1.1,2.3 -0.8,0.6 -1.9,0.9 -3.5,0.9 -1.6,0 -2.8,-0.3 -3.6,-0.9 -0.8,-0.6 -1.1,-1.4 -1.1,-2.4 h 2.7 z"
             id="path436" />
          <path
             style="fill:#001b02"
             inkscape:connector-curvature="0"
             d="m 320.3,122.3 c 1.2,0.5 2.2,1.3 3,2.4 0.7,0.9 1.2,2 1.4,3.3 0.1,0.7 0.2,1.8 0.1,3.2 h -12.7 c 0.1,1.6 0.7,2.7 1.8,3.4 0.7,0.4 1.5,0.6 2.5,0.6 1,0 1.9,-0.2 2.5,-0.7 0.4,-0.3 0.7,-0.6 0.9,-1.1 h 4.6 c -0.1,0.9 -0.7,1.9 -1.7,2.9 -1.6,1.6 -3.7,2.3 -6.5,2.3 -2.3,0 -4.4,-0.7 -6.1,-2 -1.8,-1.3 -2.7,-3.4 -2.7,-6.4 0,-2.8 0.8,-4.9 2.4,-6.4 1.6,-1.5 3.7,-2.2 6.2,-2.2 1.7,-0.1 3,0.2 4.3,0.7 z m -6.8,3.6 c -0.6,0.6 -1,1.4 -1.2,2.5 h 7.8 c -0.1,-1.1 -0.5,-1.9 -1.2,-2.5 -0.7,-0.6 -1.6,-0.9 -2.7,-0.9 -1.2,0 -2.1,0.3 -2.7,0.9 z m 8,-10.5 -4.8,4.4 h -3.3 l 3.1,-4.4 h 5 z"
             id="path438" />
          <path
             style="fill:#001b02"
             inkscape:connector-curvature="0"
             d="m 344.6,122.9 c 1.1,0.9 1.7,2.3 1.7,4.3 V 138 h -4.7 v -9.7 c 0,-0.8 -0.1,-1.5 -0.4,-1.9 -0.4,-0.8 -1.3,-1.2 -2.5,-1.2 -1.5,0 -2.6,0.6 -3.2,1.8 -0.3,0.6 -0.4,1.4 -0.4,2.4 v 8.6 h -4.5 v -16 h 4.4 v 2.3 c 0.6,-0.8 1.1,-1.4 1.7,-1.8 0.9,-0.6 2.1,-1 3.5,-1 1.8,0.1 3.3,0.5 4.4,1.4 z"
             id="path440" />
          <path
             style="fill:#001b02"
             inkscape:connector-curvature="0"
             d="m 532.4,122.9 c 1.1,0.9 1.7,2.3 1.7,4.3 V 138 h -4.7 v -9.7 c 0,-0.8 -0.1,-1.5 -0.4,-1.9 -0.4,-0.8 -1.3,-1.2 -2.5,-1.2 -1.5,0 -2.6,0.6 -3.2,1.8 -0.3,0.6 -0.4,1.4 -0.4,2.4 v 8.6 h -4.5 v -16 h 4.4 v 2.3 c 0.6,-0.8 1.1,-1.4 1.7,-1.8 0.9,-0.6 2.1,-1 3.5,-1 1.8,0.1 3.3,0.5 4.4,1.4 z"
             id="path442" />
          <path
             style="fill:#001b02"
             inkscape:connector-curvature="0"
             d="m 365,122.3 c 1.2,0.5 2.2,1.3 3,2.4 0.7,0.9 1.2,2 1.4,3.3 0.1,0.7 0.2,1.8 0.1,3.2 h -12.7 c 0.1,1.6 0.7,2.7 1.8,3.4 0.7,0.4 1.5,0.6 2.5,0.6 1,0 1.9,-0.2 2.5,-0.7 0.4,-0.3 0.7,-0.6 0.9,-1.1 h 4.6 c -0.1,0.9 -0.7,1.9 -1.7,2.9 -1.6,1.6 -3.7,2.3 -6.5,2.3 -2.3,0 -4.4,-0.7 -6.1,-2 -1.7,-1.3 -2.7,-3.4 -2.7,-6.4 0,-2.8 0.8,-4.9 2.4,-6.4 1.6,-1.5 3.7,-2.2 6.2,-2.2 1.8,-0.1 3.1,0.2 4.3,0.7 z m -6.8,3.6 c -0.6,0.6 -1,1.4 -1.2,2.5 h 7.8 c -0.1,-1.1 -0.5,-1.9 -1.2,-2.5 -0.7,-0.6 -1.6,-0.9 -2.7,-0.9 -1.1,0 -2,0.3 -2.7,0.9 z"
             id="path444" />
          <path
             style="fill:#001b02"
             inkscape:connector-curvature="0"
             d="m 385.1,121.6 c 0.1,0 0.2,0 0.4,0 v 4.3 c -0.3,0 -0.5,0 -0.8,-0.1 -0.2,0 -0.4,0 -0.5,0 -1.8,0 -3.1,0.5 -3.7,1.6 -0.4,0.6 -0.5,1.6 -0.5,2.8 v 7.6 h -4.6 v -16 h 4.3 v 2.8 c 0.7,-1.1 1.3,-1.8 1.8,-2.2 0.9,-0.7 2,-1 3.3,-1 0.1,0.2 0.2,0.2 0.3,0.2 z"
             id="path446" />
          <path
             style="fill:#001b02"
             inkscape:connector-curvature="0"
             d="m 399.8,121.9 c 1.1,0.4 2,1.2 2.7,2.3 V 122 h 4.4 v 15.1 c 0,2.1 -0.4,3.6 -1.1,4.7 -1.3,1.8 -3.8,2.7 -7.5,2.7 -2.2,0 -4,-0.4 -5.4,-1.2 -1.4,-0.8 -2.2,-2 -2.3,-3.6 h 4.9 c 0.1,0.5 0.3,0.8 0.6,1.1 0.5,0.4 1.3,0.6 2.5,0.6 1.6,0 2.7,-0.5 3.3,-1.5 0.4,-0.6 0.5,-1.7 0.5,-3.3 v -1 c -0.4,0.7 -0.9,1.2 -1.4,1.5 -0.9,0.6 -2.1,1 -3.5,1 -2.2,0 -4,-0.7 -5.4,-2.2 -1.3,-1.4 -2,-3.4 -2,-5.9 0,-2.4 0.6,-4.4 1.9,-6 1.3,-1.6 3.1,-2.4 5.5,-2.4 0.9,0 1.6,0.1 2.3,0.3 z m 1.5,11.5 c 0.7,-0.7 1.1,-1.9 1.1,-3.5 0,-1.5 -0.3,-2.7 -1,-3.5 -0.7,-0.8 -1.6,-1.2 -2.8,-1.2 -1.6,0 -2.7,0.7 -3.3,2.1 -0.3,0.7 -0.5,1.6 -0.5,2.7 0,0.9 0.2,1.8 0.5,2.5 0.6,1.3 1.7,2 3.3,2 1.1,0 2,-0.4 2.7,-1.1 z"
             id="path448" />
          <path
             style="fill:#001b02"
             inkscape:connector-curvature="0"
             d="m 418.7,120.1 h -4.6 v -3.9 h 4.6 v 3.9 z m -4.6,1.9 h 4.6 v 16 h -4.6 v -16 z"
             id="path450" />
          <path
             style="fill:#001b02"
             inkscape:connector-curvature="0"
             d="m 437.6,122.3 c 1.2,0.5 2.2,1.3 3,2.4 0.7,0.9 1.2,2 1.4,3.3 0.1,0.7 0.2,1.8 0.1,3.2 h -12.7 c 0.1,1.6 0.7,2.7 1.8,3.4 0.7,0.4 1.5,0.6 2.5,0.6 1,0 1.9,-0.2 2.5,-0.7 0.4,-0.3 0.7,-0.6 0.9,-1.1 h 4.6 c -0.1,0.9 -0.7,1.9 -1.7,2.9 -1.6,1.6 -3.7,2.3 -6.5,2.3 -2.3,0 -4.4,-0.7 -6.1,-2 -1.7,-1.3 -2.7,-3.4 -2.7,-6.4 0,-2.8 0.8,-4.9 2.4,-6.4 1.6,-1.5 3.7,-2.2 6.2,-2.2 1.7,-0.1 3,0.2 4.3,0.7 z m -6.8,3.6 c -0.6,0.6 -1,1.4 -1.2,2.5 h 7.8 c -0.1,-1.1 -0.5,-1.9 -1.2,-2.5 -0.7,-0.6 -1.6,-0.9 -2.7,-0.9 -1.2,0 -2.1,0.3 -2.7,0.9 z"
             id="path452" />
          <path
             style="fill:#001b02"
             inkscape:connector-curvature="0"
             d="m 451.4,132.8 c 0.1,0.7 0.3,1.3 0.6,1.6 0.6,0.6 1.6,0.8 3.1,0.8 0.9,0 1.6,-0.1 2.1,-0.4 0.5,-0.2 0.8,-0.6 0.8,-1.1 0,-0.5 -0.2,-0.8 -0.6,-1.1 -0.4,-0.3 -2,-0.7 -4.8,-1.3 -2,-0.4 -3.4,-1 -4.2,-1.7 -0.8,-0.7 -1.2,-1.6 -1.2,-2.9 0,-1.5 0.6,-2.7 1.9,-3.8 1.3,-1.1 3,-1.6 5.3,-1.6 2.2,0 3.9,0.4 5.3,1.2 1.4,0.8 2.2,2.2 2.4,4.1 h -4.5 c -0.1,-0.5 -0.2,-1 -0.5,-1.3 -0.5,-0.6 -1.4,-0.8 -2.6,-0.8 -1,0 -1.7,0.1 -2.1,0.4 -0.4,0.3 -0.6,0.6 -0.6,1 0,0.5 0.2,0.8 0.7,1 0.4,0.2 2,0.6 4.7,1.2 1.8,0.4 3.2,1 4.1,1.8 0.9,0.8 1.3,1.8 1.3,3 0,1.6 -0.6,2.9 -1.9,3.9 -1.3,1 -3.3,1.5 -6,1.5 -2.7,0 -4.8,-0.5 -6.1,-1.6 -1.3,-1.1 -2,-2.4 -2,-4.1 h 4.8 z"
             id="path454" />
          <path
             style="fill:#001b02"
             inkscape:connector-curvature="0"
             d="m 491.4,121.6 c 0.1,0 0.2,0 0.4,0 v 4.3 c -0.3,0 -0.5,0 -0.8,-0.1 -0.3,-0.1 -0.4,0 -0.5,0 -1.8,0 -3.1,0.5 -3.7,1.6 -0.4,0.6 -0.5,1.6 -0.5,2.8 v 7.6 h -4.6 v -16 h 4.3 v 2.8 c 0.7,-1.1 1.3,-1.8 1.8,-2.2 0.9,-0.7 2,-1 3.3,-1 0.1,0.2 0.2,0.2 0.3,0.2 z"
             id="path456" />
          <path
             style="fill:#001b02"
             inkscape:connector-curvature="0"
             d="m 508.9,122.3 c 1.2,0.5 2.2,1.3 3,2.4 0.7,0.9 1.2,2 1.4,3.3 0.1,0.7 0.2,1.8 0.1,3.2 h -12.7 c 0.1,1.6 0.7,2.7 1.8,3.4 0.7,0.4 1.5,0.6 2.5,0.6 1,0 1.9,-0.2 2.5,-0.7 0.4,-0.3 0.7,-0.6 0.9,-1.1 h 4.6 c -0.1,0.9 -0.7,1.9 -1.7,2.9 -1.6,1.6 -3.7,2.3 -6.5,2.3 -2.3,0 -4.4,-0.7 -6.1,-2 -1.7,-1.3 -2.7,-3.4 -2.7,-6.4 0,-2.8 0.8,-4.9 2.4,-6.4 1.6,-1.5 3.7,-2.2 6.2,-2.2 1.8,-0.1 3.1,0.2 4.3,0.7 z m -6.8,3.6 c -0.6,0.6 -1,1.4 -1.2,2.5 h 7.8 c -0.1,-1.1 -0.5,-1.9 -1.2,-2.5 -0.7,-0.6 -1.6,-0.9 -2.7,-0.9 -1.1,0 -2,0.3 -2.7,0.9 z"
             id="path458" />
          <path
             style="fill:#001b02"
             inkscape:connector-curvature="0"
             d="m 553.6,136 c -1.5,1.7 -3.7,2.5 -6.7,2.5 -3,0 -5.2,-0.8 -6.7,-2.5 -1.5,-1.7 -2.2,-3.7 -2.2,-6 0,-2.3 0.7,-4.3 2.2,-6 1.5,-1.7 3.7,-2.5 6.7,-2.5 3,0 5.2,0.8 6.7,2.5 1.5,1.7 2.2,3.7 2.2,6 0,2.3 -0.7,4.3 -2.2,6 z m -3.6,-2.3 c 0.7,-0.9 1.1,-2.1 1.1,-3.7 0,-1.6 -0.4,-2.8 -1.1,-3.7 -0.7,-0.9 -1.7,-1.3 -3.1,-1.3 -1.4,0 -2.4,0.4 -3.1,1.3 -0.7,0.9 -1.1,2.1 -1.1,3.7 0,1.6 0.4,2.8 1.1,3.7 0.7,0.9 1.7,1.3 3.1,1.3 1.4,0 2.4,-0.5 3.1,-1.3 z"
             id="path460" />
          <path
             style="fill:#001b02"
             inkscape:connector-curvature="0"
             d="m 566.5,122 v 9.6 c 0,0.9 0.1,1.6 0.3,2.1 0.4,0.8 1.2,1.2 2.4,1.2 1.5,0 2.6,-0.6 3.2,-1.7 0.3,-0.6 0.4,-1.5 0.4,-2.5 V 122 h 4.6 v 16 H 573 v -2.3 c 0,0 -0.1,0.2 -0.3,0.4 -0.2,0.2 -0.4,0.5 -0.6,0.6 -0.7,0.6 -1.4,1 -2.1,1.2 -0.7,0.2 -1.4,0.3 -2.3,0.3 -2.6,0 -4.3,-0.8 -5.2,-2.5 -0.5,-0.9 -0.7,-2.3 -0.7,-4.1 V 122 h 4.7 z"
             id="path462" />
          <path
             style="fill:#001b02"
             inkscape:connector-curvature="0"
             d="m 595.5,122 h 4.9 l -6.3,16 h -4.8 l -6.2,-16 h 5.1 l 3.6,11.8 3.7,-11.8 z"
             id="path464" />
          <path
             style="fill:#001b02"
             inkscape:connector-curvature="0"
             d="m 616.8,122.3 c 1.2,0.5 2.2,1.3 3,2.4 0.7,0.9 1.2,2 1.4,3.3 0.1,0.7 0.2,1.8 0.1,3.2 h -12.7 c 0.1,1.6 0.7,2.7 1.8,3.4 0.7,0.4 1.5,0.6 2.5,0.6 1,0 1.9,-0.2 2.5,-0.7 0.4,-0.3 0.7,-0.6 0.9,-1.1 h 4.6 c -0.1,0.9 -0.7,1.9 -1.7,2.9 -1.6,1.6 -3.7,2.3 -6.5,2.3 -2.3,0 -4.4,-0.7 -6.1,-2 -1.7,-1.3 -2.7,-3.4 -2.7,-6.4 0,-2.8 0.8,-4.9 2.4,-6.4 1.6,-1.5 3.7,-2.2 6.2,-2.2 1.7,-0.1 3.1,0.2 4.3,0.7 z m -6.8,3.6 c -0.6,0.6 -1,1.4 -1.2,2.5 h 7.8 c -0.1,-1.1 -0.5,-1.9 -1.2,-2.5 -0.7,-0.6 -1.6,-0.9 -2.7,-0.9 -1.2,0 -2.1,0.3 -2.7,0.9 z"
             id="path466" />
          <path
             style="fill:#001b02"
             inkscape:connector-curvature="0"
             d="m 631.8,137.9 h -4.5 v -21.6 h 4.5 v 21.6 z"
             id="path468" />
          <path
             style="fill:#001b02"
             inkscape:connector-curvature="0"
             d="m 646.1,128.2 c 0.8,-0.1 1.5,-0.2 1.8,-0.4 0.7,-0.3 1,-0.6 1,-1.2 0,-0.7 -0.3,-1.1 -0.8,-1.4 -0.5,-0.2 -1.2,-0.4 -2.2,-0.4 -1.1,0 -1.9,0.2 -2.3,0.7 -0.3,0.4 -0.5,0.8 -0.6,1.5 h -4.4 c 0.1,-1.4 0.5,-2.5 1.3,-3.4 1.2,-1.4 3.3,-2.1 6.2,-2.1 1.9,0 3.6,0.3 5.1,1 1.5,0.7 2.2,2 2.2,3.9 v 7.3 c 0,0.5 0,1.1 0,1.8 0,0.5 0.1,0.9 0.3,1.1 0.2,0.2 0.4,0.4 0.7,0.5 v 0.6 h -4.9 c -0.1,-0.3 -0.2,-0.6 -0.3,-0.9 -0.1,-0.3 -0.1,-0.6 -0.1,-1 -0.6,0.6 -1.4,1.2 -2.2,1.6 -1,0.5 -2.1,0.8 -3.3,0.8 -1.6,0 -2.9,-0.4 -3.9,-1.2 -1,-0.8 -1.5,-2 -1.5,-3.5 0,-2 0.8,-3.4 2.5,-4.3 0.9,-0.5 2.3,-0.8 4,-1 l 1.4,0 z m 2.8,2 c -0.3,0.2 -0.6,0.3 -0.9,0.4 -0.3,0.1 -0.7,0.2 -1.2,0.3 l -1,0.2 c -1,0.2 -1.7,0.3 -2.1,0.6 -0.7,0.4 -1.1,1 -1.1,1.8 0,0.7 0.2,1.2 0.7,1.5 0.4,0.3 1,0.5 1.6,0.5 1,0 1.9,-0.3 2.7,-0.8 0.8,-0.5 1.3,-1.5 1.3,-2.9 v -1.6 z"
             id="path470" />
          <path
             style="fill:#001b02"
             inkscape:connector-curvature="0"
             d="m 675.4,123.9 c 1.3,1.5 2,3.5 2,5.9 0,2.5 -0.6,4.5 -1.9,6.2 -1.3,1.6 -3.1,2.4 -5.4,2.4 -1.4,0 -2.6,-0.3 -3.5,-0.8 -0.5,-0.3 -1.1,-0.9 -1.7,-1.6 v 2 h -4.5 v -21.6 h 4.5 v 7.7 c 0.6,-0.7 1.2,-1.3 1.9,-1.7 0.8,-0.5 1.9,-0.7 3.1,-0.7 2.4,-0.1 4.2,0.7 5.5,2.2 z m -3.8,9.7 c 0.7,-0.9 1,-2 1,-3.4 0,-1.1 -0.2,-2.1 -0.5,-2.8 -0.6,-1.4 -1.7,-2.1 -3.4,-2.1 -1.7,0 -2.8,0.7 -3.4,2.1 -0.3,0.7 -0.5,1.7 -0.5,2.8 0,1.4 0.3,2.5 1,3.4 0.7,0.9 1.7,1.3 3,1.3 1.3,0 2.2,-0.4 2.8,-1.3 z"
             id="path472" />
          <path
             style="fill:#001b02"
             inkscape:connector-curvature="0"
             d="m 688.3,137.9 h -4.5 v -21.6 h 4.5 v 21.6 z"
             id="path474" />
          <path
             style="fill:#001b02"
             inkscape:connector-curvature="0"
             d="m 707.2,122.3 c 1.2,0.5 2.2,1.3 3,2.4 0.7,0.9 1.2,2 1.4,3.3 0.1,0.7 0.2,1.8 0.1,3.2 H 699 c 0.1,1.6 0.7,2.7 1.8,3.4 0.7,0.4 1.5,0.6 2.5,0.6 1,0 1.9,-0.2 2.5,-0.7 0.4,-0.3 0.7,-0.6 0.9,-1.1 h 4.6 c -0.1,0.9 -0.7,1.9 -1.7,2.9 -1.6,1.6 -3.7,2.3 -6.5,2.3 -2.3,0 -4.4,-0.7 -6.1,-2 -1.7,-1.3 -2.7,-3.4 -2.7,-6.4 0,-2.8 0.8,-4.9 2.4,-6.4 1.6,-1.5 3.7,-2.2 6.2,-2.2 1.7,-0.1 3.1,0.2 4.3,0.7 z m -6.8,3.6 c -0.6,0.6 -1,1.4 -1.2,2.5 h 7.8 c -0.1,-1.1 -0.5,-1.9 -1.2,-2.5 -0.7,-0.6 -1.6,-0.9 -2.7,-0.9 -1.2,0 -2.1,0.3 -2.7,0.9 z"
             id="path476" />
          <path
             style="fill:#001b02"
             inkscape:connector-curvature="0"
             d="m 721.1,132.8 c 0.1,0.7 0.3,1.3 0.6,1.6 0.6,0.6 1.6,0.8 3.1,0.8 0.9,0 1.6,-0.1 2.1,-0.4 0.5,-0.2 0.8,-0.6 0.8,-1.1 0,-0.5 -0.2,-0.8 -0.6,-1.1 -0.4,-0.2 -2,-0.7 -4.8,-1.3 -2,-0.4 -3.4,-1 -4.2,-1.7 -0.8,-0.7 -1.2,-1.6 -1.2,-2.9 0,-1.5 0.6,-2.7 1.9,-3.8 1.3,-1.1 3,-1.6 5.3,-1.6 2.2,0 3.9,0.4 5.3,1.2 1.4,0.8 2.2,2.2 2.4,4.1 h -4.5 c -0.1,-0.5 -0.2,-1 -0.5,-1.3 -0.5,-0.6 -1.4,-0.8 -2.6,-0.8 -1,0 -1.7,0.1 -2.1,0.4 -0.4,0.3 -0.6,0.6 -0.6,1 0,0.5 0.2,0.8 0.7,1 0.4,0.2 2,0.6 4.7,1.2 1.8,0.4 3.2,1 4.1,1.8 0.9,0.8 1.3,1.8 1.3,3 0,1.6 -0.6,2.9 -1.9,3.9 -1.3,1 -3.3,1.5 -6,1.5 -2.7,0 -4.8,-0.5 -6.1,-1.6 -1.3,-1.1 -2,-2.4 -2,-4.1 h 4.8 z"
             id="path478" />
        </g>
        <rect
           style="fill:none;display:inline"
           x="274.79999"
           y="267.79999"
           display="inline"
           width="6.5999999"
           height="0"
           id="rect480" />
        <circle
           d="m 600.90002,82 c 0,9.941125 -8.05887,18 -18,18 -9.94112,0 -18,-8.058875 -18,-18 0,-9.941125 8.05888,-18 18,-18 9.94113,0 18,8.058875 18,18 z"
           style="fill:none;stroke:#e94c2d;stroke-width:2;stroke-miterlimit:10;display:inline"
           sodipodi:ry="18"
           sodipodi:rx="18"
           sodipodi:cy="82"
           sodipodi:cx="582.90002"
           display="inline"
           stroke-miterlimit="10"
           cx="582.90002"
           cy="82"
           r="18"
           id="circle482" />
      </g>
      <g
         id="_x33_">
        <path
           style="fill:#b11b4a"
           inkscape:connector-curvature="0"
           d="m 550.9,76.9 c 0.5,-1.9 1.1,-3.8 2,-5.8 0.9,-2 1.9,-3.9 3,-5.9 1.2,-2 2.4,-3.9 3.8,-5.8 1.4,-1.9 2.9,-3.8 4.5,-5.6 1.6,-1.8 3.2,-3.5 4.9,-5.1 1.7,-1.6 3.4,-3 5.1,-4.4 0.8,-0.6 1.5,-0.9 2.2,-1.1 0.7,-0.2 1.4,-0.3 2.1,-0.3 0.8,0 1.5,0.1 2.1,0.4 0.6,0.3 1.3,0.7 1.9,1.3 0.2,0.2 0.4,0.4 0.6,0.6 0.2,0.2 0.4,0.3 0.6,0.3 0,0 0.1,-0.1 0.2,-0.2 0.1,-0.1 0.2,-0.2 0.2,-0.4 0.1,-0.2 0.2,-0.3 0.3,-0.5 0.1,-0.2 0.3,-0.3 0.5,-0.4 0.4,-0.2 0.9,-0.3 1.5,-0.4 0.6,-0.1 1.2,-0.1 1.8,-0.1 1.1,0 2.2,0.2 3.3,0.6 1.1,0.4 2,1 2.8,1.7 1.9,1.8 3.3,3.9 4.3,6.4 1,2.5 1.5,5.1 1.5,8 0,2.6 -0.4,5.3 -1.1,8.3 -0.7,2.6 -1.6,5.1 -2.8,7.6 -1.2,2.5 -2.6,4.8 -4.3,6.9 -1.6,2.2 -3.5,4.1 -5.5,5.9 -2,1.8 -4.2,3.3 -6.4,4.6 -2.2,1.3 -4.7,2.3 -7.1,3 -2.5,0.7 -5,1.1 -7.5,1.1 -2.4,0 -4.5,-0.4 -6.4,-1.1 -1.9,-0.7 -3.5,-1.8 -4.8,-3.1 -1.3,-1.3 -2.3,-2.9 -3,-4.7 -0.7,-1.8 -1,-3.9 -1,-6.1 0,-1 0.1,-1.9 0.2,-2.9 0.1,-1 0.2,-1.8 0.5,-2.8 z m 6.3,2.5 c -0.3,1.3 -0.4,2.4 -0.4,3.4 0,1.4 0.2,2.6 0.7,3.7 0.5,1.1 1.2,2 2.1,2.7 0.9,0.7 2,1.3 3.2,1.6 1.2,0.4 2.6,0.5 4.1,0.5 1.8,0 3.5,-0.3 5.3,-0.8 1.8,-0.6 3.6,-1.4 5.3,-2.4 1.7,-1 3.4,-2.3 5,-3.8 1.6,-1.5 3.1,-3.2 4.4,-5 1.4,-1.9 2.6,-3.9 3.6,-6.1 1.1,-2.2 1.9,-4.5 2.6,-7 0.3,-0.9 0.4,-1.8 0.5,-2.8 0.1,-1 0.2,-1.9 0.2,-2.8 0,-1.5 -0.2,-2.8 -0.5,-4.2 -0.3,-1.3 -0.9,-2.5 -1.6,-3.5 -0.8,-1 -1.7,-1.8 -3,-2.5 -1.2,-0.6 -2.7,-0.9 -4.5,-0.9 -0.3,0 -0.4,0.1 -0.6,0.3 -0.2,0.2 -0.3,0.5 -0.4,0.8 -0.1,0.3 -0.3,0.6 -0.4,0.9 -0.2,0.3 -0.4,0.6 -0.6,0.8 -0.2,0.2 -0.6,0.4 -1,0.6 -0.4,0.2 -0.9,0.2 -1.4,0.2 -0.4,0 -0.8,-0.1 -1.1,-0.3 -0.3,-0.2 -0.7,-0.4 -1,-0.8 -0.2,-0.2 -0.3,-0.3 -0.4,-0.4 -0.1,-0.1 -0.2,-0.1 -0.3,-0.1 -0.2,0 -0.5,0.1 -0.9,0.3 -0.4,0.2 -0.7,0.4 -1.1,0.7 -0.4,0.3 -0.8,0.6 -1.1,0.9 -0.4,0.3 -0.6,0.6 -0.8,0.8 -1.7,1.8 -3.4,3.7 -5.1,5.7 -1.7,2.1 -3.2,4.2 -4.7,6.4 -1.4,2.2 -2.7,4.4 -3.7,6.7 -1,2.3 -1.9,4.4 -2.4,6.4 z"
           id="path485" />
        <g
           style="opacity:0.6"
           id="g487">
          <path
             inkscape:connector-curvature="0"
             d="m 532.6,79.6 v -25 h 4.8 v 25 h -4.8 z"
             id="path489" />
          <path
             inkscape:connector-curvature="0"
             d="m 542.9,62.8 c 0.9,-0.2 1.6,-0.7 2.1,-1.3 0.5,-0.6 0.7,-1.5 0.7,-2.7 h -2.9 v -5 h 5.1 v 3.8 c 0,1 -0.1,2 -0.3,2.8 -0.2,0.8 -0.5,1.5 -0.9,2 -0.4,0.6 -0.9,1 -1.6,1.4 -0.7,0.4 -1.5,0.7 -2.4,0.9 v -1.9 z"
             id="path491" />
          <path
             inkscape:connector-curvature="0"
             d="m 617.7,79.6 0,-2.2 c -1.1,1.8 -2.8,2.7 -5.1,2.7 -1.2,0 -2.2,-0.2 -3.2,-0.7 -1,-0.4 -1.8,-1.1 -2.5,-1.9 -0.7,-0.8 -1.2,-1.9 -1.6,-3.1 -0.4,-1.2 -0.6,-2.6 -0.6,-4.1 0,-1.4 0.2,-2.7 0.5,-3.8 0.3,-1.2 0.8,-2.1 1.5,-3 0.6,-0.8 1.4,-1.5 2.4,-2 0.9,-0.5 2,-0.7 3.2,-0.7 2.3,0 4.1,1 5.4,2.9 v -9.1 h 4.8 v 25 h -4.8 z m -4,-3.5 c 1.2,0 2.1,-0.5 2.9,-1.4 0.8,-1 1.2,-2.2 1.2,-3.8 0,-4 -1.4,-5.9 -4.1,-5.9 -2.8,0 -4.2,1.9 -4.2,5.7 0,1.6 0.4,3 1.2,4 0.8,0.9 1.8,1.4 3,1.4 z"
             id="path493" />
          <path
             inkscape:connector-curvature="0"
             d="m 639.7,77.1 c -0.3,0.8 -1,1.5 -1.9,1.9 -0.9,0.5 -1.9,0.7 -3.1,0.7 -1,0 -1.9,-0.2 -2.7,-0.5 -0.8,-0.3 -1.5,-0.8 -2.1,-1.3 -0.6,-0.6 -1.1,-1.3 -1.4,-2.1 C 628.2,75 628,74.1 628,73.1 V 61.3 h 4.8 v 11.2 c 0,2.3 1,3.4 3.1,3.4 1.1,0 2,-0.3 2.7,-1 0.7,-0.6 1,-1.5 1,-2.5 V 61.3 h 4.8 V 80 c 0,1.3 -0.2,2.4 -0.7,3.5 -0.4,1 -1,1.9 -1.8,2.6 -0.8,0.7 -1.6,1.2 -2.7,1.6 -1,0.4 -2.1,0.6 -3.3,0.6 -2.7,0 -4.7,-0.7 -6.1,-2 -1.3,-1.4 -2,-3.2 -2,-5.6 h 4.5 c 0,1.1 0.3,1.9 0.9,2.6 0.6,0.6 1.6,0.9 2.8,0.9 0.4,0 0.9,-0.1 1.3,-0.3 0.4,-0.2 0.7,-0.4 1.1,-0.8 0.3,-0.3 0.6,-0.7 0.7,-1.2 0.2,-0.5 0.3,-1 0.3,-1.6 v -3.2 z"
             id="path495" />
          <path
             inkscape:connector-curvature="0"
             d="M 661.1,66.8 C 661,66 660.7,65.3 660.2,65 c -0.5,-0.4 -1.3,-0.6 -2.3,-0.6 -1,0 -1.7,0.1 -2.2,0.4 -0.5,0.2 -0.8,0.6 -0.8,1.2 0,0.5 0.3,0.9 0.8,1.2 0.5,0.3 1.2,0.6 2.2,0.9 1.6,0.4 2.9,0.8 4,1.1 1.1,0.3 2,0.7 2.6,1.1 0.7,0.4 1.1,0.9 1.4,1.6 0.3,0.6 0.4,1.5 0.4,2.5 0,1.6 -0.7,3 -2,4.1 -1.4,1.1 -3.4,1.6 -6.1,1.6 -1.3,0 -2.5,-0.1 -3.6,-0.4 -1.1,-0.3 -2,-0.7 -2.7,-1.3 -0.8,-0.6 -1.3,-1.2 -1.7,-2 -0.4,-0.8 -0.6,-1.7 -0.7,-2.6 h 5 c 0,0.9 0.3,1.5 1,2 0.7,0.5 1.6,0.7 2.7,0.7 0.9,0 1.7,-0.1 2.4,-0.4 0.7,-0.3 1,-0.7 1,-1.3 0,-0.7 -0.2,-1.2 -0.7,-1.4 -0.5,-0.3 -1.2,-0.6 -2.2,-0.8 -1.8,-0.4 -3.2,-0.8 -4.3,-1.2 -1.1,-0.4 -1.9,-0.9 -2.5,-1.4 -0.6,-0.5 -1,-1.1 -1.2,-1.7 -0.2,-0.6 -0.3,-1.3 -0.3,-2.1 0,-0.7 0.1,-1.4 0.4,-2 0.3,-0.6 0.7,-1.2 1.4,-1.6 0.6,-0.5 1.4,-0.8 2.4,-1.1 1,-0.3 2.2,-0.4 3.6,-0.4 2.6,0 4.5,0.5 5.8,1.6 1.2,1.1 1.9,2.5 2,4.4 h -4.9 z"
             id="path497" />
          <path
             inkscape:connector-curvature="0"
             d="m 682.2,66.8 c -0.1,-0.8 -0.4,-1.5 -0.9,-1.8 -0.5,-0.4 -1.3,-0.6 -2.3,-0.6 -1,0 -1.7,0.1 -2.2,0.4 -0.5,0.2 -0.8,0.6 -0.8,1.2 0,0.5 0.3,0.9 0.8,1.2 0.5,0.3 1.2,0.6 2.2,0.9 1.6,0.4 2.9,0.8 4,1.1 1.1,0.3 2,0.7 2.6,1.1 0.7,0.4 1.1,0.9 1.4,1.6 0.3,0.6 0.4,1.5 0.4,2.5 0,1.6 -0.7,3 -2,4.1 -1.4,1.1 -3.4,1.6 -6.1,1.6 -1.3,0 -2.5,-0.1 -3.6,-0.4 -1.1,-0.3 -2,-0.7 -2.7,-1.3 -0.8,-0.6 -1.3,-1.2 -1.7,-2 -0.4,-0.8 -0.6,-1.7 -0.7,-2.6 h 5 c 0,0.9 0.3,1.5 1,2 0.7,0.5 1.6,0.7 2.7,0.7 0.9,0 1.7,-0.1 2.4,-0.4 0.7,-0.3 1,-0.7 1,-1.3 0,-0.7 -0.2,-1.2 -0.7,-1.4 -0.5,-0.3 -1.2,-0.6 -2.2,-0.8 -1.8,-0.4 -3.2,-0.8 -4.3,-1.2 -1.1,-0.4 -1.9,-0.9 -2.5,-1.4 -0.6,-0.5 -1,-1.1 -1.2,-1.7 -0.2,-0.6 -0.3,-1.3 -0.3,-2.1 0,-0.7 0.1,-1.4 0.4,-2 0.3,-0.6 0.7,-1.2 1.4,-1.6 0.6,-0.5 1.4,-0.8 2.4,-1.1 1,-0.3 2.2,-0.4 3.6,-0.4 2.6,0 4.5,0.5 5.8,1.6 1.2,1.1 1.9,2.5 2,4.4 h -4.9 z"
             id="path499" />
          <path
             inkscape:connector-curvature="0"
             d="m 696.7,71.7 c 0.1,1.4 0.5,2.5 1.2,3.3 0.7,0.8 1.7,1.2 2.9,1.2 0.8,0 1.5,-0.2 2.1,-0.5 0.6,-0.4 1,-0.9 1.2,-1.5 h 5 c -0.6,1.9 -1.6,3.3 -3,4.4 -1.4,1 -3.1,1.5 -5.1,1.5 -6.1,0 -9.1,-3.3 -9.1,-10 0,-1.4 0.2,-2.7 0.6,-3.8 0.4,-1.1 1,-2.1 1.7,-2.9 0.8,-0.8 1.7,-1.4 2.8,-1.9 1.1,-0.4 2.3,-0.7 3.8,-0.7 2.8,0 5,0.9 6.4,2.7 1.5,1.8 2.2,4.5 2.2,8.2 h -12.7 z m 7.7,-3.1 c 0,-0.7 -0.1,-1.3 -0.4,-1.8 -0.2,-0.5 -0.5,-0.9 -0.8,-1.3 -0.3,-0.3 -0.7,-0.6 -1.2,-0.7 -0.4,-0.2 -0.9,-0.2 -1.4,-0.2 -1,0 -1.8,0.4 -2.5,1.1 -0.7,0.7 -1.1,1.7 -1.2,3 h 7.5 z m -6.3,-9.6 -1.2,-2 7.7,-4.5 1.7,3 -8.2,3.5 z"
             id="path501" />
          <path
             inkscape:connector-curvature="0"
             d="m 719,71.7 c 0.1,1.4 0.5,2.5 1.2,3.3 0.7,0.8 1.7,1.2 2.9,1.2 0.8,0 1.5,-0.2 2.1,-0.5 0.6,-0.4 1,-0.9 1.2,-1.5 h 5 c -0.6,1.9 -1.6,3.3 -3,4.4 -1.4,1 -3.1,1.5 -5.1,1.5 -6.1,0 -9.1,-3.3 -9.1,-10 0,-1.4 0.2,-2.7 0.6,-3.8 0.4,-1.1 1,-2.1 1.7,-2.9 0.8,-0.8 1.7,-1.4 2.8,-1.9 1.1,-0.4 2.3,-0.7 3.8,-0.7 2.8,0 5,0.9 6.4,2.7 1.5,1.8 2.2,4.5 2.2,8.2 H 719 z m 7.6,-3.1 c 0,-0.7 -0.1,-1.3 -0.4,-1.8 -0.2,-0.5 -0.5,-0.9 -0.8,-1.3 -0.3,-0.3 -0.7,-0.6 -1.2,-0.7 -0.4,-0.2 -0.9,-0.2 -1.4,-0.2 -1,0 -1.8,0.4 -2.5,1.1 -0.7,0.7 -1.1,1.7 -1.2,3 h 7.5 z"
             id="path503" />
          <path
             inkscape:connector-curvature="0"
             d="m 657.4,102 0,-1.4 c -0.7,1.1 -1.8,1.7 -3.2,1.7 -0.7,0 -1.4,-0.1 -2,-0.4 -0.6,-0.3 -1.1,-0.7 -1.6,-1.2 -0.4,-0.5 -0.8,-1.2 -1,-1.9 -0.2,-0.8 -0.4,-1.6 -0.4,-2.6 0,-0.9 0.1,-1.7 0.3,-2.4 0.2,-0.7 0.5,-1.3 0.9,-1.9 0.4,-0.5 0.9,-0.9 1.5,-1.2 0.6,-0.3 1.2,-0.4 2,-0.4 1.4,0 2.5,0.6 3.4,1.8 v -5.7 h 3 V 102 h -2.9 z m -2.5,-2.2 c 0.7,0 1.3,-0.3 1.8,-0.9 0.5,-0.6 0.7,-1.4 0.7,-2.4 0,-2.5 -0.8,-3.7 -2.5,-3.7 -1.7,0 -2.6,1.2 -2.6,3.5 0,1 0.2,1.9 0.7,2.5 0.5,0.7 1.1,1 1.9,1 z"
             id="path505" />
          <path
             inkscape:connector-curvature="0"
             d="m 666.6,97.1 c 0,0.9 0.3,1.6 0.8,2.1 0.5,0.5 1.1,0.8 1.8,0.8 0.5,0 0.9,-0.1 1.3,-0.3 0.4,-0.2 0.6,-0.5 0.7,-0.9 h 3.1 c -0.4,1.2 -1,2.1 -1.9,2.7 -0.9,0.6 -1.9,1 -3.2,1 -3.8,0 -5.7,-2.1 -5.7,-6.2 0,-0.9 0.1,-1.7 0.4,-2.4 0.2,-0.7 0.6,-1.3 1.1,-1.8 0.5,-0.5 1,-0.9 1.7,-1.2 0.7,-0.3 1.5,-0.4 2.3,-0.4 1.8,0 3.1,0.6 4,1.7 0.9,1.1 1.4,2.8 1.4,5.1 h -7.8 z m 4.8,-1.9 c 0,-0.4 -0.1,-0.8 -0.2,-1.1 -0.1,-0.3 -0.3,-0.6 -0.5,-0.8 -0.2,-0.2 -0.5,-0.4 -0.7,-0.5 -0.2,-0.1 -0.6,-0.2 -0.9,-0.2 -0.6,0 -1.1,0.2 -1.6,0.7 -0.4,0.4 -0.7,1.1 -0.8,1.8 h 4.7 z"
             id="path507" />
          <path
             inkscape:connector-curvature="0"
             d="m 684.6,94 c -0.1,-0.5 -0.3,-0.9 -0.6,-1.1 -0.3,-0.2 -0.8,-0.4 -1.5,-0.4 -0.6,0 -1.1,0.1 -1.4,0.2 -0.3,0.1 -0.5,0.4 -0.5,0.8 0,0.3 0.2,0.6 0.5,0.7 0.3,0.2 0.8,0.4 1.4,0.5 1,0.3 1.8,0.5 2.5,0.7 0.7,0.2 1.2,0.4 1.6,0.7 0.4,0.3 0.7,0.6 0.9,1 0.2,0.4 0.3,0.9 0.3,1.6 0,1 -0.4,1.9 -1.3,2.5 -0.9,0.7 -2.1,1 -3.8,1 -0.8,0 -1.6,-0.1 -2.2,-0.3 -0.7,-0.2 -1.2,-0.5 -1.7,-0.8 -0.5,-0.3 -0.8,-0.8 -1.1,-1.3 -0.3,-0.5 -0.4,-1 -0.4,-1.6 h 3.1 c 0,0.5 0.2,1 0.6,1.3 0.4,0.3 1,0.4 1.7,0.4 0.6,0 1.1,-0.1 1.5,-0.3 0.4,-0.2 0.6,-0.5 0.6,-0.8 0,-0.4 -0.2,-0.7 -0.5,-0.9 -0.3,-0.2 -0.8,-0.3 -1.4,-0.5 -1.1,-0.2 -2,-0.5 -2.7,-0.8 -0.7,-0.3 -1.2,-0.6 -1.6,-0.9 -0.4,-0.3 -0.6,-0.7 -0.8,-1.1 -0.1,-0.4 -0.2,-0.8 -0.2,-1.3 0,-0.4 0.1,-0.8 0.3,-1.2 0.2,-0.4 0.5,-0.7 0.8,-1 0.4,-0.3 0.9,-0.5 1.5,-0.7 0.6,-0.2 1.4,-0.3 2.3,-0.3 1.6,0 2.8,0.3 3.6,1 0.8,0.7 1.2,1.6 1.3,2.8 h -2.8 z"
             id="path509" />
          <path
             inkscape:connector-curvature="0"
             d="m 312.4,125.9 c 0.1,1.4 0.5,2.5 1.2,3.3 0.7,0.8 1.7,1.2 2.9,1.2 0.8,0 1.5,-0.2 2.1,-0.5 0.6,-0.4 1,-0.9 1.2,-1.5 h 5 c -0.6,1.9 -1.6,3.3 -3,4.4 -1.4,1 -3.1,1.5 -5.1,1.5 -6.1,0 -9.1,-3.3 -9.1,-10 0,-1.4 0.2,-2.7 0.6,-3.8 0.4,-1.1 1,-2.1 1.7,-2.9 0.8,-0.8 1.7,-1.4 2.8,-1.9 1.1,-0.4 2.3,-0.7 3.8,-0.7 2.8,0 5,0.9 6.4,2.7 1.5,1.8 2.2,4.5 2.2,8.2 h -12.7 z m 7.6,-3 c 0,-0.7 -0.1,-1.3 -0.4,-1.8 -0.2,-0.5 -0.5,-0.9 -0.8,-1.3 -0.3,-0.3 -0.7,-0.6 -1.2,-0.7 -0.5,-0.1 -0.9,-0.2 -1.4,-0.2 -1,0 -1.8,0.4 -2.5,1.1 -0.7,0.7 -1.1,1.7 -1.2,3 h 7.5 z m -6.2,-9.7 -1.2,-2 7.7,-4.5 1.7,3 -8.2,3.5 z"
             id="path511" />
          <path
             inkscape:connector-curvature="0"
             d="m 341.9,133.8 v -11.1 c 0,-1.4 -0.2,-2.4 -0.7,-2.9 -0.5,-0.5 -1.3,-0.7 -2.4,-0.7 -2.5,0 -3.8,1.4 -3.8,4.2 v 10.5 h -4.8 v -18.3 h 4.6 v 2.7 c 0.6,-1 1.3,-1.8 2.3,-2.4 0.9,-0.5 2.2,-0.8 3.6,-0.8 0.9,0 1.7,0.1 2.4,0.4 0.7,0.3 1.4,0.7 1.9,1.2 0.5,0.5 1,1.2 1.3,1.9 0.3,0.8 0.5,1.6 0.5,2.6 v 12.7 h -4.9 z"
             id="path513" />
          <path
             inkscape:connector-curvature="0"
             d="m 356.9,125.9 c 0.1,1.4 0.5,2.5 1.2,3.3 0.7,0.8 1.7,1.2 2.9,1.2 0.8,0 1.5,-0.2 2.1,-0.5 0.6,-0.4 1,-0.9 1.2,-1.5 h 5 c -0.6,1.9 -1.6,3.3 -3,4.4 -1.4,1 -3.1,1.5 -5.1,1.5 -6.1,0 -9.1,-3.3 -9.1,-10 0,-1.4 0.2,-2.7 0.6,-3.8 0.4,-1.1 1,-2.1 1.7,-2.9 0.8,-0.8 1.7,-1.4 2.8,-1.9 1.1,-0.4 2.3,-0.7 3.8,-0.7 2.8,0 5,0.9 6.4,2.7 1.4,1.8 2.2,4.5 2.2,8.2 h -12.7 z m 7.6,-3 c 0,-0.7 -0.1,-1.3 -0.4,-1.8 -0.2,-0.5 -0.5,-0.9 -0.8,-1.3 -0.3,-0.3 -0.7,-0.6 -1.2,-0.7 -0.4,-0.2 -0.9,-0.2 -1.4,-0.2 -1,0 -1.8,0.4 -2.5,1.1 -0.7,0.7 -1.1,1.7 -1.2,3 h 7.5 z"
             id="path515" />
          <path
             inkscape:connector-curvature="0"
             d="m 374.7,133.8 v -18.3 h 4.5 v 2.2 c 0.4,-0.6 0.8,-1.1 1.2,-1.5 0.4,-0.3 0.9,-0.6 1.3,-0.8 0.5,-0.2 0.9,-0.3 1.4,-0.4 0.5,0 1,-0.1 1.5,-0.1 h 0.6 v 4.9 c -0.4,-0.1 -0.9,-0.1 -1.3,-0.1 -3,0 -4.4,1.5 -4.4,4.4 v 9.5 h -4.8 z"
             id="path517" />
          <path
             inkscape:connector-curvature="0"
             d="m 402.4,131.4 c -0.3,0.8 -1,1.5 -1.9,1.9 -0.9,0.5 -2,0.7 -3.1,0.7 -1.5,0 -2.8,-0.3 -3.8,-0.8 -1,-0.5 -1.9,-1.2 -2.5,-2.1 -0.6,-0.9 -1.1,-1.9 -1.4,-3 -0.3,-1.1 -0.4,-2.3 -0.4,-3.5 0,-1.4 0.2,-2.7 0.6,-3.9 0.4,-1.2 1,-2.2 1.7,-3 0.7,-0.8 1.6,-1.5 2.5,-1.9 1,-0.5 2,-0.7 3.1,-0.7 2.3,0 4,0.9 5.1,2.8 v -2.3 h 4.8 V 134 c 0,1.4 -0.2,2.6 -0.7,3.7 -0.5,1.1 -1.1,1.9 -1.9,2.6 -0.8,0.7 -1.8,1.2 -2.9,1.6 -1.1,0.4 -2.3,0.6 -3.6,0.6 -1.3,0 -2.4,-0.2 -3.5,-0.5 -1.1,-0.4 -2,-0.9 -2.8,-1.5 -0.8,-0.7 -1.4,-1.5 -1.8,-2.4 -0.4,-0.9 -0.7,-2 -0.7,-3.2 h 4.5 c 0,1.1 0.4,2 1.1,2.6 0.7,0.6 1.7,0.9 2.9,0.9 1.3,0 2.4,-0.4 3.3,-1.1 0.9,-0.7 1.3,-1.7 1.3,-2.9 v -3 z m -4,-1.2 c 1.2,0 2.2,-0.5 3,-1.4 0.8,-0.9 1.2,-2.1 1.2,-3.7 0,-3.9 -1.4,-5.9 -4.1,-5.9 -2.8,0 -4.1,1.9 -4.1,5.6 0,1.6 0.4,2.9 1.2,3.9 0.6,1 1.6,1.5 2.8,1.5 z"
             id="path519" />
          <path
             inkscape:connector-curvature="0"
             d="m 413,113.3 v -4.5 h 4.8 v 4.5 H 413 z m 0,20.5 v -18.3 h 4.8 v 18.3 H 413 z"
             id="path521" />
          <path
             inkscape:connector-curvature="0"
             d="m 428,125.9 c 0.1,1.4 0.5,2.5 1.2,3.3 0.7,0.8 1.7,1.2 2.9,1.2 0.8,0 1.5,-0.2 2.1,-0.5 0.6,-0.4 1,-0.9 1.2,-1.5 h 5 c -0.6,1.9 -1.6,3.3 -3,4.4 -1.4,1 -3.1,1.5 -5.1,1.5 -6.1,0 -9.1,-3.3 -9.1,-10 0,-1.4 0.2,-2.7 0.6,-3.8 0.4,-1.1 1,-2.1 1.7,-2.9 0.8,-0.8 1.7,-1.4 2.8,-1.9 1.1,-0.4 2.3,-0.7 3.8,-0.7 2.8,0 5,0.9 6.4,2.7 1.4,1.8 2.2,4.5 2.2,8.2 H 428 z m 7.6,-3 c 0,-0.7 -0.1,-1.3 -0.4,-1.8 -0.2,-0.5 -0.5,-0.9 -0.8,-1.3 -0.3,-0.3 -0.7,-0.6 -1.2,-0.7 -0.5,-0.1 -0.9,-0.2 -1.4,-0.2 -1,0 -1.8,0.4 -2.5,1.1 -0.7,0.7 -1.1,1.7 -1.2,3 h 7.5 z"
             id="path523" />
          <path
             inkscape:connector-curvature="0"
             d="m 456.8,121.1 c -0.1,-0.8 -0.4,-1.5 -0.9,-1.8 -0.5,-0.4 -1.3,-0.6 -2.3,-0.6 -1,0 -1.7,0.1 -2.2,0.4 -0.5,0.2 -0.8,0.6 -0.8,1.2 0,0.5 0.3,0.9 0.8,1.2 0.5,0.3 1.2,0.6 2.2,0.9 1.6,0.4 2.9,0.8 4,1.1 1.1,0.3 2,0.7 2.6,1.1 0.7,0.4 1.1,0.9 1.4,1.6 0.3,0.6 0.4,1.5 0.4,2.5 0,1.6 -0.7,3 -2,4.1 -1.4,1.1 -3.4,1.6 -6.1,1.6 -1.3,0 -2.5,-0.1 -3.6,-0.4 -1.1,-0.3 -2,-0.7 -2.7,-1.3 -0.8,-0.6 -1.3,-1.2 -1.7,-2 -0.4,-0.8 -0.6,-1.7 -0.7,-2.6 h 5 c 0,0.9 0.3,1.5 1,2 0.7,0.5 1.6,0.7 2.7,0.7 0.9,0 1.7,-0.1 2.4,-0.4 0.7,-0.3 1,-0.7 1,-1.3 0,-0.7 -0.2,-1.2 -0.7,-1.4 -0.5,-0.3 -1.2,-0.6 -2.2,-0.8 -1.8,-0.4 -3.2,-0.8 -4.3,-1.2 -1.1,-0.4 -1.9,-0.9 -2.5,-1.4 -0.6,-0.5 -1,-1.1 -1.2,-1.7 -0.2,-0.6 -0.3,-1.3 -0.3,-2.1 0,-0.7 0.1,-1.4 0.4,-2 0.3,-0.6 0.7,-1.2 1.4,-1.6 0.6,-0.5 1.4,-0.8 2.4,-1.1 1,-0.3 2.2,-0.4 3.6,-0.4 2.6,0 4.5,0.5 5.8,1.6 1.2,1.1 1.9,2.5 2,4.4 h -4.9 z"
             id="path525" />
          <path
             inkscape:connector-curvature="0"
             d="m 479.8,133.8 v -18.3 h 4.5 v 2.2 c 0.4,-0.6 0.8,-1.1 1.2,-1.5 0.4,-0.3 0.9,-0.6 1.3,-0.8 0.5,-0.2 0.9,-0.3 1.4,-0.4 0.5,0 1,-0.1 1.5,-0.1 h 0.6 v 4.9 c -0.4,-0.1 -0.9,-0.1 -1.3,-0.1 -3,0 -4.4,1.5 -4.4,4.4 v 9.5 h -4.8 z"
             id="path527" />
          <path
             inkscape:connector-curvature="0"
             d="m 498.7,125.9 c 0.1,1.4 0.5,2.5 1.2,3.3 0.7,0.8 1.7,1.2 2.9,1.2 0.8,0 1.5,-0.2 2.1,-0.5 0.6,-0.4 1,-0.9 1.2,-1.5 h 5 c -0.6,1.9 -1.6,3.3 -3,4.4 -1.4,1 -3.1,1.5 -5.1,1.5 -6.1,0 -9.1,-3.3 -9.1,-10 0,-1.4 0.2,-2.7 0.6,-3.8 0.4,-1.1 1,-2.1 1.7,-2.9 0.8,-0.8 1.7,-1.4 2.8,-1.9 1.1,-0.4 2.3,-0.7 3.8,-0.7 2.8,0 5,0.9 6.4,2.7 1.4,1.8 2.2,4.5 2.2,8.2 h -12.7 z m 7.6,-3 c 0,-0.7 -0.1,-1.3 -0.4,-1.8 -0.2,-0.5 -0.5,-0.9 -0.8,-1.3 -0.3,-0.3 -0.7,-0.6 -1.2,-0.7 -0.4,-0.2 -0.9,-0.2 -1.4,-0.2 -1,0 -1.8,0.4 -2.5,1.1 -0.7,0.7 -1.1,1.7 -1.2,3 h 7.5 z"
             id="path529" />
          <path
             inkscape:connector-curvature="0"
             d="m 528.2,133.8 v -11.1 c 0,-1.4 -0.2,-2.4 -0.7,-2.9 -0.5,-0.5 -1.3,-0.7 -2.4,-0.7 -2.5,0 -3.8,1.4 -3.8,4.2 v 10.5 h -4.8 v -18.3 h 4.6 v 2.7 c 0.6,-1 1.3,-1.8 2.3,-2.4 0.9,-0.5 2.2,-0.8 3.6,-0.8 0.9,0 1.7,0.1 2.4,0.4 0.7,0.3 1.4,0.7 1.9,1.2 0.5,0.5 1,1.2 1.3,1.9 0.3,0.8 0.5,1.6 0.5,2.6 v 12.7 h -4.9 z"
             id="path531" />
          <path
             inkscape:connector-curvature="0"
             d="m 547.7,134.3 c -1.5,0 -2.8,-0.2 -4,-0.7 -1.2,-0.5 -2.2,-1.1 -3,-2 -0.8,-0.8 -1.4,-1.9 -1.8,-3 -0.4,-1.2 -0.6,-2.5 -0.6,-3.9 0,-1.4 0.2,-2.8 0.7,-3.9 0.4,-1.2 1.1,-2.2 1.9,-3 0.8,-0.8 1.8,-1.5 3,-2 1.2,-0.5 2.5,-0.7 3.9,-0.7 1.4,0 2.7,0.2 3.9,0.7 1.1,0.5 2.1,1.1 2.9,1.9 0.8,0.8 1.4,1.8 1.9,3 0.4,1.2 0.7,2.5 0.7,4 0,1.5 -0.2,2.8 -0.7,4 -0.4,1.2 -1.1,2.2 -1.9,3 -0.8,0.8 -1.8,1.5 -2.9,2 -1.3,0.4 -2.6,0.6 -4,0.6 z m 0,-4.1 c 2.9,0 4.4,-1.9 4.4,-5.6 0,-3.7 -1.5,-5.5 -4.4,-5.5 -3,0 -4.4,1.8 -4.4,5.5 0,3.8 1.5,5.6 4.4,5.6 z"
             id="path533" />
          <path
             inkscape:connector-curvature="0"
             d="m 574.2,133.8 v -2.6 c -1.2,2 -3.1,3 -5.7,3 -0.9,0 -1.8,-0.2 -2.5,-0.5 -0.7,-0.3 -1.4,-0.8 -2,-1.4 -0.5,-0.6 -1,-1.3 -1.3,-2.1 -0.3,-0.8 -0.5,-1.7 -0.5,-2.8 v -12 h 4.8 v 11.3 c 0,2.3 1,3.4 3.1,3.4 1.2,0 2.2,-0.4 2.8,-1.2 0.6,-0.8 0.9,-1.8 0.9,-3 v -10.6 h 4.8 v 18.3 h -4.4 z"
             id="path535" />
          <path
             inkscape:connector-curvature="0"
             d="m 590.1,133.8 -6.5,-18.3 h 5.4 l 3.8,12.1 3.9,-12.1 h 5.1 l -6.6,18.3 h -5.1 z"
             id="path537" />
          <path
             inkscape:connector-curvature="0"
             d="m 609.8,125.9 c 0.1,1.4 0.5,2.5 1.2,3.3 0.7,0.8 1.7,1.2 2.9,1.2 0.8,0 1.5,-0.2 2.1,-0.5 0.6,-0.4 1,-0.9 1.2,-1.5 h 5 c -0.6,1.9 -1.6,3.3 -3,4.4 -1.4,1 -3.1,1.5 -5.1,1.5 -6.1,0 -9.1,-3.3 -9.1,-10 0,-1.4 0.2,-2.7 0.6,-3.8 0.4,-1.1 1,-2.1 1.7,-2.9 0.8,-0.8 1.7,-1.4 2.8,-1.9 1.1,-0.4 2.3,-0.7 3.8,-0.7 2.8,0 5,0.9 6.4,2.7 1.4,1.8 2.2,4.5 2.2,8.2 h -12.7 z m 7.7,-3 c 0,-0.7 -0.1,-1.3 -0.4,-1.8 -0.2,-0.5 -0.5,-0.9 -0.8,-1.3 -0.3,-0.3 -0.7,-0.6 -1.2,-0.7 -0.4,-0.2 -0.9,-0.2 -1.4,-0.2 -1,0 -1.8,0.4 -2.5,1.1 -0.7,0.7 -1.1,1.7 -1.2,3 h 7.5 z"
             id="path539" />
          <path
             inkscape:connector-curvature="0"
             d="m 627.6,133.8 v -25 h 4.8 v 25 h -4.8 z"
             id="path541" />
          <path
             inkscape:connector-curvature="0"
             d="m 649.5,133.8 c -0.1,-0.5 -0.2,-1 -0.3,-1.6 -0.6,0.6 -1.3,1.2 -2.3,1.5 -0.9,0.4 -2,0.6 -3.3,0.6 -2.1,0 -3.7,-0.5 -4.6,-1.4 -1,-0.9 -1.5,-2.1 -1.5,-3.6 0,-1.3 0.2,-2.4 0.6,-3.1 0.4,-0.8 1,-1.4 1.7,-1.8 0.7,-0.4 1.6,-0.8 2.7,-1 1,-0.2 2.2,-0.4 3.4,-0.6 1.2,-0.2 2,-0.4 2.5,-0.7 0.4,-0.3 0.6,-0.7 0.6,-1.4 0,-0.6 -0.3,-1.1 -0.8,-1.4 -0.6,-0.3 -1.3,-0.5 -2.3,-0.5 -1.1,0 -1.9,0.2 -2.4,0.7 -0.5,0.5 -0.8,1.2 -0.9,2 h -4.5 c 0,-0.9 0.2,-1.8 0.5,-2.6 0.3,-0.8 0.7,-1.5 1.4,-2 0.6,-0.6 1.5,-1 2.5,-1.3 1,-0.3 2.3,-0.5 3.7,-0.5 1.4,0 2.7,0.2 3.7,0.5 1,0.3 1.8,0.8 2.4,1.4 0.6,0.6 1,1.4 1.3,2.3 0.3,0.9 0.4,1.9 0.4,3.1 V 134 h -4.5 z m -0.3,-8.9 c -0.2,0.2 -0.6,0.4 -1.1,0.6 -0.5,0.1 -1.2,0.3 -2,0.5 -1.4,0.3 -2.3,0.6 -2.9,1 -0.5,0.4 -0.8,1 -0.8,1.8 0,1.4 0.8,2 2.3,2 0.6,0 1.2,-0.1 1.7,-0.3 0.5,-0.2 1,-0.5 1.4,-0.9 0.4,-0.4 0.7,-0.8 0.9,-1.3 0.2,-0.5 0.4,-1 0.4,-1.5 l 0.1,-1.9 z"
             id="path543" />
          <path
             inkscape:connector-curvature="0"
             d="m 659.7,133.8 v -25 h 4.8 v 9.1 c 1.4,-1.9 3.2,-2.9 5.4,-2.9 1.2,0 2.2,0.2 3.2,0.7 0.9,0.5 1.7,1.1 2.4,2 0.6,0.8 1.1,1.8 1.5,3 0.3,1.2 0.5,2.4 0.5,3.8 0,1.5 -0.2,2.9 -0.6,4.1 -0.4,1.2 -0.9,2.2 -1.6,3.1 -0.7,0.8 -1.5,1.5 -2.5,1.9 -1,0.4 -2,0.7 -3.2,0.7 -2.3,0 -4,-0.9 -5.1,-2.7 l 0,2.2 h -4.8 z m 8.7,-3.4 c 1.2,0 2.2,-0.5 3,-1.5 0.8,-1 1.2,-2.4 1.2,-4 0,-3.8 -1.4,-5.7 -4.2,-5.7 -2.7,0 -4.1,2 -4.1,5.9 0,1.6 0.4,2.8 1.2,3.8 0.7,1 1.7,1.5 2.9,1.5 z"
             id="path545" />
          <path
             inkscape:connector-curvature="0"
             d="m 682.7,133.8 v -25 h 4.8 v 25 h -4.8 z"
             id="path547" />
          <path
             inkscape:connector-curvature="0"
             d="m 697.6,125.9 c 0.1,1.4 0.5,2.5 1.2,3.3 0.7,0.8 1.7,1.2 2.9,1.2 0.8,0 1.5,-0.2 2.1,-0.5 0.6,-0.4 1,-0.9 1.2,-1.5 h 5 c -0.6,1.9 -1.6,3.3 -3,4.4 -1.4,1 -3.1,1.5 -5.1,1.5 -6.1,0 -9.1,-3.3 -9.1,-10 0,-1.4 0.2,-2.7 0.6,-3.8 0.4,-1.1 1,-2.1 1.7,-2.9 0.8,-0.8 1.7,-1.4 2.8,-1.9 1.1,-0.4 2.3,-0.7 3.8,-0.7 2.8,0 5,0.9 6.4,2.7 1.4,1.8 2.2,4.5 2.2,8.2 h -12.7 z m 7.6,-3 c 0,-0.7 -0.1,-1.3 -0.4,-1.8 -0.2,-0.5 -0.5,-0.9 -0.8,-1.3 -0.3,-0.3 -0.7,-0.6 -1.2,-0.7 -0.5,-0.1 -0.9,-0.2 -1.4,-0.2 -1,0 -1.8,0.4 -2.5,1.1 -0.7,0.7 -1.1,1.7 -1.2,3 h 7.5 z"
             id="path549" />
          <path
             inkscape:connector-curvature="0"
             d="m 726.4,121.1 c -0.1,-0.8 -0.4,-1.5 -0.9,-1.8 -0.5,-0.4 -1.3,-0.6 -2.3,-0.6 -1,0 -1.7,0.1 -2.2,0.4 -0.5,0.2 -0.8,0.6 -0.8,1.2 0,0.5 0.3,0.9 0.8,1.2 0.5,0.3 1.2,0.6 2.2,0.9 1.6,0.4 2.9,0.8 4,1.1 1.1,0.3 2,0.7 2.6,1.1 0.7,0.4 1.1,0.9 1.4,1.6 0.3,0.6 0.4,1.5 0.4,2.5 0,1.6 -0.7,3 -2,4.1 -1.4,1.1 -3.4,1.6 -6.1,1.6 -1.3,0 -2.5,-0.1 -3.6,-0.4 -1.1,-0.3 -2,-0.7 -2.7,-1.3 -0.8,-0.6 -1.3,-1.2 -1.7,-2 -0.4,-0.8 -0.6,-1.7 -0.7,-2.6 h 5 c 0,0.9 0.3,1.5 1,2 0.7,0.5 1.6,0.7 2.7,0.7 0.9,0 1.7,-0.1 2.4,-0.4 0.7,-0.3 1,-0.7 1,-1.3 0,-0.7 -0.2,-1.2 -0.7,-1.4 -0.5,-0.3 -1.2,-0.6 -2.2,-0.8 -1.8,-0.4 -3.2,-0.8 -4.3,-1.2 -1.1,-0.4 -1.9,-0.9 -2.5,-1.4 -0.6,-0.5 -1,-1.1 -1.2,-1.7 -0.2,-0.6 -0.3,-1.3 -0.3,-2.1 0,-0.7 0.1,-1.4 0.4,-2 0.3,-0.6 0.7,-1.2 1.4,-1.6 0.6,-0.5 1.4,-0.8 2.4,-1.1 1,-0.3 2.2,-0.4 3.6,-0.4 2.6,0 4.5,0.5 5.8,1.6 1.2,1.1 1.9,2.5 2,4.4 h -4.9 z"
             id="path551" />
        </g>
      </g>
    </g>
  </g>
</svg>
