<?xml version="1.0" encoding="UTF-8" standalone="no"?>
<!-- Generator: Adobe Illustrator 18.1.1, SVG Export Plug-In . SVG Version: 6.00 Build 0)  -->

<svg
   xmlns:dc="http://purl.org/dc/elements/1.1/"
   xmlns:cc="http://creativecommons.org/ns#"
   xmlns:rdf="http://www.w3.org/1999/02/22-rdf-syntax-ns#"
   xmlns:svg="http://www.w3.org/2000/svg"
   xmlns="http://www.w3.org/2000/svg"
   xmlns:sodipodi="http://sodipodi.sourceforge.net/DTD/sodipodi-0.dtd"
   xmlns:inkscape="http://www.inkscape.org/namespaces/inkscape"
   version="1.1"
   id="Marqueur"
   x="0px"
   y="0px"
   viewBox="0 0 20 20"
   enable-background="new 0 0 40 36"
   xml:space="preserve"
   inkscape:version="0.48.3.1 r9886"
   width="100%"
   height="100%"
   sodipodi:docname="marker.svg"><metadata
   id="metadata9"><rdf:RDF><cc:Work
       rdf:about=""><dc:format>image/svg+xml</dc:format><dc:type
         rdf:resource="http://purl.org/dc/dcmitype/StillImage" /><dc:title></dc:title></cc:Work></rdf:RDF></metadata><defs
   id="defs7" /><sodipodi:namedview
   pagecolor="#ffffff"
   bordercolor="#666666"
   borderopacity="1"
   objecttolerance="10"
   gridtolerance="10"
   guidetolerance="10"
   inkscape:pageopacity="0"
   inkscape:pageshadow="2"
   inkscape:window-width="640"
   inkscape:window-height="480"
   id="namedview5"
   showgrid="false"
   inkscape:zoom="6.5555556"
   inkscape:cx="20"
   inkscape:cy="18"
   inkscape:window-x="0"
   inkscape:window-y="24"
   inkscape:window-maximized="0"
   inkscape:current-layer="Marqueur" />
<path
   d="m 2.3644067,11.70678 c 0.1,-0.6 0.3,-1.1 0.6,-1.7 0.3,-0.5999999 0.5,-1.1999999 0.9,-1.6999999 0.4,-0.5 0.7,-1.2 1.1,-1.7 0.4,-0.6 0.9,-1.1 1.3,-1.6 0.5,-0.5 1,-1 1.4,-1.5 0.4,-0.5 1,-0.9 1.5,-1.3 0.2,-0.2 0.4999998,-0.3 0.6999998,-0.3 0.2000005,-0.1 0.4000005,-0.1 0.6000005,-0.1 0.2,0 0.4,0 0.600001,0.1 0.2,0.1 0.4,0.2 0.6,0.4 0.1,0 0.2,0.1 0.2,0.1 0.1,0.1 0.1,0.1 0.2,0.1 0,0 0,0 0.1,0 0,0 0,-0.1 0.1,-0.1 0,0 0.1,-0.1 0.1,-0.1 0,0 0.1,-0.1 0.1,-0.1 0.1,-0.1 0.3,-0.1 0.4,-0.1 0.2,0 0.3,0 0.5,0 0.3,0 0.7,0.1 1,0.2 0.3,0.1 0.6,0.3 0.8,0.5 0.6,0.5 1,1.1 1.3,1.9 0.3,0.7 0.4,1.5 0.4,2.4 0,0.8 -0.1,1.6 -0.3,2.4 -0.2,0.7999999 -0.5,1.4999999 -0.8,2.1999999 -0.4,0.7 -0.8,1.4 -1.3,2 -0.5,0.6 -1,1.2 -1.6,1.7 -0.6,0.5 -1.2,1 -1.9,1.3 -0.700001,0.4 -1.4000015,0.7 -2.1000013,0.9 -0.7,0.2 -1.5,0.3 -2.2,0.3 -0.7,0 -1.3,-0.1 -1.9,-0.3 -0.6,-0.2 -1,-0.5 -1.4,-0.9 -0.4,-0.4 -0.7,-0.9 -0.9,-1.4 -0.2,-0.5 -0.3,-1.1 -0.3,-1.8 0,-0.3 0,-0.6 0,-0.8 0.1,-0.4 0.2,-0.7 0.2,-1 z m 1.9,0.8 c -0.1,0.4 -0.1,0.7 -0.1,1 0,0.4 0.1,0.8 0.2,1.1 0.1,0.3 0.3,0.6 0.6,0.8 0.3,0.2 0.6,0.4 0.9,0.5 0.4,0.1 0.8,0.2 1.2,0.2 0.5,0 1,-0.1 1.6,-0.2 0.5,-0.2 1.0999998,-0.4 1.6000003,-0.7 0.5,-0.3 1.000001,-0.7 1.500001,-1.1 0.5,-0.4 0.9,-0.9 1.3,-1.5 0.4,-0.6 0.8,-1.2 1.1,-1.8 0.3,-0.6 0.6,-1.2999999 0.8,-2.0999999 0.1,-0.3 0.1,-0.5 0.2,-0.8 0,-0.3 0,-0.6 0,-0.8 0,-0.4 0,-0.8 -0.1,-1.2 -0.1,-0.4 -0.3,-0.7 -0.5,-1 -0.2,-0.3 -0.5,-0.5 -0.9,-0.7 -0.4,-0.2 -0.8,-0.3 -1.3,-0.3 -0.1,0 -0.1,0 -0.2,0.1 0,0.1 -0.1,0.1 -0.1,0.2 0,0.1 -0.1,0.2 -0.1,0.3 0,0.1 -0.1,0.2 -0.2,0.2 -0.1,0.1 -0.2,0.1 -0.3,0.2 -0.1,0 -0.3,0.1 -0.4,0.1 -0.1,0 -0.200001,0 -0.300001,-0.1 -0.1,-0.1 -0.2,-0.1 -0.3,-0.2 0,0 -0.1,-0.1 -0.1,-0.1 0,0 -0.1,0 -0.1,0 -0.1,0 -0.2,0 -0.3000005,0.1 -0.1,0.1 -0.2,0.1 -0.3,0.2 -0.1,0.1 -0.2,0.2 -0.2999998,0.3 -0.1,0.1 -0.2,0.2 -0.2,0.2 -0.5,0.5 -1,1.1 -1.5,1.7 -0.5,0.6 -1,1.2 -1.4,1.9 -0.4,0.6 -0.8,1.2999999 -1.1,1.9999999 -0.5,0.2 -0.8,0.9 -0.9,1.5 z"
   id="path3"
   inkscape:connector-curvature="0"
   style="fill:#d40000" />
</svg>