<svg version="1.1" xmlns="http://www.w3.org/2000/svg" xmlns:xlink="http://www.w3.org/1999/xlink" x="0px" y="0px" width="1440px"
	 height="820px" viewBox="0 0 1440 1000" enable-background="new 0 0 1440 820" xml:space="preserve" >
<g id="Calque_2">
	<rect x="-12.002" y="-11.449" fill="#002330" width="1464.005" height="841.345"/>
</g>
<g id="Calque_1_-_copie">
	<rect x="3.259" y="783.577" fill="none" width="267.018" height="46.319"/>
	<text transform="matrix(1 0 0 1 3.2593 793.5166)" fill="#FFFFFF" font-family="'MyriadPro-Regular'" font-size="14">2012 : derniers chiffres enregistrés</text>
	<rect x="1.957" y="804.826" fill="none" width="419.598" height="35.774"/>
	<text transform="matrix(1 0 0 1 1.957 814.7656)" fill="#FFFFFF" font-family="'MyriadPro-Regular'" font-size="14">Source : 2012 :  Bloomberg (rubrique « Projection %)</text>
	<rect x="3.259" y="754.498" fill="none" width="267.018" height="23.16"/>
	<text transform="matrix(1 0 0 1 3.2593 772.958)" fill="#FFFFFF" font-family="'MyriadPro-Regular'" font-size="26">A la loupe</text>
	<rect x="647.056" y="688.854" fill="none" width="141.193" height="18.385"/>
	<text transform="matrix(1 0 0 1 647.0557 704.4727)" fill="#FFFFFF" font-family="'MyriadPro-Regular'" font-size="22">Royaume Uni</text>
	<rect x="1149.513" y="691.741" fill="none" width="130.258" height="72.221"/>
	<text transform="matrix(1 0 0 1 1149.5107 707.3613)" fill="#FFFFFF" font-family="'MyriadPro-Regular'" font-size="22">Allemagne</text>
	<rect x="164.804" y="691.688" fill="none" width="141.194" height="18.385"/>
	<text transform="matrix(1 0 0 1 164.8042 707.3086)" fill="#FFFFFF" font-family="'MyriadPro-Regular'" font-size="22">France</text>
	<path class="tige" fill="#D0FFBE" d="M1048.128,391.607c0,0,6.269,40.738,0,52.845c-6.267,12.107-19.4,31.113,1.393,58.519
		c18.359,24.197,2.388,22.173,0.796,62.36s0.628,19.55-2.123,63.461c-2.154-22.832-2.453-52.424-2.453-60.612
		c0-8.189,0.315-17.025-4.178-28.547c-8.955-22.96,1.791-28.808,13.133-50.193c10.147-25.347-9.552-40.32-9.552-53.839
		C1045.144,422.083,1045.144,404.006,1048.128,391.607z"/>
	<path class="fleur" fill="#D0FFBE" stroke="#03232E" stroke-width="4" stroke-miterlimit="10" d="M1066.373,362.673
		c-6.066,6.902-20.529,18.67-31.854,22.424c-7.529,2.496-13.979,1.495-15.036-6.922c-3.639-28.958,4.78-17.63,14.549-34.975
		c9.771-17.344,17.903-7.673,26.524-11.577C1071.179,342.247,1076.061,351.647,1066.373,362.673z"/>
	<path class="fleur" fill="#D0FFBE" d="M1071.544,351.256c0.334,4.187-1.181,8.45-5.17,12.988c-6.065,6.902-20.528,18.671-31.853,22.424
		c-1.91,0.634-3.751,1.039-5.451,1.158l-0.035,0.031c0,0,9.051,3.527,13.547,6.146c9.642,5.617,12.124-16.024,18.735-12.287
		C1063.805,383.123,1089.535,366.362,1071.544,351.256z"/>
	<path class="tige" fill="#AEFF7D" d="M1308.973,142.583c0,0,6.268,83.323,0,108.088c-6.269,24.762-19.4,63.637,1.393,119.689
		c18.359,49.491,2.389,45.35,0.796,127.547c-1.592,82.197,0.626,39.985-2.124,129.8c-2.154-46.7-2.452-107.226-2.452-123.976
		s0.314-34.822-4.179-58.385c-8.953-46.962,1.79-58.922,13.132-102.666c10.149-51.838-9.55-82.467-9.55-110.118
		C1305.988,204.917,1305.987,167.945,1308.973,142.583z"/>
	<path class="tige" fill="#00B12F" d="M1251.3,516.119c0,0,6.267,19.244,0,24.964c-6.269,5.72-19.401,14.697,1.393,27.645
		c18.359,11.431,2.388,10.474,0.796,29.458s0.626,9.233-2.125,29.978c-2.153-10.785-2.452-24.766-2.452-28.634
		s0.315-8.042-4.179-13.483c-8.953-10.845,1.791-13.609,13.133-23.712c10.149-11.973-9.55-19.047-9.55-25.433
		C1248.315,530.517,1248.314,521.978,1251.3,516.119z"/>
	<path class="fleur" fill="#AEFF7D" d="M1318.464,141.709c10.493-5.955,17.548-6.122,14.237-22.036c-0.174-0.836-0.376-1.716-0.608-2.643
		c-4.65-18.555-17.813-13.021-21.107-22.373c-3.295-9.35-33.82-3.365-29.031,9.803s13.168,20.076,13.767,27.994
		C1296.318,140.374,1313.537,144.506,1318.464,141.709z"/>
	<rect x="1180.573" y="572.559" fill="none" width="41.489" height="11.277"/>
	<text transform="matrix(1 0 0 1 1183.1523 580.915)" fill="#8CBA00" font-family="'ArialMT'" font-size="11.6714">Solaire</text>
	<rect x="1086.251" y="561.639" fill="none" width="87.738" height="13.595"/>
	<text transform="matrix(1 0 0 1 1093.1387 569.9941)" fill="#008E00" font-family="'ArialMT'" font-size="11.6714">Géothermique</text>
	<rect x="1217.543" y="437.157" fill="none" width="61.45" height="15.325"/>
	<text transform="matrix(1 0 0 1 1222.6445 445.5127)" fill="#00B12F" font-family="'ArialMT'" font-size="11.6714">Biomasse</text>
	<rect x="1284.071" y="67.019" fill="none" width="57.05" height="11.586"/>
	<text transform="matrix(1 0 0 1 1296.374 75.3745)" fill="#AEFF7D" font-family="'ArialMT'" font-size="11.6714">Eolien</text>
	<rect x="1025.459" y="317.067" fill="none" width="53.619" height="13.717"/>
	<text transform="matrix(1 0 0 1 1027.6182 325.4233)" fill="#D0FFBE" font-family="'ArialMT'" font-size="11.6714">Nucléaire</text>
	<rect x="1263.383" y="112.426" fill="none" width="89.817" height="24.891"/>
	<text transform="matrix(1 0 0 1 1296.6113 120.7817)" fill="#AEFF7D" font-family="'ArialMT'" font-size="11.6714">12%</text>
	<rect x="1171.019" y="636.281" fill="none" width="231.488" height="28.957"/>
	<text transform="matrix(1 0 0 1 1171.0176 645.5098)" fill="#FFFFFF" font-family="'MyriadPro-Regular'" font-size="13">Energies renouvelables</text>
	<rect x="1011.614" y="636.281" fill="none" width="94.824" height="35.902"/>
	<text transform="matrix(1 0 0 1 1011.6133 645.5098)" fill="#FFFFFF" font-family="'MyriadPro-Regular'" font-size="13">Energie fossile</text>
	<path fill="#8CBA00" d="M1208.461,627.281c-6.29,0.981-21.805,4.4-19.426-12.762c2.378-17.162,8.323-10.372,14.669-17.342
		c6.343-6.971,14.272-5.164,14.272,3.944C1217.977,610.229,1227.493,624.312,1208.461,627.281z"/>
	<path class="tige" fill="#D0FFBE" d="M558.948,240.332c0,0,6.268,66.357,0,86.079c-6.267,19.722-19.4,50.68,1.392,95.319
		c18.359,39.413,2.389,36.116,0.796,101.575c-1.591,65.461,0.627,31.844-2.124,103.37c-2.153-37.189-2.452-85.393-2.452-98.729
		c0-13.34,0.314-27.731-4.178-46.5c-8.955-37.396,1.791-46.924,13.132-81.76c10.147-41.283-9.551-65.675-9.551-87.693
		C555.964,289.973,555.964,260.528,558.948,240.332z"/>
	<path class="tige" fill="#AEFF7D" d="M807.07,411.534c0,0,6.267,36.82,0,47.765c-6.27,10.941-19.401,28.12,1.392,52.889
		c18.359,21.872,2.389,20.039,0.797,56.364c-1.593,36.322,0.626,17.668-2.125,57.357c-2.154-20.636-2.452-47.383-2.452-54.784
		c0-7.402,0.314-15.389-4.179-25.8c-8.953-20.754,1.791-26.039,13.133-45.369c10.148-22.906-9.55-36.441-9.55-48.661
		C804.086,439.078,804.085,422.741,807.07,411.534z"/>
	<path fill="#008E00" d="M620.901,593.126c0,0-9.528,6.112-9.423,15.993c0.104,9.881,7.237,19.015,15.287,17.965
		c8.05-1.051,19.79-10.454,26.293-13.032c6.505-2.577,16.166-17.98,7.988-20.856c-8.178-2.877-14.312,5.537-18.974,3.607
		C637.406,594.872,627.688,591.789,620.901,593.126z"/>
	<rect x="677.578" y="570.238" fill="none" width="41.492" height="11.277"/>
	<text transform="matrix(1 0 0 1 680.1582 578.5947)" fill="#8CBA00" font-family="'ArialMT'" font-size="11.6714">Solaire</text>
	<rect x="586.821" y="563.441" fill="none" width="87.738" height="13.595"/>
	<text transform="matrix(1 0 0 1 593.71 571.7979)" fill="#008E00" font-family="'ArialMT'" font-size="11.6714">Géothermique</text>
	<rect x="717.113" y="377.861" fill="none" width="61.451" height="15.326"/>
	<text transform="matrix(1 0 0 1 722.2148 386.2168)" fill="#00B12F" font-family="'ArialMT'" font-size="11.6714">Biomasse</text>
	<rect x="780.601" y="342.58" fill="none" width="57.05" height="11.586"/>
	<text transform="matrix(1 0 0 1 792.9033 350.9355)" fill="#AEFF7D" font-family="'ArialMT'" font-size="11.6714">Eolien</text>
	<rect x="541.011" y="161.069" fill="none" width="53.619" height="13.717"/>
	<text transform="matrix(1 0 0 1 543.1694 169.4248)" fill="#D0FFBE" font-family="'ArialMT'" font-size="11.6714">Nucléaire</text>
	<rect x="764.216" y="390.884" fill="none" width="89.818" height="24.892"/>
	<text transform="matrix(1 0 0 1 797.4443 399.2393)" fill="#AEFF7D" font-family="'ArialMT'" font-size="11.6714">12%</text>
	<rect x="683.18" y="636.875" fill="none" width="231.49" height="28.957"/>
	<text transform="matrix(1 0 0 1 683.1812 646.1035)" fill="#FFFFFF" font-family="'MyriadPro-Regular'" font-size="13">Energies renouvelables</text>
	<rect x="523.778" y="636.875" fill="none" width="94.824" height="35.902"/>
	<text transform="matrix(1 0 0 1 523.7783 646.1035)" fill="#FFFFFF" font-family="'MyriadPro-Regular'" font-size="13">Energie fossile</text>
	<rect x="607.056" y="597.996" fill="none" width="47.268" height="18.66"/>
	<text transform="matrix(1 0 0 1 619.0088 606.3516)" fill="#008E00" font-family="'ArialMT'" font-size="11.6714">15%</text>
	<path fill="#8CBA00" d="M705.468,625.732c-6.291,0.982-21.806,4.4-19.427-12.761c2.379-17.163,8.324-10.372,14.669-17.343
		c6.344-6.97,14.273-5.163,14.273,3.944S724.5,622.763,705.468,625.732z"/>
	<path class="tige" fill="#D0FFBE" d="M53.805,240.047c0,0,6.268,66.491,0,86.251c-6.267,19.761-19.4,50.782,1.392,95.511
		c18.359,39.493,2.389,36.188,0.796,101.779c-1.591,65.593,0.627,31.908-2.124,103.578c-2.153-37.266-2.453-85.563-2.453-98.929
		s0.315-27.787-4.178-46.591c-8.955-37.474,1.791-47.02,13.132-81.925c10.147-41.367-9.551-65.807-9.551-87.871
		C50.821,289.788,50.821,260.285,53.805,240.047z"/>
	<path class="tige" fill="#AEFF7D" d="M300.643,416.663c0,0,6.267,36.156,0,46.9c-6.269,10.746-19.401,27.616,1.392,51.937
		c18.359,21.476,2.389,19.679,0.796,55.344c-1.592,35.667,0.626,17.352-2.125,56.323c-2.154-20.264-2.452-46.528-2.452-53.795
		s0.314-15.111-4.179-25.333c-8.954-20.379,1.791-25.567,13.132-44.55c10.149-22.494-9.55-35.785-9.55-47.782
		C297.659,443.711,297.658,427.667,300.643,416.663z"/>
	<path class="tige" fill="#00B12F" d="M231.528,464.646c0,0,6.267,27.699,0,35.93c-6.269,8.231-19.401,21.155,1.392,39.789
		c18.359,16.45,2.388,15.073,0.796,42.398c-1.592,27.322,0.626,13.29-2.124,43.146c-2.154-15.523-2.453-35.644-2.453-41.212
		c0-5.569,0.315-11.576-4.179-19.408c-8.953-15.608,1.791-19.586,13.132-34.126c10.149-17.233-9.55-27.416-9.55-36.606
		C228.543,485.37,228.542,473.078,231.528,464.646z"/>
	<path class="fleur" fill="#D0FFBE" stroke="#03232E" stroke-width="4" stroke-miterlimit="10" d="M72.051,208.979
		c-6.065,6.902-20.528,18.67-31.853,22.424c-7.53,2.496-13.979,1.495-15.037-6.922c-3.638-28.958,4.78-17.63,14.549-34.975
		c9.771-17.344,17.904-7.673,26.523-11.577C76.857,188.553,81.739,197.954,72.051,208.979z"/>
	<rect x="77.913" y="561.64" fill="none" width="87.738" height="13.594"/>
	<text transform="matrix(1 0 0 1 84.8018 569.9951)" fill="#008E00" font-family="'ArialMT'" font-size="11.6714">Géothermique</text>
	<rect x="202.354" y="387.278" fill="none" width="61.451" height="15.326"/>
	<text transform="matrix(1 0 0 1 207.457 395.6343)" fill="#00B12F" font-family="'ArialMT'" font-size="11.6714">Biomasse</text>
	<rect x="272.245" y="344.271" fill="none" width="57.05" height="11.586"/>
	<text transform="matrix(1 0 0 1 284.5479 352.6274)" fill="#AEFF7D" font-family="'ArialMT'" font-size="11.6714">Eolien</text>
	<rect x="31.663" y="162.327" fill="none" width="53.62" height="13.717"/>
	<text class="textTitle" transform="matrix(1 0 0 1 33.8218 170.6826)" fill="#D0FFBE" font-family="'ArialMT'" font-size="11.6714">Nucléaire</text>
	<polygon fill="none" points="65.197,223.355 36.875,223.355 36.369,205.265 64.691,205.265 	"/>
	<text transform="matrix(1 0 0 1 38.9771 213.6211)" fill="#002330" font-family="'ArialMT'" font-size="11.6714">41%</text>
	<rect x="183.555" y="636.875" fill="none" width="231.488" height="28.957"/>
	<text transform="matrix(1 0 0 1 183.5557 646.1035)" fill="#FFFFFF" font-family="'MyriadPro-Regular'" font-size="13">Energies renouvelables</text>
	<rect x="14.801" y="636.875" fill="none" width="94.824" height="35.902"/>
	<text transform="matrix(1 0 0 1 14.8013 646.1035)" fill="#FFFFFF" font-family="'MyriadPro-Regular'" font-size="13">Energie fossile</text>
	<path fill="#8CBA00" d="M198.003,624.311c-6.291,0.981-21.805,4.4-19.426-12.762c2.378-17.162,8.324-10.372,14.669-17.343
		c6.343-6.97,14.273-5.163,14.273,3.945C207.519,607.258,217.035,621.341,198.003,624.311z"/>
	<path class="fleur" fill="#D0FFBE" d="M77.223,197.562c0.334,4.187-1.181,8.45-5.169,12.989c-6.065,6.902-20.529,18.671-31.853,22.424
		c-1.911,0.634-3.75,1.039-5.452,1.158l-0.035,0.031c0,0,9.051,3.527,13.547,6.146c9.64,5.616,12.124-16.024,18.734-12.287
		C69.483,229.429,95.214,212.669,77.223,197.562z"/>
	<path fill="#8CBA00" d="M1187.328,613.112c2.38-17.164,8.324-10.372,14.67-17.343c0.925-1.017,1.884-1.841,2.848-2.489
		c-2.011-3.625-13.154-5.671-15.534-0.37c-2.378,5.303-4.758,9.714-8.027,12.934c-3.271,3.218,5.799,14.765,5.799,14.765
		l0.405-0.624C1187.036,618.175,1186.938,615.925,1187.328,613.112z"/>
	<path fill="#8CBA00" d="M684.061,612.253c2.379-17.364,8.324-10.495,14.67-17.547c0.925-1.029,1.885-1.863,2.848-2.519
		c-2.011-3.667-13.155-5.738-15.534-0.374c-2.378,5.364-4.758,9.829-8.028,13.086c-3.271,3.256,5.799,14.938,5.799,14.938
		l0.406-0.633C683.77,617.376,683.671,615.098,684.061,612.253z"/>
	<path fill="#8CBA00" d="M176.686,609.858c2.379-17.163,8.324-10.372,14.669-17.343c0.926-1.017,1.885-1.841,2.849-2.489
		c-2.012-3.624-13.155-5.671-15.534-0.369c-2.378,5.302-4.757,9.714-8.029,12.933c-3.27,3.218,5.799,14.765,5.799,14.765
		l0.406-0.625C176.394,614.921,176.296,612.671,176.686,609.858z"/>
	<path class="fleur" fill="#00B12F" d="M218.708,462.752c0,0,11.97,10.588,27.533,4.996c6.886-2.477,7.327-7.489,5.521-13.294
		c-2.273-7.315-8.111-15.887-9.112-22.227c-1.796-11.372,0.16-25.737-11.891-25.139
		C218.708,407.688,206.139,453.176,218.708,462.752z"/>
	<path class="fleur" fill="#00B12F" d="M258.886,420.207c-4.933-8.979-13.195-15.06-16.471-7.081v0.001c1.559,5.055,1.442,12.033,2.408,18.149
		c0.752,4.761,4.229,10.779,6.878,16.578c3.602-2.429,7.801-4.229,9.363-8.794C263.83,430.98,263.821,429.185,258.886,420.207z"/>
	<path class="fleur" fill="#00B12F" d="M731.782,454.208c0,0,11.971,10.588,27.533,4.995c6.887-2.475,7.326-7.488,5.521-13.293
		c-2.273-7.315-8.111-15.887-9.112-22.228c-1.796-11.371,0.16-25.736-11.891-25.138
		C731.782,399.144,719.214,444.633,731.782,454.208z"/>
	<path class="fleur" fill="#00B12F" d="M771.96,411.663c-4.933-8.979-13.195-15.06-16.471-7.081v0.001c1.559,5.054,1.442,12.033,2.408,18.149
		c0.752,4.76,4.229,10.778,6.878,16.577c3.603-2.428,7.8-4.229,9.362-8.793C776.903,422.437,776.895,420.641,771.96,411.663z"/>
	<path fill="#008E00" d="M620.638,591.498c6.786-1.335,16.505,1.747,21.171,3.678c2.452,1.015,5.312-0.83,8.66-2.39
		c-1.188-7.201-13.942-11.688-17.719-10.06c-4.429,1.91-7.239,2.017-13.498-1.432c-5.927-3.268-9.907,10.36-7.744,23.082
		C613.094,596.344,620.638,591.498,620.638,591.498z"/>
	<path fill="#008E00" d="M1120.509,593.896c0,0-9.528,6.113-9.423,15.994c0.104,9.881,7.236,19.015,15.287,17.965
		c8.049-1.051,19.789-10.454,26.293-13.032c6.505-2.577,16.166-17.98,7.988-20.856c-8.178-2.877-14.312,5.537-18.975,3.607
		C1137.014,595.644,1127.295,592.561,1120.509,593.896z"/>
	<path fill="#008E00" d="M1120.245,592.27c6.786-1.336,16.505,1.747,21.171,3.678c2.451,1.015,5.312-0.83,8.66-2.39
		c-1.188-7.202-13.942-11.688-17.719-10.06c-4.43,1.91-7.239,2.017-13.498-1.433c-5.927-3.268-9.907,10.361-7.743,23.083
		C1112.701,597.115,1120.245,592.27,1120.245,592.27z"/>
	<path class="fleur" fill="#00B12F" d="M1236.254,510.239c0,0,11.971,10.588,27.533,4.995c6.886-2.475,7.326-7.488,5.521-13.293
		c-2.273-7.315-8.111-15.887-9.112-22.228c-1.796-11.371,0.16-25.736-11.891-25.138S1223.685,500.663,1236.254,510.239z"/>
	<path class="fleur" fill="#00B12F" d="M1276.432,467.693c-4.934-8.978-13.195-15.059-16.471-7.08v0.001c1.559,5.055,1.441,12.033,2.407,18.149
		c0.752,4.76,4.229,10.778,6.878,16.577c3.603-2.428,7.801-4.229,9.363-8.793C1281.374,478.468,1281.365,476.672,1276.432,467.693z"
		/>
	<path class="fleur" fill="#AEFF7D" d="M1314.123,92.926c3.295,9.352,16.457,3.817,21.107,22.373c0.14,0.555,0.265,1.088,0.382,1.61l0.762,0.772
		c0.354-14.417,4.411-18.458-0.535-21.6s-11.097-3.269-12.512-7.694c-1.413-4.426-15.457-2.757-15.842,0l0.324,0.329
		C1310.92,89.295,1313.324,90.658,1314.123,92.926z"/>
	<path class="fleur" fill="#AEFF7D" d="M818.534,418.473c10.492-5.955,17.547-6.121,14.236-22.035c-0.174-0.837-0.375-1.716-0.608-2.643
		c-4.65-18.555-17.813-13.021-21.107-22.373c-3.295-9.35-33.82-3.365-29.031,9.803s13.168,20.076,13.767,27.994
		S813.606,421.27,818.534,418.473z"/>
	<path class="fleur" fill="#AEFF7D" d="M814.192,369.69c3.295,9.352,16.457,3.817,21.107,22.372c0.14,0.555,0.265,1.088,0.383,1.611l0.761,0.771
		c0.354-14.417,4.412-18.458-0.535-21.6c-4.946-3.143-11.096-3.269-12.511-7.695c-1.414-4.426-15.458-2.756-15.843,0l0.324,0.329
		C810.99,366.059,813.395,367.422,814.192,369.69z"/>
	<path class="fleur" fill="#AEFF7D" d="M309.373,416.663c10.493-5.955,17.547-6.122,14.237-22.036c-0.173-0.836-0.375-1.716-0.608-2.643
		c-4.65-18.555-17.813-13.021-21.107-22.373c-3.295-9.35-33.82-3.365-29.032,9.803c4.789,13.168,13.168,20.076,13.767,27.994
		C287.228,415.327,304.445,419.46,309.373,416.663z"/>
	<path class="fleur" fill="#AEFF7D" d="M305.032,367.88c3.295,9.352,16.457,3.817,21.107,22.373c0.14,0.555,0.265,1.088,0.382,1.61l0.761,0.771
		c0.354-14.417,4.412-18.458-0.535-21.6c-4.947-3.143-11.097-3.269-12.512-7.695c-1.413-4.426-15.457-2.756-15.842,0l0.325,0.329
		C301.829,364.249,304.233,365.612,305.032,367.88z"/>
	<path class="fleur" fill="#D0FFBE" stroke="#03232E" stroke-width="4" stroke-miterlimit="10" d="M580.731,209
		c-6.065,6.902-20.528,18.671-31.853,22.425c-7.53,2.496-13.979,1.494-15.037-6.922c-3.639-28.958,4.78-17.63,14.549-34.975
		c9.771-17.345,17.904-7.673,26.524-11.577C585.537,188.575,590.419,197.976,580.731,209z"/>
	<path class="fleur" fill="#D0FFBE" d="M585.902,197.583c0.334,4.187-1.181,8.45-5.169,12.989c-6.065,6.902-20.528,18.671-31.853,22.424
		c-1.911,0.634-3.751,1.039-5.452,1.158l-0.035,0.031c0,0,9.052,3.527,13.548,6.146c9.64,5.616,12.124-16.024,18.733-12.287
		C578.163,229.45,603.895,212.69,585.902,197.583z"/>
	<rect x="170.479" y="604.184" fill="none" width="47.27" height="20.648"/>
	<text transform="matrix(1 0 0 1 185.6792 612.5391)" fill="#002330" font-family="'ArialMT'" font-size="11.6714">0%</text>
	<rect x="203.465" y="440.063" fill="none" width="47.271" height="20.649"/>
	<text transform="matrix(1 0 0 1 215.4194 448.4189)" fill="#002330" font-family="'ArialMT'" font-size="11.6714">23%</text>
	<rect x="277.133" y="388.478" fill="none" width="47.271" height="20.65"/>
	<text transform="matrix(1 0 0 1 289.0884 396.8335)" fill="#002330" font-family="'ArialMT'" font-size="11.6714">27%</text>
	<rect x="535.828" y="204.007" fill="none" width="47.271" height="20.649"/>
	<text transform="matrix(1 0 0 1 547.7822 212.3628)" fill="#002330" font-family="'ArialMT'" font-size="11.6714">41%</text>
	<rect x="607.055" y="600.569" fill="none" width="47.27" height="20.648"/>
	<text transform="matrix(1 0 0 1 622.2549 608.9248)" fill="#002330" font-family="'ArialMT'" font-size="11.6714">0%</text>
	<rect x="674.689" y="605.439" fill="none" width="47.271" height="20.649"/>
	<text transform="matrix(1 0 0 1 689.8906 613.7949)" fill="#002330" font-family="'ArialMT'" font-size="11.6714">0%</text>
	<rect x="722.519" y="431.392" fill="none" width="47.27" height="20.649"/>
	<text transform="matrix(1 0 0 1 734.4736 439.7471)" fill="#002330" font-family="'ArialMT'" font-size="11.6714">23%</text>
	<rect x="789.796" y="390.274" fill="none" width="47.271" height="20.649"/>
	<text transform="matrix(1 0 0 1 801.75 398.6304)" fill="#002330" font-family="'ArialMT'" font-size="11.6714">27%</text>
	<rect x="1024.619" y="357.107" fill="none" width="47.27" height="20.649"/>
	<text transform="matrix(1 0 0 1 1036.5732 365.4634)" fill="#002330" font-family="'ArialMT'" font-size="11.6714">20%</text>
	<rect x="1106.484" y="598.392" fill="none" width="47.271" height="20.649"/>
	<text transform="matrix(1 0 0 1 1121.6855 606.7471)" fill="#002330" font-family="'ArialMT'" font-size="11.6714">0%</text>
	<rect x="1177.684" y="607.632" fill="none" width="47.271" height="20.649"/>
	<text transform="matrix(1 0 0 1 1192.8838 615.9873)" fill="#002330" font-family="'ArialMT'" font-size="11.6714">0%</text>
	<rect x="1224.634" y="483.383" fill="none" width="47.271" height="20.65"/>
	<text transform="matrix(1 0 0 1 1236.5879 491.7393)" fill="#002330" font-family="'ArialMT'" font-size="11.6714">10%</text>
	<rect x="1284.658" y="110.207" fill="none" width="47.271" height="20.649"/>
	<text transform="matrix(1 0 0 1 1296.6133 118.563)" fill="#002330" font-family="'ArialMT'" font-size="11.6714">51%</text>
	<rect x="169.93" y="568.805" fill="none" width="41.49" height="11.277"/>
	<text transform="matrix(1 0 0 1 172.5088 577.1611)" fill="#8CBA00" font-family="'ArialMT'" font-size="11.6714">Solaire</text>
	<path class="tige" fill="#758000" d="M356.721,519.988c0,0,6.266,17.926,0,23.253c-6.268,5.328-19.4,13.69,1.393,25.751
		c18.358,10.646,2.387,9.756,0.796,27.439c-1.592,17.685,0.626,8.604-2.125,27.926c-2.153-10.048-2.452-23.068-2.452-26.671
		c0-3.604,0.314-7.493-4.178-12.562c-8.955-10.104,1.79-12.677,13.131-22.087c10.148-11.154-9.55-17.742-9.55-23.692
		C353.737,533.397,353.736,525.444,356.721,519.988z"/>
	<path class="fleur" fill="#758000" d="M337.496,476.627c-2.803,8.417-5.087,12.043,0,18.628c5.087,6.584,7.596,9.576,9.334,15.861
		c1.738,6.284,8.621,17.028,27.176,9.86c18.555-7.167,17.059-18.54,12.271-26.021s-27.134-4.807-29.429-11.531
		C354.554,476.7,339.396,470.921,337.496,476.627z"/>
	<path class="fleur" fill="#758000" d="M358.304,481.545c0.316,0.928,1.025,1.673,2.007,2.294l2.229,1.061c6.861,2.51,19.748,2.427,24.376,7.176
		c0.12-0.587,0.125-1.219-0.081-1.879c-0.898-2.88-3.292-8.492-10.774-8.651c-7.481-0.158-7.781-7.023-11.373-11.877
		c-3.591-4.854-17.956,1.263-17.956,1.263l0.462,2.137C351.893,474.441,357.042,477.848,358.304,481.545z"/>
	<rect x="330.078" y="448.072" fill="none" width="63.712" height="16.574"/>
	<text transform="matrix(1 0 0 1 330.792 456.4277)" fill="#758000" font-family="'ArialMT'" font-size="11.6714">Hydraulique</text>
	<rect x="338.299" y="498.094" fill="none" width="47.27" height="20.648"/>
	<text transform="matrix(1 0 0 1 353.499 506.4492)" fill="#002330" font-family="'ArialMT'" font-size="11.6714">9%</text>
	<path class="tige" fill="#758000" d="M865.866,521.54c0,0,6.266,17.927,0,23.254c-6.268,5.327-19.399,13.691,1.393,25.749
		c18.357,10.648,2.387,9.757,0.796,27.441c-1.592,17.684,0.626,8.604-2.124,27.925c-2.153-10.048-2.452-23.068-2.452-26.672
		s0.314-7.491-4.178-12.561c-8.955-10.104,1.79-12.678,13.131-22.088c10.147-11.153-9.55-17.741-9.55-23.69
		C862.882,534.95,862.881,526.997,865.866,521.54z"/>
	<path class="fleur" fill="#758000" d="M846.64,477.425c-2.803,8.417-5.088,12.043,0,18.628c5.087,6.584,7.596,9.577,9.334,15.862
		c1.739,6.284,8.621,17.028,27.176,9.86c18.556-7.167,17.059-18.54,12.271-26.021c-4.788-7.482-27.135-4.809-29.429-11.531
		C863.697,477.499,848.539,471.719,846.64,477.425z"/>
	<path class="fleur" fill="#758000" d="M867.448,482.344c0.315,0.928,1.025,1.673,2.006,2.293l2.229,1.062c6.862,2.509,19.748,2.427,24.376,7.175
		c0.121-0.585,0.126-1.219-0.081-1.878c-0.897-2.881-3.291-8.492-10.773-8.651c-7.48-0.158-7.78-7.023-11.371-11.877
		c-3.592-4.854-17.956,1.263-17.956,1.263l0.461,2.136C861.035,475.24,866.186,478.647,867.448,482.344z"/>
	<rect x="839.222" y="448.869" fill="none" width="63.713" height="16.576"/>
	<text transform="matrix(1 0 0 1 839.9355 457.2256)" fill="#758000" font-family="'ArialMT'" font-size="11.6714">Hydraulique</text>
	<rect x="847.442" y="498.892" fill="none" width="47.271" height="20.649"/>
	<text transform="matrix(1 0 0 1 862.6426 507.2471)" fill="#002330" font-family="'ArialMT'" font-size="11.6714">9%</text>
	<path class="tige" fill="#758000" d="M1371.825,419.026c0,0,6.266,36.028,0,46.735c-6.268,10.708-19.399,27.517,1.393,51.753
		c18.357,21.401,2.387,19.61,0.796,55.15c-1.592,35.544,0.626,17.292-2.124,56.127c-2.153-20.194-2.452-46.364-2.452-53.605
		c0-7.242,0.314-15.059-4.178-25.246c-8.955-20.308,1.79-25.479,13.131-44.393c10.147-22.416-9.55-35.658-9.55-47.614
		C1368.841,445.979,1368.84,429.992,1371.825,419.026z"/>
	<path class="fleur" fill="#758000" d="M1352.597,372.3c-2.803,8.417-5.087,12.043,0,18.628s7.596,9.577,9.334,15.861
		c1.739,6.285,8.622,17.028,27.176,9.861c18.556-7.168,17.06-18.54,12.271-26.021c-4.789-7.481-27.136-4.808-29.43-11.531
		C1369.654,372.374,1354.496,366.594,1352.597,372.3z"/>
	<path class="fleur" fill="#758000" d="M1373.405,377.219c0.315,0.928,1.025,1.672,2.006,2.293l2.229,1.061c6.861,2.509,19.748,2.426,24.375,7.175
		c0.121-0.586,0.127-1.219-0.08-1.879c-0.898-2.88-3.292-8.492-10.774-8.651c-7.48-0.159-7.78-7.024-11.371-11.877
		c-3.591-4.854-17.956,1.262-17.956,1.262l0.461,2.137C1366.992,370.114,1372.143,373.521,1373.405,377.219z"/>
	<rect x="1345.179" y="343.745" fill="none" width="63.712" height="16.575"/>
	<text transform="matrix(1 0 0 1 1345.8926 352.1001)" fill="#758000" font-family="'ArialMT'" font-size="11.6714">Hydraulique</text>
	<rect x="1353.399" y="393.767" fill="none" width="47.271" height="20.649"/>
	<text transform="matrix(1 0 0 1 1365.3535 402.1226)" fill="#002330" font-family="'ArialMT'" font-size="11.6714">18%</text>
	<path class="tige" fill="#00B12F" d="M749.397,460.834c0,0,6.268,28.484,0,36.949c-6.269,8.464-19.4,21.755,1.393,40.918
		c18.359,16.917,2.389,15.501,0.796,43.603c-1.592,28.098,0.626,13.667-2.125,44.371c-2.153-15.964-2.451-36.655-2.451-42.381
		c0-5.729,0.313-11.905-4.179-19.96c-8.954-16.053,1.79-20.142,13.132-35.095c10.149-17.722-9.55-28.194-9.55-37.646
		C746.413,482.146,746.411,469.505,749.397,460.834z"/>
	<line fill="none" stroke="#FFFFFF" stroke-miterlimit="10" x1="94.3" y1="627.167" x2="393.79" y2="625.909"/>
	<line fill="none" stroke="#FFFFFF" stroke-miterlimit="10" x1="599.779" y1="627.796" x2="899.27" y2="626.538"/>
	<line fill="none" stroke="#FFFFFF" stroke-miterlimit="10" x1="1101.682" y1="629.421" x2="1401.172" y2="628.163"/>
	<line fill="none" stroke="#FFFFFF" stroke-miterlimit="10" x1="527.832" y1="627.796" x2="592.248" y2="627.796"/>
	<line fill="none" stroke="#FFFFFF" stroke-miterlimit="10" x1="21.724" y1="627.167" x2="86.14" y2="627.167"/>
	<line fill="none" stroke="#FFFFFF" stroke-miterlimit="10" x1="1016.048" y1="629.421" x2="1080.464" y2="629.421"/>
	<path fill="#008E00" d="M108.138,590.644c0,0-9.528,6.112-9.423,15.992c0.104,9.881,7.237,19.015,15.287,17.966
		c8.05-1.051,19.79-10.454,26.294-13.033c6.504-2.576,16.166-17.979,7.988-20.855c-8.178-2.878-14.313,5.536-18.975,3.607
		C124.643,592.389,114.924,589.306,108.138,590.644z"/>
	<path fill="#008E00" d="M107.874,589.016c6.786-1.336,16.505,1.746,21.171,3.677c2.451,1.015,5.311-0.829,8.66-2.39
		c-1.189-7.201-13.943-11.688-17.719-10.059c-4.429,1.909-7.239,2.017-13.498-1.433c-5.927-3.268-9.907,10.361-7.744,23.083
		C100.33,593.861,107.874,589.016,107.874,589.016z"/>
	<rect x="98.148" y="598.935" fill="none" width="47.268" height="18.661"/>
	<text transform="matrix(1 0 0 1 113.3472 607.291)" fill="#002330" font-family="'ArialMT'" font-size="11.6714">0%</text>
</g>
</svg>