<?xml version="1.0" encoding="utf-8"?>
<!-- Generator: Adobe Illustrator 16.0.0, SVG Export Plug-In . SVG Version: 6.00 Build 0)  -->
<!DOCTYPE svg PUBLIC "-//W3C//DTD SVG 1.1//EN" "http://www.w3.org/Graphics/SVG/1.1/DTD/svg11.dtd">
<svg version="1.1" id="Calque_30" xmlns="http://www.w3.org/2000/svg" xmlns:xlink="http://www.w3.org/1999/xlink" x="0px" y="0px"
	 width="200px" height="200px" viewBox="0 0 110.884 95.5" enable-background="new 0 0 110.884 95.5" xml:space="preserve">
<g id="Forma_1_25_">
	<g>
		<path fill="none" stroke="#14A589" stroke-width="0.75" stroke-miterlimit="10" d="M65.751,43.109
			c-1.147,0-2.233,0.271-3.196,0.752c-0.352-1.242-0.573-2.423-0.7-3.215c0.796-0.271,1.852-0.801,2.698-1.812
			c0.41-0.489,0.346-1.218-0.146-1.628c-0.49-0.408-1.222-0.343-1.632,0.146c-0.924,1.104-2.318,1.272-2.323,1.273
			c-0.308,0.029-0.591,0.18-0.785,0.419c-0.196,0.239-0.289,0.547-0.255,0.854c0.002,0.033,0.038,0.354,0.114,0.865h-9.014
			c-0.406,0-0.782,0.212-0.992,0.561l-1.383,2.296c-0.822-0.328-1.717-0.51-2.656-0.51c-3.959,0-7.181,3.214-7.181,7.163
			c0,3.95,3.222,7.164,7.181,7.164c3.564,0,6.53-2.606,7.087-6.009h3.29c0.427,0,0.818-0.233,1.021-0.608l3.433-6.379
			c0.056,0.195,0.113,0.393,0.174,0.592c0.03,0.095,0.06,0.188,0.09,0.283c-1.24,1.287-2.005,3.034-2.005,4.957
			c0,3.95,3.221,7.164,7.181,7.164c3.959,0,7.181-3.214,7.181-7.164C72.932,46.323,69.71,43.109,65.751,43.109z M45.481,55.126
			c-2.683,0-4.864-2.179-4.864-4.854s2.182-4.854,4.864-4.854c0.501,0,0.985,0.079,1.44,0.219l-2.433,4.041
			c-0.215,0.355-0.221,0.801-0.016,1.164c0.206,0.361,0.592,0.586,1.008,0.586h4.725C49.685,53.548,47.765,55.126,45.481,55.126z
			 M47.528,49.116l1.378-2.286c0.626,0.62,1.082,1.405,1.3,2.286H47.528z M55.166,49.116h-2.598
			c-0.28-1.714-1.173-3.228-2.447-4.305l1.047-1.738h7.25L55.166,49.116z M65.751,55.126c-2.683,0-4.864-2.179-4.864-4.854
			c0-0.906,0.251-1.756,0.688-2.482c1.049,2.067,2.367,3.278,3.936,3.613c0.081,0.017,0.163,0.024,0.242,0.024
			c0.535,0,1.017-0.372,1.133-0.915c0.132-0.623-0.268-1.237-0.893-1.371c-0.973-0.206-1.895-1.278-2.668-3.072
			c0.716-0.411,1.544-0.651,2.427-0.651c2.683,0,4.864,2.18,4.864,4.854S68.434,55.126,65.751,55.126z M49.497,39.655h3.783
			c0.64,0,1.158-0.518,1.158-1.156c0-0.637-0.519-1.154-1.158-1.154h-3.783c-0.64,0-1.158,0.518-1.158,1.154
			C48.339,39.138,48.857,39.655,49.497,39.655z"/>
	</g>
</g>
<circle opacity="0" fill="#14A589" cx="55.616" cy="47.526" r="24.065"/>
<circle fill="none" stroke="#14A589" stroke-miterlimit="10" cx="55.616" cy="47.526" r="24.065"/>
</svg>
