<?xml version="1.0" encoding="utf-8"?>
<!-- Generator: Adobe Illustrator 16.0.0, SVG Export Plug-In . SVG Version: 6.00 Build 0)  -->
<!DOCTYPE svg PUBLIC "-//W3C//DTD SVG 1.1//EN" "http://www.w3.org/Graphics/SVG/1.1/DTD/svg11.dtd">
<svg version="1.1" id="Pictos_transports" xmlns="http://www.w3.org/2000/svg" xmlns:xlink="http://www.w3.org/1999/xlink" x="0px"
	 y="0px" width="113px" height="95.5px" viewBox="0 0 113 95.5" enable-background="new 0 0 113 95.5" xml:space="preserve">
<g>
	<path fill="#65D6C0" stroke="#14A589" stroke-miterlimit="10" d="M55.757,34.062c-8.457,0-15.312,6.854-15.312,15.311
		S47.3,64.685,55.757,64.685c8.456,0,15.312-6.855,15.312-15.312S64.213,34.062,55.757,34.062z M46.368,58.569
		c-4.113-4.113-2.254-5.129-1.916-5.186c0,0,3.889-0.225,4.34,0.451s1.746,1.746,2.93,2.648c1.184,0.9,0.789-0.057,1.24,2.986
		S50.482,62.683,46.368,58.569z M55.658,52.655c-1.468,0-2.657-1.189-2.657-2.656c0-1.469,1.189-2.66,2.657-2.66
		s2.657,1.191,2.657,2.66C58.315,51.466,57.126,52.655,55.658,52.655z M65.356,58.569c-4.143,4.113-7.092,3.943-6.639,0.9
		s0.057-2.086,1.248-2.986c1.191-0.902,2.496-1.973,2.95-2.648s4.37-0.451,4.37-0.451C67.626,53.44,69.498,54.456,65.356,58.569z
		 M64.966,46.679c-1.071-0.283-6.367-2.707-9.13-2.65c-2.761,0.057-9.186,2.654-10.481,3.215s-3.438,0.561-1.521-3.383
		s5.804-7.156,11.496-7.494c2.363-0.141,12.061,0.832,13.194,9.973C68.691,47.966,66.036,46.96,64.966,46.679z"/>
</g>
</svg>
