<?xml version="1.0" encoding="UTF-8" standalone="no"?>
<!-- Created with Inkscape (http://www.inkscape.org/) -->
<svg
   xmlns:dc="http://purl.org/dc/elements/1.1/"
   xmlns:cc="http://creativecommons.org/ns#"
   xmlns:rdf="http://www.w3.org/1999/02/22-rdf-syntax-ns#"
   xmlns:svg="http://www.w3.org/2000/svg"
   xmlns="http://www.w3.org/2000/svg"
   xmlns:sodipodi="http://sodipodi.sourceforge.net/DTD/sodipodi-0.dtd"
   xmlns:inkscape="http://www.inkscape.org/namespaces/inkscape"
   id="svg2"
   sodipodi:version="0.32"
   inkscape:version="0.46"
   width="528.17004"
   height="149.82089"
   xml:space="preserve"
   sodipodi:docname="Région Pays-de-la-Loire.svg"
   version="1.0"
   inkscape:output_extension="org.inkscape.output.svg.inkscape"><metadata
     id="metadata7"><rdf:RDF><cc:Work
         rdf:about=""><dc:format>image/svg+xml</dc:format><dc:type
           rdf:resource="http://purl.org/dc/dcmitype/StillImage" /></cc:Work></rdf:RDF></metadata><defs
     id="defs5"><inkscape:perspective
       sodipodi:type="inkscape:persp3d"
       inkscape:vp_x="0 : 526.18109 : 1"
       inkscape:vp_y="0 : 1000 : 0"
       inkscape:vp_z="744.09448 : 526.18109 : 1"
       inkscape:persp3d-origin="372.04724 : 350.78739 : 1"
       id="perspective9" /></defs><sodipodi:namedview
     inkscape:window-height="726"
     inkscape:window-width="645"
     inkscape:pageshadow="2"
     inkscape:pageopacity="0.0"
     guidetolerance="10.0"
     gridtolerance="10.0"
     objecttolerance="10.0"
     borderopacity="1.0"
     bordercolor="#666666"
     pagecolor="#ffffff"
     id="base"
     showgrid="false"
     inkscape:zoom="1.0509434"
     inkscape:cx="265"
     inkscape:cy="75.625"
     inkscape:window-x="369"
     inkscape:window-y="25"
     inkscape:current-layer="g11" /><g
     id="g11"
     inkscape:groupmode="layer"
     inkscape:label="PL"
     transform="matrix(1.25,0,0,-1.25,-1.1274413,150.3375)"><g
       id="g13"
       transform="scale(0.1,0.1)"><path
         d="M 1611.41,748.059 C 1611.84,749.277 1612.26,750.137 1612.26,751.355 C 1612.26,754.695 1609.33,757.617 1605.19,757.617 L 1559.53,757.617 C 1555.79,757.617 1552.87,754.289 1551.64,750.945 L 1501.81,627.234 C 1498.88,620.168 1496.4,618.906 1494.33,618.906 C 1492.67,618.906 1490.17,620.168 1487.28,627.234 L 1437.46,750.945 C 1436.21,754.289 1433.3,757.617 1429.57,757.617 L 1383.48,757.617 C 1379.33,757.617 1376.81,754.695 1376.81,751.355 C 1376.81,750.547 1377.25,749.277 1377.66,748.059 L 1419.91,650.957 C 1419.94,650.879 1419.96,650.82 1419.98,650.742 L 1465.69,545.703 L 1465.69,457.402 C 1465.69,452.852 1469,449.109 1473.58,449.109 L 1515.08,449.109 C 1519.67,449.109 1522.96,452.852 1522.96,457.402 L 1522.96,545.715 L 1549.72,607.188 L 1611.41,748.059"
         style="fill:#1960b1;fill-opacity:1;fill-rule:nonzero;stroke:none"
         id="path15" /><path
         d="M 1018.92,564.109 C 1008.14,564.109 991.52,565.371 981.949,565.781 L 981.949,457.375 C 981.949,452.812 978.57,449.121 974.047,449.121 L 932.516,449.121 C 927.965,449.121 924.262,452.812 924.262,457.375 L 924.262,743.098 C 924.262,751.367 929.203,754.297 937.535,755.547 C 959.137,758.855 988.598,760.957 1018.92,760.957 C 1082.87,760.957 1138.49,738.496 1138.49,665.02 L 1138.49,661.27 C 1138.49,587.793 1082.87,564.109 1018.92,564.109 z M 1081.16,665.02 C 1081.16,699.922 1060.41,713.164 1018.92,713.164 C 1010.2,713.164 989.449,712.383 981.949,711.523 L 981.949,612.688 C 988.598,612.285 1011.87,611.445 1018.92,611.445 C 1063.75,611.445 1081.16,628.008 1081.16,661.27 L 1081.16,665.02"
         style="fill:#1960b1;fill-opacity:1;fill-rule:nonzero;stroke:none"
         id="path17" /><path
         d="M 1383.04,449.121 L 1338.98,449.121 C 1335.32,449.121 1331.97,452.383 1331.12,456.125 L 1312.05,535.02 L 1216.53,535.02 L 1197.39,456.125 C 1196.57,452.383 1193.26,449.121 1189.52,449.121 L 1145.53,449.121 C 1141.33,449.121 1137.99,451.992 1137.99,456.125 C 1137.99,456.555 1138.41,457.375 1138.41,458.203 L 1206.53,718.613 C 1216.53,757.188 1246.42,760.957 1264.29,760.957 C 1282.15,760.957 1312.05,757.188 1322.05,718.613 L 1390.12,458.203 C 1390.12,457.375 1390.51,456.555 1390.51,456.125 C 1390.51,451.992 1387.16,449.121 1383.04,449.121 z M 1270.88,705.742 C 1269.66,710.691 1268.41,712.383 1264.29,712.383 C 1260.09,712.383 1258.84,710.691 1257.63,705.742 L 1227.71,582.344 L 1300.8,582.344 L 1270.88,705.742"
         style="fill:#1960b1;fill-opacity:1;fill-rule:nonzero;stroke:none"
         id="path19" /><path
         d="M 1725.88,445.754 C 1694.74,445.754 1672.32,448.652 1652.4,453.242 C 1648.27,454.043 1644.49,456.973 1644.49,461.555 L 1644.49,491.426 C 1644.49,495.996 1648.27,499.348 1652.4,499.348 C 1652.79,499.348 1652.79,499.348 1653.21,499.348 C 1669.87,497.246 1711.39,495.168 1726.73,495.168 C 1763.71,495.168 1774.88,508.457 1774.88,532.527 C 1774.88,548.738 1766.98,557.051 1739.61,573.281 L 1684.78,606.055 C 1646.13,628.895 1635.8,652.988 1635.8,682.051 C 1635.8,727.754 1662.36,760.957 1739.61,760.957 C 1766.98,760.957 1805.2,756.777 1819.29,753.469 C 1823.49,752.668 1826.8,749.727 1826.8,745.586 L 1826.8,714.844 C 1826.8,710.691 1823.88,707.363 1819.76,707.363 C 1819.29,707.363 1819.29,707.363 1818.9,707.363 C 1791.54,709.895 1764.1,711.523 1737.12,711.523 C 1706.38,711.523 1693.49,700.742 1693.49,682.051 C 1693.49,668.359 1700.58,660.039 1727.58,645.09 L 1777.41,617.266 C 1823.06,591.926 1835.09,565.371 1835.09,532.527 C 1835.09,490.566 1808.9,445.754 1725.88,445.754"
         style="fill:#1960b1;fill-opacity:1;fill-rule:nonzero;stroke:none"
         id="path21" /><path
         d="M 2081.38,445.754 C 2051.89,445.754 2012.03,448.652 1999.54,450.73 C 1992.5,451.992 1988.79,455.312 1988.79,463.613 L 1988.79,743.098 C 1988.79,751.367 1992.5,754.727 1999.54,755.938 C 2012.03,758.059 2051.89,760.957 2081.38,760.957 C 2164.41,760.957 2211.78,716.086 2211.78,633.895 L 2211.78,572.812 C 2211.78,490.566 2164.41,445.754 2081.38,445.754 z M 2154.45,633.895 C 2154.45,696.152 2122.88,712.383 2081.38,712.383 C 2066.01,712.383 2055.19,711.523 2046.48,711.105 L 2046.48,495.586 C 2055.19,495.168 2066.01,494.348 2081.38,494.348 C 2122.88,494.348 2154.45,510.52 2154.45,572.812 L 2154.45,633.895"
         style="fill:#1960b1;fill-opacity:1;fill-rule:nonzero;stroke:none"
         id="path23" /><path
         d="M 2433.89,451.582 C 2420.61,449.52 2404.41,445.754 2355.02,445.754 C 2301.02,445.754 2259.08,460.293 2259.08,530.859 L 2259.08,675.84 C 2259.08,746.406 2301.02,760.957 2355.02,760.957 C 2404.41,760.957 2420.61,757.188 2433.89,755.117 C 2440.16,754.297 2442.21,752.227 2442.21,746.406 L 2442.21,719.855 C 2442.21,715.266 2438.44,711.523 2433.89,711.523 L 2349.16,711.523 C 2325.1,711.523 2316.43,703.203 2316.43,675.84 L 2316.43,630.957 L 2428.91,630.957 C 2433.5,630.957 2437.23,627.266 2437.23,622.637 L 2437.23,592.734 C 2437.23,588.203 2433.5,584.453 2428.91,584.453 L 2316.43,584.453 L 2316.43,530.859 C 2316.43,503.496 2325.1,495.168 2349.16,495.168 L 2433.89,495.168 C 2438.44,495.168 2442.21,491.426 2442.21,486.875 L 2442.21,460.293 C 2442.21,454.492 2440.16,452.383 2433.89,451.582"
         style="fill:#1960b1;fill-opacity:1;fill-rule:nonzero;stroke:none"
         id="path25" /><path
         d="M 2768.61,451.582 C 2756.11,448.652 2720.04,445.754 2698.05,445.754 C 2643.98,445.754 2602.11,460.293 2602.11,530.859 L 2602.11,749.289 C 2602.11,753.895 2605.76,757.617 2610.35,757.617 L 2651.46,757.617 C 2656.05,757.617 2659.75,753.895 2659.75,749.289 L 2659.75,530.859 C 2659.75,503.496 2668.12,495.168 2692.25,495.168 L 2768.61,495.168 C 2773.16,495.168 2776.91,491.426 2776.91,486.875 L 2776.91,460.293 C 2776.91,454.492 2774.84,452.812 2768.61,451.582"
         style="fill:#1960b1;fill-opacity:1;fill-rule:nonzero;stroke:none"
         id="path27" /><path
         d="M 3038.14,449.121 L 2994.12,449.121 C 2990.35,449.121 2987.05,452.383 2986.23,456.125 L 2967.15,535.02 L 2871.6,535.02 L 2852.46,456.125 C 2851.68,452.383 2848.32,449.121 2844.59,449.121 L 2800.61,449.121 C 2796.41,449.121 2793.12,451.992 2793.12,456.125 C 2793.12,456.555 2793.52,457.375 2793.52,458.203 L 2861.6,718.613 C 2871.6,757.188 2901.48,760.957 2919.36,760.957 C 2937.27,760.957 2967.15,757.188 2977.07,718.613 L 3045.2,458.203 C 3045.2,457.375 3045.59,456.555 3045.59,456.125 C 3045.59,451.992 3042.27,449.121 3038.14,449.121 z M 2926.02,705.742 C 2924.73,710.691 2923.52,712.383 2919.36,712.383 C 2915.2,712.383 2913.95,710.691 2912.77,705.742 L 2882.85,582.344 L 2955.9,582.344 L 2926.02,705.742"
         style="fill:#1960b1;fill-opacity:1;fill-rule:nonzero;stroke:none"
         id="path29" /><path
         d="M 3354.96,451.582 C 3342.52,448.652 3306.39,445.754 3284.43,445.754 C 3230.41,445.754 3188.42,460.293 3188.42,530.859 L 3188.42,749.289 C 3188.42,753.895 3192.17,757.617 3196.76,757.617 L 3237.85,757.617 C 3242.44,757.617 3246.19,753.895 3246.19,749.289 L 3246.19,530.859 C 3246.19,503.496 3254.51,495.168 3278.57,495.168 L 3354.96,495.168 C 3359.57,495.168 3363.26,491.426 3363.26,486.875 L 3363.26,460.293 C 3363.26,454.492 3361.19,452.812 3354.96,451.582"
         style="fill:#1960b1;fill-opacity:1;fill-rule:nonzero;stroke:none"
         id="path31" /><path
         d="M 3498.16,445.754 C 3429.67,445.754 3379.8,483.957 3379.8,575.305 L 3379.8,631.387 C 3379.8,722.734 3429.67,760.957 3498.16,760.957 C 3566.7,760.957 3616.52,722.734 3616.52,631.387 L 3616.52,575.305 C 3616.52,483.957 3566.7,445.754 3498.16,445.754 z M 3558.38,631.387 C 3558.38,686.191 3538.85,710.691 3498.16,710.691 C 3457.46,710.691 3437.95,686.191 3437.95,631.387 L 3437.95,575.305 C 3437.95,520.469 3457.46,495.996 3498.16,495.996 C 3538.85,495.996 3558.38,520.469 3558.38,575.305 L 3558.38,631.387"
         style="fill:#1960b1;fill-opacity:1;fill-rule:nonzero;stroke:none"
         id="path33" /><path
         d="M 3719.94,449.121 L 3678.85,449.121 C 3674.26,449.121 3670.55,452.812 3670.55,457.375 L 3670.55,749.727 C 3670.55,754.297 3674.26,757.617 3678.85,757.617 L 3719.94,757.617 C 3724.49,757.617 3728.24,754.297 3728.24,749.727 L 3728.24,457.375 C 3728.24,452.812 3724.49,449.121 3719.94,449.121"
         style="fill:#1960b1;fill-opacity:1;fill-rule:nonzero;stroke:none"
         id="path35" /><path
         d="M 4009.79,449.121 L 3959.08,449.121 C 3954.57,449.121 3952.85,453.242 3950.82,457.375 L 3891.02,568.262 L 3885.21,568.262 C 3874.36,568.262 3857.77,569.504 3848.2,569.934 L 3848.2,457.375 C 3848.2,452.812 3844.92,449.121 3840.29,449.121 L 3798.85,449.121 C 3794.26,449.121 3790.55,452.812 3790.55,457.375 L 3790.55,743.098 C 3790.55,751.367 3795.53,754.297 3803.83,755.547 C 3825.43,758.855 3854.88,760.957 3885.21,760.957 C 3949.2,760.957 4004.75,738.098 4004.75,667.082 L 4004.75,663.34 C 4004.75,619.289 3982.79,591.926 3948.69,578.652 L 4013.96,457.375 C 4014.75,456.125 4014.75,454.883 4014.75,454.043 C 4014.75,451.172 4013.07,449.121 4009.79,449.121 z M 3947.52,667.082 C 3947.52,698.293 3926.7,711.523 3885.21,711.523 C 3876.48,711.523 3855.7,710.691 3848.2,709.895 L 3848.2,616.426 C 3854.88,616.016 3878.12,615.156 3885.21,615.156 C 3927.99,615.156 3947.52,626.816 3947.52,663.34 L 3947.52,667.082"
         style="fill:#1960b1;fill-opacity:1;fill-rule:nonzero;stroke:none"
         id="path37" /><path
         d="M 4226.09,451.582 C 4212.77,449.52 4196.58,445.754 4147.19,445.754 C 4093.16,445.754 4051.21,460.293 4051.21,530.859 L 4051.21,675.84 C 4051.21,746.406 4093.16,760.957 4147.19,760.957 C 4196.58,760.957 4212.77,757.188 4226.09,755.117 C 4232.32,754.297 4234.38,752.227 4234.38,746.406 L 4234.38,719.855 C 4234.38,715.266 4230.68,711.523 4226.09,711.523 L 4141.33,711.523 C 4117.27,711.523 4108.55,703.203 4108.55,675.84 L 4108.55,630.957 L 4221.07,630.957 C 4225.66,630.957 4229.39,627.266 4229.39,622.637 L 4229.39,592.734 C 4229.39,588.203 4225.66,584.453 4221.07,584.453 L 4108.55,584.453 L 4108.55,530.859 C 4108.55,503.496 4117.27,495.168 4141.33,495.168 L 4226.09,495.168 C 4230.68,495.168 4234.38,491.426 4234.38,486.875 L 4234.38,460.293 C 4234.38,454.492 4232.32,452.383 4226.09,451.582"
         style="fill:#1960b1;fill-opacity:1;fill-rule:nonzero;stroke:none"
         id="path39" /><path
         d="M 1020.54,877.781 L 998.227,877.781 C 996.215,877.781 995.523,879.629 994.566,881.445 L 968.227,930.273 L 965.648,930.273 C 960.902,930.273 953.609,930.84 949.371,931.016 L 949.371,881.445 C 949.371,879.414 947.906,877.781 945.914,877.781 L 927.633,877.781 C 925.621,877.781 923.961,879.414 923.961,881.445 L 923.961,1007.31 C 923.961,1010.96 926.168,1012.26 929.801,1012.81 C 939.332,1014.25 952.301,1015.18 965.648,1015.18 C 993.852,1015.18 1018.38,1005.11 1018.38,973.809 L 1018.38,972.188 C 1018.38,952.766 1008.66,940.691 993.656,934.863 L 1022.38,881.445 C 1022.75,880.891 1022.75,880.344 1022.75,879.98 C 1022.75,878.699 1022.01,877.781 1020.54,877.781 z M 993.102,973.809 C 993.102,987.551 983.941,993.398 965.648,993.398 C 961.832,993.398 952.68,993.047 949.371,992.668 L 949.371,951.516 C 952.301,951.316 962.574,950.977 965.648,950.977 C 984.508,950.977 993.102,956.062 993.102,972.188 L 993.102,973.809"
         style="fill:#701b79;fill-opacity:1;fill-rule:nonzero;stroke:none"
         id="path41" /><path
         d="M 1121.86,920.945 L 1062.21,920.945 L 1062.21,920.41 C 1062.21,909.785 1066.62,897.18 1084.2,897.18 C 1097.52,897.18 1110.15,898.262 1117.84,898.984 C 1118.01,898.984 1118.21,898.984 1118.4,898.984 C 1120.22,898.984 1121.7,898.066 1121.7,896.277 L 1121.7,884.18 C 1121.7,881.23 1121.15,879.98 1117.84,879.414 C 1105.95,877.246 1098.79,876.316 1082.34,876.316 C 1064.03,876.316 1038.05,886.211 1038.05,922.246 L 1038.05,935.762 C 1038.05,964.324 1054,982.273 1081.99,982.273 C 1110.15,982.273 1125.52,963.047 1125.52,935.762 L 1125.52,925.539 C 1125.52,922.617 1124.42,920.945 1121.86,920.945 z M 1101.2,938.879 C 1101.2,953.152 1093.36,961.367 1081.99,961.367 C 1070.61,961.367 1062.4,953.332 1062.4,938.879 L 1062.4,938.164 L 1101.2,938.164 L 1101.2,938.879 z M 1112,1017.53 L 1090.39,994.844 C 1088.92,993.203 1088.2,992.488 1086.02,992.488 L 1070.29,992.488 C 1069.18,992.488 1068.62,993.047 1068.62,993.789 C 1068.62,994.324 1068.83,995.066 1069.37,995.586 L 1086.71,1017.53 C 1088.38,1019.55 1089.12,1020.3 1091.5,1020.3 L 1110.7,1020.3 C 1112,1020.3 1112.75,1019.75 1112.75,1019.02 C 1112.75,1018.65 1112.54,1018.1 1112,1017.53"
         style="fill:#701b79;fill-opacity:1;fill-rule:nonzero;stroke:none"
         id="path43" /><path
         d="M 1236.76,964.324 L 1230.72,961.902 C 1233.63,957.707 1235.27,953.699 1235.27,947.297 L 1235.27,945.996 C 1235.27,923.152 1219.55,912.727 1191.93,912.727 C 1182.24,912.727 1175.63,914.363 1172,915.82 C 1169.77,914.363 1168.9,912.727 1168.9,911.086 C 1168.9,907.422 1170.89,905.969 1175.09,905.039 L 1196.7,899.914 C 1221.57,894.043 1237.65,890.234 1237.65,870.664 L 1237.65,869.363 C 1237.65,850.691 1223.94,840.664 1192.84,840.664 C 1163.23,840.664 1147.48,851.816 1147.48,871.016 L 1147.48,872.656 C 1147.48,880.168 1150.97,887.48 1156.78,892.766 C 1151.71,896.621 1148.58,903.008 1148.58,909.629 L 1148.58,909.785 C 1148.58,915.48 1150.97,921.164 1155.89,924.609 C 1150.39,930.273 1148.38,936.887 1148.38,945.996 L 1148.38,947.297 C 1148.38,965.566 1160.29,980.957 1191.93,980.957 L 1234.74,980.957 C 1237.48,980.957 1239.66,978.762 1239.66,976.035 L 1239.66,968.332 C 1239.66,965.566 1238.94,965.215 1236.76,964.324 z M 1213.53,870.664 C 1213.53,874.648 1211.15,877.051 1191.93,881.621 L 1175.63,885.469 C 1172.93,881.621 1171.07,879.238 1171.07,872.656 L 1171.07,871.016 C 1171.07,863.508 1175.63,858.918 1192.84,858.918 C 1210.39,858.918 1213.53,862.781 1213.53,869.363 L 1213.53,870.664 z M 1211.5,946.941 C 1211.5,955.715 1207.65,962.473 1191.93,962.473 C 1176.39,962.473 1172.16,955.539 1172.16,946.941 L 1172.16,945.469 C 1172.16,938.699 1174.92,931.016 1191.93,931.016 C 1207.12,931.016 1211.5,936.316 1211.5,945.469 L 1211.5,946.941"
         style="fill:#701b79;fill-opacity:1;fill-rule:nonzero;stroke:none"
         id="path45" /><path
         d="M 1281.93,994.68 L 1264.2,994.68 C 1262.15,994.68 1260.36,996.34 1260.36,998.379 L 1260.36,1014.45 C 1260.36,1016.46 1262.15,1018.1 1264.2,1018.1 L 1281.93,1018.1 C 1283.95,1018.1 1285.59,1016.46 1285.59,1014.45 L 1285.59,998.379 C 1285.59,996.34 1283.95,994.68 1281.93,994.68 z M 1281.39,877.781 L 1264.55,877.781 C 1262.55,877.781 1260.89,879.629 1260.89,881.621 L 1260.89,977.297 C 1260.89,979.309 1262.55,980.957 1264.55,980.957 L 1281.39,980.957 C 1283.38,980.957 1285.02,979.309 1285.02,977.297 L 1285.02,881.621 C 1285.02,879.629 1283.38,877.781 1281.39,877.781"
         style="fill:#701b79;fill-opacity:1;fill-rule:nonzero;stroke:none"
         id="path47" /><path
         d="M 1353.67,876.316 C 1324.92,876.316 1309.94,895.715 1309.94,921.875 L 1309.94,936.688 C 1309.94,962.852 1324.92,982.273 1353.67,982.273 C 1382.39,982.273 1397.37,962.852 1397.37,936.688 L 1397.37,921.875 C 1397.37,895.715 1382.39,876.316 1353.67,876.316 z M 1373.24,936.688 C 1373.24,951.688 1366.48,961.367 1353.67,961.367 C 1340.86,961.367 1334.08,951.688 1334.08,936.688 L 1334.08,921.875 C 1334.08,906.887 1340.86,897.18 1353.67,897.18 C 1366.48,897.18 1373.24,906.887 1373.24,921.875 L 1373.24,936.688"
         style="fill:#701b79;fill-opacity:1;fill-rule:nonzero;stroke:none"
         id="path49" /><path
         d="M 1502.56,877.781 L 1485.75,877.781 C 1483.7,877.781 1482.07,879.629 1482.07,881.621 L 1482.07,941.27 C 1482.07,957.168 1480.6,961.73 1466.51,961.73 C 1460.32,961.73 1453.56,959.199 1445.86,955.145 L 1445.86,881.621 C 1445.86,879.629 1444.23,877.781 1442.18,877.781 L 1425.38,877.781 C 1423.34,877.781 1421.71,879.629 1421.71,881.621 L 1421.71,977.297 C 1421.71,979.309 1423.34,980.957 1425.38,980.957 L 1441.29,980.957 C 1443.3,980.957 1444.93,979.309 1444.93,977.297 L 1444.93,973.469 C 1455.55,980.234 1462.5,982.273 1474.59,982.273 C 1500.94,982.273 1506.25,964.504 1506.25,941.27 L 1506.25,881.621 C 1506.25,879.629 1504.57,877.781 1502.56,877.781"
         style="fill:#701b79;fill-opacity:1;fill-rule:nonzero;stroke:none"
         id="path51" /><path
         d="M 444.965,603.555 C 444.965,834.797 355.27,1044.96 208.676,1202.7 L 9.21484,1202.7 C 188.961,1064.2 304.918,847.422 304.918,603.555 C 304.918,359.18 188.961,142.617 9.01953,4.13281 L 208.676,4.13281 C 355.27,161.77 444.965,372.102 444.965,603.555"
         style="fill:#00abc4;fill-opacity:1;fill-rule:nonzero;stroke:none"
         id="path53" /><path
         d="M 546.109,600.527 C 546.109,824.434 474.859,1032.25 353.617,1202.7 L 629.32,1202.7 C 730.465,1024.65 788.219,819.102 788.219,600.527 C 788.219,384.055 731.723,180.645 632.934,4.13281 L 357.387,4.13281 C 476.352,173.352 546.109,378.699 546.109,600.527"
         style="fill:#a8da3c;fill-opacity:1;fill-rule:nonzero;stroke:none"
         id="path55" /></g></g></svg>