<?xml version="1.0" encoding="utf-8"?>
<!-- Generator: Adobe Illustrator 16.0.0, SVG Export Plug-In . SVG Version: 6.00 Build 0)  -->
<!DOCTYPE svg PUBLIC "-//W3C//DTD SVG 1.1//EN" "http://www.w3.org/Graphics/SVG/1.1/DTD/svg11.dtd">
<svg version="1.1" id="Calque_1" xmlns="http://www.w3.org/2000/svg" xmlns:xlink="http://www.w3.org/1999/xlink" x="0px" y="0px"
	 width="849px" height="406px" viewBox="47.5 67.5 849 406" enable-background="new 47.5 67.5 849 406" xml:space="preserve">
<g>
	<g>
		<rect x="68.932" y="346.033" fill="#FFFFFF" width="56.283" height="28.142"/>
		<rect x="68.932" y="379.803" fill="#FFFFFF" width="56.283" height="28.143"/>
		<polygon fill="#FFFFFF" points="114.013,248.538 130.123,266.253 161.167,242.894 175.869,254.917 175.869,407.943 
			204.011,407.943 204.011,251.287 159.012,211.372 		"/>
		<rect x="232.152" y="284.122" fill="#FFFFFF" width="16.885" height="123.821"/>
		<path fill="#F46F61" d="M175.869,75.757v67.658H85.817V72.379c-16.885,13.205-31.94,35.578-31.94,60.966
			c0,40.574,33.457,73.473,74.273,73.473c40.838,0,74.889-32.898,74.889-73.473C203.039,109.988,192.754,89.214,175.869,75.757z"/>
		<path fill="#F46F61" d="M102.702,188.44v95.682h22.65c0,0-22.684-22.81-19.962-31.863c2.72-9.056,0.324-11.375,16.643-23.159
			c16.319-11.792,25.696-22.277,25.696-22.277V188.44H102.702z"/>
		<path fill="#F46F61" d="M147.728,259.905l-19.353,18.375c0,0,6.64,121.179,4.826,129.336c-1.813,8.146-8.75,5.957-19.188,5.957
			s-10.426,0-10.426,0l-0.885,1.12v32.649h45.026V259.905z"/>
		<path fill="#F46F61" d="M125.215,427.259c12.433,0,22.513,8.933,22.513,19.952c0,11.026-10.081,19.963-22.513,19.963
			c-12.432,0-22.513-8.937-22.513-19.963C102.702,436.19,112.782,427.259,125.215,427.259z"/>
		<rect x="68.932" y="284.122" fill="#FFFFFF" width="56.283" height="22.513"/>
		<rect x="68.932" y="317.893" fill="#FFFFFF" width="56.283" height="22.514"/>
	</g>
	<polygon fill="none" points="627.854,137.753 627.606,129.269 627.359,137.753 	"/>
	<path fill="#BA4C40" d="M525.144,208.14c0,11.708-8.437,19.699-18.842,19.699h-30.17c-10.405,0-18.847-7.991-18.847-19.699l0,0
		c0-11.712,8.441-19.699,18.847-19.699h30.17C516.707,188.44,525.144,196.427,525.144,208.14L525.144,208.14z"/>
	<path fill="#BA4C40" d="M889.856,208.14c0,11.708-8.08,19.699-18.062,19.699h-28.9c-9.977,0-18.062-7.991-18.062-19.699l0,0
		c0-11.712,8.085-19.699,18.062-19.699h28.9C881.776,188.44,889.856,196.427,889.856,208.14L889.856,208.14z"/>
	<path fill="#AAA4A3" d="M547.338,412.012c0,19.514-15.818,35.331-35.331,35.331h-2.512c-19.513,0-35.325-15.817-35.325-35.331
		v-30.646c0-19.512,15.812-35.325,35.325-35.325h2.512c19.513,0,35.331,15.823,35.331,35.325V412.012z"/>
	<path fill="#AAA4A3" d="M879.407,412.012c0,19.514-15.823,35.331-35.33,35.331h-2.506c-19.514,0-35.326-15.817-35.326-35.331
		v-30.646c0-19.512,15.817-35.325,35.326-35.325h2.506c19.512,0,35.33,15.823,35.33,35.325V412.012z"/>
	<path fill="#F46F61" d="M881.354,316.825c-2.683-34.632-17.468-71.387-17.468-71.387c-21.508-32.514-48.385-75.724-48.385-75.724
		c-24.188-43.823-49.721-37.551-49.721-37.551h-88.689l0.242,5.629h-0.495l0.253-5.629h-89.294c0,0-25.537-6.263-49.721,37.551
		c0,0-26.866,44.229-48.379,76.743c0,0-14.78,36.247-17.474,70.874c0,0-6.717,63.353,20.154,76.075c0,0,10.762,8.91,63.165,8.91
		h85.254h28.229h16.114h36.293h76.604c52.408,0,63.159-9.174,63.159-9.174C888.081,380.419,881.354,316.825,881.354,316.825z
		 M676.789,220.685v0.006c0,0.005,0,0.005,0,0.011c0-0.005,0-0.005,0-0.011V220.685c-45.026-0.552-88.239-1.239-149.326-2.105
		l26.042-45.241c24.041-35.339,39.529-26.149,39.529-26.149l82.683,0.698l82.683-0.698c0,0,15.544-9.19,39.574,26.149l27.048,45.241
		C763.939,219.44,710.559,220.133,676.789,220.685z"/>
	<path fill="#F46F61" d="M676.789,221.862v0.005V221.862z"/>
	<path fill="#F46F61" d="M676.789,221.867v-0.005V221.867z"/>
	<rect x="491.055" y="284.122" fill="#FFFFFF" width="84.426" height="45.026"/>
	<rect x="772.471" y="284.122" fill="#FFFFFF" width="90.054" height="45.026"/>
	<rect x="592.364" y="284.122" fill="#BA4C40" width="11.256" height="45.026"/>
	<path fill="#BA4C40" d="M677.816,346.033h-4.243h-89.091c0,0,2.818,25.68,24.029,32.158c9.563,2.931,38.403,4.15,67.184,3.591
		c28.772,0.565,57.597-1.134,67.16-4.062c21.211-6.479,24.028-31.688,24.028-31.688L677.816,346.033L677.816,346.033z"/>
	<path fill="#BA4C40" d="M547.766,346.033l26.856,42.52c0,0-38.173,2.002-46.654,0c-8.479-1.994-35.341-13.322-29.68-30.273
		c5.65-16.961-0.781-12.245-0.781-12.245L547.766,346.033L547.766,346.033z"/>
	<path fill="#BA4C40" d="M804.261,346.033l-26.849,42.52c0,0,38.166,2.002,46.652,0c8.476-1.994,35.337-13.322,29.68-30.273
		c-5.649-16.961,0.782-12.245,0.782-12.245L804.261,346.033L804.261,346.033z"/>
	<rect x="611.364" y="284.122" fill="#BA4C40" width="11.256" height="45.026"/>
	<rect x="631.236" y="284.122" fill="#BA4C40" width="11.256" height="45.026"/>
	<rect x="650.236" y="284.122" fill="#BA4C40" width="11.256" height="45.026"/>
	<rect x="670.364" y="284.122" fill="#BA4C40" width="11.256" height="45.026"/>
	<rect x="689.364" y="284.122" fill="#BA4C40" width="11.256" height="45.026"/>
	<rect x="708.364" y="284.122" fill="#BA4C40" width="11.256" height="45.026"/>
	<rect x="727.364" y="284.122" fill="#BA4C40" width="11.256" height="45.026"/>
	<rect x="747.156" y="284.122" fill="#BA4C40" width="11.256" height="45.026"/>
</g>
</svg>
