<?xml version="1.0" encoding="utf-8"?>
<!-- Generator: Adobe Illustrator 16.0.0, SVG Export Plug-In . SVG Version: 6.00 Build 0)  -->
<!DOCTYPE svg PUBLIC "-//W3C//DTD SVG 1.1//EN" "http://www.w3.org/Graphics/SVG/1.1/DTD/svg11.dtd">
<svg version="1.1" id="Calque_1" xmlns="http://www.w3.org/2000/svg" xmlns:xlink="http://www.w3.org/1999/xlink" x="0px" y="0px"
	 width="595.28px" height="300px" viewBox="0 0 595.28 300" enable-background="new 0 0 595.28 300" xml:space="preserve">
<defs>
  <style type="text/css">
    @font-face {
	    font-family: 'Roboto';
	    src: url('../../fonts/roboto/Roboto-Thin.eot');
	    src: url('../../fonts/roboto/Roboto-Thin.eot?#iefix') format('embedded-opentype'),
	         url('../../fonts/roboto/Roboto-Thin.woff') format('woff'),
	         url('../../fonts/roboto/Roboto-Thin.ttf') format('truetype'),
	         url('../../fonts/roboto/Roboto-Thin.svg#Roboto') format('svg');
	}
  </style>
</defs>
<line fill="none" stroke="#706F6F" stroke-width="0.5" stroke-miterlimit="10" x1="274.598" y1="74.82" x2="274.598" y2="121.189"/>
<rect x="250.37" y="56.506" fill="none" width="49.08" height="25.203"/>
<text transform="matrix(1 0 0 1 262.6348 64.8813)" fill="#706F6F" font-family="'Roboto'" letter-spacing="1px" font-size="11">Paris</text>
<line fill="none" stroke="#706F6F" stroke-width="0.5" stroke-miterlimit="10" x1="166.949" y1="184.003" x2="120.58" y2="184.003"/>
<rect x="63.37" y="176.173" fill="none" width="49.08" height="25.202"/>
<text transform="matrix(1 0 0 1 77.8486 184.5522)" fill="#706F6F" font-family="'Roboto'" letter-spacing="1px" font-size="11">Nantes</text>
<line fill="none" stroke="#706F6F" stroke-width="0.5" stroke-miterlimit="10" x1="245.615" y1="244.003" x2="199.246" y2="244.003"/>
<rect x="112.037" y="235.173" fill="none" width="78.081" height="25.202"/>
<text transform="matrix(1 0 0 1 164.3525 243.5522)" fill="#706F6F" font-family="'Roboto'" letter-spacing="1px" font-size="11">Laval</text>
<line fill="none" stroke="#706F6F" stroke-width="0.5" stroke-miterlimit="10" x1="427.782" y1="151.002" x2="381.413" y2="151.002"/>
<rect x="436.703" y="143.172" fill="none" width="96.297" height="25.434"/>
<text transform="matrix(1 0 0 1 436.7031 151.5513)" fill="#706F6F" font-family="'Roboto'" letter-spacing="1px" font-size="11">Rennes</text>
<line fill="none" stroke="#706F6F" stroke-width="0.5" stroke-miterlimit="10" x1="436.449" y1="196.003" x2="390.08" y2="196.003"/>
<rect x="445.37" y="188.173" fill="none" width="49.08" height="25.202"/>
<text transform="matrix(1 0 0 1 445.3701 196.5503)" fill="#706F6F" font-family="'Roboto'" letter-spacing="1px" font-size="11">Cholet</text>
<ellipse fill="#F05F59" cx="341.479" cy="162.596" rx="30.397" ry="14.662"/>
<polygon fill="#F05F59" points="372,134.606 372,162.962 311,162.928 311,134.606 "/>
<ellipse fill="#E05B5A" cx="341.5" cy="134.915" rx="30.5" ry="13.445"/>
<ellipse fill="#F09748" cx="207.479" cy="217.596" rx="30.397" ry="14.662"/>
<polygon fill="#F09748" points="238,169.606 238,218.961 177,218.904 177,169.606 "/>
<ellipse fill="#E06C3A" cx="207.5" cy="169.915" rx="30.5" ry="13.445"/>
<ellipse fill="#64BBAE" cx="272.479" cy="186.596" rx="30.397" ry="14.662"/>
<polygon fill="#64BBAE" points="303,142.606 303,187.454 242,187.401 242,142.606 "/>
<ellipse fill="#46B2A0" cx="272.5" cy="142.915" rx="30.5" ry="13.445"/>
<ellipse fill="#F05F59" cx="286.479" cy="240.596" rx="30.397" ry="14.662"/>
<polygon fill="#F05F59" points="317,204.606 317,240.954 256,240.911 256,204.606 "/>
<ellipse fill="#E05B5A" cx="286.5" cy="204.915" rx="30.5" ry="13.445"/>
<ellipse fill="#F09748" cx="351.479" cy="206.596" rx="30.397" ry="14.662"/>
<polygon fill="#F09748" points="382,186.606 382,205.301 321,205.279 321,186.606 "/>
<ellipse fill="#E06C3A" cx="351.5" cy="186.915" rx="30.5" ry="13.445"/>
</svg>
