<?xml version="1.0" encoding="utf-8"?>
<!-- Generator: Adobe Illustrator 16.0.0, SVG Export Plug-In . SVG Version: 6.00 Build 0)  -->
<!DOCTYPE svg PUBLIC "-//W3C//DTD SVG 1.1//EN" "http://www.w3.org/Graphics/SVG/1.1/DTD/svg11.dtd">
<svg version="1.1" id="Calque_1" xmlns="http://www.w3.org/2000/svg" xmlns:xlink="http://www.w3.org/1999/xlink" x="0px" y="0px"
	 width="1181.768px" height="989.803px" viewBox="0 0 1181.768 989.803" enable-background="new 0 0 1181.768 989.803"
	 xml:space="preserve">
<defs>
  <style type="text/css">
    @font-face {
	    font-family: 'Roboto';
	    src: url('../../fonts/roboto/Roboto-Thin.eot');
	    src: url('../../fonts/roboto/Roboto-Thin.eot?#iefix') format('embedded-opentype'),
	         url('../../fonts/roboto/Roboto-Thin.woff') format('woff'),
	         url('../../fonts/roboto/Roboto-Thin.ttf') format('truetype'),
	         url('../../fonts/roboto/Roboto-Thin.svg#Roboto') format('svg');
	}
  </style>
</defs>
<line fill="none" stroke="#717070" stroke-width="0.5" stroke-miterlimit="10" x1="-10.359" y1="269.742" x2="-10.359" y2="331.559"/>
<line fill="none" stroke="#717070" stroke-width="0.5" stroke-miterlimit="10" x1="194.804" y1="379.156" x2="194.804" y2="775.28"/>
<line fill="none" stroke="#717070" stroke-width="0.5" stroke-miterlimit="10" x1="486.533" y1="380.735" x2="486.533" y2="790.324"/>
<line fill="none" stroke="#717070" stroke-width="0.5" stroke-miterlimit="10" x1="734.268" y1="377.401" x2="734.268" y2="834.872"/>
<rect x="-153.019" y="229.742" fill="none" width="287.25" height="67"/>
<g>
	<path fill="none" stroke="#FFFFFF" stroke-width="3.5818" stroke-miterlimit="10" d="M1237.297,872.943"/>
</g>
<g>
	<path fill="none" stroke="#FFFFFF" stroke-width="3.5818" stroke-miterlimit="10" d="M1226.297,872.943"/>
</g>
<g id="Calque_3">
	<ellipse fill="#F19849" cx="194.771" cy="872.85" rx="37.709" ry="12.312"/>
	<polygon fill="#F19849" points="232.804,804.764 232.804,872.739 156.804,872.66 156.804,804.764 	"/>
	<ellipse fill="#DF6C39" cx="194.859" cy="805.148" rx="37.797" ry="11.293"/>
	<g>
		<polygon fill="none" points="169.393,93.357 169.257,88.641 169.113,93.357 		"/>
		<path fill="#73A6AB" d="M112.356,134.778c0,6.5-4.68,9.675-10.469,9.675H85.145c-5.781,0-10.468-3.175-10.468-9.675l0,0
			c0-6.501,4.687-9.675,10.468-9.675h16.742C107.677,125.104,112.356,128.277,112.356,134.778L112.356,134.778z"/>
		<path fill="#73A6AB" d="M314.864,134.778c0,6.5-4.488,9.675-10.029,9.675h-16.046c-5.541,0-10.03-3.175-10.03-9.675l0,0
			c0-6.501,4.49-9.675,10.03-9.675h16.046C310.375,125.104,314.864,128.277,314.864,134.778L314.864,134.778z"/>
		<path fill="#AAA4A3" d="M126.529,248.666c0,10.843-8.782,19.623-19.614,19.623h-3.326c-10.839,0-19.622-8.787-19.622-19.623
			v-14.932c0-10.831,8.791-19.614,19.622-19.614h3.326c10.832,0,19.614,8.79,19.614,19.614V248.666z"/>
		<path fill="#AAA4A3" d="M308.416,248.666c0,10.843-8.79,19.623-19.621,19.623h-3.318c-10.839,0-19.622-8.787-19.622-19.623
			v-14.932c0-10.831,8.783-19.614,19.622-19.614h3.318c10.839,0,19.621,8.79,19.621,19.614V248.666z"/>
		<path fill="#92CED7" d="M310.141,192.783c-1.489-19.233-9.698-39.637-9.698-39.637c-11.941-18.058-26.862-42.034-26.862-42.034
			c-13.432-24.323-27.604-20.839-27.604-20.839h-49.252l0.136,7.74h-0.271l0.136-7.74h-49.576c0,0-14.18-3.483-27.609,20.839
			c0,0-14.913,24.558-26.856,42.608c0,0-8.216,20.121-9.706,39.358c0,0-3.726,35.638,11.194,42.705c0,0,5.971,5.419,35.072,5.419
			h47.332h15.669h8.948h20.151h42.532c29.107,0,35.071-5.567,35.071-5.567C313.875,228.572,310.141,192.783,310.141,192.783z
			 M196.188,139.396v0.008c0,0.007,0,0.007,0,0.007s0,0,0-0.007V139.396c-19.349-0.302-48.805-0.684-82.728-1.167l14.558-25.114
			c13.349-19.615,21.995-14.521,21.995-14.521l45.933,0.393l45.927-0.393c0,0,8.631-5.095,21.979,14.521l14.831,25.114
			C244.767,138.712,215.538,139.094,196.188,139.396z"/>
		<path fill="#EE7165" d="M196.188,140.054v0.008C196.188,140.054,196.188,140.054,196.188,140.054z"/>
		<path fill="#EE7165" d="M196.188,140.062v-0.008C196.188,140.054,196.188,140.054,196.188,140.062z"/>
		<rect x="99.439" y="175.413" fill="#FFFFFF" width="42.569" height="23.219"/>
		<rect x="254.237" y="175.413" fill="#FFFFFF" width="46.439" height="23.219"/>
		<rect x="149.748" y="175.413" fill="#73A6AB" width="7.739" height="23.219"/>
		<rect x="165.228" y="175.413" fill="#73A6AB" width="7.74" height="23.219"/>
		
			<rect x="175.979" y="175.336" transform="matrix(-0.9999 0.014 -0.014 -0.9999 361.6128 371.2209)" fill="#73A6AB" width="7.061" height="23.074"/>
		<rect x="188.448" y="175.413" fill="#73A6AB" width="7.739" height="23.219"/>
		<rect x="200.058" y="175.413" fill="#73A6AB" width="7.74" height="23.219"/>
		<rect x="211.667" y="175.413" fill="#73A6AB" width="7.74" height="23.219"/>
		<rect x="223.277" y="175.413" fill="#73A6AB" width="7.74" height="23.219"/>
		<rect x="238.758" y="175.413" fill="#73A6AB" width="7.74" height="23.219"/>
		<path fill="#73A6AB" d="M197.133,214.113h-2.35h-49.479c0,0,1.565,11.7,13.341,15.298c5.314,1.625,21.323,1.027,37.301,0.717
			c15.973,0.31,31.98,1.286,37.294-0.339c11.775-3.605,13.342-15.676,13.342-15.676H197.133z"/>
		<path fill="#73A6AB" d="M124.918,210.243l14.913,22.985c0,0-21.193,0.801-25.896-0.302c-4.716-1.111-19.623-6.939-16.484-16.361
			c3.137-9.414-0.432-6.327-0.432-6.327h27.898V210.243z"/>
		<path fill="#73A6AB" d="M267.344,210.243l-14.914,22.985c0,0,21.188,0.801,25.896-0.302c4.708-1.111,19.621-6.939,16.484-16.361
			c-3.144-9.414,0.432-6.327,0.432-6.327h-27.898V210.243L267.344,210.243z"/>
	</g>
	<ellipse fill="#65BBAE" cx="486.434" cy="877.394" rx="28.472" ry="9.294"/>
	<rect x="457.966" y="820.576" fill="#65BBAE" width="57.136" height="57.904"/>
	<path fill="#47B2A1" d="M515.017,820.541c0,4.709-12.771,8.525-28.521,8.525c-15.755,0-28.526-3.816-28.526-8.525
		c0-4.705,12.771-8.52,28.526-8.52C502.242,812.02,515.017,815.836,515.017,820.541z"/>
	<g>
		<path fill="#D46158" d="M450.357,91.872v174.634h67.616V91.872H450.357z M463.767,232.198h-9.62v-13.359h9.62V232.198z
			 M463.839,208.591h-9.643v-13.367h9.643V208.591z M463.89,184.976h-9.627v-13.367h9.627V184.976z M463.957,161.353h-9.642v-13.352
			h9.642V161.353z M464.008,137.746h-9.643v-13.367h9.643V137.746z M464.058,114.13h-9.627v-13.352h9.627V114.13z M479.821,232.198
			h-9.624v-13.359h9.624V232.198z M479.852,208.591h-9.606v-13.367h9.606V208.591z M479.932,184.976h-9.627v-13.367h9.627V184.976z
			 M479.989,161.353h-9.627v-13.352h9.627V161.353z M480.05,137.746h-9.643v-13.367h9.643V137.746z M480.1,114.13h-9.627v-13.352
			h9.627V114.13z M495.947,232.198h-9.589v-13.359h9.589V232.198z M496.017,208.591h-9.606v-13.367h9.606V208.591z M496.085,184.976
			h-9.628v-13.367h9.628V184.976z M496.146,161.353h-9.619v-13.352h9.619V161.353z M496.219,137.746h-9.646v-13.367h9.646V137.746z
			 M496.266,114.13h-9.644v-13.352h9.644V114.13z M512.308,232.198h-9.624v-13.359h9.624V232.198z M512.342,208.591h-9.585v-13.367
			h9.585V208.591z M512.427,184.976h-9.644v-13.367h9.644V184.976z M512.477,161.353h-9.623v-13.352h9.623V161.353z M512.55,137.746
			h-9.646v-13.367h9.646V137.746z M512.595,114.13h-9.62v-13.352h9.62V114.13z"/>
		
			<line fill="none" stroke="#D46158" stroke-width="0.5469" stroke-miterlimit="10" x1="458.926" y1="100.625" x2="458.926" y2="237.901"/>
		
			<line fill="none" stroke="#D46158" stroke-width="0.5596" stroke-miterlimit="10" x1="474.885" y1="92.746" x2="474.885" y2="236.475"/>
		
			<line fill="none" stroke="#D46158" stroke-width="0.5469" stroke-miterlimit="10" x1="507.517" y1="95.298" x2="507.517" y2="232.582"/>
		
			<line fill="none" stroke="#D46158" stroke-width="0.5469" stroke-miterlimit="10" x1="491.198" y1="100.625" x2="491.198" y2="237.901"/>
	</g>
	<ellipse fill="#EC605A" cx="4332.959" cy="4500.127" rx="14.959" ry="5.206"/>
	<polygon fill="#EC605A" points="4348.168,4468.708 4348.168,4500.096 4317.699,4500.059 4317.699,4468.708 	"/>
	<ellipse fill="#E05C5A" cx="4332.908" cy="4469.546" rx="15.012" ry="4.547"/>
	<g>
		<rect x="4331.975" y="4480.064" fill="#010202" width="3.01" height="12.037"/>
		<path fill="#FFFFFF" d="M4331.338,4479.373v0.02c0,0.14,0.108,0.246,0.246,0.246h0.321v5.729h1.078v0.789l-1.078-0.001v1.184
			h1.078v0.789h-1.076v1.185h1.076v0.789h-1.076v1.722c0,0.129,0.041,0.252,0.121,0.354l1.521,1.918v2.346l0.004-0.006
			c0.312-0.229,0.494,0.051,0.494-0.334v-2.002l1.541-1.92c0.082-0.101,0.125-0.227,0.125-0.354v-12.18h0.295
			c0.139,0,0.246-0.109,0.246-0.246v-0.021c0-0.139-0.105-0.246-0.246-0.246h-4.424
			C4331.449,4479.126,4331.336,4479.238,4331.338,4479.373L4331.338,4479.373z"/>
		<path fill="#6EA6AB" d="M4335.713,4476.117h0.293c0.141,0,0.248-0.111,0.248-0.248v-0.02c0-0.141-0.107-0.246-0.248-0.246h-4.422
			c-0.138,0-0.248,0.107-0.248,0.246l0,0v0.02c0,0.137,0.11,0.248,0.248,0.248h0.319H4335.713z"/>
		<path fill="#BDE0E4" d="M4331.905,4484.121v1.244h1.08v0.789h-1.08v1.184h1.08v0.787h-1.076v1.187h1.076v0.789h-1.076v1.722
			c0,0.129,0.041,0.252,0.121,0.354l1.521,1.918v1.062l0.004,1.273c0.311-0.229,0.494,0.052,0.494-0.334v-2.002l1.541-1.92
			c0.082-0.104,0.125-0.229,0.125-0.354v-7.692h-3.81V4484.121z"/>
		<path fill="#6EA6AB" d="M4332.393,4475.93v2.767h2.836l0.002-2.769"/>
		<g>
			<g>
				<g>
					<path fill="#90CED5" d="M4335.35,4500.732c0-0.1,0.021-0.287,0.021-0.295c-0.004-0.025-0.092-0.08-0.097-0.086
						c-0.103-0.297-0.879-0.896-1.879-2.908v-0.017c0,0.004,0.002,0.006,0,0.008c0,0,0-0.004,0-0.008v0.017
						c-1,2.016-1.631,2.608-1.729,2.908c0,0-0.096,0.283-0.096,0.381c0,1.061,0.824,1.918,1.824,1.938v0.002v-0.002v0.002v-0.002
						C4334.397,4502.65,4335.35,4501.792,4335.35,4500.732z"/>
				</g>
				<defs>
					<filter id="Adobe_OpacityMaskFilter" filterUnits="userSpaceOnUse" x="4331.57" y="4497.427" width="3.801" height="5.245">
						<feColorMatrix  type="matrix" values="1 0 0 0 0  0 1 0 0 0  0 0 1 0 0  0 0 0 1 0"/>
					</filter>
				</defs>
				<mask maskUnits="userSpaceOnUse" x="4331.57" y="4497.427" width="3.801" height="5.245" id="SVGID_2_">
					<g filter="url(#Adobe_OpacityMaskFilter)">
					</g>
				</mask>
				<g mask="url(#SVGID_2_)">
					<path fill="#E4EFEF" d="M4335.35,4500.732c0-0.1,0.021-0.287,0.021-0.295c-0.004-0.025-0.092-0.08-0.097-0.086
						c-0.103-0.297-0.879-0.896-1.879-2.908v-0.017c0,0.004,0.002,0.006,0,0.008c0,0,0-0.004,0-0.008v0.017
						c-1,2.016-1.631,2.608-1.729,2.908c0,0-0.096,0.283-0.096,0.381c0,1.061,0.824,1.918,1.824,1.938v0.002v-0.002v0.002v-0.002
						C4334.397,4502.65,4335.35,4501.792,4335.35,4500.732z"/>
				</g>
			</g>
		</g>
	</g>
	<ellipse fill="#F19849" cx="917.035" cy="883.121" rx="15.537" ry="4.979"/>
	<polygon fill="#F19849" points="932.971,852.508 932.971,883.256 901.971,883.221 901.971,852.508 	"/>
	<path fill="#DF6C39" d="M932.635,852.664c0,2.521-6.999,4.564-15.628,4.564c-8.637,0-15.634-2.047-15.634-4.564
		c0-2.521,6.997-4.564,15.634-4.564C925.635,848.1,932.635,850.144,932.635,852.664z"/>
	<ellipse fill="#65BBAE" cx="1094.943" cy="884.022" rx="11.146" ry="3.671"/>
	<rect x="1083.826" y="861.334" fill="#65BBAE" width="22.271" height="22.688"/>
	<ellipse fill="#47B2A1" cx="1094.947" cy="861.561" rx="11.148" ry="3.367"/>
	<g>
		<g>
			<g>
				
					<line fill="none" stroke="#D4574C" stroke-width="0.2483" stroke-linecap="round" stroke-linejoin="round" x1="918.737" y1="148.336" x2="918.758" y2="150.638"/>
				
					<line fill="none" stroke="#D4574C" stroke-width="0.2483" stroke-linecap="round" stroke-linejoin="round" stroke-dasharray="0.6571,0.6571" x1="918.793" y1="155.493" x2="919.09" y2="191.887"/>
				
					<line fill="none" stroke="#D4574C" stroke-width="0.2483" stroke-linecap="round" stroke-linejoin="round" x1="919.104" y1="194.319" x2="919.125" y2="196.612"/>
			</g>
		</g>
		<g>
			<g>
				
					<line fill="none" stroke="#D4574C" stroke-width="0.1757" stroke-linecap="round" stroke-linejoin="round" x1="902.858" y1="207.888" x2="902.405" y2="209.447"/>
				
					<line fill="none" stroke="#D4574C" stroke-width="0.1757" stroke-linecap="round" stroke-linejoin="round" stroke-dasharray="0.4234,0.4234" x1="901.53" y1="212.455" x2="893.219" y2="240.978"/>
				
					<line fill="none" stroke="#D4574C" stroke-width="0.1757" stroke-linecap="round" stroke-linejoin="round" x1="892.787" y1="242.479" x2="892.326" y2="244.037"/>
			</g>
		</g>
		<g>
			<g>
				
					<line fill="none" stroke="#D4574C" stroke-width="0.1757" stroke-linecap="round" stroke-linejoin="round" x1="931.785" y1="207.585" x2="932.139" y2="209.173"/>
				
					<line fill="none" stroke="#D4574C" stroke-width="0.1757" stroke-linecap="round" stroke-linejoin="round" stroke-dasharray="0.4235,0.4235" x1="932.831" y1="212.217" x2="939.303" y2="241.237"/>
				
					<line fill="none" stroke="#D4574C" stroke-width="0.1757" stroke-linecap="round" stroke-linejoin="round" x1="939.641" y1="242.753" x2="939.994" y2="244.339"/>
			</g>
		</g>
		<g>
			<rect x="911.262" y="139.074" fill="#EAE9EA" width="16.245" height="8.945"/>
			<path fill="#1F1F1D" d="M955.455,138.265c0,1.734-1.429,3.147-3.226,3.147h-65.72c-1.772,0-3.211-1.399-3.211-3.147V95.964
				c0-1.731,1.422-3.153,3.211-3.153h65.721c1.773,0,3.227,1.392,3.227,3.153v42.301H955.455z"/>
			<path fill="#FFFFFF" d="M955.643,135.684v2.438c0,2.403-1.441,4.358-3.224,4.358h-66.073c-1.773,0-3.227-1.955-3.227-4.358
				v-2.438"/>
			<rect x="885.718" y="95.155" fill="#BDE0E4" width="67.328" height="38.033"/>
			<rect x="907.151" y="147.513" fill="#FFFFFF" width="24.468" height="1.703"/>
			<rect x="896.877" y="95.155" fill="#FFFFFF" width="43.565" height="38.033"/>
			<rect x="896.877" y="95.155" fill="#6EA6AB" width="43.565" height="6.06"/>
			<rect x="898.666" y="103.545" fill="#12100F" width="5.715" height="1.774"/>
			<rect x="907.151" y="103.545" fill="#12100F" width="5.706" height="1.774"/>
			<rect x="915.806" y="103.545" fill="#12100F" width="5.707" height="1.774"/>
			<rect x="924.652" y="103.545" fill="#12100F" width="5.707" height="1.774"/>
			<rect x="933.142" y="103.545" fill="#12100F" width="5.707" height="1.774"/>
			<rect x="904.286" y="107.918" fill="#90CED5" width="28.771" height="17.846"/>
			<rect x="900.089" y="127.834" fill="#E8E7E7" width="37.338" height="0.895"/>
			<rect x="900" y="129.35" fill="#E8E7E7" width="37.324" height="0.88"/>
			<rect x="900" y="130.944" fill="#E8E7E7" width="17.954" height="0.894"/>
			<path fill="#12100F" d="M936.706,111.489c0.396,0,0.722,0.315,0.722,0.713c0,0.396-0.326,0.713-0.722,0.713
				c-0.396,0-0.715-0.318-0.715-0.713C935.991,111.805,936.309,111.489,936.706,111.489z"/>
			<path fill="#12100F" d="M936.706,116.134c0.396,0,0.722,0.318,0.722,0.714c0,0.397-0.326,0.713-0.722,0.713
				c-0.396,0-0.715-0.315-0.715-0.713C935.991,116.452,936.309,116.134,936.706,116.134z"/>
			<path fill="#12100F" d="M936.706,120.953c0.396,0,0.722,0.326,0.722,0.72c0,0.398-0.326,0.715-0.722,0.715
				c-0.396,0-0.715-0.317-0.715-0.715C935.991,121.278,936.309,120.953,936.706,120.953z"/>
		</g>
		<g>
			<rect x="900.096" y="199.621" fill="#FFFFFF" width="38.58" height="11.312"/>
			<rect x="918.079" y="186.903" fill="#FFFFFF" width="1.669" height="15.294"/>
			<path fill="none" stroke="#FFFFFF" stroke-width="0.2636" stroke-miterlimit="10" d="M918.909,181.376
				c1.529,0,2.765,1.242,2.765,2.764c0,1.521-1.234,2.763-2.765,2.763c-1.521,0-2.756-1.242-2.756-2.763
				C916.154,182.618,917.387,181.376,918.909,181.376z"/>
			<rect x="905.029" y="201.165" fill="#E8E7E7" width="32.44" height="2.091"/>
			<rect x="900.983" y="201.165" fill="#90CED5" width="2.264" height="2.091"/>
			<rect x="905.029" y="205.284" fill="#BDE0E4" width="9.206" height="2.568"/>
			<rect x="915.619" y="205.284" fill="#BDE0E4" width="7.172" height="2.568"/>
			<rect x="924.551" y="205.284" fill="#BDE0E4" width="6.787" height="2.568"/>
			<rect x="932.948" y="205.284" fill="#12100F" width="0.686" height="2.568"/>
			<rect x="934.145" y="205.284" fill="#12100F" width="0.688" height="2.568"/>
			
				<path fill="none" stroke="#D4574C" stroke-width="0.3515" stroke-linecap="round" stroke-linejoin="round" stroke-miterlimit="10" d="
				M928.684,170.528c4.222,2.315,7.062,6.594,7.062,11.456c0,5.064-3.057,9.449-7.552,11.73"/>
			
				<path fill="none" stroke="#D4574C" stroke-width="0.3515" stroke-linecap="round" stroke-linejoin="round" stroke-miterlimit="10" d="
				M909.819,170.528c-4.222,2.315-7.048,6.594-7.048,11.456c0,5.064,3.043,9.449,7.547,11.73"/>
			
				<path fill="none" stroke="#D4574C" stroke-width="0.2636" stroke-linecap="round" stroke-linejoin="round" stroke-miterlimit="10" d="
				M911.355,175.114c-2.555,1.395-4.256,3.969-4.256,6.926c0,3.059,1.848,5.699,4.554,7.07"/>
			
				<path fill="none" stroke="#D4574C" stroke-width="0.2636" stroke-linecap="round" stroke-linejoin="round" stroke-miterlimit="10" d="
				M926.519,175.114c2.55,1.395,4.266,3.969,4.266,6.926c0,3.059-1.849,5.699-4.572,7.07"/>
		</g>
		<g>
			<rect x="881.157" y="233.815" fill="#FFFFFF" width="29.229" height="25.522"/>
			<rect x="881.157" y="233.815" fill="#6EA6AB" width="29.229" height="4.075"/>
			<rect x="882.363" y="239.45" fill="#12100F" width="3.839" height="1.198"/>
			<rect x="888.041" y="239.45" fill="#12100F" width="3.846" height="1.198"/>
			<rect x="893.855" y="239.45" fill="#12100F" width="3.846" height="1.198"/>
			<rect x="899.791" y="239.45" fill="#12100F" width="3.847" height="1.198"/>
			<rect x="905.485" y="239.45" fill="#12100F" width="3.838" height="1.198"/>
			<rect x="886.135" y="242.386" fill="#90CED5" width="19.275" height="11.974"/>
			<rect x="883.316" y="255.753" fill="#E8E7E7" width="25.046" height="0.591"/>
			<rect x="883.258" y="256.763" fill="#E8E7E7" width="25.055" height="0.605"/>
			<rect x="883.258" y="257.843" fill="#E8E7E7" width="12.041" height="0.585"/>
			<path fill="#12100F" d="M907.88,244.788c0.259,0,0.467,0.208,0.467,0.475c0,0.259-0.208,0.47-0.467,0.47
				c-0.269,0-0.479-0.21-0.479-0.47C907.402,244.996,907.613,244.788,907.88,244.788z"/>
			<path fill="#12100F" d="M907.88,247.903c0.259,0,0.467,0.217,0.467,0.477c0,0.26-0.208,0.468-0.467,0.468
				c-0.269,0-0.479-0.208-0.479-0.468C907.402,248.12,907.613,247.903,907.88,247.903z"/>
			<path fill="#12100F" d="M907.88,251.135c0.259,0,0.474,0.216,0.474,0.484c0,0.267-0.215,0.482-0.474,0.482
				c-0.269,0-0.485-0.215-0.485-0.482C907.395,251.352,907.613,251.135,907.88,251.135z"/>
		</g>
		<g>
			<path fill="#FFFFFF" d="M952.403,263.587c0,1.918-1.55,3.462-3.462,3.462h-13.534c-1.911,0-3.462-1.543-3.462-3.462v-33.979
				c0-1.904,1.552-3.462,3.462-3.462h13.534c1.912,0,3.462,1.558,3.462,3.462V263.587z"/>
			<rect x="932.962" y="231.989" fill="#BDE0E4" width="18.416" height="29.246"/>
			<path fill="#1F1F1D" d="M945.197,229.898c0,0.152-0.139,0.288-0.28,0.288h-3.312c-0.153,0-0.289-0.136-0.289-0.288l0,0
				c0-0.159,0.136-0.29,0.289-0.29h3.312C945.068,229.609,945.197,229.732,945.197,229.898L945.197,229.898z"/>
			<circle fill="#1F1F1D" cx="939.88" cy="229.897" r="0.289"/>
			<rect x="932.962" y="231.989" fill="#6EA6AB" width="18.416" height="4.604"/>
			<rect x="934.108" y="236.585" fill="#FFFFFF" width="16.064" height="20.171"/>
			<rect x="935.117" y="239.326" fill="#90CED5" width="13.975" height="8.57"/>
			<rect x="935.117" y="237.385" fill="#12100F" width="2.729" height="1.139"/>
			<rect x="938.791" y="237.385" fill="#12100F" width="2.729" height="1.139"/>
			<rect x="942.75" y="237.385" fill="#12100F" width="2.74" height="1.139"/>
			<rect x="946.357" y="237.385" fill="#12100F" width="2.732" height="1.139"/>
			<rect x="935.117" y="249.26" fill="#E9E8E8" width="13.975" height="0.446"/>
			<rect x="935.117" y="250.118" fill="#E9E8E8" width="13.975" height="0.44"/>
			<rect x="935.117" y="250.984" fill="#E9E8E8" width="13.975" height="0.456"/>
			<rect x="935.163" y="251.842" fill="#E9E8E8" width="8.851" height="0.375"/>
		</g>
	</g>
	<g>
		<path fill="#D46158" stroke="#BC574E" stroke-width="0.25" stroke-miterlimit="10" d="M1145.722,200.081
			c0,4.49-3.646,8.152-8.146,8.152h-87.413c-4.479,0-8.141-3.646-8.141-8.152l0,0c0-4.489,3.646-8.151,8.141-8.151h87.414
			C1142.07,191.94,1145.722,195.591,1145.722,200.081L1145.722,200.081z"/>
		<path fill="#D46158" stroke="#BC574E" stroke-width="0.25" stroke-miterlimit="10" d="M1155.683,186.263
			c0,4.5-3.633,8.153-8.14,8.153h-87.42c-4.481,0-8.135-3.646-8.135-8.153l0,0c0-4.493,3.639-8.146,8.135-8.146h87.42
			C1152.05,178.118,1155.683,181.759,1155.683,186.263L1155.683,186.263z"/>
		<path fill="#BB574F" d="M1059.488,178.125c4.438,0,8.024,3.594,8.024,8.029s-3.589,8.033-8.024,8.033
			c-4.437,0-8.028-3.598-8.028-8.033S1055.052,178.125,1059.488,178.125z"/>
		<path fill="#BB574F" d="M1049.527,191.94c4.437,0,8.031,3.606,8.031,8.042c0,4.44-3.599,8.038-8.031,8.038
			c-4.439,0-8.038-3.598-8.038-8.038C1041.489,195.546,1045.086,191.94,1049.527,191.94z"/>
		<path fill="#D46158" stroke="#BC574E" stroke-width="0.25" stroke-miterlimit="10" d="M1165.324,200.717
			c0,4.507-3.645,8.141-8.149,8.141h-87.403c-4.487,0-8.139-3.619-8.139-8.141l0,0c0-4.482,3.635-8.14,8.139-8.14h87.403
			C1161.678,192.584,1165.324,196.235,1165.324,200.717L1165.324,200.717z"/>
		<path fill="#BB574F" d="M1069.128,192.584c4.443,0,8.042,3.6,8.042,8.039c0,4.436-3.599,8.04-8.042,8.04
			c-4.433,0-8.029-3.604-8.029-8.04C1061.099,196.184,1064.697,192.584,1069.128,192.584z"/>
	</g>
</g>
<line fill="none" stroke="#717070" stroke-width="0.5" stroke-miterlimit="10" x1="919.389" y1="396.401" x2="919.389" y2="829.066"/>
<line fill="none" stroke="#717070" stroke-width="0.5" stroke-miterlimit="10" x1="1093.87" y1="369.124" x2="1093.87" y2="840.678"/>
<ellipse fill="#EC605A" cx="4919.039" cy="4527.202" rx="14.961" ry="5.206"/>
<polygon fill="#EC605A" points="4934.248,4495.783 4934.248,4527.171 4903.776,4527.134 4903.776,4495.783 "/>
<ellipse fill="#E05C5A" cx="4918.987" cy="4496.621" rx="15.013" ry="4.547"/>
<g>
	<rect x="4918.055" y="4507.141" fill="#010202" width="3.008" height="12.037"/>
	<path fill="#FFFFFF" d="M4917.416,4506.448v0.021c0,0.139,0.11,0.246,0.248,0.246h0.319v5.729h1.08v0.789l-1.08-0.001v1.184h1.078
		l0.002,0.789h-1.078v1.185h1.078v0.789h-1.078v1.72c0,0.129,0.043,0.252,0.121,0.354l1.521,1.918v2.348l0.004-0.006
		c0.311-0.229,0.492,0.051,0.492-0.334v-2.002l1.541-1.92c0.082-0.103,0.125-0.229,0.127-0.354v-12.179h0.293
		c0.141,0,0.248-0.11,0.248-0.246v-0.021c0-0.141-0.107-0.246-0.248-0.246h-4.422
		C4917.528,4506.201,4917.416,4506.312,4917.416,4506.448L4917.416,4506.448z"/>
	<path fill="#6EA6AB" d="M4921.791,4503.191h0.295c0.139,0,0.246-0.11,0.246-0.248v-0.021c0-0.141-0.105-0.246-0.246-0.246h-4.424
		c-0.138,0-0.248,0.107-0.246,0.246l0,0v0.021c0,0.138,0.108,0.248,0.246,0.248h0.319H4921.791z"/>
	<path fill="#BDE0E4" d="M4917.985,4511.195v1.244h1.08v0.789h-1.08v1.185h1.078l0.002,0.787h-1.078v1.185h1.078v0.789h-1.078v1.721
		c0,0.129,0.043,0.252,0.121,0.354l1.521,1.918v1.062l0.004,1.273c0.311-0.229,0.492,0.055,0.492-0.334v-2.002l1.541-1.92
		c0.082-0.101,0.125-0.228,0.127-0.354v-7.693h-3.81v-0.004H4917.985L4917.985,4511.195z"/>
	<path fill="#6EA6AB" d="M4918.471,4503.005v2.765h2.838v-2.768"/>
	<g>
		<g>
			<g>
				<path fill="#90CED5" d="M4921.426,4527.809c0-0.098,0.022-0.287,0.021-0.295c-0.004-0.023-0.092-0.08-0.094-0.086
					c-0.101-0.297-0.877-0.896-1.877-2.908v-0.015v0.008v-0.008v0.015c-1,2.018-1.633,2.61-1.73,2.908
					c-0.002,0.006-0.094,0.283-0.094,0.381c0,1.062,0.824,1.918,1.824,1.939v0.002v-0.002v0.002v-0.002
					C4920.479,4529.727,4921.426,4528.867,4921.426,4527.809z"/>
			</g>
			<defs>
				<filter id="Adobe_OpacityMaskFilter_1_" filterUnits="userSpaceOnUse" x="4917.652" y="4524.505" width="3.795" height="5.245">
					<feColorMatrix  type="matrix" values="1 0 0 0 0  0 1 0 0 0  0 0 1 0 0  0 0 0 1 0"/>
				</filter>
			</defs>
			<mask maskUnits="userSpaceOnUse" x="4917.652" y="4524.505" width="3.795" height="5.245" id="SVGID_1_">
				<g filter="url(#Adobe_OpacityMaskFilter_1_)">
				</g>
			</mask>
			<g mask="url(#SVGID_1_)">
				<path fill="#E4EFEF" d="M4921.426,4527.809c0-0.098,0.022-0.287,0.021-0.295c-0.004-0.023-0.092-0.08-0.094-0.086
					c-0.101-0.297-0.877-0.896-1.877-2.908v-0.015v0.008v-0.008v0.015c-1,2.018-1.633,2.61-1.73,2.908
					c-0.002,0.006-0.094,0.283-0.094,0.381c0,1.062,0.824,1.918,1.824,1.939v0.002v-0.002v0.002v-0.002
					C4920.479,4529.727,4921.426,4528.867,4921.426,4527.809z"/>
			</g>
		</g>
	</g>
</g>
<ellipse fill="#EC6155" cx="735.96" cy="882.127" rx="14.96" ry="5.205"/>
<polygon fill="#EC6155" points="751.168,850.709 751.168,882.094 720.698,882.057 720.698,850.709 "/>
<ellipse fill="#DC5D57" cx="735.907" cy="851.547" rx="15.013" ry="4.547"/>
<g>
	<rect x="715.19" y="121.294" width="19.076" height="76.33"/>
	<path fill="#F5F5F5" d="M711.163,116.91v0.112c0,0.867,0.695,1.56,1.562,1.56h2.031v36.326h6.85v5.004h-6.85v7.493h6.843
		l0.009,5.004h-6.838v7.492h6.838v5.003h-6.838v10.899c0,0.818,0.271,1.598,0.779,2.241l9.63,12.163v14.862l0.023-0.038
		c1.971-1.437,3.134,0.322,3.134-2.117v-12.695l9.772-12.163c0.519-0.644,0.792-1.436,0.797-2.265v-77.209h1.863
		c0.867,0,1.562-0.693,1.562-1.56v-0.112c0-0.867-0.692-1.573-1.562-1.573h-28.047C711.859,115.337,711.151,116.055,711.163,116.91
		L711.163,116.91z"/>
	<path fill="#70A5AB" d="M738.906,96.251h1.862c0.868,0,1.562-0.694,1.562-1.56v-0.125c0-0.867-0.692-1.56-1.562-1.56h-28.046
		c-0.863,0-1.571,0.706-1.562,1.56l0,0v0.125c0,0.866,0.695,1.56,1.562,1.56h2.031H738.906z"/>
	<path fill="#BEE0E5" d="M714.755,147.006v7.901h6.852v5.004h-6.852v7.493h6.843l0.009,5.004h-6.839v7.492h6.839v5.003h-6.839
		v10.899c0,0.818,0.271,1.598,0.78,2.241l9.63,12.163v6.737l0.023,8.087c1.971-1.437,3.134,0.322,3.134-2.117v-12.695l9.772-12.163
		c0.52-0.644,0.792-1.436,0.797-2.265v-48.785L714.755,147.006L714.755,147.006z"/>
	<path fill="#70A5AB" d="M717.826,95.062V112.6h17.989l0.013-17.537"/>
	<g>
		
			<image overflow="visible" opacity="0.65" enable-background="new    " width="138" height="179" xlink:href="B18AAA86018C126D.png"  transform="matrix(0.233 0 0 0.2333 709.3479 229.0576)">
		</image>
		<g>
			<g>
				<path fill="#92CCD6" d="M737.409,252.352c0-0.607-0.258-1.82-0.271-1.869c-0.03-0.162,0.044-0.509,0.031-0.545
					c-0.638-1.883-3.287-5.673-11.287-18.441v-0.087c0,0.025,0.006,0.038,0,0.05c-0.014-0.013,0-0.025,0-0.05v0.087
					c-9,12.769-11.183,16.559-11.812,18.441c-0.016,0.036-0.183,1.807-0.183,2.414c0,6.714,4.993,12.163,11.993,12.311v0.013v-0.013
					v0.013v-0.013C731.884,264.515,737.409,259.066,737.409,252.352z"/>
			</g>
			<defs>
				<filter id="Adobe_OpacityMaskFilter_2_" filterUnits="userSpaceOnUse" x="713.888" y="231.41" width="23.521" height="33.266">
					<feColorMatrix  type="matrix" values="1 0 0 0 0  0 1 0 0 0  0 0 1 0 0  0 0 0 1 0"/>
				</filter>
			</defs>
			<mask maskUnits="userSpaceOnUse" x="713.888" y="231.41" width="23.521" height="33.266" id="SVGID_3_">
				<g filter="url(#Adobe_OpacityMaskFilter_2_)">
					
						<image overflow="visible" enable-background="new    " width="121" height="163" xlink:href="B18AAA86018C126D.jpeg"  transform="matrix(0.2301 0 0 0.2297 711.5803 229.4092)">
					</image>
				</g>
			</mask>
			<g mask="url(#SVGID_3_)">
				<path fill="#E5EEEF" d="M737.409,252.352c0-0.607-0.258-1.82-0.271-1.869c-0.03-0.162,0.044-0.509,0.031-0.545
					c-0.638-1.883-3.287-5.673-11.287-18.441v-0.087c0,0.025,0.006,0.038,0,0.05c-0.014-0.013,0-0.025,0-0.05v0.087
					c-9,12.769-11.183,16.559-11.812,18.441c-0.016,0.036-0.183,1.807-0.183,2.414c0,6.714,4.993,12.163,11.993,12.311v0.013v-0.013
					v0.013v-0.013C731.884,264.515,737.409,259.066,737.409,252.352z"/>
			</g>
		</g>
	</g>
</g>
<rect x="100.297" y="303.927" fill="none" width="215" height="26.055"/>
<text transform="matrix(1 0 0 1 56.2942 319.9229)" opacity="0.7" enable-background="new    " font-family="'Roboto'" letter-spacing="1px" font-size="30">Industrie Automobile</text>
<rect x="379.032" y="305.506" fill="none" width="240" height="28"/>
<text transform="matrix(1 0 0 1 405.9631 321.502)" opacity="0.7" enable-background="new    "><tspan x="0" y="0" font-family="'Roboto'" letter-spacing="1px" font-size="30">Architecture</tspan><tspan x="3.655" y="36" font-family="'Roboto'" letter-spacing="1px" font-size="30">&amp; ingénierie</tspan></text>
<text transform="matrix(1 0 0 1 610.4065 319.1201)" opacity="0.7" enable-background="new    "><tspan x="0" y="0" font-family="'Roboto'" letter-spacing="1px" font-size="29">Injection plastique</tspan><tspan x="232.155" y="0" font-family="'Roboto'" letter-spacing="1px" font-size="30"> </tspan></text>
<text transform="matrix(1 0 0 1 640.0042 357.5195)" opacity="0.7" enable-background="new    " font-family="'Roboto'" letter-spacing="1px" font-size="29">&amp; caoutchouc</text>
<text transform="matrix(1 0 0 1 861.2747 319.3105)" opacity="0.7" enable-background="new    "><tspan x="0" y="0" font-family="'Roboto'" letter-spacing="1px" font-size="29">Industrie</tspan><tspan x="111.78" y="0" font-family="'Roboto'" letter-spacing="1px" font-size="30"> </tspan></text>
<text transform="matrix(1 0 0 1 839.9094 349.5112)" opacity="0.7" enable-background="new    " font-family="'Roboto'" letter-spacing="1px" font-size="29">informatique</text>
<text transform="matrix(1 0 0 1 829.0198 377.9102)" opacity="0.7" enable-background="new    " font-family="'Roboto'" letter-spacing="1px" font-size="29">&amp; électronique</text>
<rect x="1028.998" y="303.507" fill="none" width="133.493" height="26.897"/>
<text transform="matrix(1 0 0 1 1025.4329 319.5029)" opacity="0.7" enable-background="new    " font-family="'Roboto'" letter-spacing="1px" font-size="29">Métallurgie</text>
</svg>
