<?xml version="1.0" encoding="utf-8"?>
<!-- Generator: Adobe Illustrator 16.0.0, SVG Export Plug-In . SVG Version: 6.00 Build 0)  -->
<!DOCTYPE svg PUBLIC "-//W3C//DTD SVG 1.1//EN" "http://www.w3.org/Graphics/SVG/1.1/DTD/svg11.dtd">
<svg version="1.1" id="Calque_1" xmlns="http://www.w3.org/2000/svg" xmlns:xlink="http://www.w3.org/1999/xlink" x="0px" y="0px"
	 width="104.385px" height="242.105px" viewBox="0 0 104.385 242.105" enable-background="new 0 0 104.385 242.105"
	 xml:space="preserve">
<g id="Id_for_car">
	<g>
		<polygon fill="none" points="41.22,166.96 41.162,164.96 41.104,166.96 		"/>
		<path fill="#70A4AA" d="M17.001,183.96c0,2.761-1.989,5-4.444,5H5.445c-2.454,0-4.444-2.239-4.444-5l0,0c0-2.761,1.99-5,4.444-5
			h7.112C15.012,178.96,17.001,181.199,17.001,183.96L17.001,183.96z"/>
		<path fill="#70A4AA" d="M103,183.96c0,2.761-1.906,5-4.259,5h-6.814c-2.353,0-4.259-2.239-4.259-5l0,0c0-2.761,1.906-5,4.259-5
			h6.814C101.094,178.96,103,181.199,103,183.96L103,183.96z"/>
		<path fill="#ABA5A3" d="M22,231.627c0,4.603-3.73,8.333-8.333,8.333h-0.334c-4.603,0-8.333-3.73-8.333-8.333v-6.334
			c0-4.603,3.73-8.333,8.333-8.333h0.334c4.603,0,8.333,3.73,8.333,8.333V231.627z"/>
		<path fill="#ABA5A3" d="M99,231.627c0,4.603-3.73,8.333-8.333,8.333h-0.334c-4.603,0-8.333-3.73-8.333-8.333v-6.334
			c0-4.603,3.73-8.333,8.333-8.333h0.334c4.603,0,8.333,3.73,8.333,8.333V231.627z"/>
		<path fill="#90CBD4" d="M100.994,209.185c-0.633-8.166-4.12-16.832-4.12-16.832c-5.07-7.668-11.407-18.195-11.407-18.195
			c-5.704-10.333-11.725-9.196-11.725-9.196H52.829l0.058,2h-0.115l0.059-2H31.775c0,0-6.021-1.137-11.726,9.196
			c0,0-6.337,10.598-11.408,18.265c0,0-3.486,8.632-4.119,16.798c0,0-1.585,15.288,4.753,18.288c0,0,2.537,2.453,14.894,2.453
			h20.104h6.654h3.803h8.557H81.35c12.358,0,14.895-2.472,14.895-2.472C102.579,224.489,100.994,209.185,100.994,209.185z
			 M52,186.515v0.002c0,0,0,0,0,0.002c0-0.002,0-0.002,0-0.002V186.515c-9-0.13-20.428-0.293-34.832-0.496l6.332-10.668
			c5.668-8.332,9.416-6.166,9.416-6.166l19.544,0.164l19.521-0.164c0,0,3.677-2.168,9.345,6.166l6.003,10.668
			C72.924,186.222,61,186.385,52,186.515z"/>
		<path fill="#F26F61" d="M52,186.792v0.002C52,186.793,52.056,186.793,52,186.792z"/>
		<path fill="#F26F61" d="M52,186.794v-0.002C51.944,186.793,52,186.793,52,186.794z"/>
		<rect x="10" y="200.96" fill="#FFFFFF" width="20" height="10"/>
		<rect x="76" y="200.96" fill="#FFFFFF" width="20" height="10"/>
		<rect x="33" y="200.96" fill="#70A4AA" width="3" height="10"/>
		<rect x="39" y="200.96" fill="#70A4AA" width="3" height="10"/>
		
			<rect x="43.985" y="200.972" transform="matrix(-0.9999 0.0137 -0.0137 -0.9999 93.7821 411.304)" fill="#70A4AA" width="2.999" height="10.001"/>
		<rect x="49" y="200.96" fill="#70A4AA" width="3" height="10"/>
		<rect x="54" y="200.96" fill="#70A4AA" width="3" height="10"/>
		<rect x="59" y="200.96" fill="#70A4AA" width="3" height="10"/>
		<rect x="64" y="200.96" fill="#70A4AA" width="3" height="10"/>
		<rect x="70" y="200.96" fill="#70A4AA" width="3" height="10"/>
		<path fill="#70A4AA" d="M53,216.96h-1H30.992c0,0,0.665,5.609,5.665,7.139c2.256,0.689,9.057,0.756,15.841,0.623
			c6.784,0.133,13.581,0.066,15.837-0.623c5-1.529,5.665-7.139,5.665-7.139H53z"/>
		<path fill="#70A4AA" d="M22.335,215.96l6.333,10.082c0,0-9,0.5-11,0.027c-2-0.471-8.333-3.183-7-7.182
			c1.333-3.998-0.183-2.928-0.183-2.928H22.335z"/>
		<path fill="#70A4AA" d="M82.817,215.96l-6.333,10.082c0,0,9,0.5,11,0.027c2-0.471,8.333-3.183,7-7.182
			c-1.333-3.998,0.183-2.929,0.183-2.929L82.817,215.96L82.817,215.96z"/>
	</g>
	<g>
		<rect x="29" y="92.96" fill="#FFFFFF" width="20" height="7"/>
		<rect x="29" y="102.96" fill="#FFFFFF" width="20" height="8"/>
		<polygon fill="#FFFFFF" points="45.042,59.79 50.334,65.61 60.352,57.937 65,61.886 65,110.96 75,110.96 75,60.693 60.021,47.579 
					"/>
		<rect x="83" y="71.96" fill="#FFFFFF" width="7" height="39"/>
		<path fill="#70A4AA" d="M65,3.022V24.96H36V1.912c-6,4.337-10.605,11.689-10.605,20.03c0,13.332,10.938,24.14,24.351,24.14
			c13.416,0,24.393-10.808,24.393-24.14C74.137,14.267,71,7.443,65,3.022z"/>
		<path fill="#70A4AA" d="M40,40.96v29h8.769c0,0-7.454-6.733-6.561-9.708c0.895-2.976,0.547-3.355,5.908-7.229S57,46.083,57,46.083
			V40.96H40z"/>
		<path fill="#70A4AA" d="M57,63.524l-6.798,6.037c0,0,1.96,39.788,1.364,42.468c-0.597,2.68-3.094,1.931-6.524,1.931
			c-3.43,0-3.426,0-3.426,0L40,114.381v10.579h17V63.524z"/>
		<ellipse fill="#70A4AA" cx="48.769" cy="125.066" rx="8.941" ry="6.557"/>
		<rect x="29" y="71.96" fill="#FFFFFF" width="20" height="6"/>
		<rect x="29" y="81.96" fill="#FFFFFF" width="20" height="8"/>
	</g>
</g>
</svg>
