<?xml version="1.0" encoding="utf-8"?>
<!-- Generator: Adobe Illustrator 16.0.0, SVG Export Plug-In . SVG Version: 6.00 Build 0)  -->
<!DOCTYPE svg PUBLIC "-//W3C//DTD SVG 1.1//EN" "http://www.w3.org/Graphics/SVG/1.1/DTD/svg11.dtd">
<svg version="1.1" id="Layer_1" xmlns="http://www.w3.org/2000/svg" xmlns:xlink="http://www.w3.org/1999/xlink" x="0px" y="0px"
	 width="616.889px" height="68.679px" viewBox="-0.209 0 616.889 68.679" enable-background="new -0.209 0 616.889 68.679"
	 xml:space="preserve">
<g>
	<g>
		<text transform="matrix(1 0 0 1 0 11.2654)" fill="#FFFFFF" font-family="'ProximaNova-Regular'" font-size="7.0882">INDICE</text>
		<text transform="matrix(1 0 0 1 -0.1792 18.8601)" fill="#FFFFFF" font-family="'ProximaNova-Bold'" font-size="7.5945">ATMO</text>
	</g>
</g>
<path fill="#FFFFFF" d="M396.163,5.882c-0.521-1.512-1.644-3.151-7.218-3.151l0,0c-5.575,0-6.697,1.641-7.219,3.151
	c-0.52,1.519-1.037,6.917-1.037,6.917s0,4.277,0,6.051c0,1.252,0.814,1.488,1.297,1.521v1.545c0,0.647,0.515,1.169,1.147,1.169
	h0.257c0.633,0,1.146-0.521,1.146-1.169v-1.554h4.406l0,0h4.408v1.554c0,0.647,0.516,1.169,1.147,1.169h0.256
	c0.634,0,1.146-0.521,1.146-1.169v-1.545c0.48-0.033,1.297-0.271,1.297-1.521c0-1.772,0-6.051,0-6.051S396.68,7.399,396.163,5.882z
	 M385.055,3.854h7.779c0.311,0,0.563,0.209,0.563,0.475c0,0.264-0.252,0.478-0.563,0.478h-7.779c-0.311,0-0.563-0.214-0.563-0.478
	C384.493,4.063,384.745,3.854,385.055,3.854z M383.284,17.813c-0.718,0-1.298-0.579-1.298-1.296c0-0.718,0.58-1.296,1.298-1.296
	c0.716,0,1.297,0.578,1.297,1.296C384.581,17.234,384,17.813,383.284,17.813z M383.195,12.41c-1.209,0-0.906-1.254-0.906-1.254
	s0.347-2.637,0.563-4.147c0.217-1.511,0.907-1.341,0.907-1.341h5.187h5.188c0,0,0.691-0.17,0.906,1.341
	c0.217,1.512,0.563,4.147,0.563,4.147s0.303,1.254-0.908,1.254c-1.209,0-5.746,0-5.746,0S384.407,12.41,383.195,12.41z
	 M394.607,17.813c-0.717,0-1.299-0.579-1.299-1.296c0-0.718,0.582-1.296,1.299-1.296c0.716,0,1.295,0.578,1.295,1.296
	C395.902,17.234,395.323,17.813,394.607,17.813z"/>
<path fill="#FFFFFF" d="M191.868,16.905V14.66c0,0,0-0.331-0.111-0.44c0.308-0.924-0.308-2.31-0.308-2.31s-0.446-0.753-0.998-1.676
	c0.012,0.001,0.024,0.003,0.036,0.003h0.977c0.09,0,0.163-0.085,0.163-0.189V9.44c0-0.105-0.073-0.193-0.163-0.193h-0.977
	c-0.09,0-0.163,0.088-0.163,0.193v0.581c-0.667-1.118-1.445-2.412-1.779-2.931c-0.638-0.988-1.563-0.924-1.563-0.924h-3.361h-3.362
	c0,0-0.925-0.064-1.562,0.924c-0.336,0.519-1.112,1.813-1.78,2.931V9.44c0-0.105-0.074-0.193-0.162-0.193h-0.978
	c-0.09,0-0.164,0.088-0.164,0.193v0.606c0,0.104,0.074,0.189,0.164,0.189h0.978c0.011,0,0.021-0.002,0.036-0.003
	c-0.553,0.923-0.998,1.676-0.998,1.676s-0.616,1.386-0.309,2.31c-0.11,0.109-0.11,0.44-0.11,0.44v2.245c0,0-0.052,0.313,0.409,0.383
	v1.663c0,0.384,0.355,0.696,0.793,0.696h0.624c0.438,0,0.791-0.313,0.791-0.696v-1.649c2.282,0,5.63,0,5.63,0s3.346,0,5.627,0v1.649
	c0,0.384,0.354,0.696,0.793,0.696h0.623c0.439,0,0.792-0.313,0.792-0.696v-1.663C191.918,17.219,191.868,16.905,191.868,16.905z
	 M177.632,14.808c-0.655,0-1.188-0.531-1.188-1.189c0-0.655,0.533-1.189,1.188-1.189c0.656,0,1.189,0.534,1.189,1.189
	C178.821,14.276,178.288,14.808,177.632,14.808z M178.41,9.938c0,0,0.851-1.851,1.144-2.378c0.293-0.525,1.35-0.497,1.35-0.497
	h2.718h2.717c0,0,1.057-0.028,1.351,0.497c0.293,0.527,1.143,2.378,1.143,2.378h-5.21H178.41z M189.609,14.808
	c-0.656,0-1.188-0.531-1.188-1.189c0-0.655,0.531-1.189,1.188-1.189c0.655,0,1.188,0.534,1.188,1.189
	C190.797,14.276,190.264,14.808,189.609,14.808z"/>
<g enable-background="new    ">
	<path fill="#FFFFFF" d="M36.584,9.168l-4.279-5.853v5.853h-0.914V1.83h0.936l4.225,5.731V1.83h0.913v7.338H36.584z"/>
	<path fill="#FFFFFF" d="M38.839,6.506c0-1.54,1.012-2.783,2.629-2.783s2.629,1.243,2.629,2.783S43.085,9.3,41.468,9.3
		S38.839,8.046,38.839,6.506z M43.229,6.506c0-1.078-0.627-2.047-1.76-2.047s-1.76,0.969-1.76,2.047c0,1.089,0.627,2.057,1.76,2.057
		S43.229,7.594,43.229,6.506z"/>
	<path fill="#FFFFFF" d="M51.853,9.168V5.559c0-0.671-0.286-1.101-0.979-1.101c-0.55,0-1.133,0.386-1.408,0.814v3.895H48.64V5.559
		c0-0.671-0.275-1.101-0.979-1.101c-0.539,0-1.111,0.396-1.397,0.825v3.884h-0.825V3.854h0.825v0.77
		c0.231-0.341,0.935-0.901,1.727-0.901c0.803,0,1.265,0.439,1.419,0.989c0.297-0.483,1.012-0.989,1.782-0.989
		c0.968,0,1.485,0.539,1.485,1.605v3.84H51.853z"/>
	<path fill="#FFFFFF" d="M54.327,9.168V1.83h0.825v2.827c0.429-0.583,1.078-0.935,1.793-0.935c1.397,0,2.365,1.089,2.365,2.794
		c0,1.728-0.979,2.783-2.365,2.783c-0.748,0-1.397-0.385-1.793-0.924v0.792H54.327z M56.747,8.562c1.067,0,1.705-0.869,1.705-2.046
		s-0.638-2.058-1.705-2.058c-0.66,0-1.309,0.396-1.595,0.858v2.409C55.438,8.188,56.087,8.562,56.747,8.562z"/>
	<path fill="#FFFFFF" d="M60.652,9.168V3.854h0.825v0.847c0.429-0.55,1.045-0.968,1.771-0.968V4.58
		c-0.099-0.011-0.198-0.021-0.319-0.021c-0.517,0-1.21,0.418-1.452,0.847v3.763H60.652z"/>
	<path fill="#FFFFFF" d="M63.974,6.506c0-1.54,1.1-2.783,2.618-2.783c1.606,0,2.553,1.254,2.553,2.849V6.78h-4.291
		c0.066,1.002,0.759,1.838,1.903,1.838c0.616,0,1.221-0.242,1.65-0.683l0.396,0.539C68.264,9.003,67.549,9.3,66.691,9.3
		C65.107,9.3,63.974,8.167,63.974,6.506z M66.581,4.404c-1.133,0-1.694,0.957-1.738,1.76h3.487
		C68.319,5.384,67.791,4.404,66.581,4.404z"/>
	<path fill="#FFFFFF" d="M77.174,9.168V8.376C76.778,8.915,76.128,9.3,75.38,9.3c-1.386,0-2.365-1.056-2.365-2.783
		c0-1.705,0.979-2.794,2.365-2.794c0.715,0,1.364,0.352,1.793,0.935V1.83h0.825v7.338H77.174z M77.174,7.716V5.317
		c-0.286-0.462-0.935-0.858-1.584-0.858c-1.078,0-1.716,0.881-1.716,2.058s0.638,2.046,1.716,2.046
		C76.239,8.562,76.888,8.177,77.174,7.716z"/>
	<path fill="#FFFFFF" d="M79.34,6.506c0-1.54,1.1-2.783,2.618-2.783c1.606,0,2.553,1.254,2.553,2.849V6.78H80.22
		c0.066,1.002,0.759,1.838,1.903,1.838c0.616,0,1.221-0.242,1.65-0.683l0.396,0.539C83.631,9.003,82.916,9.3,82.058,9.3
		C80.474,9.3,79.34,8.167,79.34,6.506z M81.948,4.404c-1.133,0-1.694,0.957-1.738,1.76h3.487
		C83.686,5.384,83.158,4.404,81.948,4.404z"/>
	<path fill="#FFFFFF" d="M86.787,10.927l0.286-0.615c0.187,0.187,0.429,0.33,0.759,0.33c0.495,0,0.858-0.286,0.858-0.958v-5.83
		h0.825v5.83c0,1.046-0.55,1.64-1.573,1.64C87.403,11.324,87.117,11.192,86.787,10.927z M88.547,2.545
		c0-0.308,0.253-0.561,0.561-0.561s0.55,0.253,0.55,0.561c0,0.309-0.242,0.55-0.55,0.55S88.547,2.853,88.547,2.545z"/>
	<path fill="#FFFFFF" d="M90.857,6.506c0-1.54,1.012-2.783,2.629-2.783s2.629,1.243,2.629,2.783S95.104,9.3,93.486,9.3
		S90.857,8.046,90.857,6.506z M95.247,6.506c0-1.078-0.627-2.047-1.76-2.047s-1.76,0.969-1.76,2.047c0,1.089,0.627,2.057,1.76,2.057
		S95.247,7.594,95.247,6.506z"/>
	<path fill="#FFFFFF" d="M101.043,9.168V8.42c-0.407,0.462-1.1,0.88-1.892,0.88c-1.111,0-1.694-0.55-1.694-1.694V3.854h0.825v3.498
		c0,0.936,0.473,1.21,1.199,1.21c0.638,0,1.254-0.374,1.562-0.803V3.854h0.825v5.313H101.043z"/>
	<path fill="#FFFFFF" d="M103.518,9.168V3.854h0.825v0.847c0.429-0.55,1.045-0.968,1.771-0.968V4.58
		c-0.099-0.011-0.198-0.021-0.319-0.021c-0.517,0-1.21,0.418-1.452,0.847v3.763H103.518z"/>
	<path fill="#FFFFFF" d="M106.696,8.464l0.418-0.594c0.352,0.406,1.023,0.759,1.75,0.759c0.814,0,1.265-0.385,1.265-0.913
		c0-1.287-3.29-0.495-3.29-2.465c0-0.836,0.704-1.528,1.969-1.528c0.913,0,1.551,0.341,1.969,0.77l-0.385,0.572
		c-0.319-0.385-0.891-0.671-1.584-0.671c-0.726,0-1.177,0.362-1.177,0.836c0,1.155,3.29,0.396,3.29,2.464
		c0,0.892-0.715,1.606-2.079,1.606C107.961,9.3,107.235,9.025,106.696,8.464z"/>
	<path fill="#FFFFFF" d="M114.803,6.506c0-1.54,1.012-2.783,2.629-2.783s2.629,1.243,2.629,2.783S119.05,9.3,117.433,9.3
		S114.803,8.046,114.803,6.506z M119.193,6.506c0-1.078-0.627-2.047-1.76-2.047s-1.76,0.969-1.76,2.047
		c0,1.089,0.627,2.057,1.76,2.057S119.193,7.594,119.193,6.506z"/>
	<path fill="#FFFFFF" d="M124.99,9.168V8.42c-0.407,0.462-1.1,0.88-1.892,0.88c-1.111,0-1.694-0.55-1.694-1.694V3.854h0.825v3.498
		c0,0.936,0.473,1.21,1.199,1.21c0.638,0,1.254-0.374,1.562-0.803V3.854h0.825v5.313H124.99z M123.735,3.051l-1.859-1.584h0.858
		l1.628,1.584H123.735z"/>
	<path fill="#FFFFFF" d="M130.313,9.168V1.83h0.825v7.338H130.313z"/>
	<path fill="#FFFFFF" d="M133.008,4.217l-0.418-0.341c0.352-0.23,0.671-0.671,0.715-1.022c-0.022,0.011-0.099,0.021-0.154,0.021
		c-0.297,0-0.528-0.242-0.528-0.561c0-0.319,0.253-0.595,0.583-0.595c0.374,0,0.693,0.297,0.693,0.836
		C133.899,3.227,133.514,3.854,133.008,4.217z"/>
	<path fill="#FFFFFF" d="M138.64,9.168V8.562c-0.429,0.484-1.045,0.737-1.76,0.737c-0.891,0-1.848-0.604-1.848-1.76
		c0-1.199,0.946-1.75,1.848-1.75c0.726,0,1.332,0.231,1.76,0.716V5.549c0-0.704-0.572-1.111-1.342-1.111
		c-0.638,0-1.155,0.22-1.628,0.737l-0.385-0.572c0.572-0.595,1.254-0.88,2.124-0.88c1.133,0,2.057,0.506,2.057,1.793v3.652H138.64z
		 M138.64,8.046V7.033c-0.319-0.429-0.88-0.648-1.452-0.648c-0.781,0-1.32,0.483-1.32,1.155c0,0.682,0.539,1.166,1.32,1.166
		C137.76,8.706,138.321,8.486,138.64,8.046z"/>
	<path fill="#FFFFFF" d="M140.983,2.545c0-0.308,0.253-0.561,0.561-0.561s0.55,0.253,0.55,0.561c0,0.309-0.242,0.55-0.55,0.55
		S140.983,2.853,140.983,2.545z M141.126,9.168V3.854h0.825v5.313H141.126z"/>
	<path fill="#FFFFFF" d="M143.601,9.168V3.854h0.825v0.847c0.429-0.55,1.045-0.968,1.771-0.968V4.58
		c-0.099-0.011-0.198-0.021-0.319-0.021c-0.517,0-1.21,0.418-1.452,0.847v3.763H143.601z"/>
</g>
<g enable-background="new    ">
	<path fill="#FFFFFF" d="M31.051,19.706c0-1.54,1.1-2.783,2.618-2.783c1.606,0,2.553,1.254,2.553,2.849v0.209h-4.291
		c0.066,1.002,0.759,1.838,1.903,1.838c0.616,0,1.221-0.242,1.65-0.683l0.396,0.539c-0.539,0.528-1.254,0.825-2.112,0.825
		C32.184,22.5,31.051,21.367,31.051,19.706z M33.658,17.604c-1.133,0-1.694,0.957-1.738,1.76h3.487
		C35.396,18.584,34.868,17.604,33.658,17.604z M33.581,16.251h-0.627l1.628-1.584h0.858L33.581,16.251z"/>
	<path fill="#FFFFFF" d="M37.717,21.257V17.78h-0.88v-0.726h0.88v-1.452h0.836v1.452h1.078v0.726h-1.078v3.301
		c0,0.396,0.176,0.682,0.528,0.682c0.242,0,0.451-0.109,0.561-0.23l0.242,0.627c-0.209,0.198-0.506,0.341-0.979,0.341
		C38.113,22.5,37.717,22.049,37.717,21.257z"/>
	<path fill="#FFFFFF" d="M44.108,22.368v-0.605c-0.429,0.484-1.045,0.737-1.76,0.737c-0.891,0-1.848-0.604-1.848-1.76
		c0-1.199,0.946-1.75,1.848-1.75c0.726,0,1.332,0.231,1.76,0.716v-0.957c0-0.704-0.572-1.111-1.342-1.111
		c-0.638,0-1.155,0.22-1.628,0.737l-0.385-0.572c0.572-0.595,1.254-0.88,2.124-0.88c1.133,0,2.057,0.506,2.057,1.793v3.652H44.108z
		 M44.108,21.246v-1.013c-0.319-0.429-0.88-0.648-1.452-0.648c-0.781,0-1.32,0.483-1.32,1.155c0,0.682,0.539,1.166,1.32,1.166
		C43.228,21.906,43.789,21.686,44.108,21.246z"/>
	<path fill="#FFFFFF" d="M46.451,15.745c0-0.308,0.253-0.561,0.561-0.561s0.55,0.253,0.55,0.561c0,0.309-0.242,0.55-0.55,0.55
		S46.451,16.053,46.451,15.745z M46.594,22.368v-5.313h0.825v5.313H46.594z"/>
	<path fill="#FFFFFF" d="M49.233,21.257V17.78h-0.88v-0.726h0.88v-1.452h0.836v1.452h1.078v0.726h-1.078v3.301
		c0,0.396,0.176,0.682,0.528,0.682c0.242,0,0.451-0.109,0.561-0.23l0.242,0.627c-0.209,0.198-0.506,0.341-0.979,0.341
		C49.629,22.5,49.233,22.049,49.233,21.257z"/>
	<path fill="#FFFFFF" d="M59.002,22.368v-0.792c-0.396,0.539-1.045,0.924-1.793,0.924c-1.386,0-2.365-1.056-2.365-2.783
		c0-1.705,0.979-2.794,2.365-2.794c0.715,0,1.364,0.352,1.793,0.935V15.03h0.825v7.338H59.002z M59.002,20.916v-2.398
		c-0.286-0.462-0.935-0.858-1.584-0.858c-1.078,0-1.716,0.881-1.716,2.058s0.638,2.046,1.716,2.046
		C58.067,21.762,58.716,21.378,59.002,20.916z"/>
	<path fill="#FFFFFF" d="M61.168,19.706c0-1.54,1.1-2.783,2.618-2.783c1.606,0,2.553,1.254,2.553,2.849v0.209h-4.291
		c0.066,1.002,0.759,1.838,1.903,1.838c0.616,0,1.221-0.242,1.65-0.683l0.396,0.539c-0.539,0.528-1.254,0.825-2.112,0.825
		C62.301,22.5,61.168,21.367,61.168,19.706z M63.775,17.604c-1.133,0-1.694,0.957-1.738,1.76h3.487
		C65.514,18.584,64.985,17.604,63.775,17.604z"/>
	<path fill="#FFFFFF" d="M70.518,22.368V15.03h0.825v2.827c0.429-0.583,1.078-0.935,1.793-0.935c1.397,0,2.365,1.089,2.365,2.794
		c0,1.728-0.979,2.783-2.365,2.783c-0.748,0-1.397-0.385-1.793-0.924v0.792H70.518z M72.938,21.762c1.067,0,1.705-0.869,1.705-2.046
		s-0.638-2.058-1.705-2.058c-0.66,0-1.309,0.396-1.595,0.858v2.409C71.629,21.388,72.278,21.762,72.938,21.762z"/>
	<path fill="#FFFFFF" d="M76.535,19.706c0-1.54,1.012-2.783,2.629-2.783s2.629,1.243,2.629,2.783S80.781,22.5,79.164,22.5
		S76.535,21.246,76.535,19.706z M80.924,19.706c0-1.078-0.627-2.047-1.76-2.047s-1.76,0.969-1.76,2.047
		c0,1.089,0.627,2.057,1.76,2.057S80.924,20.795,80.924,19.706z"/>
	<path fill="#FFFFFF" d="M86.732,22.368v-3.477c0-0.946-0.484-1.232-1.199-1.232c-0.649,0-1.254,0.396-1.573,0.825v3.884h-0.825
		v-5.313h0.825v0.77c0.374-0.451,1.1-0.901,1.903-0.901c1.1,0,1.683,0.561,1.683,1.716v3.729H86.732z"/>
	<path fill="#FFFFFF" d="M92.804,22.368v-3.477c0-0.946-0.484-1.232-1.199-1.232c-0.649,0-1.254,0.396-1.573,0.825v3.884h-0.825
		v-5.313h0.825v0.77c0.374-0.451,1.1-0.901,1.903-0.901c1.1,0,1.683,0.561,1.683,1.716v3.729H92.804z"/>
	<path fill="#FFFFFF" d="M94.971,19.706c0-1.54,1.1-2.783,2.618-2.783c1.606,0,2.553,1.254,2.553,2.849v0.209h-4.291
		c0.066,1.002,0.759,1.838,1.903,1.838c0.616,0,1.221-0.242,1.65-0.683l0.396,0.539c-0.539,0.528-1.254,0.825-2.112,0.825
		C96.104,22.5,94.971,21.367,94.971,19.706z M97.578,17.604c-1.133,0-1.694,0.957-1.738,1.76h3.487
		C99.316,18.584,98.788,17.604,97.578,17.604z"/>
	<path fill="#FFFFFF" d="M103.979,19.706c0-1.728,0.968-2.783,2.366-2.783c0.748,0,1.408,0.385,1.793,0.924v-0.792h0.825v7.338
		h-0.825v-2.827c-0.44,0.583-1.067,0.935-1.793,0.935C104.947,22.5,103.979,21.422,103.979,19.706z M108.138,20.905v-2.398
		c-0.286-0.462-0.935-0.848-1.584-0.848c-1.067,0-1.706,0.869-1.706,2.047c0,1.177,0.638,2.057,1.706,2.057
		C107.203,21.762,107.852,21.367,108.138,20.905z"/>
	<path fill="#FFFFFF" d="M114.199,22.368V21.62c-0.407,0.462-1.1,0.88-1.892,0.88c-1.111,0-1.694-0.55-1.694-1.694v-3.751h0.825
		v3.498c0,0.936,0.473,1.21,1.199,1.21c0.638,0,1.254-0.374,1.562-0.803v-3.905h0.825v5.313H114.199z"/>
	<path fill="#FFFFFF" d="M119.996,22.368v-0.605c-0.429,0.484-1.045,0.737-1.76,0.737c-0.891,0-1.848-0.604-1.848-1.76
		c0-1.199,0.946-1.75,1.848-1.75c0.726,0,1.332,0.231,1.76,0.716v-0.957c0-0.704-0.572-1.111-1.342-1.111
		c-0.638,0-1.155,0.22-1.628,0.737l-0.385-0.572c0.572-0.595,1.254-0.88,2.124-0.88c1.133,0,2.057,0.506,2.057,1.793v3.652H119.996z
		 M119.996,21.246v-1.013c-0.319-0.429-0.88-0.648-1.452-0.648c-0.781,0-1.32,0.483-1.32,1.155c0,0.682,0.539,1.166,1.32,1.166
		C119.116,21.906,119.677,21.686,119.996,21.246z"/>
	<path fill="#FFFFFF" d="M122.481,22.368V15.03h0.825v7.338H122.481z"/>
	<path fill="#FFFFFF" d="M124.813,15.745c0-0.308,0.253-0.561,0.561-0.561s0.55,0.253,0.55,0.561c0,0.309-0.242,0.55-0.55,0.55
		S124.813,16.053,124.813,15.745z M124.956,22.368v-5.313h0.825v5.313H124.956z"/>
	<path fill="#FFFFFF" d="M127.596,21.257V17.78h-0.88v-0.726h0.88v-1.452h0.836v1.452h1.078v0.726h-1.078v3.301
		c0,0.396,0.176,0.682,0.528,0.682c0.242,0,0.451-0.109,0.561-0.23l0.242,0.627c-0.209,0.198-0.506,0.341-0.979,0.341
		C127.992,22.5,127.596,22.049,127.596,21.257z"/>
	<path fill="#FFFFFF" d="M130.357,19.706c0-1.54,1.1-2.783,2.618-2.783c1.606,0,2.553,1.254,2.553,2.849v0.209h-4.291
		c0.066,1.002,0.759,1.838,1.903,1.838c0.616,0,1.221-0.242,1.65-0.683l0.396,0.539c-0.539,0.528-1.254,0.825-2.112,0.825
		C131.49,22.5,130.357,21.367,130.357,19.706z M132.964,17.604c-1.133,0-1.694,0.957-1.738,1.76h3.487
		C134.703,18.584,134.174,17.604,132.964,17.604z M132.887,16.251h-0.627l1.628-1.584h0.858L132.887,16.251z"/>
	<path fill="#FFFFFF" d="M32.569,37.758c-0.99-1.364-1.551-3.092-1.551-4.863c0-1.771,0.561-3.498,1.551-4.862l0.506,0.374
		c-0.715,1.397-1.155,2.651-1.155,4.488c0,1.827,0.44,3.092,1.155,4.479L32.569,37.758z"/>
	<path fill="#FFFFFF" d="M35.704,28.945c0-0.308,0.253-0.561,0.561-0.561s0.55,0.253,0.55,0.561c0,0.309-0.242,0.55-0.55,0.55
		S35.704,29.254,35.704,28.945z M35.847,35.568v-5.313h0.825v5.313H35.847z"/>
	<path fill="#FFFFFF" d="M41.919,35.568v-3.477c0-0.946-0.484-1.232-1.199-1.232c-0.649,0-1.254,0.396-1.573,0.825v3.884h-0.825
		v-5.313h0.825v0.77c0.374-0.451,1.1-0.901,1.903-0.901c1.1,0,1.683,0.561,1.683,1.716v3.729H41.919z"/>
	<path fill="#FFFFFF" d="M48.244,35.568v-0.792c-0.396,0.539-1.045,0.924-1.793,0.924c-1.386,0-2.365-1.056-2.365-2.783
		c0-1.705,0.979-2.794,2.365-2.794c0.715,0,1.364,0.352,1.793,0.935V28.23h0.825v7.338H48.244z M48.244,34.116v-2.398
		c-0.286-0.462-0.935-0.858-1.584-0.858c-1.078,0-1.716,0.881-1.716,2.058s0.638,2.046,1.716,2.046
		C47.309,34.963,47.958,34.578,48.244,34.116z"/>
	<path fill="#FFFFFF" d="M50.575,28.945c0-0.308,0.253-0.561,0.561-0.561s0.55,0.253,0.55,0.561c0,0.309-0.242,0.55-0.55,0.55
		S50.575,29.254,50.575,28.945z M50.718,35.568v-5.313h0.825v5.313H50.718z"/>
	<path fill="#FFFFFF" d="M52.885,32.906c0-1.573,1.067-2.783,2.651-2.783c0.968,0,1.54,0.396,1.947,0.924l-0.55,0.495
		c-0.352-0.484-0.803-0.683-1.353-0.683c-1.122,0-1.837,0.869-1.837,2.047c0,1.177,0.715,2.057,1.837,2.057
		c0.55,0,1.001-0.22,1.353-0.692l0.55,0.506c-0.407,0.528-0.979,0.924-1.947,0.924C53.953,35.7,52.885,34.479,52.885,32.906z"/>
	<path fill="#FFFFFF" d="M58.341,32.906c0-1.54,1.1-2.783,2.618-2.783c1.606,0,2.553,1.254,2.553,2.849v0.209h-4.291
		c0.066,1.002,0.759,1.838,1.903,1.838c0.616,0,1.221-0.242,1.65-0.683l0.396,0.539c-0.539,0.528-1.254,0.825-2.112,0.825
		C59.475,35.7,58.341,34.567,58.341,32.906z M60.949,30.804c-1.133,0-1.694,0.957-1.738,1.76h3.487
		C62.687,31.784,62.159,30.804,60.949,30.804z"/>
	<path fill="#FFFFFF" d="M67.383,32.906c0-1.54,1.1-2.783,2.618-2.783c1.606,0,2.553,1.254,2.553,2.849v0.209h-4.291
		c0.066,1.002,0.759,1.838,1.903,1.838c0.616,0,1.221-0.242,1.65-0.683l0.396,0.539C71.673,35.403,70.958,35.7,70.1,35.7
		C68.516,35.7,67.383,34.567,67.383,32.906z M69.99,30.804c-1.133,0-1.694,0.957-1.738,1.76h3.487
		C71.729,31.784,71.2,30.804,69.99,30.804z"/>
	<path fill="#FFFFFF" d="M77.481,35.568v-3.477c0-0.946-0.484-1.232-1.199-1.232c-0.649,0-1.254,0.396-1.573,0.825v3.884h-0.825
		v-5.313h0.825v0.77c0.374-0.451,1.1-0.901,1.903-0.901c1.1,0,1.683,0.561,1.683,1.716v3.729H77.481z"/>
	<path fill="#FFFFFF" d="M80.121,34.457V30.98h-0.88v-0.726h0.88v-1.452h0.836v1.452h1.078v0.726h-1.078v3.301
		c0,0.396,0.176,0.682,0.528,0.682c0.242,0,0.451-0.109,0.561-0.23l0.242,0.627c-0.209,0.198-0.506,0.341-0.979,0.341
		C80.517,35.7,80.121,35.249,80.121,34.457z"/>
	<path fill="#FFFFFF" d="M83.189,35.568v-5.313h0.825v0.847c0.429-0.55,1.045-0.968,1.771-0.968v0.847
		c-0.099-0.011-0.198-0.021-0.319-0.021c-0.517,0-1.21,0.418-1.452,0.847v3.763H83.189z"/>
	<path fill="#FFFFFF" d="M86.511,32.906c0-1.54,1.1-2.783,2.618-2.783c1.606,0,2.553,1.254,2.553,2.849v0.209h-4.291
		c0.066,1.002,0.759,1.838,1.903,1.838c0.616,0,1.221-0.242,1.65-0.683l0.396,0.539c-0.539,0.528-1.254,0.825-2.112,0.825
		C87.645,35.7,86.511,34.567,86.511,32.906z M89.119,30.804c-1.133,0-1.694,0.957-1.738,1.76h3.487
		C90.857,31.784,90.329,30.804,89.119,30.804z"/>
	<path fill="#FFFFFF" d="M96.995,35.568v-6.139l-1.177,1.254l-0.55-0.561l1.837-1.893h0.803v7.338H96.995z"/>
	<path fill="#FFFFFF" d="M102.131,32.906c0-1.54,1.1-2.783,2.618-2.783c1.606,0,2.553,1.254,2.553,2.849v0.209h-4.291
		c0.066,1.002,0.759,1.838,1.903,1.838c0.616,0,1.221-0.242,1.65-0.683l0.396,0.539c-0.539,0.528-1.254,0.825-2.112,0.825
		C103.264,35.7,102.131,34.567,102.131,32.906z M104.738,30.804c-1.133,0-1.694,0.957-1.738,1.76h3.487
		C106.477,31.784,105.948,30.804,104.738,30.804z"/>
	<path fill="#FFFFFF" d="M108.797,34.457V30.98h-0.88v-0.726h0.88v-1.452h0.836v1.452h1.078v0.726h-1.078v3.301
		c0,0.396,0.176,0.682,0.528,0.682c0.242,0,0.451-0.109,0.561-0.23l0.242,0.627c-0.209,0.198-0.506,0.341-0.979,0.341
		C109.193,35.7,108.797,35.249,108.797,34.457z"/>
	<path fill="#FFFFFF" d="M114.615,34.523l0.561-0.616c0.484,0.627,1.133,0.979,2.024,0.979c1.001,0,1.694-0.683,1.694-1.573
		c0-0.969-0.693-1.585-1.684-1.585c-0.638,0-1.199,0.209-1.694,0.683l-0.671-0.231V28.23h4.489v0.813h-3.576v2.553
		c0.363-0.352,0.979-0.66,1.716-0.66c1.232,0,2.343,0.825,2.343,2.344c0,1.485-1.144,2.42-2.618,2.42
		C115.968,35.7,115.166,35.249,114.615,34.523z"/>
	<path fill="#FFFFFF" d="M123.91,28.945c0-0.308,0.253-0.561,0.561-0.561s0.55,0.253,0.55,0.561c0,0.309-0.242,0.55-0.55,0.55
		S123.91,29.254,123.91,28.945z M124.053,35.568v-5.313h0.825v5.313H124.053z"/>
	<path fill="#FFFFFF" d="M130.126,35.568v-3.477c0-0.946-0.484-1.232-1.199-1.232c-0.649,0-1.254,0.396-1.573,0.825v3.884h-0.825
		v-5.313h0.825v0.77c0.374-0.451,1.1-0.901,1.903-0.901c1.1,0,1.683,0.561,1.683,1.716v3.729H130.126z"/>
	<path fill="#FFFFFF" d="M132.292,32.906c0-1.573,1.067-2.783,2.651-2.783c0.968,0,1.54,0.396,1.947,0.924l-0.55,0.495
		c-0.352-0.484-0.803-0.683-1.353-0.683c-1.122,0-1.837,0.869-1.837,2.047c0,1.177,0.715,2.057,1.837,2.057
		c0.55,0,1.001-0.22,1.353-0.692l0.55,0.506c-0.407,0.528-0.979,0.924-1.947,0.924C133.359,35.7,132.292,34.479,132.292,32.906z"/>
	<path fill="#FFFFFF" d="M138.056,35.568V28.23h0.825v7.338H138.056z"/>
	<path fill="#FFFFFF" d="M144.117,35.568V34.82c-0.407,0.462-1.1,0.88-1.892,0.88c-1.111,0-1.694-0.55-1.694-1.694v-3.751h0.825
		v3.498c0,0.936,0.473,1.21,1.199,1.21c0.638,0,1.254-0.374,1.562-0.803v-3.905h0.825v5.313H144.117z"/>
	<path fill="#FFFFFF" d="M146.141,34.864l0.418-0.594c0.352,0.406,1.023,0.759,1.75,0.759c0.814,0,1.265-0.385,1.265-0.913
		c0-1.287-3.29-0.495-3.29-2.465c0-0.836,0.704-1.528,1.969-1.528c0.913,0,1.551,0.341,1.969,0.77l-0.385,0.572
		c-0.319-0.385-0.891-0.671-1.584-0.671c-0.726,0-1.177,0.362-1.177,0.836c0,1.155,3.29,0.396,3.29,2.464
		c0,0.892-0.715,1.606-2.079,1.606C147.406,35.7,146.68,35.426,146.141,34.864z"/>
	<path fill="#FFFFFF" d="M152.608,37.373c0.715-1.387,1.155-2.651,1.155-4.479c0-1.837-0.44-3.091-1.155-4.488l0.506-0.374
		c0.99,1.364,1.551,3.092,1.551,4.862c0,1.771-0.561,3.499-1.551,4.863L152.608,37.373z"/>
</g>
<g enable-background="new    ">
	<path fill="#FFFFFF" d="M410.291,9.168V1.83h2.949c1.474,0,2.299,1.012,2.299,2.211s-0.836,2.212-2.299,2.212h-2.035v2.915H410.291
		z M414.593,4.041c0-0.825-0.595-1.397-1.464-1.397h-1.924v2.795h1.924C413.998,5.438,414.593,4.866,414.593,4.041z"/>
	<path fill="#FFFFFF" d="M419.817,9.168V8.562c-0.429,0.484-1.045,0.737-1.761,0.737c-0.891,0-1.848-0.604-1.848-1.76
		c0-1.199,0.946-1.75,1.848-1.75c0.727,0,1.332,0.231,1.761,0.716V5.549c0-0.704-0.571-1.111-1.343-1.111
		c-0.637,0-1.154,0.22-1.627,0.737l-0.386-0.572c0.572-0.595,1.255-0.88,2.124-0.88c1.133,0,2.057,0.506,2.057,1.793v3.652H419.817z
		 M419.817,8.046V7.033c-0.319-0.429-0.88-0.648-1.452-0.648c-0.781,0-1.32,0.483-1.32,1.155c0,0.682,0.539,1.166,1.32,1.166
		C418.938,8.706,419.498,8.486,419.817,8.046z"/>
	<path fill="#FFFFFF" d="M422.303,9.168V3.854h0.826v0.847c0.428-0.55,1.045-0.968,1.771-0.968V4.58
		c-0.099-0.011-0.198-0.021-0.319-0.021c-0.517,0-1.21,0.418-1.451,0.847v3.763H422.303z"/>
	<path fill="#FFFFFF" d="M426.098,8.056V4.58h-0.88V3.854h0.88V2.402h0.836v1.452h1.078V4.58h-1.078v3.301
		c0,0.396,0.177,0.682,0.529,0.682c0.241,0,0.45-0.109,0.561-0.23l0.242,0.627c-0.209,0.198-0.506,0.341-0.979,0.341
		C426.494,9.3,426.098,8.848,426.098,8.056z"/>
	<path fill="#FFFFFF" d="M435.867,9.168V8.376c-0.396,0.539-1.046,0.924-1.794,0.924c-1.386,0-2.365-1.056-2.365-2.783
		c0-1.705,0.979-2.794,2.365-2.794c0.716,0,1.364,0.352,1.794,0.935V1.83h0.824v7.338H435.867z M435.867,7.716V5.317
		c-0.287-0.462-0.936-0.858-1.585-0.858c-1.078,0-1.716,0.881-1.716,2.058s0.638,2.046,1.716,2.046
		C434.932,8.562,435.58,8.177,435.867,7.716z"/>
	<path fill="#FFFFFF" d="M438.033,6.506c0-1.54,1.1-2.783,2.617-2.783c1.607,0,2.553,1.254,2.553,2.849V6.78h-4.291
		c0.066,1.002,0.76,1.838,1.904,1.838c0.615,0,1.221-0.242,1.65-0.683l0.396,0.539c-0.539,0.528-1.254,0.825-2.112,0.825
		C439.166,9.3,438.033,8.167,438.033,6.506z M440.641,4.404c-1.134,0-1.695,0.957-1.738,1.76h3.486
		C442.379,5.384,441.85,4.404,440.641,4.404z"/>
	<path fill="#FFFFFF" d="M447.383,9.168V1.83h0.825v7.338H447.383z"/>
	<path fill="#FFFFFF" d="M453.18,9.168V8.562c-0.429,0.484-1.045,0.737-1.76,0.737c-0.892,0-1.849-0.604-1.849-1.76
		c0-1.199,0.946-1.75,1.849-1.75c0.726,0,1.331,0.231,1.76,0.716V5.549c0-0.704-0.572-1.111-1.342-1.111
		c-0.639,0-1.155,0.22-1.629,0.737l-0.385-0.572c0.572-0.595,1.254-0.88,2.123-0.88c1.133,0,2.058,0.506,2.058,1.793v3.652H453.18z
		 M453.18,8.046V7.033c-0.318-0.429-0.88-0.648-1.452-0.648c-0.781,0-1.32,0.483-1.32,1.155c0,0.682,0.539,1.166,1.32,1.166
		C452.3,8.706,452.861,8.486,453.18,8.046z"/>
	<path fill="#FFFFFF" d="M459.34,8.365v2.827h-0.826V3.854h0.826v0.792c0.385-0.539,1.045-0.924,1.793-0.924
		c1.396,0,2.365,1.056,2.365,2.783c0,1.716-0.969,2.794-2.365,2.794C460.406,9.3,459.779,8.948,459.34,8.365z M462.629,6.506
		c0-1.178-0.639-2.047-1.705-2.047c-0.649,0-1.299,0.386-1.584,0.848v2.398c0.285,0.462,0.935,0.857,1.584,0.857
		C461.99,8.562,462.629,7.682,462.629,6.506z"/>
	<path fill="#FFFFFF" d="M464.498,6.506c0-1.54,1.012-2.783,2.629-2.783s2.63,1.243,2.63,2.783s-1.013,2.794-2.63,2.794
		S464.498,8.046,464.498,6.506z M468.888,6.506c0-1.078-0.627-2.047-1.761-2.047c-1.133,0-1.76,0.969-1.76,2.047
		c0,1.089,0.627,2.057,1.76,2.057C468.261,8.562,468.888,7.594,468.888,6.506z"/>
	<path fill="#FFFFFF" d="M471.924,8.365v2.827h-0.826V3.854h0.826v0.792c0.385-0.539,1.045-0.924,1.793-0.924
		c1.396,0,2.365,1.056,2.365,2.783c0,1.716-0.969,2.794-2.365,2.794C472.99,9.3,472.363,8.948,471.924,8.365z M475.213,6.506
		c0-1.178-0.639-2.047-1.705-2.047c-0.649,0-1.299,0.386-1.584,0.848v2.398c0.285,0.462,0.935,0.857,1.584,0.857
		C474.574,8.562,475.213,7.682,475.213,6.506z"/>
	<path fill="#FFFFFF" d="M480.977,9.168V8.42c-0.407,0.462-1.1,0.88-1.893,0.88c-1.111,0-1.693-0.55-1.693-1.694V3.854h0.824v3.498
		c0,0.936,0.474,1.21,1.199,1.21c0.639,0,1.254-0.374,1.563-0.803V3.854h0.825v5.313H480.977z"/>
	<path fill="#FFFFFF" d="M483.451,9.168V1.83h0.825v7.338H483.451z"/>
	<path fill="#FFFFFF" d="M489.248,9.168V8.562c-0.429,0.484-1.045,0.737-1.76,0.737c-0.892,0-1.849-0.604-1.849-1.76
		c0-1.199,0.946-1.75,1.849-1.75c0.726,0,1.331,0.231,1.76,0.716V5.549c0-0.704-0.572-1.111-1.342-1.111
		c-0.639,0-1.155,0.22-1.629,0.737l-0.385-0.572c0.572-0.595,1.254-0.88,2.123-0.88c1.133,0,2.058,0.506,2.058,1.793v3.652H489.248z
		 M489.248,8.046V7.033c-0.318-0.429-0.88-0.648-1.452-0.648c-0.781,0-1.32,0.483-1.32,1.155c0,0.682,0.539,1.166,1.32,1.166
		C488.368,8.706,488.93,8.486,489.248,8.046z"/>
	<path fill="#FFFFFF" d="M491.898,8.056V4.58h-0.88V3.854h0.88V2.402h0.836v1.452h1.078V4.58h-1.078v3.301
		c0,0.396,0.177,0.682,0.529,0.682c0.241,0,0.45-0.109,0.561-0.23l0.242,0.627c-0.209,0.198-0.506,0.341-0.979,0.341
		C492.295,9.3,491.898,8.848,491.898,8.056z"/>
	<path fill="#FFFFFF" d="M494.824,2.545c0-0.308,0.254-0.561,0.562-0.561s0.55,0.253,0.55,0.561c0,0.309-0.242,0.55-0.55,0.55
		S494.824,2.853,494.824,2.545z M494.968,9.168V3.854h0.825v5.313H494.968z"/>
	<path fill="#FFFFFF" d="M497.135,6.506c0-1.54,1.012-2.783,2.629-2.783s2.63,1.243,2.63,2.783s-1.013,2.794-2.63,2.794
		S497.135,8.046,497.135,6.506z M501.524,6.506c0-1.078-0.627-2.047-1.761-2.047c-1.133,0-1.76,0.969-1.76,2.047
		c0,1.089,0.627,2.057,1.76,2.057C500.897,8.562,501.524,7.594,501.524,6.506z"/>
	<path fill="#FFFFFF" d="M507.332,9.168V5.691c0-0.946-0.484-1.232-1.199-1.232c-0.648,0-1.254,0.396-1.572,0.825v3.884h-0.826
		V3.854h0.826v0.77c0.373-0.451,1.1-0.901,1.902-0.901c1.101,0,1.684,0.561,1.684,1.716v3.729H507.332z"/>
	<path fill="#FFFFFF" d="M516.242,9.168V8.42c-0.408,0.462-1.101,0.88-1.893,0.88c-1.111,0-1.694-0.55-1.694-1.694V3.854h0.825
		v3.498c0,0.936,0.473,1.21,1.199,1.21c0.638,0,1.254-0.374,1.563-0.803V3.854h0.824v5.313H516.242z"/>
	<path fill="#FFFFFF" d="M518.881,8.056V4.58h-0.88V3.854h0.88V2.402h0.836v1.452h1.078V4.58h-1.078v3.301
		c0,0.396,0.177,0.682,0.529,0.682c0.241,0,0.45-0.109,0.561-0.23l0.242,0.627c-0.209,0.198-0.506,0.341-0.979,0.341
		C519.277,9.3,518.881,8.848,518.881,8.056z"/>
	<path fill="#FFFFFF" d="M521.807,2.545c0-0.308,0.254-0.561,0.562-0.561s0.55,0.253,0.55,0.561c0,0.309-0.242,0.55-0.55,0.55
		S521.807,2.853,521.807,2.545z M521.95,9.168V3.854h0.825v5.313H521.95z"/>
	<path fill="#FFFFFF" d="M524.426,9.168V1.83h0.824v7.338H524.426z"/>
	<path fill="#FFFFFF" d="M526.757,2.545c0-0.308,0.253-0.561,0.562-0.561c0.308,0,0.55,0.253,0.55,0.561
		c0,0.309-0.242,0.55-0.55,0.55C527.01,3.094,526.757,2.853,526.757,2.545z M526.9,9.168V3.854h0.824v5.313H526.9z"/>
	<path fill="#FFFFFF" d="M528.924,8.464l0.418-0.594c0.352,0.406,1.023,0.759,1.75,0.759c0.813,0,1.265-0.385,1.265-0.913
		c0-1.287-3.29-0.495-3.29-2.465c0-0.836,0.705-1.528,1.97-1.528c0.913,0,1.552,0.341,1.97,0.77l-0.385,0.572
		c-0.32-0.385-0.892-0.671-1.585-0.671c-0.726,0-1.177,0.362-1.177,0.836c0,1.155,3.289,0.396,3.289,2.464
		c0,0.892-0.715,1.606-2.079,1.606C530.189,9.3,529.463,9.025,528.924,8.464z"/>
	<path fill="#FFFFFF" d="M537.813,9.168V8.562c-0.43,0.484-1.045,0.737-1.761,0.737c-0.892,0-1.849-0.604-1.849-1.76
		c0-1.199,0.947-1.75,1.849-1.75c0.726,0,1.331,0.231,1.761,0.716V5.549c0-0.704-0.572-1.111-1.343-1.111
		c-0.638,0-1.155,0.22-1.628,0.737l-0.385-0.572c0.572-0.595,1.254-0.88,2.123-0.88c1.133,0,2.057,0.506,2.057,1.793v3.652H537.813z
		 M537.813,8.046V7.033c-0.319-0.429-0.881-0.648-1.453-0.648c-0.781,0-1.32,0.483-1.32,1.155c0,0.682,0.539,1.166,1.32,1.166
		C536.932,8.706,537.493,8.486,537.813,8.046z"/>
	<path fill="#FFFFFF" d="M543.896,9.168V5.691c0-0.946-0.484-1.232-1.199-1.232c-0.649,0-1.255,0.396-1.573,0.825v3.884h-0.825
		V3.854h0.825v0.77c0.374-0.451,1.1-0.901,1.903-0.901c1.101,0,1.683,0.561,1.683,1.716v3.729H543.896z"/>
	<path fill="#FFFFFF" d="M546.535,8.056V4.58h-0.881V3.854h0.881V2.402h0.836v1.452h1.078V4.58h-1.078v3.301
		c0,0.396,0.176,0.682,0.527,0.682c0.242,0,0.451-0.109,0.562-0.23l0.241,0.627c-0.209,0.198-0.506,0.341-0.979,0.341
		C546.931,9.3,546.535,8.848,546.535,8.056z"/>
	<path fill="#FFFFFF" d="M552.453,9.168V1.83h0.824v7.338H552.453z"/>
	<path fill="#FFFFFF" d="M554.619,6.506c0-1.54,1.1-2.783,2.618-2.783c1.606,0,2.553,1.254,2.553,2.849V6.78h-4.291
		c0.066,1.002,0.759,1.838,1.903,1.838c0.616,0,1.221-0.242,1.65-0.683l0.396,0.539c-0.539,0.528-1.254,0.825-2.113,0.825
		C555.752,9.3,554.619,8.167,554.619,6.506z M557.227,4.404c-1.133,0-1.694,0.957-1.738,1.76h3.487
		C558.965,5.384,558.437,4.404,557.227,4.404z"/>
	<path fill="#FFFFFF" d="M560.669,8.464l0.418-0.594c0.353,0.406,1.023,0.759,1.749,0.759c0.814,0,1.266-0.385,1.266-0.913
		c0-1.287-3.289-0.495-3.289-2.465c0-0.836,0.703-1.528,1.969-1.528c0.913,0,1.551,0.341,1.969,0.77l-0.385,0.572
		c-0.318-0.385-0.891-0.671-1.584-0.671c-0.727,0-1.178,0.362-1.178,0.836c0,1.155,3.29,0.396,3.29,2.464
		c0,0.892-0.715,1.606-2.079,1.606C561.934,9.3,561.208,9.025,560.669,8.464z"/>
	<path fill="#FFFFFF" d="M569.249,8.056V4.58h-0.88V3.854h0.88V2.402h0.836v1.452h1.078V4.58h-1.078v3.301
		c0,0.396,0.177,0.682,0.528,0.682c0.242,0,0.451-0.109,0.561-0.23l0.242,0.627c-0.209,0.198-0.506,0.341-0.979,0.341
		C569.645,9.3,569.249,8.848,569.249,8.056z"/>
	<path fill="#FFFFFF" d="M572.318,9.168V3.854h0.824v0.847c0.43-0.55,1.045-0.968,1.771-0.968V4.58
		c-0.1-0.011-0.197-0.021-0.318-0.021c-0.518,0-1.211,0.418-1.453,0.847v3.763H572.318z"/>
	<path fill="#FFFFFF" d="M579.27,9.168V8.562c-0.428,0.484-1.045,0.737-1.76,0.737c-0.891,0-1.848-0.604-1.848-1.76
		c0-1.199,0.945-1.75,1.848-1.75c0.727,0,1.332,0.231,1.76,0.716V5.549c0-0.704-0.571-1.111-1.342-1.111
		c-0.638,0-1.154,0.22-1.628,0.737l-0.386-0.572c0.572-0.595,1.255-0.88,2.124-0.88c1.134,0,2.058,0.506,2.058,1.793v3.652H579.27z
		 M579.27,8.046V7.033c-0.318-0.429-0.879-0.648-1.451-0.648c-0.781,0-1.32,0.483-1.32,1.155c0,0.682,0.539,1.166,1.32,1.166
		C578.391,8.706,578.951,8.486,579.27,8.046z"/>
	<path fill="#FFFFFF" d="M585.354,9.168V5.691c0-0.946-0.484-1.232-1.199-1.232c-0.649,0-1.254,0.396-1.573,0.825v3.884h-0.825
		V3.854h0.825v0.77c0.374-0.451,1.101-0.901,1.903-0.901c1.1,0,1.684,0.561,1.684,1.716v3.729H585.354z"/>
	<path fill="#FFFFFF" d="M587.377,8.464l0.418-0.594c0.352,0.406,1.023,0.759,1.749,0.759c0.813,0,1.265-0.385,1.265-0.913
		c0-1.287-3.289-0.495-3.289-2.465c0-0.836,0.704-1.528,1.969-1.528c0.914,0,1.552,0.341,1.97,0.77l-0.385,0.572
		c-0.319-0.385-0.892-0.671-1.585-0.671c-0.726,0-1.177,0.362-1.177,0.836c0,1.155,3.29,0.396,3.29,2.464
		c0,0.892-0.715,1.606-2.08,1.606C588.642,9.3,587.916,9.025,587.377,8.464z"/>
	<path fill="#FFFFFF" d="M593.768,8.365v2.827h-0.824V3.854h0.824v0.792c0.385-0.539,1.045-0.924,1.793-0.924
		c1.398,0,2.365,1.056,2.365,2.783c0,1.716-0.967,2.794-2.365,2.794C594.835,9.3,594.208,8.948,593.768,8.365z M597.058,6.506
		c0-1.178-0.638-2.047-1.706-2.047c-0.648,0-1.297,0.386-1.584,0.848v2.398c0.287,0.462,0.936,0.857,1.584,0.857
		C596.42,8.562,597.058,7.682,597.058,6.506z"/>
	<path fill="#FFFFFF" d="M598.926,6.506c0-1.54,1.013-2.783,2.63-2.783s2.63,1.243,2.63,2.783s-1.013,2.794-2.63,2.794
		S598.926,8.046,598.926,6.506z M603.316,6.506c0-1.078-0.627-2.047-1.761-2.047s-1.761,0.969-1.761,2.047
		c0,1.089,0.627,2.057,1.761,2.057S603.316,7.594,603.316,6.506z"/>
	<path fill="#FFFFFF" d="M605.526,9.168V3.854h0.825v0.847c0.429-0.55,1.045-0.968,1.771-0.968V4.58
		c-0.1-0.011-0.198-0.021-0.319-0.021c-0.517,0-1.21,0.418-1.452,0.847v3.763H605.526z"/>
	<path fill="#FFFFFF" d="M609.321,8.056V4.58h-0.88V3.854h0.88V2.402h0.836v1.452h1.078V4.58h-1.078v3.301
		c0,0.396,0.177,0.682,0.528,0.682c0.242,0,0.451-0.109,0.561-0.23l0.242,0.627c-0.209,0.198-0.506,0.341-0.979,0.341
		C609.717,9.3,609.321,8.848,609.321,8.056z"/>
	<path fill="#FFFFFF" d="M611.939,8.464l0.418-0.594c0.352,0.406,1.023,0.759,1.749,0.759c0.813,0,1.265-0.385,1.265-0.913
		c0-1.287-3.289-0.495-3.289-2.465c0-0.836,0.704-1.528,1.969-1.528c0.914,0,1.552,0.341,1.97,0.77l-0.385,0.572
		c-0.319-0.385-0.892-0.671-1.585-0.671c-0.726,0-1.177,0.362-1.177,0.836c0,1.155,3.29,0.396,3.29,2.464
		c0,0.892-0.715,1.606-2.08,1.606C613.204,9.3,612.479,9.025,611.939,8.464z"/>
</g>
<g enable-background="new    ">
	<path fill="#FFFFFF" d="M409.95,19.706c0-1.54,1.101-2.783,2.618-2.783c1.606,0,2.553,1.254,2.553,2.849v0.209h-4.291
		c0.066,1.002,0.76,1.838,1.903,1.838c0.616,0,1.222-0.242,1.65-0.683l0.396,0.539c-0.539,0.528-1.254,0.825-2.111,0.825
		C411.084,22.5,409.95,21.367,409.95,19.706z M412.558,17.604c-1.134,0-1.694,0.957-1.738,1.76h3.487
		C414.296,18.584,413.768,17.604,412.558,17.604z"/>
	<path fill="#FFFFFF" d="M420.049,22.368v-3.477c0-0.946-0.484-1.232-1.199-1.232c-0.649,0-1.254,0.396-1.573,0.825v3.884h-0.825
		v-5.313h0.825v0.77c0.374-0.451,1.101-0.901,1.903-0.901c1.1,0,1.684,0.561,1.684,1.716v3.729H420.049z"/>
	<path fill="#FFFFFF" d="M425.064,19.706c0-1.573,1.066-2.783,2.65-2.783c0.969,0,1.541,0.396,1.947,0.924l-0.55,0.495
		c-0.353-0.484-0.803-0.683-1.353-0.683c-1.123,0-1.838,0.869-1.838,2.047c0,1.177,0.715,2.057,1.838,2.057
		c0.55,0,1-0.22,1.353-0.692l0.55,0.506c-0.406,0.528-0.979,0.924-1.947,0.924C426.131,22.5,425.064,21.279,425.064,19.706z"/>
	<path fill="#FFFFFF" d="M430.52,19.706c0-1.54,1.012-2.783,2.629-2.783s2.63,1.243,2.63,2.783s-1.013,2.794-2.63,2.794
		S430.52,21.246,430.52,19.706z M434.909,19.706c0-1.078-0.627-2.047-1.761-2.047c-1.133,0-1.76,0.969-1.76,2.047
		c0,1.089,0.627,2.057,1.76,2.057C434.282,21.762,434.909,20.795,434.909,19.706z"/>
	<path fill="#FFFFFF" d="M443.533,22.368V18.76c0-0.671-0.285-1.101-0.979-1.101c-0.551,0-1.133,0.386-1.408,0.814v3.895h-0.826
		V18.76c0-0.671-0.274-1.101-0.979-1.101c-0.539,0-1.111,0.396-1.396,0.825v3.884h-0.826v-5.313h0.826v0.77
		c0.23-0.341,0.935-0.901,1.727-0.901c0.803,0,1.266,0.439,1.42,0.989c0.297-0.483,1.012-0.989,1.781-0.989
		c0.969,0,1.485,0.539,1.485,1.605v3.84H443.533z"/>
	<path fill="#FFFFFF" d="M452.422,22.368V18.76c0-0.671-0.286-1.101-0.979-1.101c-0.55,0-1.133,0.386-1.408,0.814v3.895h-0.825
		V18.76c0-0.671-0.275-1.101-0.979-1.101c-0.539,0-1.111,0.396-1.397,0.825v3.884h-0.825v-5.313h0.825v0.77
		c0.231-0.341,0.935-0.901,1.728-0.901c0.803,0,1.265,0.439,1.419,0.989c0.297-0.483,1.013-0.989,1.782-0.989
		c0.968,0,1.484,0.539,1.484,1.605v3.84H452.422z"/>
	<path fill="#FFFFFF" d="M458.482,22.368V21.62c-0.408,0.462-1.101,0.88-1.893,0.88c-1.111,0-1.694-0.55-1.694-1.694v-3.751h0.825
		v3.498c0,0.936,0.473,1.21,1.199,1.21c0.638,0,1.254-0.374,1.563-0.803v-3.905h0.824v5.313H458.482z"/>
	<path fill="#FFFFFF" d="M464.555,22.368v-3.477c0-0.946-0.484-1.232-1.199-1.232c-0.65,0-1.255,0.396-1.574,0.825v3.884h-0.824
		v-5.313h0.824v0.77c0.375-0.451,1.101-0.901,1.904-0.901c1.1,0,1.683,0.561,1.683,1.716v3.729H464.555z"/>
	<path fill="#FFFFFF" d="M470.703,21.565v2.827h-0.826v-7.338h0.826v0.792c0.385-0.539,1.045-0.924,1.793-0.924
		c1.396,0,2.365,1.056,2.365,2.783c0,1.716-0.969,2.794-2.365,2.794C471.77,22.5,471.143,22.148,470.703,21.565z M473.992,19.706
		c0-1.178-0.639-2.047-1.705-2.047c-0.649,0-1.299,0.386-1.584,0.848v2.398c0.285,0.462,0.935,0.857,1.584,0.857
		C473.354,21.762,473.992,20.883,473.992,19.706z"/>
	<path fill="#FFFFFF" d="M475.861,19.706c0-1.54,1.012-2.783,2.629-2.783s2.629,1.243,2.629,2.783s-1.012,2.794-2.629,2.794
		S475.861,21.246,475.861,19.706z M480.25,19.706c0-1.078-0.627-2.047-1.76-2.047s-1.76,0.969-1.76,2.047
		c0,1.089,0.627,2.057,1.76,2.057S480.25,20.795,480.25,19.706z"/>
	<path fill="#FFFFFF" d="M486.047,22.368V21.62c-0.406,0.462-1.1,0.88-1.892,0.88c-1.111,0-1.694-0.55-1.694-1.694v-3.751h0.825
		v3.498c0,0.936,0.474,1.21,1.199,1.21c0.638,0,1.254-0.374,1.562-0.803v-3.905h0.826v5.313H486.047z"/>
	<path fill="#FFFFFF" d="M488.521,22.368v-5.313h0.826v0.847c0.428-0.55,1.045-0.968,1.771-0.968v0.847
		c-0.099-0.011-0.198-0.021-0.319-0.021c-0.517,0-1.21,0.418-1.451,0.847v3.763H488.521z"/>
	<path fill="#FFFFFF" d="M498.322,22.368v-0.605c-0.428,0.484-1.045,0.737-1.76,0.737c-0.891,0-1.848-0.604-1.848-1.76
		c0-1.199,0.945-1.75,1.848-1.75c0.727,0,1.332,0.231,1.76,0.716v-0.957c0-0.704-0.571-1.111-1.342-1.111
		c-0.638,0-1.154,0.22-1.628,0.737l-0.386-0.572c0.572-0.595,1.255-0.88,2.124-0.88c1.134,0,2.058,0.506,2.058,1.793v3.652H498.322z
		 M498.322,21.246v-1.013c-0.318-0.429-0.879-0.648-1.451-0.648c-0.781,0-1.32,0.483-1.32,1.155c0,0.682,0.539,1.166,1.32,1.166
		C497.443,21.906,498.004,21.686,498.322,21.246z"/>
	<path fill="#FFFFFF" d="M500.809,22.368V15.03h0.825v7.338H500.809z"/>
	<path fill="#FFFFFF" d="M503.283,22.368V15.03h0.826v7.338H503.283z"/>
	<path fill="#FFFFFF" d="M505.45,19.706c0-1.54,1.101-2.783,2.618-2.783c1.606,0,2.553,1.254,2.553,2.849v0.209h-4.291
		c0.066,1.002,0.76,1.838,1.903,1.838c0.616,0,1.222-0.242,1.65-0.683l0.396,0.539c-0.539,0.528-1.254,0.825-2.111,0.825
		C506.584,22.5,505.45,21.367,505.45,19.706z M508.058,17.604c-1.134,0-1.694,0.957-1.738,1.76h3.487
		C509.796,18.584,509.268,17.604,508.058,17.604z"/>
	<path fill="#FFFFFF" d="M511.951,22.368v-5.313h0.825v0.847c0.429-0.55,1.045-0.968,1.771-0.968v0.847
		c-0.099-0.011-0.197-0.021-0.318-0.021c-0.518,0-1.211,0.418-1.452,0.847v3.763H511.951z"/>
	<path fill="#FFFFFF" d="M521.752,22.368v-0.605c-0.428,0.484-1.045,0.737-1.76,0.737c-0.891,0-1.848-0.604-1.848-1.76
		c0-1.199,0.945-1.75,1.848-1.75c0.727,0,1.332,0.231,1.76,0.716v-0.957c0-0.704-0.571-1.111-1.342-1.111
		c-0.638,0-1.154,0.22-1.628,0.737l-0.386-0.572c0.572-0.595,1.255-0.88,2.124-0.88c1.134,0,2.058,0.506,2.058,1.793v3.652H521.752z
		 M521.752,21.246v-1.013c-0.318-0.429-0.879-0.648-1.451-0.648c-0.781,0-1.32,0.483-1.32,1.155c0,0.682,0.539,1.166,1.32,1.166
		C520.873,21.906,521.434,21.686,521.752,21.246z"/>
	<path fill="#FFFFFF" d="M527.824,22.368V21.62c-0.406,0.462-1.1,0.88-1.892,0.88c-1.111,0-1.694-0.55-1.694-1.694v-3.751h0.825
		v3.498c0,0.936,0.474,1.21,1.199,1.21c0.638,0,1.254-0.374,1.562-0.803v-3.905h0.826v5.313H527.824z"/>
	<path fill="#FFFFFF" d="M533.313,21.257V17.78h-0.88v-0.726h0.88v-1.452h0.836v1.452h1.078v0.726h-1.078v3.301
		c0,0.396,0.177,0.682,0.529,0.682c0.241,0,0.45-0.109,0.561-0.23l0.242,0.627c-0.209,0.198-0.506,0.341-0.979,0.341
		C533.709,22.5,533.313,22.049,533.313,21.257z"/>
	<path fill="#FFFFFF" d="M536.382,22.368v-5.313h0.825v0.847c0.429-0.55,1.045-0.968,1.771-0.968v0.847
		c-0.1-0.011-0.198-0.021-0.319-0.021c-0.517,0-1.21,0.418-1.452,0.847v3.763H536.382z"/>
	<path fill="#FFFFFF" d="M543.334,22.368v-0.605c-0.429,0.484-1.045,0.737-1.76,0.737c-0.892,0-1.849-0.604-1.849-1.76
		c0-1.199,0.946-1.75,1.849-1.75c0.726,0,1.331,0.231,1.76,0.716v-0.957c0-0.704-0.572-1.111-1.342-1.111
		c-0.639,0-1.155,0.22-1.629,0.737l-0.385-0.572c0.572-0.595,1.254-0.88,2.123-0.88c1.133,0,2.058,0.506,2.058,1.793v3.652H543.334z
		 M543.334,21.246v-1.013c-0.318-0.429-0.88-0.648-1.452-0.648c-0.781,0-1.32,0.483-1.32,1.155c0,0.682,0.539,1.166,1.32,1.166
		C542.454,21.906,543.016,21.686,543.334,21.246z"/>
	<path fill="#FFFFFF" d="M547.238,22.368l-2.211-5.313h0.902l1.76,4.356l1.771-4.356h0.892l-2.212,5.313H547.238z"/>
	<path fill="#FFFFFF" d="M554.531,22.368v-0.605c-0.428,0.484-1.045,0.737-1.76,0.737c-0.891,0-1.848-0.604-1.848-1.76
		c0-1.199,0.945-1.75,1.848-1.75c0.727,0,1.332,0.231,1.76,0.716v-0.957c0-0.704-0.571-1.111-1.342-1.111
		c-0.638,0-1.154,0.22-1.628,0.737l-0.386-0.572c0.572-0.595,1.255-0.88,2.124-0.88c1.134,0,2.058,0.506,2.058,1.793v3.652H554.531z
		 M554.531,21.246v-1.013c-0.318-0.429-0.879-0.648-1.451-0.648c-0.781,0-1.32,0.483-1.32,1.155c0,0.682,0.539,1.166,1.32,1.166
		C553.652,21.906,554.213,21.686,554.531,21.246z"/>
	<path fill="#FFFFFF" d="M556.875,15.745c0-0.308,0.252-0.561,0.561-0.561s0.551,0.253,0.551,0.561c0,0.309-0.242,0.55-0.551,0.55
		S556.875,16.053,556.875,15.745z M557.018,22.368v-5.313h0.825v5.313H557.018z"/>
	<path fill="#FFFFFF" d="M559.492,22.368V15.03h0.826v7.338H559.492z"/>
</g>
<g enable-background="new    ">
	<path fill="#FFFFFF" d="M204.96,9.169V1.831h2.949c1.474,0,2.299,1.012,2.299,2.211s-0.836,2.212-2.299,2.212h-2.035v2.915H204.96z
		 M209.262,4.042c0-0.825-0.594-1.397-1.463-1.397h-1.925v2.795h1.925C208.667,5.439,209.262,4.867,209.262,4.042z"/>
	<path fill="#FFFFFF" d="M214.486,9.169V8.563c-0.429,0.484-1.045,0.737-1.76,0.737c-0.891,0-1.848-0.604-1.848-1.76
		c0-1.199,0.946-1.75,1.848-1.75c0.726,0,1.332,0.231,1.76,0.716V5.55c0-0.704-0.572-1.111-1.342-1.111
		c-0.638,0-1.155,0.22-1.628,0.737l-0.385-0.572c0.572-0.595,1.254-0.88,2.124-0.88c1.133,0,2.057,0.506,2.057,1.793v3.652H214.486z
		 M214.486,8.047V7.034c-0.319-0.429-0.88-0.648-1.452-0.648c-0.781,0-1.32,0.483-1.32,1.155c0,0.682,0.539,1.166,1.32,1.166
		C213.606,8.707,214.167,8.487,214.486,8.047z"/>
	<path fill="#FFFFFF" d="M216.972,9.169V3.855h0.825v0.847c0.429-0.55,1.045-0.968,1.771-0.968v0.847
		c-0.099-0.011-0.198-0.021-0.319-0.021c-0.517,0-1.21,0.418-1.452,0.847v3.763H216.972z"/>
	<path fill="#FFFFFF" d="M220.767,8.057V4.581h-0.88V3.855h0.88V2.403h0.836v1.452h1.078v0.726h-1.078v3.301
		c0,0.396,0.176,0.682,0.528,0.682c0.242,0,0.451-0.109,0.561-0.23l0.242,0.627c-0.209,0.198-0.506,0.341-0.979,0.341
		C221.163,9.301,220.767,8.849,220.767,8.057z"/>
	<path fill="#FFFFFF" d="M230.536,9.169V8.377c-0.396,0.539-1.045,0.924-1.793,0.924c-1.386,0-2.365-1.056-2.365-2.783
		c0-1.705,0.979-2.794,2.365-2.794c0.715,0,1.364,0.352,1.793,0.935V1.831h0.825v7.338H230.536z M230.536,7.717V5.318
		c-0.286-0.462-0.935-0.858-1.584-0.858c-1.078,0-1.716,0.881-1.716,2.058s0.638,2.046,1.716,2.046
		C229.601,8.563,230.25,8.178,230.536,7.717z"/>
	<path fill="#FFFFFF" d="M232.702,6.507c0-1.54,1.1-2.783,2.618-2.783c1.606,0,2.553,1.254,2.553,2.849v0.209h-4.291
		c0.066,1.002,0.759,1.838,1.903,1.838c0.616,0,1.221-0.242,1.65-0.683l0.396,0.539c-0.539,0.528-1.254,0.825-2.112,0.825
		C233.835,9.301,232.702,8.168,232.702,6.507z M235.309,4.405c-1.133,0-1.694,0.957-1.738,1.76h3.487
		C237.047,5.385,236.519,4.405,235.309,4.405z"/>
	<path fill="#FFFFFF" d="M242.052,9.169V1.831h0.825v7.338H242.052z"/>
	<path fill="#FFFFFF" d="M247.849,9.169V8.563c-0.429,0.484-1.045,0.737-1.76,0.737c-0.891,0-1.848-0.604-1.848-1.76
		c0-1.199,0.946-1.75,1.848-1.75c0.726,0,1.332,0.231,1.76,0.716V5.55c0-0.704-0.572-1.111-1.342-1.111
		c-0.638,0-1.155,0.22-1.628,0.737l-0.385-0.572c0.572-0.595,1.254-0.88,2.124-0.88c1.133,0,2.057,0.506,2.057,1.793v3.652H247.849z
		 M247.849,8.047V7.034c-0.319-0.429-0.88-0.648-1.452-0.648c-0.781,0-1.32,0.483-1.32,1.155c0,0.682,0.539,1.166,1.32,1.166
		C246.969,8.707,247.53,8.487,247.849,8.047z"/>
	<path fill="#FFFFFF" d="M254.008,8.366v2.827h-0.825V3.855h0.825v0.792c0.385-0.539,1.045-0.924,1.793-0.924
		c1.397,0,2.365,1.056,2.365,2.783c0,1.716-0.968,2.794-2.365,2.794C255.075,9.301,254.448,8.949,254.008,8.366z M257.298,6.507
		c0-1.178-0.638-2.047-1.706-2.047c-0.649,0-1.298,0.386-1.584,0.848v2.398c0.286,0.462,0.935,0.857,1.584,0.857
		C256.66,8.563,257.298,7.683,257.298,6.507z"/>
	<path fill="#FFFFFF" d="M259.167,6.507c0-1.54,1.012-2.783,2.629-2.783s2.629,1.243,2.629,2.783s-1.012,2.794-2.629,2.794
		S259.167,8.047,259.167,6.507z M263.557,6.507c0-1.078-0.627-2.047-1.76-2.047s-1.76,0.969-1.76,2.047
		c0,1.089,0.627,2.057,1.76,2.057S263.557,7.595,263.557,6.507z"/>
	<path fill="#FFFFFF" d="M266.592,8.366v2.827h-0.825V3.855h0.825v0.792c0.385-0.539,1.045-0.924,1.793-0.924
		c1.397,0,2.365,1.056,2.365,2.783c0,1.716-0.968,2.794-2.365,2.794C267.659,9.301,267.032,8.949,266.592,8.366z M269.882,6.507
		c0-1.178-0.638-2.047-1.706-2.047c-0.649,0-1.298,0.386-1.584,0.848v2.398c0.286,0.462,0.935,0.857,1.584,0.857
		C269.244,8.563,269.882,7.683,269.882,6.507z"/>
	<path fill="#FFFFFF" d="M275.646,9.169V8.421c-0.407,0.462-1.1,0.88-1.892,0.88c-1.111,0-1.694-0.55-1.694-1.694V3.855h0.825v3.498
		c0,0.936,0.473,1.21,1.199,1.21c0.638,0,1.254-0.374,1.562-0.803V3.855h0.825v5.313H275.646z"/>
	<path fill="#FFFFFF" d="M278.12,9.169V1.831h0.825v7.338H278.12z"/>
	<path fill="#FFFFFF" d="M283.917,9.169V8.563c-0.429,0.484-1.045,0.737-1.76,0.737c-0.891,0-1.848-0.604-1.848-1.76
		c0-1.199,0.946-1.75,1.848-1.75c0.726,0,1.332,0.231,1.76,0.716V5.55c0-0.704-0.572-1.111-1.342-1.111
		c-0.638,0-1.155,0.22-1.628,0.737l-0.385-0.572c0.572-0.595,1.254-0.88,2.124-0.88c1.133,0,2.057,0.506,2.057,1.793v3.652H283.917z
		 M283.917,8.047V7.034c-0.319-0.429-0.88-0.648-1.452-0.648c-0.781,0-1.32,0.483-1.32,1.155c0,0.682,0.539,1.166,1.32,1.166
		C283.037,8.707,283.598,8.487,283.917,8.047z"/>
	<path fill="#FFFFFF" d="M286.568,8.057V4.581h-0.88V3.855h0.88V2.403h0.836v1.452h1.078v0.726h-1.078v3.301
		c0,0.396,0.176,0.682,0.528,0.682c0.242,0,0.451-0.109,0.561-0.23l0.242,0.627c-0.209,0.198-0.506,0.341-0.979,0.341
		C286.964,9.301,286.568,8.849,286.568,8.057z"/>
	<path fill="#FFFFFF" d="M289.494,2.546c0-0.308,0.253-0.561,0.561-0.561s0.55,0.253,0.55,0.561c0,0.309-0.242,0.55-0.55,0.55
		S289.494,2.854,289.494,2.546z M289.637,9.169V3.855h0.825v5.313H289.637z"/>
	<path fill="#FFFFFF" d="M291.804,6.507c0-1.54,1.012-2.783,2.629-2.783s2.629,1.243,2.629,2.783s-1.012,2.794-2.629,2.794
		S291.804,8.047,291.804,6.507z M296.193,6.507c0-1.078-0.627-2.047-1.76-2.047s-1.76,0.969-1.76,2.047
		c0,1.089,0.627,2.057,1.76,2.057S296.193,7.595,296.193,6.507z"/>
	<path fill="#FFFFFF" d="M302.001,9.169V5.692c0-0.946-0.484-1.232-1.199-1.232c-0.649,0-1.254,0.396-1.573,0.825v3.884h-0.825
		V3.855h0.825v0.77c0.374-0.451,1.101-0.901,1.903-0.901c1.101,0,1.684,0.561,1.684,1.716v3.729H302.001z"/>
	<path fill="#FFFFFF" d="M310.91,9.169V8.421c-0.407,0.462-1.1,0.88-1.892,0.88c-1.111,0-1.694-0.55-1.694-1.694V3.855h0.825v3.498
		c0,0.936,0.473,1.21,1.199,1.21c0.638,0,1.254-0.374,1.562-0.803V3.855h0.825v5.313H310.91z"/>
	<path fill="#FFFFFF" d="M313.55,8.057V4.581h-0.88V3.855h0.88V2.403h0.836v1.452h1.078v0.726h-1.078v3.301
		c0,0.396,0.177,0.682,0.528,0.682c0.242,0,0.451-0.109,0.562-0.23l0.241,0.627c-0.209,0.198-0.506,0.341-0.979,0.341
		C313.946,9.301,313.55,8.849,313.55,8.057z"/>
	<path fill="#FFFFFF" d="M316.476,2.546c0-0.308,0.253-0.561,0.562-0.561c0.308,0,0.55,0.253,0.55,0.561
		c0,0.309-0.242,0.55-0.55,0.55C316.729,3.095,316.476,2.854,316.476,2.546z M316.619,9.169V3.855h0.825v5.313H316.619z"/>
	<path fill="#FFFFFF" d="M319.094,9.169V1.831h0.825v7.338H319.094z"/>
	<path fill="#FFFFFF" d="M321.426,2.546c0-0.308,0.253-0.561,0.561-0.561c0.309,0,0.551,0.253,0.551,0.561
		c0,0.309-0.242,0.55-0.551,0.55C321.679,3.095,321.426,2.854,321.426,2.546z M321.568,9.169V3.855h0.825v5.313H321.568z"/>
	<path fill="#FFFFFF" d="M323.593,8.465l0.418-0.594c0.352,0.406,1.023,0.759,1.749,0.759c0.814,0,1.266-0.385,1.266-0.913
		c0-1.287-3.29-0.495-3.29-2.465c0-0.836,0.704-1.528,1.97-1.528c0.913,0,1.551,0.341,1.969,0.77l-0.385,0.572
		c-0.319-0.385-0.891-0.671-1.584-0.671c-0.727,0-1.178,0.362-1.178,0.836c0,1.155,3.29,0.396,3.29,2.464
		c0,0.892-0.715,1.606-2.079,1.606C324.857,9.301,324.132,9.026,323.593,8.465z"/>
	<path fill="#FFFFFF" d="M332.48,9.169V8.563c-0.429,0.484-1.045,0.737-1.76,0.737c-0.892,0-1.849-0.604-1.849-1.76
		c0-1.199,0.946-1.75,1.849-1.75c0.726,0,1.331,0.231,1.76,0.716V5.55c0-0.704-0.571-1.111-1.342-1.111
		c-0.638,0-1.155,0.22-1.628,0.737l-0.386-0.572c0.572-0.595,1.255-0.88,2.124-0.88c1.133,0,2.057,0.506,2.057,1.793v3.652H332.48z
		 M332.48,8.047V7.034c-0.318-0.429-0.88-0.648-1.452-0.648c-0.781,0-1.32,0.483-1.32,1.155c0,0.682,0.539,1.166,1.32,1.166
		C331.601,8.707,332.162,8.487,332.48,8.047z"/>
	<path fill="#FFFFFF" d="M338.564,9.169V5.692c0-0.946-0.484-1.232-1.199-1.232c-0.649,0-1.255,0.396-1.573,0.825v3.884h-0.825
		V3.855h0.825v0.77c0.374-0.451,1.1-0.901,1.903-0.901c1.1,0,1.683,0.561,1.683,1.716v3.729H338.564z"/>
	<path fill="#FFFFFF" d="M341.203,8.057V4.581h-0.88V3.855h0.88V2.403h0.836v1.452h1.078v0.726h-1.078v3.301
		c0,0.396,0.177,0.682,0.528,0.682c0.242,0,0.451-0.109,0.562-0.23l0.241,0.627c-0.209,0.198-0.506,0.341-0.979,0.341
		C341.6,9.301,341.203,8.849,341.203,8.057z"/>
	<path fill="#FFFFFF" d="M347.121,9.169V1.831h0.825v7.338H347.121z"/>
	<path fill="#FFFFFF" d="M352.918,9.169V8.563c-0.429,0.484-1.045,0.737-1.76,0.737c-0.892,0-1.849-0.604-1.849-1.76
		c0-1.199,0.946-1.75,1.849-1.75c0.726,0,1.331,0.231,1.76,0.716V5.55c0-0.704-0.571-1.111-1.342-1.111
		c-0.638,0-1.155,0.22-1.628,0.737l-0.386-0.572c0.572-0.595,1.255-0.88,2.124-0.88c1.133,0,2.057,0.506,2.057,1.793v3.652H352.918z
		 M352.918,8.047V7.034c-0.318-0.429-0.88-0.648-1.452-0.648c-0.781,0-1.32,0.483-1.32,1.155c0,0.682,0.539,1.166,1.32,1.166
		C352.038,8.707,352.6,8.487,352.918,8.047z"/>
</g>
<g enable-background="new    ">
	<path fill="#FFFFFF" d="M206.346,22.369l-2.211-5.313h0.902l1.76,4.356l1.771-4.356h0.891l-2.211,5.313H206.346z"/>
	<path fill="#FFFFFF" d="M210.009,19.707c0-1.54,1.012-2.783,2.629-2.783s2.629,1.243,2.629,2.783s-1.012,2.794-2.629,2.794
		S210.009,21.247,210.009,19.707z M214.398,19.707c0-1.078-0.627-2.047-1.76-2.047s-1.76,0.969-1.76,2.047
		c0,1.089,0.627,2.057,1.76,2.057S214.398,20.796,214.398,19.707z"/>
	<path fill="#FFFFFF" d="M216.466,15.746c0-0.308,0.253-0.561,0.561-0.561s0.55,0.253,0.55,0.561c0,0.309-0.242,0.55-0.55,0.55
		S216.466,16.054,216.466,15.746z M216.609,22.369v-5.313h0.825v5.313H216.609z"/>
	<path fill="#FFFFFF" d="M219.249,21.258v-3.477h-0.88v-0.726h0.88v-1.452h0.836v1.452h1.078v0.726h-1.078v3.301
		c0,0.396,0.176,0.682,0.528,0.682c0.242,0,0.451-0.109,0.561-0.23l0.242,0.627c-0.209,0.198-0.506,0.341-0.979,0.341
		C219.645,22.501,219.249,22.05,219.249,21.258z"/>
	<path fill="#FFFFFF" d="M225.904,22.369v-0.748c-0.407,0.462-1.1,0.88-1.892,0.88c-1.111,0-1.694-0.55-1.694-1.694v-3.751h0.825
		v3.498c0,0.936,0.473,1.21,1.199,1.21c0.638,0,1.254-0.374,1.562-0.803v-3.905h0.825v5.313H225.904z"/>
	<path fill="#FFFFFF" d="M228.379,22.369v-5.313h0.825v0.847c0.429-0.55,1.045-0.968,1.771-0.968v0.847
		c-0.099-0.011-0.198-0.021-0.319-0.021c-0.517,0-1.21,0.418-1.452,0.847v3.763H228.379z"/>
	<path fill="#FFFFFF" d="M231.701,19.707c0-1.54,1.1-2.783,2.618-2.783c1.606,0,2.553,1.254,2.553,2.849v0.209h-4.291
		c0.066,1.002,0.759,1.838,1.903,1.838c0.616,0,1.221-0.242,1.65-0.683l0.396,0.539c-0.539,0.528-1.254,0.825-2.112,0.825
		C232.834,22.501,231.701,21.368,231.701,19.707z M234.308,17.605c-1.133,0-1.694,0.957-1.738,1.76h3.487
		C236.046,18.585,235.518,17.605,234.308,17.605z"/>
	<path fill="#FFFFFF" d="M241.875,21.566v2.827h-0.825v-7.338h0.825v0.792c0.385-0.539,1.045-0.924,1.793-0.924
		c1.397,0,2.365,1.056,2.365,2.783c0,1.716-0.968,2.794-2.365,2.794C242.942,22.501,242.315,22.149,241.875,21.566z M245.165,19.707
		c0-1.178-0.638-2.047-1.706-2.047c-0.649,0-1.298,0.386-1.584,0.848v2.398c0.286,0.462,0.935,0.857,1.584,0.857
		C244.527,21.763,245.165,20.884,245.165,19.707z"/>
	<path fill="#FFFFFF" d="M247.034,19.707c0-1.54,1.012-2.783,2.629-2.783s2.629,1.243,2.629,2.783s-1.012,2.794-2.629,2.794
		S247.034,21.247,247.034,19.707z M251.424,19.707c0-1.078-0.627-2.047-1.76-2.047s-1.76,0.969-1.76,2.047
		c0,1.089,0.627,2.057,1.76,2.057S251.424,20.796,251.424,19.707z"/>
	<path fill="#FFFFFF" d="M257.221,22.369v-0.748c-0.407,0.462-1.1,0.88-1.892,0.88c-1.111,0-1.694-0.55-1.694-1.694v-3.751h0.825
		v3.498c0,0.936,0.473,1.21,1.199,1.21c0.638,0,1.254-0.374,1.562-0.803v-3.905h0.825v5.313H257.221z"/>
	<path fill="#FFFFFF" d="M259.695,22.369v-5.313h0.825v0.847c0.429-0.55,1.045-0.968,1.771-0.968v0.847
		c-0.099-0.011-0.198-0.021-0.319-0.021c-0.517,0-1.21,0.418-1.452,0.847v3.763H259.695z"/>
	<path fill="#FFFFFF" d="M269.496,22.369v-0.605c-0.429,0.484-1.045,0.737-1.76,0.737c-0.891,0-1.848-0.604-1.848-1.76
		c0-1.199,0.946-1.75,1.848-1.75c0.726,0,1.332,0.231,1.76,0.716V18.75c0-0.704-0.572-1.111-1.342-1.111
		c-0.638,0-1.155,0.22-1.628,0.737l-0.385-0.572c0.572-0.595,1.254-0.88,2.124-0.88c1.133,0,2.057,0.506,2.057,1.793v3.652H269.496z
		 M269.496,21.247v-1.013c-0.319-0.429-0.88-0.648-1.452-0.648c-0.781,0-1.32,0.483-1.32,1.155c0,0.682,0.539,1.166,1.32,1.166
		C268.616,21.907,269.177,21.687,269.496,21.247z"/>
	<path fill="#FFFFFF" d="M271.982,22.369v-7.338h0.825v7.338H271.982z"/>
	<path fill="#FFFFFF" d="M274.457,22.369v-7.338h0.825v7.338H274.457z"/>
	<path fill="#FFFFFF" d="M276.624,19.707c0-1.54,1.1-2.783,2.618-2.783c1.606,0,2.553,1.254,2.553,2.849v0.209h-4.291
		c0.066,1.002,0.759,1.838,1.903,1.838c0.616,0,1.221-0.242,1.65-0.683l0.396,0.539c-0.539,0.528-1.254,0.825-2.112,0.825
		C277.757,22.501,276.624,21.368,276.624,19.707z M279.231,17.605c-1.133,0-1.694,0.957-1.738,1.76h3.487
		C280.969,18.585,280.441,17.605,279.231,17.605z"/>
	<path fill="#FFFFFF" d="M283.125,22.369v-5.313h0.825v0.847c0.429-0.55,1.045-0.968,1.771-0.968v0.847
		c-0.099-0.011-0.198-0.021-0.319-0.021c-0.517,0-1.21,0.418-1.452,0.847v3.763H283.125z"/>
	<path fill="#FFFFFF" d="M292.925,22.369v-0.605c-0.429,0.484-1.045,0.737-1.76,0.737c-0.891,0-1.848-0.604-1.848-1.76
		c0-1.199,0.946-1.75,1.848-1.75c0.726,0,1.332,0.231,1.76,0.716V18.75c0-0.704-0.572-1.111-1.342-1.111
		c-0.638,0-1.155,0.22-1.628,0.737l-0.385-0.572c0.572-0.595,1.254-0.88,2.124-0.88c1.133,0,2.057,0.506,2.057,1.793v3.652H292.925z
		 M292.925,21.247v-1.013c-0.319-0.429-0.88-0.648-1.452-0.648c-0.781,0-1.32,0.483-1.32,1.155c0,0.682,0.539,1.166,1.32,1.166
		C292.045,21.907,292.606,21.687,292.925,21.247z"/>
	<path fill="#FFFFFF" d="M298.997,22.369v-0.748c-0.407,0.462-1.1,0.88-1.892,0.88c-1.111,0-1.694-0.55-1.694-1.694v-3.751h0.825
		v3.498c0,0.936,0.473,1.21,1.199,1.21c0.638,0,1.254-0.374,1.562-0.803v-3.905h0.825v5.313H298.997z"/>
	<path fill="#FFFFFF" d="M304.485,21.258v-3.477h-0.88v-0.726h0.88v-1.452h0.836v1.452h1.078v0.726h-1.078v3.301
		c0,0.396,0.177,0.682,0.528,0.682c0.242,0,0.451-0.109,0.562-0.23l0.241,0.627c-0.209,0.198-0.506,0.341-0.979,0.341
		C304.882,22.501,304.485,22.05,304.485,21.258z"/>
	<path fill="#FFFFFF" d="M307.555,22.369v-5.313h0.825v0.847c0.429-0.55,1.045-0.968,1.771-0.968v0.847
		c-0.099-0.011-0.197-0.021-0.318-0.021c-0.518,0-1.211,0.418-1.452,0.847v3.763H307.555z"/>
	<path fill="#FFFFFF" d="M314.507,22.369v-0.605c-0.429,0.484-1.045,0.737-1.761,0.737c-0.891,0-1.848-0.604-1.848-1.76
		c0-1.199,0.946-1.75,1.848-1.75c0.727,0,1.332,0.231,1.761,0.716V18.75c0-0.704-0.572-1.111-1.343-1.111
		c-0.638,0-1.154,0.22-1.628,0.737l-0.385-0.572c0.572-0.595,1.254-0.88,2.123-0.88c1.133,0,2.058,0.506,2.058,1.793v3.652H314.507z
		 M314.507,21.247v-1.013c-0.319-0.429-0.88-0.648-1.452-0.648c-0.781,0-1.32,0.483-1.32,1.155c0,0.682,0.539,1.166,1.32,1.166
		C313.627,21.907,314.188,21.687,314.507,21.247z"/>
	<path fill="#FFFFFF" d="M318.411,22.369l-2.211-5.313h0.902l1.76,4.356l1.771-4.356h0.892l-2.212,5.313H318.411z"/>
	<path fill="#FFFFFF" d="M325.705,22.369v-0.605c-0.429,0.484-1.045,0.737-1.761,0.737c-0.891,0-1.848-0.604-1.848-1.76
		c0-1.199,0.946-1.75,1.848-1.75c0.727,0,1.332,0.231,1.761,0.716V18.75c0-0.704-0.572-1.111-1.343-1.111
		c-0.638,0-1.154,0.22-1.628,0.737l-0.385-0.572c0.572-0.595,1.254-0.88,2.123-0.88c1.133,0,2.058,0.506,2.058,1.793v3.652H325.705z
		 M325.705,21.247v-1.013c-0.319-0.429-0.88-0.648-1.452-0.648c-0.781,0-1.32,0.483-1.32,1.155c0,0.682,0.539,1.166,1.32,1.166
		C324.825,21.907,325.386,21.687,325.705,21.247z"/>
	<path fill="#FFFFFF" d="M328.047,15.746c0-0.308,0.253-0.561,0.562-0.561c0.308,0,0.55,0.253,0.55,0.561
		c0,0.309-0.242,0.55-0.55,0.55C328.3,16.296,328.047,16.054,328.047,15.746z M328.19,22.369v-5.313h0.825v5.313H328.19z"/>
	<path fill="#FFFFFF" d="M330.665,22.369v-7.338h0.825v7.338H330.665z"/>
</g>
<polygon fill="#FFFFFF" points="145.665,65.46 141.978,61.776 141.177,66.925 139.623,61.95 136.521,66.138 137.458,61.01 
	132.765,63.275 135.978,59.172 130.769,58.997 135.521,56.855 130.989,54.28 136.191,54.594 133.378,50.205 137.839,52.901 
	137.385,47.71 140.083,52.168 142.093,47.359 142.409,52.562 146.425,49.239 144.288,53.99 149.388,52.916 145.286,56.131 
	150.301,57.549 145.175,58.491 148.957,62.073 143.981,60.527 "/>
<g>
	<circle fill="#FFFFFF" cx="320.637" cy="52.514" r="4.369"/>
	<circle fill="#FFFFFF" cx="324.264" cy="54.182" r="3.434"/>
	<circle fill="#FFFFFF" cx="325.059" cy="51.386" r="2.418"/>
	<circle fill="#FFFFFF" cx="327.477" cy="54.211" r="2.824"/>
	<path fill="#FFFFFF" d="M311.016,53.93c0,1.813,1.473,3.288,3.289,3.288c1.814,0,3.286-1.477,3.286-3.288
		c0-1.817-1.472-3.287-3.286-3.287C312.488,50.643,311.016,52.112,311.016,53.93z"/>
	<circle fill="#FFFFFF" cx="316.834" cy="50.869" r="2.417"/>
	<circle fill="#FFFFFF" cx="317.494" cy="54.688" r="2.824"/>
	
		<line fill="none" stroke="#FFFFFF" stroke-width="0.4352" stroke-linecap="round" stroke-miterlimit="10" x1="314.748" y1="59.305" x2="316.633" y2="57.131"/>
	
		<line fill="none" stroke="#FFFFFF" stroke-width="0.4352" stroke-linecap="round" stroke-miterlimit="10" x1="318.098" y1="58.788" x2="319.982" y2="56.613"/>
	
		<line fill="none" stroke="#FFFFFF" stroke-width="0.4352" stroke-linecap="round" stroke-miterlimit="10" x1="321.445" y1="58.271" x2="323.333" y2="56.096"/>
	
		<line fill="none" stroke="#FFFFFF" stroke-width="0.4352" stroke-linecap="round" stroke-miterlimit="10" x1="322.527" y1="59.981" x2="324.414" y2="57.806"/>
	
		<line fill="none" stroke="#FFFFFF" stroke-width="0.4352" stroke-linecap="round" stroke-miterlimit="10" x1="323.689" y1="61.811" x2="325.575" y2="59.635"/>
	
		<line fill="none" stroke="#FFFFFF" stroke-width="0.4352" stroke-linecap="round" stroke-miterlimit="10" x1="314.748" y1="62.766" x2="316.633" y2="60.592"/>
	
		<line fill="none" stroke="#FFFFFF" stroke-width="0.4352" stroke-linecap="round" stroke-miterlimit="10" x1="314.139" y1="66.141" x2="316.027" y2="63.964"/>
	
		<line fill="none" stroke="#FFFFFF" stroke-width="0.4352" stroke-linecap="round" stroke-miterlimit="10" x1="319.213" y1="64.245" x2="321.1" y2="62.072"/>
	
		<line fill="none" stroke="#FFFFFF" stroke-width="0.4352" stroke-linecap="round" stroke-miterlimit="10" x1="317.786" y1="61.941" x2="319.67" y2="59.768"/>
</g>
<g enable-background="new    ">
	<path fill="#FFFFFF" d="M165.063,53.168l-4.279-5.853v5.853h-0.914V45.83h0.936l4.225,5.731V45.83h0.913v7.338H165.063z"/>
	<path fill="#FFFFFF" d="M167.317,50.506c0-1.54,1.012-2.783,2.629-2.783s2.629,1.243,2.629,2.783s-1.012,2.794-2.629,2.794
		S167.317,52.046,167.317,50.506z M171.707,50.506c0-1.078-0.627-2.047-1.76-2.047s-1.76,0.969-1.76,2.047
		c0,1.089,0.627,2.057,1.76,2.057S171.707,51.594,171.707,50.506z"/>
	<path fill="#FFFFFF" d="M180.331,53.168v-3.608c0-0.671-0.286-1.101-0.979-1.101c-0.55,0-1.133,0.386-1.408,0.814v3.895h-0.825
		v-3.608c0-0.671-0.275-1.101-0.979-1.101c-0.539,0-1.111,0.396-1.397,0.825v3.884h-0.825v-5.313h0.825v0.77
		c0.231-0.341,0.935-0.901,1.727-0.901c0.803,0,1.265,0.439,1.419,0.989c0.297-0.483,1.012-0.989,1.782-0.989
		c0.968,0,1.485,0.539,1.485,1.605v3.84H180.331z"/>
	<path fill="#FFFFFF" d="M182.805,53.168V45.83h0.825v2.827c0.429-0.583,1.078-0.935,1.793-0.935c1.397,0,2.365,1.089,2.365,2.794
		c0,1.728-0.979,2.783-2.365,2.783c-0.748,0-1.397-0.385-1.793-0.924v0.792H182.805z M185.225,52.562
		c1.067,0,1.705-0.869,1.705-2.046s-0.638-2.058-1.705-2.058c-0.66,0-1.309,0.396-1.595,0.858v2.409
		C183.916,52.188,184.565,52.562,185.225,52.562z"/>
	<path fill="#FFFFFF" d="M189.13,53.168v-5.313h0.825v0.847c0.429-0.55,1.045-0.968,1.771-0.968v0.847
		c-0.099-0.011-0.198-0.021-0.319-0.021c-0.517,0-1.21,0.418-1.452,0.847v3.763H189.13z"/>
	<path fill="#FFFFFF" d="M192.452,50.506c0-1.54,1.1-2.783,2.618-2.783c1.606,0,2.553,1.254,2.553,2.849v0.209h-4.291
		c0.066,1.002,0.759,1.838,1.903,1.838c0.616,0,1.221-0.242,1.65-0.683l0.396,0.539c-0.539,0.528-1.254,0.825-2.112,0.825
		C193.585,53.3,192.452,52.167,192.452,50.506z M195.059,48.404c-1.133,0-1.694,0.957-1.738,1.76h3.487
		C196.797,49.384,196.269,48.404,195.059,48.404z"/>
	<path fill="#FFFFFF" d="M205.652,53.168v-0.792c-0.396,0.539-1.045,0.924-1.793,0.924c-1.386,0-2.365-1.056-2.365-2.783
		c0-1.705,0.979-2.794,2.365-2.794c0.715,0,1.364,0.352,1.793,0.935V45.83h0.825v7.338H205.652z M205.652,51.716v-2.398
		c-0.286-0.462-0.935-0.858-1.584-0.858c-1.078,0-1.716,0.881-1.716,2.058s0.638,2.046,1.716,2.046
		C204.717,52.562,205.366,52.177,205.652,51.716z"/>
	<path fill="#FFFFFF" d="M207.818,50.506c0-1.54,1.1-2.783,2.618-2.783c1.606,0,2.553,1.254,2.553,2.849v0.209h-4.291
		c0.066,1.002,0.759,1.838,1.903,1.838c0.616,0,1.221-0.242,1.65-0.683l0.396,0.539c-0.539,0.528-1.254,0.825-2.112,0.825
		C208.952,53.3,207.818,52.167,207.818,50.506z M210.426,48.404c-1.133,0-1.694,0.957-1.738,1.76h3.487
		C212.164,49.384,211.636,48.404,210.426,48.404z"/>
	<path fill="#FFFFFF" d="M215.265,54.927l0.286-0.615c0.187,0.187,0.429,0.33,0.759,0.33c0.495,0,0.858-0.286,0.858-0.958v-5.83
		h0.825v5.83c0,1.046-0.55,1.64-1.573,1.64C215.881,55.324,215.595,55.192,215.265,54.927z M217.025,46.545
		c0-0.308,0.253-0.561,0.561-0.561s0.55,0.253,0.55,0.561c0,0.309-0.242,0.55-0.55,0.55S217.025,46.853,217.025,46.545z"/>
	<path fill="#FFFFFF" d="M219.335,50.506c0-1.54,1.012-2.783,2.629-2.783s2.629,1.243,2.629,2.783s-1.012,2.794-2.629,2.794
		S219.335,52.046,219.335,50.506z M223.725,50.506c0-1.078-0.627-2.047-1.76-2.047s-1.76,0.969-1.76,2.047
		c0,1.089,0.627,2.057,1.76,2.057S223.725,51.594,223.725,50.506z"/>
	<path fill="#FFFFFF" d="M229.521,53.168V52.42c-0.407,0.462-1.1,0.88-1.892,0.88c-1.111,0-1.694-0.55-1.694-1.694v-3.751h0.825
		v3.498c0,0.936,0.473,1.21,1.199,1.21c0.638,0,1.254-0.374,1.562-0.803v-3.905h0.825v5.313H229.521z"/>
	<path fill="#FFFFFF" d="M231.996,53.168v-5.313h0.825v0.847c0.429-0.55,1.045-0.968,1.771-0.968v0.847
		c-0.099-0.011-0.198-0.021-0.319-0.021c-0.517,0-1.21,0.418-1.452,0.847v3.763H231.996z"/>
	<path fill="#FFFFFF" d="M235.174,52.464l0.418-0.594c0.352,0.406,1.023,0.759,1.75,0.759c0.814,0,1.265-0.385,1.265-0.913
		c0-1.287-3.29-0.495-3.29-2.465c0-0.836,0.704-1.528,1.969-1.528c0.913,0,1.551,0.341,1.969,0.77l-0.385,0.572
		c-0.319-0.385-0.891-0.671-1.584-0.671c-0.726,0-1.177,0.362-1.177,0.836c0,1.155,3.29,0.396,3.29,2.464
		c0,0.892-0.715,1.606-2.079,1.606C236.439,53.3,235.713,53.025,235.174,52.464z"/>
</g>
<g enable-background="new    ">
	<path fill="#FFFFFF" d="M163.688,66.368v-0.792c-0.396,0.539-1.045,0.924-1.793,0.924c-1.386,0-2.365-1.056-2.365-2.783
		c0-1.705,0.979-2.794,2.365-2.794c0.715,0,1.364,0.352,1.793,0.935V59.03h0.825v7.338H163.688z M163.688,64.916v-2.398
		c-0.286-0.462-0.935-0.858-1.584-0.858c-1.078,0-1.716,0.881-1.716,2.058s0.638,2.046,1.716,2.046
		C162.752,65.762,163.401,65.378,163.688,64.916z"/>
	<path fill="#FFFFFF" d="M166.382,61.417l-0.418-0.341c0.352-0.23,0.671-0.671,0.715-1.022c-0.022,0.011-0.099,0.021-0.154,0.021
		c-0.297,0-0.528-0.242-0.528-0.561c0-0.319,0.253-0.595,0.583-0.595c0.374,0,0.693,0.297,0.693,0.836
		C167.273,60.427,166.888,61.054,166.382,61.417z"/>
	<path fill="#FFFFFF" d="M168.384,63.706c0-1.54,1.1-2.783,2.618-2.783c1.606,0,2.553,1.254,2.553,2.849v0.209h-4.291
		c0.066,1.002,0.759,1.838,1.903,1.838c0.616,0,1.221-0.242,1.65-0.683l0.396,0.539c-0.539,0.528-1.254,0.825-2.112,0.825
		C169.517,66.5,168.384,65.367,168.384,63.706z M170.991,61.604c-1.133,0-1.694,0.957-1.738,1.76h3.487
		C172.729,62.584,172.201,61.604,170.991,61.604z"/>
	<path fill="#FFFFFF" d="M178.482,66.368v-3.477c0-0.946-0.484-1.232-1.199-1.232c-0.649,0-1.254,0.396-1.573,0.825v3.884h-0.825
		v-5.313h0.825v0.77c0.374-0.451,1.1-0.901,1.903-0.901c1.1,0,1.683,0.561,1.683,1.716v3.729H178.482z"/>
	<path fill="#FFFFFF" d="M180.505,65.664l0.418-0.594c0.352,0.406,1.023,0.759,1.75,0.759c0.814,0,1.265-0.385,1.265-0.913
		c0-1.287-3.29-0.495-3.29-2.465c0-0.836,0.704-1.528,1.969-1.528c0.913,0,1.551,0.341,1.969,0.77l-0.385,0.572
		c-0.319-0.385-0.891-0.671-1.584-0.671c-0.726,0-1.177,0.362-1.177,0.836c0,1.155,3.29,0.396,3.29,2.464
		c0,0.892-0.715,1.606-2.079,1.606C181.771,66.5,181.044,66.225,180.505,65.664z"/>
	<path fill="#FFFFFF" d="M185.763,63.706c0-1.54,1.012-2.783,2.629-2.783s2.629,1.243,2.629,2.783s-1.012,2.794-2.629,2.794
		S185.763,65.246,185.763,63.706z M190.153,63.706c0-1.078-0.627-2.047-1.76-2.047s-1.76,0.969-1.76,2.047
		c0,1.089,0.627,2.057,1.76,2.057S190.153,64.795,190.153,63.706z"/>
	<path fill="#FFFFFF" d="M192.363,66.368V59.03h0.825v7.338H192.363z"/>
	<path fill="#FFFFFF" d="M194.53,63.706c0-1.54,1.1-2.783,2.618-2.783c1.606,0,2.553,1.254,2.553,2.849v0.209h-4.291
		c0.066,1.002,0.759,1.838,1.903,1.838c0.616,0,1.221-0.242,1.65-0.683l0.396,0.539c-0.539,0.528-1.254,0.825-2.112,0.825
		C195.664,66.5,194.53,65.367,194.53,63.706z M197.138,61.604c-1.133,0-1.694,0.957-1.738,1.76h3.487
		C198.876,62.584,198.348,61.604,197.138,61.604z"/>
	<path fill="#FFFFFF" d="M200.888,59.745c0-0.308,0.253-0.561,0.561-0.561s0.55,0.253,0.55,0.561c0,0.309-0.242,0.55-0.55,0.55
		S200.888,60.053,200.888,59.745z M201.031,66.368v-5.313h0.825v5.313H201.031z"/>
	<path fill="#FFFFFF" d="M203.506,66.368V59.03h0.825v7.338H203.506z"/>
	<path fill="#FFFFFF" d="M205.981,66.368V59.03h0.825v7.338H205.981z"/>
	<path fill="#FFFFFF" d="M208.148,63.706c0-1.54,1.1-2.783,2.618-2.783c1.606,0,2.553,1.254,2.553,2.849v0.209h-4.291
		c0.066,1.002,0.759,1.838,1.903,1.838c0.616,0,1.221-0.242,1.65-0.683l0.396,0.539c-0.539,0.528-1.254,0.825-2.112,0.825
		C209.281,66.5,208.148,65.367,208.148,63.706z M210.755,61.604c-1.133,0-1.694,0.957-1.738,1.76h3.487
		C212.494,62.584,211.965,61.604,210.755,61.604z"/>
	<path fill="#FFFFFF" d="M221.063,66.368V62.76c0-0.671-0.286-1.101-0.979-1.101c-0.55,0-1.133,0.386-1.408,0.814v3.895h-0.825
		V62.76c0-0.671-0.275-1.101-0.979-1.101c-0.539,0-1.111,0.396-1.397,0.825v3.884h-0.825v-5.313h0.825v0.77
		c0.231-0.341,0.935-0.901,1.727-0.901c0.803,0,1.265,0.439,1.419,0.989c0.297-0.483,1.012-0.989,1.782-0.989
		c0.968,0,1.485,0.539,1.485,1.605v3.84H221.063z"/>
	<path fill="#FFFFFF" d="M223.229,63.706c0-1.54,1.1-2.783,2.618-2.783c1.606,0,2.553,1.254,2.553,2.849v0.209h-4.291
		c0.066,1.002,0.759,1.838,1.903,1.838c0.616,0,1.221-0.242,1.65-0.683l0.396,0.539c-0.539,0.528-1.254,0.825-2.112,0.825
		C224.362,66.5,223.229,65.367,223.229,63.706z M225.836,61.604c-1.133,0-1.694,0.957-1.738,1.76h3.487
		C227.574,62.584,227.046,61.604,225.836,61.604z"/>
	<path fill="#FFFFFF" d="M233.327,66.368v-3.477c0-0.946-0.484-1.232-1.199-1.232c-0.649,0-1.254,0.396-1.573,0.825v3.884h-0.825
		v-5.313h0.825v0.77c0.374-0.451,1.1-0.901,1.903-0.901c1.1,0,1.683,0.561,1.683,1.716v3.729H233.327z"/>
	<path fill="#FFFFFF" d="M235.966,65.257V61.78h-0.88v-0.726h0.88v-1.452h0.836v1.452h1.078v0.726h-1.078v3.301
		c0,0.396,0.176,0.682,0.528,0.682c0.242,0,0.451-0.109,0.561-0.23l0.242,0.627c-0.209,0.198-0.506,0.341-0.979,0.341
		C236.362,66.5,235.966,66.049,235.966,65.257z"/>
	<path fill="#FFFFFF" d="M242.709,65.565v2.827h-0.825v-7.338h0.825v0.792c0.385-0.539,1.045-0.924,1.793-0.924
		c1.397,0,2.366,1.056,2.366,2.783c0,1.716-0.968,2.794-2.366,2.794C243.776,66.5,243.149,66.148,242.709,65.565z M245.999,63.706
		c0-1.178-0.638-2.047-1.706-2.047c-0.649,0-1.298,0.386-1.584,0.848v2.398c0.286,0.462,0.935,0.857,1.584,0.857
		C245.361,65.762,245.999,64.883,245.999,63.706z"/>
	<path fill="#FFFFFF" d="M251.499,66.368v-0.605c-0.429,0.484-1.045,0.737-1.76,0.737c-0.891,0-1.848-0.604-1.848-1.76
		c0-1.199,0.946-1.75,1.848-1.75c0.726,0,1.332,0.231,1.76,0.716v-0.957c0-0.704-0.572-1.111-1.342-1.111
		c-0.638,0-1.155,0.22-1.628,0.737l-0.385-0.572c0.572-0.595,1.254-0.88,2.124-0.88c1.133,0,2.057,0.506,2.057,1.793v3.652H251.499z
		 M251.499,65.246v-1.013c-0.319-0.429-0.88-0.648-1.452-0.648c-0.781,0-1.32,0.483-1.32,1.155c0,0.682,0.539,1.166,1.32,1.166
		C250.619,65.906,251.18,65.686,251.499,65.246z"/>
	<path fill="#FFFFFF" d="M253.984,66.368v-5.313h0.825v0.847c0.429-0.55,1.045-0.968,1.771-0.968v0.847
		c-0.099-0.011-0.198-0.021-0.319-0.021c-0.517,0-1.21,0.418-1.452,0.847v3.763H253.984z"/>
	<path fill="#FFFFFF" d="M263.785,66.368v-0.605c-0.429,0.484-1.045,0.737-1.76,0.737c-0.891,0-1.848-0.604-1.848-1.76
		c0-1.199,0.946-1.75,1.848-1.75c0.726,0,1.332,0.231,1.76,0.716v-0.957c0-0.704-0.572-1.111-1.342-1.111
		c-0.638,0-1.155,0.22-1.628,0.737l-0.385-0.572c0.572-0.595,1.254-0.88,2.124-0.88c1.133,0,2.057,0.506,2.057,1.793v3.652H263.785z
		 M263.785,65.246v-1.013c-0.319-0.429-0.88-0.648-1.452-0.648c-0.781,0-1.32,0.483-1.32,1.155c0,0.682,0.539,1.166,1.32,1.166
		C262.905,65.906,263.466,65.686,263.785,65.246z"/>
	<path fill="#FFFFFF" d="M269.869,66.368v-3.477c0-0.946-0.484-1.232-1.199-1.232c-0.649,0-1.254,0.396-1.573,0.825v3.884h-0.825
		v-5.313h0.825v0.77c0.374-0.451,1.1-0.901,1.903-0.901c1.1,0,1.683,0.561,1.683,1.716v3.729H269.869z"/>
</g>
<g enable-background="new    ">
	<path fill="#FFFFFF" d="M347.221,53.168l-4.279-5.853v5.853h-0.914V45.83h0.936l4.225,5.731V45.83h0.913v7.338H347.221z"/>
	<path fill="#FFFFFF" d="M349.475,50.506c0-1.54,1.012-2.783,2.629-2.783s2.63,1.243,2.63,2.783s-1.013,2.794-2.63,2.794
		S349.475,52.046,349.475,50.506z M353.864,50.506c0-1.078-0.627-2.047-1.761-2.047c-1.133,0-1.76,0.969-1.76,2.047
		c0,1.089,0.627,2.057,1.76,2.057C353.237,52.562,353.864,51.594,353.864,50.506z"/>
	<path fill="#FFFFFF" d="M362.488,53.168v-3.608c0-0.671-0.286-1.101-0.979-1.101c-0.55,0-1.133,0.386-1.408,0.814v3.895h-0.825
		v-3.608c0-0.671-0.275-1.101-0.979-1.101c-0.539,0-1.111,0.396-1.397,0.825v3.884h-0.825v-5.313h0.825v0.77
		c0.231-0.341,0.935-0.901,1.728-0.901c0.803,0,1.265,0.439,1.419,0.989c0.297-0.483,1.013-0.989,1.782-0.989
		c0.968,0,1.484,0.539,1.484,1.605v3.84H362.488z"/>
	<path fill="#FFFFFF" d="M364.963,53.168V45.83h0.824v2.827c0.43-0.583,1.078-0.935,1.793-0.935c1.398,0,2.365,1.089,2.365,2.794
		c0,1.728-0.979,2.783-2.365,2.783c-0.748,0-1.396-0.385-1.793-0.924v0.792H364.963z M367.383,52.562
		c1.066,0,1.705-0.869,1.705-2.046s-0.639-2.058-1.705-2.058c-0.66,0-1.309,0.396-1.596,0.858v2.409
		C366.074,52.188,366.723,52.562,367.383,52.562z"/>
	<path fill="#FFFFFF" d="M371.287,53.168v-5.313h0.826v0.847c0.428-0.55,1.045-0.968,1.771-0.968v0.847
		c-0.099-0.011-0.198-0.021-0.319-0.021c-0.517,0-1.21,0.418-1.451,0.847v3.763H371.287z"/>
	<path fill="#FFFFFF" d="M374.609,50.506c0-1.54,1.1-2.783,2.618-2.783c1.606,0,2.553,1.254,2.553,2.849v0.209h-4.291
		c0.066,1.002,0.759,1.838,1.903,1.838c0.616,0,1.221-0.242,1.65-0.683l0.396,0.539c-0.539,0.528-1.254,0.825-2.113,0.825
		C375.742,53.3,374.609,52.167,374.609,50.506z M377.217,48.404c-1.133,0-1.694,0.957-1.738,1.76h3.487
		C378.955,49.384,378.427,48.404,377.217,48.404z"/>
	<path fill="#FFFFFF" d="M387.81,53.168v-0.792c-0.396,0.539-1.046,0.924-1.794,0.924c-1.386,0-2.365-1.056-2.365-2.783
		c0-1.705,0.979-2.794,2.365-2.794c0.716,0,1.365,0.352,1.794,0.935V45.83h0.825v7.338H387.81z M387.81,51.716v-2.398
		c-0.286-0.462-0.935-0.858-1.585-0.858c-1.078,0-1.716,0.881-1.716,2.058s0.638,2.046,1.716,2.046
		C386.875,52.562,387.523,52.177,387.81,51.716z"/>
	<path fill="#FFFFFF" d="M389.977,50.506c0-1.54,1.1-2.783,2.617-2.783c1.607,0,2.553,1.254,2.553,2.849v0.209h-4.291
		c0.066,1.002,0.76,1.838,1.904,1.838c0.615,0,1.221-0.242,1.65-0.683l0.396,0.539c-0.539,0.528-1.254,0.825-2.112,0.825
		C391.109,53.3,389.977,52.167,389.977,50.506z M392.584,48.404c-1.134,0-1.695,0.957-1.738,1.76h3.486
		C394.322,49.384,393.793,48.404,392.584,48.404z"/>
	<path fill="#FFFFFF" d="M397.422,54.927l0.287-0.615c0.187,0.187,0.428,0.33,0.758,0.33c0.496,0,0.859-0.286,0.859-0.958v-5.83
		h0.824v5.83c0,1.046-0.55,1.64-1.572,1.64C398.039,55.324,397.752,55.192,397.422,54.927z M399.183,46.545
		c0-0.308,0.253-0.561,0.562-0.561c0.308,0,0.55,0.253,0.55,0.561c0,0.309-0.242,0.55-0.55,0.55
		C399.436,47.094,399.183,46.853,399.183,46.545z"/>
	<path fill="#FFFFFF" d="M401.492,50.506c0-1.54,1.013-2.783,2.63-2.783s2.63,1.243,2.63,2.783s-1.013,2.794-2.63,2.794
		S401.492,52.046,401.492,50.506z M405.883,50.506c0-1.078-0.627-2.047-1.761-2.047s-1.761,0.969-1.761,2.047
		c0,1.089,0.627,2.057,1.761,2.057S405.883,51.594,405.883,50.506z"/>
	<path fill="#FFFFFF" d="M411.679,53.168V52.42c-0.407,0.462-1.101,0.88-1.892,0.88c-1.111,0-1.695-0.55-1.695-1.694v-3.751h0.826
		v3.498c0,0.936,0.473,1.21,1.199,1.21c0.637,0,1.254-0.374,1.562-0.803v-3.905h0.825v5.313H411.679z"/>
	<path fill="#FFFFFF" d="M414.153,53.168v-5.313h0.825v0.847c0.429-0.55,1.045-0.968,1.771-0.968v0.847
		c-0.1-0.011-0.198-0.021-0.319-0.021c-0.517,0-1.21,0.418-1.452,0.847v3.763H414.153z"/>
	<path fill="#FFFFFF" d="M417.332,52.464l0.418-0.594c0.352,0.406,1.023,0.759,1.75,0.759c0.813,0,1.265-0.385,1.265-0.913
		c0-1.287-3.29-0.495-3.29-2.465c0-0.836,0.705-1.528,1.97-1.528c0.913,0,1.552,0.341,1.97,0.77l-0.385,0.572
		c-0.32-0.385-0.892-0.671-1.585-0.671c-0.726,0-1.177,0.362-1.177,0.836c0,1.155,3.289,0.396,3.289,2.464
		c0,0.892-0.715,1.606-2.079,1.606C418.598,53.3,417.871,53.025,417.332,52.464z"/>
	<path fill="#FFFFFF" d="M429.598,53.168v-0.792c-0.396,0.539-1.045,0.924-1.793,0.924c-1.387,0-2.365-1.056-2.365-2.783
		c0-1.705,0.979-2.794,2.365-2.794c0.715,0,1.363,0.352,1.793,0.935V45.83h0.825v7.338H429.598z M429.598,51.716v-2.398
		c-0.286-0.462-0.936-0.858-1.584-0.858c-1.078,0-1.717,0.881-1.717,2.058s0.639,2.046,1.717,2.046
		C428.662,52.562,429.312,52.177,429.598,51.716z"/>
	<path fill="#FFFFFF" d="M431.764,50.506c0-1.54,1.101-2.783,2.619-2.783c1.605,0,2.553,1.254,2.553,2.849v0.209h-4.291
		c0.066,1.002,0.759,1.838,1.902,1.838c0.617,0,1.222-0.242,1.65-0.683l0.396,0.539c-0.539,0.528-1.254,0.825-2.112,0.825
		C432.897,53.3,431.764,52.167,431.764,50.506z M434.371,48.404c-1.133,0-1.693,0.957-1.738,1.76h3.488
		C436.109,49.384,435.582,48.404,434.371,48.404z"/>
</g>
<g enable-background="new    ">
	<path fill="#FFFFFF" d="M342.82,65.565v2.827h-0.826v-7.338h0.826v0.792c0.385-0.539,1.045-0.924,1.793-0.924
		c1.396,0,2.365,1.056,2.365,2.783c0,1.716-0.969,2.794-2.365,2.794C343.887,66.5,343.26,66.148,342.82,65.565z M346.109,63.706
		c0-1.178-0.639-2.047-1.705-2.047c-0.649,0-1.299,0.386-1.584,0.848v2.398c0.285,0.462,0.935,0.857,1.584,0.857
		C345.471,65.762,346.109,64.883,346.109,63.706z"/>
	<path fill="#FFFFFF" d="M348.287,66.368V59.03h0.824v7.338H348.287z"/>
	<path fill="#FFFFFF" d="M354.348,66.368V65.62c-0.407,0.462-1.1,0.88-1.893,0.88c-1.111,0-1.693-0.55-1.693-1.694v-3.751h0.824
		v3.498c0,0.936,0.474,1.21,1.199,1.21c0.639,0,1.254-0.374,1.563-0.803v-3.905h0.825v5.313H354.348z"/>
	<path fill="#FFFFFF" d="M356.68,59.745c0-0.308,0.252-0.561,0.561-0.561s0.551,0.253,0.551,0.561c0,0.309-0.242,0.55-0.551,0.55
		S356.68,60.053,356.68,59.745z M356.822,66.368v-5.313h0.825v5.313H356.822z"/>
	<path fill="#FFFFFF" d="M358.989,63.706c0-1.54,1.101-2.783,2.618-2.783c1.606,0,2.553,1.254,2.553,2.849v0.209h-4.291
		c0.066,1.002,0.76,1.838,1.903,1.838c0.616,0,1.222-0.242,1.65-0.683l0.396,0.539c-0.539,0.528-1.254,0.825-2.111,0.825
		C360.123,66.5,358.989,65.367,358.989,63.706z M361.597,61.604c-1.134,0-1.694,0.957-1.738,1.76h3.487
		C363.335,62.584,362.807,61.604,361.597,61.604z"/>
	<path fill="#FFFFFF" d="M369.164,65.565v2.827h-0.825v-7.338h0.825v0.792c0.385-0.539,1.045-0.924,1.793-0.924
		c1.397,0,2.365,1.056,2.365,2.783c0,1.716-0.968,2.794-2.365,2.794C370.23,66.5,369.604,66.148,369.164,65.565z M372.453,63.706
		c0-1.178-0.638-2.047-1.705-2.047c-0.648,0-1.299,0.386-1.584,0.848v2.398c0.285,0.462,0.936,0.857,1.584,0.857
		C371.815,65.762,372.453,64.883,372.453,63.706z"/>
	<path fill="#FFFFFF" d="M377.953,66.368v-0.605c-0.429,0.484-1.045,0.737-1.76,0.737c-0.892,0-1.849-0.604-1.849-1.76
		c0-1.199,0.946-1.75,1.849-1.75c0.726,0,1.331,0.231,1.76,0.716v-0.957c0-0.704-0.572-1.111-1.342-1.111
		c-0.639,0-1.155,0.22-1.629,0.737l-0.385-0.572c0.572-0.595,1.254-0.88,2.123-0.88c1.133,0,2.058,0.506,2.058,1.793v3.652H377.953z
		 M377.953,65.246v-1.013c-0.318-0.429-0.88-0.648-1.452-0.648c-0.781,0-1.32,0.483-1.32,1.155c0,0.682,0.539,1.166,1.32,1.166
		C377.073,65.906,377.635,65.686,377.953,65.246z"/>
	<path fill="#FFFFFF" d="M380.439,66.368v-5.313h0.824v0.847c0.43-0.55,1.045-0.968,1.771-0.968v0.847
		c-0.1-0.011-0.197-0.021-0.318-0.021c-0.518,0-1.211,0.418-1.453,0.847v3.763H380.439z"/>
	<path fill="#FFFFFF" d="M390.24,66.368v-0.605c-0.43,0.484-1.045,0.737-1.761,0.737c-0.892,0-1.849-0.604-1.849-1.76
		c0-1.199,0.947-1.75,1.849-1.75c0.726,0,1.331,0.231,1.761,0.716v-0.957c0-0.704-0.572-1.111-1.343-1.111
		c-0.638,0-1.155,0.22-1.628,0.737l-0.385-0.572c0.572-0.595,1.254-0.88,2.123-0.88c1.133,0,2.057,0.506,2.057,1.793v3.652H390.24z
		 M390.24,65.246v-1.013c-0.319-0.429-0.881-0.648-1.453-0.648c-0.781,0-1.32,0.483-1.32,1.155c0,0.682,0.539,1.166,1.32,1.166
		C389.359,65.906,389.921,65.686,390.24,65.246z"/>
	<path fill="#FFFFFF" d="M396.323,66.368v-3.477c0-0.946-0.484-1.232-1.199-1.232c-0.649,0-1.255,0.396-1.573,0.825v3.884h-0.825
		v-5.313h0.825v0.77c0.374-0.451,1.1-0.901,1.903-0.901c1.101,0,1.683,0.561,1.683,1.716v3.729H396.323z"/>
</g>
</svg>
