<?xml version="1.0" encoding="utf-8"?>
<!-- Generator: Adobe Illustrator 16.0.0, SVG Export Plug-In . SVG Version: 6.00 Build 0)  -->
<!DOCTYPE svg PUBLIC "-//W3C//DTD SVG 1.1//EN" "http://www.w3.org/Graphics/SVG/1.1/DTD/svg11.dtd">
<svg version="1.1" id="Calque_1" xmlns="http://www.w3.org/2000/svg" xmlns:xlink="http://www.w3.org/1999/xlink" x="0px" y="0px"
	 width="585px" height="70px" viewBox="0 0 585 70" enable-background="new 0 0 585 70" xml:space="preserve">
<g>
	<g>
		<path fill="#FFFFFF" d="M1.207,11.33V6.597h0.589v4.732H1.207z"/>
		<path fill="#FFFFFF" d="M5.896,11.33l-2.76-3.774v3.774H2.546V6.597H3.15l2.725,3.696V6.597h0.589v4.732H5.896z"/>
		<path fill="#FFFFFF" d="M7.21,11.33V6.597h1.618c1.476,0,2.426,1.028,2.426,2.37c0,1.348-0.951,2.362-2.426,2.362H7.21z
			 M10.645,8.967c0-1.022-0.646-1.846-1.816-1.846H7.799v3.683h1.029C9.978,10.804,10.645,9.982,10.645,8.967z"/>
		<path fill="#FFFFFF" d="M11.817,11.33V6.597h0.589v4.732H11.817z"/>
		<path fill="#FFFFFF" d="M12.966,8.967c0-1.455,1.071-2.448,2.434-2.448c0.837,0,1.419,0.397,1.795,0.937l-0.49,0.276
			c-0.27-0.404-0.766-0.688-1.306-0.688c-1.036,0-1.823,0.787-1.823,1.923c0,1.121,0.788,1.923,1.823,1.923
			c0.54,0,1.036-0.291,1.306-0.688l0.497,0.27c-0.397,0.546-0.965,0.943-1.802,0.943C14.037,11.415,12.966,10.421,12.966,8.967z"/>
		<path fill="#FFFFFF" d="M17.594,11.33V6.597h3.101v0.524h-2.512v1.526h2.462v0.524h-2.462v1.632h2.512v0.525H17.594z"/>
		<path fill="#FFFFFF" d="M4.722,18.924l-0.319-0.858H2.23l-0.319,0.858H0.688l1.953-5.068h1.353l1.953,5.068H4.722z M3.316,14.935
			l-0.79,2.181h1.581L3.316,14.935z"/>
		<path fill="#FFFFFF" d="M6.718,18.924v-4.118H5.236v-0.95h4.042v0.95H7.805v4.118H6.718z"/>
		<path fill="#FFFFFF" d="M13.996,18.924v-3.655l-1.428,3.655h-0.471l-1.429-3.655v3.655H9.588v-5.068h1.512l1.231,3.169
			l1.231-3.169h1.52v5.068H13.996z"/>
		<path fill="#FFFFFF" d="M15.458,16.394c0-1.527,1.117-2.622,2.652-2.622c1.528,0,2.645,1.095,2.645,2.622
			s-1.117,2.621-2.645,2.621C16.576,19.015,15.458,17.921,15.458,16.394z M19.646,16.394c0-0.95-0.6-1.664-1.535-1.664
			c-0.942,0-1.542,0.714-1.542,1.664c0,0.942,0.601,1.664,1.542,1.664C19.045,18.058,19.646,17.336,19.646,16.394z"/>
	</g>
</g>
<g>
	<path fill="#FFFFFF" d="M396.816,5.946c-0.52-1.512-1.643-3.152-7.218-3.152l0,0c-5.575,0-6.697,1.641-7.218,3.152
		c-0.52,1.518-1.037,6.917-1.037,6.917s0,4.277,0,6.05c0,1.252,0.814,1.489,1.296,1.522v1.545c0,0.647,0.515,1.169,1.148,1.169
		h0.256c0.634,0,1.147-0.521,1.147-1.169v-1.554h4.407l0,0h4.407v1.554c0,0.647,0.516,1.169,1.148,1.169h0.256
		c0.634,0,1.146-0.521,1.146-1.169v-1.545c0.48-0.033,1.296-0.271,1.296-1.522c0-1.772,0-6.05,0-6.05S397.334,7.463,396.816,5.946z
		 M385.709,3.917h7.779c0.311,0,0.562,0.209,0.562,0.475c0,0.264-0.252,0.477-0.562,0.477h-7.779c-0.311,0-0.562-0.213-0.562-0.477
		C385.146,4.126,385.398,3.917,385.709,3.917z M383.938,17.876c-0.717,0-1.298-0.579-1.298-1.296s0.581-1.296,1.298-1.296
		c0.716,0,1.297,0.579,1.297,1.296S384.653,17.876,383.938,17.876z M383.85,12.474c-1.209,0-0.907-1.254-0.907-1.254
		s0.347-2.637,0.562-4.147c0.218-1.511,0.908-1.341,0.908-1.341h5.187h5.187c0,0,0.691-0.17,0.906,1.341
		c0.217,1.511,0.562,4.147,0.562,4.147s0.302,1.254-0.908,1.254c-1.209,0-5.747,0-5.747,0S385.061,12.474,383.85,12.474z
		 M395.261,17.876c-0.716,0-1.298-0.579-1.298-1.296s0.582-1.296,1.298-1.296s1.295,0.579,1.295,1.296
		S395.977,17.876,395.261,17.876z"/>
</g>
<g>
	<path fill="#FFFFFF" d="M218.535,16.969v-2.245c0,0,0-0.331-0.111-0.44c0.308-0.924-0.308-2.31-0.308-2.31
		s-0.446-0.753-0.998-1.676c0.012,0.001,0.024,0.003,0.036,0.003h0.977c0.09,0,0.163-0.085,0.163-0.189V9.504
		c0-0.105-0.073-0.193-0.163-0.193h-0.977c-0.09,0-0.163,0.088-0.163,0.193v0.581c-0.667-1.118-1.445-2.412-1.779-2.93
		c-0.638-0.989-1.562-0.924-1.562-0.924h-3.361h-3.362c0,0-0.925-0.065-1.562,0.924c-0.336,0.518-1.112,1.812-1.78,2.93V9.504
		c0-0.105-0.074-0.193-0.162-0.193h-0.978c-0.09,0-0.164,0.088-0.164,0.193v0.607c0,0.104,0.074,0.189,0.164,0.189h0.978
		c0.011,0,0.021-0.002,0.036-0.003c-0.553,0.923-0.998,1.676-0.998,1.676s-0.616,1.386-0.309,2.31c-0.11,0.109-0.11,0.44-0.11,0.44
		v2.245c0,0-0.052,0.314,0.409,0.383v1.663c0,0.384,0.355,0.696,0.793,0.696h0.624c0.438,0,0.791-0.312,0.791-0.696v-1.649
		c2.282,0,5.63,0,5.63,0s3.346,0,5.627,0v1.649c0,0.384,0.354,0.696,0.793,0.696h0.623c0.439,0,0.792-0.312,0.792-0.696v-1.663
		C218.584,17.284,218.535,16.969,218.535,16.969z M204.298,14.872c-0.655,0-1.188-0.531-1.188-1.189c0-0.655,0.533-1.19,1.188-1.19
		c0.656,0,1.189,0.535,1.189,1.19C205.488,14.34,204.955,14.872,204.298,14.872z M205.077,10.001c0,0,0.851-1.85,1.144-2.378
		c0.293-0.525,1.35-0.497,1.35-0.497h2.718h2.717c0,0,1.057-0.028,1.351,0.497c0.293,0.528,1.143,2.378,1.143,2.378h-5.21H205.077z
		 M216.275,14.872c-0.656,0-1.188-0.531-1.188-1.189c0-0.655,0.531-1.19,1.188-1.19c0.655,0,1.188,0.535,1.188,1.19
		C217.463,14.34,216.93,14.872,216.275,14.872z"/>
</g>
<g>
	<path fill="#FFFFFF" d="M37.238,9.232l-4.279-5.853v5.853h-0.914V1.894h0.936l4.225,5.731V1.894h0.913v7.338H37.238z"/>
	<path fill="#FFFFFF" d="M38.942,6.57c0-1.54,1.012-2.783,2.629-2.783s2.629,1.243,2.629,2.783s-1.012,2.794-2.629,2.794
		S38.942,8.11,38.942,6.57z M43.332,6.57c0-1.078-0.627-2.047-1.76-2.047s-1.76,0.969-1.76,2.047c0,1.089,0.627,2.057,1.76,2.057
		S43.332,7.659,43.332,6.57z"/>
	<path fill="#FFFFFF" d="M51.406,9.232V5.624c0-0.671-0.286-1.101-0.979-1.101c-0.55,0-1.133,0.386-1.408,0.814v3.895h-0.825V5.624
		c0-0.671-0.275-1.101-0.979-1.101c-0.539,0-1.111,0.396-1.397,0.825v3.884h-0.825V3.918h0.825v0.77
		c0.231-0.341,0.935-0.901,1.727-0.901c0.803,0,1.265,0.439,1.419,0.989c0.297-0.483,1.012-0.989,1.782-0.989
		c0.968,0,1.485,0.539,1.485,1.605v3.84H51.406z"/>
	<path fill="#FFFFFF" d="M53.33,9.232V1.894h0.825v2.827c0.429-0.583,1.078-0.935,1.793-0.935c1.397,0,2.366,1.089,2.366,2.794
		c0,1.728-0.979,2.783-2.366,2.783c-0.748,0-1.397-0.385-1.793-0.924v0.792H53.33z M55.75,8.626c1.067,0,1.705-0.869,1.705-2.046
		s-0.638-2.058-1.705-2.058c-0.66,0-1.31,0.396-1.595,0.858v2.409C54.441,8.252,55.09,8.626,55.75,8.626z"/>
	<path fill="#FFFFFF" d="M59.105,9.232V3.918h0.825v0.847c0.429-0.55,1.045-0.968,1.771-0.968v0.847
		c-0.099-0.011-0.198-0.021-0.319-0.021c-0.517,0-1.21,0.418-1.452,0.847v3.763H59.105z"/>
	<path fill="#FFFFFF" d="M61.877,6.57c0-1.54,1.1-2.783,2.618-2.783c1.606,0,2.553,1.254,2.553,2.849v0.209h-4.291
		c0.066,1.002,0.759,1.838,1.903,1.838c0.616,0,1.221-0.242,1.65-0.683l0.396,0.539c-0.539,0.528-1.254,0.825-2.112,0.825
		C63.01,9.364,61.877,8.231,61.877,6.57z M64.484,4.468c-1.133,0-1.694,0.957-1.738,1.76h3.487
		C66.223,5.448,65.694,4.468,64.484,4.468z"/>
	<path fill="#FFFFFF" d="M73.977,9.232V8.44c-0.396,0.539-1.045,0.924-1.793,0.924c-1.386,0-2.365-1.056-2.365-2.783
		c0-1.705,0.979-2.794,2.365-2.794c0.715,0,1.364,0.352,1.793,0.935V1.894h0.825v7.338H73.977z M73.977,7.78V5.381
		c-0.286-0.462-0.935-0.858-1.584-0.858c-1.078,0-1.716,0.881-1.716,2.058s0.638,2.046,1.716,2.046
		C73.042,8.626,73.691,8.242,73.977,7.78z"/>
	<path fill="#FFFFFF" d="M75.593,6.57c0-1.54,1.1-2.783,2.618-2.783c1.606,0,2.553,1.254,2.553,2.849v0.209h-4.291
		c0.066,1.002,0.759,1.838,1.903,1.838c0.616,0,1.221-0.242,1.65-0.683l0.396,0.539c-0.539,0.528-1.254,0.825-2.112,0.825
		C76.727,9.364,75.593,8.231,75.593,6.57z M78.201,4.468c-1.133,0-1.694,0.957-1.738,1.76h3.487
		C79.939,5.448,79.411,4.468,78.201,4.468z"/>
	<path fill="#FFFFFF" d="M81.94,10.992l0.286-0.615c0.187,0.187,0.429,0.33,0.759,0.33c0.495,0,0.858-0.286,0.858-0.958v-5.83h0.825
		v5.83c0,1.046-0.55,1.64-1.573,1.64C82.556,11.388,82.27,11.256,81.94,10.992z M83.7,2.609c0-0.308,0.253-0.561,0.561-0.561
		s0.55,0.253,0.55,0.561c0,0.309-0.242,0.55-0.55,0.55S83.7,2.917,83.7,2.609z"/>
	<path fill="#FFFFFF" d="M85.46,6.57c0-1.54,1.012-2.783,2.629-2.783s2.629,1.243,2.629,2.783s-1.012,2.794-2.629,2.794
		S85.46,8.11,85.46,6.57z M89.85,6.57c0-1.078-0.627-2.047-1.76-2.047s-1.76,0.969-1.76,2.047c0,1.089,0.627,2.057,1.76,2.057
		S89.85,7.659,89.85,6.57z"/>
	<path fill="#FFFFFF" d="M95.097,9.232V8.484c-0.407,0.462-1.1,0.88-1.892,0.88c-1.111,0-1.694-0.55-1.694-1.694V3.918h0.825v3.498
		c0,0.936,0.473,1.21,1.199,1.21c0.638,0,1.254-0.374,1.562-0.803V3.918h0.825v5.313H95.097z"/>
	<path fill="#FFFFFF" d="M97.021,9.232V3.918h0.825v0.847c0.429-0.55,1.045-0.968,1.771-0.968v0.847
		c-0.099-0.011-0.198-0.021-0.319-0.021c-0.517,0-1.21,0.418-1.452,0.847v3.763H97.021z"/>
	<path fill="#FFFFFF" d="M99.65,8.528l0.418-0.594c0.352,0.406,1.023,0.759,1.75,0.759c0.814,0,1.265-0.385,1.265-0.913
		c0-1.287-3.29-0.495-3.29-2.465c0-0.836,0.704-1.528,1.969-1.528c0.913,0,1.551,0.341,1.969,0.77l-0.385,0.572
		c-0.319-0.385-0.891-0.671-1.584-0.671c-0.726,0-1.177,0.362-1.177,0.836c0,1.155,3.29,0.396,3.29,2.464
		c0,0.892-0.715,1.606-2.079,1.606C100.915,9.364,100.189,9.089,99.65,8.528z"/>
	<path fill="#FFFFFF" d="M106.657,6.57c0-1.54,1.012-2.783,2.629-2.783s2.629,1.243,2.629,2.783s-1.012,2.794-2.629,2.794
		S106.657,8.11,106.657,6.57z M111.046,6.57c0-1.078-0.627-2.047-1.76-2.047s-1.76,0.969-1.76,2.047c0,1.089,0.627,2.057,1.76,2.057
		S111.046,7.659,111.046,6.57z"/>
	<path fill="#FFFFFF" d="M116.293,9.232V8.484c-0.407,0.462-1.1,0.88-1.892,0.88c-1.111,0-1.694-0.55-1.694-1.694V3.918h0.825v3.498
		c0,0.936,0.473,1.21,1.199,1.21c0.638,0,1.254-0.374,1.562-0.803V3.918h0.825v5.313H116.293z M115.039,3.115l-1.859-1.584h0.858
		l1.628,1.584H115.039z"/>
	<path fill="#FFFFFF" d="M120.517,9.232V1.894h0.825v7.338H120.517z"/>
	<path fill="#FFFFFF" d="M122.661,4.281l-0.418-0.341c0.352-0.23,0.671-0.671,0.715-1.022c-0.022,0.011-0.099,0.021-0.154,0.021
		c-0.297,0-0.528-0.242-0.528-0.561c0-0.319,0.253-0.595,0.583-0.595c0.374,0,0.693,0.297,0.693,0.836
		C123.552,3.292,123.167,3.918,122.661,4.281z"/>
	<path fill="#FFFFFF" d="M127.744,9.232V8.626c-0.429,0.484-1.045,0.737-1.76,0.737c-0.891,0-1.848-0.604-1.848-1.76
		c0-1.199,0.946-1.75,1.848-1.75c0.726,0,1.332,0.231,1.76,0.716V5.613c0-0.704-0.572-1.111-1.342-1.111
		c-0.638,0-1.155,0.22-1.628,0.737l-0.385-0.572c0.572-0.595,1.254-0.88,2.124-0.88c1.133,0,2.057,0.506,2.057,1.793v3.652H127.744z
		 M127.744,8.11V7.097c-0.319-0.429-0.88-0.648-1.452-0.648c-0.781,0-1.32,0.483-1.32,1.155c0,0.682,0.539,1.166,1.32,1.166
		C126.864,8.77,127.425,8.55,127.744,8.11z"/>
	<path fill="#FFFFFF" d="M129.536,2.609c0-0.308,0.253-0.561,0.561-0.561s0.55,0.253,0.55,0.561c0,0.309-0.242,0.55-0.55,0.55
		S129.536,2.917,129.536,2.609z M129.679,9.232V3.918h0.825v5.313H129.679z"/>
	<path fill="#FFFFFF" d="M131.604,9.232V3.918h0.825v0.847c0.429-0.55,1.045-0.968,1.771-0.968v0.847
		c-0.099-0.011-0.198-0.021-0.319-0.021c-0.517,0-1.21,0.418-1.452,0.847v3.763H131.604z"/>
	<path fill="#FFFFFF" d="M31.704,19.77c0-1.54,1.1-2.783,2.618-2.783c1.606,0,2.553,1.254,2.553,2.849v0.209h-4.291
		c0.066,1.002,0.759,1.838,1.903,1.838c0.616,0,1.221-0.242,1.65-0.683l0.396,0.539c-0.539,0.528-1.254,0.825-2.112,0.825
		C32.837,22.564,31.704,21.431,31.704,19.77z M34.312,17.668c-1.133,0-1.694,0.957-1.738,1.76h3.487
		C36.05,18.648,35.521,17.668,34.312,17.668z M34.234,16.315h-0.627l1.628-1.584h0.858L34.234,16.315z"/>
	<path fill="#FFFFFF" d="M37.82,21.321v-3.477h-0.88v-0.726h0.88v-1.452h0.836v1.452h1.078v0.726h-1.078v3.301
		c0,0.396,0.176,0.682,0.528,0.682c0.242,0,0.451-0.109,0.561-0.23l0.242,0.627c-0.209,0.198-0.506,0.341-0.979,0.341
		C38.216,22.564,37.82,22.113,37.82,21.321z"/>
	<path fill="#FFFFFF" d="M43.661,22.432v-0.605c-0.429,0.484-1.045,0.737-1.76,0.737c-0.891,0-1.848-0.604-1.848-1.76
		c0-1.199,0.946-1.75,1.848-1.75c0.726,0,1.332,0.231,1.76,0.716v-0.957c0-0.704-0.572-1.111-1.342-1.111
		c-0.638,0-1.155,0.22-1.628,0.737l-0.385-0.572c0.572-0.595,1.254-0.88,2.124-0.88c1.133,0,2.057,0.506,2.057,1.793v3.652H43.661z
		 M43.661,21.31v-1.013c-0.319-0.429-0.88-0.648-1.452-0.648c-0.781,0-1.32,0.483-1.32,1.155c0,0.682,0.539,1.166,1.32,1.166
		C42.781,21.97,43.342,21.75,43.661,21.31z"/>
	<path fill="#FFFFFF" d="M45.454,15.809c0-0.308,0.253-0.561,0.561-0.561s0.55,0.253,0.55,0.561c0,0.309-0.242,0.55-0.55,0.55
		S45.454,16.118,45.454,15.809z M45.597,22.432v-5.313h0.825v5.313H45.597z"/>
	<path fill="#FFFFFF" d="M47.687,21.321v-3.477h-0.88v-0.726h0.88v-1.452h0.836v1.452h1.078v0.726h-1.078v3.301
		c0,0.396,0.176,0.682,0.528,0.682c0.242,0,0.451-0.109,0.561-0.23l0.242,0.627c-0.209,0.198-0.506,0.341-0.979,0.341
		C48.083,22.564,47.687,22.113,47.687,21.321z"/>
	<path fill="#FFFFFF" d="M56.355,22.432V21.64c-0.396,0.539-1.045,0.924-1.793,0.924c-1.386,0-2.365-1.056-2.365-2.783
		c0-1.705,0.979-2.794,2.365-2.794c0.715,0,1.364,0.352,1.793,0.935v-2.827h0.825v7.338H56.355z M56.355,20.98v-2.398
		c-0.286-0.462-0.935-0.858-1.584-0.858c-1.078,0-1.716,0.881-1.716,2.058s0.638,2.046,1.716,2.046
		C55.42,21.827,56.069,21.442,56.355,20.98z"/>
	<path fill="#FFFFFF" d="M57.972,19.77c0-1.54,1.1-2.783,2.618-2.783c1.606,0,2.553,1.254,2.553,2.849v0.209h-4.291
		c0.066,1.002,0.759,1.838,1.903,1.838c0.616,0,1.221-0.242,1.65-0.683l0.396,0.539c-0.539,0.528-1.254,0.825-2.112,0.825
		C59.105,22.564,57.972,21.431,57.972,19.77z M60.579,17.668c-1.133,0-1.694,0.957-1.738,1.76h3.487
		C62.317,18.648,61.789,17.668,60.579,17.668z"/>
	<path fill="#FFFFFF" d="M66.221,22.432v-7.338h0.825v2.827c0.429-0.583,1.078-0.935,1.793-0.935c1.397,0,2.365,1.089,2.365,2.794
		c0,1.728-0.979,2.783-2.365,2.783c-0.748,0-1.397-0.385-1.793-0.924v0.792H66.221z M68.642,21.827c1.067,0,1.705-0.869,1.705-2.046
		s-0.638-2.058-1.705-2.058c-0.66,0-1.309,0.396-1.595,0.858v2.409C67.333,21.453,67.981,21.827,68.642,21.827z"/>
	<path fill="#FFFFFF" d="M71.688,19.77c0-1.54,1.012-2.783,2.629-2.783s2.629,1.243,2.629,2.783s-1.012,2.794-2.629,2.794
		S71.688,21.31,71.688,19.77z M76.078,19.77c0-1.078-0.627-2.047-1.76-2.047s-1.76,0.969-1.76,2.047c0,1.089,0.627,2.057,1.76,2.057
		S76.078,20.859,76.078,19.77z"/>
	<path fill="#FFFFFF" d="M81.336,22.432v-3.477c0-0.946-0.484-1.232-1.199-1.232c-0.649,0-1.254,0.396-1.573,0.825v3.884h-0.825
		v-5.313h0.825v0.77c0.374-0.451,1.1-0.901,1.903-0.901c1.1,0,1.683,0.561,1.683,1.716v3.729H81.336z"/>
	<path fill="#FFFFFF" d="M86.858,22.432v-3.477c0-0.946-0.484-1.232-1.199-1.232c-0.649,0-1.254,0.396-1.573,0.825v3.884H83.26
		v-5.313h0.825v0.77c0.374-0.451,1.1-0.901,1.903-0.901c1.1,0,1.683,0.561,1.683,1.716v3.729H86.858z"/>
	<path fill="#FFFFFF" d="M88.474,19.77c0-1.54,1.1-2.783,2.618-2.783c1.606,0,2.553,1.254,2.553,2.849v0.209h-4.291
		c0.066,1.002,0.759,1.838,1.903,1.838c0.616,0,1.221-0.242,1.65-0.683l0.396,0.539c-0.539,0.528-1.254,0.825-2.112,0.825
		C89.607,22.564,88.474,21.431,88.474,19.77z M91.081,17.668c-1.133,0-1.694,0.957-1.738,1.76h3.487
		C92.819,18.648,92.291,17.668,91.081,17.668z"/>
	<path fill="#FFFFFF" d="M96.382,19.77c0-1.728,0.968-2.783,2.366-2.783c0.748,0,1.408,0.385,1.793,0.924v-0.792h0.825v7.338h-0.825
		v-2.827c-0.44,0.583-1.067,0.935-1.793,0.935C97.351,22.564,96.382,21.486,96.382,19.77z M100.541,20.969v-2.398
		c-0.286-0.462-0.935-0.848-1.584-0.848c-1.067,0-1.706,0.869-1.706,2.047c0,1.177,0.638,2.057,1.706,2.057
		C99.606,21.827,100.255,21.431,100.541,20.969z"/>
	<path fill="#FFFFFF" d="M106.052,22.432v-0.748c-0.407,0.462-1.1,0.88-1.892,0.88c-1.111,0-1.694-0.55-1.694-1.694v-3.751h0.825
		v3.498c0,0.936,0.473,1.21,1.199,1.21c0.638,0,1.254-0.374,1.562-0.803v-3.905h0.825v5.313H106.052z"/>
	<path fill="#FFFFFF" d="M111.299,22.432v-0.605c-0.429,0.484-1.045,0.737-1.76,0.737c-0.891,0-1.848-0.604-1.848-1.76
		c0-1.199,0.946-1.75,1.848-1.75c0.726,0,1.332,0.231,1.76,0.716v-0.957c0-0.704-0.572-1.111-1.342-1.111
		c-0.638,0-1.155,0.22-1.628,0.737l-0.385-0.572c0.572-0.595,1.254-0.88,2.124-0.88c1.133,0,2.057,0.506,2.057,1.793v3.652H111.299z
		 M111.299,21.31v-1.013c-0.319-0.429-0.88-0.648-1.452-0.648c-0.781,0-1.32,0.483-1.32,1.155c0,0.682,0.539,1.166,1.32,1.166
		C110.419,21.97,110.98,21.75,111.299,21.31z"/>
	<path fill="#FFFFFF" d="M113.234,22.432v-7.338h0.825v7.338H113.234z"/>
	<path fill="#FFFFFF" d="M115.016,15.809c0-0.308,0.253-0.561,0.561-0.561s0.55,0.253,0.55,0.561c0,0.309-0.242,0.55-0.55,0.55
		S115.016,16.118,115.016,15.809z M115.159,22.432v-5.313h0.825v5.313H115.159z"/>
	<path fill="#FFFFFF" d="M117.25,21.321v-3.477h-0.88v-0.726h0.88v-1.452h0.836v1.452h1.078v0.726h-1.078v3.301
		c0,0.396,0.176,0.682,0.528,0.682c0.242,0,0.451-0.109,0.561-0.23l0.242,0.627c-0.209,0.198-0.506,0.341-0.979,0.341
		C117.646,22.564,117.25,22.113,117.25,21.321z"/>
	<path fill="#FFFFFF" d="M119.46,19.77c0-1.54,1.1-2.783,2.618-2.783c1.606,0,2.553,1.254,2.553,2.849v0.209h-4.291
		c0.066,1.002,0.759,1.838,1.903,1.838c0.616,0,1.221-0.242,1.65-0.683l0.396,0.539c-0.539,0.528-1.254,0.825-2.112,0.825
		C120.593,22.564,119.46,21.431,119.46,19.77z M122.067,17.668c-1.133,0-1.694,0.957-1.738,1.76h3.487
		C123.806,18.648,123.277,17.668,122.067,17.668z M121.99,16.315h-0.627l1.628-1.584h0.858L121.99,16.315z"/>
</g>
<g>
	<path fill="#FFFFFF" d="M410.428,3.61c0-1.045,0.727-1.826,1.771-1.826c1.057,0,1.771,0.781,1.771,1.826
		c0,1.013-0.715,1.794-1.771,1.794C411.154,5.404,410.428,4.623,410.428,3.61z M413.311,3.61c0-0.726-0.451-1.265-1.111-1.265
		c-0.648,0-1.111,0.539-1.111,1.265c0,0.693,0.463,1.232,1.111,1.232C412.859,4.842,413.311,4.303,413.311,3.61z M411.495,9.232
		l4.687-7.338h0.616l-4.697,7.338H411.495z M414.257,7.56c0-1.023,0.726-1.815,1.771-1.815c1.045,0,1.76,0.792,1.76,1.815
		c0,1.022-0.715,1.804-1.76,1.804C414.982,9.364,414.257,8.583,414.257,7.56z M417.14,7.56c0-0.716-0.451-1.255-1.111-1.255
		c-0.672,0-1.122,0.539-1.122,1.255c0,0.704,0.45,1.243,1.122,1.243C416.688,8.803,417.14,8.264,417.14,7.56z"/>
	<path fill="#FFFFFF" d="M424.563,9.232V8.44c-0.396,0.539-1.045,0.924-1.793,0.924c-1.387,0-2.365-1.056-2.365-2.783
		c0-1.705,0.979-2.794,2.365-2.794c0.715,0,1.364,0.352,1.793,0.935V1.894h0.825v7.338H424.563z M424.563,7.78V5.381
		c-0.286-0.462-0.935-0.858-1.584-0.858c-1.078,0-1.717,0.881-1.717,2.058s0.639,2.046,1.717,2.046
		C423.629,8.626,424.277,8.242,424.563,7.78z"/>
	<path fill="#FFFFFF" d="M426.18,6.57c0-1.54,1.101-2.783,2.618-2.783c1.606,0,2.553,1.254,2.553,2.849v0.209h-4.291
		c0.066,1.002,0.76,1.838,1.903,1.838c0.616,0,1.222-0.242,1.65-0.683l0.396,0.539c-0.539,0.528-1.254,0.825-2.112,0.825
		C427.313,9.364,426.18,8.231,426.18,6.57z M428.787,4.468c-1.133,0-1.694,0.957-1.738,1.76h3.487
		C430.525,5.448,429.997,4.468,428.787,4.468z"/>
	<path fill="#FFFFFF" d="M434.43,9.232V1.894h0.825v7.338H434.43z"/>
	<path fill="#FFFFFF" d="M439.677,9.232V8.626c-0.429,0.484-1.045,0.737-1.76,0.737c-0.892,0-1.849-0.604-1.849-1.76
		c0-1.199,0.946-1.75,1.849-1.75c0.726,0,1.331,0.231,1.76,0.716V5.613c0-0.704-0.571-1.111-1.342-1.111
		c-0.638,0-1.155,0.22-1.628,0.737l-0.386-0.572c0.572-0.595,1.255-0.88,2.124-0.88c1.133,0,2.057,0.506,2.057,1.793v3.652H439.677z
		 M439.677,8.11V7.097c-0.318-0.429-0.88-0.648-1.452-0.648c-0.781,0-1.32,0.483-1.32,1.155c0,0.682,0.539,1.166,1.32,1.166
		C438.797,8.77,439.358,8.55,439.677,8.11z"/>
	<path fill="#FFFFFF" d="M444.736,8.429v2.827h-0.825V3.918h0.825V4.71c0.385-0.539,1.045-0.924,1.793-0.924
		c1.397,0,2.365,1.056,2.365,2.783c0,1.716-0.968,2.794-2.365,2.794C445.804,9.364,445.177,9.012,444.736,8.429z M448.026,6.57
		c0-1.178-0.639-2.047-1.706-2.047c-0.648,0-1.298,0.386-1.584,0.848v2.398c0.286,0.462,0.936,0.857,1.584,0.857
		C447.388,8.626,448.026,7.747,448.026,6.57z"/>
	<path fill="#FFFFFF" d="M449.346,6.57c0-1.54,1.012-2.783,2.629-2.783s2.63,1.243,2.63,2.783s-1.013,2.794-2.63,2.794
		S449.346,8.11,449.346,6.57z M453.735,6.57c0-1.078-0.627-2.047-1.761-2.047c-1.133,0-1.76,0.969-1.76,2.047
		c0,1.089,0.627,2.057,1.76,2.057C453.108,8.626,453.735,7.659,453.735,6.57z"/>
	<path fill="#FFFFFF" d="M456.221,8.429v2.827h-0.825V3.918h0.825V4.71c0.385-0.539,1.045-0.924,1.793-0.924
		c1.397,0,2.365,1.056,2.365,2.783c0,1.716-0.968,2.794-2.365,2.794C457.287,9.364,456.66,9.012,456.221,8.429z M459.51,6.57
		c0-1.178-0.638-2.047-1.705-2.047c-0.649,0-1.299,0.386-1.584,0.848v2.398c0.285,0.462,0.935,0.857,1.584,0.857
		C458.872,8.626,459.51,7.747,459.51,6.57z"/>
	<path fill="#FFFFFF" d="M464.724,9.232V8.484c-0.407,0.462-1.1,0.88-1.892,0.88c-1.111,0-1.694-0.55-1.694-1.694V3.918h0.825v3.498
		c0,0.936,0.473,1.21,1.199,1.21c0.638,0,1.254-0.374,1.562-0.803V3.918h0.825v5.313H464.724z"/>
	<path fill="#FFFFFF" d="M466.648,9.232V1.894h0.825v7.338H466.648z"/>
	<path fill="#FFFFFF" d="M471.896,9.232V8.626c-0.429,0.484-1.045,0.737-1.761,0.737c-0.891,0-1.848-0.604-1.848-1.76
		c0-1.199,0.946-1.75,1.848-1.75c0.727,0,1.332,0.231,1.761,0.716V5.613c0-0.704-0.572-1.111-1.343-1.111
		c-0.638,0-1.154,0.22-1.628,0.737l-0.385-0.572c0.572-0.595,1.254-0.88,2.123-0.88c1.133,0,2.058,0.506,2.058,1.793v3.652H471.896z
		 M471.896,8.11V7.097c-0.319-0.429-0.88-0.648-1.452-0.648c-0.781,0-1.32,0.483-1.32,1.155c0,0.682,0.539,1.166,1.32,1.166
		C471.016,8.77,471.576,8.55,471.896,8.11z"/>
	<path fill="#FFFFFF" d="M473.996,8.121V4.644h-0.88V3.918h0.88V2.466h0.836v1.452h1.078v0.726h-1.078v3.301
		c0,0.396,0.177,0.682,0.528,0.682c0.242,0,0.451-0.109,0.562-0.23l0.241,0.627c-0.209,0.198-0.506,0.341-0.979,0.341
		C474.393,9.364,473.996,8.913,473.996,8.121z"/>
	<path fill="#FFFFFF" d="M476.372,2.609c0-0.308,0.253-0.561,0.561-0.561c0.309,0,0.551,0.253,0.551,0.561
		c0,0.309-0.242,0.55-0.551,0.55C476.625,3.159,476.372,2.917,476.372,2.609z M476.515,9.232V3.918h0.825v5.313H476.515z"/>
	<path fill="#FFFFFF" d="M478.132,6.57c0-1.54,1.013-2.783,2.63-2.783s2.629,1.243,2.629,2.783s-1.012,2.794-2.629,2.794
		S478.132,8.11,478.132,6.57z M482.521,6.57c0-1.078-0.627-2.047-1.76-2.047c-1.134,0-1.761,0.969-1.761,2.047
		c0,1.089,0.627,2.057,1.761,2.057C481.895,8.626,482.521,7.659,482.521,6.57z"/>
	<path fill="#FFFFFF" d="M487.779,9.232V5.755c0-0.946-0.484-1.232-1.199-1.232c-0.649,0-1.254,0.396-1.573,0.825v3.884h-0.825
		V3.918h0.825v0.77c0.374-0.451,1.101-0.901,1.903-0.901c1.101,0,1.684,0.561,1.684,1.716v3.729H487.779z"/>
	<path fill="#FFFFFF" d="M495.589,9.232V8.484c-0.407,0.462-1.1,0.88-1.892,0.88c-1.111,0-1.694-0.55-1.694-1.694V3.918h0.825v3.498
		c0,0.936,0.473,1.21,1.199,1.21c0.638,0,1.254-0.374,1.562-0.803V3.918h0.825v5.313H495.589z"/>
	<path fill="#FFFFFF" d="M497.679,8.121V4.644h-0.881V3.918h0.881V2.466h0.836v1.452h1.078v0.726h-1.078v3.301
		c0,0.396,0.176,0.682,0.528,0.682c0.241,0,0.45-0.109,0.561-0.23l0.242,0.627c-0.209,0.198-0.506,0.341-0.979,0.341
		C498.074,9.364,497.679,8.913,497.679,8.121z"/>
	<path fill="#FFFFFF" d="M500.055,2.609c0-0.308,0.253-0.561,0.561-0.561c0.309,0,0.551,0.253,0.551,0.561
		c0,0.309-0.242,0.55-0.551,0.55C500.308,3.159,500.055,2.917,500.055,2.609z M500.197,9.232V3.918h0.825v5.313H500.197z"/>
	<path fill="#FFFFFF" d="M502.122,9.232V1.894h0.825v7.338H502.122z"/>
	<path fill="#FFFFFF" d="M503.904,2.609c0-0.308,0.253-0.561,0.561-0.561c0.309,0,0.551,0.253,0.551,0.561
		c0,0.309-0.242,0.55-0.551,0.55C504.157,3.159,503.904,2.917,503.904,2.609z M504.047,9.232V3.918h0.825v5.313H504.047z"/>
	<path fill="#FFFFFF" d="M505.521,8.528l0.418-0.594c0.353,0.406,1.023,0.759,1.75,0.759c0.813,0,1.265-0.385,1.265-0.913
		c0-1.287-3.289-0.495-3.289-2.465c0-0.836,0.704-1.528,1.969-1.528c0.913,0,1.552,0.341,1.97,0.77l-0.385,0.572
		c-0.319-0.385-0.892-0.671-1.585-0.671c-0.726,0-1.177,0.362-1.177,0.836c0,1.155,3.289,0.396,3.289,2.464
		c0,0.892-0.715,1.606-2.079,1.606C506.786,9.364,506.06,9.089,505.521,8.528z"/>
	<path fill="#FFFFFF" d="M513.859,9.232V8.626c-0.429,0.484-1.045,0.737-1.761,0.737c-0.891,0-1.848-0.604-1.848-1.76
		c0-1.199,0.946-1.75,1.848-1.75c0.727,0,1.332,0.231,1.761,0.716V5.613c0-0.704-0.572-1.111-1.343-1.111
		c-0.638,0-1.154,0.22-1.628,0.737l-0.385-0.572c0.572-0.595,1.254-0.88,2.123-0.88c1.133,0,2.058,0.506,2.058,1.793v3.652H513.859z
		 M513.859,8.11V7.097c-0.319-0.429-0.88-0.648-1.452-0.648c-0.781,0-1.32,0.483-1.32,1.155c0,0.682,0.539,1.166,1.32,1.166
		C512.979,8.77,513.54,8.55,513.859,8.11z"/>
	<path fill="#FFFFFF" d="M519.393,9.232V5.755c0-0.946-0.484-1.232-1.199-1.232c-0.649,0-1.254,0.396-1.573,0.825v3.884h-0.825
		V3.918h0.825v0.77c0.374-0.451,1.101-0.901,1.903-0.901c1.101,0,1.684,0.561,1.684,1.716v3.729H519.393z"/>
	<path fill="#FFFFFF" d="M521.482,8.121V4.644h-0.881V3.918h0.881V2.466h0.836v1.452h1.078v0.726h-1.078v3.301
		c0,0.396,0.176,0.682,0.528,0.682c0.241,0,0.45-0.109,0.561-0.23l0.242,0.627c-0.209,0.198-0.506,0.341-0.979,0.341
		C521.878,9.364,521.482,8.913,521.482,8.121z"/>
	<path fill="#FFFFFF" d="M526.3,9.232V1.894h0.825v7.338H526.3z"/>
	<path fill="#FFFFFF" d="M527.916,6.57c0-1.54,1.101-2.783,2.618-2.783c1.606,0,2.553,1.254,2.553,2.849v0.209h-4.291
		c0.066,1.002,0.76,1.838,1.903,1.838c0.616,0,1.222-0.242,1.65-0.683l0.396,0.539c-0.539,0.528-1.254,0.825-2.112,0.825
		C529.05,9.364,527.916,8.231,527.916,6.57z M530.523,4.468c-1.133,0-1.694,0.957-1.738,1.76h3.487
		C532.262,5.448,531.733,4.468,530.523,4.468z"/>
	<path fill="#FFFFFF" d="M533.416,8.528l0.418-0.594c0.353,0.406,1.023,0.759,1.75,0.759c0.813,0,1.265-0.385,1.265-0.913
		c0-1.287-3.289-0.495-3.289-2.465c0-0.836,0.704-1.528,1.969-1.528c0.913,0,1.552,0.341,1.97,0.77l-0.385,0.572
		c-0.319-0.385-0.892-0.671-1.585-0.671c-0.726,0-1.177,0.362-1.177,0.836c0,1.155,3.289,0.396,3.289,2.464
		c0,0.892-0.715,1.606-2.079,1.606C534.682,9.364,533.955,9.089,533.416,8.528z"/>
	<path fill="#FFFFFF" d="M540.896,8.121V4.644h-0.881V3.918h0.881V2.466h0.836v1.452h1.078v0.726h-1.078v3.301
		c0,0.396,0.176,0.682,0.528,0.682c0.241,0,0.45-0.109,0.561-0.23l0.242,0.627c-0.209,0.198-0.506,0.341-0.979,0.341
		C541.292,9.364,540.896,8.913,540.896,8.121z"/>
	<path fill="#FFFFFF" d="M543.415,9.232V3.918h0.825v0.847c0.429-0.55,1.045-0.968,1.771-0.968v0.847
		c-0.1-0.011-0.198-0.021-0.319-0.021c-0.517,0-1.21,0.418-1.452,0.847v3.763H543.415z"/>
	<path fill="#FFFFFF" d="M549.817,9.232V8.626c-0.429,0.484-1.045,0.737-1.761,0.737c-0.891,0-1.848-0.604-1.848-1.76
		c0-1.199,0.946-1.75,1.848-1.75c0.727,0,1.332,0.231,1.761,0.716V5.613c0-0.704-0.572-1.111-1.343-1.111
		c-0.638,0-1.154,0.22-1.628,0.737l-0.385-0.572c0.572-0.595,1.254-0.88,2.123-0.88c1.133,0,2.058,0.506,2.058,1.793v3.652H549.817z
		 M549.817,8.11V7.097c-0.319-0.429-0.88-0.648-1.452-0.648c-0.781,0-1.32,0.483-1.32,1.155c0,0.682,0.539,1.166,1.32,1.166
		C548.938,8.77,549.498,8.55,549.817,8.11z"/>
	<path fill="#FFFFFF" d="M555.351,9.232V5.755c0-0.946-0.484-1.232-1.199-1.232c-0.649,0-1.254,0.396-1.573,0.825v3.884h-0.825
		V3.918h0.825v0.77c0.374-0.451,1.101-0.901,1.903-0.901c1.101,0,1.684,0.561,1.684,1.716v3.729H555.351z"/>
	<path fill="#FFFFFF" d="M556.823,8.528l0.418-0.594c0.353,0.406,1.023,0.759,1.75,0.759c0.813,0,1.265-0.385,1.265-0.913
		c0-1.287-3.289-0.495-3.289-2.465c0-0.836,0.704-1.528,1.969-1.528c0.913,0,1.552,0.341,1.97,0.77l-0.385,0.572
		c-0.319-0.385-0.892-0.671-1.585-0.671c-0.726,0-1.177,0.362-1.177,0.836c0,1.155,3.289,0.396,3.289,2.464
		c0,0.892-0.715,1.606-2.079,1.606C558.089,9.364,557.362,9.089,556.823,8.528z"/>
	<path fill="#FFFFFF" d="M562.665,8.429v2.827h-0.825V3.918h0.825V4.71c0.385-0.539,1.045-0.924,1.793-0.924
		c1.397,0,2.365,1.056,2.365,2.783c0,1.716-0.968,2.794-2.365,2.794C563.732,9.364,563.105,9.012,562.665,8.429z M565.955,6.57
		c0-1.178-0.639-2.047-1.706-2.047c-0.648,0-1.298,0.386-1.584,0.848v2.398c0.286,0.462,0.936,0.857,1.584,0.857
		C565.316,8.626,565.955,7.747,565.955,6.57z"/>
	<path fill="#FFFFFF" d="M567.273,6.57c0-1.54,1.013-2.783,2.63-2.783s2.629,1.243,2.629,2.783s-1.012,2.794-2.629,2.794
		S567.273,8.11,567.273,6.57z M571.663,6.57c0-1.078-0.627-2.047-1.76-2.047c-1.134,0-1.761,0.969-1.761,2.047
		c0,1.089,0.627,2.057,1.761,2.057C571.036,8.626,571.663,7.659,571.663,6.57z"/>
	<path fill="#FFFFFF" d="M573.323,9.232V3.918h0.825v0.847c0.429-0.55,1.045-0.968,1.771-0.968v0.847
		c-0.1-0.011-0.198-0.021-0.319-0.021c-0.517,0-1.21,0.418-1.452,0.847v3.763H573.323z"/>
	<path fill="#FFFFFF" d="M576.568,8.121V4.644h-0.88V3.918h0.88V2.466h0.836v1.452h1.078v0.726h-1.078v3.301
		c0,0.396,0.177,0.682,0.528,0.682c0.242,0,0.451-0.109,0.562-0.23l0.241,0.627c-0.209,0.198-0.506,0.341-0.979,0.341
		C576.965,9.364,576.568,8.913,576.568,8.121z"/>
	<path fill="#FFFFFF" d="M578.637,8.528l0.418-0.594c0.352,0.406,1.023,0.759,1.749,0.759c0.814,0,1.266-0.385,1.266-0.913
		c0-1.287-3.29-0.495-3.29-2.465c0-0.836,0.704-1.528,1.97-1.528c0.913,0,1.551,0.341,1.969,0.77l-0.385,0.572
		c-0.319-0.385-0.891-0.671-1.584-0.671c-0.727,0-1.178,0.362-1.178,0.836c0,1.155,3.29,0.396,3.29,2.464
		c0,0.892-0.715,1.606-2.079,1.606C579.901,9.364,579.176,9.089,578.637,8.528z"/>
	<path fill="#FFFFFF" d="M410.604,19.77c0-1.54,1.1-2.783,2.618-2.783c1.606,0,2.553,1.254,2.553,2.849v0.209h-4.291
		c0.066,1.002,0.759,1.838,1.903,1.838c0.616,0,1.221-0.242,1.65-0.683l0.396,0.539c-0.539,0.528-1.254,0.825-2.112,0.825
		C411.737,22.564,410.604,21.431,410.604,19.77z M413.212,17.668c-1.134,0-1.694,0.957-1.738,1.76h3.487
		C414.95,18.648,414.422,17.668,413.212,17.668z"/>
	<path fill="#FFFFFF" d="M420.153,22.432v-3.477c0-0.946-0.484-1.232-1.199-1.232c-0.649,0-1.255,0.396-1.573,0.825v3.884h-0.825
		v-5.313h0.825v0.77c0.374-0.451,1.1-0.901,1.903-0.901c1.1,0,1.683,0.561,1.683,1.716v3.729H420.153z"/>
	<path fill="#FFFFFF" d="M424.067,19.77c0-1.573,1.067-2.783,2.651-2.783c0.969,0,1.54,0.396,1.947,0.924l-0.55,0.495
		c-0.353-0.484-0.803-0.683-1.354-0.683c-1.122,0-1.837,0.869-1.837,2.047c0,1.177,0.715,2.057,1.837,2.057
		c0.551,0,1.001-0.22,1.354-0.692l0.55,0.506c-0.407,0.528-0.979,0.924-1.947,0.924C425.135,22.564,424.067,21.343,424.067,19.77z"
		/>
	<path fill="#FFFFFF" d="M428.974,19.77c0-1.54,1.013-2.783,2.63-2.783s2.629,1.243,2.629,2.783s-1.012,2.794-2.629,2.794
		S428.974,21.31,428.974,19.77z M433.363,19.77c0-1.078-0.627-2.047-1.76-2.047c-1.134,0-1.761,0.969-1.761,2.047
		c0,1.089,0.627,2.057,1.761,2.057C432.736,21.827,433.363,20.859,433.363,19.77z"/>
	<path fill="#FFFFFF" d="M441.438,22.432v-3.608c0-0.671-0.286-1.101-0.979-1.101c-0.55,0-1.133,0.386-1.408,0.814v3.895h-0.825
		v-3.608c0-0.671-0.274-1.101-0.979-1.101c-0.539,0-1.111,0.396-1.397,0.825v3.884h-0.825v-5.313h0.825v0.77
		c0.231-0.341,0.936-0.901,1.728-0.901c0.803,0,1.265,0.439,1.419,0.989c0.297-0.483,1.012-0.989,1.782-0.989
		c0.968,0,1.485,0.539,1.485,1.605v3.84H441.438z"/>
	<path fill="#FFFFFF" d="M449.775,22.432v-3.608c0-0.671-0.286-1.101-0.979-1.101c-0.55,0-1.133,0.386-1.408,0.814v3.895h-0.825
		v-3.608c0-0.671-0.274-1.101-0.979-1.101c-0.539,0-1.111,0.396-1.397,0.825v3.884h-0.825v-5.313h0.825v0.77
		c0.231-0.341,0.936-0.901,1.728-0.901c0.803,0,1.265,0.439,1.419,0.989c0.297-0.483,1.012-0.989,1.782-0.989
		c0.968,0,1.485,0.539,1.485,1.605v3.84H449.775z"/>
	<path fill="#FFFFFF" d="M455.286,22.432v-0.748c-0.407,0.462-1.101,0.88-1.893,0.88c-1.111,0-1.694-0.55-1.694-1.694v-3.751h0.825
		v3.498c0,0.936,0.474,1.21,1.199,1.21c0.638,0,1.254-0.374,1.562-0.803v-3.905h0.825v5.313H455.286z"/>
	<path fill="#FFFFFF" d="M460.809,22.432v-3.477c0-0.946-0.484-1.232-1.199-1.232c-0.649,0-1.255,0.396-1.573,0.825v3.884h-0.825
		v-5.313h0.825v0.77c0.374-0.451,1.1-0.901,1.903-0.901c1.1,0,1.683,0.561,1.683,1.716v3.729H460.809z"/>
	<path fill="#FFFFFF" d="M465.856,21.629v2.827h-0.825v-7.338h0.825v0.792c0.385-0.539,1.045-0.924,1.793-0.924
		c1.397,0,2.365,1.056,2.365,2.783c0,1.716-0.968,2.794-2.365,2.794C466.924,22.564,466.297,22.212,465.856,21.629z M469.146,19.77
		c0-1.178-0.639-2.047-1.706-2.047c-0.648,0-1.298,0.386-1.584,0.848v2.398c0.286,0.462,0.936,0.857,1.584,0.857
		C468.508,21.827,469.146,20.947,469.146,19.77z"/>
	<path fill="#FFFFFF" d="M470.465,19.77c0-1.54,1.013-2.783,2.63-2.783s2.629,1.243,2.629,2.783s-1.012,2.794-2.629,2.794
		S470.465,21.31,470.465,19.77z M474.854,19.77c0-1.078-0.627-2.047-1.76-2.047c-1.134,0-1.761,0.969-1.761,2.047
		c0,1.089,0.627,2.057,1.761,2.057C474.228,21.827,474.854,20.859,474.854,19.77z"/>
	<path fill="#FFFFFF" d="M480.102,22.432v-0.748c-0.407,0.462-1.101,0.88-1.893,0.88c-1.111,0-1.694-0.55-1.694-1.694v-3.751h0.825
		v3.498c0,0.936,0.474,1.21,1.199,1.21c0.638,0,1.254-0.374,1.562-0.803v-3.905h0.825v5.313H480.102z"/>
	<path fill="#FFFFFF" d="M482.026,22.432v-5.313h0.825v0.847c0.429-0.55,1.045-0.968,1.771-0.968v0.847
		c-0.099-0.011-0.197-0.021-0.318-0.021c-0.518,0-1.211,0.418-1.452,0.847v3.763H482.026z"/>
	<path fill="#FFFFFF" d="M490.727,22.432v-0.605c-0.429,0.484-1.045,0.737-1.76,0.737c-0.892,0-1.849-0.604-1.849-1.76
		c0-1.199,0.946-1.75,1.849-1.75c0.726,0,1.331,0.231,1.76,0.716v-0.957c0-0.704-0.571-1.111-1.342-1.111
		c-0.638,0-1.155,0.22-1.628,0.737l-0.386-0.572c0.572-0.595,1.255-0.88,2.124-0.88c1.133,0,2.057,0.506,2.057,1.793v3.652H490.727z
		 M490.727,21.31v-1.013c-0.318-0.429-0.88-0.648-1.452-0.648c-0.781,0-1.32,0.483-1.32,1.155c0,0.682,0.539,1.166,1.32,1.166
		C489.847,21.97,490.408,21.75,490.727,21.31z"/>
	<path fill="#FFFFFF" d="M492.663,22.432v-7.338h0.825v7.338H492.663z"/>
	<path fill="#FFFFFF" d="M494.588,22.432v-7.338h0.825v7.338H494.588z"/>
	<path fill="#FFFFFF" d="M496.204,19.77c0-1.54,1.101-2.783,2.618-2.783c1.606,0,2.553,1.254,2.553,2.849v0.209h-4.291
		c0.066,1.002,0.76,1.838,1.903,1.838c0.616,0,1.222-0.242,1.65-0.683l0.396,0.539c-0.539,0.528-1.254,0.825-2.112,0.825
		C497.338,22.564,496.204,21.431,496.204,19.77z M498.812,17.668c-1.133,0-1.694,0.957-1.738,1.76h3.487
		C500.55,18.648,500.021,17.668,498.812,17.668z"/>
	<path fill="#FFFFFF" d="M502.155,22.432v-5.313h0.825v0.847c0.429-0.55,1.045-0.968,1.771-0.968v0.847
		c-0.1-0.011-0.198-0.021-0.319-0.021c-0.517,0-1.21,0.418-1.452,0.847v3.763H502.155z"/>
	<path fill="#FFFFFF" d="M510.856,22.432v-0.605c-0.429,0.484-1.045,0.737-1.761,0.737c-0.891,0-1.848-0.604-1.848-1.76
		c0-1.199,0.946-1.75,1.848-1.75c0.727,0,1.332,0.231,1.761,0.716v-0.957c0-0.704-0.572-1.111-1.343-1.111
		c-0.638,0-1.154,0.22-1.628,0.737l-0.385-0.572c0.572-0.595,1.254-0.88,2.123-0.88c1.133,0,2.058,0.506,2.058,1.793v3.652H510.856z
		 M510.856,21.31v-1.013c-0.319-0.429-0.88-0.648-1.452-0.648c-0.781,0-1.32,0.483-1.32,1.155c0,0.682,0.539,1.166,1.32,1.166
		C509.977,21.97,510.537,21.75,510.856,21.31z"/>
	<path fill="#FFFFFF" d="M516.379,22.432v-0.748c-0.407,0.462-1.101,0.88-1.893,0.88c-1.111,0-1.694-0.55-1.694-1.694v-3.751h0.825
		v3.498c0,0.936,0.474,1.21,1.199,1.21c0.638,0,1.254-0.374,1.562-0.803v-3.905h0.825v5.313H516.379z"/>
	<path fill="#FFFFFF" d="M520.767,21.321v-3.477h-0.88v-0.726h0.88v-1.452h0.836v1.452h1.078v0.726h-1.078v3.301
		c0,0.396,0.177,0.682,0.528,0.682c0.242,0,0.451-0.109,0.562-0.23l0.241,0.627c-0.209,0.198-0.506,0.341-0.979,0.341
		C521.163,22.564,520.767,22.113,520.767,21.321z"/>
	<path fill="#FFFFFF" d="M523.286,22.432v-5.313h0.825v0.847c0.429-0.55,1.045-0.968,1.771-0.968v0.847
		c-0.099-0.011-0.197-0.021-0.318-0.021c-0.518,0-1.211,0.418-1.452,0.847v3.763H523.286z"/>
	<path fill="#FFFFFF" d="M529.688,22.432v-0.605c-0.429,0.484-1.045,0.737-1.76,0.737c-0.892,0-1.849-0.604-1.849-1.76
		c0-1.199,0.946-1.75,1.849-1.75c0.726,0,1.331,0.231,1.76,0.716v-0.957c0-0.704-0.571-1.111-1.342-1.111
		c-0.638,0-1.155,0.22-1.628,0.737l-0.386-0.572c0.572-0.595,1.255-0.88,2.124-0.88c1.133,0,2.057,0.506,2.057,1.793v3.652H529.688z
		 M529.688,21.31v-1.013c-0.318-0.429-0.88-0.648-1.452-0.648c-0.781,0-1.32,0.483-1.32,1.155c0,0.682,0.539,1.166,1.32,1.166
		C528.808,21.97,529.369,21.75,529.688,21.31z"/>
	<path fill="#FFFFFF" d="M533.043,22.432l-2.211-5.313h0.901l1.761,4.356l1.771-4.356h0.891l-2.211,5.313H533.043z"/>
	<path fill="#FFFFFF" d="M539.786,22.432v-0.605c-0.429,0.484-1.045,0.737-1.761,0.737c-0.891,0-1.848-0.604-1.848-1.76
		c0-1.199,0.946-1.75,1.848-1.75c0.727,0,1.332,0.231,1.761,0.716v-0.957c0-0.704-0.572-1.111-1.343-1.111
		c-0.638,0-1.154,0.22-1.628,0.737l-0.385-0.572c0.572-0.595,1.254-0.88,2.123-0.88c1.133,0,2.058,0.506,2.058,1.793v3.652H539.786z
		 M539.786,21.31v-1.013c-0.319-0.429-0.88-0.648-1.452-0.648c-0.781,0-1.32,0.483-1.32,1.155c0,0.682,0.539,1.166,1.32,1.166
		C538.906,21.97,539.467,21.75,539.786,21.31z"/>
	<path fill="#FFFFFF" d="M541.578,15.809c0-0.308,0.253-0.561,0.562-0.561c0.308,0,0.55,0.253,0.55,0.561
		c0,0.309-0.242,0.55-0.55,0.55C541.831,16.359,541.578,16.118,541.578,15.809z M541.722,22.432v-5.313h0.825v5.313H541.722z"/>
	<path fill="#FFFFFF" d="M543.646,22.432v-7.338h0.825v7.338H543.646z"/>
</g>
<g>
	<path fill="#FFFFFF" d="M231.113,3.611c0-1.045,0.727-1.826,1.771-1.826c1.056,0,1.771,0.781,1.771,1.826
		c0,1.013-0.715,1.794-1.771,1.794C231.839,5.405,231.113,4.624,231.113,3.611z M233.996,3.611c0-0.726-0.451-1.265-1.111-1.265
		c-0.649,0-1.111,0.539-1.111,1.265c0,0.693,0.462,1.232,1.111,1.232C233.544,4.843,233.996,4.304,233.996,3.611z M232.18,9.233
		l4.687-7.338h0.616l-4.698,7.338H232.18z M234.941,7.561c0-1.023,0.726-1.815,1.771-1.815c1.045,0,1.76,0.792,1.76,1.815
		c0,1.022-0.715,1.804-1.76,1.804C235.667,9.365,234.941,8.583,234.941,7.561z M237.824,7.561c0-0.716-0.451-1.255-1.111-1.255
		c-0.671,0-1.122,0.539-1.122,1.255c0,0.704,0.451,1.243,1.122,1.243C237.373,8.804,237.824,8.265,237.824,7.561z"/>
	<path fill="#FFFFFF" d="M245.249,9.233V8.441c-0.396,0.539-1.045,0.924-1.793,0.924c-1.386,0-2.365-1.056-2.365-2.783
		c0-1.705,0.979-2.794,2.365-2.794c0.715,0,1.364,0.352,1.793,0.935V1.895h0.825v7.338H245.249z M245.249,7.781V5.382
		c-0.286-0.462-0.935-0.858-1.584-0.858c-1.078,0-1.716,0.881-1.716,2.058s0.638,2.046,1.716,2.046
		C244.313,8.627,244.962,8.243,245.249,7.781z"/>
	<path fill="#FFFFFF" d="M246.865,6.571c0-1.54,1.1-2.783,2.618-2.783c1.606,0,2.553,1.254,2.553,2.849v0.209h-4.291
		c0.066,1.002,0.759,1.838,1.903,1.838c0.616,0,1.221-0.242,1.65-0.683l0.396,0.539c-0.539,0.528-1.254,0.825-2.112,0.825
		C247.998,9.365,246.865,8.232,246.865,6.571z M249.472,4.469c-1.133,0-1.694,0.957-1.738,1.76h3.487
		C251.21,5.449,250.682,4.469,249.472,4.469z"/>
	<path fill="#FFFFFF" d="M255.115,9.233V1.895h0.825v7.338H255.115z"/>
	<path fill="#FFFFFF" d="M260.362,9.233V8.627c-0.429,0.484-1.045,0.737-1.76,0.737c-0.891,0-1.848-0.604-1.848-1.76
		c0-1.199,0.946-1.75,1.848-1.75c0.726,0,1.332,0.231,1.76,0.716V5.614c0-0.704-0.572-1.111-1.342-1.111
		c-0.638,0-1.155,0.22-1.628,0.737l-0.385-0.572c0.572-0.595,1.254-0.88,2.124-0.88c1.133,0,2.057,0.506,2.057,1.793v3.652H260.362z
		 M260.362,8.111V7.098c-0.319-0.429-0.88-0.648-1.452-0.648c-0.781,0-1.32,0.483-1.32,1.155c0,0.682,0.539,1.166,1.32,1.166
		C259.482,8.771,260.043,8.551,260.362,8.111z"/>
	<path fill="#FFFFFF" d="M265.421,8.43v2.827h-0.825V3.919h0.825v0.792c0.385-0.539,1.045-0.924,1.793-0.924
		c1.397,0,2.365,1.056,2.365,2.783c0,1.716-0.968,2.794-2.365,2.794C266.488,9.365,265.861,9.013,265.421,8.43z M268.711,6.571
		c0-1.178-0.638-2.047-1.706-2.047c-0.649,0-1.298,0.386-1.584,0.848V7.77c0.286,0.462,0.935,0.857,1.584,0.857
		C268.073,8.627,268.711,7.748,268.711,6.571z"/>
	<path fill="#FFFFFF" d="M270.03,6.571c0-1.54,1.012-2.783,2.629-2.783s2.629,1.243,2.629,2.783s-1.012,2.794-2.629,2.794
		S270.03,8.111,270.03,6.571z M274.42,6.571c0-1.078-0.627-2.047-1.76-2.047s-1.76,0.969-1.76,2.047c0,1.089,0.627,2.057,1.76,2.057
		S274.42,7.66,274.42,6.571z"/>
	<path fill="#FFFFFF" d="M276.905,8.43v2.827h-0.825V3.919h0.825v0.792c0.386-0.539,1.046-0.924,1.794-0.924
		c1.396,0,2.365,1.056,2.365,2.783c0,1.716-0.969,2.794-2.365,2.794C277.972,9.365,277.345,9.013,276.905,8.43z M280.195,6.571
		c0-1.178-0.639-2.047-1.705-2.047c-0.649,0-1.299,0.386-1.585,0.848V7.77c0.286,0.462,0.936,0.857,1.585,0.857
		C279.556,8.627,280.195,7.748,280.195,6.571z"/>
	<path fill="#FFFFFF" d="M285.409,9.233V8.485c-0.407,0.462-1.101,0.88-1.893,0.88c-1.111,0-1.694-0.55-1.694-1.694V3.919h0.825
		v3.498c0,0.936,0.473,1.21,1.199,1.21c0.638,0,1.254-0.374,1.562-0.803V3.919h0.824v5.313H285.409z"/>
	<path fill="#FFFFFF" d="M287.333,9.233V1.895h0.825v7.338H287.333z"/>
	<path fill="#FFFFFF" d="M292.581,9.233V8.627c-0.429,0.484-1.045,0.737-1.76,0.737c-0.892,0-1.849-0.604-1.849-1.76
		c0-1.199,0.946-1.75,1.849-1.75c0.726,0,1.331,0.231,1.76,0.716V5.614c0-0.704-0.572-1.111-1.342-1.111
		c-0.639,0-1.155,0.22-1.629,0.737l-0.385-0.572c0.572-0.595,1.254-0.88,2.123-0.88c1.134,0,2.058,0.506,2.058,1.793v3.652H292.581z
		 M292.581,8.111V7.098c-0.319-0.429-0.88-0.648-1.452-0.648c-0.781,0-1.32,0.483-1.32,1.155c0,0.682,0.539,1.166,1.32,1.166
		C291.701,8.771,292.261,8.551,292.581,8.111z"/>
	<path fill="#FFFFFF" d="M294.682,8.122V4.645h-0.88V3.919h0.88V2.467h0.836v1.452h1.078v0.726h-1.078v3.301
		c0,0.396,0.176,0.682,0.528,0.682c0.242,0,0.451-0.109,0.561-0.23l0.242,0.627c-0.209,0.198-0.506,0.341-0.979,0.341
		C295.077,9.365,294.682,8.914,294.682,8.122z"/>
	<path fill="#FFFFFF" d="M297.057,2.61c0-0.308,0.254-0.561,0.562-0.561s0.55,0.253,0.55,0.561c0,0.309-0.242,0.55-0.55,0.55
		S297.057,2.918,297.057,2.61z M297.2,9.233V3.919h0.825v5.313H297.2z"/>
	<path fill="#FFFFFF" d="M298.816,6.571c0-1.54,1.013-2.783,2.63-2.783s2.629,1.243,2.629,2.783s-1.012,2.794-2.629,2.794
		S298.816,8.111,298.816,6.571z M303.206,6.571c0-1.078-0.627-2.047-1.76-2.047s-1.761,0.969-1.761,2.047
		c0,1.089,0.628,2.057,1.761,2.057S303.206,7.66,303.206,6.571z"/>
	<path fill="#FFFFFF" d="M308.465,9.233V5.756c0-0.946-0.484-1.232-1.199-1.232c-0.649,0-1.254,0.396-1.573,0.825v3.884h-0.825
		V3.919h0.825v0.77c0.374-0.451,1.1-0.901,1.903-0.901c1.1,0,1.683,0.561,1.683,1.716v3.729H308.465z"/>
	<path fill="#FFFFFF" d="M316.274,9.233V8.485c-0.407,0.462-1.101,0.88-1.893,0.88c-1.111,0-1.694-0.55-1.694-1.694V3.919h0.825
		v3.498c0,0.936,0.473,1.21,1.199,1.21c0.638,0,1.254-0.374,1.562-0.803V3.919h0.824v5.313H316.274z"/>
	<path fill="#FFFFFF" d="M318.364,8.122V4.645h-0.88V3.919h0.88V2.467h0.836v1.452h1.078v0.726H319.2v3.301
		c0,0.396,0.176,0.682,0.528,0.682c0.242,0,0.451-0.109,0.561-0.23l0.242,0.627c-0.209,0.198-0.506,0.341-0.979,0.341
		C318.76,9.365,318.364,8.914,318.364,8.122z"/>
	<path fill="#FFFFFF" d="M320.739,2.61c0-0.308,0.254-0.561,0.562-0.561s0.55,0.253,0.55,0.561c0,0.309-0.242,0.55-0.55,0.55
		S320.739,2.918,320.739,2.61z M320.883,9.233V3.919h0.825v5.313H320.883z"/>
	<path fill="#FFFFFF" d="M322.808,9.233V1.895h0.825v7.338H322.808z"/>
	<path fill="#FFFFFF" d="M324.589,2.61c0-0.308,0.254-0.561,0.562-0.561s0.55,0.253,0.55,0.561c0,0.309-0.242,0.55-0.55,0.55
		S324.589,2.918,324.589,2.61z M324.732,9.233V3.919h0.825v5.313H324.732z"/>
	<path fill="#FFFFFF" d="M326.206,8.529l0.418-0.594c0.353,0.406,1.023,0.759,1.749,0.759c0.814,0,1.266-0.385,1.266-0.913
		c0-1.287-3.29-0.495-3.29-2.465c0-0.836,0.704-1.528,1.97-1.528c0.913,0,1.551,0.341,1.97,0.77l-0.386,0.572
		c-0.318-0.385-0.891-0.671-1.584-0.671c-0.726,0-1.177,0.362-1.177,0.836c0,1.155,3.289,0.396,3.289,2.464
		c0,0.892-0.715,1.606-2.079,1.606C327.472,9.365,326.745,9.09,326.206,8.529z"/>
	<path fill="#FFFFFF" d="M334.545,9.233V8.627c-0.429,0.484-1.045,0.737-1.76,0.737c-0.892,0-1.849-0.604-1.849-1.76
		c0-1.199,0.946-1.75,1.849-1.75c0.726,0,1.331,0.231,1.76,0.716V5.614c0-0.704-0.572-1.111-1.342-1.111
		c-0.639,0-1.155,0.22-1.629,0.737l-0.385-0.572c0.572-0.595,1.254-0.88,2.123-0.88c1.134,0,2.058,0.506,2.058,1.793v3.652H334.545z
		 M334.545,8.111V7.098c-0.319-0.429-0.88-0.648-1.452-0.648c-0.781,0-1.32,0.483-1.32,1.155c0,0.682,0.539,1.166,1.32,1.166
		C333.665,8.771,334.226,8.551,334.545,8.111z"/>
	<path fill="#FFFFFF" d="M340.078,9.233V5.756c0-0.946-0.484-1.232-1.199-1.232c-0.649,0-1.254,0.396-1.573,0.825v3.884h-0.825
		V3.919h0.825v0.77c0.374-0.451,1.1-0.901,1.903-0.901c1.1,0,1.683,0.561,1.683,1.716v3.729H340.078z"/>
	<path fill="#FFFFFF" d="M342.167,8.122V4.645h-0.88V3.919h0.88V2.467h0.836v1.452h1.078v0.726h-1.078v3.301
		c0,0.396,0.176,0.682,0.528,0.682c0.242,0,0.451-0.109,0.561-0.23l0.242,0.627c-0.209,0.198-0.506,0.341-0.979,0.341
		C342.562,9.365,342.167,8.914,342.167,8.122z"/>
	<path fill="#FFFFFF" d="M346.985,9.233V1.895h0.825v7.338H346.985z"/>
	<path fill="#FFFFFF" d="M352.232,9.233V8.627c-0.429,0.484-1.045,0.737-1.76,0.737c-0.892,0-1.849-0.604-1.849-1.76
		c0-1.199,0.946-1.75,1.849-1.75c0.726,0,1.331,0.231,1.76,0.716V5.614c0-0.704-0.572-1.111-1.342-1.111
		c-0.639,0-1.155,0.22-1.629,0.737l-0.385-0.572c0.572-0.595,1.254-0.88,2.123-0.88c1.134,0,2.058,0.506,2.058,1.793v3.652H352.232z
		 M352.232,8.111V7.098c-0.319-0.429-0.88-0.648-1.452-0.648c-0.781,0-1.32,0.483-1.32,1.155c0,0.682,0.539,1.166,1.32,1.166
		C351.353,8.771,351.913,8.551,352.232,8.111z"/>
	<path fill="#FFFFFF" d="M233.016,22.433l-2.211-5.313h0.902l1.76,4.356l1.771-4.356h0.891l-2.211,5.313H233.016z"/>
	<path fill="#FFFFFF" d="M236.129,19.771c0-1.54,1.012-2.783,2.629-2.783s2.629,1.243,2.629,2.783s-1.012,2.794-2.629,2.794
		S236.129,21.311,236.129,19.771z M240.519,19.771c0-1.078-0.627-2.047-1.76-2.047s-1.76,0.969-1.76,2.047
		c0,1.089,0.627,2.057,1.76,2.057S240.519,20.86,240.519,19.771z"/>
	<path fill="#FFFFFF" d="M242.036,15.81c0-0.308,0.253-0.561,0.561-0.561s0.55,0.253,0.55,0.561c0,0.309-0.242,0.55-0.55,0.55
		S242.036,16.119,242.036,15.81z M242.179,22.433V17.12h0.825v5.313H242.179z"/>
	<path fill="#FFFFFF" d="M244.269,21.322v-3.477h-0.88V17.12h0.88v-1.452h0.836v1.452h1.078v0.726h-1.078v3.301
		c0,0.396,0.176,0.682,0.528,0.682c0.242,0,0.451-0.109,0.561-0.23l0.242,0.627c-0.209,0.198-0.506,0.341-0.979,0.341
		C244.665,22.565,244.269,22.114,244.269,21.322z"/>
	<path fill="#FFFFFF" d="M250.374,22.433v-0.748c-0.407,0.462-1.1,0.88-1.892,0.88c-1.111,0-1.694-0.55-1.694-1.694V17.12h0.825
		v3.498c0,0.936,0.473,1.21,1.199,1.21c0.638,0,1.254-0.374,1.562-0.803V17.12h0.825v5.313H250.374z"/>
	<path fill="#FFFFFF" d="M252.299,22.433V17.12h0.825v0.847c0.429-0.55,1.045-0.968,1.771-0.968v0.847
		c-0.099-0.011-0.198-0.021-0.319-0.021c-0.517,0-1.21,0.418-1.452,0.847v3.763H252.299z"/>
	<path fill="#FFFFFF" d="M255.07,19.771c0-1.54,1.1-2.783,2.618-2.783c1.606,0,2.553,1.254,2.553,2.849v0.209h-4.291
		c0.066,1.002,0.759,1.838,1.903,1.838c0.616,0,1.221-0.242,1.65-0.683l0.396,0.539c-0.539,0.528-1.254,0.825-2.112,0.825
		C256.204,22.565,255.07,21.432,255.07,19.771z M257.678,17.669c-1.133,0-1.694,0.957-1.738,1.76h3.487
		C259.416,18.649,258.888,17.669,257.678,17.669z"/>
	<path fill="#FFFFFF" d="M264.146,21.63v2.827h-0.825V17.12h0.825v0.792c0.385-0.539,1.045-0.924,1.793-0.924
		c1.397,0,2.366,1.056,2.366,2.783c0,1.716-0.968,2.794-2.366,2.794C265.212,22.565,264.585,22.213,264.146,21.63z M267.435,19.771
		c0-1.178-0.638-2.047-1.706-2.047c-0.649,0-1.298,0.386-1.584,0.848v2.398c0.286,0.462,0.935,0.857,1.584,0.857
		C266.797,21.828,267.435,20.948,267.435,19.771z"/>
	<path fill="#FFFFFF" d="M268.754,19.771c0-1.54,1.012-2.783,2.629-2.783s2.629,1.243,2.629,2.783s-1.012,2.794-2.629,2.794
		S268.754,21.311,268.754,19.771z M273.144,19.771c0-1.078-0.627-2.047-1.76-2.047s-1.76,0.969-1.76,2.047
		c0,1.089,0.627,2.057,1.76,2.057S273.144,20.86,273.144,19.771z"/>
	<path fill="#FFFFFF" d="M278.391,22.433v-0.748c-0.407,0.462-1.101,0.88-1.893,0.88c-1.111,0-1.694-0.55-1.694-1.694V17.12h0.825
		v3.498c0,0.936,0.473,1.21,1.199,1.21c0.638,0,1.254-0.374,1.562-0.803V17.12h0.824v5.313H278.391z"/>
	<path fill="#FFFFFF" d="M280.315,22.433V17.12h0.825v0.847c0.429-0.55,1.045-0.968,1.771-0.968v0.847
		c-0.1-0.011-0.198-0.021-0.319-0.021c-0.518,0-1.21,0.418-1.452,0.847v3.763H280.315z"/>
	<path fill="#FFFFFF" d="M289.016,22.433v-0.605c-0.429,0.484-1.045,0.737-1.76,0.737c-0.892,0-1.849-0.604-1.849-1.76
		c0-1.199,0.946-1.75,1.849-1.75c0.726,0,1.331,0.231,1.76,0.716v-0.957c0-0.704-0.572-1.111-1.342-1.111
		c-0.639,0-1.155,0.22-1.629,0.737l-0.385-0.572c0.572-0.595,1.254-0.88,2.123-0.88c1.134,0,2.058,0.506,2.058,1.793v3.652H289.016z
		 M289.016,21.311v-1.013c-0.319-0.429-0.88-0.648-1.452-0.648c-0.781,0-1.32,0.483-1.32,1.155c0,0.682,0.539,1.166,1.32,1.166
		C288.136,21.971,288.697,21.751,289.016,21.311z"/>
	<path fill="#FFFFFF" d="M290.952,22.433v-7.338h0.825v7.338H290.952z"/>
	<path fill="#FFFFFF" d="M292.876,22.433v-7.338h0.826v7.338H292.876z"/>
	<path fill="#FFFFFF" d="M294.493,19.771c0-1.54,1.101-2.783,2.619-2.783c1.605,0,2.552,1.254,2.552,2.849v0.209h-4.29
		c0.065,1.002,0.759,1.838,1.903,1.838c0.616,0,1.221-0.242,1.65-0.683l0.396,0.539c-0.539,0.528-1.254,0.825-2.112,0.825
		C295.627,22.565,294.493,21.432,294.493,19.771z M297.101,17.669c-1.133,0-1.693,0.957-1.738,1.76h3.488
		C298.839,18.649,298.312,17.669,297.101,17.669z"/>
	<path fill="#FFFFFF" d="M300.445,22.433V17.12h0.825v0.847c0.429-0.55,1.045-0.968,1.771-0.968v0.847
		c-0.1-0.011-0.198-0.021-0.319-0.021c-0.518,0-1.21,0.418-1.452,0.847v3.763H300.445z"/>
	<path fill="#FFFFFF" d="M309.146,22.433v-0.605c-0.429,0.484-1.045,0.737-1.76,0.737c-0.892,0-1.849-0.604-1.849-1.76
		c0-1.199,0.946-1.75,1.849-1.75c0.726,0,1.331,0.231,1.76,0.716v-0.957c0-0.704-0.572-1.111-1.342-1.111
		c-0.639,0-1.155,0.22-1.629,0.737l-0.385-0.572c0.572-0.595,1.254-0.88,2.123-0.88c1.134,0,2.058,0.506,2.058,1.793v3.652H309.146z
		 M309.146,21.311v-1.013c-0.319-0.429-0.88-0.648-1.452-0.648c-0.781,0-1.32,0.483-1.32,1.155c0,0.682,0.539,1.166,1.32,1.166
		C308.266,21.971,308.826,21.751,309.146,21.311z"/>
	<path fill="#FFFFFF" d="M314.669,22.433v-0.748c-0.407,0.462-1.101,0.88-1.893,0.88c-1.111,0-1.694-0.55-1.694-1.694V17.12h0.825
		v3.498c0,0.936,0.473,1.21,1.199,1.21c0.638,0,1.254-0.374,1.562-0.803V17.12h0.824v5.313H314.669z"/>
	<path fill="#FFFFFF" d="M319.057,21.322v-3.477h-0.88V17.12h0.88v-1.452h0.836v1.452h1.078v0.726h-1.078v3.301
		c0,0.396,0.176,0.682,0.528,0.682c0.242,0,0.451-0.109,0.561-0.23l0.242,0.627c-0.209,0.198-0.506,0.341-0.979,0.341
		C319.452,22.565,319.057,22.114,319.057,21.322z"/>
	<path fill="#FFFFFF" d="M321.575,22.433V17.12h0.825v0.847c0.429-0.55,1.045-0.968,1.771-0.968v0.847
		c-0.1-0.011-0.198-0.021-0.319-0.021c-0.518,0-1.21,0.418-1.452,0.847v3.763H321.575z"/>
	<path fill="#FFFFFF" d="M327.978,22.433v-0.605c-0.429,0.484-1.045,0.737-1.76,0.737c-0.892,0-1.849-0.604-1.849-1.76
		c0-1.199,0.946-1.75,1.849-1.75c0.726,0,1.331,0.231,1.76,0.716v-0.957c0-0.704-0.572-1.111-1.342-1.111
		c-0.639,0-1.155,0.22-1.629,0.737l-0.385-0.572c0.572-0.595,1.254-0.88,2.123-0.88c1.134,0,2.058,0.506,2.058,1.793v3.652H327.978z
		 M327.978,21.311v-1.013c-0.319-0.429-0.88-0.648-1.452-0.648c-0.781,0-1.32,0.483-1.32,1.155c0,0.682,0.539,1.166,1.32,1.166
		C327.098,21.971,327.658,21.751,327.978,21.311z"/>
	<path fill="#FFFFFF" d="M331.332,22.433l-2.211-5.313h0.902l1.76,4.356l1.771-4.356h0.891l-2.211,5.313H331.332z"/>
	<path fill="#FFFFFF" d="M338.075,22.433v-0.605c-0.429,0.484-1.045,0.737-1.76,0.737c-0.892,0-1.849-0.604-1.849-1.76
		c0-1.199,0.946-1.75,1.849-1.75c0.726,0,1.331,0.231,1.76,0.716v-0.957c0-0.704-0.572-1.111-1.342-1.111
		c-0.639,0-1.155,0.22-1.629,0.737l-0.385-0.572c0.572-0.595,1.254-0.88,2.123-0.88c1.134,0,2.058,0.506,2.058,1.793v3.652H338.075z
		 M338.075,21.311v-1.013c-0.319-0.429-0.88-0.648-1.452-0.648c-0.781,0-1.32,0.483-1.32,1.155c0,0.682,0.539,1.166,1.32,1.166
		C337.195,21.971,337.756,21.751,338.075,21.311z"/>
	<path fill="#FFFFFF" d="M339.867,15.81c0-0.308,0.254-0.561,0.562-0.561s0.55,0.253,0.55,0.561c0,0.309-0.242,0.55-0.55,0.55
		S339.867,16.119,339.867,15.81z M340.011,22.433V17.12h0.825v5.313H340.011z"/>
	<path fill="#FFFFFF" d="M341.936,22.433v-7.338h0.825v7.338H341.936z"/>
</g>
<g>
	<g>
		<polygon fill="#FFFFFF" points="146.318,65.523 142.631,61.84 141.83,66.988 140.276,62.014 137.174,66.201 138.111,61.074 
			133.418,63.339 136.631,59.235 131.422,59.061 136.174,56.919 131.643,54.344 136.845,54.658 134.031,50.269 138.492,52.965 
			138.038,47.773 140.736,52.231 142.746,47.423 143.062,52.625 147.078,49.303 144.941,54.054 150.041,52.979 145.939,56.194 
			150.954,57.612 145.828,58.555 149.61,62.137 144.635,60.591 		"/>
	</g>
	<g>
		<g>
			<circle fill="#FFFFFF" cx="321.291" cy="52.577" r="4.369"/>
		</g>
		<g>
			<circle fill="#FFFFFF" cx="324.918" cy="54.245" r="3.434"/>
		</g>
		<g>
			<circle fill="#FFFFFF" cx="325.713" cy="51.449" r="2.418"/>
		</g>
		<g>
			<circle fill="#FFFFFF" cx="328.131" cy="54.274" r="2.824"/>
		</g>
		<g>
			<path fill="#FFFFFF" d="M311.67,53.993c0,1.812,1.472,3.289,3.288,3.289c1.815,0,3.287-1.477,3.287-3.289
				c0-1.817-1.472-3.287-3.287-3.287C313.142,50.706,311.67,52.176,311.67,53.993z"/>
		</g>
		<g>
			<circle fill="#FFFFFF" cx="317.488" cy="50.933" r="2.417"/>
		</g>
		<g>
			<circle fill="#FFFFFF" cx="318.148" cy="54.751" r="2.824"/>
		</g>
		<g>
			<line fill="#FFFFFF" x1="315.401" y1="59.368" x2="317.287" y2="57.194"/>
			<path fill="#FFFFFF" d="M315.401,59.586c-0.051,0-0.102-0.018-0.143-0.054c-0.091-0.078-0.101-0.216-0.021-0.307l1.886-2.174
				c0.078-0.093,0.217-0.102,0.307-0.021c0.091,0.078,0.101,0.216,0.021,0.307l-1.886,2.174
				C315.522,59.561,315.462,59.586,315.401,59.586z"/>
		</g>
		<g>
			<line fill="#FFFFFF" x1="318.752" y1="58.852" x2="320.637" y2="56.677"/>
			<path fill="#FFFFFF" d="M318.752,59.069c-0.051,0-0.102-0.018-0.143-0.054c-0.091-0.078-0.101-0.216-0.021-0.307l1.885-2.175
				c0.079-0.092,0.217-0.101,0.307-0.021c0.091,0.078,0.101,0.216,0.021,0.307l-1.885,2.175
				C318.873,59.044,318.812,59.069,318.752,59.069z"/>
		</g>
		<g>
			<line fill="#FFFFFF" x1="322.1" y1="58.335" x2="323.986" y2="56.159"/>
			<path fill="#FFFFFF" d="M322.1,58.553c-0.051,0-0.102-0.018-0.143-0.054c-0.091-0.078-0.101-0.216-0.021-0.307l1.887-2.176
				c0.078-0.092,0.217-0.102,0.307-0.021c0.091,0.078,0.101,0.216,0.021,0.307l-1.887,2.176
				C322.221,58.527,322.16,58.553,322.1,58.553z"/>
		</g>
		<g>
			<line fill="#FFFFFF" x1="323.182" y1="60.045" x2="325.067" y2="57.869"/>
			<path fill="#FFFFFF" d="M323.182,60.263c-0.051,0-0.102-0.018-0.143-0.054c-0.091-0.078-0.101-0.216-0.021-0.307l1.886-2.176
				c0.078-0.092,0.217-0.101,0.307-0.021c0.091,0.078,0.101,0.216,0.021,0.307l-1.886,2.176
				C323.303,60.237,323.242,60.263,323.182,60.263z"/>
		</g>
		<g>
			<line fill="#FFFFFF" x1="324.343" y1="61.874" x2="326.229" y2="59.698"/>
			<path fill="#FFFFFF" d="M324.343,62.092c-0.051,0-0.102-0.018-0.143-0.054c-0.091-0.078-0.101-0.216-0.021-0.307l1.886-2.176
				c0.079-0.092,0.216-0.102,0.307-0.021c0.091,0.078,0.101,0.216,0.021,0.307l-1.886,2.176
				C324.464,62.066,324.403,62.092,324.343,62.092z"/>
		</g>
		<g>
			<line fill="#FFFFFF" x1="315.401" y1="62.829" x2="317.287" y2="60.655"/>
			<path fill="#FFFFFF" d="M315.401,63.047c-0.051,0-0.102-0.018-0.143-0.054c-0.091-0.078-0.101-0.216-0.021-0.307l1.886-2.174
				c0.078-0.092,0.217-0.102,0.307-0.021c0.091,0.078,0.101,0.216,0.021,0.307l-1.886,2.174
				C315.522,63.021,315.462,63.047,315.401,63.047z"/>
		</g>
		<g>
			<line fill="#FFFFFF" x1="314.793" y1="66.204" x2="316.682" y2="64.027"/>
			<path fill="#FFFFFF" d="M314.793,66.422c-0.051,0-0.102-0.018-0.143-0.054c-0.091-0.078-0.101-0.216-0.021-0.307l1.889-2.177
				c0.078-0.092,0.216-0.102,0.307-0.021c0.091,0.078,0.101,0.216,0.021,0.307l-1.889,2.177
				C314.914,66.396,314.854,66.422,314.793,66.422z"/>
		</g>
		<g>
			<line fill="#FFFFFF" x1="319.867" y1="64.309" x2="321.753" y2="62.136"/>
			<path fill="#FFFFFF" d="M319.867,64.526c-0.051,0-0.102-0.018-0.143-0.054c-0.091-0.078-0.101-0.216-0.021-0.307l1.886-2.173
				c0.078-0.092,0.216-0.102,0.307-0.021c0.091,0.078,0.101,0.216,0.021,0.307l-1.886,2.173
				C319.988,64.501,319.928,64.526,319.867,64.526z"/>
		</g>
		<g>
			<line fill="#FFFFFF" x1="318.439" y1="62.005" x2="320.324" y2="59.831"/>
			<path fill="#FFFFFF" d="M318.439,62.223c-0.051,0-0.102-0.018-0.143-0.054c-0.091-0.078-0.101-0.216-0.021-0.307l1.885-2.174
				c0.078-0.092,0.217-0.102,0.307-0.021c0.091,0.078,0.101,0.216,0.021,0.307l-1.885,2.174
				C318.561,62.197,318.5,62.223,318.439,62.223z"/>
		</g>
	</g>
	<g>
		<path fill="#FFFFFF" d="M165.716,53.231l-4.279-5.853v5.853h-0.914v-7.338h0.936l4.225,5.731v-5.731h0.913v7.338H165.716z"/>
		<path fill="#FFFFFF" d="M167.42,50.569c0-1.54,1.012-2.783,2.629-2.783s2.629,1.243,2.629,2.783s-1.012,2.794-2.629,2.794
			S167.42,52.109,167.42,50.569z M171.81,50.569c0-1.078-0.627-2.047-1.76-2.047s-1.76,0.969-1.76,2.047
			c0,1.089,0.627,2.057,1.76,2.057S171.81,51.658,171.81,50.569z"/>
		<path fill="#FFFFFF" d="M179.884,53.231v-3.608c0-0.671-0.286-1.101-0.979-1.101c-0.55,0-1.133,0.386-1.408,0.814v3.895h-0.825
			v-3.608c0-0.671-0.275-1.101-0.979-1.101c-0.539,0-1.111,0.396-1.397,0.825v3.884h-0.825v-5.313h0.825v0.77
			c0.231-0.341,0.935-0.901,1.727-0.901c0.803,0,1.265,0.439,1.419,0.989c0.297-0.483,1.012-0.989,1.782-0.989
			c0.968,0,1.485,0.539,1.485,1.605v3.84H179.884z"/>
		<path fill="#FFFFFF" d="M181.808,53.231v-7.338h0.825v2.827c0.429-0.583,1.078-0.935,1.793-0.935c1.397,0,2.366,1.089,2.366,2.794
			c0,1.728-0.979,2.783-2.366,2.783c-0.748,0-1.397-0.385-1.793-0.924v0.792H181.808z M184.229,52.626
			c1.067,0,1.705-0.869,1.705-2.046s-0.638-2.058-1.705-2.058c-0.66,0-1.31,0.396-1.595,0.858v2.409
			C182.919,52.252,183.568,52.626,184.229,52.626z"/>
		<path fill="#FFFFFF" d="M187.583,53.231v-5.313h0.825v0.847c0.429-0.55,1.045-0.968,1.771-0.968v0.847
			c-0.099-0.011-0.198-0.021-0.319-0.021c-0.517,0-1.21,0.418-1.452,0.847v3.763H187.583z"/>
		<path fill="#FFFFFF" d="M190.355,50.569c0-1.54,1.1-2.783,2.618-2.783c1.606,0,2.553,1.254,2.553,2.849v0.209h-4.291
			c0.066,1.002,0.759,1.838,1.903,1.838c0.616,0,1.221-0.242,1.65-0.683l0.396,0.539c-0.539,0.528-1.254,0.825-2.112,0.825
			C191.488,53.363,190.355,52.23,190.355,50.569z M192.962,48.468c-1.133,0-1.694,0.957-1.738,1.76h3.487
			C194.701,49.447,194.172,48.468,192.962,48.468z"/>
		<path fill="#FFFFFF" d="M202.455,53.231v-0.792c-0.396,0.539-1.045,0.924-1.793,0.924c-1.386,0-2.365-1.056-2.365-2.783
			c0-1.705,0.979-2.794,2.365-2.794c0.715,0,1.364,0.352,1.793,0.935v-2.827h0.825v7.338H202.455z M202.455,51.779v-2.398
			c-0.286-0.462-0.935-0.858-1.584-0.858c-1.078,0-1.716,0.881-1.716,2.058s0.638,2.046,1.716,2.046
			C201.52,52.626,202.169,52.241,202.455,51.779z"/>
		<path fill="#FFFFFF" d="M204.071,50.569c0-1.54,1.101-2.783,2.618-2.783c1.606,0,2.553,1.254,2.553,2.849v0.209h-4.291
			c0.066,1.002,0.76,1.838,1.903,1.838c0.616,0,1.222-0.242,1.65-0.683l0.396,0.539c-0.539,0.528-1.255,0.825-2.112,0.825
			C205.204,53.363,204.071,52.23,204.071,50.569z M206.679,48.468c-1.133,0-1.694,0.957-1.738,1.76h3.487
			C208.417,49.447,207.889,48.468,206.679,48.468z"/>
		<path fill="#FFFFFF" d="M210.418,54.991l0.286-0.615c0.187,0.187,0.429,0.33,0.759,0.33c0.495,0,0.858-0.286,0.858-0.958v-5.83
			h0.825v5.83c0,1.046-0.55,1.64-1.573,1.64C211.034,55.388,210.748,55.256,210.418,54.991z M212.178,46.608
			c0-0.308,0.254-0.561,0.562-0.561s0.55,0.253,0.55,0.561c0,0.309-0.242,0.55-0.55,0.55S212.178,46.917,212.178,46.608z"/>
		<path fill="#FFFFFF" d="M213.938,50.569c0-1.54,1.013-2.783,2.63-2.783s2.629,1.243,2.629,2.783s-1.012,2.794-2.629,2.794
			S213.938,52.109,213.938,50.569z M218.327,50.569c0-1.078-0.627-2.047-1.76-2.047s-1.761,0.969-1.761,2.047
			c0,1.089,0.628,2.057,1.761,2.057S218.327,51.658,218.327,50.569z"/>
		<path fill="#FFFFFF" d="M223.575,53.231v-0.748c-0.407,0.462-1.101,0.88-1.893,0.88c-1.111,0-1.694-0.55-1.694-1.694v-3.751h0.825
			v3.498c0,0.936,0.473,1.21,1.199,1.21c0.638,0,1.254-0.374,1.562-0.803v-3.905h0.824v5.313H223.575z"/>
		<path fill="#FFFFFF" d="M225.499,53.231v-5.313h0.825v0.847c0.429-0.55,1.045-0.968,1.771-0.968v0.847
			c-0.1-0.011-0.198-0.021-0.319-0.021c-0.518,0-1.21,0.418-1.452,0.847v3.763H225.499z"/>
		<path fill="#FFFFFF" d="M228.128,52.527l0.418-0.594c0.353,0.406,1.023,0.759,1.749,0.759c0.814,0,1.266-0.385,1.266-0.913
			c0-1.287-3.29-0.495-3.29-2.465c0-0.836,0.704-1.528,1.97-1.528c0.913,0,1.551,0.341,1.97,0.77l-0.386,0.572
			c-0.318-0.385-0.891-0.671-1.584-0.671c-0.726,0-1.177,0.362-1.177,0.836c0,1.155,3.289,0.396,3.289,2.464
			c0,0.892-0.715,1.606-2.079,1.606C229.394,53.363,228.667,53.089,228.128,52.527z"/>
		<path fill="#FFFFFF" d="M164.341,66.432V65.64c-0.396,0.539-1.045,0.924-1.793,0.924c-1.386,0-2.365-1.056-2.365-2.783
			c0-1.705,0.979-2.794,2.365-2.794c0.715,0,1.364,0.352,1.793,0.935v-2.827h0.825v7.338H164.341z M164.341,64.979v-2.398
			c-0.286-0.462-0.935-0.858-1.584-0.858c-1.078,0-1.716,0.881-1.716,2.058s0.638,2.046,1.716,2.046
			C163.406,65.826,164.055,65.441,164.341,64.979z"/>
		<path fill="#FFFFFF" d="M166.485,61.48l-0.418-0.341c0.352-0.23,0.671-0.671,0.715-1.022c-0.022,0.011-0.099,0.021-0.154,0.021
			c-0.297,0-0.528-0.242-0.528-0.561c0-0.319,0.253-0.595,0.583-0.595c0.374,0,0.693,0.297,0.693,0.836
			C167.376,60.491,166.991,61.118,166.485,61.48z"/>
		<path fill="#FFFFFF" d="M167.937,63.77c0-1.54,1.1-2.783,2.618-2.783c1.606,0,2.553,1.254,2.553,2.849v0.209h-4.291
			c0.066,1.002,0.759,1.838,1.903,1.838c0.616,0,1.221-0.242,1.65-0.683l0.396,0.539c-0.539,0.528-1.254,0.825-2.112,0.825
			C169.07,66.563,167.937,65.431,167.937,63.77z M170.544,61.668c-1.133,0-1.694,0.957-1.738,1.76h3.487
			C172.283,62.647,171.754,61.668,170.544,61.668z"/>
		<path fill="#FFFFFF" d="M177.486,66.432v-3.477c0-0.946-0.484-1.232-1.199-1.232c-0.649,0-1.254,0.396-1.573,0.825v3.884h-0.825
			v-5.313h0.825v0.77c0.374-0.451,1.1-0.901,1.903-0.901c1.1,0,1.683,0.561,1.683,1.716v3.729H177.486z"/>
		<path fill="#FFFFFF" d="M178.958,65.728l0.418-0.594c0.352,0.406,1.023,0.759,1.75,0.759c0.814,0,1.265-0.385,1.265-0.913
			c0-1.287-3.29-0.495-3.29-2.465c0-0.836,0.704-1.528,1.969-1.528c0.913,0,1.551,0.341,1.969,0.77l-0.385,0.572
			c-0.319-0.385-0.891-0.671-1.584-0.671c-0.726,0-1.177,0.362-1.177,0.836c0,1.155,3.29,0.396,3.29,2.464
			c0,0.892-0.715,1.606-2.079,1.606C180.224,66.563,179.498,66.289,178.958,65.728z"/>
		<path fill="#FFFFFF" d="M183.667,63.77c0-1.54,1.012-2.783,2.629-2.783s2.629,1.243,2.629,2.783s-1.012,2.794-2.629,2.794
			S183.667,65.31,183.667,63.77z M188.056,63.77c0-1.078-0.627-2.047-1.76-2.047s-1.76,0.969-1.76,2.047
			c0,1.089,0.627,2.057,1.76,2.057S188.056,64.858,188.056,63.77z"/>
		<path fill="#FFFFFF" d="M189.717,66.432v-7.338h0.825v7.338H189.717z"/>
		<path fill="#FFFFFF" d="M191.333,63.77c0-1.54,1.1-2.783,2.618-2.783c1.606,0,2.553,1.254,2.553,2.849v0.209h-4.291
			c0.066,1.002,0.759,1.838,1.903,1.838c0.616,0,1.221-0.242,1.65-0.683l0.396,0.539c-0.539,0.528-1.254,0.825-2.112,0.825
			C192.467,66.563,191.333,65.431,191.333,63.77z M193.941,61.668c-1.133,0-1.694,0.957-1.738,1.76h3.487
			C195.679,62.647,195.151,61.668,193.941,61.668z"/>
		<path fill="#FFFFFF" d="M197.142,59.809c0-0.308,0.253-0.561,0.561-0.561s0.55,0.253,0.55,0.561c0,0.309-0.242,0.55-0.55,0.55
			S197.142,60.117,197.142,59.809z M197.285,66.432v-5.313h0.825v5.313H197.285z"/>
		<path fill="#FFFFFF" d="M199.209,66.432v-7.338h0.825v7.338H199.209z"/>
		<path fill="#FFFFFF" d="M201.134,66.432v-7.338h0.825v7.338H201.134z"/>
		<path fill="#FFFFFF" d="M202.751,63.77c0-1.54,1.1-2.783,2.618-2.783c1.606,0,2.553,1.254,2.553,2.849v0.209h-4.291
			c0.066,1.002,0.759,1.838,1.903,1.838c0.616,0,1.222-0.242,1.65-0.683l0.396,0.539c-0.539,0.528-1.255,0.825-2.112,0.825
			C203.884,66.563,202.751,65.431,202.751,63.77z M205.358,61.668c-1.133,0-1.694,0.957-1.738,1.76h3.487
			C207.097,62.647,206.568,61.668,205.358,61.668z"/>
		<path fill="#FFFFFF" d="M215.116,66.432v-3.608c0-0.671-0.286-1.101-0.979-1.101c-0.55,0-1.133,0.386-1.408,0.814v3.895h-0.825
			v-3.608c0-0.671-0.274-1.101-0.979-1.101c-0.539,0-1.111,0.396-1.397,0.825v3.884h-0.825v-5.313h0.825v0.77
			c0.23-0.341,0.935-0.901,1.728-0.901c0.803,0,1.265,0.439,1.419,0.989c0.297-0.483,1.012-0.989,1.782-0.989
			c0.968,0,1.485,0.539,1.485,1.605v3.84H215.116z"/>
		<path fill="#FFFFFF" d="M216.731,63.77c0-1.54,1.101-2.783,2.619-2.783c1.605,0,2.552,1.254,2.552,2.849v0.209h-4.29
			c0.065,1.002,0.759,1.838,1.903,1.838c0.616,0,1.221-0.242,1.65-0.683l0.396,0.539c-0.539,0.528-1.254,0.825-2.112,0.825
			C217.865,66.563,216.731,65.431,216.731,63.77z M219.339,61.668c-1.133,0-1.693,0.957-1.738,1.76h3.488
			C221.077,62.647,220.55,61.668,219.339,61.668z"/>
		<path fill="#FFFFFF" d="M226.28,66.432v-3.477c0-0.946-0.484-1.232-1.199-1.232c-0.649,0-1.254,0.396-1.573,0.825v3.884h-0.825
			v-5.313h0.825v0.77c0.374-0.451,1.1-0.901,1.903-0.901c1.1,0,1.683,0.561,1.683,1.716v3.729H226.28z"/>
		<path fill="#FFFFFF" d="M228.37,65.32v-3.477h-0.88v-0.726h0.88v-1.452h0.836v1.452h1.078v0.726h-1.078v3.301
			c0,0.396,0.176,0.682,0.528,0.682c0.242,0,0.451-0.109,0.561-0.23l0.242,0.627c-0.209,0.198-0.506,0.341-0.979,0.341
			C228.766,66.563,228.37,66.112,228.37,65.32z"/>
		<path fill="#FFFFFF" d="M234.013,65.629v2.827h-0.825v-7.338h0.825v0.792c0.385-0.539,1.045-0.924,1.793-0.924
			c1.397,0,2.365,1.056,2.365,2.783c0,1.716-0.968,2.794-2.365,2.794C235.08,66.563,234.452,66.212,234.013,65.629z M237.302,63.77
			c0-1.178-0.638-2.047-1.705-2.047c-0.649,0-1.298,0.386-1.584,0.848v2.398c0.286,0.462,0.935,0.857,1.584,0.857
			C236.664,65.826,237.302,64.946,237.302,63.77z"/>
		<path fill="#FFFFFF" d="M242.252,66.432v-0.605c-0.429,0.484-1.045,0.737-1.76,0.737c-0.892,0-1.849-0.604-1.849-1.76
			c0-1.199,0.946-1.75,1.849-1.75c0.726,0,1.331,0.231,1.76,0.716v-0.957c0-0.704-0.572-1.111-1.342-1.111
			c-0.639,0-1.155,0.22-1.629,0.737l-0.385-0.572c0.572-0.595,1.254-0.88,2.123-0.88c1.134,0,2.058,0.506,2.058,1.793v3.652H242.252
			z M242.252,65.31v-1.013c-0.319-0.429-0.88-0.648-1.452-0.648c-0.781,0-1.32,0.483-1.32,1.155c0,0.682,0.539,1.166,1.32,1.166
			C241.372,65.97,241.933,65.75,242.252,65.31z"/>
		<path fill="#FFFFFF" d="M244.188,66.432v-5.313h0.825v0.847c0.429-0.55,1.045-0.968,1.771-0.968v0.847
			c-0.1-0.011-0.198-0.021-0.319-0.021c-0.518,0-1.21,0.418-1.452,0.847v3.763H244.188z"/>
		<path fill="#FFFFFF" d="M252.889,66.432v-0.605c-0.429,0.484-1.045,0.737-1.76,0.737c-0.892,0-1.849-0.604-1.849-1.76
			c0-1.199,0.946-1.75,1.849-1.75c0.726,0,1.331,0.231,1.76,0.716v-0.957c0-0.704-0.572-1.111-1.342-1.111
			c-0.639,0-1.155,0.22-1.629,0.737l-0.385-0.572c0.572-0.595,1.254-0.88,2.123-0.88c1.134,0,2.058,0.506,2.058,1.793v3.652H252.889
			z M252.889,65.31v-1.013c-0.319-0.429-0.88-0.648-1.452-0.648c-0.781,0-1.32,0.483-1.32,1.155c0,0.682,0.539,1.166,1.32,1.166
			C252.009,65.97,252.569,65.75,252.889,65.31z"/>
		<path fill="#FFFFFF" d="M258.422,66.432v-3.477c0-0.946-0.484-1.232-1.199-1.232c-0.649,0-1.254,0.396-1.573,0.825v3.884h-0.825
			v-5.313h0.825v0.77c0.374-0.451,1.1-0.901,1.903-0.901c1.1,0,1.683,0.561,1.683,1.716v3.729H258.422z"/>
	</g>
	<g>
		<path fill="#FFFFFF" d="M347.874,53.231l-4.279-5.853v5.853h-0.913v-7.338h0.935l4.225,5.731v-5.731h0.913v7.338H347.874z"/>
		<path fill="#FFFFFF" d="M349.578,50.569c0-1.54,1.013-2.783,2.63-2.783s2.629,1.243,2.629,2.783s-1.012,2.794-2.629,2.794
			S349.578,52.109,349.578,50.569z M353.968,50.569c0-1.078-0.627-2.047-1.76-2.047s-1.761,0.969-1.761,2.047
			c0,1.089,0.628,2.057,1.761,2.057S353.968,51.658,353.968,50.569z"/>
		<path fill="#FFFFFF" d="M362.042,53.231v-3.608c0-0.671-0.286-1.101-0.979-1.101c-0.55,0-1.133,0.386-1.408,0.814v3.895h-0.825
			v-3.608c0-0.671-0.274-1.101-0.979-1.101c-0.539,0-1.111,0.396-1.397,0.825v3.884h-0.825v-5.313h0.825v0.77
			c0.23-0.341,0.935-0.901,1.728-0.901c0.803,0,1.265,0.439,1.419,0.989c0.297-0.483,1.012-0.989,1.782-0.989
			c0.968,0,1.485,0.539,1.485,1.605v3.84H362.042z"/>
		<path fill="#FFFFFF" d="M363.966,53.231v-7.338h0.825v2.827c0.429-0.583,1.078-0.935,1.793-0.935c1.397,0,2.365,1.089,2.365,2.794
			c0,1.728-0.979,2.783-2.365,2.783c-0.748,0-1.397-0.385-1.793-0.924v0.792H363.966z M366.386,52.626
			c1.067,0,1.706-0.869,1.706-2.046s-0.639-2.058-1.706-2.058c-0.66,0-1.309,0.396-1.595,0.858v2.409
			C365.077,52.252,365.726,52.626,366.386,52.626z"/>
		<path fill="#FFFFFF" d="M369.741,53.231v-5.313h0.825v0.847c0.429-0.55,1.045-0.968,1.771-0.968v0.847
			c-0.1-0.011-0.198-0.021-0.319-0.021c-0.518,0-1.21,0.418-1.452,0.847v3.763H369.741z"/>
		<path fill="#FFFFFF" d="M372.513,50.569c0-1.54,1.101-2.783,2.619-2.783c1.605,0,2.552,1.254,2.552,2.849v0.209h-4.29
			c0.065,1.002,0.759,1.838,1.903,1.838c0.616,0,1.221-0.242,1.65-0.683l0.396,0.539c-0.539,0.528-1.254,0.825-2.112,0.825
			C373.646,53.363,372.513,52.23,372.513,50.569z M375.12,48.468c-1.133,0-1.693,0.957-1.738,1.76h3.488
			C376.858,49.447,376.331,48.468,375.12,48.468z"/>
		<path fill="#FFFFFF" d="M384.613,53.231v-0.792c-0.396,0.539-1.045,0.924-1.793,0.924c-1.387,0-2.366-1.056-2.366-2.783
			c0-1.705,0.979-2.794,2.366-2.794c0.715,0,1.364,0.352,1.793,0.935v-2.827h0.825v7.338H384.613z M384.613,51.779v-2.398
			c-0.286-0.462-0.936-0.858-1.584-0.858c-1.078,0-1.717,0.881-1.717,2.058s0.639,2.046,1.717,2.046
			C383.678,52.626,384.327,52.241,384.613,51.779z"/>
		<path fill="#FFFFFF" d="M386.229,50.569c0-1.54,1.101-2.783,2.619-2.783c1.605,0,2.552,1.254,2.552,2.849v0.209h-4.29
			c0.065,1.002,0.759,1.838,1.903,1.838c0.616,0,1.221-0.242,1.65-0.683l0.396,0.539c-0.539,0.528-1.254,0.825-2.112,0.825
			C387.363,53.363,386.229,52.23,386.229,50.569z M388.837,48.468c-1.133,0-1.693,0.957-1.738,1.76h3.488
			C390.575,49.447,390.048,48.468,388.837,48.468z"/>
		<path fill="#FFFFFF" d="M392.576,54.991l0.286-0.615c0.187,0.187,0.429,0.33,0.759,0.33c0.495,0,0.858-0.286,0.858-0.958v-5.83
			h0.825v5.83c0,1.046-0.55,1.64-1.573,1.64C393.192,55.388,392.906,55.256,392.576,54.991z M394.336,46.608
			c0-0.308,0.254-0.561,0.562-0.561s0.55,0.253,0.55,0.561c0,0.309-0.242,0.55-0.55,0.55S394.336,46.917,394.336,46.608z"/>
		<path fill="#FFFFFF" d="M396.096,50.569c0-1.54,1.013-2.783,2.63-2.783s2.629,1.243,2.629,2.783s-1.012,2.794-2.629,2.794
			S396.096,52.109,396.096,50.569z M400.485,50.569c0-1.078-0.627-2.047-1.76-2.047s-1.761,0.969-1.761,2.047
			c0,1.089,0.628,2.057,1.761,2.057S400.485,51.658,400.485,50.569z"/>
		<path fill="#FFFFFF" d="M405.733,53.231v-0.748c-0.407,0.462-1.101,0.88-1.893,0.88c-1.111,0-1.694-0.55-1.694-1.694v-3.751h0.825
			v3.498c0,0.936,0.473,1.21,1.199,1.21c0.638,0,1.254-0.374,1.562-0.803v-3.905h0.824v5.313H405.733z"/>
		<path fill="#FFFFFF" d="M407.657,53.231v-5.313h0.825v0.847c0.429-0.55,1.045-0.968,1.771-0.968v0.847
			c-0.1-0.011-0.198-0.021-0.319-0.021c-0.518,0-1.21,0.418-1.452,0.847v3.763H407.657z"/>
		<path fill="#FFFFFF" d="M410.286,52.527l0.418-0.594c0.353,0.406,1.023,0.759,1.749,0.759c0.814,0,1.266-0.385,1.266-0.913
			c0-1.287-3.29-0.495-3.29-2.465c0-0.836,0.704-1.528,1.97-1.528c0.913,0,1.551,0.341,1.97,0.77l-0.386,0.572
			c-0.318-0.385-0.891-0.671-1.584-0.671c-0.726,0-1.177,0.362-1.177,0.836c0,1.155,3.289,0.396,3.289,2.464
			c0,0.892-0.715,1.606-2.079,1.606C411.552,53.363,410.825,53.089,410.286,52.527z"/>
		<path fill="#FFFFFF" d="M421.451,53.231v-0.792c-0.396,0.539-1.045,0.924-1.793,0.924c-1.387,0-2.366-1.056-2.366-2.783
			c0-1.705,0.979-2.794,2.366-2.794c0.715,0,1.364,0.352,1.793,0.935v-2.827h0.825v7.338H421.451z M421.451,51.779v-2.398
			c-0.286-0.462-0.936-0.858-1.584-0.858c-1.078,0-1.717,0.881-1.717,2.058s0.639,2.046,1.717,2.046
			C420.516,52.626,421.165,52.241,421.451,51.779z"/>
		<path fill="#FFFFFF" d="M423.067,50.569c0-1.54,1.101-2.783,2.619-2.783c1.605,0,2.552,1.254,2.552,2.849v0.209h-4.29
			c0.065,1.002,0.759,1.838,1.903,1.838c0.616,0,1.221-0.242,1.65-0.683l0.396,0.539c-0.539,0.528-1.254,0.825-2.112,0.825
			C424.201,53.363,423.067,52.23,423.067,50.569z M425.675,48.468c-1.133,0-1.693,0.957-1.738,1.76h3.488
			C427.413,49.447,426.886,48.468,425.675,48.468z"/>
		<path fill="#FFFFFF" d="M343.474,65.629v2.827h-0.825v-7.338h0.825v0.792c0.385-0.539,1.045-0.924,1.793-0.924
			c1.397,0,2.365,1.056,2.365,2.783c0,1.716-0.968,2.794-2.365,2.794C344.541,66.563,343.913,66.212,343.474,65.629z M346.763,63.77
			c0-1.178-0.638-2.047-1.705-2.047c-0.649,0-1.298,0.386-1.584,0.848v2.398c0.286,0.462,0.935,0.857,1.584,0.857
			C346.125,65.826,346.763,64.946,346.763,63.77z"/>
		<path fill="#FFFFFF" d="M348.391,66.432v-7.338h0.825v7.338H348.391z"/>
		<path fill="#FFFFFF" d="M353.902,66.432v-0.748c-0.407,0.462-1.101,0.88-1.893,0.88c-1.111,0-1.694-0.55-1.694-1.694v-3.751h0.825
			v3.498c0,0.936,0.473,1.21,1.199,1.21c0.638,0,1.254-0.374,1.562-0.803v-3.905h0.824v5.313H353.902z"/>
		<path fill="#FFFFFF" d="M355.683,59.809c0-0.308,0.254-0.561,0.562-0.561s0.55,0.253,0.55,0.561c0,0.309-0.242,0.55-0.55,0.55
			S355.683,60.117,355.683,59.809z M355.826,66.432v-5.313h0.825v5.313H355.826z"/>
		<path fill="#FFFFFF" d="M357.442,63.77c0-1.54,1.101-2.783,2.619-2.783c1.605,0,2.552,1.254,2.552,2.849v0.209h-4.29
			c0.065,1.002,0.759,1.838,1.903,1.838c0.616,0,1.221-0.242,1.65-0.683l0.396,0.539c-0.539,0.528-1.254,0.825-2.112,0.825
			C358.576,66.563,357.442,65.431,357.442,63.77z M360.05,61.668c-1.133,0-1.693,0.957-1.738,1.76h3.488
			C361.788,62.647,361.261,61.668,360.05,61.668z"/>
		<path fill="#FFFFFF" d="M366.518,65.629v2.827h-0.825v-7.338h0.825v0.792c0.385-0.539,1.045-0.924,1.793-0.924
			c1.397,0,2.365,1.056,2.365,2.783c0,1.716-0.968,2.794-2.365,2.794C367.585,66.563,366.957,66.212,366.518,65.629z M369.807,63.77
			c0-1.178-0.638-2.047-1.705-2.047c-0.649,0-1.298,0.386-1.584,0.848v2.398c0.286,0.462,0.935,0.857,1.584,0.857
			C369.169,65.826,369.807,64.946,369.807,63.77z"/>
		<path fill="#FFFFFF" d="M374.757,66.432v-0.605c-0.429,0.484-1.045,0.737-1.76,0.737c-0.892,0-1.849-0.604-1.849-1.76
			c0-1.199,0.946-1.75,1.849-1.75c0.726,0,1.331,0.231,1.76,0.716v-0.957c0-0.704-0.572-1.111-1.342-1.111
			c-0.639,0-1.155,0.22-1.629,0.737l-0.385-0.572c0.572-0.595,1.254-0.88,2.123-0.88c1.134,0,2.058,0.506,2.058,1.793v3.652H374.757
			z M374.757,65.31v-1.013c-0.319-0.429-0.88-0.648-1.452-0.648c-0.781,0-1.32,0.483-1.32,1.155c0,0.682,0.539,1.166,1.32,1.166
			C373.877,65.97,374.438,65.75,374.757,65.31z"/>
		<path fill="#FFFFFF" d="M376.692,66.432v-5.313h0.825v0.847c0.429-0.55,1.045-0.968,1.771-0.968v0.847
			c-0.1-0.011-0.198-0.021-0.319-0.021c-0.518,0-1.21,0.418-1.452,0.847v3.763H376.692z"/>
		<path fill="#FFFFFF" d="M385.394,66.432v-0.605c-0.429,0.484-1.045,0.737-1.76,0.737c-0.892,0-1.849-0.604-1.849-1.76
			c0-1.199,0.946-1.75,1.849-1.75c0.726,0,1.331,0.231,1.76,0.716v-0.957c0-0.704-0.572-1.111-1.342-1.111
			c-0.639,0-1.155,0.22-1.629,0.737l-0.385-0.572c0.572-0.595,1.254-0.88,2.123-0.88c1.134,0,2.058,0.506,2.058,1.793v3.652H385.394
			z M385.394,65.31v-1.013c-0.319-0.429-0.88-0.648-1.452-0.648c-0.781,0-1.32,0.483-1.32,1.155c0,0.682,0.539,1.166,1.32,1.166
			C384.514,65.97,385.074,65.75,385.394,65.31z"/>
		<path fill="#FFFFFF" d="M390.927,66.432v-3.477c0-0.946-0.484-1.232-1.199-1.232c-0.649,0-1.254,0.396-1.573,0.825v3.884h-0.825
			v-5.313h0.825v0.77c0.374-0.451,1.1-0.901,1.903-0.901c1.1,0,1.683,0.561,1.683,1.716v3.729H390.927z"/>
	</g>
</g>
</svg>
