<?xml version="1.0" encoding="utf-8"?>
<!-- Generator: Adobe Illustrator 16.0.0, SVG Export Plug-In . SVG Version: 6.00 Build 0)  -->
<!DOCTYPE svg PUBLIC "-//W3C//DTD SVG 1.1//EN" "http://www.w3.org/Graphics/SVG/1.1/DTD/svg11.dtd">
<svg version="1.1" id="Calque_1" xmlns="http://www.w3.org/2000/svg" xmlns:xlink="http://www.w3.org/1999/xlink" x="0px" y="0px"
	 width="30px" height="30px" viewBox="0 0 30 30" enable-background="new 0 0 30 30" xml:space="preserve">
<g>
	<g>
		<path fill="#FFFFFF" d="M17.646,18.808c-1.424,0-2.76-0.554-3.766-1.56c-1.006-1.005-1.56-2.342-1.56-3.764s0.554-2.76,1.56-3.766
			c1.004-1.006,2.341-1.56,3.764-1.56s2.761,0.554,3.767,1.56c2.075,2.076,2.075,5.453,0,7.528
			C20.405,18.254,19.068,18.808,17.646,18.808z M17.646,9.16c-1.155,0-2.241,0.45-3.058,1.267c-0.816,0.817-1.267,1.902-1.267,3.059
			c0,1.154,0.45,2.239,1.267,3.057c0.816,0.816,1.902,1.267,3.059,1.267c1.153,0,2.239-0.449,3.058-1.267
			c1.686-1.685,1.686-4.428,0-6.114C19.887,9.61,18.801,9.16,17.646,9.16z"/>
	</g>
	<g>
		<line fill="none" x1="14.235" y1="16.895" x2="7.526" y2="23.604"/>
		
			<rect x="10.381" y="15.499" transform="matrix(-0.7071 -0.7071 0.7071 -0.7071 4.2611 42.2513)" fill="#FFFFFF" width="1" height="9.488"/>
	</g>
</g>
<g>
	<path fill="#FFFFFF" d="M24.151,28.663H5.844c-1.863,0-3.378-1.516-3.378-3.378V6.978c0-1.862,1.515-3.378,3.378-3.378h18.308
		c1.861,0,3.378,1.516,3.378,3.378v18.308C27.529,27.147,26.014,28.663,24.151,28.663z M5.845,4.601
		c-1.311,0-2.378,1.067-2.378,2.378v18.308c0,1.312,1.067,2.378,2.378,2.378h18.307c1.312,0,2.378-1.066,2.378-2.378V6.979
		c0-1.311-1.066-2.378-2.378-2.378H5.845z"/>
</g>
</svg>
