<?xml version="1.0" encoding="utf-8"?>
<!-- Generator: Adobe Illustrator 16.0.0, SVG Export Plug-In . SVG Version: 6.00 Build 0)  -->
<!DOCTYPE svg PUBLIC "-//W3C//DTD SVG 1.1//EN" "http://www.w3.org/Graphics/SVG/1.1/DTD/svg11.dtd">
<svg version="1.1" id="Calque_1" xmlns="http://www.w3.org/2000/svg" xmlns:xlink="http://www.w3.org/1999/xlink" x="0px" y="0px"
	 width="70px" height="70px" viewBox="0 0 70 70" enable-background="new 0 0 70 70" xml:space="preserve">
<g>
	<g>
		<circle fill="#FFFFFF" cx="35.783" cy="20.716" r="13.593"/>
	</g>
	<g>
		<circle fill="#FFFFFF" cx="47.071" cy="25.901" r="10.682"/>
	</g>
	<g>
		<circle fill="#FFFFFF" cx="49.544" cy="17.21" r="7.523"/>
	</g>
	<g>
		<circle fill="#FFFFFF" cx="57.067" cy="25.995" r="8.785"/>
	</g>
	<g>
		<circle fill="#FFFFFF" cx="16.082" cy="25.12" r="10.229"/>
	</g>
	<g>
		<circle fill="#FFFFFF" cx="23.954" cy="15.603" r="7.522"/>
	</g>
	<g>
		<circle fill="#FFFFFF" cx="26.008" cy="27.479" r="8.785"/>
	</g>
	<g>
		<line fill="none" x1="17.459" y1="41.846" x2="23.326" y2="35.076"/>
		<path fill="#FFFFFF" d="M17.458,42.522c-0.157,0-0.315-0.055-0.443-0.165c-0.283-0.245-0.313-0.674-0.068-0.955l5.867-6.771
			c0.244-0.282,0.671-0.312,0.955-0.067c0.283,0.244,0.313,0.673,0.068,0.954l-5.867,6.771
			C17.837,42.443,17.648,42.522,17.458,42.522z"/>
	</g>
	<g>
		<line fill="none" x1="27.88" y1="40.236" x2="33.748" y2="33.468"/>
		<path fill="#FFFFFF" d="M27.879,40.913c-0.157,0-0.315-0.054-0.443-0.165c-0.283-0.245-0.313-0.673-0.068-0.955l5.868-6.769
			c0.246-0.283,0.673-0.312,0.955-0.068c0.282,0.245,0.312,0.673,0.067,0.955l-5.868,6.769
			C28.257,40.834,28.069,40.913,27.879,40.913z"/>
	</g>
	<g>
		<line fill="none" x1="38.302" y1="38.629" x2="44.17" y2="31.859"/>
		<path fill="#FFFFFF" d="M38.302,39.306c-0.157,0-0.314-0.054-0.442-0.165c-0.282-0.244-0.313-0.673-0.068-0.955l5.868-6.77
			c0.245-0.283,0.673-0.312,0.955-0.068c0.282,0.245,0.312,0.674,0.067,0.955l-5.867,6.771
			C38.68,39.227,38.491,39.306,38.302,39.306z"/>
	</g>
	<g>
		<line fill="none" x1="41.667" y1="43.953" x2="47.536" y2="37.182"/>
		<path fill="#FFFFFF" d="M41.667,44.63c-0.157,0-0.315-0.054-0.443-0.165c-0.281-0.245-0.312-0.673-0.067-0.955l5.869-6.771
			c0.243-0.282,0.673-0.313,0.955-0.068c0.281,0.245,0.312,0.673,0.067,0.955l-5.869,6.771C42.045,44.551,41.856,44.63,41.667,44.63
			z"/>
	</g>
	<g>
		<line fill="none" x1="45.277" y1="49.641" x2="51.145" y2="42.87"/>
		<path fill="#FFFFFF" d="M45.277,50.317c-0.157,0-0.315-0.055-0.443-0.165c-0.282-0.245-0.312-0.674-0.068-0.955l5.867-6.771
			c0.245-0.282,0.673-0.312,0.955-0.067c0.282,0.244,0.313,0.673,0.068,0.954l-5.867,6.771
			C45.655,50.238,45.467,50.317,45.277,50.317z"/>
	</g>
	<g>
		<line fill="none" x1="17.459" y1="52.614" x2="23.326" y2="45.844"/>
		<path fill="#FFFFFF" d="M17.458,53.291c-0.157,0-0.315-0.054-0.443-0.165c-0.283-0.245-0.313-0.673-0.068-0.955l5.867-6.771
			c0.244-0.281,0.671-0.314,0.955-0.068c0.283,0.245,0.313,0.673,0.068,0.955l-5.867,6.771
			C17.837,53.212,17.648,53.291,17.458,53.291z"/>
	</g>
	<g>
		<line fill="none" x1="15.571" y1="63.109" x2="21.44" y2="56.34"/>
		<path fill="#FFFFFF" d="M15.571,63.786c-0.157,0-0.315-0.054-0.443-0.165c-0.283-0.245-0.313-0.673-0.068-0.955l5.869-6.77
			c0.246-0.282,0.673-0.314,0.955-0.068c0.283,0.245,0.313,0.673,0.068,0.955l-5.869,6.77C15.949,63.707,15.76,63.786,15.571,63.786
			z"/>
	</g>
	<g>
		<line fill="none" x1="31.354" y1="57.218" x2="37.22" y2="50.448"/>
		<path fill="#FFFFFF" d="M31.353,57.895c-0.156,0-0.314-0.054-0.442-0.164c-0.283-0.245-0.313-0.674-0.068-0.955l5.866-6.771
			c0.244-0.281,0.673-0.313,0.955-0.067c0.282,0.244,0.312,0.673,0.068,0.954l-5.866,6.771
			C31.731,57.815,31.543,57.895,31.353,57.895z"/>
	</g>
	<g>
		<line fill="none" x1="26.913" y1="50.051" x2="32.78" y2="43.281"/>
		<path fill="#FFFFFF" d="M26.913,50.728c-0.157,0-0.315-0.054-0.443-0.165c-0.283-0.244-0.313-0.673-0.068-0.954l5.867-6.771
			c0.244-0.282,0.673-0.313,0.955-0.068c0.283,0.245,0.313,0.674,0.068,0.955l-5.867,6.771
			C27.291,50.648,27.103,50.728,26.913,50.728z"/>
	</g>
</g>
</svg>
