<?xml version="1.0" encoding="utf-8"?>
<!-- Generator: Adobe Illustrator 16.0.0, SVG Export Plug-In . SVG Version: 6.00 Build 0)  -->
<!DOCTYPE svg PUBLIC "-//W3C//DTD SVG 1.1//EN" "http://www.w3.org/Graphics/SVG/1.1/DTD/svg11.dtd">
<svg version="1.1" id="Calque_1" xmlns="http://www.w3.org/2000/svg" xmlns:xlink="http://www.w3.org/1999/xlink" x="0px" y="0px"
	 width="40px" height="50px" viewBox="0 0 40 50" enable-background="new 0 0 40 50" xml:space="preserve">
<path fill="#FFFFFF" d="M34.227,11.553c-1.023-2.984-3.242-6.229-14.256-6.229l0,0c-11.013,0-13.229,3.244-14.256,6.229
	C4.69,14.547,3.666,25.214,3.666,25.214s0,8.45,0,11.95c0,2.469,1.608,2.937,2.56,3.004v3.053c0,1.275,1.017,2.31,2.269,2.31H9
	c1.251,0,2.267-1.033,2.267-2.31v-3.067h8.705l0,0h8.705v3.067c0,1.275,1.019,2.31,2.271,2.31h0.502c1.253,0,2.267-1.033,2.267-2.31
	v-3.053c0.949-0.067,2.561-0.535,2.561-3.004c0-3.5,0-11.95,0-11.95S35.25,14.547,34.227,11.553z M12.288,7.543h15.366
	c0.611,0,1.107,0.417,1.107,0.938c0,0.52-0.496,0.939-1.107,0.939H12.288c-0.612,0-1.11-0.421-1.11-0.939
	C11.178,7.96,11.676,7.543,12.288,7.543z M8.789,35.117c-1.416,0-2.563-1.146-2.563-2.562c0-1.417,1.147-2.559,2.563-2.559
	c1.414,0,2.561,1.142,2.561,2.559C11.35,33.971,10.203,35.117,8.789,35.117z M8.617,24.448c-2.389,0-1.794-2.479-1.794-2.479
	s0.686-5.209,1.11-8.194c0.429-2.987,1.794-2.647,1.794-2.647H19.97h10.243c0,0,1.366-0.34,1.792,2.647
	c0.426,2.985,1.108,8.194,1.108,8.194s0.598,2.479-1.792,2.479c-2.389,0-11.353,0-11.353,0S11.008,24.448,8.617,24.448z
	 M31.154,35.117c-1.415,0-2.564-1.146-2.564-2.562c0-1.417,1.149-2.559,2.564-2.559c1.413,0,2.558,1.142,2.558,2.559
	C33.712,33.971,32.567,35.117,31.154,35.117z"/>
</svg>
