<?xml version="1.0" encoding="utf-8"?>
<!-- Generator: Adobe Illustrator 16.0.0, SVG Export Plug-In . SVG Version: 6.00 Build 0)  -->
<!DOCTYPE svg PUBLIC "-//W3C//DTD SVG 1.1//EN" "http://www.w3.org/Graphics/SVG/1.1/DTD/svg11.dtd">
<svg version="1.1" id="Calque_1" xmlns="http://www.w3.org/2000/svg" xmlns:xlink="http://www.w3.org/1999/xlink" x="0px" y="0px"
	 width="40px" height="30px" viewBox="0 0 40 30" enable-background="new 0 0 40 30" xml:space="preserve">
<path fill="#FFFFFF" d="M36.679,23.265v-4.433c0,0,0-0.651-0.218-0.869c0.607-1.823-0.608-4.562-0.608-4.562
	s-0.882-1.488-1.972-3.312c0.024,0.007,0.05,0.009,0.072,0.009h1.929c0.177,0,0.322-0.167,0.322-0.375V8.523
	c0-0.21-0.146-0.381-0.322-0.381h-1.929c-0.177,0-0.322,0.171-0.322,0.381v1.146c-1.316-2.206-2.854-4.764-3.516-5.785
	C28.856,1.93,27.029,2.06,27.029,2.06h-6.64h-6.64c0,0-1.827-0.13-3.086,1.824c-0.662,1.021-2.195,3.579-3.516,5.785V8.523
	c0-0.21-0.146-0.381-0.32-0.381H4.896c-0.176,0-0.322,0.171-0.322,0.381v1.199c0,0.208,0.146,0.375,0.322,0.375h1.932
	c0.021,0,0.045-0.002,0.07-0.009c-1.091,1.824-1.971,3.312-1.971,3.312s-1.216,2.737-0.607,4.562
	c-0.219,0.218-0.219,0.869-0.219,0.869v4.433c0,0-0.103,0.622,0.809,0.757v3.285c0,0.761,0.701,1.377,1.565,1.377h1.232
	c0.864,0,1.562-0.616,1.562-1.377v-3.259c4.508,0,11.117,0,11.117,0s6.609,0,11.116,0v3.259c0,0.761,0.699,1.377,1.565,1.377h1.229
	c0.867,0,1.565-0.616,1.565-1.377v-3.285C36.778,23.887,36.679,23.265,36.679,23.265z M8.562,19.124
	c-1.297,0-2.348-1.052-2.348-2.35c0-1.293,1.051-2.349,2.348-2.349c1.296,0,2.348,1.056,2.348,2.349
	C10.91,18.072,9.858,19.124,8.562,19.124z M10.098,9.506c0,0,1.682-3.652,2.26-4.694c0.577-1.041,2.666-0.984,2.666-0.984h5.366
	h5.366c0,0,2.088-0.057,2.667,0.984c0.58,1.042,2.259,4.694,2.259,4.694H20.39H10.098z M32.217,19.124
	c-1.296,0-2.347-1.052-2.347-2.35c0-1.293,1.051-2.349,2.347-2.349s2.347,1.056,2.347,2.349
	C34.562,18.072,33.513,19.124,32.217,19.124z"/>
</svg>
