<?xml version="1.0" encoding="UTF-8" standalone="no"?>
<!-- Created with Inkscape (http://www.inkscape.org/) -->

<svg
   xmlns:dc="http://purl.org/dc/elements/1.1/"
   xmlns:cc="http://creativecommons.org/ns#"
   xmlns:rdf="http://www.w3.org/1999/02/22-rdf-syntax-ns#"
   xmlns:svg="http://www.w3.org/2000/svg"
   xmlns="http://www.w3.org/2000/svg"
   xmlns:sodipodi="http://sodipodi.sourceforge.net/DTD/sodipodi-0.dtd"
   xmlns:inkscape="http://www.inkscape.org/namespaces/inkscape"
   width="90"
   height="10"
   id="svg3635"
   version="1.1"
   inkscape:version="0.48.3.1 r9886"
   sodipodi:docname="legende_bleue.svg">
  <defs
     id="defs3637" />
  <sodipodi:namedview
     id="base"
     pagecolor="#ffffff"
     bordercolor="#666666"
     borderopacity="1.0"
     inkscape:pageopacity="0.0"
     inkscape:pageshadow="2"
     inkscape:zoom="5.6"
     inkscape:cx="40.706426"
     inkscape:cy="15.321003"
     inkscape:document-units="px"
     inkscape:current-layer="layer1"
     showgrid="false"
     inkscape:window-width="1600"
     inkscape:window-height="854"
     inkscape:window-x="0"
     inkscape:window-y="24"
     inkscape:window-maximized="1" />
  <metadata
     id="metadata3640">
    <rdf:RDF>
      <cc:Work
         rdf:about="">
        <dc:format>image/svg+xml</dc:format>
        <dc:type
           rdf:resource="http://purl.org/dc/dcmitype/StillImage" />
      </cc:Work>
    </rdf:RDF>
  </metadata>
  <g
     inkscape:label="Calque 1"
     inkscape:groupmode="layer"
     id="layer1"
     transform="translate(0,-1042.3622)">
    <line
       style="fill:none;stroke:#6cc4cb;stroke-miterlimit:10"
       stroke-miterlimit="10"
       x1="4.1600561"
       y1="1047.7122"
       x2="85.160065"
       y2="1047.7122"
       id="line38" />
    <circle
       transform="translate(-390.83993,395.21221)"
       style="fill:#fff3d2;stroke:#6cc4cb;stroke-width:0.91799998;stroke-miterlimit:10"
       sodipodi:ry="2.3"
       sodipodi:rx="2.3"
       sodipodi:cy="652.5"
       sodipodi:cx="395.89999"
       stroke-miterlimit="10"
       cx="395.89999"
       cy="652.5"
       r="2.3"
       id="circle46"
       d="m 398.19999,652.5 c 0,1.27025 -1.02974,2.3 -2.3,2.3 -1.27025,0 -2.3,-1.02975 -2.3,-2.3 0,-1.27025 1.02975,-2.3 2.3,-2.3 1.27026,0 2.3,1.02975 2.3,2.3 z" />
    <circle
       transform="translate(-390.83993,395.21221)"
       style="fill:#fff3d2;stroke:#6cc4cb;stroke-width:0.91799998;stroke-miterlimit:10"
       sodipodi:ry="2.3"
       sodipodi:rx="2.3"
       sodipodi:cy="652.5"
       sodipodi:cx="435.29999"
       stroke-miterlimit="10"
       cx="435.29999"
       cy="652.5"
       r="2.3"
       id="circle48"
       d="m 437.59999,652.5 c 0,1.27025 -1.02975,2.3 -2.3,2.3 -1.27026,0 -2.3,-1.02975 -2.3,-2.3 0,-1.27025 1.02974,-2.3 2.3,-2.3 1.27025,0 2.3,1.02975 2.3,2.3 z" />
    <circle
       transform="translate(-390.83993,395.21221)"
       style="fill:#fff3d2;stroke:#6cc4cb;stroke-width:0.91799998;stroke-miterlimit:10"
       sodipodi:ry="2.3"
       sodipodi:rx="2.3"
       sodipodi:cy="652.5"
       sodipodi:cx="475.70001"
       stroke-miterlimit="10"
       cx="475.70001"
       cy="652.5"
       r="2.3"
       id="circle50"
       d="m 478.00001,652.5 c 0,1.27025 -1.02974,2.3 -2.3,2.3 -1.27025,0 -2.3,-1.02975 -2.3,-2.3 0,-1.27025 1.02975,-2.3 2.3,-2.3 1.27026,0 2.3,1.02975 2.3,2.3 z" />
  </g>
</svg>
