<?xml version="1.0" encoding="UTF-8" standalone="no"?>
<!-- Created with Inkscape (http://www.inkscape.org/) -->

<svg
   xmlns:dc="http://purl.org/dc/elements/1.1/"
   xmlns:cc="http://creativecommons.org/ns#"
   xmlns:rdf="http://www.w3.org/1999/02/22-rdf-syntax-ns#"
   xmlns:svg="http://www.w3.org/2000/svg"
   xmlns="http://www.w3.org/2000/svg"
   xmlns:sodipodi="http://sodipodi.sourceforge.net/DTD/sodipodi-0.dtd"
   xmlns:inkscape="http://www.inkscape.org/namespaces/inkscape"
   width="410"
   height="20"
   id="svg3296"
   version="1.1"
   inkscape:version="0.48.3.1 r9886"
   sodipodi:docname="Nouveau document 2">
  <defs
     id="defs3298" />
  <sodipodi:namedview
     id="base"
     pagecolor="#ffffff"
     bordercolor="#666666"
     borderopacity="1.0"
     inkscape:pageopacity="0.0"
     inkscape:pageshadow="2"
     inkscape:zoom="0.98994949"
     inkscape:cx="217.52156"
     inkscape:cy="160.83472"
     inkscape:document-units="px"
     inkscape:current-layer="layer1"
     showgrid="false"
     inkscape:window-width="1600"
     inkscape:window-height="854"
     inkscape:window-x="0"
     inkscape:window-y="24"
     inkscape:window-maximized="1" />
  <metadata
     id="metadata3301">
    <rdf:RDF>
      <cc:Work
         rdf:about="">
        <dc:format>image/svg+xml</dc:format>
        <dc:type
           rdf:resource="http://purl.org/dc/dcmitype/StillImage" />
        <dc:title></dc:title>
      </cc:Work>
    </rdf:RDF>
  </metadata>
  <g
     inkscape:label="Calque 1"
     inkscape:groupmode="layer"
     id="layer1"
     transform="translate(0,-1032.3622)">
    <g
       transform="translate(-517.51549,703.95323)"
       id="Graphisme">
      <line
         style="fill:none;stroke:#fac768;stroke-width:2;stroke-miterlimit:10"
         stroke-miterlimit="10"
         x1="535.20001"
         y1="338"
         x2="907.29999"
         y2="338"
         id="line295" />
      <path
         style="fill:#b11b4a"
         inkscape:connector-curvature="0"
         d="m 523.1,339.8 c 0.1,-0.5 0.3,-1 0.5,-1.6 0.2,-0.5 0.5,-1.1 0.8,-1.6 0.3,-0.5 0.7,-1.1 1,-1.6 0.4,-0.5 0.8,-1 1.2,-1.5 0.4,-0.5 0.9,-0.9 1.3,-1.4 0.5,-0.4 0.9,-0.8 1.4,-1.2 0.2,-0.1 0.4,-0.2 0.6,-0.3 0.2,0 0.4,-0.1 0.6,-0.1 0.2,0 0.4,0 0.6,0.1 0.2,0.1 0.3,0.2 0.5,0.4 0.1,0.1 0.1,0.1 0.2,0.2 0.1,0 0.1,0.1 0.2,0.1 0,0 0,0 0.1,0 0.1,0 0,-0.1 0.1,-0.1 0.1,0 0.1,-0.1 0.1,-0.1 0,0 0.1,-0.1 0.1,-0.1 0.1,-0.1 0.3,-0.1 0.4,-0.1 0.2,0 0.3,0 0.5,0 0.3,0 0.6,0.1 0.9,0.2 0.3,0.1 0.5,0.3 0.8,0.5 0.5,0.5 0.9,1.1 1.2,1.7 0.3,0.7 0.4,1.4 0.4,2.2 0,0.7 -0.1,1.4 -0.3,2.2 -0.2,0.7 -0.4,1.4 -0.8,2.1 -0.3,0.7 -0.7,1.3 -1.2,1.9 -0.4,0.6 -0.9,1.1 -1.5,1.6 -0.6,0.5 -1.1,0.9 -1.7,1.2 -0.6,0.3 -1.3,0.6 -1.9,0.8 -0.6,0.2 -1.4,0.3 -2,0.3 -0.6,0 -1.2,-0.1 -1.7,-0.3 -0.5,-0.2 -0.9,-0.5 -1.3,-0.8 -0.4,-0.3 -0.6,-0.8 -0.8,-1.3 -0.2,-0.5 -0.3,-1 -0.3,-1.6 0,-0.3 0,-0.5 0,-0.8 0,-0.3 0,-0.8 0,-1 z m 1.8,0.7 c -0.1,0.3 -0.1,0.6 -0.1,0.9 0,0.4 0.1,0.7 0.2,1 0.1,0.3 0.3,0.5 0.6,0.7 0.3,0.2 0.5,0.3 0.9,0.4 0.4,0.1 0.7,0.1 1.1,0.1 0.5,0 1,-0.1 1.4,-0.2 0.5,-0.1 1,-0.4 1.4,-0.7 0.5,-0.3 0.9,-0.6 1.4,-1 0.4,-0.4 0.8,-0.9 1.2,-1.4 0.4,-0.5 0.7,-1.1 1,-1.7 0.3,-0.6 0.5,-1.2 0.7,-1.9 0.1,-0.2 0.1,-0.5 0.1,-0.8 0,-0.3 0,-0.5 0,-0.8 0,-0.4 0,-0.8 -0.1,-1.1 -0.1,-0.4 -0.2,-0.7 -0.4,-1 -0.2,-0.3 -0.5,-0.5 -0.8,-0.7 -0.3,-0.2 -0.7,-0.2 -1.2,-0.2 -0.1,0 -0.1,0 -0.2,0.1 0,0.1 -0.1,0.1 -0.1,0.2 0,0.1 -0.1,0.2 -0.1,0.2 0,0.1 -0.1,0.2 -0.2,0.2 -0.1,0.1 -0.2,0.1 -0.3,0.2 -0.1,0 -0.2,0.1 -0.4,0.1 -0.1,0 -0.2,0 -0.3,-0.1 -0.1,-0.1 -0.2,-0.1 -0.3,-0.2 0,0 -0.1,-0.1 -0.1,-0.1 0,0 -0.1,0 -0.1,0 -0.1,0 -0.1,0 -0.2,0.1 -0.1,0.1 -0.2,0.1 -0.3,0.2 -0.1,0.1 -0.2,0.2 -0.3,0.2 -0.1,0.1 -0.2,0.2 -0.2,0.2 -0.5,0.5 -0.9,1 -1.4,1.6 -0.5,0.6 -0.9,1.1 -1.3,1.7 -0.4,0.6 -0.7,1.2 -1,1.8 -0.3,0.6 -0.5,1.4 -0.6,2 z"
         id="path297" />
      <path
         style="fill:#b11b4a"
         inkscape:connector-curvature="0"
         d="m 905.7,339.8 c 0.1,-0.5 0.3,-1 0.5,-1.6 0.2,-0.5 0.5,-1.1 0.8,-1.6 0.3,-0.5 0.7,-1.1 1,-1.6 0.4,-0.5 0.8,-1 1.2,-1.5 0.4,-0.5 0.9,-0.9 1.3,-1.4 0.5,-0.4 0.9,-0.8 1.4,-1.2 0.2,-0.1 0.4,-0.2 0.6,-0.3 0.2,0 0.4,-0.1 0.6,-0.1 0.2,0 0.4,0 0.6,0.1 0.2,0.1 0.3,0.2 0.5,0.4 0.1,0.1 0.1,0.1 0.2,0.2 0.1,0 0.1,0.1 0.2,0.1 0,0 0,0 0.1,0 0,0 0,-0.1 0.1,-0.1 0,0 0.1,-0.1 0.1,-0.1 0,0 0.1,-0.1 0.1,-0.1 0.1,-0.1 0.3,-0.1 0.4,-0.1 0.2,0 0.3,0 0.5,0 0.3,0 0.6,0.1 0.9,0.2 0.3,0.1 0.5,0.3 0.8,0.5 0.5,0.5 0.9,1.1 1.2,1.7 0.3,0.7 0.4,1.4 0.4,2.2 0,0.7 -0.1,1.4 -0.3,2.2 -0.2,0.7 -0.4,1.4 -0.8,2.1 -0.3,0.7 -0.7,1.3 -1.2,1.9 -0.4,0.6 -0.9,1.1 -1.5,1.6 -0.6,0.5 -1.1,0.9 -1.7,1.2 -0.6,0.3 -1.3,0.6 -1.9,0.8 -0.7,0.2 -1.4,0.3 -2,0.3 -0.6,0 -1.2,-0.1 -1.7,-0.3 -0.5,-0.2 -0.9,-0.5 -1.3,-0.8 -0.4,-0.3 -0.6,-0.8 -0.8,-1.3 -0.2,-0.5 -0.3,-1 -0.3,-1.6 0,-0.3 0,-0.5 0,-0.8 0,-0.3 -0.1,-0.8 0,-1 z m 1.7,0.7 c -0.1,0.3 -0.1,0.6 -0.1,0.9 0,0.4 0.1,0.7 0.2,1 0.1,0.3 0.3,0.5 0.6,0.7 0.3,0.2 0.5,0.3 0.9,0.4 0.4,0.1 0.7,0.1 1.1,0.1 0.5,0 1,-0.1 1.4,-0.2 0.5,-0.1 1,-0.4 1.4,-0.7 0.5,-0.3 0.9,-0.6 1.4,-1 0.4,-0.4 0.8,-0.9 1.2,-1.4 0.4,-0.5 0.7,-1.1 1,-1.7 0.3,-0.6 0.5,-1.2 0.7,-1.9 0.1,-0.2 0.1,-0.5 0.1,-0.8 0,-0.3 0,-0.5 0,-0.8 0,-0.4 0,-0.8 -0.1,-1.1 -0.1,-0.4 -0.2,-0.7 -0.4,-1 -0.2,-0.3 -0.5,-0.5 -0.8,-0.7 -0.3,-0.2 -0.7,-0.2 -1.2,-0.2 -0.1,0 -0.1,0 -0.2,0.1 0,0.1 -0.1,0.1 -0.1,0.2 0,0.1 -0.1,0.2 -0.1,0.2 0,0.1 -0.1,0.2 -0.2,0.2 -0.1,0.1 -0.2,0.1 -0.3,0.2 -0.1,0 -0.2,0.1 -0.4,0.1 -0.1,0 -0.2,0 -0.3,-0.1 -0.1,-0.1 -0.2,-0.1 -0.3,-0.2 0,0 -0.1,-0.1 -0.1,-0.1 0,0 -0.1,0 -0.1,0 -0.1,0 -0.1,0 -0.2,0.1 -0.1,0.1 -0.2,0.1 -0.3,0.2 -0.1,0.1 -0.2,0.2 -0.3,0.2 -0.1,0.1 -0.2,0.2 -0.2,0.2 -0.5,0.5 -0.9,1 -1.4,1.6 -0.5,0.6 -0.9,1.1 -1.3,1.7 -0.4,0.6 -0.7,1.2 -1,1.8 -0.3,0.6 -0.5,1.4 -0.6,2 z"
         id="path299" />
    </g>
  </g>
</svg>
