<?xml version="1.0" encoding="utf-8"?>
<!-- Generator: Adobe Illustrator 16.0.0, SVG Export Plug-In . SVG Version: 6.00 Build 0)  -->
<!DOCTYPE svg PUBLIC "-//W3C//DTD SVG 1.1//EN" "http://www.w3.org/Graphics/SVG/1.1/DTD/svg11.dtd">
<svg version="1.1" id="Calque_1" xmlns="http://www.w3.org/2000/svg" xmlns:xlink="http://www.w3.org/1999/xlink" x="0px" y="0px"
	 width="135px" height="25px" viewBox="0 0 135 25" enable-background="new 0 0 135 25" xml:space="preserve">
<g>
	<g>
		<path fill="#FFFFFF" d="M132.931,19.16c0,2.339-2.544,4.233-5.684,4.233H7.451c-3.141,0-5.687-1.895-5.687-4.233V5.627
			c0-2.337,2.546-4.232,5.687-4.232h119.796c3.14,0,5.684,1.896,5.684,4.232V19.16z"/>
	</g>
	<g>
		<path fill="#13B5D0" d="M11.921,12.095c0-2.872,2.114-4.833,4.804-4.833c1.653,0,2.802,0.784,3.544,1.849l-0.966,0.547
			c-0.532-0.799-1.513-1.359-2.578-1.359c-2.045,0-3.6,1.556-3.6,3.797c0,2.212,1.555,3.795,3.6,3.795
			c1.065,0,2.046-0.574,2.578-1.359l0.98,0.532c-0.785,1.079-1.905,1.863-3.559,1.863C14.036,16.927,11.921,14.966,11.921,12.095z"
			/>
		<path fill="#13B5D0" d="M20.628,13.369c0-1.96,1.289-3.543,3.348-3.543c2.06,0,3.348,1.583,3.348,3.543
			c0,1.961-1.288,3.558-3.348,3.558C21.917,16.927,20.628,15.33,20.628,13.369z M26.217,13.369c0-1.373-0.798-2.605-2.241-2.605
			c-1.442,0-2.241,1.232-2.241,2.605c0,1.387,0.799,2.619,2.241,2.619C25.419,15.988,26.217,14.756,26.217,13.369z"/>
		<path fill="#13B5D0" d="M36.496,16.759v-4.594c0-0.854-0.364-1.4-1.246-1.4c-0.701,0-1.443,0.49-1.793,1.036v4.958h-1.051v-4.594
			c0-0.854-0.351-1.4-1.247-1.4c-0.687,0-1.414,0.504-1.778,1.051v4.944H28.33V9.994h1.051v0.98c0.294-0.435,1.19-1.148,2.199-1.148
			c1.022,0,1.61,0.561,1.807,1.261c0.378-0.616,1.288-1.261,2.27-1.261c1.232,0,1.891,0.687,1.891,2.045v4.888H36.496z"/>
		<path fill="#13B5D0" d="M39.992,15.736v3.6h-1.051V9.994h1.051v1.009c0.49-0.687,1.33-1.177,2.283-1.177
			c1.778,0,3.011,1.345,3.011,3.543c0,2.185-1.232,3.558-3.011,3.558C41.35,16.927,40.551,16.479,39.992,15.736z M44.179,13.369
			c0-1.499-0.812-2.605-2.171-2.605c-0.826,0-1.652,0.49-2.017,1.078v3.053c0.364,0.589,1.19,1.093,2.017,1.093
			C43.367,15.988,44.179,14.868,44.179,13.369z"/>
		<path fill="#13B5D0" d="M50.479,16.759v-0.771c-0.547,0.616-1.331,0.938-2.241,0.938c-1.135,0-2.354-0.771-2.354-2.241
			c0-1.526,1.204-2.227,2.354-2.227c0.924,0,1.694,0.295,2.241,0.911v-1.218c0-0.896-0.729-1.415-1.709-1.415
			c-0.812,0-1.471,0.28-2.073,0.938l-0.49-0.729c0.729-0.756,1.597-1.12,2.703-1.12c1.442,0,2.619,0.645,2.619,2.283v4.65H50.479z
			 M50.479,15.33v-1.289c-0.406-0.546-1.121-0.826-1.85-0.826c-0.994,0-1.681,0.616-1.681,1.471c0,0.868,0.687,1.485,1.681,1.485
			C49.358,16.171,50.073,15.891,50.479,15.33z"/>
		<path fill="#13B5D0" d="M52.941,16.759V9.994h1.051v1.078c0.546-0.7,1.33-1.232,2.255-1.232v1.079
			c-0.126-0.015-0.252-0.028-0.406-0.028c-0.658,0-1.541,0.532-1.849,1.078v4.791H52.941z"/>
		<path fill="#13B5D0" d="M56.468,13.369c0-1.96,1.401-3.543,3.334-3.543c2.045,0,3.25,1.597,3.25,3.627v0.266h-5.463
			c0.084,1.275,0.966,2.34,2.423,2.34c0.784,0,1.555-0.309,2.102-0.868l0.504,0.686c-0.687,0.673-1.597,1.051-2.689,1.051
			C57.912,16.927,56.468,15.484,56.468,13.369z M59.789,10.694c-1.443,0-2.157,1.219-2.214,2.241h4.44
			C62.001,11.941,61.329,10.694,59.789,10.694z"/>
		<path fill="#13B5D0" d="M63.72,16.759v-0.826l3.726-5.014H63.72V9.994h5.098v0.799l-3.753,5.042h3.809v0.925H63.72z"/>
		<path fill="#13B5D0" d="M74.683,16.759l-2.815-6.765h1.148l2.241,5.546l2.256-5.546h1.134l-2.815,6.765H74.683z"/>
		<path fill="#13B5D0" d="M78.643,13.369c0-1.96,1.289-3.543,3.348-3.543c2.06,0,3.348,1.583,3.348,3.543
			c0,1.961-1.288,3.558-3.348,3.558C79.932,16.927,78.643,15.33,78.643,13.369z M84.231,13.369c0-1.373-0.798-2.605-2.241-2.605
			c-1.442,0-2.241,1.232-2.241,2.605c0,1.387,0.799,2.619,2.241,2.619C83.434,15.988,84.231,14.756,84.231,13.369z"/>
		<path fill="#13B5D0" d="M86.554,15.344v-4.425h-1.121V9.994h1.121V8.145h1.064v1.849h1.373v0.925h-1.373v4.202
			c0,0.504,0.225,0.868,0.673,0.868c0.308,0,0.574-0.14,0.714-0.294l0.309,0.798c-0.267,0.253-0.645,0.435-1.247,0.435
			C87.058,16.927,86.554,16.353,86.554,15.344z"/>
		<path fill="#13B5D0" d="M89.76,16.759V9.994h1.051v1.078c0.546-0.7,1.33-1.232,2.255-1.232v1.079
			c-0.126-0.015-0.252-0.028-0.406-0.028c-0.658,0-1.541,0.532-1.849,1.078v4.791H89.76z"/>
		<path fill="#13B5D0" d="M93.286,13.369c0-1.96,1.401-3.543,3.334-3.543c2.045,0,3.25,1.597,3.25,3.627v0.266h-5.463
			c0.084,1.275,0.966,2.34,2.423,2.34c0.784,0,1.555-0.309,2.102-0.868l0.504,0.686c-0.687,0.673-1.597,1.051-2.689,1.051
			C94.729,16.927,93.286,15.484,93.286,13.369z M96.606,10.694c-1.443,0-2.157,1.219-2.214,2.241h4.44
			C98.819,11.941,98.146,10.694,96.606,10.694z"/>
		<path fill="#13B5D0" d="M105.594,16.759l-2.815-6.765h1.148l2.241,5.546l2.256-5.546h1.134l-2.815,6.765H105.594z"/>
		<path fill="#13B5D0" d="M109.764,8.327c0-0.393,0.322-0.714,0.715-0.714c0.392,0,0.7,0.321,0.7,0.714s-0.309,0.7-0.7,0.7
			C110.086,9.027,109.764,8.719,109.764,8.327z M109.946,16.759V9.994h1.051v6.765H109.946z"/>
		<path fill="#13B5D0" d="M112.396,16.759V7.417h1.051v9.342H112.396z"/>
		<path fill="#13B5D0" d="M114.847,16.759V7.417h1.051v9.342H114.847z"/>
		<path fill="#13B5D0" d="M116.903,13.369c0-1.96,1.401-3.543,3.334-3.543c2.045,0,3.25,1.597,3.25,3.627v0.266h-5.463
			c0.084,1.275,0.966,2.34,2.423,2.34c0.784,0,1.555-0.309,2.102-0.868l0.504,0.686c-0.687,0.673-1.597,1.051-2.689,1.051
			C118.347,16.927,116.903,15.484,116.903,13.369z M120.224,10.694c-1.443,0-2.157,1.219-2.214,2.241h4.44
			C122.437,11.941,121.764,10.694,120.224,10.694z"/>
	</g>
</g>
</svg>
