<?xml version="1.0" encoding="utf-8"?>
<!-- Generator: Adobe Illustrator 16.0.0, SVG Export Plug-In . SVG Version: 6.00 Build 0)  -->
<!DOCTYPE svg PUBLIC "-//W3C//DTD SVG 1.1//EN" "http://www.w3.org/Graphics/SVG/1.1/DTD/svg11.dtd">
<svg version="1.1" xmlns="http://www.w3.org/2000/svg" xmlns:xlink="http://www.w3.org/1999/xlink" x="0px" y="0px"
	 width="92.172px" height="101.754px" viewBox="-2.171 -14.836 92.172 101.754"
	 enable-background="new -2.171 -14.836 92.172 101.754" xml:space="preserve">
<g id="Layer_1" display="none">
	<g id="Layer_2" display="inline">
		<path fill="#3FA9F5" d="M20.568,26.995h48.848l-5.191-11.294c0,0-1.582-2.491-6.31-2.491c-4.729,0-27.68-0.521-29.465,0.552
			s-2.28,1.961-2.911,3.225C24.906,18.25,20.568,26.995,20.568,26.995z"/>
		<circle fill="#3FA9F5" cx="17.147" cy="43.641" r="5.831"/>
		<circle fill="#3FA9F5" cx="73.292" cy="43.668" r="5.804"/>
	</g>
	<g id="Layer_1_1_" display="inline">
		<g>
			<path fill="#13B5D0" stroke="#FFFFFF" stroke-miterlimit="10" d="M73.204,38.151c-3.065,0-5.558,2.49-5.558,5.55
				c0,3.075,2.493,5.568,5.558,5.568c3.069,0,5.557-2.493,5.557-5.568C78.761,40.639,76.274,38.151,73.204,38.151z"/>
			<path fill="#13B5D0" stroke="#FFFFFF" stroke-miterlimit="10" d="M17.206,38.151c-3.071,0-5.555,2.49-5.555,5.55
				c0,3.075,2.485,5.568,5.555,5.568c3.073,0,5.556-2.493,5.556-5.568C22.762,40.639,20.278,38.151,17.206,38.151z"/>
			<path fill="#13B5D0" stroke="#FFFFFF" stroke-miterlimit="10" d="M64.224,15.535c-1.369-2.468-6.31-2.68-6.31-2.68H45.208H32.504
				c0,0-4.945,0.214-6.312,2.68C24.816,18,20.842,26.997,20.842,26.997h24.366h24.368C69.576,26.995,65.599,18,64.224,15.535z"/>
			<g>
				<path fill="#13B5D0" d="M0,0v82.271h89.982V0H0z M82.271,60.858v7.783c0,1.795-2.07,3.347-4.128,3.347h-2.915
					c-2.049,0-3.241-1.552-3.241-3.347v-8.223c-11.568,0-26.777,0-26.777,0s-15.643,0-25.926,0v8.223
					c0,1.795-2.047,3.347-4.094,3.347h-2.922c-2.048,0-3.269-1.552-3.269-3.347v-7.783c-2.571-0.317-2.571-1.79-2.571-1.79V48.573
					c0,0,0.111-1.539,0.628-2.057c-1.443-4.313,1.493-10.798,1.493-10.798s1.581-2.46,4.162-6.78
					c-0.055,0.018,0.442-0.658,0.395-0.658H8.532c-0.42,0-0.819-0.783-0.819-1.273V24.17c0-0.503,0.399-1.03,0.819-1.03h4.573
					c0.407,0,1.035,0.529,1.035,1.03l0.238,1.765c2.571-5.225,6.38-10.266,7.945-12.681c2.981-4.627,7.163-4.255,7.163-4.255h15.721
					h15.719c0,0,4.614-0.372,7.595,4.255c1.558,2.415,4.75,8.403,8.606,13.628V24.17c0-0.503-0.23-1.03,0.188-1.03h4.569
					c0.42,0,0.385,0.529,0.385,1.03v2.838c0,0.491,0.035,1.273-0.385,1.273h-3.727c0.603,0,0.266,0.046,0,0
					c2.589,4.318,3.654,7.533,3.654,7.533s2.774,6.437,1.333,10.75c0.514,0.518,0.409,2.01,0.409,2.01v10.494
					C83.556,59.068,83.556,60.54,82.271,60.858z"/>
				<path fill="#FFFFFF" d="M78.143,72.488h-2.915c-2.168,0-3.741-1.617-3.741-3.847v-7.723H19.783v7.723
					c0,2.013-2.189,3.847-4.594,3.847h-2.922c-2.184,0-3.769-1.617-3.769-3.847v-7.355c-2.54-0.485-2.571-2.144-2.571-2.218V48.573
					c0.02-0.285,0.127-1.457,0.573-2.155C5.202,41.984,7.973,35.78,8.094,35.513c0.05-0.088,1.617-2.531,4.129-6.731h-3.69
					c-0.766,0-1.319-1.059-1.319-1.773V24.17c0-0.722,0.564-1.53,1.319-1.53h4.573c0.67,0,1.535,0.742,1.535,1.53l0.018,0.128
					c1.878-3.508,4.195-6.864,5.793-9.176c0.58-0.84,1.081-1.565,1.453-2.14c2.685-4.166,6.31-4.49,7.356-4.49
					c0.175,0,0.271,0.009,0.271,0.009l31.388-0.002c0.006-0.001,0.104-0.007,0.257-0.007c1.144,0,5.082,0.324,7.766,4.491
					c0.466,0.722,1.081,1.768,1.793,2.979c1.532,2.606,3.567,6.067,5.894,9.371V24.17c0-0.12-0.017-0.242-0.031-0.354
					c-0.04-0.313-0.085-0.667,0.154-0.938c0.096-0.109,0.271-0.238,0.564-0.238h4.569c0.294,0,0.482,0.128,0.589,0.235
					c0.301,0.302,0.299,0.753,0.296,1.189v3.047c0.003,0.49,0.006,1.101-0.334,1.442c-0.148,0.149-0.339,0.228-0.551,0.228h-2.853
					c2.266,3.926,3.213,6.75,3.255,6.876c0.099,0.225,2.717,6.385,1.412,10.814c0.427,0.715,0.372,1.885,0.354,2.138l0.001,10.459
					c0.029,0.21-0.098,1.608-1.284,2.144v7.429C82.771,70.654,80.565,72.488,78.143,72.488z M18.783,59.918h53.703v8.723
					c0,1.371,0.857,2.847,2.741,2.847h2.915c1.865,0,3.628-1.383,3.628-2.847v-8.175l0.38-0.094
					c0.865-0.213,0.902-1.215,0.904-1.298v-10.5c0.037-0.566-0.034-1.427-0.264-1.657l-0.218-0.219l0.098-0.293
					c1.365-4.084-1.291-10.33-1.317-10.393c-0.026-0.072-1.098-3.26-3.624-7.474l-0.102-0.169v0.032l-0.902-1.223
					c-2.733-3.703-5.114-7.753-6.854-10.71c-0.706-1.202-1.316-2.24-1.771-2.944c-2.411-3.742-5.91-4.033-6.926-4.033
					c-0.127,0-0.2,0.005-0.21,0.006L29.488,9.499c-0.053-0.002-0.117-0.007-0.227-0.007c-0.919,0-4.105,0.291-6.517,4.033
					c-0.377,0.583-0.883,1.315-1.471,2.165c-1.901,2.753-4.507,6.524-6.446,10.465l-0.725,1.472l-0.457-3.391
					c-0.005-0.27-0.385-0.591-0.541-0.597H8.532c-0.078,0-0.319,0.239-0.319,0.53v2.838c0,0.287,0.237,0.721,0.364,0.781
					l4.828-0.007l0.144,0.266c0.075,0.141,0.081,0.259,0.035,0.391h0.007l-0.018,0.029c-0.05,0.124-0.142,0.262-0.261,0.44
					c-0.007,0.01-0.014,0.02-0.021,0.03l-0.153,0.258c-2.554,4.276-4.153,6.769-4.169,6.793l0,0c0.006,0-2.804,6.295-1.439,10.369
					l0.098,0.293L7.409,46.87c-0.263,0.264-0.443,1.193-0.482,1.739l0.001,10.458c0.002,0.031,0.079,1.041,2.133,1.294l0.438,0.054
					v8.226c0,1.371,0.866,2.847,2.769,2.847h2.922c1.848,0,3.594-1.383,3.594-2.847V59.918z M78.201,27.781h3.535
					c0.036-0.177,0.034-0.508,0.033-0.665v-3.058c0.001-0.121,0.002-0.302-0.012-0.419h-4.175c0.002,0.018,0.004,0.034,0.006,0.049
					c0.02,0.153,0.039,0.318,0.039,0.481v3.511L78.201,27.781z"/>
			</g>
		</g>
	</g>
</g>
<g id="Layer_2_1_">
	<path fill="#13B5D0" d="M45.583-5.004c0,0,13.816,0.329,19.627,2.721c5.813,2.394,9.384,6.236,10.565,12.428
		c1.181,6.191,3.683,22.119,3.683,26.629c0,4.512,0.288,19.667-0.109,26.222c-0.312,5.148-5.293,5.22-5.293,5.22
		s1.306,8.688-2.139,10.459c-3.257,1.676-6.841,0.952-7.916-1.97c-1.026-2.788-1.143-7.989-1.143-7.989l-35.987-0.531
		c0,0,0.56,6.313-0.801,9.036c-0.596,1.197-1.448,2.186-4.47,2.264c-3.02,0.081-4.903-1.519-5.267-4.187
		c-0.332-2.447-0.049-7.075-0.049-7.075s-2.772-0.002-3.81-1.612c-1.035-1.611-1.568-1.106-1.568-6.531s0.04-23.698,0.04-23.698
		s1.88-17.68,3.292-24.461C15.654,5.142,17.886,0.962,24.62-1.945c6.736-2.906,20.155-3.059,20.155-3.059l0.41-2.798l-46.759-6.376
		l3.808,96.692l87.175,3.808l-3.427-96.693L48.677-8.087L45.583-5.004z"/>
	<path fill="#13B5D0" d="M23.641,7.193c0,0-2.897-0.659-3.763,5.56c-0.868,6.219-2.342,17.223-2.342,17.223s-1.238,5.244,3.77,5.244
		c5.007,0,47.716-0.034,47.716-0.034s4.495,0.357,3.768-5.175c-0.729-5.533-2.326-17.224-2.326-17.224s-0.404-5.56-3.768-5.56
		L23.641,7.193z"/>
	<path fill="none" stroke="#FFFFFF" stroke-miterlimit="10" d="M75.124,8.083C72.968,1.814,68.306-5.005,45.168-5.005l0,0
		c-23.14,0-27.808,6.819-29.958,13.088c-2.15,6.292-4.303,28.711-4.303,28.711s0,17.755,0,25.114c0,5.184,3.375,6.167,5.378,6.314
		v6.413c0,2.681,2.13,4.849,4.767,4.849h1.053c2.63,0,4.767-2.168,4.767-4.849v-6.451h18.297l0,0h18.291v6.451
		c0,2.681,2.141,4.849,4.765,4.849h1.063c2.625,0,4.76-2.168,4.76-4.849v-6.413c2.001-0.147,5.383-1.131,5.383-6.314
		c0-7.359,0-25.114,0-25.114S77.278,14.375,75.124,8.083z M29.021-0.337h32.288c1.287,0,2.333,0.875,2.333,1.966
		c0,1.093-1.046,1.979-2.333,1.979H29.021c-1.293,0-2.337-0.887-2.337-1.979C26.684,0.538,27.728-0.337,29.021-0.337z
		 M21.665,57.606c-2.973,0-5.38-2.414-5.38-5.385c0-2.978,2.407-5.38,5.38-5.38c2.971,0,5.385,2.402,5.385,5.38
		C27.05,55.192,24.636,57.606,21.665,57.606z M21.306,35.186c-5.021,0-3.77-5.21-3.77-5.21s1.438-10.941,2.342-17.223
		c0.897-6.277,3.763-5.56,3.763-5.56h21.527h21.527c0,0,2.866-0.717,3.768,5.56c0.89,6.281,2.326,17.223,2.326,17.223
		s1.254,5.21-3.768,5.21c-5.019,0-23.854,0-23.854,0S26.331,35.186,21.306,35.186z M21.306,35.219c-5.021,0-3.77-5.208-3.77-5.208
		s1.438-10.942,2.342-17.224c0.897-6.277,3.763-5.56,3.763-5.56h21.527h21.527c0,0,2.866-0.717,3.768,5.56
		c0.89,6.281,2.326,17.224,2.326,17.224s1.254,5.208-3.768,5.208c-5.019,0-23.854,0-23.854,0S26.331,35.219,21.306,35.219z
		 M68.662,57.606c-2.971,0-5.382-2.414-5.382-5.385c0-2.978,2.411-5.38,5.382-5.38c2.974,0,5.381,2.402,5.381,5.38
		C74.043,55.192,71.636,57.606,68.662,57.606z"/>
	<g>
		<path fill="#13B5D0" stroke="#FFFFFF" stroke-width="1.142" stroke-miterlimit="10" d="M21.665,46.841
			c-2.973,0-5.38,2.402-5.38,5.38c0,2.971,2.407,5.385,5.38,5.385c2.971,0,5.385-2.414,5.385-5.385
			C27.05,49.243,24.636,46.841,21.665,46.841z"/>
		<path fill="#13B5D0" stroke="#FFFFFF" stroke-miterlimit="10" d="M19.878,12.741c0.897-6.276,3.763-5.605,3.763-5.605h21.527
			h21.527c0,0,2.866-0.671,3.768,5.605c0.89,6.281,2.326,17.246,2.326,17.246s0.12,0.518,0.136,1.214
			c-0.011-0.711-0.136-1.23-0.136-1.23s-1.437-10.968-2.326-17.25c-0.901-6.277-3.768-5.585-3.768-5.585H45.168H23.641
			c0,0-2.866-0.688-3.763,5.589c-0.903,6.281-2.342,17.238-2.342,17.238s-0.125,0.529-0.136,1.243
			c0.016-0.696,0.136-1.221,0.136-1.221S18.975,19.023,19.878,12.741z"/>
		<path fill="#13B5D0" stroke="#FFFFFF" stroke-miterlimit="10" d="M29.021,4.136h32.288c1.287,0,2.333-1.414,2.333-2.507
			c0-1.091-1.046-2.493-2.333-2.493H29.021c-1.293,0-2.337,1.402-2.337,2.493C26.684,2.722,27.728,4.136,29.021,4.136z"/>
		<path fill="#13B5D0" stroke="#FFFFFF" stroke-miterlimit="10" d="M72.925,31.146c0.027,1.539-0.473,3.99-3.903,3.99
			c-5.019,0-23.854,0-23.854,0s-18.837,0-23.862,0c-3.433,0-3.933-2.451-3.906-3.99c-0.036,1.537,0.448,3.99,3.906,3.99
			c5.025,0,23.862,0,23.862,0s18.835,0,23.854,0C72.48,35.136,72.961,32.682,72.925,31.146z"/>
		<path fill="#13B5D0" stroke="#FFFFFF" stroke-width="1.142" stroke-miterlimit="10" d="M68.662,46.841
			c-2.971,0-5.382,2.402-5.382,5.38c0,2.971,2.411,5.385,5.382,5.385c2.974,0,5.381-2.414,5.381-5.385
			C74.043,49.243,71.636,46.841,68.662,46.841z"/>
	</g>
	<rect x="80.991" y="-16.864" fill="#13B5D0" width="31.75" height="125"/>
	<rect x="-8.634" y="-16.255" fill="#13B5D0" width="132.25" height="10.75"/>
	<rect x="-12.509" y="-19.114" fill="#13B5D0" width="18.75" height="127.25"/>
	<rect x="-18.009" y="82.386" fill="#13B5D0" width="114.875" height="31.5"/>
</g>
</svg>
