<?xml version="1.0" encoding="utf-8"?>
<!-- Generator: Adobe Illustrator 16.0.0, SVG Export Plug-In . SVG Version: 6.00 Build 0)  -->
<!DOCTYPE svg PUBLIC "-//W3C//DTD SVG 1.1//EN" "http://www.w3.org/Graphics/SVG/1.1/DTD/svg11.dtd">
<svg version="1.1" id="Layer_1" xmlns="http://www.w3.org/2000/svg" xmlns:xlink="http://www.w3.org/1999/xlink" x="0px" y="0px"
	 width="60px" height="56.666px" viewBox="0 0 60 56.666" enable-background="new 0 0 60 56.666" xml:space="preserve">
<g>
	<circle fill="#FFFFFF" cx="29.931" cy="13.596" r="13.593"/>
	<circle fill="#FFFFFF" cx="41.219" cy="18.781" r="10.682"/>
	<circle fill="#FFFFFF" cx="43.692" cy="10.09" r="7.523"/>
	<circle fill="#FFFFFF" cx="51.215" cy="18.875" r="8.785"/>
	<circle fill="#FFFFFF" cx="10.229" cy="18" r="10.229"/>
	<circle fill="#FFFFFF" cx="18.102" cy="8.482" r="7.522"/>
	<circle fill="#FFFFFF" cx="20.155" cy="20.358" r="8.785"/>
	
		<line fill="#FFFFFF" stroke="#FFFFFF" stroke-width="1.3541" stroke-linecap="round" stroke-miterlimit="10" x1="11.606" y1="34.726" x2="17.474" y2="27.956"/>
	
		<line fill="#FFFFFF" stroke="#FFFFFF" stroke-width="1.3541" stroke-linecap="round" stroke-miterlimit="10" x1="22.027" y1="33.116" x2="27.896" y2="26.348"/>
	
		<line fill="#FFFFFF" stroke="#FFFFFF" stroke-width="1.3541" stroke-linecap="round" stroke-miterlimit="10" x1="32.449" y1="31.509" x2="38.317" y2="24.739"/>
	
		<line fill="#FFFFFF" stroke="#FFFFFF" stroke-width="1.3541" stroke-linecap="round" stroke-miterlimit="10" x1="35.814" y1="36.833" x2="41.684" y2="30.062"/>
	
		<line fill="#FFFFFF" stroke="#FFFFFF" stroke-width="1.3541" stroke-linecap="round" stroke-miterlimit="10" x1="39.425" y1="42.521" x2="45.292" y2="35.75"/>
	
		<line fill="#FFFFFF" stroke="#FFFFFF" stroke-width="1.3541" stroke-linecap="round" stroke-miterlimit="10" x1="11.606" y1="45.494" x2="17.474" y2="38.724"/>
	
		<line fill="#FFFFFF" stroke="#FFFFFF" stroke-width="1.3541" stroke-linecap="round" stroke-miterlimit="10" x1="9.719" y1="55.989" x2="15.588" y2="49.22"/>
	
		<line fill="#FFFFFF" stroke="#FFFFFF" stroke-width="1.3541" stroke-linecap="round" stroke-miterlimit="10" x1="25.501" y1="50.098" x2="31.367" y2="43.328"/>
	
		<line fill="#FFFFFF" stroke="#FFFFFF" stroke-width="1.3541" stroke-linecap="round" stroke-miterlimit="10" x1="21.061" y1="42.931" x2="26.928" y2="36.161"/>
</g>
</svg>
