<?xml version="1.0" encoding="utf-8"?>
<!-- Generator: Adobe Illustrator 16.0.0, SVG Export Plug-In . SVG Version: 6.00 Build 0)  -->
<!DOCTYPE svg PUBLIC "-//W3C//DTD SVG 1.1//EN" "http://www.w3.org/Graphics/SVG/1.1/DTD/svg11.dtd">
<svg version="1.1" id="Calque_1" xmlns="http://www.w3.org/2000/svg" xmlns:xlink="http://www.w3.org/1999/xlink" x="0px" y="0px"
	 width="395px" height="25px" viewBox="0 0 395 25" enable-background="new 0 0 395 25" xml:space="preserve">
<g>
	<path fill="#FFFFFF" d="M1.883,10.745c0-4.179,2.96-7.244,7.16-7.244c4.178,0,7.16,3.065,7.16,7.244
		c0,2.015-0.693,3.757-1.869,5.038l1.155,1.301l-1.701,1.428l-1.218-1.364c-1.029,0.546-2.226,0.84-3.527,0.84
		C4.843,17.987,1.883,14.922,1.883,10.745z M11.016,15.384L9.273,13.41l1.722-1.427l1.743,1.973c0.609-0.86,0.945-1.973,0.945-3.211
		c0-2.898-1.827-5.061-4.64-5.061c-2.834,0-4.64,2.162-4.64,5.061c0,2.875,1.806,5.059,4.64,5.059
		C9.777,15.804,10.428,15.656,11.016,15.384z"/>
	<path fill="#FFFFFF" d="M24.289,17.735v-1.344c-0.714,0.798-1.974,1.596-3.569,1.596c-2.184,0-3.275-1.155-3.275-3.212V7.595h2.205
		v6.361c0,1.575,0.798,2.079,2.058,2.079c1.113,0,2.079-0.651,2.583-1.323V7.595h2.205v10.141H24.289z"/>
	<path fill="#FFFFFF" d="M27.691,12.655c0-2.939,2.142-5.312,5.144-5.312c3.044,0,4.976,2.311,4.976,5.501v0.544h-7.811
		c0.168,1.512,1.302,2.793,3.212,2.793c1.008,0,2.163-0.398,2.897-1.134l1.008,1.448c-1.029,0.967-2.52,1.491-4.115,1.491
		C29.938,17.987,27.691,15.867,27.691,12.655z M32.814,9.149c-1.869,0-2.75,1.448-2.834,2.666h5.711
		C35.628,10.618,34.809,9.149,32.814,9.149z"/>
	<path fill="#FFFFFF" d="M38.947,17.735V3.731h2.205v14.004H38.947z"/>
	<path fill="#FFFFFF" d="M42.097,16.392l1.008-1.575c0.714,0.735,2.121,1.407,3.422,1.407c1.323,0,2.016-0.546,2.016-1.344
		c0-1.995-6.131-0.567-6.131-4.471c0-1.659,1.428-3.066,3.989-3.066c1.722,0,3.023,0.609,3.926,1.407l-0.924,1.554
		c-0.609-0.672-1.722-1.218-3.002-1.218c-1.155,0-1.869,0.546-1.869,1.26c0,1.784,6.131,0.44,6.131,4.471
		c0,1.807-1.491,3.171-4.22,3.171C44.701,17.987,43.147,17.42,42.097,16.392z"/>
	<path fill="#FFFFFF" d="M68.639,17.735v-6.613c0-1.092-0.483-1.826-1.68-1.826c-0.987,0-1.911,0.672-2.352,1.344v7.096h-2.205
		v-6.613c0-1.092-0.462-1.826-1.659-1.826c-0.987,0-1.89,0.693-2.352,1.344v7.096h-2.205V7.595h2.205V8.96
		c0.441-0.609,1.764-1.617,3.317-1.617c1.512,0,2.436,0.756,2.771,1.848c0.567-0.902,1.911-1.848,3.443-1.848
		c1.848,0,2.918,1.008,2.918,3.066v7.326H68.639z"/>
	<path fill="#FFFFFF" d="M72.043,12.655c0-2.917,1.974-5.312,5.207-5.312s5.207,2.395,5.207,5.312c0,2.897-1.974,5.333-5.207,5.333
		S72.043,15.552,72.043,12.655z M80.168,12.655c0-1.785-1.029-3.359-2.918-3.359c-1.869,0-2.918,1.574-2.918,3.359
		c0,1.805,1.05,3.38,2.918,3.38C79.14,16.035,80.168,14.46,80.168,12.655z"/>
	<path fill="#FFFFFF" d="M83.404,4.991c0-0.756,0.609-1.364,1.365-1.364s1.365,0.608,1.365,1.364s-0.609,1.365-1.365,1.365
		S83.404,5.747,83.404,4.991z M83.656,17.735V7.595h2.205v10.141H83.656z"/>
	<path fill="#FFFFFF" d="M86.806,16.392l1.008-1.575c0.714,0.735,2.121,1.407,3.422,1.407c1.323,0,2.016-0.546,2.016-1.344
		c0-1.995-6.131-0.567-6.131-4.471c0-1.659,1.428-3.066,3.989-3.066c1.722,0,3.023,0.609,3.926,1.407l-0.924,1.554
		c-0.609-0.672-1.722-1.218-3.002-1.218c-1.155,0-1.869,0.546-1.869,1.26c0,1.784,6.131,0.44,6.131,4.471
		c0,1.807-1.491,3.171-4.22,3.171C89.409,17.987,87.855,17.42,86.806,16.392z"/>
	<path fill="#FFFFFF" d="M108.035,17.735V16.35c-0.777,1.008-1.932,1.638-3.254,1.638c-2.583,0-4.493-1.974-4.493-5.333
		c0-3.275,1.89-5.312,4.493-5.312c1.281,0,2.457,0.567,3.254,1.659V3.731h2.205v14.004H108.035z M108.035,14.67v-4.009
		c-0.483-0.756-1.575-1.365-2.604-1.365c-1.764,0-2.876,1.406-2.876,3.359c0,1.973,1.113,3.38,2.876,3.38
		C106.46,16.035,107.552,15.426,108.035,14.67z"/>
	<path fill="#FFFFFF" d="M111.438,12.655c0-2.939,2.142-5.312,5.144-5.312c3.044,0,4.976,2.311,4.976,5.501v0.544h-7.811
		c0.168,1.512,1.302,2.793,3.212,2.793c1.008,0,2.163-0.398,2.897-1.134l1.008,1.448c-1.029,0.967-2.52,1.491-4.115,1.491
		C113.685,17.987,111.438,15.867,111.438,12.655z M116.561,9.149c-1.869,0-2.75,1.448-2.834,2.666h5.711
		C119.375,10.618,118.556,9.149,116.561,9.149z"/>
	<path fill="#FFFFFF" d="M127.062,17.735V3.731h2.205v14.004H127.062z"/>
	<path fill="#FFFFFF" d="M131.85,9.002l-1.008-0.798c0.672-0.398,1.386-1.26,1.512-1.974c-0.042,0.021-0.21,0.042-0.357,0.042
		c-0.693,0-1.239-0.546-1.239-1.322c0-0.777,0.63-1.428,1.428-1.428c0.861,0,1.617,0.692,1.617,1.91
		C133.802,6.882,133.004,8.183,131.85,9.002z"/>
	<path fill="#FFFFFF" d="M141.382,17.735v-1.112c-0.756,0.881-1.953,1.364-3.296,1.364c-1.638,0-3.506-1.134-3.506-3.359
		c0-2.351,1.848-3.316,3.506-3.316c1.386,0,2.541,0.441,3.296,1.301v-1.511c0-1.176-0.987-1.89-2.373-1.89
		c-1.134,0-2.142,0.42-3.002,1.302l-0.924-1.532c1.176-1.135,2.646-1.639,4.262-1.639c2.268,0,4.241,0.945,4.241,3.654v6.738
		H141.382z M141.382,15.426v-1.554c-0.525-0.692-1.47-1.049-2.415-1.049c-1.239,0-2.184,0.734-2.184,1.826
		c0,1.113,0.945,1.827,2.184,1.827C139.913,16.476,140.857,16.119,141.382,15.426z"/>
	<path fill="#FFFFFF" d="M152.26,17.735v-6.34c0-1.596-0.819-2.1-2.058-2.1c-1.113,0-2.079,0.672-2.604,1.344v7.096h-2.205V7.595
		h2.205V8.96c0.672-0.798,1.995-1.617,3.59-1.617c2.184,0,3.275,1.176,3.275,3.255v7.138H152.26z"/>
	<path fill="#FFFFFF" d="M163.138,17.735v-6.34c0-1.596-0.819-2.1-2.058-2.1c-1.113,0-2.079,0.672-2.604,1.344v7.096h-2.205V7.595
		h2.205V8.96c0.672-0.798,1.995-1.617,3.59-1.617c2.184,0,3.275,1.176,3.275,3.255v7.138H163.138z"/>
	<path fill="#FFFFFF" d="M166.541,12.655c0-2.939,2.142-5.312,5.144-5.312c3.044,0,4.976,2.311,4.976,5.501v0.544h-7.811
		c0.168,1.512,1.302,2.793,3.212,2.793c1.008,0,2.163-0.398,2.897-1.134l1.008,1.448c-1.029,0.967-2.52,1.491-4.115,1.491
		C168.788,17.987,166.541,15.867,166.541,12.655z M171.664,9.149c-1.869,0-2.75,1.448-2.834,2.666h5.711
		C174.478,10.618,173.659,9.149,171.664,9.149z M171.706,6.062h-1.575l2.939-3.023h2.1L171.706,6.062z"/>
	<path fill="#FFFFFF" d="M177.188,12.655c0-2.939,2.142-5.312,5.144-5.312c3.044,0,4.976,2.311,4.976,5.501v0.544h-7.811
		c0.168,1.512,1.302,2.793,3.212,2.793c1.008,0,2.163-0.398,2.897-1.134l1.008,1.448c-1.029,0.967-2.52,1.491-4.115,1.491
		C179.435,17.987,177.188,15.867,177.188,12.655z M182.311,9.149c-1.869,0-2.75,1.448-2.834,2.666h5.711
		C185.125,10.618,184.306,9.149,182.311,9.149z"/>
	<path fill="#FFFFFF" d="M192.812,17.735V7.595h2.205v1.471c0.777-0.967,1.994-1.723,3.295-1.723v2.184
		c-0.188-0.041-0.398-0.062-0.671-0.062c-0.944,0-2.183,0.63-2.624,1.365v6.906H192.812z"/>
	<path fill="#FFFFFF" d="M198.438,12.655c0-2.939,2.142-5.312,5.145-5.312c3.044,0,4.976,2.311,4.976,5.501v0.544h-7.811
		c0.168,1.512,1.302,2.793,3.213,2.793c1.008,0,2.162-0.398,2.897-1.134l1.008,1.448c-1.029,0.967-2.52,1.491-4.115,1.491
		C200.686,17.987,198.438,15.867,198.438,12.655z M203.562,9.149c-1.868,0-2.75,1.448-2.834,2.666h5.711
		C206.375,10.618,205.557,9.149,203.562,9.149z"/>
	<path fill="#FFFFFF" d="M208.833,16.392l1.008-1.575c0.714,0.735,2.121,1.407,3.423,1.407c1.322,0,2.016-0.546,2.016-1.344
		c0-1.995-6.131-0.567-6.131-4.471c0-1.659,1.428-3.066,3.989-3.066c1.722,0,3.023,0.609,3.926,1.407l-0.924,1.554
		c-0.608-0.672-1.722-1.218-3.002-1.218c-1.155,0-1.869,0.546-1.869,1.26c0,1.784,6.131,0.44,6.131,4.471
		c0,1.807-1.49,3.171-4.22,3.171C211.437,17.987,209.883,17.42,208.833,16.392z"/>
	<path fill="#FFFFFF" d="M220.761,16.328v5.271h-2.205V7.595h2.205v1.387c0.756-1.008,1.932-1.639,3.254-1.639
		c2.625,0,4.493,1.975,4.493,5.312s-1.868,5.333-4.493,5.333C222.733,17.987,221.601,17.399,220.761,16.328z M226.24,12.655
		c0-1.973-1.134-3.359-2.876-3.359c-1.029,0-2.1,0.588-2.604,1.344v4.009c0.482,0.756,1.574,1.387,2.604,1.387
		C225.106,16.035,226.24,14.628,226.24,12.655z"/>
	<path fill="#FFFFFF" d="M229.413,4.991c0-0.756,0.609-1.364,1.365-1.364s1.364,0.608,1.364,1.364s-0.608,1.365-1.364,1.365
		S229.413,5.747,229.413,4.991z M229.665,17.735V7.595h2.205v10.141H229.665z"/>
	<path fill="#FFFFFF" d="M233.676,17.735V7.595h2.204v1.471c0.777-0.967,1.995-1.723,3.297-1.723v2.184
		c-0.189-0.041-0.398-0.062-0.672-0.062c-0.945,0-2.184,0.63-2.625,1.365v6.906H233.676z"/>
	<path fill="#FFFFFF" d="M239.304,12.655c0-2.939,2.141-5.312,5.144-5.312c3.044,0,4.976,2.311,4.976,5.501v0.544h-7.811
		c0.168,1.512,1.303,2.793,3.213,2.793c1.008,0,2.162-0.398,2.897-1.134l1.008,1.448c-1.028,0.967-2.52,1.491-4.115,1.491
		C241.55,17.987,239.304,15.867,239.304,12.655z M244.427,9.149c-1.869,0-2.751,1.448-2.835,2.666h5.711
		C247.239,10.618,246.421,9.149,244.427,9.149z"/>
	<path fill="#FFFFFF" d="M250.118,17.735v-1.68l4.998-6.55h-4.998V7.595h7.958V9.19l-5.081,6.613h5.165v1.932H250.118z"/>
	<path fill="#FFFFFF" d="M258.707,13.6v-1.89h5.039v1.89H258.707z"/>
	<path fill="#FFFFFF" d="M267.421,17.735l-4.136-10.141h2.372l2.961,7.601l2.961-7.601h2.352l-4.137,10.141H267.421z"/>
	<path fill="#FFFFFF" d="M273.659,12.655c0-2.917,1.973-5.312,5.207-5.312c3.232,0,5.207,2.395,5.207,5.312
		c0,2.897-1.975,5.333-5.207,5.333C275.632,17.987,273.659,15.552,273.659,12.655z M281.784,12.655c0-1.785-1.029-3.359-2.918-3.359
		c-1.869,0-2.919,1.574-2.919,3.359c0,1.805,1.05,3.38,2.919,3.38C280.755,16.035,281.784,14.46,281.784,12.655z"/>
	<path fill="#FFFFFF" d="M292.116,17.735v-1.344c-0.714,0.798-1.974,1.596-3.569,1.596c-2.184,0-3.275-1.155-3.275-3.212V7.595
		h2.204v6.361c0,1.575,0.799,2.079,2.059,2.079c1.112,0,2.078-0.651,2.582-1.323V7.595h2.205v10.141H292.116z"/>
	<path fill="#FFFFFF" d="M295.267,16.392l1.008-1.575c0.715,0.735,2.121,1.407,3.423,1.407c1.323,0,2.016-0.546,2.016-1.344
		c0-1.995-6.131-0.567-6.131-4.471c0-1.659,1.428-3.066,3.989-3.066c1.722,0,3.023,0.609,3.926,1.407l-0.924,1.554
		c-0.608-0.672-1.721-1.218-3.002-1.218c-1.154,0-1.869,0.546-1.869,1.26c0,1.784,6.131,0.44,6.131,4.471
		c0,1.807-1.49,3.171-4.22,3.171C297.87,17.987,296.317,17.42,295.267,16.392z"/>
	<path fill="#FFFFFF" d="M309.357,17.735V3.731h2.204v14.004H309.357z"/>
	<path fill="#FFFFFF" d="M312.759,12.655c0-2.939,2.143-5.312,5.145-5.312c3.045,0,4.977,2.311,4.977,5.501v0.544h-7.811
		c0.168,1.512,1.301,2.793,3.212,2.793c1.008,0,2.163-0.398,2.897-1.134l1.008,1.448c-1.029,0.967-2.52,1.491-4.115,1.491
		C315.006,17.987,312.759,15.867,312.759,12.655z M317.882,9.149c-1.868,0-2.75,1.448-2.834,2.666h5.711
		C320.696,10.618,319.877,9.149,317.882,9.149z"/>
	<path fill="#FFFFFF" d="M340.835,17.735v-6.613c0-1.092-0.483-1.826-1.68-1.826c-0.987,0-1.911,0.672-2.352,1.344v7.096h-2.205
		v-6.613c0-1.092-0.462-1.826-1.658-1.826c-0.987,0-1.891,0.693-2.352,1.344v7.096h-2.205V7.595h2.205V8.96
		c0.44-0.609,1.764-1.617,3.316-1.617c1.512,0,2.436,0.756,2.771,1.848c0.567-0.902,1.911-1.848,3.443-1.848
		c1.848,0,2.919,1.008,2.919,3.066v7.326H340.835z"/>
	<path fill="#FFFFFF" d="M344.596,4.991c0-0.756,0.608-1.364,1.364-1.364s1.365,0.608,1.365,1.364s-0.609,1.365-1.365,1.365
		S344.596,5.747,344.596,4.991z M344.848,17.735V7.595h2.204v10.141H344.848z"/>
	<path fill="#FFFFFF" d="M348.249,12.655c0-2.939,2.143-5.312,5.145-5.312c3.045,0,4.977,2.311,4.977,5.501v0.544h-7.811
		c0.168,1.512,1.301,2.793,3.212,2.793c1.008,0,2.163-0.398,2.897-1.134l1.008,1.448c-1.029,0.967-2.52,1.491-4.115,1.491
		C350.496,17.987,348.249,15.867,348.249,12.655z M353.372,9.149c-1.868,0-2.75,1.448-2.834,2.666h5.711
		C356.187,10.618,355.367,9.149,353.372,9.149z"/>
	<path fill="#FFFFFF" d="M366.35,17.735v-1.344c-0.714,0.798-1.974,1.596-3.569,1.596c-2.184,0-3.275-1.155-3.275-3.212V7.595h2.205
		v6.361c0,1.575,0.797,2.079,2.057,2.079c1.113,0,2.079-0.651,2.583-1.323V7.595h2.204v10.141H366.35z"/>
	<path fill="#FFFFFF" d="M376.787,17.735l-2.624-3.737l-2.646,3.737h-2.477l3.736-5.207l-3.506-4.934h2.478l2.394,3.423l2.414-3.423
		h2.479l-3.507,4.934l3.737,5.207H376.787z"/>
	<path fill="#FFFFFF" d="M385.922,11.815c0-2.562,3.38-2.813,3.38-4.598c0-0.819-0.65-1.512-1.994-1.512
		c-1.302,0-2.226,0.566-2.918,1.469l-1.428-1.574c1.07-1.322,2.688-2.078,4.576-2.078c2.646,0,4.263,1.406,4.263,3.296
		c0,3.107-3.737,3.359-3.737,5.227c0,0.336,0.168,0.735,0.462,0.945l-1.868,0.629C386.153,13.137,385.922,12.508,385.922,11.815z
		 M385.942,16.476c0-0.776,0.672-1.448,1.471-1.448c0.797,0,1.469,0.672,1.469,1.448c0,0.798-0.672,1.491-1.469,1.491
		C386.614,17.967,385.942,17.273,385.942,16.476z"/>
</g>
</svg>
