<?xml version="1.0" encoding="utf-8"?>
<!-- Generator: Adobe Illustrator 16.0.0, SVG Export Plug-In . SVG Version: 6.00 Build 0)  -->
<!DOCTYPE svg PUBLIC "-//W3C//DTD SVG 1.1//EN" "http://www.w3.org/Graphics/SVG/1.1/DTD/svg11.dtd">
<svg version="1.1" id="Calque_1" xmlns="http://www.w3.org/2000/svg" xmlns:xlink="http://www.w3.org/1999/xlink" x="0px" y="0px"
	 width="618.985px" height="179.576px" viewBox="0 0 618.985 179.576" enable-background="new 0 0 618.985 179.576"
	 xml:space="preserve">
	<defs>
  <style type="text/css">
    @font-face {
	    font-family: 'Roboto';
	    src: url('../../fonts/roboto/Roboto-Thin.eot');
	    src: url('../../fonts/roboto/Roboto-Thin.eot?#iefix') format('embedded-opentype'),
	         url('../../fonts/roboto/Roboto-Thin.woff') format('woff'),
	         url('../../fonts/roboto/Roboto-Thin.ttf') format('truetype'),
	         url('../../fonts/roboto/Roboto-Thin.svg#Roboto') format('svg');
	}
  </style>
</defs>
<polygon fill="#6BBBAE" points="66.455,109.909 66.455,167.181 10.455,167.114 10.455,109.909 "/>
<ellipse fill="#50B29F" cx="38.248" cy="110.184" rx="28.125" ry="12.44"/>
<ellipse fill="#6BBBAE" cx="38.248" cy="167.136" rx="28.125" ry="12.44"/>
<polygon fill="#F28B32" points="66.455,18.909 66.455,95.19 10.455,95.103 10.455,18.909 "/>
<ellipse fill="#DC6E2D" cx="38.248" cy="19.184" rx="28.125" ry="12.44"/>
<ellipse fill="#F28B32" cx="38.248" cy="95.136" rx="28.125" ry="12.44"/>
<line opacity="0.7" fill="none" stroke="#000000" stroke-width="0.5" stroke-miterlimit="10" enable-background="new    " x1="80.045" y1="139.257" x2="159.476" y2="139.257"/>
<text transform="matrix(1 0 0 1 177.4763 139.2578)" opacity="0.7" enable-background="new    " font-family="'Roboto'" letter-spacing="1px" font-size="21">Nombre de brevets déposés : 2</text>
<line opacity="0.7" fill="none" stroke="#000000" stroke-width="0.5" stroke-miterlimit="10" enable-background="new    " x1="80.045" y1="89.895" x2="159.475" y2="89.895"/>
<text transform="matrix(1 0 0 1 177.4763 89.8945)" opacity="0.7" enable-background="new    "><tspan x="0" y="0" font-family="'Roboto'" letter-spacing="1px" font-size="21">Autres titres de propriété intellectuelle déposés</tspan><tspan x="0" y="25.2" font-family="'Roboto'" letter-spacing="1px" font-size="21">(ex : modèles, marques, dessins) : 3</tspan></text>
</svg>
