<?xml version="1.0" encoding="utf-8"?>
<!-- Generator: Adobe Illustrator 16.0.0, SVG Export Plug-In . SVG Version: 6.00 Build 0)  -->
<!DOCTYPE svg PUBLIC "-//W3C//DTD SVG 1.1//EN" "http://www.w3.org/Graphics/SVG/1.1/DTD/svg11.dtd">
<svg version="1.1" id="Calque_1" xmlns="http://www.w3.org/2000/svg" xmlns:xlink="http://www.w3.org/1999/xlink" x="0px" y="0px"
	 width="90.439px" height="225.839px" viewBox="0 0 90.439 225.839" enable-background="new 0 0 90.439 225.839"
	 xml:space="preserve">
<g id="Valorial">
	<g>
		<ellipse fill="#90CBD4" cx="45.556" cy="129.004" rx="3.625" ry="4.768"/>
		<ellipse fill="#030303" cx="45.388" cy="131.458" rx="1.31" ry="2.453"/>
		<g>
			<path fill="#70A4AA" d="M68.28,155.866c-9.081,2.894-10.345,5.139-13.108,7.771c-7.406,7.049-9.969,17.819-9.969,17.819
				s-2.628-10.771-10.032-17.819c-2.766-2.632-4.062-4.877-13.145-7.771c-1.34-0.426-7.773-0.93-7.773-0.93
				s3.888,8.481,4.844,14.454c0,0,0.751,8.888,0.99,17.912c0,0,1.688,18.035,4.315,23.668c0,0,2.503,8.485,9.433,11.593
				c0,0,3.484,2.135,11.368,1.896c7.885,0.239,11.305-1.896,11.305-1.896c6.929-3.106,9.364-11.593,9.364-11.593
				c2.629-5.634,4.316-23.668,4.316-23.668c0.239-9.024,0.99-17.912,0.99-17.912c0.956-5.973,4.844-14.454,4.844-14.454
				S69.621,155.44,68.28,155.866z M39.15,208.499c-1.631-11.323-3.466-23.463-10.714-32.733c-0.844-1.079,0.667-2.612,1.521-1.521
				c7.526,9.628,9.568,21.896,11.267,33.683C41.419,209.282,39.347,209.866,39.15,208.499z M63.165,175.765
				c-7.247,9.271-9.082,21.411-10.714,32.733c-0.195,1.367-2.269,0.783-2.072-0.571c1.696-11.787,3.738-24.055,11.267-33.682
				C62.499,173.153,64.009,174.686,63.165,175.765z"/>
			<path fill="#FFFFFF" d="M45.438,134.885c-2.46,0-4.461-2.684-4.461-5.98s2.001-5.98,4.461-5.98s4.46,2.684,4.46,5.98
				S47.897,134.885,45.438,134.885z M45.438,124.358c-1.641,0-3.027,2.082-3.027,4.547c0,2.463,1.388,4.547,3.027,4.547
				s3.026-2.084,3.026-4.547C48.464,126.44,47.078,124.358,45.438,124.358z"/>
			<ellipse fill="#90CBD4" cx="39.104" cy="133.304" rx="3.625" ry="4.769"/>
			<ellipse fill="#030303" cx="38.937" cy="135.757" rx="1.31" ry="2.453"/>
			<path fill="#FFFFFF" d="M38.987,139.185c-2.46,0-4.461-2.683-4.461-5.979c0-3.299,2.001-5.981,4.461-5.981
				c2.459,0,4.46,2.683,4.46,5.981C43.447,136.502,41.446,139.185,38.987,139.185z M38.987,128.657
				c-1.641,0-3.026,2.084-3.026,4.548s1.387,4.547,3.026,4.547c1.641,0,3.026-2.083,3.026-4.547S40.628,128.657,38.987,128.657z"/>
			<ellipse fill="#90CBD4" cx="52.006" cy="133.304" rx="3.625" ry="4.769"/>
			<ellipse fill="#030303" cx="51.838" cy="135.757" rx="1.31" ry="2.453"/>
			<path fill="#FFFFFF" d="M51.888,139.185c-2.459,0-4.46-2.683-4.46-5.979c0-3.299,2.001-5.981,4.46-5.981
				c2.46,0,4.46,2.683,4.46,5.981C56.348,136.502,54.348,139.185,51.888,139.185z M51.888,128.657c-1.642,0-3.027,2.084-3.027,4.548
				s1.387,4.547,3.027,4.547c1.64,0,3.025-2.083,3.025-4.547C54.915,130.741,53.528,128.657,51.888,128.657z"/>
			<ellipse fill="#90CBD4" cx="45.556" cy="137.604" rx="3.625" ry="4.768"/>
			<ellipse fill="#030303" cx="45.388" cy="140.057" rx="1.31" ry="2.453"/>
			<path fill="#FFFFFF" d="M45.438,143.487c-2.46,0-4.461-2.684-4.461-5.98c0-3.298,2.001-5.98,4.461-5.98s4.46,2.683,4.46,5.98
				C49.897,140.802,47.897,143.487,45.438,143.487z M45.438,132.958c-1.641,0-3.027,2.083-3.027,4.547s1.388,4.547,3.027,4.547
				s3.026-2.083,3.026-4.547S47.078,132.958,45.438,132.958z"/>
			<ellipse fill="#90CBD4" cx="34.088" cy="139.038" rx="3.625" ry="4.768"/>
			<ellipse fill="#030303" cx="33.92" cy="140.491" rx="1.31" ry="2.453"/>
			<path fill="#FFFFFF" d="M33.97,144.919c-2.459,0-4.46-2.683-4.46-5.981c0-3.297,2.001-5.979,4.46-5.979
				c2.46,0,4.46,2.683,4.46,5.979C38.43,142.237,36.43,144.919,33.97,144.919z M33.97,134.391c-1.642,0-3.027,2.083-3.027,4.547
				c0,2.465,1.387,4.547,3.027,4.547c1.64,0,3.025-2.082,3.025-4.547C36.996,136.474,35.61,134.391,33.97,134.391z"/>
			<ellipse fill="#90CBD4" cx="57.022" cy="139.038" rx="3.625" ry="4.768"/>
			<ellipse fill="#030303" cx="56.854" cy="141.491" rx="1.311" ry="2.453"/>
			<path fill="#FFFFFF" d="M56.905,144.919c-2.46,0-4.461-2.683-4.461-5.981c0-3.297,2.001-5.979,4.461-5.979
				c2.459,0,4.46,2.683,4.46,5.979C61.365,142.237,59.364,144.919,56.905,144.919z M56.905,134.391
				c-1.641,0-3.026,2.083-3.026,4.547c0,2.465,1.387,4.547,3.026,4.547c1.641,0,3.026-2.082,3.026-4.547
				C59.932,136.474,58.546,134.391,56.905,134.391z"/>
			<ellipse fill="#90CBD4" cx="39.104" cy="141.904" rx="3.625" ry="4.768"/>
			<ellipse fill="#030303" cx="38.937" cy="143.358" rx="1.31" ry="2.453"/>
			<path fill="#FFFFFF" d="M38.987,147.786c-2.46,0-4.461-2.682-4.461-5.979s2.001-5.981,4.461-5.981c2.459,0,4.46,2.684,4.46,5.981
				S41.446,147.786,38.987,147.786z M38.987,137.258c-1.641,0-3.026,2.083-3.026,4.547c0,2.465,1.387,4.547,3.026,4.547
				c1.641,0,3.026-2.082,3.026-4.547S40.628,137.258,38.987,137.258z"/>
			<ellipse fill="#90CBD4" cx="51.29" cy="141.904" rx="3.625" ry="4.768"/>
			<ellipse fill="#030303" cx="51.121" cy="142.358" rx="1.311" ry="2.453"/>
			<path fill="#FFFFFF" d="M51.171,147.786c-2.459,0-4.46-2.682-4.46-5.979s2.001-5.981,4.46-5.981c2.46,0,4.46,2.684,4.46,5.981
				S53.631,147.786,51.171,147.786z M51.171,137.258c-1.642,0-3.027,2.083-3.027,4.547c0,2.465,1.387,4.547,3.027,4.547
				c1.64,0,3.025-2.082,3.025-4.547C54.197,139.34,52.812,137.258,51.171,137.258z"/>
			<ellipse fill="#90CBD4" cx="45.556" cy="146.922" rx="3.625" ry="4.768"/>
			<ellipse fill="#030303" cx="45.388" cy="148.375" rx="1.31" ry="2.453"/>
			<path fill="#FFFFFF" d="M45.438,152.803c-2.46,0-4.461-2.683-4.461-5.98c0-3.297,2.001-5.98,4.461-5.98s4.46,2.684,4.46,5.98
				C49.897,150.121,47.897,152.803,45.438,152.803z M45.438,142.276c-1.641,0-3.027,2.082-3.027,4.547s1.388,4.548,3.027,4.548
				s3.026-2.083,3.026-4.548S47.078,142.276,45.438,142.276z"/>
			<ellipse fill="#90CBD4" cx="32.654" cy="146.922" rx="3.625" ry="4.768"/>
			<ellipse fill="#030303" cx="32.486" cy="148.375" rx="1.311" ry="2.453"/>
			<path fill="#FFFFFF" d="M32.536,152.803c-2.459,0-4.46-2.683-4.46-5.98c0-3.297,2.001-5.98,4.46-5.98
				c2.46,0,4.46,2.684,4.46,5.98C36.996,150.121,34.996,152.803,32.536,152.803z M32.536,142.276c-1.641,0-3.025,2.082-3.025,4.547
				s1.386,4.548,3.025,4.548c1.641,0,3.027-2.083,3.027-4.548S34.177,142.276,32.536,142.276z"/>
			<ellipse fill="#90CBD4" cx="59.89" cy="146.922" rx="3.625" ry="4.768"/>
			<ellipse fill="#030303" cx="59.722" cy="148.375" rx="1.31" ry="2.453"/>
			<path fill="#FFFFFF" d="M59.771,152.803c-2.459,0-4.46-2.683-4.46-5.98c0-3.297,2.001-5.98,4.46-5.98
				c2.46,0,4.46,2.684,4.46,5.98C64.231,150.121,62.231,152.803,59.771,152.803z M59.771,142.276c-1.641,0-3.026,2.082-3.026,4.547
				s1.387,4.548,3.026,4.548s3.026-2.083,3.026-4.548S61.412,142.276,59.771,142.276z"/>
			<ellipse fill="#90CBD4" cx="52.723" cy="149.072" rx="3.625" ry="4.767"/>
			<ellipse fill="#030303" cx="52.555" cy="150.526" rx="1.31" ry="2.453"/>
			<path fill="#FFFFFF" d="M52.604,154.954c-2.459,0-4.461-2.684-4.461-5.981s2.002-5.981,4.461-5.981c2.46,0,4.46,2.684,4.46,5.981
				S55.064,154.954,52.604,154.954z M52.604,144.425c-1.641,0-3.027,2.083-3.027,4.547s1.388,4.548,3.027,4.548
				s3.026-2.084,3.026-4.548S54.245,144.425,52.604,144.425z"/>
			<ellipse fill="#90CBD4" cx="39.104" cy="149.788" rx="3.625" ry="4.768"/>
			<ellipse fill="#030303" cx="38.937" cy="151.243" rx="1.31" ry="2.453"/>
			<path fill="#FFFFFF" d="M38.987,155.67c-2.46,0-4.461-2.684-4.461-5.98c0-3.299,2.001-5.981,4.461-5.981
				c2.459,0,4.46,2.683,4.46,5.981C43.447,152.987,41.446,155.67,38.987,155.67z M38.987,145.142c-1.641,0-3.026,2.083-3.026,4.548
				c0,2.463,1.387,4.547,3.026,4.547c1.641,0,3.026-2.084,3.026-4.547C42.014,147.225,40.628,145.142,38.987,145.142z"/>
			<path fill="#90CBD4" d="M31.829,158.028c0.956-0.857,1.584-2.302,1.584-3.938c0-2.633-1.623-4.767-3.625-4.767
				c-2.003,0-3.626,2.134-3.626,4.767c0,0.142,0.008,0.282,0.018,0.42C28.106,155.651,30.001,156.809,31.829,158.028z"/>
			<path fill="#030303" d="M30.846,156.382c0.052-0.263,0.084-0.543,0.084-0.839c0-1.355-0.587-2.454-1.312-2.454
				c-0.589,0-1.083,0.735-1.246,1.74C29.208,155.338,30.032,155.856,30.846,156.382z"/>
			<path fill="#FFFFFF" d="M32.093,159.069l-0.516-0.345c-1.687-1.13-3.595-2.319-6.003-3.739l-0.332-0.196l-0.02-0.386
				c-0.008-0.16-0.015-0.285-0.015-0.414c0-3.297,2-5.98,4.461-5.98c2.459,0,4.46,2.684,4.46,5.98c0,1.8-0.592,3.483-1.621,4.621
				L32.093,159.069z M26.643,153.95c2.02,1.197,3.688,2.231,5.178,3.214c0.562-0.849,0.876-1.972,0.876-3.175
				c0-2.465-1.386-4.547-3.025-4.547C28.037,149.442,26.657,151.503,26.643,153.95z"/>
			<path fill="#90CBD4" d="M66.089,152.21c-0.556-1.699-1.838-2.89-3.332-2.89c-2.002,0-3.625,2.135-3.625,4.768
				c0,0.508,0.062,0.996,0.173,1.454C61.54,154.399,63.841,153.36,66.089,152.21z"/>
			<path fill="#FFFFFF" d="M58.604,156.712l-0.212-0.892c-0.143-0.597-0.215-1.213-0.215-1.83c0-3.299,2.001-5.981,4.461-5.981
				c1.892,0,3.581,1.603,4.204,3.989l0.146,0.557l-0.512,0.262c-1.148,0.588-2.325,1.155-3.462,1.703
				c-1.188,0.572-2.414,1.163-3.597,1.773L58.604,156.712z M62.639,149.442c-1.642,0-3.027,2.084-3.027,4.547
				c0,0.195,0.009,0.391,0.026,0.584c0.919-0.461,1.849-0.908,2.755-1.344c0.966-0.467,1.934-0.933,2.893-1.414
				C64.755,150.375,63.735,149.442,62.639,149.442z"/>
			<path fill="#90CBD4" d="M37.102,161.958c1.209-0.772,2.045-2.399,2.045-4.286c0-2.633-1.623-4.768-3.625-4.768
				s-3.625,2.134-3.625,4.768c0,0.139,0.007,0.275,0.016,0.412C33.725,159.298,35.466,160.577,37.102,161.958z"/>
			<path fill="#030303" d="M36.462,160.418c0.126-0.376,0.2-0.816,0.2-1.292c0-1.354-0.587-2.453-1.31-2.453
				c-0.626,0-1.146,0.823-1.277,1.921C34.89,159.185,35.689,159.789,36.462,160.418z"/>
			<path fill="#FFFFFF" d="M37.277,163.052l-0.456-0.39c-1.631-1.393-3.444-2.749-5.545-4.143l-0.303-0.201l-0.018-0.362
				c-0.009-0.165-0.015-0.273-0.015-0.384c0-3.299,2.002-5.981,4.461-5.981c2.46,0,4.46,2.683,4.46,5.981
				c0,2.101-0.794,4.007-2.122,5.098L37.277,163.052z M32.376,157.53c1.811,1.215,3.412,2.405,4.875,3.621
				c0.736-0.86,1.179-2.175,1.179-3.578c0-2.465-1.386-4.547-3.026-4.547C33.772,153.026,32.393,155.084,32.376,157.53z"/>
			<path fill="#90CBD4" d="M59.855,155.265c-0.343-2.166-1.802-3.793-3.549-3.793c-2.003,0-3.626,2.134-3.626,4.769
				c0,1.086,0.28,2.084,0.746,2.887C55.433,157.608,57.614,156.39,59.855,155.265z"/>
			<path fill="#FFFFFF" d="M52.966,160.382l-0.4-0.748c-0.548-1.024-0.838-2.233-0.838-3.495c0-3.297,2.001-5.98,4.461-5.98
				c2.197,0,4.047,2.107,4.398,5.011l0.06,0.5l-0.45,0.226c-2.021,1.016-4.379,2.279-6.56,3.969L52.966,160.382z M56.188,151.592
				c-1.641,0-3.027,2.083-3.027,4.547c0,0.719,0.112,1.411,0.33,2.042c1.891-1.368,3.848-2.44,5.595-3.331
				C58.704,152.962,57.514,151.592,56.188,151.592z"/>
			<ellipse fill="#90CBD4" cx="45.556" cy="154.805" rx="3.625" ry="4.768"/>
			<ellipse fill="#030303" cx="45.388" cy="156.258" rx="1.31" ry="2.453"/>
			<path fill="#FFFFFF" d="M45.438,160.688c-2.46,0-4.461-2.684-4.461-5.98c0-3.299,2.001-5.981,4.461-5.981s4.46,2.683,4.46,5.981
				C49.897,158.004,47.897,160.688,45.438,160.688z M45.438,150.159c-1.641,0-3.027,2.084-3.027,4.548s1.388,4.547,3.027,4.547
				s3.026-2.083,3.026-4.547C48.464,152.241,47.078,150.159,45.438,150.159z"/>
			<path fill="#90CBD4" d="M49.475,162.932c0.582-0.726,1.202-1.419,1.879-2.06c0.899-0.851,1.85-1.613,2.838-2.312
				c0.001-0.058,0.006-0.113,0.006-0.173c0-2.633-1.623-4.767-3.624-4.767c-2.003,0-3.626,2.134-3.626,4.767
				C46.947,160.52,48.009,162.321,49.475,162.932z"/>
			<path fill="#030303" d="M51.354,160.873c0.113-0.107,0.229-0.206,0.346-0.312c-0.075-1.221-0.623-2.173-1.295-2.173
				c-0.724,0-1.31,1.099-1.31,2.454c0,0.786,0.201,1.479,0.509,1.927C50.147,162.102,50.727,161.465,51.354,160.873z"/>
			<path fill="#FFFFFF" d="M49.43,164.157l-0.526-0.26c-1.74-0.854-2.909-3.108-2.909-5.607c0-3.299,2.001-5.981,4.46-5.981
				c2.461,0,4.461,2.683,4.461,5.981c0,0.076-0.004,0.15-0.008,0.224l-0.017,0.433l-0.289,0.203
				c-1.022,0.723-1.924,1.455-2.756,2.243c-0.711,0.675-1.384,1.427-2.06,2.3L49.43,164.157z M50.454,153.743
				c-1.641,0-3.025,2.082-3.025,4.547c0,1.703,0.637,3.236,1.628,4.017c0.588-0.722,1.182-1.364,1.805-1.955
				c0.802-0.758,1.662-1.469,2.62-2.163C53.443,155.77,52.072,153.743,50.454,153.743z"/>
			<ellipse fill="#90CBD4" cx="40.538" cy="159.106" rx="3.625" ry="4.768"/>
			<ellipse fill="#030303" cx="40.37" cy="161.559" rx="1.311" ry="2.453"/>
			<path fill="#FFFFFF" d="M40.421,164.987c-0.413,0-0.83-0.08-1.243-0.237l-0.141-0.054l-0.106-0.105
				c-0.573-0.564-1.193-1.136-1.896-1.743l-0.092-0.08l-0.062-0.104c-0.604-1.055-0.923-2.319-0.923-3.655
				c0-3.298,2.001-5.981,4.461-5.981c2.459,0,4.459,2.684,4.459,5.981C44.88,162.304,42.88,164.987,40.421,164.987z M39.823,163.458
				c1.915,0.605,3.624-1.693,3.624-4.45c0-2.465-1.386-4.547-3.025-4.547c-1.641,0-3.027,2.083-3.027,4.547
				c0,1.028,0.239,2.031,0.677,2.84C38.711,162.403,39.286,162.932,39.823,163.458z"/>
			<path fill="#90CBD4" d="M45.556,168.89c0.109,0,0.219-0.009,0.325-0.022c0.911-1.949,1.97-3.817,3.25-5.5
				c-0.275-2.273-1.771-4.012-3.575-4.012c-2.002,0-3.625,2.133-3.625,4.768C41.931,166.757,43.554,168.89,45.556,168.89z"/>
			<path fill="#030303" d="M45.387,169.03c0.181,0,0.354-0.069,0.509-0.193c0.232-0.495,0.474-0.984,0.726-1.469
				c0.047-0.25,0.076-0.514,0.076-0.791c0-1.355-0.587-2.453-1.311-2.453s-1.311,1.098-1.311,2.453
				C44.076,167.931,44.665,169.03,45.387,169.03z"/>
			<path fill="#FFFFFF" d="M45.438,170.004c-2.46,0-4.461-2.684-4.461-5.98c0-3.298,2.001-5.98,4.461-5.98
				c2.248,0,4.149,2.252,4.423,5.24l0.025,0.277l-0.17,0.223c-1.228,1.607-2.328,3.5-3.365,5.783l-0.171,0.377l-0.412,0.039
				C45.635,169.996,45.537,170.004,45.438,170.004z M45.438,159.476c-1.641,0-3.027,2.083-3.027,4.548
				c0,2.362,1.274,4.375,2.825,4.536c0.979-2.095,2.02-3.872,3.167-5.417C48.124,161.034,46.879,159.476,45.438,159.476z"/>
		</g>
	</g>
	<g>
		<g>
			<path fill="#030303" d="M64.962,36.778c-4.746,0-7.817-4.075-7.945-4.248l-0.169-0.228l-2.353-6.331l1.832-0.715
				c5.241-2.047,6.863-3.804,8.917-6.029c0.806-0.872,1.638-1.773,2.734-2.753c3.284-2.932,6.457-8.229,6.489-8.282l3.815-6.407
				l-0.099,7.457c-0.027,2.03-0.46,19.988-7.271,25.301C69.015,36.026,67.011,36.778,64.962,36.778z M60.384,30.334
				c0.517,0.597,2.3,2.444,4.578,2.444c1.137,0,2.312-0.468,3.494-1.39c3.027-2.361,4.545-9.341,5.233-15.173
				c-0.942,1.149-1.979,2.29-3.047,3.242c-0.954,0.852-1.72,1.681-2.46,2.483c-1.977,2.142-3.854,4.177-8.583,6.285L60.384,30.334z"
				/>
		</g>
		<g>
			<path fill="#030303" d="M20.864,35.542c-6.81-5.312-7.242-23.271-7.27-25.301l-0.1-7.457l3.816,6.407
				c0.032,0.053,3.205,5.35,6.489,8.282c1.098,0.98,1.93,1.882,2.733,2.753c2.055,2.225,3.677,3.982,8.917,6.029l1.832,0.715
				l-2.352,6.331l-0.169,0.228c-0.128,0.173-3.199,4.248-7.945,4.248C24.771,37.778,22.767,37.026,20.864,35.542z M32.181,29.225
				c-4.729-2.108-6.607-4.144-8.583-6.285c-0.74-0.802-1.506-1.631-2.46-2.483c-1.066-0.952-2.104-2.093-3.047-3.242
				c0.688,5.832,2.206,12.812,5.233,15.173c1.183,0.922,2.357,1.39,3.494,1.39c2.278,0,4.062-1.847,4.578-2.444L32.181,29.225z"/>
		</g>
		<path fill="#FFFFFF" d="M67.437,55.59c0,4.418-3.582,8-8,8h-29c-4.418,0-8-3.582-8-8l0,0c0-4.418,3.582-8,8-8h29
			C63.854,47.59,67.437,51.172,67.437,55.59L67.437,55.59z"/>
		<path fill="#030303" d="M88.54,29.59H68.104c-3.575-2-5.364-3.218-5.364-3.218c-4.864-1.758-10.304-2.037-13.304-1.923v0.141h-9
			v-0.152c-3-0.091-7.885,0.225-12.613,1.934c0,0-1.376,1.218-4.951,3.218H2.437c0,0-1.276,16,15.071,18h3.319
			c0,0-0.511,5.424,0,10.247c0,0,0.635,4.997,3.698,10.328c0,0,1.91,11.85,1.91,16.926v8.377c0,0,0.451,4.55,4.697,5.565
			c0,0,5.612,2.557,12.725,2.557h1.491l0.004-1h0.271l0.004,1h1.49c7.111,0,12.672-2.557,12.672-2.557
			c4.248-1.016,4.646-5.565,4.646-5.565V85.09c0-5.077,1.963-16.88,1.963-16.88c3.064-5.331,3.925-10.374,3.925-10.374
			c0.511-4.823-0.175-10.247-0.175-10.247h3.32C89.817,45.59,88.54,29.59,88.54,29.59z M31.852,56.093
			c-1.189,2.147-3.459,3.165-5.069,2.272s-1.952-3.357-0.762-5.504c1.189-2.147,3.459-3.165,5.07-2.272
			C32.701,51.482,33.042,53.946,31.852,56.093z M64.091,58.366c-1.61,0.892-3.88-0.125-5.069-2.272
			c-1.19-2.147-0.85-4.612,0.761-5.504c1.611-0.893,3.881,0.125,5.07,2.272C66.043,55.009,65.702,57.473,64.091,58.366z"/>
		<path fill="#90CBD4" d="M59.624,93.673c0,0-0.646-0.083-0.812-4.083l-5.223-5.667c-4.167-4.333-3.807-19.667-3.807-19.667
			c-0.167-8.167,4.889-14.833,4.889-14.833c4.333-6.167,2.942-8.333,2.942-8.333c-0.333-4-5.615-6.5-5.615-6.5
			c-1.08-0.442-1.914-0.707-2.562-0.866V33.59h-0.637c-1.038-0.176-1.363,0-1.363,0h-4c0,0-1.083-0.5-4.75,1
			c0,0-5.376,2.5-5.709,6.5c0,0-1.438,2.166,2.896,8.333c0,0,5.031,6.667,4.864,14.833c0,0,0.351,15.333-3.816,19.667l-5.235,5.667
			c-0.166,4-0.625,4.083-0.625,4.083s1.108,1.328,4.914,2.138c1.999-3.123,5.65-5.221,9.838-5.221c4.117,0,7.717,2.029,9.736,5.065
			C58.737,94.84,59.624,93.673,59.624,93.673z"/>
		<path fill="#70A4AA" d="M45.813,89.09c-4.188,0-7.839,2.623-9.838,6.526c1.623,0.432,3.728,0.747,6.461,0.762v0.212h7v-0.225
			c2.639-0.089,4.625-0.469,6.113-0.944C53.53,91.627,49.931,89.09,45.813,89.09z"/>
	</g>
</g>
</svg>
