<?xml version="1.0" encoding="utf-8"?>
<!-- Generator: Adobe Illustrator 16.0.0, SVG Export Plug-In . SVG Version: 6.00 Build 0)  -->
<!DOCTYPE svg PUBLIC "-//W3C//DTD SVG 1.1//EN" "http://www.w3.org/Graphics/SVG/1.1/DTD/svg11.dtd">
<svg version="1.1" id="Calque_1" xmlns="http://www.w3.org/2000/svg" xmlns:xlink="http://www.w3.org/1999/xlink" x="0px" y="0px"
	 width="1384px" height="1035.89px" viewBox="222.065 0 1384 1035.89" enable-background="new 222.065 0 1384 1035.89"
	 xml:space="preserve">
	<defs>
  <style type="text/css">
    @font-face {
	    font-family: 'Roboto';
	    src: url('../../fonts/roboto/Roboto-Thin.eot');
	    src: url('../../fonts/roboto/Roboto-Thin.eot?#iefix') format('embedded-opentype'),
	         url('../../fonts/roboto/Roboto-Thin.woff') format('woff'),
	         url('../../fonts/roboto/Roboto-Thin.ttf') format('truetype'),
	         url('../../fonts/roboto/Roboto-Thin.svg#Roboto') format('svg');
	}
  </style>
</defs>
<g id="Calque_5">
	<line fill="none" stroke="#706F6F" stroke-width="1.1215" stroke-miterlimit="10" x1="397.409" y1="275" x2="397.409" y2="586"/>
	
		<line fill="none" stroke="#706F6F" stroke-width="0.8073" stroke-miterlimit="10" x1="763.409" y1="275.129" x2="763.409" y2="804"/>
	<line fill="none" stroke="#706F6F" stroke-width="0.6104" stroke-miterlimit="10" x1="1435.592" y1="275" x2="1435.592" y2="904"/>
	<line fill="none" stroke="#706F6F" stroke-width="0.5292" stroke-miterlimit="10" x1="1012.409" y1="277" x2="1012.409" y2="882"/>
	
		<line fill="none" stroke="#706F6F" stroke-width="0.5391" stroke-miterlimit="10" x1="1225.409" y1="276.25" x2="1225.409" y2="904"/>
	<rect x="661.331" y="235.309" fill="none" width="201.996" height="96.875"/>
	<text transform="matrix(1 0 0 1 637.3562 251.3042)" fill="#706F6F" font-family="'Roboto'" letter-spacing="1px" font-size="30">Commerce de gros</text>
	<rect x="254.75" y="235" fill="none" width="287.25" height="67"/>
	<text transform="matrix(1 0 0 1 293.3142 250.9956)" fill="#706F6F" font-family="'Roboto'" letter-spacing="1px" font-size="30">Agroalimentaire</text>
	<rect x="932.831" y="234.426" fill="none" width="160.169" height="62.574"/>
	<text transform="matrix(1 0 0 1 905.1057 250.4214)" fill="#706F6F" font-family="'Roboto'" letter-spacing="1px" font-size="30">R&amp;D scientifique</text>
	<rect x="1316.43" y="234.661" fill="none" width="237.821" height="188.766"/>
	<text transform="matrix(1 0 0 1 1349.8948 250.6577)" fill="#706F6F" font-family="'Roboto'" letter-spacing="1px" font-size="30">Industrie chimique</text>
	<rect x="1182.166" y="234.164" fill="none" width="90.834" height="40.836"/>
	<text transform="matrix(1 0 0 1 1174.0559 250.1597)" fill="#706F6F" font-family="'Roboto'" letter-spacing="1px" font-size="30">Holding</text>
	<path fill="#D36058" d="M751.756,164.681h-21.249c-0.073,0-0.149,0.015-0.228,0.036v11.075c0,0.43-0.338,0.783-0.768,0.783H706.67
		c-0.444,0-0.787-0.354-0.787-0.783v-11.075c-0.072-0.021-0.144-0.036-0.228-0.036h-21.25c-0.423,0-0.773,0.35-0.773,0.779v51.473
		c0,0.422,0.353,0.775,0.773,0.775h67.349c0.431,0,0.778-0.353,0.778-0.775V165.46C752.534,165.03,752.187,164.681,751.756,164.681
		L751.756,164.681z M722.685,194.568c-0.438,0-0.779,0.35-0.779,0.787v14.767h-7.633v-14.767c0-0.437-0.342-0.787-0.779-0.787
		h-3.862l8.459-11.565l8.459,11.565H722.685z"/>
	<path fill="#D36058" d="M833.336,164.681h-21.25c-0.083,0-0.149,0.015-0.22,0.036v11.075c0,0.43-0.35,0.783-0.777,0.783h-22.844
		c-0.437,0-0.781-0.354-0.781-0.783v-11.075c-0.069-0.021-0.146-0.036-0.227-0.036h-21.25c-0.43,0-0.778,0.35-0.778,0.779v51.473
		c0,0.422,0.35,0.775,0.778,0.775h67.349c0.437,0,0.781-0.353,0.781-0.775V165.46C834.117,165.03,833.773,164.681,833.336,164.681
		L833.336,164.681z M804.26,194.568c-0.438,0-0.779,0.35-0.779,0.787v14.767h-7.641v-14.767c0-0.437-0.338-0.787-0.775-0.787h-3.868
		l8.467-11.565l8.459,11.565H804.26z"/>
	<path fill="#D36058" d="M794.584,100.585h-21.25c-0.08,0-0.156,0.012-0.228,0.04V111.7c0,0.422-0.338,0.779-0.765,0.779H749.49
		c-0.43,0-0.778-0.357-0.778-0.779v-11.075c-0.069-0.028-0.144-0.04-0.22-0.04h-21.257c-0.423,0-0.779,0.354-0.779,0.776v51.473
		c0,0.43,0.356,0.779,0.779,0.779h67.347c0.438,0,0.787-0.349,0.787-0.779v-51.473C795.369,100.938,795.021,100.585,794.584,100.585
		L794.584,100.585z M765.512,130.47c-0.435,0-0.78,0.349-0.78,0.787v14.771H757.1v-14.771c0-0.438-0.35-0.787-0.78-0.787h-3.864
		l8.46-11.566l8.46,11.566H765.512z"/>
	
		<line fill="none" stroke="#D36058" stroke-width="0.663" stroke-miterlimit="10" x1="778.462" y1="164.936" x2="829.448" y2="164.936"/>
	
		<line fill="none" stroke="#D36058" stroke-width="0.663" stroke-miterlimit="10" x1="695.869" y1="164.936" x2="746.855" y2="164.936"/>
	
		<line fill="none" stroke="#D36058" stroke-width="0.663" stroke-miterlimit="10" x1="734.973" y1="100.96" x2="785.956" y2="100.96"/>
	<g>
		<g>
			<g>
				<path fill="#D36058" d="M1212.264,136.098c0,0-0.039,0.954,0.896,0.954c1.167,0,10.806-0.015,10.806-0.015l0.011-8.854
					c0,0-0.15-1.453,1.269-1.453h4.482c1.68,0,1.568,1.453,1.568,1.453l-0.012,8.834h10.568c1.189,0,1.146-1.201,1.146-1.201
					v-16.322l-14.91-13.26l-15.824,13.26V136.098L1212.264,136.098z"/>
				<path fill="#D36058" d="M1206.436,118.254c0,0,1.34,2.479,4.27,0l17.516-14.812l16.416,14.726c3.389,2.45,4.661,0,4.661,0
					l-21.077-19.093L1206.436,118.254z"/>
			</g>
			<g>
				<path fill="#D36058" d="M1212.264,136.098c0,0-0.039,0.954,0.896,0.954c1.167,0,10.806-0.015,10.806-0.015l0.011-8.854
					c0,0-0.15-1.453,1.269-1.453h4.482c1.68,0,1.568,1.453,1.568,1.453l-0.012,8.834h10.568c1.189,0,1.146-1.201,1.146-1.201
					v-16.322l-14.91-13.26l-15.824,13.26V136.098L1212.264,136.098z"/>
				<path fill="#D36058" d="M1206.436,118.254c0,0,1.34,2.479,4.27,0l17.516-14.812l16.416,14.726c3.389,2.45,4.661,0,4.661,0
					l-21.077-19.093L1206.436,118.254z"/>
			</g>
		</g>
		<g>
			<g>
				<path fill="#B3B3B3" d="M1158.264,215.498c0,0-0.039,0.959,0.905,0.959c1.167,0,10.8-0.02,10.8-0.02l0.02-8.854
					c0,0-0.16-1.447,1.271-1.447h4.478c1.672,0,1.572,1.447,1.572,1.447l-0.019,8.834h10.565c1.201,0,1.145-1.201,1.145-1.201
					V198.89l-14.91-13.255l-15.824,13.255L1158.264,215.498L1158.264,215.498z"/>
				<path fill="#B3B3B3" d="M1152.439,197.655c0,0,1.342,2.479,4.279,0l17.505-14.809l16.421,14.722c3.384,2.444,4.666,0,4.666,0
					l-21.087-19.094L1152.439,197.655z"/>
			</g>
			<g>
				<path fill="#C6C6C6" d="M1158.264,215.498c0,0-0.039,0.959,0.905,0.959c1.167,0,10.8-0.02,10.8-0.02l0.02-8.854
					c0,0-0.16-1.447,1.271-1.447h4.478c1.672,0,1.572,1.447,1.572,1.447l-0.019,8.834h10.565c1.201,0,1.145-1.201,1.145-1.201
					V198.89l-14.91-13.255l-15.824,13.255L1158.264,215.498L1158.264,215.498z"/>
				<path fill="#C6C6C6" d="M1152.439,197.655c0,0,1.342,2.479,4.279,0l17.505-14.809l16.421,14.722c3.384,2.444,4.666,0,4.666,0
					l-21.087-19.094L1152.439,197.655z"/>
			</g>
		</g>
		<g>
			<g>
				<path fill="#C6C6C6" d="M1211.465,215.498c0,0-0.034,0.959,0.898,0.959c1.166,0,10.807-0.02,10.807-0.02l0.01-8.854
					c0,0-0.15-1.447,1.269-1.447h4.487c1.67,0,1.564,1.447,1.564,1.447l-0.013,8.834h10.567c1.191,0,1.146-1.201,1.146-1.201V198.89
					l-14.913-13.255l-15.825,13.255L1211.465,215.498L1211.465,215.498z"/>
				<path fill="#C6C6C6" d="M1205.642,197.655c0,0,1.331,2.479,4.269,0l17.512-14.809l16.426,14.722c3.379,2.444,4.666,0,4.666,0
					l-21.092-19.094L1205.642,197.655z"/>
			</g>
			<g>
				<path fill="#C6C6C6" d="M1211.465,215.498c0,0-0.034,0.959,0.898,0.959c1.166,0,10.807-0.02,10.807-0.02l0.01-8.854
					c0,0-0.15-1.447,1.269-1.447h4.487c1.67,0,1.564,1.447,1.564,1.447l-0.013,8.834h10.567c1.191,0,1.146-1.201,1.146-1.201V198.89
					l-14.913-13.255l-15.825,13.255L1211.465,215.498L1211.465,215.498z"/>
				<path fill="#C6C6C6" d="M1205.642,197.655c0,0,1.331,2.479,4.269,0l17.512-14.809l16.426,14.722c3.379,2.444,4.666,0,4.666,0
					l-21.092-19.094L1205.642,197.655z"/>
			</g>
		</g>
		<g>
			<g>
				<path fill="#FFFFFF" d="M1265.459,216.287c0,0-0.043,0.959,0.896,0.959c1.167,0,10.801-0.015,10.801-0.015l0.021-8.858
					c0,0-0.146-1.448,1.269-1.448h4.479c1.671,0,1.572,1.448,1.572,1.448l-0.021,8.834h10.568c1.193,0,1.146-1.195,1.146-1.195
					v-16.324l-14.911-13.268l-15.817,13.268v16.599H1265.459z"/>
				<path fill="#FFFFFF" d="M1259.627,198.443c0,0,1.346,2.479,4.272,0l17.509-14.808l16.428,14.722c3.389,2.443,4.661,0,4.661,0
					l-21.089-19.088L1259.627,198.443z"/>
			</g>
			<g>
				<path fill="#C6C6C6" d="M1265.459,216.287c0,0-0.043,0.959,0.896,0.959c1.167,0,10.801-0.015,10.801-0.015l0.021-8.858
					c0,0-0.146-1.448,1.269-1.448h4.479c1.671,0,1.572,1.448,1.572,1.448l-0.021,8.834h10.568c1.193,0,1.146-1.195,1.146-1.195
					v-16.324l-14.911-13.268l-15.817,13.268v16.599H1265.459z"/>
				<path fill="#C6C6C6" d="M1259.627,198.443c0,0,1.346,2.479,4.272,0l17.509-14.808l16.428,14.722c3.389,2.443,4.661,0,4.661,0
					l-21.089-19.088L1259.627,198.443z"/>
			</g>
		</g>
		<g>
			<g>
				
					<line fill="none" stroke="#D3574C" stroke-width="1.102" stroke-linecap="round" stroke-linejoin="round" x1="1227.139" y1="141.238" x2="1227.149" y2="142.616"/>
				
					<line fill="none" stroke="#D3574C" stroke-width="1.102" stroke-linecap="round" stroke-linejoin="round" stroke-dasharray="2.9171,2.9171" x1="1227.172" y1="145.533" x2="1227.34" y2="167.41"/>
				
					<line fill="none" stroke="#D3574C" stroke-width="1.102" stroke-linecap="round" stroke-linejoin="round" x1="1227.352" y1="168.869" x2="1227.362" y2="170.246"/>
			</g>
		</g>
		<g>
			<g>
				
					<line fill="none" stroke="#D3574C" stroke-width="0.7964" stroke-linecap="round" stroke-linejoin="round" x1="1283.033" y1="157.475" x2="1283.043" y2="158.47"/>
				
					<line fill="none" stroke="#D3574C" stroke-width="0.7964" stroke-linecap="round" stroke-linejoin="round" stroke-dasharray="1.8803,1.8803" x1="1283.058" y1="160.35" x2="1283.141" y2="170.691"/>
				
					<line fill="none" stroke="#D3574C" stroke-width="0.7964" stroke-linecap="round" stroke-linejoin="round" x1="1283.148" y1="171.631" x2="1283.156" y2="172.627"/>
			</g>
		</g>
		<g>
			<g>
				
					<line fill="none" stroke="#D3574C" stroke-width="0.7646" stroke-linecap="round" stroke-linejoin="round" x1="1174.854" y1="158.662" x2="1174.861" y2="159.618"/>
				
					<line fill="none" stroke="#D3574C" stroke-width="0.7646" stroke-linecap="round" stroke-linejoin="round" stroke-dasharray="1.722,1.722" x1="1174.875" y1="161.34" x2="1174.948" y2="170.811"/>
				
					<line fill="none" stroke="#D3574C" stroke-width="0.7646" stroke-linecap="round" stroke-linejoin="round" x1="1174.957" y1="171.671" x2="1174.965" y2="172.627"/>
			</g>
		</g>
		<g>
			<g>
				
					<line fill="none" stroke="#D3574C" stroke-width="1.0593" stroke-linecap="round" stroke-linejoin="round" x1="1282.038" y1="157.828" x2="1280.716" y2="157.838"/>
				
					<line fill="none" stroke="#D3574C" stroke-width="1.0593" stroke-linecap="round" stroke-linejoin="round" stroke-dasharray="2.6953,2.6953" x1="1278.021" y1="157.86" x2="1176.948" y2="158.66"/>
				
					<line fill="none" stroke="#D3574C" stroke-width="1.0593" stroke-linecap="round" stroke-linejoin="round" x1="1175.602" y1="158.67" x2="1174.277" y2="158.681"/>
			</g>
		</g>
	</g>
	<g>
		<g>
			<g>
				<path fill="none" stroke="#FFFFFF" stroke-width="20.3573" stroke-miterlimit="10" d="M1064.293,202.005"/>
			</g>
			<g>
				<rect x="1064" y="138" fill="#6DA5AA" width="22" height="69"/>
			</g>
			<g>
				<ellipse fill="#6DA5AA" cx="1076.028" cy="205.207" rx="10.315" ry="7.998"/>
			</g>
			<g>
				<path fill="#C6C6C6" d="M1076.105,216.946c-8.408,0-15.246-9.946-15.246-15.946h5.545c0,6,4.354,10.152,9.701,10.152
					c5.349,0,9.699-4.152,9.699-10.152h5.545C1091.35,207,1084.512,216.946,1076.105,216.946z"/>
			</g>
		</g>
		<polyline fill="none" stroke="#C6C6C6" stroke-width="5.6835" stroke-miterlimit="10" points="1063.582,201.649 1063.582,109.57 
			1088.42,109.57 1088.42,202.861 		"/>
		<path fill="#C6C6C6" d="M1096.234,106.018c0,3.336-3.136,6.039-7.004,6.039h-27.197c-3.868,0-7.004-2.703-7.004-6.039l0,0
			c0-3.335,3.136-6.038,7.004-6.038h27.197C1093.099,99.979,1096.234,102.683,1096.234,106.018L1096.234,106.018z"/>
		<g>
			<rect x="1002" y="138" fill="#D45F58" width="22" height="69"/>
		</g>
		<g>
			<ellipse fill="#D45F58" cx="1013.51" cy="205.207" rx="10.313" ry="7.998"/>
		</g>
		<g>
			<path fill="#C6C6C6" d="M1013.588,216.946c-8.409,0-15.247-9.946-15.247-15.946h5.545c0,6,4.352,10.152,9.702,10.152
				c5.347,0,9.697-4.152,9.697-10.152h5.544C1028.832,207,1021.992,216.946,1013.588,216.946z"/>
		</g>
		<polyline fill="none" stroke="#C6C6C6" stroke-width="5.6835" stroke-miterlimit="10" points="1001.063,201.649 1001.063,109.57 
			1025.901,109.57 1025.901,202.861 		"/>
		<path fill="#C6C6C6" d="M1033.716,106.018c0,3.336-3.138,6.039-7.005,6.039h-27.196c-3.868,0-7.004-2.703-7.004-6.039l0,0
			c0-3.335,3.136-6.038,7.004-6.038h27.196C1030.578,99.979,1033.716,102.683,1033.716,106.018L1033.716,106.018z"/>
		<g>
			<g>
				<rect x="939" y="138" fill="#8ECDD4" width="23" height="69"/>
			</g>
			<g>
				<rect x="939" y="138" fill="#8DCCD4" width="23" height="69"/>
			</g>
		</g>
		<g>
			<g>
				<path fill="#8ECDD4" d="M961.307,205.207c0,4.418-4.618,7.998-10.315,7.998c-5.692,0-10.313-3.58-10.313-7.998
					s4.621-8.003,10.313-8.003C956.689,197.204,961.307,200.789,961.307,205.207z"/>
			</g>
			<g>
				<path fill="#8DCCD4" d="M961.307,205.207c0,4.418-4.618,7.998-10.315,7.998c-5.692,0-10.313-3.58-10.313-7.998
					s4.621-8.003,10.313-8.003C956.689,197.204,961.307,200.789,961.307,205.207z"/>
			</g>
		</g>
		<g>
			<path fill="#C6C6C6" d="M951.069,216.946c-8.409,0-15.247-9.946-15.247-15.946h5.545c0,6,4.353,10.152,9.702,10.152
				c5.348,0,9.699-4.152,9.699-10.152h5.544C966.313,207,959.475,216.946,951.069,216.946z"/>
		</g>
		<polyline fill="none" stroke="#C6C6C6" stroke-width="5.6835" stroke-miterlimit="10" points="938.545,201.649 938.545,109.57 
			963.383,109.57 963.383,201.861 		"/>
		<path fill="#C6C6C6" d="M971.197,106.018c0,3.336-3.136,6.039-7.004,6.039h-27.196c-3.867,0-7.004-2.703-7.004-6.039l0,0
			c0-3.335,3.138-6.038,7.004-6.038h27.196C968.062,99.979,971.197,102.683,971.197,106.018L971.197,106.018z"/>
	</g>
</g>
<g id="Calque_1_1_" display="none">
	
		<line display="inline" fill="none" stroke="#706F6F" stroke-width="1.0494" stroke-miterlimit="10" x1="993.828" y1="275.336" x2="993.828" y2="337.67"/>
	
		<line display="inline" fill="none" stroke="#706F6F" stroke-width="1.0494" stroke-miterlimit="10" x1="793.327" y1="95" x2="793.327" y2="157.334"/>
	<rect x="1003.75" y="276" display="inline" fill="none" width="44.5" height="18"/>
	<text transform="matrix(1 0 0 1 1003.7502 280.2593)" display="inline" font-family="'MyriadPro-Regular'" font-size="6">Commerce de </text>
	<text transform="matrix(1 0 0 1 1003.7502 287.4585)" display="inline" font-family="'MyriadPro-Regular'" font-size="6">gros</text>
	
		<line display="inline" fill="none" stroke="#706F6F" stroke-width="1.0494" stroke-miterlimit="10" x1="1079.829" y1="346.003" x2="1079.829" y2="408.336"/>
	<rect x="1089.084" y="347.333" display="inline" fill="none" width="44.5" height="18"/>
	<text transform="matrix(1 0 0 1 1089.0842 351.5913)" display="inline" font-family="'MyriadPro-Regular'" font-size="6">R&amp;D scientifique</text>
	
		<line display="inline" fill="none" stroke="#706F6F" stroke-width="1.0494" stroke-miterlimit="10" x1="1137.162" y1="356.67" x2="1137.162" y2="419.003"/>
	<rect x="1144.416" y="356.667" display="inline" fill="none" width="44.5" height="18"/>
	<text transform="matrix(1 0 0 1 1144.4163 360.9263)" display="inline" font-family="'MyriadPro-Regular'" font-size="6">Holding</text>
	
		<line display="inline" fill="none" stroke="#706F6F" stroke-width="0.9304" stroke-miterlimit="10" x1="1188.495" y1="374" x2="1188.495" y2="423.003"/>
	<rect x="1195.082" y="373.333" display="inline" fill="none" width="44.5" height="18"/>
	<text transform="matrix(1 0 0 1 1195.0842 377.5933)" display="inline" font-family="'MyriadPro-Regular'" font-size="6">Industrie </text>
	<text transform="matrix(1 0 0 1 1195.0842 384.7925)" display="inline" font-family="'MyriadPro-Regular'" font-size="6">chimique</text>
	<rect x="799.668" y="95.518" display="inline" fill="none" width="63.25" height="21"/>
	<text transform="matrix(1 0 0 1 799.6672 99.7769)" display="inline" font-family="'MyriadPro-Regular'" font-size="6">Agroalimentaire</text>
</g>
<g id="Calque_4">
	<path fill="#F09748" d="M540.267,916.636c0,25.881-64.258,46.863-143.516,46.863c-79.264,0-143.516-20.982-143.516-46.863
		c0-25.883,64.251-46.867,143.516-46.867C476.009,869.769,540.267,890.753,540.267,916.636z"/>
	<polygon fill="#F09748" points="540,657 540,916.216 253,915.917 253,657 	"/>
	<path fill="#E06C3A" d="M540.937,650.978c0,23.738-64.406,42.982-143.847,42.982c-79.444,0-143.854-19.244-143.854-42.982
		c0-23.732,64.408-42.979,143.854-42.979C476.531,608,540.937,627.244,540.937,650.978z"/>
	<ellipse fill="#64BBAE" cx="762.913" cy="945.634" rx="51.663" ry="16.865"/>
	<ellipse fill="#F05F59" cx="1010.066" cy="953.434" rx="22.732" ry="8.065"/>
	<polygon fill="#F05F59" points="1032.998,906.035 1032.998,953.382 986.53,953.326 986.53,906.035 	"/>
	<path fill="#E05B5A" d="M1032.798,906.046c0,3.895-10.27,7.045-22.93,7.045c-12.659,0-22.929-3.15-22.929-7.045
		c0-3.891,10.269-7.047,22.929-7.047C1022.531,899,1032.798,902.156,1032.798,906.046z"/>
	<ellipse fill="#F09748" cx="1225.076" cy="957.412" rx="19.078" ry="6.105"/>
	<polygon fill="#F09748" points="1244,920 1244,957.578 1206,957.535 1206,920 	"/>
	<path fill="#E06C3A" d="M1243.802,920.056c0,3.092-8.483,5.602-18.942,5.602c-10.466,0-18.946-2.51-18.946-5.602
		c0-3.094,8.48-5.602,18.946-5.602C1235.319,914.455,1243.802,916.962,1243.802,920.056z"/>
	<path fill="#64BBAE" d="M1453.008,957.607c0,3.332-8.2,6.033-18.315,6.033c-10.12,0-18.316-2.701-18.316-6.033
		s8.197-6.035,18.316-6.035C1444.808,951.572,1453.008,954.275,1453.008,957.607z"/>
	<rect x="1416.426" y="920.324" fill="#64BBAE" width="36.596" height="37.285"/>
	<path fill="#46B2A0" d="M1453.022,920.699c0,3.049-8.208,5.531-18.325,5.531c-10.12,0-18.323-2.482-18.323-5.531
		c0-3.059,8.203-5.535,18.323-5.535C1444.814,915.164,1453.022,917.64,1453.022,920.699z"/>
	<rect x="711.252" y="842.529" fill="#64BBAE" width="103.222" height="105.08"/>
	<path fill="#46B2A0" d="M814.784,842.464c0,8.543-23.181,15.469-51.763,15.469c-28.591,0-51.771-6.926-51.771-15.469
		c0-8.539,23.18-15.465,51.771-15.465C791.604,827,814.784,833.925,814.784,842.464z"/>
</g>
<g id="Calque_3">
	<g>
		<path fill="none" stroke="#FFFFFF" stroke-width="3.1475" stroke-miterlimit="10" d="M1223.271,955.832"/>
	</g>
	<g>
		<path fill="none" stroke="#FFFFFF" stroke-width="3.1475" stroke-miterlimit="10" d="M1213.605,955.832"/>
	</g>
	<g>
		<ellipse fill="#91CDD6" cx="397.804" cy="108.533" rx="4.124" ry="5.424"/>
		<ellipse fill="#010202" cx="397.612" cy="111.324" rx="1.49" ry="2.792"/>
		<g>
			<path fill="#71A5AB" d="M423.656,139.094c-10.331,3.292-11.769,5.845-14.913,8.839c-8.426,8.02-11.34,20.271-11.34,20.271
				s-2.99-12.251-11.415-20.271c-3.145-2.995-4.62-5.548-14.952-8.839c-1.523-0.486-8.844-1.058-8.844-1.058
				s4.422,9.648,5.51,16.442c0,0,0.854,10.11,1.126,20.378c0,0,1.921,20.516,4.91,26.926c0,0,2.85,9.653,10.729,13.188
				c0,0,3.966,2.429,12.935,2.156c8.969,0.272,12.859-2.156,12.859-2.156c7.882-3.534,10.653-13.188,10.653-13.188
				c2.988-6.41,4.91-26.926,4.91-26.926c0.272-10.268,1.126-20.378,1.126-20.378c1.09-6.794,5.512-16.442,5.512-16.442
				S425.182,138.607,423.656,139.094z M390.518,198.969c-1.855-12.881-3.943-26.692-12.188-37.238
				c-0.96-1.228,0.76-2.972,1.73-1.729c8.562,10.952,10.886,24.909,12.817,38.317C393.098,199.861,390.74,200.525,390.518,198.969z
				 M417.837,161.731c-8.246,10.546-10.333,24.357-12.188,37.238c-0.223,1.556-2.581,0.892-2.359-0.65
				c1.933-13.408,4.256-27.365,12.817-38.317C417.077,158.759,418.797,160.503,417.837,161.731z"/>
			<path fill="#FFFFFF" d="M397.67,115.225c-2.801,0-5.075-3.053-5.075-6.804c0-3.752,2.274-6.804,5.075-6.804
				c2.798,0,5.072,3.052,5.072,6.804C402.742,112.172,400.468,115.225,397.67,115.225z M397.67,103.248
				c-1.866,0-3.444,2.368-3.444,5.173c0,2.804,1.578,5.173,3.444,5.173c1.864,0,3.441-2.369,3.441-5.173
				C401.113,105.616,399.534,103.248,397.67,103.248z"/>
			<ellipse fill="#91CDD6" cx="390.466" cy="113.425" rx="4.125" ry="5.424"/>
			<ellipse fill="#010202" cx="390.274" cy="116.216" rx="1.49" ry="2.791"/>
			<path fill="#FFFFFF" d="M390.33,120.117c-2.798,0-5.073-3.053-5.073-6.804s2.275-6.804,5.073-6.804
				c2.799,0,5.074,3.053,5.074,6.804S393.129,120.117,390.33,120.117z M390.33,108.139c-1.865,0-3.442,2.37-3.442,5.173
				s1.578,5.173,3.442,5.173c1.866,0,3.443-2.37,3.443-5.173S392.198,108.139,390.33,108.139z"/>
			<ellipse fill="#91CDD6" cx="405.142" cy="113.425" rx="4.124" ry="5.424"/>
			<ellipse fill="#010202" cx="404.949" cy="116.216" rx="1.49" ry="2.791"/>
			<path fill="#FFFFFF" d="M405.008,120.117c-2.797,0-5.074-3.053-5.074-6.804s2.277-6.804,5.074-6.804
				c2.798,0,5.072,3.053,5.072,6.804S407.806,120.117,405.008,120.117z M405.008,108.139c-1.866,0-3.444,2.37-3.444,5.173
				s1.578,5.173,3.444,5.173c1.864,0,3.441-2.37,3.441-5.173S406.872,108.139,405.008,108.139z"/>
			<ellipse fill="#91CDD6" cx="397.804" cy="118.318" rx="4.124" ry="5.423"/>
			<ellipse fill="#010202" cx="397.612" cy="121.109" rx="1.49" ry="2.79"/>
			<path fill="#FFFFFF" d="M397.67,125.009c-2.801,0-5.075-3.053-5.075-6.804c0-3.752,2.274-6.804,5.075-6.804
				c2.798,0,5.072,3.052,5.072,6.804C402.742,121.956,400.468,125.009,397.67,125.009z M397.67,113.032
				c-1.866,0-3.444,2.369-3.444,5.173c0,2.804,1.578,5.173,3.444,5.173c1.864,0,3.441-2.369,3.441-5.173
				C401.113,115.401,399.534,113.032,397.67,113.032z"/>
			<ellipse fill="#91CDD6" cx="384.758" cy="119.949" rx="4.124" ry="5.424"/>
			<ellipse fill="#010202" cx="384.567" cy="121.602" rx="1.49" ry="2.791"/>
			<path fill="#FFFFFF" d="M384.622,126.639c-2.798,0-5.072-3.052-5.072-6.804s2.274-6.803,5.072-6.803
				c2.8,0,5.074,3.051,5.074,6.803S387.422,126.639,384.622,126.639z M384.622,114.662c-1.865,0-3.442,2.37-3.442,5.173
				c0,2.803,1.578,5.173,3.442,5.173c1.866,0,3.443-2.37,3.443-5.173C388.067,117.032,386.49,114.662,384.622,114.662z"/>
			<ellipse fill="#91CDD6" cx="410.85" cy="119.949" rx="4.124" ry="5.424"/>
			<ellipse fill="#010202" cx="410.657" cy="122.739" rx="1.491" ry="2.791"/>
			<path fill="#FFFFFF" d="M410.716,126.639c-2.8,0-5.075-3.052-5.075-6.804s2.273-6.803,5.075-6.803
				c2.797,0,5.072,3.051,5.072,6.803S413.513,126.639,410.716,126.639z M410.716,114.662c-1.866,0-3.444,2.37-3.444,5.173
				c0,2.803,1.578,5.173,3.444,5.173c1.864,0,3.44-2.37,3.44-5.173C414.156,117.032,412.581,114.662,410.716,114.662z"/>
			<ellipse fill="#91CDD6" cx="390.466" cy="123.209" rx="4.125" ry="5.424"/>
			<ellipse fill="#010202" cx="390.274" cy="124.863" rx="1.49" ry="2.791"/>
			<path fill="#FFFFFF" d="M390.33,129.9c-2.798,0-5.073-3.053-5.073-6.803c0-3.751,2.275-6.805,5.073-6.805
				c2.799,0,5.074,3.053,5.074,6.805C395.406,126.848,393.129,129.9,390.33,129.9z M390.33,117.924
				c-1.865,0-3.442,2.369-3.442,5.173c0,2.803,1.578,5.173,3.442,5.173c1.866,0,3.443-2.37,3.443-5.173
				C393.775,120.293,392.198,117.924,390.33,117.924z"/>
			<ellipse fill="#91CDD6" cx="404.325" cy="123.209" rx="4.124" ry="5.424"/>
			<ellipse fill="#010202" cx="404.136" cy="123.726" rx="1.489" ry="2.79"/>
			<path fill="#FFFFFF" d="M404.192,129.9c-2.798,0-5.073-3.053-5.073-6.803c0-3.751,2.275-6.805,5.073-6.805
				s5.073,3.053,5.073,6.805C409.266,126.848,406.99,129.9,404.192,129.9z M404.192,117.924c-1.866,0-3.443,2.369-3.443,5.173
				c0,2.803,1.577,5.173,3.443,5.173s3.443-2.37,3.443-5.173C407.636,120.293,406.059,117.924,404.192,117.924z"/>
			<ellipse fill="#91CDD6" cx="397.804" cy="128.917" rx="4.124" ry="5.424"/>
			<ellipse fill="#010202" cx="397.612" cy="130.571" rx="1.49" ry="2.791"/>
			<path fill="#FFFFFF" d="M397.67,135.608c-2.801,0-5.075-3.052-5.075-6.803c0-3.752,2.274-6.805,5.075-6.805
				c2.798,0,5.072,3.053,5.072,6.805C402.742,132.556,400.468,135.608,397.67,135.608z M397.67,123.63
				c-1.866,0-3.444,2.371-3.444,5.175c0,2.803,1.578,5.172,3.444,5.172c1.864,0,3.441-2.369,3.441-5.172
				C401.113,126.001,399.534,123.63,397.67,123.63z"/>
			<ellipse fill="#91CDD6" cx="383.127" cy="128.917" rx="4.124" ry="5.424"/>
			<ellipse fill="#010202" cx="382.937" cy="130.571" rx="1.49" ry="2.791"/>
			<path fill="#FFFFFF" d="M382.991,135.608c-2.797,0-5.072-3.052-5.072-6.803c0-3.752,2.274-6.805,5.072-6.805
				c2.8,0,5.074,3.053,5.074,6.805C388.067,132.556,385.79,135.608,382.991,135.608z M382.991,123.63
				c-1.864,0-3.441,2.371-3.441,5.175c0,2.803,1.577,5.172,3.441,5.172c1.867,0,3.444-2.369,3.444-5.172
				C386.437,126.001,384.859,123.63,382.991,123.63z"/>
			<ellipse fill="#91CDD6" cx="414.111" cy="128.917" rx="4.124" ry="5.424"/>
			<ellipse fill="#010202" cx="413.92" cy="130.571" rx="1.488" ry="2.791"/>
			<path fill="#FFFFFF" d="M413.976,135.608c-2.797,0-5.073-3.052-5.073-6.803c0-3.752,2.276-6.805,5.073-6.805
				c2.799,0,5.075,3.053,5.075,6.805C419.051,132.556,416.775,135.608,413.976,135.608z M413.976,123.63
				c-1.866,0-3.442,2.371-3.442,5.175c0,2.803,1.576,5.172,3.442,5.172c1.867,0,3.444-2.369,3.444-5.172
				C417.42,126.001,415.843,123.63,413.976,123.63z"/>
			<ellipse fill="#91CDD6" cx="405.956" cy="131.364" rx="4.124" ry="5.423"/>
			<ellipse fill="#010202" cx="405.767" cy="133.017" rx="1.49" ry="2.791"/>
			<path fill="#FFFFFF" d="M405.823,138.055c-2.797,0-5.074-3.052-5.074-6.804c0-3.751,2.277-6.804,5.074-6.804
				c2.799,0,5.074,3.053,5.074,6.804S408.62,138.055,405.823,138.055z M405.823,126.077c-1.866,0-3.442,2.369-3.442,5.173
				s1.576,5.174,3.442,5.174s3.442-2.37,3.442-5.174S407.689,126.077,405.823,126.077z"/>
			<ellipse fill="#91CDD6" cx="390.466" cy="132.179" rx="4.125" ry="5.424"/>
			<ellipse fill="#010202" cx="390.274" cy="133.833" rx="1.49" ry="2.789"/>
			<path fill="#FFFFFF" d="M390.33,138.87c-2.798,0-5.073-3.053-5.073-6.804c0-3.752,2.275-6.804,5.073-6.804
				c2.799,0,5.074,3.052,5.074,6.804C395.406,135.817,393.129,138.87,390.33,138.87z M390.33,126.893
				c-1.865,0-3.442,2.369-3.442,5.173s1.578,5.173,3.442,5.173c1.866,0,3.443-2.37,3.443-5.173
				C393.775,129.261,392.198,126.893,390.33,126.893z"/>
			<path fill="#91CDD6" d="M382.188,141.552c1.087-0.976,1.802-2.618,1.802-4.481c0-2.996-1.846-5.423-4.124-5.423
				c-2.276,0-4.125,2.427-4.125,5.423c0,0.161,0.008,0.32,0.021,0.478C377.951,138.847,380.109,140.166,382.188,141.552z"/>
			<path fill="#010202" d="M381.07,139.679c0.061-0.299,0.097-0.617,0.097-0.955c0-1.542-0.669-2.792-1.49-2.792
				c-0.67,0-1.232,0.837-1.418,1.979C379.204,138.492,380.144,139.08,381.07,139.679z"/>
			<path fill="#FFFFFF" d="M382.488,142.737l-0.586-0.393c-1.918-1.286-4.089-2.639-6.829-4.254l-0.377-0.223l-0.021-0.438
				c-0.011-0.183-0.019-0.326-0.019-0.471c0-3.751,2.277-6.804,5.076-6.804c2.797,0,5.073,3.052,5.073,6.804
				c0,2.047-0.672,3.962-1.844,5.256L382.488,142.737z M376.286,136.914c2.299,1.361,4.195,2.538,5.892,3.655
				c0.639-0.965,0.997-2.244,0.997-3.611c0-2.804-1.577-5.173-3.443-5.173C377.872,131.785,376.305,134.129,376.286,136.914z"/>
			<path fill="#91CDD6" d="M421.162,134.934c-0.632-1.932-2.092-3.286-3.791-3.286c-2.276,0-4.124,2.427-4.124,5.423
				c0,0.577,0.07,1.132,0.197,1.654C415.989,137.424,418.606,136.242,421.162,134.934z"/>
			<path fill="#FFFFFF" d="M412.649,140.055l-0.241-1.014c-0.162-0.68-0.244-1.38-0.244-2.083c0-3.751,2.275-6.804,5.075-6.804
				c2.151,0,4.073,1.824,4.782,4.538l0.166,0.633l-0.582,0.298c-1.307,0.669-2.645,1.314-3.938,1.937
				c-1.353,0.65-2.747,1.322-4.094,2.017L412.649,140.055z M417.239,131.785c-1.866,0-3.442,2.37-3.442,5.173
				c0,0.222,0.009,0.443,0.027,0.663c1.046-0.524,2.104-1.034,3.135-1.529c1.101-0.53,2.2-1.06,3.293-1.609
				C419.646,132.845,418.486,131.785,417.239,131.785z"/>
			<path fill="#91CDD6" d="M388.187,146.023c1.375-0.879,2.326-2.729,2.326-4.875c0-2.996-1.847-5.424-4.124-5.424
				s-4.124,2.428-4.124,5.424c0,0.158,0.007,0.314,0.018,0.469C384.345,142.998,386.324,144.452,388.187,146.023z"/>
			<path fill="#010202" d="M387.456,144.271c0.146-0.428,0.229-0.929,0.229-1.47c0-1.542-0.668-2.791-1.49-2.791
				c-0.712,0-1.306,0.936-1.454,2.185C385.67,142.868,386.578,143.555,387.456,144.271z"/>
			<path fill="#FFFFFF" d="M388.386,147.268l-0.521-0.444c-1.854-1.584-3.919-3.126-6.308-4.712l-0.345-0.228l-0.021-0.412
				c-0.009-0.187-0.016-0.312-0.016-0.437c0-3.751,2.276-6.804,5.075-6.804c2.798,0,5.072,3.053,5.072,6.804
				c0,2.391-0.901,4.559-2.414,5.8L388.386,147.268z M382.811,140.986c2.059,1.382,3.882,2.736,5.545,4.118
				c0.839-0.979,1.341-2.474,1.341-4.07c0-2.803-1.577-5.173-3.441-5.173C384.399,135.862,382.828,138.204,382.811,140.986z"/>
			<path fill="#91CDD6" d="M414.072,138.409c-0.39-2.464-2.049-4.314-4.037-4.314c-2.277,0-4.126,2.427-4.126,5.423
				c0,1.236,0.319,2.373,0.852,3.285C409.039,141.073,411.522,139.689,414.072,138.409z"/>
			<path fill="#FFFFFF" d="M406.234,144.231l-0.456-0.851c-0.624-1.165-0.953-2.54-0.953-3.977c0-3.75,2.277-6.803,5.075-6.803
				c2.5,0,4.604,2.397,5.004,5.699l0.068,0.57l-0.512,0.257c-2.301,1.155-4.981,2.592-7.464,4.514L406.234,144.231z M409.9,134.23
				c-1.866,0-3.443,2.37-3.443,5.173c0,0.818,0.129,1.605,0.375,2.323c2.149-1.555,4.376-2.777,6.364-3.789
				C412.762,135.789,411.406,134.23,409.9,134.23z"/>
			<ellipse fill="#91CDD6" cx="397.804" cy="137.887" rx="4.124" ry="5.423"/>
			<ellipse fill="#010202" cx="397.612" cy="139.54" rx="1.49" ry="2.791"/>
			<path fill="#FFFFFF" d="M397.67,144.577c-2.801,0-5.075-3.052-5.075-6.804s2.274-6.804,5.075-6.804
				c2.798,0,5.072,3.052,5.072,6.804S400.468,144.577,397.67,144.577z M397.67,132.6c-1.866,0-3.444,2.369-3.444,5.173
				s1.578,5.173,3.444,5.173c1.864,0,3.441-2.37,3.441-5.173C401.113,134.969,399.534,132.6,397.67,132.6z"/>
			<path fill="#91CDD6" d="M402.263,147.132c0.662-0.826,1.368-1.614,2.138-2.343c1.022-0.968,2.104-1.835,3.229-2.628
				c0.001-0.066,0.007-0.131,0.007-0.197c0-2.995-1.849-5.423-4.124-5.423c-2.278,0-4.125,2.429-4.125,5.423
				C399.388,144.386,400.595,146.436,402.263,147.132z"/>
			<path fill="#010202" d="M404.4,144.789c0.129-0.122,0.262-0.235,0.396-0.354c-0.088-1.39-0.709-2.472-1.476-2.472
				c-0.823,0-1.49,1.249-1.49,2.792c0,0.895,0.229,1.681,0.579,2.192C403.028,146.188,403.687,145.463,404.4,144.789z"/>
			<path fill="#FFFFFF" d="M402.212,148.525l-0.602-0.295c-1.979-0.973-3.31-3.537-3.31-6.38c0-3.752,2.275-6.804,5.074-6.804
				s5.072,3.052,5.072,6.804c0,0.086-0.003,0.17-0.008,0.255l-0.019,0.491l-0.329,0.232c-1.164,0.821-2.188,1.656-3.138,2.553
				c-0.808,0.767-1.572,1.622-2.341,2.615L402.212,148.525z M403.377,136.677c-1.867,0-3.443,2.369-3.443,5.173
				c0,1.938,0.725,3.681,1.852,4.57c0.669-0.821,1.347-1.553,2.056-2.225c0.912-0.862,1.891-1.671,2.979-2.46
				C406.778,138.982,405.218,136.677,403.377,136.677z"/>
			<ellipse fill="#91CDD6" cx="392.097" cy="142.779" rx="4.124" ry="5.423"/>
			<ellipse fill="#010202" cx="391.906" cy="145.57" rx="1.491" ry="2.79"/>
			<path fill="#FFFFFF" d="M391.962,149.47c-0.472,0-0.944-0.091-1.414-0.271l-0.159-0.06l-0.122-0.12
				c-0.652-0.644-1.358-1.292-2.155-1.982l-0.104-0.091l-0.07-0.121c-0.686-1.199-1.05-2.638-1.05-4.158
				c0-3.751,2.274-6.804,5.075-6.804c2.798,0,5.071,3.052,5.071,6.804C397.034,146.417,394.76,149.47,391.962,149.47z
				 M391.281,147.729c2.181,0.689,4.123-1.927,4.123-5.063c0-2.804-1.577-5.173-3.441-5.173c-1.866,0-3.443,2.369-3.443,5.173
				c0,1.169,0.271,2.311,0.77,3.231C390.018,146.53,390.672,147.132,391.281,147.729z"/>
			<path fill="#91CDD6" d="M397.804,153.91c0.125,0,0.249-0.011,0.37-0.025c1.037-2.218,2.239-4.344,3.695-6.258
				c-0.312-2.586-2.013-4.565-4.065-4.565c-2.277,0-4.124,2.428-4.124,5.424C393.681,151.482,395.527,153.91,397.804,153.91z"/>
			<path fill="#010202" d="M397.612,154.067c0.205,0,0.402-0.078,0.579-0.219c0.264-0.563,0.539-1.12,0.826-1.67
				c0.052-0.284,0.086-0.584,0.086-0.901c0-1.542-0.667-2.792-1.49-2.792c-0.821,0-1.49,1.25-1.49,2.792
				C396.12,152.819,396.788,154.067,397.612,154.067z"/>
			<path fill="#FFFFFF" d="M397.67,155.177c-2.801,0-5.075-3.052-5.075-6.804c0-3.751,2.274-6.804,5.075-6.804
				c2.558,0,4.72,2.563,5.029,5.961l0.029,0.313l-0.193,0.253c-1.396,1.83-2.647,3.982-3.829,6.579l-0.192,0.429l-0.469,0.046
				C397.895,155.167,397.781,155.177,397.67,155.177z M397.67,143.2c-1.866,0-3.444,2.37-3.444,5.173
				c0,2.688,1.45,4.976,3.215,5.161c1.113-2.382,2.295-4.405,3.604-6.162C400.725,144.973,399.31,143.2,397.67,143.2z"/>
		</g>
	</g>
	<g>
		<rect x="1444.521" y="148.519" fill="#D36058" width="27.415" height="5.272"/>
		<polygon fill="#D36058" points="1423.012,170.481 1415.571,196.875 1410.494,195.449 1417.93,169.059 		"/>
		
			<rect x="1390.725" y="125.849" transform="matrix(0.571 0.821 -0.821 0.571 708.0286 -1097.8743)" fill="#D36058" width="27.422" height="5.279"/>
		<path fill="#D36058" d="M1451.189,150.628c0,15.34-12.426,27.766-27.764,27.766c-15.333,0-27.77-12.425-27.77-27.766
			s12.436-27.774,27.77-27.774C1438.763,122.854,1451.189,135.288,1451.189,150.628z"/>
		<path fill="#D36058" d="M1422.48,200.181c0,7.6-6.167,13.768-13.766,13.762c-7.604,0-13.768-6.17-13.768-13.768
			c0-7.606,6.174-13.759,13.773-13.759C1416.32,186.417,1422.48,192.579,1422.48,200.181z"/>
		<path fill="#D36058" d="M1492.791,151.335c0,7.605-6.159,13.762-13.767,13.762c-7.604-0.003-13.766-6.162-13.766-13.768
			c0.007-7.597,6.166-13.758,13.771-13.758S1492.798,143.733,1492.791,151.335z"/>
		<path fill="#D36058" d="M1407.672,116.179c0,7.592-6.159,13.754-13.768,13.754c-7.599,0-13.766-6.17-13.759-13.763
			c0-7.602,6.167-13.764,13.766-13.764C1401.517,102.411,1407.672,108.569,1407.672,116.179z"/>
		<path fill="#E54848" d="M1420.818,178.119c0,0-3.878-0.528-5.33-1.036C1414.031,176.578,1418.531,178.659,1420.818,178.119z"/>
	</g>
</g>
</svg>
