<?xml version="1.0" encoding="utf-8"?>
<!-- Generator: Adobe Illustrator 16.0.0, SVG Export Plug-In . SVG Version: 6.00 Build 0)  -->
<!DOCTYPE svg PUBLIC "-//W3C//DTD SVG 1.1//EN" "http://www.w3.org/Graphics/SVG/1.1/DTD/svg11.dtd">
<svg version="1.1" id="Calque_1" xmlns="http://www.w3.org/2000/svg" xmlns:xlink="http://www.w3.org/1999/xlink" x="0px" y="0px"
	 width="595.28px" height="290.91px" viewBox="0 0 595.28 290.91" enable-background="new 0 0 595.28 290.91" xml:space="preserve">
<defs>
  <style type="text/css">
    @font-face {
	    font-family: 'Roboto';
	    src: url('../../fonts/roboto/Roboto-Thin.eot');
	    src: url('../../fonts/roboto/Roboto-Thin.eot?#iefix') format('embedded-opentype'),
	         url('../../fonts/roboto/Roboto-Thin.woff') format('woff'),
	         url('../../fonts/roboto/Roboto-Thin.ttf') format('truetype'),
	         url('../../fonts/roboto/Roboto-Thin.svg#Roboto') format('svg');
	}
  </style>
</defs>
<line fill="none" stroke="#706F6F" stroke-width="0.5" stroke-miterlimit="10" x1="264.598" y1="61.517" x2="264.598" y2="107.886"/>
<rect x="240.37" y="43.204" fill="none" width="49.08" height="25.203"/>
<text transform="matrix(1 0 0 1 244.2158 51.5767)" fill="#706F6F" font-family="'Roboto'" letter-spacing="1px" font-size="11">Quimper</text>
<line fill="none" stroke="#706F6F" stroke-width="0.5" stroke-miterlimit="10" x1="156.949" y1="189.701" x2="110.58" y2="189.701"/>
<rect x="53.37" y="181.871" fill="none" width="49.08" height="25.202"/>
<text transform="matrix(1 0 0 1 66.1035 190.2495)" fill="#706F6F" font-family="'Roboto'" letter-spacing="1px" font-size="11">Rennes</text>
<line fill="none" stroke="#706F6F" stroke-width="0.5" stroke-miterlimit="10" x1="235.615" y1="249.701" x2="189.246" y2="249.701"/>
<rect x="102.037" y="240.871" fill="none" width="78.081" height="25.202"/>
<text transform="matrix(1 0 0 1 154.7773 249.2495)" fill="#706F6F" font-family="'Roboto'" letter-spacing="1px" font-size="11">Brest</text>
<line fill="none" stroke="#706F6F" stroke-width="0.5" stroke-miterlimit="10" x1="417.782" y1="156.7" x2="371.413" y2="156.7"/>
<rect x="426.703" y="148.87" fill="none" width="96.297" height="25.434"/>
<text transform="matrix(1 0 0 1 426.7031 157.2485)" fill="#706F6F" font-family="'Roboto'" letter-spacing="1px" font-size="11">Nantes</text>
<line fill="none" stroke="#706F6F" stroke-width="0.5" stroke-miterlimit="10" x1="426.449" y1="201.701" x2="380.08" y2="201.701"/>
<rect x="435.37" y="193.871" fill="none" width="78.08" height="25.202"/>
<text transform="matrix(1 0 0 1 435.3701 202.2495)" fill="#706F6F" font-family="'Roboto'" letter-spacing="1px" font-size="11">Saint-Brieuc</text>
<ellipse fill="#F09748" cx="196.479" cy="224.293" rx="30.397" ry="14.662"/>
<polygon fill="#F09748" points="227,142.303 227,223.329 166,223.234 166,142.303 "/>
<ellipse fill="#E06C3A" cx="196.5" cy="142.612" rx="30.5" ry="13.445"/>
<path fill="#64BBAE" d="M293.876,192.676c0,8.438-13.61,15.279-30.398,15.279s-30.396-6.841-30.396-15.279
	c0-8.436,13.608-15.276,30.396-15.276S293.876,184.241,293.876,192.676z"/>
<polygon fill="#64BBAE" points="294,126.303 294,192.706 233,192.625 233,126.303 "/>
<ellipse fill="#46B2A0" cx="263.5" cy="129.612" rx="30.5" ry="13.445"/>
<path fill="#F05F59" d="M361.876,167.633c0,8.287-13.61,15.004-30.398,15.004s-30.396-6.717-30.396-15.004
	c0-8.283,13.608-15,30.396-15S361.876,159.35,361.876,167.633z"/>
<polygon fill="#F05F59" points="362,130.303 362,168.641 301,168.595 301,130.303 "/>
<ellipse fill="#E05B5A" cx="331.5" cy="129.612" rx="30.5" ry="13.445"/>
<ellipse fill="#F09748" cx="341.479" cy="210.293" rx="30.397" ry="14.662"/>
<polygon fill="#F09748" points="372,162.303 372,211.659 311,211.601 311,162.303 "/>
<ellipse fill="#E06C3A" cx="341.5" cy="162.612" rx="30.5" ry="13.445"/>
<ellipse fill="#F05F59" cx="275.479" cy="244.293" rx="30.397" ry="14.662"/>
<polygon fill="#F05F59" points="306,196.303 306,245.659 245,245.601 245,196.303 "/>
<ellipse fill="#E05B5A" cx="275.5" cy="196.612" rx="30.5" ry="13.445"/>
</svg>
