<?xml version="1.0" encoding="utf-8"?>
<!-- Generator: Adobe Illustrator 16.0.0, SVG Export Plug-In . SVG Version: 6.00 Build 0)  -->
<!DOCTYPE svg PUBLIC "-//W3C//DTD SVG 1.1//EN" "http://www.w3.org/Graphics/SVG/1.1/DTD/svg11.dtd">
<svg version="1.1" id="Calque_1" xmlns="http://www.w3.org/2000/svg" xmlns:xlink="http://www.w3.org/1999/xlink" x="0px" y="0px"
	 width="191px" height="105.333px" viewBox="0.053 -1.581 191 105.333" enable-background="new 0.053 -1.581 191 105.333"
	 xml:space="preserve">
<g id="Valorial">
	<g>
		<ellipse fill="#90CBD4" cx="158.65" cy="6.116" rx="3.625" ry="4.768"/>
		<ellipse fill="#030303" cx="158.482" cy="8.571" rx="1.31" ry="2.453"/>
		<g>
			<path fill="#70A4AA" d="M181.374,32.979c-9.081,2.893-10.345,5.139-13.108,7.771c-7.405,7.049-9.969,17.819-9.969,17.819
				s-2.628-10.771-10.032-17.819c-2.766-2.632-4.062-4.878-13.145-7.771c-1.34-0.427-7.773-0.931-7.773-0.931
				s3.889,8.481,4.845,14.454c0,0,0.751,8.888,0.989,17.912c0,0,1.688,18.035,4.315,23.668c0,0,2.503,8.484,9.433,11.593
				c0,0,3.484,2.136,11.368,1.896c7.885,0.24,11.305-1.896,11.305-1.896c6.93-3.106,9.364-11.593,9.364-11.593
				c2.629-5.635,4.316-23.668,4.316-23.668c0.238-9.024,0.99-17.912,0.99-17.912c0.955-5.973,4.844-14.454,4.844-14.454
				S182.715,32.552,181.374,32.979z M152.244,85.612c-1.631-11.324-3.466-23.463-10.714-32.733
				c-0.845-1.079,0.667-2.612,1.521-1.521c7.526,9.627,9.568,21.896,11.268,33.682C154.512,86.395,152.441,86.979,152.244,85.612z
				 M176.259,52.877c-7.247,9.271-9.082,21.41-10.714,32.732c-0.195,1.367-2.269,0.783-2.072-0.57
				c1.696-11.787,3.738-24.055,11.268-33.682C175.593,50.265,177.102,51.798,176.259,52.877z"/>
			<path fill="#FFFFFF" d="M158.532,11.997c-2.46,0-4.461-2.684-4.461-5.979s2.001-5.979,4.461-5.979s4.46,2.684,4.46,5.979
				S160.991,11.997,158.532,11.997z M158.532,1.47c-1.642,0-3.027,2.082-3.027,4.547c0,2.464,1.388,4.548,3.027,4.548
				c1.639,0,3.025-2.084,3.025-4.548C161.557,3.552,160.172,1.47,158.532,1.47z"/>
			<ellipse fill="#90CBD4" cx="152.198" cy="10.417" rx="3.625" ry="4.77"/>
			<ellipse fill="#030303" cx="152.031" cy="12.87" rx="1.31" ry="2.453"/>
			<path fill="#FFFFFF" d="M152.081,16.297c-2.46,0-4.461-2.684-4.461-5.979c0-3.299,2.001-5.981,4.461-5.981
				c2.459,0,4.46,2.683,4.46,5.981C156.541,13.614,154.54,16.297,152.081,16.297z M152.081,5.77c-1.641,0-3.026,2.084-3.026,4.547
				c0,2.465,1.388,4.547,3.026,4.547c1.641,0,3.026-2.082,3.026-4.547C155.107,7.854,153.721,5.77,152.081,5.77z"/>
			<ellipse fill="#90CBD4" cx="165.099" cy="10.417" rx="3.625" ry="4.77"/>
			<ellipse fill="#030303" cx="164.931" cy="12.87" rx="1.311" ry="2.453"/>
			<path fill="#FFFFFF" d="M164.982,16.297c-2.459,0-4.46-2.684-4.46-5.979c0-3.299,2.001-5.981,4.46-5.981
				c2.46,0,4.46,2.683,4.46,5.981C169.442,13.614,167.442,16.297,164.982,16.297z M164.982,5.77c-1.643,0-3.027,2.084-3.027,4.547
				c0,2.465,1.387,4.547,3.027,4.547c1.64,0,3.024-2.082,3.024-4.547C168.009,7.854,166.622,5.77,164.982,5.77z"/>
			<ellipse fill="#90CBD4" cx="158.65" cy="14.716" rx="3.625" ry="4.769"/>
			<ellipse fill="#030303" cx="158.482" cy="17.169" rx="1.31" ry="2.453"/>
			<path fill="#FFFFFF" d="M158.532,20.599c-2.46,0-4.461-2.685-4.461-5.979c0-3.299,2.001-5.98,4.461-5.98s4.46,2.684,4.46,5.98
				C162.991,17.915,160.991,20.599,158.532,20.599z M158.532,10.071c-1.642,0-3.027,2.082-3.027,4.547
				c0,2.463,1.388,4.547,3.027,4.547c1.639,0,3.025-2.084,3.025-4.547C161.557,12.153,160.172,10.071,158.532,10.071z"/>
			<ellipse fill="#90CBD4" cx="147.181" cy="16.15" rx="3.625" ry="4.768"/>
			<ellipse fill="#030303" cx="147.013" cy="17.604" rx="1.311" ry="2.453"/>
			<path fill="#FFFFFF" d="M147.064,22.032c-2.459,0-4.461-2.684-4.461-5.981c0-3.297,2.002-5.979,4.461-5.979
				c2.46,0,4.46,2.684,4.46,5.979C151.524,19.349,149.524,22.032,147.064,22.032z M147.064,11.503c-1.643,0-3.027,2.083-3.027,4.547
				c0,2.465,1.387,4.547,3.027,4.547c1.64,0,3.024-2.082,3.024-4.547C150.09,13.586,148.704,11.503,147.064,11.503z"/>
			<ellipse fill="#90CBD4" cx="170.116" cy="16.15" rx="3.625" ry="4.768"/>
			<ellipse fill="#030303" cx="169.948" cy="18.604" rx="1.311" ry="2.453"/>
			<path fill="#FFFFFF" d="M169.999,22.032c-2.46,0-4.461-2.684-4.461-5.981c0-3.297,2.001-5.979,4.461-5.979
				c2.459,0,4.46,2.684,4.46,5.979C174.459,19.349,172.458,22.032,169.999,22.032z M169.999,11.503
				c-1.641,0-3.026,2.083-3.026,4.547c0,2.465,1.388,4.547,3.026,4.547c1.641,0,3.026-2.082,3.026-4.547
				C173.026,13.586,171.639,11.503,169.999,11.503z"/>
			<ellipse fill="#90CBD4" cx="152.198" cy="19.016" rx="3.625" ry="4.768"/>
			<ellipse fill="#030303" cx="152.031" cy="20.47" rx="1.31" ry="2.453"/>
			<path fill="#FFFFFF" d="M152.081,24.899c-2.46,0-4.461-2.683-4.461-5.979c0-3.298,2.001-5.981,4.461-5.981
				c2.459,0,4.46,2.684,4.46,5.981C156.541,22.216,154.54,24.899,152.081,24.899z M152.081,14.37c-1.641,0-3.026,2.084-3.026,4.548
				c0,2.465,1.388,4.547,3.026,4.547c1.641,0,3.026-2.082,3.026-4.547C155.107,16.452,153.721,14.37,152.081,14.37z"/>
			<ellipse fill="#90CBD4" cx="164.384" cy="19.016" rx="3.625" ry="4.768"/>
			<ellipse fill="#030303" cx="164.215" cy="19.47" rx="1.312" ry="2.453"/>
			<path fill="#FFFFFF" d="M164.264,24.899c-2.459,0-4.46-2.683-4.46-5.979c0-3.298,2.001-5.981,4.46-5.981
				c2.46,0,4.46,2.684,4.46,5.981C168.724,22.216,166.724,24.899,164.264,24.899z M164.264,14.37c-1.642,0-3.026,2.084-3.026,4.548
				c0,2.465,1.387,4.547,3.026,4.547c1.641,0,3.025-2.082,3.025-4.547C167.291,16.452,165.906,14.37,164.264,14.37z"/>
			<ellipse fill="#90CBD4" cx="158.65" cy="24.034" rx="3.625" ry="4.768"/>
			<ellipse fill="#030303" cx="158.482" cy="25.487" rx="1.31" ry="2.453"/>
			<path fill="#FFFFFF" d="M158.532,29.915c-2.46,0-4.461-2.682-4.461-5.979c0-3.298,2.001-5.98,4.461-5.98s4.46,2.684,4.46,5.98
				C162.991,27.233,160.991,29.915,158.532,29.915z M158.532,19.388c-1.642,0-3.027,2.082-3.027,4.548
				c0,2.465,1.388,4.547,3.027,4.547c1.639,0,3.025-2.082,3.025-4.547C161.557,21.47,160.172,19.388,158.532,19.388z"/>
			<ellipse fill="#90CBD4" cx="145.748" cy="24.034" rx="3.625" ry="4.768"/>
			<ellipse fill="#030303" cx="145.58" cy="25.487" rx="1.311" ry="2.453"/>
			<path fill="#FFFFFF" d="M145.63,29.915c-2.459,0-4.46-2.682-4.46-5.979c0-3.298,2.001-5.98,4.46-5.98
				c2.46,0,4.46,2.684,4.46,5.98S148.09,29.915,145.63,29.915z M145.63,19.388c-1.641,0-3.024,2.082-3.024,4.548
				c0,2.465,1.386,4.547,3.024,4.547c1.641,0,3.027-2.082,3.027-4.547C148.657,21.47,147.27,19.388,145.63,19.388z"/>
			<ellipse fill="#90CBD4" cx="172.984" cy="24.034" rx="3.625" ry="4.768"/>
			<ellipse fill="#030303" cx="172.816" cy="25.487" rx="1.31" ry="2.453"/>
			<path fill="#FFFFFF" d="M172.865,29.915c-2.459,0-4.46-2.682-4.46-5.979c0-3.298,2.001-5.98,4.46-5.98
				c2.46,0,4.46,2.684,4.46,5.98S175.325,29.915,172.865,29.915z M172.865,19.388c-1.642,0-3.026,2.082-3.026,4.548
				c0,2.465,1.387,4.547,3.026,4.547c1.639,0,3.025-2.082,3.025-4.547C175.89,21.47,174.506,19.388,172.865,19.388z"/>
			<ellipse fill="#90CBD4" cx="165.817" cy="26.185" rx="3.625" ry="4.767"/>
			<ellipse fill="#030303" cx="165.649" cy="27.639" rx="1.31" ry="2.453"/>
			<path fill="#FFFFFF" d="M165.698,32.067c-2.459,0-4.461-2.685-4.461-5.981c0-3.298,2.002-5.981,4.461-5.981
				c2.46,0,4.46,2.684,4.46,5.981C170.158,29.382,168.158,32.067,165.698,32.067z M165.698,21.538c-1.642,0-3.027,2.082-3.027,4.547
				c0,2.464,1.388,4.548,3.027,4.548c1.639,0,3.025-2.084,3.025-4.548C168.723,23.62,167.339,21.538,165.698,21.538z"/>
			<ellipse fill="#90CBD4" cx="152.198" cy="26.9" rx="3.625" ry="4.768"/>
			<ellipse fill="#030303" cx="152.031" cy="28.355" rx="1.31" ry="2.453"/>
			<path fill="#FFFFFF" d="M152.081,32.782c-2.46,0-4.461-2.684-4.461-5.979c0-3.299,2.001-5.981,4.461-5.981
				c2.459,0,4.46,2.684,4.46,5.981C156.541,30.099,154.54,32.782,152.081,32.782z M152.081,22.254c-1.641,0-3.026,2.083-3.026,4.548
				c0,2.463,1.388,4.547,3.026,4.547c1.641,0,3.026-2.084,3.026-4.547C155.108,24.337,153.721,22.254,152.081,22.254z"/>
			<path fill="#90CBD4" d="M144.923,35.14c0.956-0.856,1.584-2.302,1.584-3.938c0-2.633-1.623-4.766-3.625-4.766
				c-2.003,0-3.626,2.133-3.626,4.766c0,0.143,0.008,0.283,0.019,0.42C141.2,32.763,143.094,33.921,144.923,35.14z"/>
			<path fill="#030303" d="M143.94,33.495c0.052-0.264,0.084-0.543,0.084-0.84c0-1.354-0.588-2.453-1.312-2.453
				c-0.589,0-1.083,0.734-1.246,1.74C142.302,32.45,143.126,32.968,143.94,33.495z"/>
			<path fill="#FFFFFF" d="M145.186,36.181l-0.516-0.345c-1.687-1.131-3.595-2.319-6.003-3.739l-0.332-0.196l-0.02-0.386
				c-0.009-0.159-0.016-0.284-0.016-0.413c0-3.298,2-5.98,4.461-5.98c2.459,0,4.46,2.684,4.46,5.98c0,1.799-0.592,3.482-1.621,4.62
				L145.186,36.181z M139.737,31.063c2.02,1.196,3.688,2.23,5.178,3.213c0.562-0.849,0.876-1.972,0.876-3.174
				c0-2.466-1.386-4.548-3.025-4.548C141.131,26.554,139.751,28.616,139.737,31.063z"/>
			<path fill="#90CBD4" d="M179.182,29.323c-0.556-1.699-1.838-2.891-3.332-2.891c-2.002,0-3.625,2.135-3.625,4.768
				c0,0.509,0.062,0.996,0.174,1.455C174.634,31.511,176.934,30.472,179.182,29.323z"/>
			<path fill="#FFFFFF" d="M171.698,33.825l-0.212-0.893c-0.144-0.597-0.216-1.213-0.216-1.83c0-3.299,2.002-5.98,4.462-5.98
				c1.892,0,3.58,1.603,4.203,3.988l0.146,0.558l-0.512,0.262c-1.148,0.588-2.325,1.155-3.462,1.703
				c-1.188,0.571-2.414,1.163-3.598,1.772L171.698,33.825z M175.733,26.554c-1.643,0-3.027,2.084-3.027,4.548
				c0,0.194,0.009,0.391,0.026,0.584c0.919-0.462,1.849-0.908,2.755-1.345c0.966-0.467,1.934-0.933,2.893-1.414
				C177.848,27.487,176.829,26.554,175.733,26.554z"/>
			<path fill="#90CBD4" d="M150.196,39.071c1.209-0.772,2.045-2.399,2.045-4.287c0-2.633-1.623-4.768-3.625-4.768
				s-3.625,2.135-3.625,4.768c0,0.14,0.007,0.275,0.016,0.412C146.819,36.411,148.559,37.69,150.196,39.071z"/>
			<path fill="#030303" d="M149.555,37.53c0.126-0.375,0.2-0.815,0.2-1.291c0-1.354-0.587-2.453-1.31-2.453
				c-0.626,0-1.146,0.822-1.277,1.92C147.984,36.297,148.783,36.901,149.555,37.53z"/>
			<path fill="#FFFFFF" d="M150.371,40.165l-0.456-0.391c-1.631-1.393-3.444-2.748-5.545-4.143l-0.303-0.201l-0.019-0.361
				c-0.009-0.166-0.015-0.273-0.015-0.385c0-3.299,2.002-5.98,4.461-5.98c2.46,0,4.46,2.683,4.46,5.98
				c0,2.102-0.794,4.008-2.122,5.098L150.371,40.165z M145.469,34.642c1.812,1.216,3.412,2.405,4.875,3.621
				c0.736-0.86,1.18-2.175,1.18-3.577c0-2.466-1.387-4.548-3.026-4.548C146.866,30.138,145.487,32.196,145.469,34.642z"/>
			<path fill="#90CBD4" d="M172.949,32.377c-0.343-2.166-1.802-3.793-3.549-3.793c-2.003,0-3.626,2.134-3.626,4.77
				c0,1.086,0.279,2.084,0.745,2.887C168.527,34.72,170.708,33.502,172.949,32.377z"/>
			<path fill="#FFFFFF" d="M166.059,37.495l-0.399-0.748c-0.548-1.024-0.838-2.233-0.838-3.495c0-3.298,2.001-5.979,4.461-5.979
				c2.196,0,4.047,2.106,4.397,5.01l0.061,0.5l-0.45,0.227c-2.021,1.016-4.379,2.279-6.56,3.969L166.059,37.495z M169.282,28.704
				c-1.642,0-3.027,2.084-3.027,4.548c0,0.719,0.112,1.411,0.33,2.042c1.891-1.368,3.848-2.439,5.595-3.331
				C171.798,30.075,170.608,28.704,169.282,28.704z"/>
			<ellipse fill="#90CBD4" cx="158.65" cy="31.917" rx="3.625" ry="4.769"/>
			<ellipse fill="#030303" cx="158.482" cy="33.37" rx="1.31" ry="2.453"/>
			<path fill="#FFFFFF" d="M158.532,37.8c-2.46,0-4.461-2.685-4.461-5.979c0-3.299,2.001-5.981,4.461-5.981s4.46,2.683,4.46,5.981
				C162.991,35.116,160.991,37.8,158.532,37.8z M158.532,27.272c-1.642,0-3.027,2.084-3.027,4.547c0,2.465,1.388,4.547,3.027,4.547
				c1.639,0,3.025-2.082,3.025-4.547S160.172,27.272,158.532,27.272z"/>
			<path fill="#90CBD4" d="M162.569,40.044c0.582-0.726,1.201-1.419,1.879-2.06c0.898-0.852,1.85-1.613,2.838-2.312
				c0.001-0.059,0.006-0.113,0.006-0.173c0-2.634-1.623-4.767-3.624-4.767c-2.003,0-3.626,2.133-3.626,4.767
				C160.041,37.632,161.102,39.433,162.569,40.044z"/>
			<path fill="#030303" d="M164.448,37.985c0.112-0.106,0.229-0.205,0.346-0.312c-0.075-1.222-0.623-2.173-1.295-2.173
				c-0.724,0-1.31,1.099-1.31,2.453c0,0.787,0.2,1.479,0.509,1.928C163.241,39.214,163.821,38.577,164.448,37.985z"/>
			<path fill="#FFFFFF" d="M162.524,41.27l-0.526-0.261c-1.74-0.854-2.909-3.108-2.909-5.606c0-3.299,2.001-5.981,4.46-5.981
				c2.461,0,4.461,2.683,4.461,5.981c0,0.076-0.004,0.149-0.008,0.224l-0.017,0.433l-0.289,0.203
				c-1.022,0.723-1.924,1.455-2.756,2.243c-0.712,0.675-1.385,1.427-2.061,2.3L162.524,41.27z M163.548,30.856
				c-1.641,0-3.024,2.082-3.024,4.547c0,1.703,0.637,3.235,1.628,4.017c0.588-0.722,1.182-1.364,1.805-1.955
				c0.802-0.759,1.662-1.47,2.62-2.163C166.537,32.882,165.166,30.856,163.548,30.856z"/>
			<ellipse fill="#90CBD4" cx="153.632" cy="36.218" rx="3.625" ry="4.769"/>
			<ellipse fill="#030303" cx="153.464" cy="38.671" rx="1.312" ry="2.453"/>
			<path fill="#FFFFFF" d="M153.514,42.099c-0.413,0-0.83-0.079-1.242-0.237l-0.142-0.054l-0.105-0.104
				c-0.573-0.564-1.193-1.137-1.896-1.743l-0.092-0.08l-0.062-0.104c-0.604-1.055-0.923-2.318-0.923-3.654
				c0-3.299,2.001-5.981,4.461-5.981c2.459,0,4.459,2.685,4.459,5.981C157.973,39.417,155.973,42.099,153.514,42.099z
				 M152.917,40.571c1.915,0.604,3.624-1.693,3.624-4.451c0-2.465-1.386-4.547-3.025-4.547c-1.641,0-3.026,2.084-3.026,4.547
				c0,1.029,0.238,2.031,0.677,2.841C151.804,39.515,152.38,40.044,152.917,40.571z"/>
			<path fill="#90CBD4" d="M158.65,46.002c0.108,0,0.219-0.01,0.324-0.021c0.911-1.949,1.971-3.818,3.25-5.5
				c-0.274-2.273-1.771-4.013-3.574-4.013c-2.002,0-3.625,2.134-3.625,4.769C155.025,43.87,156.648,46.002,158.65,46.002z"/>
			<path fill="#030303" d="M158.481,46.142c0.181,0,0.354-0.069,0.509-0.192c0.231-0.496,0.474-0.984,0.726-1.469
				c0.047-0.25,0.076-0.515,0.076-0.791c0-1.355-0.587-2.453-1.311-2.453c-0.725,0-1.312,1.098-1.312,2.453
				C157.17,45.043,157.759,46.142,158.481,46.142z"/>
			<path fill="#FFFFFF" d="M158.532,47.116c-2.46,0-4.461-2.684-4.461-5.979c0-3.298,2.001-5.979,4.461-5.979
				c2.248,0,4.148,2.252,4.423,5.24l0.025,0.276l-0.171,0.224c-1.228,1.606-2.327,3.5-3.364,5.782l-0.171,0.377l-0.412,0.039
				C158.728,47.108,158.631,47.116,158.532,47.116z M158.532,36.588c-1.642,0-3.027,2.083-3.027,4.548
				c0,2.362,1.274,4.375,2.825,4.536c0.979-2.096,2.02-3.872,3.167-5.417C161.218,38.147,159.972,36.588,158.532,36.588z"/>
		</g>
	</g>
	<g>
		<g>
			<path fill="#030303" d="M64.962,36.778c-4.746,0-7.816-4.075-7.944-4.248l-0.169-0.229l-2.354-6.331l1.832-0.715
				c5.241-2.047,6.863-3.804,8.917-6.029c0.806-0.872,1.638-1.773,2.734-2.753c3.284-2.932,6.457-8.229,6.488-8.282l3.815-6.407
				l-0.099,7.457c-0.027,2.03-0.46,19.988-7.271,25.301C69.015,36.026,67.011,36.778,64.962,36.778z M60.384,30.334
				c0.518,0.597,2.301,2.444,4.578,2.444c1.138,0,2.312-0.468,3.494-1.39c3.027-2.361,4.545-9.341,5.233-15.173
				c-0.942,1.149-1.979,2.29-3.047,3.242c-0.954,0.852-1.721,1.681-2.46,2.483c-1.978,2.142-3.854,4.177-8.583,6.285L60.384,30.334z
				"/>
		</g>
		<g>
			<path fill="#030303" d="M20.864,35.542c-6.81-5.312-7.242-23.271-7.271-25.301l-0.1-7.457l3.816,6.407
				c0.031,0.053,3.205,5.35,6.488,8.282c1.099,0.98,1.931,1.882,2.733,2.753c2.055,2.225,3.677,3.982,8.917,6.029l1.832,0.715
				l-2.352,6.331l-0.17,0.228c-0.128,0.173-3.198,4.248-7.944,4.248C24.771,37.778,22.767,37.026,20.864,35.542z M32.181,29.225
				c-4.729-2.108-6.607-4.144-8.583-6.285c-0.74-0.802-1.507-1.631-2.46-2.483c-1.066-0.952-2.104-2.093-3.048-3.242
				c0.688,5.832,2.206,12.812,5.233,15.173c1.183,0.922,2.357,1.39,3.494,1.39c2.278,0,4.062-1.847,4.578-2.444L32.181,29.225z"/>
		</g>
		<path fill="#FFFFFF" d="M67.437,55.59c0,4.418-3.582,8-8,8h-29c-4.418,0-8-3.582-8-8l0,0c0-4.418,3.582-8,8-8h29
			C63.854,47.59,67.437,51.172,67.437,55.59L67.437,55.59z"/>
		<path fill="#030303" d="M88.54,29.59H68.104c-3.575-2-5.364-3.218-5.364-3.218c-4.864-1.758-10.304-2.037-13.304-1.923v0.141h-9
			v-0.152c-3-0.091-7.886,0.225-12.613,1.934c0,0-1.376,1.218-4.951,3.218H2.437c0,0-1.276,16,15.07,18h3.319
			c0,0-0.511,5.424,0,10.247c0,0,0.635,4.997,3.698,10.328c0,0,1.91,11.85,1.91,16.926v8.377c0,0,0.451,4.55,4.696,5.565
			c0,0,5.612,2.557,12.726,2.557h1.491l0.004-1h0.271l0.004,1h1.49c7.111,0,12.672-2.557,12.672-2.557
			c4.248-1.016,4.646-5.565,4.646-5.565V85.09c0-5.077,1.963-16.88,1.963-16.88c3.063-5.331,3.925-10.374,3.925-10.374
			c0.511-4.823-0.175-10.247-0.175-10.247h3.319C89.817,45.59,88.54,29.59,88.54,29.59z M31.852,56.093
			c-1.189,2.147-3.459,3.165-5.069,2.272c-1.61-0.893-1.952-3.357-0.762-5.504c1.188-2.147,3.459-3.165,5.069-2.272
			S33.042,53.946,31.852,56.093z M64.091,58.366c-1.609,0.892-3.88-0.125-5.068-2.272c-1.19-2.147-0.851-4.612,0.761-5.504
			c1.611-0.893,3.881,0.125,5.07,2.272S65.702,57.473,64.091,58.366z"/>
		<path fill="#90CBD4" d="M59.624,93.673c0,0-0.646-0.083-0.812-4.083l-5.224-5.667c-4.167-4.333-3.807-19.667-3.807-19.667
			c-0.167-8.167,4.889-14.833,4.889-14.833c4.333-6.167,2.942-8.333,2.942-8.333c-0.333-4-5.615-6.5-5.615-6.5
			c-1.08-0.442-1.914-0.707-2.562-0.866V33.59h-0.638c-1.037-0.176-1.362,0-1.362,0h-4c0,0-1.083-0.5-4.75,1
			c0,0-5.376,2.5-5.709,6.5c0,0-1.438,2.166,2.896,8.333c0,0,5.031,6.667,4.864,14.833c0,0,0.351,15.333-3.816,19.667l-5.234,5.667
			c-0.166,4-0.625,4.083-0.625,4.083s1.107,1.328,4.914,2.138c1.999-3.123,5.649-5.221,9.838-5.221c4.117,0,7.717,2.029,9.735,5.065
			C58.737,94.84,59.624,93.673,59.624,93.673z"/>
		<path fill="#70A4AA" d="M45.813,89.09c-4.188,0-7.839,2.623-9.838,6.526c1.623,0.432,3.728,0.747,6.461,0.762v0.212h7v-0.225
			c2.639-0.089,4.625-0.469,6.112-0.944C53.53,91.627,49.931,89.09,45.813,89.09z"/>
	</g>
</g>
</svg>
