<?xml version="1.0" encoding="utf-8"?>
<!-- Generator: Adobe Illustrator 16.0.0, SVG Export Plug-In . SVG Version: 6.00 Build 0)  -->
<!DOCTYPE svg PUBLIC "-//W3C//DTD SVG 1.1//EN" "http://www.w3.org/Graphics/SVG/1.1/DTD/svg11.dtd">
<svg version="1.1" id="Calque_1" xmlns="http://www.w3.org/2000/svg" xmlns:xlink="http://www.w3.org/1999/xlink" x="0px" y="0px"
	 width="1181.768px" height="989.803px" viewBox="0 0 1181.768 989.803" enable-background="new 0 0 1181.768 989.803"
	 xml:space="preserve">
	
	<defs>
  <style type="text/css">
    @font-face {
	    font-family: 'Roboto';
	    src: url('../../fonts/roboto/Roboto-Thin.eot');
	    src: url('../../fonts/roboto/Roboto-Thin.eot?#iefix') format('embedded-opentype'),
	         url('../../fonts/roboto/Roboto-Thin.woff') format('woff'),
	         url('../../fonts/roboto/Roboto-Thin.ttf') format('truetype'),
	         url('../../fonts/roboto/Roboto-Thin.svg#Roboto') format('svg');
	}
  </style>
</defs>
<g id="Calque_1_1_">
	
		<line fill="none" stroke="#717070" stroke-width="0.5" stroke-miterlimit="10" x1="-10.359" y1="269.742" x2="-10.359" y2="331.559"/>
	<rect x="483.564" y="230.05" fill="none" width="201.996" height="96.875"/>
	<rect x="-153.019" y="229.742" fill="none" width="287.25" height="67"/>
	<rect x="871.408" y="230.011" fill="none" width="237.821" height="188.767"/>
	<g>
		<path fill="none" stroke="#FFFFFF" stroke-width="3.5818" stroke-miterlimit="10" d="M1237.297,872.943"/>
	</g>
	<g>
		<path fill="none" stroke="#FFFFFF" stroke-width="3.5818" stroke-miterlimit="10" d="M1226.297,872.943"/>
	</g>
	<path fill="#F19849" d="M278.297,863.12c0,12.851-31.764,23.267-70.942,23.267c-39.178,0-70.938-10.416-70.938-23.267
		c0-12.846,31.759-23.264,70.938-23.264C246.534,839.856,278.297,850.274,278.297,863.12z"/>
	<polygon fill="#F19849" points="278.417,734.787 278.417,862.915 136.417,862.767 136.417,734.787 	"/>
	<path fill="#DF6C39" d="M278.629,735.22c0,11.783-31.971,21.336-71.405,21.336c-39.436,0-71.408-9.553-71.408-21.336
		c0-11.777,31.974-21.334,71.408-21.334C246.66,713.887,278.629,723.441,278.629,735.22z"/>
	<g>
		<path fill="#8ECDD5" d="M171.837,92.839v173.667h67.245V92.839H171.837z M185.179,232.383H175.6v-13.282h9.579V232.383z
			 M185.235,208.905h-9.58v-13.287h9.58V208.905z M185.29,185.421h-9.574v-13.286h9.574V185.421z M185.346,161.938h-9.578v-13.285
			h9.578V161.938z M185.403,138.456h-9.577v-13.287h9.577V138.456z M185.461,114.974h-9.579v-13.281h9.579V114.974z
			 M201.136,232.383h-9.58v-13.282h9.58V232.383z M201.161,208.905h-9.549v-13.287h9.549V208.905z M201.246,185.421h-9.577v-13.286
			h9.577V185.421z M201.302,161.938h-9.578v-13.285h9.578V161.938z M201.359,138.456h-9.578v-13.287h9.578V138.456z
			 M201.416,114.974h-9.578v-13.281h9.578V114.974z M217.173,232.383h-9.55v-13.282h9.55V232.383z M217.229,208.905h-9.548v-13.287
			h9.548V208.905z M217.313,185.421h-9.58v-13.286h9.58V185.421z M217.368,161.938h-9.578v-13.285h9.578V161.938z M217.427,138.456
			h-9.58v-13.287h9.58V138.456z M217.481,114.974h-9.577v-13.281h9.577V114.974z M233.45,232.383h-9.578v-13.282h9.578V232.383z
			 M233.475,208.905h-9.548v-13.288h9.548V208.905z M233.563,185.421h-9.58v-13.286h9.58V185.421z M233.614,161.938h-9.572v-13.285
			h9.572V161.938z M233.673,138.456h-9.575v-13.287h9.575V138.456z M233.732,114.974h-9.578v-13.281h9.578V114.974z"/>
		
			<line fill="none" stroke="#8ECDD5" stroke-width="0.6226" stroke-miterlimit="10" x1="180.35" y1="101.538" x2="180.35" y2="238.053"/>
		
			<line fill="none" stroke="#8ECDD5" stroke-width="0.6226" stroke-miterlimit="10" x1="196.223" y1="102.244" x2="196.223" y2="238.761"/>
		
			<line fill="none" stroke="#8ECDD5" stroke-width="0.6226" stroke-miterlimit="10" x1="228.676" y1="96.246" x2="228.676" y2="232.765"/>
		
			<line fill="none" stroke="#8ECDD5" stroke-width="0.6226" stroke-miterlimit="10" x1="212.449" y1="101.538" x2="212.449" y2="238.053"/>
	</g>
	<ellipse fill="#65BBAE" cx="466.115" cy="875.103" rx="37.556" ry="12.263"/>
	<rect x="428.559" y="800.154" fill="#65BBAE" width="75.372" height="76.385"/>
	<path fill="#47B2A1" d="M503.821,800.107c0,6.211-16.851,11.241-37.628,11.241c-20.783,0-37.633-5.03-37.633-11.241
		c0-6.207,16.85-11.242,37.633-11.242C486.971,788.865,503.821,793.9,503.821,800.107z"/>
	<g>
		<rect x="410.086" y="127.201" fill="#FFFFFF" width="112.317" height="113.089"/>
		<g>
			<path fill="#D46158" d="M536.902,231.927v-28.51c0-6.128-4.963-11.091-11.085-11.091h-2.898v-78.072
				c0-0.928-0.47-1.794-1.245-2.31l-7.035-4.651c-1.843-1.219-4.302,0.102-4.302,2.309v7.429l-2.097-5.662
				c-2.819-7.604-10.082-12.656-18.196-12.656h-48.468c-8.162,0-15.457,5.113-18.245,12.786l-2.011,5.539v-7.429
				c0-2.207-2.459-3.535-4.299-2.315l-7.036,4.659c-0.78,0.507-1.245,1.381-1.245,2.309v78.072h-2.897
				c-6.127,0-11.093,4.963-11.093,11.091v28.503h-4.722c-1.532,0-2.772,1.246-2.772,2.776v15.325c0,1.53,1.236,2.77,2.772,2.77
				h11.958v7.347c0,3.061,2.482,5.546,5.547,5.546h14.691c3.063,0,5.546-2.486,5.546-5.546v-7.347h76.122v7.347
				c0,3.061,2.482,5.546,5.548,5.546h14.694c3.061,0,5.543-2.486,5.543-5.546v-7.347h11.959c1.53,0,2.772-1.233,2.772-2.77v-15.325
				c0-1.53-1.235-2.776-2.772-2.776L536.902,231.927L536.902,231.927z M424.99,132.477h81.67v27.317h-81.67V132.477z
				 M423.091,224.16h-9.47c-2.896,0-5.238-2.343-5.238-5.235v-0.135c0-2.892,2.343-5.242,5.238-5.242h9.47
				c2.897,0,5.24,2.35,5.24,5.242v0.135C428.331,221.823,425.989,224.16,423.091,224.16L423.091,224.16z M484.674,225.717h-37.695
				c-3.061,0-5.546-2.492-5.546-5.552v-35.133c0-3.067,2.485-5.545,5.546-5.545h37.695c3.062,0,5.544,2.478,5.544,5.545v35.133
				C490.214,223.225,487.736,225.717,484.674,225.717L484.674,225.717z M518.028,224.16h-9.469c-2.896,0-5.243-2.343-5.243-5.235
				v-0.135c0-2.892,2.348-5.242,5.243-5.242h9.469c2.896,0,5.242,2.35,5.242,5.242v0.135
				C523.271,221.823,520.923,224.16,518.028,224.16L518.028,224.16z M483.828,199.774h-36.097c-1.515,0-2.743-1.225-2.743-2.742
				v-0.055c0-1.517,1.229-2.742,2.743-2.742h36.097c1.52,0,2.746,1.226,2.746,2.742v0.055
				C486.574,198.556,485.348,199.774,483.828,199.774L483.828,199.774z M483.828,188.689h-36.097c-1.515,0-2.743-1.226-2.743-2.75
				v-0.054c0-1.51,1.229-2.743,2.743-2.743h36.097c1.52,0,2.746,1.233,2.746,2.743v0.054
				C486.574,187.463,485.348,188.689,483.828,188.689L483.828,188.689z M483.828,221.965h-36.097c-1.515,0-2.743-1.233-2.743-2.75
				v-0.061c0-1.517,1.229-2.743,2.743-2.743h36.097c1.52,0,2.746,1.233,2.746,2.743v0.061
				C486.574,220.726,485.348,221.965,483.828,221.965L483.828,221.965z M483.828,210.866h-36.097c-1.515,0-2.743-1.225-2.743-2.742
				v-0.055c0-1.517,1.229-2.749,2.743-2.749h36.097c1.52,0,2.746,1.232,2.746,2.749v0.055
				C486.574,209.641,485.348,210.866,483.828,210.866L483.828,210.866z"/>
			<polyline fill="none" points="544.609,80.875 544.609,265.684 387.247,265.684 387.247,80.875 			"/>
			<path fill="#BB574F" d="M494.555,217.368c0,5.864-4.532,10.618-10.123,10.618h-37.795c-5.594,0-10.124-4.753-10.124-10.618
				V188.31c0-5.871,4.53-10.632,10.124-10.632h37.795c5.591,0,10.123,4.761,10.123,10.632V217.368z"/>
			<path fill="#D46158" d="M483.99,198.501h-36.097c-1.519,0-2.746-1.226-2.746-2.749v-0.055c0-1.517,1.228-2.742,2.746-2.742
				h36.097c1.52,0,2.746,1.226,2.746,2.742v0.055C486.737,197.275,485.507,198.501,483.99,198.501L483.99,198.501z"/>
			<path fill="#D46158" d="M483.99,187.409h-36.097c-1.519,0-2.746-1.226-2.746-2.743v-0.061c0-1.51,1.228-2.743,2.746-2.743h36.097
				c1.52,0,2.746,1.233,2.746,2.743v0.061C486.737,186.177,485.507,187.409,483.99,187.409L483.99,187.409z"/>
			<path fill="#D46158" d="M483.99,220.686h-36.097c-1.519,0-2.746-1.232-2.746-2.742v-0.068c0-1.51,1.228-2.742,2.746-2.742h36.097
				c1.52,0,2.746,1.232,2.746,2.742v0.068C486.737,219.454,485.507,220.686,483.99,220.686L483.99,220.686z"/>
			<path fill="#D46158" d="M483.99,209.586h-36.097c-1.519,0-2.746-1.225-2.746-2.742v-0.055c0-1.517,1.228-2.742,2.746-2.742
				h36.097c1.52,0,2.746,1.226,2.746,2.742v0.055C486.737,208.361,485.507,209.586,483.99,209.586L483.99,209.586z"/>
			<path fill="#BB574F" d="M427.763,259.67v-7.348h9.818v-0.054h-42.165v0.054h6.566v7.348c0,3.061,2.482,5.54,5.546,5.54h14.691
				C425.281,265.204,427.763,262.725,427.763,259.67z"/>
			<path fill="#BB574F" d="M529.831,260.138v-7.347h9.822v-0.048h-42.171v0.048h6.57v7.347c0,3.061,2.483,5.546,5.546,5.546h14.692
				C527.351,265.684,529.831,263.198,529.831,260.138z"/>
			
				<line fill="none" stroke="#BB574F" stroke-width="0.5529" stroke-miterlimit="10" x1="394.137" y1="231.019" x2="537.898" y2="231.019"/>
		</g>
	</g>
	<rect x="693.033" y="821.606" fill="#EC605A" width="55.731" height="57.046"/>
	<path fill="#EC605A" d="M748.431,877.883c0,5.229-12.402,9.465-27.699,9.465c-15.301,0-27.699-4.235-27.699-9.465
		c0-5.228,12.398-9.466,27.699-9.466C736.029,868.417,748.431,872.655,748.431,877.883z"/>
	<ellipse fill="#E05C5A" cx="720.84" cy="822.285" rx="27.808" ry="8.266"/>
	<g>
		<path fill="#BDE0E4" stroke="#6EA6AA" stroke-width="0.1246" stroke-miterlimit="10" d="M773.157,238.859
			c0,5.365-4.352,9.719-9.719,9.719H659.113c-5.362,0-9.716-4.354-9.716-9.719l0,0c0-5.365,4.354-9.719,9.716-9.719h104.326
			C768.806,229.14,773.157,233.494,773.157,238.859L773.157,238.859z"/>
		<path fill="#BDE0E4" stroke="#6EA6AA" stroke-width="0.1246" stroke-miterlimit="10" d="M785.047,222.372
			c0,5.361-4.351,9.709-9.712,9.709H671.003c-5.364,0-9.715-4.348-9.715-9.709l0,0c0-5.371,4.351-9.719,9.715-9.719h104.331
			C780.698,212.65,785.047,217,785.047,222.372L785.047,222.372z"/>
		<path fill="#6EA6AB" d="M670.238,212.65c5.295,0,9.59,4.294,9.59,9.586c0,5.299-4.295,9.593-9.59,9.593s-9.59-4.294-9.59-9.593
			C660.648,216.944,664.943,212.65,670.238,212.65z"/>
		<circle fill="#6EA6AB" cx="658.345" cy="238.734" r="9.588"/>
		<path fill="#BDE0E4" stroke="#6EA6AA" stroke-width="0.1246" stroke-miterlimit="10" d="M796.552,239.623
			c0,5.37-4.349,9.718-9.714,9.718h-104.33c-5.361,0-9.711-4.348-9.711-9.718l0,0c0-5.365,4.35-9.713,9.711-9.713h104.33
			C792.204,229.91,796.552,234.258,796.552,239.623L796.552,239.623z"/>
		<path fill="#6EA6AB" d="M681.745,229.91c5.292,0,9.587,4.291,9.587,9.585c0,5.299-4.295,9.589-9.587,9.589
			c-5.298,0-9.59-4.291-9.59-9.589C672.156,234.201,676.448,229.91,681.745,229.91z"/>
	</g>
	<path fill="#F19849" d="M955.714,875.455c0,4.812-12.252,8.711-27.371,8.711c-15.121,0-27.379-3.896-27.379-8.711
		c0-4.812,12.258-8.715,27.379-8.715C943.462,866.74,955.714,870.644,955.714,875.455z"/>
	<polygon fill="#F19849" points="956.111,824.065 956.111,877.692 901.11,877.63 901.11,824.065 	"/>
	<path fill="#DF6C39" d="M955.441,824.164c0,4.412-12.244,7.989-27.344,7.989c-15.107,0-27.353-3.577-27.353-7.989
		c0-4.41,12.243-7.985,27.353-7.985C943.195,816.177,955.441,819.753,955.441,824.164z"/>
	<g>
		<rect x="911.84" y="121.169" fill="#010202" width="18.21" height="72.843"/>
		<path fill="#F5F5F5" d="M907.995,116.975v0.11c0,0.825,0.666,1.495,1.495,1.495h1.94v34.658h6.541v4.784l-6.541-0.007v7.154h6.534
			l0.007,4.769h-6.528v7.161h6.528v4.776h-6.528v10.401c0,0.772,0.253,1.522,0.737,2.135l9.197,11.612V220.2l0.021-0.022
			c1.877-1.378,2.987,0.303,2.987-2.029v-12.111l9.325-11.613c0.495-0.612,0.753-1.374,0.761-2.157v-73.692h1.779
			c0.832,0,1.494-0.666,1.494-1.491v-0.114c0-0.825-0.662-1.491-1.494-1.491h-26.769
			C908.661,115.48,907.988,116.158,907.995,116.975L907.995,116.975z"/>
		<path fill="#D46158" d="M934.482,97.264h1.778c0.829,0,1.491-0.67,1.491-1.496v-0.11c0-0.825-0.662-1.495-1.491-1.495H909.49
			c-0.829,0-1.503,0.678-1.495,1.495l0,0v0.11c0,0.825,0.666,1.496,1.495,1.496h1.94H934.482z"/>
		<path fill="#BDE0E4" d="M911.431,145.71v7.528h6.541v4.784l-6.541-0.007v7.154h6.534l0.007,4.769h-6.528v7.161h6.528v4.776h-6.528
			v10.401c0,0.772,0.253,1.522,0.737,2.135l9.197,11.612v6.427l0.021,7.729c1.877-1.378,2.987,0.303,2.987-2.029v-12.111
			l9.325-11.613c0.495-0.612,0.753-1.374,0.761-2.157v-46.562H911.43L911.431,145.71L911.431,145.71z"/>
		<path fill="#D46158" d="M914.362,96.128v16.726h17.168l0.008-16.733"/>
		<g>
			
				<image overflow="visible" opacity="0.65" enable-background="new    " width="90" height="100" xlink:href="700D0C26212B25FF.png"  transform="matrix(0.8268 0 0 0.8371 884.6956 212.0322)">
			</image>
			<g>
				<g>
					<path fill="#90CED5" d="M931.949,246.248c0-0.579,0.304-1.741,0.295-1.787c-0.032-0.159-0.785-0.484-0.799-0.522
						c-0.604-1.802-3.849-5.406-11.601-17.6v-0.076c0,0.015,0.009,0.022,0,0.038c-0.011-0.015,0-0.022,0-0.038v0.076
						c-7.751,12.194-9.563,15.798-10.17,17.6c-0.012,0.038-0.728,1.726-0.728,2.309c0,6.403,7.021,11.611,10.896,11.748v0.008
						v-0.008v0.008v-0.008C927.597,257.859,931.949,252.651,931.949,246.248z"/>
				</g>
				<defs>
					<filter id="Adobe_OpacityMaskFilter" filterUnits="userSpaceOnUse" x="908.948" y="226.263" width="23.297" height="31.741">
						<feColorMatrix  type="matrix" values="1 0 0 0 0  0 1 0 0 0  0 0 1 0 0  0 0 0 1 0"/>
					</filter>
				</defs>
				<mask maskUnits="userSpaceOnUse" x="908.948" y="226.263" width="23.297" height="31.741" id="SVGID_2_">
					<g filter="url(#Adobe_OpacityMaskFilter)">
						
							<image overflow="visible" enable-background="new    " width="47" height="58" xlink:href="700D0C26212B25FF.jpeg"  transform="matrix(0.8115 0 0 0.8179 902.5598 218.5117)">
						</image>
					</g>
				</mask>
				<g mask="url(#SVGID_2_)">
					<path fill="#E4EFEF" d="M931.949,246.248c0-0.579,0.304-1.741,0.295-1.787c-0.032-0.159-0.785-0.484-0.799-0.522
						c-0.604-1.802-3.849-5.406-11.601-17.6v-0.076c0,0.015,0.009,0.022,0,0.038c-0.011-0.015,0-0.022,0-0.038v0.076
						c-7.751,12.194-9.563,15.798-10.17,17.6c-0.012,0.038-0.728,1.726-0.728,2.309c0,6.403,7.021,11.611,10.896,11.748v0.008
						v-0.008v0.008v-0.008C927.597,257.859,931.949,252.651,931.949,246.248z"/>
				</g>
			</g>
		</g>
	</g>
	<path fill="#65BBAE" d="M1109.214,881.383c0,3.396-8.357,6.148-18.671,6.148s-18.674-2.752-18.674-6.148s8.357-6.152,18.674-6.152
		C1100.857,875.229,1109.214,877.985,1109.214,881.383z"/>
	<rect x="1071.923" y="843.375" fill="#65BBAE" width="37.307" height="38.01"/>
	<ellipse fill="#47B2A1" cx="1090.55" cy="843.756" rx="18.678" ry="5.641"/>
	<path fill="#EC605A" d="M1084.164,250.453c-20.728,0-37.593-16.866-37.593-37.598c0-20.731,16.865-37.598,37.593-37.598
		c20.736,0,37.604,16.866,37.604,37.598C1121.767,233.587,1104.901,250.453,1084.164,250.453z M1084.164,187.234
		c-14.123,0-25.614,11.495-25.614,25.621s11.491,25.621,25.614,25.621c14.129,0,25.625-11.495,25.625-25.621
		S1098.291,187.234,1084.164,187.234z"/>
	<path fill="#EC605A" d="M1084.608,204.053c4.843,0,8.772,3.93,8.772,8.778s-3.931,8.772-8.772,8.772
		c-4.854,0-8.783-3.925-8.783-8.772C1075.824,207.983,1079.754,204.053,1084.608,204.053z"/>
	<rect x="1072.737" y="158.713" fill="#EC605A" width="23.954" height="17.965"/>
	<rect x="1072.737" y="248.541" fill="#EC605A" width="23.954" height="17.965"/>
	<polygon fill="#EC605A" points="1101.041,244.136 1113.661,230.874 1127.755,244.289 1115.135,257.552 	"/>
	
		<rect x="1044.471" y="233.256" transform="matrix(0.7 0.7141 -0.7141 0.7 489.5898 -679.5298)" fill="#EC605A" width="18.311" height="19.458"/>
	<rect x="1030.818" y="200.632" fill="#EC605A" width="17.964" height="23.955"/>
	<rect x="1120.644" y="200.632" fill="#EC605A" width="17.966" height="23.955"/>
	<polygon fill="#EC605A" points="1066.502,182.088 1053.717,195.199 1039.776,181.614 1052.559,168.503 	"/>
	<polygon fill="#EC605A" points="1115.312,167.385 1128.082,180.497 1114.154,194.076 1101.381,180.965 	"/>
	<g>
		<path fill="#E05C5A" d="M1129.24,154.11c-13.24,0-24.013-10.772-24.013-24.012c0-13.241,10.772-24.014,24.013-24.014
			c13.241,0,24.014,10.773,24.014,24.014C1153.253,143.338,1142.482,154.11,1129.24,154.11z M1129.24,112.074
			c-9.936,0-18.022,8.085-18.022,18.024c0,9.938,8.088,18.023,18.022,18.023c9.938,0,18.025-8.085,18.025-18.023
			C1147.266,120.159,1139.177,112.074,1129.24,112.074z"/>
		<path fill="#E05C5A" d="M1129.533,124.262c3.229,0,5.838,2.614,5.838,5.837c0,3.227-2.608,5.835-5.838,5.835
			c-3.229,0-5.836-2.608-5.836-5.835C1123.698,126.876,1126.305,124.262,1129.533,124.262z"/>
		<rect x="1120.644" y="92.839" fill="#E05C5A" width="11.978" height="17.965"/>
		<rect x="1120.644" y="152.724" fill="#E05C5A" width="11.978" height="11.977"/>
		
			<rect x="1143.234" y="144.421" transform="matrix(0.6896 -0.7242 0.7242 0.6896 247.4633 879.1483)" fill="#E05C5A" width="12.177" height="12.939"/>
		
			<rect x="1102.765" y="143.58" transform="matrix(0.7003 0.7139 -0.7139 0.7003 439.4672 -746.6046)" fill="#E05C5A" width="12.174" height="12.944"/>
		<rect x="1096.691" y="122.782" fill="#E05C5A" width="11.976" height="11.977"/>
		<rect x="1150.588" y="122.782" fill="#E05C5A" width="11.976" height="11.977"/>
		<polygon fill="#E05C5A" points="1117.498,109.635 1108.995,118.349 1099.743,109.313 1108.246,100.6 		"/>
		<polygon fill="#E05C5A" points="1150.059,99.815 1158.564,108.53 1149.311,117.565 1140.809,108.852 		"/>
	</g>
	
		<line opacity="0.7" fill="none" stroke="#000000" stroke-width="0.5" stroke-miterlimit="10" enable-background="new    " x1="207.417" y1="360.999" x2="207.417" y2="698.595"/>
	
		<line opacity="0.7" fill="none" stroke="#000000" stroke-width="0.5" stroke-miterlimit="10" enable-background="new    " x1="465.533" y1="324.394" x2="465.533" y2="766.092"/>
	
		<line opacity="0.7" fill="none" stroke="#000000" stroke-width="0.5" stroke-miterlimit="10" enable-background="new    " x1="723.168" y1="324.394" x2="723.168" y2="788.865"/>
	
		<line opacity="0.7" fill="none" stroke="#000000" stroke-width="0.5" stroke-miterlimit="10" enable-background="new    " x1="928.093" y1="356.506" x2="928.093" y2="800.154"/>
	
		<line opacity="0.7" fill="none" stroke="#000000" stroke-width="0.5" stroke-miterlimit="10" enable-background="new    " x1="1090.541" y1="356.506" x2="1090.541" y2="811.35"/>
	<rect x="90.783" y="288.242" fill="none" width="249.332" height="17"/>
	<text transform="matrix(1 0 0 1 130.7849 304.2383)" opacity="0.7" enable-background="new    "><tspan x="0" y="0" font-family="'Roboto'" letter-spacing="1px" font-size="29">Architecture</tspan><tspan x="0" y="34.8" font-family="'Roboto'" letter-spacing="1px" font-size="29">&amp; Ingénierie</tspan></text>
	<rect x="365.384" y="287.367" fill="none" width="214.5" height="20.75"/>
	
		<text transform="matrix(1 0 0 1 326.3816 303.3633)" opacity="0.7" enable-background="new    " font-family="'Roboto'" letter-spacing="1px" font-size="29">Matériels de transport</text>
	<rect x="669.587" y="287.747" fill="none" width="109.163" height="20"/>
	
		<text transform="matrix(1 0 0 1 653.5862 303.7432)" opacity="0.7" enable-background="new    " font-family="'Roboto'" letter-spacing="1px" font-size="29">Métallurgie</text>
	<rect x="825.411" y="287.506" fill="none" width="204" height="52"/>
	<text transform="matrix(1 0 0 1 808.3528 303.502)" enable-background="new    "><tspan x="0" y="0" fill="#6F6F6E" font-family="'Roboto'" letter-spacing="1px" font-size="29">Injection plastique</tspan><tspan x="232.155" y="0" font-family="'Roboto'" letter-spacing="1px" font-size="29"> </tspan></text>
	<text transform="matrix(1 0 0 1 826.6155 336.7026)" fill="#6F6F6E" font-family="'Roboto'" letter-spacing="1px" font-size="29">&amp; caoutchouc</text>
	<rect x="914.041" y="288.242" fill="none" width="353" height="88"/>
	<text transform="matrix(1 0 0 1 1050.0696 304.2383)" fill="#6F6F6E" font-family="'Roboto'" letter-spacing="1px" font-size="29">Industrie </text>
	<text transform="matrix(1 0 0 1 1039.4622 336.438)" fill="#6F6F6E" font-family="'Roboto'" letter-spacing="1px" font-size="29">mécanique</text>
</g>
<g id="Calque_3">
</g>
<g id="Calque_4_1_">
	<rect x="735.331" y="227.309" fill="none" width="201.996" height="96.875"/>
</g>
</svg>
