<?xml version="1.0" encoding="utf-8"?>
<!-- Generator: Adobe Illustrator 16.0.0, SVG Export Plug-In . SVG Version: 6.00 Build 0)  -->
<!DOCTYPE svg PUBLIC "-//W3C//DTD SVG 1.1//EN" "http://www.w3.org/Graphics/SVG/1.1/DTD/svg11.dtd">
<svg version="1.1" id="Calque_1" xmlns="http://www.w3.org/2000/svg" xmlns:xlink="http://www.w3.org/1999/xlink" x="0px" y="0px"
	 width="129px" height="241px" viewBox="0 0 129 241" enable-background="new 0 0 129 241" xml:space="preserve">
<g>
	<circle fill="none" stroke="#90CBD4" stroke-width="15" stroke-miterlimit="10" cx="46.616" cy="104.283" r="27.616"/>
	<circle fill="#90CBD4" cx="47" cy="104.271" r="7.667"/>
	<rect x="39" y="58.167" fill="#90CBD4" width="16" height="17"/>
	<rect x="39" y="134.167" fill="#90CBD4" width="16" height="17"/>
	
		<rect x="65.001" y="123.155" transform="matrix(-0.6896 0.7242 -0.7242 -0.6896 218.686 169.5794)" fill="#90CBD4" width="16" height="17"/>
	
		<rect x="11.993" y="122.158" transform="matrix(-0.7001 -0.714 0.714 -0.7001 -59.304 236.4089)" fill="#90CBD4" width="16" height="16.999"/>
	<rect y="96.167" fill="#90CBD4" width="17" height="16"/>
	<rect x="76" y="96.167" fill="#90CBD4" width="17" height="16"/>
	
		<rect x="11.499" y="68.676" transform="matrix(0.698 -0.7161 0.7161 0.698 -49.3777 37.2722)" fill="#90CBD4" width="16" height="17"/>
	
		<rect x="65.493" y="67.669" transform="matrix(-0.698 -0.7161 0.7161 -0.698 70.2472 181.9628)" fill="#90CBD4" width="16" height="17"/>
</g>
<g>
	<circle fill="none" stroke="#70A4AA" stroke-width="8" stroke-miterlimit="10" cx="86.004" cy="31.985" r="18.367"/>
	<circle fill="#70A4AA" cx="86.26" cy="31.977" r="5.1"/>
	<rect x="81" y="1.167" fill="#70A4AA" width="10" height="12"/>
	<rect x="81" y="51.167" fill="#70A4AA" width="10" height="12"/>
	
		<rect x="98.236" y="44.553" transform="matrix(-0.6897 0.7241 -0.7241 -0.6897 211.3354 9.8505)" fill="#70A4AA" width="10.643" height="11.307"/>
	
		<rect x="62.986" y="43.887" transform="matrix(-0.7001 -0.714 0.714 -0.7001 80.7559 132.9963)" fill="#70A4AA" width="10.641" height="11.306"/>
	<rect x="55" y="27.167" fill="#70A4AA" width="12" height="10"/>
	<rect x="105" y="27.167" fill="#70A4AA" width="12" height="10"/>
	
		<rect x="62.652" y="8.306" transform="matrix(0.698 -0.7161 0.7161 0.698 10.5302 52.8887)" fill="#70A4AA" width="10.642" height="11.307"/>
	
		<rect x="98.561" y="7.633" transform="matrix(-0.698 -0.7161 0.7161 -0.698 166.8771 96.949)" fill="#70A4AA" width="10.641" height="11.306"/>
</g>
<g>
	<path fill="#FFFFFF" d="M127.761,107.167l0.003,0.1l-4.464-4.999l4.273-4.103l0.005,0.241c0.027-0.021,0.059-0.039,0.087-0.059
		l-0.447-28.767c-0.094-0.224-0.153-0.46-0.213-0.695v0.277l-1.269-5.184l1.271,0.103v0.452c0.042-0.141,0.068-0.286,0.123-0.423
		l-0.141-9.028l-3.499,0.386l-1.9-6.301h-5.342l-1.853,7.158L79,57.286v4.487l33.795,1.698l-14.279,54.696h8.76l11.324-11.492
		l9.34,9.303l-0.135-8.759C127.788,107.203,127.775,107.184,127.761,107.167z M107.275,109.846l2.99-11.68l4.273,4.103
		L107.275,109.846z M111.549,91.867l3.205-12.7c0,0,0,0,8.119,0l3.204,11.441l-7.265,7.044L111.549,91.867z"/>
	<rect x="83" y="64.167" fill="#FFFFFF" width="4" height="19"/>
	<rect x="78.5" y="87.667" fill="none" stroke="#FFFFFF" stroke-width="3" stroke-miterlimit="10" width="11" height="12"/>
	
		<rect x="83.281" y="87.064" transform="matrix(0.7579 0.6524 -0.6524 0.7579 81.6556 -32.5517)" fill="#FFFFFF" width="2.798" height="13.326"/>
</g>
<g>
	<rect x="76" y="146.167" fill="#FFFFFF" width="6" height="34"/>
	<polygon fill="none" points="40.719,225.331 35.584,205.281 28.248,212.325 	"/>
	<path fill="none" d="M13.944,172.167l-5.501,19.891l12.47,12.217l12.471-10.117l-5.503-21.99
		C27.881,172.167,27.881,172.167,13.944,172.167z"/>
	<path fill="#FFFFFF" d="M28.365,133.454l-3.051-12.287h-9.169l-3.752,10.82L1,130.752v16.622l7.541-0.503L1,178.444v61.723h0.474
		L21.28,220.44l19.439,19.727h15.038l-24.641-94.17L89,142.807v-7.703L28.365,133.454z M1.596,225.331l4.279-20.05l7.335,7.044
		L1.596,225.331z M40.719,225.331l-12.471-13.006l7.336-7.044L40.719,225.331z M33.383,194.157l-12.471,10.117l-12.47-12.217
		l5.502-19.891c13.938,0,13.938,0,13.938,0L33.383,194.157z"/>
	<rect x="69" y="189.167" fill="none" stroke="#FFFFFF" stroke-width="6" stroke-miterlimit="10" width="20" height="21"/>
	
		<rect x="76.016" y="186.164" transform="matrix(-0.7144 0.6997 -0.6997 -0.7144 273.4644 287.7123)" fill="#FFFFFF" width="4" height="27.002"/>
</g>
</svg>
