<?xml version="1.0" encoding="utf-8"?>
<!-- Generator: Adobe Illustrator 16.0.0, SVG Export Plug-In . SVG Version: 6.00 Build 0)  -->
<!DOCTYPE svg PUBLIC "-//W3C//DTD SVG 1.1//EN" "http://www.w3.org/Graphics/SVG/1.1/DTD/svg11.dtd">
<svg version="1.1" id="Calque_1" xmlns="http://www.w3.org/2000/svg" xmlns:xlink="http://www.w3.org/1999/xlink" x="0px" y="0px"
	 width="836px" height="387px" viewBox="62.5 97.5 836 387" enable-background="new 62.5 97.5 836 387" xml:space="preserve">
<g>
	<path fill="#F46F61" d="M335.666,395.135c-69.556,0-126.142-56.59-126.142-126.146c0-69.561,56.586-126.142,126.142-126.142
		c69.561,0,126.146,56.59,126.146,126.142C461.816,338.545,405.227,395.135,335.666,395.135z M335.666,196.729
		c-39.848,0-72.26,32.412-72.26,72.26c0,39.847,32.412,72.259,72.26,72.259c39.848,0,72.26-32.416,72.26-72.259
		C407.93,229.141,375.514,196.729,335.666,196.729z"/>
	<path fill="#F46F61" d="M337.052,241.409c15.208,0,27.54,12.328,27.54,27.54c0,15.208-12.332,27.535-27.54,27.535
		s-27.54-12.327-27.54-27.535C309.512,253.736,321.844,241.409,337.052,241.409z"/>
	<rect x="308.07" y="103.333" fill="#F46F61" width="57.586" height="61.699"/>
	<rect x="308.07" y="374.811" fill="#F46F61" width="57.586" height="61.698"/>
	
		<rect x="401.705" y="336.766" transform="matrix(0.6896 -0.7242 0.7242 0.6896 -132.3856 425.7412)" fill="#F46F61" width="57.476" height="61.07"/>
	
		<rect x="211.361" y="333.249" transform="matrix(0.7002 0.714 -0.714 0.7002 331.7221 -62.353)" fill="#F46F61" width="57.48" height="61.07"/>
	<rect x="168.218" y="243.184" fill="#F46F61" width="61.7" height="57.585"/>
	<rect x="439.695" y="243.184" fill="#F46F61" width="61.698" height="57.585"/>
	
		<rect x="209.531" y="141.106" transform="matrix(-0.698 0.7161 -0.7161 -0.698 527.4909 120.8178)" fill="#F46F61" width="57.477" height="61.064"/>
	
		<rect x="403.46" y="137.47" transform="matrix(0.698 0.7161 -0.7161 0.698 250.8335 -258.7564)" fill="#F46F61" width="57.468" height="61.07"/>
</g>
<g>
	<path fill="#BA4C40" d="M649.485,424.932c-50.729,0-91.999-41.277-91.999-92.002c0-50.732,41.27-92.007,91.999-92.007
		c50.732,0,92.007,41.272,92.007,92.007C741.492,383.662,700.219,424.932,649.485,424.932z M649.485,273.829
		c-32.581,0-59.094,26.507-59.094,59.101c0,32.586,26.513,59.096,59.094,59.096c32.589,0,59.101-26.51,59.101-59.096
		C708.586,300.346,682.074,273.829,649.485,273.829z"/>
	<path fill="#BA4C40" d="M650.542,311.917c11.584,0,20.976,9.392,20.976,20.979c0,11.586-9.392,20.977-20.976,20.977
		c-11.585,0-20.977-9.391-20.977-20.977C629.565,321.309,638.957,311.917,650.542,311.917z"/>
	<rect x="628.906" y="206.165" fill="#BA4C40" width="41.133" height="49.359"/>
	<rect x="628.906" y="411.829" fill="#BA4C40" width="41.133" height="49.359"/>
	
		<rect x="699.795" y="384.635" transform="matrix(0.6897 -0.7241 0.7241 0.6897 -71.4166 649.1249)" fill="#BA4C40" width="43.78" height="46.511"/>
	
		<rect x="554.773" y="381.843" transform="matrix(0.7001 0.714 -0.714 0.7001 462.1836 -290.2694)" fill="#BA4C40" width="43.768" height="46.502"/>
	<rect x="521.961" y="313.109" fill="#BA4C40" width="49.359" height="41.134"/>
	<rect x="727.626" y="313.109" fill="#BA4C40" width="49.359" height="41.134"/>
	
		<rect x="553.409" y="235.468" transform="matrix(-0.698 0.7161 -0.7161 -0.698 1162.1169 27.3419)" fill="#BA4C40" width="43.768" height="46.51"/>
	<polygon fill="#BA4C40" points="724.396,224.116 754.948,255.46 721.645,287.916 691.092,256.576 	"/>
</g>
<g>
	<path fill="#FFFFFF" d="M891.173,374.811l0.009,0.418l-18.356-20.566l17.573-16.875l0.021,0.992
		c0.116-0.09,0.245-0.161,0.357-0.241l-1.837-118.33c-0.39-0.92-0.631-1.892-0.875-2.86v1.137l-5.223-21.322l5.234,0.426v1.856
		c0.173-0.579,0.276-1.173,0.506-1.735L888,160.573l-14.389,1.586l-7.816-25.921h-21.973l-7.624,29.444l-145.593,3.952v18.458
		l139.009,6.981l-58.735,224.981h36.032l46.579-47.271l38.418,38.271l-0.56-36.031C891.281,374.958,891.229,374.882,891.173,374.811
		z M806.906,385.832l12.305-48.046l17.578,16.875L806.906,385.832z M824.488,311.877l13.184-52.24c0,0,0,0,33.396,0l13.176,47.062
		l-29.878,28.97L824.488,311.877z"/>
	<rect x="707.059" y="197.938" fill="#FFFFFF" width="16.454" height="78.152"/>
	<path fill="#FFFFFF" d="M739.966,350.13h-57.587v-61.698h57.587V350.13z M694.719,337.79h32.907V300.77h-32.907V337.79z"/>
	
		<rect x="708.154" y="292.126" transform="matrix(-0.7578 -0.6525 0.6525 -0.7578 1046.3572 1027.5127)" fill="#FFFFFF" width="11.501" height="54.812"/>
</g>
<g>
	<rect x="275.164" y="222.618" fill="#FFFFFF" width="16.453" height="90.493"/>
	<polygon fill="none" points="178.185,437.722 164.133,382.859 144.061,402.132 	"/>
	<path fill="none" d="M104.916,292.544L89.865,346.82l34.119,33.354l34.124-27.571l-15.055-60.061
		C143.053,292.544,143.053,292.544,104.916,292.544z"/>
	<path fill="#FFFFFF" d="M145.322,186.313l-9.291-33.621h-25.094L100.67,182.3l-31.17-3.378v45.483l20.634-1.374L69.5,309.423
		v168.219h1.293l54.2-53.979l53.192,53.979h41.145L152.846,220.3l159.337-8.395v-21.073L145.322,186.313z M71.126,437.722
		l11.713-54.866l20.073,19.276L71.126,437.722z M178.185,437.722l-34.124-35.59l20.072-19.276L178.185,437.722z M158.112,352.568
		l-34.124,27.606l-34.119-33.319l15.051-54.315c38.137,0,38.137,0,38.137,0L158.112,352.568z"/>
	<path fill="#FFFFFF" d="M324.523,407.716h-82.267V325.45h82.267V407.716z M266.938,383.036h32.906V350.13h-32.906V383.036z"/>
	
		<rect x="274.786" y="330.535" transform="matrix(0.7146 -0.6995 0.6995 0.7146 -177.0754 300.9237)" fill="#FFFFFF" width="10.945" height="73.882"/>
</g>
</svg>
