<?xml version="1.0" encoding="utf-8"?>
<!-- Generator: Adobe Illustrator 16.0.0, SVG Export Plug-In . SVG Version: 6.00 Build 0)  -->
<!DOCTYPE svg PUBLIC "-//W3C//DTD SVG 1.1//EN" "http://www.w3.org/Graphics/SVG/1.1/DTD/svg11.dtd">
<svg version="1.1" id="Calque_1" xmlns="http://www.w3.org/2000/svg" xmlns:xlink="http://www.w3.org/1999/xlink" x="0px" y="0px"
	 width="616.47px" height="75.758px" viewBox="0 0 616.47 75.758" enable-background="new 0 0 616.47 75.758" xml:space="preserve">

<defs>
  <style type="text/css">
    @font-face {
	    font-family: 'Roboto';
	    src: url('../../fonts/roboto/Roboto-Thin.eot');
	    src: url('../../fonts/roboto/Roboto-Thin.eot?#iefix') format('embedded-opentype'),
	         url('../../fonts/roboto/Roboto-Thin.woff') format('woff'),
	         url('../../fonts/roboto/Roboto-Thin.ttf') format('truetype'),
	         url('../../fonts/roboto/Roboto-Thin.svg#Roboto') format('svg');
	}
  </style>
</defs>

<ellipse fill="#6BBBAE" cx="39.49" cy="57.389" rx="28.125" ry="12.44"/>
<polygon fill="#6BBBAE" points="67.697,37.97 67.697,57.411 11.697,57.389 11.697,37.97 "/>
<ellipse fill="#50B29F" cx="39.49" cy="38.437" rx="28.125" ry="12.44"/>
<ellipse fill="#F28B32" cx="39.49" cy="41.389" rx="28.125" ry="12.44"/>
<polygon fill="#F28B32" points="67.697,21.97 67.697,41.411 11.697,41.389 11.697,21.97 "/>
<ellipse fill="#DC6E2D" cx="39.49" cy="22.437" rx="28.125" ry="12.44"/>
<line opacity="0.7" fill="none" stroke="#000000" stroke-width="0.5" stroke-miterlimit="10" enable-background="new    " x1="80.044" y1="66.691" x2="159.475" y2="66.691"/>
<text transform="matrix(1 0 0 1 177.4753 66.6914)" opacity="0.7" enable-background="new    " font-family="'Roboto'" letter-spacing="1px" font-size="21">Nombre de brevets déposés : 0</text>
<line opacity="0.7" fill="none" stroke="#000000" stroke-width="0.5" stroke-miterlimit="10" enable-background="new    " x1="80.044" y1="16.207" x2="159.474" y2="16.207"/>
<text transform="matrix(1 0 0 1 177.4753 16.2065)" opacity="0.7" enable-background="new    "><tspan x="0" y="0" font-family="'Roboto'" letter-spacing="1px" font-size="21">Autres titres de propriété intellectuelle déposés</tspan><tspan x="0" y="25.2" font-family="'Roboto'" letter-spacing="1px" font-size="21">(ex : modèles, marques, dessins) : 0</tspan></text>
</svg>
