<?xml version="1.0" encoding="utf-8"?>
<!-- Generator: Adobe Illustrator 16.0.0, SVG Export Plug-In . SVG Version: 6.00 Build 0)  -->
<!DOCTYPE svg PUBLIC "-//W3C//DTD SVG 1.1//EN" "http://www.w3.org/Graphics/SVG/1.1/DTD/svg11.dtd">
<svg version="1.1" xmlns="http://www.w3.org/2000/svg" xmlns:xlink="http://www.w3.org/1999/xlink" x="0px" y="0px" width="86px"
	 height="58.517px" viewBox="0 0 86 58.517" enable-background="new 0 0 86 58.517" xml:space="preserve">
<g id="Calque_8">
</g>
<g id="Calque_5">
</g>
<g id="Calque_9" display="none">
</g>
<g id="Calque_7">
	<g>
		<path fill="#FFFFFF" d="M16.574,13.052c-0.318,0-0.6-0.044-0.842-0.132c-0.243-0.088-0.439-0.205-0.592-0.352
			c-0.15-0.146-0.273-0.33-0.368-0.552s-0.159-0.452-0.195-0.693s-0.054-0.511-0.054-0.811V7.295c0-0.313,0.019-0.592,0.057-0.838
			c0.037-0.245,0.104-0.477,0.199-0.693C14.876,5.548,15,5.368,15.153,5.225s0.349-0.256,0.589-0.337
			c0.238-0.081,0.516-0.122,0.832-0.122c0.355,0,0.658,0.053,0.908,0.158c0.25,0.106,0.449,0.262,0.596,0.467
			s0.252,0.444,0.317,0.718s0.098,0.593,0.098,0.957v0.498h-0.723V7.09c0-0.286-0.015-0.525-0.044-0.718s-0.086-0.368-0.168-0.53
			c-0.084-0.16-0.205-0.279-0.367-0.355c-0.16-0.077-0.365-0.115-0.612-0.115c-0.267,0-0.487,0.042-0.661,0.127
			c-0.175,0.085-0.306,0.213-0.394,0.386s-0.147,0.36-0.181,0.563c-0.033,0.204-0.049,0.454-0.049,0.75v3.438
			c0,0.628,0.094,1.086,0.281,1.372c0.187,0.286,0.521,0.43,1.003,0.43c0.198,0,0.37-0.028,0.513-0.085
			c0.143-0.058,0.258-0.133,0.344-0.228c0.087-0.095,0.155-0.219,0.205-0.374c0.051-0.154,0.085-0.313,0.104-0.479
			c0.018-0.164,0.026-0.36,0.026-0.588v-0.527h0.723v0.474c0,0.296-0.019,0.563-0.054,0.798c-0.035,0.236-0.099,0.459-0.188,0.667
			c-0.09,0.208-0.207,0.381-0.35,0.518s-0.326,0.244-0.549,0.322C17.13,13.013,16.871,13.052,16.574,13.052z"/>
		<path fill="#FFFFFF" d="M19.67,12.949V4.854h0.767v3.589h2.549V4.854h0.767v8.096h-0.767V9.004h-2.549v3.945H19.67z"/>
		<path fill="#FFFFFF" d="M27.077,13.052c-0.391,0-0.724-0.06-0.999-0.179c-0.274-0.118-0.489-0.293-0.645-0.521
			c-0.154-0.23-0.266-0.49-0.334-0.781c-0.068-0.292-0.103-0.63-0.103-1.014V7.197c0-0.381,0.035-0.715,0.104-1.001
			c0.07-0.286,0.185-0.54,0.342-0.759c0.158-0.221,0.374-0.387,0.647-0.501s0.603-0.171,0.986-0.171s0.713,0.057,0.986,0.171
			s0.489,0.281,0.647,0.503c0.157,0.222,0.271,0.476,0.342,0.762c0.069,0.286,0.104,0.618,0.104,0.996v3.369
			c0,0.303-0.021,0.576-0.062,0.82c-0.04,0.244-0.11,0.472-0.209,0.684c-0.1,0.212-0.228,0.389-0.384,0.529
			c-0.156,0.143-0.354,0.253-0.596,0.332C27.666,13.012,27.39,13.052,27.077,13.052z M26.423,12.316
			c0.176,0.08,0.394,0.12,0.654,0.12s0.479-0.04,0.654-0.12c0.176-0.079,0.31-0.199,0.403-0.358
			c0.092-0.159,0.157-0.337,0.195-0.532c0.037-0.195,0.056-0.43,0.056-0.703V7.061c0-0.273-0.019-0.507-0.056-0.701
			c-0.038-0.193-0.104-0.368-0.195-0.524c-0.094-0.156-0.228-0.272-0.403-0.349c-0.176-0.077-0.394-0.115-0.654-0.115
			s-0.479,0.038-0.654,0.115c-0.176,0.076-0.31,0.192-0.403,0.349c-0.092,0.156-0.157,0.331-0.195,0.524
			c-0.037,0.194-0.056,0.428-0.056,0.701v3.662c0,0.273,0.019,0.508,0.056,0.703c0.038,0.195,0.104,0.373,0.195,0.532
			C26.113,12.117,26.247,12.237,26.423,12.316z"/>
		<path fill="#FFFFFF" d="M30.437,12.949V4.854h0.752v8.096H30.437z"/>
		<path fill="#FFFFFF" d="M34.353,13.047c-0.642,0-1.127-0.193-1.458-0.578c-0.33-0.387-0.521-0.926-0.573-1.619L33,10.654
			c0.023,0.215,0.051,0.404,0.086,0.568c0.033,0.165,0.084,0.326,0.15,0.484c0.067,0.157,0.148,0.287,0.244,0.388
			c0.097,0.101,0.219,0.183,0.367,0.244c0.147,0.062,0.318,0.093,0.51,0.093c0.762,0,1.143-0.391,1.143-1.172
			c0-0.173-0.021-0.334-0.066-0.486c-0.043-0.15-0.113-0.299-0.209-0.443c-0.097-0.146-0.197-0.276-0.303-0.394
			c-0.106-0.117-0.244-0.259-0.413-0.425l-1.436-1.377c-0.488-0.469-0.732-1.013-0.732-1.631c0-0.55,0.163-0.977,0.491-1.279
			c0.326-0.303,0.77-0.456,1.33-0.459c0.014,0,0.024,0,0.034,0c0.589,0,1.04,0.159,1.353,0.479c0.318,0.325,0.504,0.852,0.557,1.577
			l-0.645,0.166c-0.045-0.547-0.162-0.957-0.352-1.23c-0.182-0.261-0.475-0.391-0.879-0.391c-0.02,0-0.039,0-0.059,0
			c-0.355,0.01-0.634,0.103-0.838,0.278c-0.203,0.176-0.305,0.441-0.305,0.796c0,0.222,0.043,0.423,0.129,0.603
			c0.087,0.182,0.234,0.372,0.442,0.574l1.426,1.353c0.368,0.352,0.657,0.707,0.869,1.067c0.212,0.359,0.317,0.749,0.317,1.169
			c0,0.589-0.17,1.043-0.51,1.362C35.362,12.888,34.912,13.047,34.353,13.047z"/>
		<path fill="#FFFFFF" d="M37.253,12.949V4.854h0.752v8.096H37.253z"/>
		<path fill="#FFFFFF" d="M41.169,13.047c-0.642,0-1.127-0.193-1.458-0.578c-0.33-0.387-0.521-0.926-0.573-1.619l0.679-0.195
			c0.023,0.215,0.051,0.404,0.086,0.568c0.033,0.165,0.084,0.326,0.15,0.484c0.067,0.157,0.148,0.287,0.244,0.388
			c0.097,0.101,0.219,0.183,0.367,0.244c0.147,0.062,0.318,0.093,0.51,0.093c0.762,0,1.143-0.391,1.143-1.172
			c0-0.173-0.021-0.334-0.066-0.486c-0.043-0.15-0.113-0.299-0.209-0.443c-0.097-0.146-0.197-0.276-0.303-0.394
			c-0.106-0.117-0.244-0.259-0.413-0.425L39.89,8.135c-0.488-0.469-0.732-1.013-0.732-1.631c0-0.55,0.163-0.977,0.491-1.279
			c0.326-0.303,0.77-0.456,1.33-0.459c0.014,0,0.024,0,0.034,0c0.589,0,1.04,0.159,1.353,0.479c0.318,0.325,0.504,0.852,0.557,1.577
			l-0.645,0.166c-0.045-0.547-0.162-0.957-0.352-1.23c-0.182-0.261-0.475-0.391-0.879-0.391c-0.02,0-0.039,0-0.059,0
			c-0.355,0.01-0.634,0.103-0.838,0.278c-0.203,0.176-0.305,0.441-0.305,0.796c0,0.222,0.043,0.423,0.129,0.603
			c0.087,0.182,0.234,0.372,0.442,0.574l1.426,1.353c0.368,0.352,0.657,0.707,0.869,1.067c0.212,0.359,0.317,0.749,0.317,1.169
			c0,0.589-0.17,1.043-0.51,1.362C42.179,12.888,41.729,13.047,41.169,13.047z"/>
		<path fill="#FFFFFF" d="M45.769,13.047c-0.642,0-1.127-0.193-1.458-0.578c-0.33-0.387-0.521-0.926-0.573-1.619l0.679-0.195
			c0.023,0.215,0.051,0.404,0.086,0.568c0.033,0.165,0.084,0.326,0.15,0.484c0.067,0.157,0.148,0.287,0.244,0.388
			c0.097,0.101,0.219,0.183,0.367,0.244c0.147,0.062,0.318,0.093,0.51,0.093c0.762,0,1.143-0.391,1.143-1.172
			c0-0.173-0.021-0.334-0.066-0.486c-0.043-0.15-0.113-0.299-0.209-0.443c-0.097-0.146-0.197-0.276-0.303-0.394
			c-0.106-0.117-0.244-0.259-0.413-0.425l-1.436-1.377c-0.488-0.469-0.732-1.013-0.732-1.631c0-0.55,0.163-0.977,0.491-1.279
			c0.326-0.303,0.77-0.456,1.33-0.459c0.014,0,0.024,0,0.034,0c0.589,0,1.04,0.159,1.353,0.479c0.318,0.325,0.504,0.852,0.557,1.577
			l-0.645,0.166c-0.045-0.547-0.162-0.957-0.352-1.23c-0.182-0.261-0.475-0.391-0.879-0.391c-0.02,0-0.039,0-0.059,0
			c-0.355,0.01-0.634,0.103-0.838,0.278c-0.203,0.176-0.305,0.441-0.305,0.796c0,0.222,0.043,0.423,0.129,0.603
			c0.087,0.182,0.234,0.372,0.442,0.574l1.426,1.353c0.368,0.352,0.657,0.707,0.869,1.067c0.212,0.359,0.317,0.749,0.317,1.169
			c0,0.589-0.17,1.043-0.51,1.362C46.778,12.888,46.328,13.047,45.769,13.047z"/>
		<path fill="#FFFFFF" d="M48.635,12.949V4.854h2.925v0.586h-2.158v3.032h1.768v0.566h-1.768v3.34h2.183v0.571H48.635z"/>
		<path fill="#FFFFFF" d="M52.253,12.949v-0.576l2.715-6.948h-2.495V4.854h3.311v0.396l-2.778,7.129h2.788v0.571H52.253z"/>
		<path fill="#FFFFFF" d="M6.953,24.949l-1.895-8.096h0.727l1.529,6.699l1.439-6.699h0.719l-1.826,8.096H6.953z"/>
		<path fill="#FFFFFF" d="M12.334,25.052c-0.391,0-0.725-0.06-0.999-0.179c-0.274-0.118-0.489-0.293-0.645-0.521
			c-0.155-0.23-0.267-0.49-0.335-0.781c-0.068-0.292-0.102-0.63-0.102-1.014v-3.359c0-0.381,0.035-0.715,0.104-1.001
			s0.185-0.54,0.342-0.759c0.157-0.221,0.374-0.387,0.647-0.501s0.602-0.171,0.986-0.171c0.384,0,0.713,0.057,0.986,0.171
			s0.488,0.281,0.646,0.503s0.271,0.476,0.342,0.762s0.105,0.618,0.105,0.996v3.369c0,0.303-0.021,0.576-0.062,0.82
			s-0.11,0.472-0.21,0.684s-0.227,0.389-0.383,0.529c-0.156,0.143-0.355,0.253-0.596,0.332
			C12.923,25.012,12.646,25.052,12.334,25.052z M11.68,24.316c0.176,0.08,0.394,0.12,0.654,0.12c0.26,0,0.479-0.04,0.654-0.12
			c0.176-0.079,0.31-0.199,0.402-0.358s0.158-0.337,0.195-0.532s0.057-0.43,0.057-0.703v-3.662c0-0.273-0.02-0.507-0.057-0.701
			c-0.037-0.193-0.103-0.368-0.195-0.524s-0.227-0.272-0.402-0.349c-0.176-0.077-0.395-0.115-0.654-0.115
			c-0.261,0-0.479,0.038-0.654,0.115c-0.176,0.076-0.311,0.192-0.403,0.349s-0.157,0.331-0.195,0.524
			c-0.038,0.194-0.056,0.428-0.056,0.701v3.662c0,0.273,0.018,0.508,0.056,0.703s0.103,0.373,0.195,0.532
			S11.504,24.237,11.68,24.316z"/>
		<path fill="#FFFFFF" d="M16.533,24.949v-7.51h-1.627v-0.586h3.98v0.586h-1.588v7.51H16.533z"/>
		<path fill="#FFFFFF" d="M19.541,24.949v-8.096h1.84c0.72,0,1.234,0.174,1.543,0.52c0.31,0.348,0.465,0.855,0.465,1.526
			c0,1.116-0.377,1.753-1.129,1.909l1.256,4.141h-0.752l-1.188-3.979h-1.27v3.979H19.541z M20.307,20.408h1.031
			c0.488,0,0.828-0.119,1.02-0.359c0.192-0.238,0.289-0.622,0.289-1.149c0-0.521-0.092-0.896-0.273-1.128
			c-0.183-0.231-0.52-0.347-1.012-0.347h-1.055V20.408z"/>
		<path fill="#FFFFFF" d="M24.662,24.949v-8.096h2.926v0.586H25.43v3.032h1.768v0.566H25.43v3.34h2.182v0.571H24.662z"/>
		<path fill="#FFFFFF" d="M30.688,24.949v-8.096h1.943c0.355,0,0.66,0.051,0.914,0.151s0.453,0.248,0.6,0.442
			c0.146,0.193,0.253,0.417,0.318,0.671c0.064,0.254,0.098,0.547,0.098,0.879c0,0.3-0.035,0.573-0.105,0.823
			c-0.07,0.248-0.18,0.472-0.327,0.668c-0.147,0.197-0.349,0.352-0.601,0.462s-0.548,0.166-0.887,0.166h-1.186v3.833H30.688z
			 M31.455,20.55h0.971c0.498,0,0.854-0.114,1.067-0.345c0.214-0.229,0.319-0.63,0.319-1.203c0-0.622-0.094-1.041-0.283-1.258
			c-0.188-0.216-0.553-0.324-1.094-0.324h-0.98V20.55z"/>
		<path fill="#FFFFFF" d="M35.521,24.949v-8.096h1.842c0.719,0,1.233,0.174,1.543,0.52c0.309,0.348,0.463,0.855,0.463,1.526
			c0,1.116-0.375,1.753-1.127,1.909l1.254,4.141h-0.752l-1.186-3.979h-1.27v3.979H35.521z M36.289,20.408h1.029
			c0.488,0,0.829-0.119,1.021-0.359c0.191-0.238,0.287-0.622,0.287-1.149c0-0.521-0.091-0.896-0.273-1.128
			c-0.182-0.231-0.519-0.347-1.01-0.347h-1.055V20.408z"/>
		<path fill="#FFFFFF" d="M40.215,24.949l1.709-8.096h0.801l1.719,8.096h-0.748l-0.4-2.163h-1.934l-0.41,2.163H40.215z
			 M41.469,22.229h1.725l-0.865-4.365L41.469,22.229z"/>
		<path fill="#FFFFFF" d="M46.289,24.949v-7.51h-1.627v-0.586h3.98v0.586h-1.588v7.51H46.289z"/>
		<path fill="#FFFFFF" d="M49.33,24.949v-8.096h0.752v8.096H49.33z"/>
		<path fill="#FFFFFF" d="M53.402,25.052c-0.318,0-0.6-0.044-0.842-0.132s-0.439-0.205-0.591-0.352s-0.274-0.33-0.368-0.552
			c-0.095-0.222-0.16-0.452-0.195-0.693c-0.036-0.241-0.055-0.511-0.055-0.811v-3.218c0-0.313,0.02-0.592,0.057-0.838
			c0.037-0.245,0.104-0.477,0.2-0.693c0.097-0.216,0.221-0.396,0.374-0.539c0.152-0.144,0.349-0.256,0.588-0.337
			s0.517-0.122,0.832-0.122c0.355,0,0.658,0.053,0.908,0.158c0.251,0.106,0.449,0.262,0.596,0.467s0.253,0.444,0.318,0.718
			c0.064,0.273,0.098,0.593,0.098,0.957v0.498H54.6V19.09c0-0.286-0.016-0.525-0.045-0.718s-0.085-0.368-0.168-0.53
			c-0.083-0.16-0.205-0.279-0.366-0.355c-0.161-0.077-0.365-0.115-0.612-0.115c-0.268,0-0.488,0.042-0.662,0.127
			s-0.305,0.213-0.393,0.386s-0.148,0.36-0.182,0.563c-0.032,0.204-0.049,0.454-0.049,0.75v3.438c0,0.628,0.094,1.086,0.281,1.372
			s0.521,0.43,1.004,0.43c0.198,0,0.369-0.028,0.512-0.085c0.144-0.058,0.258-0.133,0.345-0.228s0.155-0.219,0.205-0.374
			c0.05-0.154,0.085-0.313,0.103-0.479c0.018-0.164,0.027-0.36,0.027-0.588v-0.527h0.723v0.474c0,0.296-0.019,0.563-0.055,0.798
			c-0.035,0.236-0.098,0.459-0.188,0.667s-0.206,0.381-0.35,0.518c-0.143,0.137-0.326,0.244-0.549,0.322
			S53.699,25.052,53.402,25.052z"/>
		<path fill="#FFFFFF" d="M56.533,24.949v-8.096h0.752v8.096H56.533z"/>
		<path fill="#FFFFFF" d="M58.715,24.949v-8.096h2.926v0.586h-2.158v3.032h1.768v0.566h-1.768v3.34h2.182v0.571H58.715z"/>
		<path fill="#FFFFFF" d="M62.699,24.949v-8.096h0.563l2.578,6.284v-6.284h0.654v8.096h-0.537l-2.598-6.357v6.357H62.699z"/>
	</g>
	<g>
		<path fill="#FDFDFE" d="M66.562,36.437c0,0,0.012,0.244,0.01,0.669c-0.012,0.213-0.003,0.471,0.031,0.757
			c0.025,0.287,0.049,0.605,0.113,0.955c0.042,0.35,0.122,0.719,0.222,1.106c0.071,0.393,0.249,0.78,0.362,1.194
			c0.175,0.396,0.33,0.813,0.552,1.207c0.188,0.411,0.454,0.787,0.696,1.174c0.277,0.363,0.533,0.745,0.851,1.066
			c0.292,0.346,0.624,0.641,0.934,0.943c0.347,0.254,0.646,0.556,0.988,0.762c0.326,0.231,0.645,0.437,0.956,0.602
			c0.302,0.184,0.596,0.318,0.857,0.445c0.259,0.135,0.493,0.232,0.692,0.297c0.394,0.146,0.621,0.246,0.621,0.246
			s-0.241-0.012-0.669-0.058c-0.215-0.017-0.473-0.06-0.764-0.133c-0.295-0.062-0.632-0.131-0.976-0.275
			c-0.176-0.065-0.358-0.132-0.548-0.202c-0.181-0.092-0.367-0.186-0.559-0.283c-0.395-0.18-0.759-0.455-1.153-0.715
			c-0.356-0.309-0.763-0.59-1.087-0.971c-0.358-0.348-0.654-0.759-0.967-1.157c-0.261-0.435-0.541-0.856-0.739-1.314
			c-0.238-0.438-0.359-0.919-0.521-1.36c-0.104-0.461-0.23-0.9-0.26-1.332c-0.022-0.214-0.045-0.422-0.066-0.623
			c0.002-0.201,0.004-0.396,0.005-0.584c-0.014-0.371,0.043-0.716,0.089-1.016c0.035-0.301,0.086-0.553,0.146-0.757
			C66.486,36.669,66.562,36.437,66.562,36.437z"/>
	</g>
	<g>
		<path fill="#FCFCFC" d="M72.501,53.351c2.998-0.885,6.043-1.484,9.101-2.01l-0.367,0.708c-0.708-1.464-1.394-2.937-2.031-4.435
			c-0.323-0.746-0.63-1.5-0.931-2.258c-0.277-0.768-0.588-1.521-0.837-2.303c0.458,0.681,0.856,1.391,1.287,2.086
			c0.406,0.705,0.808,1.414,1.192,2.131c0.777,1.43,1.508,2.881,2.215,4.345l0.292,0.603l-0.658,0.105
			C78.7,52.81,75.624,53.223,72.501,53.351z"/>
	</g>
</g>
<g id="Calque_6">
</g>
</svg>
