<?xml version="1.0" encoding="utf-8"?>
<!-- Generator: Adobe Illustrator 16.0.0, SVG Export Plug-In . SVG Version: 6.00 Build 0)  -->
<!DOCTYPE svg PUBLIC "-//W3C//DTD SVG 1.1//EN" "http://www.w3.org/Graphics/SVG/1.1/DTD/svg11.dtd">
<svg version="1.1" xmlns="http://www.w3.org/2000/svg" xmlns:xlink="http://www.w3.org/1999/xlink" x="0px" y="0px" width="122px"
	 height="184.122px" viewBox="0 0 122 184.122" enable-background="new 0 0 122 184.122" xml:space="preserve">
<g id="Calque_8">
</g>
<g id="Calque_5">
</g>
<g id="Calque_9" display="none">
</g>
<g id="Calque_7">
	<g>
		<path fill="#F9A21C" d="M15.889,72.985c0,1.357-0.249,2.404-0.747,3.14s-1.153,1.272-1.969,1.612
			c-0.814,0.339-1.742,0.538-2.783,0.594c-1.041,0.057-2.104,0.085-3.19,0.085H2.854V19.765h4.345c1.086,0,2.149,0.028,3.19,0.085
			s1.969,0.254,2.783,0.594c0.815,0.34,1.471,0.877,1.969,1.612s0.747,1.782,0.747,3.14V72.985z M11.544,25.195
			c0-0.543-0.073-0.962-0.221-1.256s-0.391-0.509-0.729-0.645c-0.34-0.136-0.786-0.215-1.341-0.238
			c-0.555-0.022-1.239-0.033-2.054-0.033v52.134c0.814,0,1.499-0.011,2.054-0.033s1.001-0.103,1.341-0.238
			c0.339-0.136,0.582-0.351,0.729-0.645s0.221-0.713,0.221-1.256V25.195z"/>
		<path fill="#F9A21C" d="M30.008,23.023h-5.431v22.809h4.345v3.258h-4.345v26.067h5.431v3.259h-9.775V19.765h9.775V23.023z"/>
		<path fill="#F9A21C" d="M37.611,72.985c0,0.271,0.012,0.594,0.034,0.968c0.022,0.373,0.102,0.729,0.237,1.068
			c0.136,0.34,0.351,0.628,0.646,0.866c0.294,0.237,0.713,0.356,1.256,0.356s0.961-0.119,1.256-0.356
			c0.293-0.238,0.509-0.526,0.645-0.866c0.136-0.339,0.215-0.695,0.237-1.068c0.022-0.374,0.034-0.696,0.034-0.968V19.765h4.345
			v53.221c0,0.271-0.034,0.764-0.102,1.477c-0.068,0.713-0.306,1.442-0.713,2.189c-0.407,0.746-1.053,1.408-1.935,1.985
			c-0.883,0.577-2.139,0.865-3.768,0.865c-1.63,0-2.886-0.288-3.768-0.865c-0.883-0.577-1.527-1.239-1.935-1.985
			c-0.408-0.747-0.646-1.477-0.713-2.189c-0.068-0.713-0.103-1.205-0.103-1.477V19.765h4.345V72.985z"/>
		<path fill="#F9A21C" d="M55.342,35.002l0.67,8.707l0.521-8.688l0.629-15.257h4.344l-3.258,29.326l3.258,29.325h-4.344
			l-1.494-15.249l-0.747-8.714l-0.595,8.701l-1.043,15.262h-3.723l3.258-29.326l-3.258-29.325h4.52L55.342,35.002z"/>
		<path fill="#F9A21C" d="M69.652,19.765v58.651h-4.344V19.765H69.652z"/>
		<path fill="#F9A21C" d="M76.713,0.995l4.345,14.119h-3.259L71.282,0.995H76.713z M84.315,23.023h-5.431v22.809h4.345v3.258h-4.345
			v26.067h5.431v3.259H74.54V19.765h9.775V23.023z"/>
		<path fill="#F9A21C" d="M99.788,19.765h4.077l1.087,58.651h-4.345V38.229l-3.267,36.929h-2.164l-3.259-36.83v40.089h-4.345
			l1.087-58.651h4.579l3.274,40.385L99.788,19.765z"/>
		<path fill="#F9A21C" d="M119.071,23.023h-5.431v22.809h4.345v3.258h-4.345v26.067h5.431v3.259h-9.775V19.765h9.775V23.023z"/>
	</g>
	<g>
		<path fill="#127EB6" d="M12.426,125.725L3.188,86.254h3.547l7.451,32.662l7.023-32.662h3.499l-8.903,39.471H12.426z"/>
		<path fill="#127EB6" d="M29.471,125.725V86.254h3.666v39.471H29.471z"/>
		<path fill="#127EB6" d="M40.112,125.725V86.254h3.738v36.686h11.236v2.785H40.112z"/>
		<path fill="#127EB6" d="M58.753,125.725V86.254h3.738v36.686h11.236v2.785H58.753z"/>
		<path fill="#127EB6" d="M77.394,125.725V86.254h14.261v2.855H81.132v14.785h8.618v2.76h-8.618v16.285h10.642v2.785H77.394z"/>
		<path fill="#127EB6" d="M104.372,125.725l6.432-30.469h3.014l6.469,30.469h-2.812l-1.507-8.141h-7.277l-1.544,8.141H104.372z
			 M111.612,92.682l-3.474-7.35h2.794l2.095,7.35H111.612z M109.095,115.488h6.487l-3.253-16.43L109.095,115.488z"/>
	</g>
	<g>
		<path fill="#F9A21C" d="M14.595,151.33h-3.782v-15.473c0-0.454-0.055-0.829-0.163-1.123s-0.251-0.521-0.428-0.683
			c-0.178-0.161-0.38-0.274-0.606-0.341s-0.458-0.1-0.694-0.1s-0.468,0.033-0.694,0.1s-0.429,0.18-0.605,0.341
			c-0.178,0.161-0.32,0.389-0.429,0.683s-0.162,0.669-0.162,1.123v40.045c0,0.228,0.01,0.498,0.029,0.811
			c0.02,0.313,0.089,0.611,0.207,0.896c0.118,0.284,0.305,0.525,0.562,0.725c0.256,0.199,0.62,0.299,1.093,0.299
			s0.837-0.1,1.094-0.299c0.256-0.199,0.443-0.44,0.562-0.725c0.118-0.285,0.187-0.583,0.207-0.896
			c0.019-0.313,0.029-0.583,0.029-0.811V156.79h3.782v19.112c0,0.228-0.029,0.641-0.089,1.237c-0.059,0.598-0.266,1.209-0.62,1.835
			c-0.354,0.625-0.916,1.18-1.685,1.663s-1.861,0.726-3.28,0.726c-1.418,0-2.512-0.242-3.279-0.726
			c-0.769-0.483-1.33-1.038-1.685-1.663c-0.354-0.626-0.562-1.237-0.621-1.835c-0.059-0.597-0.088-1.01-0.088-1.237v-40.045
			c0-0.871,0.167-1.625,0.502-2.261c0.335-0.635,0.772-1.151,1.314-1.55s1.147-0.692,1.817-0.882s1.35-0.284,2.039-0.284
			c0.729,0,1.434,0.104,2.113,0.313c0.68,0.209,1.285,0.521,1.817,0.938c0.531,0.418,0.955,0.938,1.271,1.564
			c0.314,0.626,0.473,1.347,0.473,2.161V151.33z"/>
		<path fill="#F9A21C" d="M29.725,175.902c0,0.228-0.029,0.641-0.089,1.237c-0.059,0.598-0.266,1.209-0.62,1.835
			c-0.354,0.625-0.916,1.18-1.685,1.663s-1.861,0.726-3.28,0.726c-1.418,0-2.512-0.242-3.279-0.726
			c-0.769-0.483-1.33-1.038-1.685-1.663c-0.354-0.626-0.562-1.237-0.621-1.835c-0.059-0.597-0.088-1.01-0.088-1.237v-40.045
			c0-0.151,0.01-0.379,0.029-0.682c0.02-0.304,0.078-0.641,0.177-1.01c0.099-0.37,0.267-0.749,0.503-1.138s0.562-0.744,0.975-1.066
			c0.414-0.322,0.946-0.583,1.596-0.782c0.65-0.199,1.448-0.299,2.394-0.299c0.946,0,1.744,0.1,2.394,0.299
			c0.65,0.199,1.183,0.46,1.596,0.782c0.414,0.322,0.739,0.678,0.976,1.066s0.403,0.768,0.502,1.138
			c0.099,0.369,0.157,0.706,0.178,1.01c0.02,0.303,0.029,0.53,0.029,0.682V175.902z M22.16,175.902c0,0.228,0.01,0.498,0.029,0.811
			c0.02,0.313,0.089,0.611,0.207,0.896c0.118,0.284,0.305,0.525,0.562,0.725c0.256,0.199,0.62,0.299,1.093,0.299
			s0.837-0.1,1.094-0.299c0.256-0.199,0.443-0.44,0.562-0.725c0.118-0.285,0.187-0.583,0.207-0.896
			c0.019-0.313,0.029-0.583,0.029-0.811v-40.045c0-0.227-0.011-0.474-0.029-0.739c-0.021-0.265-0.089-0.507-0.207-0.725
			s-0.306-0.403-0.562-0.555c-0.257-0.151-0.621-0.228-1.094-0.228s-0.837,0.076-1.093,0.228c-0.257,0.151-0.443,0.337-0.562,0.555
			s-0.188,0.46-0.207,0.725c-0.02,0.266-0.029,0.513-0.029,0.739V175.902z"/>
		<path fill="#F9A21C" d="M44.141,131.308h3.55l0.945,49.146h-3.782v-33.674l-2.844,30.943h-1.884l-2.837-30.86v33.591h-3.782
			l0.945-49.146h3.986l2.852,33.839L44.141,131.308z"/>
		<path fill="#F9A21C" d="M63.766,152.24c0,1.138-0.217,2.015-0.65,2.63c-0.434,0.617-1.004,1.067-1.714,1.352
			c-0.709,0.284-1.517,0.45-2.423,0.498c-0.906,0.047-1.832,0.07-2.777,0.07v23.663h-3.782v-49.146h3.782
			c1.891,0,3.349,0.151,4.373,0.455s1.773,0.683,2.246,1.138s0.748,0.948,0.827,1.479c0.078,0.531,0.118,1.024,0.118,1.479V152.24z
			 M59.983,135.857c0-0.454-0.064-0.806-0.192-1.052s-0.34-0.427-0.635-0.54c-0.296-0.114-0.686-0.181-1.168-0.199
			s-1.078-0.028-1.787-0.028v20.021c0.473,0,0.936-0.009,1.389-0.028c0.453-0.019,0.856-0.085,1.212-0.199
			c0.354-0.113,0.64-0.293,0.856-0.54c0.217-0.246,0.325-0.597,0.325-1.052V135.857z"/>
		<path fill="#F9A21C" d="M77.004,180.453h-3.782l-0.474-11.831h-2.807l-0.503,11.831h-3.782l2.837-49.146h5.674L77.004,180.453z
			 M72.275,154.97l-0.945-21.842l-0.945,21.842l-0.443,10.922h2.807L72.275,154.97z"/>
		<path fill="#F9A21C" d="M91.188,151.33c0,1.365-0.236,2.313-0.709,2.844c-0.473,0.531-1.183,0.796-2.128,0.796
			c0.473,0,0.887,0.104,1.241,0.313s0.65,0.483,0.887,0.824c0.236,0.342,0.413,0.73,0.531,1.166
			c0.118,0.437,0.178,0.882,0.178,1.337v21.843h-3.782V157.7c0-0.455-0.108-0.806-0.325-1.052s-0.502-0.427-0.856-0.541
			c-0.355-0.113-0.759-0.18-1.212-0.199c-0.453-0.019-0.916-0.028-1.389-0.028v24.573h-3.782v-49.146h3.782
			c0.945,0,1.871,0.023,2.777,0.071c0.906,0.047,1.714,0.213,2.423,0.497c0.71,0.284,1.28,0.735,1.714,1.352s0.65,1.493,0.65,2.63
			V151.33z M87.405,135.857c0-0.454-0.064-0.806-0.192-1.052s-0.34-0.427-0.635-0.54c-0.296-0.114-0.686-0.181-1.168-0.199
			s-1.078-0.028-1.787-0.028v20.021c0.473,0,0.936-0.009,1.389-0.028c0.453-0.019,0.856-0.085,1.212-0.199
			c0.354-0.113,0.64-0.293,0.856-0.54c0.217-0.246,0.325-0.597,0.325-1.052V135.857z"/>
		<path fill="#F9A21C" d="M103.48,134.038h-4.728v19.112h3.782v2.729h-3.782v21.843h4.728v2.73h-8.51v-49.146h8.51V134.038z"/>
		<path fill="#F9A21C" d="M117.664,151.33c0,1.365-0.236,2.313-0.709,2.844c-0.473,0.531-1.183,0.796-2.128,0.796
			c0.473,0,0.887,0.104,1.241,0.313s0.65,0.483,0.887,0.824c0.236,0.342,0.413,0.73,0.531,1.166
			c0.118,0.437,0.178,0.882,0.178,1.337v21.843h-3.782V157.7c0-0.455-0.108-0.806-0.325-1.052s-0.502-0.427-0.856-0.541
			c-0.355-0.113-0.759-0.18-1.212-0.199c-0.453-0.019-0.916-0.028-1.389-0.028v24.573h-3.782v-49.146h3.782
			c0.945,0,1.871,0.023,2.777,0.071c0.906,0.047,1.714,0.213,2.423,0.497c0.71,0.284,1.28,0.735,1.714,1.352s0.65,1.493,0.65,2.63
			V151.33z M113.882,135.857c0-0.454-0.064-0.806-0.192-1.052s-0.34-0.427-0.635-0.54c-0.296-0.114-0.686-0.181-1.168-0.199
			s-1.078-0.028-1.787-0.028v20.021c0.473,0,0.936-0.009,1.389-0.028c0.453-0.019,0.856-0.085,1.212-0.199
			c0.354-0.113,0.64-0.293,0.856-0.54c0.217-0.246,0.325-0.597,0.325-1.052V135.857z"/>
	</g>
</g>
<g id="Calque_6">
</g>
</svg>
