<?xml version="1.0" encoding="utf-8"?>
<!-- Generator: Adobe Illustrator 16.0.0, SVG Export Plug-In . SVG Version: 6.00 Build 0)  -->
<!DOCTYPE svg PUBLIC "-//W3C//DTD SVG 1.1//EN" "http://www.w3.org/Graphics/SVG/1.1/DTD/svg11.dtd">
<svg version="1.1" xmlns="http://www.w3.org/2000/svg" xmlns:xlink="http://www.w3.org/1999/xlink" x="0px" y="0px"
	 width="599.333px" height="368px" viewBox="0 0 599.333 368" enable-background="new 0 0 599.333 368" xml:space="preserve">
<g id="Calque_8">
</g>
<g id="Calque_5">
	<line fill="#FEF9F9" x1="272.304" y1="313.38" x2="272.304" y2="311.062"/>
	<path fill="#E2E2E2" d="M289.517,305.851v15.14v2.008l-3.199-3.408c0,0-3.254-0.373-5.287,4.531c-1.576,0-6.192,0-6.192,0
		s0.074-7.17-1.23-9.135c-1.304-1.966-1.306-1.606-1.306-1.606v-3.168L289.517,305.851z"/>
	<path fill="#E2E2E2" d="M307.9,305.851v15.14v2.008l3.2-3.408c0,0,3.254-0.373,5.287,4.531c1.576,0,6.192,0,6.192,0
		s-0.074-7.17,1.231-9.135c1.304-1.966,1.306-1.606,1.306-1.606v-3.168L307.9,305.851z"/>
	<path fill="#FEF9F9" d="M302.068,305.462c0,0,8.751,5.701,27.894,5.701c19.142,0,25.657-6.516,25.657-6.516V286.55v-9.039
		c0,0-0.106-154.986,0-160.627c0.124-6.487-7.185-6.509-7.185-6.509h-48.359c0,0-45.274,0-51.928,0
		c-6.654,0-6.364,5.206-6.364,5.206s0,160.512,0,168.174l-0.001,2.795v18.098c0,0,6.516,6.516,25.658,6.516
		s27.894-5.701,27.894-5.701l0.074-9.953l6.584-0.082L302.068,305.462z"/>
	<path fill="#127EB6" d="M248.506,118.996h98.155v80.234h-37.47c0,0-2.105,13.439-12.016,13.439c-8.427,0-12.04-13.035-12.04-13.035
		l-36.629,0.274V118.996z"/>
	<path fill="#36415D" d="M289.918,167.193c0,6.781-5.496,12.275-12.275,12.275l0,0c-6.78,0-12.274-5.494-12.274-12.275v-18.52
		c0-6.778,5.494-12.273,12.274-12.273l0,0c6.779,0,12.275,5.495,12.275,12.273V167.193z"/>
	<path fill="#36415D" d="M329.663,167.193c0,6.781-5.495,12.275-12.274,12.275l0,0c-6.782,0-12.274-5.494-12.274-12.275v-18.52
		c0-6.778,5.493-12.273,12.274-12.273l0,0c6.779,0,12.274,5.495,12.274,12.273V167.193z"/>
	<path fill="#F7FBF2" d="M282.812,151.797c0,2.795-2.264,5.061-5.06,5.061l0,0c-2.796,0-5.061-2.266-5.061-5.061v-3.876
		c0-2.796,2.265-5.062,5.061-5.062l0,0c2.796,0,5.06,2.266,5.06,5.062V151.797z"/>
	<path fill="#F7FBF2" d="M322.345,151.797c0,2.795-2.264,5.061-5.061,5.061l0,0c-2.796,0-5.061-2.266-5.061-5.061v-3.876
		c0-2.796,2.264-5.062,5.061-5.062l0,0c2.797,0,5.061,2.266,5.061,5.062V151.797z"/>
	<circle fill="#F7FBF2" cx="273.121" cy="159.441" r="2.368"/>
	<circle fill="#F7FBF2" cx="322.344" cy="159.441" r="2.368"/>
	<path fill="none" stroke="#36415D" stroke-miterlimit="10" d="M261.924,172.576c0,0.647,4.737,12.491,15.72,12.061
		s15.505-12.061,15.505-12.061"/>
	<path fill="none" stroke="#36415D" stroke-miterlimit="10" d="M301.774,172.576c0,0.647,4.74,12.491,15.723,12.061
		c10.981-0.431,15.505-12.061,15.505-12.061"/>
	<path fill="none" stroke="#36415D" stroke-miterlimit="10" d="M293.149,182.483c0,0-1.508,9.69,4.091,9.69
		c6.676,0,4.534-9.69,4.534-9.69"/>
	<path fill="#0C4D65" d="M320.797,222.977v13.453c0,0,3.326,4.65,9.166,4.65c5.7,0,9.163-4.651,9.163-4.651v-13.452H320.797z"/>
	<rect x="320.797" y="219.484" fill="#0E415D" width="18.329" height="3.492"/>
	<path fill="#F7F8F3" d="M241.783,262.696c0,0-12.953-16.154-12.283-35.908c0.678-20.023,12.284-33.058,12.284-33.058l-0.001,17.241
		c0,0-4.138,6.382-4.138,16.054c0,8.521,4.138,18.837,4.138,18.837V262.696z"/>
	<path fill="#F5F3F2" d="M355.643,262.696c0,0,12.952-16.154,12.282-35.908c-0.678-20.023-12.284-33.058-12.284-33.058l0.002,17.241
		c0,0,4.138,6.382,4.138,16.054c0,8.521-4.138,18.837-4.138,18.837V262.696z"/>
	<path fill="#ED5C49" d="M241.784,193.73c0,0-1.119,7.366,2.343,15.309c2.347,5.385,13.848,23.418,13.848,23.418l-3.157,2.239
		c0,0-9.239-15.214-10.895-18.702c-3.259-6.869-7.942-18.595-2.139-26.12V193.73z"/>
	<path fill="#C74940" d="M256.354,233.607c10.377-7.564,19.001,0.03,19.337,14.428c0.269,11.472-3.157,22.794-3.258,24.642
		c1.833,0.916,0.649,6.221-3.564,4.49c-4.124-1.691-0.814-5.918,0.814-5.494c1.019-1.832,6.255-26.084,0.102-34.022
		c-2.182-2.815-5.294-6.109-11.913-1.73c-6.619,4.378-4.48,15.781,2.646,21.382c7.129,5.6,17.921,6.004,22.809,4.986
		c0.662-4.377,5.018-2.49,5.397-0.305c0.661,3.82-3.26,5.602-4.888,2.545c-2.342-0.203-13.441,3.361-24.946-5.293
		C247.385,250.581,248.938,239.012,256.354,233.607z"/>
	<path fill="none" stroke="#070808" stroke-miterlimit="10" d="M327.196,108.905"/>
	<path fill="none" stroke="#070808" stroke-miterlimit="10" d="M269.488,108.905"/>
	<path fill="#344D5A" d="M309.346,96.452h37.693c3.882,0,7.028-3.148,7.028-7.03V37.473c0-3.884-3.146-7.031-7.028-7.031h-95.892
		c-3.883,0-7.032,3.147-7.032,7.031v51.949c0,3.882,3.148,7.03,7.032,7.03h42.6H309.346z"/>
	<path fill="#4DBD98" d="M349.382,84.929c0,3.883-3.148,7.031-7.033,7.031h-86.515c-3.883,0-7.032-3.148-7.032-7.031V42.551
		c0-3.883,3.149-7.032,7.032-7.032h86.515c3.884,0,7.033,3.149,7.033,7.032V84.929z"/>
	<rect x="254.858" y="37.667" fill="#D9EDEA" width="15.818" height="0.978"/>
	<rect x="254.858" y="39.815" fill="#BCE0D5" width="15.818" height="0.977"/>
	<rect x="325.359" y="83.953" fill="#ACDCCE" width="19.14" height="0.976"/>
	<rect x="325.359" y="86.1" fill="#ACDCCE" width="19.14" height="0.977"/>
	<rect x="325.359" y="79.851" fill="#ACDCCE" width="19.14" height="0.978"/>
	<rect x="325.359" y="81.999" fill="#ACDCCE" width="19.14" height="0.977"/>
	<rect x="317.743" y="80.341" fill="#D8EEEB" width="2.54" height="2.536"/>
	<rect x="321.356" y="80.341" fill="#D8EEEB" width="2.54" height="2.536"/>
	<polyline fill="none" stroke="#AF2331" stroke-miterlimit="10" points="265.99,65.595 275.559,65.595 279.465,51.337 
		283.371,76.142 289.034,57.001 291.183,66.376 298.019,66.376 301.144,49.442 307.002,82.877 312.468,56.807 315.207,67.157 
		322.625,67.157 327.117,49.442 331.609,74.773 	"/>
	<path fill="#ED5C49" d="M273.423,109.021h24.758V98.679c0,0,0.2-2.586-2.386-2.684c-2.586-0.101-3.082,2.386-3.082,2.386
		S273.821,96.691,273.423,109.021z"/>
	<path fill="#FEF9F9" d="M286.558,101.628c0.255,0.52,0.042,1.145-0.475,1.399l0,0c-0.517,0.255-1.143,0.041-1.398-0.477
		l-1.977-4.013c-0.254-0.518-0.042-1.145,0.475-1.399l0,0c0.519-0.255,1.145-0.041,1.399,0.477L286.558,101.628z"/>
	<path fill="#FEF9F9" d="M290.623,101c0.255,0.517,0.042,1.143-0.476,1.396l0,0c-0.518,0.255-1.144,0.043-1.398-0.474l-1.977-4.016
		c-0.254-0.518-0.042-1.143,0.478-1.397l0,0c0.516-0.254,1.142-0.043,1.396,0.475L290.623,101z"/>
	<rect x="274.318" y="108.224" fill="#36415D" width="1.59" height="2.089"/>
	<rect x="277.102" y="108.224" fill="#36415D" width="1.59" height="2.089"/>
	<rect x="279.786" y="108.224" fill="#36415D" width="1.591" height="2.089"/>
	<rect x="282.571" y="108.224" fill="#36415D" width="1.591" height="2.089"/>
	<rect x="285.255" y="108.224" fill="#36415D" width="1.592" height="2.089"/>
	<rect x="288.04" y="108.224" fill="#36415D" width="1.59" height="2.089"/>
	<rect x="290.724" y="108.224" fill="#36415D" width="1.591" height="2.089"/>
	<rect x="293.507" y="108.224" fill="#36415D" width="1.592" height="2.089"/>
	<rect x="295.993" y="108.224" fill="#36415D" width="1.59" height="2.089"/>
	<path fill="#ED5C49" d="M325.03,109.021h-24.758V98.679c0,0-0.199-2.586,2.386-2.684c2.586-0.101,3.084,2.386,3.084,2.386
		S324.635,96.691,325.03,109.021z"/>
	<path fill="#FEF9F9" d="M311.896,101.628c-0.256,0.52-0.045,1.145,0.476,1.399l0,0c0.517,0.255,1.143,0.041,1.396-0.477
		l1.976-4.013c0.254-0.518,0.042-1.145-0.477-1.399l0,0c-0.518-0.255-1.143-0.041-1.396,0.477L311.896,101.628z"/>
	<path fill="#FEF9F9" d="M307.831,101c-0.256,0.517-0.043,1.143,0.475,1.396l0,0c0.519,0.255,1.144,0.043,1.398-0.474l1.976-4.016
		c0.255-0.518,0.042-1.143-0.476-1.397l0,0c-0.518-0.254-1.143-0.043-1.397,0.475L307.831,101z"/>
	<rect x="322.544" y="108.224" fill="#36415D" width="1.591" height="2.089"/>
	<rect x="319.763" y="108.224" fill="#36415D" width="1.589" height="2.089"/>
	<rect x="317.076" y="108.224" fill="#36415D" width="1.592" height="2.089"/>
	<rect x="314.291" y="108.224" fill="#36415D" width="1.593" height="2.089"/>
	<rect x="311.609" y="108.224" fill="#36415D" width="1.59" height="2.089"/>
	<rect x="308.825" y="108.224" fill="#36415D" width="1.589" height="2.089"/>
	<rect x="306.138" y="108.224" fill="#36415D" width="1.593" height="2.089"/>
	<rect x="303.354" y="108.224" fill="#36415D" width="1.589" height="2.089"/>
	<rect x="300.87" y="108.224" fill="#36415D" width="1.59" height="2.089"/>
	<path fill="#303A54" d="M384.319,94.922c0,0,6.29,10.07,26.587,10.07c22.162,0,40.125-17.963,40.125-40.123
		c0-22.161-17.964-40.125-40.125-40.125c-22.161,0-40.126,17.964-40.126,40.125c0,5.843,1.249,11.394,3.498,16.401
		c0,0-3.498,5.727-12.483,3.26C368.301,91.672,369.039,93.215,384.319,94.922z"/>
	<path fill="#FEF9F9" d="M266.832,322.309c0,0-1.208-9.517,3.625-9.517c4.833,0,4.38,9.517,4.38,9.517v1.813h6.192
		c0,0,1.36-4.531,5.287-4.531c1.058,1.209,3.323,3.773,3.323,3.773v21.906h-37.46v-6.799c0,0-1.057-6.494,4.23-8.457
		L266.832,322.309z"/>
	<path fill="#0C4D65" d="M268.211,333.426c0.507,0.521,0.49,1.361-0.038,1.871l0,0c-0.528,0.512-1.367,0.506-1.873-0.018
		l-7.197-7.42c-0.505-0.521-0.488-1.361,0.04-1.873l0,0c0.528-0.514,1.366-0.506,1.873,0.018L268.211,333.426z"/>
	<path fill="#0C4D65" d="M273.134,329.85c0.507,0.52,0.49,1.361-0.039,1.871l0,0c-0.529,0.514-1.366,0.504-1.874-0.018l-7.194-7.42
		c-0.505-0.52-0.488-1.361,0.04-1.873l0,0c0.528-0.512,1.366-0.504,1.872,0.018L273.134,329.85z"/>
	<path fill="#0C4D65" d="M256.41,330.014c0,0,3.171,0.602,5.437,4.379c2.267,3.775,1.813,6.945,1.813,6.945H252.18v-5.662
		C252.18,335.676,252.717,331.135,256.41,330.014z"/>
	<path fill="#0C4D65" d="M281.03,324.121c0,0-0.454,3.473,2.417,5.514c2.87,2.039,6.193,1.734,6.193,1.734v-8.006l-3.55-3.549
		C286.091,319.814,283.448,318.832,281.03,324.121z"/>
	<path fill="#FEF9F9" d="M330.68,322.309c0,0,1.208-9.517-3.626-9.517c-4.832,0-4.379,9.517-4.379,9.517v1.813h-6.193
		c0,0-1.362-4.531-5.287-4.531c-1.057,1.209-3.323,3.773-3.323,3.773v21.906h37.462v-6.799c0,0,1.055-6.494-4.232-8.457
		L330.68,322.309z"/>
	<path fill="#0C4D65" d="M329.302,333.426c-0.506,0.521-0.493,1.361,0.039,1.871l0,0c0.526,0.512,1.365,0.506,1.874-0.018
		l7.193-7.42c0.504-0.521,0.49-1.361-0.04-1.873l0,0c-0.527-0.514-1.367-0.506-1.873,0.018L329.302,333.426z"/>
	<path fill="#0C4D65" d="M324.377,329.85c-0.506,0.52-0.487,1.361,0.04,1.871l0,0c0.53,0.514,1.367,0.504,1.874-0.018l7.194-7.42
		c0.506-0.52,0.489-1.361-0.037-1.873l0,0c-0.529-0.512-1.368-0.504-1.875,0.018L324.377,329.85z"/>
	<path fill="#0C4D65" d="M341.102,330.014c0,0-3.172,0.602-5.439,4.379c-2.264,3.775-1.811,6.945-1.811,6.945h11.482v-5.662
		C345.334,335.676,344.796,331.135,341.102,330.014z"/>
	<path fill="#0C4D65" d="M316.482,324.121c0,0,0.453,3.473-2.416,5.514c-2.872,2.039-6.194,1.734-6.194,1.734v-8.006l3.55-3.549
		C311.422,319.814,314.066,318.832,316.482,324.121z"/>
	<line fill="none" stroke="#127EB6" stroke-miterlimit="10" x1="263.659" y1="341.338" x2="289.641" y2="341.338"/>
	<line fill="none" stroke="#127EB6" stroke-miterlimit="10" x1="308.03" y1="341.338" x2="333.852" y2="341.338"/>
	<path fill="#127EB6" d="M217.755,265.378c0,15.664,0,15.664-15.665,15.664h-81.805c-15.666,0-15.666,0-15.666-15.664v-49.169
		c0-15.667,0-15.667,15.666-15.667h81.805c15.665,0,15.665,0,15.665,15.667V265.378z"/>
	<path fill="#0C5A83" d="M190.943,241.664c0,14.537-11.787,26.323-26.327,26.323c-14.539,0-26.325-11.786-26.325-26.323
		c0-14.542,11.787-26.326,26.325-26.326C179.156,215.338,190.943,227.122,190.943,241.664z"/>
	<polygon fill="#FFFFFF" points="159.233,225.347 169.187,225.347 169.187,236.279 180.283,236.279 180.283,245.743 
		169.458,245.743 169.458,256.403 159.233,256.403 159.233,245.743 149.062,245.743 149.062,235.897 159.342,235.897 	"/>
	<rect x="118.495" y="196.952" fill="#0D5675" width="14.359" height="3.59"/>
	<rect x="195.84" y="196.952" fill="#0D5675" width="14.359" height="3.59"/>
	<path fill="#0D5D8B" d="M142.211,200.542v-6.967c0,0,0.326-2.066,1.74-3.589c1.415-1.522,4.135-1.633,4.135-1.633h32.197
		c0,0,2.941-0.109,4.463,1.958c1.523,2.068,1.631,3.481,1.631,3.481v6.749h-4.786v-5.226c0,0,0.11-1.849-2.284-1.849
		c-2.395,0-28.72-0.108-28.72-0.108s-3.046-0.11-3.046,1.739c0,1.849,0,5.443,0,5.443H142.211z"/>
	<path fill="#0E415D" d="M145.12,281.419c0,0-5.356,16.068-5.356,19.848c0,3.781,5.356,26.78,5.356,26.78l8.821,7.563l7.246-2.207
		c0,0-11.027-23.944-10.712-31.823c0.315-7.873,4.412-20.16,4.412-20.16H145.12z"/>
	<path fill="#FEF9F9" d="M131.153,345.27h13.758v-2.73h5.986v2.73h11.552v-13.025l-8.508,3.365l-8.821-7.563
		C145.12,328.047,131.573,329.725,131.153,345.27z"/>
	<path fill="#0E415D" d="M139.64,336.475c0.28,0.33,0.242,0.83-0.089,1.109l0,0c-0.331,0.283-0.828,0.242-1.11-0.088l-3.065-3.598
		c-0.281-0.33-0.243-0.826,0.088-1.109l0,0c0.332-0.281,0.829-0.242,1.11,0.09L139.64,336.475z"/>
	<path fill="#0E415D" d="M144.641,337.424c0.431,0.504,0.513,1.145,0.182,1.43l0,0c-0.332,0.281-0.95,0.098-1.38-0.408l-4.685-5.496
		c-0.431-0.506-0.513-1.146-0.182-1.428l0,0c0.331-0.283,0.951-0.102,1.38,0.406L144.641,337.424z"/>
	<path fill="#0E415D" d="M184.629,281.419c0,0,5.354,16.068,5.354,19.848c0,3.781-5.354,26.78-5.354,26.78l-8.823,7.563
		l-7.247-2.207c0,0,11.027-23.944,10.712-31.823c-0.314-7.873-4.411-20.16-4.411-20.16H184.629z"/>
	<path fill="#FEF9F9" d="M198.595,345.27h-13.757v-2.73h-5.986v2.73h-11.553v-13.025l8.508,3.365l8.823-7.563
		C184.629,328.047,198.175,329.725,198.595,345.27z"/>
	<path fill="#0E415D" d="M190.109,336.475c-0.283,0.33-0.243,0.83,0.088,1.109l0,0c0.33,0.283,0.829,0.242,1.11-0.088l3.066-3.598
		c0.281-0.33,0.243-0.826-0.089-1.109l0,0c-0.33-0.281-0.828-0.242-1.11,0.09L190.109,336.475z"/>
	<path fill="#0E415D" d="M185.108,335.484c-0.433,0.506-0.513,1.145-0.182,1.43l0,0c0.33,0.281,0.949,0.098,1.38-0.408l4.685-5.496
		c0.43-0.506,0.513-1.146,0.181-1.428l0,0c-0.33-0.283-0.95-0.102-1.382,0.406L185.108,335.484z"/>
	<rect x="154.973" y="183.958" fill="#C74940" width="17.66" height="3.975"/>
	<rect x="157.181" y="172.037" fill="#C74940" width="12.804" height="11.921"/>
	<rect x="149.233" y="166.297" fill="#36415D" width="29.36" height="5.74"/>
	<rect x="151.662" y="103.822" fill="#FFFFFF" width="23.179" height="62.475"/>
	<rect x="157.181" y="97.421" fill="#C74940" width="12.804" height="6.401"/>
	<rect x="159.83" y="94.772" fill="#36415D" width="7.063" height="2.648"/>
	<rect x="162.037" y="60.996" fill="#36415D" width="2.869" height="33.776"/>
	<rect x="151.662" y="159.895" fill="#B1B3B2" width="5.519" height="1.765"/>
	<rect x="151.662" y="103.822" fill="#107EB4" width="23.179" height="42.827"/>
	<rect x="151.662" y="153.713" fill="#B1B3B2" width="5.519" height="1.769"/>
	<rect x="151.662" y="147.974" fill="#B1B3B2" width="5.519" height="1.766"/>
	<rect x="151.662" y="141.792" fill="#B1B3B2" width="5.519" height="1.768"/>
	<rect x="151.662" y="135.613" fill="#B1B3B2" width="5.519" height="1.765"/>
	<rect x="151.662" y="129.872" fill="#B1B3B2" width="5.519" height="1.767"/>
	<rect x="151.662" y="124.352" fill="#B1B3B2" width="5.519" height="1.768"/>
	<rect x="151.662" y="118.172" fill="#B1B3B2" width="5.519" height="1.766"/>
	<rect x="151.662" y="112.432" fill="#B1B3B2" width="5.519" height="1.766"/>
	<path fill="#127EB6" d="M162.661,51.023c0,0-0.557-1.93-3.091-4.17s-3.883-4.071-1.987-6.109
		C159.48,38.707,164.212,43.992,162.661,51.023z"/>
	<path fill="#ED5C49" d="M472.167,210.653c0-5.763-4.669-10.432-10.43-10.432h-74.171c-5.761,0-10.432,4.669-10.432,10.432v86.049
		c0,5.762,4.67,10.432,10.432,10.432h74.171c5.761,0,10.43-4.67,10.43-10.432V210.653z"/>
	<rect x="384.38" y="205.729" fill="#FEF9F9" width="79.479" height="94.052"/>
	<rect x="396.549" y="221.952" fill="#127EB6" width="56.207" height="2.896"/>
	<rect x="396.549" y="232.672" fill="#127EB6" width="56.207" height="2.897"/>
	<rect x="396.549" y="243.682" fill="#127EB6" width="56.207" height="2.897"/>
	<rect x="396.549" y="254.401" fill="#127EB6" width="56.207" height="2.898"/>
	<rect x="396.549" y="265.122" fill="#127EB6" width="56.207" height="2.896"/>
	<rect x="396.549" y="275.841" fill="#127EB6" width="56.207" height="2.896"/>
	<path fill="#127EB6" d="M399.154,207.465h50.415c0,0-2.319-9.849-6.953-10.142c-4.637-0.288-7.245,0-7.245,0l-0.87-6.952
		l-6.663-6.664h-5.506l-7.532,7.244l-1.16,6.665c0,0-6.23-0.654-8.838,0.542C401.147,200.809,399.154,207.465,399.154,207.465z"/>
	<circle fill="#FEF9F9" cx="425.061" cy="191.086" r="3.462"/>
	<path fill="#FEF9F9" d="M415.104,307.437v24.956c0,0-3.977-1.664-14.975-1.664c-14.42,0-22.185,13.865-22.185,13.865h45.479
		v-37.157H415.104z"/>
	<path fill="#FEF9F9" d="M435.07,307.437v24.956c0,0,3.976-1.664,14.975-1.664c14.419,0,22.183,13.865,22.183,13.865h-45.477
		v-37.157H435.07z"/>
	<path fill="#0C4D65" d="M495.432,304.083V275.97c0,0,13.415-0.129,31.523-0.129c2.069,0,1.084,4.432,1.084,4.432h43.072v9.814
		h-44.288c0,0-5.381,4.396-6.463,7.674c-2.635,2.895-5.561,6.238-7.163,6.439C511.593,304.401,495.432,304.083,495.432,304.083z"/>
	<rect x="502.854" y="285.847" fill="#FFFFFF" width="61.203" height="18.422"/>
	<path fill="#127EB6" d="M92.462,305.007c0-15.209,2.877-24.672-12.33-24.672H42.83c-15.208,0-12.33,9.463-12.33,24.672v12.62
		c0,15.211-1.439,27.539,13.769,27.539h35.863c15.207,0,12.33-12.328,12.33-27.539V305.007z"/>
	<rect x="24.188" y="270.542" fill="#ED5C49" width="74.012" height="16.064"/>
	<rect x="51.728" y="298.12" fill="#FFFFFF" width="40.951" height="28.114"/>
	<rect x="66.644" y="305.007" fill="#01324B" width="25.818" height="4.016"/>
	<rect x="66.644" y="312.753" fill="#01324B" width="25.818" height="4.013"/>
	<path opacity="0.4" fill="#AFAEAF" d="M98.199,270.542H64.263l-0.261,74.624H84.99c0,0,7.689-4.057,7.689-9.557
		c0-10.424,0.017-33.351,0.03-49.009l5.49,0.006V270.542z"/>
	<rect x="164.294" y="103.822" opacity="0.4" fill="#AFAEAF" width="10.546" height="62.475"/>
	<path opacity="0.4" fill="#29ADDF" d="M162.816,200.542h42.767c12.469-0.267,12.858,1.824,12.858,12.667v54.021
		c0.264,13.521-1.565,13.813-12.858,13.809l-42.767,0.004V200.542z"/>
	<path opacity="0.4" fill="#AFAEAF" d="M299.374,30.458l46.857-0.056c3.44-0.269,8.361,2.171,7.864,8.79l-0.016,50.229
		c0,5.424-5.013,7.383-8.193,7.092l-46.513,0.003V30.458z"/>
	<path opacity="0.4" fill="#AFAEAF" d="M301.4,211.723l0.668,93.739c11.896,7.154,42.38,8.776,53.551-0.814c0,0,0,0-0.235-20.57
		l0.235-159.379c-0.522-4.899,2.94-14.323-8.083-14.302l-46.857,0.163l0.061,8.437h45.92v80.234h-37.47
		C309.19,199.23,307.821,209.538,301.4,211.723z"/>
	<path fill="#127EB6" d="M496.891,344.594c0,0-7.786-20.928-7.786-40.394c11.192-0.488,21.258,0.732,24.092,0
		c4.748-1.225,9.247-11.904,13.626-14.113h53.05c0,0-5.598,51.099-9.735,54.507C563.812,344.594,496.891,344.594,496.891,344.594z"
		/>
	<circle fill="#0C5A83" cx="534.489" cy="322.322" r="12.749"/>
	<polygon fill="#FFFFFF" points="531.882,314.42 536.703,314.42 536.703,319.717 542.076,319.717 542.076,324.299 536.834,324.299 
		536.834,329.463 531.882,329.463 531.882,324.299 526.956,324.299 526.956,319.529 531.934,319.529 	"/>
	<path opacity="0.4" fill="#AFAEAF" d="M425.062,307.134h35.792c6.927,0,11.375-4.248,11.375-11.176v-83.193
		c0-7.917-3.666-12.543-11.112-12.543h-14.546c0,0-1.415-2.886-4.596-2.976c-3.352-0.15-6.602,0.077-6.602,0.077l-0.87-6.952
		l-6.663-6.664h-2.778V307.134z"/>
	<path opacity="0.4" fill="#AFAEAF" d="M579.873,290.087c0,0-4.787,41.597-7.261,48.054c-2.474,6.453-2.474,6.453-2.474,6.453
		h-35.622v-54.507H579.873z"/>
	<polygon opacity="0.4" fill="#AFAEAF" points="531.183,290.087 531.183,280.272 571.111,280.272 571.111,290.054 	"/>
	<path fill="#F9F9FA" d="M158.543,41.543c0,0-1.438,0.522-0.784,1.698c0.653,1.175,2.07,2.423,2.07,2.423
		S157.488,42.475,158.543,41.543z"/>
	<path fill="none" stroke="#F7F8F9" stroke-miterlimit="10" d="M304.386,196.748h38.235V122.28h-90.667v74.468h38.671
		c0,0,1.733,12.156,6.958,11.902C302.809,208.399,304.386,196.748,304.386,196.748z"/>
	<rect x="295.409" y="254.401" fill="#E2E2E2" width="6.365" height="41.107"/>
	<polyline fill="#0C4D65" points="302.272,215.338 304.863,251.863 299.175,259.665 291.949,252.029 293.732,215.451 	"/>
	<path fill="#0E415D" d="M393.768,336.475c0.282,0.33,0.243,0.83-0.088,1.109l0,0c-0.332,0.283-0.829,0.242-1.111-0.088
		l-3.064-3.598c-0.282-0.33-0.242-0.826,0.088-1.109l0,0c0.333-0.281,0.829-0.242,1.111,0.09L393.768,336.475z"/>
	<path fill="#0E415D" d="M398.771,337.424c0.43,0.504,0.512,1.145,0.181,1.43l0,0c-0.331,0.281-0.95,0.098-1.38-0.408l-4.686-5.496
		c-0.43-0.506-0.511-1.146-0.182-1.428l0,0c0.332-0.283,0.951-0.102,1.38,0.406L398.771,337.424z"/>
	<path fill="#0E415D" d="M454.957,336.475c-0.281,0.33-0.243,0.83,0.088,1.109l0,0c0.332,0.283,0.829,0.242,1.112-0.088l3.065-3.598
		c0.282-0.33,0.241-0.826-0.09-1.109l0,0c-0.331-0.281-0.829-0.242-1.109,0.09L454.957,336.475z"/>
	<path fill="#0E415D" d="M449.956,337.424c-0.431,0.504-0.513,1.145-0.181,1.43l0,0c0.331,0.281,0.949,0.098,1.38-0.408l4.685-5.496
		c0.431-0.506,0.513-1.146,0.182-1.428l0,0c-0.331-0.283-0.95-0.102-1.38,0.406L449.956,337.424z"/>
	<path fill="#ED5C49" d="M355.641,193.73c0,0,3.169,29.865-16.515,53.759c-1.494,1.766-6.177,4.074-2.918,6.789
		c3.258,2.717,6.109-3.395,6.109-3.395s26.474-31.399,13.303-67.045C355.479,189.86,355.641,193.73,355.641,193.73z"/>
	<ellipse fill="#C74940" cx="335.393" cy="253.887" rx="10.046" ry="10.03"/>
	<path opacity="0.4" fill="#AFAEAF" d="M345.439,253.887c0,5.538-4.497,10.03-10.045,10.03v-20.061
		C340.943,243.856,345.439,248.348,345.439,253.887z"/>
</g>
<g id="Calque_9" display="none">
</g>
<g id="Calque_7">
	<path fill="#D6D6D6" stroke="#686868" stroke-miterlimit="10" d="M398.987,74.041c0,4.438-3.598,8.035-8.036,8.035h-3.743
		c-4.438,0-8.036-3.598-8.036-8.035V70.17c0-4.438,3.598-8.035,8.036-8.035h3.743c4.438,0,8.036,3.597,8.036,8.035V74.041z"/>
	<path fill="#D6D6D6" stroke="#686868" stroke-miterlimit="10" d="M442.615,74.041c0,4.438-3.598,8.035-8.037,8.035h-3.743
		c-4.437,0-8.035-3.598-8.035-8.035V70.17c0-4.438,3.598-8.035,8.035-8.035h3.743c4.438,0,8.037,3.597,8.037,8.035V74.041z"/>
	<path opacity="0.7" fill="#FFFFFF" stroke="#231F20" stroke-miterlimit="10" d="M406.232,54.944"/>
</g>
<g id="Calque_6">
</g>
</svg>
