<?xml version="1.0" encoding="utf-8"?>
<!-- Generator: Adobe Illustrator 16.0.0, SVG Export Plug-In . SVG Version: 6.00 Build 0)  -->
<!DOCTYPE svg PUBLIC "-//W3C//DTD SVG 1.1//EN" "http://www.w3.org/Graphics/SVG/1.1/DTD/svg11.dtd">
<svg version="1.1" xmlns="http://www.w3.org/2000/svg" xmlns:xlink="http://www.w3.org/1999/xlink" x="0px" y="0px"
	 width="160.169px" height="173.938px" viewBox="0 0 160.169 173.938" enable-background="new 0 0 160.169 173.938"
	 xml:space="preserve">
<g id="Calque_8">
</g>
<g id="Calque_5">
</g>
<g id="Calque_9" display="none">
</g>
<g id="Calque_7">
	<g>
		<path fill="#127EB6" d="M4.736,41.388v-2.42c0.807,0,1.474-0.027,2-0.082s0.994-0.175,1.404-0.359s0.725-0.399,0.943-0.646
			s0.396-0.612,0.534-1.098c0.136-0.485,0.222-1.005,0.256-1.559s0.052-1.282,0.052-2.185V5.885h3.22v27.36
			c0,1.189-0.055,2.188-0.164,2.995s-0.305,1.559-0.585,2.256s-0.673,1.244-1.179,1.641s-1.163,0.704-1.969,0.923
			c-0.808,0.219-1.785,0.328-2.934,0.328H4.736z"/>
		<path fill="#127EB6" d="M19.072,39.891V5.885h12.286v2.462h-9.065v12.736h7.424v2.379h-7.424v14.029h9.168v2.399H19.072z"/>
		<path fill="#127EB6" d="M48.054,39.891V8.347h-6.83V5.885h16.716v2.462h-6.666v31.544H48.054z"/>
		<path fill="#127EB6" d="M60.688,39.891V5.885h7.732c3.021,0,5.182,0.729,6.481,2.185c1.299,1.456,1.948,3.593,1.948,6.409
			c0,4.69-1.579,7.363-4.737,8.02l5.271,17.393h-3.158L69.24,23.175h-5.332v16.716H60.688z M63.908,20.816h4.327
			c2.051,0,3.479-0.503,4.287-1.508c0.807-1.005,1.21-2.614,1.21-4.83c0-2.188-0.383-3.767-1.148-4.737
			c-0.767-0.971-2.182-1.456-4.246-1.456h-4.43V20.816z"/>
		<path fill="#127EB6" d="M90.263,40.321c-1.641,0-3.039-0.25-4.194-0.749c-1.155-0.498-2.058-1.23-2.707-2.194
			s-1.118-2.058-1.405-3.281s-0.431-2.643-0.431-4.256V15.729c0-1.6,0.147-3.001,0.441-4.204s0.772-2.267,1.436-3.189
			s1.569-1.623,2.718-2.103c1.148-0.478,2.529-0.718,4.143-0.718s2.994,0.24,4.144,0.718c1.148,0.479,2.054,1.184,2.717,2.113
			s1.142,1.996,1.437,3.199c0.293,1.203,0.44,2.598,0.44,4.184v14.152c0,1.271-0.086,2.42-0.256,3.445
			c-0.172,1.025-0.466,1.983-0.883,2.872s-0.953,1.63-1.609,2.225s-1.49,1.061-2.502,1.395
			C92.737,40.153,91.575,40.321,90.263,40.321z M87.515,37.234c0.738,0.335,1.654,0.503,2.748,0.503s2.01-0.168,2.748-0.503
			c0.739-0.335,1.303-0.837,1.692-1.507s0.663-1.416,0.82-2.236s0.236-1.805,0.236-2.953V15.155c0-1.148-0.079-2.129-0.236-2.942
			s-0.431-1.549-0.82-2.205s-0.953-1.146-1.692-1.467C92.272,8.22,91.356,8.06,90.263,8.06s-2.01,0.16-2.748,0.481
			s-1.303,0.811-1.692,1.467s-0.663,1.392-0.82,2.205s-0.235,1.794-0.235,2.942v15.383c0,1.148,0.078,2.133,0.235,2.953
			s0.431,1.566,0.82,2.236S86.776,36.899,87.515,37.234z"/>
		<path fill="#127EB6" d="M112.577,40.321c-1.354,0-2.543-0.157-3.568-0.472s-1.859-0.749-2.502-1.303
			c-0.644-0.554-1.163-1.247-1.56-2.081s-0.673-1.72-0.83-2.656s-0.236-2.007-0.236-3.21V5.885h3.098v24.817
			c0,0.848,0.047,1.606,0.144,2.276c0.095,0.67,0.267,1.31,0.513,1.918s0.574,1.114,0.984,1.518s0.95,0.725,1.62,0.964
			s1.449,0.359,2.338,0.359c1.066,0,1.973-0.175,2.718-0.523s1.319-0.854,1.723-1.518s0.694-1.397,0.872-2.205
			c0.178-0.807,0.267-1.736,0.267-2.789V5.885h3.076V30.6c0,1.189-0.082,2.256-0.246,3.199s-0.451,1.833-0.861,2.667
			s-0.94,1.527-1.59,2.081s-1.477,0.988-2.481,1.303S113.89,40.321,112.577,40.321z"/>
		<path fill="#127EB6" d="M132.82,39.891l-7.958-34.006h3.056l6.42,28.14l6.051-28.14h3.015l-7.671,34.006H132.82z"/>
		<path fill="#127EB6" d="M147.362,39.891V5.885h12.286v2.462h-9.065v12.736h7.424v2.379h-7.424v14.029h9.168v2.399H147.362z"/>
	</g>
	<g>
		<path fill="#127EB6" d="M4.658,77.686V51.457H10.4c1.065,0,2.006,0.121,2.823,0.363c0.817,0.243,1.495,0.58,2.033,1.013
			s0.976,0.976,1.313,1.63c0.337,0.653,0.577,1.36,0.72,2.119c0.142,0.76,0.213,1.619,0.213,2.579v10.425
			c0,1.276-0.116,2.395-0.348,3.354c-0.232,0.96-0.611,1.804-1.139,2.531s-1.242,1.279-2.144,1.653
			c-0.902,0.374-1.996,0.562-3.283,0.562H4.658z M7.142,75.835h3.307c0.812,0,1.5-0.113,2.064-0.341
			c0.563-0.227,1.007-0.517,1.328-0.87c0.322-0.353,0.572-0.835,0.752-1.447c0.179-0.611,0.292-1.21,0.34-1.795
			c0.048-0.586,0.071-1.311,0.071-2.176v-9.792c0-0.844-0.034-1.561-0.103-2.151c-0.069-0.591-0.201-1.147-0.396-1.669
			c-0.195-0.522-0.465-0.938-0.808-1.25c-0.343-0.311-0.79-0.554-1.344-0.728s-1.216-0.261-1.985-0.261H7.142V75.835z"/>
		<path fill="#127EB6" d="M21.647,77.686V51.457h2.437v26.229H21.647z"/>
		<path fill="#127EB6" d="M28.719,77.686V51.457h5.964c2.33,0,3.997,0.562,4.999,1.685s1.503,2.771,1.503,4.943
			c0,3.618-1.219,5.68-3.654,6.186l4.065,13.415h-2.437l-3.844-12.893h-4.113v12.893H28.719z M31.202,62.974h3.338
			c1.582,0,2.684-0.388,3.307-1.163c0.622-0.775,0.933-2.017,0.933-3.726c0-1.687-0.295-2.905-0.886-3.654
			c-0.591-0.748-1.683-1.123-3.274-1.123h-3.417V62.974z"/>
		<path fill="#127EB6" d="M45.313,77.686V51.457h9.476v1.898h-6.992v9.823h5.727v1.836h-5.727v10.82h7.071v1.851H45.313z"/>
		<path fill="#127EB6" d="M64.344,78.018c-1.034,0-1.943-0.143-2.729-0.427c-0.785-0.285-1.424-0.665-1.914-1.14
			s-0.889-1.07-1.194-1.787s-0.517-1.466-0.633-2.246s-0.174-1.656-0.174-2.626V59.366c0-1.012,0.061-1.916,0.182-2.713
			c0.121-0.796,0.338-1.545,0.649-2.246c0.311-0.701,0.714-1.284,1.21-1.748c0.495-0.464,1.131-0.828,1.906-1.092
			s1.674-0.396,2.697-0.396c1.149,0,2.13,0.172,2.942,0.515c0.812,0.343,1.455,0.846,1.93,1.511
			c0.475,0.664,0.817,1.439,1.028,2.325s0.316,1.92,0.316,3.101v1.613H68.22v-1.534c0-0.928-0.048-1.703-0.143-2.325
			s-0.277-1.194-0.546-1.717c-0.27-0.521-0.665-0.906-1.187-1.154c-0.522-0.248-1.184-0.372-1.985-0.372
			c-0.865,0-1.579,0.137-2.144,0.411s-0.988,0.691-1.273,1.25s-0.48,1.168-0.585,1.827c-0.106,0.659-0.158,1.469-0.158,2.428v11.138
			c0,2.035,0.303,3.517,0.909,4.445c0.606,0.928,1.69,1.392,3.251,1.392c0.644,0,1.197-0.092,1.661-0.276s0.836-0.43,1.115-0.736
			c0.279-0.306,0.501-0.709,0.664-1.21c0.164-0.501,0.274-1.018,0.332-1.55c0.059-0.533,0.088-1.168,0.088-1.906v-1.709h2.341v1.534
			c0,0.96-0.058,1.822-0.174,2.587s-0.319,1.484-0.609,2.159s-0.667,1.234-1.131,1.677c-0.464,0.443-1.058,0.791-1.78,1.044
			C66.145,77.892,65.303,78.018,64.344,78.018z"/>
		<path fill="#127EB6" d="M77.204,77.686v-24.33h-5.268v-1.898h12.893v1.898h-5.141v24.33H77.204z"/>
		<path fill="#127EB6" d="M86.949,77.686V51.457h9.476v1.898h-6.992v9.823h5.727v1.836h-5.727v10.82h7.071v1.851H86.949z"/>
		<path fill="#127EB6" d="M99.636,77.686l0.68-26.229h2.421l5.221,22.764l5.252-22.764h2.483l0.648,26.229h-2.057l-0.506-20.913
			l-5.015,20.913h-1.582l-4.951-20.866l-0.507,20.866H99.636z"/>
		<path fill="#127EB6" d="M120.676,77.686V51.457h9.476v1.898h-6.992v9.823h5.727v1.836h-5.727v10.82h7.071v1.851H120.676z"/>
		<path fill="#127EB6" d="M133.584,77.686V51.457h1.819l8.353,20.359V51.457h2.119v26.229h-1.74l-8.415-20.597v20.597H133.584z"/>
		<path fill="#127EB6" d="M153.263,77.686v-24.33h-5.268v-1.898h12.893v1.898h-5.141v24.33H153.263z"/>
	</g>
	<g>
		<path fill="#F9A21C" d="M23.01,85.135h5.912l1.574,81.844h-6.299V110.9l-4.735,51.531h-3.138L11.6,111.037v55.941H5.301
			l1.575-81.844h6.639l4.748,56.354L23.01,85.135z"/>
		<path fill="#F9A21C" d="M54.117,166.979h-6.299l-0.788-19.703h-4.675l-0.836,19.703h-6.299l4.724-81.844h9.448L54.117,166.979z
			 M46.243,124.541l-1.574-36.375l-1.575,36.375l-0.738,18.188h4.675L46.243,124.541z"/>
		<path fill="#F9A21C" d="M76.852,110.9l1.526,30.313l1.525-30.313l2-25.766h5.923l-6.316,81.844h-6.659L68.93,85.135h6.316
			L76.852,110.9z"/>
		<path fill="#F9A21C" d="M99.636,85.135v81.844h-6.299V85.135H99.636z"/>
		<path fill="#F9A21C" d="M113.021,85.135v77.297h6.299v4.547h-12.598V85.135H113.021z"/>
		<path fill="#F9A21C" d="M131.918,85.135v77.297h6.299v4.547h-12.598V85.135H131.918z"/>
		<path fill="#F9A21C" d="M158.688,89.682h-7.874v31.828h6.299v4.547h-6.299v36.375h7.874v4.547h-14.173V85.135h14.173V89.682z"/>
	</g>
</g>
<g id="Calque_6">
</g>
</svg>
