<?xml version="1.0" encoding="utf-8"?>
<!-- Generator: Adobe Illustrator 16.0.0, SVG Export Plug-In . SVG Version: 6.00 Build 0)  -->
<!DOCTYPE svg PUBLIC "-//W3C//DTD SVG 1.1//EN" "http://www.w3.org/Graphics/SVG/1.1/DTD/svg11.dtd">
<svg version="1.1" xmlns="http://www.w3.org/2000/svg" xmlns:xlink="http://www.w3.org/1999/xlink" x="0px" y="0px" width="122px"
	 height="183.122px" viewBox="0 0 122 183.122" enable-background="new 0 0 122 183.122" xml:space="preserve">
<g id="Calque_8">
	<rect x="-185.122" y="-602.145" fill="#121F32" width="845.203" height="602.145"/>
</g>
<g id="Calque_5">
</g>
<g id="Calque_9" display="none">
</g>
<g id="Calque_7">
	<g>
		<path fill="#F9A21C" d="M15.725,46.647c0,1.32-0.242,2.338-0.726,3.053c-0.484,0.715-1.122,1.237-1.913,1.567
			c-0.792,0.329-1.694,0.522-2.706,0.577s-2.046,0.082-3.102,0.082v27.452H3.055V22.363h4.224c2.111,0,3.739,0.177,4.884,0.528
			c1.143,0.353,1.979,0.792,2.507,1.319c0.528,0.528,0.836,1.101,0.924,1.716c0.088,0.616,0.132,1.188,0.132,1.716V46.647z
			 M11.502,27.643c0-0.527-0.072-0.935-0.215-1.221c-0.144-0.285-0.379-0.495-0.709-0.627s-0.765-0.209-1.304-0.23
			s-1.204-0.033-1.996-0.033V48.76c0.528,0,1.045-0.011,1.551-0.033c0.506-0.021,0.957-0.099,1.353-0.23
			c0.396-0.133,0.715-0.341,0.957-0.627s0.363-0.693,0.363-1.222V27.643z"/>
		<path fill="#F9A21C" d="M31.563,45.592c0,1.584-0.264,2.685-0.791,3.3c-0.528,0.616-1.32,0.924-2.376,0.924
			c0.528,0,0.99,0.121,1.386,0.363s0.726,0.561,0.99,0.956c0.264,0.396,0.462,0.848,0.594,1.354s0.197,1.022,0.197,1.551v25.34
			H27.34V52.983c0-0.528-0.121-0.936-0.363-1.222c-0.242-0.285-0.561-0.494-0.957-0.627c-0.396-0.132-0.847-0.208-1.353-0.23
			c-0.506-0.021-1.022-0.033-1.551-0.033v28.508h-4.224V22.363h4.224c1.056,0,2.09,0.028,3.102,0.083s1.914,0.247,2.706,0.577
			c0.791,0.33,1.429,0.853,1.913,1.567c0.483,0.715,0.726,1.732,0.726,3.052V45.592z M27.34,27.643c0-0.527-0.072-0.935-0.215-1.221
			c-0.144-0.285-0.379-0.495-0.709-0.627s-0.765-0.209-1.304-0.23s-1.204-0.033-1.996-0.033V48.76c0.528,0,1.045-0.011,1.551-0.033
			c0.506-0.021,0.957-0.099,1.353-0.23c0.396-0.133,0.715-0.341,0.957-0.627s0.363-0.693,0.363-1.222V27.643z"/>
		<path fill="#F9A21C" d="M45.289,25.531H40.01v22.173h4.224v3.167H40.01v25.34h5.279v3.168h-9.503V22.363h9.503V25.531z"/>
		<path fill="#F9A21C" d="M60.33,22.363h3.964l1.056,57.016h-4.224V40.313l-3.175,35.898h-2.104L52.68,40.409v38.97h-4.224
			l1.057-57.016h4.451l3.184,39.258L60.33,22.363z"/>
		<path fill="#F9A21C" d="M74.325,22.363v57.016h-4.224V22.363H74.325z"/>
		<path fill="#F9A21C" d="M81.188,4.117l4.223,13.727h-3.167L75.909,4.117H81.188z M88.579,25.531H83.3v22.173h4.224v3.167H83.3
			v25.34h5.279v3.168h-9.503V22.363h9.503V25.531z"/>
		<path fill="#F9A21C" d="M104.416,45.592c0,1.584-0.264,2.685-0.791,3.3c-0.528,0.616-1.32,0.924-2.376,0.924
			c0.528,0,0.99,0.121,1.386,0.363s0.726,0.561,0.99,0.956c0.264,0.396,0.462,0.848,0.594,1.354s0.197,1.022,0.197,1.551v25.34
			h-4.223V52.983c0-0.528-0.121-0.936-0.363-1.222c-0.242-0.285-0.561-0.494-0.957-0.627c-0.396-0.132-0.847-0.208-1.353-0.23
			c-0.506-0.021-1.022-0.033-1.551-0.033v28.508h-4.224V22.363h4.224c1.056,0,2.09,0.028,3.102,0.083s1.914,0.247,2.706,0.577
			c0.791,0.33,1.429,0.853,1.913,1.567c0.483,0.715,0.726,1.732,0.726,3.052V45.592z M100.193,27.643
			c0-0.527-0.072-0.935-0.215-1.221c-0.144-0.285-0.379-0.495-0.709-0.627s-0.765-0.209-1.304-0.23s-1.204-0.033-1.996-0.033V48.76
			c0.528,0,1.045-0.011,1.551-0.033c0.506-0.021,0.957-0.099,1.353-0.23c0.396-0.133,0.715-0.341,0.957-0.627
			s0.363-0.693,0.363-1.222V27.643z"/>
		<path fill="#F9A21C" d="M118.143,25.531h-5.279v22.173h4.224v3.167h-4.224v25.34h5.279v3.168h-9.503V22.363h9.503V25.531z"/>
	</g>
	<g>
		<path fill="#127EB6" d="M11.426,125.837L2.189,86.366h3.547l7.451,32.662l7.023-32.662h3.499l-8.903,39.471H11.426z"/>
		<path fill="#127EB6" d="M28.472,125.837V86.366h3.666v39.471H28.472z"/>
		<path fill="#127EB6" d="M39.113,125.837V86.366h3.738v36.686h11.236v2.785H39.113z"/>
		<path fill="#127EB6" d="M57.754,125.837V86.366h3.738v36.686h11.236v2.785H57.754z"/>
		<path fill="#127EB6" d="M76.395,125.837V86.366h14.261v2.855H80.133v14.785h8.618v2.76h-8.618v16.285h10.642v2.785H76.395z"/>
		<path fill="#127EB6" d="M103.373,125.837l6.432-30.469h3.014l6.469,30.469h-2.812l-1.507-8.141h-7.277l-1.544,8.141H103.373z
			 M110.613,92.794l-3.474-7.35h2.794l2.095,7.35H110.613z M108.096,115.601h6.487l-3.253-16.43L108.096,115.601z"/>
	</g>
	<g>
		<path fill="#F9A21C" d="M14.704,149.342h-3.782v-15.473c0-0.454-0.055-0.829-0.163-1.123s-0.251-0.521-0.428-0.683
			c-0.178-0.161-0.38-0.274-0.606-0.341s-0.458-0.1-0.694-0.1s-0.468,0.033-0.694,0.1s-0.429,0.18-0.605,0.341
			c-0.178,0.161-0.32,0.389-0.429,0.683s-0.162,0.669-0.162,1.123v40.045c0,0.228,0.01,0.498,0.029,0.811
			c0.02,0.313,0.089,0.611,0.207,0.896c0.118,0.284,0.305,0.525,0.562,0.725c0.256,0.199,0.62,0.299,1.093,0.299
			s0.837-0.1,1.094-0.299c0.256-0.199,0.443-0.44,0.562-0.725c0.118-0.285,0.187-0.583,0.207-0.896
			c0.019-0.313,0.029-0.583,0.029-0.811v-19.112h3.782v19.112c0,0.228-0.029,0.641-0.089,1.237c-0.059,0.598-0.266,1.209-0.62,1.835
			c-0.354,0.625-0.916,1.18-1.685,1.663s-1.861,0.726-3.28,0.726c-1.418,0-2.512-0.242-3.279-0.726
			c-0.769-0.483-1.33-1.038-1.685-1.663c-0.354-0.626-0.562-1.237-0.621-1.835c-0.059-0.597-0.088-1.01-0.088-1.237v-40.045
			c0-0.871,0.167-1.625,0.502-2.261c0.335-0.635,0.772-1.151,1.314-1.55s1.147-0.692,1.817-0.882s1.35-0.284,2.039-0.284
			c0.729,0,1.434,0.104,2.113,0.313c0.68,0.209,1.285,0.521,1.817,0.938c0.531,0.418,0.955,0.938,1.271,1.564
			c0.314,0.626,0.473,1.347,0.473,2.161V149.342z"/>
		<path fill="#F9A21C" d="M29.834,173.914c0,0.228-0.029,0.641-0.089,1.237c-0.059,0.598-0.266,1.209-0.62,1.835
			c-0.354,0.625-0.916,1.18-1.685,1.663s-1.861,0.726-3.28,0.726c-1.418,0-2.512-0.242-3.279-0.726
			c-0.769-0.483-1.33-1.038-1.685-1.663c-0.354-0.626-0.562-1.237-0.621-1.835c-0.059-0.597-0.088-1.01-0.088-1.237v-40.045
			c0-0.151,0.01-0.379,0.029-0.682c0.02-0.304,0.078-0.641,0.177-1.01c0.099-0.37,0.267-0.749,0.503-1.138s0.562-0.744,0.975-1.066
			c0.414-0.322,0.946-0.583,1.596-0.782c0.65-0.199,1.448-0.299,2.394-0.299c0.946,0,1.744,0.1,2.394,0.299
			c0.65,0.199,1.183,0.46,1.596,0.782c0.414,0.322,0.739,0.678,0.976,1.066s0.403,0.768,0.502,1.138
			c0.099,0.369,0.157,0.706,0.178,1.01c0.02,0.303,0.029,0.53,0.029,0.682V173.914z M22.27,173.914c0,0.228,0.01,0.498,0.029,0.811
			c0.02,0.313,0.089,0.611,0.207,0.896c0.118,0.284,0.305,0.525,0.562,0.725c0.256,0.199,0.62,0.299,1.093,0.299
			s0.837-0.1,1.094-0.299c0.256-0.199,0.443-0.44,0.562-0.725c0.118-0.285,0.187-0.583,0.207-0.896
			c0.019-0.313,0.029-0.583,0.029-0.811v-40.045c0-0.227-0.011-0.474-0.029-0.739c-0.021-0.265-0.089-0.507-0.207-0.725
			s-0.306-0.403-0.562-0.555c-0.257-0.151-0.621-0.228-1.094-0.228s-0.837,0.076-1.093,0.228c-0.257,0.151-0.443,0.337-0.562,0.555
			s-0.188,0.46-0.207,0.725c-0.02,0.266-0.029,0.513-0.029,0.739V173.914z"/>
		<path fill="#F9A21C" d="M44.25,129.319h3.55l0.945,49.146h-3.782v-33.674l-2.844,30.943h-1.884l-2.837-30.86v33.591h-3.782
			l0.945-49.146h3.986l2.852,33.839L44.25,129.319z"/>
		<path fill="#F9A21C" d="M63.875,150.252c0,1.138-0.217,2.015-0.65,2.63c-0.434,0.617-1.004,1.067-1.714,1.352
			c-0.709,0.284-1.517,0.45-2.423,0.498c-0.906,0.047-1.832,0.07-2.777,0.07v23.663h-3.782v-49.146h3.782
			c1.891,0,3.349,0.151,4.373,0.455s1.773,0.683,2.246,1.138s0.748,0.948,0.827,1.479c0.078,0.531,0.118,1.024,0.118,1.479V150.252z
			 M60.093,133.869c0-0.454-0.064-0.806-0.192-1.052s-0.34-0.427-0.635-0.54c-0.296-0.114-0.686-0.181-1.168-0.199
			s-1.078-0.028-1.787-0.028v20.021c0.473,0,0.936-0.009,1.389-0.028c0.453-0.019,0.856-0.085,1.212-0.199
			c0.354-0.113,0.64-0.293,0.856-0.54c0.217-0.246,0.325-0.597,0.325-1.052V133.869z"/>
		<path fill="#F9A21C" d="M77.113,178.465h-3.782l-0.474-11.831h-2.807l-0.503,11.831h-3.782l2.837-49.146h5.674L77.113,178.465z
			 M72.385,152.981l-0.945-21.842l-0.945,21.842l-0.443,10.922h2.807L72.385,152.981z"/>
		<path fill="#F9A21C" d="M91.297,149.342c0,1.365-0.236,2.313-0.709,2.844c-0.473,0.531-1.183,0.796-2.128,0.796
			c0.473,0,0.887,0.104,1.241,0.313s0.65,0.483,0.887,0.824c0.236,0.342,0.413,0.73,0.531,1.166
			c0.118,0.437,0.178,0.882,0.178,1.337v21.843h-3.782v-22.753c0-0.455-0.108-0.806-0.325-1.052s-0.502-0.427-0.856-0.541
			c-0.355-0.113-0.759-0.18-1.212-0.199c-0.453-0.019-0.916-0.028-1.389-0.028v24.573H79.95v-49.146h3.782
			c0.945,0,1.871,0.023,2.777,0.071c0.906,0.047,1.714,0.213,2.423,0.497c0.71,0.284,1.28,0.735,1.714,1.352s0.65,1.493,0.65,2.63
			V149.342z M87.515,133.869c0-0.454-0.064-0.806-0.192-1.052s-0.34-0.427-0.635-0.54c-0.296-0.114-0.686-0.181-1.168-0.199
			s-1.078-0.028-1.787-0.028v20.021c0.473,0,0.936-0.009,1.389-0.028c0.453-0.019,0.856-0.085,1.212-0.199
			c0.354-0.113,0.64-0.293,0.856-0.54c0.217-0.246,0.325-0.597,0.325-1.052V133.869z"/>
		<path fill="#F9A21C" d="M103.59,132.05h-4.728v19.112h3.782v2.729h-3.782v21.843h4.728v2.73h-8.51v-49.146h8.51V132.05z"/>
		<path fill="#F9A21C" d="M117.773,149.342c0,1.365-0.236,2.313-0.709,2.844c-0.473,0.531-1.183,0.796-2.128,0.796
			c0.473,0,0.887,0.104,1.241,0.313s0.65,0.483,0.887,0.824c0.236,0.342,0.413,0.73,0.531,1.166
			c0.118,0.437,0.178,0.882,0.178,1.337v21.843h-3.782v-22.753c0-0.455-0.108-0.806-0.325-1.052s-0.502-0.427-0.856-0.541
			c-0.355-0.113-0.759-0.18-1.212-0.199c-0.453-0.019-0.916-0.028-1.389-0.028v24.573h-3.782v-49.146h3.782
			c0.945,0,1.871,0.023,2.777,0.071c0.906,0.047,1.714,0.213,2.423,0.497c0.71,0.284,1.28,0.735,1.714,1.352s0.65,1.493,0.65,2.63
			V149.342z M113.991,133.869c0-0.454-0.064-0.806-0.192-1.052s-0.34-0.427-0.635-0.54c-0.296-0.114-0.686-0.181-1.168-0.199
			s-1.078-0.028-1.787-0.028v20.021c0.473,0,0.936-0.009,1.389-0.028c0.453-0.019,0.856-0.085,1.212-0.199
			c0.354-0.113,0.64-0.293,0.856-0.54c0.217-0.246,0.325-0.597,0.325-1.052V133.869z"/>
	</g>
</g>
<g id="Calque_6">
</g>
</svg>
