<?xml version="1.0" encoding="utf-8"?>
<!-- Generator: Adobe Illustrator 16.0.0, SVG Export Plug-In . SVG Version: 6.00 Build 0)  -->
<!DOCTYPE svg PUBLIC "-//W3C//DTD SVG 1.1//EN" "http://www.w3.org/Graphics/SVG/1.1/DTD/svg11.dtd">
<svg version="1.1" xmlns="http://www.w3.org/2000/svg" xmlns:xlink="http://www.w3.org/1999/xlink" x="0px" y="0px" width="86px"
	 height="58.517px" viewBox="0 0 86 58.517" enable-background="new 0 0 86 58.517" xml:space="preserve">
<g id="Calque_8">
</g>
<g id="Calque_5">
</g>
<g id="Calque_9" display="none">
</g>
<g id="Calque_7">
	<g>
		<path fill="#FFFFFF" d="M19.167,10.46c-0.319,0-0.6-0.044-0.843-0.132c-0.242-0.088-0.439-0.205-0.59-0.352
			c-0.152-0.146-0.274-0.33-0.369-0.552s-0.159-0.452-0.195-0.693s-0.054-0.511-0.054-0.811V4.703c0-0.313,0.019-0.592,0.056-0.838
			c0.038-0.245,0.104-0.477,0.201-0.693c0.096-0.216,0.22-0.396,0.373-0.539s0.35-0.256,0.588-0.337
			c0.24-0.081,0.518-0.122,0.833-0.122c0.354,0,0.657,0.053,0.908,0.158c0.251,0.106,0.449,0.262,0.596,0.467
			s0.252,0.444,0.317,0.718s0.098,0.593,0.098,0.957v0.498h-0.723V4.498c0-0.286-0.015-0.525-0.044-0.718s-0.085-0.368-0.169-0.53
			c-0.082-0.16-0.205-0.279-0.365-0.355c-0.162-0.077-0.366-0.115-0.613-0.115c-0.267,0-0.487,0.042-0.662,0.127
			c-0.174,0.085-0.305,0.213-0.393,0.386s-0.148,0.36-0.181,0.563c-0.032,0.204-0.049,0.454-0.049,0.75v3.438
			c0,0.628,0.094,1.086,0.28,1.372c0.188,0.286,0.522,0.43,1.004,0.43c0.198,0,0.369-0.028,0.513-0.085
			c0.144-0.058,0.258-0.133,0.345-0.228c0.086-0.095,0.154-0.219,0.205-0.374c0.05-0.154,0.084-0.313,0.102-0.479
			c0.019-0.164,0.027-0.36,0.027-0.588V7.564h0.723v0.474c0,0.296-0.018,0.563-0.054,0.798c-0.036,0.236-0.099,0.459-0.188,0.667
			c-0.089,0.208-0.205,0.381-0.349,0.518s-0.326,0.244-0.55,0.322C19.723,10.421,19.463,10.46,19.167,10.46z"/>
		<path fill="#FFFFFF" d="M22.263,10.357V2.262h0.767v3.589h2.549V2.262h0.767v8.096h-0.767V6.412h-2.549v3.945H22.263z"/>
		<path fill="#FFFFFF" d="M29.67,10.46c-0.391,0-0.724-0.06-0.999-0.179c-0.274-0.118-0.489-0.293-0.645-0.521
			c-0.154-0.23-0.266-0.49-0.334-0.781c-0.068-0.292-0.103-0.63-0.103-1.014V4.605c0-0.381,0.035-0.715,0.104-1.001
			c0.07-0.286,0.185-0.54,0.342-0.759c0.158-0.221,0.374-0.387,0.647-0.501s0.603-0.171,0.986-0.171s0.713,0.057,0.986,0.171
			s0.489,0.281,0.647,0.503c0.157,0.222,0.271,0.476,0.342,0.762c0.069,0.286,0.104,0.618,0.104,0.996v3.369
			c0,0.303-0.021,0.576-0.062,0.82c-0.04,0.244-0.11,0.472-0.209,0.684c-0.1,0.212-0.228,0.389-0.384,0.529
			c-0.156,0.143-0.354,0.253-0.596,0.332C30.259,10.42,29.982,10.46,29.67,10.46z M29.016,9.725c0.176,0.08,0.394,0.12,0.654,0.12
			s0.479-0.04,0.654-0.12c0.176-0.079,0.31-0.199,0.403-0.358c0.092-0.159,0.157-0.337,0.195-0.532
			c0.037-0.195,0.056-0.43,0.056-0.703V4.469c0-0.273-0.019-0.507-0.056-0.701c-0.038-0.193-0.104-0.368-0.195-0.524
			c-0.094-0.156-0.228-0.272-0.403-0.349c-0.176-0.077-0.394-0.115-0.654-0.115s-0.479,0.038-0.654,0.115
			c-0.176,0.076-0.31,0.192-0.403,0.349c-0.092,0.156-0.157,0.331-0.195,0.524c-0.037,0.194-0.056,0.428-0.056,0.701v3.662
			c0,0.273,0.019,0.508,0.056,0.703c0.038,0.195,0.104,0.373,0.195,0.532C28.706,9.525,28.84,9.646,29.016,9.725z"/>
		<path fill="#FFFFFF" d="M33.029,10.357V2.262h0.752v8.096H33.029z"/>
		<path fill="#FFFFFF" d="M36.945,10.455c-0.642,0-1.127-0.193-1.458-0.578c-0.33-0.387-0.521-0.926-0.573-1.619l0.679-0.195
			c0.022,0.215,0.051,0.404,0.086,0.568c0.033,0.165,0.084,0.326,0.15,0.484c0.067,0.157,0.148,0.287,0.244,0.388
			c0.097,0.101,0.219,0.183,0.367,0.244c0.147,0.062,0.317,0.093,0.51,0.093c0.762,0,1.143-0.391,1.143-1.172
			c0-0.173-0.021-0.334-0.066-0.486c-0.043-0.15-0.113-0.299-0.209-0.443c-0.097-0.146-0.197-0.276-0.303-0.394
			c-0.106-0.117-0.244-0.259-0.413-0.425l-1.436-1.377c-0.488-0.469-0.732-1.013-0.732-1.631c0-0.55,0.163-0.977,0.491-1.279
			c0.326-0.303,0.771-0.456,1.33-0.459c0.013,0,0.024,0,0.034,0c0.589,0,1.04,0.159,1.353,0.479
			c0.319,0.325,0.505,0.852,0.557,1.577l-0.645,0.166c-0.046-0.547-0.163-0.957-0.352-1.23c-0.183-0.261-0.476-0.391-0.879-0.391
			c-0.02,0-0.039,0-0.059,0c-0.354,0.01-0.634,0.103-0.838,0.278c-0.203,0.176-0.305,0.441-0.305,0.796
			c0,0.222,0.043,0.423,0.129,0.603c0.087,0.182,0.234,0.372,0.442,0.574l1.426,1.353c0.368,0.352,0.657,0.707,0.869,1.067
			c0.212,0.359,0.317,0.749,0.317,1.169c0,0.589-0.17,1.043-0.51,1.362C37.955,10.296,37.505,10.455,36.945,10.455z"/>
		<path fill="#FFFFFF" d="M39.846,10.357V2.262h0.752v8.096H39.846z"/>
		<path fill="#FFFFFF" d="M43.762,10.455c-0.642,0-1.127-0.193-1.458-0.578c-0.33-0.387-0.521-0.926-0.573-1.619l0.679-0.195
			c0.022,0.215,0.051,0.404,0.086,0.568c0.033,0.165,0.084,0.326,0.15,0.484c0.067,0.157,0.148,0.287,0.244,0.388
			c0.097,0.101,0.219,0.183,0.367,0.244c0.147,0.062,0.317,0.093,0.51,0.093c0.762,0,1.143-0.391,1.143-1.172
			c0-0.173-0.021-0.334-0.066-0.486c-0.043-0.15-0.113-0.299-0.209-0.443c-0.097-0.146-0.197-0.276-0.303-0.394
			c-0.106-0.117-0.244-0.259-0.413-0.425l-1.436-1.377C41.994,5.074,41.75,4.53,41.75,3.912c0-0.55,0.163-0.977,0.491-1.279
			c0.326-0.303,0.771-0.456,1.33-0.459c0.013,0,0.024,0,0.034,0c0.589,0,1.04,0.159,1.353,0.479
			c0.319,0.325,0.505,0.852,0.557,1.577L44.87,4.396c-0.046-0.547-0.163-0.957-0.352-1.23c-0.183-0.261-0.476-0.391-0.879-0.391
			c-0.02,0-0.039,0-0.059,0c-0.354,0.01-0.634,0.103-0.838,0.278c-0.203,0.176-0.305,0.441-0.305,0.796
			c0,0.222,0.043,0.423,0.129,0.603c0.087,0.182,0.234,0.372,0.442,0.574l1.426,1.353c0.368,0.352,0.657,0.707,0.869,1.067
			c0.212,0.359,0.317,0.749,0.317,1.169c0,0.589-0.17,1.043-0.51,1.362C44.771,10.296,44.321,10.455,43.762,10.455z"/>
		<path fill="#FFFFFF" d="M48.361,10.455c-0.642,0-1.127-0.193-1.458-0.578c-0.33-0.387-0.521-0.926-0.573-1.619l0.679-0.195
			c0.022,0.215,0.051,0.404,0.086,0.568c0.033,0.165,0.084,0.326,0.15,0.484c0.067,0.157,0.148,0.287,0.244,0.388
			c0.097,0.101,0.219,0.183,0.367,0.244c0.147,0.062,0.317,0.093,0.51,0.093c0.762,0,1.143-0.391,1.143-1.172
			c0-0.173-0.021-0.334-0.066-0.486c-0.043-0.15-0.113-0.299-0.209-0.443c-0.097-0.146-0.197-0.276-0.303-0.394
			c-0.106-0.117-0.244-0.259-0.413-0.425l-1.436-1.377C46.594,5.074,46.35,4.53,46.35,3.912c0-0.55,0.163-0.977,0.491-1.279
			c0.326-0.303,0.771-0.456,1.33-0.459c0.013,0,0.024,0,0.034,0c0.589,0,1.04,0.159,1.353,0.479
			c0.319,0.325,0.505,0.852,0.557,1.577L49.47,4.396c-0.046-0.547-0.163-0.957-0.352-1.23c-0.183-0.261-0.476-0.391-0.879-0.391
			c-0.02,0-0.039,0-0.059,0c-0.354,0.01-0.634,0.103-0.838,0.278c-0.203,0.176-0.305,0.441-0.305,0.796
			c0,0.222,0.043,0.423,0.129,0.603c0.087,0.182,0.234,0.372,0.442,0.574l1.426,1.353c0.368,0.352,0.657,0.707,0.869,1.067
			c0.212,0.359,0.317,0.749,0.317,1.169c0,0.589-0.17,1.043-0.51,1.362C49.371,10.296,48.921,10.455,48.361,10.455z"/>
		<path fill="#FFFFFF" d="M51.228,10.357V2.262h2.925v0.586h-2.158V5.88h1.768v0.566h-1.768v3.34h2.183v0.571H51.228z"/>
		<path fill="#FFFFFF" d="M54.846,10.357V9.781l2.715-6.948h-2.495V2.262h3.311v0.396l-2.778,7.129h2.788v0.571H54.846z"/>
		<path fill="#FFFFFF" d="M62.761,10.357l-1.895-8.096h0.728l1.528,6.699l1.44-6.699h0.718l-1.826,8.096H62.761z"/>
		<path fill="#FFFFFF" d="M68.142,10.46c-0.391,0-0.724-0.06-0.999-0.179c-0.274-0.118-0.489-0.293-0.645-0.521
			c-0.154-0.23-0.266-0.49-0.334-0.781c-0.068-0.292-0.103-0.63-0.103-1.014V4.605c0-0.381,0.035-0.715,0.104-1.001
			c0.07-0.286,0.185-0.54,0.342-0.759c0.158-0.221,0.374-0.387,0.647-0.501s0.603-0.171,0.986-0.171s0.713,0.057,0.986,0.171
			s0.489,0.281,0.647,0.503c0.157,0.222,0.271,0.476,0.342,0.762c0.069,0.286,0.104,0.618,0.104,0.996v3.369
			c0,0.303-0.021,0.576-0.062,0.82c-0.04,0.244-0.11,0.472-0.209,0.684c-0.1,0.212-0.228,0.389-0.384,0.529
			c-0.156,0.143-0.354,0.253-0.596,0.332C68.73,10.42,68.454,10.46,68.142,10.46z M67.487,9.725c0.176,0.08,0.394,0.12,0.654,0.12
			s0.479-0.04,0.654-0.12c0.176-0.079,0.31-0.199,0.403-0.358c0.092-0.159,0.157-0.337,0.195-0.532
			c0.037-0.195,0.056-0.43,0.056-0.703V4.469c0-0.273-0.019-0.507-0.056-0.701c-0.038-0.193-0.104-0.368-0.195-0.524
			c-0.094-0.156-0.228-0.272-0.403-0.349c-0.176-0.077-0.394-0.115-0.654-0.115s-0.479,0.038-0.654,0.115
			c-0.176,0.076-0.31,0.192-0.403,0.349c-0.092,0.156-0.157,0.331-0.195,0.524c-0.037,0.194-0.056,0.428-0.056,0.701v3.662
			c0,0.273,0.019,0.508,0.056,0.703c0.038,0.195,0.104,0.373,0.195,0.532C67.178,9.525,67.312,9.646,67.487,9.725z"/>
		<path fill="#FFFFFF" d="M72.341,10.357v-7.51h-1.626V2.262h3.979v0.586h-1.587v7.51H72.341z"/>
		<path fill="#FFFFFF" d="M75.349,10.357V2.262h1.841c0.72,0,1.233,0.174,1.543,0.52c0.31,0.348,0.464,0.855,0.464,1.526
			c0,1.116-0.376,1.753-1.128,1.909l1.255,4.141h-0.752l-1.187-3.979h-1.27v3.979H75.349z M76.115,5.816h1.03
			c0.488,0,0.828-0.119,1.021-0.359c0.192-0.238,0.288-0.622,0.288-1.149c0-0.521-0.091-0.896-0.273-1.128s-0.52-0.347-1.011-0.347
			h-1.055V5.816z"/>
		<path fill="#FFFFFF" d="M80.471,10.357V2.262h2.925v0.586h-2.158V5.88h1.768v0.566h-1.768v3.34h2.183v0.571H80.471z"/>
		<path fill="#FFFFFF" d="M22.683,22.357v-8.096h2.925v0.586h-2.158v3.032h1.768v0.566h-1.768v3.34h2.183v0.571H22.683z"/>
		<path fill="#FFFFFF" d="M27.541,22.357v-7.51h-1.626v-0.586h3.979v0.586h-1.587v7.51H27.541z"/>
		<path fill="#FFFFFF" d="M30.119,22.357l1.709-8.096h0.801l1.719,8.096h-0.747l-0.4-2.163h-1.934l-0.41,2.163H30.119z
			 M31.374,19.638h1.724l-0.864-4.365L31.374,19.638z"/>
		<path fill="#FFFFFF" d="M35.319,22.357v-8.096h1.738c0.706,0,1.214,0.174,1.523,0.522s0.464,0.847,0.464,1.494
			c0,0.28-0.029,0.533-0.088,0.759c-0.059,0.227-0.168,0.43-0.327,0.608s-0.364,0.295-0.615,0.347
			c0.228,0.062,0.424,0.161,0.588,0.298c0.165,0.137,0.292,0.299,0.381,0.485c0.09,0.188,0.154,0.382,0.193,0.584
			s0.059,0.42,0.059,0.654c0,0.273-0.018,0.521-0.051,0.742c-0.035,0.222-0.096,0.434-0.184,0.637
			c-0.088,0.204-0.203,0.375-0.344,0.514c-0.143,0.138-0.325,0.248-0.55,0.329s-0.485,0.122-0.781,0.122H35.319z M36.086,17.748
			h1.104c0.433,0,0.735-0.125,0.908-0.376s0.259-0.615,0.259-1.094c0-0.511-0.109-0.877-0.33-1.099
			c-0.219-0.222-0.624-0.332-1.213-0.332h-0.728V17.748z M36.086,21.786h1.099c0.505,0,0.85-0.137,1.035-0.41
			s0.278-0.726,0.278-1.357c0-1.12-0.435-1.68-1.304-1.68h-1.108V21.786z"/>
		<path fill="#FFFFFF" d="M40.334,22.357v-8.096h0.767v7.524h2.305v0.571H40.334z"/>
		<path fill="#FFFFFF" d="M44.191,22.357v-8.096h0.752v8.096H44.191z"/>
		<path fill="#FFFFFF" d="M48.107,22.455c-0.642,0-1.127-0.193-1.458-0.578c-0.33-0.387-0.521-0.926-0.573-1.619l0.679-0.195
			c0.022,0.215,0.051,0.404,0.086,0.568c0.033,0.165,0.084,0.326,0.15,0.484c0.067,0.157,0.148,0.287,0.244,0.388
			c0.097,0.101,0.219,0.183,0.367,0.244c0.147,0.062,0.317,0.093,0.51,0.093c0.762,0,1.143-0.391,1.143-1.172
			c0-0.173-0.021-0.334-0.066-0.486c-0.043-0.15-0.113-0.299-0.209-0.443c-0.097-0.146-0.197-0.276-0.303-0.394
			c-0.106-0.117-0.244-0.259-0.413-0.425l-1.436-1.377c-0.488-0.469-0.732-1.013-0.732-1.631c0-0.55,0.163-0.977,0.491-1.279
			c0.326-0.303,0.771-0.456,1.33-0.459c0.013,0,0.024,0,0.034,0c0.589,0,1.04,0.159,1.353,0.479
			c0.319,0.325,0.505,0.852,0.557,1.577l-0.645,0.166c-0.046-0.547-0.163-0.957-0.352-1.23c-0.183-0.261-0.476-0.391-0.879-0.391
			c-0.02,0-0.039,0-0.059,0c-0.354,0.01-0.634,0.103-0.838,0.278c-0.203,0.176-0.305,0.441-0.305,0.796
			c0,0.222,0.043,0.423,0.129,0.603c0.087,0.182,0.234,0.372,0.442,0.574l1.426,1.353c0.368,0.352,0.657,0.707,0.869,1.067
			c0.212,0.359,0.317,0.749,0.317,1.169c0,0.589-0.17,1.043-0.51,1.362C49.117,22.296,48.667,22.455,48.107,22.455z"/>
		<path fill="#FFFFFF" d="M52.707,22.455c-0.642,0-1.127-0.193-1.458-0.578c-0.33-0.387-0.521-0.926-0.573-1.619l0.679-0.195
			c0.022,0.215,0.051,0.404,0.086,0.568c0.033,0.165,0.084,0.326,0.15,0.484c0.067,0.157,0.148,0.287,0.244,0.388
			c0.097,0.101,0.219,0.183,0.367,0.244c0.147,0.062,0.317,0.093,0.51,0.093c0.762,0,1.143-0.391,1.143-1.172
			c0-0.173-0.021-0.334-0.066-0.486c-0.043-0.15-0.113-0.299-0.209-0.443c-0.097-0.146-0.197-0.276-0.303-0.394
			c-0.106-0.117-0.244-0.259-0.413-0.425l-1.436-1.377c-0.488-0.469-0.732-1.013-0.732-1.631c0-0.55,0.163-0.977,0.491-1.279
			c0.326-0.303,0.771-0.456,1.33-0.459c0.013,0,0.024,0,0.034,0c0.589,0,1.04,0.159,1.353,0.479
			c0.319,0.325,0.505,0.852,0.557,1.577l-0.645,0.166c-0.046-0.547-0.163-0.957-0.352-1.23c-0.183-0.261-0.476-0.391-0.879-0.391
			c-0.02,0-0.039,0-0.059,0c-0.354,0.01-0.634,0.103-0.838,0.278c-0.203,0.176-0.305,0.441-0.305,0.796
			c0,0.222,0.043,0.423,0.129,0.603c0.087,0.182,0.234,0.372,0.442,0.574l1.426,1.353c0.368,0.352,0.657,0.707,0.869,1.067
			c0.212,0.359,0.317,0.749,0.317,1.169c0,0.589-0.17,1.043-0.51,1.362C53.717,22.296,53.267,22.455,52.707,22.455z"/>
		<path fill="#FFFFFF" d="M55.573,22.357v-8.096h2.925v0.586H56.34v3.032h1.768v0.566H56.34v3.34h2.183v0.571H55.573z"/>
		<path fill="#FFFFFF" d="M59.489,22.357l0.21-8.096h0.747l1.611,7.026l1.621-7.026h0.767l0.2,8.096h-0.635l-0.156-6.455
			l-1.548,6.455h-0.488l-1.528-6.44l-0.156,6.44H59.489z"/>
		<path fill="#FFFFFF" d="M65.983,22.357v-8.096h2.925v0.586H66.75v3.032h1.768v0.566H66.75v3.34h2.183v0.571H65.983z"/>
		<path fill="#FFFFFF" d="M69.968,22.357v-8.096h0.562l2.578,6.284v-6.284h0.654v8.096h-0.537L70.627,16v6.357H69.968z"/>
		<path fill="#FFFFFF" d="M76.042,22.357v-7.51h-1.626v-0.586h3.979v0.586h-1.587v7.51H76.042z"/>
	</g>
	<g>
		<path fill="#FDFDFE" d="M18.885,33.845c0,0,0.075,0.232,0.183,0.644c0.06,0.204,0.11,0.456,0.146,0.757
			c0.046,0.3,0.103,0.645,0.089,1.016c0.001,0.188,0.003,0.383,0.005,0.584c-0.021,0.201-0.044,0.409-0.066,0.623
			c-0.029,0.432-0.155,0.871-0.26,1.332c-0.161,0.441-0.282,0.922-0.521,1.36c-0.198,0.458-0.479,0.88-0.739,1.314
			c-0.313,0.398-0.608,0.81-0.967,1.157c-0.324,0.381-0.73,0.662-1.087,0.971c-0.395,0.261-0.759,0.535-1.153,0.715
			c-0.191,0.098-0.378,0.191-0.559,0.283c-0.189,0.07-0.372,0.137-0.548,0.202c-0.344,0.145-0.681,0.214-0.976,0.275
			c-0.291,0.073-0.549,0.116-0.764,0.133c-0.428,0.046-0.669,0.058-0.669,0.058s0.228-0.1,0.621-0.246
			c0.199-0.064,0.434-0.162,0.692-0.297c0.262-0.127,0.556-0.262,0.857-0.445c0.312-0.165,0.63-0.37,0.956-0.602
			c0.342-0.206,0.642-0.508,0.988-0.762c0.31-0.303,0.642-0.598,0.934-0.943c0.317-0.321,0.573-0.703,0.851-1.066
			c0.242-0.387,0.508-0.763,0.696-1.174c0.222-0.395,0.377-0.811,0.552-1.207c0.113-0.414,0.291-0.802,0.362-1.194
			c0.1-0.388,0.18-0.757,0.222-1.106c0.064-0.35,0.088-0.668,0.113-0.955c0.034-0.286,0.043-0.544,0.031-0.757
			C18.873,34.089,18.885,33.845,18.885,33.845z"/>
	</g>
	<g>
		<path fill="#FCFCFC" d="M12.945,50.759c-3.123-0.128-6.199-0.541-9.263-1.027l-0.658-0.105l0.292-0.603
			c0.707-1.464,1.438-2.915,2.215-4.345c0.385-0.717,0.786-1.426,1.192-2.132c0.431-0.694,0.829-1.404,1.287-2.085
			c-0.249,0.781-0.56,1.535-0.837,2.303c-0.301,0.758-0.607,1.512-0.931,2.258c-0.638,1.498-1.323,2.971-2.031,4.435l-0.367-0.708
			C6.902,49.274,9.947,49.874,12.945,50.759z"/>
	</g>
</g>
<g id="Calque_6">
</g>
</svg>
