<?xml version="1.0" encoding="utf-8"?>
<!-- Generator: Adobe Illustrator 16.0.0, SVG Export Plug-In . SVG Version: 6.00 Build 0)  -->
<!DOCTYPE svg PUBLIC "-//W3C//DTD SVG 1.1//EN" "http://www.w3.org/Graphics/SVG/1.1/DTD/svg11.dtd">
<svg version="1.1" xmlns="http://www.w3.org/2000/svg" xmlns:xlink="http://www.w3.org/1999/xlink" x="0px" y="0px"
	 width="554.626px" height="321.807px" viewBox="0 0 554.626 321.807" enable-background="new 0 0 554.626 321.807"
	 xml:space="preserve">
<g id="Calque_8">
</g>
<g id="Calque_5">
	<line fill="#FEF9F9" x1="248.116" y1="288.636" x2="248.116" y2="286.317"/>
	<path fill="#E2E2E2" d="M265.329,281.106v15.14v2.008l-3.199-3.408c0,0-3.254-0.373-5.287,4.531c-1.576,0-6.192,0-6.192,0
		s0.074-7.17-1.23-9.135c-1.304-1.966-1.306-1.606-1.306-1.606v-3.168L265.329,281.106z"/>
	<path fill="#E2E2E2" d="M283.712,281.106v15.14v2.008l3.2-3.408c0,0,3.254-0.373,5.287,4.531c1.576,0,6.192,0,6.192,0
		s-0.074-7.17,1.231-9.135c1.304-1.966,1.306-1.606,1.306-1.606v-3.168L283.712,281.106z"/>
	<path fill="#FEF9F9" d="M277.881,280.718c0,0,8.751,5.701,27.894,5.701c19.142,0,25.657-6.516,25.657-6.516v-18.098v-9.039
		c0,0-0.106-154.986,0-160.627c0.124-6.487-7.185-6.509-7.185-6.509h-48.359c0,0-45.274,0-51.928,0
		c-6.654,0-6.364,5.206-6.364,5.206s0,160.512,0,168.174l-0.001,2.795v18.098c0,0,6.516,6.516,25.658,6.516
		s27.894-5.701,27.894-5.701l0.074-9.953l6.584-0.082L277.881,280.718z"/>
	<path fill="#127EB6" d="M224.318,94.252h98.155v80.234h-37.47c0,0-2.105,13.439-12.016,13.439c-8.427,0-12.04-13.035-12.04-13.035
		l-36.629,0.274V94.252z"/>
	<path fill="#36415D" d="M265.731,142.449c0,6.781-5.496,12.275-12.275,12.275l0,0c-6.78,0-12.274-5.494-12.274-12.275v-18.52
		c0-6.778,5.494-12.273,12.274-12.273l0,0c6.779,0,12.275,5.495,12.275,12.273V142.449z"/>
	<path fill="#36415D" d="M305.475,142.449c0,6.781-5.495,12.275-12.274,12.275l0,0c-6.782,0-12.274-5.494-12.274-12.275v-18.52
		c0-6.778,5.493-12.273,12.274-12.273l0,0c6.779,0,12.274,5.495,12.274,12.273V142.449z"/>
	<path fill="#F7FBF2" d="M258.624,127.053c0,2.795-2.264,5.061-5.06,5.061l0,0c-2.796,0-5.061-2.266-5.061-5.061v-3.876
		c0-2.796,2.265-5.062,5.061-5.062l0,0c2.796,0,5.06,2.266,5.06,5.062V127.053z"/>
	<path fill="#F7FBF2" d="M298.157,127.053c0,2.795-2.264,5.061-5.061,5.061l0,0c-2.796,0-5.061-2.266-5.061-5.061v-3.876
		c0-2.796,2.264-5.062,5.061-5.062l0,0c2.797,0,5.061,2.266,5.061,5.062V127.053z"/>
	<circle fill="#F7FBF2" cx="248.933" cy="134.697" r="2.368"/>
	<circle fill="#F7FBF2" cx="298.157" cy="134.697" r="2.368"/>
	<path fill="none" stroke="#36415D" stroke-miterlimit="10" d="M237.736,147.832c0,0.647,4.737,12.491,15.72,12.061
		s15.505-12.061,15.505-12.061"/>
	<path fill="none" stroke="#36415D" stroke-miterlimit="10" d="M277.586,147.832c0,0.647,4.74,12.491,15.723,12.061
		c10.981-0.431,15.505-12.061,15.505-12.061"/>
	<path fill="none" stroke="#36415D" stroke-miterlimit="10" d="M268.961,157.739c0,0-1.508,9.69,4.091,9.69
		c6.676,0,4.534-9.69,4.534-9.69"/>
	<path fill="#0C4D65" d="M296.609,198.232v13.453c0,0,3.326,4.65,9.166,4.65c5.7,0,9.163-4.651,9.163-4.651v-13.452H296.609z"/>
	<rect x="296.609" y="194.74" fill="#0E415D" width="18.329" height="3.492"/>
	<path fill="#F7F8F3" d="M217.595,237.952c0,0-12.953-16.154-12.283-35.908c0.678-20.023,12.284-33.058,12.284-33.058l-0.001,17.241
		c0,0-4.138,6.382-4.138,16.054c0,8.521,4.138,18.837,4.138,18.837V237.952z"/>
	<path fill="#F5F3F2" d="M331.455,237.952c0,0,12.952-16.154,12.282-35.908c-0.678-20.023-12.284-33.058-12.284-33.058l0.002,17.241
		c0,0,4.138,6.382,4.138,16.054c0,8.521-4.138,18.837-4.138,18.837V237.952z"/>
	<path fill="#ED5C49" d="M217.597,168.986c0,0-1.119,7.366,2.343,15.309c2.347,5.385,13.848,23.418,13.848,23.418l-3.157,2.239
		c0,0-9.239-15.214-10.895-18.702c-3.259-6.869-7.942-18.595-2.139-26.12V168.986z"/>
	<path fill="#C74940" d="M232.167,208.863c10.377-7.564,19.001,0.03,19.337,14.428c0.269,11.472-3.157,22.794-3.258,24.642
		c1.833,0.916,0.649,6.221-3.564,4.49c-4.124-1.691-0.814-5.918,0.814-5.494c1.019-1.832,6.255-26.084,0.102-34.022
		c-2.182-2.815-5.294-6.109-11.913-1.73c-6.619,4.378-4.48,15.781,2.646,21.382c7.129,5.6,17.921,6.004,22.809,4.986
		c0.662-4.377,5.018-2.49,5.397-0.305c0.661,3.82-3.26,5.602-4.888,2.545c-2.342-0.203-13.441,3.361-24.946-5.293
		C223.197,225.837,224.751,214.268,232.167,208.863z"/>
	<path fill="none" stroke="#070808" stroke-miterlimit="10" d="M303.009,84.161"/>
	<path fill="none" stroke="#070808" stroke-miterlimit="10" d="M245.3,84.161"/>
	<path fill="#344D5A" d="M285.158,71.708h37.693c3.882,0,7.028-3.148,7.028-7.03V12.729c0-3.884-3.146-7.031-7.028-7.031h-95.892
		c-3.883,0-7.032,3.147-7.032,7.031v51.949c0,3.882,3.148,7.03,7.032,7.03h42.6H285.158z"/>
	<path fill="#4DBD98" d="M325.194,60.185c0,3.883-3.148,7.031-7.033,7.031h-86.515c-3.883,0-7.032-3.148-7.032-7.031V17.807
		c0-3.883,3.149-7.032,7.032-7.032h86.515c3.884,0,7.033,3.149,7.033,7.032V60.185z"/>
	<rect x="230.671" y="12.923" fill="#D9EDEA" width="15.818" height="0.978"/>
	<rect x="230.671" y="15.071" fill="#BCE0D5" width="15.818" height="0.977"/>
	<rect x="301.172" y="59.209" fill="#ACDCCE" width="19.14" height="0.976"/>
	<rect x="301.172" y="61.355" fill="#ACDCCE" width="19.14" height="0.977"/>
	<rect x="301.172" y="55.106" fill="#ACDCCE" width="19.14" height="0.978"/>
	<rect x="301.172" y="57.255" fill="#ACDCCE" width="19.14" height="0.977"/>
	<rect x="293.555" y="55.597" fill="#D8EEEB" width="2.54" height="2.536"/>
	<rect x="297.169" y="55.597" fill="#D8EEEB" width="2.54" height="2.536"/>
	<polyline fill="none" stroke="#AF2331" stroke-miterlimit="10" points="241.803,40.851 251.372,40.851 255.278,26.593 
		259.184,51.397 264.847,32.257 266.995,41.632 273.832,41.632 276.956,24.698 282.815,58.133 288.281,32.063 291.019,42.413 
		298.437,42.413 302.929,24.698 307.422,50.029 	"/>
	<path fill="#ED5C49" d="M249.235,84.276h24.758V73.935c0,0,0.2-2.586-2.386-2.684c-2.586-0.101-3.082,2.386-3.082,2.386
		S249.634,71.947,249.235,84.276z"/>
	<path fill="#FEF9F9" d="M262.371,76.884c0.255,0.52,0.042,1.145-0.475,1.399l0,0c-0.517,0.255-1.143,0.041-1.398-0.477
		l-1.977-4.013c-0.254-0.518-0.042-1.145,0.475-1.399l0,0c0.519-0.255,1.145-0.041,1.399,0.477L262.371,76.884z"/>
	<path fill="#FEF9F9" d="M266.436,76.256c0.255,0.517,0.042,1.143-0.476,1.396l0,0c-0.518,0.255-1.144,0.043-1.398-0.474
		l-1.977-4.016c-0.254-0.518-0.042-1.143,0.478-1.397l0,0c0.516-0.254,1.142-0.043,1.396,0.475L266.436,76.256z"/>
	<rect x="250.13" y="83.479" fill="#36415D" width="1.59" height="2.089"/>
	<rect x="252.915" y="83.479" fill="#36415D" width="1.59" height="2.089"/>
	<rect x="255.599" y="83.479" fill="#36415D" width="1.591" height="2.089"/>
	<rect x="258.383" y="83.479" fill="#36415D" width="1.591" height="2.089"/>
	<rect x="261.067" y="83.479" fill="#36415D" width="1.592" height="2.089"/>
	<rect x="263.852" y="83.479" fill="#36415D" width="1.59" height="2.089"/>
	<rect x="266.536" y="83.479" fill="#36415D" width="1.591" height="2.089"/>
	<rect x="269.32" y="83.479" fill="#36415D" width="1.592" height="2.089"/>
	<rect x="271.806" y="83.479" fill="#36415D" width="1.59" height="2.089"/>
	<path fill="#ED5C49" d="M300.843,84.276h-24.758V73.935c0,0-0.199-2.586,2.386-2.684c2.586-0.101,3.084,2.386,3.084,2.386
		S300.447,71.947,300.843,84.276z"/>
	<path fill="#FEF9F9" d="M287.709,76.884c-0.256,0.52-0.045,1.145,0.476,1.399l0,0c0.517,0.255,1.143,0.041,1.396-0.477l1.976-4.013
		c0.254-0.518,0.042-1.145-0.477-1.399l0,0c-0.518-0.255-1.143-0.041-1.396,0.477L287.709,76.884z"/>
	<path fill="#FEF9F9" d="M283.644,76.256c-0.256,0.517-0.043,1.143,0.475,1.396l0,0c0.519,0.255,1.144,0.043,1.398-0.474
		l1.976-4.016c0.255-0.518,0.042-1.143-0.476-1.397l0,0c-0.518-0.254-1.143-0.043-1.397,0.475L283.644,76.256z"/>
	<rect x="298.356" y="83.479" fill="#36415D" width="1.591" height="2.089"/>
	<rect x="295.575" y="83.479" fill="#36415D" width="1.589" height="2.089"/>
	<rect x="292.888" y="83.479" fill="#36415D" width="1.592" height="2.089"/>
	<rect x="290.104" y="83.479" fill="#36415D" width="1.593" height="2.089"/>
	<rect x="287.422" y="83.479" fill="#36415D" width="1.59" height="2.089"/>
	<rect x="284.637" y="83.479" fill="#36415D" width="1.589" height="2.089"/>
	<rect x="281.95" y="83.479" fill="#36415D" width="1.593" height="2.089"/>
	<rect x="279.167" y="83.479" fill="#36415D" width="1.589" height="2.089"/>
	<rect x="276.683" y="83.479" fill="#36415D" width="1.59" height="2.089"/>
	<path fill="#303A54" d="M360.132,70.178c0,0,6.29,10.07,26.587,10.07c22.162,0,40.125-17.963,40.125-40.123
		C426.844,17.964,408.88,0,386.719,0c-22.161,0-40.126,17.964-40.126,40.125c0,5.843,1.249,11.394,3.498,16.401
		c0,0-3.498,5.727-12.483,3.26C344.114,66.928,344.851,68.471,360.132,70.178z"/>
	<path fill="#FEF9F9" d="M242.645,297.564c0,0-1.208-9.517,3.625-9.517c4.833,0,4.38,9.517,4.38,9.517v1.813h6.192
		c0,0,1.36-4.531,5.287-4.531c1.058,1.209,3.323,3.773,3.323,3.773v21.906h-37.46v-6.799c0,0-1.057-6.494,4.23-8.457
		L242.645,297.564z"/>
	<path fill="#0C4D65" d="M244.024,308.682c0.507,0.521,0.49,1.361-0.038,1.871l0,0c-0.528,0.512-1.367,0.506-1.873-0.018
		l-7.197-7.42c-0.505-0.521-0.488-1.361,0.04-1.873l0,0c0.528-0.514,1.366-0.506,1.873,0.018L244.024,308.682z"/>
	<path fill="#0C4D65" d="M248.946,305.105c0.507,0.52,0.49,1.361-0.039,1.871l0,0c-0.529,0.514-1.366,0.504-1.874-0.018l-7.194-7.42
		c-0.505-0.52-0.488-1.361,0.04-1.873l0,0c0.528-0.512,1.366-0.504,1.872,0.018L248.946,305.105z"/>
	<path fill="#0C4D65" d="M232.223,305.27c0,0,3.171,0.602,5.437,4.379c2.267,3.775,1.813,6.945,1.813,6.945h-11.479v-5.662
		C227.993,310.932,228.529,306.391,232.223,305.27z"/>
	<path fill="#0C4D65" d="M256.843,299.377c0,0-0.454,3.473,2.417,5.514c2.87,2.039,6.193,1.734,6.193,1.734v-8.006l-3.55-3.549
		C261.903,295.07,259.26,294.088,256.843,299.377z"/>
	<path fill="#FEF9F9" d="M306.492,297.564c0,0,1.208-9.517-3.626-9.517c-4.832,0-4.379,9.517-4.379,9.517v1.813h-6.193
		c0,0-1.362-4.531-5.287-4.531c-1.057,1.209-3.323,3.773-3.323,3.773v21.906h37.462v-6.799c0,0,1.055-6.494-4.232-8.457
		L306.492,297.564z"/>
	<path fill="#0C4D65" d="M305.114,308.682c-0.506,0.521-0.493,1.361,0.039,1.871l0,0c0.526,0.512,1.365,0.506,1.874-0.018
		l7.193-7.42c0.504-0.521,0.49-1.361-0.04-1.873l0,0c-0.527-0.514-1.367-0.506-1.873,0.018L305.114,308.682z"/>
	<path fill="#0C4D65" d="M300.189,305.105c-0.506,0.52-0.487,1.361,0.04,1.871l0,0c0.53,0.514,1.367,0.504,1.874-0.018l7.194-7.42
		c0.506-0.52,0.489-1.361-0.037-1.873l0,0c-0.529-0.512-1.368-0.504-1.875,0.018L300.189,305.105z"/>
	<path fill="#0C4D65" d="M316.914,305.27c0,0-3.172,0.602-5.439,4.379c-2.264,3.775-1.811,6.945-1.811,6.945h11.482v-5.662
		C321.146,310.932,320.609,306.391,316.914,305.27z"/>
	<path fill="#0C4D65" d="M292.294,299.377c0,0,0.453,3.473-2.416,5.514c-2.872,2.039-6.194,1.734-6.194,1.734v-8.006l3.55-3.549
		C287.234,295.07,289.879,294.088,292.294,299.377z"/>
	<line fill="none" stroke="#127EB6" stroke-miterlimit="10" x1="239.472" y1="316.594" x2="265.453" y2="316.594"/>
	<line fill="none" stroke="#127EB6" stroke-miterlimit="10" x1="283.843" y1="316.594" x2="309.664" y2="316.594"/>
	<path fill="#127EB6" d="M193.567,240.634c0,15.664,0,15.664-15.665,15.664H96.098c-15.666,0-15.666,0-15.666-15.664v-49.169
		c0-15.667,0-15.667,15.666-15.667h81.805c15.665,0,15.665,0,15.665,15.667V240.634z"/>
	<path fill="#0C5A83" d="M166.756,216.92c0,14.537-11.787,26.323-26.327,26.323c-14.539,0-26.325-11.786-26.325-26.323
		c0-14.542,11.787-26.326,26.325-26.326C154.969,190.594,166.756,202.378,166.756,216.92z"/>
	<polygon fill="#FFFFFF" points="135.046,200.603 144.999,200.603 144.999,211.535 156.095,211.535 156.095,220.999 
		145.271,220.999 145.271,231.659 135.046,231.659 135.046,220.999 124.875,220.999 124.875,211.153 135.155,211.153 	"/>
	<rect x="94.308" y="172.208" fill="#0D5675" width="14.359" height="3.59"/>
	<rect x="171.653" y="172.208" fill="#0D5675" width="14.359" height="3.59"/>
	<path fill="#0D5D8B" d="M118.023,175.798v-6.967c0,0,0.326-2.066,1.74-3.589c1.415-1.522,4.135-1.633,4.135-1.633h32.197
		c0,0,2.941-0.109,4.463,1.958c1.523,2.068,1.631,3.481,1.631,3.481v6.749h-4.786v-5.226c0,0,0.11-1.849-2.284-1.849
		c-2.395,0-28.72-0.108-28.72-0.108s-3.046-0.11-3.046,1.739c0,1.849,0,5.443,0,5.443H118.023z"/>
	<path fill="#0E415D" d="M120.933,256.675c0,0-5.356,16.068-5.356,19.848c0,3.781,5.356,26.78,5.356,26.78l8.821,7.563l7.246-2.207
		c0,0-11.027-23.944-10.712-31.823c0.315-7.873,4.412-20.16,4.412-20.16H120.933z"/>
	<path fill="#FEF9F9" d="M106.966,320.525h13.758v-2.73h5.986v2.73h11.552V307.5l-8.508,3.365l-8.821-7.563
		C120.933,303.303,107.385,304.98,106.966,320.525z"/>
	<path fill="#0E415D" d="M115.452,311.73c0.28,0.33,0.242,0.83-0.089,1.109l0,0c-0.331,0.283-0.828,0.242-1.11-0.088l-3.065-3.598
		c-0.281-0.33-0.243-0.826,0.088-1.109l0,0c0.332-0.281,0.829-0.242,1.11,0.09L115.452,311.73z"/>
	<path fill="#0E415D" d="M120.453,312.68c0.431,0.504,0.513,1.145,0.182,1.43l0,0c-0.332,0.281-0.95,0.098-1.38-0.408l-4.685-5.496
		c-0.431-0.506-0.513-1.146-0.182-1.428l0,0c0.331-0.283,0.951-0.102,1.38,0.406L120.453,312.68z"/>
	<path fill="#0E415D" d="M160.442,256.675c0,0,5.354,16.068,5.354,19.848c0,3.781-5.354,26.78-5.354,26.78l-8.823,7.563
		l-7.247-2.207c0,0,11.027-23.944,10.712-31.823c-0.314-7.873-4.411-20.16-4.411-20.16H160.442z"/>
	<path fill="#FEF9F9" d="M174.407,320.525H160.65v-2.73h-5.986v2.73h-11.553V307.5l8.508,3.365l8.823-7.563
		C160.442,303.303,173.988,304.98,174.407,320.525z"/>
	<path fill="#0E415D" d="M165.922,311.73c-0.283,0.33-0.243,0.83,0.088,1.109l0,0c0.33,0.283,0.829,0.242,1.11-0.088l3.066-3.598
		c0.281-0.33,0.243-0.826-0.089-1.109l0,0c-0.33-0.281-0.828-0.242-1.11,0.09L165.922,311.73z"/>
	<path fill="#0E415D" d="M160.92,310.74c-0.433,0.506-0.513,1.145-0.182,1.43l0,0c0.33,0.281,0.949,0.098,1.38-0.408l4.685-5.496
		c0.43-0.506,0.513-1.146,0.181-1.428l0,0c-0.33-0.283-0.95-0.102-1.382,0.406L160.92,310.74z"/>
	<rect x="130.785" y="159.214" fill="#C74940" width="17.66" height="3.975"/>
	<rect x="132.993" y="147.293" fill="#C74940" width="12.804" height="11.921"/>
	<rect x="125.046" y="141.553" fill="#36415D" width="29.36" height="5.74"/>
	<rect x="127.474" y="79.078" fill="#FFFFFF" width="23.179" height="62.475"/>
	<rect x="132.993" y="72.677" fill="#C74940" width="12.804" height="6.401"/>
	<rect x="135.642" y="70.028" fill="#36415D" width="7.063" height="2.648"/>
	<rect x="137.85" y="36.252" fill="#36415D" width="2.869" height="33.776"/>
	<rect x="127.474" y="135.15" fill="#B1B3B2" width="5.519" height="1.765"/>
	<rect x="127.474" y="79.078" fill="#107EB4" width="23.179" height="42.827"/>
	<rect x="127.474" y="128.969" fill="#B1B3B2" width="5.519" height="1.769"/>
	<rect x="127.474" y="123.229" fill="#B1B3B2" width="5.519" height="1.766"/>
	<rect x="127.474" y="117.048" fill="#B1B3B2" width="5.519" height="1.768"/>
	<rect x="127.474" y="110.869" fill="#B1B3B2" width="5.519" height="1.765"/>
	<rect x="127.474" y="105.128" fill="#B1B3B2" width="5.519" height="1.767"/>
	<rect x="127.474" y="99.607" fill="#B1B3B2" width="5.519" height="1.768"/>
	<rect x="127.474" y="93.428" fill="#B1B3B2" width="5.519" height="1.766"/>
	<rect x="127.474" y="87.688" fill="#B1B3B2" width="5.519" height="1.766"/>
	<path fill="#127EB6" d="M138.473,26.279c0,0-0.557-1.93-3.091-4.17s-3.883-4.071-1.987-6.109
		C135.293,13.963,140.024,19.248,138.473,26.279z"/>
	<path fill="#ED5C49" d="M447.98,185.909c0-5.763-4.669-10.432-10.43-10.432h-74.171c-5.761,0-10.432,4.669-10.432,10.432v86.049
		c0,5.762,4.67,10.432,10.432,10.432h74.171c5.761,0,10.43-4.67,10.43-10.432V185.909z"/>
	<rect x="360.192" y="180.984" fill="#FEF9F9" width="79.479" height="94.052"/>
	<rect x="372.361" y="197.208" fill="#127EB6" width="56.207" height="2.896"/>
	<rect x="372.361" y="207.928" fill="#127EB6" width="56.207" height="2.897"/>
	<rect x="372.361" y="218.938" fill="#127EB6" width="56.207" height="2.897"/>
	<rect x="372.361" y="229.657" fill="#127EB6" width="56.207" height="2.898"/>
	<rect x="372.361" y="240.378" fill="#127EB6" width="56.207" height="2.896"/>
	<rect x="372.361" y="251.097" fill="#127EB6" width="56.207" height="2.896"/>
	<path fill="#127EB6" d="M374.967,182.721h50.415c0,0-2.319-9.849-6.953-10.142c-4.637-0.288-7.245,0-7.245,0l-0.87-6.952
		l-6.663-6.664h-5.506l-7.532,7.244l-1.16,6.665c0,0-6.23-0.654-8.838,0.542C376.96,176.064,374.967,182.721,374.967,182.721z"/>
	<circle fill="#FEF9F9" cx="400.874" cy="166.342" r="3.462"/>
	<path fill="#FEF9F9" d="M390.916,282.692v24.956c0,0-3.977-1.664-14.975-1.664c-14.42,0-22.185,13.865-22.185,13.865h45.479
		v-37.157H390.916z"/>
	<path fill="#FEF9F9" d="M410.883,282.692v24.956c0,0,3.976-1.664,14.975-1.664c14.419,0,22.183,13.865,22.183,13.865h-45.477
		v-37.157H410.883z"/>
	<path fill="#0C4D65" d="M471.245,279.339v-28.113c0,0,13.415-0.129,31.523-0.129c2.069,0,1.084,4.432,1.084,4.432h43.072v9.814
		h-44.288c0,0-5.381,4.396-6.463,7.674c-2.635,2.895-5.561,6.238-7.163,6.439C487.406,279.657,471.245,279.339,471.245,279.339z"/>
	<rect x="478.667" y="261.103" fill="#FFFFFF" width="61.203" height="18.422"/>
	<path fill="#127EB6" d="M68.274,280.263c0-15.209,2.877-24.672-12.33-24.672H18.642c-15.208,0-12.33,9.463-12.33,24.672v12.62
		c0,15.211-1.439,27.539,13.769,27.539h35.863c15.207,0,12.33-12.328,12.33-27.539V280.263z"/>
	<rect y="245.798" fill="#ED5C49" width="74.012" height="16.064"/>
	<rect x="27.541" y="273.376" fill="#FFFFFF" width="40.951" height="28.114"/>
	<rect x="42.456" y="280.263" fill="#01324B" width="25.818" height="4.016"/>
	<rect x="42.456" y="288.009" fill="#01324B" width="25.818" height="4.013"/>
	<path opacity="0.4" fill="#AFAEAF" d="M74.012,245.798H40.075l-0.261,74.624h20.989c0,0,7.689-4.057,7.689-9.557
		c0-10.424,0.017-33.351,0.03-49.009l5.49,0.006V245.798z"/>
	<rect x="140.106" y="79.078" opacity="0.4" fill="#AFAEAF" width="10.546" height="62.475"/>
	<path opacity="0.4" fill="#29ADDF" d="M138.629,175.798h42.767c12.469-0.267,12.858,1.824,12.858,12.667v54.021
		c0.264,13.521-1.565,13.813-12.858,13.809l-42.767,0.004V175.798z"/>
	<path opacity="0.4" fill="#AFAEAF" d="M275.186,5.714l46.857-0.056c3.44-0.269,8.361,2.171,7.864,8.79l-0.016,50.229
		c0,5.424-5.013,7.383-8.193,7.092l-46.513,0.003V5.714z"/>
	<path opacity="0.4" fill="#AFAEAF" d="M277.213,186.979l0.668,93.739c11.896,7.154,42.38,8.776,53.551-0.814c0,0,0,0-0.235-20.57
		l0.235-159.379c-0.522-4.899,2.94-14.323-8.083-14.302l-46.857,0.163l0.061,8.437h45.92v80.234h-37.47
		C285.003,174.486,283.633,184.794,277.213,186.979z"/>
	<path fill="#127EB6" d="M472.704,319.85c0,0-7.786-20.928-7.786-40.394c11.192-0.488,21.258,0.732,24.092,0
		c4.748-1.225,9.247-11.904,13.626-14.113h53.05c0,0-5.598,51.099-9.735,54.507C539.624,319.85,472.704,319.85,472.704,319.85z"/>
	<circle fill="#0C5A83" cx="510.302" cy="297.578" r="12.749"/>
	<polygon fill="#FFFFFF" points="507.694,289.676 512.516,289.676 512.516,294.973 517.888,294.973 517.888,299.555 
		512.646,299.555 512.646,304.719 507.694,304.719 507.694,299.555 502.768,299.555 502.768,294.785 507.747,294.785 	"/>
	<path opacity="0.4" fill="#AFAEAF" d="M400.874,282.39h35.792c6.927,0,11.375-4.248,11.375-11.176v-83.193
		c0-7.917-3.666-12.543-11.112-12.543h-14.546c0,0-1.415-2.886-4.596-2.976c-3.352-0.15-6.602,0.077-6.602,0.077l-0.87-6.952
		l-6.663-6.664h-2.778V282.39z"/>
	<path opacity="0.4" fill="#AFAEAF" d="M555.686,265.343c0,0-4.787,41.597-7.261,48.054c-2.474,6.453-2.474,6.453-2.474,6.453
		h-35.622v-54.507H555.686z"/>
	<polygon opacity="0.4" fill="#AFAEAF" points="506.995,265.343 506.995,255.528 546.924,255.528 546.924,265.31 	"/>
	<path fill="#F9F9FA" d="M134.355,16.799c0,0-1.438,0.522-0.784,1.698c0.653,1.175,2.07,2.423,2.07,2.423
		S133.301,17.73,134.355,16.799z"/>
	<path fill="none" stroke="#F7F8F9" stroke-miterlimit="10" d="M280.199,172.004h38.235V97.536h-90.667v74.468h38.671
		c0,0,1.733,12.156,6.958,11.902C278.622,183.655,280.199,172.004,280.199,172.004z"/>
	<rect x="271.222" y="229.657" fill="#E2E2E2" width="6.365" height="41.107"/>
	<polyline fill="#0C4D65" points="278.084,190.594 280.675,227.119 274.988,234.921 267.762,227.285 269.544,190.707 	"/>
	<path fill="#0E415D" d="M369.58,311.73c0.282,0.33,0.243,0.83-0.088,1.109l0,0c-0.332,0.283-0.829,0.242-1.111-0.088l-3.064-3.598
		c-0.282-0.33-0.242-0.826,0.088-1.109l0,0c0.333-0.281,0.829-0.242,1.111,0.09L369.58,311.73z"/>
	<path fill="#0E415D" d="M374.583,312.68c0.43,0.504,0.512,1.145,0.181,1.43l0,0c-0.331,0.281-0.95,0.098-1.38-0.408l-4.686-5.496
		c-0.43-0.506-0.511-1.146-0.182-1.428l0,0c0.332-0.283,0.951-0.102,1.38,0.406L374.583,312.68z"/>
	<path fill="#0E415D" d="M430.77,311.73c-0.281,0.33-0.243,0.83,0.088,1.109l0,0c0.332,0.283,0.829,0.242,1.112-0.088l3.065-3.598
		c0.282-0.33,0.241-0.826-0.09-1.109l0,0c-0.331-0.281-0.829-0.242-1.109,0.09L430.77,311.73z"/>
	<path fill="#0E415D" d="M425.768,312.68c-0.431,0.504-0.513,1.145-0.181,1.43l0,0c0.331,0.281,0.949,0.098,1.38-0.408l4.685-5.496
		c0.431-0.506,0.513-1.146,0.182-1.428l0,0c-0.331-0.283-0.95-0.102-1.38,0.406L425.768,312.68z"/>
	<path fill="#ED5C49" d="M331.453,168.986c0,0,3.169,29.865-16.515,53.759c-1.494,1.766-6.177,4.074-2.918,6.789
		c3.258,2.717,6.109-3.395,6.109-3.395s26.474-31.399,13.303-67.045C331.291,165.116,331.453,168.986,331.453,168.986z"/>
	<ellipse fill="#C74940" cx="311.206" cy="229.143" rx="10.046" ry="10.03"/>
	<path opacity="0.4" fill="#AFAEAF" d="M321.252,229.143c0,5.538-4.497,10.03-10.045,10.03v-20.061
		C316.755,219.112,321.252,223.604,321.252,229.143z"/>
</g>
<g id="Calque_9">
</g>
<g id="Calque_7">
</g>
</svg>
