<?xml version="1.0" encoding="utf-8"?>
<!-- Generator: Adobe Illustrator 16.0.0, SVG Export Plug-In . SVG Version: 6.00 Build 0)  -->
<!DOCTYPE svg PUBLIC "-//W3C//DTD SVG 1.1//EN" "http://www.w3.org/Graphics/SVG/1.1/DTD/svg11.dtd">
<svg version="1.1" id="Calque_1" xmlns="http://www.w3.org/2000/svg" xmlns:xlink="http://www.w3.org/1999/xlink" x="0px" y="0px"
	 width="313px" height="127.667px" viewBox="2.534 -13.364 313 127.667" enable-background="new 2.534 -13.364 313 127.667"
	 xml:space="preserve">
<g id="Image_et_réseaux">
	<g>
		<g>
			
				<line fill="none" stroke="#CF5947" stroke-width="2" stroke-linecap="round" stroke-linejoin="round" x1="60.439" y1="80.516" x2="60.439" y2="83.516"/>
			
				<line fill="none" stroke="#CF5947" stroke-width="2" stroke-linecap="round" stroke-linejoin="round" stroke-dasharray="5,5" x1="116.581" y1="39.413" x2="153.503" y2="56.863"/>
			
				<line fill="none" stroke="#CF5947" stroke-width="2" stroke-linecap="round" stroke-linejoin="round" x1="182.645" y1="16.628" x2="182.645" y2="18.628"/>
		</g>
	</g>
	<g>
		<g>
			
				<line fill="none" stroke="#CF5947" stroke-width="2" stroke-linecap="round" stroke-linejoin="round" x1="157.76" y1="59.785" x2="157.06" y2="62.186"/>
			
				<line fill="none" stroke="#CF5947" stroke-width="2" stroke-linecap="round" stroke-linejoin="round" stroke-dasharray="4.8182,4.8182" x1="211.072" y1="49.411" x2="285.057" y2="2.031"/>
			
				<line fill="none" stroke="#CF5947" stroke-width="2" stroke-linecap="round" stroke-linejoin="round" x1="284.384" y1="4.342" x2="283.684" y2="6.742"/>
		</g>
	</g>
	<g>
		<g>
			
				<line fill="none" stroke="#CF5947" stroke-width="2" stroke-linecap="round" stroke-linejoin="round" x1="202.317" y1="59.326" x2="202.863" y2="61.766"/>
			
				<line fill="none" stroke="#CF5947" stroke-width="2" stroke-linecap="round" stroke-linejoin="round" stroke-dasharray="4.8181,4.8181" x1="212.917" y1="64.493" x2="283.837" y2="72.231"/>
			
				<line fill="none" stroke="#CF5947" stroke-width="2" stroke-linecap="round" stroke-linejoin="round" x1="284.363" y1="74.582" x2="284.909" y2="77.022"/>
		</g>
	</g>
	<g>
		<rect x="48.484" y="73.668" fill="#EAE9EA" width="25.039" height="13.757"/>
		<path fill="#1D1D1B" d="M116.581,72.399c0,2.676-2.217,4.845-4.951,4.845H10.38c-2.735,0-4.953-2.169-4.953-4.845V7.253
			c0-2.676,2.218-4.846,4.953-4.846h101.25c2.734,0,4.951,2.169,4.951,4.846V72.399z"/>
		<path fill="#FFFFFF" d="M116.856,68.44v3.746c0,3.706-2.218,6.709-4.952,6.709h-101.8c-2.735,0-4.953-3.004-4.953-6.709V68.44"/>
		<rect x="9.141" y="5.984" fill="#BEDFE4" width="103.727" height="58.604"/>
		<rect x="42.156" y="86.648" fill="#FFFFFF" width="37.693" height="2.653"/>
		<rect x="26.336" y="5.984" fill="#FFFFFF" width="67.135" height="58.604"/>
		<rect x="26.336" y="5.984" fill="#70A4AA" width="67.135" height="9.354"/>
		<rect x="29.088" y="18.916" fill="#151410" width="8.806" height="2.751"/>
		<rect x="42.156" y="18.916" fill="#151410" width="8.805" height="2.751"/>
		<rect x="55.502" y="18.916" fill="#151410" width="8.805" height="2.751"/>
		<rect x="69.12" y="18.916" fill="#151410" width="8.807" height="2.751"/>
		<rect x="82.188" y="18.916" fill="#151410" width="8.805" height="2.751"/>
		<rect x="37.755" y="25.657" fill="#90CBD4" width="44.296" height="27.514"/>
		<rect x="31.289" y="56.334" fill="#E7E6E7" width="57.504" height="1.375"/>
		<rect x="31.151" y="58.673" fill="#E7E6E7" width="57.503" height="1.375"/>
		<rect x="31.15" y="61.148" fill="#E7E6E7" width="27.651" height="1.376"/>
		<circle fill="#151410" cx="87.691" cy="32.26" r="1.101"/>
		<circle fill="#151410" cx="87.691" cy="39.413" r="1.101"/>
		<circle fill="#151410" cx="87.691" cy="46.842" r="1.101"/>
	</g>
	<g>
		<rect x="153.503" y="47.05" fill="#FFFFFF" width="59.414" height="17.443"/>
		<rect x="181.212" y="27.449" fill="#FFFFFF" width="2.55" height="23.576"/>
		<circle fill="none" stroke="#FFFFFF" stroke-width="3" stroke-miterlimit="10" cx="182.485" cy="23.201" r="4.249"/>
		<rect x="161.104" y="49.411" fill="#E7E6E7" width="49.968" height="3.231"/>
		<rect x="154.87" y="49.411" fill="#90CBD4" width="3.479" height="3.231"/>
		<rect x="161.104" y="55.772" fill="#BEDFE4" width="14.175" height="3.957"/>
		<rect x="177.419" y="55.772" fill="#BEDFE4" width="11.035" height="3.957"/>
		<rect x="191.182" y="55.772" fill="#BEDFE4" width="10.445" height="3.957"/>
		<rect x="204.112" y="55.772" fill="#151410" width="1.049" height="3.957"/>
		<rect x="205.948" y="55.772" fill="#151410" width="1.049" height="3.957"/>
		<path fill="none" stroke="#CF5947" stroke-width="4" stroke-linecap="round" stroke-linejoin="round" stroke-miterlimit="10" d="
			M197.547,2.229c6.512,3.581,10.872,10.146,10.872,17.646c0,7.795-4.707,14.572-11.642,18.052"/>
		<path fill="none" stroke="#CF5947" stroke-width="4" stroke-linecap="round" stroke-linejoin="round" stroke-miterlimit="10" d="
			M168.476,2.229c-6.511,3.581-10.871,10.146-10.871,17.646c0,7.795,4.706,14.572,11.641,18.052"/>
		<path fill="none" stroke="#CF5947" stroke-width="3" stroke-linecap="round" stroke-linejoin="round" stroke-miterlimit="10" d="
			M170.846,9.303c-3.933,2.162-6.562,6.123-6.562,10.65c0,4.705,2.841,8.799,7.026,10.896"/>
		<path fill="none" stroke="#CF5947" stroke-width="3" stroke-linecap="round" stroke-linejoin="round" stroke-miterlimit="10" d="
			M194.206,9.303c3.932,2.162,6.562,6.123,6.562,10.65c0,4.705-2.841,8.799-7.026,10.896"/>
	</g>
	<g>
		<rect x="266.481" y="-8.996" fill="#FFFFFF" width="45.033" height="39.313"/>
		<rect x="266.481" y="-8.996" fill="#70A4AA" width="45.033" height="6.275"/>
		<rect x="268.326" y="-0.322" fill="#151410" width="5.905" height="1.848"/>
		<rect x="277.093" y="-0.322" fill="#151410" width="5.906" height="1.848"/>
		<rect x="286.045" y="-0.322" fill="#151410" width="5.906" height="1.848"/>
		<rect x="295.18" y="-0.322" fill="#151410" width="5.906" height="1.848"/>
		<rect x="303.948" y="-0.322" fill="#151410" width="5.905" height="1.848"/>
		<rect x="274.139" y="4.2" fill="#90CBD4" width="29.715" height="18.458"/>
		<rect x="269.803" y="24.781" fill="#E7E6E7" width="38.574" height="0.923"/>
		<rect x="269.711" y="26.35" fill="#E7E6E7" width="38.576" height="0.923"/>
		<rect x="269.711" y="28.01" fill="#E7E6E7" width="18.55" height="0.923"/>
		<circle fill="#151410" cx="307.638" cy="8.631" r="0.739"/>
		<circle fill="#151410" cx="307.638" cy="13.429" r="0.739"/>
		<circle fill="#151410" cx="307.638" cy="18.413" r="0.739"/>
	</g>
	<g>
		<path fill="#FFFFFF" d="M304.01,106.692c0,2.938-2.385,5.324-5.323,5.324h-20.854c-2.94,0-5.323-2.387-5.323-5.324V54.338
			c0-2.939,2.383-5.323,5.323-5.323h20.854c2.938,0,5.323,2.384,5.323,5.323V106.692z"/>
		<rect x="274.063" y="57.998" fill="#BEDFE4" width="28.396" height="45.034"/>
		<path fill="#1D1D1B" d="M292.919,54.781c0,0.246-0.199,0.444-0.443,0.444h-5.103c-0.245,0-0.444-0.198-0.444-0.444l0,0
			c0-0.244,0.199-0.442,0.444-0.442h5.103C292.719,54.339,292.919,54.537,292.919,54.781L292.919,54.781z"/>
		<circle fill="#1D1D1B" cx="284.711" cy="54.782" r="0.444"/>
		<rect x="274.063" y="57.998" fill="#70A4AA" width="28.396" height="7.1"/>
		<rect x="275.837" y="65.098" fill="#FFFFFF" width="24.735" height="31.057"/>
		<rect x="277.39" y="69.311" fill="#90CBD4" width="21.52" height="13.201"/>
		<rect x="277.39" y="66.319" fill="#151410" width="4.216" height="1.771"/>
		<rect x="283.048" y="66.319" fill="#151410" width="4.215" height="1.771"/>
		<rect x="289.147" y="66.319" fill="#151410" width="4.216" height="1.771"/>
		<rect x="294.693" y="66.319" fill="#151410" width="4.216" height="1.771"/>
		<rect x="277.39" y="84.619" fill="#E9E8E8" width="21.52" height="0.664"/>
		<rect x="277.39" y="85.949" fill="#E9E8E8" width="21.52" height="0.666"/>
		<rect x="277.39" y="87.281" fill="#E9E8E8" width="21.52" height="0.666"/>
		<rect x="277.447" y="88.584" fill="#E9E8E8" width="13.643" height="0.582"/>
	</g>
</g>
</svg>
