<?xml version="1.0" encoding="utf-8"?>
<!-- Generator: Adobe Illustrator 16.0.0, SVG Export Plug-In . SVG Version: 6.00 Build 0)  -->
<!DOCTYPE svg PUBLIC "-//W3C//DTD SVG 1.1//EN" "http://www.w3.org/Graphics/SVG/1.1/DTD/svg11.dtd">
<svg version="1.1" id="Calque_1" xmlns="http://www.w3.org/2000/svg" xmlns:xlink="http://www.w3.org/1999/xlink" x="0px" y="0px"
	 width="595.28px" height="356.061px" viewBox="0 0 595.28 356.061" enable-background="new 0 0 595.28 356.061"
	 xml:space="preserve">
<defs>
  <style type="text/css">
    @font-face {
	    font-family: 'Roboto';
	    src: url('../../fonts/roboto/Roboto-Thin.eot');
	    src: url('../../fonts/roboto/Roboto-Thin.eot?#iefix') format('embedded-opentype'),
	         url('../../fonts/roboto/Roboto-Thin.woff') format('woff'),
	         url('../../fonts/roboto/Roboto-Thin.ttf') format('truetype'),
	         url('../../fonts/roboto/Roboto-Thin.svg#Roboto') format('svg');
	}
  </style>
</defs>
<line fill="none" stroke="#706F6F" stroke-width="0.5" stroke-miterlimit="10" x1="293.598" y1="85.093" x2="293.598" y2="131.462"/>
<rect x="269.37" y="66.779" fill="none" width="49.08" height="25.203"/>
<text transform="matrix(1 0 0 1 276.6104 75.1484)" fill="#706F6F" font-family="'Roboto'" letter-spacing="1px" font-size="11">Nantes</text>
<line fill="none" stroke="#706F6F" stroke-width="0.5" stroke-miterlimit="10" x1="185.949" y1="241.276" x2="139.58" y2="241.276"/>
<rect x="82.37" y="233.446" fill="none" width="49.08" height="25.202"/>
<text transform="matrix(1 0 0 1 95.1035 241.8252)" fill="#706F6F" font-family="'Roboto'" letter-spacing="1px" font-size="11">Rennes</text>
<line fill="none" stroke="#706F6F" stroke-width="0.5" stroke-miterlimit="10" x1="264.615" y1="301.276" x2="218.247" y2="301.276"/>
<rect x="160.037" y="292.446" fill="none" width="49.08" height="25.202"/>
<text transform="matrix(1 0 0 1 167.7266 300.8242)" fill="#706F6F" font-family="'Roboto'" letter-spacing="1px" font-size="11">Quimper</text>
<line fill="none" stroke="#706F6F" stroke-width="0.5" stroke-miterlimit="10" x1="446.782" y1="208.275" x2="400.413" y2="208.275"/>
<rect x="455.703" y="200.445" fill="none" width="49.08" height="25.202"/>
<text transform="matrix(1 0 0 1 455.7031 208.8223)" fill="#706F6F" font-family="'Roboto'" letter-spacing="1px" font-size="11">Brest</text>
<line fill="none" stroke="#706F6F" stroke-width="0.5" stroke-miterlimit="10" x1="455.449" y1="253.276" x2="409.08" y2="253.276"/>
<rect x="464.37" y="245.446" fill="none" width="49.08" height="25.202"/>
<text transform="matrix(1 0 0 1 464.3701 253.8232)" fill="#706F6F" font-family="'Roboto'" letter-spacing="1px" font-size="11">Paris</text>
<ellipse fill="#F05F59" cx="360.479" cy="218.869" rx="30.397" ry="14.662"/>
<polygon fill="#F05F59" points="391,187.879 391,219.708 330,219.671 330,187.879 "/>
<ellipse fill="#E05B5A" cx="360.5" cy="188.188" rx="30.5" ry="13.445"/>
<ellipse fill="#F09748" cx="226.479" cy="276.869" rx="30.397" ry="14.662"/>
<polygon fill="#F09748" points="257,58.879 257,277.727 196,277.469 196,58.879 "/>
<ellipse fill="#E06C3A" cx="226.5" cy="59.188" rx="30.5" ry="13.445"/>
<ellipse fill="#64BBAE" cx="293.479" cy="245.869" rx="30.397" ry="14.662"/>
<polygon fill="#64BBAE" points="324,153.879 324,245.227 263,245.119 263,153.879 "/>
<ellipse fill="#46B2A0" cx="293.5" cy="154.188" rx="30.5" ry="13.445"/>
<ellipse fill="#F05F59" cx="305.479" cy="299.869" rx="30.397" ry="14.662"/>
<polygon fill="#F05F59" points="336,240.879 336,300.717 275,300.646 275,240.879 "/>
<ellipse fill="#E05B5A" cx="305.5" cy="241.188" rx="30.5" ry="13.445"/>
<ellipse fill="#F09748" cx="370.479" cy="260.869" rx="30.397" ry="14.662"/>
<polygon fill="#F09748" points="401,230.879 401,260.574 340,260.539 340,230.879 "/>
<ellipse fill="#E06C3A" cx="370.5" cy="231.188" rx="30.5" ry="13.445"/>
</svg>
