<?xml version="1.0" encoding="utf-8"?>
<!-- Generator: Adobe Illustrator 16.0.0, SVG Export Plug-In . SVG Version: 6.00 Build 0)  -->
<!DOCTYPE svg PUBLIC "-//W3C//DTD SVG 1.1//EN" "http://www.w3.org/Graphics/SVG/1.1/DTD/svg11.dtd">
<svg version="1.1" id="Calque_1" xmlns="http://www.w3.org/2000/svg" xmlns:xlink="http://www.w3.org/1999/xlink" x="0px" y="0px"
	 width="960px" height="560px" viewBox="0 0 960 560" enable-background="new 0 0 960 560" xml:space="preserve">
<ellipse fill="#EB6155" cx="117.442" cy="284.35" rx="51.23" ry="22.658"/>
<polygon fill="#EB6155" points="168.822,262.576 168.822,284.389 66.212,284.363 66.212,262.576 "/>
<ellipse fill="#DB5C56" cx="117.442" cy="262.578" rx="51.23" ry="22.661"/>
<ellipse fill="#6BBAAD" cx="117.745" cy="216.952" rx="50.927" ry="22.658"/>
<polygon fill="#6BBAAD" points="168.822,202.465 168.822,216.993 66.817,216.973 66.817,202.465 "/>
<ellipse fill="#51B19E" cx="117.442" cy="200.646" rx="51.23" ry="22.66"/>
<ellipse fill="#F18A31" cx="117.442" cy="152.891" rx="51.23" ry="22.66"/>
<polygon fill="#F18A31" points="168.822,129.605 168.822,152.932 66.817,152.904 66.817,129.605 "/>
<ellipse fill="#DC6E2C" cx="117.442" cy="127.479" rx="51.23" ry="22.658"/>
<line opacity="0.7" fill="none" stroke="#1D1D1B" stroke-width="0.5" stroke-miterlimit="10" enable-background="new    " x1="195.795" y1="133.802" x2="311.764" y2="133.802"/>
<rect x="326.942" y="120.898" fill="none" width="429.267" height="22.163"/>
<text transform="matrix(1 0 0 1 326.9409 136.1621)" opacity="0.7" fill="#1D1D1B" enable-background="new    " font-family="'Roboto-Light'" font-size="24">Connaissance sans application directe : 38</text>
<line opacity="0.7" fill="none" stroke="#1D1D1B" stroke-width="0.5" stroke-miterlimit="10" enable-background="new    " x1="195.795" y1="215.169" x2="311.764" y2="215.169"/>
<rect x="327.55" y="200.76" fill="none" width="595.329" height="21.579"/>
<text transform="matrix(1 0 0 1 327.5503 216.0234)" opacity="0.7" fill="#1D1D1B" enable-background="new    " font-family="'Roboto-Light'" font-size="24">Application directe dans nouveaux produits ou procédés : 21</text>
<line opacity="0.7" fill="none" stroke="#1D1D1B" stroke-width="0.5" stroke-miterlimit="10" enable-background="new    " x1="195.795" y1="281.506" x2="311.764" y2="281.506"/>
<rect x="323.299" y="267.499" fill="none" width="399.822" height="22.771"/>
<text transform="matrix(1 0 0 1 323.2983 282.7617)" opacity="0.7" fill="#1D1D1B" enable-background="new    " font-family="'Roboto-Light'" font-size="24">Produits et procédés mis sur le marché : 30</text>
<line opacity="0.7" fill="none" stroke="#1D1D1B" stroke-width="0.5" stroke-miterlimit="10" enable-background="new    " x1="195.795" y1="338.473" x2="311.764" y2="338.473"/>
<rect x="325.88" y="322.878" fill="none" width="108.379" height="23.679"/>
<text transform="matrix(1 0 0 1 325.8794 343.1396)" opacity="0.7" fill="#1D1D1B" enable-background="new    " font-family="'Roboto-Light'" font-size="24">Autres débouchés : 0</text>
<g opacity="0.7">
	<path fill="none" stroke="#1D1D1B" stroke-width="0.5" stroke-miterlimit="10" d="M147.588,437.895
		c-18.663,0-33.791-15.129-33.791-33.786"/>
	
		<line fill="none" stroke="#1D1D1B" stroke-width="0.5" stroke-miterlimit="10" x1="113.797" y1="404.105" x2="113.797" y2="380.842"/>
	
		<line fill="none" stroke="#1D1D1B" stroke-width="0.5" stroke-miterlimit="10" x1="147.588" y1="437.895" x2="310.899" y2="437.895"/>
</g>
<rect x="325.375" y="422.241" fill="none" width="720.105" height="70.129"/>
<text transform="matrix(1 0 0 1 323.2983 444.5469)" opacity="0.7" fill="#1D1D1B" enable-background="new    " font-family="'Roboto-Light'" font-size="24">Nombre de projets de R&amp;D aboutis entre 2006 et 2011 : 89</text>
<ellipse fill="#ECECEC" cx="115.923" cy="340.815" rx="50.928" ry="22.659"/>
<polygon fill="#6BBAAD" points="167,329.972 167,340.861 64.996,340.849 64.996,329.972 "/>
<path fill="#D9D9D9" d="M115.621,312.777c28.294,0,51.23,10.146,51.23,22.661c0,12.512-22.937,22.657-51.23,22.657
	s-51.23-10.146-51.23-22.657C64.391,322.924,87.327,312.777,115.621,312.777z"/>
</svg>
