<?xml version="1.0" encoding="utf-8"?>
<!-- Generator: Adobe Illustrator 16.0.0, SVG Export Plug-In . SVG Version: 6.00 Build 0)  -->
<!DOCTYPE svg PUBLIC "-//W3C//DTD SVG 1.1//EN" "http://www.w3.org/Graphics/SVG/1.1/DTD/svg11.dtd">
<svg version="1.1" id="Calque_1" xmlns="http://www.w3.org/2000/svg" xmlns:xlink="http://www.w3.org/1999/xlink" x="0px" y="0px"
	 width="1125.111px" height="841.89px" viewBox="0 0 1125.111 841.89" enable-background="new 0 0 1125.111 841.89"
	 xml:space="preserve">
<defs>
  <style type="text/css">
    @font-face {
	    font-family: 'Roboto';
	    src: url('../../fonts/roboto/Roboto-Thin.eot');
	    src: url('../../fonts/roboto/Roboto-Thin.eot?#iefix') format('embedded-opentype'),
	         url('../../fonts/roboto/Roboto-Thin.woff') format('woff'),
	         url('../../fonts/roboto/Roboto-Thin.ttf') format('truetype'),
	         url('../../fonts/roboto/Roboto-Thin.svg#Roboto') format('svg');
	}
  </style>
</defs>
<g id="Calque_5">
	<rect x="301.927" y="144.922" fill="none" width="175.063" height="91.51"/>
	<text transform="matrix(1 0 0 1 311.4041 160.9165)" fill="#706F6F" font-family="'Roboto'" letter-spacing="1px" font-size="30">Architecture</text>
	<text transform="matrix(1 0 0 1 313.9622 190.1157)" fill="#706F6F" font-family="'Roboto'" letter-spacing="1px" font-size="30">&amp; ingénierie</text>
	
		<line fill="none" stroke="#717070" stroke-width="0.4853" stroke-miterlimit="10" x1="107.19" y1="202.527" x2="107.19" y2="595.928"/>
	
		<line fill="none" stroke="#717070" stroke-width="0.4895" stroke-miterlimit="10" x1="389.845" y1="204.18" x2="389.845" y2="722.022"/>
	
		<line fill="none" stroke="#717070" stroke-width="0.5" stroke-miterlimit="10" x1="611.774" y1="242.044" x2="611.774" y2="727.374"/>
	
		<line fill="none" stroke="#717070" stroke-width="0.4964" stroke-miterlimit="10" x1="1032.642" y1="194.925" x2="1032.642" y2="746.221"/>
	<rect x="425.004" y="140.975" fill="none" width="201.996" height="96.875"/>
	<rect x="812.845" y="140.936" fill="none" width="237.822" height="188.766"/>
	
		<line fill="none" stroke="#717070" stroke-width="0.4926" stroke-miterlimit="10" x1="822.847" y1="202.527" x2="822.847" y2="740.178"/>
	<rect x="676.772" y="138.234" fill="none" width="201.993" height="96.875"/>
	<text transform="matrix(1 0 0 1 777.3308 161.229)" fill="#706F6F" font-family="'Roboto'" letter-spacing="1px" font-size="30">Edition</text>
	<g>
		<path fill="#D36058" d="M366.542,3.272v117.106h45.346V3.272H366.542z M375.538,97.368h-6.459v-8.955h6.459V97.368z
			 M375.577,81.537h-6.46v-8.96h6.46V81.537z M375.617,65.7h-6.46v-8.955h6.46V65.7z M375.655,49.864h-6.459v-8.956h6.459V49.864z
			 M375.686,34.033h-6.46v-8.96h6.46V34.033z M375.726,18.197h-6.46V9.241h6.46V18.197z M386.297,97.368h-6.46v-8.955h6.46V97.368z
			 M386.311,81.537h-6.437v-8.96h6.437V81.537z M386.376,65.7h-6.459v-8.955h6.459V65.7z M386.41,49.864h-6.454v-8.956h6.454V49.864
			z M386.45,34.033h-6.46v-8.96h6.46V34.033z M386.489,18.197h-6.46V9.241h6.46V18.197z M397.114,97.368h-6.438v-8.955h6.438V97.368
			z M397.153,81.537h-6.443v-8.96h6.443V81.537z M397.204,65.7h-6.454v-8.955h6.454V65.7z M397.243,49.864h-6.454v-8.956h6.454
			V49.864z M397.288,34.033h-6.465v-8.96h6.465V34.033z M397.321,18.197h-6.459V9.241h6.459V18.197z M408.088,97.368h-6.46v-8.955
			h6.46V97.368z M408.101,81.537h-6.432v-8.96h6.432V81.537z M408.161,65.7h-6.46v-8.955h6.46V65.7z M408.2,49.864h-6.455v-8.956
			h6.455V49.864z M408.239,34.033h-6.459v-8.96h6.459V34.033z M408.278,18.197h-6.459V9.241h6.459V18.197z"/>
		
			<line fill="none" stroke="#D36058" stroke-width="1.4392" stroke-miterlimit="10" x1="372.283" y1="9.14" x2="372.283" y2="101.197"/>
		
			<line fill="none" stroke="#D36058" stroke-width="1.4726" stroke-miterlimit="10" x1="382.986" y1="3.856" x2="382.986" y2="100.236"/>
		
			<line fill="none" stroke="#D36058" stroke-width="1.4392" stroke-miterlimit="10" x1="404.866" y1="5.571" x2="404.866" y2="97.627"/>
		
			<line fill="none" stroke="#D36058" stroke-width="1.4392" stroke-miterlimit="10" x1="393.926" y1="9.14" x2="393.926" y2="101.197"/>
	</g>
	<rect x="23.484" y="142.07" fill="none" width="175.062" height="91.51"/>
	<text transform="matrix(1 0 0 1 -2.441406e-04 161.064)" enable-background="new    "><tspan x="0" y="0" fill="#706F6F" font-family="'Roboto'" letter-spacing="1px" font-size="30">Programmation</tspan><tspan x="207.671" y="0" fill="#727171" font-family="'Roboto'" letter-spacing="1px" font-size="21"> </tspan></text>
	<text transform="matrix(1 0 0 1 13.8479 186.2642)" fill="#706F6F" font-family="'Roboto'" letter-spacing="1px" font-size="30">informatique</text>
	<g>
		<rect x="98.501" y="66.809" fill="#EAE9EA" width="21.931" height="12.064"/>
		<path fill="#1F1F1E" d="M158.15,65.701c0,2.35-1.938,4.246-4.35,4.246H65.124c-2.399,0-4.337-1.896-4.337-4.246V8.635
			c0-2.34,1.946-4.236,4.337-4.236h88.677c2.408,0,4.35,1.896,4.35,4.236V65.701z"/>
		<path fill="#F6F6F6" d="M158.391,62.237v3.28c0,3.247-1.944,5.873-4.337,5.873H64.882c-2.396,0-4.347-2.626-4.347-5.873v-3.28"/>
		<rect x="64.045" y="7.529" fill="#BEE1E4" width="90.858" height="51.335"/>
		<rect x="92.955" y="78.186" fill="#F6F6F6" width="33.021" height="2.324"/>
		<rect x="79.101" y="7.529" fill="#FFFFFF" width="58.806" height="51.335"/>
		<rect x="83.442" y="51.629" fill="#E9E8E8" width="50.368" height="1.2"/>
		<rect x="83.324" y="53.679" fill="#E9E8E8" width="50.359" height="1.208"/>
		<rect x="83.315" y="55.844" fill="#E9E8E8" width="24.22" height="1.208"/>
		<rect x="83.004" y="43.311" fill="#E9E8E8" width="50.362" height="1.2"/>
		<rect x="82.88" y="45.353" fill="#E9E8E8" width="50.379" height="1.208"/>
		<rect x="82.88" y="47.527" fill="#E9E8E8" width="24.229" height="1.2"/>
		<rect x="83.442" y="34.112" fill="#E9E8E8" width="50.368" height="1.2"/>
		<rect x="83.324" y="36.162" fill="#E9E8E8" width="50.359" height="1.2"/>
		<rect x="83.315" y="38.326" fill="#E9E8E8" width="24.22" height="1.208"/>
		<rect x="83.442" y="24.475" fill="#E9E8E8" width="50.368" height="1.2"/>
		<rect x="83.324" y="26.524" fill="#E9E8E8" width="50.359" height="1.208"/>
		<rect x="83.315" y="28.688" fill="#E9E8E8" width="24.22" height="1.208"/>
		<rect x="83.442" y="14.396" fill="#E9E8E8" width="50.368" height="1.208"/>
		<rect x="83.324" y="16.455" fill="#E9E8E8" width="50.359" height="1.191"/>
		<rect x="83.315" y="18.619" fill="#E9E8E8" width="24.22" height="1.208"/>
	</g>
	<g>
		<g>
			<path fill="#F6F6F6" d="M107.176,84.864H85.364c-1.311,0-2.375,1.065-2.375,2.383v22.601c0,1.318,1.064,2.383,2.375,2.383h47.071
				c1.312,0,2.375-1.065,2.375-2.383V87.247c0-1.317-1.063-2.383-2.375-2.383l0,0h-21.805H107.176L107.176,84.864z M117.177,90.618
				c0-0.327,0.259-0.604,0.604-0.604h3.296c0.32,0,0.604,0.269,0.604,0.604v2.945c0,0.328-0.274,0.604-0.604,0.604h-3.296
				c-0.335,0-0.604-0.269-0.604-0.604V90.618z M117.177,97.074v2.945c0,0.323-0.274,0.604-0.613,0.604h-3.277
				c-0.335,0-0.604-0.268-0.604-0.604v-2.945c0-0.344,0.271-0.612,0.604-0.612h3.277C116.899,96.467,117.177,96.731,117.177,97.074
				L117.177,97.074z M114.061,90.014c0.338,0,0.612,0.269,0.612,0.604v2.945c0,0.328-0.274,0.604-0.612,0.604h-3.279
				c-0.334,0-0.604-0.269-0.604-0.604v-2.945c0-0.327,0.271-0.604,0.604-0.604H114.061z M110.262,97.074v2.945
				c0,0.323-0.27,0.604-0.604,0.604h-3.288c-0.326,0-0.604-0.268-0.604-0.604v-2.945c0-0.344,0.271-0.612,0.604-0.612h3.288
				C109.995,96.467,110.262,96.731,110.262,97.074L110.262,97.074z M103.173,90.618c0-0.327,0.271-0.604,0.612-0.604h3.271
				c0.335,0,0.62,0.269,0.62,0.604v2.945c0,0.328-0.276,0.604-0.62,0.604h-3.271c-0.345,0-0.612-0.269-0.612-0.604V90.618z
				 M103.348,97.074v2.945c0,0.323-0.269,0.604-0.61,0.604h-3.279c-0.335,0-0.612-0.268-0.612-0.604v-2.945
				c0-0.344,0.271-0.612,0.612-0.612h3.279C103.073,96.467,103.348,96.731,103.348,97.074L103.348,97.074z M89.171,93.554v-2.945
				c0-0.327,0.276-0.604,0.611-0.604h3.281c0.335,0,0.604,0.269,0.604,0.604v2.945c0,0.328-0.261,0.604-0.604,0.604h-3.281
				C89.448,94.159,89.171,93.886,89.171,93.554L89.171,93.554z M94.163,106.458c0,0.344-0.271,0.613-0.604,0.613H90.27
				c-0.324,0-0.604-0.264-0.604-0.613v-2.937c0-0.335,0.269-0.604,0.604-0.604h3.288c0.336,0,0.604,0.265,0.604,0.604V106.458z
				 M96.435,100.015c0,0.319-0.274,0.604-0.62,0.604h-3.271c-0.335,0-0.612-0.269-0.612-0.604V97.07
				c0-0.344,0.271-0.613,0.612-0.613h3.271c0.346,0,0.62,0.265,0.62,0.613V100.015z M96.169,93.554v-2.945
				c0-0.327,0.284-0.604,0.619-0.604h3.271c0.348,0,0.622,0.269,0.622,0.604v2.945c0,0.328-0.27,0.604-0.622,0.604h-3.271
				C96.454,94.159,96.169,93.886,96.169,93.554L96.169,93.554z M121.495,106.458c0,0.344-0.271,0.613-0.604,0.613H97.642
				c-0.335,0-0.609-0.264-0.609-0.613v-2.937c0-0.335,0.27-0.604,0.609-0.604h23.248c0.327,0,0.604,0.265,0.604,0.604V106.458z
				 M124.09,100.015c0,0.319-0.27,0.604-0.614,0.604h-3.271c-0.335,0-0.611-0.269-0.611-0.604V97.07
				c0-0.344,0.271-0.613,0.611-0.613h3.271c0.337,0,0.614,0.265,0.614,0.613V100.015z M124.179,93.554v-2.945
				c0-0.327,0.261-0.604,0.605-0.604h3.288c0.335,0,0.604,0.269,0.604,0.604v2.945c0,0.328-0.26,0.604-0.604,0.604h-3.288
				C124.448,94.159,124.179,93.886,124.179,93.554L124.179,93.554z M128.871,106.458c0,0.344-0.271,0.613-0.604,0.613h-3.288
				c-0.324,0-0.609-0.264-0.609-0.613v-2.937c0-0.335,0.27-0.604,0.609-0.604h3.288c0.328,0,0.604,0.265,0.604,0.604V106.458z"/>
		</g>
		<g>
			<path fill="#F6F6F6" d="M107.176,84.864H85.364c-1.311,0-2.375,1.065-2.375,2.383v22.601c0,1.318,1.064,2.383,2.375,2.383h47.071
				c1.312,0,2.375-1.065,2.375-2.383V87.247c0-1.317-1.063-2.383-2.375-2.383l0,0h-21.805H107.176L107.176,84.864z M117.177,90.618
				c0-0.327,0.259-0.604,0.604-0.604h3.296c0.32,0,0.604,0.269,0.604,0.604v2.945c0,0.328-0.274,0.604-0.604,0.604h-3.296
				c-0.335,0-0.604-0.269-0.604-0.604V90.618z M117.177,97.074v2.945c0,0.323-0.274,0.604-0.613,0.604h-3.277
				c-0.335,0-0.604-0.268-0.604-0.604v-2.945c0-0.344,0.271-0.612,0.604-0.612h3.277C116.899,96.467,117.177,96.731,117.177,97.074
				L117.177,97.074z M114.061,90.014c0.338,0,0.612,0.269,0.612,0.604v2.945c0,0.328-0.274,0.604-0.612,0.604h-3.279
				c-0.334,0-0.604-0.269-0.604-0.604v-2.945c0-0.327,0.271-0.604,0.604-0.604H114.061z M110.262,97.074v2.945
				c0,0.323-0.27,0.604-0.604,0.604h-3.288c-0.326,0-0.604-0.268-0.604-0.604v-2.945c0-0.344,0.271-0.612,0.604-0.612h3.288
				C109.995,96.467,110.262,96.731,110.262,97.074L110.262,97.074z M103.173,90.618c0-0.327,0.271-0.604,0.612-0.604h3.271
				c0.335,0,0.62,0.269,0.62,0.604v2.945c0,0.328-0.276,0.604-0.62,0.604h-3.271c-0.345,0-0.612-0.269-0.612-0.604V90.618z
				 M103.348,97.074v2.945c0,0.323-0.269,0.604-0.61,0.604h-3.279c-0.335,0-0.612-0.268-0.612-0.604v-2.945
				c0-0.344,0.271-0.612,0.612-0.612h3.279C103.073,96.467,103.348,96.731,103.348,97.074L103.348,97.074z M89.171,93.554v-2.945
				c0-0.327,0.276-0.604,0.611-0.604h3.281c0.335,0,0.604,0.269,0.604,0.604v2.945c0,0.328-0.261,0.604-0.604,0.604h-3.281
				C89.448,94.159,89.171,93.886,89.171,93.554L89.171,93.554z M94.163,106.458c0,0.344-0.271,0.613-0.604,0.613H90.27
				c-0.324,0-0.604-0.264-0.604-0.613v-2.937c0-0.335,0.269-0.604,0.604-0.604h3.288c0.336,0,0.604,0.265,0.604,0.604V106.458z
				 M96.435,100.015c0,0.319-0.274,0.604-0.62,0.604h-3.271c-0.335,0-0.612-0.269-0.612-0.604V97.07
				c0-0.344,0.271-0.613,0.612-0.613h3.271c0.346,0,0.62,0.265,0.62,0.613V100.015z M96.169,93.554v-2.945
				c0-0.327,0.284-0.604,0.619-0.604h3.271c0.348,0,0.622,0.269,0.622,0.604v2.945c0,0.328-0.27,0.604-0.622,0.604h-3.271
				C96.454,94.159,96.169,93.886,96.169,93.554L96.169,93.554z M121.495,106.458c0,0.344-0.271,0.613-0.604,0.613H97.642
				c-0.335,0-0.609-0.264-0.609-0.613v-2.937c0-0.335,0.27-0.604,0.609-0.604h23.248c0.327,0,0.604,0.265,0.604,0.604V106.458z
				 M124.09,100.015c0,0.319-0.27,0.604-0.614,0.604h-3.271c-0.335,0-0.611-0.269-0.611-0.604V97.07
				c0-0.344,0.271-0.613,0.611-0.613h3.271c0.337,0,0.614,0.265,0.614,0.613V100.015z M124.179,93.554v-2.945
				c0-0.327,0.261-0.604,0.605-0.604h3.288c0.335,0,0.604,0.269,0.604,0.604v2.945c0,0.328-0.26,0.604-0.604,0.604h-3.288
				C124.448,94.159,124.179,93.886,124.179,93.554L124.179,93.554z M128.871,106.458c0,0.344-0.271,0.613-0.604,0.613h-3.288
				c-0.324,0-0.609-0.264-0.609-0.613v-2.937c0-0.335,0.27-0.604,0.609-0.604h3.288c0.328,0,0.604,0.265,0.604,0.604V106.458z"/>
		</g>
	</g>
	<path fill="#F8E5F0" d="M104.885,107.414c-1.754-3.507-3.8-1.46-5.253,0c-1.459-3.507-4.967,0-4.967,0
		c-0.579-3.213-3.508-2.047-4.673-0.009c-1.753-5.838-4.623,0-4.623,0s-2.509,6.024-0.485,10.076
		c1.904,3.792,16.938,3.666,18.54,1.167C104.885,116.753,105.758,114.705,104.885,107.414z"/>
	<path fill="#F8E5F0" d="M104.591,110.912c0,0,1.191-1.468,2.057-1.468c1.459,0-0.442,8.327-3.214,9.204
		C100.645,119.521,104.591,110.912,104.591,110.912z"/>
	<path fill="#F8E5F0" d="M113.652,107.708c1.752-3.507,3.792-1.46,5.251,0c1.467-3.507,4.966,0,4.966,0
		c0.579-3.214,3.499-2.056,4.665-0.008c1.755-5.848,4.632,0,4.632,0s2.509,6.007,0.485,10.076
		c-1.903,3.791-16.938,3.648-18.552,1.162C113.652,117.047,112.768,114.994,113.652,107.708z"/>
	<path fill="#F8E5F0" d="M113.946,111.206c0,0-1.191-1.459-2.051-1.459c-1.459,0,0.438,8.327,3.205,9.195
		C117.887,119.811,113.946,111.206,113.946,111.206z"/>
	<rect x="985.606" y="145.089" fill="none" width="90.834" height="40.836"/>
	<text transform="matrix(1 0 0 1 980.4949 161.0845)" fill="#706F6F" font-family="'Roboto'" letter-spacing="1px" font-size="30">Holding</text>
	<g>
		<g>
			<g>
				<path fill="#D36058" d="M1015.704,40.023c0,0-0.039,0.954,0.896,0.954c1.167,0,10.807-0.015,10.807-0.015l0.011-8.854
					c0,0-0.15-1.453,1.27-1.453h4.481c1.681,0,1.568,1.453,1.568,1.453l-0.013,8.834h10.568c1.189,0,1.146-1.201,1.146-1.201V23.419
					l-14.91-13.26l-15.824,13.26V40.023L1015.704,40.023z"/>
				<path fill="#D36058" d="M1009.876,22.179c0,0,1.34,2.479,4.27,0l17.517-14.812l16.416,14.726c3.389,2.45,4.661,0,4.661,0
					L1031.66,3L1009.876,22.179z"/>
			</g>
			<g>
				<path fill="#D36058" d="M1015.704,40.023c0,0-0.039,0.954,0.896,0.954c1.167,0,10.807-0.015,10.807-0.015l0.011-8.854
					c0,0-0.15-1.453,1.27-1.453h4.481c1.681,0,1.568,1.453,1.568,1.453l-0.013,8.834h10.568c1.189,0,1.146-1.201,1.146-1.201V23.419
					l-14.91-13.26l-15.824,13.26V40.023L1015.704,40.023z"/>
				<path fill="#D36058" d="M1009.876,22.179c0,0,1.34,2.479,4.27,0l17.517-14.812l16.416,14.726c3.389,2.45,4.661,0,4.661,0
					L1031.66,3L1009.876,22.179z"/>
			</g>
		</g>
		<g>
			<g>
				<path fill="#B3B3B3" d="M961.704,119.423c0,0-0.039,0.959,0.905,0.959c1.167,0,10.8-0.02,10.8-0.02l0.02-8.854
					c0,0-0.16-1.447,1.271-1.447h4.478c1.673,0,1.572,1.447,1.572,1.447l-0.019,8.834h10.564c1.201,0,1.146-1.201,1.146-1.201
					v-16.326l-14.91-13.255l-15.824,13.255L961.704,119.423L961.704,119.423z"/>
				<path fill="#B3B3B3" d="M955.879,101.58c0,0,1.342,2.479,4.279,0l17.505-14.809l16.421,14.722c3.384,2.444,4.666,0,4.666,0
					l-21.087-19.094L955.879,101.58z"/>
			</g>
			<g>
				<path fill="#C6C6C6" d="M961.704,119.423c0,0-0.039,0.959,0.905,0.959c1.167,0,10.8-0.02,10.8-0.02l0.02-8.854
					c0,0-0.16-1.447,1.271-1.447h4.478c1.673,0,1.572,1.447,1.572,1.447l-0.019,8.834h10.564c1.201,0,1.146-1.201,1.146-1.201
					v-16.326l-14.91-13.255l-15.824,13.255L961.704,119.423L961.704,119.423z"/>
				<path fill="#C6C6C6" d="M955.879,101.58c0,0,1.342,2.479,4.279,0l17.505-14.809l16.421,14.722c3.384,2.444,4.666,0,4.666,0
					l-21.087-19.094L955.879,101.58z"/>
			</g>
		</g>
		<g>
			<g>
				<path fill="#C6C6C6" d="M1014.905,119.423c0,0-0.034,0.959,0.897,0.959c1.166,0,10.808-0.02,10.808-0.02l0.01-8.854
					c0,0-0.15-1.447,1.269-1.447h4.487c1.67,0,1.564,1.447,1.564,1.447l-0.014,8.834h10.567c1.19,0,1.146-1.201,1.146-1.201v-16.326
					l-14.912-13.255l-15.825,13.255L1014.905,119.423L1014.905,119.423z"/>
				<path fill="#C6C6C6" d="M1009.082,101.58c0,0,1.331,2.479,4.269,0l17.513-14.809l16.426,14.722c3.379,2.444,4.666,0,4.666,0
					l-21.092-19.094L1009.082,101.58z"/>
			</g>
			<g>
				<path fill="#C6C6C6" d="M1014.905,119.423c0,0-0.034,0.959,0.897,0.959c1.166,0,10.808-0.02,10.808-0.02l0.01-8.854
					c0,0-0.15-1.447,1.269-1.447h4.487c1.67,0,1.564,1.447,1.564,1.447l-0.014,8.834h10.567c1.19,0,1.146-1.201,1.146-1.201v-16.326
					l-14.912-13.255l-15.825,13.255L1014.905,119.423L1014.905,119.423z"/>
				<path fill="#C6C6C6" d="M1009.082,101.58c0,0,1.331,2.479,4.269,0l17.513-14.809l16.426,14.722c3.379,2.444,4.666,0,4.666,0
					l-21.092-19.094L1009.082,101.58z"/>
			</g>
		</g>
		<g>
			<g>
				<path fill="#FFFFFF" d="M1068.899,120.212c0,0-0.043,0.959,0.896,0.959c1.167,0,10.801-0.015,10.801-0.015l0.021-8.858
					c0,0-0.146-1.448,1.269-1.448h4.479c1.671,0,1.571,1.448,1.571,1.448l-0.021,8.834h10.568c1.192,0,1.146-1.195,1.146-1.195
					v-16.324l-14.91-13.268l-15.816,13.268v16.599H1068.899z"/>
				<path fill="#FFFFFF" d="M1063.067,102.368c0,0,1.346,2.479,4.271,0l17.509-14.808l16.429,14.722c3.389,2.443,4.66,0,4.66,0
					l-21.089-19.087L1063.067,102.368z"/>
			</g>
			<g>
				<path fill="#C6C6C6" d="M1068.899,120.212c0,0-0.043,0.959,0.896,0.959c1.167,0,10.801-0.015,10.801-0.015l0.021-8.858
					c0,0-0.146-1.448,1.269-1.448h4.479c1.671,0,1.571,1.448,1.571,1.448l-0.021,8.834h10.568c1.192,0,1.146-1.195,1.146-1.195
					v-16.324l-14.91-13.268l-15.816,13.268v16.599H1068.899z"/>
				<path fill="#C6C6C6" d="M1063.067,102.368c0,0,1.346,2.479,4.271,0l17.509-14.808l16.429,14.722c3.389,2.443,4.66,0,4.66,0
					l-21.089-19.087L1063.067,102.368z"/>
			</g>
		</g>
		<g>
			<g>
				
					<line fill="none" stroke="#D3574C" stroke-width="1.102" stroke-linecap="round" stroke-linejoin="round" x1="1030.579" y1="45.163" x2="1030.589" y2="46.541"/>
				
					<line fill="none" stroke="#D3574C" stroke-width="1.102" stroke-linecap="round" stroke-linejoin="round" stroke-dasharray="2.9171,2.9171" x1="1030.612" y1="49.458" x2="1030.781" y2="71.335"/>
				
					<line fill="none" stroke="#D3574C" stroke-width="1.102" stroke-linecap="round" stroke-linejoin="round" x1="1030.792" y1="72.794" x2="1030.802" y2="74.171"/>
			</g>
		</g>
		<g>
			<g>
				
					<line fill="none" stroke="#D3574C" stroke-width="0.7964" stroke-linecap="round" stroke-linejoin="round" x1="1086.472" y1="61.4" x2="1086.483" y2="62.395"/>
				
					<line fill="none" stroke="#D3574C" stroke-width="0.7964" stroke-linecap="round" stroke-linejoin="round" stroke-dasharray="1.8803,1.8803" x1="1086.499" y1="64.275" x2="1086.581" y2="74.616"/>
				
					<line fill="none" stroke="#D3574C" stroke-width="0.7964" stroke-linecap="round" stroke-linejoin="round" x1="1086.588" y1="75.556" x2="1086.595" y2="76.552"/>
			</g>
		</g>
		<g>
			<g>
				
					<line fill="none" stroke="#D3574C" stroke-width="0.7646" stroke-linecap="round" stroke-linejoin="round" x1="978.294" y1="62.587" x2="978.301" y2="63.543"/>
				
					<line fill="none" stroke="#D3574C" stroke-width="0.7646" stroke-linecap="round" stroke-linejoin="round" stroke-dasharray="1.722,1.722" x1="978.315" y1="65.265" x2="978.387" y2="74.736"/>
				
					<line fill="none" stroke="#D3574C" stroke-width="0.7646" stroke-linecap="round" stroke-linejoin="round" x1="978.397" y1="75.596" x2="978.405" y2="76.552"/>
			</g>
		</g>
		<g>
			<g>
				
					<line fill="none" stroke="#D3574C" stroke-width="1.0593" stroke-linecap="round" stroke-linejoin="round" x1="1085.477" y1="61.753" x2="1084.156" y2="61.763"/>
				
					<line fill="none" stroke="#D3574C" stroke-width="1.0593" stroke-linecap="round" stroke-linejoin="round" stroke-dasharray="2.6953,2.6953" x1="1081.461" y1="61.785" x2="980.387" y2="62.585"/>
				
					<line fill="none" stroke="#D3574C" stroke-width="1.0593" stroke-linecap="round" stroke-linejoin="round" x1="979.042" y1="62.595" x2="977.717" y2="62.606"/>
			</g>
		</g>
	</g>
</g>
<g id="Calque_4">
	<path fill="#F09748" d="M195.44,799.727c0,16.053-39.852,29.066-89.005,29.066c-49.151,0-88.995-13.016-88.995-29.066
		c0-16.049,39.844-29.061,88.995-29.061C155.591,770.665,195.44,783.678,195.44,799.727z"/>
	<polygon fill="#F09748" points="195.44,638.924 195.44,799.471 17.44,799.284 17.44,638.924 	"/>
	<path fill="#E06C3A" d="M195.856,639.942c0,14.723-39.942,26.654-89.209,26.654c-49.268,0-89.207-11.934-89.207-26.654
		c0-14.717,39.939-26.65,89.207-26.65C155.914,613.292,195.856,625.225,195.856,639.942z"/>
	<ellipse fill="#64BBAE" cx="390.882" cy="799.571" rx="28.647" ry="9.354"/>
	<ellipse fill="#F05F59" cx="610.44" cy="797.749" rx="25" ry="8.506"/>
	<polygon fill="#F05F59" points="635.22,747.178 635.22,798.44 585.44,798.381 585.44,747.178 	"/>
	<ellipse fill="#E05B5A" cx="610.428" cy="747.788" rx="24.989" ry="7.428"/>
	<path fill="#F09748" d="M846.542,797.143c0,4.061-10.317,7.352-23.048,7.352c-12.732,0-23.054-3.291-23.054-7.352
		s10.318-7.354,23.054-7.354C836.221,789.79,846.542,793.083,846.542,797.143z"/>
	<polygon fill="#F09748" points="846.44,751.924 846.44,796.499 800.44,796.446 800.44,751.924 	"/>
	<path fill="#E06C3A" d="M846.826,752.176c0,3.721-10.333,6.74-23.072,6.74c-12.748,0-23.079-3.021-23.079-6.74
		c0-3.721,10.331-6.74,23.079-6.74C836.493,745.436,846.826,748.454,846.826,752.176z"/>
	<path fill="#64BBAE" d="M1052.172,798.026c0,3.535-8.694,6.398-19.424,6.398c-10.733,0-19.43-2.863-19.43-6.398
		c0-3.533,8.693-6.4,19.43-6.4C1043.475,791.624,1052.172,794.491,1052.172,798.026z"/>
	<rect x="1013.374" y="758.481" fill="#64BBAE" width="38.812" height="39.547"/>
	<ellipse fill="#46B2A0" cx="1032.754" cy="758.878" rx="19.435" ry="5.868"/>
	<rect x="362.235" y="742.399" fill="#64BBAE" width="57.491" height="58.27"/>
	<path fill="#46B2A0" d="M419.642,742.364c0,4.736-12.854,8.576-28.7,8.576c-15.854,0-28.707-3.84-28.707-8.576
		c0-4.734,12.854-8.574,28.707-8.574C406.792,733.79,419.642,737.629,419.642,742.364z"/>
	<rect x="508.512" y="146.53" fill="none" width="206.493" height="76.997"/>
	<text transform="matrix(1 0 0 1 556.2878 162.5269)" fill="#706F6F" font-family="'Roboto'" letter-spacing="1px" font-size="30">Industrie</text>
	<text transform="matrix(1 0 0 1 531.9221 191.7251)" fill="#706F6F" font-family="'Roboto'" letter-spacing="1px" font-size="30">informatique</text>
	<text transform="matrix(1 0 0 1 518.4685 221.9268)" fill="#706F6F" font-family="'Roboto'" letter-spacing="1px" font-size="30">&amp;  électronique</text>
</g>
<g>
	<g>
		
			<line fill="none" stroke="#D3574C" stroke-width="1.2168" stroke-linecap="round" stroke-linejoin="round" x1="610.094" y1="39.889" x2="610.106" y2="41.41"/>
		
			<line fill="none" stroke="#D3574C" stroke-width="1.2168" stroke-linecap="round" stroke-linejoin="round" stroke-dasharray="3.2204,3.2204" x1="610.133" y1="44.631" x2="610.325" y2="68.783"/>
		
			<line fill="none" stroke="#D3574C" stroke-width="1.2168" stroke-linecap="round" stroke-linejoin="round" x1="610.337" y1="70.393" x2="610.346" y2="71.914"/>
	</g>
</g>
<g>
	<g>
		
			<line fill="none" stroke="#D3574C" stroke-width="0.8613" stroke-linecap="round" stroke-linejoin="round" x1="599.559" y1="79.393" x2="599.26" y2="80.427"/>
		
			<line fill="none" stroke="#D3574C" stroke-width="0.8613" stroke-linecap="round" stroke-linejoin="round" stroke-dasharray="2.0749,2.0749" x1="598.679" y1="82.419" x2="593.165" y2="101.342"/>
		
			<line fill="none" stroke="#D3574C" stroke-width="0.8613" stroke-linecap="round" stroke-linejoin="round" x1="592.874" y1="102.339" x2="592.573" y2="103.372"/>
	</g>
</g>
<g>
	<g>
		
			<line fill="none" stroke="#D3574C" stroke-width="0.8613" stroke-linecap="round" stroke-linejoin="round" x1="618.752" y1="79.193" x2="618.986" y2="80.243"/>
		
			<line fill="none" stroke="#D3574C" stroke-width="0.8613" stroke-linecap="round" stroke-linejoin="round" stroke-dasharray="2.0752,2.0752" x1="619.438" y1="82.269" x2="623.737" y2="101.509"/>
		
			<line fill="none" stroke="#D3574C" stroke-width="0.8613" stroke-linecap="round" stroke-linejoin="round" x1="623.963" y1="102.522" x2="624.198" y2="103.572"/>
	</g>
</g>
<g>
	<rect x="605.13" y="33.741" fill="#EAE9EA" width="10.785" height="5.929"/>
	<path fill="#1E1E1C" d="M634.454,33.201c0,1.15-0.949,2.085-2.134,2.085h-43.604c-1.179,0-2.129-0.935-2.129-2.085V5.144
		c0-1.156,0.95-2.085,2.129-2.085h43.604c1.185,0,2.134,0.93,2.134,2.085V33.201z"/>
	<path fill="#FFFFFF" d="M634.575,31.491v1.616c0,1.594-0.958,2.889-2.135,2.889h-43.836c-1.182,0-2.137-1.294-2.137-2.889v-1.616"
		/>
	<rect x="588.183" y="4.599" fill="#BCE0E4" width="44.673" height="25.236"/>
	<rect x="602.406" y="39.335" fill="#FFFFFF" width="16.229" height="1.141"/>
	<rect x="595.594" y="4.599" fill="#FFFFFF" width="28.905" height="25.236"/>
	<rect x="595.594" y="4.599" fill="#6DA5AA" width="28.905" height="4.024"/>
	<rect x="596.774" y="10.168" fill="#12100E" width="3.795" height="1.185"/>
	<rect x="602.406" y="10.168" fill="#12100E" width="3.796" height="1.185"/>
	<rect x="608.154" y="10.168" fill="#12100E" width="3.786" height="1.185"/>
	<rect x="614.013" y="10.168" fill="#12100E" width="3.792" height="1.185"/>
	<rect x="619.642" y="10.168" fill="#12100E" width="3.791" height="1.185"/>
	<rect x="600.51" y="13.07" fill="#8ECDD4" width="19.078" height="11.846"/>
	<rect x="597.72" y="26.28" fill="#E8E7E7" width="24.771" height="0.591"/>
	<rect x="597.667" y="27.287" fill="#E8E7E7" width="24.763" height="0.587"/>
	<rect x="597.667" y="28.352" fill="#E8E7E7" width="11.91" height="0.591"/>
	<path fill="#12100E" d="M622.49,15.911c0,0.267-0.215,0.473-0.479,0.473c-0.261,0-0.473-0.206-0.473-0.473
		c0-0.262,0.212-0.473,0.473-0.473C622.274,15.438,622.49,15.649,622.49,15.911z"/>
	<circle fill="#12100E" cx="622.012" cy="18.993" r="0.475"/>
	<path fill="#12100E" d="M622.49,22.193c0,0.26-0.215,0.473-0.479,0.473c-0.261,0-0.473-0.212-0.473-0.473
		c0-0.264,0.212-0.473,0.473-0.473C622.274,21.72,622.49,21.929,622.49,22.193z"/>
</g>
<g>
	<rect x="597.725" y="73.91" fill="#FFFFFF" width="25.592" height="7.507"/>
	<rect x="609.661" y="65.467" fill="#FFFFFF" width="1.1" height="10.153"/>
	<path fill="none" stroke="#FFFFFF" stroke-width="1.2919" stroke-miterlimit="10" d="M612.04,63.638
		c0,1.012-0.819,1.829-1.829,1.829c-1.009,0-1.831-0.816-1.831-1.829c0-1.007,0.822-1.829,1.831-1.829
		C611.219,61.81,612.04,62.632,612.04,63.638z"/>
	<rect x="601.002" y="74.929" fill="#E8E7E7" width="21.517" height="1.392"/>
	<rect x="598.317" y="74.929" fill="#8ECDD4" width="1.5" height="1.392"/>
	<rect x="601.002" y="77.664" fill="#BCE0E4" width="6.108" height="1.704"/>
	<rect x="608.028" y="77.664" fill="#BCE0E4" width="4.751" height="1.704"/>
	<rect x="613.954" y="77.664" fill="#BCE0E4" width="4.502" height="1.704"/>
	<rect x="619.524" y="77.664" fill="#12100E" width="0.449" height="1.704"/>
	<rect x="620.315" y="77.664" fill="#12100E" width="0.449" height="1.704"/>
	
		<path fill="none" stroke="#D3574C" stroke-width="1.7225" stroke-linecap="round" stroke-linejoin="round" stroke-miterlimit="10" d="
		M616.694,54.61c2.807,1.54,4.684,4.364,4.684,7.596c0,3.354-2.025,6.277-5.014,7.777"/>
	
		<path fill="none" stroke="#D3574C" stroke-width="1.7225" stroke-linecap="round" stroke-linejoin="round" stroke-miterlimit="10" d="
		M604.177,54.61c-2.804,1.54-4.68,4.364-4.68,7.596c0,3.354,2.021,6.277,5.009,7.777"/>
	
		<path fill="none" stroke="#D3574C" stroke-width="1.2919" stroke-linecap="round" stroke-linejoin="round" stroke-miterlimit="10" d="
		M605.2,57.654c-1.698,0.93-2.831,2.635-2.831,4.587c0,2.029,1.224,3.789,3.023,4.692"/>
	
		<path fill="none" stroke="#D3574C" stroke-width="1.2919" stroke-linecap="round" stroke-linejoin="round" stroke-miterlimit="10" d="
		M615.258,57.654c1.689,0.93,2.827,2.635,2.827,4.587c0,2.029-1.225,3.789-3.03,4.692"/>
</g>
<g>
	<rect x="585.166" y="96.596" fill="#FFFFFF" width="19.393" height="16.931"/>
	<rect x="585.166" y="96.596" fill="#6DA5AA" width="19.393" height="2.702"/>
	<rect x="585.96" y="100.331" fill="#12100E" width="2.543" height="0.794"/>
	<rect x="589.731" y="100.331" fill="#12100E" width="2.547" height="0.794"/>
	<rect x="593.59" y="100.331" fill="#12100E" width="2.546" height="0.794"/>
	<rect x="597.524" y="100.331" fill="#12100E" width="2.546" height="0.794"/>
	<rect x="601.3" y="100.331" fill="#12100E" width="2.543" height="0.794"/>
	<rect x="588.465" y="102.278" fill="#8ECDD4" width="12.797" height="7.95"/>
	<rect x="586.595" y="111.144" fill="#E8E7E7" width="16.61" height="0.396"/>
	<rect x="586.554" y="111.818" fill="#E8E7E7" width="16.615" height="0.395"/>
	<rect x="586.554" y="112.531" fill="#E8E7E7" width="7.987" height="0.396"/>
	<path fill="#12100E" d="M603.207,104.184c0,0.18-0.142,0.321-0.312,0.321c-0.179,0-0.319-0.142-0.319-0.321
		c0-0.175,0.144-0.313,0.319-0.313C603.065,103.87,603.207,104.009,603.207,104.184z"/>
	<path fill="#12100E" d="M603.207,106.254c0,0.18-0.142,0.319-0.312,0.319c-0.179,0-0.319-0.139-0.319-0.319
		c0-0.176,0.144-0.318,0.319-0.318C603.065,105.935,603.207,106.077,603.207,106.254z"/>
	<path fill="#12100E" d="M603.207,108.401c0,0.173-0.142,0.314-0.312,0.314c-0.179,0-0.319-0.142-0.319-0.314
		c0-0.177,0.144-0.318,0.319-0.318C603.065,108.083,603.207,108.224,603.207,108.401z"/>
</g>
<g>
	<path fill="#FFFFFF" d="M632.427,116.342c0,1.275-1.022,2.297-2.294,2.297h-8.979c-1.267,0-2.291-1.022-2.291-2.297v-22.54
		c0-1.264,1.024-2.296,2.291-2.296h8.979c1.271,0,2.294,1.033,2.294,2.296V116.342z"/>
	<rect x="619.529" y="95.379" fill="#BCE0E4" width="12.227" height="19.397"/>
	<path fill="#1E1E1C" d="M627.651,93.995c0,0.103-0.088,0.192-0.188,0.192h-2.202c-0.104,0-0.189-0.09-0.189-0.192l0,0
		c0-0.106,0.088-0.193,0.189-0.193h2.202C627.563,93.802,627.651,93.889,627.651,93.995L627.651,93.995z"/>
	<path fill="#1E1E1C" d="M624.306,93.995c0,0.103-0.09,0.192-0.192,0.192c-0.105,0-0.19-0.09-0.19-0.192
		c0-0.106,0.085-0.193,0.19-0.193C624.219,93.802,624.306,93.889,624.306,93.995z"/>
	<rect x="619.529" y="95.379" fill="#6DA5AA" width="12.227" height="3.057"/>
	<rect x="620.292" y="98.436" fill="#FFFFFF" width="10.654" height="13.376"/>
	<rect x="620.961" y="100.249" fill="#8ECDD4" width="9.269" height="5.687"/>
	<rect x="620.961" y="98.959" fill="#12100E" width="1.812" height="0.766"/>
	<rect x="623.399" y="98.959" fill="#12100E" width="1.812" height="0.766"/>
	<rect x="626.024" y="98.959" fill="#12100E" width="1.816" height="0.766"/>
	<rect x="628.414" y="98.959" fill="#12100E" width="1.813" height="0.766"/>
	<rect x="620.961" y="106.84" fill="#E9E8E8" width="9.269" height="0.288"/>
	<rect x="620.961" y="107.415" fill="#E9E8E8" width="9.269" height="0.288"/>
	<rect x="620.961" y="107.988" fill="#E9E8E8" width="9.269" height="0.289"/>
	<rect x="620.991" y="108.551" fill="#E9E8E8" width="5.875" height="0.25"/>
</g>
<g>
	<path fill="#FFFFFF" d="M761.252,24.19l-2.016,88.071l120.481-2.525l2.623-86.015c0,0-38.902-7.204-60.691,11.577
		C803.219,16.866,779.524,22.072,761.252,24.19z"/>
	<g>
		<g>
			<path fill="#BCE0E4" d="M883.572,32.644V24.19l-1.229-0.47c-0.416-0.168-10.35-4.019-23.584-4.019
				c-14.182,0-26.419,4.324-36.353,12.84c-9.946-8.516-22.173-12.84-36.366-12.84c-13.238,0-23.176,3.85-23.593,4.019l-1.196,0.47
				v7.829c-4.022,0.753-6.521,2.109-6.521,4.293v80.649h59.396c2.06,1.856,5.077,3,8.436,3c3.348,0,6.367-1.143,8.404-3h57.917
				V36.312C888.884,34.522,886.864,33.352,883.572,32.644L883.572,32.644z M821.762,110.613c-4.938-2.038-21.918-8.493-38.931-8.493
				c-6.724,0-12.672,1.019-17.765,3.062V26.857c2.98-0.975,11.041-3.305,20.972-3.305c13.073,0,26.118,5.321,35.273,13.004
				 M823.038,36.804c9.162-7.683,22.652-13.252,35.723-13.252c9.907,0,18.012,2.331,20.961,3.305v78.341
				c-5.453-2.184-11.693-3.288-18.63-3.288c-17.009,0-33.188,6.518-38.036,8.658v-31.12"/>
		</g>
		<g>
			<path fill="#BCE0E4" d="M883.572,32.644V24.19l-1.229-0.47c-0.416-0.168-10.35-4.019-23.584-4.019
				c-14.182,0-26.419,4.324-36.353,12.84c-9.946-8.516-22.173-12.84-36.366-12.84c-13.238,0-23.176,3.85-23.593,4.019l-1.196,0.47
				v7.829c-4.022,0.753-6.521,2.109-6.521,4.293v80.649h59.396c2.06,1.856,5.077,3,8.436,3c3.348,0,6.367-1.143,8.404-3h57.917
				V36.312C888.884,34.522,886.864,33.352,883.572,32.644L883.572,32.644z M821.762,110.613c-4.938-2.038-21.918-8.493-38.931-8.493
				c-6.724,0-12.672,1.019-17.765,3.062V26.857c2.98-0.975,11.041-3.305,20.972-3.305c13.073,0,26.118,5.321,35.273,13.004
				 M823.038,36.804c9.162-7.683,22.652-13.252,35.723-13.252c9.907,0,18.012,2.331,20.961,3.305v78.341
				c-5.453-2.184-11.693-3.288-18.63-3.288c-17.009,0-33.188,6.518-38.036,8.658v-31.12"/>
		</g>
	</g>
</g>
</svg>
