<?xml version="1.0" encoding="utf-8"?>
<!-- Generator: Adobe Illustrator 16.0.0, SVG Export Plug-In . SVG Version: 6.00 Build 0)  -->
<!DOCTYPE svg PUBLIC "-//W3C//DTD SVG 1.1//EN" "http://www.w3.org/Graphics/SVG/1.1/DTD/svg11.dtd">
<svg version="1.1" id="Calque_1" xmlns="http://www.w3.org/2000/svg" xmlns:xlink="http://www.w3.org/1999/xlink" x="0px" y="0px"
	 width="118.068px" height="272.273px" viewBox="0 0 118.068 272.273" enable-background="new 0 0 118.068 272.273"
	 xml:space="preserve">
<g id="Image_et_réseaux">
	<g>
		<g>
			
				<line fill="none" stroke="#CF5947" stroke-width="2" stroke-linecap="round" stroke-linejoin="round" x1="60.439" y1="80.516" x2="60.439" y2="83.516"/>
			
				<line fill="none" stroke="#CF5947" stroke-width="2" stroke-linecap="round" stroke-linejoin="round" stroke-dasharray="5,5" x1="60.439" y1="87.516" x2="60.439" y2="133.516"/>
			
				<line fill="none" stroke="#CF5947" stroke-width="2" stroke-linecap="round" stroke-linejoin="round" x1="60.439" y1="136.516" x2="60.439" y2="138.516"/>
		</g>
	</g>
	<g>
		<g>
			
				<line fill="none" stroke="#CF5947" stroke-width="2" stroke-linecap="round" stroke-linejoin="round" x1="35.553" y1="179.674" x2="34.854" y2="182.074"/>
			
				<line fill="none" stroke="#CF5947" stroke-width="2" stroke-linecap="round" stroke-linejoin="round" stroke-dasharray="4.8182,4.8182" x1="33.505" y1="186.699" x2="20.699" y2="230.645"/>
			
				<line fill="none" stroke="#CF5947" stroke-width="2" stroke-linecap="round" stroke-linejoin="round" x1="20.025" y1="232.957" x2="19.326" y2="235.357"/>
		</g>
	</g>
	<g>
		<g>
			
				<line fill="none" stroke="#CF5947" stroke-width="2" stroke-linecap="round" stroke-linejoin="round" x1="80.111" y1="179.215" x2="80.657" y2="181.654"/>
			
				<line fill="none" stroke="#CF5947" stroke-width="2" stroke-linecap="round" stroke-linejoin="round" stroke-dasharray="4.8181,4.8181" x1="81.708" y1="186.355" x2="91.695" y2="231.025"/>
			
				<line fill="none" stroke="#CF5947" stroke-width="2" stroke-linecap="round" stroke-linejoin="round" x1="92.221" y1="233.377" x2="92.767" y2="235.816"/>
		</g>
	</g>
	<g>
		<rect x="48.484" y="73.668" fill="#EAE9EA" width="25.039" height="13.757"/>
		<path fill="#1D1D1B" d="M116.581,72.399c0,2.676-2.217,4.845-4.951,4.845H10.38c-2.736,0-4.953-2.169-4.953-4.845V7.253
			c0-2.676,2.217-4.846,4.953-4.846h101.25c2.734,0,4.951,2.169,4.951,4.846V72.399z"/>
		<path fill="#FFFFFF" d="M116.856,68.44v3.746c0,3.706-2.218,6.709-4.952,6.709H10.104c-2.735,0-4.953-3.004-4.953-6.709V68.44"/>
		<rect x="9.141" y="5.984" fill="#BEDFE4" width="103.727" height="58.604"/>
		<rect x="42.156" y="86.648" fill="#FFFFFF" width="37.693" height="2.654"/>
		<rect x="26.336" y="5.984" fill="#FFFFFF" width="67.134" height="58.604"/>
		<rect x="26.336" y="5.984" fill="#70A4AA" width="67.134" height="9.354"/>
		<rect x="29.088" y="18.916" fill="#151410" width="8.805" height="2.751"/>
		<rect x="42.156" y="18.916" fill="#151410" width="8.805" height="2.751"/>
		<rect x="55.502" y="18.916" fill="#151410" width="8.804" height="2.751"/>
		<rect x="69.12" y="18.916" fill="#151410" width="8.807" height="2.751"/>
		<rect x="82.188" y="18.916" fill="#151410" width="8.805" height="2.751"/>
		<rect x="37.755" y="25.657" fill="#90CBD4" width="44.296" height="27.514"/>
		<rect x="31.289" y="56.334" fill="#E7E6E7" width="57.504" height="1.375"/>
		<rect x="31.151" y="58.673" fill="#E7E6E7" width="57.503" height="1.375"/>
		<rect x="31.15" y="61.148" fill="#E7E6E7" width="27.652" height="1.376"/>
		<circle fill="#151410" cx="87.691" cy="32.26" r="1.101"/>
		<circle fill="#151410" cx="87.691" cy="39.413" r="1.101"/>
		<circle fill="#151410" cx="87.691" cy="46.842" r="1.101"/>
	</g>
	<g>
		<rect x="31.297" y="166.938" fill="#FFFFFF" width="59.414" height="17.444"/>
		<rect x="59.006" y="147.338" fill="#FFFFFF" width="2.549" height="23.576"/>
		<circle fill="none" stroke="#FFFFFF" stroke-width="3" stroke-miterlimit="10" cx="60.279" cy="143.09" r="4.249"/>
		<rect x="38.898" y="169.3" fill="#E7E6E7" width="49.968" height="3.231"/>
		<rect x="32.664" y="169.3" fill="#90CBD4" width="3.479" height="3.231"/>
		<rect x="38.898" y="175.66" fill="#BEDFE4" width="14.175" height="3.957"/>
		<rect x="55.213" y="175.66" fill="#BEDFE4" width="11.035" height="3.957"/>
		<rect x="68.976" y="175.66" fill="#BEDFE4" width="10.446" height="3.957"/>
		<rect x="81.906" y="175.66" fill="#151410" width="1.049" height="3.957"/>
		<rect x="83.742" y="175.66" fill="#151410" width="1.049" height="3.957"/>
		<path fill="none" stroke="#CF5947" stroke-width="4" stroke-linecap="round" stroke-linejoin="round" stroke-miterlimit="10" d="
			M75.341,122.117c6.511,3.581,10.872,10.145,10.872,17.646c0,7.795-4.707,14.573-11.642,18.052"/>
		<path fill="none" stroke="#CF5947" stroke-width="4" stroke-linecap="round" stroke-linejoin="round" stroke-miterlimit="10" d="
			M46.27,122.117c-6.51,3.581-10.871,10.145-10.871,17.646c0,7.795,4.706,14.573,11.641,18.052"/>
		<path fill="none" stroke="#CF5947" stroke-width="3" stroke-linecap="round" stroke-linejoin="round" stroke-miterlimit="10" d="
			M48.64,129.191c-3.932,2.162-6.562,6.123-6.562,10.651c0,4.705,2.841,8.798,7.026,10.896"/>
		<path fill="none" stroke="#CF5947" stroke-width="3" stroke-linecap="round" stroke-linejoin="round" stroke-miterlimit="10" d="
			M72,129.191c3.931,2.162,6.562,6.123,6.562,10.651c0,4.705-2.841,8.798-7.026,10.896"/>
	</g>
	<g>
		<rect x="2.123" y="219.619" fill="#FFFFFF" width="45.033" height="39.313"/>
		<rect x="2.123" y="219.619" fill="#70A4AA" width="45.033" height="6.275"/>
		<rect x="3.968" y="228.293" fill="#151410" width="5.905" height="1.847"/>
		<rect x="12.734" y="228.293" fill="#151410" width="5.906" height="1.847"/>
		<rect x="21.686" y="228.293" fill="#151410" width="5.907" height="1.847"/>
		<rect x="30.822" y="228.293" fill="#151410" width="5.906" height="1.847"/>
		<rect x="39.59" y="228.293" fill="#151410" width="5.905" height="1.847"/>
		<rect x="9.781" y="232.815" fill="#90CBD4" width="29.715" height="18.458"/>
		<rect x="5.445" y="253.396" fill="#E7E6E7" width="38.574" height="0.923"/>
		<rect x="5.352" y="254.965" fill="#E7E6E7" width="38.576" height="0.922"/>
		<rect x="5.352" y="256.625" fill="#E7E6E7" width="18.55" height="0.923"/>
		<circle fill="#151410" cx="43.28" cy="237.246" r="0.739"/>
		<circle fill="#151410" cx="43.28" cy="242.044" r="0.739"/>
		<circle fill="#151410" cx="43.28" cy="247.028" r="0.739"/>
	</g>
	<g>
		<path fill="#FFFFFF" d="M111.869,265.486c0,2.939-2.385,5.324-5.323,5.324H85.692c-2.94,0-5.323-2.385-5.323-5.324v-52.353
			c0-2.94,2.383-5.324,5.323-5.324h20.854c2.938,0,5.323,2.384,5.323,5.324V265.486z"/>
		<rect x="81.922" y="216.793" fill="#BEDFE4" width="28.395" height="45.033"/>
		<path fill="#1D1D1B" d="M100.777,213.576c0,0.246-0.199,0.444-0.443,0.444h-5.103c-0.245,0-0.444-0.198-0.444-0.444l0,0
			c0-0.244,0.199-0.442,0.444-0.442h5.103C100.578,213.134,100.777,213.332,100.777,213.576L100.777,213.576z"/>
		<circle fill="#1D1D1B" cx="92.569" cy="213.577" r="0.444"/>
		<rect x="81.922" y="216.793" fill="#70A4AA" width="28.395" height="7.1"/>
		<rect x="83.695" y="223.892" fill="#FFFFFF" width="24.735" height="31.058"/>
		<rect x="85.249" y="228.106" fill="#90CBD4" width="21.519" height="13.2"/>
		<rect x="85.249" y="225.113" fill="#151410" width="4.216" height="1.773"/>
		<rect x="90.906" y="225.113" fill="#151410" width="4.215" height="1.773"/>
		<rect x="97.006" y="225.113" fill="#151410" width="4.215" height="1.773"/>
		<rect x="102.552" y="225.113" fill="#151410" width="4.215" height="1.773"/>
		<rect x="85.249" y="243.414" fill="#E9E8E8" width="21.519" height="0.664"/>
		<rect x="85.249" y="244.744" fill="#E9E8E8" width="21.519" height="0.666"/>
		<rect x="85.249" y="246.076" fill="#E9E8E8" width="21.519" height="0.666"/>
		<rect x="85.305" y="247.379" fill="#E9E8E8" width="13.643" height="0.582"/>
	</g>
</g>
</svg>
