<?xml version="1.0" encoding="utf-8"?>
<!-- Generator: Adobe Illustrator 16.0.0, SVG Export Plug-In . SVG Version: 6.00 Build 0)  -->
<!DOCTYPE svg PUBLIC "-//W3C//DTD SVG 1.1//EN" "http://www.w3.org/Graphics/SVG/1.1/DTD/svg11.dtd">
<svg version="1.1" id="Calque_1" xmlns="http://www.w3.org/2000/svg" xmlns:xlink="http://www.w3.org/1999/xlink" x="0px" y="0px"
	 width="400px" height="400px" viewBox="0 0 400 400" enable-background="new 0 0 400 400" xml:space="preserve">
<path fill="#FFFFFF" d="M377.365,359.729l-0.098,0.005l-0.236,0.025l-0.03,0.188l0.089,0.03l0.085,0.037l0.138,0.093l0.022-0.067
	l0.039-0.025l0.098-0.037l0.021-0.098l-0.135,0.039L377.365,359.729z M377.107,360.731l-0.112-0.045l-0.07,0.188l0.241,0.213
	l0.014-0.138l-0.072-0.104V360.731z M322.296,359.696l-0.101-0.669l-0.469-1.318l-0.112-0.699l0.005-0.638l0.067-0.533l0.112-0.469
	l0.154-0.449l-0.319-0.713l-0.085-1.024l0.065-1.974l-0.11-0.651l-0.241-0.592l-0.727-1.087l0.387,0.888l0.104,0.227l0.067,0.494
	l-0.674-0.303l-0.196-0.157l-0.16-0.281l-0.067-0.267l-0.09-0.222l-0.199-0.165l0.12-0.272l0.009-0.183l-0.062-0.191l-0.067-0.306
	l-0.054-0.006l-0.115-0.044l-0.112-0.068l-0.067-0.092l0.015-0.16l0.067-0.112l0.078-0.085l0.028-0.09l-0.022-0.984l0.054-0.48
	l-0.031-0.418l0.814-3.189l0.045-1.03l-0.472-3.118l0.112-0.641l-0.287-0.34l-0.123-0.393l0.048-0.371l0.202-0.274v-0.259
	l-0.483-0.274l-0.228-0.196l-0.336-0.464l-0.447,0.19l-1.038,0.006l-0.418,0.268l-0.121,0.448l0.045,0.599l0.16,0.556l0.267,0.272
	l-0.093,0.289l-0.022,0.137l0.022,0.104l0.093,0.169l-0.595,0.62l-0.169,0.235l-0.096,0.334v0.298l0.163,0.317v0.303l-0.682,0.949
	l0.403,0.521l0.343,0.564l0.144,0.598l-0.208,0.654l0.244,0.744l-0.37,0.994l-0.901,1.541h-0.169l-0.235-0.66l-0.126-0.275
	l-0.154-0.227l-0.175-0.178l-0.53-0.286l-1.297-0.37l-0.235,0.022l-0.268-0.084l-0.598,0.008l-0.595,0.099l-0.272,0.205
	l-1.355,1.519l-0.082,0.659l-0.794,0.41l-2.815,0.606l-1.601,0.828l-0.94,0.054l0.191,0.235l-0.141,0.494l-0.219,0.455l-0.304,0.331
	l-0.388,0.132l-0.294-0.124l-0.228-0.244l-0.27-0.117l-0.413,0.232l-0.064-0.295l-0.028-0.062l-0.067-0.005l-0.199-0.099v0.25
	l0.177,0.331l-0.137,0.746l0.143,0.317l-0.477,0.121l-0.425,0.208l-0.328,0.387l-0.205,0.854l-0.062,0.152l0.067,0.101l0.306,0.039
	l0.121,0.121l-0.106,0.272l-0.281,0.424l0.009,0.412l-0.054,0.34l-0.213,0.222l-0.812,0.126l-0.115,0.109l-0.05,0.152l-0.124,0.16
	l-0.09,0.232l-0.031,0.281l-0.098,0.151l-0.312-0.183l-0.169,0.236l-0.228,0.143h-0.241l-0.222-0.168l-0.075,0.328l0.017,0.387
	l0.09,0.365l0.16,0.289l-0.191,0.25l0.997-0.41l0.53-0.047l0.553,0.457l-0.749,0.455l-0.124,0.121l0.031,0.244l0.106,0.151
	l0.144,0.009l0.351-0.304l0.112,0.126l0.067,0.228l0.062,0.132l0.935,0.463l0.054,0.054l0.37,0.295l-0.022,0.267l-0.067,0.037
	l-0.106-0.031l-0.146,0.067l-0.264,0.196l-0.343,0.154l-1.011,0.197l-0.241,0.137l-0.188,0.144l-0.19,0.099l-0.66-0.031l-0.267,0.07
	l-0.098,0.316l0.174,0.13l0.342,0.114l0.205,0.197l-0.205,0.379l0.295,0.146l0.102,0.331l-0.102,0.329l-0.295,0.123v0.228h0.699
	v0.247l-0.396,0.284l-0.205,0.111l-0.258,0.057l0.244-0.033l0.219,0.021l0.205,0.093l0.19,0.166l-0.07,0.124l-0.12,0.316
	l0.517-0.006l0.569,0.118l0.461,0.275l0.19,0.433l0.146,0.129l0.695-0.197l0.268,0.068l0.174,0.295l0.435,0.957l0.394,0.297
	l0.151,0.233l-0.045,0.418l-0.138,0.009l-0.668,0.356l-0.129,0.101l-0.548,0.157l-0.499,0.38l-0.214,0.387l0.317,0.219l-0.346,0.602
	l-0.496,0.199l-1.235,0.126l0.713,0.834l0.106,0.463l-0.289,0.564l0.174,0.438l0.396-0.264l0.44-0.106l1.038-0.067l0.548-0.169
	l0.856-0.472l0.499-0.05l0.267,0.066l0.16,0.113l0.121,0.205l0.146,0.306l0.281,0.21l0.062,0.018l-0.054,0.219l-0.222,0.283
	l-0.067,0.163l-0.045,0.009l-0.306,0.477l0.093-0.031l0.099,0.191l0.09,0.228l0.069,0.067l-0.204,0.193l-0.828,0.272l0.289,0.045
	l0.258,0.129l0.188,0.214l0.123,0.325l-0.819,0.485l-0.508,0.175h-0.579v0.249l0.272,0.191l0.054,0.312l-0.112,0.34l-0.214,0.289
	l-0.325,0.183l-0.705,0.106l-0.328,0.165l0.32,0.085l0.258,0.112l0.264,0.076l0.357-0.023l-0.121,0.32l-0.062,0.121l0.592-0.045
	l1.033-0.401l0.623,0.005l-0.219,0.68l0.314,0.331l0.595,0.106l0.606,0.018l1.581,0.446l0.589,0.03l-0.303,0.365l-0.349,0.193
	l-0.28,0.236l-0.115,0.463l-0.213,0.208l-1.348,0.614l-0.436-0.213l-0.25,0.463l-0.165,0.691l-0.186,0.432l0.382,0.144l0.084,0.228
	l-0.115,0.653l0.138,0.135l0.32,0.146l0.346,0.098l0.244-0.03l0.174,0.115l0.32,0.111v0.214l-0.343,0.228l0.219,0.151l0.196,0.031
	h0.208l0.235,0.062l0.144,0.135l0.045,0.154l0.067,0.118l0.578,0.132l0.253,0.188l0.202,0.228l0.275,0.191l0.387-0.085l0.615,0.094
	l0.634,0.195l0.267,0.236l0.175,0.241l0.146-0.106l0.099-0.059l0.272-0.076l-0.062,0.106l-0.022,0.045l-0.027,0.022l-0.064,0.067
	l0.177,0.228l0.738-0.584l0.294-0.098v0.213l-0.334,0.469l0.354,0.295l0.617,0.261l0.401,0.362l-0.228,0.067l-0.12,0.115
	l-0.275,0.858l0.646,0.281l0.783,0.121l0.404,0.174l0.62,0.569l0.32,0.11l0.415-0.225l0.175-0.278l0.219-0.497l0.199-0.575
	l0.09-0.494l-0.312,0.193l-0.394,0.371l-0.294,0.118v-0.203l0.241-0.204l0.075-0.259l-0.075-0.258l-0.241-0.191v-0.25l0.438-0.059
	l0.693-0.455l0.388-0.177l-0.154-0.241l0.249-0.228l0.115-0.298l-0.075-0.258l-0.289-0.112l0.098-0.235l0.031-0.236l-0.031-0.228
	l-0.098-0.235l0.432-0.082l0.259-0.328l0.19-0.342l0.233-0.166l0.443-0.099l0.362-0.274l0.244-0.398l0.084-0.473l-0.228-0.311
	l-0.511,0.092l-0.825,0.34l-0.337-0.228l0.146-0.312l0.242-0.334l-0.051-0.289l0.295-0.051l0.362,0.02l0.382,0.093l0.334,0.166
	l-0.107-0.505l0.079-0.191l0.196-0.017l0.261,0.022l0.23-0.166l0.129-0.379l0.076-0.592h-0.351l0.132-0.326l0.228-0.297l0.252-0.22
	l0.18-0.075l0.082-0.169l0.033-2.456l-0.219-2.302l0.219-2.339l0.009-1.198l0.135-0.312l0.379-0.379l1.731-2.504l0.388-0.828
	l0.264-0.433l0.683-0.638l0.183-0.312l0.053-0.267l0.054-0.59l0.062-0.274l-0.186-0.794L322.296,359.696z M98.182,92.7l0.078-0.025
	l0.048,0.106l-0.059-0.249l-0.073-0.061l-0.112-0.1l-0.048-0.057l-0.022,0.217l0.07,0.151L98.182,92.7z M307.526,302.822
	l-0.416,0.082l-0.247,0.238l-0.196,0.376l-0.514,0.193l-0.076,0.265l0.028,0.334l0.163,0.03l0.225-0.196l0.454-0.16l0.388-0.651
	l0.214-0.208l0.387-0.066l0.022-0.183l-0.129-0.146L307.526,302.822z M86.411,172.951l-0.982-0.412l-0.494-0.084l-0.461,0.078
	l-0.194,0.326l0.29,0.676l2.015,0.02l0.562,0.228l-0.27-0.469L86.411,172.951z M90.271,164.252l-0.277-0.271l-0.853-0.455
	l-0.26-0.295l-0.03-0.533l0.097-0.486l-0.066-0.418l-0.516-0.325l-0.454-0.079l-1.436,0.079l0.427,0.553l0.391,1.412l0.401,0.569
	l0.679-0.356l0.635,0.446l0.536,0.837l0.367,0.825l0.417,0.244l0.122-0.485l-0.059-0.744L90.271,164.252z M17.26,107.71
	l-0.049-0.104l-0.051-0.084l-0.474-0.245l-0.573,0.16l-1.032,0.599v0.261l0.64-0.199l0.242,0.084l0.148,0.371l-0.084,0.008
	l-0.178-0.022l-0.081,0.015v0.258l0.44-0.098l1.291-0.677v-0.289l-0.159,0.023L17.26,107.71z M107.153,190.511l0.161-0.211
	l-0.007-0.214l-0.126-0.195l-0.186-0.144l-0.451-0.102l-1.452,0.374v0.222l0.275,0.21l1.021,1.162l0.388,0.157l1.406-0.264
	l2.437,1.572l1.141,0.219l0.115,0.045l0.119,0.138l0.267-0.144l0.188-0.062l0.23-0.017l-0.289-0.677l-0.48-0.559l-0.587-0.379
	l-2.529-0.41l-0.421-0.205v-0.266h0.359v-0.253l-0.613,0.154l-0.723,0.325l-0.663,0.018l-0.44-0.767l0.257,0.02L107.153,190.511z
	 M301.126,303.872l-0.202,0.188l-0.154,0.062l-0.067-0.017l-0.085,0.022l-0.081,0.114l-0.214,0.118l-0.707-0.028l-0.258,0.13
	l0.03,0.19l0.609,0.32l0.314,0.104l0.346-0.104l0.348-0.177l0.289-0.379l0.017-0.485l-0.101-0.186L301.126,303.872z M66.166,150.615
	l-0.299-0.16l-0.861-0.879l-0.069-0.109l-0.626-0.491l-1.132-0.595l-0.319-0.076l-0.22-0.211h-0.168l-0.104,0.236l-0.212,0.205
	l0.15,0.541l0.271,0.599l0.193,0.606l-0.083,0.584l0.44,0.312l1.3,0.384l1.968,0.186l0.67-0.196l0.104-0.685l-0.251-0.298
	L66.166,150.615z M113.2,199.432l-0.352-0.365l-0.342,0.037l-0.317,0.115l-0.286-0.144l-0.593-0.677l-0.787-0.637l-0.855-0.449
	l-0.778-0.107l0.552,1.255l0.284,0.843l-0.058,0.37l-0.112,0.329l0.419,0.69l0.547,0.651l0.528,0.376l1.475,1.673l0.276,0.508
	l0.208,0.469l0.362,1.255l0.445,0.202l0.366-0.566l0.261-0.949l0.205-1.524l-0.042-0.304l-0.188-0.319l-0.722-0.433l-0.264-0.258
	l0.125-0.32v-0.241l-0.279-0.275l-0.017-0.348l0.039-0.41L113.2,199.432z M347.812,88.473l-3.986-2.128l-0.454-0.054l-1.432,0.152
	l-2.098-0.606l-0.274,0.077l-0.59,0.318l-0.312,0.084l-0.241-0.039l-0.534-0.19l-0.28-0.044l-0.312,0.067l-0.298,0.122l-0.3,0.074
	l-0.349-0.074l-0.235-0.196l-0.244-0.503l-0.183-0.225l-0.559-0.291l-1.104-0.197l-0.545-0.341l-0.334-0.428l-0.569-0.914
	l-0.352-0.375l0.045-0.128l0.062-0.084l0.19-0.119l-0.168-0.556l-0.455-0.167l-1.095-0.074l-0.104-0.429l-0.486-0.043l-0.592,0.18
	l-0.419,0.235l-0.12,0.191l-0.183,0.561l-0.126,0.214l-0.194,0.083l-0.505,0.068l-0.23,0.076l-0.157,0.188l-0.267,0.551
	l-0.143,0.151l-0.16-0.023l-0.677-0.319l-2.17-0.025l-0.396-0.127l-0.394-0.212l-0.966-0.702l-0.135-0.013l-0.227,0.228l0.014,0.213
	l0.084,0.197l-0.039,0.197l-0.774,0.486l-0.554-0.438l-0.289-1.05l0.009-1.355l-0.539-0.024l-1.572-0.896l-0.28-0.036l-0.73,0.066
	l-1.053-0.235l-0.252,0.063l-0.144,0.529l0.19,0.621l0.09,0.639l-0.432,0.578l-0.317,0.074l-0.977-0.365l-1.126-0.015l-0.298-0.122
	l-0.317-0.537l0.067-0.473l0.133-0.485l-0.16-0.607h-0.109l-0.335,0.22l-0.111,0.018l-0.067-0.138l-0.048-0.304l-0.028-0.084
	l-0.084-0.168l-0.199-0.705l-0.104-0.112l-0.351-0.128l-0.135-0.1l-0.025-0.159l0.048-0.388l-0.039-0.167l-1.668-1.607l-0.424-0.519
	l-0.163-0.445l0.146-0.35l0.44-0.023l0.115-0.313l-0.084-0.228l-1.224-1.294l-0.175-0.261l0.048-0.015L308.307,72l-0.067-0.316
	l-0.149-0.32l-0.435-0.416l-2.308-1.153l-0.281-0.048l-0.207,0.078l-0.475,0.326l-0.267,0.051l-0.214-0.02l-0.508-0.053
	l-0.668-0.366l-1.243-0.935l-0.691-0.275l-0.713-0.071l-1.442,0.155l0.16,0.359l-0.708,0.068l-0.183,0.069l-0.126,0.233v0.253
	l-0.062,0.204l-0.304,0.113l-0.244,0.373l-0.373,0.138l-2.139,0.126l-0.438,0.15l-0.34-1.104l-0.482-0.48l-1.592-0.379l-0.637-0.295
	l-0.436-0.411l-0.795-1.054l-0.267-0.067l-0.022-0.009l-0.553-0.334l-0.275-0.045l-0.264,0.144l-0.328,0.432l-0.281,0.121
	l-0.027,0.014l-0.551-0.096l-0.539-0.266l-0.559-0.13h-0.011l-0.618,0.319l-0.306,0.409v0.01l-0.054,0.272l-0.022,0.035
	l-0.062,0.116l-0.168,0.021l-0.202,0.031l-0.219-0.06l-0.789-0.364l-0.326,0.144l-0.146,0.069l-0.304,0.235l-0.325,0.259
	l-0.503,0.291l-0.151,0.084l-0.544-0.14l-0.127-0.267l-0.028-0.076l0.025-0.344l0.085-0.363v-0.401l-0.102-0.356l-1.213-2.194
	l-0.472-0.418l-0.783-0.288l-0.12-0.072l-0.157-0.102l-0.151-0.022h-0.012l-0.09,0.097l-0.106,0.215l-0.138,0.196l-0.042,0.015
	l-0.132,0.046l-0.416-0.084l-0.132-0.153v-0.003l-0.027-0.177l-0.025-0.174l0.078-0.547v-0.009L277.473,63l0.171-0.111l0.039-0.057
	l0.076-0.084l-0.174-0.58l-0.486-0.594l-0.53-0.526l-0.303,0.01l-0.236,0.006l-0.404,0.115l-0.735,0.205l-0.575-0.175l-0.463-0.342
	l-0.124-0.112l-0.25-0.244l-0.62-0.901l-0.449-0.654l-0.303-0.286l-0.202-0.064l-0.693-0.196l-0.5-0.289l-0.935-0.927l-0.41-0.219
	l-0.048-0.031l-0.255,0.016l-0.272,0.016l-0.494,0.174l-0.598,0.208l-0.422,0.067l-0.143,0.021l-0.401-0.052l-0.259-0.036v-0.012
	l-0.228-0.286l0.006-0.674v-0.783l-0.059-0.219v-0.009l-0.25-0.409l-0.054-0.196l0.042-0.238l0.23-0.258l0.017-0.043l0.067-0.16
	l0.028-0.124l0.109-0.356l0.06-0.148l0.07-0.174l0.059-0.336l-0.022-0.234l-0.025-0.275l-0.376-0.707l-0.012-0.006v-0.006
	l-0.693-0.283l-0.494-0.203h-0.008l-0.334-0.546l0.115-0.624l0.688-1.723l0.272-0.691l0.011-0.075l0.015-0.343l-0.037-0.322
	l0.022-0.253l0.006-0.1l0.132-0.296l0.34-0.733v-0.011l0.16-0.037l0.258,0.288l0.006,0.007l0.039-0.4l0.022-0.29l0.135-0.803
	l0.009-0.183l0.022-0.508l-0.233-0.304l-0.783,0.165l-0.289-0.12l-0.106-0.554l-0.006-0.029l-0.677,0.309l-2.687,2.717l-0.146,0.312
	l-0.067,0.388l0.048,0.167l0.014,0.069l0.037,0.084l0.053,0.102l0.017,0.133l0.015,0.143l-0.067,0.412l-0.132,0.833l-0.172,0.623
	l-0.036,0.067l-0.191,0.379l-0.19,0.121l-0.084,0.055l-1.056,0.168l-0.873,0.439l-2.633,1.3l-0.741,0.135l-3.318-0.909l-0.648-0.183
	l-0.727,0.104l-1.196,0.174l-0.272-0.074l-0.067-0.021l-1.409-0.761h0.015l0.185,0.014l-0.02-0.356l-0.011-0.211l-0.067-0.303
	l-0.07-0.297l-0.115-0.045h-0.006l0.106-0.463l0.109-0.251l0.012-0.03l0.003-0.006l0.186-0.23l0.277-0.257l0.183-0.175l0.407-0.289
	l0.174-0.121l0.337-0.173l0.27-0.13l0.003-0.185v-0.071l-0.171-0.316l-0.09-0.211l-0.062-0.152l-0.424-1.692l-0.252-0.128
	l-0.268,0.043l-0.499,0.229l-0.157-0.076l-0.202-0.104l0.051-0.584l0.008-0.123l0.306-0.987l0.18-0.583l0.133-0.716l0.106-0.286
	l0.008-0.031l0.267-0.387l0.599-0.461l0.036-0.047l0.208-0.234l0.033-0.204l0.028-0.208l-0.154-0.258l-0.314-0.272l-0.211-0.135
	l-0.123-0.077l-0.228-0.083l-0.312,0.135h-0.006l-0.011,0.253l0.017,0.143l0.017,0.13h-0.003l-0.066,0.068l-0.118,0.112
	l-0.309-0.145l-0.155-0.074l-0.524-1.133l-0.16-0.34l-0.003-0.008l-0.52-0.464l-0.345-0.199l-0.191-0.112l-0.833-0.924l-0.022-0.01
	l-0.469-0.227l-0.233,0.029l-0.298,0.03l-1.061,0.449l-0.542,0.228h-0.567l-0.106-0.048l-0.343-0.165l-0.244-0.164l-0.19-0.14
	l-0.517-0.264l-1.047-0.124l-1.098,0.076l-0.146,0.063l-0.193,0.068l-0.205,0.234l-0.452,0.764l-0.081,0.246l-0.025,0.084
	l-0.025,0.045l-0.045,0.074l-0.112,0.077l-0.042-0.039l-0.039,0.022l-0.099,0.258l-0.884-0.836l-0.22-1.601l-0.005-1.836
	l-0.211-1.527l-0.409-0.742l-0.5-0.476l-0.551-0.275l-0.569-0.122l-1.527-0.007h-0.098l-0.31-0.233h-0.005l0.225-0.404l0.022-0.036
	l0.039-0.319l-0.166-0.205l-0.106-0.029l-0.256-0.079l-0.244,0.016l-0.112,0.009l-0.21,0.143l-0.048,0.032l-0.09,0.089l-0.157,0.161
	l-0.093,0.068l-0.253,0.188l-0.861,0.32l-0.239,0.084l-0.232,0.031l-0.379,0.045l-0.438-0.124l-1.103-0.575l-0.331-0.256
	l-0.343-0.452l-0.051-0.059l-0.129-0.448l-0.042-1.26l-0.663-2.224l-0.205-1.146l0.183-0.344l0.169-0.316l-0.112-0.38l-0.171-0.569
	l-0.183-0.326l-0.022-0.039l-0.332-0.106V21.19l-0.356-0.046l-0.199-0.234l-0.312-0.753l-0.277-0.511l-0.121-0.207l-0.367-0.663
	l-0.427-0.403l-0.52-0.159l-0.135-0.035l-1.21,0.376l-0.77,0.246l-0.258,0.071l-1.081,0.344l-0.309,0.196l-0.272,0.167l-0.222,0.244
	l-0.233,0.25l-0.316,0.548l-0.441,0.766l-0.334,0.259l-0.109-0.031l-0.232-0.046l-0.051-0.008l-0.079-0.036l-0.036-0.025
	l-1.758-0.803l-0.255-0.112l-0.138-0.115l-0.325-0.271l-0.051-0.099l-0.084-0.153l-0.337-0.799l-0.144-0.262l-0.104-0.1
	l-0.834-0.799l-0.166-0.297l-0.075-0.271h-0.006l-0.123-0.229l-0.332-0.174l-0.062-0.011l-0.177-0.012l-0.466,0.061l-0.208-0.01
	l-0.367-0.075l-0.152-0.068l-0.033-0.016l-0.135-0.229l-0.099-0.233l-0.115-0.266l-0.062-0.068l-0.053-0.062l-0.079-0.036
	l-0.228-0.115l-0.062-0.105l-0.017-0.031v-0.007l0.011-0.084l0.017-0.093l0.194-0.446l0.025-0.26l-0.242-0.857l-0.252-0.886
	l0.143-0.363l0.217-0.217l0.367-0.361l0.087-0.145l0.06-0.1l-0.079-0.789l-0.398-0.6h-0.003l-0.896-0.995l-0.25-0.773l-0.045-0.311
	l-0.207-1.449l-0.043-0.105l-0.336-0.799l-0.371,0.266l-1.024,0.488l-2.052,0.537l-1.508-0.187l-0.211,0.037l-0.264,0.143
	l-4.317,1.409l-4.036,0.511l-0.865,0.508l-0.446-0.091l-4.822,2.112l-0.775,0.728l-0.732,1.016l-0.418,0.431l-0.48,0.185
	l-0.521,0.048l-0.217,0.087l-0.614,0.495l0.008,0.197l0.057,0.554l0.407,1.466l0.159,0.909l-0.137,0.753l-0.284,0.583l-0.533,1.572
	l-0.126,0.704l0.014,0.82l0.262,1.692l0.106,1.851l0.138,0.55l0.682,1.053l-0.783,0.593l-0.129,1.607l-0.02,1.852l-0.455,1.33v0.271
	l1.387,1.104v0.241l-0.963-0.205l-0.52,1.056l-0.213,1.533l-0.039,1.26l0.244,0.326l1.075,0.521l0.244,0.503l0.16,0.439l0.396,0.312
	l0.502,0.166l0.489,0.009v0.295h-0.517l0.138,0.294l0.132,0.177l0.174,0.061l0.258-0.021v0.273l-0.207,0.204l-0.247,0.022
	l-2.493-1.218l-0.867,0.116l-0.854,1.16l-0.564,2.072l-0.216,0.336l-0.298,0.251l-1.328,1.637l-3.281,2.651l-1.002,1.114
	l-0.606,0.215l-0.614,0.483l-10.359,3.356l-2.164-0.03l-1.968,0.72l-0.988,0.675l-0.87,0.267l-3.152,1.888l-0.253,0.367
	l-3.287,1.523l-0.255,0.244l-0.271,0.006l-1.259,1.02l-0.376,0.444l-1.007,3.415l-1.292,2.369l-0.079,0.289l-0.025,0.418
	l0.079,0.325l0.356,0.245l0.077,0.236l0.215,0.37l0.502,0.304l0.577,0.189l0.442,0.03h0.514l1.802,0.615l2.08,0.287l2.077-0.303
	l1.786-1.123l-0.417,0.575l-0.481,0.436l-1.159,0.59l-6.263,1.429l-1.675,1.204l-0.6,0.951l-0.225,0.183l-0.575,0.151l-0.688,0.612
	l-1.177,0.555l-4.031,0.964l-0.64,0.578l-2.358-1.427l-1.262-0.3l-0.764-0.499l-0.441-0.189h-1.719l-1.083-0.476l-0.615-0.146
	l-0.918,0.51l-0.616-0.061l-1.077-0.327l-4.313-0.26l-2.979-1.146l-3.315-0.174l-0.435,0.205l-0.424,0.463l-0.186,0.531l0.264,0.38
	v0.263l-0.491,0.141l-0.267-0.16l-0.193-0.272l-0.268-0.23l-0.283,0.04l-0.271,0.176l-0.206,0.028l-0.082-0.388l0.052-0.12
	l0.111-0.196l0.115-0.298l0.049-0.424l-0.087-0.842l-0.243-0.587l-1.917-2.426l-0.376-1.064l-0.436-0.684l-0.315-0.764l0.125-0.914
	l0.16-0.198l0.22-0.074l0.558-0.016l0.101-0.168l0.063-0.359l0.109-0.368l0.639-0.454l-0.109-0.674l-0.556-1.177l-0.119-0.648
	l-0.1-0.271l-0.21-0.113l-3.021-0.553l-0.459,0.041l-1.159,0.366l-0.367,0.283l-0.646,0.879l-0.395,0.37l-0.426,0.199l-0.302-0.011
	l-0.521-0.202l-0.295-0.045l-0.272,0.083l-0.345,0.38l-0.233,0.085l-0.183-0.085l-0.06-0.188l-0.012-0.192l-0.01-0.083l-0.403,0.022
	l-1.878-0.646l-1.669-0.253l-0.548-0.189l-0.125-0.013l-0.278,0.053l-0.115-0.04l-0.109-0.181l-0.094-0.469l-0.124-0.166
	l-0.248-0.109l-0.706,0.109l-0.294-0.084l-0.499-0.365l-0.239-0.084l-0.676,0.092l-0.109,0.296l0.05,0.573l-0.199,0.922l1.104,0.47
	l0.812,0.157l0.225,0.268l0.14,0.381l0.202,0.432l0.186,0.548l0.009,0.644l-0.115,1.212l-0.16,0.388l-0.71,0.654l-0.16,0.539
	l0.132,0.229l0.652,0.795l0.246,0.418l0.093,0.296l0.014,0.204l0.036,0.184l0.368,0.675l0.104,0.242l0.073,0.268l0.019,0.555
	l-0.097,1.311l0.078,0.5l0.241,0.275l0.298-0.031l0.331-0.151l0.349-0.093l-0.076,0.152l-0.045,0.113l-0.067,0.268l0.497,0.298
	l0.565,0.62l0.465,0.295l0.205-0.667h0.19l0.327,0.789v0.244h-0.518l0.193,0.6l0.309,0.427l0.719,0.566l-0.112,0.061l-0.067,0.052
	l-0.166,0.177l0.374,0.455l0.415,1.409l0.401,0.472l0.198-0.73l0.537,0.018l0.651,0.32l0.534,0.158v0.234l-0.91-0.264l-0.456,0.029
	l-0.196,0.375l0.039,0.688l0.109,0.751l0.167,0.719l0.217,0.617l0.123-0.19l0.064-0.056l0.311,0.246l-0.491,0.34l-0.173,0.236
	l-0.18,0.491l-0.121,0.497l-0.023,0.424l0.134,0.286l0.356,0.079l-0.111,0.387l-0.058,0.401l-0.021,0.918l0.082,0.327l0.176,0.378
	l0.177,0.222l0.081-0.153l0.196-0.591l0.476-0.275h0.566l0.479,0.236v0.235l-0.611-0.294l-0.337,0.186l-0.163,0.572l-0.273,2.217
	l0.104,0.22l0.298,0.075l0.128,0.214l-0.021,0.339l-0.137,0.436l-0.223-0.32l-0.165,0.388l-0.205,1.83l-0.167,0.438l-0.267,0.341
	l-0.35,0.167v0.282l0.606,0.158l0.306,0.593l0.106,0.902l0.015,1.057l0.21,0.902l0.938,0.833l0.208,0.896l0.132,0.235l0.319,0.208
	l0.862,0.247l0.135,0.151l0.085,0.215l0.03,0.242l0.069,0.176l0.136-0.062l0.121-0.145v-0.093l0.967,0.093l0.561,0.29l0.398,0.658
	l-0.924-0.349l-2.703,0.606l-1.992-0.258l-0.402,0.094l-1.21,0.659l-1.989,0.309l-1.838-0.03l-1.065-0.293l-0.571-0.645
	l-0.009-0.891l0.625-1.018l-0.18-0.272l-0.082-0.197l0.006-0.167l0.07-0.166l-2.561,0.523l0.157,0.279h-0.947l-0.226,0.125
	l-0.045,0.262v0.268l-0.09,0.119l-0.382,0.115l-0.294,0.283l-0.188,0.34l-0.079,0.303l0.24,0.464l0.469,1.131l0.233,0.222
	l0.289,0.016l0.263,0.089l0.227,0.228l0.185,0.441l-0.304-0.229l-0.107-0.112l-0.105-0.176h-0.169l0.093,0.606l0.369,0.677
	l-0.139,0.297l0.707,0.492l-0.786,0.51l-0.244,0.263l0.099-0.832l-0.154-0.51l-0.648-0.985l0.078-0.146l0.107-0.372l-0.313-0.115
	l-0.221-0.272l-0.125-0.379l-0.042-0.409l-0.531-0.986l-0.064-0.165l-1.202,0.12l-1.123,0.393l0.204,0.549l0.136,0.255l0.176,0.237
	l-0.318-0.34l-0.31-0.032l-0.294,0.22l-0.281,0.435l0.225,0.196l0.104,0.039v0.256l-0.376,0.215l-0.225-0.215l-0.135-0.478
	l-0.109-0.563l0.015,0.471l-0.09,0.388l-0.18,0.289l-0.275,0.153l-0.048-0.402l-0.093-0.428l-0.168-0.331l-0.284-0.14l-0.087-0.197
	l-0.136-0.887l-0.119-0.202l-0.576,0.278l-0.508,0.533l-0.472,0.322L85.6,101.8l0.7-0.773l0.13-0.215l0.091-0.22l0.112-0.198
	l0.186-0.153v-0.277l-0.332,0.053L86.229,99.9l-0.178-0.28l-0.094-0.433l-0.346,0.683l-0.658,0.653l-0.758,0.503l-0.66,0.255
	l-0.22-0.521l-0.549-0.078l-1.12,0.345l0.489,0.233l0.212,0.021v0.258l-0.351,0.396l-1.699,1.062l-0.451,0.153l-0.261,0.202
	l-0.194,0.236l-0.595,0.939l-0.487,0.531l-0.414,0.184l-0.995-0.055l-0.103,0.282l0.012,0.546l-0.063,0.356l-0.354-0.288
	l-0.212-0.29l-0.212-0.219l-0.24-0.137l-0.297-0.015l0.196-0.182l0.141-0.222l0.104-0.266l0.075-0.345l-1.434-0.703l-0.608-0.455
	l-0.324-0.156l-0.126-0.123l-0.089-0.236l0.055-0.19l0.07-0.171l-0.036-0.199l-0.099-0.304l-0.255-1.131l-1.64-1.421l-0.161-0.379
	l-0.387-0.446l-0.454-0.396l-0.374-0.242v-0.235l0.107-0.054l0.238-0.206l-0.031-0.257V96.88l0.031-0.318l-0.5-0.181l-1.274-0.07
	l-0.646-0.244v-0.287h-0.324v-0.235l0.424-0.334l0.19-0.112l0.241-0.07v-0.181l-0.029-0.044h-0.058l-0.1-0.041l0.187-0.26
	l-0.252-0.201l-0.264-0.076l-0.265,0.067l-0.251,0.21l-0.411-0.095l-0.491,0.729l-0.831,1.704H65.59v-0.279l0.544-0.714l0.162-0.304
	l0.324-0.993l0.188-0.304l-0.34-0.286v-0.237l0.177-0.372l-0.017-0.401l-0.179-0.343L66.139,92.4l-0.318,0.095l-0.466,0.567
	l-0.261-0.123l-0.225,0.291l-0.618,0.529l-0.754,0.942l-0.203,0.364l-0.09,0.478l-0.129-0.243l-0.034-0.107l-0.025-0.166
	l0.326-0.387l0.183-0.691l0.016-0.744l-0.165-0.543l-0.406-0.094l-0.747,0.937l-0.235-0.063h-0.175l-0.295,0.219l-2.12,0.806
	l-0.173,0.115l-0.253,0.309l-0.225,0.153l-0.312,0.031l-0.592-0.047l0.09-0.181l0.048-0.122l0.066-0.105l0.141-0.117l-0.35-0.027
	l-0.868-0.514l-0.795-0.048l-0.235-0.189h-0.157l-0.135,0.318l-0.551,0.985l-0.724,0.328l-0.253,0.323l0.104,0.624l0.868,1.086
	l0.366,0.235l-1.312,0.235l-0.104,0.265l0.104,0.581l0.25,0.877l-0.359,0.199l-0.738,0.004l-0.618-0.193l0.012-0.648l-0.896,0.251
	l-0.322-0.007l-0.283-0.151l-0.581-0.515l-0.276-0.115l-1.169,0.062l-0.472-0.146l-0.326-0.463l0.006,0.242l-0.017,0.205
	l-0.052,0.182l-0.11,0.176l-0.307-0.242l-0.201,0.434l-0.073,0.727l0.063,0.658l-0.199-0.203l-0.079-0.115l-0.078-0.218h-0.157
	l0.138,0.767l0.09,0.32l0.115,0.235l-0.186,0.255l0.186,0.258l-0.186,0.261l-0.323-0.434l-0.749-0.48l-0.303-0.408v-0.237
	l0.11-0.051l0.248-0.227l-0.499-0.124l-0.366,0.19l-0.712,0.714l0.131-0.455l-0.038-0.382l-0.166-0.277l-0.253-0.162v-0.279h0.172
	v-0.244l-0.295-0.104l-0.031-0.199l0.09-0.272l0.064-0.365l-0.154-0.12l-0.896,0.266l-0.53,0.332l-0.306,0.112l-0.348,0.071
	l0.096,0.347l-0.015,0.284l-0.103,0.224l-0.167,0.186H41.82l-0.104-0.28l-0.124-0.182h-0.141l-0.147,0.225l-0.45-0.272L40.28,99.16
	l-0.585,0.111l-0.481,0.195l-0.425,0.305l-0.435,0.441l-0.125,0.387l0.482,0.144v0.283h-0.338l-0.57-0.23l-0.309-0.053l-0.266,0.075
	l-0.768,0.463l-0.586,0.06l0.186-0.832l-0.459-0.546l-0.654-0.031l-0.68,0.266l-0.698,0.411l-0.714,0.135v0.283l0.154,0.042
	l0.345,0.213l-0.584,0.016L31.94,101.7l-0.57,0.1h-1.965v0.234l0.223,0.144l0.053,0.121l-0.046,0.123l-0.076,0.158l0.689,0.282
	l-0.475,0.014l-1.152-0.296l-0.324,0.228l0.177,0.515l0.583,0.806l-0.314,0.09l-0.834-0.469l-0.49-0.136l-0.779,0.083l-0.473,0.159
	l-0.4,0.272l0.185,0.284l-0.27-0.109l-0.261-0.175l-0.452,0.66l-0.62,1.159l-0.256,1.094l0.641,0.481v0.225l-0.473,0.152
	l-0.297,0.524l-0.128,0.704l0.038,0.717l0.43,1.015l0.039,0.478l-0.469,0.057l0.16,0.78l0.219,0.386l0.334,0.131l1.27,0.013
	l0.224-0.128l0.044-0.272l-0.002-0.273l0.089-0.121l0.487,0.077l0.875,0.362l0.441,0.1l0.491-0.068l0.75-0.379l1.232-0.307
	l1.586-1.002l0.783-0.334l1.697-0.277l0.5-0.19l0.789-0.459l0.447-0.124l-2.402,1.426l-0.282,0.227l-1.438,1.744v0.236l0.349-0.036
	l0.34-0.1l0.289-0.153l0.21-0.203l0.188,0.256l-0.093,0.077l-0.028,0.014l-0.067,0.146l0.563-0.104l0.795-0.555l0.373,0.167
	l0.095-0.167l0.155-0.19l0.079-0.182h0.187v0.281h-0.187v0.258l0.396-0.122l0.57-0.417h0.426l-0.488,0.532l-0.246,0.18l-0.117,0.16
	l-0.008,0.159l-0.215,0.082l-0.107,0.093l-0.21,0.335l1.075-0.068l0.16-0.048l0.135,0.382l0.314,0.129l0.348-0.093l0.232-0.302
	l0.105,0.445l0.297,0.146l0.785-0.053v0.28l-2.057,0.438l-0.521-0.202l0.369-0.009l0.16-0.067l0.158-0.16l-1.688,0.124l-1.188,0.339
	l-0.303,0.031l-0.329-0.059l-0.19-0.141l-0.169-0.168l-0.255-0.127l-2.244,0.16l-0.694-0.328l0.33-1.396l-0.42-0.195l-0.318,0.303
	l-0.453,1.177l0.049,0.136l0.063,0.269l-0.057,0.255l-0.318,0.115l-0.275-0.056l-0.209-0.08l-0.21-0.016l-0.277,0.151l0.072,0.372
	l-0.072,0.403l1.514,0.059l0.312,0.076l0.17,0.387l-0.094,0.152l-0.197,0.168l-0.121,0.438l0.06,0.283l0.154,0.32l0.286,0.432
	l-0.127,0.251l-0.22,0.794l0.65-0.219l0.446-0.716l0.351-0.854l0.364-0.671l0.699-0.242l1.346,0.857l0.629-0.236l0.059,0.244
	l0.111,0.228l0.16,0.183l0.197,0.121l1.068,0.244l0.338,0.342l0.126,0.843l0.076,0.255l0.354,0.467l0.118,0.415l-0.246,1.062
	l-0.115,0.274l-0.371,0.16l-1.44-0.443l-8.099,1.816l-0.146-0.054l-0.197-0.228l-0.087,0.009l-0.087,0.129l-0.031,0.144l-0.02,0.129
	l-0.151,0.28l-0.103,0.236l-0.128,0.228l-0.165,0.129l1.889,0.539l0.852-0.054l0.435,0.084l0.75,0.736l0.329-0.183l0.31-0.374
	l0.339-0.21l0.251,0.135l2.229,1.763l1.199,1.555l0.381,0.686l0.241,1.021l0.379,0.957l0.085,0.669l-0.091,0.249l-0.216,0.054h-0.24
	l-0.154,0.09l-0.042,0.222l0.056,0.525l-0.014,0.277l3.688,0.178l0.62-0.178l0.385-0.227l0.816-0.798v-0.272h-0.686v-0.235
	l0.087-0.115l0.071-0.144l-0.369-0.264l0.073-0.455l0.349-0.098l0.475,0.816l0.256-0.247l0.229-0.168l0.249-0.09l0.314-0.025v-0.235
	l-0.304-0.287l-0.342-0.511l-0.148-0.567l0.264-0.44l0.078,0.609l0.244,0.581l0.326,0.44l0.303,0.175l0.41,0.047l0.331,0.13
	l0.713,0.589l0.128-0.325l0.192-0.081l0.25-0.009l0.303-0.115l-0.084,0.328l-0.149,0.175l-0.202,0.053l-0.252-0.025l0.515,0.144
	l0.563-0.626l0.182-0.562l-0.227-0.758l0.663,0.126l0.673,0.446l0.475,0.548l0.081,0.404l0.311,0.202l0.155,0.069l0.222,0.006
	l-0.107,0.436l0.091,0.228l0.179,0.143l0.178,0.196l0.48,0.898l0.036,0.118l0.456,0.048l0.564-0.115l0.535-0.014l0.364,0.365
	l1.314-0.738l0.219,0.101l0.21,0.505l0.483,0.178l0.951-0.045l0.118,0.066l0.288,0.32l0.194,0.121l0.214,0.03l0.648-0.03l0.89,0.219
	l0.413,0.008l0.276-0.227l0.094,0.277l0.109,0.16l0.278,0.328l0.36,0.758l0.748,0.972l0.109,0.205l0.359,0.106l2.063-0.517v-0.235
	l-0.121-0.188l-0.157-0.151l-0.193-0.115l0.528-0.129l0.765-0.455l0.691-0.654l0.548-0.637v0.275l-0.324,0.258l-0.228,0.441
	l-0.321,0.824l-0.157,0.049l-0.43-0.065l-0.088,0.146v0.351l-0.027,0.188l-0.104,0.075l-0.228,0.022v0.284l1.059,0.104l0.447,0.157
	l0.4,0.244v0.228l-1.005-0.362l-0.449-0.045l-0.452,0.18l0.674,0.025l1.106,0.295l0.641,0.19l0.767,0.862l0.187,0.154l0.233-0.157
	l0.077-0.343l0.121-0.351l0.349-0.166l-0.261-0.396l-0.097-0.115l0.357-0.099l0.197-0.241l0.175-0.138l0.302,0.223l0.035-0.138
	l-0.001-0.062l0.025-0.031l0.129-0.02l-0.112-0.52l-0.157-0.391l-0.241-0.274l-0.352-0.138l0.399-0.084l0.337,0.177l0.27,0.067
	l0.199-0.396h0.157l-0.018,0.262l0.018,0.777l0.114-0.076l0.298-0.112l0.115-0.084v0.37l0.025,0.27l0.054,0.203l0.094,0.199
	l-1.888,0.878l-0.304,1.05l-0.059,0.475l0.101,0.23l0.239,0.143l0.283,0.121l0.238,0.151l0.356,0.421l0.278,0.483l0.178,0.646
	l0.063,0.865l-0.059,0.499l-0.231,0.632l-0.055,0.401l0.042,0.343l0.303,1.069h0.151l0.165-0.166l0.526,0.144l0.342,0.022
	l-0.559-0.651l-0.418-0.865l-0.141-1.063l0.272-1.255l-0.121-0.067l-0.109-0.129l-0.109-0.051l0.208-0.396l0.283-0.022l0.292,0.19
	l0.247,0.228l-0.165,0.151l-0.165,0.096l0.353,0.217l0.401-0.031l0.795-0.433l0.162,0.171l0.146,0.057l0.36,0.02l-0.151-0.491
	l0.083-0.409l0.168-0.06l0.087,0.573l0.123,0.488l0.229,0.098l0.142-0.235l-0.146-0.494l0.337,0.312l0.27,0.379l0.225,0.244
	l0.21-0.146l0.262,0.374l0.069,0.129l0.065-0.146l0.042-0.104l0.062-0.253l-0.261-0.261l-0.282-0.373l-0.224-0.41l-0.09-0.379v-0.89
	l-0.035-0.258l-0.119-0.464l-0.035-0.298h0.189l0.064,0.467l0.167,0.351l0.266,0.196l0.359,0.006l-0.214,0.177l-0.078,0.286
	l0.025,0.379l0.098,0.455h0.169l0.108-0.16l0.08-0.059l0.331-0.059v0.277h-0.177v0.228l0.835-0.202l0.494-0.228l0.22-0.449
	l0.259-0.258l1.297-0.135l0.521-0.253l-0.341-0.228l0.774,0.138l0.302,0.199l0.297,0.421l-0.5-0.174l-0.532-0.075l1.259,0.805
	l0.13,0.211l0.294-0.02l0.114-0.078l0.11-0.18l-0.359-0.253l0.312-0.09l0.151-0.183l-0.037-0.236l-0.241-0.258v-0.228l0.565,0.735
	l-0.114,0.691l-0.984,1.366l0.188,0.25l-0.534,0.356l-0.685,0.067l-0.635-0.21l-0.396-0.464l-0.141,0.548l-0.026,0.244l-0.23-0.23
	l-0.172-0.062l-0.146,0.084l-0.139,0.208H72.51l-0.37-0.755h-0.686l-0.419,0.303l0.428,0.169l0.02,0.182l-0.039,0.054l0.078,0.039
	l0.285,0.045l0.243,0.121l0.103,0.196l0.097,0.039l0.388,0.728l0.049,0.146l0.34,0.317l0.326,0.169l0.377,0.036l0.486-0.045
	l1.31-0.455l0.424-0.022l0.834,0.295l0.347-0.196l0.035-0.89l0.272,0.199l0.295,0.067l0.637-0.009l-0.056-0.25l-0.102-0.143
	l-0.151-0.076l-0.209-0.036l0.431-0.109l0.372,0.039l0.358-0.054l0.387-0.387l-0.19,0.502l-0.376,0.416l-0.442,0.28l-0.384,0.07
	l0.263,0.233l0.154-0.023l0.147-0.126l0.228-0.084h0.946l0.819-0.275l0.329-0.045l0.398,0.067l1.92,0.761l0.462,0.006l0.675-0.121
	l0.407,0.115l-0.522-0.036l-0.918,0.256l-1.572,0.084l-0.28,0.25l0.359,0.485l-0.211,0.707l0.32,0.196l0.528,0.06l0.406,0.274
	l-0.229,0.531l0.413,0.16l0.62,0.014l0.383,0.076l-0.078,0.252l-0.867,0.483l-0.242,0.283l-0.188-0.228l0.11-0.067l0.029-0.009
	l0.048-0.207l-0.421-0.084l-0.264-0.104l-0.267-0.014l-1.997,1.19l1.04,0.685l0.289,0.567l0.045,1.078h0.185l0.135-0.365
	l-0.01-0.151l-0.125-0.265L81.555,150l0.08-0.053l0.187-0.099l0.382,0.522l0.502,0.494l0.234,0.499l-0.434,0.5l-0.569,0.109
	l-1.084-0.524l-0.581-0.085v0.253l2.361,1.238l0.732,0.027l0.029-0.104l0.038-0.228l0.093-0.253l0.202-0.177l0.185-0.042
	l0.236-0.008l0.421,0.05l0.403,0.239l0.61,0.713l0.375,0.334l0.454,0.188l0.499,0.009l0.474-0.19l0.59-0.593l0.75-0.219l0.262-0.235
	l0.131-0.233l0.104-0.244l0.174-0.272l0.789-0.48l3.477-0.241l0.955,0.281l0.35,0.356l0.226,0.084l0.591,0.062l0.507,0.166
	l0.869,0.53l0.887,0.735l0.761,0.904l0.437,0.356l1.036,0.211l0.504,0.342l-1.356-0.042l-0.578-0.27l-0.556-0.598l-0.256-0.166
	l-1.048-0.213l-1.035-0.753v-0.28h0.52l-0.225-0.235L96,152.207l-0.27-0.085h-0.289l0.167,0.253l-0.383,0.017l-1.288-0.351
	l-0.188-0.177l-0.199-0.247l-0.188,0.036l-0.17,0.085l-0.172,0.126l-2.316,0.253l-0.606,0.258l-0.222,0.312l-0.161,0.449
	l-0.097,0.469l-0.034,0.41l0.073,0.562l0.267,0.578l-0.012,0.502l-0.075,0.542l-0.076,0.306l-0.192,0.13l-0.821,0.112l-0.293,0.213
	l-0.272,0.256l-0.329,0.227l0.89,0.498l2.902,0.505l1.518,0.851l0.389,0.387l0.27,0.428l0.28,0.653l0.047,0.623l-0.439,0.331
	l-0.301,0.654l-0.427,1.328l-0.306,0.553l-0.963,0.602l-0.365,0.387l0.141,0.514l-0.643,0.472l-0.17,0.379l-0.061,0.789l0.028,0.632
	l0.1,0.699l0.187,0.575l0.286,0.235l0.654,0.228l0.78,0.562l1.4,1.465l0.747,1.524l0.214,0.222l0.415,0.045l0.424,0.144l0.333,0.267
	l0.254,0.935l0.303,0.356l0.388,0.334l0.376,0.441l0.157,0.421l0.115,0.494l0.199,0.412l0.401,0.166l-0.109,0.638l0.562,2.672
	l0.234,0.334l0.239,0.127l0.104-0.158l-0.033-0.319l-0.144-0.599l-0.012-0.445l0.242,0.393l0.282,0.797l0.184,0.295l0.318,0.196
	l0.709,0.196l0.845,0.747l1.342,0.235l0.41,0.394l-0.218,0.449l0.684,0.219l1.679,0.076l0.69,0.138l0.583,0.401l0.396,0.668
	l0.149,0.912l0.272,0.78l0.639,0.028l1.339-0.421l0.335,0.135l0.57,0.5l0.774,0.463l0.25,0.047l0.408,0.113l0.455,0.69l0.481,0.587
	l0.677,0.185l-0.031-1.146l0.935-0.561l1.125,0.078l0.548,0.78l0.067,0.508l0.115,0.312l0.021,0.289l-0.204,0.464l-1.731,1.077
	l-0.278,0.478l0.138,0.699l-0.235,0.157l-0.247,0.306l-0.163,0.354l0.028,0.306l0.241,0.25l0.213,0.045l0.228-0.015l0.263,0.076
	l0.379-0.022l0.136,0.022l0.031,0.106l-0.031,0.175l-0.011,0.165l0.105,0.07l0.193,0.054l0.588,0.449l-0.3,0.294v0.151l0.151,0.121
	l0.148,0.166l0.085,0.062l0.321,0.106l0.094,0.059l0.034,0.141l-0.009,0.34l0.181,0.485l0.029,0.362l0.088,0.298l0.477,0.183
	l0.169,0.129l0.14,0.174l0.11,0.16v0.219l-0.277,0.615l-0.338,0.295l-0.415-0.028l-0.534-0.365l0.359,1.193l0.274,0.478l0.414,0.28
	l-0.127,0.106l-0.252,0.264l-0.135,0.124l0.151,0.188l0.186,0.319l0.145,0.37l0.032,0.374l-0.107,0.415l-0.159,0.084l-0.2-0.045
	l-0.235,0.037l-0.393,0.236l-0.278,0.258l-0.121,0.16l-0.129,0.213l-0.177,0.211l-0.278,0.151l0.215,0.373l0.167,0.525l0.11,0.539
	l0.039,0.418l0.135,0.323l0.646,0.774l2.266,1.83l0.562,0.644l-1.763-0.826l-0.3-0.28l-0.287-0.19l-1.603-1.896l-0.491-0.022
	l-1.672,0.514l0.003,0.463l-0.431,2.504l0.452,0.184l0.884-0.197l0.465,0.362l0.309,0.404l0.355,0.362l0.414,0.261l0.476,0.09
	l0.755,0.312l1.351,1.351l0.834,0.306l0.157,0.151l0.1,0.674l0.082,0.151l3.568,2.594l1.166,1.337l0.563,0.898l0.505,1.002
	l0.837,2.254l0.328,1.382l0.96,6.815l0.317,1.128l0.458,0.927l0.896,0.69l1.094,0.359l1.005,0.5l0.626,1.117l-0.564-0.472
	l-0.581-0.298l-0.648-0.146l-0.78-0.037l0.592,0.365l0.563,0.575l0.282,0.77l-0.239,0.957l0.157,0.438l0.093,1.003l0.096,0.494
	l-0.334-0.267l-0.212-0.57l-0.107-0.735l-0.032-0.735l0.073-0.57l-0.039-0.325l-0.205-0.446l-0.222-0.253l-0.809-0.478l-0.963-0.943
	l-0.859-1.114l-0.851-2.065l-0.101-0.402l-0.472-3.301l-0.334-1.328l-0.062-0.713l-0.294-1.08l-0.706-1.045l-3.046-3.391
	l-0.391-0.123l-1.059-0.602l-1.69-1.311l-0.217-0.281l-0.267-0.426l-0.079-0.188l0.003-0.199l0.056-0.188l0.067-0.115l0.016-0.409
	l0.016-0.265l-0.062-0.16l-0.267-0.135l-0.404,0.158l-0.361,0.553l-0.86,1.746l-0.157,0.524l-0.451,7.538l-1.048,5.628
	l-1.531,17.464l0.167-0.394l0.222-0.848l0.287-1.558l1.131-1.732l0.166-0.334l0.059-0.059l0.035-0.138l0.046-0.151l0.108-0.115
	l0.173-0.015l0.12,0.081l0.102,0.11l0.12,0.067l0.278,0.123l1.895,1.779l0.249,0.512h-0.344l0.621,0.651l-0.005,0.542l-0.507,0.361
	l-0.89,0.129l-1.543-0.379l-0.633,0.023l-0.497,0.623l-0.45,1.616l-0.063,0.424l-0.099,0.228l-0.668,0.966l-0.022,0.295l0.215,1.002
	l0.061,0.517l-0.177,2.176l-0.688,4.926l-1.623,9.891l-0.884,4.517l-0.597,1.987l-1.032,5.689l-0.606,1.977l-0.172,1.084
	l-0.403,1.291l-0.193,0.401l-1.328,1.033l-0.216,0.272l-0.112,0.387l-0.545,1.07l-0.221,0.303l-0.47,0.343l-0.562,0.303
	l-0.587,0.214l-2.226,0.365l-0.466,0.188l-0.188,0.262l-0.397-0.29l-0.145,0.963l-0.017,0.722l0.004,0.424l0.724,0.352l0.312,0.42
	l0.083,0.68l0.132,0.272l0.27-0.045l0.295-0.146l0.542-0.068l0.511-0.221l0.229,0.03l0.479,0.228l0.249,0.177l-0.005,0.169
	l-0.068,0.201l0.042,0.304l0.184,0.593l0.122,0.151l0.306,0.143l0.271,0.04l0.32-0.04l0.271-0.157l0.146-0.303l0.199-0.584
	l0.376-0.228l0.497,0.015l0.784,0.235l1.049,0.545l0.28-0.045l0.278-0.099h0.304l0.721,0.752l0.095,1.252l-0.271,1.373l-0.383,1.086
	l-0.318,0.433l-1.036,1.114l-0.209,0.289l0.315,0.747l0.458,0.514l0.554,0.329l0.619,0.156l0.689,0.06l0.428-0.144l0.217-0.46
	l0.056-0.898l0.18-0.69l0.43-0.486l0.565-0.221l0.567,0.151l-0.529,0.457l-0.202,0.449l0.115,0.464l0.424,0.49l0.475,0.284
	l1.456,0.261l0.866,0.48l0.821,0.668l0.944-0.082l0.218,0.082l0.418,0.267l0.188,0.157l0.867,0.109l0.42,0.118l0.308,0.356
	l0.874,0.662l0.962,0.312l2.007,0.169l1.939-0.354l0.673,0.238l0.473,1.213l-0.013,0.244l-0.083,0.157l-0.027,0.183l0.14,0.312
	l0.256,0.252l0.248,0.028l0.246-0.036l0.254,0.045l0.863,0.53l0.446,0.379l0.979,1.309l0.037,0.151l-0.051,0.144l-0.006,0.126
	l0.166,0.078h0.409l0.109,0.04l0.147,0.201l-0.033,0.223l-0.004,0.201l0.241,0.16l0.196-0.027l0.424-0.289l0.219-0.076l0.045-0.812
	l0.642,0.015l1.36,0.64l0.767-0.064l0.608-0.362l1.207-0.957l0.221,0.228l0.196-0.076l0.176-0.264l0.135-0.334l0.388,0.362
	l1.52,0.92l0.302,0.635l0.674,0.084l0.728-0.205l0.451-0.19l-0.055,0.595l0.147,0.59l0.304,0.503l0.412,0.339l0.157,0.191
	l0.031,0.244l0.067,0.219l0.267,0.121l0.32,0.093l0.174,0.151l0.119,0.174l0.146,0.151l0.993,0.396l0.869-0.085l1.942-0.713
	l1.544-0.235l0.473-0.32l0.409-0.059l1.339,0.348l0.401,0.199l0.539,0.958l0.393,0.469l0.371-0.062l0.71-0.993l0.443-0.446
	l0.458-0.169l0.695,0.59l0.055,0.115l-0.007,0.146l0.015,0.135l0.126,0.124l0.503,0.095l0.491-0.027l0.957-0.25l0.418,0.174
	l3.139-0.09l0.89,0.118l0.331-0.118l0.218-0.365l0.026-0.556l-0.174-0.514l-0.298-0.382l-0.357-0.126l0.154-0.343l0.094-0.146
	l0.188-0.144l-0.279-0.387l0.353-0.955l-0.055-0.729l0.12-0.494l0.577-0.228l0.69-0.054l0.446,0.045l0.867,0.343l0.438,0.098
	l0.488-0.045l0.433,0.076l1.086,0.638l0.747,0.294l0.219,0.169l0.401,0.394l0.267,0.114l0.241-0.12l0.236-0.197l0.258-0.084
	l0.214,0.084l0.418,0.34l0.19,0.115l2.146,0.144l0.524,0.168l0.446,0.404l0.247,0.483l0.191,0.533l0.255,0.469l0.433,0.317
	l0.277,0.03l0.843-0.275l3.096,0.018l0.593,0.16l-0.109,0.485l0.126,0.138l0.239,0.017l0.21,0.112l0.443,0.797l0.486,0.668
	l0.424,1.168l0.361,0.478l0.56-0.228l0.387-1.342l0.795,0.037l0.738-0.281l0.385-0.031l1.366,0.941l0.272,0.129l2.863,0.283
	l-0.219,0.69l0.407,0.256l0.584,0.183l0.312,0.449l-0.629,0.059l-0.461,0.452l-0.28,0.704l-0.09,0.851l0.073,0.045l0.051,0.073
	l0.02,0.084l-0.015,0.109l0.464,0.188l1.561,0.21l0.527,0.223l1.412,0.971l0.593,0.135l0.472,0.025l0.39,0.174l0.343,0.567
	l0.331,1.277l0.238,0.522l0.497,0.426l0.309,0.205l0.34,0.054l0.654-0.079l0.415-0.104l0.289-0.191l0.425-0.445l0.601-0.464
	l0.12-0.199l0.188-0.5l0.12-0.174l0.404-0.188l1.188,0.144l1.553-0.485l0.789-0.084l0.704,0.396l0.301,0.25l1.465,0.69l0.783,0.174
	l0.401,0.014l0.186,0.548l0.393,0.53l0.486,0.388l0.466,0.124l0.514,0.286l0.278,0.093l0.261-0.009l0.171-0.16l0.208-0.553
	l0.199-0.177l0.483-0.015l1.159,0.396l0.556,0.104l0.671-0.034l-0.009-0.154l-0.312-0.348l-0.23-0.646l0.2-0.298l1.061-0.834
	l0.446-0.235l0.517-0.036l0.982,0.151l0.525-0.085l0.406-0.249l0.756-0.744l0.407-0.235l0.403-0.049l0.433,0.018l0.419-0.067
	l0.83-0.646l0.809,0.312l0.43-0.281l0.27,0.054l0.735,0.022l0.169,0.045l0.162,0.379l0.197,0.32l0.244,0.258l0.3,0.188l0.517,0.168
	l0.646,0.067l0.66-0.03l1.709-0.295l0.037-0.208l-0.009-0.839l-0.816-1.132l-1.752-1.774l-0.259-0.679l-0.292-2.58l0.009-0.407
	l-0.067-0.19l-0.141-0.09l-0.339,0.02l-0.112-0.051l-0.172-0.261l-0.109-0.256l0.031-0.295l0.25-0.351l0.322,0.478l0.149,0.129
	l0.084-0.244l0.292-1.729l0.03-0.614L222,312.252l-0.112-0.596l-0.151-0.28l-0.281-0.126l-0.71-0.23l-0.396-0.045l-0.222-0.121
	l-0.166-0.216l-0.163-0.475l-0.188-0.23l0.993-1.047l0.295-0.16l0.099-0.183l-0.028-0.78l0.104-0.183l0.222,0.054l0.357,0.183
	l0.174-0.022l0.398-0.388l-0.112-0.328l-0.696-0.572l-0.283-0.503l-0.064-0.539l0.21-0.396l0.548-0.082l-0.334,0.612l-0.087,0.306
	l0.112,0.272l0.286,0.106l0.148-0.274l0.118-0.371l0.196-0.183l0.099-0.196l0.081-0.438l0.07-0.89l0.106-0.357l0.483-0.533
	l0.114-0.415l-0.19-0.32l-0.421-0.258l-0.419-0.472L222,300.63l0.121-0.25l0.303-0.101h0.702l0.106,0.115l-0.233,0.25L222.517,301
	v0.223l0.345,0.193l0.155,0.225l0.12,0.126l0.238-0.059l0.705-1.078l0.138-0.409l0.317-0.357l0.589-0.524l0.188-0.326l0.241-0.653
	l0.169-0.309l0.415-0.525l3.47-2.647l0.904-0.454l0.605-0.115l1.006,0.499l0.527-0.235l2.071-2.541l0.823-0.69l2.838-1.541
	l5.017-4.138v-0.258l-0.854,0.289l-0.764,0.637l-1.322,1.46l-1.288,1.128l-0.823,0.441l-0.854,0.059v-0.219l2.123-0.887l0.331-0.419
	l0.067-0.53l0.185-0.328l1.634-1.373l0.686-0.41l1.558-0.479l1.135-0.817l0.746-0.258l1.406-0.205l-0.238,0.522l-0.306,0.334
	l-0.419,0.204l-0.584,0.146l-1.185,0.104l-0.559,0.178l-0.331,0.424l0.851-0.396l1.524-0.162l1.457,0.151l0.646,0.536l0.042,0.123
	l0.497,1.828l0.138,0.306l0.188,0.21l0.534,0.272l0.611,0.132l7.787,0.256l1.101,0.228l0.668,0.53l0.037,0.609l-0.188,0.71
	l-0.23,0.595l-0.056,0.25l0.679,0.34l1.025,0.289l3.696,0.169l0.888-0.349l-0.606-0.662l-0.764-0.547l-0.686-0.711l-0.351-1.162
	v-2.481l-0.106-0.365l-0.747-1.19v-0.213l0.433,0.258l0.354,0.509l0.262,0.598l0.156,0.525l0.06,0.589l-0.06,2.021l0.388,0.912
	l0.848,0.803l1.048,0.593l0.979,0.289l-0.188-0.562l-0.244-0.213l-0.121-0.183l0.214-0.478l0.235-0.213l0.615-0.138l0.275-0.22
	l0.626-0.289l1.381,0.798l0.485-0.177l0.632,0.177l0.598-0.424l0.275-0.775l-0.295-0.864l-0.367-0.303l-0.307-0.169l-0.229-0.286
	l-0.138-0.654l0.048-0.258l0.12-0.478l0.166-0.458l0.168-0.227l0.151,0.098l0.362,0.494l0.106,0.115l0.593-0.022l0.199,0.022
	l0.511,0.18l0.132,0.177l0.018,0.295l0.182,0.53l0.539,0.632l0.644,0.112l0.704-0.256l0.728-0.488l0.095,0.82l-0.328,0.774
	l-0.514,0.638l-0.479,0.387l-0.691,0.211h-2.245l-0.783,0.443l-0.34,0.699l0.129,0.78l0.665,0.693l0.624,0.171l1.586-0.028
	l0.364-0.143l1.106,0.163l3.357-0.767l0.704,0.485v1.785l0.109,0.202l0.172,0.191l0.168,0.109l0.076-0.031l-0.025,0.259
	l-0.059,0.219l-0.211,0.566l-0.186,0.352l-0.075,0.348l0.19,0.352l0.32,0.12l0.727-0.045l0.34,0.183l0.388-0.146l0.648-0.045
	l0.606,0.085l0.267,0.21l0.138,0.16l0.309-0.076l0.325-0.182l0.433-0.334l0.219,0.112l0.618,0.839l0.193,0.18l0.346,0.135
	l0.126,0.115l0.141,0.084l0.162,0.037l0.155-0.076l0.069-0.16l0.051-0.166l0.084-0.072l1.297,0.059l0.489,0.256l-0.152,0.611
	l0.94,0.522l0.483,0.16l0.562,0.059l0.227,0.106l0.062,0.473l0.229,0.104l0.455,0.033l0.166,0.073l0.151,0.129l-0.814,0.413
	l-0.188,0.309l0.146,0.472l0.241,0.174l1.225,0.533l0.584,0.034l0.247-0.166l0.106-0.472l0.168-0.264l0.41,0.009l0.794,0.151v-0.235
	l-0.412-0.184l-0.545-0.605l-0.415-0.169l0.729-0.37l0.404-0.115l0.416,0.014l-0.067,0.169l-0.045,0.334l-0.065,0.205l0.609-0.253
	l0.775-0.012l0.735,0.18l0.472,0.334l0.168,0.113l1.819,0.109l0.23,0.151v0.348l-0.152,0.567l-0.132,0.109l-0.89,0.017v0.211
	l0.472,0.099l1.682,0.014l0.43-0.112v-0.211h-0.211l-0.169-0.064l-0.319-0.174l0.244-0.713l0.067-0.59l0.177-0.479l0.553-0.352
	l0.281-0.051l1.706,0.051l0.205,0.043l0.382,0.156l0.278,0.037l0.267,0.146l0.12,0.326l0.054,0.319l0.084,0.152l0.913,0.03
	l0.225-0.199l-0.371-0.539l0.132-0.258l-0.011-0.214l0.014-0.27l0.205-0.435l0.235-0.175l0.801-0.062l0.499-0.272l0.522-0.199
	l0.306-0.014l0.615,0.07l0.286-0.057l0.379-0.295l0.396-0.406l0.48-0.301l0.651,0.073l0.264,0.21l0.106,0.287l0.06,0.27l0.101,0.162
	l0.267,0.064l0.485-0.225l0.272-0.066l-0.168-0.475l1.044-0.837l0.157-0.222l-0.053-0.098l-0.13-0.13l-0.115-0.159l-0.045-0.197
	l0.054-0.325l0.084-0.13l0.099-0.081l0.106-0.168l0.228-0.579l-0.054-0.196l-2.42,0.121l-0.151-0.051l0.054-0.289l0.385-0.319
	l0.668-0.359l0.556-0.088l0.233-0.258l0.117-0.371l0.22-0.454l0.406-0.351l0.388-0.146l0.289-0.211l0.191-1.024l0.182-0.632
	l0.272-0.598l0.326-0.359l0.494,0.388l0.637,0.168l1.291-0.062l0.006-0.135l0.121-0.258l0.151-0.16l0.07,0.19l0.062,0.099
	l0.151,0.053l0.172,0.006l0.143-0.03l0.127-0.157l0.05-0.472l0.076-0.099h0.183l0.101-0.022l0.06-0.067l0.909-1.589l0.045-0.093
	l0.017-0.02l0.031-0.562l-0.048-0.008l0.328-0.545l0.388-0.314l0.401-0.233l0.41-0.328l0.578,0.244l0.614-0.196l0.644-0.343
	l0.668-0.174l0.075,0.115l0.048,0.241l0.099,0.183l0.228-0.07l0.12-0.135l0.025-0.146l-0.017-0.183l0.031-0.264l-0.009-1.64
	l0.09-0.259l0.19-0.143l0.191-0.328l0.256-0.326l0.412-0.146l0.362-0.027l0.283-0.102l0.236-0.148l0.232-0.196l0.486-0.725
	l0.294-0.258l0.343,0.146l0.241,0.045l1.225-0.16l-0.11,0.329l-0.059,0.126l0.485-0.067l0.11-0.325l0.027-0.424l0.233-0.343
	l0.421-0.106l0.067-0.455l0.37-0.416l0.486-0.199l0.569,0.334l0.175-0.258l0.244-0.104l0.258,0.033l0.174,0.054l0.144,0.008
	l0.208-0.095l0.014-0.124l-0.039-0.44l0.025-0.129l0.098-0.045l0.104,0.014h0.109l0.334-0.232l-0.503-1.68l-0.129-0.878l0.393-0.725
	l1.095-1.196l0.509-0.813l1.297-1.098l0.562-0.623l0.196-0.404l0.208-0.78l0.159-0.427l0.278-0.312l0.365-0.281l0.283-0.37
	l0.042-0.606l-0.396-0.851l-0.553-0.553l-0.312-0.654l0.351-1.14l-0.783-0.135l-1.033,0.674l-0.727,0.053l-4.371,1.27l-1.02-0.034
	l-0.241-0.05l-0.232-0.229l-0.138-0.294l-0.169-0.253l-0.334-0.129l-0.654-0.115l-0.477-0.193l-2.67-1.648l-1.011-0.373
	l-1.482-0.789l-0.316-0.09l-0.34,0.031l-0.298,0.096l-0.303,0.056l-0.334-0.146l-0.233-0.264l-0.115-0.304l-0.084-0.337l-0.16-0.34
	l-0.235-0.275l-0.491-0.355l-0.228-0.233l-0.144-0.27l-0.298-0.71l-0.196-0.343l-0.556-0.654l-0.106-0.157l-0.09-0.325l0.008-0.175
	l0.06-0.213l0.213-1.095l0.175-0.304l0.842-0.46l-0.654-0.556l-0.767-0.806l-0.562-0.985l-0.084-1.095l0.275-0.469l1.283-0.988
	l0.855-1.493l0.359-0.267l-0.292-0.753l0.183-0.71l0.466-0.569l0.576-0.32l0.463-0.009l0.912,0.275l0.446-0.009l-0.146-0.463
	l-0.767-1.443l-0.096-0.303l-0.138-0.87l-0.28-0.77l0.014-0.045l0.132-0.553l0.043-0.025l-0.009-0.171l0.033-0.093l0.006-0.115
	l-0.059-0.205l-0.102-0.174l-0.454-0.5l-1.258-0.517l-0.44-0.039l-1.238,0.253l-0.478-0.124l-1.731-1.008l-0.828-0.715l-0.438-0.742
	l0.045-1.981l-0.16-1.017l-0.662-0.488l-0.879-0.072l-0.267-0.228l-0.303-0.525l-0.067-0.325l0.03-0.281l-0.039-0.252l-0.41-0.357
	l-0.44-0.673l0.301-0.404l0.454-0.379l0.87-0.5l0.228-0.039l0.455,0.017l0.199-0.036l0.211-0.124l0.457-0.348l0.188-0.102
	l0.881,0.146l0.927,0.5l0.904,0.319l0.816-0.393l0.057-0.222l-0.155-0.16l-0.112-0.197l0.127-0.297l0.199-0.09l0.592-0.009
	l0.228-0.054l0.371-0.334l0.435-0.766l0.326-0.312l0.9-0.41l0.888-0.244l0.199,0.084l0.312,0.379l0.138,0.057l0.165-0.175
	l0.48-0.875l0.682-0.576v-0.561l-0.267-0.714l-0.129-1.03l0.129-0.216l0.814-0.972l0.522-0.932l0.219-0.539l0.031-0.446l-0.2-0.151
	l-1.075-0.472l-0.334-0.25l-0.204-0.404l-0.178-0.446l-0.238-0.396l-1.101-0.819l-1.147-0.646l-0.188-0.521l-0.138-1.482
	l-0.101-0.264l-0.278-0.424l-0.048-0.292l0.07-0.295l0.289-0.632l0.06-0.202l-0.152-0.53l-0.312-0.222l-0.816-0.205l-0.337-0.256
	l-0.57-0.572l-0.34-0.118l-0.653-0.141l-0.683-0.508l-0.511-0.758l-0.278-1.493l-0.067-0.64l0.022-0.644l0.13-0.592l0.325-0.525
	l0.388-0.235l0.744-0.104v-0.062l0.072-0.16l0.109-0.166l0.118-0.098l0.093,0.014l0.205,0.138l0.09,0.017l0.177-0.033l0.623,0.008
	l0.539-0.159l0.57-0.286l0.505-0.436l0.343-0.575l0.159-0.489l0.205-0.429l0.267-0.334l0.356-0.169l-0.174-0.295l-0.138-0.364
	l-0.177-0.66l-0.286-0.743l-0.093-0.388l-0.12-0.085l-1.698-1.92l-0.579-0.25l-0.21,0.085l-0.177,0.18l-0.197,0.146l-0.235-0.031
	l-0.222-0.165l-0.012-0.112l0.051-0.154l-0.017-0.281l0.039-0.03l-0.006-0.376l-0.047-0.359l-0.067,0.03l0.114-0.183l0.202-0.252
	l0.177-0.27l0.022-0.283l-0.379-0.374l-2.007-0.438l-0.216-0.606l0.232-1.244l0.433-1.299l0.896-1.729l-0.575-0.988l-0.89-0.94
	l-0.483-0.834l0.138-0.418l0.665-0.783l0.177-0.606l-0.056-0.69l-0.236-0.356l-0.379-0.191l-3.75-0.968l-1.673-0.057l-1.611,0.32
	l-2.147,1.471l-0.817,0.213l-0.831,0.04l-0.774,0.249l-0.812,0.708l-0.719,0.946l-0.533,0.721l-0.135,0.494l0.104,0.365l0.235,0.615
	l0.009,0.143l0.241,0.598l0.106,0.16l0.267,0.138l0.416-0.196l0.185,0.076l0.127,0.842l-0.651,0.682l-1.608,1.072l-1.283,1.5
	l-0.819,0.421l-0.859-0.382l-1.146,0.039l-1.14,0.272l-0.606,0.364l0.334-0.791l0.191-0.362l0.081-0.312l-0.443-0.556l-0.258-0.503
	l0.09-0.43l0.611-0.387l1.511-0.741l0.039-0.017h0.093l0.196,0.067l0.151,0.017l0.144-0.017l0.556-0.175l0.104-0.235l-0.02-0.34
	l0.015-0.388l0.174-1.032l0.081-0.281l0.822-1.821l-0.036-0.404l-0.306-0.551l-0.374-0.396l-1.355-0.837l0.286-0.271l0.045-0.242
	l-0.045-0.244v-0.28l-0.022-0.115l-0.059-0.144l-0.054-0.174v-0.19l0.102-0.22l0.286-0.312l0.873-1.505l0.887-1.113l-0.609-0.683
	l-0.072-0.485l0.339-0.441l3.378-3.099l1.808-0.985l0.25-0.211l0.659-0.749l0.837-0.444l0.267-0.196l0.275-0.358l0.101-0.304
	l-0.006-0.612l-0.19-0.205l-0.129-0.182l-0.079-0.205l0.042-0.183l0.394-1.19l0.177-0.312l0.143-0.356l0.037-0.511l-0.073-0.401
	l-0.343-0.638l-0.101-0.334l0.37-1.291l1.225-0.704l2.703-0.852l1.684-1.282l0.567-0.825l-0.295-0.686l0.334-0.584l0.236-0.235
	l0.637-0.228l0.093-0.236l0.09-0.059l0.365-0.19l-0.031-0.632l0.753-0.256l1.645-1.526l0.488-0.789l0.728-0.753l1.706-1.257
	l-0.098-0.913l0.16-0.758l0.469-0.491l0.229-0.024l0.135-0.051l0.365-0.503l0.267-0.151l0.256-0.067l0.235-0.154l0.199-0.41
	l-0.267-0.37l-0.373-0.352l-0.376-0.303l-0.466,0.228l-2.99,0.292l0.124-0.472l0.312-0.578l0.37-0.485l0.654-0.388l0.036-0.696
	l0.66-0.146l0.41-0.235l0.37-0.317l0.19-0.312l-0.117-0.449l-0.262-0.508l-0.067-0.419l0.469-0.143l0.228-0.174l0.222-0.054
	l0.233,0.054l0.228,0.174l0.656,0.101l1.25-0.222l0.592,0.121l0.328,0.19l0.332,0.054l0.69-0.07l-0.463,1.056l0.143,0.606
	l0.548,0.325l0.738,0.239l0.104,0.081l0.07,0.129l0.106,0.138l0.191,0.084l0.171-0.039l0.951-0.41l0.669-0.143l1.743,0.075
	l0.698-0.28l0.503-0.654l0.076-0.34l-0.04-0.216l-0.12-0.171l-0.085-0.093l-0.129-0.228v-0.228l0.289-0.084l0.396,0.138l0.322,0.205
	l0.329,0.045l0.387-0.343l0.037-0.067l0.039-0.102v-0.095l-0.022-0.09l-0.183-0.262l-0.057-0.143l0.034-0.121l0.151-0.075
	l0.259,0.053l0.204-0.067l0.107-0.213l-0.009-0.374l-0.084,0.009l-0.424-0.328l-0.054-0.021l1.092-0.897l0.606-0.34l0.891-0.312
	l-0.057-0.009l0.064-0.022l0.104-0.37l0.057-0.138l-0.057-0.359l-0.129-0.186l-0.157-0.143l-0.154-0.194l-0.566-1.128l-0.343-0.48
	l-0.373-0.188l-0.099-0.175l-0.081-0.403l-0.067-0.798l0.09-0.228l0.418-0.438l0.141-0.253l0.02-0.606l-0.314-1.305l0.067-0.525
	l0.359-1.207l0.135-0.183l0.342-0.18l0.062-0.418l-0.138-0.699l0.008-0.169l-0.022-0.086l-0.008-0.102l0.022-0.151l0.075-0.166
	l0.166-0.16l0.106-0.183l0.16-0.381l0.045-0.166l-0.028-0.606l0.127-0.5l0.676-0.716l0.236-0.446l-0.054-1.171l-1.086-1.917
	l-0.076-1.55l0.16-0.727l0.169-0.581l0.179-0.331l0.169-0.228l0.126-0.298l0.057-0.544l0.168-0.458l1.586-2.231l0.265-0.546
	l0.159-0.636l0.054-0.769l0.174-0.787l0.407-0.335l0.466-0.25l0.343-0.556l0.028-0.529l-0.13-0.5l-0.159-0.486l-0.082-0.455
	l0.028-0.496l0.186-1.002l0.129-0.424l0.174-0.362l0.166-0.247l0.12-0.361l0.054-0.721l0.129-0.341l0.307-0.312l0.628-0.503v-0.255
	l-0.297-0.808v-1.32l0.216-1.238l1.059-1.65l0.297-0.215l0.419-0.136l0.387-0.336l0.683-0.818l0.303-0.196l0.337-0.327l0.262-0.357
	l0.115-0.304l0.03-0.728l0.138-0.334l0.278-0.101l0.716-0.004l0.19-0.069l0.144-0.13l0.053-0.204l0.054-0.357l0.121-0.204
	l0.112-0.112l0.053-0.095l0.222-0.017l0.927-0.492l0.151-0.129l0.312-0.53l1.146-3.142l0.783-1.484l0.53-0.612l-0.297-0.271
	L347.812,88.473z M194.456,323.648l-0.25,0.054h-0.067l-0.572-0.081l-0.334-0.253l-0.048-0.433l0.277-0.609l0.29-0.135l0.258,0.371
	l0.253,0.57l0.277,0.488L194.456,323.648z"/>
</svg>
