<?xml version="1.0" encoding="utf-8"?>
<!-- Generator: Adobe Illustrator 16.0.0, SVG Export Plug-In . SVG Version: 6.00 Build 0)  -->
<!DOCTYPE svg PUBLIC "-//W3C//DTD SVG 1.1//EN" "http://www.w3.org/Graphics/SVG/1.1/DTD/svg11.dtd">
<svg version="1.1" id="Calque_1" xmlns="http://www.w3.org/2000/svg" xmlns:xlink="http://www.w3.org/1999/xlink" x="0px" y="0px"
	 width="75px" height="10px" viewBox="0 0 75 10" enable-background="new 0 0 75 10" xml:space="preserve">
<g>
	<path fill="#FFFFFF" d="M3.525,5.427c0-1.969,1.339-3.448,3.308-3.448c1.969,0,3.318,1.479,3.318,3.448
		c0,1.97-1.35,3.448-3.318,3.448S3.525,7.396,3.525,5.427z M9.292,5.427c0-1.56-0.969-2.709-2.458-2.709
		c-1.499,0-2.449,1.149-2.449,2.709c0,1.55,0.95,2.708,2.449,2.708C8.322,8.135,9.292,6.977,9.292,5.427z"/>
	<path fill="#FFFFFF" d="M10.915,8.755V3.928h0.75v0.77c0.39-0.5,0.95-0.88,1.609-0.88v0.77c-0.09-0.01-0.18-0.02-0.29-0.02
		c-0.47,0-1.099,0.38-1.319,0.77v3.418L10.915,8.755L10.915,8.755z"/>
	<path fill="#FFFFFF" d="M17.212,8.755v-0.72c-0.36,0.49-0.949,0.84-1.629,0.84c-1.259,0-2.149-0.96-2.149-2.527
		c0-1.551,0.89-2.54,2.149-2.54c0.649,0,1.239,0.319,1.629,0.85V2.09h0.75v6.666L17.212,8.755L17.212,8.755z M17.212,7.436V5.257
		c-0.26-0.42-0.85-0.779-1.439-0.779c-0.979,0-1.559,0.799-1.559,1.87c0,1.068,0.58,1.857,1.559,1.857
		C16.363,8.206,16.953,7.855,17.212,7.436z"/>
	<path fill="#FFFFFF" d="M18.964,8.755V3.928h0.75v0.77c0.39-0.5,0.95-0.88,1.609-0.88v0.77c-0.09-0.01-0.18-0.02-0.29-0.02
		c-0.47,0-1.099,0.38-1.319,0.77v3.418L18.964,8.755L18.964,8.755z"/>
	<path fill="#FFFFFF" d="M21.484,6.336c0-1.399,1-2.528,2.379-2.528c1.459,0,2.318,1.14,2.318,2.588v0.189h-3.897
		c0.06,0.909,0.689,1.669,1.729,1.669c0.56,0,1.109-0.22,1.499-0.618l0.36,0.488c-0.49,0.479-1.14,0.75-1.919,0.75
		C22.514,8.875,21.484,7.846,21.484,6.336z M23.853,4.428c-1.029,0-1.539,0.869-1.579,1.599h3.168
		C25.432,5.317,24.953,4.428,23.853,4.428z"/>
	<path fill="#FFFFFF" d="M32.482,8.755v-0.72c-0.36,0.49-0.949,0.84-1.629,0.84c-1.259,0-2.149-0.96-2.149-2.527
		c0-1.551,0.89-2.54,2.149-2.54c0.649,0,1.239,0.319,1.629,0.85V2.09h0.75v6.666L32.482,8.755L32.482,8.755z M32.482,7.436V5.257
		c-0.26-0.42-0.85-0.779-1.439-0.779c-0.979,0-1.559,0.799-1.559,1.87c0,1.068,0.58,1.857,1.559,1.857
		C31.632,8.206,32.222,7.855,32.482,7.436z"/>
	<path fill="#FFFFFF" d="M33.954,6.336c0-1.399,1-2.528,2.379-2.528c1.459,0,2.317,1.14,2.317,2.588v0.189h-3.896
		c0.06,0.909,0.689,1.669,1.729,1.669c0.56,0,1.109-0.22,1.499-0.618l0.36,0.488c-0.49,0.479-1.14,0.75-1.919,0.75
		C34.983,8.875,33.954,7.846,33.954,6.336z M36.323,4.428c-1.029,0-1.539,0.869-1.579,1.599h3.168
		C37.902,5.317,37.422,4.428,36.323,4.428z M36.253,3.199h-0.57l1.479-1.439h0.779L36.253,3.199z"/>
	<path fill="#FFFFFF" d="M39.084,6.336c0-1.429,0.969-2.528,2.408-2.528c0.88,0,1.4,0.359,1.77,0.84l-0.5,0.449
		c-0.318-0.439-0.729-0.619-1.229-0.619c-1.02,0-1.67,0.789-1.67,1.858c0,1.068,0.65,1.869,1.67,1.869c0.499,0,0.908-0.2,1.229-0.63
		l0.5,0.46c-0.369,0.479-0.89,0.84-1.77,0.84C40.053,8.875,39.084,7.766,39.084,6.336z"/>
	<path fill="#FFFFFF" d="M43.824,8.755V3.928h0.749v0.77c0.39-0.5,0.95-0.88,1.608-0.88v0.77c-0.09-0.01-0.181-0.02-0.289-0.02
		c-0.471,0-1.101,0.38-1.319,0.77v3.418L43.824,8.755L43.824,8.755z"/>
	<path fill="#FFFFFF" d="M46.344,6.336c0-1.399,0.92-2.528,2.389-2.528c1.47,0,2.39,1.129,2.39,2.528c0,1.398-0.92,2.539-2.39,2.539
		C47.264,8.875,46.344,7.736,46.344,6.336z M50.332,6.336c0-0.979-0.57-1.858-1.6-1.858c-1.03,0-1.601,0.879-1.601,1.858
		c0,0.989,0.57,1.869,1.601,1.869C49.762,8.205,50.332,7.326,50.332,6.336z"/>
	<path fill="#FFFFFF" d="M51.714,2.739c0-0.28,0.229-0.51,0.511-0.51c0.28,0,0.498,0.229,0.498,0.51c0,0.279-0.219,0.5-0.498,0.5
		C51.943,3.239,51.714,3.018,51.714,2.739z M51.844,8.755V3.928h0.75v4.827H51.844z"/>
	<path fill="#FFFFFF" d="M53.184,8.116l0.381-0.54c0.319,0.369,0.93,0.689,1.588,0.689c0.74,0,1.15-0.351,1.15-0.83
		c0-1.168-2.988-0.449-2.988-2.237c0-0.76,0.64-1.39,1.789-1.39c0.83,0,1.408,0.31,1.789,0.699l-0.351,0.521
		c-0.29-0.351-0.81-0.61-1.438-0.61c-0.66,0-1.069,0.33-1.069,0.76c0,1.05,2.987,0.36,2.987,2.239c0,0.81-0.648,1.459-1.889,1.459
		C54.334,8.875,53.674,8.625,53.184,8.116z"/>
	<path fill="#FFFFFF" d="M57.334,8.116l0.38-0.54c0.319,0.369,0.929,0.689,1.589,0.689c0.74,0,1.149-0.351,1.149-0.83
		c0-1.168-2.988-0.449-2.988-2.237c0-0.76,0.64-1.39,1.789-1.39c0.829,0,1.409,0.31,1.789,0.699l-0.351,0.521
		c-0.289-0.351-0.81-0.61-1.438-0.61c-0.659,0-1.069,0.33-1.069,0.76c0,1.05,2.988,0.36,2.988,2.239c0,0.81-0.65,1.459-1.889,1.459
		C58.482,8.875,57.824,8.625,57.334,8.116z"/>
	<path fill="#FFFFFF" d="M64.912,8.755v-0.55c-0.391,0.439-0.949,0.67-1.6,0.67c-0.81,0-1.68-0.55-1.68-1.6
		c0-1.09,0.859-1.589,1.68-1.589c0.66,0,1.209,0.21,1.6,0.649V5.466c0-0.64-0.52-1.01-1.219-1.01c-0.58,0-1.051,0.2-1.48,0.67
		l-0.35-0.52c0.52-0.54,1.14-0.8,1.93-0.8c1.029,0,1.869,0.46,1.869,1.629v3.318h-0.75V8.755z M64.912,7.736v-0.92
		c-0.29-0.391-0.801-0.59-1.319-0.59c-0.71,0-1.198,0.439-1.198,1.049c0,0.621,0.488,1.061,1.198,1.061
		C64.111,8.335,64.622,8.135,64.912,7.736z"/>
	<path fill="#FFFFFF" d="M69.941,8.755V5.597c0-0.859-0.439-1.119-1.09-1.119c-0.59,0-1.14,0.359-1.43,0.749v3.528h-0.749V3.928
		h0.749v0.699c0.34-0.409,0.999-0.819,1.729-0.819c1,0,1.529,0.51,1.529,1.56v3.388L69.941,8.755L69.941,8.755z"/>
	<path fill="#FFFFFF" d="M71.844,7.746V4.588h-0.8V3.929h0.8V2.61h0.76v1.319h0.979v0.659h-0.979v2.999
		c0,0.358,0.16,0.619,0.479,0.619c0.222,0,0.41-0.101,0.51-0.21l0.222,0.57c-0.189,0.18-0.461,0.31-0.891,0.31
		C72.203,8.875,71.844,8.465,71.844,7.746z"/>
</g>
</svg>
