<?xml version="1.0" encoding="utf-8"?>
<!-- Generator: Adobe Illustrator 16.0.0, SVG Export Plug-In . SVG Version: 6.00 Build 0)  -->
<!DOCTYPE svg PUBLIC "-//W3C//DTD SVG 1.1//EN" "http://www.w3.org/Graphics/SVG/1.1/DTD/svg11.dtd">
<svg version="1.1" id="Calque_1" xmlns="http://www.w3.org/2000/svg" xmlns:xlink="http://www.w3.org/1999/xlink" x="0px" y="0px"
	 width="70px" height="10px" viewBox="0 0 70 10" enable-background="new 0 0 70 10" xml:space="preserve">
<g>
	<path fill="#FFFFFF" d="M5.525,5.118c0-1.969,1.339-3.448,3.308-3.448c1.969,0,3.318,1.479,3.318,3.448
		c0,1.968-1.35,3.448-3.318,3.448S5.525,7.086,5.525,5.118z M11.292,5.118c0-1.56-0.969-2.709-2.458-2.709
		c-1.499,0-2.449,1.149-2.449,2.709c0,1.548,0.95,2.708,2.449,2.708C10.322,7.825,11.292,6.666,11.292,5.118z"/>
	<path fill="#FFFFFF" d="M12.915,8.444V3.619h0.75v0.77c0.39-0.5,0.95-0.88,1.609-0.88v0.77c-0.09-0.01-0.18-0.02-0.29-0.02
		c-0.47,0-1.099,0.38-1.319,0.771v3.417h-0.75V8.444z"/>
	<path fill="#FFFFFF" d="M19.212,8.444V7.726c-0.36,0.489-0.949,0.84-1.629,0.84c-1.259,0-2.149-0.961-2.149-2.528
		c0-1.55,0.89-2.539,2.149-2.539c0.649,0,1.239,0.319,1.629,0.85V1.781h0.75v6.666h-0.75V8.444z M19.212,7.126V4.948
		c-0.26-0.42-0.85-0.779-1.439-0.779c-0.979,0-1.559,0.799-1.559,1.869c0,1.069,0.58,1.858,1.559,1.858
		C18.363,7.896,18.953,7.546,19.212,7.126z"/>
	<path fill="#FFFFFF" d="M20.964,8.444V3.619h0.75v0.77c0.39-0.5,0.95-0.88,1.609-0.88v0.77c-0.09-0.01-0.18-0.02-0.29-0.02
		c-0.47,0-1.099,0.38-1.319,0.771v3.417h-0.75V8.444z"/>
	<path fill="#FFFFFF" d="M23.484,6.026c0-1.399,1-2.528,2.379-2.528c1.459,0,2.318,1.14,2.318,2.588v0.189h-3.897
		c0.06,0.908,0.689,1.668,1.729,1.668c0.56,0,1.109-0.219,1.499-0.618l0.36,0.489c-0.49,0.479-1.14,0.75-1.919,0.75
		C24.514,8.565,23.484,7.536,23.484,6.026z M25.853,4.119c-1.029,0-1.539,0.869-1.579,1.599h3.168
		C27.432,5.007,26.953,4.119,25.853,4.119z"/>
	<path fill="#FFFFFF" d="M30.704,6.026c0-1.429,0.969-2.528,2.409-2.528c0.879,0,1.399,0.359,1.769,0.84l-0.5,0.449
		c-0.32-0.439-0.73-0.619-1.229-0.619c-1.02,0-1.669,0.789-1.669,1.858c0,1.068,0.649,1.869,1.669,1.869
		c0.5,0,0.91-0.201,1.229-0.631l0.5,0.461c-0.37,0.479-0.89,0.84-1.769,0.84C31.673,8.565,30.704,7.456,30.704,6.026z"/>
	<path fill="#FFFFFF" d="M35.444,8.444V3.619h0.75v0.77c0.392-0.5,0.949-0.88,1.609-0.88v0.77c-0.09-0.01-0.18-0.02-0.289-0.02
		c-0.471,0-1.1,0.38-1.32,0.771v3.417h-0.75V8.444z"/>
	<path fill="#FFFFFF" d="M37.964,6.026c0-1.399,0.919-2.528,2.39-2.528c1.469,0,2.389,1.129,2.389,2.528
		c0,1.398-0.919,2.539-2.389,2.539C38.883,8.565,37.964,7.426,37.964,6.026z M41.951,6.026c0-0.979-0.569-1.858-1.6-1.858
		c-1.029,0-1.599,0.879-1.599,1.858c0,0.988,0.569,1.869,1.599,1.869C41.382,7.896,41.951,7.017,41.951,6.026z"/>
	<path fill="#FFFFFF" d="M43.334,2.43c0-0.28,0.23-0.51,0.51-0.51c0.28,0,0.5,0.229,0.5,0.51c0,0.279-0.221,0.5-0.5,0.5
		S43.334,2.708,43.334,2.43z M43.464,8.444V3.619h0.749v4.826H43.464z"/>
	<path fill="#FFFFFF" d="M44.805,7.806l0.379-0.539c0.32,0.369,0.93,0.689,1.59,0.689c0.74,0,1.148-0.352,1.148-0.83
		c0-1.168-2.988-0.449-2.988-2.237c0-0.76,0.642-1.39,1.789-1.39c0.83,0,1.41,0.31,1.789,0.699l-0.35,0.521
		c-0.289-0.351-0.811-0.61-1.439-0.61c-0.658,0-1.068,0.33-1.068,0.76c0,1.05,2.988,0.359,2.988,2.238
		c0,0.811-0.649,1.459-1.89,1.459C45.953,8.565,45.294,8.315,44.805,7.806z"/>
	<path fill="#FFFFFF" d="M48.954,7.806l0.38-0.539c0.32,0.369,0.93,0.689,1.589,0.689c0.739,0,1.149-0.352,1.149-0.83
		c0-1.168-2.988-0.449-2.988-2.237c0-0.76,0.641-1.39,1.789-1.39c0.83,0,1.409,0.31,1.789,0.699l-0.35,0.521
		c-0.291-0.351-0.812-0.61-1.439-0.61c-0.66,0-1.068,0.33-1.068,0.76c0,1.05,2.987,0.359,2.987,2.238
		c0,0.811-0.649,1.459-1.89,1.459C50.104,8.565,49.443,8.315,48.954,7.806z"/>
	<path fill="#FFFFFF" d="M56.532,8.444V7.896c-0.39,0.438-0.95,0.67-1.599,0.67c-0.812,0-1.681-0.551-1.681-1.601
		c0-1.088,0.858-1.588,1.681-1.588c0.658,0,1.209,0.21,1.599,0.648V5.157c0-0.64-0.521-1.01-1.22-1.01c-0.58,0-1.049,0.2-1.479,0.67
		l-0.351-0.52c0.521-0.54,1.14-0.8,1.929-0.8c1.028,0,1.868,0.46,1.868,1.629v3.317h-0.747V8.444z M56.532,7.426V6.507
		c-0.29-0.391-0.8-0.589-1.319-0.589c-0.709,0-1.199,0.439-1.199,1.048c0,0.62,0.49,1.061,1.199,1.061
		C55.732,8.024,56.242,7.825,56.532,7.426z"/>
	<path fill="#FFFFFF" d="M61.562,8.444V5.288c0-0.859-0.439-1.119-1.09-1.119c-0.59,0-1.14,0.359-1.43,0.749v3.527h-0.75V3.619h0.75
		v0.699c0.34-0.409,1-0.819,1.729-0.819c1,0,1.529,0.51,1.529,1.56v3.388h-0.738V8.444z"/>
	<path fill="#FFFFFF" d="M63.463,7.437V4.278h-0.799V3.62h0.799v-1.32h0.76v1.319h0.98v0.659h-0.98v2.999
		c0,0.358,0.16,0.619,0.48,0.619c0.22,0,0.41-0.101,0.51-0.211l0.221,0.57c-0.19,0.18-0.461,0.311-0.891,0.311
		C63.823,8.565,63.463,8.155,63.463,7.437z"/>
</g>
</svg>
