<?xml version="1.0" encoding="utf-8"?>
<!-- Generator: Adobe Illustrator 16.0.0, SVG Export Plug-In . SVG Version: 6.00 Build 0)  -->
<!DOCTYPE svg PUBLIC "-//W3C//DTD SVG 1.1//EN" "http://www.w3.org/Graphics/SVG/1.1/DTD/svg11.dtd">
<svg version="1.1" id="Calque_1" xmlns="http://www.w3.org/2000/svg" xmlns:xlink="http://www.w3.org/1999/xlink" x="0px" y="0px"
	 width="8px" height="16px" viewBox="0 0 8 16" enable-background="new 0 0 8 16" xml:space="preserve">
<path fill="#FFFFFF" d="M4,0C1.794,0,0,1.794,0,4c0,2.208,1.794,4.001,4,4.001S8,6.208,8,4C8,1.794,6.205,0,4,0z"/>
<g>
	<path fill="#FFFFFF" d="M4,16c-2.206,0-4-1.795-4-4c0-2.207,1.794-4.001,4-4.001S8,9.793,8,12C8,14.205,6.206,16,4,16z M4,9
		c-1.654,0-3,1.346-3,3.001c0,1.654,1.346,3,3,3c1.654,0,3-1.346,3-3C7,10.346,5.654,9,4,9z"/>
</g>
</svg>
