<?xml version="1.0" encoding="utf-8"?>
<!-- Generator: Adobe Illustrator 16.0.0, SVG Export Plug-In . SVG Version: 6.00 Build 0)  -->
<!DOCTYPE svg PUBLIC "-//W3C//DTD SVG 1.1//EN" "http://www.w3.org/Graphics/SVG/1.1/DTD/svg11.dtd">
<svg version="1.1" id="Calque_1" xmlns="http://www.w3.org/2000/svg" xmlns:xlink="http://www.w3.org/1999/xlink" x="0px" y="0px"
	 width="570px" height="50px" viewBox="0 0 570 50" enable-background="new 0 0 570 50" xml:space="preserve">
<g>
	<path fill="#FFFFFF" d="M2.563,21.229V6.553h6.469c3.081,0,4.774,2.09,4.774,4.599c0,2.486-1.716,4.576-4.774,4.576H5.138v5.501
		H2.563z M11.167,11.152c0-1.408-1.034-2.333-2.486-2.333H5.138v4.643H8.68C10.132,13.461,11.167,12.538,11.167,11.152z"/>
	<path fill="#FFFFFF" d="M20.868,21.229v-1.166c-0.792,0.924-2.046,1.43-3.455,1.43c-1.716,0-3.674-1.188-3.674-3.521
		c0-2.464,1.936-3.477,3.674-3.477c1.452,0,2.663,0.463,3.455,1.364v-1.584c0-1.232-1.034-1.98-2.486-1.98
		c-1.188,0-2.245,0.44-3.146,1.364l-0.968-1.606c1.232-1.188,2.772-1.716,4.467-1.716c2.376,0,4.444,0.99,4.444,3.828v7.063H20.868z
		 M20.868,18.809V17.18c-0.55-0.726-1.541-1.1-2.53-1.1c-1.298,0-2.289,0.77-2.289,1.914c0,1.166,0.99,1.914,2.289,1.914
		C19.328,19.909,20.318,19.535,20.868,18.809z"/>
	<path fill="#FFFFFF" d="M25.069,21.229V10.601h2.311v1.541c0.814-1.013,2.09-1.805,3.455-1.805v2.288
		c-0.198-0.044-0.418-0.065-0.704-0.065c-0.99,0-2.289,0.66-2.75,1.43v7.239H25.069z"/>
	<path fill="#FFFFFF" d="M42.691,21.229v-1.166c-0.792,0.924-2.046,1.43-3.455,1.43c-1.716,0-3.674-1.188-3.674-3.521
		c0-2.464,1.936-3.477,3.674-3.477c1.452,0,2.663,0.463,3.455,1.364v-1.584c0-1.232-1.034-1.98-2.486-1.98
		c-1.188,0-2.245,0.44-3.146,1.364l-0.968-1.606c1.232-1.188,2.772-1.716,4.467-1.716c2.376,0,4.444,0.99,4.444,3.828v7.063H42.691z
		 M42.691,18.809V17.18c-0.55-0.726-1.541-1.1-2.53-1.1c-1.298,0-2.289,0.77-2.289,1.914c0,1.166,0.99,1.914,2.289,1.914
		C41.151,19.909,42.141,19.535,42.691,18.809z"/>
	<path fill="#FFFFFF" d="M54.087,21.229v-6.645c0-1.673-0.858-2.201-2.156-2.201c-1.167,0-2.179,0.704-2.729,1.408v7.438h-2.311
		V10.601h2.311v1.431c0.704-0.836,2.09-1.694,3.762-1.694c2.289,0,3.433,1.232,3.433,3.41v7.481H54.087z"/>
	<path fill="#FFFFFF" d="M59.103,24.156l-1.056-0.858c0.704-0.418,1.452-1.32,1.584-2.068c-0.044,0.022-0.22,0.066-0.374,0.066
		c-0.726,0-1.298-0.595-1.298-1.408c0-0.814,0.66-1.497,1.497-1.497c0.902,0,1.694,0.727,1.694,2.003
		C61.148,21.911,60.312,23.297,59.103,24.156z"/>
	<path fill="#FFFFFF" d="M66.516,15.904c0-3.212,2.267-5.566,5.479-5.566c2.09,0,3.322,0.88,4.071,1.893l-1.519,1.386
		c-0.594-0.836-1.408-1.232-2.442-1.232c-1.914,0-3.212,1.452-3.212,3.521s1.298,3.543,3.212,3.543c1.034,0,1.849-0.44,2.442-1.276
		l1.519,1.431c-0.749,0.99-1.98,1.892-4.071,1.892C68.782,21.493,66.516,19.117,66.516,15.904z"/>
	<path fill="#FFFFFF" d="M76.371,15.904c0-3.058,2.068-5.566,5.457-5.566s5.457,2.509,5.457,5.566c0,3.037-2.068,5.589-5.457,5.589
		S76.371,18.941,76.371,15.904z M84.887,15.904c0-1.87-1.078-3.521-3.059-3.521c-1.958,0-3.059,1.65-3.059,3.521
		c0,1.893,1.1,3.543,3.059,3.543C83.809,19.447,84.887,17.796,84.887,15.904z"/>
	<path fill="#FFFFFF" d="M101.585,21.229v-6.931c0-1.145-0.506-1.915-1.76-1.915c-1.034,0-2.002,0.704-2.464,1.408v7.438h-2.31
		v-6.931c0-1.145-0.484-1.915-1.738-1.915c-1.034,0-1.98,0.727-2.464,1.408v7.438h-2.311V10.601h2.311v1.431
		c0.462-0.638,1.848-1.694,3.477-1.694c1.584,0,2.552,0.792,2.904,1.937c0.594-0.946,2.002-1.937,3.608-1.937
		c1.937,0,3.059,1.057,3.059,3.213v7.679H101.585z"/>
	<path fill="#FFFFFF" d="M105.785,21.229V6.553h2.311v5.522c0.858-1.145,2.09-1.738,3.41-1.738c2.75,0,4.731,2.135,4.731,5.566
		c0,3.521-2.002,5.589-4.731,5.589c-1.364,0-2.596-0.66-3.41-1.716v1.452H105.785z M110.846,19.447c1.826,0,2.992-1.475,2.992-3.543
		c0-2.046-1.166-3.521-2.992-3.521c-1.1,0-2.223,0.639-2.75,1.431v4.225C108.624,18.831,109.746,19.447,110.846,19.447z"/>
	<path fill="#FFFFFF" d="M117.203,7.874c0-0.793,0.638-1.431,1.431-1.431c0.792,0,1.43,0.638,1.43,1.431
		c0,0.792-0.638,1.43-1.43,1.43C117.841,9.303,117.203,8.666,117.203,7.874z M117.467,21.229V10.601h2.311v10.628H117.467z"/>
	<path fill="#FFFFFF" d="M121.031,15.904c0-3.08,2.245-5.566,5.391-5.566c3.19,0,5.215,2.42,5.215,5.765v0.572h-8.186
		c0.176,1.584,1.364,2.927,3.367,2.927c1.056,0,2.266-0.418,3.037-1.188l1.056,1.519c-1.078,1.012-2.64,1.562-4.312,1.562
		C123.385,21.493,121.031,19.271,121.031,15.904z M126.4,12.23c-1.958,0-2.882,1.518-2.971,2.794h5.985
		C129.348,13.77,128.49,12.23,126.4,12.23z"/>
	<path fill="#FFFFFF" d="M140.018,21.229v-6.645c0-1.673-0.858-2.201-2.156-2.201c-1.167,0-2.179,0.704-2.729,1.408v7.438h-2.311
		V10.601h2.311v1.431c0.704-0.836,2.09-1.694,3.762-1.694c2.289,0,3.433,1.232,3.433,3.41v7.481H140.018z"/>
	<path fill="#FFFFFF" d="M156.275,21.229v-1.452c-0.814,1.056-2.024,1.716-3.41,1.716c-2.707,0-4.709-2.068-4.709-5.589
		c0-3.432,1.98-5.566,4.709-5.566c1.342,0,2.574,0.594,3.41,1.738V6.553h2.311v14.676H156.275z M156.275,18.016v-4.202
		c-0.506-0.792-1.65-1.431-2.728-1.431c-1.848,0-3.015,1.475-3.015,3.521c0,2.068,1.167,3.543,3.015,3.543
		C154.625,19.447,155.77,18.809,156.275,18.016z"/>
	<path fill="#FFFFFF" d="M159.838,15.904c0-3.08,2.245-5.566,5.391-5.566c3.19,0,5.215,2.42,5.215,5.765v0.572h-8.186
		c0.176,1.584,1.364,2.927,3.367,2.927c1.056,0,2.266-0.418,3.037-1.188l1.056,1.519c-1.078,1.012-2.64,1.562-4.312,1.562
		C162.193,21.493,159.838,19.271,159.838,15.904z M165.208,12.23c-1.958,0-2.882,1.518-2.971,2.794h5.985
		C168.156,13.77,167.298,12.23,165.208,12.23z"/>
	<path fill="#FFFFFF" d="M172.488,24.772l0.682-1.717c0.396,0.353,0.814,0.594,1.474,0.594c0.924,0,1.562-0.55,1.562-1.804V10.601
		h2.311v11.244c0,2.267-1.166,3.696-3.521,3.696C173.764,25.542,173.214,25.299,172.488,24.772z M175.942,7.874
		c0-0.793,0.638-1.431,1.43-1.431c0.792,0,1.43,0.638,1.43,1.431c0,0.792-0.638,1.43-1.43,1.43
		C176.58,9.303,175.942,8.666,175.942,7.874z"/>
	<path fill="#FFFFFF" d="M179.77,15.904c0-3.058,2.068-5.566,5.457-5.566s5.457,2.509,5.457,5.566c0,3.037-2.068,5.589-5.457,5.589
		S179.77,18.941,179.77,15.904z M188.286,15.904c0-1.87-1.078-3.521-3.059-3.521c-1.958,0-3.059,1.65-3.059,3.521
		c0,1.893,1.1,3.543,3.059,3.543C187.208,19.447,188.286,17.796,188.286,15.904z"/>
	<path fill="#FFFFFF" d="M199.109,21.229v-1.408c-0.748,0.836-2.068,1.672-3.741,1.672c-2.289,0-3.433-1.21-3.433-3.366v-7.525
		h2.311v6.667c0,1.65,0.836,2.179,2.156,2.179c1.166,0,2.178-0.682,2.707-1.387v-7.459h2.31v10.628H199.109z"/>
	<path fill="#FFFFFF" d="M203.31,21.229V10.601h2.311v1.541c0.814-1.013,2.09-1.805,3.455-1.805v2.288
		c-0.198-0.044-0.418-0.065-0.704-0.065c-0.99,0-2.289,0.66-2.75,1.43v7.239H203.31z"/>
	<path fill="#FFFFFF" d="M208.941,19.821l1.056-1.65c0.748,0.771,2.222,1.475,3.586,1.475c1.386,0,2.112-0.572,2.112-1.408
		c0-2.091-6.425-0.595-6.425-4.687c0-1.738,1.496-3.213,4.181-3.213c1.804,0,3.168,0.638,4.114,1.475l-0.968,1.628
		c-0.638-0.704-1.805-1.276-3.146-1.276c-1.21,0-1.958,0.572-1.958,1.32c0,1.87,6.425,0.462,6.425,4.687
		c0,1.893-1.562,3.322-4.423,3.322C211.669,21.493,210.042,20.899,208.941,19.821z"/>
	<path fill="#FFFFFF" d="M223.703,21.229V10.601h2.311v1.541c0.814-1.013,2.09-1.805,3.454-1.805v2.288
		c-0.197-0.044-0.418-0.065-0.704-0.065c-0.99,0-2.288,0.66-2.75,1.43v7.239H223.703z"/>
	<path fill="#FFFFFF" d="M229.599,15.904c0-3.08,2.244-5.566,5.391-5.566c3.19,0,5.215,2.42,5.215,5.765v0.572h-8.186
		c0.176,1.584,1.364,2.927,3.366,2.927c1.057,0,2.267-0.418,3.037-1.188l1.056,1.519c-1.078,1.012-2.64,1.562-4.312,1.562
		C231.953,21.493,229.599,19.271,229.599,15.904z M234.967,12.23c-1.958,0-2.882,1.518-2.97,2.794h5.984
		C237.916,13.77,237.058,12.23,234.967,12.23z"/>
	<path fill="#FFFFFF" d="M240.488,19.821l1.057-1.65c0.748,0.771,2.223,1.475,3.586,1.475c1.387,0,2.112-0.572,2.112-1.408
		c0-2.091-6.425-0.595-6.425-4.687c0-1.738,1.496-3.213,4.181-3.213c1.805,0,3.169,0.638,4.115,1.475l-0.969,1.628
		c-0.638-0.704-1.804-1.276-3.146-1.276c-1.21,0-1.958,0.572-1.958,1.32c0,1.87,6.425,0.462,6.425,4.687
		c0,1.893-1.562,3.322-4.423,3.322C243.217,21.493,241.589,20.899,240.488,19.821z"/>
	<path fill="#FFFFFF" d="M252.984,19.754v5.523h-2.311V10.601h2.311v1.452c0.792-1.056,2.024-1.716,3.41-1.716
		c2.751,0,4.709,2.068,4.709,5.566c0,3.499-1.958,5.589-4.709,5.589C255.053,21.493,253.864,20.876,252.984,19.754z M258.728,15.904
		c0-2.068-1.188-3.521-3.015-3.521c-1.078,0-2.2,0.616-2.729,1.408v4.203c0.506,0.792,1.65,1.452,2.729,1.452
		C257.539,19.447,258.728,17.972,258.728,15.904z"/>
	<path fill="#FFFFFF" d="M262.048,7.874c0-0.793,0.638-1.431,1.43-1.431s1.431,0.638,1.431,1.431c0,0.792-0.639,1.43-1.431,1.43
		S262.048,8.666,262.048,7.874z M262.312,21.229V10.601h2.311v10.628H262.312z"/>
	<path fill="#FFFFFF" d="M266.514,21.229V10.601h2.311v1.541c0.814-1.013,2.09-1.805,3.454-1.805v2.288
		c-0.197-0.044-0.418-0.065-0.704-0.065c-0.99,0-2.288,0.66-2.75,1.43v7.239H266.514z"/>
	<path fill="#FFFFFF" d="M272.41,15.904c0-3.08,2.244-5.566,5.391-5.566c3.19,0,5.215,2.42,5.215,5.765v0.572h-8.186
		c0.176,1.584,1.364,2.927,3.366,2.927c1.057,0,2.267-0.418,3.037-1.188l1.056,1.519c-1.078,1.012-2.641,1.562-4.312,1.562
		C274.765,21.493,272.41,19.271,272.41,15.904z M277.778,12.23c-1.958,0-2.882,1.518-2.97,2.794h5.984
		C280.728,13.77,279.869,12.23,277.778,12.23z"/>
	<path fill="#FFFFFF" d="M283.739,21.229v-1.761l5.236-6.864h-5.236v-2.003h8.339v1.673l-5.324,6.931h5.412v2.024H283.739z"/>
	<path fill="#FFFFFF" d="M292.737,16.894v-1.979h5.28v1.979H292.737z"/>
	<path fill="#FFFFFF" d="M301.868,21.229l-4.335-10.628h2.486l3.103,7.966l3.103-7.966h2.464l-4.334,10.628H301.868z"/>
	<path fill="#FFFFFF" d="M308.401,15.904c0-3.058,2.068-5.566,5.456-5.566c3.389,0,5.457,2.509,5.457,5.566
		c0,3.037-2.068,5.589-5.457,5.589C310.47,21.493,308.401,18.941,308.401,15.904z M316.916,15.904c0-1.87-1.078-3.521-3.059-3.521
		c-1.958,0-3.058,1.65-3.058,3.521c0,1.893,1.1,3.543,3.058,3.543C315.838,19.447,316.916,17.796,316.916,15.904z"/>
	<path fill="#FFFFFF" d="M327.739,21.229v-1.408c-0.748,0.836-2.068,1.672-3.74,1.672c-2.288,0-3.433-1.21-3.433-3.366v-7.525h2.311
		v6.667c0,1.65,0.836,2.179,2.156,2.179c1.166,0,2.179-0.682,2.706-1.387v-7.459h2.311v10.628H327.739z"/>
	<path fill="#FFFFFF" d="M331.038,19.821l1.057-1.65c0.748,0.771,2.222,1.475,3.586,1.475c1.387,0,2.112-0.572,2.112-1.408
		c0-2.091-6.425-0.595-6.425-4.687c0-1.738,1.496-3.213,4.181-3.213c1.805,0,3.169,0.638,4.115,1.475l-0.969,1.628
		c-0.638-0.704-1.804-1.276-3.146-1.276c-1.21,0-1.958,0.572-1.958,1.32c0,1.87,6.425,0.462,6.425,4.687
		c0,1.893-1.562,3.322-4.423,3.322C333.767,21.493,332.139,20.899,331.038,19.821z"/>
	<path fill="#FFFFFF" d="M352.973,21.229v-1.408c-0.748,0.836-2.068,1.672-3.74,1.672c-2.288,0-3.433-1.21-3.433-3.366v-7.525h2.311
		v6.667c0,1.65,0.836,2.179,2.156,2.179c1.166,0,2.179-0.682,2.706-1.387v-7.459h2.311v10.628H352.973z"/>
	<path fill="#FFFFFF" d="M364.369,21.229v-6.645c0-1.673-0.858-2.201-2.156-2.201c-1.166,0-2.179,0.704-2.729,1.408v7.438h-2.311
		V10.601h2.311v1.431c0.704-0.836,2.09-1.694,3.763-1.694c2.288,0,3.433,1.232,3.433,3.41v7.481H364.369z"/>
	<path fill="#FFFFFF" d="M379.658,21.229v-1.166c-0.792,0.924-2.046,1.43-3.454,1.43c-1.716,0-3.675-1.188-3.675-3.521
		c0-2.464,1.937-3.477,3.675-3.477c1.452,0,2.662,0.463,3.454,1.364v-1.584c0-1.232-1.034-1.98-2.486-1.98
		c-1.188,0-2.244,0.44-3.146,1.364l-0.968-1.606c1.232-1.188,2.772-1.716,4.467-1.716c2.376,0,4.444,0.99,4.444,3.828v7.063H379.658
		z M379.658,18.809V17.18c-0.55-0.726-1.54-1.1-2.53-1.1c-1.298,0-2.288,0.77-2.288,1.914c0,1.166,0.99,1.914,2.288,1.914
		C378.118,19.909,379.108,19.535,379.658,18.809z"/>
	<path fill="#FFFFFF" d="M383.596,7.874c0-0.793,0.638-1.431,1.43-1.431s1.431,0.638,1.431,1.431c0,0.792-0.639,1.43-1.431,1.43
		S383.596,8.666,383.596,7.874z M383.859,21.229V10.601h2.311v10.628H383.859z"/>
	<path fill="#FFFFFF" d="M388.061,21.229V10.601h2.311v1.541c0.814-1.013,2.09-1.805,3.454-1.805v2.288
		c-0.197-0.044-0.418-0.065-0.704-0.065c-0.99,0-2.288,0.66-2.75,1.43v7.239H388.061z"/>
	<path fill="#FFFFFF" d="M406.652,21.229v-1.452c-0.814,1.056-2.024,1.716-3.411,1.716c-2.706,0-4.708-2.068-4.708-5.589
		c0-3.432,1.98-5.566,4.708-5.566c1.343,0,2.575,0.594,3.411,1.738V6.553h2.311v14.676H406.652z M406.652,18.016v-4.202
		c-0.506-0.792-1.65-1.431-2.729-1.431c-1.849,0-3.015,1.475-3.015,3.521c0,2.068,1.166,3.543,3.015,3.543
		C405.002,19.447,406.146,18.809,406.652,18.016z"/>
	<path fill="#FFFFFF" d="M410.215,15.904c0-3.08,2.244-5.566,5.391-5.566c3.19,0,5.215,2.42,5.215,5.765v0.572h-8.186
		c0.176,1.584,1.364,2.927,3.366,2.927c1.057,0,2.267-0.418,3.037-1.188l1.056,1.519c-1.078,1.012-2.641,1.562-4.312,1.562
		C412.569,21.493,410.215,19.271,410.215,15.904z M415.583,12.23c-1.958,0-2.882,1.518-2.97,2.794h5.984
		C418.532,13.77,417.674,12.23,415.583,12.23z"/>
	<path fill="#FFFFFF" d="M426.582,21.229V6.553h2.311v5.522c0.858-1.145,2.09-1.738,3.41-1.738c2.751,0,4.73,2.135,4.73,5.566
		c0,3.521-2.002,5.589-4.73,5.589c-1.364,0-2.596-0.66-3.41-1.716v1.452H426.582z M431.643,19.447c1.826,0,2.993-1.475,2.993-3.543
		c0-2.046-1.167-3.521-2.993-3.521c-1.1,0-2.222,0.639-2.75,1.431v4.225C429.421,18.831,430.543,19.447,431.643,19.447z"/>
	<path fill="#FFFFFF" d="M437.626,15.904c0-3.058,2.068-5.566,5.456-5.566c3.389,0,5.457,2.509,5.457,5.566
		c0,3.037-2.068,5.589-5.457,5.589C439.694,21.493,437.626,18.941,437.626,15.904z M446.141,15.904c0-1.87-1.078-3.521-3.059-3.521
		c-1.958,0-3.058,1.65-3.058,3.521c0,1.893,1.1,3.543,3.058,3.543C445.062,19.447,446.141,17.796,446.141,15.904z"/>
	<path fill="#FFFFFF" d="M456.987,21.229v-6.645c0-1.673-0.858-2.201-2.156-2.201c-1.166,0-2.179,0.704-2.729,1.408v7.438h-2.311
		V10.601h2.311v1.431c0.704-0.836,2.09-1.694,3.763-1.694c2.288,0,3.433,1.232,3.433,3.41v7.481H456.987z"/>
	<path fill="#FFFFFF" d="M468.383,21.229v-6.645c0-1.673-0.858-2.201-2.156-2.201c-1.166,0-2.179,0.704-2.729,1.408v7.438h-2.311
		V10.601h2.311v1.431c0.704-0.836,2.09-1.694,3.763-1.694c2.288,0,3.433,1.232,3.433,3.41v7.481H468.383z"/>
	<path fill="#FFFFFF" d="M471.946,15.904c0-3.08,2.244-5.566,5.391-5.566c3.19,0,5.215,2.42,5.215,5.765v0.572h-8.186
		c0.176,1.584,1.364,2.927,3.366,2.927c1.057,0,2.267-0.418,3.037-1.188l1.056,1.519c-1.078,1.012-2.64,1.562-4.312,1.562
		C474.301,21.493,471.946,19.271,471.946,15.904z M477.314,12.23c-1.958,0-2.882,1.518-2.97,2.794h5.984
		C480.264,13.77,479.405,12.23,477.314,12.23z"/>
	<path fill="#FFFFFF" d="M487.632,15.904c0-3.498,1.958-5.566,4.708-5.566c1.387,0,2.619,0.66,3.411,1.716v-1.452h2.31v14.677h-2.31
		v-5.523c-0.881,1.122-2.068,1.738-3.411,1.738C489.59,21.493,487.632,19.403,487.632,15.904z M495.751,17.995v-4.203
		c-0.528-0.792-1.65-1.408-2.729-1.408c-1.826,0-3.015,1.452-3.015,3.521s1.188,3.543,3.015,3.543
		C494.101,19.447,495.244,18.787,495.751,17.995z"/>
	<path fill="#FFFFFF" d="M507.124,21.229v-1.408c-0.748,0.836-2.068,1.672-3.74,1.672c-2.288,0-3.433-1.21-3.433-3.366v-7.525h2.311
		v6.667c0,1.65,0.836,2.179,2.156,2.179c1.166,0,2.179-0.682,2.706-1.387v-7.459h2.311v10.628H507.124z"/>
	<path fill="#FFFFFF" d="M517.838,21.229v-1.166c-0.792,0.924-2.046,1.43-3.454,1.43c-1.716,0-3.675-1.188-3.675-3.521
		c0-2.464,1.937-3.477,3.675-3.477c1.452,0,2.662,0.463,3.454,1.364v-1.584c0-1.232-1.034-1.98-2.486-1.98
		c-1.188,0-2.244,0.44-3.146,1.364l-0.968-1.606c1.232-1.188,2.772-1.716,4.467-1.716c2.376,0,4.444,0.99,4.444,3.828v7.063H517.838
		z M517.838,18.809V17.18c-0.55-0.726-1.54-1.1-2.53-1.1c-1.298,0-2.288,0.77-2.288,1.914c0,1.166,0.99,1.914,2.288,1.914
		C516.298,19.909,517.288,19.535,517.838,18.809z"/>
	<path fill="#FFFFFF" d="M522.038,21.229V6.553h2.311v14.676H522.038z"/>
	<path fill="#FFFFFF" d="M525.977,7.874c0-0.793,0.638-1.431,1.43-1.431s1.431,0.638,1.431,1.431c0,0.792-0.639,1.43-1.431,1.43
		S525.977,8.666,525.977,7.874z M526.24,21.229V10.601h2.311v10.628H526.24z"/>
	<path fill="#FFFFFF" d="M530.927,18.743v-6.139h-1.761v-2.003h1.761V7.697h2.311v2.904h2.156v2.003h-2.156v5.566
		c0,0.727,0.352,1.276,1.012,1.276c0.44,0,0.836-0.198,1.012-0.396l0.551,1.761c-0.418,0.374-1.101,0.682-2.156,0.682
		C531.851,21.493,530.927,20.525,530.927,18.743z"/>
	<path fill="#FFFFFF" d="M535.723,15.904c0-3.08,2.244-5.566,5.391-5.566c3.19,0,5.215,2.42,5.215,5.765v0.572h-8.186
		c0.176,1.584,1.364,2.927,3.366,2.927c1.057,0,2.267-0.418,3.037-1.188l1.056,1.519c-1.078,1.012-2.641,1.562-4.312,1.562
		C538.077,21.493,535.723,19.271,535.723,15.904z M541.091,12.23c-1.958,0-2.882,1.518-2.97,2.794h5.984
		C544.04,13.77,543.182,12.23,541.091,12.23z M541.135,8.996h-1.649l3.08-3.169h2.2L541.135,8.996z"/>
	<path fill="#FFFFFF" d="M549.23,12.956l0.109-2.464l-2.068,1.32l-0.616-1.057l2.179-1.122l-2.179-1.122l0.616-1.057l2.068,1.343
		l-0.109-2.465h1.21l-0.11,2.465l2.068-1.343l0.616,1.057l-2.2,1.122l2.2,1.122l-0.616,1.057l-2.068-1.32l0.11,2.464H549.23z"/>
	<path fill="#FFFFFF" d="M560.516,15.024c0-2.685,3.542-2.948,3.542-4.818c0-0.858-0.682-1.584-2.09-1.584
		c-1.364,0-2.332,0.594-3.059,1.54l-1.496-1.65c1.122-1.387,2.816-2.179,4.797-2.179c2.772,0,4.467,1.475,4.467,3.455
		c0,3.256-3.917,3.521-3.917,5.479c0,0.353,0.176,0.771,0.484,0.99l-1.959,0.66C560.758,16.411,560.516,15.75,560.516,15.024z
		 M560.537,19.909c0-0.814,0.704-1.519,1.541-1.519c0.836,0,1.54,0.704,1.54,1.519c0,0.836-0.704,1.562-1.54,1.562
		C561.241,21.471,560.537,20.745,560.537,19.909z"/>
</g>
<g>
	<path fill="#FFFFFF" d="M3.898,38.88l0.528-1.904l-1.792,0.832l-0.176-0.544l1.841-0.656l-1.457-1.009l0.4-0.48l1.345,1.169
		l0.32-1.856h0.608l-0.512,1.889l1.793-0.816l0.176,0.544l-1.84,0.656l1.457,1.009l-0.417,0.479l-1.328-1.168l-0.32,1.856H3.898z"/>
	<path fill="#FFFFFF" d="M5.993,45.267l1.713-7.731h0.832l-1.712,7.731H5.993z M7.866,35.759c0-0.433,0.4-0.704,0.72-0.704
		c0.336,0,0.592,0.256,0.592,0.56c0,0.433-0.4,0.705-0.736,0.705C8.122,36.319,7.866,36.062,7.866,35.759z"/>
	<path fill="#FFFFFF" d="M13.835,45.267l1.152-5.25c0.032-0.145,0.096-0.368,0.096-0.561c0-0.96-0.736-1.36-1.729-1.36
		c-0.96,0-1.953,0.656-2.609,1.345l-1.296,5.826H8.617l1.713-7.731h0.832l-0.256,1.169c0.688-0.673,1.697-1.36,2.785-1.36
		c1.312,0,2.257,0.624,2.257,1.889c0,0.144-0.048,0.479-0.096,0.656l-1.185,5.378H13.835z"/>
	<path fill="#FFFFFF" d="M23.596,38.848l0.928-4.258h0.848l-2.369,10.677h-0.849l0.272-1.169c-0.64,0.816-1.552,1.361-2.657,1.361
		c-1.777,0-3.025-1.185-3.025-3.17c0-2.608,1.617-4.945,4.066-4.945C22.075,37.344,23.067,37.968,23.596,38.848z M17.657,42.129
		c0,1.585,0.928,2.577,2.337,2.577c1.088,0,2.097-0.688,2.625-1.488l0.816-3.714c-0.384-0.768-1.312-1.408-2.561-1.408
		C18.938,38.096,17.657,40.097,17.657,42.129z"/>
	<path fill="#FFFFFF" d="M24.792,45.267l1.713-7.731h0.832l-1.712,7.731H24.792z M26.665,35.759c0-0.433,0.4-0.704,0.721-0.704
		c0.336,0,0.592,0.256,0.592,0.56c0,0.433-0.4,0.705-0.736,0.705C26.921,36.319,26.665,36.062,26.665,35.759z"/>
	<path fill="#FFFFFF" d="M27.721,42.033c0-2.545,1.873-4.689,4.29-4.689c1.329,0,2.241,0.512,2.769,1.408l-0.64,0.48
		c-0.448-0.784-1.249-1.137-2.097-1.137c-2.129,0-3.441,1.921-3.441,3.953c0,1.761,1.152,2.657,2.641,2.657
		c0.864,0,1.601-0.399,2.097-0.992l0.48,0.576c-0.672,0.688-1.489,1.169-2.657,1.169C29.177,45.459,27.721,44.227,27.721,42.033z"/>
	<path fill="#FFFFFF" d="M34.825,42.049c0-2.576,1.889-4.705,4.29-4.705c2.065,0,3.281,1.456,3.281,3.345
		c0,0.336-0.08,0.784-0.128,0.977h-6.531c-0.016,0.096-0.032,0.305-0.032,0.448c0,1.425,0.944,2.625,2.833,2.625
		c0.784,0,1.665-0.272,2.337-0.832l0.32,0.608c-0.688,0.528-1.681,0.944-2.689,0.944C36.185,45.459,34.825,44.066,34.825,42.049z
		 M41.58,41.009c0.016-0.08,0.016-0.256,0.016-0.352c0-1.505-0.912-2.594-2.577-2.594c-1.553,0-2.929,1.36-3.202,2.945h5.714H41.58z
		"/>
	<path fill="#FFFFFF" d="M53.275,38.848l0.272-1.312h0.848l-1.712,7.731h-0.849l0.272-1.169c-0.641,0.816-1.553,1.361-2.657,1.361
		c-1.777,0-3.025-1.185-3.025-3.17c0-2.608,1.617-4.945,4.066-4.945C51.754,37.344,52.747,37.968,53.275,38.848z M47.336,42.129
		c0,1.585,0.928,2.577,2.337,2.577c1.088,0,2.097-0.688,2.625-1.488l0.816-3.714c-0.384-0.768-1.312-1.408-2.561-1.408
		C48.617,38.096,47.336,40.097,47.336,42.129z"/>
	<path fill="#FFFFFF" d="M54.904,44.178c0-0.08,0.016-0.271,0.064-0.416l1.217-5.49h-1.281l0.16-0.736h1.281l0.464-2.112h0.849
		l-0.464,2.112h1.568l-0.176,0.736h-1.569l-1.185,5.362c-0.016,0.096-0.032,0.192-0.032,0.336c0,0.465,0.256,0.736,0.784,0.736
		c0.304,0,0.625-0.144,0.816-0.288l0.16,0.673c-0.288,0.208-0.656,0.368-1.104,0.368C55.496,45.459,54.904,45.059,54.904,44.178z"/>
	<path fill="#FFFFFF" d="M67.275,45.267l1.185-5.378c0.016-0.064,0.064-0.272,0.064-0.433c0-0.88-0.656-1.36-1.409-1.36
		c-0.816,0-1.729,0.641-2.321,1.345l-1.28,5.826h-0.849l1.201-5.378c0.032-0.24,0.064-0.32,0.064-0.528
		c-0.016-0.721-0.512-1.265-1.44-1.265c-0.8,0-1.681,0.641-2.289,1.345l-1.296,5.826h-0.833l1.713-7.731h0.832l-0.256,1.169
		c0.432-0.496,1.344-1.36,2.465-1.36c1.296,0,1.953,0.928,1.953,1.536c0,0.017,0,0.017,0,0.032c0.625-0.769,1.569-1.568,2.657-1.568
		c1.041,0,1.953,0.656,1.953,1.889c0,0.16-0.048,0.432-0.096,0.656l-1.185,5.378H67.275z"/>
	<path fill="#FFFFFF" d="M70.184,42.065c0-2.449,1.809-4.722,4.258-4.722c2.081,0,3.409,1.344,3.409,3.393
		c0,2.449-1.809,4.723-4.257,4.723C71.512,45.459,70.184,44.114,70.184,42.065z M76.938,40.769c0-1.616-0.928-2.673-2.513-2.673
		c-1.937,0-3.329,1.937-3.329,3.938c0,1.617,0.928,2.673,2.513,2.673C75.546,44.706,76.938,42.77,76.938,40.769z"/>
	<path fill="#FFFFFF" d="M81.879,42.049c0-2.576,1.889-4.705,4.29-4.705c2.065,0,3.281,1.456,3.281,3.345
		c0,0.336-0.08,0.784-0.128,0.977h-6.531c-0.016,0.096-0.032,0.305-0.032,0.448c0,1.425,0.944,2.625,2.833,2.625
		c0.784,0,1.665-0.272,2.337-0.832l0.32,0.608c-0.688,0.528-1.681,0.944-2.689,0.944C83.24,45.459,81.879,44.066,81.879,42.049z
		 M88.634,41.009c0.016-0.08,0.016-0.256,0.016-0.352c0-1.505-0.912-2.594-2.577-2.594c-1.553,0-2.929,1.36-3.202,2.945h5.714
		H88.634z"/>
	<path fill="#FFFFFF" d="M95.065,45.267l1.152-5.25c0.032-0.145,0.096-0.368,0.096-0.561c0-0.96-0.736-1.36-1.729-1.36
		c-0.96,0-1.953,0.656-2.609,1.345l-1.296,5.826h-0.833l1.713-7.731h0.832l-0.256,1.169c0.688-0.673,1.697-1.36,2.785-1.36
		c1.312,0,2.257,0.624,2.257,1.889c0,0.144-0.048,0.479-0.096,0.656l-1.185,5.378H95.065z"/>
	<path fill="#FFFFFF" d="M98.119,44.178c0-0.08,0.016-0.271,0.064-0.416l1.217-5.49h-1.281l0.16-0.736h1.28l0.464-2.112h0.849
		l-0.464,2.112h1.568l-0.176,0.736h-1.569l-1.184,5.362c-0.016,0.096-0.032,0.192-0.032,0.336c0,0.465,0.256,0.736,0.784,0.736
		c0.304,0,0.625-0.144,0.816-0.288l0.16,0.673c-0.288,0.208-0.656,0.368-1.104,0.368C98.711,45.459,98.119,45.059,98.119,44.178z"/>
	<path fill="#FFFFFF" d="M101.287,45.267L103,37.535h0.832l-0.288,1.249c0.8-0.929,1.553-1.409,2.945-1.409l-0.208,0.896
		c-0.096-0.016-0.288-0.048-0.561-0.048c-0.944,0-1.856,0.704-2.353,1.408l-1.249,5.635H101.287z"/>
	<path fill="#FFFFFF" d="M105.863,42.049c0-2.576,1.889-4.705,4.29-4.705c2.065,0,3.281,1.456,3.281,3.345
		c0,0.336-0.08,0.784-0.128,0.977h-6.531c-0.016,0.096-0.032,0.305-0.032,0.448c0,1.425,0.944,2.625,2.833,2.625
		c0.784,0,1.665-0.272,2.337-0.832l0.32,0.608c-0.688,0.528-1.681,0.944-2.689,0.944C107.223,45.459,105.863,44.066,105.863,42.049z
		 M112.618,41.009c0.016-0.08,0.016-0.256,0.016-0.352c0-1.505-0.912-2.594-2.577-2.594c-1.553,0-2.929,1.36-3.202,2.945h5.714
		H112.618z"/>
	<path fill="#FFFFFF" d="M118.567,45.267l2.064-9.428l-2.097,1.824l-0.433-0.592L121,34.59h0.832l-2.353,10.677H118.567z"/>
	<path fill="#FFFFFF" d="M124.95,42.049c0-2.576,1.889-4.705,4.29-4.705c2.064,0,3.281,1.456,3.281,3.345
		c0,0.336-0.08,0.784-0.128,0.977h-6.531c-0.016,0.096-0.032,0.305-0.032,0.448c0,1.425,0.945,2.625,2.834,2.625
		c0.784,0,1.664-0.272,2.337-0.832l0.319,0.608c-0.688,0.528-1.681,0.944-2.688,0.944C126.311,45.459,124.95,44.066,124.95,42.049z
		 M131.705,41.009c0.016-0.08,0.016-0.256,0.016-0.352c0-1.505-0.912-2.594-2.577-2.594c-1.553,0-2.929,1.36-3.201,2.945h5.715
		H131.705z"/>
	<path fill="#FFFFFF" d="M133.35,44.178c0-0.08,0.016-0.271,0.064-0.416l1.216-5.49h-1.28l0.16-0.736h1.28l0.465-2.112h0.848
		l-0.464,2.112h1.568l-0.176,0.736h-1.568l-1.185,5.362c-0.017,0.096-0.032,0.192-0.032,0.336c0,0.465,0.256,0.736,0.784,0.736
		c0.305,0,0.624-0.144,0.816-0.288l0.16,0.673c-0.288,0.208-0.656,0.368-1.104,0.368C133.942,45.459,133.35,45.059,133.35,44.178z"
		/>
	<path fill="#FFFFFF" d="M140.102,43.298l0.736-0.528c0.561,1.28,1.585,1.856,3.01,1.856c1.601,0,2.945-1.264,2.945-2.913
		c0-1.473-1.104-2.272-2.577-2.272c-0.881,0-1.601,0.271-2.337,0.8l-0.608-0.352l1.168-5.299h6.163l-0.176,0.833h-5.251l-0.88,3.953
		c0.48-0.368,1.312-0.736,2.289-0.736c1.664,0,3.169,1.024,3.169,2.993c0,2.049-1.633,3.826-3.985,3.826
		C141.942,45.459,140.774,44.738,140.102,43.298z"/>
</g>
</svg>
