<?xml version="1.0" encoding="utf-8"?>
<!-- Generator: Adobe Illustrator 16.0.0, SVG Export Plug-In . SVG Version: 6.00 Build 0)  -->
<!DOCTYPE svg PUBLIC "-//W3C//DTD SVG 1.1//EN" "http://www.w3.org/Graphics/SVG/1.1/DTD/svg11.dtd">
<svg version="1.1" id="Layer_1" xmlns="http://www.w3.org/2000/svg" xmlns:xlink="http://www.w3.org/1999/xlink" x="0px" y="0px"
	 width="565.673px" height="45.735px" viewBox="0 0 565.673 45.735" enable-background="new 0 0 565.673 45.735"
	 xml:space="preserve">
<g>
	<g>
		<path fill="#FFFFFF" d="M1.562,18.337V3.661h6.469c3.081,0,4.774,2.09,4.774,4.599c0,2.486-1.716,4.576-4.774,4.576H4.137v5.501
			H1.562z M10.166,8.26c0-1.408-1.034-2.333-2.486-2.333H4.137v4.643h3.542C9.131,10.569,10.166,9.646,10.166,8.26z"/>
		<path fill="#FFFFFF" d="M19.867,18.337v-1.166c-0.792,0.924-2.046,1.43-3.455,1.43c-1.716,0-3.674-1.188-3.674-3.521
			c0-2.464,1.936-3.477,3.674-3.477c1.452,0,2.663,0.463,3.455,1.364v-1.584c0-1.232-1.034-1.98-2.486-1.98
			c-1.188,0-2.245,0.44-3.146,1.364l-0.968-1.606c1.232-1.188,2.772-1.716,4.467-1.716c2.376,0,4.444,0.99,4.444,3.828v7.063H19.867
			z M19.867,15.917v-1.629c-0.55-0.726-1.541-1.1-2.53-1.1c-1.298,0-2.289,0.77-2.289,1.914c0,1.166,0.99,1.914,2.289,1.914
			C18.327,17.017,19.317,16.643,19.867,15.917z"/>
		<path fill="#FFFFFF" d="M24.068,18.337V7.709h2.311V9.25c0.814-1.013,2.09-1.805,3.455-1.805v2.288
			c-0.198-0.044-0.418-0.065-0.704-0.065c-0.99,0-2.289,0.66-2.75,1.43v7.239H24.068z"/>
		<path fill="#FFFFFF" d="M41.69,18.337v-1.166c-0.792,0.924-2.046,1.43-3.455,1.43c-1.716,0-3.674-1.188-3.674-3.521
			c0-2.464,1.936-3.477,3.674-3.477c1.452,0,2.663,0.463,3.455,1.364v-1.584c0-1.232-1.034-1.98-2.486-1.98
			c-1.188,0-2.245,0.44-3.146,1.364l-0.968-1.606c1.232-1.188,2.772-1.716,4.467-1.716c2.376,0,4.444,0.99,4.444,3.828v7.063H41.69z
			 M41.69,15.917v-1.629c-0.55-0.726-1.541-1.1-2.53-1.1c-1.298,0-2.289,0.77-2.289,1.914c0,1.166,0.99,1.914,2.289,1.914
			C40.15,17.017,41.14,16.643,41.69,15.917z"/>
		<path fill="#FFFFFF" d="M53.086,18.337v-6.645c0-1.673-0.858-2.201-2.156-2.201c-1.167,0-2.179,0.704-2.729,1.408v7.438h-2.311
			V7.709h2.311V9.14c0.704-0.836,2.09-1.694,3.762-1.694c2.289,0,3.433,1.232,3.433,3.41v7.481H53.086z"/>
		<path fill="#FFFFFF" d="M58.102,21.264l-1.056-0.858c0.704-0.418,1.452-1.32,1.584-2.068c-0.044,0.022-0.22,0.066-0.374,0.066
			c-0.726,0-1.298-0.595-1.298-1.408c0-0.814,0.66-1.497,1.497-1.497c0.902,0,1.694,0.727,1.694,2.003
			C60.147,19.019,59.312,20.405,58.102,21.264z"/>
		<path fill="#FFFFFF" d="M65.515,13.012c0-3.212,2.267-5.566,5.479-5.566c2.09,0,3.322,0.88,4.071,1.893l-1.519,1.386
			c-0.594-0.836-1.408-1.232-2.442-1.232c-1.914,0-3.212,1.452-3.212,3.521s1.298,3.543,3.212,3.543c1.034,0,1.849-0.44,2.442-1.276
			l1.519,1.431c-0.749,0.99-1.98,1.892-4.071,1.892C67.781,18.601,65.515,16.225,65.515,13.012z"/>
		<path fill="#FFFFFF" d="M75.37,13.012c0-3.058,2.068-5.566,5.457-5.566s5.457,2.509,5.457,5.566c0,3.037-2.068,5.589-5.457,5.589
			S75.37,16.049,75.37,13.012z M83.886,13.012c0-1.87-1.078-3.521-3.059-3.521c-1.958,0-3.059,1.65-3.059,3.521
			c0,1.893,1.1,3.543,3.059,3.543C82.808,16.555,83.886,14.904,83.886,13.012z"/>
		<path fill="#FFFFFF" d="M100.584,18.337v-6.931c0-1.145-0.506-1.915-1.76-1.915c-1.034,0-2.002,0.704-2.464,1.408v7.438h-2.31
			v-6.931c0-1.145-0.484-1.915-1.738-1.915c-1.034,0-1.98,0.727-2.464,1.408v7.438h-2.311V7.709h2.311V9.14
			c0.462-0.638,1.848-1.694,3.477-1.694c1.584,0,2.552,0.792,2.904,1.937c0.594-0.946,2.002-1.937,3.608-1.937
			c1.937,0,3.059,1.057,3.059,3.213v7.679H100.584z"/>
		<path fill="#FFFFFF" d="M104.784,18.337V3.661h2.311v5.522c0.858-1.145,2.09-1.738,3.41-1.738c2.75,0,4.731,2.135,4.731,5.566
			c0,3.521-2.002,5.589-4.731,5.589c-1.364,0-2.596-0.66-3.41-1.716v1.452H104.784z M109.845,16.555
			c1.826,0,2.992-1.475,2.992-3.543c0-2.046-1.166-3.521-2.992-3.521c-1.1,0-2.223,0.639-2.75,1.431v4.225
			C107.623,15.938,108.745,16.555,109.845,16.555z"/>
		<path fill="#FFFFFF" d="M116.202,4.981c0-0.793,0.638-1.431,1.431-1.431c0.792,0,1.43,0.638,1.43,1.431
			c0,0.792-0.638,1.43-1.43,1.43C116.84,6.411,116.202,5.773,116.202,4.981z M116.466,18.337V7.709h2.311v10.628H116.466z"/>
		<path fill="#FFFFFF" d="M120.03,13.012c0-3.08,2.245-5.566,5.391-5.566c3.19,0,5.215,2.42,5.215,5.765v0.572h-8.186
			c0.176,1.584,1.364,2.927,3.367,2.927c1.056,0,2.266-0.418,3.037-1.188l1.056,1.519c-1.078,1.012-2.64,1.562-4.313,1.562
			C122.384,18.601,120.03,16.379,120.03,13.012z M125.399,9.338c-1.958,0-2.882,1.518-2.971,2.794h5.985
			C128.347,10.878,127.489,9.338,125.399,9.338z"/>
		<path fill="#FFFFFF" d="M139.017,18.337v-6.645c0-1.673-0.858-2.201-2.156-2.201c-1.167,0-2.179,0.704-2.729,1.408v7.438h-2.311
			V7.709h2.311V9.14c0.704-0.836,2.09-1.694,3.762-1.694c2.289,0,3.433,1.232,3.433,3.41v7.481H139.017z"/>
		<path fill="#FFFFFF" d="M155.274,18.337v-1.452c-0.814,1.056-2.024,1.716-3.41,1.716c-2.707,0-4.709-2.068-4.709-5.589
			c0-3.432,1.98-5.566,4.709-5.566c1.342,0,2.574,0.594,3.41,1.738V3.661h2.311v14.676H155.274z M155.274,15.124v-4.202
			c-0.506-0.792-1.65-1.431-2.728-1.431c-1.848,0-3.015,1.475-3.015,3.521c0,2.068,1.167,3.543,3.015,3.543
			C153.625,16.555,154.769,15.917,155.274,15.124z"/>
		<path fill="#FFFFFF" d="M158.837,13.012c0-3.08,2.245-5.566,5.391-5.566c3.19,0,5.215,2.42,5.215,5.765v0.572h-8.186
			c0.176,1.584,1.364,2.927,3.367,2.927c1.056,0,2.266-0.418,3.037-1.188l1.056,1.519c-1.078,1.012-2.64,1.562-4.313,1.562
			C161.192,18.601,158.837,16.379,158.837,13.012z M164.207,9.338c-1.958,0-2.882,1.518-2.971,2.794h5.985
			C167.155,10.878,166.297,9.338,164.207,9.338z"/>
		<path fill="#FFFFFF" d="M171.487,21.88l0.682-1.717c0.396,0.353,0.814,0.594,1.474,0.594c0.924,0,1.562-0.55,1.562-1.804V7.709
			h2.311v11.244c0,2.267-1.166,3.696-3.521,3.696C172.763,22.649,172.213,22.407,171.487,21.88z M174.941,4.981
			c0-0.793,0.638-1.431,1.43-1.431c0.792,0,1.43,0.638,1.43,1.431c0,0.792-0.638,1.43-1.43,1.43
			C175.579,6.411,174.941,5.773,174.941,4.981z"/>
		<path fill="#FFFFFF" d="M178.769,13.012c0-3.058,2.068-5.566,5.457-5.566s5.457,2.509,5.457,5.566
			c0,3.037-2.068,5.589-5.457,5.589S178.769,16.049,178.769,13.012z M187.285,13.012c0-1.87-1.078-3.521-3.059-3.521
			c-1.958,0-3.059,1.65-3.059,3.521c0,1.893,1.1,3.543,3.059,3.543C186.207,16.555,187.285,14.904,187.285,13.012z"/>
		<path fill="#FFFFFF" d="M198.108,18.337v-1.408c-0.748,0.836-2.068,1.672-3.741,1.672c-2.289,0-3.433-1.21-3.433-3.366V7.709
			h2.311v6.667c0,1.65,0.836,2.179,2.156,2.179c1.166,0,2.178-0.682,2.707-1.387V7.709h2.31v10.628H198.108z"/>
		<path fill="#FFFFFF" d="M202.309,18.337V7.709h2.311V9.25c0.814-1.013,2.09-1.805,3.455-1.805v2.288
			c-0.198-0.044-0.418-0.065-0.704-0.065c-0.99,0-2.289,0.66-2.75,1.43v7.239H202.309z"/>
		<path fill="#FFFFFF" d="M207.94,16.929l1.056-1.65c0.748,0.771,2.222,1.475,3.586,1.475c1.386,0,2.112-0.572,2.112-1.408
			c0-2.091-6.425-0.595-6.425-4.687c0-1.738,1.496-3.213,4.181-3.213c1.804,0,3.168,0.638,4.114,1.475l-0.968,1.628
			c-0.638-0.704-1.805-1.276-3.146-1.276c-1.21,0-1.958,0.572-1.958,1.32c0,1.87,6.425,0.462,6.425,4.687
			c0,1.893-1.563,3.322-4.423,3.322C210.668,18.601,209.041,18.007,207.94,16.929z"/>
		<path fill="#FFFFFF" d="M222.702,18.337V7.709h2.311V9.25c0.814-1.013,2.09-1.805,3.454-1.805v2.288
			c-0.197-0.044-0.418-0.065-0.704-0.065c-0.99,0-2.288,0.66-2.75,1.43v7.239H222.702z"/>
		<path fill="#FFFFFF" d="M228.598,13.012c0-3.08,2.244-5.566,5.391-5.566c3.19,0,5.215,2.42,5.215,5.765v0.572h-8.186
			c0.176,1.584,1.364,2.927,3.366,2.927c1.057,0,2.267-0.418,3.037-1.188l1.056,1.519c-1.078,1.012-2.64,1.562-4.313,1.562
			C230.952,18.601,228.598,16.379,228.598,13.012z M233.966,9.338c-1.958,0-2.882,1.518-2.97,2.794h5.984
			C236.915,10.878,236.057,9.338,233.966,9.338z"/>
		<path fill="#FFFFFF" d="M239.487,16.929l1.057-1.65c0.748,0.771,2.223,1.475,3.586,1.475c1.387,0,2.112-0.572,2.112-1.408
			c0-2.091-6.425-0.595-6.425-4.687c0-1.738,1.496-3.213,4.181-3.213c1.805,0,3.169,0.638,4.115,1.475l-0.969,1.628
			c-0.638-0.704-1.804-1.276-3.146-1.276c-1.21,0-1.958,0.572-1.958,1.32c0,1.87,6.425,0.462,6.425,4.687
			c0,1.893-1.563,3.322-4.423,3.322C242.216,18.601,240.588,18.007,239.487,16.929z"/>
		<path fill="#FFFFFF" d="M251.983,16.862v5.523h-2.311V7.709h2.311v1.452c0.792-1.056,2.024-1.716,3.41-1.716
			c2.751,0,4.709,2.068,4.709,5.566c0,3.499-1.958,5.589-4.709,5.589C254.052,18.601,252.863,17.984,251.983,16.862z
			 M257.727,13.012c0-2.068-1.188-3.521-3.015-3.521c-1.078,0-2.2,0.616-2.729,1.408v4.203c0.506,0.792,1.65,1.452,2.729,1.452
			C256.538,16.555,257.727,15.08,257.727,13.012z"/>
		<path fill="#FFFFFF" d="M261.047,4.981c0-0.793,0.638-1.431,1.43-1.431s1.431,0.638,1.431,1.431c0,0.792-0.639,1.43-1.431,1.43
			S261.047,5.773,261.047,4.981z M261.311,18.337V7.709h2.311v10.628H261.311z"/>
		<path fill="#FFFFFF" d="M265.513,18.337V7.709h2.311V9.25c0.814-1.013,2.09-1.805,3.454-1.805v2.288
			c-0.197-0.044-0.418-0.065-0.704-0.065c-0.99,0-2.288,0.66-2.75,1.43v7.239H265.513z"/>
		<path fill="#FFFFFF" d="M271.409,13.012c0-3.08,2.244-5.566,5.391-5.566c3.19,0,5.215,2.42,5.215,5.765v0.572h-8.186
			c0.176,1.584,1.364,2.927,3.366,2.927c1.057,0,2.267-0.418,3.037-1.188l1.056,1.519c-1.078,1.012-2.641,1.562-4.313,1.562
			C273.764,18.601,271.409,16.379,271.409,13.012z M276.777,9.338c-1.958,0-2.882,1.518-2.97,2.794h5.984
			C279.727,10.878,278.868,9.338,276.777,9.338z"/>
		<path fill="#FFFFFF" d="M282.738,18.337v-1.761l5.236-6.864h-5.236V7.709h8.339v1.673l-5.325,6.931h5.413v2.024H282.738z"/>
		<path fill="#FFFFFF" d="M291.736,14.002v-1.979h5.281v1.979H291.736z"/>
		<path fill="#FFFFFF" d="M300.867,18.337l-4.334-10.628h2.486l3.102,7.966l3.104-7.966h2.463l-4.334,10.628H300.867z"/>
		<path fill="#FFFFFF" d="M307.4,13.012c0-3.058,2.068-5.566,5.457-5.566s5.457,2.509,5.457,5.566c0,3.037-2.068,5.589-5.457,5.589
			S307.4,16.049,307.4,13.012z M315.916,13.012c0-1.87-1.078-3.521-3.059-3.521c-1.959,0-3.059,1.65-3.059,3.521
			c0,1.893,1.1,3.543,3.059,3.543C314.837,16.555,315.916,14.904,315.916,13.012z"/>
		<path fill="#FFFFFF" d="M326.738,18.337v-1.408c-0.748,0.836-2.068,1.672-3.74,1.672c-2.287,0-3.432-1.21-3.432-3.366V7.709h2.311
			v6.667c0,1.65,0.836,2.179,2.156,2.179c1.166,0,2.178-0.682,2.705-1.387V7.709h2.311v10.628H326.738z"/>
		<path fill="#FFFFFF" d="M330.037,16.929l1.057-1.65c0.748,0.771,2.223,1.475,3.586,1.475c1.387,0,2.113-0.572,2.113-1.408
			c0-2.091-6.426-0.595-6.426-4.687c0-1.738,1.496-3.213,4.182-3.213c1.805,0,3.168,0.638,4.115,1.475l-0.969,1.628
			c-0.639-0.704-1.805-1.276-3.146-1.276c-1.211,0-1.959,0.572-1.959,1.32c0,1.87,6.426,0.462,6.426,4.687
			c0,1.893-1.563,3.322-4.424,3.322C332.765,18.601,331.138,18.007,330.037,16.929z"/>
		<path fill="#FFFFFF" d="M351.972,18.337v-1.408c-0.748,0.836-2.068,1.672-3.74,1.672c-2.289,0-3.434-1.21-3.434-3.366V7.709h2.311
			v6.667c0,1.65,0.836,2.179,2.156,2.179c1.166,0,2.18-0.682,2.707-1.387V7.709h2.311v10.628H351.972z"/>
		<path fill="#FFFFFF" d="M363.369,18.337v-6.645c0-1.673-0.859-2.201-2.156-2.201c-1.166,0-2.18,0.704-2.729,1.408v7.438h-2.311
			V7.709h2.311V9.14c0.703-0.836,2.09-1.694,3.762-1.694c2.289,0,3.434,1.232,3.434,3.41v7.481H363.369z"/>
		<path fill="#FFFFFF" d="M378.658,18.337v-1.166c-0.793,0.924-2.047,1.43-3.455,1.43c-1.715,0-3.674-1.188-3.674-3.521
			c0-2.464,1.936-3.477,3.674-3.477c1.453,0,2.662,0.463,3.455,1.364v-1.584c0-1.232-1.035-1.98-2.486-1.98
			c-1.188,0-2.244,0.44-3.146,1.364l-0.969-1.606c1.232-1.188,2.773-1.716,4.467-1.716c2.377,0,4.445,0.99,4.445,3.828v7.063
			H378.658z M378.658,15.917v-1.629c-0.551-0.726-1.541-1.1-2.531-1.1c-1.297,0-2.287,0.77-2.287,1.914
			c0,1.166,0.99,1.914,2.287,1.914C377.117,17.017,378.107,16.643,378.658,15.917z"/>
		<path fill="#FFFFFF" d="M382.595,4.981c0-0.793,0.637-1.431,1.43-1.431c0.791,0,1.43,0.638,1.43,1.431
			c0,0.792-0.639,1.43-1.43,1.43C383.232,6.411,382.595,5.773,382.595,4.981z M382.859,18.337V7.709h2.311v10.628H382.859z"/>
		<path fill="#FFFFFF" d="M387.06,18.337V7.709h2.311V9.25c0.814-1.013,2.09-1.805,3.453-1.805v2.288
			c-0.197-0.044-0.418-0.065-0.703-0.065c-0.99,0-2.289,0.66-2.75,1.43v7.239H387.06z"/>
		<path fill="#FFFFFF" d="M405.652,18.337v-1.452c-0.814,1.056-2.025,1.716-3.412,1.716c-2.705,0-4.707-2.068-4.707-5.589
			c0-3.432,1.98-5.566,4.707-5.566c1.344,0,2.576,0.594,3.412,1.738V3.661h2.311v14.676H405.652z M405.652,15.124v-4.202
			c-0.506-0.792-1.65-1.431-2.729-1.431c-1.85,0-3.016,1.475-3.016,3.521c0,2.068,1.166,3.543,3.016,3.543
			C404.001,16.555,405.146,15.917,405.652,15.124z"/>
		<path fill="#FFFFFF" d="M409.214,13.012c0-3.08,2.244-5.566,5.391-5.566c3.189,0,5.215,2.42,5.215,5.765v0.572h-8.186
			c0.176,1.584,1.363,2.927,3.365,2.927c1.057,0,2.268-0.418,3.037-1.188l1.057,1.519c-1.078,1.012-2.641,1.562-4.313,1.562
			C411.568,18.601,409.214,16.379,409.214,13.012z M414.582,9.338c-1.957,0-2.881,1.518-2.969,2.794h5.984
			C417.531,10.878,416.673,9.338,414.582,9.338z"/>
		<path fill="#FFFFFF" d="M425.582,18.337V3.661h2.311v5.522c0.857-1.145,2.09-1.738,3.41-1.738c2.75,0,4.73,2.135,4.73,5.566
			c0,3.521-2.002,5.589-4.73,5.589c-1.365,0-2.596-0.66-3.41-1.716v1.452H425.582z M430.642,16.555c1.826,0,2.992-1.475,2.992-3.543
			c0-2.046-1.166-3.521-2.992-3.521c-1.1,0-2.223,0.639-2.75,1.431v4.225C428.419,15.938,429.542,16.555,430.642,16.555z"/>
		<path fill="#FFFFFF" d="M436.625,13.012c0-3.058,2.068-5.566,5.457-5.566s5.457,2.509,5.457,5.566
			c0,3.037-2.068,5.589-5.457,5.589S436.625,16.049,436.625,13.012z M445.14,13.012c0-1.87-1.078-3.521-3.059-3.521
			c-1.959,0-3.059,1.65-3.059,3.521c0,1.893,1.1,3.543,3.059,3.543C444.062,16.555,445.14,14.904,445.14,13.012z"/>
		<path fill="#FFFFFF" d="M455.986,18.337v-6.645c0-1.673-0.857-2.201-2.156-2.201c-1.166,0-2.178,0.704-2.729,1.408v7.438h-2.311
			V7.709h2.311V9.14c0.705-0.836,2.09-1.694,3.764-1.694c2.287,0,3.432,1.232,3.432,3.41v7.481H455.986z"/>
		<path fill="#FFFFFF" d="M467.382,18.337v-6.645c0-1.673-0.859-2.201-2.156-2.201c-1.166,0-2.18,0.704-2.729,1.408v7.438h-2.311
			V7.709h2.311V9.14c0.703-0.836,2.09-1.694,3.762-1.694c2.289,0,3.434,1.232,3.434,3.41v7.481H467.382z"/>
		<path fill="#FFFFFF" d="M470.945,13.012c0-3.08,2.244-5.566,5.391-5.566c3.191,0,5.215,2.42,5.215,5.765v0.572h-8.186
			c0.176,1.584,1.365,2.927,3.367,2.927c1.057,0,2.266-0.418,3.037-1.188l1.055,1.519c-1.078,1.012-2.639,1.562-4.313,1.562
			C473.3,18.601,470.945,16.379,470.945,13.012z M476.314,9.338c-1.959,0-2.883,1.518-2.971,2.794h5.984
			C479.263,10.878,478.404,9.338,476.314,9.338z"/>
		<path fill="#FFFFFF" d="M486.63,13.012c0-3.498,1.959-5.566,4.709-5.566c1.387,0,2.619,0.66,3.41,1.716V7.709h2.311v14.676h-2.311
			v-5.523c-0.881,1.122-2.068,1.738-3.41,1.738C488.589,18.601,486.63,16.511,486.63,13.012z M494.75,15.103v-4.203
			c-0.527-0.792-1.65-1.408-2.729-1.408c-1.826,0-3.014,1.452-3.014,3.521s1.188,3.543,3.014,3.543
			C493.099,16.555,494.244,15.895,494.75,15.103z"/>
		<path fill="#FFFFFF" d="M506.123,18.337v-1.408c-0.748,0.836-2.068,1.672-3.74,1.672c-2.287,0-3.432-1.21-3.432-3.366V7.709h2.311
			v6.667c0,1.65,0.836,2.179,2.156,2.179c1.166,0,2.178-0.682,2.705-1.387V7.709h2.311v10.628H506.123z"/>
		<path fill="#FFFFFF" d="M516.837,18.337v-1.166c-0.793,0.924-2.047,1.43-3.455,1.43c-1.715,0-3.674-1.188-3.674-3.521
			c0-2.464,1.936-3.477,3.674-3.477c1.453,0,2.662,0.463,3.455,1.364v-1.584c0-1.232-1.035-1.98-2.486-1.98
			c-1.188,0-2.244,0.44-3.146,1.364l-0.969-1.606c1.232-1.188,2.773-1.716,4.467-1.716c2.377,0,4.445,0.99,4.445,3.828v7.063
			H516.837z M516.837,15.917v-1.629c-0.551-0.726-1.541-1.1-2.531-1.1c-1.297,0-2.287,0.77-2.287,1.914
			c0,1.166,0.99,1.914,2.287,1.914C515.296,17.017,516.287,16.643,516.837,15.917z"/>
		<path fill="#FFFFFF" d="M521.037,18.337V3.661h2.311v14.676H521.037z"/>
		<path fill="#FFFFFF" d="M524.976,4.981c0-0.793,0.637-1.431,1.43-1.431c0.791,0,1.43,0.638,1.43,1.431
			c0,0.792-0.639,1.43-1.43,1.43C525.613,6.411,524.976,5.773,524.976,4.981z M525.24,18.337V7.709h2.311v10.628H525.24z"/>
		<path fill="#FFFFFF" d="M529.925,15.851V9.712h-1.76V7.709h1.76V4.805h2.311v2.904h2.156v2.003h-2.156v5.566
			c0,0.727,0.352,1.276,1.012,1.276c0.441,0,0.836-0.198,1.012-0.396l0.551,1.761c-0.418,0.374-1.1,0.682-2.156,0.682
			C530.849,18.601,529.925,17.633,529.925,15.851z"/>
		<path fill="#FFFFFF" d="M534.722,13.012c0-3.08,2.244-5.566,5.391-5.566c3.189,0,5.215,2.42,5.215,5.765v0.572h-8.186
			c0.176,1.584,1.363,2.927,3.365,2.927c1.057,0,2.268-0.418,3.037-1.188l1.057,1.519c-1.078,1.012-2.641,1.562-4.313,1.562
			C537.076,18.601,534.722,16.379,534.722,13.012z M540.089,9.338c-1.957,0-2.881,1.518-2.969,2.794h5.984
			C543.039,10.878,542.181,9.338,540.089,9.338z M540.134,6.104h-1.65l3.08-3.169h2.201L540.134,6.104z"/>
		<path fill="#FFFFFF" d="M548.23,10.063l0.109-2.464l-2.068,1.32l-0.617-1.057l2.18-1.122l-2.18-1.122l0.617-1.057l2.068,1.343
			L548.23,3.44h1.209l-0.109,2.465l2.068-1.343l0.615,1.057l-2.199,1.122l2.199,1.122l-0.615,1.057L549.33,7.6l0.109,2.464H548.23z"
			/>
		<path fill="#FFFFFF" d="M559.515,12.132c0-2.685,3.541-2.948,3.541-4.818c0-0.858-0.682-1.584-2.09-1.584
			c-1.363,0-2.332,0.594-3.059,1.54l-1.496-1.65c1.123-1.387,2.816-2.179,4.797-2.179c2.773,0,4.467,1.475,4.467,3.455
			c0,3.256-3.916,3.521-3.916,5.479c0,0.353,0.176,0.771,0.484,0.99l-1.959,0.66C559.757,13.519,559.515,12.858,559.515,12.132z
			 M559.537,17.017c0-0.814,0.703-1.519,1.541-1.519c0.836,0,1.539,0.704,1.539,1.519c0,0.836-0.703,1.563-1.539,1.563
			C560.24,18.579,559.537,17.853,559.537,17.017z"/>
	</g>
</g>
<g>
	<g>
		<path fill="#FFFFFF" d="M2.897,35.988l0.528-1.904l-1.792,0.832l-0.176-0.544l1.841-0.656l-1.457-1.009l0.4-0.48l1.345,1.169
			l0.32-1.856h0.608l-0.512,1.889l1.793-0.816l0.176,0.544l-1.84,0.656l1.457,1.009L5.17,35.299l-1.328-1.168l-0.32,1.856H2.897z"/>
		<path fill="#FFFFFF" d="M4.992,42.375l1.713-7.731h0.832l-1.712,7.731H4.992z M6.865,32.867c0-0.433,0.4-0.704,0.72-0.704
			c0.336,0,0.592,0.256,0.592,0.56c0,0.433-0.4,0.705-0.736,0.705C7.121,33.427,6.865,33.17,6.865,32.867z"/>
		<path fill="#FFFFFF" d="M12.834,42.375l1.152-5.25c0.032-0.145,0.096-0.368,0.096-0.561c0-0.96-0.736-1.36-1.729-1.36
			c-0.96,0-1.953,0.656-2.609,1.345l-1.296,5.826H7.616l1.713-7.731h0.832l-0.256,1.169c0.688-0.673,1.697-1.36,2.785-1.36
			c1.313,0,2.257,0.624,2.257,1.889c0,0.144-0.048,0.479-0.096,0.656l-1.185,5.378H12.834z"/>
		<path fill="#FFFFFF" d="M22.595,35.956l0.928-4.258h0.848l-2.369,10.677h-0.849l0.272-1.169c-0.64,0.816-1.552,1.361-2.657,1.361
			c-1.777,0-3.025-1.185-3.025-3.17c0-2.608,1.617-4.945,4.066-4.945C21.074,34.452,22.066,35.076,22.595,35.956z M16.656,39.237
			c0,1.585,0.928,2.577,2.337,2.577c1.088,0,2.097-0.688,2.625-1.488l0.816-3.714c-0.384-0.768-1.313-1.408-2.561-1.408
			C17.937,35.204,16.656,37.205,16.656,39.237z"/>
		<path fill="#FFFFFF" d="M23.792,42.375l1.713-7.731h0.832l-1.712,7.731H23.792z M25.664,32.867c0-0.433,0.4-0.704,0.721-0.704
			c0.336,0,0.592,0.256,0.592,0.56c0,0.433-0.4,0.705-0.736,0.705C25.92,33.427,25.664,33.17,25.664,32.867z"/>
		<path fill="#FFFFFF" d="M26.72,39.141c0-2.545,1.873-4.689,4.29-4.689c1.329,0,2.241,0.512,2.769,1.408l-0.64,0.48
			c-0.448-0.784-1.249-1.137-2.097-1.137c-2.129,0-3.441,1.921-3.441,3.953c0,1.761,1.152,2.657,2.641,2.657
			c0.864,0,1.601-0.399,2.097-0.992l0.48,0.576c-0.672,0.688-1.489,1.169-2.657,1.169C28.176,42.567,26.72,41.334,26.72,39.141z"/>
		<path fill="#FFFFFF" d="M33.824,39.157c0-2.576,1.889-4.705,4.29-4.705c2.065,0,3.281,1.456,3.281,3.345
			c0,0.336-0.08,0.784-0.128,0.977h-6.531c-0.016,0.096-0.032,0.305-0.032,0.448c0,1.425,0.944,2.625,2.833,2.625
			c0.784,0,1.665-0.272,2.337-0.832l0.32,0.608c-0.688,0.528-1.681,0.944-2.689,0.944C35.184,42.567,33.824,41.174,33.824,39.157z
			 M40.579,38.117c0.016-0.08,0.016-0.256,0.016-0.352c0-1.505-0.912-2.594-2.577-2.594c-1.553,0-2.929,1.36-3.202,2.945h5.714
			H40.579z"/>
		<path fill="#FFFFFF" d="M52.274,35.956l0.272-1.313h0.848l-1.712,7.731h-0.849l0.272-1.169c-0.641,0.816-1.553,1.361-2.657,1.361
			c-1.777,0-3.025-1.185-3.025-3.17c0-2.608,1.617-4.945,4.066-4.945C50.753,34.452,51.746,35.076,52.274,35.956z M46.335,39.237
			c0,1.585,0.928,2.577,2.337,2.577c1.088,0,2.097-0.688,2.625-1.488l0.816-3.714c-0.384-0.768-1.313-1.408-2.561-1.408
			C47.616,35.204,46.335,37.205,46.335,39.237z"/>
		<path fill="#FFFFFF" d="M53.903,41.286c0-0.08,0.016-0.271,0.064-0.416l1.217-5.49h-1.281l0.16-0.736h1.281l0.464-2.112h0.849
			l-0.464,2.112h1.568l-0.176,0.736h-1.569l-1.185,5.362c-0.016,0.096-0.032,0.192-0.032,0.336c0,0.465,0.256,0.736,0.784,0.736
			c0.304,0,0.625-0.144,0.816-0.288l0.16,0.673c-0.288,0.208-0.656,0.368-1.104,0.368C54.495,42.567,53.903,42.167,53.903,41.286z"
			/>
		<path fill="#FFFFFF" d="M66.274,42.375l1.185-5.378c0.016-0.064,0.064-0.272,0.064-0.433c0-0.88-0.656-1.36-1.409-1.36
			c-0.816,0-1.729,0.641-2.321,1.345l-1.28,5.826h-0.849l1.201-5.378c0.032-0.24,0.064-0.32,0.064-0.528
			c-0.016-0.721-0.512-1.265-1.44-1.265c-0.8,0-1.681,0.641-2.289,1.345l-1.296,5.826h-0.833l1.713-7.731h0.832l-0.256,1.169
			c0.432-0.496,1.344-1.36,2.465-1.36c1.296,0,1.953,0.928,1.953,1.536c0,0.017,0,0.017,0,0.032
			c0.625-0.769,1.569-1.568,2.657-1.568c1.041,0,1.953,0.656,1.953,1.889c0,0.16-0.048,0.432-0.096,0.656l-1.185,5.378H66.274z"/>
		<path fill="#FFFFFF" d="M69.183,39.173c0-2.449,1.809-4.722,4.258-4.722c2.081,0,3.409,1.344,3.409,3.393
			c0,2.449-1.809,4.723-4.257,4.723C70.511,42.567,69.183,41.222,69.183,39.173z M75.938,37.876c0-1.616-0.928-2.673-2.513-2.673
			c-1.937,0-3.329,1.937-3.329,3.938c0,1.617,0.928,2.673,2.513,2.673C74.545,41.814,75.938,39.877,75.938,37.876z"/>
		<path fill="#FFFFFF" d="M80.574,42.375l1.713-7.731h0.832l-1.712,7.731H80.574z M82.447,32.867c0-0.433,0.4-0.704,0.72-0.704
			c0.336,0,0.592,0.256,0.592,0.56c0,0.433-0.4,0.705-0.736,0.705C82.703,33.427,82.447,33.17,82.447,32.867z"/>
		<path fill="#FFFFFF" d="M88.417,42.375l1.152-5.25c0.032-0.145,0.096-0.368,0.096-0.561c0-0.96-0.736-1.36-1.729-1.36
			c-0.96,0-1.953,0.656-2.609,1.345l-1.296,5.826h-0.833l1.713-7.731h0.832l-0.256,1.169c0.688-0.673,1.697-1.36,2.785-1.36
			c1.313,0,2.257,0.624,2.257,1.889c0,0.144-0.048,0.479-0.096,0.656l-1.185,5.378H88.417z"/>
		<path fill="#FFFFFF" d="M91.31,42.375l1.553-6.995h-1.28l0.16-0.736h1.281l0.144-0.704c0.288-1.44,1.057-2.4,2.401-2.4
			c0.64,0,1.104,0.159,1.537,0.592l-0.512,0.592c-0.224-0.256-0.528-0.432-1.008-0.432c-0.896,0-1.345,0.608-1.569,1.648
			l-0.16,0.704h1.584l-0.176,0.736h-1.568l-1.537,6.995H91.31z"/>
		<path fill="#FFFFFF" d="M94.782,39.157c0-2.576,1.889-4.705,4.29-4.705c2.065,0,3.281,1.456,3.281,3.345
			c0,0.336-0.08,0.784-0.128,0.977h-6.531c-0.016,0.096-0.032,0.305-0.032,0.448c0,1.425,0.944,2.625,2.833,2.625
			c0.784,0,1.665-0.272,2.337-0.832l0.32,0.608c-0.688,0.528-1.681,0.944-2.689,0.944C96.143,42.567,94.782,41.174,94.782,39.157z
			 M101.537,38.117c0.016-0.08,0.016-0.256,0.016-0.352c0-1.505-0.912-2.594-2.577-2.594c-1.553,0-2.929,1.36-3.202,2.945h5.714
			H101.537z M99.488,33.475h-0.721l2.978-2.305h1.008L99.488,33.475z"/>
		<path fill="#FFFFFF" d="M102.75,42.375l1.713-7.731h0.832l-0.288,1.249c0.8-0.929,1.553-1.409,2.945-1.409l-0.208,0.896
			c-0.096-0.016-0.288-0.048-0.561-0.048c-0.944,0-1.856,0.704-2.353,1.408l-1.249,5.635H102.75z"/>
		<path fill="#FFFFFF" d="M107.021,42.375l1.713-7.731h0.832l-1.712,7.731H107.021z M108.895,32.867c0-0.433,0.4-0.704,0.72-0.704
			c0.336,0,0.592,0.256,0.592,0.56c0,0.433-0.4,0.705-0.736,0.705C109.15,33.427,108.895,33.17,108.895,32.867z"/>
		<path fill="#FFFFFF" d="M109.95,39.157c0-2.576,1.889-4.705,4.29-4.705c2.065,0,3.281,1.456,3.281,3.345
			c0,0.336-0.08,0.784-0.128,0.977h-6.531c-0.016,0.096-0.032,0.305-0.032,0.448c0,1.425,0.944,2.625,2.833,2.625
			c0.784,0,1.665-0.272,2.337-0.832l0.32,0.608c-0.688,0.528-1.681,0.944-2.689,0.944C111.31,42.567,109.95,41.174,109.95,39.157z
			 M116.704,38.117c0.017-0.08,0.017-0.256,0.017-0.352c0-1.505-0.913-2.594-2.577-2.594c-1.553,0-2.929,1.36-3.202,2.945h5.714
			H116.704z"/>
		<path fill="#FFFFFF" d="M120.463,34.643l-1.169,5.234c-0.032,0.145-0.08,0.384-0.08,0.576c0,0.961,0.736,1.36,1.713,1.36
			s1.969-0.656,2.625-1.36l1.297-5.811h0.832l-1.713,7.731h-0.832l0.256-1.169c-0.688,0.673-1.696,1.361-2.785,1.361
			c-1.313,0-2.257-0.625-2.257-1.889c0-0.145,0.048-0.48,0.096-0.656l1.169-5.379H120.463z"/>
		<path fill="#FFFFFF" d="M125.758,42.375l1.712-7.731h0.833l-0.288,1.249c0.8-0.929,1.553-1.409,2.945-1.409l-0.209,0.896
			c-0.096-0.016-0.288-0.048-0.56-0.048c-0.944,0-1.857,0.704-2.354,1.408l-1.248,5.635H125.758z"/>
		<path fill="#FFFFFF" d="M140.512,35.956l0.271-1.313h0.849l-1.713,7.731h-0.848l0.271-1.169c-0.64,0.816-1.553,1.361-2.657,1.361
			c-1.776,0-3.024-1.185-3.024-3.17c0-2.608,1.616-4.945,4.065-4.945C138.991,34.452,139.983,35.076,140.512,35.956z
			 M134.573,39.237c0,1.585,0.928,2.577,2.337,2.577c1.088,0,2.097-0.688,2.625-1.488l0.816-3.714
			c-0.385-0.768-1.313-1.408-2.562-1.408C135.854,35.204,134.573,37.205,134.573,39.237z M138.623,33.475l-2.241-2.305h0.992
			l1.953,2.305H138.623z"/>
		<path fill="#FFFFFF" d="M145.597,38.725c0-2.817,1.505-7.187,5.058-7.187c1.457,0,2.529,0.624,3.073,1.664l-0.688,0.593
			c-0.399-0.896-1.264-1.425-2.433-1.425c-2.305,0-3.426,2.465-3.905,4.594c-0.048,0.144-0.064,0.24-0.08,0.304
			c0.576-0.656,1.856-1.488,3.201-1.488c1.873,0,3.186,1.04,3.186,2.77c0,2.129-1.697,4.018-3.986,4.018
			C146.813,42.567,145.597,41.174,145.597,38.725z M152.047,38.677c0-1.297-1.008-2.097-2.513-2.097
			c-1.152,0-2.193,0.607-3.025,1.536c-0.016,0.145-0.032,0.641-0.032,0.849c0,1.616,0.896,2.769,2.577,2.769
			C150.799,41.734,152.047,40.261,152.047,38.677z"/>
	</g>
</g>
</svg>
