<?xml version="1.0" encoding="utf-8"?>
<!-- Generator: Adobe Illustrator 16.0.0, SVG Export Plug-In . SVG Version: 6.00 Build 0)  -->
<!DOCTYPE svg PUBLIC "-//W3C//DTD SVG 1.1//EN" "http://www.w3.org/Graphics/SVG/1.1/DTD/svg11.dtd">
<svg version="1.1" id="Calque_1" xmlns="http://www.w3.org/2000/svg" xmlns:xlink="http://www.w3.org/1999/xlink" x="0px" y="0px"
	 width="100px" height="155px" viewBox="0 0 100 155" enable-background="new 0 0 100 155" xml:space="preserve">
<g>
	<path fill="#FFFFFF" d="M50.367,89.947c0,0-19.551-3.147-21.801-1.348c-2.25,1.801-27.36,8.134-27.36,34.827
		c0,11.03,0,17.494,0,21.292l49.161-5.233V89.947z"/>
	<g>
		<path fill="#FFFFFF" d="M50.367,139.485l48.478-5.161c0-3.02,0-6.61,0-10.897c0-26.693-25.111-33.026-27.36-34.827
			c-2.25-1.8-21.801,1.348-21.801,1.348v60.172h0.684V139.485z"/>
	</g>
</g>
<ellipse transform="matrix(-0.9895 0.1448 -0.1448 -0.9895 51.3585 93.9246)" fill="#FFFFFF" cx="22.261" cy="48.831" rx="4.625" ry="9.51"/>
<ellipse transform="matrix(-0.9838 -0.1793 0.1793 -0.9838 144.9637 110.7673)" fill="#FFFFFF" cx="77.488" cy="48.832" rx="4.625" ry="9.51"/>
<g>
	<path fill="#FFFFFF" d="M49.887,7.142C35.243,7.14,23.372,24.505,23.369,45.93c-0.002,13.027,4.391,24.547,11.122,31.583
		c4.338,4.534,9.646,7.211,15.385,7.211c5.854,0,11.263-2.78,15.651-7.482c6.585-7.057,10.865-18.449,10.865-31.306
		C76.395,24.512,64.527,7.143,49.887,7.142z"/>
	<path fill="#FFFFFF" d="M68.206,88.044c-1.158-1.22-1.884-5.061-2.331-8.833c-2.135,2.321-4.517,4.178-7.077,5.483
		c-0.79,0.403-1.597,0.757-2.421,1.05c-2.024,0.724-4.137,1.115-6.312,1.114c-2.219-0.001-4.372-0.405-6.433-1.155
		c-0.909-0.334-1.8-0.729-2.669-1.193c-2.455-1.312-4.735-3.139-6.789-5.391c-0.436,3.726-1.146,7.541-2.272,8.85
		c-0.264,0.303-0.548,0.477-0.857,0.477c0,2.497,1.062,9.135,9.918,12.541c2.401,0.924,5.373,1.611,9.056,1.912
		c3.546-0.289,6.426-0.939,8.779-1.811c9.107-3.373,10.196-10.121,10.196-12.643C68.711,88.445,68.449,88.299,68.206,88.044z"/>
</g>
<path fill="#18B6D1" stroke="#FFFFFF" stroke-width="1.5" stroke-miterlimit="10" d="M24.117,33.428c0,0,0.73-21.495,13.072-28.53
	c12.343-7.036,25.304-5.511,33.689,2.912c8.383,8.421,6.615,13.111,13.333,12.33c0,0-8.649,17.197-27.658,8.599
	c-19.011-8.599-30.235-3.467-31.885,7.213C23.017,46.629,24.117,33.428,24.117,33.428z"/>
<path fill="#FFFFFF" stroke="#FFFFFF" stroke-miterlimit="10" d="M56.164,24.14c0,0,3.217,4.207,13.486,3.523l-5.49-5.57
	c0,0,5.909,3.505,11.808,0.781c0,0-3.552-1.172-6.317-6.254l4.734,1.825c0,0-4.072-7.393-8.287-10.032l3.553,4.56l-8.597-1.629
	c0,0,3.799,3.966,6.396,8.273l-8.96-2.704l4.331,8.013L56.164,24.14z"/>
<line fill="none" stroke="#18B6D1" stroke-width="1.5" stroke-miterlimit="10" x1="50.064" y1="86.451" x2="50.064" y2="150.119"/>
<g>
	<path fill="#18B6D1" d="M16.73,118.143c0,10.659,0,21.317,0,31.977c0,0.968,1.5,0.968,1.5,0c0-10.659,0-21.317,0-31.977
		C18.23,117.175,16.73,117.175,16.73,118.143L16.73,118.143z"/>
</g>
<g>
	<path fill="#18B6D1" d="M82.679,118.143c0,11.369,0,22.738,0,34.107c0,0.968,1.5,0.968,1.5,0c0-11.369,0-22.738,0-34.107
		C84.179,117.175,82.679,117.175,82.679,118.143L82.679,118.143z"/>
</g>
<g>
	<path fill="#18B6D1" d="M64.489,114.723c0,1.188,0,2.375,0,3.562c0,0.483,0.75,0.483,0.75,0c0-1.188,0-2.375,0-3.562
		C65.239,114.239,64.489,114.239,64.489,114.723L64.489,114.723z"/>
</g>
<g>
	<path fill="#18B6D1" d="M62.144,114.723c0,1.188,0,2.375,0,3.562c0,0.483,0.75,0.483,0.75,0c0-1.188,0-2.375,0-3.562
		C62.894,114.239,62.144,114.239,62.144,114.723L62.144,114.723z"/>
</g>
<g>
	<path fill="#18B6D1" d="M20.606,42.603c-1.66,3.886-1.216,8.365,0.732,12.039c0.377,0.712,1.457,0.081,1.079-0.631
		c-1.715-3.236-2.186-7.374-0.732-10.777C21.998,42.501,20.921,41.863,20.606,42.603L20.606,42.603z"/>
</g>
<g>
	<path fill="#18B6D1" d="M20.519,47.61c-0.133,0.068-0.144,0.042-0.02,0.015c0.256,0.146,0.513,0.291,0.769,0.437c0,0,0,0,0-0.001
		c-0.096,0.235-0.192,0.471-0.288,0.706c0.086-0.06-0.185,0.069-0.039,0.016c0.074-0.027,0.15-0.046,0.227-0.064
		c0.091-0.021,0.401-0.035,0.583,0.008c0.914,0.211,1.232,1.372,1.405,2.165c0.171,0.788,1.376,0.454,1.205-0.332
		c-0.277-1.273-0.875-2.593-2.207-3.019c-0.504-0.161-1.34-0.175-1.805,0.147c-0.245,0.169-0.348,0.412-0.287,0.706c0,0,0,0,0,0.001
		c0.072,0.347,0.453,0.504,0.769,0.437c0.105-0.023,0.22-0.091,0.318-0.142C21.867,48.321,21.234,47.242,20.519,47.61L20.519,47.61z
		"/>
</g>
<g>
	<path fill="#18B6D1" d="M78.235,43.233c1.454,3.403,0.984,7.541-0.731,10.777c-0.377,0.711,0.702,1.343,1.08,0.631
		c1.948-3.674,2.392-8.153,0.731-12.039C78.999,41.863,77.923,42.501,78.235,43.233L78.235,43.233z"/>
</g>
<g>
	<path fill="#18B6D1" d="M78.771,48.689c0.098,0.05,0.214,0.119,0.318,0.142c0.327,0.07,0.684-0.092,0.77-0.437c0,0,0-0.001,0-0.001
		c0.072-0.291-0.051-0.541-0.287-0.706c-0.474-0.332-1.287-0.289-1.804-0.147c-1.333,0.366-1.939,1.793-2.206,3.019
		c-0.171,0.786,1.034,1.12,1.205,0.332c0.18-0.826,0.491-1.915,1.404-2.165c0.142-0.039,0.139-0.033,0.307-0.035
		c0.146-0.002,0.229,0.017,0.229,0.017c0.082,0.015,0.164,0.038,0.244,0.064c0.179,0.058-0.071-0.048-0.01-0.005
		c-0.096-0.235-0.191-0.471-0.287-0.706c0,0,0,0-0.001,0.001c0.257-0.146,0.513-0.291,0.77-0.437
		c0.123,0.026,0.112,0.053-0.021-0.015C78.686,47.243,78.053,48.321,78.771,48.689L78.771,48.689z"/>
</g>
<path fill="#18B6D1" d="M41.49,63.546l16.624-0.174C58.113,63.372,50.258,80.424,41.49,63.546z"/>
<g>
	<path fill="#18B6D1" d="M44.684,53.451c0.397,0.621,1.049,1.579,1.847,1.675c0.204,0.025,1.093-0.004,0.635-0.319
		c0.531,0.365,1.143,0.591,1.755,0.773c0.688,0.205,1.392,0.149,2.084,0.021c0.523-0.097,1.241-0.836,1.441-0.768
		c1.319,0.452,2.238-0.301,2.909-1.383c0.255-0.413-0.394-0.789-0.648-0.379c-0.52,0.839-1.23,1.492-2.146,0.994
		c-0.16-0.087-0.319-0.052-0.455,0.059c-1.428,1.174-3.164,0.995-4.605,0.006c-0.138-0.095-0.342-0.054-0.455,0.059
		c-0.629,0.626-1.455-0.708-1.716-1.117C45.072,52.667,44.422,53.042,44.684,53.451L44.684,53.451z"/>
</g>
<path fill="#FFFFFF" d="M45.663,67.474c0,0,4.987-2.379,7.896,0.588c0,0-1.238,1.706-3.67,1.741
	C46.467,69.853,45.663,67.474,45.663,67.474z"/>
<ellipse fill="#18B6D1" cx="71.031" cy="33.512" rx="0.504" ry="0.586"/>
<ellipse fill="#18B6D1" cx="73.514" cy="32.34" rx="0.504" ry="0.586"/>
<ellipse fill="#18B6D1" cx="74.018" cy="35.857" rx="0.503" ry="0.586"/>
<g>
	<path fill="#18B6D1" d="M34.195,41.219c1.589-2.496,6.359-3.365,7.496-0.007c0.257,0.759,1.464,0.434,1.205-0.332
		c-1.494-4.414-7.595-3.723-9.78-0.292C32.682,41.271,33.764,41.897,34.195,41.219L34.195,41.219z"/>
</g>
<g>
	<path fill="#18B6D1" d="M66.56,40.771c-2.184-3.435-8.285-4.123-9.78,0.29c-0.26,0.766,0.948,1.091,1.205,0.332
		c1.138-3.357,5.907-2.489,7.495,0.009C65.911,42.08,66.993,41.454,66.56,40.771L66.56,40.771z"/>
</g>
<circle fill="#19B0D1" cx="38.331" cy="43.092" r="1.165"/>
<circle fill="#19B0D1" cx="61.707" cy="43.092" r="1.165"/>
<circle fill="none" stroke="#18B6D1" stroke-width="2" stroke-miterlimit="10" cx="38.33" cy="41.583" r="8.677"/>
<path fill="none" stroke="#18B6D1" stroke-width="2" stroke-miterlimit="10" d="M70.384,41.583c0,4.789-3.887,8.672-8.676,8.672
	c-4.794,0-8.679-3.883-8.679-8.672c0-4.791,3.885-8.672,8.679-8.672C66.497,32.911,70.384,36.792,70.384,41.583z"/>
<line fill="none" stroke="#18B6D1" stroke-width="2" stroke-miterlimit="10" x1="47.006" y1="41.583" x2="53.029" y2="41.583"/>
<path fill="none" stroke="#18B6D1" stroke-width="1.5" stroke-miterlimit="10" d="M59.808,115.537h13.239
	c0,0,1.093,14.332-6.619,14.332C58.715,129.869,59.808,115.537,59.808,115.537z"/>
<line fill="none" stroke="#18B6D1" stroke-width="1.5" stroke-miterlimit="10" x1="62.519" y1="115.537" x2="62.519" y2="110.521"/>
<line fill="none" stroke="#18B6D1" stroke-width="1.5" stroke-miterlimit="10" x1="64.864" y1="115.537" x2="64.864" y2="109.445"/>
<polyline fill="none" stroke="#18B6D1" stroke-width="1.5" stroke-miterlimit="10" points="49.235,86.839 40.631,99.51 
	28.222,83.553 "/>
<polyline fill="none" stroke="#18B6D1" stroke-width="1.5" stroke-miterlimit="10" points="50.852,86.839 59.458,99.51 
	71.867,83.553 "/>
</svg>
