<?xml version="1.0" encoding="utf-8"?>
<!-- Generator: Adobe Illustrator 16.0.0, SVG Export Plug-In . SVG Version: 6.00 Build 0)  -->
<!DOCTYPE svg PUBLIC "-//W3C//DTD SVG 1.1//EN" "http://www.w3.org/Graphics/SVG/1.1/DTD/svg11.dtd">
<svg version="1.1" id="Calque_1" xmlns="http://www.w3.org/2000/svg" xmlns:xlink="http://www.w3.org/1999/xlink" x="0px" y="0px"
	 width="330px" height="50px" viewBox="0 0 330 50" enable-background="new 0 0 330 50" xml:space="preserve">
<g>
	<path fill="#FFFFFF" d="M74.151,16.798l2.94-13.343h5.141c1.801,0,3.301,1.18,3.301,3.021c0,1.921-1.44,3.4-3.101,3.601
		c1.1,0.28,1.94,1.501,1.94,2.761c0,2.021-1.44,3.961-4.521,3.961H74.151z M83.193,12.778c0-1.301-0.9-2.301-2.44-2.301h-4.061
		l-1.18,5.281h4.401C82.053,15.758,83.193,14.278,83.193,12.778z M84.273,6.596c0-1.2-1.02-2.101-2.3-2.101h-3.961l-1.08,4.941
		h4.361C83.513,9.437,84.273,7.936,84.273,6.596z"/>
	<path fill="#FFFFFF" d="M85.411,16.798l2.141-9.662h1.04l-2.14,9.662H85.411z M87.752,4.916c0-0.54,0.5-0.88,0.9-0.88
		c0.42,0,0.74,0.32,0.74,0.7c0,0.54-0.5,0.88-0.92,0.88C88.072,5.616,87.752,5.295,87.752,4.916z"/>
	<path fill="#FFFFFF" d="M88.691,16.798l2.941-13.343h1.04l-2.94,13.343H88.691z"/>
	<path fill="#FFFFFF" d="M100.893,8.777l0.34-1.641h1.06l-2.141,9.662h-1.06l0.34-1.46c-0.8,1.02-1.94,1.7-3.321,1.7
		c-2.221,0-3.781-1.48-3.781-3.961c0-3.261,2.02-6.182,5.081-6.182C98.992,6.896,100.232,7.676,100.893,8.777z M93.471,12.877
		c0,1.98,1.16,3.221,2.92,3.221c1.36,0,2.621-0.86,3.281-1.86l1.021-4.641c-0.48-0.961-1.641-1.761-3.201-1.761
		C95.071,7.836,93.471,10.337,93.471,12.877z"/>
	<path fill="#FFFFFF" d="M108.912,16.798l1.44-6.562c0.04-0.18,0.12-0.46,0.12-0.7c0-1.2-0.92-1.7-2.161-1.7
		c-1.2,0-2.44,0.82-3.261,1.681l-1.62,7.281h-1.041l2.141-9.662h1.04l-0.32,1.46c0.86-0.84,2.12-1.7,3.48-1.7
		c1.641,0,2.821,0.78,2.821,2.36c0,0.181-0.06,0.601-0.12,0.82l-1.48,6.722H108.912z"/>
	<path fill="#FFFFFF" d="M125.292,8.777l1.16-5.321h1.061l-2.961,13.343h-1.06l0.34-1.46c-0.8,1.02-1.94,1.7-3.321,1.7
		c-2.221,0-3.781-1.48-3.781-3.961c0-3.261,2.02-6.182,5.081-6.182C123.392,6.896,124.632,7.676,125.292,8.777z M117.871,12.877
		c0,1.98,1.16,3.221,2.92,3.221c1.36,0,2.621-0.86,3.281-1.86l1.021-4.641c-0.48-0.961-1.641-1.761-3.201-1.761
		C119.471,7.836,117.871,10.337,117.871,12.877z"/>
	<path fill="#FFFFFF" d="M127.17,12.778c0-3.221,2.36-5.882,5.361-5.882c2.581,0,4.101,1.82,4.101,4.181
		c0,0.421-0.1,0.98-0.16,1.221h-8.162c-0.02,0.12-0.04,0.38-0.04,0.561c0,1.78,1.18,3.28,3.541,3.28c0.98,0,2.081-0.34,2.921-1.04
		l0.4,0.76c-0.86,0.66-2.101,1.181-3.361,1.181C128.871,17.039,127.17,15.298,127.17,12.778z M135.612,11.477
		c0.02-0.1,0.02-0.32,0.02-0.439c0-1.881-1.14-3.241-3.221-3.241c-1.94,0-3.661,1.7-4,3.681h7.141H135.612z"/>
	<path fill="#FFFFFF" d="M141.31,16.798l2.941-13.343h1.04l-2.94,13.343H141.31z"/>
	<path fill="#FFFFFF" d="M153.511,8.777l0.34-1.641h1.06l-2.141,9.662h-1.06l0.34-1.46c-0.8,1.02-1.94,1.7-3.32,1.7
		c-2.221,0-3.781-1.48-3.781-3.961c0-3.261,2.02-6.182,5.081-6.182C151.611,6.896,152.851,7.676,153.511,8.777z M146.09,12.877
		c0,1.98,1.16,3.221,2.92,3.221c1.36,0,2.621-0.86,3.281-1.86l1.021-4.641c-0.48-0.961-1.641-1.761-3.201-1.761
		C147.69,7.836,146.09,10.337,146.09,12.877z"/>
	<path fill="#FFFFFF" d="M168.112,8.777l0.341-1.641h1.061l-2.962,13.343h-1.061l1.161-5.141c-0.8,1.02-1.94,1.7-3.321,1.7
		c-2.221,0-3.781-1.48-3.781-3.961c0-3.261,2.02-6.182,5.081-6.182C166.211,6.896,167.452,7.676,168.112,8.777z M160.69,12.877
		c0,1.98,1.16,3.221,2.92,3.221c1.36,0,2.621-0.86,3.281-1.86l1.021-4.641c-0.48-0.961-1.641-1.761-3.201-1.761
		C162.29,7.836,160.69,10.337,160.69,12.877z"/>
	<path fill="#FFFFFF" d="M172.712,7.136l-1.461,6.541c-0.039,0.181-0.1,0.48-0.1,0.721c0,1.2,0.92,1.7,2.141,1.7
		c1.22,0,2.46-0.82,3.28-1.7l1.621-7.262h1.04l-2.141,9.662h-1.04l0.319-1.46c-0.859,0.84-2.12,1.7-3.48,1.7
		c-1.641,0-2.82-0.78-2.82-2.36c0-0.181,0.06-0.601,0.12-0.82l1.46-6.722H172.712z"/>
	<path fill="#FFFFFF" d="M188.253,8.777l0.341-1.641h1.06l-2.141,9.662h-1.06l0.34-1.46c-0.8,1.02-1.94,1.7-3.32,1.7
		c-2.221,0-3.781-1.48-3.781-3.961c0-3.261,2.021-6.182,5.081-6.182C186.353,6.896,187.593,7.676,188.253,8.777z M180.832,12.877
		c0,1.98,1.16,3.221,2.92,3.221c1.36,0,2.621-0.86,3.281-1.86l1.021-4.641c-0.48-0.961-1.641-1.761-3.201-1.761
		C182.432,7.836,180.832,10.337,180.832,12.877z"/>
	<path fill="#FFFFFF" d="M189.751,16.798l2.941-13.343h1.04l-2.94,13.343H189.751z"/>
	<path fill="#FFFFFF" d="M193.031,16.798l2.141-9.662h1.04l-2.141,9.662H193.031z M195.371,4.916c0-0.54,0.501-0.88,0.9-0.88
		c0.42,0,0.74,0.32,0.74,0.7c0,0.54-0.5,0.88-0.92,0.88C195.691,5.616,195.371,5.295,195.371,4.916z"/>
	<path fill="#FFFFFF" d="M196.851,15.438c0-0.1,0.021-0.34,0.08-0.521l1.521-6.861h-1.601l0.2-0.92h1.601l0.58-2.641h1.061
		l-0.58,2.641h1.96l-0.22,0.92h-1.961l-1.48,6.702c-0.02,0.119-0.039,0.239-0.039,0.42c0,0.58,0.319,0.92,0.979,0.92
		c0.38,0,0.78-0.18,1.021-0.36l0.2,0.841c-0.36,0.26-0.82,0.46-1.381,0.46C197.591,17.039,196.851,16.539,196.851,15.438z"/>
	<path fill="#FFFFFF" d="M201.19,12.778c0-3.221,2.36-5.882,5.361-5.882c2.58,0,4.101,1.82,4.101,4.181c0,0.421-0.1,0.98-0.16,1.221
		h-8.161c-0.021,0.12-0.04,0.38-0.04,0.561c0,1.78,1.18,3.28,3.54,3.28c0.98,0,2.081-0.34,2.921-1.04l0.4,0.76
		c-0.86,0.66-2.101,1.181-3.361,1.181C202.891,17.039,201.19,15.298,201.19,12.778z M209.632,11.477
		c0.021-0.1,0.021-0.32,0.021-0.439c0-1.881-1.141-3.241-3.221-3.241c-1.94,0-3.661,1.7-4.001,3.681h7.142H209.632z M207.071,5.676
		h-0.899l3.721-2.881h1.26L207.071,5.676z"/>
	<path fill="#FFFFFF" d="M224.252,8.777l1.16-5.321h1.061l-2.961,13.343h-1.061l0.34-1.46c-0.8,1.02-1.939,1.7-3.32,1.7
		c-2.221,0-3.78-1.48-3.78-3.961c0-3.261,2.02-6.182,5.081-6.182C222.352,6.896,223.592,7.676,224.252,8.777z M216.83,12.877
		c0,1.98,1.16,3.221,2.921,3.221c1.36,0,2.62-0.86,3.28-1.86l1.021-4.641c-0.48-0.961-1.641-1.761-3.2-1.761
		C218.431,7.836,216.83,10.337,216.83,12.877z"/>
	<path fill="#FFFFFF" d="M226.13,12.778c0-3.221,2.36-5.882,5.361-5.882c2.58,0,4.101,1.82,4.101,4.181c0,0.421-0.1,0.98-0.16,1.221
		h-8.161c-0.021,0.12-0.04,0.38-0.04,0.561c0,1.78,1.18,3.28,3.54,3.28c0.98,0,2.081-0.34,2.921-1.04l0.4,0.76
		c-0.86,0.66-2.101,1.181-3.361,1.181C227.83,17.039,226.13,15.298,226.13,12.778z M234.571,11.477
		c0.021-0.1,0.021-0.32,0.021-0.439c0-1.881-1.141-3.241-3.221-3.241c-1.94,0-3.661,1.7-4.001,3.681h7.142H234.571z"/>
	<path fill="#FFFFFF" d="M240.27,16.798l2.94-13.343h1.04l-2.94,13.343H240.27z"/>
	<path fill="#FFFFFF" d="M245.79,7.136l-0.48-0.521c0.74-0.38,1.38-1.06,1.561-1.68c-0.021,0-0.101,0-0.141,0
		c-0.359,0-0.68-0.32-0.68-0.721c0-0.54,0.44-0.96,0.94-0.96c0.479,0,0.859,0.32,0.859,0.96C247.85,5.356,246.85,6.576,245.79,7.136
		z"/>
	<path fill="#FFFFFF" d="M255.851,8.777l0.341-1.641h1.06l-2.141,9.662h-1.06l0.34-1.46c-0.8,1.02-1.94,1.7-3.32,1.7
		c-2.221,0-3.781-1.48-3.781-3.961c0-3.261,2.021-6.182,5.081-6.182C253.95,6.896,255.19,7.676,255.851,8.777z M248.43,12.877
		c0,1.98,1.16,3.221,2.92,3.221c1.36,0,2.621-0.86,3.281-1.86l1.021-4.641c-0.48-0.961-1.641-1.761-3.201-1.761
		C250.029,7.836,248.43,10.337,248.43,12.877z"/>
	<path fill="#FFFFFF" d="M257.349,16.798l2.141-9.662h1.04l-2.14,9.662H257.349z M259.689,4.916c0-0.54,0.5-0.88,0.9-0.88
		c0.42,0,0.74,0.32,0.74,0.7c0,0.54-0.5,0.88-0.921,0.88C260.01,5.616,259.689,5.295,259.689,4.916z"/>
	<path fill="#FFFFFF" d="M260.629,16.798l2.141-9.662h1.04l-0.36,1.561c1-1.16,1.94-1.761,3.681-1.761l-0.26,1.12
		c-0.12-0.02-0.36-0.06-0.7-0.06c-1.181,0-2.32,0.88-2.94,1.76l-1.561,7.042H260.629z"/>
	<path fill="#FFFFFF" d="M14.725,35.776l1.16-5.321h1.061l-2.961,13.343h-1.06l0.34-1.46c-0.8,1.02-1.94,1.7-3.321,1.7
		c-2.221,0-3.781-1.48-3.781-3.961c0-3.261,2.02-6.182,5.081-6.182C12.824,33.896,14.064,34.676,14.725,35.776z M7.303,39.877
		c0,1.98,1.16,3.221,2.92,3.221c1.36,0,2.621-0.86,3.281-1.86l1.021-4.641c-0.48-0.961-1.641-1.761-3.201-1.761
		C8.903,34.836,7.303,37.337,7.303,39.877z"/>
	<path fill="#FFFFFF" d="M25.145,35.776l0.34-1.641h1.06l-2.141,9.662h-1.06l0.34-1.46c-0.8,1.02-1.94,1.7-3.321,1.7
		c-2.221,0-3.781-1.48-3.781-3.961c0-3.261,2.02-6.182,5.081-6.182C23.244,33.896,24.484,34.676,25.145,35.776z M17.723,39.877
		c0,1.98,1.16,3.221,2.92,3.221c1.36,0,2.621-0.86,3.281-1.86l1.021-4.641c-0.48-0.961-1.641-1.761-3.201-1.761
		C19.323,34.836,17.723,37.337,17.723,39.877z"/>
	<path fill="#FFFFFF" d="M33.164,43.798l1.44-6.562c0.04-0.18,0.12-0.46,0.12-0.7c0-1.2-0.92-1.7-2.161-1.7
		c-1.2,0-2.44,0.82-3.261,1.681l-1.62,7.281h-1.041l2.141-9.662h1.04l-0.32,1.46c0.86-0.84,2.12-1.7,3.48-1.7
		c1.641,0,2.821,0.78,2.821,2.36c0,0.181-0.06,0.601-0.12,0.82l-1.48,6.722H33.164z"/>
	<path fill="#FFFFFF" d="M36.062,42.338l0.74-0.721c0.5,0.801,1.68,1.541,3.161,1.541c1.6,0,2.561-0.961,2.561-2.001
		c0-2.061-5.161-1.801-5.161-4.401c0-1.56,1.28-2.86,3.521-2.86c1.661,0,2.981,0.74,3.521,1.581l-0.68,0.68
		c-0.42-0.76-1.641-1.38-2.921-1.38c-1.46,0-2.38,0.76-2.38,1.74c0,1.96,5.161,1.66,5.161,4.421c0,1.6-1.3,3.101-3.641,3.101
		C38.203,44.038,36.862,43.458,36.062,42.338z"/>
	<path fill="#FFFFFF" d="M48.802,43.798l2.941-13.343h1.04l-2.94,13.343H48.802z"/>
	<path fill="#FFFFFF" d="M52.462,39.777c0-3.221,2.36-5.882,5.361-5.882c2.581,0,4.101,1.82,4.101,4.181
		c0,0.421-0.1,0.98-0.16,1.221h-8.162c-0.02,0.12-0.04,0.38-0.04,0.561c0,1.78,1.18,3.28,3.541,3.28c0.98,0,2.081-0.34,2.921-1.04
		l0.4,0.76c-0.86,0.66-2.101,1.181-3.361,1.181C54.163,44.038,52.462,42.298,52.462,39.777z M60.904,38.477
		c0.02-0.1,0.02-0.32,0.02-0.439c0-1.881-1.14-3.241-3.221-3.241c-1.94,0-3.661,1.7-4,3.681h7.141H60.904z"/>
	<path fill="#FFFFFF" d="M62.042,42.338l0.74-0.721c0.5,0.801,1.68,1.541,3.161,1.541c1.6,0,2.561-0.961,2.561-2.001
		c0-2.061-5.161-1.801-5.161-4.401c0-1.56,1.28-2.86,3.521-2.86c1.661,0,2.981,0.74,3.521,1.581l-0.68,0.68
		c-0.42-0.76-1.641-1.38-2.921-1.38c-1.46,0-2.38,0.76-2.38,1.74c0,1.96,5.161,1.66,5.161,4.421c0,1.6-1.3,3.101-3.641,3.101
		C64.182,44.038,62.842,43.458,62.042,42.338z"/>
	<path fill="#FFFFFF" d="M75.082,41.337l0.92-0.66c0.7,1.601,1.98,2.321,3.761,2.321c2,0,3.681-1.581,3.681-3.642
		c0-1.84-1.38-2.84-3.221-2.84c-1.101,0-2,0.34-2.921,1l-0.76-0.44l1.46-6.621h7.702l-0.22,1.04h-6.561l-1.101,4.941
		c0.6-0.46,1.641-0.921,2.861-0.921c2.081,0,3.961,1.28,3.961,3.741c0,2.561-2.041,4.781-4.981,4.781
		C77.382,44.038,75.922,43.138,75.082,41.337z"/>
	<path fill="#FFFFFF" d="M86.182,38.917c0-3.881,2.28-8.662,6.161-8.662c2.781,0,4.161,2.021,4.161,5.102
		c0,3.881-2.241,8.682-6.102,8.682C87.622,44.038,86.182,41.997,86.182,38.917z M95.324,35.276c0-2.261-0.86-3.981-3.101-3.981
		c-3.001,0-4.841,4.361-4.841,7.702c0,2.26,0.86,4.001,3.101,4.001C93.483,42.998,95.324,38.617,95.324,35.276z"/>
	<path fill="#FFFFFF" d="M102.161,42.157l-1.18,5.321H99.94l2.961-13.343h1.04l-0.32,1.46c0.78-1.02,1.94-1.7,3.321-1.7
		c2.2,0,3.761,1.48,3.761,3.961c0,3.241-2.021,6.182-5.061,6.182C104.042,44.038,102.821,43.258,102.161,42.157z M109.562,38.057
		c0-1.98-1.16-3.221-2.92-3.221c-1.36,0-2.601,0.86-3.281,1.86l-1.02,4.641c0.48,0.961,1.64,1.761,3.201,1.761
		C107.982,43.098,109.562,40.598,109.562,38.057z"/>
	<path fill="#FFFFFF" d="M111.101,43.798l2.941-13.343h1.04l-2.94,13.343H111.101z"/>
	<path fill="#FFFFFF" d="M117.561,34.136l-1.46,6.541c-0.04,0.181-0.1,0.48-0.1,0.721c0,1.2,0.92,1.7,2.14,1.7s2.46-0.82,3.281-1.7
		l1.621-7.262h1.04l-2.141,9.662h-1.04l0.32-1.46c-0.86,0.84-2.12,1.7-3.48,1.7c-1.641,0-2.821-0.78-2.821-2.36
		c0-0.181,0.06-0.601,0.12-0.82l1.46-6.722H117.561z"/>
	<path fill="#FFFFFF" d="M123.8,42.338l0.74-0.721c0.5,0.801,1.68,1.541,3.161,1.541c1.6,0,2.561-0.961,2.561-2.001
		c0-2.061-5.161-1.801-5.161-4.401c0-1.56,1.28-2.86,3.521-2.86c1.661,0,2.981,0.74,3.521,1.581l-0.68,0.68
		c-0.42-0.76-1.641-1.38-2.921-1.38c-1.46,0-2.38,0.76-2.38,1.74c0,1.96,5.161,1.66,5.161,4.421c0,1.6-1.3,3.101-3.641,3.101
		C125.94,44.038,124.601,43.458,123.8,42.338z"/>
	<path fill="#FFFFFF" d="M136.08,46.078l0.74-0.78c0.68,1.041,1.86,1.48,3.42,1.48c1.541,0,2.981-0.82,3.441-3.061l0.3-1.46
		c-0.78,1-1.98,1.7-3.421,1.7c-2.041,0-3.661-1.301-3.661-4.021c0-3.102,1.94-6.042,5.021-6.042c1.38,0,2.8,0.82,3.5,1.881
		l0.38-1.641h1.06l-2.141,9.582c-0.66,2.94-2.4,4.001-4.481,4.001C138.44,47.719,137.06,47.358,136.08,46.078z M144.202,41.297
		l1.061-4.681c-0.581-1.08-1.92-1.78-3.301-1.78c-2.441,0-3.941,2.561-3.941,4.961c0,2.021,1.14,3.221,2.92,3.221
		C142.181,43.018,143.461,42.218,144.202,41.297z"/>
	<path fill="#FFFFFF" d="M146.939,43.798l2.141-9.662h1.04l-0.36,1.561c1-1.16,1.94-1.761,3.681-1.761l-0.26,1.12
		c-0.12-0.02-0.36-0.06-0.7-0.06c-1.18,0-2.32,0.88-2.94,1.76l-1.56,7.042H146.939z"/>
	<path fill="#FFFFFF" d="M161.201,35.776l0.34-1.641h1.06l-2.141,9.662h-1.06l0.34-1.46c-0.8,1.02-1.94,1.7-3.321,1.7
		c-2.221,0-3.781-1.48-3.781-3.961c0-3.261,2.02-6.182,5.081-6.182C159.301,33.896,160.541,34.676,161.201,35.776z M153.78,39.877
		c0,1.98,1.16,3.221,2.92,3.221c1.36,0,2.621-0.86,3.281-1.86l1.021-4.641c-0.48-0.961-1.641-1.761-3.201-1.761
		C155.38,34.836,153.78,37.337,153.78,39.877z"/>
	<path fill="#FFFFFF" d="M169.223,43.798l1.44-6.562c0.04-0.18,0.12-0.46,0.12-0.7c0-1.2-0.921-1.7-2.161-1.7
		c-1.201,0-2.441,0.82-3.262,1.681l-1.62,7.281h-1.041l2.141-9.662h1.04l-0.32,1.46c0.86-0.84,2.121-1.7,3.482-1.7
		c1.642,0,2.821,0.78,2.821,2.36c0,0.181-0.06,0.601-0.12,0.82l-1.48,6.722H169.223z"/>
	<path fill="#FFFFFF" d="M181.423,35.776l1.16-5.321h1.061l-2.961,13.343h-1.06l0.34-1.46c-0.8,1.02-1.94,1.7-3.32,1.7
		c-2.221,0-3.781-1.48-3.781-3.961c0-3.261,2.021-6.182,5.081-6.182C179.522,33.896,180.763,34.676,181.423,35.776z M174.002,39.877
		c0,1.98,1.16,3.221,2.92,3.221c1.36,0,2.621-0.86,3.281-1.86l1.021-4.641c-0.48-0.961-1.641-1.761-3.201-1.761
		C175.602,34.836,174.002,37.337,174.002,39.877z"/>
	<path fill="#FFFFFF" d="M183.302,39.777c0-3.221,2.36-5.882,5.361-5.882c2.58,0,4.101,1.82,4.101,4.181
		c0,0.421-0.1,0.98-0.16,1.221h-8.161c-0.021,0.12-0.04,0.38-0.04,0.561c0,1.78,1.18,3.28,3.54,3.28c0.98,0,2.081-0.34,2.921-1.04
		l0.4,0.76c-0.86,0.66-2.101,1.181-3.361,1.181C185.002,44.038,183.302,42.298,183.302,39.777z M191.743,38.477
		c0.021-0.1,0.021-0.32,0.021-0.439c0-1.881-1.141-3.241-3.221-3.241c-1.94,0-3.661,1.7-4.001,3.681h7.142H191.743z"/>
	<path fill="#FFFFFF" d="M192.881,42.338l0.74-0.721c0.5,0.801,1.681,1.541,3.161,1.541c1.6,0,2.561-0.961,2.561-2.001
		c0-2.061-5.161-1.801-5.161-4.401c0-1.56,1.28-2.86,3.521-2.86c1.66,0,2.98,0.74,3.521,1.581l-0.68,0.68
		c-0.421-0.76-1.641-1.38-2.921-1.38c-1.46,0-2.381,0.76-2.381,1.74c0,1.96,5.161,1.66,5.161,4.421c0,1.6-1.3,3.101-3.641,3.101
		C195.021,44.038,193.681,43.458,192.881,42.338z"/>
	<path fill="#FFFFFF" d="M208.222,43.798l-1.94-9.662h1.12l1.62,8.441l5.381-8.441h1.221l-6.222,9.662H208.222z"/>
	<path fill="#FFFFFF" d="M214.24,43.798l2.141-9.662h1.04l-2.14,9.662H214.24z M216.581,31.915c0-0.54,0.5-0.88,0.9-0.88
		c0.42,0,0.74,0.32,0.74,0.7c0,0.54-0.5,0.88-0.921,0.88C216.901,32.615,216.581,32.295,216.581,31.915z"/>
	<path fill="#FFFFFF" d="M217.521,43.798l2.94-13.343h1.04l-2.94,13.343H217.521z"/>
	<path fill="#FFFFFF" d="M220.8,43.798l2.941-13.343h1.04l-2.94,13.343H220.8z"/>
	<path fill="#FFFFFF" d="M224.46,39.777c0-3.221,2.36-5.882,5.361-5.882c2.58,0,4.101,1.82,4.101,4.181c0,0.421-0.1,0.98-0.16,1.221
		h-8.161c-0.021,0.12-0.04,0.38-0.04,0.561c0,1.78,1.18,3.28,3.54,3.28c0.98,0,2.081-0.34,2.921-1.04l0.4,0.76
		c-0.86,0.66-2.101,1.181-3.361,1.181C226.16,44.038,224.46,42.298,224.46,39.777z M232.901,38.477
		c0.021-0.1,0.021-0.32,0.021-0.439c0-1.881-1.141-3.241-3.221-3.241c-1.94,0-3.661,1.7-4.001,3.681h7.142H232.901z"/>
	<path fill="#FFFFFF" d="M234.04,42.338l0.74-0.721c0.5,0.801,1.68,1.541,3.16,1.541c1.601,0,2.561-0.961,2.561-2.001
		c0-2.061-5.161-1.801-5.161-4.401c0-1.56,1.28-2.86,3.521-2.86c1.661,0,2.981,0.74,3.521,1.581l-0.681,0.68
		c-0.42-0.76-1.641-1.38-2.921-1.38c-1.46,0-2.38,0.76-2.38,1.74c0,1.96,5.161,1.66,5.161,4.421c0,1.6-1.301,3.101-3.641,3.101
		C236.18,44.038,234.84,43.458,234.04,42.338z"/>
	<path fill="#FFFFFF" d="M247.12,43.798l1.94-8.742h-1.601l0.2-0.92h1.6l0.181-0.88c0.359-1.801,1.32-3.001,3-3.001
		c0.801,0,1.381,0.2,1.921,0.74l-0.641,0.74c-0.279-0.32-0.66-0.54-1.26-0.54c-1.12,0-1.681,0.76-1.961,2.061l-0.199,0.88h1.98
		l-0.221,0.92h-1.96l-1.921,8.742H247.12z"/>
	<path fill="#FFFFFF" d="M251.079,43.798l2.141-9.662h1.04l-0.359,1.561c1-1.16,1.94-1.761,3.681-1.761l-0.261,1.12
		c-0.119-0.02-0.359-0.06-0.7-0.06c-1.18,0-2.32,0.88-2.94,1.76l-1.56,7.042H251.079z"/>
	<path fill="#FFFFFF" d="M265.341,35.776l0.341-1.641h1.06l-2.141,9.662h-1.06l0.34-1.46c-0.8,1.02-1.94,1.7-3.32,1.7
		c-2.221,0-3.781-1.48-3.781-3.961c0-3.261,2.021-6.182,5.081-6.182C263.44,33.896,264.681,34.676,265.341,35.776z M257.92,39.877
		c0,1.98,1.16,3.221,2.92,3.221c1.36,0,2.621-0.86,3.281-1.86l1.021-4.641c-0.48-0.961-1.641-1.761-3.201-1.761
		C259.52,34.836,257.92,37.337,257.92,39.877z"/>
	<path fill="#FFFFFF" d="M273.36,43.798l1.44-6.562c0.04-0.18,0.12-0.46,0.12-0.7c0-1.2-0.92-1.7-2.16-1.7
		c-1.2,0-2.44,0.82-3.261,1.681l-1.62,7.281h-1.041l2.141-9.662h1.04l-0.319,1.46c0.859-0.84,2.12-1.7,3.48-1.7
		c1.641,0,2.82,0.78,2.82,2.36c0,0.181-0.06,0.601-0.12,0.82l-1.48,6.722H273.36z"/>
	<path fill="#FFFFFF" d="M278.159,46.839l0.46-0.601c0.44,0.46,1.08,0.681,1.66,0.681c0.9,0,1.32-0.461,1.32-1.021
		c0-0.4-0.3-0.681-0.8-0.681c-0.26,0-0.54,0.12-0.74,0.36l-0.479-0.32l0.76-1.3c-1.98-0.36-3.32-1.82-3.32-4.201
		c0-3.181,2.34-5.861,5.36-5.861c1.661,0,2.801,0.641,3.461,1.761l-0.8,0.6c-0.561-0.979-1.561-1.42-2.621-1.42
		c-2.66,0-4.301,2.4-4.301,4.941c0,2.2,1.44,3.32,3.301,3.32c1.08,0,2.001-0.5,2.621-1.24l0.6,0.72
		c-0.84,0.86-1.86,1.461-3.32,1.461c-0.101,0-0.2-0.021-0.28-0.021l-0.54,0.9c0.22-0.16,0.439-0.22,0.68-0.22
		c0.681,0,1.16,0.42,1.16,1.14c0,1.021-0.84,1.741-2.1,1.741C279.319,47.579,278.6,47.259,278.159,46.839z"/>
	<path fill="#FFFFFF" d="M294.44,35.776l0.341-1.641h1.06l-2.141,9.662h-1.06l0.34-1.46c-0.8,1.02-1.94,1.7-3.32,1.7
		c-2.221,0-3.781-1.48-3.781-3.961c0-3.261,2.021-6.182,5.081-6.182C292.54,33.896,293.78,34.676,294.44,35.776z M287.02,39.877
		c0,1.98,1.16,3.221,2.92,3.221c1.36,0,2.621-0.86,3.281-1.86l1.021-4.641c-0.48-0.961-1.641-1.761-3.201-1.761
		C288.619,34.836,287.02,37.337,287.02,39.877z"/>
	<path fill="#FFFFFF" d="M295.938,43.798l2.141-9.662h1.04l-2.14,9.662H295.938z M298.279,31.915c0-0.54,0.5-0.88,0.9-0.88
		c0.42,0,0.74,0.32,0.74,0.7c0,0.54-0.5,0.88-0.921,0.88C298.6,32.615,298.279,32.295,298.279,31.915z"/>
	<path fill="#FFFFFF" d="M298.839,42.338l0.74-0.721c0.5,0.801,1.68,1.541,3.16,1.541c1.601,0,2.561-0.961,2.561-2.001
		c0-2.061-5.161-1.801-5.161-4.401c0-1.56,1.28-2.86,3.521-2.86c1.661,0,2.981,0.74,3.521,1.581l-0.681,0.68
		c-0.42-0.76-1.641-1.38-2.921-1.38c-1.46,0-2.38,0.76-2.38,1.74c0,1.96,5.161,1.66,5.161,4.421c0,1.6-1.301,3.101-3.641,3.101
		C300.979,44.038,299.639,43.458,298.839,42.338z"/>
	<path fill="#FFFFFF" d="M307.779,39.777c0-3.221,2.36-5.882,5.36-5.882c2.581,0,4.102,1.82,4.102,4.181
		c0,0.421-0.101,0.98-0.16,1.221h-8.162c-0.02,0.12-0.04,0.38-0.04,0.561c0,1.78,1.181,3.28,3.541,3.28c0.98,0,2.08-0.34,2.921-1.04
		l0.399,0.76c-0.86,0.66-2.101,1.181-3.36,1.181C309.479,44.038,307.779,42.298,307.779,39.777z M316.221,38.477
		c0.02-0.1,0.02-0.32,0.02-0.439c0-1.881-1.14-3.241-3.221-3.241c-1.94,0-3.66,1.7-4,3.681h7.141H316.221z"/>
	<path fill="#FFFFFF" d="M317.358,42.338l0.74-0.721c0.5,0.801,1.681,1.541,3.161,1.541c1.6,0,2.561-0.961,2.561-2.001
		c0-2.061-5.161-1.801-5.161-4.401c0-1.56,1.28-2.86,3.521-2.86c1.66,0,2.98,0.74,3.521,1.581l-0.68,0.68
		c-0.421-0.76-1.641-1.38-2.921-1.38c-1.46,0-2.381,0.76-2.381,1.74c0,1.96,5.161,1.66,5.161,4.421c0,1.6-1.3,3.101-3.641,3.101
		C319.499,44.038,318.158,43.458,317.358,42.338z"/>
</g>
</svg>
