<?xml version="1.0" encoding="utf-8"?>
<!-- Generator: Adobe Illustrator 16.0.0, SVG Export Plug-In . SVG Version: 6.00 Build 0)  -->
<!DOCTYPE svg PUBLIC "-//W3C//DTD SVG 1.1//EN" "http://www.w3.org/Graphics/SVG/1.1/DTD/svg11.dtd">
<svg version="1.1" id="Calque_1" xmlns="http://www.w3.org/2000/svg" xmlns:xlink="http://www.w3.org/1999/xlink" x="0px" y="0px"
	 width="380px" height="35px" viewBox="0 0 380 35" enable-background="new 0 0 380 35" xml:space="preserve">
<g>
	<path fill="#FFFFFF" d="M6.018,32.348V2.532h5.674v29.815H6.018z"/>
	<path fill="#FFFFFF" d="M13.702,21.529c0-6.258,4.646-11.308,11.17-11.308c6.478,0,10.812,4.826,10.812,11.845v1.341H19.645
		c0.402,2.638,2.546,4.827,6.21,4.827c1.832,0,4.334-0.76,5.719-2.101l2.547,3.754c-2.145,1.967-5.54,2.995-8.891,2.995
		C18.661,32.883,13.702,28.458,13.702,21.529z M24.872,14.869c-3.53,0-5.049,2.458-5.272,4.604h10.633
		C30.055,17.417,28.625,14.869,24.872,14.869z"/>
	<path fill="#FFFFFF" d="M73.571,32.348V18.714c0-2.013-0.894-3.442-3.217-3.442c-2.011,0-3.663,1.341-4.468,2.502v14.574h-5.719
		V18.714c0-2.013-0.894-3.442-3.217-3.442c-1.966,0-3.619,1.341-4.468,2.502v14.574h-5.675V10.757h5.675v2.771
		c0.938-1.252,3.753-3.307,7.06-3.307c3.172,0,5.227,1.474,5.986,3.888c1.251-1.922,4.11-3.888,7.417-3.888
		c3.977,0,6.344,2.1,6.344,6.524v15.602H73.571z"/>
	<path fill="#FFFFFF" d="M82.151,5.035c0-1.878,1.52-3.353,3.351-3.353c1.877,0,3.396,1.475,3.396,3.353
		c0,1.877-1.519,3.397-3.396,3.397C83.671,8.433,82.151,6.912,82.151,5.035z M82.688,32.348V10.757h5.674v21.591H82.688z"/>
	<path fill="#FFFFFF" d="M90.372,21.529c0-6.258,4.646-11.308,11.17-11.308c6.479,0,10.812,4.826,10.812,11.845v1.341h-16.04
		c0.402,2.638,2.547,4.827,6.21,4.827c1.832,0,4.334-0.76,5.719-2.101l2.547,3.754c-2.145,1.967-5.539,2.995-8.891,2.995
		C95.332,32.883,90.372,28.458,90.372,21.529z M101.542,14.869c-3.53,0-5.049,2.458-5.272,4.604h10.634
		C106.725,17.417,105.295,14.869,101.542,14.869z"/>
	<path fill="#FFFFFF" d="M128.796,32.348V29.62c-1.475,1.609-4.066,3.263-7.596,3.263c-4.735,0-6.969-2.592-6.969-6.794V10.757
		h5.674v13.097c0,2.996,1.563,3.979,3.977,3.979c2.189,0,3.932-1.207,4.914-2.459V10.757h5.674v21.591H128.796z"/>
	<path fill="#FFFFFF" d="M151.222,32.348l-4.912-7.287l-4.958,7.287h-6.3l7.685-11.087l-7.237-10.504h6.344l4.467,6.615l4.42-6.615
		h6.341l-7.189,10.504l7.681,11.087H151.222z"/>
	<path fill="#FFFFFF" d="M166.003,21.529c0-6.258,4.645-11.308,11.165-11.308c6.476,0,10.807,4.826,10.807,11.845v1.341h-16.032
		c0.402,2.638,2.545,4.827,6.208,4.827c1.832,0,4.332-0.76,5.716-2.101l2.545,3.754c-2.144,1.967-5.537,2.995-8.886,2.995
		C170.96,32.883,166.003,28.458,166.003,21.529z M177.168,14.869c-3.528,0-5.046,2.458-5.27,4.604h10.628
		C182.348,17.417,180.919,14.869,177.168,14.869z"/>
	<path fill="#FFFFFF" d="M204.416,32.348V19.295c0-2.995-1.563-4.023-3.977-4.023c-2.234,0-3.932,1.252-4.915,2.502v14.574h-5.673
		V10.757h5.673v2.771c1.385-1.609,4.065-3.307,7.551-3.307c4.78,0,7.06,2.681,7.06,6.883v15.243H204.416z"/>
	<path fill="#FFFFFF" d="M222.868,32.348V2.532h21.088v5.587h-14.743v6.258h14.431v5.588h-14.431v12.383H222.868z"/>
	<path fill="#FFFFFF" d="M246.013,32.348V10.757h5.674v2.905c1.564-1.878,4.201-3.44,6.88-3.44v5.541
		c-0.401-0.09-0.893-0.134-1.563-0.134c-1.876,0-4.378,1.072-5.316,2.459v14.26H246.013z"/>
	<path fill="#FFFFFF" d="M272.819,32.348v-2.28c-1.475,1.787-4.021,2.815-6.835,2.815c-3.441,0-7.462-2.324-7.462-7.151
		c0-5.097,4.021-6.973,7.462-6.973c2.904,0,5.405,0.938,6.835,2.636v-2.726c0-2.19-1.876-3.621-4.736-3.621
		c-2.277,0-4.422,0.894-6.211,2.548l-2.233-3.979c2.637-2.369,6.032-3.396,9.428-3.396c4.96,0,9.472,1.966,9.472,8.179v13.947
		H272.819z M272.819,27.161V24.48c-0.938-1.253-2.726-1.923-4.558-1.923c-2.233,0-4.065,1.206-4.065,3.263s1.832,3.219,4.065,3.219
		C270.094,29.039,271.881,28.414,272.819,27.161z"/>
	<path fill="#FFFFFF" d="M296.455,32.348V19.295c0-2.995-1.563-4.023-3.977-4.023c-2.233,0-3.932,1.252-4.914,2.502v14.574h-5.675
		V10.757h5.675v2.771c1.385-1.609,4.065-3.307,7.551-3.307c4.78,0,7.059,2.681,7.059,6.883v15.243H296.455z"/>
	<path fill="#FFFFFF" d="M304.141,21.529c0-6.616,4.825-11.308,11.438-11.308c4.424,0,7.104,1.921,8.533,3.888l-3.708,3.486
		c-1.027-1.52-2.592-2.324-4.557-2.324c-3.44,0-5.853,2.502-5.853,6.258c0,3.755,2.412,6.303,5.853,6.303
		c1.965,0,3.529-0.895,4.557-2.369l3.708,3.487c-1.429,1.967-4.109,3.933-8.533,3.933C308.966,32.883,304.141,28.189,304.141,21.529
		z"/>
	<path fill="#FFFFFF" d="M324.201,21.529c0-6.258,4.646-11.308,11.17-11.308c6.479,0,10.812,4.826,10.812,11.845v1.341h-16.039
		c0.401,2.638,2.547,4.827,6.21,4.827c1.832,0,4.335-0.76,5.719-2.101l2.548,3.754c-2.145,1.967-5.541,2.995-8.892,2.995
		C329.161,32.883,324.201,28.458,324.201,21.529z M335.371,14.869c-3.53,0-5.049,2.458-5.272,4.604h10.634
		C340.554,17.417,339.124,14.869,335.371,14.869z"/>
	<path fill="#FFFFFF" d="M360.973,19.25c0-5.275,6.567-5.901,6.567-8.984c0-1.387-1.072-2.549-3.53-2.549
		c-2.233,0-4.109,1.073-5.495,2.771l-3.619-4.067c2.368-2.816,5.942-4.336,9.785-4.336c5.764,0,9.293,2.905,9.293,7.063
		c0,6.524-7.461,7.018-7.461,10.771c0,0.715,0.356,1.475,0.848,1.877l-4.914,1.431C361.509,22.2,360.973,20.814,360.973,19.25z
		 M360.973,29.217c0-1.966,1.653-3.62,3.618-3.62c1.967,0,3.619,1.654,3.619,3.62c0,1.968-1.652,3.622-3.619,3.622
		C362.626,32.839,360.973,31.185,360.973,29.217z"/>
</g>
</svg>
