<?xml version="1.0" encoding="utf-8"?>
<!-- Generator: Adobe Illustrator 16.0.0, SVG Export Plug-In . SVG Version: 6.00 Build 0)  -->
<!DOCTYPE svg PUBLIC "-//W3C//DTD SVG 1.1//EN" "http://www.w3.org/Graphics/SVG/1.1/DTD/svg11.dtd">
<svg version="1.1" id="Calque_1" xmlns="http://www.w3.org/2000/svg" xmlns:xlink="http://www.w3.org/1999/xlink" x="0px" y="0px"
	 width="400px" height="400px" viewBox="0 0 400 400" enable-background="new 0 0 400 400" xml:space="preserve">
<g>
	<path fill="#FFFFFF" d="M16.041,244.299v-29.801h5.674v29.801H16.041z"/>
	<path fill="#FFFFFF" d="M23.726,233.486c0-6.255,4.646-11.303,11.17-11.303c6.478,0,10.812,4.824,10.812,11.839v1.341H29.668
		c0.402,2.636,2.546,4.824,6.21,4.824c1.832,0,4.334-0.759,5.719-2.1l2.547,3.753c-2.145,1.966-5.54,2.993-8.891,2.993
		C28.685,244.834,23.726,240.411,23.726,233.486z M34.896,226.829c-3.53,0-5.049,2.457-5.272,4.603h10.633
		C40.078,229.376,38.648,226.829,34.896,226.829z"/>
	<path fill="#FFFFFF" d="M83.595,244.299v-13.627c0-2.012-0.894-3.44-3.217-3.44c-2.011,0-3.663,1.34-4.468,2.501v14.566h-5.719
		v-13.627c0-2.012-0.894-3.44-3.217-3.44c-1.966,0-3.619,1.34-4.468,2.501v14.566h-5.675v-21.58h5.675v2.771
		c0.938-1.252,3.753-3.306,7.06-3.306c3.172,0,5.227,1.474,5.986,3.886c1.251-1.921,4.11-3.886,7.417-3.886
		c3.977,0,6.344,2.099,6.344,6.521v15.594H83.595z"/>
	<path fill="#FFFFFF" d="M92.175,217c0-1.877,1.52-3.351,3.351-3.351c1.877,0,3.396,1.474,3.396,3.351
		c0,1.876-1.519,3.396-3.396,3.396C93.694,220.396,92.175,218.876,92.175,217z M92.711,244.299v-21.58h5.674v21.58H92.711z"/>
	<path fill="#FFFFFF" d="M100.396,233.486c0-6.255,4.646-11.303,11.17-11.303c6.479,0,10.812,4.824,10.812,11.839v1.341h-16.04
		c0.402,2.636,2.547,4.824,6.21,4.824c1.832,0,4.334-0.759,5.719-2.1l2.547,3.753c-2.145,1.966-5.539,2.993-8.891,2.993
		C105.355,244.834,100.396,240.411,100.396,233.486z M111.565,226.829c-3.53,0-5.049,2.457-5.272,4.603h10.634
		C116.748,229.376,115.318,226.829,111.565,226.829z"/>
	<path fill="#FFFFFF" d="M138.819,244.299v-2.726c-1.475,1.608-4.066,3.261-7.596,3.261c-4.735,0-6.969-2.591-6.969-6.791v-15.324
		h5.674v13.091c0,2.994,1.563,3.977,3.977,3.977c2.189,0,3.932-1.207,4.914-2.458v-14.609h5.674v21.58H138.819z"/>
	<path fill="#FFFFFF" d="M161.249,244.299l-4.914-7.283l-4.96,7.283h-6.3l7.685-11.081l-7.237-10.499h6.344l4.469,6.612l4.422-6.612
		h6.345l-7.193,10.499l7.685,11.081H161.249z"/>
	<path fill="#FFFFFF" d="M176.038,233.486c0-6.255,4.646-11.303,11.17-11.303c6.479,0,10.812,4.824,10.812,11.839v1.341h-16.04
		c0.402,2.636,2.547,4.824,6.211,4.824c1.832,0,4.334-0.759,5.719-2.1l2.547,3.753c-2.145,1.966-5.54,2.993-8.891,2.993
		C180.997,244.834,176.038,240.411,176.038,233.486z M187.208,226.829c-3.53,0-5.049,2.457-5.272,4.603h10.634
		C192.391,229.376,190.961,226.829,187.208,226.829z"/>
	<path fill="#FFFFFF" d="M214.463,244.299v-13.046c0-2.994-1.563-4.021-3.977-4.021c-2.234,0-3.932,1.251-4.915,2.501v14.566h-5.674
		v-21.58h5.674v2.771c1.385-1.608,4.065-3.306,7.551-3.306c4.78,0,7.06,2.68,7.06,6.88v15.235H214.463z"/>
	<path fill="#FFFFFF" d="M232.915,244.299v-29.801h21.088v5.584H239.26v6.255h14.431v5.586H239.26v12.376H232.915z"/>
	<path fill="#FFFFFF" d="M256.06,244.299v-21.58h5.674v2.904c1.564-1.877,4.201-3.439,6.88-3.439v5.539
		c-0.401-0.09-0.893-0.134-1.563-0.134c-1.876,0-4.378,1.071-5.316,2.457v14.253H256.06z"/>
	<path fill="#FFFFFF" d="M282.866,244.299v-2.279c-1.475,1.787-4.021,2.814-6.835,2.814c-3.441,0-7.462-2.323-7.462-7.147
		c0-5.095,4.021-6.97,7.462-6.97c2.904,0,5.405,0.938,6.835,2.635v-2.725c0-2.189-1.876-3.619-4.736-3.619
		c-2.277,0-4.422,0.894-6.211,2.547l-2.233-3.977c2.637-2.368,6.032-3.395,9.428-3.395c4.96,0,9.472,1.965,9.472,8.175v13.94
		H282.866z M282.866,239.115v-2.68c-0.938-1.252-2.726-1.922-4.558-1.922c-2.233,0-4.065,1.206-4.065,3.262s1.832,3.217,4.065,3.217
		C280.141,240.992,281.928,240.367,282.866,239.115z"/>
	<path fill="#FFFFFF" d="M306.502,244.299v-13.046c0-2.994-1.563-4.021-3.977-4.021c-2.233,0-3.932,1.251-4.914,2.501v14.566h-5.675
		v-21.58h5.675v2.771c1.385-1.608,4.065-3.306,7.551-3.306c4.78,0,7.059,2.68,7.059,6.88v15.235H306.502z"/>
	<path fill="#FFFFFF" d="M314.188,233.486c0-6.613,4.825-11.303,11.438-11.303c4.424,0,7.104,1.92,8.533,3.886l-3.708,3.485
		c-1.027-1.52-2.592-2.323-4.557-2.323c-3.44,0-5.853,2.501-5.853,6.255c0,3.753,2.412,6.3,5.853,6.3
		c1.965,0,3.529-0.895,4.557-2.368l3.708,3.485c-1.429,1.966-4.109,3.931-8.533,3.931
		C319.013,244.834,314.188,240.143,314.188,233.486z"/>
	<path fill="#FFFFFF" d="M334.248,233.486c0-6.255,4.646-11.303,11.17-11.303c6.479,0,10.812,4.824,10.812,11.839v1.341H340.19
		c0.401,2.636,2.547,4.824,6.21,4.824c1.832,0,4.335-0.759,5.719-2.1l2.548,3.753c-2.145,1.966-5.541,2.993-8.892,2.993
		C339.208,244.834,334.248,240.411,334.248,233.486z M345.418,226.829c-3.53,0-5.049,2.457-5.272,4.603h10.634
		C350.601,229.376,349.171,226.829,345.418,226.829z"/>
	<path fill="#FFFFFF" d="M371.02,231.208c0-5.272,6.567-5.898,6.567-8.98c0-1.386-1.072-2.547-3.53-2.547
		c-2.233,0-4.109,1.072-5.495,2.77l-3.619-4.065c2.368-2.814,5.942-4.334,9.785-4.334c5.764,0,9.293,2.904,9.293,7.061
		c0,6.521-7.461,7.014-7.461,10.767c0,0.714,0.356,1.474,0.848,1.876l-4.914,1.43C371.556,234.156,371.02,232.771,371.02,231.208z
		 M371.02,241.17c0-1.965,1.653-3.618,3.618-3.618c1.967,0,3.619,1.653,3.619,3.618c0,1.967-1.652,3.62-3.619,3.62
		C372.673,244.79,371.02,243.137,371.02,241.17z"/>
</g>
<g>
	<path fill="#FFFFFF" d="M49.294,194.351c-1.051-9.558,5.186-17.173,14.791-18.229c9.558-1.051,17.3,5.027,18.351,14.585
		s-5.186,17.174-14.743,18.225C58.087,209.987,50.345,203.908,49.294,194.351z M75.494,191.47c-0.654-5.943-4.901-10-10.75-9.357
		c-5.896,0.648-9.162,5.531-8.508,11.475c0.648,5.896,4.901,10,10.798,9.352C72.882,202.297,76.142,197.367,75.494,191.47z"/>
	<path fill="#FFFFFF" d="M102.392,204.538l-0.319-2.9c-1.381,1.884-3.945,3.947-7.702,4.36c-5.04,0.555-7.721-1.942-8.212-6.412
		l-1.793-16.31l6.039-0.664l1.532,13.932c0.35,3.187,2.13,4.049,4.697,3.767c2.33-0.256,4.044-1.745,4.943-3.191l-1.709-15.548
		l6.039-0.664l2.525,22.966L102.392,204.538z M94.492,178.65l-8.456-6l5.564-0.612l7.124,6.147L94.492,178.65z"/>
	<path fill="#FFFFFF" d="M122.84,202.289l-2.525-22.965l6.039-0.664l0.34,3.091c1.444-2.181,4.067-4.153,6.919-4.466l0.648,5.896
		c-0.438-0.048-0.966-0.038-1.68,0.04c-1.997,0.22-4.535,1.653-5.371,3.238l1.667,15.168L122.84,202.289z"/>
	<path fill="#FFFFFF" d="M135.317,189.272c-0.732-6.656,3.623-12.573,10.564-13.336c6.895-0.758,12.072,3.87,12.893,11.335
		l0.157,1.426l-17.07,1.877c0.736,2.759,3.274,4.837,7.174,4.408c1.949-0.214,4.523-1.315,5.841-2.904l3.149,3.697
		c-2.053,2.343-5.546,3.833-9.112,4.226C141.924,200.77,136.128,196.642,135.317,189.272z M146.426,180.88
		c-3.756,0.413-5.085,3.206-5.072,5.515l11.316-1.245C152.24,182.983,150.42,180.441,146.426,180.88z"/>
	<path fill="#FFFFFF" d="M160.125,195.159l2.135-4.663c1.89,1.429,5.438,2.626,8.291,2.312c2.616-0.288,3.742-1.422,3.585-2.849
		c-0.413-3.757-13.672,0.83-14.666-8.205c-0.424-3.851,2.534-7.593,8.62-8.262c3.851-0.423,7.088,0.567,9.57,2.124l-1.955,4.546
		c-1.536-1.274-4.287-2.224-7.092-1.916c-2.188,0.241-3.509,1.349-3.368,2.633c0.371,3.376,13.704-0.978,14.724,8.294
		c0.465,4.232-2.809,7.721-9.18,8.421C166.794,198.035,162.796,197.126,160.125,195.159z"/>
	<path fill="#FFFFFF" d="M188.946,192.039l1.286,11.696l-6.039,0.664l-3.487-31.714l6.039-0.664l0.319,2.9
		c1.514-2.429,3.898-3.941,6.703-4.25c5.896-0.648,10.657,3.255,11.499,10.91s-2.951,12.549-8.848,13.197
		C193.708,195.076,191.11,194.207,188.946,192.039z M199.037,182.266c-0.434-3.946-3.109-6.395-6.58-6.013
		c-1.95,0.214-4.017,1.548-4.896,3.184l0.889,8.084c1.161,1.364,3.527,2.308,5.477,2.093
		C197.396,189.232,199.476,186.26,199.037,182.266z"/>
	<path fill="#FFFFFF" d="M205.288,163.822c-0.22-1.998,1.225-3.744,3.174-3.958c1.998-0.22,3.787,1.171,4.007,3.169
		c0.219,1.996-1.22,3.79-3.218,4.01C207.302,167.256,205.507,165.818,205.288,163.822z M209.053,192.811l-2.525-22.966l6.039-0.664
		l2.525,22.966L209.053,192.811z"/>
	<path fill="#FFFFFF" d="M219.182,191.697l-2.525-22.966l6.039-0.664l0.34,3.091c1.444-2.181,4.067-4.153,6.92-4.466l0.648,5.896
		c-0.438-0.048-0.967-0.038-1.681,0.041c-1.996,0.219-4.534,1.653-5.37,3.237l1.668,15.168L219.182,191.697z"/>
	<path fill="#FFFFFF" d="M231.659,178.679c-0.732-6.656,3.622-12.573,10.564-13.336c6.895-0.758,12.071,3.869,12.893,11.335
		l0.156,1.426l-17.07,1.877c0.736,2.759,3.274,4.837,7.175,4.408c1.949-0.214,4.522-1.314,5.84-2.903l3.15,3.697
		c-2.053,2.343-5.547,3.834-9.113,4.226C238.265,190.177,232.469,186.049,231.659,178.679z M242.767,170.288
		c-3.756,0.413-5.085,3.206-5.072,5.514l11.317-1.244C248.581,172.391,246.762,169.848,242.767,170.288z"/>
	<path fill="#FFFFFF" d="M269.715,180.318l-1.312-11.935l-3.804,0.418l-0.581-5.278l3.804-0.418l-0.689-6.276l6.038-0.664
		l0.69,6.276l4.66-0.513l0.58,5.278l-4.66,0.513l1.135,10.317c0.162,1.475,1.043,2.484,2.375,2.338
		c0.902-0.099,1.723-0.526,2.014-0.943l1.791,4.47c-0.815,0.908-2.358,1.752-4.879,2.029
		C272.646,186.397,270.17,184.455,269.715,180.318z"/>
	<path fill="#FFFFFF" d="M280.73,175.883l-0.564-5.136l11.412-1.255l0.564,5.136L280.73,175.883z"/>
	<path fill="#FFFFFF" d="M292.907,171.945c-0.717-6.514,3.242-12.531,10.802-13.363c7.608-0.836,12.779,4.178,13.496,10.691
		c0.716,6.515-3.237,12.58-10.846,13.416C298.8,183.521,293.623,178.46,292.907,171.945z M310.928,169.964
		c-0.392-3.566-2.823-6.426-6.628-6.008c-3.756,0.413-5.509,3.733-5.116,7.3c0.396,3.614,2.829,6.475,6.585,6.062
		C309.573,176.899,311.325,173.578,310.928,169.964z"/>
	<path fill="#FFFFFF" d="M336.589,178.789l-1.527-13.884c-0.35-3.186-2.134-4.097-4.701-3.814c-2.378,0.262-4.039,1.792-4.938,3.237
		l1.704,15.501l-6.038,0.664l-2.525-22.966l6.038-0.664l0.324,2.948c1.286-1.874,3.94-3.994,7.649-4.402
		c5.088-0.56,7.826,2.026,8.318,6.496l1.782,16.214L336.589,178.789z"/>
</g>
</svg>
