<?xml version="1.0" encoding="utf-8"?>
<!-- Generator: Adobe Illustrator 16.0.0, SVG Export Plug-In . SVG Version: 6.00 Build 0)  -->
<!DOCTYPE svg PUBLIC "-//W3C//DTD SVG 1.1//EN" "http://www.w3.org/Graphics/SVG/1.1/DTD/svg11.dtd">
<svg version="1.1" id="Calque_1" xmlns="http://www.w3.org/2000/svg" xmlns:xlink="http://www.w3.org/1999/xlink" x="0px" y="0px"
	 width="295px" height="55px" viewBox="0 0 295 55" enable-background="new 0 0 295 55" xml:space="preserve">
<path fill="#FFFFFF" d="M1.309,39.465C0.258,29.908,6.494,22.293,16.1,21.236c9.558-1.05,17.3,5.027,18.351,14.586
	c1.051,9.557-5.186,17.176-14.743,18.227C10.102,55.105,2.359,49.023,1.309,39.465z M27.508,36.586
	c-0.654-5.943-4.901-10-10.75-9.357c-5.896,0.648-9.162,5.531-8.508,11.475c0.648,5.896,4.901,10,10.798,9.352
	C24.897,47.412,28.156,42.482,27.508,36.586z"/>
<path fill="#FFFFFF" d="M54.406,49.652l-0.319-2.9c-1.381,1.885-3.945,3.949-7.702,4.361c-5.04,0.555-7.721-1.943-8.212-6.412
	l-1.793-16.31l6.039-0.663L43.95,41.66c0.35,3.186,2.13,4.049,4.697,3.766c2.33-0.256,4.044-1.744,4.943-3.191l-1.709-15.547
	l6.039-0.664l2.525,22.965L54.406,49.652z M46.506,23.766l-8.456-6l5.564-0.612l7.124,6.147L46.506,23.766z"/>
<path fill="#FFFFFF" d="M74.854,48.404L72.33,25.439l6.039-0.664l0.34,3.091c1.444-2.181,4.067-4.153,6.919-4.466l0.648,5.895
	c-0.438-0.047-0.966-0.037-1.68,0.041c-1.997,0.219-4.535,1.652-5.371,3.236l1.667,15.168L74.854,48.404z"/>
<path fill="#FFFFFF" d="M87.332,35.387C86.6,28.73,90.955,22.814,97.896,22.051c6.895-0.758,12.07,3.869,12.891,11.336l0.156,1.426
	l-17.068,1.877c0.736,2.758,3.274,4.836,7.174,4.408c1.949-0.215,4.523-1.316,5.84-2.904l3.147,3.697
	c-2.051,2.342-5.543,3.834-9.11,4.227C93.938,46.885,88.143,42.758,87.332,35.387z M98.44,26.995
	c-3.756,0.413-5.085,3.206-5.072,5.515l11.316-1.244C104.254,29.098,102.435,26.557,98.44,26.995z"/>
<path fill="#FFFFFF" d="M112.136,41.273l2.134-4.662c1.889,1.43,5.435,2.627,8.287,2.312c2.614-0.287,3.739-1.422,3.582-2.848
	c-0.412-3.758-13.665,0.828-14.658-8.205c-0.424-3.851,2.533-7.593,8.616-8.262c3.85-0.423,7.084,0.567,9.566,2.124l-1.954,4.547
	c-1.536-1.275-4.285-2.225-7.088-1.916c-2.187,0.24-3.508,1.348-3.368,2.633c0.371,3.375,13.699-0.979,14.718,8.293
	c0.464,4.232-2.808,7.721-9.176,8.422C118.802,44.15,114.806,43.242,112.136,41.273z"/>
<path fill="#FFFFFF" d="M140.943,38.154l1.286,11.695l-6.036,0.664l-3.484-31.714l6.035-0.664l0.319,2.9
	c1.513-2.429,3.896-3.941,6.7-4.25c5.894-0.648,10.652,3.255,11.494,10.91s-2.951,12.548-8.846,13.196
	C145.703,41.191,143.105,40.322,140.943,38.154z M151.03,28.381c-0.436-3.945-3.108-6.395-6.578-6.013
	c-1.949,0.214-4.016,1.548-4.894,3.185l0.888,8.084c1.16,1.363,3.526,2.307,5.474,2.092C149.39,35.348,151.468,32.375,151.03,28.381
	z"/>
<path fill="#FFFFFF" d="M157.279,9.937c-0.22-1.998,1.225-3.744,3.174-3.958c1.998-0.22,3.787,1.171,4.007,3.169
	c0.219,1.996-1.22,3.79-3.218,4.01C159.293,13.372,157.498,11.933,157.279,9.937z M161.044,38.926l-2.525-22.966l6.039-0.664
	l2.525,22.965L161.044,38.926z"/>
<path fill="#FFFFFF" d="M171.173,37.812l-2.525-22.966l6.039-0.664l0.34,3.091c1.444-2.181,4.067-4.153,6.92-4.466l0.648,5.896
	c-0.438-0.048-0.967-0.038-1.681,0.041c-1.996,0.219-4.534,1.653-5.37,3.237l1.668,15.168L171.173,37.812z"/>
<path fill="#FFFFFF" d="M183.65,24.795c-0.732-6.657,3.622-12.573,10.564-13.336c6.895-0.758,12.071,3.869,12.893,11.334
	l0.156,1.426l-17.07,1.877c0.736,2.76,3.274,4.838,7.175,4.408c1.949-0.215,4.522-1.314,5.84-2.902l3.15,3.695
	c-2.053,2.344-5.547,3.834-9.113,4.227C190.256,36.293,184.46,32.164,183.65,24.795z M194.758,16.403
	c-3.756,0.413-5.085,3.206-5.072,5.514l11.317-1.244C200.572,18.506,198.753,15.963,194.758,16.403z"/>
<path fill="#FFFFFF" d="M221.706,26.434l-1.312-11.935l-3.804,0.418l-0.581-5.278l3.804-0.418l-0.689-6.276l6.038-0.664l0.69,6.276
	l4.66-0.513l0.58,5.278l-4.66,0.513l1.135,10.317c0.162,1.475,1.043,2.484,2.375,2.338c0.902-0.099,1.723-0.525,2.014-0.942
	l1.791,4.47c-0.815,0.908-2.358,1.752-4.879,2.029C224.637,32.512,222.161,30.57,221.706,26.434z"/>
<path fill="#FFFFFF" d="M233.313,20.461l-0.416-3.786l8.412-0.925l0.416,3.786L233.313,20.461z"/>
<path fill="#FFFFFF" d="M209.959,23.16l-0.416-3.786l8.412-0.925l0.416,3.786L209.959,23.16z"/>
<path fill="#FFFFFF" d="M244.898,18.061c-0.717-6.514,3.242-12.531,10.802-13.363c7.608-0.836,12.779,4.178,13.496,10.691
	c0.716,6.515-3.237,12.58-10.846,13.416C250.791,29.637,245.614,24.575,244.898,18.061z M262.919,16.079
	c-0.392-3.566-2.823-6.426-6.628-6.008c-3.756,0.413-5.509,3.733-5.116,7.3c0.396,3.614,2.829,6.475,6.585,6.061
	C261.564,23.014,263.316,19.693,262.919,16.079z"/>
<path fill="#FFFFFF" d="M288.58,24.904l-1.527-13.884c-0.35-3.186-2.134-4.097-4.701-3.814c-2.378,0.262-4.039,1.792-4.938,3.237
	l1.704,15.5l-6.038,0.664l-2.525-22.965l6.038-0.664l0.324,2.948c1.286-1.874,3.94-3.994,7.649-4.402
	c5.088-0.56,7.826,2.026,8.318,6.496l1.782,16.214L288.58,24.904z"/>
</svg>
