<?xml version="1.0" encoding="utf-8"?>
<!-- Generator: Adobe Illustrator 16.0.0, SVG Export Plug-In . SVG Version: 6.00 Build 0)  -->
<!DOCTYPE svg PUBLIC "-//W3C//DTD SVG 1.1//EN" "http://www.w3.org/Graphics/SVG/1.1/DTD/svg11.dtd">
<svg version="1.1" id="Layer_1" xmlns="http://www.w3.org/2000/svg" xmlns:xlink="http://www.w3.org/1999/xlink" x="0px" y="0px"
	 width="383.28px" height="115.866px" viewBox="0 0 383.28 115.866" enable-background="new 0 0 383.28 115.866"
	 xml:space="preserve">
<g id="bus_2_">
	<g id="bus_3_">
		<g>
			<path fill="#FFFFFF" stroke="#09B4CF" stroke-width="4.0114" stroke-miterlimit="10" d="M369.205,2.006H27.88
				c-0.035,0-0.07,0.006-0.107,0.006C22.761,2.018,13.847,2.025,9.414,2.006C3.044,1.979,2.785,7.365,2.785,7.365
				s-1.752,85.336,0,92.67c1.75,7.334,21.242,5.887,21.242,5.887l1.5,0.115c2.166-0.006,2.652-0.115,3.75-0.115h339.928
				c6.666,0,12.07-5.373,12.07-12V14.006C381.275,7.379,375.871,2.006,369.205,2.006z"/>
			
				<ellipse fill="#09B4CF" stroke="#FFFFFF" stroke-width="4" stroke-miterlimit="10" cx="91.894" cy="97.949" rx="15.908" ry="15.918"/>
			<circle fill="#09B4CF" stroke="#FFFFFF" stroke-width="4" stroke-miterlimit="10" cx="301.216" cy="97.949" r="15.916"/>
			
				<rect x="22.683" y="30.926" fill="#09B4CF" stroke="#FFFFFF" stroke-width="4" stroke-miterlimit="10" width="19.656" height="65.607"/>
			
				<rect x="43.087" y="30.926" fill="#09B4CF" stroke="#FFFFFF" stroke-width="4" stroke-miterlimit="10" width="19.738" height="65.607"/>
			
				<rect x="176.011" y="30.508" fill="#09B4CF" stroke="#FFFFFF" stroke-width="4.1619" stroke-miterlimit="10" width="19.656" height="71.025"/>
			
				<rect x="196.416" y="30.508" fill="#09B4CF" stroke="#FFFFFF" stroke-width="4.1619" stroke-miterlimit="10" width="19.742" height="71.025"/>
			
				<rect x="332.89" y="29.881" fill="#09B4CF" stroke="#FFFFFF" stroke-width="2" stroke-miterlimit="10" width="19.666" height="70.652"/>
			
				<rect x="354.306" y="29.881" fill="#09B4CF" stroke="#FFFFFF" stroke-width="2" stroke-miterlimit="10" width="19.746" height="70.652"/>
			
				<rect x="70.57" y="30.926" fill="#09B4CF" stroke="#FFFFFF" stroke-width="4" stroke-miterlimit="10" width="44.564" height="35.607"/>
			
				<rect x="118.687" y="31.186" fill="#09B4CF" stroke="#FFFFFF" stroke-width="4" stroke-miterlimit="10" width="44.563" height="35.609"/>
			
				<rect x="226.681" y="30.727" fill="#09B4CF" stroke="#FFFFFF" stroke-width="4" stroke-miterlimit="10" width="44.584" height="35.609"/>
			
				<rect x="275.919" y="30.186" fill="#09B4CF" stroke="#FFFFFF" stroke-width="4" stroke-miterlimit="10" width="44.586" height="35.609"/>
			<path fill="#09B4CF" d="M9.251,19.57c-1.621,0-2.934,1.313-2.934,2.934V64.84l-0.025,9.34c0,0,5.891-2.904,5.891-9.34V22.504
				C12.183,20.883,10.871,19.57,9.251,19.57z"/>
			<path fill="#09B4CF" d="M20.595,48.408c0,1.727-1.398,3.125-3.123,3.125l0,0c-1.727,0-3.125-1.398-3.125-3.125V32.051
				c0-1.727,1.398-3.125,3.125-3.125l0,0c1.725,0,3.123,1.398,3.123,3.125V48.408z"/>
			<path fill="none" stroke="#09B4CF" stroke-miterlimit="10" d="M17.472,34.283c0,0-1.584-10.918,5.393-11.084"/>
			<path fill="#09B4CF" stroke="#FFFFFF" stroke-width="2" stroke-miterlimit="10" d="M7.097,91.57c0,1.406-1.139,2.545-2.545,2.545
				l0,0c-1.406,0-2.547-1.139-2.547-2.545v-0.375c0-1.406,1.141-2.547,2.547-2.547l0,0c1.406,0,2.545,1.141,2.545,2.547V91.57z"/>
			
				<line fill="#FFFFFF" stroke="#09B4CF" stroke-width="1.9813" stroke-miterlimit="10" x1="72.903" y1="79.249" x2="161.569" y2="79.249"/>
			
				<line fill="#FFFFFF" stroke="#09B4CF" stroke-width="1.2773" stroke-miterlimit="10" x1="332.887" y1="9.582" x2="369.737" y2="9.582"/>
			
				<line fill="#FFFFFF" stroke="#09B4CF" stroke-width="1.2773" stroke-miterlimit="10" x1="332.881" y1="16.082" x2="369.731" y2="16.082"/>
			
				<line fill="#FFFFFF" stroke="#09B4CF" stroke-width="1.2773" stroke-miterlimit="10" x1="332.887" y1="23.199" x2="369.737" y2="23.199"/>
			
				<rect x="150.582" y="83.25" fill="#09B4CF" stroke="#FFFFFF" stroke-width="2" stroke-miterlimit="10" width="9.988" height="9.988"/>
			<circle fill="#09B4CF" stroke="#FFFFFF" stroke-width="2" stroke-miterlimit="10" cx="144.528" cy="88.296" r="2.958"/>
		</g>
	</g>
</g>
</svg>
