<?xml version="1.0" encoding="utf-8"?>
<!-- Generator: Adobe Illustrator 16.0.0, SVG Export Plug-In . SVG Version: 6.00 Build 0)  -->
<!DOCTYPE svg PUBLIC "-//W3C//DTD SVG 1.1//EN" "http://www.w3.org/Graphics/SVG/1.1/DTD/svg11.dtd">
<svg version="1.1" id="Layer_1" xmlns="http://www.w3.org/2000/svg" xmlns:xlink="http://www.w3.org/1999/xlink" x="0px" y="0px"
	 width="960px" height="560px" viewBox="0 0 960 560" enable-background="new 0 0 960 560" xml:space="preserve">
<g id="bus_1_">
	<g id="bus">
		<g>
			<path fill="#FFFFFF" stroke="#09B4CF" stroke-width="4.0114" stroke-miterlimit="10" d="M341.141,241.722h341.324
				c0.035,0,0.07,0.006,0.107,0.006c5.012,0.006,13.926,0.014,18.359-0.006c6.369-0.027,6.629,5.359,6.629,5.359
				s1.752,85.336,0,92.67c-1.75,7.334-21.242,5.887-21.242,5.887l-1.5,0.115c-2.166-0.006-2.652-0.115-3.75-0.115H341.141
				c-6.666,0-12.07-5.373-12.07-12v-79.916C329.07,247.095,334.475,241.722,341.141,241.722z"/>
			
				<ellipse fill="#09B4CF" stroke="#FFFFFF" stroke-width="4" stroke-miterlimit="10" cx="618.451" cy="337.665" rx="15.908" ry="15.918"/>
			<circle fill="#09B4CF" stroke="#FFFFFF" stroke-width="4" stroke-miterlimit="10" cx="409.129" cy="337.665" r="15.916"/>
			
				<rect x="668.006" y="270.642" fill="#09B4CF" stroke="#FFFFFF" stroke-width="4" stroke-miterlimit="10" width="19.656" height="65.607"/>
			
				<rect x="647.52" y="270.642" fill="#09B4CF" stroke="#FFFFFF" stroke-width="4" stroke-miterlimit="10" width="19.738" height="65.607"/>
			
				<rect x="514.678" y="270.224" fill="#09B4CF" stroke="#FFFFFF" stroke-width="4.1619" stroke-miterlimit="10" width="19.656" height="71.025"/>
			
				<rect x="494.188" y="270.224" fill="#09B4CF" stroke="#FFFFFF" stroke-width="4.1619" stroke-miterlimit="10" width="19.742" height="71.025"/>
			
				<rect x="357.789" y="269.597" fill="#09B4CF" stroke="#FFFFFF" stroke-width="2" stroke-miterlimit="10" width="19.666" height="70.652"/>
			
				<rect x="336.293" y="269.597" fill="#09B4CF" stroke="#FFFFFF" stroke-width="2" stroke-miterlimit="10" width="19.746" height="70.652"/>
			
				<rect x="595.211" y="270.642" fill="#09B4CF" stroke="#FFFFFF" stroke-width="4" stroke-miterlimit="10" width="44.564" height="35.607"/>
			
				<rect x="547.096" y="270.901" fill="#09B4CF" stroke="#FFFFFF" stroke-width="4" stroke-miterlimit="10" width="44.563" height="35.609"/>
			
				<rect x="439.08" y="270.442" fill="#09B4CF" stroke="#FFFFFF" stroke-width="4" stroke-miterlimit="10" width="44.584" height="35.609"/>
			
				<rect x="389.84" y="269.901" fill="#09B4CF" stroke="#FFFFFF" stroke-width="4" stroke-miterlimit="10" width="44.586" height="35.609"/>
			<path fill="#09B4CF" d="M701.094,259.286c1.621,0,2.934,1.313,2.934,2.934v42.336l0.025,9.34c0,0-5.891-2.904-5.891-9.34V262.22
				C698.162,260.599,699.475,259.286,701.094,259.286z"/>
			<path fill="#09B4CF" d="M689.75,288.124c0,1.727,1.398,3.125,3.123,3.125l0,0c1.727,0,3.125-1.398,3.125-3.125v-16.357
				c0-1.727-1.398-3.125-3.125-3.125l0,0c-1.725,0-3.123,1.398-3.123,3.125V288.124z"/>
			<path fill="none" stroke="#09B4CF" stroke-miterlimit="10" d="M692.873,273.999c0,0,1.584-10.918-5.393-11.084"/>
			<path fill="#09B4CF" stroke="#FFFFFF" stroke-width="2" stroke-miterlimit="10" d="M703.248,331.286
				c0,1.406,1.139,2.545,2.545,2.545l0,0c1.406,0,2.547-1.139,2.547-2.545v-0.375c0-1.406-1.141-2.547-2.547-2.547l0,0
				c-1.406,0-2.545,1.141-2.545,2.547V331.286z"/>
		</g>
	</g>
	
		<line fill="#FFFFFF" stroke="#09B4CF" stroke-width="1.9813" stroke-miterlimit="10" x1="637.442" y1="318.965" x2="548.776" y2="318.965"/>
	
		<line fill="#FFFFFF" stroke="#09B4CF" stroke-width="1.2773" stroke-miterlimit="10" x1="377.458" y1="249.298" x2="340.608" y2="249.298"/>
	
		<line fill="#FFFFFF" stroke="#09B4CF" stroke-width="1.2773" stroke-miterlimit="10" x1="377.464" y1="255.798" x2="340.614" y2="255.798"/>
	
		<line fill="#FFFFFF" stroke="#09B4CF" stroke-width="1.2773" stroke-miterlimit="10" x1="377.458" y1="262.915" x2="340.608" y2="262.915"/>
	
		<rect x="549.775" y="322.966" fill="#09B4CF" stroke="#FFFFFF" stroke-width="2" stroke-miterlimit="10" width="9.988" height="9.988"/>
	<circle fill="#09B4CF" stroke="#FFFFFF" stroke-width="2" stroke-miterlimit="10" cx="565.817" cy="328.012" r="2.958"/>
</g>
</svg>
