<?xml version="1.0" encoding="utf-8"?>
<!-- Generator: Adobe Illustrator 16.0.0, SVG Export Plug-In . SVG Version: 6.00 Build 0)  -->
<!DOCTYPE svg PUBLIC "-//W3C//DTD SVG 1.1//EN" "http://www.w3.org/Graphics/SVG/1.1/DTD/svg11.dtd">
<svg version="1.1" id="Layer_1" xmlns="http://www.w3.org/2000/svg" xmlns:xlink="http://www.w3.org/1999/xlink" x="0px" y="0px"
	 width="49.539px" height="58.63px" viewBox="0 0 49.539 58.63" enable-background="new 0 0 49.539 58.63" xml:space="preserve">
<path id="fumée_usine_droite" fill="#FFFFFF" d="M44.25,48.438c3.17-1.922,5.289-5.405,5.289-9.384
	c0-6.056-4.908-10.965-10.965-10.965c-0.789,0-1.559,0.086-2.301,0.244c-0.568-4.361-3.691-7.919-7.82-9.119
	c0.482-1.451,0.748-3.001,0.748-4.613C29.201,6.537,22.664,0,14.599,0C6.537,0,0,6.537,0,14.601c0,3.726,1.396,7.123,3.693,9.702
	c-1.58,1.914-2.529,4.368-2.529,7.043c0,6.114,4.955,11.069,11.068,11.069c1.162,0,2.283-0.18,3.336-0.512
	c1.445,2.799,4.365,4.714,7.732,4.714c0.727,0,1.432-0.09,2.107-0.258c0.426,3.306,3.25,5.86,6.672,5.86
	c2.02,0,3.828-0.89,5.063-2.298c0.111,0.015,0.223,0.03,0.334,0.041c-0.691,0.908-1.107,2.038-1.107,3.268
	c0,2.982,2.418,5.399,5.4,5.399s5.4-2.417,5.4-5.399C47.169,51.143,45.982,49.336,44.25,48.438z"/>
</svg>
