<?xml version="1.0" encoding="utf-8"?>
<!-- Generator: Adobe Illustrator 16.0.0, SVG Export Plug-In . SVG Version: 6.00 Build 0)  -->
<!DOCTYPE svg PUBLIC "-//W3C//DTD SVG 1.1//EN" "http://www.w3.org/Graphics/SVG/1.1/DTD/svg11.dtd">
<svg version="1.1" id="Layer_1" xmlns="http://www.w3.org/2000/svg" xmlns:xlink="http://www.w3.org/1999/xlink" x="0px" y="0px"
	 width="108.344px" height="54.237px" viewBox="0 0 108.344 54.237" enable-background="new 0 0 108.344 54.237"
	 xml:space="preserve">
<path id="gros_nuage_1_" fill="#FFFFFF" d="M101.183,39.914H91.002c0.632-1.456,0.991-3.061,0.991-4.75
	c0-6.579-5.334-11.912-11.913-11.912c-0.001,0-0.004,0.002-0.007,0.002C79.907,10.384,68.579,0,54.621,0
	C40.558,0,29.16,10.538,29.16,23.537c0,0.163,0.01,0.324,0.013,0.485c-1.302-0.489-2.705-0.77-4.179-0.77
	c-6.579,0-11.91,5.333-11.91,11.912c0,1.689,0.356,3.294,0.99,4.75H7.162C3.207,39.914,0,43.121,0,47.076s3.207,7.162,7.162,7.162
	h94.021c3.955,0,7.162-3.207,7.162-7.162S105.138,39.914,101.183,39.914z M36.038,39.619c0.1,0.1,0.201,0.197,0.303,0.295h-0.424
	C35.959,39.815,35.996,39.717,36.038,39.619z"/>
</svg>
