<?xml version="1.0" encoding="utf-8"?>
<!-- Generator: Adobe Illustrator 16.0.0, SVG Export Plug-In . SVG Version: 6.00 Build 0)  -->
<!DOCTYPE svg PUBLIC "-//W3C//DTD SVG 1.1//EN" "http://www.w3.org/Graphics/SVG/1.1/DTD/svg11.dtd">
<svg version="1.1" id="Layer_1" xmlns="http://www.w3.org/2000/svg" xmlns:xlink="http://www.w3.org/1999/xlink" x="0px" y="0px"
	 width="70.944px" height="35.515px" viewBox="0 0 70.944 35.515" enable-background="new 0 0 70.944 35.515" xml:space="preserve">
<path id="petit_nuage" fill="#FFFFFF" d="M66.254,26.136h-6.666c0.414-0.953,0.648-2.004,0.648-3.11c0-4.308-3.492-7.8-7.801-7.8
	c0,0-0.002,0.001-0.004,0.001C52.323,6.8,44.905,0,35.766,0c-9.208,0-16.672,6.9-16.672,15.412c0,0.106,0.007,0.212,0.009,0.317
	c-0.853-0.32-1.771-0.504-2.736-0.504c-4.308,0-7.799,3.492-7.799,7.8c0,1.106,0.233,2.157,0.648,3.11H4.689
	C2.1,26.136,0,28.235,0,30.825s2.1,4.689,4.689,4.689h61.565c2.59,0,4.689-2.1,4.689-4.689S68.844,26.136,66.254,26.136z
	 M23.598,25.942c0.065,0.065,0.132,0.129,0.198,0.193h-0.277C23.546,26.071,23.57,26.007,23.598,25.942z"/>
</svg>
