<?xml version="1.0" encoding="utf-8"?>
<!-- Generator: Adobe Illustrator 16.0.0, SVG Export Plug-In . SVG Version: 6.00 Build 0)  -->
<!DOCTYPE svg PUBLIC "-//W3C//DTD SVG 1.1//EN" "http://www.w3.org/Graphics/SVG/1.1/DTD/svg11.dtd">
<svg version="1.1" id="Layer_1" xmlns="http://www.w3.org/2000/svg" xmlns:xlink="http://www.w3.org/1999/xlink" x="0px" y="0px"
	 width="19.189px" height="22.71px" viewBox="0 0 19.189 22.71" enable-background="new 0 0 19.189 22.71" xml:space="preserve">
<path id="petite_fumée_1_" fill="#FFFFFF" d="M0.451,12.14c0,2.368,1.919,4.289,4.288,4.289c0.45,0,0.884-0.07,1.292-0.198
	c0.56,1.085,1.691,1.827,2.996,1.827c0.281,0,0.555-0.035,0.816-0.1c0.165,1.281,1.259,2.27,2.584,2.27
	c0.783,0,1.484-0.344,1.961-0.891c0.042,0.006,0.086,0.012,0.13,0.018c-0.269,0.352-0.43,0.789-0.43,1.264
	c0,1.156,0.938,2.092,2.092,2.092c1.155,0,2.092-0.936,2.092-2.092c0-0.809-0.459-1.508-1.131-1.855
	c1.229-0.744,2.049-2.095,2.049-3.638c0-2.345-1.901-4.247-4.247-4.247c-0.306,0-0.604,0.033-0.892,0.095
	c-0.22-1.688-1.429-3.066-3.029-3.531c0.187-0.563,0.29-1.162,0.29-1.787C11.311,2.532,8.779,0,5.656,0S0,2.532,0,5.655"/>
</svg>
