<?xml version="1.0" encoding="utf-8"?>
<!-- Generator: Adobe Illustrator 16.0.0, SVG Export Plug-In . SVG Version: 6.00 Build 0)  -->
<!DOCTYPE svg PUBLIC "-//W3C//DTD SVG 1.1//EN" "http://www.w3.org/Graphics/SVG/1.1/DTD/svg11.dtd">
<svg version="1.1" id="Layer_1" xmlns="http://www.w3.org/2000/svg" xmlns:xlink="http://www.w3.org/1999/xlink" x="0px" y="0px"
	 width="960px" height="560px" viewBox="0 0 960 560" enable-background="new 0 0 960 560" xml:space="preserve">
<path id="petite_fumée_1_" fill="#FFFFFF" d="M51.567,296.202c0,2.368,1.919,4.289,4.288,4.289c0.45,0,0.884-0.07,1.292-0.198
	c0.56,1.085,1.691,1.827,2.996,1.827c0.281,0,0.555-0.035,0.816-0.1c0.165,1.281,1.259,2.27,2.584,2.27
	c0.783,0,1.483-0.344,1.961-0.891c0.042,0.006,0.086,0.012,0.13,0.018c-0.269,0.352-0.429,0.789-0.429,1.264
	c0,1.156,0.937,2.092,2.091,2.092c1.155,0,2.092-0.936,2.092-2.092c0-0.809-0.459-1.508-1.131-1.855
	c1.228-0.744,2.049-2.095,2.049-3.638c0-2.346-1.901-4.246-4.247-4.246c-0.306,0-0.604,0.033-0.891,0.094
	c-0.22-1.688-1.43-3.065-3.029-3.53c0.187-0.563,0.29-1.162,0.29-1.787c0-3.123-2.532-5.655-5.655-5.655s-5.656,2.532-5.656,5.655"
	/>
</svg>
