<?xml version="1.0" encoding="utf-8"?>
<!-- Generator: Adobe Illustrator 16.0.0, SVG Export Plug-In . SVG Version: 6.00 Build 0)  -->
<!DOCTYPE svg PUBLIC "-//W3C//DTD SVG 1.1//EN" "http://www.w3.org/Graphics/SVG/1.1/DTD/svg11.dtd">
<svg version="1.1" id="Layer_1" xmlns="http://www.w3.org/2000/svg" xmlns:xlink="http://www.w3.org/1999/xlink" x="0px" y="0px"
	 width="52.282px" height="26.172px" viewBox="0 0 52.282 26.172" enable-background="new 0 0 52.282 26.172" xml:space="preserve">
<path id="nuage_moyen_1_" fill="#FFFFFF" d="M48.826,19.261h-4.912c0.305-0.703,0.478-1.477,0.478-2.292
	c0-3.174-2.574-5.748-5.748-5.748c-0.001,0-0.002,0.001-0.004,0.001C38.56,5.011,33.093,0,26.357,0
	c-6.786,0-12.286,5.085-12.286,11.358c0,0.079,0.005,0.156,0.006,0.234c-0.628-0.236-1.306-0.372-2.017-0.372
	c-3.174,0-5.748,2.574-5.748,5.748c0,0.815,0.172,1.59,0.478,2.292H3.456C1.547,19.261,0,20.808,0,22.716
	c0,1.909,1.547,3.456,3.456,3.456h45.37c1.909,0,3.456-1.547,3.456-3.456C52.282,20.808,50.734,19.261,48.826,19.261z M17.39,19.118
	c0.048,0.048,0.097,0.095,0.146,0.143h-0.204C17.352,19.213,17.37,19.166,17.39,19.118z"/>
</svg>
