<?xml version="1.0" encoding="utf-8"?>
<!-- Generator: Adobe Illustrator 16.0.0, SVG Export Plug-In . SVG Version: 6.00 Build 0)  -->
<!DOCTYPE svg PUBLIC "-//W3C//DTD SVG 1.1//EN" "http://www.w3.org/Graphics/SVG/1.1/DTD/svg11.dtd">
<svg version="1.1" id="Layer_1" xmlns="http://www.w3.org/2000/svg" xmlns:xlink="http://www.w3.org/1999/xlink" x="0px" y="0px"
	 width="384.503px" height="75.178px" viewBox="33.966 -26.565 384.503 75.178"
	 enable-background="new 33.966 -26.565 384.503 75.178" xml:space="preserve">
<g id="punchline">
	<g>
		<path fill="#FFFFFF" d="M33.966-14.367c0-6.68,4.885-11.468,11.597-11.468c6.68,0,11.567,4.788,11.567,11.468
			c0,3.123-1.099,5.849-2.892,7.843l1.628,1.894l-3.29,2.692l-1.794-2.059c-1.529,0.697-3.324,1.096-5.216,1.096
			C38.851-2.902,33.966-7.686,33.966-14.367z M47.859-7.453l-2.426-2.859l3.29-2.693l2.427,2.86c0.731-1.163,1.13-2.625,1.13-4.22
			c0-4.154-2.626-7.278-6.712-7.278c-4.123,0-6.748,3.125-6.748,7.278c0,4.121,2.625,7.279,6.748,7.279
			C46.395-7.087,47.159-7.223,47.859-7.453z"/>
		<path fill="#FFFFFF" d="M70.197-3.3v-2.026C69.098-4.131,67.172-2.9,64.547-2.9c-3.524,0-5.184-1.927-5.184-5.052v-11.4h4.22
			v9.737c0,2.228,1.163,2.958,2.957,2.958c1.628,0,2.923-0.898,3.656-1.829v-10.866h4.22v16.052L70.197-3.3L70.197-3.3z"/>
		<path fill="#FFFFFF" d="M87.249-3.3v-1.696c-1.098,1.33-2.991,2.094-5.085,2.094c-2.559,0-5.55-1.729-5.55-5.318
			c0-3.788,2.992-5.184,5.55-5.184c2.161,0,4.021,0.696,5.085,1.959v-2.024c0-1.628-1.396-2.693-3.524-2.693
			c-1.695,0-3.289,0.665-4.62,1.896l-1.661-2.958c1.96-1.762,4.485-2.527,7.012-2.527c3.691,0,7.046,1.464,7.046,6.082v10.371
			h-4.252V-3.3z M87.249-7.154V-9.15c-0.699-0.931-2.028-1.428-3.39-1.428c-1.661,0-3.025,0.897-3.025,2.426
			c0,1.528,1.364,2.394,3.025,2.394C85.221-5.758,86.551-6.225,87.249-7.154z"/>
		<path fill="#FFFFFF" d="M94.663-3.3v-22.168h4.22V-3.3H94.663z"/>
		<path fill="#FFFFFF" d="M101.676-23.606c0-1.396,1.131-2.493,2.495-2.493c1.396,0,2.526,1.097,2.526,2.493
			c0,1.397-1.13,2.525-2.526,2.525C102.807-21.081,101.676-22.209,101.676-23.606z M102.076-3.3v-16.053h4.22v16.052L102.076-3.3
			L102.076-3.3z"/>
		<path fill="#FFFFFF" d="M110.352-7.322v-8.341h-2.657v-3.689h2.657v-4.387h4.22v4.387h3.258v3.689h-3.258v7.211
			c0,1.03,0.532,1.795,1.464,1.795c0.631,0,1.229-0.233,1.462-0.499l0.897,3.222c-0.632,0.565-1.761,1.031-3.524,1.031
			C111.914-2.902,110.352-4.431,110.352-7.322z"/>
		<path fill="#FFFFFF" d="M118.697-11.343c0-4.653,3.456-8.41,8.309-8.41c4.818,0,8.042,3.589,8.042,8.809v0.997h-11.93
			c0.299,1.96,1.895,3.589,4.621,3.589c1.362,0,3.223-0.567,4.253-1.563l1.895,2.792c-1.595,1.462-4.122,2.227-6.614,2.227
			C122.385-2.902,118.697-6.191,118.697-11.343z M127.006-16.295c-2.625,0-3.755,1.828-3.921,3.422h7.91
			C130.86-14.402,129.797-16.295,127.006-16.295z M127.337-21.777h-2.957l4.453-4.788h3.888L127.337-21.777z"/>
		<path fill="#FFFFFF" d="M155.691-3.3v-2.062c-1.263,1.596-2.99,2.46-4.951,2.46c-4.021,0-7.112-3.058-7.112-8.441
			c0-5.218,3.024-8.41,7.112-8.41c1.894,0,3.688,0.799,4.951,2.46v-8.176h4.254V-3.3H155.691z M155.691-8.485v-5.684
			c-0.697-1.063-2.228-1.828-3.621-1.828c-2.427,0-4.09,1.894-4.09,4.653c0,2.791,1.663,4.686,4.09,4.686
			C153.463-6.657,154.993-7.422,155.691-8.485z"/>
		<path fill="#FFFFFF" d="M162.11-11.343c0-4.653,3.456-8.41,8.309-8.41c4.818,0,8.042,3.589,8.042,8.809v0.997H166.53
			c0.3,1.96,1.896,3.589,4.62,3.589c1.363,0,3.226-0.567,4.254-1.563l1.894,2.792c-1.595,1.462-4.12,2.227-6.613,2.227
			C165.798-2.902,162.11-6.191,162.11-11.343z M170.416-16.295c-2.624,0-3.755,1.828-3.921,3.422h7.91
			C174.273-14.402,173.208-16.295,170.416-16.295z"/>
		<path fill="#FFFFFF" d="M188.07-3.3v-22.168h4.22V-3.3H188.07z"/>
		<path fill="#FFFFFF" d="M197.11-16.229l-1.828-1.495c1.063-0.565,2.294-1.961,2.56-3.157c-0.1,0.066-0.366,0.097-0.632,0.097
			c-1.264,0-2.261-0.964-2.261-2.392s1.196-2.624,2.627-2.624c1.563,0,2.957,1.229,2.957,3.39
			C200.532-19.916,199.17-17.69,197.11-16.229z"/>
		<path fill="#FFFFFF" d="M212.598-3.3v-1.696c-1.096,1.33-2.988,2.094-5.084,2.094c-2.56,0-5.55-1.729-5.55-5.318
			c0-3.788,2.99-5.184,5.55-5.184c2.159,0,4.021,0.696,5.084,1.959v-2.024c0-1.628-1.395-2.693-3.523-2.693
			c-1.692,0-3.288,0.665-4.618,1.896l-1.662-2.958c1.962-1.762,4.487-2.527,7.014-2.527c3.688,0,7.045,1.464,7.045,6.082v10.371
			h-4.255V-3.3z M212.598-7.154V-9.15c-0.696-0.931-2.025-1.428-3.39-1.428c-1.66,0-3.024,0.897-3.024,2.426
			c0,1.528,1.363,2.394,3.024,2.394C210.572-5.758,211.901-6.225,212.598-7.154z"/>
		<path fill="#FFFFFF" d="M219.615-23.606c0-1.396,1.13-2.493,2.493-2.493c1.395,0,2.525,1.097,2.525,2.493
			c0,1.397-1.131,2.525-2.525,2.525C220.744-21.081,219.615-22.209,219.615-23.606z M220.012-3.3v-16.053h4.22v16.052L220.012-3.3
			L220.012-3.3z"/>
		<path fill="#FFFFFF" d="M227.425-3.3v-16.053h4.221v2.159c1.163-1.396,3.123-2.561,5.118-2.561v4.123
			c-0.299-0.066-0.663-0.1-1.164-0.1c-1.395,0-3.257,0.799-3.954,1.83V-3.3H227.425z"/>
		<path fill="#FFFFFF" d="M245.941-3.3v-16.053h4.22v2.159c1.163-1.396,3.125-2.561,5.118-2.561v4.123
			c-0.3-0.066-0.664-0.1-1.163-0.1c-1.395,0-3.256,0.799-3.955,1.83V-3.3H245.941z"/>
		<path fill="#FFFFFF" d="M256.509-23.606c0-1.396,1.131-2.493,2.494-2.493c1.396,0,2.524,1.097,2.524,2.493
			c0,1.397-1.129,2.525-2.524,2.525C257.642-21.081,256.509-22.209,256.509-23.606z M256.91-3.3v-16.053h4.22v16.052L256.91-3.3
			L256.91-3.3z"/>
		<path fill="#FFFFFF" d="M284.23-3.3v-10.138c0-1.495-0.666-2.559-2.395-2.559c-1.495,0-2.725,0.996-3.323,1.861v10.834h-4.254
			v-10.137c0-1.495-0.664-2.559-2.393-2.559c-1.462,0-2.688,0.996-3.323,1.861v10.834h-4.22v-16.052h4.22v2.061
			c0.697-0.932,2.794-2.46,5.251-2.46c2.36,0,3.89,1.099,4.454,2.893c0.932-1.429,3.057-2.893,5.516-2.893
			c2.959,0,4.72,1.563,4.72,4.853v11.599L284.23-3.3L284.23-3.3z"/>
		<path fill="#FFFFFF" d="M290.648-11.343c0-4.653,3.459-8.41,8.31-8.41c4.817,0,8.041,3.589,8.041,8.809v0.997h-11.931
			c0.298,1.96,1.896,3.589,4.619,3.589c1.361,0,3.223-0.567,4.254-1.563l1.896,2.792c-1.597,1.462-4.123,2.227-6.614,2.227
			C294.337-2.902,290.648-6.191,290.648-11.343z M298.957-16.295c-2.624,0-3.756,1.828-3.923,3.422h7.912
			C302.812-14.402,301.75-16.295,298.957-16.295z"/>
	</g>
	<g>
		<path fill="#FFFFFF" d="M52.878,38.525L52.8,36.609c-1.176,1.555-3.282,2.506-5.647,2.605c-2.89,0.116-6.351-1.7-6.518-5.752
			c-0.175-4.282,3.142-5.995,6.032-6.113c2.438-0.101,4.576,0.604,5.833,1.979l-0.092-2.291c-0.075-1.839-1.701-2.976-4.103-2.877
			c-1.915,0.079-3.687,0.903-5.132,2.355l-2.016-3.268c2.136-2.079,4.953-3.058,7.807-3.174c4.167-0.17,8.026,1.325,8.241,6.542
			l0.477,11.715L52.878,38.525z M52.7,34.171l-0.093-2.255c-0.831-1.02-2.355-1.521-3.894-1.459
			c-1.879,0.079-3.376,1.155-3.306,2.883c0.07,1.727,1.648,2.641,3.525,2.563C50.475,35.844,51.954,35.254,52.7,34.171z"/>
		<path fill="#FFFFFF" d="M66.695,37.96l-8.025-17.836l5.106-0.21l5.246,12.424l4.252-12.809l5.106-0.21L71.839,37.75L66.695,37.96z
			"/>
		<path fill="#FFFFFF" d="M79.35,28.344c-0.213-5.256,3.519-9.659,8.999-9.882c5.445-0.223,9.251,3.683,9.493,9.577l0.046,1.127
			l-13.48,0.551c0.429,2.199,2.308,3.966,5.386,3.84c1.539-0.063,3.616-0.784,4.734-1.96l2.268,3.068
			c-1.735,1.725-4.553,2.706-7.369,2.82C83.909,37.712,79.589,34.164,79.35,28.344z M88.508,22.366
			c-2.965,0.121-4.158,2.238-4.272,4.047l8.937-0.366C92.952,24.327,91.663,22.24,88.508,22.366z"/>
		<path fill="#FFFFFF" d="M99.738,27.511c-0.227-5.558,3.668-9.664,9.224-9.893c3.717-0.151,6.036,1.372,7.305,2.974l-2.997,3.056
			c-0.917-1.243-2.258-1.864-3.91-1.796c-2.89,0.119-4.834,2.304-4.702,5.458c0.128,3.153,2.242,5.21,5.133,5.092
			c1.653-0.067,2.936-0.872,3.749-2.145l3.238,2.8c-1.134,1.704-3.319,3.448-7.037,3.598
			C104.184,36.883,99.967,33.105,99.738,27.511z"/>
		<path fill="#FFFFFF" d="M127.33,26.385c-0.247-6.047,2.99-9.637,7.608-9.827c2.216-0.09,4.247,0.806,5.707,2.513l-0.094-2.291
			l4.805-0.196l1.023,25.043l-4.805,0.196l-0.378-9.236c-1.387,1.937-3.303,2.917-5.48,3.006
			C131.099,35.784,127.578,32.427,127.33,26.385z M141.052,29.02l-0.261-6.382c-0.837-1.171-2.601-1.963-4.178-1.898
			c-2.704,0.11-4.493,2.326-4.366,5.445c0.129,3.154,2.094,5.217,4.796,5.106C138.622,31.225,140.312,30.215,141.052,29.02z"/>
		<path fill="#FFFFFF" d="M162.657,34.042l-0.096-2.289c-1.183,1.402-3.306,2.881-6.271,3.002c-3.98,0.162-5.946-1.94-6.09-5.469
			l-0.527-12.876l4.77-0.194l0.45,10.998c0.104,2.517,1.449,3.29,3.478,3.208c1.84-0.076,3.264-1.151,4.046-2.237l-0.503-12.275
			l4.77-0.196l0.74,18.133L162.657,34.042z"/>
		<path fill="#FFFFFF" d="M182.667,33.224l-0.077-1.916c-1.178,1.555-3.283,2.506-5.648,2.604c-2.891,0.116-6.352-1.699-6.517-5.752
			c-0.176-4.282,3.141-5.997,6.031-6.113c2.438-0.1,4.575,0.604,5.836,1.979l-0.095-2.291c-0.075-1.838-1.7-2.975-4.104-2.876
			c-1.915,0.079-3.687,0.903-5.131,2.354l-2.017-3.266c2.136-2.079,4.954-3.06,7.808-3.175c4.167-0.171,8.027,1.326,8.24,6.543
			l0.479,11.714L182.667,33.224z M182.49,28.87l-0.092-2.255c-0.831-1.02-2.357-1.521-3.896-1.459
			c-1.877,0.077-3.374,1.155-3.305,2.883c0.07,1.726,1.647,2.639,3.526,2.563C180.263,30.542,181.745,29.953,182.49,28.87z"/>
		<path fill="#FFFFFF" d="M191.792,32.851l-1.023-25.043l4.769-0.195l1.022,25.043L191.792,32.851z"/>
		<path fill="#FFFFFF" d="M199.527,9.557c-0.065-1.576,1.161-2.869,2.701-2.932c1.577-0.064,2.905,1.124,2.97,2.7
			c0.063,1.577-1.162,2.908-2.738,2.973C200.92,12.36,199.591,11.134,199.527,9.557z M200.915,32.478l-0.742-18.132l4.768-0.196
			l0.742,18.135L200.915,32.478z"/>
		<path fill="#FFFFFF" d="M210.828,27.523l-0.386-9.421l-3.006,0.123l-0.168-4.169l3.002-0.123l-0.202-4.957l4.769-0.195
			l0.203,4.958l3.682-0.151l0.168,4.169l-3.679,0.151l0.331,8.146c0.047,1.163,0.685,2.004,1.735,1.961
			c0.714-0.029,1.379-0.322,1.629-0.633l1.163,3.601c-0.687,0.668-1.942,1.246-3.933,1.327
			C212.794,32.446,210.962,30.79,210.828,27.523z"/>
		<path fill="#FFFFFF" d="M220.817,22.566c-0.214-5.256,3.517-9.658,9-9.883c5.443-0.223,9.251,3.684,9.491,9.577l0.046,1.127
			l-13.479,0.55c0.429,2.2,2.307,3.966,5.387,3.84c1.537-0.063,3.615-0.783,4.732-1.96l2.269,3.068
			c-1.736,1.725-4.552,2.706-7.369,2.82C225.375,31.933,221.054,28.385,220.817,22.566z M229.976,16.589
			c-2.968,0.122-4.158,2.238-4.273,4.048l8.938-0.366C234.417,18.551,233.129,16.46,229.976,16.589z M230.097,10.377l-3.342,0.137
			l4.811-5.613l4.394-0.18L230.097,10.377z"/>
		<path fill="#FFFFFF" d="M264.479,29.885l-0.096-2.327c-1.353,1.86-3.267,2.917-5.479,3.008c-4.544,0.185-8.178-3.128-8.426-9.209
			c-0.24-5.895,3.029-9.639,7.647-9.827c2.14-0.089,4.204,0.731,5.707,2.551l-0.376-9.238l4.804-0.196l1.023,25.042L264.479,29.885z
			 M264.24,24.026l-0.264-6.417c-0.836-1.171-2.601-1.963-4.176-1.9c-2.742,0.113-4.531,2.329-4.404,5.447
			c0.127,3.153,2.092,5.216,4.833,5.103C261.809,26.195,263.498,25.26,264.24,24.026z"/>
		<path fill="#FFFFFF" d="M272.105,20.471c-0.213-5.257,3.518-9.66,9-9.883c5.443-0.221,9.25,3.684,9.49,9.578l0.047,1.126
			l-13.48,0.551c0.43,2.199,2.308,3.965,5.388,3.839c1.537-0.063,3.616-0.785,4.732-1.96l2.268,3.068
			c-1.733,1.725-4.552,2.706-7.368,2.82C276.662,29.839,272.343,26.29,272.105,20.471z M281.261,14.494
			c-2.966,0.122-4.157,2.237-4.272,4.048l8.938-0.366C285.705,16.458,284.416,14.365,281.261,14.494z"/>
		<path fill="#FFFFFF" d="M307.993,28.106l-8.027-17.838l5.107-0.209l5.247,12.424l4.253-12.81l5.106-0.209l-6.542,18.433
			L307.993,28.106z"/>
		<path fill="#FFFFFF" d="M320.797,4.604c-0.063-1.576,1.162-2.869,2.701-2.933c1.577-0.063,2.903,1.125,2.97,2.701
			c0.064,1.577-1.161,2.906-2.74,2.97C322.191,7.406,320.862,6.181,320.797,4.604z M322.186,27.527l-0.741-18.135l4.768-0.194
			l0.74,18.133L322.186,27.527z"/>
		<path fill="#FFFFFF" d="M329.773,18.117c-0.215-5.259,3.518-9.66,8.999-9.884c5.446-0.223,9.253,3.684,9.493,9.578l0.045,1.127
			l-13.479,0.55c0.429,2.199,2.307,3.965,5.386,3.839c1.539-0.063,3.614-0.784,4.734-1.96l2.268,3.068
			c-1.735,1.725-4.554,2.706-7.37,2.82C334.331,27.483,330.012,23.934,329.773,18.117z M338.931,12.138
			c-2.965,0.122-4.158,2.239-4.271,4.048l8.936-0.366C343.376,14.102,342.084,12.01,338.931,12.138z"/>
		<path fill="#FFFFFF" d="M360.262,23.338c-0.068-1.651,1.265-3.096,2.917-3.163c1.652-0.068,3.099,1.265,3.164,2.917
			c0.066,1.652-1.264,3.097-2.917,3.164C361.774,26.325,360.327,24.991,360.262,23.338z"/>
		<path fill="#FFFFFF" d="M369.534,22.961c-0.068-1.652,1.265-3.098,2.917-3.163c1.653-0.067,3.099,1.265,3.165,2.917
			c0.066,1.651-1.265,3.097-2.918,3.163C371.048,25.944,369.601,24.612,369.534,22.961z"/>
		<path fill="#FFFFFF" d="M378.808,22.581c-0.068-1.651,1.264-3.096,2.918-3.163c1.653-0.066,3.098,1.265,3.165,2.915
			c0.066,1.655-1.266,3.1-2.917,3.167C380.319,25.565,378.875,24.234,378.808,22.581z"/>
	</g>
</g>
</svg>
