<?xml version="1.0" encoding="utf-8"?>
<!-- Generator: Adobe Illustrator 16.0.0, SVG Export Plug-In . SVG Version: 6.00 Build 0)  -->
<!DOCTYPE svg PUBLIC "-//W3C//DTD SVG 1.1//EN" "http://www.w3.org/Graphics/SVG/1.1/DTD/svg11.dtd">
<svg version="1.1" id="Layer_1" xmlns="http://www.w3.org/2000/svg" xmlns:xlink="http://www.w3.org/1999/xlink" x="0px" y="0px"
	 width="341.478px" height="74.398px" viewBox="37.121 -25.483 341.478 74.398"
	 enable-background="new 37.121 -25.483 341.478 74.398" xml:space="preserve">
<g id="punchline_1_">
	<g>
		<path fill="#FFFFFF" d="M37.121-1.976v-22.855h4.9v18.573h9.664v4.283H37.121z"/>
		<path fill="#FFFFFF" d="M51.552-15.306l-1.886-1.541c1.097-0.584,2.365-2.022,2.64-3.256C52.203-20.034,51.929-20,51.654-20
			c-1.302,0-2.33-0.994-2.33-2.467c0-1.474,1.234-2.706,2.707-2.706c1.611,0,3.049,1.268,3.049,3.496
			C55.08-19.109,53.676-16.814,51.552-15.306z"/>
		<path fill="#FFFFFF" d="M76.672-1.976v-1.748c-1.13,1.371-3.082,2.159-5.242,2.159c-2.64,0-5.722-1.782-5.722-5.483
			c0-3.906,3.083-5.346,5.722-5.346c2.228,0,4.146,0.718,5.242,2.021v-2.088c0-1.68-1.439-2.776-3.632-2.776
			c-1.748,0-3.392,0.685-4.763,1.955l-1.714-3.05c2.023-1.817,4.626-2.605,7.231-2.605c3.804,0,7.265,1.507,7.265,6.271v10.692
			h-4.387V-1.976z M76.672-5.95v-2.056c-0.719-0.961-2.09-1.474-3.494-1.474c-1.714,0-3.119,0.925-3.119,2.502
			c0,1.577,1.404,2.468,3.119,2.468C74.582-4.51,75.953-4.99,76.672-5.95z"/>
		<path fill="#FFFFFF" d="M84.594-22.912c0-1.44,1.166-2.571,2.57-2.571c1.439,0,2.605,1.131,2.605,2.571
			c0,1.439-1.166,2.604-2.605,2.604C85.759-20.308,84.594-21.474,84.594-22.912z M85.004-1.976v-16.55h4.351v16.55H85.004z"/>
		<path fill="#FFFFFF" d="M93.334-1.976v-16.55h4.352v2.227c1.199-1.44,3.22-2.639,5.277-2.639v4.25
			c-0.309-0.068-0.686-0.103-1.201-0.103c-1.439,0-3.357,0.824-4.076,1.887v10.931h-4.352V-1.976z"/>
		<path fill="#FFFFFF" d="M112.697-10.267c0-5.517,3.084-8.67,7.3-8.67c2.02,0,3.838,0.893,5.105,2.501v-2.09h4.386V4.331h-4.386
			v-8.43c-1.336,1.712-3.119,2.536-5.105,2.536C115.781-1.563,112.697-4.75,112.697-10.267z M125.102-7.355v-5.826
			c-0.719-1.095-2.295-1.885-3.734-1.885c-2.468,0-4.181,1.953-4.181,4.798c0,2.879,1.713,4.832,4.181,4.832
			C122.807-5.436,124.383-6.293,125.102-7.355z"/>
		<path fill="#FFFFFF" d="M144.605-1.976v-2.089c-1.131,1.232-3.117,2.501-5.825,2.501c-3.633,0-5.346-1.988-5.346-5.209v-11.753
			h4.352v10.04c0,2.296,1.2,3.05,3.05,3.05c1.68,0,3.015-0.926,3.769-1.885v-11.207h4.351v16.55h-4.35V-1.976z"/>
		<path fill="#FFFFFF" d="M151.874-10.267c0-4.798,3.565-8.67,8.567-8.67c4.968,0,8.294,3.7,8.294,9.081v1.028h-12.302
			c0.309,2.021,1.953,3.701,4.763,3.701c1.404,0,3.324-0.584,4.387-1.611l1.954,2.878c-1.646,1.508-4.251,2.296-6.819,2.296
			C155.678-1.563,151.874-4.958,151.874-10.267z M160.44-15.374c-2.705,0-3.871,1.885-4.042,3.529h8.156
			C164.416-13.421,163.321-15.374,160.44-15.374z"/>
		<path fill="#FFFFFF" d="M184.297-1.976l-6.649-16.55h4.66l4.317,11.515l4.352-11.515h4.66l-6.648,16.55H184.297z"/>
		<path fill="#FFFFFF" d="M196.192-10.267c0-4.694,3.29-8.67,8.738-8.67c5.482,0,8.773,3.976,8.773,8.67
			c0,4.694-3.291,8.704-8.773,8.704C199.48-1.563,196.192-5.573,196.192-10.267z M209.178-10.267c0-2.571-1.507-4.798-4.249-4.798
			c-2.707,0-4.216,2.228-4.216,4.798c0,2.604,1.508,4.832,4.216,4.832C207.671-5.436,209.178-7.664,209.178-10.267z"/>
		<path fill="#FFFFFF" d="M227.79-1.976v-2.089c-1.131,1.232-3.117,2.501-5.824,2.501c-3.632,0-5.347-1.988-5.347-5.209v-11.753
			h4.352v10.04c0,2.296,1.199,3.05,3.05,3.05c1.68,0,3.016-0.926,3.77-1.885v-11.207h4.352v16.55h-4.352V-1.976z"/>
		<path fill="#FFFFFF" d="M234.683-4.133l1.885-3.154c1.232,1.166,3.666,2.296,5.724,2.296c1.885,0,2.773-0.72,2.773-1.748
			c0-2.707-9.8-0.48-9.8-6.991c0-2.775,2.398-5.208,6.786-5.208c2.775,0,5.002,0.961,6.647,2.262l-1.746,3.084
			c-0.995-1.028-2.88-1.919-4.901-1.919c-1.576,0-2.604,0.686-2.604,1.611c0,2.434,9.835,0.377,9.835,7.058
			c0,3.051-2.604,5.278-7.196,5.278C239.206-1.563,236.431-2.524,234.683-4.133z"/>
		<path fill="#FFFFFF" d="M260.593-1.976v-16.55h4.353v2.227c1.201-1.44,3.221-2.639,5.277-2.639v4.25
			c-0.309-0.068-0.686-0.103-1.199-0.103c-1.439,0-3.357,0.824-4.078,1.887v10.931h-4.353V-1.976z"/>
		<path fill="#FFFFFF" d="M271.527-10.267c0-4.798,3.564-8.67,8.566-8.67c4.969,0,8.292,3.7,8.292,9.081v1.028h-12.302
			c0.309,2.021,1.955,3.701,4.762,3.701c1.406,0,3.324-0.584,4.387-1.611l1.953,2.878c-1.645,1.508-4.25,2.296-6.818,2.296
			C275.331-1.563,271.527-4.958,271.527-10.267z M280.093-15.374c-2.705,0-3.871,1.885-4.043,3.529h8.157
			C284.069-13.421,282.973-15.374,280.093-15.374z"/>
		<path fill="#FFFFFF" d="M289.762-4.133l1.885-3.154c1.234,1.166,3.667,2.296,5.722,2.296c1.888,0,2.777-0.72,2.777-1.748
			c0-2.707-9.8-0.48-9.8-6.991c0-2.775,2.397-5.208,6.786-5.208c2.773,0,5.002,0.961,6.647,2.262l-1.748,3.084
			c-0.994-1.028-2.88-1.919-4.899-1.919c-1.579,0-2.605,0.686-2.605,1.611c0,2.434,9.835,0.377,9.835,7.058
			c0,3.051-2.604,5.278-7.196,5.278C294.285-1.563,291.51-2.524,289.762-4.133z"/>
		<path fill="#FFFFFF" d="M311.56-4.099v8.43h-4.354v-22.857h4.354v2.089c1.268-1.609,3.084-2.501,5.106-2.501
			c4.249,0,7.332,3.153,7.332,8.67s-3.083,8.704-7.332,8.704C314.712-1.563,312.931-2.387,311.56-4.099z M319.51-10.267
			c0-2.845-1.715-4.798-4.215-4.798c-1.404,0-2.981,0.788-3.735,1.885v5.826c0.72,1.063,2.33,1.919,3.735,1.919
			C317.794-5.436,319.51-7.388,319.51-10.267z"/>
		<path fill="#FFFFFF" d="M326.437-22.912c0-1.44,1.163-2.571,2.57-2.571c1.438,0,2.604,1.131,2.604,2.571
			c0,1.439-1.165,2.604-2.604,2.604C327.6-20.308,326.437-21.474,326.437-22.912z M326.848-1.976v-16.55h4.352v16.55H326.848z"/>
		<path fill="#FFFFFF" d="M335.173-1.976v-16.55h4.354v2.227c1.2-1.44,3.221-2.639,5.276-2.639v4.25
			c-0.309-0.068-0.686-0.103-1.199-0.103c-1.438,0-3.357,0.824-4.077,1.887v10.931h-4.354V-1.976z"/>
		<path fill="#FFFFFF" d="M346.109-10.267c0-4.798,3.564-8.67,8.566-8.67c4.968,0,8.292,3.7,8.292,9.081v1.028h-12.302
			c0.309,2.021,1.954,3.701,4.762,3.701c1.406,0,3.324-0.584,4.387-1.611l1.954,2.878c-1.646,1.508-4.251,2.296-6.819,2.296
			C349.913-1.563,346.109-4.958,346.109-10.267z M354.675-15.374c-2.706,0-3.871,1.885-4.043,3.529h8.156
			C358.651-13.421,357.555-15.374,354.675-15.374z"/>
		<path fill="#FFFFFF" d="M365.064-1.976v-3.255l7.469-9.491h-7.469v-3.805h13.396v3.119l-7.605,9.629h7.744v3.804h-13.535V-1.976z"
			/>
	</g>
	<g>
		<path fill="#FFFFFF" d="M100.87,36.207c-0.221-5.421,3.626-9.96,9.277-10.19c5.616-0.229,9.541,3.799,9.79,9.876l0.048,1.163
			l-13.899,0.568c0.442,2.268,2.378,4.088,5.552,3.959c1.588-0.065,3.729-0.811,4.883-2.023l2.338,3.167
			c-1.788,1.777-4.694,2.788-7.6,2.908C105.569,45.864,101.115,42.207,100.87,36.207z M110.312,30.042
			c-3.058,0.125-4.287,2.309-4.405,4.177l9.214-0.378C114.895,32.065,113.565,29.909,110.312,30.042z"/>
		<path fill="#FFFFFF" d="M121.749,42.296l1.983-3.65c1.448,1.259,4.251,2.425,6.572,2.329c2.129-0.088,3.103-0.94,3.055-2.102
			c-0.125-3.06-11.095-0.091-11.394-7.445c-0.128-3.135,2.468-5.994,7.423-6.2c3.136-0.128,5.698,0.856,7.618,2.252l-1.834,3.563
			c-1.17-1.114-3.339-2.034-5.624-1.942c-1.781,0.072-2.911,0.897-2.867,1.939c0.11,2.751,11.129-0.027,11.436,7.521
			c0.142,3.447-2.7,6.086-7.886,6.297C126.977,44.991,123.798,44.033,121.749,42.296z"/>
		<path fill="#FFFFFF" d="M142.368,39.203l-0.396-9.717l-3.097,0.128l-0.176-4.301l3.097-0.126l-0.208-5.11l4.917-0.202l0.208,5.111
			l3.793-0.154l0.176,4.299l-3.792,0.154l0.343,8.4c0.049,1.199,0.705,2.066,1.787,2.021c0.737-0.031,1.422-0.33,1.68-0.65
			l1.201,3.714c-0.711,0.687-2.004,1.283-4.057,1.368C144.398,44.281,142.505,42.572,142.368,39.203z"/>
		<path fill="#FFFFFF" d="M152.677,36.183l-0.168-4.18l9.29-0.381l0.171,4.181L152.677,36.183z"/>
		<path fill="#FFFFFF" d="M164.046,19.316c-0.065-1.624,1.199-2.957,2.785-3.022c1.626-0.068,2.995,1.16,3.063,2.784
			c0.067,1.627-1.197,2.997-2.824,3.063C165.483,22.205,164.114,20.94,164.046,19.316z M165.479,42.952l-0.765-18.699l4.916-0.201
			l0.766,18.699L165.479,42.952z"/>
		<path fill="#FFFFFF" d="M174.886,42.568l-1.056-25.823l4.918-0.201l1.055,25.821L174.886,42.568z"/>
		<path fill="#FFFFFF" d="M198.674,39.19l0.389,9.524l-4.916,0.201l-1.056-25.822l4.916-0.202l0.098,2.362
			c1.358-1.877,3.368-2.969,5.652-3.062c4.802-0.195,8.431,3.222,8.686,9.458c0.255,6.232-3.082,9.976-7.884,10.171
			C202.352,41.912,200.301,41.064,198.674,39.19z M207.371,31.858c-0.132-3.216-2.158-5.344-4.983-5.228
			c-1.588,0.064-3.333,1.027-4.133,2.303l0.271,6.58c0.86,1.166,2.719,2.062,4.308,1.997
			C205.656,37.394,207.505,35.108,207.371,31.858z"/>
		<path fill="#FFFFFF" d="M228.657,40.369l-0.096-2.36c-1.218,1.446-3.408,2.972-6.466,3.097c-4.104,0.166-6.132-2.001-6.28-5.641
			l-0.542-13.278l4.919-0.201l0.463,11.343c0.107,2.595,1.495,3.393,3.585,3.307c1.896-0.077,3.365-1.185,4.173-2.306l-0.517-12.658
			l4.916-0.202l0.764,18.699L228.657,40.369z"/>
		<path fill="#FFFFFF" d="M238.064,39.987l-0.763-18.7l4.916-0.201l0.104,2.518c1.288-1.686,3.518-3.132,5.84-3.225l0.196,4.8
			c-0.351-0.062-0.777-0.085-1.36-0.06c-1.626,0.066-3.755,1.084-4.521,2.316l0.507,12.35L238.064,39.987z"/>
		<path fill="#FFFFFF" d="M263.887,27.571c-0.187-4.568,5.483-5.344,5.372-8.016c-0.049-1.199-1.02-2.168-3.148-2.08
			c-1.936,0.079-3.523,1.075-4.663,2.592l-3.28-3.393c1.954-2.522,4.996-3.965,8.324-4.101c4.996-0.207,8.157,2.188,8.304,5.789
			c0.23,5.652-6.217,6.341-6.084,9.592c0.024,0.62,0.36,1.268,0.802,1.598l-4.207,1.412
			C264.455,30.106,263.944,28.926,263.887,27.571z M264.24,36.204c-0.07-1.703,1.304-3.193,3.009-3.262
			c1.705-0.069,3.195,1.304,3.264,3.008c0.069,1.705-1.305,3.195-3.007,3.264C265.8,39.28,264.31,37.908,264.24,36.204z"/>
	</g>
</g>
</svg>
