<?xml version="1.0" encoding="utf-8"?>
<!-- Generator: Adobe Illustrator 16.0.0, SVG Export Plug-In . SVG Version: 6.00 Build 0)  -->
<!DOCTYPE svg PUBLIC "-//W3C//DTD SVG 1.1//EN" "http://www.w3.org/Graphics/SVG/1.1/DTD/svg11.dtd">
<svg version="1.1" id="Layer_1" xmlns="http://www.w3.org/2000/svg" xmlns:xlink="http://www.w3.org/1999/xlink" x="0px" y="0px"
	 width="960px" height="560px" viewBox="0 0 960 560" enable-background="new 0 0 960 560" xml:space="preserve">
<g id="Ville">
	<g id="maison_2">
		
			<rect x="300.958" y="375.126" fill="none" stroke="#FFFFFF" stroke-width="4.7366" stroke-miterlimit="10" width="135.709" height="123.863"/>
		
			<rect x="309.332" y="424.493" fill="none" stroke="#FFFFFF" stroke-width="4.7366" stroke-miterlimit="10" width="67.335" height="59.207"/>
		
			<rect x="301.331" y="375.312" fill="none" stroke="#FFFFFF" stroke-width="4.7366" stroke-miterlimit="10" width="135.335" height="37.053"/>
		<circle fill="#FFFFFF" cx="413.167" cy="462.032" r="2.25"/>
		<line fill="none" stroke="#FFFFFF" stroke-width="2" stroke-miterlimit="10" x1="366" y1="437.058" x2="318.333" y2="473.958"/>
		
			<line fill="none" stroke="#FFFFFF" stroke-width="1.262" stroke-miterlimit="10" x1="364.157" y1="448.14" x2="334.08" y2="471.425"/>
	</g>
	<g id="maison_2_1_">
		
			<rect x="497.689" y="375.126" fill="none" stroke="#FFFFFF" stroke-width="4.864" stroke-miterlimit="10" width="143.113" height="123.863"/>
		<path fill="none" stroke="#FFFFFF" stroke-width="2.0538" stroke-miterlimit="10" d="M622.479,473.958"/>
		<path fill="none" stroke="#FFFFFF" stroke-width="2.0538" stroke-miterlimit="10" d="M572.211,437.058"/>
		<path fill="none" stroke="#FFFFFF" stroke-width="1.296" stroke-miterlimit="10" d="M605.873,471.425"/>
		<path fill="none" stroke="#FFFFFF" stroke-width="1.296" stroke-miterlimit="10" d="M574.156,448.14"/>
	</g>
	<g id="maison_3">
		
			<rect x="497.689" y="373.218" fill="none" stroke="#FFFFFF" stroke-width="4.864" stroke-miterlimit="10" width="142.719" height="37.053"/>
		<ellipse fill="#FFFFFF" cx="531.479" cy="459.938" rx="2.372" ry="2.25"/>
		
			<rect x="497.158" y="303.2" fill="none" stroke="#FFFFFF" stroke-width="4.7366" stroke-miterlimit="10" width="143.643" height="195.287"/>
		
			<rect x="509.996" y="422.399" fill="none" stroke="#FFFFFF" stroke-width="4.7366" stroke-miterlimit="10" width="29.67" height="74.496"/>
		
			<rect x="511.164" y="324.651" fill="none" stroke="#FFFFFF" stroke-width="4.7366" stroke-miterlimit="10" width="27.334" height="27.332"/>
		
			<rect x="555.313" y="324.651" fill="none" stroke="#FFFFFF" stroke-width="4.7366" stroke-miterlimit="10" width="27.334" height="27.332"/>
		
			<rect x="600.666" y="324.651" fill="none" stroke="#FFFFFF" stroke-width="4.7366" stroke-miterlimit="10" width="27.334" height="27.332"/>
		
			<rect x="600.666" y="439.747" fill="none" stroke="#FFFFFF" stroke-width="4.7366" stroke-miterlimit="10" width="27.334" height="27.334"/>
		
			<rect x="555.313" y="439.747" fill="none" stroke="#FFFFFF" stroke-width="4.7366" stroke-miterlimit="10" width="27.334" height="27.334"/>
	</g>
	<g id="maison_5">
		<g id="maison_4">
			
				<rect x="663.494" y="371.745" fill="none" stroke="#FFFFFF" stroke-width="4.7366" stroke-miterlimit="10" width="91.172" height="127.244"/>
			<polygon fill="none" stroke="#FFFFFF" stroke-width="4.7366" stroke-miterlimit="10" points="652,371.745 764.025,371.745 
				709.08,337.349 			"/>
			
				<rect x="711.969" y="421.671" fill="none" stroke="#FFFFFF" stroke-width="4.7366" stroke-miterlimit="10" width="30.213" height="76.91"/>
			<path fill="#FFFFFF" d="M704.182,392.925h9.904c0,0,0-10.893-4.953-10.893C703.627,382.032,704.182,392.925,704.182,392.925z"/>
			<path fill="#FFFFFF" d="M727.086,392.925h9.904c0,0,0-10.893-4.953-10.893C726.531,382.032,727.086,392.925,727.086,392.925z"/>
			<path fill="#FFFFFF" d="M679.863,392.925h9.904c0,0,0-10.893-4.953-10.893C679.309,382.032,679.863,392.925,679.863,392.925z"/>
			
				<rect x="673.201" y="439.839" fill="none" stroke="#FFFFFF" stroke-width="4.7366" stroke-miterlimit="10" width="28.465" height="27.334"/>
			<circle fill="#FFFFFF" cx="732.584" cy="460.032" r="2.25"/>
		</g>
		<line fill="none" stroke="#FFFFFF" stroke-miterlimit="10" x1="676.334" y1="396.2" x2="693.668" y2="396.2"/>
		<line fill="none" stroke="#FFFFFF" stroke-miterlimit="10" x1="700.348" y1="396.2" x2="717.68" y2="396.2"/>
		<line fill="none" stroke="#FFFFFF" stroke-miterlimit="10" x1="723.66" y1="396.2" x2="740.994" y2="396.2"/>
	</g>
	
		<line fill="none" stroke="#FFFFFF" stroke-width="2.1906" stroke-miterlimit="10" x1="0.618" y1="500.581" x2="960.117" y2="500.853"/>
	
		<line fill="none" stroke="#FFFFFF" stroke-width="2.1906" stroke-miterlimit="10" x1="1.118" y1="519.981" x2="960.117" y2="519.981"/>
	<path fill="#FFFFFF" stroke="#09B4CF" stroke-width="2" stroke-miterlimit="10" d="M356.311,416.757
		c0.848-2.52,1.315-5.211,1.315-8.012c0-13.848-11.225-25.072-25.07-25.072c-13.847,0-25.07,11.225-25.07,25.072
		c0,2.232,0.296,4.398,0.845,6.461c-4.372,2.219-7.374,6.746-7.374,11.982c0,7.049,5.427,12.818,12.328,13.387
		c2.536,6.326,8.411,10.951,15.448,11.689v55.77h4.894v-55.891c6.783-1.057,12.363-5.746,14.691-12.016
		c1.102,0.32,2.263,0.502,3.469,0.502c6.832,0,12.37-5.539,12.37-12.369C364.157,423.028,360.902,418.563,356.311,416.757z"/>
	<path fill="#FFFFFF" stroke="#09B4CF" stroke-width="2" stroke-miterlimit="10" d="M589.506,420.511
		c0.857-2.539,1.328-5.256,1.328-8.082c0-13.969-11.324-25.291-25.291-25.291s-25.291,11.322-25.291,25.291
		c0,2.254,0.299,4.439,0.854,6.52c-4.41,2.238-7.439,6.803-7.439,12.088c0,7.109,5.475,12.93,12.438,13.502
		c2.559,6.383,8.486,11.049,15.584,11.793v56.262h4.938V456.21c6.842-1.066,12.471-5.797,14.82-12.121
		c1.109,0.324,2.283,0.506,3.498,0.506c6.893,0,12.48-5.586,12.48-12.479C597.424,426.837,594.139,422.333,589.506,420.511z"/>
	<polygon fill="#FFFFFF" points="142.4,340.866 142.4,336.866 120.661,336.866 120.661,331.089 114.661,331.089 114.661,336.866 
		92.49,336.866 92.49,340.866 114.661,340.866 114.661,345.474 92.49,345.474 92.49,349.474 114.661,349.474 114.661,500.581 
		120.661,500.581 120.661,349.474 142.4,349.474 142.4,345.474 120.661,345.474 120.661,340.866 	"/>
	<polygon fill="#FFFFFF" points="478.739,340.866 478.739,336.866 457,336.866 457,331.089 451,331.089 451,336.866 
		428.829,336.866 428.829,340.866 451,340.866 451,345.474 428.829,345.474 428.829,349.474 451,349.474 451,500.581 457,500.581 
		457,349.474 478.739,349.474 478.739,345.474 457,345.474 457,340.866 	"/>
	<polygon fill="#FFFFFF" points="788.98,340.866 788.98,336.866 767.242,336.866 767.242,331.089 761.242,331.089 761.242,336.866 
		739.07,336.866 739.07,340.866 761.242,340.866 761.242,345.474 739.07,345.474 739.07,349.474 761.242,349.474 761.242,500.581 
		767.242,500.581 767.242,349.474 788.98,349.474 788.98,345.474 767.242,345.474 767.242,340.866 	"/>
	<path fill="none" stroke="#FFFFFF" stroke-miterlimit="10" d="M138.161,349.474c0,0,143.166,27.273,290.5,0"/>
	<path fill="none" stroke="#FFFFFF" stroke-miterlimit="10" d="M138.161,340.866c0,0,142.367,26.818,289.701-0.455"/>
	<path fill="none" stroke="#FFFFFF" stroke-miterlimit="10" d="M474.426,347.474c0,0,138.05,40.607,269.978,0.666"/>
	<path fill="none" stroke="#FFFFFF" stroke-miterlimit="10" d="M474.426,337.349c0,0,138.05,40.607,269.978,0.668"/>
	<g id="maison1">
		
			<rect x="157.333" y="231.09" fill="none" stroke="#FFFFFF" stroke-width="4.7989" stroke-miterlimit="10" width="129.231" height="268.491"/>
		
			<rect x="207.67" y="427.198" fill="none" stroke="#FFFFFF" stroke-width="4.7366" stroke-miterlimit="10" width="28.896" height="72.383"/>
		
			<rect x="391.77" y="423.78" fill="none" stroke="#FFFFFF" stroke-width="4.6694" stroke-miterlimit="10" width="28.896" height="75.209"/>
		<polygon fill="none" stroke="#FFFFFF" stroke-width="4.7366" stroke-miterlimit="10" points="149.118,231.09 295.542,231.09 
			286.564,199.199 157,199.199 		"/>
		
			<rect x="247.1" y="425.198" fill="none" stroke="#FFFFFF" stroke-width="4.7366" stroke-miterlimit="10" width="27.333" height="27.332"/>
		
			<rect x="169.367" y="425.198" fill="none" stroke="#FFFFFF" stroke-width="4.7366" stroke-miterlimit="10" width="27.333" height="27.332"/>
		
			<rect x="247.1" y="365.335" fill="none" stroke="#FFFFFF" stroke-width="4.7366" stroke-miterlimit="10" width="27.333" height="27.334"/>
		
			<rect x="169.367" y="365.335" fill="none" stroke="#FFFFFF" stroke-width="4.7366" stroke-miterlimit="10" width="27.333" height="27.334"/>
		
			<rect x="247.1" y="305.474" fill="none" stroke="#FFFFFF" stroke-width="4.7366" stroke-miterlimit="10" width="27.333" height="27.332"/>
		
			<rect x="169.367" y="305.474" fill="none" stroke="#FFFFFF" stroke-width="4.7366" stroke-miterlimit="10" width="27.333" height="27.332"/>
		
			<rect x="247.1" y="245.61" fill="none" stroke="#FFFFFF" stroke-width="4.7366" stroke-miterlimit="10" width="27.333" height="27.333"/>
		
			<rect x="169.367" y="245.61" fill="none" stroke="#FFFFFF" stroke-width="4.7366" stroke-miterlimit="10" width="27.333" height="27.333"/>
		<circle fill="#FFFFFF" cx="210.791" cy="258.406" r="2.375"/>
		<circle fill="#FFFFFF" cx="232.166" cy="258.406" r="2.375"/>
		<circle fill="#FFFFFF" cx="221.541" cy="257.906" r="5.125"/>
		<line fill="none" stroke="#FFFFFF" stroke-miterlimit="10" x1="163.167" y1="216.281" x2="177.667" y2="216.281"/>
		<line fill="none" stroke="#FFFFFF" stroke-miterlimit="10" x1="167.167" y1="210.781" x2="181.667" y2="210.781"/>
		<line fill="none" stroke="#FFFFFF" stroke-miterlimit="10" x1="170.417" y1="216.281" x2="172.917" y2="210.781"/>
		<line fill="none" stroke="#FFFFFF" stroke-miterlimit="10" x1="177.667" y1="210.781" x2="180.167" y2="205.281"/>
		<line fill="none" stroke="#FFFFFF" stroke-miterlimit="10" x1="182.301" y1="224.531" x2="196.801" y2="224.531"/>
		<line fill="none" stroke="#FFFFFF" stroke-miterlimit="10" x1="186.301" y1="219.031" x2="200.801" y2="219.031"/>
		<line fill="none" stroke="#FFFFFF" stroke-miterlimit="10" x1="189.551" y1="224.531" x2="192.051" y2="219.031"/>
		<line fill="none" stroke="#FFFFFF" stroke-miterlimit="10" x1="196.801" y1="219.031" x2="199.301" y2="213.531"/>
		<line fill="none" stroke="#FFFFFF" stroke-miterlimit="10" x1="210.791" y1="216.281" x2="225.291" y2="216.281"/>
		<line fill="none" stroke="#FFFFFF" stroke-miterlimit="10" x1="214.791" y1="210.781" x2="229.291" y2="210.781"/>
		<line fill="none" stroke="#FFFFFF" stroke-miterlimit="10" x1="218.041" y1="216.281" x2="220.541" y2="210.781"/>
		<line fill="none" stroke="#FFFFFF" stroke-miterlimit="10" x1="225.291" y1="210.781" x2="227.791" y2="205.281"/>
		<line fill="none" stroke="#FFFFFF" stroke-miterlimit="10" x1="229.791" y1="224.531" x2="244.291" y2="224.531"/>
		<line fill="none" stroke="#FFFFFF" stroke-miterlimit="10" x1="233.791" y1="219.031" x2="248.291" y2="219.031"/>
		<line fill="none" stroke="#FFFFFF" stroke-miterlimit="10" x1="237.041" y1="224.531" x2="239.541" y2="219.031"/>
		<line fill="none" stroke="#FFFFFF" stroke-miterlimit="10" x1="244.291" y1="219.031" x2="246.791" y2="213.531"/>
		<line fill="none" stroke="#FFFFFF" stroke-miterlimit="10" x1="255.933" y1="215.145" x2="270.433" y2="215.145"/>
		<line fill="none" stroke="#FFFFFF" stroke-miterlimit="10" x1="259.933" y1="209.645" x2="274.433" y2="209.645"/>
		<line fill="none" stroke="#FFFFFF" stroke-miterlimit="10" x1="263.183" y1="215.145" x2="265.683" y2="209.645"/>
		<line fill="none" stroke="#FFFFFF" stroke-miterlimit="10" x1="270.433" y1="209.645" x2="272.933" y2="204.145"/>
		
			<rect x="170.417" y="176.531" fill="none" stroke="#FFFFFF" stroke-width="4.7366" stroke-miterlimit="10" width="15.885" height="22.668"/>
		
			<rect x="185.609" y="182.031" fill="none" stroke="#FFFFFF" stroke-width="2.9147" stroke-miterlimit="10" width="7.942" height="17.168"/>
		<line fill="none" stroke="#FFFFFF" stroke-miterlimit="10" x1="179.333" y1="291.864" x2="192.051" y2="291.864"/>
		<line fill="none" stroke="#FFFFFF" stroke-miterlimit="10" x1="184.442" y1="285.198" x2="197.16" y2="285.198"/>
		<line fill="none" stroke="#FFFFFF" stroke-miterlimit="10" x1="211.682" y1="298.666" x2="224.4" y2="298.666"/>
		<line fill="none" stroke="#FFFFFF" stroke-miterlimit="10" x1="188" y1="285.198" x2="188" y2="291.864"/>
		<line fill="none" stroke="#FFFFFF" stroke-miterlimit="10" x1="202.769" y1="341.198" x2="215.486" y2="341.198"/>
		<line fill="none" stroke="#FFFFFF" stroke-miterlimit="10" x1="207.877" y1="334.532" x2="220.595" y2="334.532"/>
		<line fill="none" stroke="#FFFFFF" stroke-miterlimit="10" x1="211.435" y1="334.532" x2="211.435" y2="341.198"/>
		<line fill="none" stroke="#FFFFFF" stroke-miterlimit="10" x1="221.292" y1="379.003" x2="234.01" y2="379.003"/>
		<line fill="none" stroke="#FFFFFF" stroke-miterlimit="10" x1="226.401" y1="372.337" x2="239.119" y2="372.337"/>
		<line fill="none" stroke="#FFFFFF" stroke-miterlimit="10" x1="229.958" y1="372.337" x2="229.958" y2="379.003"/>
		<line fill="none" stroke="#FFFFFF" stroke-miterlimit="10" x1="219.291" y1="298.667" x2="219.291" y2="305.335"/>
		<line fill="none" stroke="#FFFFFF" stroke-miterlimit="10" x1="213.771" y1="305.474" x2="225.291" y2="305.474"/>
		<line fill="none" stroke="#FFFFFF" stroke-miterlimit="10" x1="214.736" y1="396.196" x2="227.454" y2="396.196"/>
		<line fill="none" stroke="#FFFFFF" stroke-miterlimit="10" x1="216.342" y1="396.198" x2="216.342" y2="402.864"/>
		<line fill="none" stroke="#FFFFFF" stroke-miterlimit="10" x1="210.822" y1="403.001" x2="222.342" y2="403.001"/>
		<line fill="none" stroke="#FFFFFF" stroke-miterlimit="10" x1="171.667" y1="403.001" x2="184.384" y2="403.001"/>
		<line fill="none" stroke="#FFFFFF" stroke-miterlimit="10" x1="179.275" y1="403.003" x2="179.275" y2="409.669"/>
		<line fill="none" stroke="#FFFFFF" stroke-miterlimit="10" x1="173.755" y1="409.806" x2="185.275" y2="409.806"/>
		<line fill="none" stroke="#FFFFFF" stroke-miterlimit="10" x1="259.509" y1="408.03" x2="272.227" y2="408.03"/>
		<line fill="none" stroke="#FFFFFF" stroke-miterlimit="10" x1="267.118" y1="408.03" x2="267.118" y2="414.696"/>
		<line fill="none" stroke="#FFFFFF" stroke-miterlimit="10" x1="261.597" y1="414.835" x2="273.118" y2="414.835"/>
		<line fill="none" stroke="#FFFFFF" stroke-miterlimit="10" x1="245.899" y1="469.556" x2="258.617" y2="469.556"/>
		<line fill="none" stroke="#FFFFFF" stroke-miterlimit="10" x1="253.508" y1="469.556" x2="253.508" y2="476.222"/>
		<line fill="none" stroke="#FFFFFF" stroke-miterlimit="10" x1="247.988" y1="476.36" x2="259.508" y2="476.36"/>
		<line fill="none" stroke="#FFFFFF" stroke-miterlimit="10" x1="170.862" y1="466.153" x2="183.58" y2="466.153"/>
		<line fill="none" stroke="#FFFFFF" stroke-miterlimit="10" x1="178.471" y1="466.153" x2="178.471" y2="472.819"/>
		<line fill="none" stroke="#FFFFFF" stroke-miterlimit="10" x1="172.951" y1="472.958" x2="184.471" y2="472.958"/>
		<line fill="none" stroke="#FFFFFF" stroke-miterlimit="10" x1="252.704" y1="341.198" x2="265.422" y2="341.198"/>
		<line fill="none" stroke="#FFFFFF" stroke-miterlimit="10" x1="260.313" y1="341.198" x2="260.313" y2="347.864"/>
		<line fill="none" stroke="#FFFFFF" stroke-miterlimit="10" x1="254.792" y1="348.003" x2="266.313" y2="348.003"/>
		<line fill="none" stroke="#FFFFFF" stroke-miterlimit="10" x1="246.791" y1="283.198" x2="259.509" y2="283.198"/>
		<line fill="none" stroke="#FFFFFF" stroke-miterlimit="10" x1="254.4" y1="283.199" x2="254.4" y2="289.865"/>
		<line fill="none" stroke="#FFFFFF" stroke-miterlimit="10" x1="248.879" y1="290.003" x2="260.4" y2="290.003"/>
	</g>
	<g id="palissade">
		<rect x="779.852" y="445.532" fill="#FFFFFF" width="5.814" height="55.049"/>
		<rect x="788.98" y="445.532" fill="#FFFFFF" width="5.814" height="55.049"/>
		<rect x="800.314" y="445.532" fill="#FFFFFF" width="5.814" height="55.049"/>
		<rect x="800.314" y="445.532" fill="#FFFFFF" width="5.814" height="55.049"/>
		<rect x="811.646" y="445.532" fill="#FFFFFF" width="5.814" height="55.049"/>
		<rect x="811.646" y="445.532" fill="#FFFFFF" width="5.814" height="55.049"/>
		<rect x="822.98" y="445.532" fill="#FFFFFF" width="5.814" height="55.049"/>
		<rect x="822.98" y="445.532" fill="#FFFFFF" width="5.814" height="55.049"/>
		<rect x="834.313" y="445.532" fill="#FFFFFF" width="5.814" height="55.049"/>
		<rect x="834.313" y="445.532" fill="#FFFFFF" width="5.814" height="55.049"/>
		<rect x="845.646" y="445.532" fill="#FFFFFF" width="5.814" height="55.049"/>
		<rect x="845.646" y="445.532" fill="#FFFFFF" width="5.814" height="55.049"/>
		<rect x="856.979" y="445.532" fill="#FFFFFF" width="5.814" height="55.049"/>
		<rect x="856.979" y="445.532" fill="#FFFFFF" width="5.814" height="55.049"/>
		
			<rect x="868.312" y="445.532" transform="matrix(0.9931 0.1173 -0.1173 0.9931 61.4755 -98.8879)" fill="#FFFFFF" width="5.814" height="55.048"/>
		<rect x="879.645" y="445.532" fill="#FFFFFF" width="5.814" height="55.049"/>
		<rect x="879.645" y="445.532" fill="#FFFFFF" width="5.814" height="55.049"/>
		<rect x="890.979" y="445.532" fill="#FFFFFF" width="5.814" height="55.049"/>
		<line fill="none" stroke="#FFFFFF" stroke-miterlimit="10" x1="893.885" y1="457.782" x2="782.76" y2="457.782"/>
	</g>
	<line fill="none" stroke="#FFFFFF" stroke-miterlimit="10" x1="893.885" y1="487.532" x2="782.76" y2="487.532"/>
	<ellipse fill="none" stroke="#FFFFFF" stroke-miterlimit="10" cx="471.472" cy="511.05" rx="18.19" ry="4.986"/>
	<polygon fill="#FFFFFF" points="445,204.145 445,252.781 397.767,252.781 397.767,330.089 373,330.089 373,278.807 373,267.125 
		326.474,267.125 326.474,278.807 286.564,278.807 286.564,314.985 326.474,314.985 326.474,360.946 328.27,360.946 328.27,361.181 
		342.999,361.181 342.999,360.946 373,360.946 373,373.337 406.219,373.337 406.219,285.198 415.417,285.198 415.417,272.943 
		425,272.943 425,263.031 457.284,263.031 457.284,272.943 465.667,272.943 465.667,285.198 475.475,285.198 485.5,285.198 
		485.5,500.356 497.158,500.854 497.158,302.292 497.158,204.145 	"/>
	<rect x="449.333" y="210.646" fill="#09B4CF" width="43.333" height="5.5"/>
	<rect x="449.333" y="219.646" fill="#09B4CF" width="43.333" height="5.5"/>
	<rect x="449.333" y="228.646" fill="#09B4CF" width="43.333" height="5.5"/>
	<rect x="449.333" y="237.646" fill="#09B4CF" width="43.333" height="5.5"/>
	<rect x="449.333" y="246.646" fill="#09B4CF" width="43.333" height="5.5"/>
	<path fill="none" stroke="#FFFFFF" stroke-width="4.7366" stroke-miterlimit="10" d="M849.262,498.581"/>
	<path fill="#FFFFFF" d="M873.473,289.506"/>
	<path fill="#FFFFFF" d="M892.707,345.075"/>
	<g id="USINE">
		<polyline fill="none" stroke="#FFFFFF" stroke-width="4.7366" stroke-miterlimit="10" points="704.664,336.823 704.664,324.948 
			727.896,300.709 727.896,322.89 746.84,301.739 746.84,321.229 767.072,301.812 767.072,322.144 789.029,300.187 789.029,319.474 
			811.217,301.271 811.217,319.476 828.535,300.187 828.535,256.037 847.551,256.037 847.551,495.997 		"/>
		<rect x="819.611" y="357.747" fill="#FFFFFF" width="9.705" height="9.705"/>
		<rect x="798.574" y="357.747" fill="#FFFFFF" width="9.705" height="9.705"/>
		<rect x="777.535" y="357.747" fill="#FFFFFF" width="9.705" height="9.705"/>
		<rect x="414.813" y="293.33" fill="#FFFFFF" width="9.705" height="9.706"/>
		<rect x="431.663" y="293.33" fill="#FFFFFF" width="9.705" height="9.706"/>
		<rect x="448.514" y="293.33" fill="#FFFFFF" width="9.705" height="9.706"/>
		<rect x="465.146" y="293.564" fill="#FFFFFF" width="9.705" height="9.706"/>
	</g>
	<polyline fill="none" stroke="#FFFFFF" stroke-width="0.9737" stroke-miterlimit="10" points="622.479,188.293 631.096,194.795 
		636.666,185.218 	"/>
	<polyline fill="none" stroke="#FFFFFF" stroke-width="0.9737" stroke-miterlimit="10" points="640.031,195.878 645.072,199.681 
		648.33,194.079 	"/>
	
		<rect x="36.139" y="426.534" fill="#09B4CF" stroke="#FFFFFF" stroke-width="4.0638" stroke-miterlimit="10" width="56.351" height="73.047"/>
	<g>
		<rect x="24.102" y="445.532" fill="#FFFFFF" width="5.814" height="55.049"/>
		<rect x="33.231" y="445.532" fill="#FFFFFF" width="5.814" height="55.049"/>
		<rect x="44.564" y="445.532" fill="#FFFFFF" width="5.814" height="55.049"/>
		<rect x="44.564" y="445.532" fill="#FFFFFF" width="5.814" height="55.049"/>
		<rect x="55.897" y="445.532" fill="#FFFFFF" width="5.814" height="55.049"/>
		<rect x="55.897" y="445.532" fill="#FFFFFF" width="5.814" height="55.049"/>
		<rect x="67.23" y="445.532" fill="#FFFFFF" width="5.814" height="55.049"/>
		<rect x="67.23" y="445.532" fill="#FFFFFF" width="5.814" height="55.049"/>
		<rect x="78.563" y="445.532" fill="#FFFFFF" width="5.814" height="55.049"/>
		<rect x="78.563" y="445.532" fill="#FFFFFF" width="5.814" height="55.049"/>
		<rect x="89.896" y="445.532" fill="#FFFFFF" width="5.814" height="55.049"/>
		<rect x="89.896" y="445.532" fill="#FFFFFF" width="5.814" height="55.049"/>
		<rect x="101.229" y="445.532" fill="#FFFFFF" width="5.814" height="55.049"/>
		<rect x="101.229" y="445.532" fill="#FFFFFF" width="5.814" height="55.049"/>
		<line fill="none" stroke="#FFFFFF" stroke-miterlimit="10" x1="107.043" y1="457.782" x2="27.009" y2="457.782"/>
	</g>
	<line fill="none" stroke="#FFFFFF" stroke-miterlimit="10" x1="105.246" y1="487.532" x2="25.212" y2="487.532"/>
	<path fill="#FFFFFF" stroke="#09B4CF" stroke-width="1.2957" stroke-miterlimit="10" d="M148.73,452.562
		c-1.164-0.156-2.267,0.316-2.462,1.053l-4.446,16.76c-0.758-0.498-1.661-0.885-2.663-1.121c1.325-0.604,2.205-1.654,2.205-2.852
		v-7.705c0-1.871-2.138-3.389-4.776-3.389c-2.638,0-4.776,1.518-4.776,3.389v7.705c0,1.252,0.961,2.344,2.389,2.93
		c-1.056,0.289-1.993,0.742-2.749,1.32c-0.271-0.141-0.589-0.25-0.951-0.297c-1.164-0.156-2.267,0.316-2.462,1.053l-4.747,17.895
		c-0.196,0.738,0.589,1.461,1.754,1.617c1.164,0.156,2.266-0.316,2.462-1.055l1.974-7.439v1.744c0,0.455,0.09,0.893,0.245,1.313
		c-0.037,0.111-0.061,0.227-0.061,0.346v20.389c0,0.842,0.96,1.521,2.146,1.521s2.146-0.68,2.146-1.521v-17.248
		c0.883,0.266,1.855,0.414,2.877,0.414c1.093,0,2.127-0.174,3.06-0.477v15.672v1.088c0,0.842,0.961,1.521,2.146,1.521
		c1.185,0,2.146-0.68,2.146-1.521v-1.088v-19.301v-1.088c0-0.002-0.001-0.004-0.001-0.006c0-0.006,0.001-0.01,0.001-0.014v-9.975
		c0-0.363-0.053-0.717-0.152-1.059c0.851-0.082,1.553-0.49,1.706-1.064l4.747-17.895C150.68,453.44,149.894,452.716,148.73,452.562z
		"/>
	<circle fill="#09B4CF" cx="134.22" cy="462.104" r="0.678"/>
	<circle fill="#09B4CF" cx="139.042" cy="462.104" r="0.678"/>
	<polygon fill="#FFFFFF" points="605.873,303.2 605.873,246.646 663.494,246.646 663.494,337.349 698.666,337.349 703,324.647 
		705.666,337.349 647.666,372.817 662.666,372.817 663.494,499.991 640.803,499.991 640.801,303.2 	"/>
	<rect x="334.333" y="277.199" fill="#09B4CF" width="10.665" height="10.665"/>
	<rect x="355" y="277.199" fill="#09B4CF" width="10.665" height="10.665"/>
	<rect x="334.333" y="297.999" fill="#09B4CF" width="10.665" height="10.668"/>
	<rect x="355" y="297.999" fill="#09B4CF" width="10.665" height="10.668"/>
	<rect x="334.333" y="317.138" fill="#09B4CF" width="10.665" height="10.666"/>
	<rect x="355" y="317.138" fill="#09B4CF" width="10.665" height="10.666"/>
	<rect x="612.334" y="256.619" fill="#09B4CF" width="10.664" height="10.665"/>
	<rect x="628.996" y="256.619" fill="#09B4CF" width="10.664" height="10.665"/>
	<rect x="645.666" y="256.619" fill="#09B4CF" width="10.664" height="10.665"/>
	<rect x="612.332" y="275.952" fill="#09B4CF" width="10.664" height="10.665"/>
	<rect x="628.994" y="275.952" fill="#09B4CF" width="10.664" height="10.665"/>
	<rect x="645.664" y="275.952" fill="#09B4CF" width="10.664" height="10.665"/>
	<rect x="622.998" y="241.092" fill="#FFFFFF" width="25.332" height="7.107"/>
	<rect x="628" y="238.199" fill="#FFFFFF" width="16.18" height="4.334"/>
	<rect x="635.09" y="211.866" fill="#FFFFFF" width="1.576" height="26.333"/>
	<circle fill="#FFFFFF" cx="727.069" cy="185.864" r="31.521"/>
	<polygon fill="#09B4CF" stroke="#FFFFFF" stroke-width="4.0638" stroke-miterlimit="10" points="26.756,426.534 99,426.534 
		65.229,397.53 	"/>
	<polygon fill="#FFFFFF" points="124.889,251.145 124.889,269.941 106.333,269.941 106.333,263.899 103.667,263.899 
		103.667,260.447 95.359,260.447 95.359,269.941 84.378,269.941 84.378,357.2 81.794,357.167 76.947,329.966 80.629,329.966 
		80.629,326.511 76.332,326.511 75.951,324.372 79.093,324.372 79.093,320.724 75.3,320.724 74.764,317.716 57.354,317.716 
		56.784,320.724 52.868,320.724 52.868,324.372 56.093,324.372 55.689,326.511 50.948,326.511 50.948,329.966 55.035,329.966 
		51.232,350.062 46.62,324.181 49.671,324.181 49.671,320.724 46.004,320.724 45.624,318.587 48.135,318.587 48.135,314.938 
		44.974,314.938 43.944,309.159 26.533,309.159 25.439,314.938 21.91,314.938 21.91,318.587 24.749,318.587 24.344,320.724 
		19.989,320.724 19.989,324.181 23.69,324.181 17.602,356.353 0.618,356.597 0,381.54 17.167,381.569 62.878,381.569 
		62.878,366.571 64.117,366.571 88.989,403.757 88.989,289.863 124.889,288.862 124.889,321.47 157.333,321.47 157.333,251.145 	"/>
	<polygon fill="#FFFFFF" points="849.262,301.001 914.236,303.198 922.334,316.868 914.236,316.868 914.236,347.474 
		961.117,347.474 949.082,384.733 905.189,357.747 849.262,387.134 849.262,498.581 	"/>
	<path fill="#FFFFFF" stroke="#09B4CF" stroke-width="2" stroke-miterlimit="10" d="M672.998,440.899
		c0.678-2.014,1.051-4.168,1.051-6.408c0-11.074-8.977-20.051-20.049-20.051c-11.074,0-20.051,8.977-20.051,20.051
		c0,1.787,0.236,3.52,0.676,5.168c-3.496,1.775-5.896,5.395-5.896,9.584c0,5.637,4.34,10.25,9.859,10.705
		c2.027,5.059,6.729,8.76,12.355,9.35v44.604h3.914V469.2c5.424-0.844,9.887-4.596,11.748-9.609
		c0.881,0.258,1.811,0.402,2.775,0.402c5.463,0,9.893-4.43,9.893-9.893C679.273,445.915,676.67,442.345,672.998,440.899z"/>
	<path fill="#FFFFFF" stroke="#09B4CF" stroke-width="2" stroke-miterlimit="10" d="M947.457,438.915
		c0.678-2.014,1.051-4.168,1.051-6.408c0-11.074-8.977-20.051-20.049-20.051c-11.074,0-20.051,8.977-20.051,20.051
		c0,1.787,0.236,3.52,0.676,5.168c-3.496,1.775-5.896,5.395-5.896,9.584c0,5.637,4.34,10.25,9.859,10.705
		c2.027,5.059,6.729,8.76,12.355,9.35v44.604h3.914v-44.701c5.424-0.844,9.887-4.596,11.748-9.609
		c0.881,0.258,1.811,0.402,2.775,0.402c5.463,0,9.893-4.43,9.893-9.893C953.732,443.931,951.129,440.36,947.457,438.915z"/>
	<path fill="#09B4CF" stroke="#FFFFFF" stroke-miterlimit="10" d="M132.89,456.552c0,0,7.191,3.177,9.51,1.229
		c0,0-0.885-1.94-1.566-3.447c-1.356-3-7.977-2.494-9.621,1.505c0,0-0.592,3.179,0.598,5.587s1.023,0.679,1.023,0.679
		L132.89,456.552z"/>
	<line fill="none" stroke="#FFFFFF" stroke-width="2" stroke-miterlimit="10" x1="36.139" y1="419.46" x2="90.764" y2="419.46"/>
	
		<line fill="none" stroke="#FFFFFF" stroke-width="1.663" stroke-miterlimit="10" x1="44.564" y1="412.364" x2="82.333" y2="412.364"/>
	<line fill="none" stroke="#FFFFFF" stroke-width="1.663" stroke-miterlimit="10" x1="54.16" y1="406.2" x2="74.16" y2="406.2"/>
	
		<line fill="#FFFFFF" stroke="#09B4CF" stroke-width="2" stroke-miterlimit="10" x1="780.724" y1="548.667" x2="871.07" y2="548.667"/>
	<circle fill="#FFFFFF" cx="690.5" cy="167.167" r="3.167"/>
	<circle fill="#FFFFFF" cx="683.363" cy="161.637" r="2.098"/>
	<circle fill="#FFFFFF" cx="685.244" cy="186.413" r="3.167"/>
	<circle fill="#FFFFFF" cx="676.216" cy="186.303" r="2.098"/>
	<circle fill="#FFFFFF" cx="689.046" cy="202.045" r="3.167"/>
	<circle fill="#FFFFFF" cx="680.806" cy="205.735" r="2.098"/>
	<circle fill="#FFFFFF" cx="698.451" cy="216.904" r="3.167"/>
	<circle fill="#FFFFFF" cx="692.629" cy="223.805" r="2.098"/>
	<circle fill="#FFFFFF" cx="714.384" cy="225.655" r="3.167"/>
	<circle fill="#FFFFFF" cx="712.153" cy="234.404" r="2.098"/>
	<circle fill="#FFFFFF" cx="732.8" cy="226.52" r="3.167"/>
	<circle fill="#FFFFFF" cx="733.207" cy="235.54" r="2.098"/>
	<circle fill="#FFFFFF" cx="767.489" cy="191.01" r="3.167"/>
	<circle fill="#FFFFFF" cx="776.515" cy="190.781" r="2.098"/>
	<circle fill="#FFFFFF" cx="762.116" cy="209.145" r="3.167"/>
	<circle fill="#FFFFFF" cx="769.681" cy="214.073" r="2.098"/>
	<circle fill="#FFFFFF" cx="766.939" cy="171.317" r="3.167"/>
	<circle fill="#FFFFFF" cx="775.442" cy="168.282" r="2.098"/>
	<circle fill="#FFFFFF" cx="749.753" cy="221.753" r="3.167"/>
	<circle fill="#FFFFFF" cx="754.582" cy="229.382" r="2.098"/>
	<circle fill="#FFFFFF" cx="757.921" cy="157.302" r="3.167"/>
	<circle fill="#FFFFFF" cx="764.992" cy="151.688" r="2.098"/>
	<path fill="#FFFFFF" d="M743.119,150.38c-1.66,0.541-3.449-0.368-3.991-2.031c-0.54-1.665,0.37-3.45,2.032-3.992
		c1.662-0.541,3.451,0.368,3.992,2.03C745.692,148.053,744.783,149.84,743.119,150.38z"/>
	<circle fill="#FFFFFF" cx="745.191" cy="138.871" r="2.098"/>
	<circle fill="#FFFFFF" cx="722.994" cy="144.949" r="3.167"/>
	<circle fill="#FFFFFF" cx="722.817" cy="135.922" r="2.099"/>
	<circle fill="#FFFFFF" cx="702.868" cy="151.862" r="3.167"/>
	<path fill="#FFFFFF" d="M699.16,145.364c-0.254,1.131-1.377,1.842-2.508,1.589c-1.13-0.253-1.841-1.375-1.587-2.507
		c0.253-1.128,1.374-1.841,2.504-1.587C698.7,143.111,699.412,144.234,699.16,145.364z"/>
</g>
</svg>
