<?xml version="1.0" encoding="utf-8"?>
<!-- Generator: Adobe Illustrator 16.0.0, SVG Export Plug-In . SVG Version: 6.00 Build 0)  -->
<!DOCTYPE svg PUBLIC "-//W3C//DTD SVG 1.1//EN" "http://www.w3.org/Graphics/SVG/1.1/DTD/svg11.dtd">
<svg version="1.1" id="Layer_1" xmlns="http://www.w3.org/2000/svg" xmlns:xlink="http://www.w3.org/1999/xlink" x="0px" y="0px"
	 width="149.426px" height="65.317px" viewBox="0 0 149.426 65.317" enable-background="new 0 0 149.426 65.317"
	 xml:space="preserve">
<g id="voiture">
	<path fill="#FFFFFF" stroke="#09B4CF" stroke-width="3" stroke-miterlimit="10" d="M4.549,52.812c0,0-3.5-1.75-3-4.5
		s0.951-3.25,0.976-8.75s3.002-7.75,3.263-9.5s5.761-12.25,17.011-21c0,0-6.75-3,2.5-3.75c0,0,34.25-7.25,63.75-1.75
		c0,0,23,10.25,29.25,17.25c0,0,27.252,1.75,28.125,15.75v4.549v9.701c0,0,3.379,1.5,0,4.5h-11.125c0,0,1-18.5-15.5-18.5
		s-12.75,18.5-12.75,18.5h-74c0,0,1.25-19-15.25-18.25S4.549,52.812,4.549,52.812z"/>
	
		<ellipse fill="#09B4CF" stroke="#FFFFFF" stroke-width="3.9893" stroke-miterlimit="10" cx="17.748" cy="51.419" rx="11.697" ry="11.904"/>
	
		<ellipse fill="#09B4CF" stroke="#FFFFFF" stroke-width="3.9893" stroke-miterlimit="10" cx="120.78" cy="51.419" rx="11.696" ry="11.904"/>
	<g>
		<path fill="#09B4CF" stroke="#FFFFFF" stroke-width="3" stroke-miterlimit="10" d="M36.049,7.394c-4.333,1-11.5,11.334-12,11.834
			l41.653,2.49L64.179,4.794C52.33,5.097,38.763,6.769,36.049,7.394z"/>
		<path fill="#09B4CF" stroke="#FFFFFF" stroke-width="3" stroke-miterlimit="10" d="M80.883,6.228
			c-3.177-1.307-9.635-1.613-16.704-1.434l1.523,16.924l42.013,2.51C107.715,20.062,89.383,9.728,80.883,6.228z"/>
	</g>
	<path fill="#09B4CF" stroke="#FFFFFF" stroke-width="3" stroke-miterlimit="10" d="M105.383,21.396c0,1.564-1.27,2.832-2.834,2.832
		h-5.666c-1.564,0-2.834-1.268-2.834-2.832l0,0c0-1.564,1.27-2.834,2.834-2.834h5.666C104.113,18.562,105.383,19.831,105.383,21.396
		L105.383,21.396z"/>
	<path fill="#09B4CF" d="M129.049,28.405c0,0,5.666,11.99,8.666,9.656C140.715,35.729,138.383,31.083,129.049,28.405z"/>
</g>
</svg>
