<?xml version="1.0" encoding="utf-8"?>
<!-- Generator: Adobe Illustrator 16.0.0, SVG Export Plug-In . SVG Version: 6.00 Build 0)  -->
<!DOCTYPE svg PUBLIC "-//W3C//DTD SVG 1.1//EN" "http://www.w3.org/Graphics/SVG/1.1/DTD/svg11.dtd">
<svg version="1.1" id="Layer_1" xmlns="http://www.w3.org/2000/svg" xmlns:xlink="http://www.w3.org/1999/xlink" x="0px" y="0px"
	 width="149.426px" height="65.318px" viewBox="0 0 149.426 65.318" enable-background="new 0 0 149.426 65.318"
	 xml:space="preserve">
<g id="voiture">
	<path fill="#FFFFFF" stroke="#09B4CF" stroke-width="3" stroke-miterlimit="10" d="M144.877,52.811c0,0,3.5-1.75,3-4.5
		s-0.951-3.25-0.976-8.75s-3.002-7.75-3.263-9.5c-0.262-1.75-5.762-12.25-17.012-21c0,0,6.75-3-2.5-3.75c0,0-34.25-7.25-63.75-1.75
		c0,0-23,10.25-29.25,17.25c0,0-27.252,1.75-28.125,15.75v4.549v9.701c0,0-3.379,1.5,0,4.5h11.125c0,0-1-18.5,15.5-18.5
		s12.75,18.5,12.75,18.5h74c0,0-1.25-19,15.25-18.25S144.877,52.811,144.877,52.811z"/>
	
		<ellipse fill="#09B4CF" stroke="#FFFFFF" stroke-width="3.9893" stroke-miterlimit="10" cx="131.678" cy="51.418" rx="11.697" ry="11.904"/>
	
		<ellipse fill="#09B4CF" stroke="#FFFFFF" stroke-width="3.9893" stroke-miterlimit="10" cx="28.646" cy="51.418" rx="11.696" ry="11.904"/>
	<g>
		<path fill="#09B4CF" stroke="#FFFFFF" stroke-width="3" stroke-miterlimit="10" d="M113.377,7.393c4.332,1,11.5,11.334,12,11.834
			l-41.652,2.49l1.522-16.924C97.096,5.096,110.662,6.768,113.377,7.393z"/>
		<path fill="#09B4CF" stroke="#FFFFFF" stroke-width="3" stroke-miterlimit="10" d="M68.543,6.227
			c3.177-1.307,9.635-1.613,16.704-1.434l-1.522,16.924l-42.014,2.51C41.711,20.061,60.043,9.727,68.543,6.227z"/>
	</g>
	<path fill="#09B4CF" stroke="#FFFFFF" stroke-width="3" stroke-miterlimit="10" d="M44.043,21.395c0,1.564,1.27,2.832,2.834,2.832
		h5.666c1.564,0,2.834-1.268,2.834-2.832l0,0c0-1.564-1.27-2.834-2.834-2.834h-5.666C45.313,18.561,44.043,19.831,44.043,21.395
		L44.043,21.395z"/>
	<path fill="#09B4CF" d="M20.377,28.405c0,0-5.666,11.99-8.666,9.656C8.711,35.729,11.043,31.083,20.377,28.405z"/>
</g>
</svg>
