<?xml version="1.0" encoding="utf-8"?>
<!-- Generator: Adobe Illustrator 16.0.0, SVG Export Plug-In . SVG Version: 6.00 Build 0)  -->
<!DOCTYPE svg PUBLIC "-//W3C//DTD SVG 1.1//EN" "http://www.w3.org/Graphics/SVG/1.1/DTD/svg11.dtd">
<svg version="1.1" id="Calque_1" xmlns="http://www.w3.org/2000/svg" xmlns:xlink="http://www.w3.org/1999/xlink" x="0px" y="0px"
	 width="110px" height="25px" viewBox="0 0 110 25" enable-background="new 0 0 110 25" xml:space="preserve">
<g>
	<g>
		<path fill="#FFFFFF" d="M107.803,19.09c0,2.339-2.054,4.233-4.588,4.233H6.519c-2.535,0-4.59-1.895-4.59-4.233V5.557
			c0-2.337,2.055-4.232,4.59-4.232h96.696c2.534,0,4.588,1.896,4.588,4.232V19.09z"/>
	</g>
	<g>
		<path fill="#13B5D0" d="M18.012,13.299c0-1.96,1.401-3.543,3.334-3.543c2.045,0,3.25,1.597,3.25,3.627v0.266h-5.463
			c0.084,1.275,0.966,2.34,2.423,2.34c0.784,0,1.555-0.309,2.102-0.868l0.504,0.686c-0.687,0.673-1.597,1.051-2.689,1.051
			C19.456,16.856,18.012,15.414,18.012,13.299z M21.333,10.624c-1.443,0-2.157,1.219-2.214,2.241h4.44
			C23.545,11.871,22.873,10.624,21.333,10.624z"/>
		<path fill="#13B5D0" d="M30.167,16.688v-4.426c0-1.204-0.616-1.568-1.526-1.568c-0.827,0-1.597,0.504-2.003,1.051v4.944h-1.051
			V9.923h1.051v0.98c0.476-0.574,1.4-1.148,2.423-1.148c1.4,0,2.144,0.714,2.144,2.185v4.749H30.167z"/>
		<path fill="#13B5D0" d="M34.966,15.792l0.532-0.757c0.448,0.519,1.303,0.967,2.227,0.967c1.037,0,1.611-0.49,1.611-1.162
			c0-1.64-4.188-0.631-4.188-3.137c0-1.064,0.896-1.947,2.508-1.947c1.162,0,1.975,0.434,2.507,0.98l-0.49,0.729
			c-0.406-0.49-1.135-0.854-2.017-0.854c-0.925,0-1.499,0.462-1.499,1.064c0,1.47,4.188,0.504,4.188,3.137
			c0,1.135-0.911,2.045-2.647,2.045C36.577,16.856,35.653,16.507,34.966,15.792z"/>
		<path fill="#13B5D0" d="M45.581,16.688v-0.771c-0.547,0.616-1.331,0.938-2.241,0.938c-1.135,0-2.354-0.771-2.354-2.241
			c0-1.526,1.204-2.227,2.354-2.227c0.924,0,1.694,0.295,2.241,0.911v-1.218c0-0.896-0.729-1.415-1.709-1.415
			c-0.812,0-1.471,0.28-2.073,0.938l-0.49-0.729c0.729-0.756,1.597-1.12,2.703-1.12c1.443,0,2.619,0.645,2.619,2.283v4.65H45.581z
			 M45.581,15.26v-1.289c-0.406-0.546-1.121-0.826-1.85-0.826c-0.994,0-1.681,0.616-1.681,1.471c0,0.868,0.687,1.485,1.681,1.485
			C44.459,16.101,45.174,15.82,45.581,15.26z"/>
		<path fill="#13B5D0" d="M49.849,16.688l-2.815-6.765h1.148l2.241,5.546l2.256-5.546h1.134l-2.815,6.765H49.849z"/>
		<path fill="#13B5D0" d="M53.809,13.299c0-1.96,1.289-3.543,3.347-3.543c2.06,0,3.348,1.583,3.348,3.543
			c0,1.961-1.288,3.558-3.348,3.558C55.098,16.856,53.809,15.26,53.809,13.299z M59.397,13.299c0-1.373-0.798-2.605-2.241-2.605
			c-1.442,0-2.241,1.232-2.241,2.605c0,1.387,0.799,2.619,2.241,2.619C58.6,15.918,59.397,14.686,59.397,13.299z"/>
		<path fill="#13B5D0" d="M61.327,8.256c0-0.393,0.322-0.714,0.715-0.714c0.392,0,0.7,0.321,0.7,0.714s-0.309,0.7-0.7,0.7
			C61.649,8.957,61.327,8.649,61.327,8.256z M61.51,16.688V9.923h1.051v6.765H61.51z"/>
		<path fill="#13B5D0" d="M63.959,16.688V9.923h1.051v1.078c0.546-0.7,1.33-1.232,2.255-1.232v1.079
			c-0.126-0.015-0.252-0.028-0.406-0.028c-0.658,0-1.541,0.532-1.849,1.078v4.791H63.959z"/>
		<path fill="#13B5D0" d="M71.855,15.666v3.6h-1.051V9.923h1.051v1.009c0.49-0.687,1.33-1.177,2.283-1.177
			c1.778,0,3.011,1.345,3.011,3.543c0,2.185-1.232,3.558-3.011,3.558C73.214,16.856,72.415,16.408,71.855,15.666z M76.043,13.299
			c0-1.499-0.812-2.605-2.171-2.605c-0.826,0-1.652,0.49-2.017,1.078v3.053c0.364,0.589,1.19,1.093,2.017,1.093
			C75.23,15.918,76.043,14.798,76.043,13.299z"/>
		<path fill="#13B5D0" d="M78.113,16.688V7.346h1.051v9.342H78.113z"/>
		<path fill="#13B5D0" d="M85.129,16.688v-0.952c-0.519,0.588-1.401,1.12-2.409,1.12c-1.415,0-2.157-0.7-2.157-2.157V9.923h1.051
			v4.454c0,1.19,0.602,1.541,1.526,1.541c0.812,0,1.597-0.477,1.989-1.022V9.923h1.051v6.765H85.129z"/>
		<path fill="#13B5D0" d="M87.002,15.792l0.532-0.757c0.448,0.519,1.303,0.967,2.227,0.967c1.037,0,1.611-0.49,1.611-1.162
			c0-1.64-4.188-0.631-4.188-3.137c0-1.064,0.896-1.947,2.508-1.947c1.162,0,1.975,0.434,2.507,0.98l-0.49,0.729
			c-0.406-0.49-1.135-0.854-2.017-0.854c-0.925,0-1.499,0.462-1.499,1.064c0,1.47,4.188,0.504,4.188,3.137
			c0,1.135-0.911,2.045-2.647,2.045C88.612,16.856,87.688,16.507,87.002,15.792z"/>
	</g>
</g>
</svg>
