<?xml version="1.0" encoding="utf-8"?>
<!-- Generator: Adobe Illustrator 16.0.0, SVG Export Plug-In . SVG Version: 6.00 Build 0)  -->
<!DOCTYPE svg PUBLIC "-//W3C//DTD SVG 1.1//EN" "http://www.w3.org/Graphics/SVG/1.1/DTD/svg11.dtd">
<svg version="1.1" id="Calque_1" xmlns="http://www.w3.org/2000/svg" xmlns:xlink="http://www.w3.org/1999/xlink" x="0px" y="0px"
	 width="50px" height="30px" viewBox="0 0 50 30" enable-background="new 0 0 50 30" xml:space="preserve">
<g>
	<path fill="#FFFFFF" d="M6.787,13.253V3.91h1.162v9.343H6.787z"/>
	<path fill="#FFFFFF" d="M16.044,13.253l-5.449-7.452v7.452H9.433V3.91h1.19l5.379,7.298V3.91h1.163v9.343H16.044z"/>
	<path fill="#FFFFFF" d="M18.645,13.253V3.91h3.193c2.914,0,4.791,2.031,4.791,4.679c0,2.661-1.877,4.664-4.791,4.664H18.645z
		 M25.424,8.589c0-2.018-1.273-3.643-3.586-3.643h-2.031v7.271h2.031C24.107,12.217,25.424,10.592,25.424,8.589z"/>
	<path fill="#FFFFFF" d="M27.745,13.253V3.91h1.162v9.343H27.745z"/>
	<path fill="#FFFFFF" d="M30.013,8.589c0-2.872,2.114-4.833,4.805-4.833c1.652,0,2.802,0.784,3.544,1.849l-0.967,0.547
		c-0.531-0.799-1.513-1.359-2.577-1.359c-2.046,0-3.601,1.556-3.601,3.797c0,2.213,1.555,3.796,3.601,3.796
		c1.064,0,2.046-0.574,2.577-1.358l0.98,0.531c-0.784,1.079-1.905,1.863-3.559,1.863C32.127,13.421,30.013,11.46,30.013,8.589z"/>
	<path fill="#FFFFFF" d="M39.155,13.253V3.91h6.121v1.036h-4.959v3.012h4.86v1.037h-4.86v3.222h4.959v1.036H39.155z"/>
	<path fill="#FFFFFF" d="M13.599,28.253l-0.63-1.695H8.68l-0.631,1.695H5.635l3.854-10.005h2.67l3.854,10.005H13.599z
		 M10.824,20.378l-1.561,4.305h3.119L10.824,20.378z"/>
	<path fill="#FFFFFF" d="M17.544,28.253v-8.13h-2.925v-1.875h7.979v1.875h-2.909v8.13H17.544z"/>
	<path fill="#FFFFFF" d="M31.913,28.253v-7.215l-2.819,7.215h-0.931l-2.819-7.215v7.215h-2.13V18.248h2.984l2.43,6.255l2.431-6.255
		h3v10.005H31.913z"/>
	<path fill="#FFFFFF" d="M34.809,23.258c0-3.015,2.205-5.175,5.235-5.175c3.015,0,5.22,2.16,5.22,5.175
		c0,3.017-2.205,5.175-5.22,5.175C37.014,28.433,34.809,26.273,34.809,23.258z M43.073,23.258c0-1.875-1.186-3.284-3.029-3.284
		c-1.86,0-3.045,1.409-3.045,3.284c0,1.86,1.185,3.285,3.045,3.285C41.889,26.543,43.073,25.118,43.073,23.258z"/>
</g>
</svg>
