<?xml version="1.0" encoding="utf-8"?>
<!-- Generator: Adobe Illustrator 16.0.0, SVG Export Plug-In . SVG Version: 6.00 Build 0)  -->
<!DOCTYPE svg PUBLIC "-//W3C//DTD SVG 1.1//EN" "http://www.w3.org/Graphics/SVG/1.1/DTD/svg11.dtd">
<svg version="1.1" id="Calque_1" xmlns="http://www.w3.org/2000/svg" xmlns:xlink="http://www.w3.org/1999/xlink" x="0px" y="0px"
	 width="120px" height="65px" viewBox="0 0 120 65" enable-background="new 0 0 120 65" xml:space="preserve">
<g>
	<path fill="#FFFFFF" d="M117.979,33.426L86.233,4.367c0,0-0.788-0.949-3.474-0.635c-2.686,0.316-33.325,3.949-33.325,3.949
		s-4.422,1.896-2.842,6.002c1.579,4.105,20.53,48.01,20.53,48.01s0.316,2.053,4.265,0.951c3.948-1.107,45.642-15.795,45.642-15.795
		s1.816-1.342,0.315-2.84c-1.499-1.502-2.997-3.002-2.997-3.002v5.211L70.124,61.693c0,0-1.974,0.791-1.974-1.973
		s-0.554-5.922,1.344-6.711c1.894-0.791,48.01-16.268,48.01-16.268S120.204,35.463,117.979,33.426z"/>
	<path fill="#FFFFFF" d="M2.291,39.17l17.796-16.291c0,0,0.442-0.531,1.948-0.355c1.505,0.178,18.681,2.215,18.681,2.215
		s2.479,1.062,1.593,3.363C41.425,30.404,30.8,55.016,30.8,55.016s-0.177,1.152-2.39,0.533c-2.214-0.619-25.586-8.854-25.586-8.854
		s-1.018-0.752-0.177-1.592c0.841-0.844,1.68-1.684,1.68-1.684v2.922l24.792,8.674c0,0,1.107,0.445,1.107-1.107
		c0-1.549,0.31-3.316-0.754-3.76c-1.062-0.445-26.914-9.121-26.914-9.121S1.044,40.311,2.291,39.17z"/>
</g>
</svg>
