<?xml version="1.0" encoding="utf-8"?>
<!-- Generator: Adobe Illustrator 16.0.0, SVG Export Plug-In . SVG Version: 6.00 Build 0)  -->
<!DOCTYPE svg PUBLIC "-//W3C//DTD SVG 1.1//EN" "http://www.w3.org/Graphics/SVG/1.1/DTD/svg11.dtd">
<svg version="1.1" id="Calque_1" xmlns="http://www.w3.org/2000/svg" xmlns:xlink="http://www.w3.org/1999/xlink" x="0px" y="0px"
	 width="125px" height="35px" viewBox="0 0 125 35" enable-background="new 0 0 125 35" xml:space="preserve">
<g>
	<path fill="#FFFFFF" d="M44.165,25.225l-1.193-3.141H35.52l-1.193,3.141h-3.239l6.38-16.243h3.556l6.38,16.243H44.165z
		 M39.246,11.831l-2.922,7.746h5.845L39.246,11.831z"/>
	<path fill="#FFFFFF" d="M47.158,19.332c0-3.556,2.508-6.162,6.064-6.162c2.313,0,3.677,0.974,4.505,2.095l-1.681,1.534
		c-0.657-0.926-1.559-1.364-2.703-1.364c-2.119,0-3.555,1.607-3.555,3.897c0,2.289,1.437,3.92,3.555,3.92
		c1.145,0,2.046-0.486,2.703-1.412l1.681,1.584c-0.828,1.096-2.192,2.094-4.505,2.094C49.667,25.518,47.158,22.887,47.158,19.332z"
		/>
	<path fill="#FFFFFF" d="M59.309,22.473v-6.793h-1.948v-2.217h1.948v-3.215h2.557v3.215h2.386v2.217h-2.386v6.161
		c0,0.805,0.39,1.412,1.12,1.412c0.486,0,0.925-0.219,1.12-0.438l0.608,1.947c-0.463,0.414-1.218,0.756-2.386,0.756
		C60.332,25.518,59.309,24.445,59.309,22.473z"/>
	<path fill="#FFFFFF" d="M65.03,10.443c0-0.877,0.706-1.583,1.583-1.583s1.583,0.706,1.583,1.583s-0.706,1.583-1.583,1.583
		S65.03,11.32,65.03,10.443z M65.323,25.225V13.462h2.557v11.762H65.323z"/>
	<path fill="#FFFFFF" d="M69.268,19.332c0-3.385,2.289-6.162,6.039-6.162c3.751,0,6.04,2.776,6.04,6.162
		c0,3.361-2.289,6.186-6.04,6.186C71.557,25.518,69.268,22.693,69.268,19.332z M78.692,19.332c0-2.071-1.193-3.897-3.386-3.897
		c-2.167,0-3.385,1.826-3.385,3.897c0,2.094,1.218,3.92,3.385,3.92C77.499,23.252,78.692,21.426,78.692,19.332z"/>
	<path fill="#FFFFFF" d="M90.696,25.225v-7.354c0-1.851-0.949-2.436-2.387-2.436c-1.29,0-2.411,0.779-3.02,1.559v8.231h-2.557
		V13.462h2.557v1.583c0.779-0.925,2.313-1.875,4.164-1.875c2.533,0,3.8,1.363,3.8,3.774v8.28H90.696z"/>
</g>
<g>
	<path fill="#FFFFFF" d="M123.731,33.864H0.999V1.406h122.733V33.864z M1.499,33.364h121.733V1.906H1.499V33.364z"/>
</g>
</svg>
