<?xml version="1.0" encoding="utf-8"?>
<!-- Generator: Adobe Illustrator 16.0.0, SVG Export Plug-In . SVG Version: 6.00 Build 0)  -->
<!DOCTYPE svg PUBLIC "-//W3C//DTD SVG 1.1//EN" "http://www.w3.org/Graphics/SVG/1.1/DTD/svg11.dtd">
<svg version="1.1" id="Calque_1" xmlns="http://www.w3.org/2000/svg" xmlns:xlink="http://www.w3.org/1999/xlink" x="0px" y="0px"
	 width="125px" height="35px" viewBox="0 0 125 35" enable-background="new 0 0 125 35" xml:space="preserve">
<g>
	<path fill="#FFFFFF" d="M11.358,25.225V8.982h7.16c3.41,0,5.285,2.313,5.285,5.09c0,2.752-1.899,5.065-5.285,5.065h-4.311v6.088
		H11.358z M20.88,14.072c0-1.559-1.145-2.582-2.752-2.582h-3.921v5.139h3.921C19.735,16.628,20.88,15.606,20.88,14.072z"/>
	<path fill="#FFFFFF" d="M24.896,25.225V13.462h2.557v1.705c0.901-1.12,2.314-1.997,3.824-1.997v2.532
		c-0.219-0.048-0.463-0.072-0.779-0.072c-1.096,0-2.533,0.73-3.044,1.583v8.011H24.896z"/>
	<path fill="#FFFFFF" d="M31.422,19.332c0-3.41,2.484-6.162,5.967-6.162c3.531,0,5.771,2.679,5.771,6.38v0.633h-9.06
		c0.195,1.754,1.51,3.24,3.726,3.24c1.169,0,2.508-0.463,3.361-1.316l1.169,1.682c-1.193,1.119-2.922,1.729-4.773,1.729
		C34.028,25.518,31.422,23.059,31.422,19.332z M37.364,15.265c-2.167,0-3.19,1.68-3.288,3.092H40.7
		C40.627,16.969,39.678,15.265,37.364,15.265z M37.413,11.685h-1.826l3.409-3.507h2.436L37.413,11.685z"/>
	<path fill="#FFFFFF" d="M47.566,25.225l-4.798-11.762h2.752l3.434,8.817l3.434-8.817h2.728l-4.797,11.762H47.566z"/>
	<path fill="#FFFFFF" d="M54.797,19.332c0-3.41,2.484-6.162,5.966-6.162c3.531,0,5.771,2.679,5.771,6.38v0.633h-9.059
		c0.195,1.754,1.51,3.24,3.726,3.24c1.169,0,2.509-0.463,3.36-1.316l1.17,1.682c-1.193,1.119-2.923,1.729-4.773,1.729
		C57.403,25.518,54.797,23.059,54.797,19.332z M60.74,15.265c-2.167,0-3.19,1.68-3.288,3.092h6.624
		C64.003,16.969,63.053,15.265,60.74,15.265z"/>
	<path fill="#FFFFFF" d="M75.812,25.225v-7.354c0-1.851-0.949-2.436-2.387-2.436c-1.29,0-2.41,0.779-3.02,1.559v8.231H67.85V13.462
		h2.557v1.583c0.779-0.925,2.313-1.875,4.164-1.875c2.533,0,3.8,1.363,3.8,3.774v8.28H75.812z"/>
	<path fill="#FFFFFF" d="M80.998,22.473v-6.793h-1.947v-2.217h1.947v-3.215h2.558v3.215h2.386v2.217h-2.386v6.161
		c0,0.805,0.39,1.412,1.12,1.412c0.486,0,0.926-0.219,1.12-0.438l0.608,1.947c-0.463,0.414-1.217,0.756-2.387,0.756
		C82.021,25.518,80.998,24.445,80.998,22.473z"/>
	<path fill="#FFFFFF" d="M86.721,10.443c0-0.877,0.705-1.583,1.582-1.583s1.584,0.706,1.584,1.583s-0.707,1.583-1.584,1.583
		S86.721,11.32,86.721,10.443z M87.013,25.225V13.462h2.557v11.762H87.013z"/>
	<path fill="#FFFFFF" d="M90.957,19.332c0-3.385,2.289-6.162,6.039-6.162c3.751,0,6.04,2.776,6.04,6.162
		c0,3.361-2.289,6.186-6.04,6.186C93.246,25.518,90.957,22.693,90.957,19.332z M100.382,19.332c0-2.071-1.193-3.897-3.386-3.897
		c-2.167,0-3.385,1.826-3.385,3.897c0,2.094,1.218,3.92,3.385,3.92C99.188,23.252,100.382,21.426,100.382,19.332z"/>
	<path fill="#FFFFFF" d="M112.387,25.225v-7.354c0-1.851-0.95-2.436-2.387-2.436c-1.291,0-2.412,0.779-3.021,1.559v8.231h-2.557
		V13.462h2.557v1.583c0.779-0.925,2.313-1.875,4.165-1.875c2.532,0,3.799,1.363,3.799,3.774v8.28H112.387z"/>
</g>
<g>
	<path fill="#FFFFFF" d="M123.871,33.864H1.139V1.406h122.732V33.864z M1.639,33.364h121.732V1.906H1.639V33.364z"/>
</g>
</svg>
