<?xml version="1.0" encoding="utf-8"?>
<!-- Generator: Adobe Illustrator 16.0.0, SVG Export Plug-In . SVG Version: 6.00 Build 0)  -->
<!DOCTYPE svg PUBLIC "-//W3C//DTD SVG 1.1//EN" "http://www.w3.org/Graphics/SVG/1.1/DTD/svg11.dtd">
<svg version="1.1" id="Calque_1" xmlns="http://www.w3.org/2000/svg" xmlns:xlink="http://www.w3.org/1999/xlink" x="0px" y="0px"
	 width="90px" height="80px" viewBox="0 0 90 80" enable-background="new 0 0 90 80" xml:space="preserve">
<path fill="#FFFFFF" d="M88.639,75.183c-14.111-24.44-28.222-48.88-42.332-73.32c-0.589-1.022-2.13-1.022-2.72,0
	c-14.11,24.44-28.221,48.879-42.331,73.32c-0.333,0.576-0.262,1.13,0.014,1.558c0.227,0.464,0.672,0.812,1.346,0.812
	c28.221,0,56.442,0,84.663,0C88.478,77.553,89.235,76.216,88.639,75.183z M84.55,74.402c-26.402,0-52.804,0-79.206,0
	C18.545,51.537,31.746,28.673,44.947,5.809C58.147,28.673,71.349,51.537,84.55,74.402z"/>
<path fill="#FFFFFF" d="M44.947,15.472l-31.176,54h62.351L44.947,15.472z M48.355,32.712l-0.902,20.279h-5.059l-0.948-20.279H48.355
	z M44.924,63.29c-1.987,0-3.613-1.67-3.613-3.613c0-1.988,1.626-3.658,3.613-3.658c1.987,0,3.658,1.67,3.658,3.658
	C48.582,61.62,46.911,63.29,44.924,63.29z"/>
</svg>
