<?xml version="1.0" encoding="utf-8"?>
<!-- Generator: Adobe Illustrator 16.0.0, SVG Export Plug-In . SVG Version: 6.00 Build 0)  -->
<!DOCTYPE svg PUBLIC "-//W3C//DTD SVG 1.1//EN" "http://www.w3.org/Graphics/SVG/1.1/DTD/svg11.dtd">
<svg version="1.1" id="Layer_1" xmlns="http://www.w3.org/2000/svg" xmlns:xlink="http://www.w3.org/1999/xlink" x="0px" y="0px"
	 width="122.733px" height="140.928px" viewBox="225.022 -40.373 122.733 140.928"
	 enable-background="new 225.022 -40.373 122.733 140.928" xml:space="preserve">
<g>
	<path fill="#FFFFFF" d="M314.269-8.627c-1.203,0.03-2.339,0.477-3.369,1.245c-5.006-19.454-19.884-33.42-37.111-32.982
		c-17.494,0.443-31.826,15.599-35.574,35.747c-1.357-1.281-2.904-2.005-4.535-1.963c-5,0.127-8.871,7.273-8.648,15.963
		c0.219,8.689,4.447,15.632,9.445,15.506c1.906-0.049,3.646-1.123,5.063-2.913c5.432,18.527,19.925,31.64,36.619,31.214
		c16.392-0.416,29.998-13.74,34.741-31.983c1.265,1.074,2.681,1.674,4.168,1.636c4.995-0.128,8.867-7.275,8.646-15.965
		C323.495-1.812,319.267-8.754,314.269-8.627z"/>
	<polygon fill="none" stroke="#FFFFFF" stroke-width="2.8965" stroke-miterlimit="10" points="273.365,72.262 253.273,44.692 
		237.779,56.371 251.909,97.568 	"/>
	<polygon fill="none" stroke="#FFFFFF" stroke-width="2.8965" stroke-miterlimit="10" points="273.365,72.262 292.27,49.543 
		305.922,58.962 296.029,97.568 	"/>
	<path fill="none" stroke="#00B4CC" stroke-width="1.2032" stroke-miterlimit="10" d="M314.567,1.149c0,0,5.021,6.729,0,13.845"/>
	<path fill="none" stroke="#00B4CC" stroke-width="1.2032" stroke-miterlimit="10" d="M315.682,7.45
		c1.628,0.501-3.764-1.689-4.763,3.337"/>
	<path fill="none" stroke="#00B4CC" stroke-width="1.2032" stroke-miterlimit="10" d="M232.38,0.469c0,0-5.021,6.728,0,13.845"/>
	<path fill="none" stroke="#00B4CC" stroke-width="1.2032" stroke-miterlimit="10" d="M231.265,6.769
		c-1.629,0.499,3.765-1.689,4.764,3.337"/>
	<path fill="none" stroke="#00B4CC" stroke-width="1.1249" stroke-miterlimit="10" d="M251.198-13.52c0,0,2.079-3.881,6.218-3.881
		c4.144,0,5.273,4.098,5.273,4.098"/>
	<path fill="none" stroke="#00B4CC" stroke-width="1.1249" stroke-miterlimit="10" d="M286.488-13.52c0,0,2.075-3.881,6.22-3.881
		c4.143,0,5.271,4.098,5.271,4.098"/>
	<path fill="none" stroke="#00B4CC" stroke-width="1.2032" stroke-miterlimit="10" d="M249.538,2.983c0,0,2.379-3.883,7.117-3.883
		c4.739,0,6.033,4.099,6.033,4.099"/>
	<path fill="none" stroke="#00B4CC" stroke-width="1.2032" stroke-miterlimit="10" d="M285.658,3.261c0,0,2.378-3.885,7.116-3.885
		s6.035,4.098,6.035,4.098"/>
	<path fill="#00B4CC" d="M259.162,6.318c0,1.383-1.121,2.504-2.507,2.504c-1.381,0-2.504-1.121-2.504-2.504
		c0-1.387,1.123-2.51,2.504-2.51C258.041,3.808,259.162,4.931,259.162,6.318z"/>
	<circle fill="#00B4CC" cx="292.234" cy="7.052" r="2.507"/>
	<path fill="#00B4CC" d="M264.101,36.01l20.856-0.346C284.957,35.665,275.236,57.125,264.101,36.01z"/>
	<circle fill="none" stroke="#00B4CC" stroke-width="2.4065" stroke-miterlimit="10" cx="256.656" cy="4.017" r="13.207"/>
	<circle fill="none" stroke="#00B4CC" stroke-width="2.4065" stroke-miterlimit="10" cx="292.241" cy="4.017" r="13.208"/>
	
		<line fill="none" stroke="#00B4CC" stroke-width="2.4065" stroke-miterlimit="10" x1="269.863" y1="4.017" x2="279.032" y2="4.017"/>
	<path fill="none" stroke="#00B4CC" stroke-width="1.2032" stroke-miterlimit="10" d="M266.382,23.517c0,0,2.22,3.604,3.48,1.801
		c0,0,4.338,3.115,7.645-0.097c0,0,2.406,1.453,4.021-1.704"/>
	<path fill="#FFFFFF" d="M269.365,40.91c0,0,6.24-3.025,9.912,0.676c0,0-1.54,2.152-4.592,2.215
		C270.394,43.888,269.365,40.91,269.365,40.91z"/>
	<path fill="#00B4CC" d="M287.8,4.548"/>
	<path fill="#FFFFFF" stroke="#00B4CC" stroke-width="1.1793" stroke-miterlimit="10" d="M344.058,78.224
		c-2.388,7.829-10.111,12.411-17.246,10.232l-1.854-0.564c-7.138-2.176-10.986-10.29-8.598-18.119l0.451-1.479
		c2.388-7.827,10.111-12.408,17.247-10.232l1.854,0.564c7.137,2.179,10.985,10.291,8.598,18.121L344.058,78.224z"/>
	<path fill="#FFFFFF" stroke="#00B4CC" stroke-width="1.2352" stroke-miterlimit="10" d="M326.49,67.947
		c-0.531,1.739-2.373,2.72-4.111,2.189l0,0c-1.741-0.531-2.721-2.372-2.188-4.11l7.044-23.087c0.53-1.74,2.37-2.722,4.11-2.189l0,0
		c1.739,0.529,2.721,2.371,2.189,4.11L326.49,67.947z"/>
	<path fill="#FFFFFF" stroke="#00B4CC" stroke-width="1.2352" stroke-miterlimit="10" d="M331.406,74.257
		c-0.598,1.958-2.492,3.113-4.232,2.581l0,0c-1.738-0.53-2.667-2.546-2.069-4.503l4.325-14.178c0.6-1.96,2.493-3.116,4.233-2.584
		l0,0c1.739,0.53,2.665,2.547,2.067,4.506L331.406,74.257z"/>
	<path fill="#FFFFFF" stroke="#00B4CC" stroke-width="1.2352" stroke-miterlimit="10" d="M343.708,75.133
		c-0.456,1.496-2.037,2.338-3.533,1.883l0,0c-1.495-0.457-2.338-2.039-1.881-3.535l3.305-10.831c0.456-1.497,2.039-2.34,3.534-1.883
		l0,0c1.495,0.457,2.338,2.037,1.881,3.535L343.708,75.133z"/>
	<path fill="#FFFFFF" stroke="#00B4CC" stroke-width="1.2352" stroke-miterlimit="10" d="M337.97,74.543
		c-0.473,1.545-2.214,2.387-3.892,1.875l0,0c-1.676-0.511-2.651-2.182-2.182-3.727l3.953-12.957
		c0.473-1.549,2.217-2.387,3.893-1.876l0,0c1.676,0.512,2.652,2.181,2.18,3.728L337.97,74.543z"/>
	<path fill="#FFFFFF" stroke="#00B4CC" stroke-width="1.2352" stroke-miterlimit="10" d="M329.865,68.013
		c-0.664,2.176-2.964,3.4-5.139,2.736l-6.758-2.063c-2.174-0.663-3.399-2.965-2.736-5.139l0,0c0.663-2.176,2.964-3.401,5.139-2.738
		l6.757,2.063C329.304,63.536,330.531,65.837,329.865,68.013L329.865,68.013z"/>
	<circle fill="#FFFFFF" cx="272.744" cy="72.803" r="7.394"/>
	<rect x="293.001" y="61.864" fill="#FFFFFF" width="1.96" height="19.19"/>
	<path fill="#FFFFFF" stroke="#00B4CC" stroke-width="1.2427" stroke-miterlimit="10" d="M286.677,74.34h10.008
		c0,0,1.966,9.311-5.535,8.416C284.986,82.02,286.677,74.34,286.677,74.34z"/>
	<rect x="295.48" y="62.818" fill="#FFFFFF" width="0.409" height="6.64"/>
	<rect x="293.22" y="61.19" fill="#FFFFFF" width="1.522" height="1.042"/>
	<rect x="294.198" y="63.334" fill="#FFFFFF" width="1.524" height="1.043"/>
</g>
</svg>
