<?xml version="1.0" encoding="utf-8"?>
<!-- Generator: Adobe Illustrator 16.0.0, SVG Export Plug-In . SVG Version: 6.00 Build 0)  -->
<!DOCTYPE svg PUBLIC "-//W3C//DTD SVG 1.1//EN" "http://www.w3.org/Graphics/SVG/1.1/DTD/svg11.dtd">
<svg version="1.1" id="Calque_1" xmlns="http://www.w3.org/2000/svg" xmlns:xlink="http://www.w3.org/1999/xlink" x="0px" y="0px"
	 width="380px" height="50px" viewBox="0 0 380 50" enable-background="new 0 0 380 50" xml:space="preserve">
<g>
	<path fill="#FFFFFF" d="M1.385,43.359l0.672-0.656c0.736,1.04,1.969,1.696,3.489,1.696c1.905,0,2.689-1.28,2.689-2.32
		c0-2.354-5.33-1.938-5.33-4.914c0-1.617,1.569-2.978,3.602-2.978c1.632,0,3.025,0.673,3.681,1.665L9.5,36.492
		c-0.672-1.008-1.873-1.473-3.073-1.473c-1.425,0-2.529,0.993-2.529,2.049c0,2.146,5.346,1.857,5.346,4.898
		c0,1.601-1.296,3.266-3.777,3.266C3.642,45.232,2.041,44.416,1.385,43.359z"/>
	<path fill="#FFFFFF" d="M10.233,41.822c0-2.576,1.889-4.705,4.29-4.705c2.065,0,3.281,1.456,3.281,3.345
		c0,0.336-0.08,0.784-0.128,0.977h-6.531c-0.016,0.096-0.032,0.305-0.032,0.448c0,1.425,0.944,2.625,2.833,2.625
		c0.784,0,1.665-0.272,2.337-0.832l0.32,0.608c-0.688,0.528-1.681,0.944-2.689,0.944C11.593,45.232,10.233,43.84,10.233,41.822z
		 M16.988,40.782c0.016-0.08,0.016-0.256,0.016-0.352c0-1.505-0.912-2.594-2.577-2.594c-1.553,0-2.929,1.36-3.202,2.945h5.714
		H16.988z"/>
	<path fill="#FFFFFF" d="M18.2,45.04l2.353-10.677h0.833L19.033,45.04H18.2z"/>
	<path fill="#FFFFFF" d="M21.112,41.839c0-2.449,1.809-4.722,4.258-4.722c2.081,0,3.409,1.344,3.409,3.393
		c0,2.449-1.809,4.723-4.257,4.723C22.441,45.232,21.112,43.888,21.112,41.839z M27.867,40.542c0-1.616-0.928-2.673-2.513-2.673
		c-1.937,0-3.329,1.937-3.329,3.938c0,1.617,0.928,2.673,2.513,2.673C26.475,44.479,27.867,42.543,27.867,40.542z"/>
	<path fill="#FFFFFF" d="M34.378,45.04l1.152-5.25c0.032-0.145,0.096-0.368,0.096-0.561c0-0.96-0.736-1.36-1.729-1.36
		c-0.96,0-1.953,0.656-2.609,1.345l-1.296,5.826H29.16l1.713-7.731h0.832l-0.256,1.169c0.688-0.673,1.697-1.36,2.785-1.36
		c1.312,0,2.257,0.624,2.257,1.889c0,0.144-0.048,0.479-0.096,0.656L35.21,45.04H34.378z"/>
	<path fill="#FFFFFF" d="M40.344,45.04l2.353-10.677h0.833L41.176,45.04H40.344z"/>
	<path fill="#FFFFFF" d="M43.272,41.822c0-2.576,1.889-4.705,4.29-4.705c2.065,0,3.281,1.456,3.281,3.345
		c0,0.336-0.08,0.784-0.128,0.977h-6.531c-0.016,0.096-0.032,0.305-0.032,0.448c0,1.425,0.944,2.625,2.833,2.625
		c0.784,0,1.665-0.272,2.337-0.832l0.32,0.608c-0.688,0.528-1.681,0.944-2.689,0.944C44.632,45.232,43.272,43.84,43.272,41.822z
		 M50.027,40.782c0.016-0.08,0.016-0.256,0.016-0.352c0-1.505-0.912-2.594-2.577-2.594c-1.553,0-2.929,1.36-3.202,2.945h5.714
		H50.027z"/>
	<path fill="#FFFFFF" d="M50.935,43.871l0.592-0.576c0.4,0.641,1.345,1.233,2.529,1.233c1.28,0,2.049-0.769,2.049-1.602
		c0-1.648-4.13-1.44-4.13-3.521c0-1.248,1.024-2.288,2.817-2.288c1.328,0,2.385,0.592,2.817,1.265l-0.544,0.544
		c-0.336-0.608-1.312-1.104-2.337-1.104c-1.168,0-1.905,0.608-1.905,1.393c0,1.568,4.13,1.328,4.13,3.537
		c0,1.28-1.041,2.481-2.913,2.481C52.648,45.232,51.576,44.768,50.935,43.871z"/>
	<path fill="#FFFFFF" d="M60.823,43.871l0.592-0.576c0.4,0.641,1.345,1.233,2.529,1.233c1.28,0,2.049-0.769,2.049-1.602
		c0-1.648-4.13-1.44-4.13-3.521c0-1.248,1.024-2.288,2.817-2.288c1.328,0,2.385,0.592,2.817,1.265l-0.544,0.544
		c-0.336-0.608-1.312-1.104-2.337-1.104c-1.168,0-1.905,0.608-1.905,1.393c0,1.568,4.13,1.328,4.13,3.537
		c0,1.28-1.041,2.481-2.913,2.481C62.536,45.232,61.463,44.768,60.823,43.871z"/>
	<path fill="#FFFFFF" d="M67.976,41.822c0-2.576,1.889-4.705,4.29-4.705c2.065,0,3.281,1.456,3.281,3.345
		c0,0.336-0.08,0.784-0.128,0.977h-6.531c-0.016,0.096-0.032,0.305-0.032,0.448c0,1.425,0.944,2.625,2.833,2.625
		c0.784,0,1.665-0.272,2.337-0.832l0.32,0.608c-0.688,0.528-1.681,0.944-2.689,0.944C69.336,45.232,67.976,43.84,67.976,41.822z
		 M74.73,40.782c0.016-0.08,0.016-0.256,0.016-0.352c0-1.505-0.912-2.594-2.577-2.594c-1.553,0-2.929,1.36-3.202,2.945h5.714H74.73z
		"/>
	<path fill="#FFFFFF" d="M78.488,37.309l-1.168,5.234c-0.032,0.145-0.08,0.384-0.08,0.576c0,0.961,0.736,1.36,1.713,1.36
		s1.969-0.656,2.625-1.36l1.296-5.811h0.833l-1.713,7.731h-0.832l0.256-1.169c-0.688,0.673-1.697,1.361-2.785,1.361
		c-1.312,0-2.257-0.625-2.257-1.889c0-0.145,0.048-0.48,0.096-0.656l1.168-5.379H78.488z"/>
	<path fill="#FFFFFF" d="M83.783,45.04l1.713-7.731h0.832l-1.712,7.731H83.783z M85.656,35.532c0-0.433,0.4-0.704,0.72-0.704
		c0.336,0,0.592,0.256,0.592,0.56c0,0.433-0.4,0.705-0.736,0.705C85.912,36.093,85.656,35.836,85.656,35.532z"/>
	<path fill="#FFFFFF" d="M86.407,45.04l2.353-10.677h0.833L87.239,45.04H86.407z"/>
	<path fill="#FFFFFF" d="M88.726,43.871l0.592-0.576c0.4,0.641,1.345,1.233,2.529,1.233c1.28,0,2.049-0.769,2.049-1.602
		c0-1.648-4.13-1.44-4.13-3.521c0-1.248,1.024-2.288,2.817-2.288c1.328,0,2.385,0.592,2.817,1.265l-0.544,0.544
		c-0.336-0.608-1.312-1.104-2.337-1.104c-1.168,0-1.905,0.608-1.905,1.393c0,1.568,4.13,1.328,4.13,3.537
		c0,1.28-1.041,2.481-2.913,2.481C90.439,45.232,89.367,44.768,88.726,43.871z"/>
	<path fill="#FFFFFF" d="M106.058,38.621l0.928-4.258h0.848l-2.369,10.677h-0.849l0.272-1.169c-0.641,0.816-1.553,1.361-2.657,1.361
		c-1.777,0-3.025-1.185-3.025-3.17c0-2.608,1.617-4.945,4.066-4.945C104.537,37.117,105.529,37.741,106.058,38.621z M100.119,41.902
		c0,1.585,0.928,2.577,2.337,2.577c1.088,0,2.097-0.688,2.625-1.488l0.816-3.714c-0.384-0.768-1.312-1.408-2.561-1.408
		C101.399,37.869,100.119,39.87,100.119,41.902z"/>
	<path fill="#FFFFFF" d="M107.559,41.822c0-2.576,1.889-4.705,4.29-4.705c2.065,0,3.281,1.456,3.281,3.345
		c0,0.336-0.08,0.784-0.128,0.977h-6.531c-0.016,0.096-0.032,0.305-0.032,0.448c0,1.425,0.944,2.625,2.833,2.625
		c0.784,0,1.665-0.272,2.337-0.832l0.32,0.608c-0.688,0.528-1.681,0.944-2.689,0.944C108.919,45.232,107.559,43.84,107.559,41.822z
		 M114.313,40.782c0.016-0.08,0.016-0.256,0.016-0.352c0-1.505-0.912-2.594-2.577-2.594c-1.553,0-2.929,1.36-3.202,2.945h5.714
		H114.313z M112.265,36.141h-0.721l2.978-2.305h1.008L112.265,36.141z"/>
	<path fill="#FFFFFF" d="M115.958,43.951c0-0.08,0.016-0.271,0.063-0.416l1.217-5.49h-1.28l0.16-0.736h1.28l0.464-2.112h0.849
		l-0.465,2.112h1.569l-0.177,0.736h-1.568l-1.185,5.362c-0.016,0.096-0.032,0.192-0.032,0.336c0,0.465,0.257,0.736,0.785,0.736
		c0.304,0,0.624-0.144,0.816-0.288l0.159,0.673c-0.288,0.208-0.656,0.368-1.104,0.368C116.55,45.232,115.958,44.832,115.958,43.951z
		"/>
	<path fill="#FFFFFF" d="M119.43,41.822c0-2.576,1.889-4.705,4.29-4.705c2.064,0,3.281,1.456,3.281,3.345
		c0,0.336-0.08,0.784-0.128,0.977h-6.531c-0.016,0.096-0.032,0.305-0.032,0.448c0,1.425,0.945,2.625,2.834,2.625
		c0.784,0,1.664-0.272,2.337-0.832l0.319,0.608c-0.688,0.528-1.681,0.944-2.688,0.944C120.791,45.232,119.43,43.84,119.43,41.822z
		 M126.185,40.782c0.016-0.08,0.016-0.256,0.016-0.352c0-1.505-0.912-2.594-2.577-2.594c-1.553,0-2.929,1.36-3.201,2.945h5.715
		H126.185z"/>
	<path fill="#FFFFFF" d="M127.398,45.04l1.712-7.731h0.833l-0.288,1.249c0.8-0.929,1.553-1.409,2.944-1.409l-0.208,0.896
		c-0.096-0.016-0.288-0.048-0.56-0.048c-0.944,0-1.857,0.704-2.354,1.408l-1.248,5.635H127.398z"/>
	<path fill="#FFFFFF" d="M140.874,45.04l1.185-5.378c0.016-0.064,0.064-0.272,0.064-0.433c0-0.88-0.656-1.36-1.409-1.36
		c-0.816,0-1.729,0.641-2.32,1.345l-1.281,5.826h-0.848l1.2-5.378c0.032-0.24,0.064-0.32,0.064-0.528
		c-0.017-0.721-0.513-1.265-1.441-1.265c-0.8,0-1.681,0.641-2.289,1.345l-1.296,5.826h-0.832l1.712-7.731h0.833l-0.257,1.169
		c0.433-0.496,1.345-1.36,2.466-1.36c1.296,0,1.952,0.928,1.952,1.536c0,0.017,0,0.017,0,0.032c0.624-0.769,1.568-1.568,2.657-1.568
		c1.04,0,1.953,0.656,1.953,1.889c0,0.16-0.048,0.432-0.097,0.656l-1.185,5.378H140.874z"/>
	<path fill="#FFFFFF" d="M143.494,45.04l1.712-7.731h0.833l-1.713,7.731H143.494z M145.366,35.532c0-0.433,0.4-0.704,0.721-0.704
		c0.336,0,0.592,0.256,0.592,0.56c0,0.433-0.399,0.705-0.736,0.705C145.623,36.093,145.366,35.836,145.366,35.532z"/>
	<path fill="#FFFFFF" d="M151.335,45.04l1.152-5.25c0.032-0.145,0.096-0.368,0.096-0.561c0-0.96-0.736-1.36-1.729-1.36
		c-0.96,0-1.952,0.656-2.609,1.345l-1.296,5.826h-0.832l1.712-7.731h0.833l-0.257,1.169c0.688-0.673,1.697-1.36,2.785-1.36
		c1.312,0,2.257,0.624,2.257,1.889c0,0.144-0.048,0.479-0.096,0.656l-1.185,5.378H151.335z"/>
	<path fill="#FFFFFF" d="M154.261,41.822c0-2.576,1.889-4.705,4.29-4.705c2.064,0,3.281,1.456,3.281,3.345
		c0,0.336-0.08,0.784-0.128,0.977h-6.531c-0.016,0.096-0.032,0.305-0.032,0.448c0,1.425,0.944,2.625,2.834,2.625
		c0.784,0,1.664-0.272,2.337-0.832l0.319,0.608c-0.688,0.528-1.681,0.944-2.688,0.944C155.622,45.232,154.261,43.84,154.261,41.822z
		 M161.016,40.782c0.016-0.08,0.016-0.256,0.016-0.352c0-1.505-0.912-2.594-2.577-2.594c-1.553,0-2.929,1.36-3.201,2.945h5.715
		H161.016z M158.967,36.141h-0.721l2.978-2.305h1.008L158.967,36.141z"/>
	<path fill="#FFFFFF" d="M161.924,43.871l0.593-0.576c0.399,0.641,1.344,1.233,2.528,1.233c1.281,0,2.049-0.769,2.049-1.602
		c0-1.648-4.129-1.44-4.129-3.521c0-1.248,1.024-2.288,2.816-2.288c1.329,0,2.385,0.592,2.817,1.265l-0.544,0.544
		c-0.336-0.608-1.312-1.104-2.337-1.104c-1.169,0-1.905,0.608-1.905,1.393c0,1.568,4.13,1.328,4.13,3.537
		c0,1.28-1.04,2.481-2.913,2.481C163.637,45.232,162.565,44.768,161.924,43.871z"/>
	<path fill="#FFFFFF" d="M173.237,43.728l-0.944,4.258h-0.832l2.368-10.677h0.833l-0.257,1.169c0.625-0.816,1.553-1.36,2.657-1.36
		c1.761,0,3.01,1.185,3.01,3.169c0,2.593-1.617,4.946-4.05,4.946C174.742,45.232,173.765,44.607,173.237,43.728z M179.159,40.446
		c0-1.585-0.928-2.577-2.337-2.577c-1.088,0-2.08,0.688-2.625,1.488l-0.816,3.714c0.385,0.769,1.312,1.408,2.562,1.408
		C177.895,44.479,179.159,42.479,179.159,40.446z"/>
	<path fill="#FFFFFF" d="M187.528,38.621l0.271-1.312h0.849l-1.713,7.731h-0.848l0.271-1.169c-0.64,0.816-1.553,1.361-2.657,1.361
		c-1.776,0-3.024-1.185-3.024-3.17c0-2.608,1.616-4.945,4.065-4.945C186.007,37.117,187,37.741,187.528,38.621z M181.589,41.902
		c0,1.585,0.928,2.577,2.337,2.577c1.088,0,2.097-0.688,2.625-1.488l0.816-3.714c-0.385-0.768-1.312-1.408-2.562-1.408
		C182.87,37.869,181.589,39.87,181.589,41.902z"/>
	<path fill="#FFFFFF" d="M188.725,45.04l1.712-7.731h0.833l-0.289,1.249c0.8-0.929,1.553-1.409,2.946-1.409l-0.209,0.896
		c-0.096-0.016-0.288-0.048-0.56-0.048c-0.944,0-1.857,0.704-2.354,1.408l-1.248,5.635H188.725z"/>
	<path fill="#FFFFFF" d="M204.151,45.04l-0.48-2.625h-5.649l-1.633,2.625h-1.104l6.723-10.677h1.137l2.017,10.677H204.151z
		 M202.407,35.34l-3.906,6.243h5.059L202.407,35.34z"/>
	<path fill="#FFFFFF" d="M206.244,43.951c0-0.08,0.016-0.271,0.064-0.416l1.216-5.49h-1.28l0.16-0.736h1.28l0.465-2.112h0.848
		l-0.464,2.112h1.568l-0.176,0.736h-1.568l-1.185,5.362c-0.017,0.096-0.032,0.192-0.032,0.336c0,0.465,0.256,0.736,0.784,0.736
		c0.305,0,0.624-0.144,0.816-0.288l0.16,0.673c-0.288,0.208-0.656,0.368-1.104,0.368C206.837,45.232,206.244,44.832,206.244,43.951z
		"/>
	<path fill="#FFFFFF" d="M218.616,45.04l1.185-5.378c0.016-0.064,0.064-0.272,0.064-0.433c0-0.88-0.656-1.36-1.409-1.36
		c-0.816,0-1.729,0.641-2.32,1.345l-1.281,5.826h-0.848l1.2-5.378c0.032-0.24,0.064-0.32,0.064-0.528
		c-0.017-0.721-0.513-1.265-1.441-1.265c-0.8,0-1.681,0.641-2.289,1.345l-1.296,5.826h-0.832l1.712-7.731h0.833l-0.257,1.169
		c0.433-0.496,1.345-1.36,2.466-1.36c1.296,0,1.952,0.928,1.952,1.536c0,0.017,0,0.017,0,0.032c0.624-0.769,1.568-1.568,2.657-1.568
		c1.04,0,1.953,0.656,1.953,1.889c0,0.16-0.048,0.432-0.097,0.656l-1.185,5.378H218.616z"/>
	<path fill="#FFFFFF" d="M221.524,41.839c0-2.449,1.809-4.722,4.257-4.722c2.081,0,3.41,1.344,3.41,3.393
		c0,2.449-1.809,4.723-4.258,4.723C222.853,45.232,221.524,43.888,221.524,41.839z M228.278,40.542c0-1.616-0.928-2.673-2.513-2.673
		c-1.937,0-3.329,1.937-3.329,3.938c0,1.617,0.929,2.673,2.513,2.673C226.886,44.479,228.278,42.543,228.278,40.542z"/>
	<path fill="#FFFFFF" d="M229.523,41.551l0.16-0.769h3.842l-0.16,0.769H229.523z"/>
	<path fill="#FFFFFF" d="M233.604,45.04l2.354-10.677h6.771l-0.176,0.833h-5.858l-0.864,3.953h5.729l-0.191,0.833h-5.73l-1.12,5.058
		H233.604z"/>
	<path fill="#FFFFFF" d="M241.444,45.04l1.712-7.731h0.833l-0.288,1.249c0.8-0.929,1.553-1.409,2.945-1.409l-0.209,0.896
		c-0.096-0.016-0.288-0.048-0.56-0.048c-0.944,0-1.857,0.704-2.354,1.408l-1.248,5.635H241.444z"/>
	<path fill="#FFFFFF" d="M252.854,38.621l0.271-1.312h0.849l-1.713,7.731h-0.848l0.271-1.169c-0.64,0.816-1.553,1.361-2.657,1.361
		c-1.776,0-3.024-1.185-3.024-3.17c0-2.608,1.616-4.945,4.065-4.945C251.334,37.117,252.326,37.741,252.854,38.621z M246.916,41.902
		c0,1.585,0.928,2.577,2.337,2.577c1.088,0,2.097-0.688,2.625-1.488l0.816-3.714c-0.385-0.768-1.312-1.408-2.562-1.408
		C248.196,37.869,246.916,39.87,246.916,41.902z"/>
	<path fill="#FFFFFF" d="M259.27,45.04l1.152-5.25c0.032-0.145,0.096-0.368,0.096-0.561c0-0.96-0.736-1.36-1.729-1.36
		c-0.96,0-1.952,0.656-2.609,1.345l-1.296,5.826h-0.832l1.712-7.731h0.833l-0.257,1.169c0.688-0.673,1.697-1.36,2.785-1.36
		c1.312,0,2.257,0.624,2.257,1.889c0,0.144-0.048,0.479-0.096,0.656l-1.185,5.378H259.27z"/>
	<path fill="#FFFFFF" d="M262.195,41.807c0-2.545,1.873-4.689,4.29-4.689c1.328,0,2.24,0.512,2.769,1.408l-0.64,0.48
		c-0.448-0.784-1.249-1.137-2.098-1.137c-2.129,0-3.441,1.921-3.441,3.953c0,1.761,1.153,2.657,2.642,2.657
		c0.864,0,1.601-0.399,2.097-0.992l0.48,0.576c-0.673,0.688-1.489,1.169-2.657,1.169C263.652,45.232,262.195,44,262.195,41.807z"/>
	<path fill="#FFFFFF" d="M269.3,41.822c0-2.576,1.889-4.705,4.29-4.705c2.064,0,3.281,1.456,3.281,3.345
		c0,0.336-0.08,0.784-0.128,0.977h-6.531c-0.016,0.096-0.032,0.305-0.032,0.448c0,1.425,0.945,2.625,2.834,2.625
		c0.784,0,1.664-0.272,2.337-0.832l0.319,0.608c-0.688,0.528-1.681,0.944-2.688,0.944C270.66,45.232,269.3,43.84,269.3,41.822z
		 M276.055,40.782c0.016-0.08,0.016-0.256,0.016-0.352c0-1.505-0.912-2.594-2.577-2.594c-1.553,0-2.929,1.36-3.201,2.945h5.715
		H276.055z"/>
</g>
<g>
	<path fill="#FFFFFF" d="M1.925,13.675c0-4.532,3.366-7.591,7.701-7.591c2.949,0,4.797,1.518,5.875,3.278l-2.178,1.145
		c-0.704-1.232-2.134-2.135-3.697-2.135c-2.904,0-5.061,2.2-5.061,5.303c0,3.059,2.156,5.303,5.061,5.303
		c1.562,0,2.993-0.924,3.697-2.134l2.2,1.1c-1.122,1.761-2.948,3.322-5.897,3.322C5.291,21.266,1.925,18.186,1.925,13.675z"/>
	<path fill="#FFFFFF" d="M15.762,15.677c0-3.058,2.068-5.566,5.457-5.566s5.457,2.509,5.457,5.566c0,3.037-2.068,5.589-5.457,5.589
		S15.762,18.714,15.762,15.677z M24.278,15.677c0-1.87-1.078-3.521-3.059-3.521c-1.958,0-3.059,1.65-3.059,3.521
		c0,1.893,1.1,3.543,3.059,3.543C23.2,19.22,24.278,17.57,24.278,15.677z"/>
	<path fill="#FFFFFF" d="M40.976,21.002v-6.931c0-1.145-0.506-1.915-1.76-1.915c-1.034,0-2.002,0.704-2.464,1.408v7.438h-2.31
		v-6.931c0-1.145-0.484-1.915-1.738-1.915c-1.034,0-1.98,0.727-2.464,1.408v7.438h-2.311V10.375h2.311v1.431
		c0.462-0.638,1.848-1.694,3.477-1.694c1.584,0,2.552,0.792,2.904,1.937c0.594-0.946,2.002-1.937,3.608-1.937
		c1.937,0,3.059,1.057,3.059,3.213v7.679H40.976z"/>
	<path fill="#FFFFFF" d="M58.224,21.002v-6.931c0-1.145-0.506-1.915-1.76-1.915c-1.034,0-2.002,0.704-2.464,1.408v7.438h-2.31
		v-6.931c0-1.145-0.484-1.915-1.738-1.915c-1.034,0-1.98,0.727-2.464,1.408v7.438h-2.311V10.375h2.311v1.431
		c0.462-0.638,1.848-1.694,3.477-1.694c1.584,0,2.552,0.792,2.904,1.937c0.594-0.946,2.002-1.937,3.608-1.937
		c1.937,0,3.059,1.057,3.059,3.213v7.679H58.224z"/>
	<path fill="#FFFFFF" d="M61.786,15.677c0-3.08,2.245-5.566,5.391-5.566c3.19,0,5.215,2.42,5.215,5.765v0.572h-8.186
		c0.176,1.584,1.364,2.927,3.367,2.927c1.056,0,2.266-0.418,3.037-1.188l1.056,1.519c-1.078,1.012-2.64,1.562-4.312,1.562
		C64.141,21.266,61.786,19.044,61.786,15.677z M67.155,12.003c-1.958,0-2.882,1.518-2.971,2.794h5.985
		C70.104,13.543,69.246,12.003,67.155,12.003z"/>
	<path fill="#FFFFFF" d="M80.773,21.002v-6.645c0-1.673-0.858-2.201-2.156-2.201c-1.167,0-2.179,0.704-2.729,1.408v7.438h-2.311
		V10.375h2.311v1.431c0.704-0.836,2.09-1.694,3.762-1.694c2.289,0,3.433,1.232,3.433,3.41v7.481H80.773z"/>
	<path fill="#FFFFFF" d="M85.458,18.516v-6.139h-1.76v-2.003h1.76V7.47h2.31v2.904h2.156v2.003h-2.156v5.566
		c0,0.727,0.352,1.276,1.012,1.276c0.44,0,0.836-0.198,1.012-0.396l0.55,1.761c-0.418,0.374-1.1,0.682-2.156,0.682
		C86.382,21.266,85.458,20.298,85.458,18.516z"/>
	<path fill="#FFFFFF" d="M95.467,21.002V10.375h2.311v1.541c0.814-1.013,2.09-1.805,3.455-1.805v2.288
		c-0.198-0.044-0.418-0.065-0.704-0.065c-0.99,0-2.289,0.66-2.75,1.43v7.239H95.467z"/>
	<path fill="#FFFFFF" d="M101.363,15.677c0-3.08,2.245-5.566,5.391-5.566c3.19,0,5.215,2.42,5.215,5.765v0.572h-8.186
		c0.176,1.584,1.364,2.927,3.367,2.927c1.056,0,2.266-0.418,3.036-1.188l1.057,1.519c-1.079,1.012-2.641,1.562-4.313,1.562
		C103.717,21.266,101.363,19.044,101.363,15.677z M106.732,12.003c-1.958,0-2.883,1.518-2.971,2.794h5.985
		C109.68,13.543,108.822,12.003,106.732,12.003z M106.776,8.769h-1.65l3.081-3.169h2.2L106.776,8.769z"/>
	<path fill="#FFFFFF" d="M119.668,21.002v-1.166c-0.792,0.924-2.046,1.43-3.455,1.43c-1.716,0-3.675-1.188-3.675-3.521
		c0-2.464,1.937-3.477,3.675-3.477c1.452,0,2.662,0.463,3.455,1.364v-1.584c0-1.232-1.034-1.98-2.486-1.98
		c-1.188,0-2.245,0.44-3.146,1.364l-0.968-1.606c1.232-1.188,2.772-1.716,4.467-1.716c2.376,0,4.444,0.99,4.444,3.828v7.063H119.668
		z M119.668,18.583v-1.629c-0.55-0.726-1.541-1.1-2.53-1.1c-1.298,0-2.289,0.77-2.289,1.914c0,1.166,0.99,1.914,2.289,1.914
		C118.127,19.682,119.118,19.308,119.668,18.583z"/>
	<path fill="#FFFFFF" d="M123.737,23.731l1.078-1.672c0.88,0.989,1.98,1.363,3.389,1.363c1.518,0,3.146-0.704,3.146-2.97v-1.21
		c-0.814,1.078-2.024,1.782-3.411,1.782c-2.707,0-4.709-1.959-4.709-5.457c0-3.455,1.958-5.457,4.709-5.457
		c1.342,0,2.552,0.594,3.411,1.738v-1.475h2.31v10.078c0,3.828-2.86,4.862-5.457,4.862
		C126.399,25.315,125.057,24.919,123.737,23.731z M131.35,17.548v-3.983c-0.528-0.77-1.65-1.408-2.729-1.408
		c-1.849,0-3.015,1.364-3.015,3.411c0,2.046,1.166,3.389,3.015,3.389C129.7,18.957,130.822,18.318,131.35,17.548z"/>
	<path fill="#FFFFFF" d="M135.287,7.647c0-0.793,0.638-1.431,1.43-1.431c0.792,0,1.43,0.638,1.43,1.431
		c0,0.792-0.638,1.43-1.43,1.43C135.924,9.077,135.287,8.439,135.287,7.647z M135.55,21.002V10.375h2.311v10.628H135.55z"/>
	<path fill="#FFFFFF" d="M139.752,21.002V10.375h2.311v1.541c0.814-1.013,2.09-1.805,3.455-1.805v2.288
		c-0.198-0.044-0.418-0.065-0.704-0.065c-0.99,0-2.289,0.66-2.75,1.43v7.239H139.752z"/>
	<path fill="#FFFFFF" d="M151.434,21.002v-8.625h-1.76v-2.003h1.76V9.781c0-2.311,1.342-3.675,3.344-3.675
		c0.968,0,1.915,0.242,2.553,0.925l-0.902,1.43c-0.308-0.286-0.704-0.462-1.21-0.462c-0.924,0-1.475,0.594-1.475,1.782v0.594h2.157
		v2.003h-2.157v8.625H151.434z"/>
	<path fill="#FFFFFF" d="M163.073,21.002v-1.166c-0.792,0.924-2.046,1.43-3.455,1.43c-1.716,0-3.674-1.188-3.674-3.521
		c0-2.464,1.936-3.477,3.674-3.477c1.452,0,2.663,0.463,3.455,1.364v-1.584c0-1.232-1.034-1.98-2.486-1.98
		c-1.188,0-2.245,0.44-3.146,1.364l-0.968-1.606c1.232-1.188,2.772-1.716,4.467-1.716c2.376,0,4.444,0.99,4.444,3.828v7.063H163.073
		z M163.073,18.583v-1.629c-0.55-0.726-1.541-1.1-2.53-1.1c-1.298,0-2.289,0.77-2.289,1.914c0,1.166,0.99,1.914,2.289,1.914
		C161.532,19.682,162.522,19.308,163.073,18.583z"/>
	<path fill="#FFFFFF" d="M166.635,15.677c0-3.212,2.267-5.566,5.479-5.566c2.09,0,3.322,0.88,4.071,1.893l-1.519,1.386
		c-0.594-0.836-1.408-1.232-2.442-1.232c-1.914,0-3.212,1.453-3.212,3.521c0,2.068,1.298,3.543,3.212,3.543
		c1.034,0,1.849-0.44,2.442-1.276l1.519,1.431c-0.749,0.99-1.98,1.892-4.071,1.892C168.902,21.266,166.635,18.89,166.635,15.677z"/>
	<path fill="#FFFFFF" d="M176.491,15.677c0-3.08,2.245-5.566,5.391-5.566c3.19,0,5.215,2.42,5.215,5.765v0.572h-8.186
		c0.176,1.584,1.364,2.927,3.367,2.927c1.056,0,2.266-0.418,3.037-1.188l1.056,1.519c-1.078,1.012-2.64,1.562-4.312,1.562
		C178.846,21.266,176.491,19.044,176.491,15.677z M181.86,12.003c-1.958,0-2.882,1.518-2.971,2.794h5.985
		C184.809,13.543,183.951,12.003,181.86,12.003z"/>
	<path fill="#FFFFFF" d="M199.372,21.002v-1.166c-0.792,0.924-2.046,1.43-3.454,1.43c-1.717,0-3.675-1.188-3.675-3.521
		c0-2.464,1.937-3.477,3.675-3.477c1.452,0,2.662,0.463,3.454,1.364v-1.584c0-1.232-1.034-1.98-2.486-1.98
		c-1.188,0-2.244,0.44-3.146,1.364l-0.968-1.606c1.232-1.188,2.772-1.716,4.467-1.716c2.376,0,4.444,0.99,4.444,3.828v7.063H199.372
		z M197.26,8.769L193.629,5.6h2.201l3.08,3.169H197.26z M199.372,18.583v-1.629c-0.55-0.726-1.54-1.1-2.53-1.1
		c-1.298,0-2.288,0.77-2.288,1.914c0,1.166,0.99,1.914,2.288,1.914C197.832,19.682,198.822,19.308,199.372,18.583z"/>
	<path fill="#FFFFFF" d="M208.148,21.002V6.327h2.311v14.676H208.148z"/>
	<path fill="#FFFFFF" d="M218.864,21.002v-1.166c-0.792,0.924-2.047,1.43-3.455,1.43c-1.716,0-3.674-1.188-3.674-3.521
		c0-2.464,1.936-3.477,3.674-3.477c1.452,0,2.663,0.463,3.455,1.364v-1.584c0-1.232-1.034-1.98-2.486-1.98
		c-1.188,0-2.245,0.44-3.146,1.364l-0.969-1.606c1.232-1.188,2.772-1.716,4.467-1.716c2.376,0,4.444,0.99,4.444,3.828v7.063H218.864
		z M218.864,18.583v-1.629c-0.551-0.726-1.541-1.1-2.53-1.1c-1.299,0-2.289,0.77-2.289,1.914c0,1.166,0.99,1.914,2.289,1.914
		C217.323,19.682,218.313,19.308,218.864,18.583z"/>
	<path fill="#FFFFFF" d="M229.951,19.528v5.523h-2.311V10.375h2.311v1.452c0.792-1.056,2.024-1.716,3.41-1.716
		c2.75,0,4.709,2.068,4.709,5.566c0,3.499-1.959,5.589-4.709,5.589C232.02,21.266,230.831,20.651,229.951,19.528z M235.693,15.677
		c0-2.067-1.188-3.521-3.014-3.521c-1.078,0-2.201,0.616-2.729,1.408v4.203c0.506,0.792,1.65,1.452,2.729,1.452
		C234.506,19.22,235.693,17.746,235.693,15.677z"/>
	<path fill="#FFFFFF" d="M238.64,15.677c0-3.058,2.068-5.566,5.457-5.566s5.457,2.509,5.457,5.566c0,3.037-2.068,5.589-5.457,5.589
		S238.64,18.714,238.64,15.677z M247.155,15.677c0-1.87-1.078-3.521-3.059-3.521c-1.958,0-3.059,1.65-3.059,3.521
		c0,1.893,1.101,3.543,3.059,3.543C246.077,19.22,247.155,17.57,247.155,15.677z"/>
	<path fill="#FFFFFF" d="M250.806,21.002V6.327h2.311v14.676H250.806z"/>
	<path fill="#FFFFFF" d="M255.008,21.002V6.327h2.311v14.676H255.008z"/>
	<path fill="#FFFFFF" d="M266.383,21.002v-1.408c-0.748,0.836-2.068,1.672-3.74,1.672c-2.288,0-3.433-1.21-3.433-3.366v-7.525h2.311
		v6.667c0,1.65,0.836,2.179,2.156,2.179c1.166,0,2.178-0.683,2.706-1.386v-7.46h2.311v10.628H266.383z"/>
	<path fill="#FFFFFF" d="M271.068,18.516v-6.139h-1.761v-2.003h1.761V7.47h2.31v2.904h2.156v2.003h-2.156v5.566
		c0,0.727,0.353,1.276,1.013,1.276c0.439,0,0.836-0.198,1.012-0.396l0.551,1.761c-0.419,0.374-1.101,0.682-2.157,0.682
		C271.992,21.266,271.068,20.298,271.068,18.516z"/>
	<path fill="#FFFFFF" d="M276.237,7.647c0-0.793,0.638-1.431,1.431-1.431c0.792,0,1.43,0.638,1.43,1.431
		c0,0.792-0.638,1.43-1.43,1.43C276.875,9.077,276.237,8.439,276.237,7.647z M276.501,21.002V10.375h2.311v10.628H276.501z"/>
	<path fill="#FFFFFF" d="M280.065,15.677c0-3.058,2.068-5.566,5.457-5.566s5.456,2.509,5.456,5.566c0,3.037-2.067,5.589-5.456,5.589
		S280.065,18.714,280.065,15.677z M288.581,15.677c0-1.87-1.078-3.521-3.059-3.521c-1.959,0-3.059,1.65-3.059,3.521
		c0,1.893,1.1,3.543,3.059,3.543C287.503,19.22,288.581,17.57,288.581,15.677z"/>
	<path fill="#FFFFFF" d="M299.427,21.002v-6.645c0-1.673-0.858-2.201-2.156-2.201c-1.167,0-2.179,0.704-2.729,1.408v7.438h-2.311
		V10.375h2.311v1.431c0.704-0.836,2.09-1.694,3.763-1.694c2.288,0,3.432,1.232,3.432,3.41v7.481H299.427z"/>
	<path fill="#FFFFFF" d="M315.685,21.002V19.55c-0.814,1.056-2.024,1.716-3.411,1.716c-2.706,0-4.709-2.068-4.709-5.589
		c0-3.432,1.98-5.566,4.709-5.566c1.343,0,2.574,0.594,3.411,1.738V6.327h2.31v14.676H315.685z M315.685,17.79v-4.202
		c-0.507-0.792-1.65-1.431-2.729-1.431c-1.849,0-3.015,1.475-3.015,3.521c0,2.068,1.166,3.543,3.015,3.543
		C314.034,19.22,315.178,18.583,315.685,17.79z"/>
	<path fill="#FFFFFF" d="M319.246,15.677c0-3.08,2.245-5.566,5.392-5.566c3.19,0,5.215,2.42,5.215,5.765v0.572h-8.186
		c0.176,1.584,1.364,2.927,3.366,2.927c1.057,0,2.267-0.418,3.037-1.188l1.056,1.519c-1.078,1.012-2.641,1.562-4.312,1.562
		C321.601,21.266,319.246,19.044,319.246,15.677z M324.615,12.003c-1.958,0-2.882,1.518-2.971,2.794h5.985
		C327.563,13.543,326.706,12.003,324.615,12.003z"/>
	<path fill="#FFFFFF" d="M335.614,21.002V6.327h2.311v14.676H335.614z"/>
	<path fill="#FFFFFF" d="M340.631,11.849l-1.057-0.836c0.704-0.418,1.452-1.32,1.584-2.068c-0.044,0.021-0.22,0.044-0.374,0.044
		c-0.726,0-1.298-0.572-1.298-1.387c0-0.813,0.66-1.496,1.496-1.496c0.902,0,1.694,0.727,1.694,2.003
		C342.677,9.626,341.841,10.991,340.631,11.849z"/>
	<path fill="#FFFFFF" d="M350.619,21.002v-1.166c-0.792,0.924-2.046,1.43-3.454,1.43c-1.717,0-3.675-1.188-3.675-3.521
		c0-2.464,1.937-3.477,3.675-3.477c1.452,0,2.662,0.463,3.454,1.364v-1.584c0-1.232-1.034-1.98-2.486-1.98
		c-1.188,0-2.244,0.44-3.146,1.364l-0.968-1.606c1.232-1.188,2.772-1.716,4.467-1.716c2.376,0,4.444,0.99,4.444,3.828v7.063H350.619
		z M350.619,18.583v-1.629c-0.55-0.726-1.54-1.1-2.53-1.1c-1.298,0-2.288,0.77-2.288,1.914c0,1.166,0.99,1.914,2.288,1.914
		C349.079,19.682,350.069,19.308,350.619,18.583z"/>
	<path fill="#FFFFFF" d="M354.557,7.647c0-0.793,0.638-1.431,1.43-1.431s1.431,0.638,1.431,1.431c0,0.792-0.639,1.43-1.431,1.43
		S354.557,8.439,354.557,7.647z M354.82,21.002V10.375h2.311v10.628H354.82z"/>
	<path fill="#FFFFFF" d="M359.021,21.002V10.375h2.311v1.541c0.814-1.013,2.091-1.805,3.455-1.805v2.288
		c-0.198-0.044-0.419-0.065-0.704-0.065c-0.99,0-2.289,0.66-2.751,1.43v7.239H359.021z"/>
	<path fill="#FFFFFF" d="M372.024,14.797c0-2.685,3.542-2.948,3.542-4.818c0-0.858-0.682-1.584-2.09-1.584
		c-1.364,0-2.333,0.594-3.059,1.54l-1.496-1.65c1.122-1.387,2.816-2.179,4.796-2.179c2.772,0,4.467,1.475,4.467,3.455
		c0,3.256-3.916,3.521-3.916,5.479c0,0.353,0.176,0.771,0.483,0.99l-1.958,0.66C372.266,16.184,372.024,15.524,372.024,14.797z
		 M372.046,19.682c0-0.814,0.704-1.519,1.54-1.519s1.54,0.704,1.54,1.519c0,0.836-0.704,1.562-1.54,1.562
		S372.046,20.518,372.046,19.682z"/>
</g>
</svg>
